<?xml version="1.0" encoding="utf-8"?>
<svg xmlns="http://www.w3.org/2000/svg" xmlns:xlink="http://www.w3.org/1999/xlink" width="600" height="400" viewBox="0 0 2400 1600">
<defs>
  <clipPath id="clip630">
    <rect x="0" y="0" width="2400" height="1600"/>
  </clipPath>
</defs>
<path clip-path="url(#clip630)" d="M0 1600 L2400 1600 L2400 8.88178e-14 L0 8.88178e-14  Z" fill="#ffffff" fill-rule="evenodd" fill-opacity="1"/>
<defs>
  <clipPath id="clip631">
    <rect x="480" y="0" width="1681" height="1600"/>
  </clipPath>
</defs>
<path clip-path="url(#clip630)" d="M236.649 1405.9 L2352.76 1405.9 L2352.76 47.2441 L236.649 47.2441  Z" fill="#ffffff" fill-rule="evenodd" fill-opacity="1"/>
<defs>
  <clipPath id="clip632">
    <rect x="236" y="47" width="2117" height="1360"/>
  </clipPath>
</defs>
<polyline clip-path="url(#clip632)" style="stroke:#000000; stroke-linecap:round; stroke-linejoin:round; stroke-width:2; stroke-opacity:0.1; fill:none" points="386.47,1405.9 386.47,47.2441 "/>
<polyline clip-path="url(#clip632)" style="stroke:#000000; stroke-linecap:round; stroke-linejoin:round; stroke-width:2; stroke-opacity:0.1; fill:none" points="855.383,1405.9 855.383,47.2441 "/>
<polyline clip-path="url(#clip632)" style="stroke:#000000; stroke-linecap:round; stroke-linejoin:round; stroke-width:2; stroke-opacity:0.1; fill:none" points="1324.3,1405.9 1324.3,47.2441 "/>
<polyline clip-path="url(#clip632)" style="stroke:#000000; stroke-linecap:round; stroke-linejoin:round; stroke-width:2; stroke-opacity:0.1; fill:none" points="1793.21,1405.9 1793.21,47.2441 "/>
<polyline clip-path="url(#clip632)" style="stroke:#000000; stroke-linecap:round; stroke-linejoin:round; stroke-width:2; stroke-opacity:0.1; fill:none" points="2262.12,1405.9 2262.12,47.2441 "/>
<polyline clip-path="url(#clip630)" style="stroke:#000000; stroke-linecap:round; stroke-linejoin:round; stroke-width:4; stroke-opacity:1; fill:none" points="236.649,1405.9 2352.76,1405.9 "/>
<polyline clip-path="url(#clip630)" style="stroke:#000000; stroke-linecap:round; stroke-linejoin:round; stroke-width:4; stroke-opacity:1; fill:none" points="386.47,1405.9 386.47,1387 "/>
<polyline clip-path="url(#clip630)" style="stroke:#000000; stroke-linecap:round; stroke-linejoin:round; stroke-width:4; stroke-opacity:1; fill:none" points="855.383,1405.9 855.383,1387 "/>
<polyline clip-path="url(#clip630)" style="stroke:#000000; stroke-linecap:round; stroke-linejoin:round; stroke-width:4; stroke-opacity:1; fill:none" points="1324.3,1405.9 1324.3,1387 "/>
<polyline clip-path="url(#clip630)" style="stroke:#000000; stroke-linecap:round; stroke-linejoin:round; stroke-width:4; stroke-opacity:1; fill:none" points="1793.21,1405.9 1793.21,1387 "/>
<polyline clip-path="url(#clip630)" style="stroke:#000000; stroke-linecap:round; stroke-linejoin:round; stroke-width:4; stroke-opacity:1; fill:none" points="2262.12,1405.9 2262.12,1387 "/>
<path clip-path="url(#clip630)" d="M347.596 1458.06 L384.69 1458.06 L384.69 1462.98 L347.596 1462.98 L347.596 1458.06 Z" fill="#000000" fill-rule="nonzero" fill-opacity="1" /><path clip-path="url(#clip630)" d="M413.365 1440.99 L398.608 1464.05 L413.365 1464.05 L413.365 1440.99 M411.831 1435.9 L419.181 1435.9 L419.181 1464.05 L425.344 1464.05 L425.344 1468.91 L419.181 1468.91 L419.181 1479.1 L413.365 1479.1 L413.365 1468.91 L393.863 1468.91 L393.863 1463.27 L411.831 1435.9 Z" fill="#000000" fill-rule="nonzero" fill-opacity="1" /><path clip-path="url(#clip630)" d="M817.81 1458.06 L854.905 1458.06 L854.905 1462.98 L817.81 1462.98 L817.81 1458.06 Z" fill="#000000" fill-rule="nonzero" fill-opacity="1" /><path clip-path="url(#clip630)" d="M872.555 1474.18 L892.955 1474.18 L892.955 1479.1 L865.524 1479.1 L865.524 1474.18 Q868.852 1470.74 874.581 1464.95 Q880.339 1459.13 881.815 1457.46 Q884.621 1454.3 885.721 1452.13 Q886.849 1449.93 886.849 1447.82 Q886.849 1444.38 884.419 1442.21 Q882.017 1440.04 878.14 1440.04 Q875.391 1440.04 872.324 1440.99 Q869.286 1441.95 865.814 1443.89 L865.814 1437.98 Q869.344 1436.57 872.411 1435.84 Q875.478 1435.12 878.024 1435.12 Q884.737 1435.12 888.73 1438.48 Q892.723 1441.83 892.723 1447.44 Q892.723 1450.11 891.71 1452.51 Q890.727 1454.88 888.094 1458.12 Q887.37 1458.96 883.493 1462.98 Q879.616 1466.98 872.555 1474.18 Z" fill="#000000" fill-rule="nonzero" fill-opacity="1" /><path clip-path="url(#clip630)" d="M1324.3 1439.75 Q1319.78 1439.75 1317.5 1444.2 Q1315.24 1448.63 1315.24 1457.54 Q1315.24 1466.43 1317.5 1470.88 Q1319.78 1475.31 1324.3 1475.31 Q1328.84 1475.31 1331.09 1470.88 Q1333.38 1466.43 1333.38 1457.54 Q1333.38 1448.63 1331.09 1444.2 Q1328.84 1439.75 1324.3 1439.75 M1324.3 1435.12 Q1331.56 1435.12 1335.38 1440.88 Q1339.23 1446.61 1339.23 1457.54 Q1339.23 1468.45 1335.38 1474.21 Q1331.56 1479.94 1324.3 1479.94 Q1317.03 1479.94 1313.18 1474.21 Q1309.36 1468.45 1309.36 1457.54 Q1309.36 1446.61 1313.18 1440.88 Q1317.03 1435.12 1324.3 1435.12 Z" fill="#000000" fill-rule="nonzero" fill-opacity="1" /><path clip-path="url(#clip630)" d="M1786.52 1474.18 L1806.92 1474.18 L1806.92 1479.1 L1779.49 1479.1 L1779.49 1474.18 Q1782.82 1470.74 1788.55 1464.95 Q1794.31 1459.13 1795.78 1457.46 Q1798.59 1454.3 1799.69 1452.13 Q1800.82 1449.93 1800.82 1447.82 Q1800.82 1444.38 1798.39 1442.21 Q1795.99 1440.04 1792.11 1440.04 Q1789.36 1440.04 1786.29 1440.99 Q1783.25 1441.95 1779.78 1443.89 L1779.78 1437.98 Q1783.31 1436.57 1786.38 1435.84 Q1789.45 1435.12 1791.99 1435.12 Q1798.71 1435.12 1802.7 1438.48 Q1806.69 1441.83 1806.69 1447.44 Q1806.69 1450.11 1805.68 1452.51 Q1804.7 1454.88 1802.06 1458.12 Q1801.34 1458.96 1797.46 1462.98 Q1793.58 1466.98 1786.52 1474.18 Z" fill="#000000" fill-rule="nonzero" fill-opacity="1" /><path clip-path="url(#clip630)" d="M2265.88 1440.99 L2251.13 1464.05 L2265.88 1464.05 L2265.88 1440.99 M2264.35 1435.9 L2271.7 1435.9 L2271.7 1464.05 L2277.86 1464.05 L2277.86 1468.91 L2271.7 1468.91 L2271.7 1479.1 L2265.88 1479.1 L2265.88 1468.91 L2246.38 1468.91 L2246.38 1463.27 L2264.35 1435.9 Z" fill="#000000" fill-rule="nonzero" fill-opacity="1" /><path clip-path="url(#clip630)" d="M984.637 1524.18 L984.637 1545.28 L994.192 1545.28 Q999.495 1545.28 1002.39 1542.53 Q1005.29 1539.79 1005.29 1534.71 Q1005.29 1529.67 1002.39 1526.92 Q999.495 1524.18 994.192 1524.18 L984.637 1524.18 M977.039 1517.93 L994.192 1517.93 Q1003.63 1517.93 1008.45 1522.22 Q1013.3 1526.47 1013.3 1534.71 Q1013.3 1543.02 1008.45 1547.27 Q1003.63 1551.52 994.192 1551.52 L984.637 1551.52 L984.637 1574.09 L977.039 1574.09 L977.039 1517.93 Z" fill="#000000" fill-rule="nonzero" fill-opacity="1" /><path clip-path="url(#clip630)" d="M1065.55 1522.26 L1065.55 1530.27 Q1061.71 1526.7 1057.35 1524.93 Q1053.02 1523.16 1048.13 1523.16 Q1038.5 1523.16 1033.39 1529.07 Q1028.27 1534.93 1028.27 1546.07 Q1028.27 1557.16 1033.39 1563.07 Q1038.5 1568.94 1048.13 1568.94 Q1053.02 1568.94 1057.35 1567.17 Q1061.71 1565.4 1065.55 1561.83 L1065.55 1569.77 Q1061.56 1572.47 1057.08 1573.83 Q1052.65 1575.18 1047.68 1575.18 Q1034.93 1575.18 1027.59 1567.4 Q1020.26 1559.57 1020.26 1546.07 Q1020.26 1532.53 1027.59 1524.74 Q1034.93 1516.92 1047.68 1516.92 Q1052.72 1516.92 1057.16 1518.27 Q1061.64 1519.59 1065.55 1522.26 Z" fill="#000000" fill-rule="nonzero" fill-opacity="1" /><path clip-path="url(#clip630)" d="M1096.05 1525.42 L1085.75 1553.37 L1106.4 1553.37 L1096.05 1525.42 M1091.77 1517.93 L1100.38 1517.93 L1121.78 1574.09 L1113.88 1574.09 L1108.77 1559.69 L1083.45 1559.69 L1078.34 1574.09 L1070.33 1574.09 L1091.77 1517.93 Z" fill="#000000" fill-rule="nonzero" fill-opacity="1" /><path clip-path="url(#clip630)" d="M1181.89 1538.36 L1181.89 1515.56 L1188.81 1515.56 L1188.81 1574.09 L1181.89 1574.09 L1181.89 1567.77 Q1179.71 1571.53 1176.36 1573.38 Q1173.05 1575.18 1168.39 1575.18 Q1160.75 1575.18 1155.94 1569.09 Q1151.16 1563 1151.16 1553.06 Q1151.16 1543.13 1155.94 1537.04 Q1160.75 1530.95 1168.39 1530.95 Q1173.05 1530.95 1176.36 1532.79 Q1179.71 1534.6 1181.89 1538.36 M1158.31 1553.06 Q1158.31 1560.7 1161.43 1565.06 Q1164.59 1569.39 1170.08 1569.39 Q1175.57 1569.39 1178.73 1565.06 Q1181.89 1560.7 1181.89 1553.06 Q1181.89 1545.43 1178.73 1541.1 Q1175.57 1536.74 1170.08 1536.74 Q1164.59 1536.74 1161.43 1541.1 Q1158.31 1545.43 1158.31 1553.06 Z" fill="#000000" fill-rule="nonzero" fill-opacity="1" /><path clip-path="url(#clip630)" d="M1203.07 1531.96 L1209.99 1531.96 L1209.99 1574.09 L1203.07 1574.09 L1203.07 1531.96 M1203.07 1515.56 L1209.99 1515.56 L1209.99 1524.33 L1203.07 1524.33 L1203.07 1515.56 Z" fill="#000000" fill-rule="nonzero" fill-opacity="1" /><path clip-path="url(#clip630)" d="M1257.27 1540.05 Q1259.87 1535.39 1263.48 1533.17 Q1267.09 1530.95 1271.98 1530.95 Q1278.57 1530.95 1282.14 1535.57 Q1285.71 1540.16 1285.71 1548.66 L1285.71 1574.09 L1278.75 1574.09 L1278.75 1548.89 Q1278.75 1542.83 1276.61 1539.9 Q1274.47 1536.97 1270.06 1536.97 Q1264.69 1536.97 1261.56 1540.54 Q1258.44 1544.11 1258.44 1550.28 L1258.44 1574.09 L1251.48 1574.09 L1251.48 1548.89 Q1251.48 1542.8 1249.34 1539.9 Q1247.19 1536.97 1242.72 1536.97 Q1237.41 1536.97 1234.29 1540.58 Q1231.17 1544.15 1231.17 1550.28 L1231.17 1574.09 L1224.21 1574.09 L1224.21 1531.96 L1231.17 1531.96 L1231.17 1538.51 Q1233.54 1534.63 1236.85 1532.79 Q1240.16 1530.95 1244.71 1530.95 Q1249.3 1530.95 1252.5 1533.28 Q1255.73 1535.61 1257.27 1540.05 Z" fill="#000000" fill-rule="nonzero" fill-opacity="1" /><path clip-path="url(#clip630)" d="M1335.55 1551.3 L1335.55 1554.68 L1303.73 1554.68 Q1304.18 1561.83 1308.02 1565.59 Q1311.89 1569.31 1318.78 1569.31 Q1322.76 1569.31 1326.49 1568.34 Q1330.25 1567.36 1333.94 1565.4 L1333.94 1571.95 Q1330.21 1573.53 1326.3 1574.36 Q1322.39 1575.18 1318.36 1575.18 Q1308.28 1575.18 1302.38 1569.31 Q1296.51 1563.45 1296.51 1553.44 Q1296.51 1543.1 1302.07 1537.04 Q1307.68 1530.95 1317.16 1530.95 Q1325.66 1530.95 1330.59 1536.44 Q1335.55 1541.89 1335.55 1551.3 M1328.63 1549.27 Q1328.56 1543.59 1325.43 1540.2 Q1322.35 1536.81 1317.23 1536.81 Q1311.44 1536.81 1307.94 1540.09 Q1304.48 1543.36 1303.96 1549.3 L1328.63 1549.27 Z" fill="#000000" fill-rule="nonzero" fill-opacity="1" /><path clip-path="url(#clip630)" d="M1381.93 1548.66 L1381.93 1574.09 L1375.01 1574.09 L1375.01 1548.89 Q1375.01 1542.91 1372.68 1539.94 Q1370.35 1536.97 1365.68 1536.97 Q1360.08 1536.97 1356.84 1540.54 Q1353.61 1544.11 1353.61 1550.28 L1353.61 1574.09 L1346.65 1574.09 L1346.65 1531.96 L1353.61 1531.96 L1353.61 1538.51 Q1356.09 1534.71 1359.44 1532.83 Q1362.82 1530.95 1367.23 1530.95 Q1374.48 1530.95 1378.21 1535.46 Q1381.93 1539.94 1381.93 1548.66 Z" fill="#000000" fill-rule="nonzero" fill-opacity="1" /><path clip-path="url(#clip630)" d="M1422.6 1533.2 L1422.6 1539.75 Q1419.66 1538.24 1416.5 1537.49 Q1413.34 1536.74 1409.96 1536.74 Q1404.8 1536.74 1402.21 1538.32 Q1399.65 1539.9 1399.65 1543.06 Q1399.65 1545.47 1401.49 1546.86 Q1403.34 1548.21 1408.9 1549.45 L1411.27 1549.98 Q1418.65 1551.56 1421.73 1554.46 Q1424.85 1557.32 1424.85 1562.47 Q1424.85 1568.34 1420.19 1571.76 Q1415.56 1575.18 1407.44 1575.18 Q1404.05 1575.18 1400.36 1574.51 Q1396.72 1573.87 1392.65 1572.55 L1392.65 1565.4 Q1396.49 1567.4 1400.21 1568.41 Q1403.94 1569.39 1407.59 1569.39 Q1412.48 1569.39 1415.11 1567.73 Q1417.74 1566.04 1417.74 1563 Q1417.74 1560.17 1415.82 1558.67 Q1413.94 1557.16 1407.51 1555.77 L1405.1 1555.21 Q1398.67 1553.85 1395.81 1551.07 Q1392.95 1548.25 1392.95 1543.36 Q1392.95 1537.42 1397.17 1534.18 Q1401.38 1530.95 1409.13 1530.95 Q1412.97 1530.95 1416.35 1531.51 Q1419.74 1532.08 1422.6 1533.2 Z" fill="#000000" fill-rule="nonzero" fill-opacity="1" /><path clip-path="url(#clip630)" d="M1435.87 1531.96 L1442.79 1531.96 L1442.79 1574.09 L1435.87 1574.09 L1435.87 1531.96 M1435.87 1515.56 L1442.79 1515.56 L1442.79 1524.33 L1435.87 1524.33 L1435.87 1515.56 Z" fill="#000000" fill-rule="nonzero" fill-opacity="1" /><path clip-path="url(#clip630)" d="M1473.6 1536.81 Q1468.03 1536.81 1464.8 1541.18 Q1461.56 1545.5 1461.56 1553.06 Q1461.56 1560.63 1464.76 1564.99 Q1468 1569.31 1473.6 1569.31 Q1479.13 1569.31 1482.37 1564.95 Q1485.6 1560.59 1485.6 1553.06 Q1485.6 1545.58 1482.37 1541.22 Q1479.13 1536.81 1473.6 1536.81 M1473.6 1530.95 Q1482.63 1530.95 1487.78 1536.81 Q1492.94 1542.68 1492.94 1553.06 Q1492.94 1563.41 1487.78 1569.31 Q1482.63 1575.18 1473.6 1575.18 Q1464.54 1575.18 1459.38 1569.31 Q1454.27 1563.41 1454.27 1553.06 Q1454.27 1542.68 1459.38 1536.81 Q1464.54 1530.95 1473.6 1530.95 Z" fill="#000000" fill-rule="nonzero" fill-opacity="1" /><path clip-path="url(#clip630)" d="M1539.43 1548.66 L1539.43 1574.09 L1532.51 1574.09 L1532.51 1548.89 Q1532.51 1542.91 1530.18 1539.94 Q1527.84 1536.97 1523.18 1536.97 Q1517.57 1536.97 1514.34 1540.54 Q1511.1 1544.11 1511.1 1550.28 L1511.1 1574.09 L1504.15 1574.09 L1504.15 1531.96 L1511.1 1531.96 L1511.1 1538.51 Q1513.59 1534.71 1516.93 1532.83 Q1520.32 1530.95 1524.72 1530.95 Q1531.98 1530.95 1535.71 1535.46 Q1539.43 1539.94 1539.43 1548.66 Z" fill="#000000" fill-rule="nonzero" fill-opacity="1" /><path clip-path="url(#clip630)" d="M1580.02 1567.7 L1592.43 1567.7 L1592.43 1524.85 L1578.93 1527.56 L1578.93 1520.64 L1592.35 1517.93 L1599.95 1517.93 L1599.95 1567.7 L1612.37 1567.7 L1612.37 1574.09 L1580.02 1574.09 L1580.02 1567.7 Z" fill="#000000" fill-rule="nonzero" fill-opacity="1" /><polyline clip-path="url(#clip632)" style="stroke:#000000; stroke-linecap:round; stroke-linejoin:round; stroke-width:2; stroke-opacity:0.1; fill:none" points="236.649,1379.98 2352.76,1379.98 "/>
<polyline clip-path="url(#clip632)" style="stroke:#000000; stroke-linecap:round; stroke-linejoin:round; stroke-width:2; stroke-opacity:0.1; fill:none" points="236.649,1029.99 2352.76,1029.99 "/>
<polyline clip-path="url(#clip632)" style="stroke:#000000; stroke-linecap:round; stroke-linejoin:round; stroke-width:2; stroke-opacity:0.1; fill:none" points="236.649,680.007 2352.76,680.007 "/>
<polyline clip-path="url(#clip632)" style="stroke:#000000; stroke-linecap:round; stroke-linejoin:round; stroke-width:2; stroke-opacity:0.1; fill:none" points="236.649,330.02 2352.76,330.02 "/>
<polyline clip-path="url(#clip630)" style="stroke:#000000; stroke-linecap:round; stroke-linejoin:round; stroke-width:4; stroke-opacity:1; fill:none" points="236.649,1405.9 236.649,47.2441 "/>
<polyline clip-path="url(#clip630)" style="stroke:#000000; stroke-linecap:round; stroke-linejoin:round; stroke-width:4; stroke-opacity:1; fill:none" points="236.649,1379.98 255.546,1379.98 "/>
<polyline clip-path="url(#clip630)" style="stroke:#000000; stroke-linecap:round; stroke-linejoin:round; stroke-width:4; stroke-opacity:1; fill:none" points="236.649,1029.99 255.546,1029.99 "/>
<polyline clip-path="url(#clip630)" style="stroke:#000000; stroke-linecap:round; stroke-linejoin:round; stroke-width:4; stroke-opacity:1; fill:none" points="236.649,680.007 255.546,680.007 "/>
<polyline clip-path="url(#clip630)" style="stroke:#000000; stroke-linecap:round; stroke-linejoin:round; stroke-width:4; stroke-opacity:1; fill:none" points="236.649,330.02 255.546,330.02 "/>
<path clip-path="url(#clip630)" d="M122.9 1380.54 L159.995 1380.54 L159.995 1385.46 L122.9 1385.46 L122.9 1380.54 Z" fill="#000000" fill-rule="nonzero" fill-opacity="1" /><path clip-path="url(#clip630)" d="M188.669 1363.47 L173.913 1386.53 L188.669 1386.53 L188.669 1363.47 M187.136 1358.38 L194.485 1358.38 L194.485 1386.53 L200.649 1386.53 L200.649 1391.4 L194.485 1391.4 L194.485 1401.58 L188.669 1401.58 L188.669 1391.4 L169.167 1391.4 L169.167 1385.75 L187.136 1358.38 Z" fill="#000000" fill-rule="nonzero" fill-opacity="1" /><path clip-path="url(#clip630)" d="M125.504 1030.56 L162.599 1030.56 L162.599 1035.48 L125.504 1035.48 L125.504 1030.56 Z" fill="#000000" fill-rule="nonzero" fill-opacity="1" /><path clip-path="url(#clip630)" d="M180.249 1046.67 L200.649 1046.67 L200.649 1051.59 L173.218 1051.59 L173.218 1046.67 Q176.546 1043.23 182.275 1037.44 Q188.033 1031.63 189.509 1029.95 Q192.315 1026.8 193.415 1024.63 Q194.543 1022.43 194.543 1020.31 Q194.543 1016.87 192.113 1014.7 Q189.711 1012.53 185.834 1012.53 Q183.085 1012.53 180.018 1013.49 Q176.98 1014.44 173.508 1016.38 L173.508 1010.48 Q177.038 1009.06 180.105 1008.34 Q183.172 1007.61 185.718 1007.61 Q192.431 1007.61 196.424 1010.97 Q200.417 1014.33 200.417 1019.94 Q200.417 1022.6 199.404 1025 Q198.421 1027.38 195.787 1030.62 Q195.064 1031.45 191.187 1035.48 Q187.31 1039.47 180.249 1046.67 Z" fill="#000000" fill-rule="nonzero" fill-opacity="1" /><path clip-path="url(#clip630)" d="M185.718 662.255 Q181.204 662.255 178.918 666.711 Q176.661 671.138 176.661 680.05 Q176.661 688.934 178.918 693.39 Q181.204 697.817 185.718 697.817 Q190.261 697.817 192.518 693.39 Q194.804 688.934 194.804 680.05 Q194.804 671.138 192.518 666.711 Q190.261 662.255 185.718 662.255 M185.718 657.626 Q192.981 657.626 196.8 663.384 Q200.649 669.113 200.649 680.05 Q200.649 690.959 196.8 696.717 Q192.981 702.446 185.718 702.446 Q178.455 702.446 174.607 696.717 Q170.788 690.959 170.788 680.05 Q170.788 669.113 174.607 663.384 Q178.455 657.626 185.718 657.626 Z" fill="#000000" fill-rule="nonzero" fill-opacity="1" /><path clip-path="url(#clip630)" d="M180.249 346.701 L200.649 346.701 L200.649 351.62 L173.218 351.62 L173.218 346.701 Q176.546 343.258 182.275 337.471 Q188.033 331.655 189.509 329.977 Q192.315 326.823 193.415 324.653 Q194.543 322.454 194.543 320.342 Q194.543 316.898 192.113 314.728 Q189.711 312.558 185.834 312.558 Q183.085 312.558 180.018 313.513 Q176.98 314.468 173.508 316.406 L173.508 310.504 Q177.038 309.086 180.105 308.363 Q183.172 307.639 185.718 307.639 Q192.431 307.639 196.424 310.996 Q200.417 314.352 200.417 319.965 Q200.417 322.627 199.404 325.029 Q198.421 327.402 195.787 330.642 Q195.064 331.482 191.187 335.504 Q187.31 339.497 180.249 346.701 Z" fill="#000000" fill-rule="nonzero" fill-opacity="1" /><path clip-path="url(#clip630)" d="M20.1363 1036.34 L41.2387 1036.34 L41.2387 1026.78 Q41.2387 1021.48 38.4927 1018.58 Q35.7468 1015.69 30.6687 1015.69 Q25.6282 1015.69 22.8823 1018.58 Q20.1363 1021.48 20.1363 1026.78 L20.1363 1036.34 M13.8922 1043.93 L13.8922 1026.78 Q13.8922 1017.34 18.1803 1012.53 Q22.4309 1007.67 30.6687 1007.67 Q38.9817 1007.67 43.2323 1012.53 Q47.4828 1017.34 47.4828 1026.78 L47.4828 1036.34 L70.0522 1036.34 L70.0522 1043.93 L13.8922 1043.93 Z" fill="#000000" fill-rule="nonzero" fill-opacity="1" /><path clip-path="url(#clip630)" d="M18.2179 955.425 L26.2301 955.425 Q22.6566 959.262 20.8886 963.625 Q19.1207 967.951 19.1207 972.841 Q19.1207 982.47 25.0264 987.586 Q30.8944 992.702 42.0286 992.702 Q53.1252 992.702 59.0308 987.586 Q64.8988 982.47 64.8988 972.841 Q64.8988 967.951 63.1309 963.625 Q61.363 959.262 57.7895 955.425 L65.7264 955.425 Q68.4347 959.412 69.7888 963.888 Q71.143 968.327 71.143 973.292 Q71.143 986.044 63.3566 993.379 Q55.5326 1000.71 42.0286 1000.71 Q28.487 1000.71 20.7006 993.379 Q12.8765 986.044 12.8765 973.292 Q12.8765 968.252 14.2307 963.813 Q15.5472 959.337 18.2179 955.425 Z" fill="#000000" fill-rule="nonzero" fill-opacity="1" /><path clip-path="url(#clip630)" d="M21.3776 924.919 L49.326 935.225 L49.326 914.574 L21.3776 924.919 M13.8922 929.207 L13.8922 920.593 L70.0522 899.19 L70.0522 907.089 L55.6454 912.205 L55.6454 937.52 L70.0522 942.636 L70.0522 950.648 L13.8922 929.207 Z" fill="#000000" fill-rule="nonzero" fill-opacity="1" /><path clip-path="url(#clip630)" d="M34.3174 839.08 L11.5224 839.08 L11.5224 832.159 L70.0522 832.159 L70.0522 839.08 L63.7327 839.08 Q67.4943 841.262 69.3375 844.61 Q71.143 847.92 71.143 852.584 Q71.143 860.22 65.0493 865.035 Q58.9556 869.812 49.0251 869.812 Q39.0946 869.812 33.0009 865.035 Q26.9071 860.22 26.9071 852.584 Q26.9071 847.92 28.7503 844.61 Q30.5558 841.262 34.3174 839.08 M49.0251 862.665 Q56.661 862.665 61.0244 859.543 Q65.3502 856.383 65.3502 850.891 Q65.3502 845.399 61.0244 842.24 Q56.661 839.08 49.0251 839.08 Q41.3891 839.08 37.0633 842.24 Q32.6999 845.399 32.6999 850.891 Q32.6999 856.383 37.0633 859.543 Q41.3891 862.665 49.0251 862.665 Z" fill="#000000" fill-rule="nonzero" fill-opacity="1" /><path clip-path="url(#clip630)" d="M27.9228 817.902 L27.9228 810.981 L70.0522 810.981 L70.0522 817.902 L27.9228 817.902 M11.5224 817.902 L11.5224 810.981 L20.2868 810.981 L20.2868 817.902 L11.5224 817.902 Z" fill="#000000" fill-rule="nonzero" fill-opacity="1" /><path clip-path="url(#clip630)" d="M36.0101 763.699 Q31.3458 761.103 29.1265 757.492 Q26.9071 753.881 26.9071 748.991 Q26.9071 742.408 31.5338 738.835 Q36.1229 735.261 44.6241 735.261 L70.0522 735.261 L70.0522 742.22 L44.8497 742.22 Q38.7936 742.22 35.8596 744.364 Q32.9256 746.508 32.9256 750.909 Q32.9256 756.288 36.4991 759.41 Q40.0726 762.532 46.2415 762.532 L70.0522 762.532 L70.0522 769.491 L44.8497 769.491 Q38.756 769.491 35.8596 771.635 Q32.9256 773.779 32.9256 778.256 Q32.9256 783.56 36.5367 786.682 Q40.1102 789.804 46.2415 789.804 L70.0522 789.804 L70.0522 796.763 L27.9228 796.763 L27.9228 789.804 L34.4679 789.804 Q30.5935 787.434 28.7503 784.124 Q26.9071 780.814 26.9071 776.262 Q26.9071 771.673 29.2393 768.476 Q31.5715 765.241 36.0101 763.699 Z" fill="#000000" fill-rule="nonzero" fill-opacity="1" /><path clip-path="url(#clip630)" d="M47.2571 685.421 L50.6425 685.421 L50.6425 717.243 Q57.7895 716.792 61.551 712.955 Q65.275 709.081 65.275 702.197 Q65.275 698.21 64.297 694.486 Q63.319 690.724 61.363 687.038 L67.9081 687.038 Q69.4879 690.762 70.3155 694.674 Q71.143 698.586 71.143 702.611 Q71.143 712.692 65.275 718.597 Q59.407 724.465 49.4012 724.465 Q39.057 724.465 33.0009 718.898 Q26.9071 713.294 26.9071 703.815 Q26.9071 695.313 32.399 690.386 Q37.8533 685.421 47.2571 685.421 M45.2259 692.342 Q39.546 692.417 36.1606 695.539 Q32.7752 698.624 32.7752 703.739 Q32.7752 709.532 36.0477 713.03 Q39.3203 716.491 45.2635 717.018 L45.2259 692.342 Z" fill="#000000" fill-rule="nonzero" fill-opacity="1" /><path clip-path="url(#clip630)" d="M44.6241 639.041 L70.0522 639.041 L70.0522 645.962 L44.8497 645.962 Q38.8689 645.962 35.8972 648.294 Q32.9256 650.626 32.9256 655.291 Q32.9256 660.895 36.4991 664.13 Q40.0726 667.365 46.2415 667.365 L70.0522 667.365 L70.0522 674.324 L27.9228 674.324 L27.9228 667.365 L34.4679 667.365 Q30.6687 664.882 28.7879 661.535 Q26.9071 658.149 26.9071 653.748 Q26.9071 646.488 31.421 642.765 Q35.8972 639.041 44.6241 639.041 Z" fill="#000000" fill-rule="nonzero" fill-opacity="1" /><path clip-path="url(#clip630)" d="M29.1641 598.378 L35.7092 598.378 Q34.2045 601.312 33.4522 604.472 Q32.6999 607.632 32.6999 611.017 Q32.6999 616.17 34.2798 618.766 Q35.8596 621.324 39.0193 621.324 Q41.4267 621.324 42.8185 619.481 Q44.1727 617.637 45.414 612.07 L45.9406 609.7 Q47.5204 602.328 50.4168 599.243 Q53.2756 596.121 58.429 596.121 Q64.297 596.121 67.72 600.786 Q71.143 605.412 71.143 613.537 Q71.143 616.923 70.4659 620.609 Q69.8265 624.258 68.5099 628.32 L61.363 628.32 Q63.3566 624.483 64.3722 620.759 Q65.3502 617.036 65.3502 613.387 Q65.3502 608.497 63.6951 605.864 Q62.0024 603.231 58.9556 603.231 Q56.1344 603.231 54.6298 605.149 Q53.1252 607.03 51.7334 613.462 L51.1692 615.869 Q49.815 622.302 47.0314 625.16 Q44.2103 628.019 39.3203 628.019 Q33.377 628.019 30.1421 623.806 Q26.9071 619.593 26.9071 611.845 Q26.9071 608.008 27.4714 604.622 Q28.0356 601.237 29.1641 598.378 Z" fill="#000000" fill-rule="nonzero" fill-opacity="1" /><path clip-path="url(#clip630)" d="M27.9228 585.1 L27.9228 578.179 L70.0522 578.179 L70.0522 585.1 L27.9228 585.1 M11.5224 585.1 L11.5224 578.179 L20.2868 578.179 L20.2868 585.1 L11.5224 585.1 Z" fill="#000000" fill-rule="nonzero" fill-opacity="1" /><path clip-path="url(#clip630)" d="M32.7752 547.372 Q32.7752 552.939 37.1386 556.174 Q41.4643 559.409 49.0251 559.409 Q56.5858 559.409 60.9492 556.211 Q65.275 552.976 65.275 547.372 Q65.275 541.842 60.9116 538.607 Q56.5482 535.372 49.0251 535.372 Q41.5396 535.372 37.1762 538.607 Q32.7752 541.842 32.7752 547.372 M26.9071 547.372 Q26.9071 538.344 32.7752 533.19 Q38.6432 528.037 49.0251 528.037 Q59.3693 528.037 65.275 533.19 Q71.143 538.344 71.143 547.372 Q71.143 556.437 65.275 561.59 Q59.3693 566.706 49.0251 566.706 Q38.6432 566.706 32.7752 561.59 Q26.9071 556.437 26.9071 547.372 Z" fill="#000000" fill-rule="nonzero" fill-opacity="1" /><path clip-path="url(#clip630)" d="M44.6241 481.544 L70.0522 481.544 L70.0522 488.466 L44.8497 488.466 Q38.8689 488.466 35.8972 490.798 Q32.9256 493.13 32.9256 497.794 Q32.9256 503.399 36.4991 506.634 Q40.0726 509.869 46.2415 509.869 L70.0522 509.869 L70.0522 516.828 L27.9228 516.828 L27.9228 509.869 L34.4679 509.869 Q30.6687 507.386 28.7879 504.038 Q26.9071 500.653 26.9071 496.252 Q26.9071 488.992 31.421 485.268 Q35.8972 481.544 44.6241 481.544 Z" fill="#000000" fill-rule="nonzero" fill-opacity="1" /><path clip-path="url(#clip630)" d="M63.6575 435.729 L63.6575 409.21 L70.0522 409.21 L70.0522 444.869 L63.6575 444.869 Q59.1813 440.543 51.6582 433.096 Q44.0974 425.61 41.9157 423.692 Q37.8156 420.043 34.9945 418.614 Q32.1357 417.147 29.3898 417.147 Q24.9135 417.147 22.0923 420.306 Q19.2712 423.428 19.2712 428.469 Q19.2712 432.042 20.5125 436.03 Q21.7538 439.979 24.274 444.493 L16.6005 444.493 Q14.7573 439.904 13.8169 435.917 Q12.8765 431.929 12.8765 428.619 Q12.8765 419.892 17.2399 414.702 Q21.6033 409.511 28.9008 409.511 Q32.3614 409.511 35.4835 410.827 Q38.568 412.106 42.7809 415.529 Q43.8717 416.469 49.1003 421.51 Q54.2912 426.55 63.6575 435.729 Z" fill="#000000" fill-rule="nonzero" fill-opacity="1" /><circle clip-path="url(#clip632)" cx="725.34" cy="474.716" r="14.4" fill="#ff0000" fill-rule="evenodd" fill-opacity="1" stroke="#000000" stroke-opacity="1" stroke-width="3.2"/>
<circle clip-path="url(#clip632)" cx="684.074" cy="442.597" r="14.4" fill="#ff0000" fill-rule="evenodd" fill-opacity="1" stroke="#000000" stroke-opacity="1" stroke-width="3.2"/>
<circle clip-path="url(#clip632)" cx="785.129" cy="357.437" r="14.4" fill="#ff0000" fill-rule="evenodd" fill-opacity="1" stroke="#000000" stroke-opacity="1" stroke-width="3.2"/>
<circle clip-path="url(#clip632)" cx="1053.86" cy="642.052" r="14.4" fill="#ff0000" fill-rule="evenodd" fill-opacity="1" stroke="#000000" stroke-opacity="1" stroke-width="3.2"/>
<circle clip-path="url(#clip632)" cx="980.778" cy="555.288" r="14.4" fill="#ff0000" fill-rule="evenodd" fill-opacity="1" stroke="#000000" stroke-opacity="1" stroke-width="3.2"/>
<circle clip-path="url(#clip632)" cx="589.511" cy="327.42" r="14.4" fill="#ff0000" fill-rule="evenodd" fill-opacity="1" stroke="#000000" stroke-opacity="1" stroke-width="3.2"/>
<circle clip-path="url(#clip632)" cx="819.881" cy="701.434" r="14.4" fill="#ff0000" fill-rule="evenodd" fill-opacity="1" stroke="#000000" stroke-opacity="1" stroke-width="3.2"/>
<circle clip-path="url(#clip632)" cx="584.315" cy="495.154" r="14.4" fill="#ff0000" fill-rule="evenodd" fill-opacity="1" stroke="#000000" stroke-opacity="1" stroke-width="3.2"/>
<circle clip-path="url(#clip632)" cx="796.531" cy="483.971" r="14.4" fill="#ff0000" fill-rule="evenodd" fill-opacity="1" stroke="#000000" stroke-opacity="1" stroke-width="3.2"/>
<circle clip-path="url(#clip632)" cx="768.433" cy="396.314" r="14.4" fill="#ff0000" fill-rule="evenodd" fill-opacity="1" stroke="#000000" stroke-opacity="1" stroke-width="3.2"/>
<circle clip-path="url(#clip632)" cx="483.36" cy="415.874" r="14.4" fill="#ff0000" fill-rule="evenodd" fill-opacity="1" stroke="#000000" stroke-opacity="1" stroke-width="3.2"/>
<circle clip-path="url(#clip632)" cx="900.907" cy="745.64" r="14.4" fill="#ff0000" fill-rule="evenodd" fill-opacity="1" stroke="#000000" stroke-opacity="1" stroke-width="3.2"/>
<circle clip-path="url(#clip632)" cx="706.725" cy="350.164" r="14.4" fill="#ff0000" fill-rule="evenodd" fill-opacity="1" stroke="#000000" stroke-opacity="1" stroke-width="3.2"/>
<circle clip-path="url(#clip632)" cx="859.744" cy="394.632" r="14.4" fill="#ff0000" fill-rule="evenodd" fill-opacity="1" stroke="#000000" stroke-opacity="1" stroke-width="3.2"/>
<circle clip-path="url(#clip632)" cx="719.113" cy="511.8" r="14.4" fill="#ff0000" fill-rule="evenodd" fill-opacity="1" stroke="#000000" stroke-opacity="1" stroke-width="3.2"/>
<circle clip-path="url(#clip632)" cx="664.358" cy="570.121" r="14.4" fill="#ff0000" fill-rule="evenodd" fill-opacity="1" stroke="#000000" stroke-opacity="1" stroke-width="3.2"/>
<circle clip-path="url(#clip632)" cx="963.684" cy="833.423" r="14.4" fill="#ff0000" fill-rule="evenodd" fill-opacity="1" stroke="#000000" stroke-opacity="1" stroke-width="3.2"/>
<circle clip-path="url(#clip632)" cx="561.185" cy="687.31" r="14.4" fill="#ff0000" fill-rule="evenodd" fill-opacity="1" stroke="#000000" stroke-opacity="1" stroke-width="3.2"/>
<circle clip-path="url(#clip632)" cx="493.363" cy="526.22" r="14.4" fill="#ff0000" fill-rule="evenodd" fill-opacity="1" stroke="#000000" stroke-opacity="1" stroke-width="3.2"/>
<circle clip-path="url(#clip632)" cx="642.767" cy="574.411" r="14.4" fill="#ff0000" fill-rule="evenodd" fill-opacity="1" stroke="#000000" stroke-opacity="1" stroke-width="3.2"/>
<circle clip-path="url(#clip632)" cx="825.175" cy="394.403" r="14.4" fill="#ff0000" fill-rule="evenodd" fill-opacity="1" stroke="#000000" stroke-opacity="1" stroke-width="3.2"/>
<circle clip-path="url(#clip632)" cx="664.489" cy="430.063" r="14.4" fill="#ff0000" fill-rule="evenodd" fill-opacity="1" stroke="#000000" stroke-opacity="1" stroke-width="3.2"/>
<circle clip-path="url(#clip632)" cx="794.38" cy="266.923" r="14.4" fill="#ff0000" fill-rule="evenodd" fill-opacity="1" stroke="#000000" stroke-opacity="1" stroke-width="3.2"/>
<circle clip-path="url(#clip632)" cx="1076.42" cy="474.522" r="14.4" fill="#ff0000" fill-rule="evenodd" fill-opacity="1" stroke="#000000" stroke-opacity="1" stroke-width="3.2"/>
<circle clip-path="url(#clip632)" cx="836.102" cy="479.368" r="14.4" fill="#ff0000" fill-rule="evenodd" fill-opacity="1" stroke="#000000" stroke-opacity="1" stroke-width="3.2"/>
<circle clip-path="url(#clip632)" cx="889.173" cy="586.036" r="14.4" fill="#ff0000" fill-rule="evenodd" fill-opacity="1" stroke="#000000" stroke-opacity="1" stroke-width="3.2"/>
<circle clip-path="url(#clip632)" cx="900.123" cy="601.979" r="14.4" fill="#ff0000" fill-rule="evenodd" fill-opacity="1" stroke="#000000" stroke-opacity="1" stroke-width="3.2"/>
<circle clip-path="url(#clip632)" cx="930.477" cy="783.87" r="14.4" fill="#ff0000" fill-rule="evenodd" fill-opacity="1" stroke="#000000" stroke-opacity="1" stroke-width="3.2"/>
<circle clip-path="url(#clip632)" cx="701.513" cy="540.479" r="14.4" fill="#ff0000" fill-rule="evenodd" fill-opacity="1" stroke="#000000" stroke-opacity="1" stroke-width="3.2"/>
<circle clip-path="url(#clip632)" cx="805.396" cy="499.864" r="14.4" fill="#ff0000" fill-rule="evenodd" fill-opacity="1" stroke="#000000" stroke-opacity="1" stroke-width="3.2"/>
<circle clip-path="url(#clip632)" cx="796.59" cy="560.217" r="14.4" fill="#ff0000" fill-rule="evenodd" fill-opacity="1" stroke="#000000" stroke-opacity="1" stroke-width="3.2"/>
<circle clip-path="url(#clip632)" cx="794.165" cy="761.916" r="14.4" fill="#ff0000" fill-rule="evenodd" fill-opacity="1" stroke="#000000" stroke-opacity="1" stroke-width="3.2"/>
<circle clip-path="url(#clip632)" cx="1033.67" cy="384.629" r="14.4" fill="#ff0000" fill-rule="evenodd" fill-opacity="1" stroke="#000000" stroke-opacity="1" stroke-width="3.2"/>
<circle clip-path="url(#clip632)" cx="733.293" cy="441.011" r="14.4" fill="#ff0000" fill-rule="evenodd" fill-opacity="1" stroke="#000000" stroke-opacity="1" stroke-width="3.2"/>
<circle clip-path="url(#clip632)" cx="717.423" cy="552.91" r="14.4" fill="#ff0000" fill-rule="evenodd" fill-opacity="1" stroke="#000000" stroke-opacity="1" stroke-width="3.2"/>
<circle clip-path="url(#clip632)" cx="666.227" cy="501.816" r="14.4" fill="#ff0000" fill-rule="evenodd" fill-opacity="1" stroke="#000000" stroke-opacity="1" stroke-width="3.2"/>
<circle clip-path="url(#clip632)" cx="733.47" cy="506.803" r="14.4" fill="#ff0000" fill-rule="evenodd" fill-opacity="1" stroke="#000000" stroke-opacity="1" stroke-width="3.2"/>
<circle clip-path="url(#clip632)" cx="1024.43" cy="724.688" r="14.4" fill="#ff0000" fill-rule="evenodd" fill-opacity="1" stroke="#000000" stroke-opacity="1" stroke-width="3.2"/>
<circle clip-path="url(#clip632)" cx="815.448" cy="487.857" r="14.4" fill="#ff0000" fill-rule="evenodd" fill-opacity="1" stroke="#000000" stroke-opacity="1" stroke-width="3.2"/>
<circle clip-path="url(#clip632)" cx="569.314" cy="388.916" r="14.4" fill="#ff0000" fill-rule="evenodd" fill-opacity="1" stroke="#000000" stroke-opacity="1" stroke-width="3.2"/>
<circle clip-path="url(#clip632)" cx="865.888" cy="661.671" r="14.4" fill="#ff0000" fill-rule="evenodd" fill-opacity="1" stroke="#000000" stroke-opacity="1" stroke-width="3.2"/>
<circle clip-path="url(#clip632)" cx="498.323" cy="478.032" r="14.4" fill="#ff0000" fill-rule="evenodd" fill-opacity="1" stroke="#000000" stroke-opacity="1" stroke-width="3.2"/>
<circle clip-path="url(#clip632)" cx="930.231" cy="682.145" r="14.4" fill="#ff0000" fill-rule="evenodd" fill-opacity="1" stroke="#000000" stroke-opacity="1" stroke-width="3.2"/>
<circle clip-path="url(#clip632)" cx="784.597" cy="673.77" r="14.4" fill="#ff0000" fill-rule="evenodd" fill-opacity="1" stroke="#000000" stroke-opacity="1" stroke-width="3.2"/>
<circle clip-path="url(#clip632)" cx="579.313" cy="527.884" r="14.4" fill="#ff0000" fill-rule="evenodd" fill-opacity="1" stroke="#000000" stroke-opacity="1" stroke-width="3.2"/>
<circle clip-path="url(#clip632)" cx="296.538" cy="350.968" r="14.4" fill="#ff0000" fill-rule="evenodd" fill-opacity="1" stroke="#000000" stroke-opacity="1" stroke-width="3.2"/>
<circle clip-path="url(#clip632)" cx="979.21" cy="553.145" r="14.4" fill="#ff0000" fill-rule="evenodd" fill-opacity="1" stroke="#000000" stroke-opacity="1" stroke-width="3.2"/>
<circle clip-path="url(#clip632)" cx="475.463" cy="271.003" r="14.4" fill="#ff0000" fill-rule="evenodd" fill-opacity="1" stroke="#000000" stroke-opacity="1" stroke-width="3.2"/>
<circle clip-path="url(#clip632)" cx="1102.68" cy="811.689" r="14.4" fill="#0000ff" fill-rule="evenodd" fill-opacity="1" stroke="#000000" stroke-opacity="1" stroke-width="3.2"/>
<circle clip-path="url(#clip632)" cx="1582.81" cy="783.698" r="14.4" fill="#0000ff" fill-rule="evenodd" fill-opacity="1" stroke="#000000" stroke-opacity="1" stroke-width="3.2"/>
<circle clip-path="url(#clip632)" cx="1894.3" cy="725.14" r="14.4" fill="#0000ff" fill-rule="evenodd" fill-opacity="1" stroke="#000000" stroke-opacity="1" stroke-width="3.2"/>
<circle clip-path="url(#clip632)" cx="1383.13" cy="1185.47" r="14.4" fill="#0000ff" fill-rule="evenodd" fill-opacity="1" stroke="#000000" stroke-opacity="1" stroke-width="3.2"/>
<circle clip-path="url(#clip632)" cx="1279.09" cy="1139.32" r="14.4" fill="#0000ff" fill-rule="evenodd" fill-opacity="1" stroke="#000000" stroke-opacity="1" stroke-width="3.2"/>
<circle clip-path="url(#clip632)" cx="1449.35" cy="1096.64" r="14.4" fill="#0000ff" fill-rule="evenodd" fill-opacity="1" stroke="#000000" stroke-opacity="1" stroke-width="3.2"/>
<circle clip-path="url(#clip632)" cx="1762.51" cy="975.43" r="14.4" fill="#0000ff" fill-rule="evenodd" fill-opacity="1" stroke="#000000" stroke-opacity="1" stroke-width="3.2"/>
<circle clip-path="url(#clip632)" cx="1726.09" cy="908.338" r="14.4" fill="#0000ff" fill-rule="evenodd" fill-opacity="1" stroke="#000000" stroke-opacity="1" stroke-width="3.2"/>
<circle clip-path="url(#clip632)" cx="1297.63" cy="915.689" r="14.4" fill="#0000ff" fill-rule="evenodd" fill-opacity="1" stroke="#000000" stroke-opacity="1" stroke-width="3.2"/>
<circle clip-path="url(#clip632)" cx="986.472" cy="923.625" r="14.4" fill="#0000ff" fill-rule="evenodd" fill-opacity="1" stroke="#000000" stroke-opacity="1" stroke-width="3.2"/>
<circle clip-path="url(#clip632)" cx="1682.73" cy="1011.12" r="14.4" fill="#0000ff" fill-rule="evenodd" fill-opacity="1" stroke="#000000" stroke-opacity="1" stroke-width="3.2"/>
<circle clip-path="url(#clip632)" cx="1685.07" cy="883.77" r="14.4" fill="#0000ff" fill-rule="evenodd" fill-opacity="1" stroke="#000000" stroke-opacity="1" stroke-width="3.2"/>
<circle clip-path="url(#clip632)" cx="1079.55" cy="1149.37" r="14.4" fill="#0000ff" fill-rule="evenodd" fill-opacity="1" stroke="#000000" stroke-opacity="1" stroke-width="3.2"/>
<circle clip-path="url(#clip632)" cx="1540.24" cy="1244.64" r="14.4" fill="#0000ff" fill-rule="evenodd" fill-opacity="1" stroke="#000000" stroke-opacity="1" stroke-width="3.2"/>
<circle clip-path="url(#clip632)" cx="947.678" cy="927.538" r="14.4" fill="#0000ff" fill-rule="evenodd" fill-opacity="1" stroke="#000000" stroke-opacity="1" stroke-width="3.2"/>
<circle clip-path="url(#clip632)" cx="1221.19" cy="1367.45" r="14.4" fill="#0000ff" fill-rule="evenodd" fill-opacity="1" stroke="#000000" stroke-opacity="1" stroke-width="3.2"/>
<circle clip-path="url(#clip632)" cx="1456.31" cy="1094.35" r="14.4" fill="#0000ff" fill-rule="evenodd" fill-opacity="1" stroke="#000000" stroke-opacity="1" stroke-width="3.2"/>
<circle clip-path="url(#clip632)" cx="1232.89" cy="1083.02" r="14.4" fill="#0000ff" fill-rule="evenodd" fill-opacity="1" stroke="#000000" stroke-opacity="1" stroke-width="3.2"/>
<circle clip-path="url(#clip632)" cx="1097.37" cy="1062.53" r="14.4" fill="#0000ff" fill-rule="evenodd" fill-opacity="1" stroke="#000000" stroke-opacity="1" stroke-width="3.2"/>
<circle clip-path="url(#clip632)" cx="1429.25" cy="1029.56" r="14.4" fill="#0000ff" fill-rule="evenodd" fill-opacity="1" stroke="#000000" stroke-opacity="1" stroke-width="3.2"/>
<circle clip-path="url(#clip632)" cx="928.202" cy="857.203" r="14.4" fill="#0000ff" fill-rule="evenodd" fill-opacity="1" stroke="#000000" stroke-opacity="1" stroke-width="3.2"/>
<circle clip-path="url(#clip632)" cx="1523.72" cy="1111.21" r="14.4" fill="#0000ff" fill-rule="evenodd" fill-opacity="1" stroke="#000000" stroke-opacity="1" stroke-width="3.2"/>
<circle clip-path="url(#clip632)" cx="1138.87" cy="1112.79" r="14.4" fill="#0000ff" fill-rule="evenodd" fill-opacity="1" stroke="#000000" stroke-opacity="1" stroke-width="3.2"/>
<circle clip-path="url(#clip632)" cx="1576.66" cy="1009.56" r="14.4" fill="#0000ff" fill-rule="evenodd" fill-opacity="1" stroke="#000000" stroke-opacity="1" stroke-width="3.2"/>
<circle clip-path="url(#clip632)" cx="840.61" cy="1033.19" r="14.4" fill="#0000ff" fill-rule="evenodd" fill-opacity="1" stroke="#000000" stroke-opacity="1" stroke-width="3.2"/>
<circle clip-path="url(#clip632)" cx="1510.42" cy="1073.95" r="14.4" fill="#0000ff" fill-rule="evenodd" fill-opacity="1" stroke="#000000" stroke-opacity="1" stroke-width="3.2"/>
<circle clip-path="url(#clip632)" cx="1724.03" cy="993.804" r="14.4" fill="#0000ff" fill-rule="evenodd" fill-opacity="1" stroke="#000000" stroke-opacity="1" stroke-width="3.2"/>
<circle clip-path="url(#clip632)" cx="1348.62" cy="880.581" r="14.4" fill="#0000ff" fill-rule="evenodd" fill-opacity="1" stroke="#000000" stroke-opacity="1" stroke-width="3.2"/>
<circle clip-path="url(#clip632)" cx="1410.14" cy="819.444" r="14.4" fill="#0000ff" fill-rule="evenodd" fill-opacity="1" stroke="#000000" stroke-opacity="1" stroke-width="3.2"/>
<circle clip-path="url(#clip632)" cx="1674.9" cy="925.059" r="14.4" fill="#0000ff" fill-rule="evenodd" fill-opacity="1" stroke="#000000" stroke-opacity="1" stroke-width="3.2"/>
<circle clip-path="url(#clip632)" cx="1482.2" cy="881.582" r="14.4" fill="#0000ff" fill-rule="evenodd" fill-opacity="1" stroke="#000000" stroke-opacity="1" stroke-width="3.2"/>
<circle clip-path="url(#clip632)" cx="1452.35" cy="1176.46" r="14.4" fill="#0000ff" fill-rule="evenodd" fill-opacity="1" stroke="#000000" stroke-opacity="1" stroke-width="3.2"/>
<circle clip-path="url(#clip632)" cx="1143.9" cy="1095.15" r="14.4" fill="#0000ff" fill-rule="evenodd" fill-opacity="1" stroke="#000000" stroke-opacity="1" stroke-width="3.2"/>
<circle clip-path="url(#clip632)" cx="1689.3" cy="933.077" r="14.4" fill="#0000ff" fill-rule="evenodd" fill-opacity="1" stroke="#000000" stroke-opacity="1" stroke-width="3.2"/>
<circle clip-path="url(#clip632)" cx="1682.79" cy="827.039" r="14.4" fill="#0000ff" fill-rule="evenodd" fill-opacity="1" stroke="#000000" stroke-opacity="1" stroke-width="3.2"/>
<circle clip-path="url(#clip632)" cx="1402.33" cy="1084.88" r="14.4" fill="#0000ff" fill-rule="evenodd" fill-opacity="1" stroke="#000000" stroke-opacity="1" stroke-width="3.2"/>
<circle clip-path="url(#clip632)" cx="1137" cy="1030.54" r="14.4" fill="#0000ff" fill-rule="evenodd" fill-opacity="1" stroke="#000000" stroke-opacity="1" stroke-width="3.2"/>
<circle clip-path="url(#clip632)" cx="1444.69" cy="674.864" r="14.4" fill="#0000ff" fill-rule="evenodd" fill-opacity="1" stroke="#000000" stroke-opacity="1" stroke-width="3.2"/>
<circle clip-path="url(#clip632)" cx="1308.8" cy="922.376" r="14.4" fill="#0000ff" fill-rule="evenodd" fill-opacity="1" stroke="#000000" stroke-opacity="1" stroke-width="3.2"/>
<circle clip-path="url(#clip632)" cx="1654.2" cy="904.71" r="14.4" fill="#0000ff" fill-rule="evenodd" fill-opacity="1" stroke="#000000" stroke-opacity="1" stroke-width="3.2"/>
<circle clip-path="url(#clip632)" cx="988.747" cy="1078.21" r="14.4" fill="#0000ff" fill-rule="evenodd" fill-opacity="1" stroke="#000000" stroke-opacity="1" stroke-width="3.2"/>
<circle clip-path="url(#clip632)" cx="1446.35" cy="1088.47" r="14.4" fill="#0000ff" fill-rule="evenodd" fill-opacity="1" stroke="#000000" stroke-opacity="1" stroke-width="3.2"/>
<circle clip-path="url(#clip632)" cx="1474.59" cy="1164.77" r="14.4" fill="#0000ff" fill-rule="evenodd" fill-opacity="1" stroke="#000000" stroke-opacity="1" stroke-width="3.2"/>
<circle clip-path="url(#clip632)" cx="1461.19" cy="996.393" r="14.4" fill="#0000ff" fill-rule="evenodd" fill-opacity="1" stroke="#000000" stroke-opacity="1" stroke-width="3.2"/>
<circle clip-path="url(#clip632)" cx="1439.49" cy="1111.67" r="14.4" fill="#0000ff" fill-rule="evenodd" fill-opacity="1" stroke="#000000" stroke-opacity="1" stroke-width="3.2"/>
<circle clip-path="url(#clip632)" cx="1225.23" cy="862.5" r="14.4" fill="#0000ff" fill-rule="evenodd" fill-opacity="1" stroke="#000000" stroke-opacity="1" stroke-width="3.2"/>
<circle clip-path="url(#clip632)" cx="1344.4" cy="997.197" r="14.4" fill="#0000ff" fill-rule="evenodd" fill-opacity="1" stroke="#000000" stroke-opacity="1" stroke-width="3.2"/>
<circle clip-path="url(#clip632)" cx="1081.66" cy="951.311" r="14.4" fill="#0000ff" fill-rule="evenodd" fill-opacity="1" stroke="#000000" stroke-opacity="1" stroke-width="3.2"/>
<circle clip-path="url(#clip632)" cx="725.283" cy="582.186" r="14.4" fill="#0000ff" fill-rule="evenodd" fill-opacity="1" stroke="#000000" stroke-opacity="1" stroke-width="3.2"/>
<circle clip-path="url(#clip632)" cx="1149.34" cy="1282.21" r="14.4" fill="#0000ff" fill-rule="evenodd" fill-opacity="1" stroke="#000000" stroke-opacity="1" stroke-width="3.2"/>
<circle clip-path="url(#clip632)" cx="1298.78" cy="1090.68" r="14.4" fill="#0000ff" fill-rule="evenodd" fill-opacity="1" stroke="#000000" stroke-opacity="1" stroke-width="3.2"/>
<circle clip-path="url(#clip632)" cx="1737.59" cy="834.978" r="14.4" fill="#0000ff" fill-rule="evenodd" fill-opacity="1" stroke="#000000" stroke-opacity="1" stroke-width="3.2"/>
<circle clip-path="url(#clip632)" cx="788.531" cy="952.863" r="14.4" fill="#0000ff" fill-rule="evenodd" fill-opacity="1" stroke="#000000" stroke-opacity="1" stroke-width="3.2"/>
<circle clip-path="url(#clip632)" cx="1855.37" cy="622.331" r="14.4" fill="#ffff00" fill-rule="evenodd" fill-opacity="1" stroke="#000000" stroke-opacity="1" stroke-width="3.2"/>
<circle clip-path="url(#clip632)" cx="1850.76" cy="216.247" r="14.4" fill="#ffff00" fill-rule="evenodd" fill-opacity="1" stroke="#000000" stroke-opacity="1" stroke-width="3.2"/>
<circle clip-path="url(#clip632)" cx="1671.63" cy="285.43" r="14.4" fill="#ffff00" fill-rule="evenodd" fill-opacity="1" stroke="#000000" stroke-opacity="1" stroke-width="3.2"/>
<circle clip-path="url(#clip632)" cx="1916.89" cy="590.347" r="14.4" fill="#ffff00" fill-rule="evenodd" fill-opacity="1" stroke="#000000" stroke-opacity="1" stroke-width="3.2"/>
<circle clip-path="url(#clip632)" cx="1838.69" cy="638.871" r="14.4" fill="#ffff00" fill-rule="evenodd" fill-opacity="1" stroke="#000000" stroke-opacity="1" stroke-width="3.2"/>
<circle clip-path="url(#clip632)" cx="1855.61" cy="270.058" r="14.4" fill="#ffff00" fill-rule="evenodd" fill-opacity="1" stroke="#000000" stroke-opacity="1" stroke-width="3.2"/>
<circle clip-path="url(#clip632)" cx="2038.44" cy="216.042" r="14.4" fill="#ffff00" fill-rule="evenodd" fill-opacity="1" stroke="#000000" stroke-opacity="1" stroke-width="3.2"/>
<circle clip-path="url(#clip632)" cx="2135.67" cy="397.987" r="14.4" fill="#ffff00" fill-rule="evenodd" fill-opacity="1" stroke="#000000" stroke-opacity="1" stroke-width="3.2"/>
<circle clip-path="url(#clip632)" cx="1970.6" cy="318.013" r="14.4" fill="#ffff00" fill-rule="evenodd" fill-opacity="1" stroke="#000000" stroke-opacity="1" stroke-width="3.2"/>
<circle clip-path="url(#clip632)" cx="2094.76" cy="461.978" r="14.4" fill="#ffff00" fill-rule="evenodd" fill-opacity="1" stroke="#000000" stroke-opacity="1" stroke-width="3.2"/>
<circle clip-path="url(#clip632)" cx="1989.82" cy="629.225" r="14.4" fill="#ffff00" fill-rule="evenodd" fill-opacity="1" stroke="#000000" stroke-opacity="1" stroke-width="3.2"/>
<circle clip-path="url(#clip632)" cx="1951.95" cy="429.861" r="14.4" fill="#ffff00" fill-rule="evenodd" fill-opacity="1" stroke="#000000" stroke-opacity="1" stroke-width="3.2"/>
<circle clip-path="url(#clip632)" cx="2054.99" cy="728.699" r="14.4" fill="#ffff00" fill-rule="evenodd" fill-opacity="1" stroke="#000000" stroke-opacity="1" stroke-width="3.2"/>
<circle clip-path="url(#clip632)" cx="1968.81" cy="579.796" r="14.4" fill="#ffff00" fill-rule="evenodd" fill-opacity="1" stroke="#000000" stroke-opacity="1" stroke-width="3.2"/>
<circle clip-path="url(#clip632)" cx="2292.87" cy="604.092" r="14.4" fill="#ffff00" fill-rule="evenodd" fill-opacity="1" stroke="#000000" stroke-opacity="1" stroke-width="3.2"/>
<circle clip-path="url(#clip632)" cx="1907.79" cy="557.436" r="14.4" fill="#ffff00" fill-rule="evenodd" fill-opacity="1" stroke="#000000" stroke-opacity="1" stroke-width="3.2"/>
<circle clip-path="url(#clip632)" cx="1938.01" cy="333.062" r="14.4" fill="#ffff00" fill-rule="evenodd" fill-opacity="1" stroke="#000000" stroke-opacity="1" stroke-width="3.2"/>
<circle clip-path="url(#clip632)" cx="1809.29" cy="315.038" r="14.4" fill="#ffff00" fill-rule="evenodd" fill-opacity="1" stroke="#000000" stroke-opacity="1" stroke-width="3.2"/>
<circle clip-path="url(#clip632)" cx="1890.79" cy="308.985" r="14.4" fill="#ffff00" fill-rule="evenodd" fill-opacity="1" stroke="#000000" stroke-opacity="1" stroke-width="3.2"/>
<circle clip-path="url(#clip632)" cx="1819.94" cy="477.186" r="14.4" fill="#ffff00" fill-rule="evenodd" fill-opacity="1" stroke="#000000" stroke-opacity="1" stroke-width="3.2"/>
<circle clip-path="url(#clip632)" cx="2218.83" cy="575.846" r="14.4" fill="#ffff00" fill-rule="evenodd" fill-opacity="1" stroke="#000000" stroke-opacity="1" stroke-width="3.2"/>
<circle clip-path="url(#clip632)" cx="1920.35" cy="197.492" r="14.4" fill="#ffff00" fill-rule="evenodd" fill-opacity="1" stroke="#000000" stroke-opacity="1" stroke-width="3.2"/>
<circle clip-path="url(#clip632)" cx="1824.95" cy="477.181" r="14.4" fill="#ffff00" fill-rule="evenodd" fill-opacity="1" stroke="#000000" stroke-opacity="1" stroke-width="3.2"/>
<circle clip-path="url(#clip632)" cx="1869.39" cy="324.861" r="14.4" fill="#ffff00" fill-rule="evenodd" fill-opacity="1" stroke="#000000" stroke-opacity="1" stroke-width="3.2"/>
<circle clip-path="url(#clip632)" cx="1965.88" cy="376.696" r="14.4" fill="#ffff00" fill-rule="evenodd" fill-opacity="1" stroke="#000000" stroke-opacity="1" stroke-width="3.2"/>
<circle clip-path="url(#clip632)" cx="1724.07" cy="378.219" r="14.4" fill="#ffff00" fill-rule="evenodd" fill-opacity="1" stroke="#000000" stroke-opacity="1" stroke-width="3.2"/>
<circle clip-path="url(#clip632)" cx="1617.3" cy="613.414" r="14.4" fill="#ffff00" fill-rule="evenodd" fill-opacity="1" stroke="#000000" stroke-opacity="1" stroke-width="3.2"/>
<circle clip-path="url(#clip632)" cx="2131.35" cy="489.433" r="14.4" fill="#ffff00" fill-rule="evenodd" fill-opacity="1" stroke="#000000" stroke-opacity="1" stroke-width="3.2"/>
<circle clip-path="url(#clip632)" cx="2215.3" cy="670.289" r="14.4" fill="#ffff00" fill-rule="evenodd" fill-opacity="1" stroke="#000000" stroke-opacity="1" stroke-width="3.2"/>
<circle clip-path="url(#clip632)" cx="1983.65" cy="491.051" r="14.4" fill="#ffff00" fill-rule="evenodd" fill-opacity="1" stroke="#000000" stroke-opacity="1" stroke-width="3.2"/>
<circle clip-path="url(#clip632)" cx="1537.51" cy="85.6966" r="14.4" fill="#ffff00" fill-rule="evenodd" fill-opacity="1" stroke="#000000" stroke-opacity="1" stroke-width="3.2"/>
<circle clip-path="url(#clip632)" cx="2077.8" cy="324.945" r="14.4" fill="#ffff00" fill-rule="evenodd" fill-opacity="1" stroke="#000000" stroke-opacity="1" stroke-width="3.2"/>
<circle clip-path="url(#clip632)" cx="1952.04" cy="633.672" r="14.4" fill="#ffff00" fill-rule="evenodd" fill-opacity="1" stroke="#000000" stroke-opacity="1" stroke-width="3.2"/>
<circle clip-path="url(#clip632)" cx="1986.85" cy="437.257" r="14.4" fill="#ffff00" fill-rule="evenodd" fill-opacity="1" stroke="#000000" stroke-opacity="1" stroke-width="3.2"/>
<circle clip-path="url(#clip632)" cx="1999.66" cy="596.989" r="14.4" fill="#ffff00" fill-rule="evenodd" fill-opacity="1" stroke="#000000" stroke-opacity="1" stroke-width="3.2"/>
<circle clip-path="url(#clip632)" cx="2123.23" cy="557.852" r="14.4" fill="#ffff00" fill-rule="evenodd" fill-opacity="1" stroke="#000000" stroke-opacity="1" stroke-width="3.2"/>
<circle clip-path="url(#clip632)" cx="2031.9" cy="577.021" r="14.4" fill="#ffff00" fill-rule="evenodd" fill-opacity="1" stroke="#000000" stroke-opacity="1" stroke-width="3.2"/>
<circle clip-path="url(#clip632)" cx="1806.02" cy="605.613" r="14.4" fill="#ffff00" fill-rule="evenodd" fill-opacity="1" stroke="#000000" stroke-opacity="1" stroke-width="3.2"/>
<circle clip-path="url(#clip632)" cx="1836.06" cy="236.444" r="14.4" fill="#ffff00" fill-rule="evenodd" fill-opacity="1" stroke="#000000" stroke-opacity="1" stroke-width="3.2"/>
<circle clip-path="url(#clip632)" cx="1858.97" cy="606.199" r="14.4" fill="#ffff00" fill-rule="evenodd" fill-opacity="1" stroke="#000000" stroke-opacity="1" stroke-width="3.2"/>
<circle clip-path="url(#clip632)" cx="1944.99" cy="611.992" r="14.4" fill="#ffff00" fill-rule="evenodd" fill-opacity="1" stroke="#000000" stroke-opacity="1" stroke-width="3.2"/>
<path clip-path="url(#clip630)" d="M1866.24 1360.61 L2282.22 1360.61 L2282.22 1101.41 L1866.24 1101.41  Z" fill="#ffffff" fill-rule="evenodd" fill-opacity="1"/>
<polyline clip-path="url(#clip630)" style="stroke:#000000; stroke-linecap:round; stroke-linejoin:round; stroke-width:4; stroke-opacity:1; fill:none" points="1866.24,1360.61 2282.22,1360.61 2282.22,1101.41 1866.24,1101.41 1866.24,1360.61 "/>
<circle clip-path="url(#clip630)" cx="1960.29" cy="1166.21" r="25.6" fill="#ff0000" fill-rule="evenodd" fill-opacity="1" stroke="#000000" stroke-opacity="1" stroke-width="5.68889"/>
<path clip-path="url(#clip630)" d="M2089.18 1147.94 L2089.18 1154.1 Q2086.22 1151.35 2082.87 1149.99 Q2079.54 1148.63 2075.78 1148.63 Q2068.37 1148.63 2064.44 1153.18 Q2060.5 1157.69 2060.5 1166.25 Q2060.5 1174.79 2064.44 1179.33 Q2068.37 1183.85 2075.78 1183.85 Q2079.54 1183.85 2082.87 1182.49 Q2086.22 1181.13 2089.18 1178.38 L2089.18 1184.48 Q2086.11 1186.57 2082.67 1187.61 Q2079.25 1188.65 2075.43 1188.65 Q2065.62 1188.65 2059.98 1182.66 Q2054.34 1176.64 2054.34 1166.25 Q2054.34 1155.84 2059.98 1149.85 Q2065.62 1143.83 2075.43 1143.83 Q2079.31 1143.83 2082.72 1144.87 Q2086.17 1145.88 2089.18 1147.94 Z" fill="#000000" fill-rule="nonzero" fill-opacity="1" /><path clip-path="url(#clip630)" d="M2097.97 1142.79 L2103.3 1142.79 L2103.3 1187.81 L2097.97 1187.81 L2097.97 1142.79 Z" fill="#000000" fill-rule="nonzero" fill-opacity="1" /><path clip-path="url(#clip630)" d="M2129.16 1171.52 Q2122.71 1171.52 2120.22 1173 Q2117.74 1174.47 2117.74 1178.03 Q2117.74 1180.87 2119.59 1182.55 Q2121.47 1184.19 2124.68 1184.19 Q2129.11 1184.19 2131.77 1181.07 Q2134.46 1177.92 2134.46 1172.71 L2134.46 1171.52 L2129.16 1171.52 M2139.78 1169.32 L2139.78 1187.81 L2134.46 1187.81 L2134.46 1182.89 Q2132.64 1185.84 2129.92 1187.26 Q2127.2 1188.65 2123.26 1188.65 Q2118.28 1188.65 2115.33 1185.87 Q2112.41 1183.07 2112.41 1178.38 Q2112.41 1172.91 2116.06 1170.13 Q2119.73 1167.35 2126.99 1167.35 L2134.46 1167.35 L2134.46 1166.83 Q2134.46 1163.16 2132.03 1161.16 Q2129.63 1159.14 2125.26 1159.14 Q2122.48 1159.14 2119.85 1159.8 Q2117.21 1160.47 2114.78 1161.8 L2114.78 1156.88 Q2117.71 1155.75 2120.46 1155.2 Q2123.2 1154.62 2125.81 1154.62 Q2132.84 1154.62 2136.31 1158.27 Q2139.78 1161.91 2139.78 1169.32 Z" fill="#000000" fill-rule="nonzero" fill-opacity="1" /><path clip-path="url(#clip630)" d="M2171.41 1156.36 L2171.41 1161.39 Q2169.15 1160.24 2166.72 1159.66 Q2164.29 1159.08 2161.69 1159.08 Q2157.72 1159.08 2155.73 1160.29 Q2153.76 1161.51 2153.76 1163.94 Q2153.76 1165.79 2155.18 1166.86 Q2156.59 1167.9 2160.88 1168.86 L2162.7 1169.26 Q2168.37 1170.48 2170.74 1172.71 Q2173.15 1174.91 2173.15 1178.87 Q2173.15 1183.38 2169.56 1186.02 Q2166 1188.65 2159.75 1188.65 Q2157.14 1188.65 2154.31 1188.13 Q2151.5 1187.64 2148.38 1186.62 L2148.38 1181.13 Q2151.33 1182.66 2154.19 1183.44 Q2157.06 1184.19 2159.86 1184.19 Q2163.63 1184.19 2165.65 1182.92 Q2167.68 1181.62 2167.68 1179.28 Q2167.68 1177.11 2166.2 1175.95 Q2164.75 1174.79 2159.81 1173.72 L2157.95 1173.29 Q2153.01 1172.24 2150.81 1170.1 Q2148.61 1167.93 2148.61 1164.17 Q2148.61 1159.6 2151.85 1157.11 Q2155.09 1154.62 2161.05 1154.62 Q2164 1154.62 2166.61 1155.06 Q2169.21 1155.49 2171.41 1156.36 Z" fill="#000000" fill-rule="nonzero" fill-opacity="1" /><path clip-path="url(#clip630)" d="M2202.28 1156.36 L2202.28 1161.39 Q2200.03 1160.24 2197.6 1159.66 Q2195.17 1159.08 2192.56 1159.08 Q2188.6 1159.08 2186.6 1160.29 Q2184.63 1161.51 2184.63 1163.94 Q2184.63 1165.79 2186.05 1166.86 Q2187.47 1167.9 2191.75 1168.86 L2193.57 1169.26 Q2199.25 1170.48 2201.62 1172.71 Q2204.02 1174.91 2204.02 1178.87 Q2204.02 1183.38 2200.43 1186.02 Q2196.87 1188.65 2190.62 1188.65 Q2188.02 1188.65 2185.18 1188.13 Q2182.38 1187.64 2179.25 1186.62 L2179.25 1181.13 Q2182.2 1182.66 2185.07 1183.44 Q2187.93 1184.19 2190.74 1184.19 Q2194.5 1184.19 2196.53 1182.92 Q2198.55 1181.62 2198.55 1179.28 Q2198.55 1177.11 2197.08 1175.95 Q2195.63 1174.79 2190.68 1173.72 L2188.83 1173.29 Q2183.88 1172.24 2181.68 1170.1 Q2179.48 1167.93 2179.48 1164.17 Q2179.48 1159.6 2182.72 1157.11 Q2185.96 1154.62 2191.92 1154.62 Q2194.88 1154.62 2197.48 1155.06 Q2200.08 1155.49 2202.28 1156.36 Z" fill="#000000" fill-rule="nonzero" fill-opacity="1" /><path clip-path="url(#clip630)" d="M2233.1 1182.89 L2242.65 1182.89 L2242.65 1149.94 L2232.26 1152.02 L2232.26 1146.69 L2242.59 1144.61 L2248.43 1144.61 L2248.43 1182.89 L2257.98 1182.89 L2257.98 1187.81 L2233.1 1187.81 L2233.1 1182.89 Z" fill="#000000" fill-rule="nonzero" fill-opacity="1" /><circle clip-path="url(#clip630)" cx="1960.29" cy="1231.01" r="25.6" fill="#0000ff" fill-rule="evenodd" fill-opacity="1" stroke="#000000" stroke-opacity="1" stroke-width="5.68889"/>
<path clip-path="url(#clip630)" d="M2089.18 1212.74 L2089.18 1218.9 Q2086.22 1216.15 2082.87 1214.79 Q2079.54 1213.43 2075.78 1213.43 Q2068.37 1213.43 2064.44 1217.98 Q2060.5 1222.49 2060.5 1231.05 Q2060.5 1239.59 2064.44 1244.13 Q2068.37 1248.65 2075.78 1248.65 Q2079.54 1248.65 2082.87 1247.29 Q2086.22 1245.93 2089.18 1243.18 L2089.18 1249.28 Q2086.11 1251.37 2082.67 1252.41 Q2079.25 1253.45 2075.43 1253.45 Q2065.62 1253.45 2059.98 1247.46 Q2054.34 1241.44 2054.34 1231.05 Q2054.34 1220.64 2059.98 1214.65 Q2065.62 1208.63 2075.43 1208.63 Q2079.31 1208.63 2082.72 1209.67 Q2086.17 1210.68 2089.18 1212.74 Z" fill="#000000" fill-rule="nonzero" fill-opacity="1" /><path clip-path="url(#clip630)" d="M2097.97 1207.59 L2103.3 1207.59 L2103.3 1252.61 L2097.97 1252.61 L2097.97 1207.59 Z" fill="#000000" fill-rule="nonzero" fill-opacity="1" /><path clip-path="url(#clip630)" d="M2129.16 1236.32 Q2122.71 1236.32 2120.22 1237.8 Q2117.74 1239.27 2117.74 1242.83 Q2117.74 1245.67 2119.59 1247.35 Q2121.47 1248.99 2124.68 1248.99 Q2129.11 1248.99 2131.77 1245.87 Q2134.46 1242.72 2134.46 1237.51 L2134.46 1236.32 L2129.16 1236.32 M2139.78 1234.12 L2139.78 1252.61 L2134.46 1252.61 L2134.46 1247.69 Q2132.64 1250.64 2129.92 1252.06 Q2127.2 1253.45 2123.26 1253.45 Q2118.28 1253.45 2115.33 1250.67 Q2112.41 1247.87 2112.41 1243.18 Q2112.41 1237.71 2116.06 1234.93 Q2119.73 1232.15 2126.99 1232.15 L2134.46 1232.15 L2134.46 1231.63 Q2134.46 1227.96 2132.03 1225.96 Q2129.63 1223.94 2125.26 1223.94 Q2122.48 1223.94 2119.85 1224.6 Q2117.21 1225.27 2114.78 1226.6 L2114.78 1221.68 Q2117.71 1220.55 2120.46 1220 Q2123.2 1219.42 2125.81 1219.42 Q2132.84 1219.42 2136.31 1223.07 Q2139.78 1226.71 2139.78 1234.12 Z" fill="#000000" fill-rule="nonzero" fill-opacity="1" /><path clip-path="url(#clip630)" d="M2171.41 1221.16 L2171.41 1226.19 Q2169.15 1225.04 2166.72 1224.46 Q2164.29 1223.88 2161.69 1223.88 Q2157.72 1223.88 2155.73 1225.09 Q2153.76 1226.31 2153.76 1228.74 Q2153.76 1230.59 2155.18 1231.66 Q2156.59 1232.7 2160.88 1233.66 L2162.7 1234.06 Q2168.37 1235.28 2170.74 1237.51 Q2173.15 1239.71 2173.15 1243.67 Q2173.15 1248.18 2169.56 1250.82 Q2166 1253.45 2159.75 1253.45 Q2157.14 1253.45 2154.31 1252.93 Q2151.5 1252.44 2148.38 1251.42 L2148.38 1245.93 Q2151.33 1247.46 2154.19 1248.24 Q2157.06 1248.99 2159.86 1248.99 Q2163.63 1248.99 2165.65 1247.72 Q2167.68 1246.42 2167.68 1244.08 Q2167.68 1241.91 2166.2 1240.75 Q2164.75 1239.59 2159.81 1238.52 L2157.95 1238.09 Q2153.01 1237.04 2150.81 1234.9 Q2148.61 1232.73 2148.61 1228.97 Q2148.61 1224.4 2151.85 1221.91 Q2155.09 1219.42 2161.05 1219.42 Q2164 1219.42 2166.61 1219.86 Q2169.21 1220.29 2171.41 1221.16 Z" fill="#000000" fill-rule="nonzero" fill-opacity="1" /><path clip-path="url(#clip630)" d="M2202.28 1221.16 L2202.28 1226.19 Q2200.03 1225.04 2197.6 1224.46 Q2195.17 1223.88 2192.56 1223.88 Q2188.6 1223.88 2186.6 1225.09 Q2184.63 1226.31 2184.63 1228.74 Q2184.63 1230.59 2186.05 1231.66 Q2187.47 1232.7 2191.75 1233.66 L2193.57 1234.06 Q2199.25 1235.28 2201.62 1237.51 Q2204.02 1239.71 2204.02 1243.67 Q2204.02 1248.18 2200.43 1250.82 Q2196.87 1253.45 2190.62 1253.45 Q2188.02 1253.45 2185.18 1252.93 Q2182.38 1252.44 2179.25 1251.42 L2179.25 1245.93 Q2182.2 1247.46 2185.07 1248.24 Q2187.93 1248.99 2190.74 1248.99 Q2194.5 1248.99 2196.53 1247.72 Q2198.55 1246.42 2198.55 1244.08 Q2198.55 1241.91 2197.08 1240.75 Q2195.63 1239.59 2190.68 1238.52 L2188.83 1238.09 Q2183.88 1237.04 2181.68 1234.9 Q2179.48 1232.73 2179.48 1228.97 Q2179.48 1224.4 2182.72 1221.91 Q2185.96 1219.42 2191.92 1219.42 Q2194.88 1219.42 2197.48 1219.86 Q2200.08 1220.29 2202.28 1221.16 Z" fill="#000000" fill-rule="nonzero" fill-opacity="1" /><path clip-path="url(#clip630)" d="M2237.12 1247.69 L2257.52 1247.69 L2257.52 1252.61 L2230.09 1252.61 L2230.09 1247.69 Q2233.42 1244.25 2239.15 1238.46 Q2244.9 1232.65 2246.38 1230.97 Q2249.19 1227.81 2250.29 1225.64 Q2251.42 1223.44 2251.42 1221.33 Q2251.42 1217.89 2248.98 1215.72 Q2246.58 1213.55 2242.71 1213.55 Q2239.96 1213.55 2236.89 1214.5 Q2233.85 1215.46 2230.38 1217.4 L2230.38 1211.49 Q2233.91 1210.08 2236.98 1209.35 Q2240.04 1208.63 2242.59 1208.63 Q2249.3 1208.63 2253.3 1211.99 Q2257.29 1215.34 2257.29 1220.96 Q2257.29 1223.62 2256.28 1226.02 Q2255.29 1228.39 2252.66 1231.63 Q2251.94 1232.47 2248.06 1236.49 Q2244.18 1240.49 2237.12 1247.69 Z" fill="#000000" fill-rule="nonzero" fill-opacity="1" /><circle clip-path="url(#clip630)" cx="1960.29" cy="1295.81" r="25.6" fill="#ffff00" fill-rule="evenodd" fill-opacity="1" stroke="#000000" stroke-opacity="1" stroke-width="5.68889"/>
<path clip-path="url(#clip630)" d="M2089.18 1277.54 L2089.18 1283.7 Q2086.22 1280.95 2082.87 1279.59 Q2079.54 1278.23 2075.78 1278.23 Q2068.37 1278.23 2064.44 1282.78 Q2060.5 1287.29 2060.5 1295.85 Q2060.5 1304.39 2064.44 1308.93 Q2068.37 1313.45 2075.78 1313.45 Q2079.54 1313.45 2082.87 1312.09 Q2086.22 1310.73 2089.18 1307.98 L2089.18 1314.08 Q2086.11 1316.17 2082.67 1317.21 Q2079.25 1318.25 2075.43 1318.25 Q2065.62 1318.25 2059.98 1312.26 Q2054.34 1306.24 2054.34 1295.85 Q2054.34 1285.44 2059.98 1279.45 Q2065.62 1273.43 2075.43 1273.43 Q2079.31 1273.43 2082.72 1274.47 Q2086.17 1275.48 2089.18 1277.54 Z" fill="#000000" fill-rule="nonzero" fill-opacity="1" /><path clip-path="url(#clip630)" d="M2097.97 1272.39 L2103.3 1272.39 L2103.3 1317.41 L2097.97 1317.41 L2097.97 1272.39 Z" fill="#000000" fill-rule="nonzero" fill-opacity="1" /><path clip-path="url(#clip630)" d="M2129.16 1301.12 Q2122.71 1301.12 2120.22 1302.6 Q2117.74 1304.07 2117.74 1307.63 Q2117.74 1310.47 2119.59 1312.15 Q2121.47 1313.79 2124.68 1313.79 Q2129.11 1313.79 2131.77 1310.67 Q2134.46 1307.52 2134.46 1302.31 L2134.46 1301.12 L2129.16 1301.12 M2139.78 1298.92 L2139.78 1317.41 L2134.46 1317.41 L2134.46 1312.49 Q2132.64 1315.44 2129.92 1316.86 Q2127.2 1318.25 2123.26 1318.25 Q2118.28 1318.25 2115.33 1315.47 Q2112.41 1312.67 2112.41 1307.98 Q2112.41 1302.51 2116.06 1299.73 Q2119.73 1296.95 2126.99 1296.95 L2134.46 1296.95 L2134.46 1296.43 Q2134.46 1292.76 2132.03 1290.76 Q2129.63 1288.74 2125.26 1288.74 Q2122.48 1288.74 2119.85 1289.4 Q2117.21 1290.07 2114.78 1291.4 L2114.78 1286.48 Q2117.71 1285.35 2120.46 1284.8 Q2123.2 1284.22 2125.81 1284.22 Q2132.84 1284.22 2136.31 1287.87 Q2139.78 1291.51 2139.78 1298.92 Z" fill="#000000" fill-rule="nonzero" fill-opacity="1" /><path clip-path="url(#clip630)" d="M2171.41 1285.96 L2171.41 1290.99 Q2169.15 1289.84 2166.72 1289.26 Q2164.29 1288.68 2161.69 1288.68 Q2157.72 1288.68 2155.73 1289.89 Q2153.76 1291.11 2153.76 1293.54 Q2153.76 1295.39 2155.18 1296.46 Q2156.59 1297.5 2160.88 1298.46 L2162.7 1298.86 Q2168.37 1300.08 2170.74 1302.31 Q2173.15 1304.51 2173.15 1308.47 Q2173.15 1312.98 2169.56 1315.62 Q2166 1318.25 2159.75 1318.25 Q2157.14 1318.25 2154.31 1317.73 Q2151.5 1317.24 2148.38 1316.22 L2148.38 1310.73 Q2151.33 1312.26 2154.19 1313.04 Q2157.06 1313.79 2159.86 1313.79 Q2163.63 1313.79 2165.65 1312.52 Q2167.68 1311.22 2167.68 1308.88 Q2167.68 1306.71 2166.2 1305.55 Q2164.75 1304.39 2159.81 1303.32 L2157.95 1302.89 Q2153.01 1301.84 2150.81 1299.7 Q2148.61 1297.53 2148.61 1293.77 Q2148.61 1289.2 2151.85 1286.71 Q2155.09 1284.22 2161.05 1284.22 Q2164 1284.22 2166.61 1284.66 Q2169.21 1285.09 2171.41 1285.96 Z" fill="#000000" fill-rule="nonzero" fill-opacity="1" /><path clip-path="url(#clip630)" d="M2202.28 1285.96 L2202.28 1290.99 Q2200.03 1289.84 2197.6 1289.26 Q2195.17 1288.68 2192.56 1288.68 Q2188.6 1288.68 2186.6 1289.89 Q2184.63 1291.11 2184.63 1293.54 Q2184.63 1295.39 2186.05 1296.46 Q2187.47 1297.5 2191.75 1298.46 L2193.57 1298.86 Q2199.25 1300.08 2201.62 1302.31 Q2204.02 1304.51 2204.02 1308.47 Q2204.02 1312.98 2200.43 1315.62 Q2196.87 1318.25 2190.62 1318.25 Q2188.02 1318.25 2185.18 1317.73 Q2182.38 1317.24 2179.25 1316.22 L2179.25 1310.73 Q2182.2 1312.26 2185.07 1313.04 Q2187.93 1313.79 2190.74 1313.79 Q2194.5 1313.79 2196.53 1312.52 Q2198.55 1311.22 2198.55 1308.88 Q2198.55 1306.71 2197.08 1305.55 Q2195.63 1304.39 2190.68 1303.32 L2188.83 1302.89 Q2183.88 1301.84 2181.68 1299.7 Q2179.48 1297.53 2179.48 1293.77 Q2179.48 1289.2 2182.72 1286.71 Q2185.96 1284.22 2191.92 1284.22 Q2194.88 1284.22 2197.48 1284.66 Q2200.08 1285.09 2202.28 1285.96 Z" fill="#000000" fill-rule="nonzero" fill-opacity="1" /><path clip-path="url(#clip630)" d="M2249.79 1294.12 Q2253.99 1295.02 2256.33 1297.85 Q2258.71 1300.69 2258.71 1304.85 Q2258.71 1311.25 2254.31 1314.75 Q2249.91 1318.25 2241.81 1318.25 Q2239.09 1318.25 2236.2 1317.7 Q2233.33 1317.18 2230.26 1316.11 L2230.26 1310.47 Q2232.69 1311.88 2235.59 1312.61 Q2238.48 1313.33 2241.64 1313.33 Q2247.13 1313.33 2250 1311.16 Q2252.89 1308.99 2252.89 1304.85 Q2252.89 1301.03 2250.2 1298.89 Q2247.54 1296.72 2242.76 1296.72 L2237.73 1296.72 L2237.73 1291.92 L2242.99 1291.92 Q2247.31 1291.92 2249.59 1290.21 Q2251.88 1288.48 2251.88 1285.24 Q2251.88 1281.91 2249.51 1280.14 Q2247.16 1278.35 2242.76 1278.35 Q2240.36 1278.35 2237.61 1278.87 Q2234.86 1279.39 2231.57 1280.49 L2231.57 1275.28 Q2234.89 1274.36 2237.79 1273.89 Q2240.71 1273.43 2243.28 1273.43 Q2249.94 1273.43 2253.82 1276.47 Q2257.69 1279.48 2257.69 1284.63 Q2257.69 1288.22 2255.64 1290.7 Q2253.59 1293.16 2249.79 1294.12 Z" fill="#000000" fill-rule="nonzero" fill-opacity="1" /></svg>
