<?xml version="1.0" encoding="utf-8" standalone="no"?>
<!DOCTYPE svg PUBLIC "-//W3C//DTD SVG 1.1//EN"
  "http://www.w3.org/Graphics/SVG/1.1/DTD/svg11.dtd">
<!-- Created with matplotlib (https://matplotlib.org/) -->
<svg height="432pt" version="1.1" viewBox="0 0 576 432" width="576pt" xmlns="http://www.w3.org/2000/svg" xmlns:xlink="http://www.w3.org/1999/xlink">
 <defs>
  <style type="text/css">
*{stroke-linecap:butt;stroke-linejoin:round;}
  </style>
 </defs>
 <g id="figure_1">
  <g id="patch_1">
   <path d="M 0 432 
L 576 432 
L 576 0 
L 0 0 
z
" style="fill:#ffffff;"/>
  </g>
  <g id="axes_1">
   <g id="patch_2">
    <path d="M 72 384.48 
L 518.4 384.48 
L 518.4 51.84 
L 72 51.84 
z
" style="fill:#ffffff;"/>
   </g>
   <g id="matplotlib.axis_1">
    <g id="xtick_1">
     <g id="line2d_1">
      <defs>
       <path d="M 0 0 
L 0 3.5 
" id="m2380ce98b8" style="stroke:#000000;stroke-width:0.8;"/>
      </defs>
      <g>
       <use style="stroke:#000000;stroke-width:0.8;" x="106.529047" xlink:href="#m2380ce98b8" y="384.48"/>
      </g>
     </g>
     <g id="text_1">
      <!-- −4 -->
      <defs>
       <path d="M 10.59375 35.5 
L 73.1875 35.5 
L 73.1875 27.203125 
L 10.59375 27.203125 
z
" id="DejaVuSans-8722"/>
       <path d="M 37.796875 64.3125 
L 12.890625 25.390625 
L 37.796875 25.390625 
z
M 35.203125 72.90625 
L 47.609375 72.90625 
L 47.609375 25.390625 
L 58.015625 25.390625 
L 58.015625 17.1875 
L 47.609375 17.1875 
L 47.609375 0 
L 37.796875 0 
L 37.796875 17.1875 
L 4.890625 17.1875 
L 4.890625 26.703125 
z
" id="DejaVuSans-52"/>
      </defs>
      <g transform="translate(97.683735 400.598125)scale(0.12 -0.12)">
       <use xlink:href="#DejaVuSans-8722"/>
       <use x="83.789062" xlink:href="#DejaVuSans-52"/>
      </g>
     </g>
    </g>
    <g id="xtick_2">
     <g id="line2d_2">
      <g>
       <use style="stroke:#000000;stroke-width:0.8;" x="201.244031" xlink:href="#m2380ce98b8" y="384.48"/>
      </g>
     </g>
     <g id="text_2">
      <!-- −2 -->
      <defs>
       <path d="M 19.1875 8.296875 
L 53.609375 8.296875 
L 53.609375 0 
L 7.328125 0 
L 7.328125 8.296875 
Q 12.9375 14.109375 22.625 23.890625 
Q 32.328125 33.6875 34.8125 36.53125 
Q 39.546875 41.84375 41.421875 45.53125 
Q 43.3125 49.21875 43.3125 52.78125 
Q 43.3125 58.59375 39.234375 62.25 
Q 35.15625 65.921875 28.609375 65.921875 
Q 23.96875 65.921875 18.8125 64.3125 
Q 13.671875 62.703125 7.8125 59.421875 
L 7.8125 69.390625 
Q 13.765625 71.78125 18.9375 73 
Q 24.125 74.21875 28.421875 74.21875 
Q 39.75 74.21875 46.484375 68.546875 
Q 53.21875 62.890625 53.21875 53.421875 
Q 53.21875 48.921875 51.53125 44.890625 
Q 49.859375 40.875 45.40625 35.40625 
Q 44.1875 33.984375 37.640625 27.21875 
Q 31.109375 20.453125 19.1875 8.296875 
z
" id="DejaVuSans-50"/>
      </defs>
      <g transform="translate(192.398719 400.598125)scale(0.12 -0.12)">
       <use xlink:href="#DejaVuSans-8722"/>
       <use x="83.789062" xlink:href="#DejaVuSans-50"/>
      </g>
     </g>
    </g>
    <g id="xtick_3">
     <g id="line2d_3">
      <g>
       <use style="stroke:#000000;stroke-width:0.8;" x="295.959015" xlink:href="#m2380ce98b8" y="384.48"/>
      </g>
     </g>
     <g id="text_3">
      <!-- 0 -->
      <defs>
       <path d="M 31.78125 66.40625 
Q 24.171875 66.40625 20.328125 58.90625 
Q 16.5 51.421875 16.5 36.375 
Q 16.5 21.390625 20.328125 13.890625 
Q 24.171875 6.390625 31.78125 6.390625 
Q 39.453125 6.390625 43.28125 13.890625 
Q 47.125 21.390625 47.125 36.375 
Q 47.125 51.421875 43.28125 58.90625 
Q 39.453125 66.40625 31.78125 66.40625 
z
M 31.78125 74.21875 
Q 44.046875 74.21875 50.515625 64.515625 
Q 56.984375 54.828125 56.984375 36.375 
Q 56.984375 17.96875 50.515625 8.265625 
Q 44.046875 -1.421875 31.78125 -1.421875 
Q 19.53125 -1.421875 13.0625 8.265625 
Q 6.59375 17.96875 6.59375 36.375 
Q 6.59375 54.828125 13.0625 64.515625 
Q 19.53125 74.21875 31.78125 74.21875 
z
" id="DejaVuSans-48"/>
      </defs>
      <g transform="translate(292.141515 400.598125)scale(0.12 -0.12)">
       <use xlink:href="#DejaVuSans-48"/>
      </g>
     </g>
    </g>
    <g id="xtick_4">
     <g id="line2d_4">
      <g>
       <use style="stroke:#000000;stroke-width:0.8;" x="390.673999" xlink:href="#m2380ce98b8" y="384.48"/>
      </g>
     </g>
     <g id="text_4">
      <!-- 2 -->
      <g transform="translate(386.856499 400.598125)scale(0.12 -0.12)">
       <use xlink:href="#DejaVuSans-50"/>
      </g>
     </g>
    </g>
    <g id="xtick_5">
     <g id="line2d_5">
      <g>
       <use style="stroke:#000000;stroke-width:0.8;" x="485.388983" xlink:href="#m2380ce98b8" y="384.48"/>
      </g>
     </g>
     <g id="text_5">
      <!-- 4 -->
      <g transform="translate(481.571483 400.598125)scale(0.12 -0.12)">
       <use xlink:href="#DejaVuSans-52"/>
      </g>
     </g>
    </g>
    <g id="text_6">
     <!-- PCA dimension 1 -->
     <defs>
      <path d="M 19.671875 64.796875 
L 19.671875 37.40625 
L 32.078125 37.40625 
Q 38.96875 37.40625 42.71875 40.96875 
Q 46.484375 44.53125 46.484375 51.125 
Q 46.484375 57.671875 42.71875 61.234375 
Q 38.96875 64.796875 32.078125 64.796875 
z
M 9.8125 72.90625 
L 32.078125 72.90625 
Q 44.34375 72.90625 50.609375 67.359375 
Q 56.890625 61.8125 56.890625 51.125 
Q 56.890625 40.328125 50.609375 34.8125 
Q 44.34375 29.296875 32.078125 29.296875 
L 19.671875 29.296875 
L 19.671875 0 
L 9.8125 0 
z
" id="DejaVuSans-80"/>
      <path d="M 64.40625 67.28125 
L 64.40625 56.890625 
Q 59.421875 61.53125 53.78125 63.8125 
Q 48.140625 66.109375 41.796875 66.109375 
Q 29.296875 66.109375 22.65625 58.46875 
Q 16.015625 50.828125 16.015625 36.375 
Q 16.015625 21.96875 22.65625 14.328125 
Q 29.296875 6.6875 41.796875 6.6875 
Q 48.140625 6.6875 53.78125 8.984375 
Q 59.421875 11.28125 64.40625 15.921875 
L 64.40625 5.609375 
Q 59.234375 2.09375 53.4375 0.328125 
Q 47.65625 -1.421875 41.21875 -1.421875 
Q 24.65625 -1.421875 15.125 8.703125 
Q 5.609375 18.84375 5.609375 36.375 
Q 5.609375 53.953125 15.125 64.078125 
Q 24.65625 74.21875 41.21875 74.21875 
Q 47.75 74.21875 53.53125 72.484375 
Q 59.328125 70.75 64.40625 67.28125 
z
" id="DejaVuSans-67"/>
      <path d="M 34.1875 63.1875 
L 20.796875 26.90625 
L 47.609375 26.90625 
z
M 28.609375 72.90625 
L 39.796875 72.90625 
L 67.578125 0 
L 57.328125 0 
L 50.6875 18.703125 
L 17.828125 18.703125 
L 11.1875 0 
L 0.78125 0 
z
" id="DejaVuSans-65"/>
      <path id="DejaVuSans-32"/>
      <path d="M 45.40625 46.390625 
L 45.40625 75.984375 
L 54.390625 75.984375 
L 54.390625 0 
L 45.40625 0 
L 45.40625 8.203125 
Q 42.578125 3.328125 38.25 0.953125 
Q 33.9375 -1.421875 27.875 -1.421875 
Q 17.96875 -1.421875 11.734375 6.484375 
Q 5.515625 14.40625 5.515625 27.296875 
Q 5.515625 40.1875 11.734375 48.09375 
Q 17.96875 56 27.875 56 
Q 33.9375 56 38.25 53.625 
Q 42.578125 51.265625 45.40625 46.390625 
z
M 14.796875 27.296875 
Q 14.796875 17.390625 18.875 11.75 
Q 22.953125 6.109375 30.078125 6.109375 
Q 37.203125 6.109375 41.296875 11.75 
Q 45.40625 17.390625 45.40625 27.296875 
Q 45.40625 37.203125 41.296875 42.84375 
Q 37.203125 48.484375 30.078125 48.484375 
Q 22.953125 48.484375 18.875 42.84375 
Q 14.796875 37.203125 14.796875 27.296875 
z
" id="DejaVuSans-100"/>
      <path d="M 9.421875 54.6875 
L 18.40625 54.6875 
L 18.40625 0 
L 9.421875 0 
z
M 9.421875 75.984375 
L 18.40625 75.984375 
L 18.40625 64.59375 
L 9.421875 64.59375 
z
" id="DejaVuSans-105"/>
      <path d="M 52 44.1875 
Q 55.375 50.25 60.0625 53.125 
Q 64.75 56 71.09375 56 
Q 79.640625 56 84.28125 50.015625 
Q 88.921875 44.046875 88.921875 33.015625 
L 88.921875 0 
L 79.890625 0 
L 79.890625 32.71875 
Q 79.890625 40.578125 77.09375 44.375 
Q 74.3125 48.1875 68.609375 48.1875 
Q 61.625 48.1875 57.5625 43.546875 
Q 53.515625 38.921875 53.515625 30.90625 
L 53.515625 0 
L 44.484375 0 
L 44.484375 32.71875 
Q 44.484375 40.625 41.703125 44.40625 
Q 38.921875 48.1875 33.109375 48.1875 
Q 26.21875 48.1875 22.15625 43.53125 
Q 18.109375 38.875 18.109375 30.90625 
L 18.109375 0 
L 9.078125 0 
L 9.078125 54.6875 
L 18.109375 54.6875 
L 18.109375 46.1875 
Q 21.1875 51.21875 25.484375 53.609375 
Q 29.78125 56 35.6875 56 
Q 41.65625 56 45.828125 52.96875 
Q 50 49.953125 52 44.1875 
z
" id="DejaVuSans-109"/>
      <path d="M 56.203125 29.59375 
L 56.203125 25.203125 
L 14.890625 25.203125 
Q 15.484375 15.921875 20.484375 11.0625 
Q 25.484375 6.203125 34.421875 6.203125 
Q 39.59375 6.203125 44.453125 7.46875 
Q 49.3125 8.734375 54.109375 11.28125 
L 54.109375 2.78125 
Q 49.265625 0.734375 44.1875 -0.34375 
Q 39.109375 -1.421875 33.890625 -1.421875 
Q 20.796875 -1.421875 13.15625 6.1875 
Q 5.515625 13.8125 5.515625 26.8125 
Q 5.515625 40.234375 12.765625 48.109375 
Q 20.015625 56 32.328125 56 
Q 43.359375 56 49.78125 48.890625 
Q 56.203125 41.796875 56.203125 29.59375 
z
M 47.21875 32.234375 
Q 47.125 39.59375 43.09375 43.984375 
Q 39.0625 48.390625 32.421875 48.390625 
Q 24.90625 48.390625 20.390625 44.140625 
Q 15.875 39.890625 15.1875 32.171875 
z
" id="DejaVuSans-101"/>
      <path d="M 54.890625 33.015625 
L 54.890625 0 
L 45.90625 0 
L 45.90625 32.71875 
Q 45.90625 40.484375 42.875 44.328125 
Q 39.84375 48.1875 33.796875 48.1875 
Q 26.515625 48.1875 22.3125 43.546875 
Q 18.109375 38.921875 18.109375 30.90625 
L 18.109375 0 
L 9.078125 0 
L 9.078125 54.6875 
L 18.109375 54.6875 
L 18.109375 46.1875 
Q 21.34375 51.125 25.703125 53.5625 
Q 30.078125 56 35.796875 56 
Q 45.21875 56 50.046875 50.171875 
Q 54.890625 44.34375 54.890625 33.015625 
z
" id="DejaVuSans-110"/>
      <path d="M 44.28125 53.078125 
L 44.28125 44.578125 
Q 40.484375 46.53125 36.375 47.5 
Q 32.28125 48.484375 27.875 48.484375 
Q 21.1875 48.484375 17.84375 46.4375 
Q 14.5 44.390625 14.5 40.28125 
Q 14.5 37.15625 16.890625 35.375 
Q 19.28125 33.59375 26.515625 31.984375 
L 29.59375 31.296875 
Q 39.15625 29.25 43.1875 25.515625 
Q 47.21875 21.78125 47.21875 15.09375 
Q 47.21875 7.46875 41.1875 3.015625 
Q 35.15625 -1.421875 24.609375 -1.421875 
Q 20.21875 -1.421875 15.453125 -0.5625 
Q 10.6875 0.296875 5.421875 2 
L 5.421875 11.28125 
Q 10.40625 8.6875 15.234375 7.390625 
Q 20.0625 6.109375 24.8125 6.109375 
Q 31.15625 6.109375 34.5625 8.28125 
Q 37.984375 10.453125 37.984375 14.40625 
Q 37.984375 18.0625 35.515625 20.015625 
Q 33.0625 21.96875 24.703125 23.78125 
L 21.578125 24.515625 
Q 13.234375 26.265625 9.515625 29.90625 
Q 5.8125 33.546875 5.8125 39.890625 
Q 5.8125 47.609375 11.28125 51.796875 
Q 16.75 56 26.8125 56 
Q 31.78125 56 36.171875 55.265625 
Q 40.578125 54.546875 44.28125 53.078125 
z
" id="DejaVuSans-115"/>
      <path d="M 30.609375 48.390625 
Q 23.390625 48.390625 19.1875 42.75 
Q 14.984375 37.109375 14.984375 27.296875 
Q 14.984375 17.484375 19.15625 11.84375 
Q 23.34375 6.203125 30.609375 6.203125 
Q 37.796875 6.203125 41.984375 11.859375 
Q 46.1875 17.53125 46.1875 27.296875 
Q 46.1875 37.015625 41.984375 42.703125 
Q 37.796875 48.390625 30.609375 48.390625 
z
M 30.609375 56 
Q 42.328125 56 49.015625 48.375 
Q 55.71875 40.765625 55.71875 27.296875 
Q 55.71875 13.875 49.015625 6.21875 
Q 42.328125 -1.421875 30.609375 -1.421875 
Q 18.84375 -1.421875 12.171875 6.21875 
Q 5.515625 13.875 5.515625 27.296875 
Q 5.515625 40.765625 12.171875 48.375 
Q 18.84375 56 30.609375 56 
z
" id="DejaVuSans-111"/>
      <path d="M 12.40625 8.296875 
L 28.515625 8.296875 
L 28.515625 63.921875 
L 10.984375 60.40625 
L 10.984375 69.390625 
L 28.421875 72.90625 
L 38.28125 72.90625 
L 38.28125 8.296875 
L 54.390625 8.296875 
L 54.390625 0 
L 12.40625 0 
z
" id="DejaVuSans-49"/>
     </defs>
     <g transform="translate(236.138594 417.731562)scale(0.14 -0.14)">
      <use xlink:href="#DejaVuSans-80"/>
      <use x="60.302734" xlink:href="#DejaVuSans-67"/>
      <use x="130.126953" xlink:href="#DejaVuSans-65"/>
      <use x="198.535156" xlink:href="#DejaVuSans-32"/>
      <use x="230.322266" xlink:href="#DejaVuSans-100"/>
      <use x="293.798828" xlink:href="#DejaVuSans-105"/>
      <use x="321.582031" xlink:href="#DejaVuSans-109"/>
      <use x="418.994141" xlink:href="#DejaVuSans-101"/>
      <use x="480.517578" xlink:href="#DejaVuSans-110"/>
      <use x="543.896484" xlink:href="#DejaVuSans-115"/>
      <use x="595.996094" xlink:href="#DejaVuSans-105"/>
      <use x="623.779297" xlink:href="#DejaVuSans-111"/>
      <use x="684.960938" xlink:href="#DejaVuSans-110"/>
      <use x="748.339844" xlink:href="#DejaVuSans-32"/>
      <use x="780.126953" xlink:href="#DejaVuSans-49"/>
     </g>
    </g>
   </g>
   <g id="matplotlib.axis_2">
    <g id="ytick_1">
     <g id="line2d_6">
      <defs>
       <path d="M 0 0 
L -3.5 0 
" id="m81f99ed717" style="stroke:#000000;stroke-width:0.8;"/>
      </defs>
      <g>
       <use style="stroke:#000000;stroke-width:0.8;" x="72" xlink:href="#m81f99ed717" y="375.070765"/>
      </g>
     </g>
     <g id="text_7">
      <!-- −4 -->
      <g transform="translate(47.309375 379.629828)scale(0.12 -0.12)">
       <use xlink:href="#DejaVuSans-8722"/>
       <use x="83.789062" xlink:href="#DejaVuSans-52"/>
      </g>
     </g>
    </g>
    <g id="ytick_2">
     <g id="line2d_7">
      <g>
       <use style="stroke:#000000;stroke-width:0.8;" x="72" xlink:href="#m81f99ed717" y="334.017804"/>
      </g>
     </g>
     <g id="text_8">
      <!-- −3 -->
      <defs>
       <path d="M 40.578125 39.3125 
Q 47.65625 37.796875 51.625 33 
Q 55.609375 28.21875 55.609375 21.1875 
Q 55.609375 10.40625 48.1875 4.484375 
Q 40.765625 -1.421875 27.09375 -1.421875 
Q 22.515625 -1.421875 17.65625 -0.515625 
Q 12.796875 0.390625 7.625 2.203125 
L 7.625 11.71875 
Q 11.71875 9.328125 16.59375 8.109375 
Q 21.484375 6.890625 26.8125 6.890625 
Q 36.078125 6.890625 40.9375 10.546875 
Q 45.796875 14.203125 45.796875 21.1875 
Q 45.796875 27.640625 41.28125 31.265625 
Q 36.765625 34.90625 28.71875 34.90625 
L 20.21875 34.90625 
L 20.21875 43.015625 
L 29.109375 43.015625 
Q 36.375 43.015625 40.234375 45.921875 
Q 44.09375 48.828125 44.09375 54.296875 
Q 44.09375 59.90625 40.109375 62.90625 
Q 36.140625 65.921875 28.71875 65.921875 
Q 24.65625 65.921875 20.015625 65.03125 
Q 15.375 64.15625 9.8125 62.3125 
L 9.8125 71.09375 
Q 15.4375 72.65625 20.34375 73.4375 
Q 25.25 74.21875 29.59375 74.21875 
Q 40.828125 74.21875 47.359375 69.109375 
Q 53.90625 64.015625 53.90625 55.328125 
Q 53.90625 49.265625 50.4375 45.09375 
Q 46.96875 40.921875 40.578125 39.3125 
z
" id="DejaVuSans-51"/>
      </defs>
      <g transform="translate(47.309375 338.576866)scale(0.12 -0.12)">
       <use xlink:href="#DejaVuSans-8722"/>
       <use x="83.789062" xlink:href="#DejaVuSans-51"/>
      </g>
     </g>
    </g>
    <g id="ytick_3">
     <g id="line2d_8">
      <g>
       <use style="stroke:#000000;stroke-width:0.8;" x="72" xlink:href="#m81f99ed717" y="292.964843"/>
      </g>
     </g>
     <g id="text_9">
      <!-- −2 -->
      <g transform="translate(47.309375 297.523905)scale(0.12 -0.12)">
       <use xlink:href="#DejaVuSans-8722"/>
       <use x="83.789062" xlink:href="#DejaVuSans-50"/>
      </g>
     </g>
    </g>
    <g id="ytick_4">
     <g id="line2d_9">
      <g>
       <use style="stroke:#000000;stroke-width:0.8;" x="72" xlink:href="#m81f99ed717" y="251.911881"/>
      </g>
     </g>
     <g id="text_10">
      <!-- −1 -->
      <g transform="translate(47.309375 256.470944)scale(0.12 -0.12)">
       <use xlink:href="#DejaVuSans-8722"/>
       <use x="83.789062" xlink:href="#DejaVuSans-49"/>
      </g>
     </g>
    </g>
    <g id="ytick_5">
     <g id="line2d_10">
      <g>
       <use style="stroke:#000000;stroke-width:0.8;" x="72" xlink:href="#m81f99ed717" y="210.85892"/>
      </g>
     </g>
     <g id="text_11">
      <!-- 0 -->
      <g transform="translate(57.365 215.417982)scale(0.12 -0.12)">
       <use xlink:href="#DejaVuSans-48"/>
      </g>
     </g>
    </g>
    <g id="ytick_6">
     <g id="line2d_11">
      <g>
       <use style="stroke:#000000;stroke-width:0.8;" x="72" xlink:href="#m81f99ed717" y="169.805958"/>
      </g>
     </g>
     <g id="text_12">
      <!-- 1 -->
      <g transform="translate(57.365 174.365021)scale(0.12 -0.12)">
       <use xlink:href="#DejaVuSans-49"/>
      </g>
     </g>
    </g>
    <g id="ytick_7">
     <g id="line2d_12">
      <g>
       <use style="stroke:#000000;stroke-width:0.8;" x="72" xlink:href="#m81f99ed717" y="128.752997"/>
      </g>
     </g>
     <g id="text_13">
      <!-- 2 -->
      <g transform="translate(57.365 133.312059)scale(0.12 -0.12)">
       <use xlink:href="#DejaVuSans-50"/>
      </g>
     </g>
    </g>
    <g id="ytick_8">
     <g id="line2d_13">
      <g>
       <use style="stroke:#000000;stroke-width:0.8;" x="72" xlink:href="#m81f99ed717" y="87.700036"/>
      </g>
     </g>
     <g id="text_14">
      <!-- 3 -->
      <g transform="translate(57.365 92.259098)scale(0.12 -0.12)">
       <use xlink:href="#DejaVuSans-51"/>
      </g>
     </g>
    </g>
    <g id="text_15">
     <!-- PCA dimension 2 -->
     <g transform="translate(40.397813 277.221406)rotate(-90)scale(0.14 -0.14)">
      <use xlink:href="#DejaVuSans-80"/>
      <use x="60.302734" xlink:href="#DejaVuSans-67"/>
      <use x="130.126953" xlink:href="#DejaVuSans-65"/>
      <use x="198.535156" xlink:href="#DejaVuSans-32"/>
      <use x="230.322266" xlink:href="#DejaVuSans-100"/>
      <use x="293.798828" xlink:href="#DejaVuSans-105"/>
      <use x="321.582031" xlink:href="#DejaVuSans-109"/>
      <use x="418.994141" xlink:href="#DejaVuSans-101"/>
      <use x="480.517578" xlink:href="#DejaVuSans-110"/>
      <use x="543.896484" xlink:href="#DejaVuSans-115"/>
      <use x="595.996094" xlink:href="#DejaVuSans-105"/>
      <use x="623.779297" xlink:href="#DejaVuSans-111"/>
      <use x="684.960938" xlink:href="#DejaVuSans-110"/>
      <use x="748.339844" xlink:href="#DejaVuSans-32"/>
      <use x="780.126953" xlink:href="#DejaVuSans-50"/>
     </g>
    </g>
   </g>
   <g id="line2d_14">
    <defs>
     <path d="M 0 3 
C 0.795609 3 1.55874 2.683901 2.12132 2.12132 
C 2.683901 1.55874 3 0.795609 3 0 
C 3 -0.795609 2.683901 -1.55874 2.12132 -2.12132 
C 1.55874 -2.683901 0.795609 -3 0 -3 
C -0.795609 -3 -1.55874 -2.683901 -2.12132 -2.12132 
C -2.683901 -1.55874 -3 -0.795609 -3 0 
C -3 0.795609 -2.683901 1.55874 -2.12132 2.12132 
C -1.55874 2.683901 -0.795609 3 0 3 
z
" id="mcbe7db2271" style="stroke:#ff0000;"/>
    </defs>
    <g clip-path="url(#p8328c46435)">
     <use style="fill:#ff0000;stroke:#ff0000;" x="218.275629" xlink:href="#mcbe7db2271" y="231.994079"/>
     <use style="fill:#ff0000;stroke:#ff0000;" x="131.630963" xlink:href="#mcbe7db2271" y="157.544677"/>
     <use style="fill:#ff0000;stroke:#ff0000;" x="130.409381" xlink:href="#mcbe7db2271" y="144.837657"/>
     <use style="fill:#ff0000;stroke:#ff0000;" x="173.738077" xlink:href="#mcbe7db2271" y="178.943392"/>
     <use style="fill:#ff0000;stroke:#ff0000;" x="176.234889" xlink:href="#mcbe7db2271" y="214.618643"/>
     <use style="fill:#ff0000;stroke:#ff0000;" x="187.098167" xlink:href="#mcbe7db2271" y="142.798239"/>
     <use style="fill:#ff0000;stroke:#ff0000;" x="219.050542" xlink:href="#mcbe7db2271" y="208.701332"/>
     <use style="fill:#ff0000;stroke:#ff0000;" x="249.203245" xlink:href="#mcbe7db2271" y="172.350368"/>
     <use style="fill:#ff0000;stroke:#ff0000;" x="230.559896" xlink:href="#mcbe7db2271" y="183.895863"/>
     <use style="fill:#ff0000;stroke:#ff0000;" x="206.281472" xlink:href="#mcbe7db2271" y="144.074786"/>
     <use style="fill:#ff0000;stroke:#ff0000;" x="151.912976" xlink:href="#mcbe7db2271" y="123.973163"/>
     <use style="fill:#ff0000;stroke:#ff0000;" x="167.197253" xlink:href="#mcbe7db2271" y="162.088678"/>
     <use style="fill:#ff0000;stroke:#ff0000;" x="189.415898" xlink:href="#mcbe7db2271" y="203.02095"/>
     <use style="fill:#ff0000;stroke:#ff0000;" x="168.099693" xlink:href="#mcbe7db2271" y="139.137786"/>
     <use style="fill:#ff0000;stroke:#ff0000;" x="147.704054" xlink:href="#mcbe7db2271" y="139.972431"/>
     <use style="fill:#ff0000;stroke:#ff0000;" x="192.613106" xlink:href="#mcbe7db2271" y="182.629676"/>
     <use style="fill:#ff0000;stroke:#ff0000;" x="118.534304" xlink:href="#mcbe7db2271" y="98.019995"/>
     <use style="fill:#ff0000;stroke:#ff0000;" x="212.122811" xlink:href="#mcbe7db2271" y="182.768638"/>
     <use style="fill:#ff0000;stroke:#ff0000;" x="165.920912" xlink:href="#mcbe7db2271" y="178.541329"/>
     <use style="fill:#ff0000;stroke:#ff0000;" x="206.052196" xlink:href="#mcbe7db2271" y="203.624818"/>
     <use style="fill:#ff0000;stroke:#ff0000;" x="166.492811" xlink:href="#mcbe7db2271" y="152.05023"/>
     <use style="fill:#ff0000;stroke:#ff0000;" x="206.105813" xlink:href="#mcbe7db2271" y="144.005538"/>
     <use style="fill:#ff0000;stroke:#ff0000;" x="229.354435" xlink:href="#mcbe7db2271" y="182.287246"/>
     <use style="fill:#ff0000;stroke:#ff0000;" x="198.703596" xlink:href="#mcbe7db2271" y="144.992024"/>
     <use style="fill:#ff0000;stroke:#ff0000;" x="128.691327" xlink:href="#mcbe7db2271" y="107.764272"/>
     <use style="fill:#ff0000;stroke:#ff0000;" x="264.390436" xlink:href="#mcbe7db2271" y="203.901147"/>
     <use style="fill:#ff0000;stroke:#ff0000;" x="92.290909" xlink:href="#mcbe7db2271" y="125.054958"/>
     <use style="fill:#ff0000;stroke:#ff0000;" x="194.569065" xlink:href="#mcbe7db2271" y="169.235672"/>
     <use style="fill:#ff0000;stroke:#ff0000;" x="160.946702" xlink:href="#mcbe7db2271" y="180.349082"/>
     <use style="fill:#ff0000;stroke:#ff0000;" x="225.018965" xlink:href="#mcbe7db2271" y="242.357528"/>
     <use style="fill:#ff0000;stroke:#ff0000;" x="180.302524" xlink:href="#mcbe7db2271" y="162.763514"/>
     <use style="fill:#ff0000;stroke:#ff0000;" x="248.31404" xlink:href="#mcbe7db2271" y="175.250236"/>
     <use style="fill:#ff0000;stroke:#ff0000;" x="196.724188" xlink:href="#mcbe7db2271" y="213.765846"/>
     <use style="fill:#ff0000;stroke:#ff0000;" x="193.389996" xlink:href="#mcbe7db2271" y="115.5849"/>
     <use style="fill:#ff0000;stroke:#ff0000;" x="132.650056" xlink:href="#mcbe7db2271" y="164.57378"/>
     <use style="fill:#ff0000;stroke:#ff0000;" x="197.518959" xlink:href="#mcbe7db2271" y="167.418603"/>
     <use style="fill:#ff0000;stroke:#ff0000;" x="274.131522" xlink:href="#mcbe7db2271" y="197.31917"/>
     <use style="fill:#ff0000;stroke:#ff0000;" x="162.723305" xlink:href="#mcbe7db2271" y="184.40272"/>
     <use style="fill:#ff0000;stroke:#ff0000;" x="191.61863" xlink:href="#mcbe7db2271" y="224.507185"/>
     <use style="fill:#ff0000;stroke:#ff0000;" x="242.304388" xlink:href="#mcbe7db2271" y="138.108618"/>
     <use style="fill:#ff0000;stroke:#ff0000;" x="212.769867" xlink:href="#mcbe7db2271" y="223.842198"/>
     <use style="fill:#ff0000;stroke:#ff0000;" x="177.107779" xlink:href="#mcbe7db2271" y="168.646182"/>
     <use style="fill:#ff0000;stroke:#ff0000;" x="196.152282" xlink:href="#mcbe7db2271" y="183.197204"/>
     <use style="fill:#ff0000;stroke:#ff0000;" x="177.88793" xlink:href="#mcbe7db2271" y="160.062307"/>
     <use style="fill:#ff0000;stroke:#ff0000;" x="177.384789" xlink:href="#mcbe7db2271" y="173.275407"/>
     <use style="fill:#ff0000;stroke:#ff0000;" x="201.04526" xlink:href="#mcbe7db2271" y="159.808674"/>
     <use style="fill:#ff0000;stroke:#ff0000;" x="193.30567" xlink:href="#mcbe7db2271" y="161.234511"/>
     <use style="fill:#ff0000;stroke:#ff0000;" x="237.617011" xlink:href="#mcbe7db2271" y="214.535394"/>
     <use style="fill:#ff0000;stroke:#ff0000;" x="176.490985" xlink:href="#mcbe7db2271" y="137.048559"/>
     <use style="fill:#ff0000;stroke:#ff0000;" x="150.942372" xlink:href="#mcbe7db2271" y="163.538509"/>
    </g>
   </g>
   <g id="line2d_15">
    <defs>
     <path d="M 0 3 
C 0.795609 3 1.55874 2.683901 2.12132 2.12132 
C 2.683901 1.55874 3 0.795609 3 0 
C 3 -0.795609 2.683901 -1.55874 2.12132 -2.12132 
C 1.55874 -2.683901 0.795609 -3 0 -3 
C -0.795609 -3 -1.55874 -2.683901 -2.12132 -2.12132 
C -2.683901 -1.55874 -3 -0.795609 -3 0 
C -3 0.795609 -2.683901 1.55874 -2.12132 2.12132 
C -1.55874 2.683901 -0.795609 3 0 3 
z
" id="m9637630e52" style="stroke:#0000ff;"/>
    </defs>
    <g clip-path="url(#p8328c46435)">
     <use style="fill:#0000ff;stroke:#0000ff;" x="202.661764" xlink:href="#m9637630e52" y="268.305801"/>
     <use style="fill:#0000ff;stroke:#0000ff;" x="359.678039" xlink:href="#m9637630e52" y="297.564566"/>
     <use style="fill:#0000ff;stroke:#0000ff;" x="256.511624" xlink:href="#m9637630e52" y="271.187281"/>
     <use style="fill:#0000ff;stroke:#0000ff;" x="209.417335" xlink:href="#m9637630e52" y="263.58141"/>
     <use style="fill:#0000ff;stroke:#0000ff;" x="249.751283" xlink:href="#m9637630e52" y="270.036936"/>
     <use style="fill:#0000ff;stroke:#0000ff;" x="415.860375" xlink:href="#m9637630e52" y="214.438631"/>
     <use style="fill:#0000ff;stroke:#0000ff;" x="294.141488" xlink:href="#m9637630e52" y="262.71697"/>
     <use style="fill:#0000ff;stroke:#0000ff;" x="379.664004" xlink:href="#m9637630e52" y="281.160385"/>
     <use style="fill:#0000ff;stroke:#0000ff;" x="321.646783" xlink:href="#m9637630e52" y="225.961843"/>
     <use style="fill:#0000ff;stroke:#0000ff;" x="189.774887" xlink:href="#m9637630e52" y="288.00939"/>
     <use style="fill:#0000ff;stroke:#0000ff;" x="318.606122" xlink:href="#m9637630e52" y="290.230174"/>
     <use style="fill:#0000ff;stroke:#0000ff;" x="339.810628" xlink:href="#m9637630e52" y="336.679703"/>
     <use style="fill:#0000ff;stroke:#0000ff;" x="247.268435" xlink:href="#m9637630e52" y="315.886868"/>
     <use style="fill:#0000ff;stroke:#0000ff;" x="292.061322" xlink:href="#m9637630e52" y="305.270356"/>
     <use style="fill:#0000ff;stroke:#0000ff;" x="247.101818" xlink:href="#m9637630e52" y="270.247323"/>
     <use style="fill:#0000ff;stroke:#0000ff;" x="273.193399" xlink:href="#m9637630e52" y="369.36"/>
     <use style="fill:#0000ff;stroke:#0000ff;" x="351.546099" xlink:href="#m9637630e52" y="238.04005"/>
     <use style="fill:#0000ff;stroke:#0000ff;" x="199.136891" xlink:href="#m9637630e52" y="289.664907"/>
     <use style="fill:#0000ff;stroke:#0000ff;" x="382.674585" xlink:href="#m9637630e52" y="244.83638"/>
     <use style="fill:#0000ff;stroke:#0000ff;" x="327.117355" xlink:href="#m9637630e52" y="320.569782"/>
     <use style="fill:#0000ff;stroke:#0000ff;" x="278.485352" xlink:href="#m9637630e52" y="299.034447"/>
     <use style="fill:#0000ff;stroke:#0000ff;" x="334.061081" xlink:href="#m9637630e52" y="302.30631"/>
     <use style="fill:#0000ff;stroke:#0000ff;" x="324.750752" xlink:href="#m9637630e52" y="288.970042"/>
     <use style="fill:#0000ff;stroke:#0000ff;" x="319.296585" xlink:href="#m9637630e52" y="290.238541"/>
     <use style="fill:#0000ff;stroke:#0000ff;" x="321.983821" xlink:href="#m9637630e52" y="301.828617"/>
     <use style="fill:#0000ff;stroke:#0000ff;" x="380.624282" xlink:href="#m9637630e52" y="257.948818"/>
     <use style="fill:#0000ff;stroke:#0000ff;" x="313.255727" xlink:href="#m9637630e52" y="299.666781"/>
     <use style="fill:#0000ff;stroke:#0000ff;" x="217.676189" xlink:href="#m9637630e52" y="250.024308"/>
     <use style="fill:#0000ff;stroke:#0000ff;" x="175.826819" xlink:href="#m9637630e52" y="203.929268"/>
     <use style="fill:#0000ff;stroke:#0000ff;" x="330.214203" xlink:href="#m9637630e52" y="254.401884"/>
     <use style="fill:#0000ff;stroke:#0000ff;" x="317.792452" xlink:href="#m9637630e52" y="236.170081"/>
     <use style="fill:#0000ff;stroke:#0000ff;" x="368.801526" xlink:href="#m9637630e52" y="267.411738"/>
     <use style="fill:#0000ff;stroke:#0000ff;" x="258.287274" xlink:href="#m9637630e52" y="308.165218"/>
     <use style="fill:#0000ff;stroke:#0000ff;" x="189.614219" xlink:href="#m9637630e52" y="269.511744"/>
     <use style="fill:#0000ff;stroke:#0000ff;" x="229.362582" xlink:href="#m9637630e52" y="299.537356"/>
     <use style="fill:#0000ff;stroke:#0000ff;" x="300.530785" xlink:href="#m9637630e52" y="297.236924"/>
     <use style="fill:#0000ff;stroke:#0000ff;" x="303.570329" xlink:href="#m9637630e52" y="258.529934"/>
     <use style="fill:#0000ff;stroke:#0000ff;" x="277.430362" xlink:href="#m9637630e52" y="296.775711"/>
     <use style="fill:#0000ff;stroke:#0000ff;" x="301.022763" xlink:href="#m9637630e52" y="289.82413"/>
     <use style="fill:#0000ff;stroke:#0000ff;" x="221.426115" xlink:href="#m9637630e52" y="270.710922"/>
     <use style="fill:#0000ff;stroke:#0000ff;" x="322.202625" xlink:href="#m9637630e52" y="319.651916"/>
     <use style="fill:#0000ff;stroke:#0000ff;" x="250.743877" xlink:href="#m9637630e52" y="301.884574"/>
     <use style="fill:#0000ff;stroke:#0000ff;" x="410.856279" xlink:href="#m9637630e52" y="262.323108"/>
     <use style="fill:#0000ff;stroke:#0000ff;" x="357.499095" xlink:href="#m9637630e52" y="242.101272"/>
     <use style="fill:#0000ff;stroke:#0000ff;" x="232.852186" xlink:href="#m9637630e52" y="200.487944"/>
     <use style="fill:#0000ff;stroke:#0000ff;" x="228.873658" xlink:href="#m9637630e52" y="268.916728"/>
     <use style="fill:#0000ff;stroke:#0000ff;" x="336.949353" xlink:href="#m9637630e52" y="310.914267"/>
     <use style="fill:#0000ff;stroke:#0000ff;" x="278.195585" xlink:href="#m9637630e52" y="252.90349"/>
     <use style="fill:#0000ff;stroke:#0000ff;" x="317.543904" xlink:href="#m9637630e52" y="303.76308"/>
     <use style="fill:#0000ff;stroke:#0000ff;" x="261.030904" xlink:href="#m9637630e52" y="268.538057"/>
     <use style="fill:#0000ff;stroke:#0000ff;" x="348.619329" xlink:href="#m9637630e52" y="284.638381"/>
     <use style="fill:#0000ff;stroke:#0000ff;" x="259.971098" xlink:href="#m9637630e52" y="349.025123"/>
    </g>
   </g>
   <g id="line2d_16">
    <defs>
     <path d="M 0 3 
C 0.795609 3 1.55874 2.683901 2.12132 2.12132 
C 2.683901 1.55874 3 0.795609 3 0 
C 3 -0.795609 2.683901 -1.55874 2.12132 -2.12132 
C 1.55874 -2.683901 0.795609 -3 0 -3 
C -0.795609 -3 -1.55874 -2.683901 -2.12132 -2.12132 
C -2.683901 -1.55874 -3 -0.795609 -3 0 
C -3 0.795609 -2.683901 1.55874 -2.12132 2.12132 
C -1.55874 2.683901 -0.795609 3 0 3 
z
" id="m9c530ac5b5" style="stroke:#ff00ff;"/>
    </defs>
    <g clip-path="url(#p8328c46435)">
     <use style="fill:#ff00ff;stroke:#ff00ff;" x="447.490303" xlink:href="#m9c530ac5b5" y="97.506326"/>
     <use style="fill:#ff00ff;stroke:#ff00ff;" x="498.109091" xlink:href="#m9c530ac5b5" y="184.263027"/>
     <use style="fill:#ff00ff;stroke:#ff00ff;" x="408.565346" xlink:href="#m9c530ac5b5" y="195.524451"/>
     <use style="fill:#ff00ff;stroke:#ff00ff;" x="401.748807" xlink:href="#m9c530ac5b5" y="162.738331"/>
     <use style="fill:#ff00ff;stroke:#ff00ff;" x="435.237549" xlink:href="#m9c530ac5b5" y="147.188488"/>
     <use style="fill:#ff00ff;stroke:#ff00ff;" x="408.091723" xlink:href="#m9c530ac5b5" y="198.905979"/>
     <use style="fill:#ff00ff;stroke:#ff00ff;" x="481.855657" xlink:href="#m9c530ac5b5" y="183.852986"/>
     <use style="fill:#ff00ff;stroke:#ff00ff;" x="462.66224" xlink:href="#m9c530ac5b5" y="174.730495"/>
     <use style="fill:#ff00ff;stroke:#ff00ff;" x="403.940221" xlink:href="#m9c530ac5b5" y="195.609387"/>
     <use style="fill:#ff00ff;stroke:#ff00ff;" x="422.41805" xlink:href="#m9c530ac5b5" y="97.834662"/>
     <use style="fill:#ff00ff;stroke:#ff00ff;" x="416.372941" xlink:href="#m9c530ac5b5" y="127.130181"/>
     <use style="fill:#ff00ff;stroke:#ff00ff;" x="434.282927" xlink:href="#m9c530ac5b5" y="158.686271"/>
     <use style="fill:#ff00ff;stroke:#ff00ff;" x="466.196345" xlink:href="#m9c530ac5b5" y="137.073849"/>
     <use style="fill:#ff00ff;stroke:#ff00ff;" x="418.834502" xlink:href="#m9c530ac5b5" y="138.922375"/>
     <use style="fill:#ff00ff;stroke:#ff00ff;" x="418.623938" xlink:href="#m9c530ac5b5" y="182.285968"/>
     <use style="fill:#ff00ff;stroke:#ff00ff;" x="427.18645" xlink:href="#m9c530ac5b5" y="199.117851"/>
     <use style="fill:#ff00ff;stroke:#ff00ff;" x="444.391106" xlink:href="#m9c530ac5b5" y="180.640466"/>
     <use style="fill:#ff00ff;stroke:#ff00ff;" x="398.974659" xlink:href="#m9c530ac5b5" y="125.809774"/>
     <use style="fill:#ff00ff;stroke:#ff00ff;" x="408.12587" xlink:href="#m9c530ac5b5" y="191.113392"/>
     <use style="fill:#ff00ff;stroke:#ff00ff;" x="447.625319" xlink:href="#m9c530ac5b5" y="221.144425"/>
     <use style="fill:#ff00ff;stroke:#ff00ff;" x="400.318319" xlink:href="#m9c530ac5b5" y="163.369292"/>
     <use style="fill:#ff00ff;stroke:#ff00ff;" x="381.554969" xlink:href="#m9c530ac5b5" y="148.320942"/>
     <use style="fill:#ff00ff;stroke:#ff00ff;" x="419.952071" xlink:href="#m9c530ac5b5" y="187.804536"/>
     <use style="fill:#ff00ff;stroke:#ff00ff;" x="430.438353" xlink:href="#m9c530ac5b5" y="188.09588"/>
     <use style="fill:#ff00ff;stroke:#ff00ff;" x="408.684174" xlink:href="#m9c530ac5b5" y="116.811332"/>
     <use style="fill:#ff00ff;stroke:#ff00ff;" x="358.630433" xlink:href="#m9c530ac5b5" y="203.883614"/>
     <use style="fill:#ff00ff;stroke:#ff00ff;" x="469.646071" xlink:href="#m9c530ac5b5" y="176.154258"/>
     <use style="fill:#ff00ff;stroke:#ff00ff;" x="345.458649" xlink:href="#m9c530ac5b5" y="66.96"/>
     <use style="fill:#ff00ff;stroke:#ff00ff;" x="432.428961" xlink:href="#m9c530ac5b5" y="132.045318"/>
     <use style="fill:#ff00ff;stroke:#ff00ff;" x="425.218971" xlink:href="#m9c530ac5b5" y="194.079208"/>
     <use style="fill:#ff00ff;stroke:#ff00ff;" x="408.396611" xlink:href="#m9c530ac5b5" y="104.885394"/>
     <use style="fill:#ff00ff;stroke:#ff00ff;" x="434.653891" xlink:href="#m9c530ac5b5" y="200.057081"/>
     <use style="fill:#ff00ff;stroke:#ff00ff;" x="426.304853" xlink:href="#m9c530ac5b5" y="123.296416"/>
     <use style="fill:#ff00ff;stroke:#ff00ff;" x="432.893334" xlink:href="#m9c530ac5b5" y="127.303186"/>
     <use style="fill:#ff00ff;stroke:#ff00ff;" x="428.520573" xlink:href="#m9c530ac5b5" y="146.565222"/>
     <use style="fill:#ff00ff;stroke:#ff00ff;" x="436.953401" xlink:href="#m9c530ac5b5" y="190.831571"/>
     <use style="fill:#ff00ff;stroke:#ff00ff;" x="442.083971" xlink:href="#m9c530ac5b5" y="196.578176"/>
     <use style="fill:#ff00ff;stroke:#ff00ff;" x="371.98596" xlink:href="#m9c530ac5b5" y="112.337214"/>
     <use style="fill:#ff00ff;stroke:#ff00ff;" x="455.129584" xlink:href="#m9c530ac5b5" y="120.129624"/>
     <use style="fill:#ff00ff;stroke:#ff00ff;" x="480.87766" xlink:href="#m9c530ac5b5" y="204.530701"/>
    </g>
   </g>
   <g id="patch_3">
    <path d="M 72 384.48 
L 72 51.84 
" style="fill:none;stroke:#000000;stroke-linecap:square;stroke-linejoin:miter;stroke-width:0.8;"/>
   </g>
   <g id="patch_4">
    <path d="M 518.4 384.48 
L 518.4 51.84 
" style="fill:none;stroke:#000000;stroke-linecap:square;stroke-linejoin:miter;stroke-width:0.8;"/>
   </g>
   <g id="patch_5">
    <path d="M 72 384.48 
L 518.4 384.48 
" style="fill:none;stroke:#000000;stroke-linecap:square;stroke-linejoin:miter;stroke-width:0.8;"/>
   </g>
   <g id="patch_6">
    <path d="M 72 51.84 
L 518.4 51.84 
" style="fill:none;stroke:#000000;stroke-linecap:square;stroke-linejoin:miter;stroke-width:0.8;"/>
   </g>
   <g id="legend_1">
    <g id="patch_7">
     <path d="M 80.4 378.48 
L 161.818125 378.48 
Q 164.218125 378.48 164.218125 376.08 
L 164.218125 324.43875 
Q 164.218125 322.03875 161.818125 322.03875 
L 80.4 322.03875 
Q 78 322.03875 78 324.43875 
L 78 376.08 
Q 78 378.48 80.4 378.48 
z
" style="fill:#ffffff;opacity:0.8;stroke:#cccccc;stroke-linejoin:miter;"/>
    </g>
    <g id="line2d_17"/>
    <g id="line2d_18">
     <g>
      <use style="fill:#ff0000;stroke:#ff0000;" x="94.8" xlink:href="#mcbe7db2271" y="331.756875"/>
     </g>
    </g>
    <g id="text_16">
     <!-- Class 1 -->
     <defs>
      <path d="M 9.421875 75.984375 
L 18.40625 75.984375 
L 18.40625 0 
L 9.421875 0 
z
" id="DejaVuSans-108"/>
      <path d="M 34.28125 27.484375 
Q 23.390625 27.484375 19.1875 25 
Q 14.984375 22.515625 14.984375 16.5 
Q 14.984375 11.71875 18.140625 8.90625 
Q 21.296875 6.109375 26.703125 6.109375 
Q 34.1875 6.109375 38.703125 11.40625 
Q 43.21875 16.703125 43.21875 25.484375 
L 43.21875 27.484375 
z
M 52.203125 31.203125 
L 52.203125 0 
L 43.21875 0 
L 43.21875 8.296875 
Q 40.140625 3.328125 35.546875 0.953125 
Q 30.953125 -1.421875 24.3125 -1.421875 
Q 15.921875 -1.421875 10.953125 3.296875 
Q 6 8.015625 6 15.921875 
Q 6 25.140625 12.171875 29.828125 
Q 18.359375 34.515625 30.609375 34.515625 
L 43.21875 34.515625 
L 43.21875 35.40625 
Q 43.21875 41.609375 39.140625 45 
Q 35.0625 48.390625 27.6875 48.390625 
Q 23 48.390625 18.546875 47.265625 
Q 14.109375 46.140625 10.015625 43.890625 
L 10.015625 52.203125 
Q 14.9375 54.109375 19.578125 55.046875 
Q 24.21875 56 28.609375 56 
Q 40.484375 56 46.34375 49.84375 
Q 52.203125 43.703125 52.203125 31.203125 
z
" id="DejaVuSans-97"/>
     </defs>
     <g transform="translate(116.4 335.956875)scale(0.12 -0.12)">
      <use xlink:href="#DejaVuSans-67"/>
      <use x="69.824219" xlink:href="#DejaVuSans-108"/>
      <use x="97.607422" xlink:href="#DejaVuSans-97"/>
      <use x="158.886719" xlink:href="#DejaVuSans-115"/>
      <use x="210.986328" xlink:href="#DejaVuSans-115"/>
      <use x="263.085938" xlink:href="#DejaVuSans-32"/>
      <use x="294.873047" xlink:href="#DejaVuSans-49"/>
     </g>
    </g>
    <g id="line2d_19"/>
    <g id="line2d_20">
     <g>
      <use style="fill:#0000ff;stroke:#0000ff;" x="94.8" xlink:href="#m9637630e52" y="349.370625"/>
     </g>
    </g>
    <g id="text_17">
     <!-- Class 2 -->
     <g transform="translate(116.4 353.570625)scale(0.12 -0.12)">
      <use xlink:href="#DejaVuSans-67"/>
      <use x="69.824219" xlink:href="#DejaVuSans-108"/>
      <use x="97.607422" xlink:href="#DejaVuSans-97"/>
      <use x="158.886719" xlink:href="#DejaVuSans-115"/>
      <use x="210.986328" xlink:href="#DejaVuSans-115"/>
      <use x="263.085938" xlink:href="#DejaVuSans-32"/>
      <use x="294.873047" xlink:href="#DejaVuSans-50"/>
     </g>
    </g>
    <g id="line2d_21"/>
    <g id="line2d_22">
     <g>
      <use style="fill:#ff00ff;stroke:#ff00ff;" x="94.8" xlink:href="#m9c530ac5b5" y="366.984375"/>
     </g>
    </g>
    <g id="text_18">
     <!-- Class 3 -->
     <g transform="translate(116.4 371.184375)scale(0.12 -0.12)">
      <use xlink:href="#DejaVuSans-67"/>
      <use x="69.824219" xlink:href="#DejaVuSans-108"/>
      <use x="97.607422" xlink:href="#DejaVuSans-97"/>
      <use x="158.886719" xlink:href="#DejaVuSans-115"/>
      <use x="210.986328" xlink:href="#DejaVuSans-115"/>
      <use x="263.085938" xlink:href="#DejaVuSans-32"/>
      <use x="294.873047" xlink:href="#DejaVuSans-51"/>
     </g>
    </g>
   </g>
  </g>
 </g>
 <defs>
  <clipPath id="p8328c46435">
   <rect height="332.64" width="446.4" x="72" y="51.84"/>
  </clipPath>
 </defs>
</svg>
