<?xml version="1.0" encoding="utf-8"?>
<svg xmlns="http://www.w3.org/2000/svg" xmlns:xlink="http://www.w3.org/1999/xlink" width="600" height="400" viewBox="0 0 2400 1600">
<defs>
  <clipPath id="clip340">
    <rect x="0" y="0" width="2400" height="1600"/>
  </clipPath>
</defs>
<path clip-path="url(#clip340)" d="M0 1600 L2400 1600 L2400 0 L0 0  Z" fill="#ffffff" fill-rule="evenodd" fill-opacity="1"/>
<defs>
  <clipPath id="clip341">
    <rect x="480" y="0" width="1681" height="1600"/>
  </clipPath>
</defs>
<path clip-path="url(#clip340)" d="M265.179 1477.81 L2352.76 1477.81 L2352.76 136.432 L265.179 136.432  Z" fill="#ffffff" fill-rule="evenodd" fill-opacity="1"/>
<defs>
  <clipPath id="clip342">
    <rect x="265" y="136" width="2089" height="1342"/>
  </clipPath>
</defs>
<polyline clip-path="url(#clip342)" style="stroke:#000000; stroke-linecap:round; stroke-linejoin:round; stroke-width:2; stroke-opacity:0.1; fill:none" points="792.874,1477.81 792.874,136.432 "/>
<polyline clip-path="url(#clip342)" style="stroke:#000000; stroke-linecap:round; stroke-linejoin:round; stroke-width:2; stroke-opacity:0.1; fill:none" points="1825.06,1477.81 1825.06,136.432 "/>
<polyline clip-path="url(#clip340)" style="stroke:#000000; stroke-linecap:round; stroke-linejoin:round; stroke-width:4; stroke-opacity:1; fill:none" points="265.179,1477.81 2352.76,1477.81 "/>
<polyline clip-path="url(#clip340)" style="stroke:#000000; stroke-linecap:round; stroke-linejoin:round; stroke-width:4; stroke-opacity:1; fill:none" points="792.874,1477.81 792.874,1458.91 "/>
<polyline clip-path="url(#clip340)" style="stroke:#000000; stroke-linecap:round; stroke-linejoin:round; stroke-width:4; stroke-opacity:1; fill:none" points="1825.06,1477.81 1825.06,1458.91 "/>
<path clip-path="url(#clip340)" d="M720.189 1512.61 L720.189 1546.2 L727.249 1546.2 Q736.19 1546.2 740.328 1542.15 Q744.494 1538.1 744.494 1529.36 Q744.494 1520.68 740.328 1516.66 Q736.19 1512.61 727.249 1512.61 L720.189 1512.61 M714.344 1507.81 L726.352 1507.81 Q738.91 1507.81 744.784 1513.05 Q750.658 1518.25 750.658 1529.36 Q750.658 1540.53 744.755 1545.77 Q738.852 1551.01 726.352 1551.01 L714.344 1551.01 L714.344 1507.81 Z" fill="#000000" fill-rule="nonzero" fill-opacity="1" /><path clip-path="url(#clip340)" d="M772.301 1522.33 Q768.019 1522.33 765.53 1525.69 Q763.042 1529.02 763.042 1534.83 Q763.042 1540.65 765.501 1544.01 Q767.99 1547.33 772.301 1547.33 Q776.554 1547.33 779.043 1543.98 Q781.531 1540.62 781.531 1534.83 Q781.531 1529.08 779.043 1525.72 Q776.554 1522.33 772.301 1522.33 M772.301 1517.82 Q779.245 1517.82 783.209 1522.33 Q787.174 1526.85 787.174 1534.83 Q787.174 1542.79 783.209 1547.33 Q779.245 1551.85 772.301 1551.85 Q765.328 1551.85 761.364 1547.33 Q757.428 1542.79 757.428 1534.83 Q757.428 1526.85 761.364 1522.33 Q765.328 1517.82 772.301 1517.82 Z" fill="#000000" fill-rule="nonzero" fill-opacity="1" /><path clip-path="url(#clip340)" d="M792.903 1518.6 L798.227 1518.6 L804.882 1543.89 L811.508 1518.6 L817.787 1518.6 L824.442 1543.89 L831.068 1518.6 L836.392 1518.6 L827.914 1551.01 L821.635 1551.01 L814.662 1524.45 L807.66 1551.01 L801.381 1551.01 L792.903 1518.6 Z" fill="#000000" fill-rule="nonzero" fill-opacity="1" /><path clip-path="url(#clip340)" d="M871.403 1531.45 L871.403 1551.01 L866.079 1551.01 L866.079 1531.62 Q866.079 1527.02 864.285 1524.73 Q862.491 1522.45 858.903 1522.45 Q854.592 1522.45 852.104 1525.2 Q849.615 1527.95 849.615 1532.69 L849.615 1551.01 L844.262 1551.01 L844.262 1518.6 L849.615 1518.6 L849.615 1523.64 Q851.525 1520.71 854.1 1519.27 Q856.704 1517.82 860.09 1517.82 Q865.674 1517.82 868.539 1521.29 Q871.403 1524.73 871.403 1531.45 Z" fill="#000000" fill-rule="nonzero" fill-opacity="1" /><path clip-path="url(#clip340)" d="M1788.76 1507.81 L1794.64 1507.81 L1794.64 1534.05 Q1794.64 1541 1797.15 1544.06 Q1799.67 1547.1 1805.31 1547.1 Q1810.93 1547.1 1813.44 1544.06 Q1815.96 1541 1815.96 1534.05 L1815.96 1507.81 L1821.83 1507.81 L1821.83 1534.78 Q1821.83 1543.22 1817.64 1547.54 Q1813.47 1551.85 1805.31 1551.85 Q1797.12 1551.85 1792.93 1547.54 Q1788.76 1543.22 1788.76 1534.78 L1788.76 1507.81 Z" fill="#000000" fill-rule="nonzero" fill-opacity="1" /><path clip-path="url(#clip340)" d="M1837.72 1546.15 L1837.72 1563.33 L1832.37 1563.33 L1832.37 1518.6 L1837.72 1518.6 L1837.72 1523.52 Q1839.4 1520.63 1841.94 1519.24 Q1844.52 1517.82 1848.08 1517.82 Q1853.98 1517.82 1857.66 1522.51 Q1861.36 1527.19 1861.36 1534.83 Q1861.36 1542.47 1857.66 1547.16 Q1853.98 1551.85 1848.08 1551.85 Q1844.52 1551.85 1841.94 1550.46 Q1839.4 1549.04 1837.72 1546.15 M1855.83 1534.83 Q1855.83 1528.96 1853.4 1525.63 Q1851 1522.28 1846.78 1522.28 Q1842.55 1522.28 1840.12 1525.63 Q1837.72 1528.96 1837.72 1534.83 Q1837.72 1540.71 1840.12 1544.06 Q1842.55 1547.39 1846.78 1547.39 Q1851 1547.39 1853.4 1544.06 Q1855.83 1540.71 1855.83 1534.83 Z" fill="#000000" fill-rule="nonzero" fill-opacity="1" /><polyline clip-path="url(#clip342)" style="stroke:#000000; stroke-linecap:round; stroke-linejoin:round; stroke-width:2; stroke-opacity:0.1; fill:none" points="265.179,1477.81 2352.76,1477.81 "/>
<polyline clip-path="url(#clip342)" style="stroke:#000000; stroke-linecap:round; stroke-linejoin:round; stroke-width:2; stroke-opacity:0.1; fill:none" points="265.179,1270.81 2352.76,1270.81 "/>
<polyline clip-path="url(#clip342)" style="stroke:#000000; stroke-linecap:round; stroke-linejoin:round; stroke-width:2; stroke-opacity:0.1; fill:none" points="265.179,1063.8 2352.76,1063.8 "/>
<polyline clip-path="url(#clip342)" style="stroke:#000000; stroke-linecap:round; stroke-linejoin:round; stroke-width:2; stroke-opacity:0.1; fill:none" points="265.179,856.801 2352.76,856.801 "/>
<polyline clip-path="url(#clip342)" style="stroke:#000000; stroke-linecap:round; stroke-linejoin:round; stroke-width:2; stroke-opacity:0.1; fill:none" points="265.179,649.798 2352.76,649.798 "/>
<polyline clip-path="url(#clip342)" style="stroke:#000000; stroke-linecap:round; stroke-linejoin:round; stroke-width:2; stroke-opacity:0.1; fill:none" points="265.179,442.796 2352.76,442.796 "/>
<polyline clip-path="url(#clip342)" style="stroke:#000000; stroke-linecap:round; stroke-linejoin:round; stroke-width:2; stroke-opacity:0.1; fill:none" points="265.179,235.793 2352.76,235.793 "/>
<polyline clip-path="url(#clip340)" style="stroke:#000000; stroke-linecap:round; stroke-linejoin:round; stroke-width:4; stroke-opacity:1; fill:none" points="265.179,1477.81 265.179,136.432 "/>
<polyline clip-path="url(#clip340)" style="stroke:#000000; stroke-linecap:round; stroke-linejoin:round; stroke-width:4; stroke-opacity:1; fill:none" points="265.179,1477.81 284.076,1477.81 "/>
<polyline clip-path="url(#clip340)" style="stroke:#000000; stroke-linecap:round; stroke-linejoin:round; stroke-width:4; stroke-opacity:1; fill:none" points="265.179,1270.81 284.076,1270.81 "/>
<polyline clip-path="url(#clip340)" style="stroke:#000000; stroke-linecap:round; stroke-linejoin:round; stroke-width:4; stroke-opacity:1; fill:none" points="265.179,1063.8 284.076,1063.8 "/>
<polyline clip-path="url(#clip340)" style="stroke:#000000; stroke-linecap:round; stroke-linejoin:round; stroke-width:4; stroke-opacity:1; fill:none" points="265.179,856.801 284.076,856.801 "/>
<polyline clip-path="url(#clip340)" style="stroke:#000000; stroke-linecap:round; stroke-linejoin:round; stroke-width:4; stroke-opacity:1; fill:none" points="265.179,649.798 284.076,649.798 "/>
<polyline clip-path="url(#clip340)" style="stroke:#000000; stroke-linecap:round; stroke-linejoin:round; stroke-width:4; stroke-opacity:1; fill:none" points="265.179,442.796 284.076,442.796 "/>
<polyline clip-path="url(#clip340)" style="stroke:#000000; stroke-linecap:round; stroke-linejoin:round; stroke-width:4; stroke-opacity:1; fill:none" points="265.179,235.793 284.076,235.793 "/>
<path clip-path="url(#clip340)" d="M214.248 1460.06 Q209.734 1460.06 207.448 1464.51 Q205.191 1468.94 205.191 1477.85 Q205.191 1486.73 207.448 1491.19 Q209.734 1495.62 214.248 1495.62 Q218.791 1495.62 221.048 1491.19 Q223.334 1486.73 223.334 1477.85 Q223.334 1468.94 221.048 1464.51 Q218.791 1460.06 214.248 1460.06 M214.248 1455.43 Q221.511 1455.43 225.33 1461.18 Q229.179 1466.91 229.179 1477.85 Q229.179 1488.76 225.33 1494.52 Q221.511 1500.25 214.248 1500.25 Q206.985 1500.25 203.137 1494.52 Q199.318 1488.76 199.318 1477.85 Q199.318 1466.91 203.137 1461.18 Q206.985 1455.43 214.248 1455.43 Z" fill="#000000" fill-rule="nonzero" fill-opacity="1" /><path clip-path="url(#clip340)" d="M127.356 1287.49 L136.905 1287.49 L136.905 1254.53 L126.517 1256.61 L126.517 1251.29 L136.847 1249.21 L142.692 1249.21 L142.692 1287.49 L152.24 1287.49 L152.24 1292.41 L127.356 1292.41 L127.356 1287.49 Z" fill="#000000" fill-rule="nonzero" fill-opacity="1" /><path clip-path="url(#clip340)" d="M176.546 1253.05 Q172.032 1253.05 169.746 1257.51 Q167.489 1261.94 167.489 1270.85 Q167.489 1279.73 169.746 1284.19 Q172.032 1288.61 176.546 1288.61 Q181.089 1288.61 183.345 1284.19 Q185.631 1279.73 185.631 1270.85 Q185.631 1261.94 183.345 1257.51 Q181.089 1253.05 176.546 1253.05 M176.546 1248.42 Q183.808 1248.42 187.628 1254.18 Q191.476 1259.91 191.476 1270.85 Q191.476 1281.76 187.628 1287.52 Q183.808 1293.24 176.546 1293.24 Q169.283 1293.24 165.435 1287.52 Q161.615 1281.76 161.615 1270.85 Q161.615 1259.91 165.435 1254.18 Q169.283 1248.42 176.546 1248.42 Z" fill="#000000" fill-rule="nonzero" fill-opacity="1" /><path clip-path="url(#clip340)" d="M214.248 1253.05 Q209.734 1253.05 207.448 1257.51 Q205.191 1261.94 205.191 1270.85 Q205.191 1279.73 207.448 1284.19 Q209.734 1288.61 214.248 1288.61 Q218.791 1288.61 221.048 1284.19 Q223.334 1279.73 223.334 1270.85 Q223.334 1261.94 221.048 1257.51 Q218.791 1253.05 214.248 1253.05 M214.248 1248.42 Q221.511 1248.42 225.33 1254.18 Q229.179 1259.91 229.179 1270.85 Q229.179 1281.76 225.33 1287.52 Q221.511 1293.24 214.248 1293.24 Q206.985 1293.24 203.137 1287.52 Q199.318 1281.76 199.318 1270.85 Q199.318 1259.91 203.137 1254.18 Q206.985 1248.42 214.248 1248.42 Z" fill="#000000" fill-rule="nonzero" fill-opacity="1" /><path clip-path="url(#clip340)" d="M131.378 1080.48 L151.777 1080.48 L151.777 1085.4 L124.347 1085.4 L124.347 1080.48 Q127.674 1077.04 133.404 1071.25 Q139.162 1065.44 140.637 1063.76 Q143.444 1060.61 144.544 1058.44 Q145.672 1056.24 145.672 1054.12 Q145.672 1050.68 143.241 1048.51 Q140.84 1046.34 136.963 1046.34 Q134.214 1046.34 131.147 1047.3 Q128.108 1048.25 124.636 1050.19 L124.636 1044.29 Q128.166 1042.87 131.233 1042.15 Q134.301 1041.42 136.847 1041.42 Q143.56 1041.42 147.553 1044.78 Q151.546 1048.13 151.546 1053.75 Q151.546 1056.41 150.533 1058.81 Q149.549 1061.18 146.916 1064.43 Q146.193 1065.26 142.316 1069.29 Q138.438 1073.28 131.378 1080.48 Z" fill="#000000" fill-rule="nonzero" fill-opacity="1" /><path clip-path="url(#clip340)" d="M176.546 1046.05 Q172.032 1046.05 169.746 1050.51 Q167.489 1054.93 167.489 1063.85 Q167.489 1072.73 169.746 1077.19 Q172.032 1081.61 176.546 1081.61 Q181.089 1081.61 183.345 1077.19 Q185.631 1072.73 185.631 1063.85 Q185.631 1054.93 183.345 1050.51 Q181.089 1046.05 176.546 1046.05 M176.546 1041.42 Q183.808 1041.42 187.628 1047.18 Q191.476 1052.91 191.476 1063.85 Q191.476 1074.75 187.628 1080.51 Q183.808 1086.24 176.546 1086.24 Q169.283 1086.24 165.435 1080.51 Q161.615 1074.75 161.615 1063.85 Q161.615 1052.91 165.435 1047.18 Q169.283 1041.42 176.546 1041.42 Z" fill="#000000" fill-rule="nonzero" fill-opacity="1" /><path clip-path="url(#clip340)" d="M214.248 1046.05 Q209.734 1046.05 207.448 1050.51 Q205.191 1054.93 205.191 1063.85 Q205.191 1072.73 207.448 1077.19 Q209.734 1081.61 214.248 1081.61 Q218.791 1081.61 221.048 1077.19 Q223.334 1072.73 223.334 1063.85 Q223.334 1054.93 221.048 1050.51 Q218.791 1046.05 214.248 1046.05 M214.248 1041.42 Q221.511 1041.42 225.33 1047.18 Q229.179 1052.91 229.179 1063.85 Q229.179 1074.75 225.33 1080.51 Q221.511 1086.24 214.248 1086.24 Q206.985 1086.24 203.137 1080.51 Q199.318 1074.75 199.318 1063.85 Q199.318 1052.91 203.137 1047.18 Q206.985 1041.42 214.248 1041.42 Z" fill="#000000" fill-rule="nonzero" fill-opacity="1" /><path clip-path="url(#clip340)" d="M144.052 855.108 Q148.247 856.005 150.591 858.841 Q152.964 861.676 152.964 865.843 Q152.964 872.237 148.566 875.739 Q144.167 879.24 136.066 879.24 Q133.346 879.24 130.452 878.69 Q127.588 878.169 124.521 877.099 L124.521 871.456 Q126.951 872.874 129.845 873.597 Q132.738 874.321 135.892 874.321 Q141.39 874.321 144.254 872.151 Q147.148 869.98 147.148 865.843 Q147.148 862.023 144.457 859.882 Q141.795 857.712 137.02 857.712 L131.986 857.712 L131.986 852.909 L137.252 852.909 Q141.563 852.909 143.849 851.202 Q146.135 849.466 146.135 846.225 Q146.135 842.897 143.762 841.132 Q141.419 839.338 137.02 839.338 Q134.619 839.338 131.87 839.859 Q129.121 840.38 125.823 841.479 L125.823 836.271 Q129.15 835.345 132.044 834.882 Q134.966 834.419 137.541 834.419 Q144.196 834.419 148.074 837.458 Q151.951 840.467 151.951 845.617 Q151.951 849.205 149.897 851.694 Q147.842 854.153 144.052 855.108 Z" fill="#000000" fill-rule="nonzero" fill-opacity="1" /><path clip-path="url(#clip340)" d="M176.546 839.049 Q172.032 839.049 169.746 843.505 Q167.489 847.932 167.489 856.844 Q167.489 865.727 169.746 870.183 Q172.032 874.61 176.546 874.61 Q181.089 874.61 183.345 870.183 Q185.631 865.727 185.631 856.844 Q185.631 847.932 183.345 843.505 Q181.089 839.049 176.546 839.049 M176.546 834.419 Q183.808 834.419 187.628 840.177 Q191.476 845.907 191.476 856.844 Q191.476 867.752 187.628 873.511 Q183.808 879.24 176.546 879.24 Q169.283 879.24 165.435 873.511 Q161.615 867.752 161.615 856.844 Q161.615 845.907 165.435 840.177 Q169.283 834.419 176.546 834.419 Z" fill="#000000" fill-rule="nonzero" fill-opacity="1" /><path clip-path="url(#clip340)" d="M214.248 839.049 Q209.734 839.049 207.448 843.505 Q205.191 847.932 205.191 856.844 Q205.191 865.727 207.448 870.183 Q209.734 874.61 214.248 874.61 Q218.791 874.61 221.048 870.183 Q223.334 865.727 223.334 856.844 Q223.334 847.932 221.048 843.505 Q218.791 839.049 214.248 839.049 M214.248 834.419 Q221.511 834.419 225.33 840.177 Q229.179 845.907 229.179 856.844 Q229.179 867.752 225.33 873.511 Q221.511 879.24 214.248 879.24 Q206.985 879.24 203.137 873.511 Q199.318 867.752 199.318 856.844 Q199.318 845.907 203.137 840.177 Q206.985 834.419 214.248 834.419 Z" fill="#000000" fill-rule="nonzero" fill-opacity="1" /><path clip-path="url(#clip340)" d="M142.402 633.291 L127.646 656.352 L142.402 656.352 L142.402 633.291 M140.869 628.198 L148.218 628.198 L148.218 656.352 L154.381 656.352 L154.381 661.213 L148.218 661.213 L148.218 671.398 L142.402 671.398 L142.402 661.213 L122.9 661.213 L122.9 655.571 L140.869 628.198 Z" fill="#000000" fill-rule="nonzero" fill-opacity="1" /><path clip-path="url(#clip340)" d="M176.546 632.047 Q172.032 632.047 169.746 636.503 Q167.489 640.93 167.489 649.842 Q167.489 658.725 169.746 663.181 Q172.032 667.608 176.546 667.608 Q181.089 667.608 183.345 663.181 Q185.631 658.725 185.631 649.842 Q185.631 640.93 183.345 636.503 Q181.089 632.047 176.546 632.047 M176.546 627.417 Q183.808 627.417 187.628 633.175 Q191.476 638.904 191.476 649.842 Q191.476 660.75 187.628 666.508 Q183.808 672.237 176.546 672.237 Q169.283 672.237 165.435 666.508 Q161.615 660.75 161.615 649.842 Q161.615 638.904 165.435 633.175 Q169.283 627.417 176.546 627.417 Z" fill="#000000" fill-rule="nonzero" fill-opacity="1" /><path clip-path="url(#clip340)" d="M214.248 632.047 Q209.734 632.047 207.448 636.503 Q205.191 640.93 205.191 649.842 Q205.191 658.725 207.448 663.181 Q209.734 667.608 214.248 667.608 Q218.791 667.608 221.048 663.181 Q223.334 658.725 223.334 649.842 Q223.334 640.93 221.048 636.503 Q218.791 632.047 214.248 632.047 M214.248 627.417 Q221.511 627.417 225.33 633.175 Q229.179 638.904 229.179 649.842 Q229.179 660.75 225.33 666.508 Q221.511 672.237 214.248 672.237 Q206.985 672.237 203.137 666.508 Q199.318 660.75 199.318 649.842 Q199.318 638.904 203.137 633.175 Q206.985 627.417 214.248 627.417 Z" fill="#000000" fill-rule="nonzero" fill-opacity="1" /><path clip-path="url(#clip340)" d="M126.401 421.196 L149.347 421.196 L149.347 426.115 L131.754 426.115 L131.754 436.705 Q133.027 436.271 134.301 436.068 Q135.574 435.837 136.847 435.837 Q144.081 435.837 148.305 439.801 Q152.53 443.765 152.53 450.536 Q152.53 457.509 148.189 461.386 Q143.849 465.235 135.95 465.235 Q133.23 465.235 130.394 464.772 Q127.588 464.309 124.578 463.383 L124.578 457.509 Q127.183 458.927 129.96 459.621 Q132.738 460.316 135.834 460.316 Q140.84 460.316 143.762 457.683 Q146.685 455.05 146.685 450.536 Q146.685 446.022 143.762 443.389 Q140.84 440.756 135.834 440.756 Q133.49 440.756 131.147 441.277 Q128.832 441.797 126.401 442.897 L126.401 421.196 Z" fill="#000000" fill-rule="nonzero" fill-opacity="1" /><path clip-path="url(#clip340)" d="M176.546 425.044 Q172.032 425.044 169.746 429.5 Q167.489 433.927 167.489 442.839 Q167.489 451.722 169.746 456.178 Q172.032 460.605 176.546 460.605 Q181.089 460.605 183.345 456.178 Q185.631 451.722 185.631 442.839 Q185.631 433.927 183.345 429.5 Q181.089 425.044 176.546 425.044 M176.546 420.414 Q183.808 420.414 187.628 426.173 Q191.476 431.902 191.476 442.839 Q191.476 453.748 187.628 459.506 Q183.808 465.235 176.546 465.235 Q169.283 465.235 165.435 459.506 Q161.615 453.748 161.615 442.839 Q161.615 431.902 165.435 426.173 Q169.283 420.414 176.546 420.414 Z" fill="#000000" fill-rule="nonzero" fill-opacity="1" /><path clip-path="url(#clip340)" d="M214.248 425.044 Q209.734 425.044 207.448 429.5 Q205.191 433.927 205.191 442.839 Q205.191 451.722 207.448 456.178 Q209.734 460.605 214.248 460.605 Q218.791 460.605 221.048 456.178 Q223.334 451.722 223.334 442.839 Q223.334 433.927 221.048 429.5 Q218.791 425.044 214.248 425.044 M214.248 420.414 Q221.511 420.414 225.33 426.173 Q229.179 431.902 229.179 442.839 Q229.179 453.748 225.33 459.506 Q221.511 465.235 214.248 465.235 Q206.985 465.235 203.137 459.506 Q199.318 453.748 199.318 442.839 Q199.318 431.902 203.137 426.173 Q206.985 420.414 214.248 420.414 Z" fill="#000000" fill-rule="nonzero" fill-opacity="1" /><path clip-path="url(#clip340)" d="M139.567 233.464 Q135.632 233.464 133.317 236.155 Q131.031 238.846 131.031 243.533 Q131.031 248.192 133.317 250.912 Q135.632 253.603 139.567 253.603 Q143.502 253.603 145.788 250.912 Q148.103 248.192 148.103 243.533 Q148.103 238.846 145.788 236.155 Q143.502 233.464 139.567 233.464 M151.17 215.148 L151.17 220.472 Q148.971 219.431 146.714 218.881 Q144.486 218.331 142.287 218.331 Q136.5 218.331 133.433 222.237 Q130.394 226.143 129.96 234.043 Q131.667 231.525 134.243 230.194 Q136.818 228.834 139.914 228.834 Q146.424 228.834 150.186 232.799 Q153.976 236.734 153.976 243.533 Q153.976 250.188 150.041 254.21 Q146.106 258.232 139.567 258.232 Q132.073 258.232 128.108 252.503 Q124.144 246.745 124.144 235.837 Q124.144 225.594 129.005 219.517 Q133.867 213.412 142.055 213.412 Q144.254 213.412 146.482 213.846 Q148.739 214.28 151.17 215.148 Z" fill="#000000" fill-rule="nonzero" fill-opacity="1" /><path clip-path="url(#clip340)" d="M176.546 218.042 Q172.032 218.042 169.746 222.498 Q167.489 226.925 167.489 235.837 Q167.489 244.72 169.746 249.176 Q172.032 253.603 176.546 253.603 Q181.089 253.603 183.345 249.176 Q185.631 244.72 185.631 235.837 Q185.631 226.925 183.345 222.498 Q181.089 218.042 176.546 218.042 M176.546 213.412 Q183.808 213.412 187.628 219.17 Q191.476 224.899 191.476 235.837 Q191.476 246.745 187.628 252.503 Q183.808 258.232 176.546 258.232 Q169.283 258.232 165.435 252.503 Q161.615 246.745 161.615 235.837 Q161.615 224.899 165.435 219.17 Q169.283 213.412 176.546 213.412 Z" fill="#000000" fill-rule="nonzero" fill-opacity="1" /><path clip-path="url(#clip340)" d="M214.248 218.042 Q209.734 218.042 207.448 222.498 Q205.191 226.925 205.191 235.837 Q205.191 244.72 207.448 249.176 Q209.734 253.603 214.248 253.603 Q218.791 253.603 221.048 249.176 Q223.334 244.72 223.334 235.837 Q223.334 226.925 221.048 222.498 Q218.791 218.042 214.248 218.042 M214.248 213.412 Q221.511 213.412 225.33 219.17 Q229.179 224.899 229.179 235.837 Q229.179 246.745 225.33 252.503 Q221.511 258.232 214.248 258.232 Q206.985 258.232 203.137 252.503 Q199.318 246.745 199.318 235.837 Q199.318 224.899 203.137 219.17 Q206.985 213.412 214.248 213.412 Z" fill="#000000" fill-rule="nonzero" fill-opacity="1" /><path clip-path="url(#clip340)" d="M13.8922 1251.34 L13.8922 1241.11 L60.874 1216.21 L13.8922 1216.21 L13.8922 1208.84 L70.0522 1208.84 L70.0522 1219.07 L23.0703 1243.97 L70.0522 1243.97 L70.0522 1251.34 L13.8922 1251.34 Z" fill="#000000" fill-rule="nonzero" fill-opacity="1" /><path clip-path="url(#clip340)" d="M53.4261 1194.73 L27.9228 1194.73 L27.9228 1187.81 L53.1628 1187.81 Q59.1437 1187.81 62.1529 1185.48 Q65.1245 1183.14 65.1245 1178.48 Q65.1245 1172.87 61.551 1169.64 Q57.9776 1166.37 51.8086 1166.37 L27.9228 1166.37 L27.9228 1159.45 L70.0522 1159.45 L70.0522 1166.37 L63.5823 1166.37 Q67.4191 1168.89 69.2998 1172.24 Q71.143 1175.55 71.143 1179.95 Q71.143 1187.21 66.6291 1190.97 Q62.1153 1194.73 53.4261 1194.73 M26.9071 1177.31 L26.9071 1177.31 Z" fill="#000000" fill-rule="nonzero" fill-opacity="1" /><path clip-path="url(#clip340)" d="M36.0101 1112.39 Q31.3458 1109.79 29.1265 1106.18 Q26.9071 1102.57 26.9071 1097.68 Q26.9071 1091.1 31.5338 1087.53 Q36.1229 1083.95 44.6241 1083.95 L70.0522 1083.95 L70.0522 1090.91 L44.8497 1090.91 Q38.7936 1090.91 35.8596 1093.05 Q32.9256 1095.2 32.9256 1099.6 Q32.9256 1104.98 36.4991 1108.1 Q40.0726 1111.22 46.2415 1111.22 L70.0522 1111.22 L70.0522 1118.18 L44.8497 1118.18 Q38.756 1118.18 35.8596 1120.33 Q32.9256 1122.47 32.9256 1126.95 Q32.9256 1132.25 36.5367 1135.37 Q40.1102 1138.49 46.2415 1138.49 L70.0522 1138.49 L70.0522 1145.45 L27.9228 1145.45 L27.9228 1138.49 L34.4679 1138.49 Q30.5935 1136.12 28.7503 1132.81 Q26.9071 1129.5 26.9071 1124.95 Q26.9071 1120.36 29.2393 1117.17 Q31.5715 1113.93 36.0101 1112.39 Z" fill="#000000" fill-rule="nonzero" fill-opacity="1" /><path clip-path="url(#clip340)" d="M49.0251 1039.9 Q41.3891 1039.9 37.0633 1043.06 Q32.6999 1046.19 32.6999 1051.68 Q32.6999 1057.17 37.0633 1060.33 Q41.3891 1063.45 49.0251 1063.45 Q56.661 1063.45 61.0244 1060.33 Q65.3502 1057.17 65.3502 1051.68 Q65.3502 1046.19 61.0244 1043.06 Q56.661 1039.9 49.0251 1039.9 M34.3174 1063.45 Q30.5558 1061.27 28.7503 1057.96 Q26.9071 1054.61 26.9071 1049.98 Q26.9071 1042.31 33.0009 1037.53 Q39.0946 1032.72 49.0251 1032.72 Q58.9556 1032.72 65.0493 1037.53 Q71.143 1042.31 71.143 1049.98 Q71.143 1054.61 69.3375 1057.96 Q67.4943 1061.27 63.7327 1063.45 L70.0522 1063.45 L70.0522 1070.41 L11.5224 1070.41 L11.5224 1063.45 L34.3174 1063.45 Z" fill="#000000" fill-rule="nonzero" fill-opacity="1" /><path clip-path="url(#clip340)" d="M47.2571 985.211 L50.6425 985.211 L50.6425 1017.03 Q57.7895 1016.58 61.551 1012.75 Q65.275 1008.87 65.275 1001.99 Q65.275 998 64.297 994.276 Q63.319 990.515 61.363 986.828 L67.9081 986.828 Q69.4879 990.552 70.3155 994.464 Q71.143 998.376 71.143 1002.4 Q71.143 1012.48 65.275 1018.39 Q59.407 1024.26 49.4012 1024.26 Q39.057 1024.26 33.0009 1018.69 Q26.9071 1013.08 26.9071 1003.6 Q26.9071 995.104 32.399 990.176 Q37.8533 985.211 47.2571 985.211 M45.2259 992.132 Q39.546 992.207 36.1606 995.329 Q32.7752 998.414 32.7752 1003.53 Q32.7752 1009.32 36.0477 1012.82 Q39.3203 1016.28 45.2635 1016.81 L45.2259 992.132 Z" fill="#000000" fill-rule="nonzero" fill-opacity="1" /><path clip-path="url(#clip340)" d="M34.3926 949.438 Q33.7155 950.604 33.4146 951.996 Q33.0761 953.35 33.0761 955.005 Q33.0761 960.874 36.9129 964.033 Q40.712 967.155 47.859 967.155 L70.0522 967.155 L70.0522 974.114 L27.9228 974.114 L27.9228 967.155 L34.4679 967.155 Q30.6311 964.974 28.7879 961.475 Q26.9071 957.977 26.9071 952.974 Q26.9071 952.26 27.02 951.394 Q27.0952 950.529 27.2833 949.476 L34.3926 949.438 Z" fill="#000000" fill-rule="nonzero" fill-opacity="1" /><path clip-path="url(#clip340)" d="M32.7752 901.366 Q32.7752 906.933 37.1386 910.168 Q41.4643 913.403 49.0251 913.403 Q56.5858 913.403 60.9492 910.205 Q65.275 906.97 65.275 901.366 Q65.275 895.836 60.9116 892.601 Q56.5482 889.366 49.0251 889.366 Q41.5396 889.366 37.1762 892.601 Q32.7752 895.836 32.7752 901.366 M26.9071 901.366 Q26.9071 892.338 32.7752 887.185 Q38.6432 882.031 49.0251 882.031 Q59.3693 882.031 65.275 887.185 Q71.143 892.338 71.143 901.366 Q71.143 910.431 65.275 915.584 Q59.3693 920.7 49.0251 920.7 Q38.6432 920.7 32.7752 915.584 Q26.9071 910.431 26.9071 901.366 Z" fill="#000000" fill-rule="nonzero" fill-opacity="1" /><path clip-path="url(#clip340)" d="M11.5224 849.231 L17.2776 849.231 L17.2776 855.851 Q17.2776 859.575 18.7822 861.042 Q20.2868 862.471 24.1988 862.471 L27.9228 862.471 L27.9228 851.074 L33.3018 851.074 L33.3018 862.471 L70.0522 862.471 L70.0522 869.43 L33.3018 869.43 L33.3018 876.05 L27.9228 876.05 L27.9228 869.43 L24.9887 869.43 Q17.9546 869.43 14.7573 866.158 Q11.5224 862.885 11.5224 855.776 L11.5224 849.231 Z" fill="#000000" fill-rule="nonzero" fill-opacity="1" /><path clip-path="url(#clip340)" d="M32.7752 802.625 Q32.7752 808.192 37.1386 811.427 Q41.4643 814.662 49.0251 814.662 Q56.5858 814.662 60.9492 811.465 Q65.275 808.23 65.275 802.625 Q65.275 797.095 60.9116 793.861 Q56.5482 790.626 49.0251 790.626 Q41.5396 790.626 37.1762 793.861 Q32.7752 797.095 32.7752 802.625 M26.9071 802.625 Q26.9071 793.597 32.7752 788.444 Q38.6432 783.291 49.0251 783.291 Q59.3693 783.291 65.275 788.444 Q71.143 793.597 71.143 802.625 Q71.143 811.69 65.275 816.844 Q59.3693 821.959 49.0251 821.959 Q38.6432 821.959 32.7752 816.844 Q26.9071 811.69 26.9071 802.625 Z" fill="#000000" fill-rule="nonzero" fill-opacity="1" /><path clip-path="url(#clip340)" d="M29.5402 741.5 L36.0101 741.5 Q34.3926 744.434 33.6027 747.405 Q32.7752 750.339 32.7752 753.349 Q32.7752 760.082 37.0633 763.806 Q41.3139 767.53 49.0251 767.53 Q56.7363 767.53 61.0244 763.806 Q65.275 760.082 65.275 753.349 Q65.275 750.339 64.4851 747.405 Q63.6575 744.434 62.04 741.5 L68.4347 741.5 Q69.7888 744.396 70.4659 747.518 Q71.143 750.603 71.143 754.101 Q71.143 763.618 65.1621 769.222 Q59.1813 774.827 49.0251 774.827 Q38.7184 774.827 32.8128 769.185 Q26.9071 763.505 26.9071 753.65 Q26.9071 750.452 27.5842 747.405 Q28.2237 744.358 29.5402 741.5 Z" fill="#000000" fill-rule="nonzero" fill-opacity="1" /><path clip-path="url(#clip340)" d="M29.5402 699.145 L36.0101 699.145 Q34.3926 702.079 33.6027 705.05 Q32.7752 707.984 32.7752 710.993 Q32.7752 717.727 37.0633 721.451 Q41.3139 725.175 49.0251 725.175 Q56.7363 725.175 61.0244 721.451 Q65.275 717.727 65.275 710.993 Q65.275 707.984 64.4851 705.05 Q63.6575 702.079 62.04 699.145 L68.4347 699.145 Q69.7888 702.041 70.4659 705.163 Q71.143 708.248 71.143 711.746 Q71.143 721.263 65.1621 726.867 Q59.1813 732.472 49.0251 732.472 Q38.7184 732.472 32.8128 726.83 Q26.9071 721.15 26.9071 711.294 Q26.9071 708.097 27.5842 705.05 Q28.2237 702.003 29.5402 699.145 Z" fill="#000000" fill-rule="nonzero" fill-opacity="1" /><path clip-path="url(#clip340)" d="M53.4261 687.822 L27.9228 687.822 L27.9228 680.901 L53.1628 680.901 Q59.1437 680.901 62.1529 678.569 Q65.1245 676.237 65.1245 671.572 Q65.1245 665.968 61.551 662.733 Q57.9776 659.46 51.8086 659.46 L27.9228 659.46 L27.9228 652.539 L70.0522 652.539 L70.0522 659.46 L63.5823 659.46 Q67.4191 661.98 69.2998 665.328 Q71.143 668.638 71.143 673.039 Q71.143 680.299 66.6291 684.061 Q62.1153 687.822 53.4261 687.822 M26.9071 670.406 L26.9071 670.406 Z" fill="#000000" fill-rule="nonzero" fill-opacity="1" /><path clip-path="url(#clip340)" d="M34.3926 613.87 Q33.7155 615.036 33.4146 616.428 Q33.0761 617.782 33.0761 619.437 Q33.0761 625.305 36.9129 628.465 Q40.712 631.587 47.859 631.587 L70.0522 631.587 L70.0522 638.546 L27.9228 638.546 L27.9228 631.587 L34.4679 631.587 Q30.6311 629.405 28.7879 625.907 Q26.9071 622.409 26.9071 617.406 Q26.9071 616.691 27.02 615.826 Q27.0952 614.961 27.2833 613.908 L34.3926 613.87 Z" fill="#000000" fill-rule="nonzero" fill-opacity="1" /><path clip-path="url(#clip340)" d="M34.3926 583.552 Q33.7155 584.718 33.4146 586.11 Q33.0761 587.464 33.0761 589.119 Q33.0761 594.987 36.9129 598.147 Q40.712 601.269 47.859 601.269 L70.0522 601.269 L70.0522 608.228 L27.9228 608.228 L27.9228 601.269 L34.4679 601.269 Q30.6311 599.087 28.7879 595.589 Q26.9071 592.091 26.9071 587.088 Q26.9071 586.373 27.02 585.508 Q27.0952 584.643 27.2833 583.59 L34.3926 583.552 Z" fill="#000000" fill-rule="nonzero" fill-opacity="1" /><path clip-path="url(#clip340)" d="M47.2571 541.949 L50.6425 541.949 L50.6425 573.772 Q57.7895 573.321 61.551 569.484 Q65.275 565.609 65.275 558.726 Q65.275 554.739 64.297 551.015 Q63.319 547.253 61.363 543.567 L67.9081 543.567 Q69.4879 547.291 70.3155 551.203 Q71.143 555.115 71.143 559.14 Q71.143 569.221 65.275 575.126 Q59.407 580.994 49.4012 580.994 Q39.057 580.994 33.0009 575.427 Q26.9071 569.822 26.9071 560.343 Q26.9071 551.842 32.399 546.915 Q37.8533 541.949 47.2571 541.949 M45.2259 548.871 Q39.546 548.946 36.1606 552.068 Q32.7752 555.152 32.7752 560.268 Q32.7752 566.061 36.0477 569.559 Q39.3203 573.02 45.2635 573.546 L45.2259 548.871 Z" fill="#000000" fill-rule="nonzero" fill-opacity="1" /><path clip-path="url(#clip340)" d="M44.6241 495.569 L70.0522 495.569 L70.0522 502.491 L44.8497 502.491 Q38.8689 502.491 35.8972 504.823 Q32.9256 507.155 32.9256 511.819 Q32.9256 517.424 36.4991 520.659 Q40.0726 523.894 46.2415 523.894 L70.0522 523.894 L70.0522 530.853 L27.9228 530.853 L27.9228 523.894 L34.4679 523.894 Q30.6687 521.411 28.7879 518.063 Q26.9071 514.678 26.9071 510.277 Q26.9071 503.017 31.421 499.293 Q35.8972 495.569 44.6241 495.569 Z" fill="#000000" fill-rule="nonzero" fill-opacity="1" /><path clip-path="url(#clip340)" d="M29.5402 451.446 L36.0101 451.446 Q34.3926 454.38 33.6027 457.352 Q32.7752 460.286 32.7752 463.295 Q32.7752 470.028 37.0633 473.752 Q41.3139 477.476 49.0251 477.476 Q56.7363 477.476 61.0244 473.752 Q65.275 470.028 65.275 463.295 Q65.275 460.286 64.4851 457.352 Q63.6575 454.38 62.04 451.446 L68.4347 451.446 Q69.7888 454.343 70.4659 457.465 Q71.143 460.549 71.143 464.047 Q71.143 473.564 65.1621 479.169 Q59.1813 484.774 49.0251 484.774 Q38.7184 484.774 32.8128 479.131 Q26.9071 473.451 26.9071 463.596 Q26.9071 460.399 27.5842 457.352 Q28.2237 454.305 29.5402 451.446 Z" fill="#000000" fill-rule="nonzero" fill-opacity="1" /><path clip-path="url(#clip340)" d="M47.2571 403.374 L50.6425 403.374 L50.6425 435.196 Q57.7895 434.745 61.551 430.908 Q65.275 427.034 65.275 420.15 Q65.275 416.163 64.297 412.439 Q63.319 408.677 61.363 404.991 L67.9081 404.991 Q69.4879 408.715 70.3155 412.627 Q71.143 416.539 71.143 420.564 Q71.143 430.645 65.275 436.551 Q59.407 442.419 49.4012 442.419 Q39.057 442.419 33.0009 436.851 Q26.9071 431.247 26.9071 421.768 Q26.9071 413.266 32.399 408.339 Q37.8533 403.374 47.2571 403.374 M45.2259 410.295 Q39.546 410.37 36.1606 413.492 Q32.7752 416.577 32.7752 421.692 Q32.7752 427.485 36.0477 430.983 Q39.3203 434.444 45.2635 434.971 L45.2259 410.295 Z" fill="#000000" fill-rule="nonzero" fill-opacity="1" /><path clip-path="url(#clip340)" d="M29.1641 365.156 L35.7092 365.156 Q34.2045 368.09 33.4522 371.25 Q32.6999 374.41 32.6999 377.795 Q32.6999 382.948 34.2798 385.544 Q35.8596 388.102 39.0193 388.102 Q41.4267 388.102 42.8185 386.259 Q44.1727 384.415 45.414 378.848 L45.9406 376.478 Q47.5204 369.106 50.4168 366.021 Q53.2756 362.899 58.429 362.899 Q64.297 362.899 67.72 367.564 Q71.143 372.19 71.143 380.315 Q71.143 383.701 70.4659 387.387 Q69.8265 391.036 68.5099 395.098 L61.363 395.098 Q63.3566 391.261 64.3722 387.537 Q65.3502 383.814 65.3502 380.165 Q65.3502 375.275 63.6951 372.642 Q62.0024 370.009 58.9556 370.009 Q56.1344 370.009 54.6298 371.927 Q53.1252 373.808 51.7334 380.24 L51.1692 382.647 Q49.815 389.08 47.0314 391.938 Q44.2103 394.797 39.3203 394.797 Q33.377 394.797 30.1421 390.584 Q26.9071 386.371 26.9071 378.623 Q26.9071 374.786 27.4714 371.4 Q28.0356 368.015 29.1641 365.156 Z" fill="#000000" fill-rule="nonzero" fill-opacity="1" /><path clip-path="url(#clip340)" d="M851.431 53.0558 L851.431 79.9625 L867.368 79.9625 Q875.386 79.9625 879.223 76.6668 Q883.109 73.3219 883.109 66.4846 Q883.109 59.5981 879.223 56.3515 Q875.386 53.0558 867.368 53.0558 L851.431 53.0558 M851.431 22.8535 L851.431 44.9888 L866.138 44.9888 Q873.418 44.9888 876.96 42.2833 Q880.551 39.5287 880.551 33.9211 Q880.551 28.3627 876.96 25.6081 Q873.418 22.8535 866.138 22.8535 L851.431 22.8535 M841.494 14.688 L866.876 14.688 Q878.239 14.688 884.388 19.4102 Q890.536 24.1324 890.536 32.8389 Q890.536 39.5779 887.388 43.5623 Q884.24 47.5466 878.141 48.5304 Q885.47 50.1045 889.503 55.1218 Q893.586 60.09 893.586 67.5668 Q893.586 77.4047 886.896 82.7663 Q880.206 88.128 867.86 88.128 L841.494 88.128 L841.494 14.688 Z" fill="#000000" fill-rule="nonzero" fill-opacity="1" /><path clip-path="url(#clip340)" d="M935.25 60.4343 Q924.28 60.4343 920.05 62.9429 Q915.82 65.4516 915.82 71.5019 Q915.82 76.3225 918.968 79.1755 Q922.165 81.9793 927.625 81.9793 Q935.151 81.9793 939.677 76.6668 Q944.251 71.3052 944.251 62.4511 L944.251 60.4343 L935.25 60.4343 M953.302 56.6959 L953.302 88.128 L944.251 88.128 L944.251 79.7658 Q941.152 84.7831 936.529 87.1934 Q931.905 89.5545 925.215 89.5545 Q916.754 89.5545 911.737 84.8323 Q906.769 80.0609 906.769 72.0922 Q906.769 62.7954 912.967 58.0732 Q919.214 53.351 931.56 53.351 L944.251 53.351 L944.251 52.4656 Q944.251 46.2185 940.119 42.8244 Q936.037 39.3812 928.609 39.3812 Q923.887 39.3812 919.411 40.5125 Q914.934 41.6439 910.802 43.9066 L910.802 35.5444 Q915.771 33.626 920.444 32.6914 Q925.117 31.7076 929.544 31.7076 Q941.497 31.7076 947.399 37.9055 Q953.302 44.1034 953.302 56.6959 Z" fill="#000000" fill-rule="nonzero" fill-opacity="1" /><path clip-path="url(#clip340)" d="M1003.87 41.4963 Q1002.34 40.6109 1000.52 40.2174 Q998.753 39.7747 996.589 39.7747 Q988.915 39.7747 984.783 44.792 Q980.701 49.7602 980.701 59.1062 L980.701 88.128 L971.601 88.128 L971.601 33.0357 L980.701 33.0357 L980.701 41.5947 Q983.554 36.5774 988.128 34.1671 Q992.703 31.7076 999.245 31.7076 Q1000.18 31.7076 1001.31 31.8552 Q1002.44 31.9535 1003.82 32.1995 L1003.87 41.4963 Z" fill="#000000" fill-rule="nonzero" fill-opacity="1" /><path clip-path="url(#clip340)" d="M1100.77 20.3448 L1100.77 30.8222 Q1095.76 26.1492 1090.05 23.8373 Q1084.39 21.5253 1078 21.5253 Q1065.41 21.5253 1058.72 29.2481 Q1052.03 36.9217 1052.03 51.4818 Q1052.03 65.9927 1058.72 73.7155 Q1065.41 81.389 1078 81.389 Q1084.39 81.389 1090.05 79.0771 Q1095.76 76.7652 1100.77 72.0922 L1100.77 82.4712 Q1095.56 86.0128 1089.7 87.7837 Q1083.9 89.5545 1077.41 89.5545 Q1060.73 89.5545 1051.14 79.3723 Q1041.55 69.1408 1041.55 51.4818 Q1041.55 33.7735 1051.14 23.5913 Q1060.73 13.3599 1077.41 13.3599 Q1084 13.3599 1089.8 15.1307 Q1095.66 16.8523 1100.77 20.3448 Z" fill="#000000" fill-rule="nonzero" fill-opacity="1" /><path clip-path="url(#clip340)" d="M1161.52 54.8759 L1161.52 88.128 L1152.47 88.128 L1152.47 55.171 Q1152.47 47.3499 1149.42 43.4639 Q1146.37 39.5779 1140.27 39.5779 Q1132.94 39.5779 1128.71 44.2509 Q1124.48 48.9239 1124.48 56.991 L1124.48 88.128 L1115.38 88.128 L1115.38 11.5891 L1124.48 11.5891 L1124.48 41.5947 Q1127.73 36.6265 1132.11 34.1671 Q1136.53 31.7076 1142.29 31.7076 Q1151.78 31.7076 1156.65 37.6103 Q1161.52 43.4639 1161.52 54.8759 Z" fill="#000000" fill-rule="nonzero" fill-opacity="1" /><path clip-path="url(#clip340)" d="M1204.61 60.4343 Q1193.64 60.4343 1189.41 62.9429 Q1185.18 65.4516 1185.18 71.5019 Q1185.18 76.3225 1188.33 79.1755 Q1191.53 81.9793 1196.99 81.9793 Q1204.51 81.9793 1209.04 76.6668 Q1213.61 71.3052 1213.61 62.4511 L1213.61 60.4343 L1204.61 60.4343 M1222.66 56.6959 L1222.66 88.128 L1213.61 88.128 L1213.61 79.7658 Q1210.51 84.7831 1205.89 87.1934 Q1201.27 89.5545 1194.58 89.5545 Q1186.12 89.5545 1181.1 84.8323 Q1176.13 80.0609 1176.13 72.0922 Q1176.13 62.7954 1182.33 58.0732 Q1188.58 53.351 1200.92 53.351 L1213.61 53.351 L1213.61 52.4656 Q1213.61 46.2185 1209.48 42.8244 Q1205.4 39.3812 1197.97 39.3812 Q1193.25 39.3812 1188.77 40.5125 Q1184.3 41.6439 1180.16 43.9066 L1180.16 35.5444 Q1185.13 33.626 1189.81 32.6914 Q1194.48 31.7076 1198.91 31.7076 Q1210.86 31.7076 1216.76 37.9055 Q1222.66 44.1034 1222.66 56.6959 Z" fill="#000000" fill-rule="nonzero" fill-opacity="1" /><path clip-path="url(#clip340)" d="M1273.23 41.4963 Q1271.71 40.6109 1269.89 40.2174 Q1268.12 39.7747 1265.95 39.7747 Q1258.28 39.7747 1254.15 44.792 Q1250.06 49.7602 1250.06 59.1062 L1250.06 88.128 L1240.96 88.128 L1240.96 33.0357 L1250.06 33.0357 L1250.06 41.5947 Q1252.92 36.5774 1257.49 34.1671 Q1262.06 31.7076 1268.61 31.7076 Q1269.54 31.7076 1270.67 31.8552 Q1271.8 31.9535 1273.18 32.1995 L1273.23 41.4963 Z" fill="#000000" fill-rule="nonzero" fill-opacity="1" /><path clip-path="url(#clip340)" d="M1291.68 17.3934 L1291.68 33.0357 L1310.32 33.0357 L1310.32 40.0698 L1291.68 40.0698 L1291.68 69.9771 Q1291.68 76.716 1293.5 78.6344 Q1295.37 80.5528 1301.02 80.5528 L1310.32 80.5528 L1310.32 88.128 L1301.02 88.128 Q1290.55 88.128 1286.56 84.242 Q1282.58 80.3069 1282.58 69.9771 L1282.58 40.0698 L1275.94 40.0698 L1275.94 33.0357 L1282.58 33.0357 L1282.58 17.3934 L1291.68 17.3934 Z" fill="#000000" fill-rule="nonzero" fill-opacity="1" /><path clip-path="url(#clip340)" d="M1354.64 14.688 L1401.07 14.688 L1401.07 23.0502 L1364.58 23.0502 L1364.58 44.792 L1399.55 44.792 L1399.55 53.1542 L1364.58 53.1542 L1364.58 79.7658 L1401.96 79.7658 L1401.96 88.128 L1354.64 88.128 L1354.64 14.688 Z" fill="#000000" fill-rule="nonzero" fill-opacity="1" /><path clip-path="url(#clip340)" d="M1463.69 33.0357 L1443.77 59.844 L1464.73 88.128 L1454.05 88.128 L1438.02 66.4846 L1421.98 88.128 L1411.31 88.128 L1432.7 59.3029 L1413.13 33.0357 L1423.8 33.0357 L1438.41 52.6623 L1453.02 33.0357 L1463.69 33.0357 Z" fill="#000000" fill-rule="nonzero" fill-opacity="1" /><path clip-path="url(#clip340)" d="M1502.55 60.4343 Q1491.58 60.4343 1487.35 62.9429 Q1483.12 65.4516 1483.12 71.5019 Q1483.12 76.3225 1486.27 79.1755 Q1489.47 81.9793 1494.93 81.9793 Q1502.45 81.9793 1506.98 76.6668 Q1511.55 71.3052 1511.55 62.4511 L1511.55 60.4343 L1502.55 60.4343 M1520.61 56.6959 L1520.61 88.128 L1511.55 88.128 L1511.55 79.7658 Q1508.46 84.7831 1503.83 87.1934 Q1499.21 89.5545 1492.52 89.5545 Q1484.06 89.5545 1479.04 84.8323 Q1474.07 80.0609 1474.07 72.0922 Q1474.07 62.7954 1480.27 58.0732 Q1486.52 53.351 1498.86 53.351 L1511.55 53.351 L1511.55 52.4656 Q1511.55 46.2185 1507.42 42.8244 Q1503.34 39.3812 1495.91 39.3812 Q1491.19 39.3812 1486.71 40.5125 Q1482.24 41.6439 1478.11 43.9066 L1478.11 35.5444 Q1483.07 33.626 1487.75 32.6914 Q1492.42 31.7076 1496.85 31.7076 Q1508.8 31.7076 1514.7 37.9055 Q1520.61 44.1034 1520.61 56.6959 Z" fill="#000000" fill-rule="nonzero" fill-opacity="1" /><path clip-path="url(#clip340)" d="M1582.14 43.6115 Q1585.54 37.512 1590.26 34.6098 Q1594.98 31.7076 1601.37 31.7076 Q1609.98 31.7076 1614.66 37.7579 Q1619.33 43.759 1619.33 54.8759 L1619.33 88.128 L1610.23 88.128 L1610.23 55.171 Q1610.23 47.2515 1607.42 43.4147 Q1604.62 39.5779 1598.87 39.5779 Q1591.83 39.5779 1587.75 44.2509 Q1583.67 48.9239 1583.67 56.991 L1583.67 88.128 L1574.57 88.128 L1574.57 55.171 Q1574.57 47.2023 1571.76 43.4147 Q1568.96 39.5779 1563.11 39.5779 Q1556.17 39.5779 1552.09 44.3001 Q1548 48.9731 1548 56.991 L1548 88.128 L1538.9 88.128 L1538.9 33.0357 L1548 33.0357 L1548 41.5947 Q1551.1 36.5282 1555.43 34.1179 Q1559.76 31.7076 1565.71 31.7076 Q1571.71 31.7076 1575.89 34.7573 Q1580.12 37.8071 1582.14 43.6115 Z" fill="#000000" fill-rule="nonzero" fill-opacity="1" /><path clip-path="url(#clip340)" d="M1646.14 79.8642 L1646.14 109.083 L1637.04 109.083 L1637.04 33.0357 L1646.14 33.0357 L1646.14 41.3979 Q1648.99 36.479 1653.32 34.1179 Q1657.7 31.7076 1663.75 31.7076 Q1673.78 31.7076 1680.03 39.6763 Q1686.32 47.645 1686.32 60.631 Q1686.32 73.6171 1680.03 81.5858 Q1673.78 89.5545 1663.75 89.5545 Q1657.7 89.5545 1653.32 87.1934 Q1648.99 84.7831 1646.14 79.8642 M1676.93 60.631 Q1676.93 50.6456 1672.8 44.9888 Q1668.71 39.2828 1661.53 39.2828 Q1654.35 39.2828 1650.22 44.9888 Q1646.14 50.6456 1646.14 60.631 Q1646.14 70.6165 1650.22 76.3225 Q1654.35 81.9793 1661.53 81.9793 Q1668.71 81.9793 1672.8 76.3225 Q1676.93 70.6165 1676.93 60.631 Z" fill="#000000" fill-rule="nonzero" fill-opacity="1" /><path clip-path="url(#clip340)" d="M1701.33 11.5891 L1710.38 11.5891 L1710.38 88.128 L1701.33 88.128 L1701.33 11.5891 Z" fill="#000000" fill-rule="nonzero" fill-opacity="1" /><path clip-path="url(#clip340)" d="M1776.44 58.3191 L1776.44 62.7462 L1734.83 62.7462 Q1735.42 72.0922 1740.43 77.0112 Q1745.5 81.8809 1754.5 81.8809 Q1759.72 81.8809 1764.59 80.602 Q1769.5 79.3231 1774.32 76.7652 L1774.32 85.3242 Q1769.46 87.3902 1764.34 88.4723 Q1759.22 89.5545 1753.96 89.5545 Q1740.78 89.5545 1733.05 81.8809 Q1725.38 74.2074 1725.38 61.1229 Q1725.38 47.5958 1732.66 39.6763 Q1739.99 31.7076 1752.39 31.7076 Q1763.5 31.7076 1769.95 38.8893 Q1776.44 46.0217 1776.44 58.3191 M1767.39 55.6629 Q1767.29 48.2353 1763.21 43.8082 Q1759.17 39.3812 1752.48 39.3812 Q1744.91 39.3812 1740.33 43.6606 Q1735.81 47.9401 1735.12 55.7121 L1767.39 55.6629 Z" fill="#000000" fill-rule="nonzero" fill-opacity="1" /><path clip-path="url(#clip342)" d="M1412.19 136.432 L1412.19 1477.81 L2237.94 1477.81 L2237.94 136.432 L1412.19 136.432 L1412.19 136.432  Z" fill="#009af9" fill-rule="evenodd" fill-opacity="1"/>
<polyline clip-path="url(#clip342)" style="stroke:#000000; stroke-linecap:round; stroke-linejoin:round; stroke-width:4; stroke-opacity:1; fill:none" points="1412.19,136.432 1412.19,1477.81 2237.94,1477.81 2237.94,136.432 1412.19,136.432 "/>
<path clip-path="url(#clip342)" d="M379.999 231.653 L379.999 1477.81 L1205.75 1477.81 L1205.75 231.653 L379.999 231.653 L379.999 231.653  Z" fill="#009af9" fill-rule="evenodd" fill-opacity="1"/>
<polyline clip-path="url(#clip342)" style="stroke:#000000; stroke-linecap:round; stroke-linejoin:round; stroke-width:4; stroke-opacity:1; fill:none" points="379.999,231.653 379.999,1477.81 1205.75,1477.81 1205.75,231.653 379.999,231.653 "/>
<circle clip-path="url(#clip342)" style="fill:#009af9; stroke:none; fill-opacity:0" cx="1825.06" cy="136.432" r="2"/>
<circle clip-path="url(#clip342)" style="fill:#009af9; stroke:none; fill-opacity:0" cx="792.874" cy="231.653" r="2"/>
</svg>
