<?xml version="1.0" encoding="utf-8"?>
<svg xmlns="http://www.w3.org/2000/svg" xmlns:xlink="http://www.w3.org/1999/xlink" width="800" height="600" viewBox="0 0 3200 2400">
<defs>
  <clipPath id="clip000">
    <rect x="0" y="0" width="3200" height="2400"/>
  </clipPath>
</defs>
<path clip-path="url(#clip000)" d="M0 2400 L3200 2400 L3200 0 L0 0  Z" fill="#ffffff" fill-rule="evenodd" fill-opacity="1"/>
<defs>
  <clipPath id="clip001">
    <rect x="640" y="0" width="2241" height="2241"/>
  </clipPath>
</defs>
<path clip-path="url(#clip000)" d="M260.928 2185.48 L3152.76 2185.48 L3152.76 47.2441 L260.928 47.2441  Z" fill="#ffffff" fill-rule="evenodd" fill-opacity="1"/>
<defs>
  <clipPath id="clip002">
    <rect x="260" y="47" width="2893" height="2139"/>
  </clipPath>
</defs>
<polyline clip-path="url(#clip002)" style="stroke:#000000; stroke-linecap:round; stroke-linejoin:round; stroke-width:2; stroke-opacity:0.1; fill:none" points="342.772,2185.48 342.772,47.2441 "/>
<polyline clip-path="url(#clip002)" style="stroke:#000000; stroke-linecap:round; stroke-linejoin:round; stroke-width:2; stroke-opacity:0.1; fill:none" points="1024.81,2185.48 1024.81,47.2441 "/>
<polyline clip-path="url(#clip002)" style="stroke:#000000; stroke-linecap:round; stroke-linejoin:round; stroke-width:2; stroke-opacity:0.1; fill:none" points="1706.84,2185.48 1706.84,47.2441 "/>
<polyline clip-path="url(#clip002)" style="stroke:#000000; stroke-linecap:round; stroke-linejoin:round; stroke-width:2; stroke-opacity:0.1; fill:none" points="2388.88,2185.48 2388.88,47.2441 "/>
<polyline clip-path="url(#clip002)" style="stroke:#000000; stroke-linecap:round; stroke-linejoin:round; stroke-width:2; stroke-opacity:0.1; fill:none" points="3070.91,2185.48 3070.91,47.2441 "/>
<polyline clip-path="url(#clip002)" style="stroke:#000000; stroke-linecap:round; stroke-linejoin:round; stroke-width:2; stroke-opacity:0.1; fill:none" points="342.772,2185.48 342.772,47.2441 "/>
<polyline clip-path="url(#clip002)" style="stroke:#000000; stroke-linecap:round; stroke-linejoin:round; stroke-width:2; stroke-opacity:0.1; fill:none" points="1024.81,2185.48 1024.81,47.2441 "/>
<polyline clip-path="url(#clip002)" style="stroke:#000000; stroke-linecap:round; stroke-linejoin:round; stroke-width:2; stroke-opacity:0.1; fill:none" points="1706.84,2185.48 1706.84,47.2441 "/>
<polyline clip-path="url(#clip002)" style="stroke:#000000; stroke-linecap:round; stroke-linejoin:round; stroke-width:2; stroke-opacity:0.1; fill:none" points="2388.88,2185.48 2388.88,47.2441 "/>
<polyline clip-path="url(#clip002)" style="stroke:#000000; stroke-linecap:round; stroke-linejoin:round; stroke-width:2; stroke-opacity:0.1; fill:none" points="3070.91,2185.48 3070.91,47.2441 "/>
<polyline clip-path="url(#clip000)" style="stroke:#000000; stroke-linecap:round; stroke-linejoin:round; stroke-width:4; stroke-opacity:1; fill:none" points="260.928,2185.48 3152.76,2185.48 "/>
<polyline clip-path="url(#clip000)" style="stroke:#000000; stroke-linecap:round; stroke-linejoin:round; stroke-width:4; stroke-opacity:1; fill:none" points="260.928,47.2441 3152.76,47.2441 "/>
<polyline clip-path="url(#clip000)" style="stroke:#000000; stroke-linecap:round; stroke-linejoin:round; stroke-width:4; stroke-opacity:1; fill:none" points="342.772,2185.48 342.772,2166.58 "/>
<polyline clip-path="url(#clip000)" style="stroke:#000000; stroke-linecap:round; stroke-linejoin:round; stroke-width:4; stroke-opacity:1; fill:none" points="1024.81,2185.48 1024.81,2166.58 "/>
<polyline clip-path="url(#clip000)" style="stroke:#000000; stroke-linecap:round; stroke-linejoin:round; stroke-width:4; stroke-opacity:1; fill:none" points="1706.84,2185.48 1706.84,2166.58 "/>
<polyline clip-path="url(#clip000)" style="stroke:#000000; stroke-linecap:round; stroke-linejoin:round; stroke-width:4; stroke-opacity:1; fill:none" points="2388.88,2185.48 2388.88,2166.58 "/>
<polyline clip-path="url(#clip000)" style="stroke:#000000; stroke-linecap:round; stroke-linejoin:round; stroke-width:4; stroke-opacity:1; fill:none" points="3070.91,2185.48 3070.91,2166.58 "/>
<polyline clip-path="url(#clip000)" style="stroke:#000000; stroke-linecap:round; stroke-linejoin:round; stroke-width:4; stroke-opacity:1; fill:none" points="342.772,47.2441 342.772,66.1417 "/>
<polyline clip-path="url(#clip000)" style="stroke:#000000; stroke-linecap:round; stroke-linejoin:round; stroke-width:4; stroke-opacity:1; fill:none" points="1024.81,47.2441 1024.81,66.1417 "/>
<polyline clip-path="url(#clip000)" style="stroke:#000000; stroke-linecap:round; stroke-linejoin:round; stroke-width:4; stroke-opacity:1; fill:none" points="1706.84,47.2441 1706.84,66.1417 "/>
<polyline clip-path="url(#clip000)" style="stroke:#000000; stroke-linecap:round; stroke-linejoin:round; stroke-width:4; stroke-opacity:1; fill:none" points="2388.88,47.2441 2388.88,66.1417 "/>
<polyline clip-path="url(#clip000)" style="stroke:#000000; stroke-linecap:round; stroke-linejoin:round; stroke-width:4; stroke-opacity:1; fill:none" points="3070.91,47.2441 3070.91,66.1417 "/>
<path clip-path="url(#clip000)" d="M330.749 2260.16 L340.298 2260.16 L340.298 2227.2 L329.91 2229.29 L329.91 2223.96 L340.24 2221.88 L346.085 2221.88 L346.085 2260.16 L355.634 2260.16 L355.634 2265.08 L330.749 2265.08 L330.749 2260.16 Z" fill="#000000" fill-rule="nonzero" fill-opacity="1" /><path clip-path="url(#clip000)" d="M1018.12 2260.16 L1038.52 2260.16 L1038.52 2265.08 L1011.09 2265.08 L1011.09 2260.16 Q1014.42 2256.72 1020.15 2250.93 Q1025.91 2245.11 1027.38 2243.44 Q1030.19 2240.28 1031.29 2238.11 Q1032.42 2235.91 1032.42 2233.8 Q1032.42 2230.36 1029.99 2228.19 Q1027.58 2226.02 1023.71 2226.02 Q1020.96 2226.02 1017.89 2226.97 Q1014.85 2227.93 1011.38 2229.87 L1011.38 2223.96 Q1014.91 2222.55 1017.98 2221.82 Q1021.05 2221.1 1023.59 2221.1 Q1030.3 2221.1 1034.3 2224.46 Q1038.29 2227.81 1038.29 2233.42 Q1038.29 2236.09 1037.28 2238.49 Q1036.29 2240.86 1033.66 2244.1 Q1032.94 2244.94 1029.06 2248.96 Q1025.18 2252.96 1018.12 2260.16 Z" fill="#000000" fill-rule="nonzero" fill-opacity="1" /><path clip-path="url(#clip000)" d="M1712.15 2241.79 Q1716.35 2242.68 1718.69 2245.52 Q1721.06 2248.36 1721.06 2252.52 Q1721.06 2258.92 1716.67 2262.42 Q1712.27 2265.92 1704.17 2265.92 Q1701.45 2265.92 1698.55 2265.37 Q1695.69 2264.85 1692.62 2263.78 L1692.62 2258.14 Q1695.05 2259.55 1697.94 2260.28 Q1700.84 2261 1703.99 2261 Q1709.49 2261 1712.35 2258.83 Q1715.25 2256.66 1715.25 2252.52 Q1715.25 2248.7 1712.56 2246.56 Q1709.89 2244.39 1705.12 2244.39 L1700.09 2244.39 L1700.09 2239.59 L1705.35 2239.59 Q1709.66 2239.59 1711.95 2237.88 Q1714.23 2236.14 1714.23 2232.9 Q1714.23 2229.58 1711.86 2227.81 Q1709.52 2226.02 1705.12 2226.02 Q1702.72 2226.02 1699.97 2226.54 Q1697.22 2227.06 1693.92 2228.16 L1693.92 2222.95 Q1697.25 2222.02 1700.14 2221.56 Q1703.07 2221.1 1705.64 2221.1 Q1712.3 2221.1 1716.17 2224.14 Q1720.05 2227.15 1720.05 2232.3 Q1720.05 2235.88 1718 2238.37 Q1715.94 2240.83 1712.15 2241.79 Z" fill="#000000" fill-rule="nonzero" fill-opacity="1" /><path clip-path="url(#clip000)" d="M2392.64 2226.97 L2377.88 2250.03 L2392.64 2250.03 L2392.64 2226.97 M2391.1 2221.88 L2398.45 2221.88 L2398.45 2250.03 L2404.62 2250.03 L2404.62 2254.89 L2398.45 2254.89 L2398.45 2265.08 L2392.64 2265.08 L2392.64 2254.89 L2373.14 2254.89 L2373.14 2249.25 L2391.1 2221.88 Z" fill="#000000" fill-rule="nonzero" fill-opacity="1" /><path clip-path="url(#clip000)" d="M3058.76 2221.88 L3081.7 2221.88 L3081.7 2226.8 L3064.11 2226.8 L3064.11 2237.39 Q3065.39 2236.95 3066.66 2236.75 Q3067.93 2236.52 3069.2 2236.52 Q3076.44 2236.52 3080.66 2240.49 Q3084.89 2244.45 3084.89 2251.22 Q3084.89 2258.19 3080.55 2262.07 Q3076.21 2265.92 3068.31 2265.92 Q3065.59 2265.92 3062.75 2265.46 Q3059.95 2264.99 3056.94 2264.07 L3056.94 2258.19 Q3059.54 2259.61 3062.32 2260.31 Q3065.1 2261 3068.19 2261 Q3073.2 2261 3076.12 2258.37 Q3079.04 2255.73 3079.04 2251.22 Q3079.04 2246.71 3076.12 2244.07 Q3073.2 2241.44 3068.19 2241.44 Q3065.85 2241.44 3063.5 2241.96 Q3061.19 2242.48 3058.76 2243.58 L3058.76 2221.88 Z" fill="#000000" fill-rule="nonzero" fill-opacity="1" /><path clip-path="url(#clip000)" d="M1531.38 2331.63 Q1533.98 2326.97 1537.59 2324.75 Q1541.2 2322.53 1546.09 2322.53 Q1552.67 2322.53 1556.25 2327.15 Q1559.82 2331.74 1559.82 2340.24 L1559.82 2365.67 L1552.86 2365.67 L1552.86 2340.47 Q1552.86 2334.41 1550.72 2331.48 Q1548.57 2328.55 1544.17 2328.55 Q1538.79 2328.55 1535.67 2332.12 Q1532.55 2335.69 1532.55 2341.86 L1532.55 2365.67 L1525.59 2365.67 L1525.59 2340.47 Q1525.59 2334.38 1523.45 2331.48 Q1521.3 2328.55 1516.83 2328.55 Q1511.52 2328.55 1508.4 2332.16 Q1505.28 2335.73 1505.28 2341.86 L1505.28 2365.67 L1498.32 2365.67 L1498.32 2323.54 L1505.28 2323.54 L1505.28 2330.09 Q1507.65 2326.21 1510.96 2324.37 Q1514.27 2322.53 1518.82 2322.53 Q1523.41 2322.53 1526.61 2324.86 Q1529.84 2327.19 1531.38 2331.63 Z" fill="#000000" fill-rule="nonzero" fill-opacity="1" /><path clip-path="url(#clip000)" d="M1592.77 2344.49 Q1584.38 2344.49 1581.15 2346.41 Q1577.91 2348.33 1577.91 2352.96 Q1577.91 2356.64 1580.32 2358.83 Q1582.77 2360.97 1586.94 2360.97 Q1592.7 2360.97 1596.16 2356.91 Q1599.66 2352.81 1599.66 2346.04 L1599.66 2344.49 L1592.77 2344.49 M1606.58 2341.64 L1606.58 2365.67 L1599.66 2365.67 L1599.66 2359.28 Q1597.29 2363.11 1593.75 2364.96 Q1590.21 2366.76 1585.1 2366.76 Q1578.63 2366.76 1574.79 2363.15 Q1570.99 2359.5 1570.99 2353.41 Q1570.99 2346.3 1575.73 2342.69 Q1580.51 2339.08 1589.95 2339.08 L1599.66 2339.08 L1599.66 2338.4 Q1599.66 2333.62 1596.5 2331.03 Q1593.37 2328.39 1587.69 2328.39 Q1584.08 2328.39 1580.66 2329.26 Q1577.24 2330.13 1574.08 2331.86 L1574.08 2325.46 Q1577.88 2323.99 1581.45 2323.28 Q1585.02 2322.53 1588.41 2322.53 Q1597.55 2322.53 1602.06 2327.27 Q1606.58 2332.01 1606.58 2341.64 Z" fill="#000000" fill-rule="nonzero" fill-opacity="1" /><path clip-path="url(#clip000)" d="M1655.85 2323.54 L1640.62 2344.04 L1656.64 2365.67 L1648.48 2365.67 L1636.22 2349.12 L1623.96 2365.67 L1615.79 2365.67 L1632.16 2343.63 L1617.19 2323.54 L1625.35 2323.54 L1636.52 2338.55 L1647.69 2323.54 L1655.85 2323.54 Z" fill="#000000" fill-rule="nonzero" fill-opacity="1" /><path clip-path="url(#clip000)" d="M1698.43 2378.46 L1698.43 2383.84 L1658.41 2383.84 L1658.41 2378.46 L1698.43 2378.46 Z" fill="#000000" fill-rule="nonzero" fill-opacity="1" /><path clip-path="url(#clip000)" d="M1732.66 2329.94 L1732.66 2307.14 L1739.59 2307.14 L1739.59 2365.67 L1732.66 2365.67 L1732.66 2359.35 Q1730.48 2363.11 1727.14 2364.96 Q1723.83 2366.76 1719.16 2366.76 Q1711.52 2366.76 1706.71 2360.67 Q1701.93 2354.58 1701.93 2344.64 Q1701.93 2334.71 1706.71 2328.62 Q1711.52 2322.53 1719.16 2322.53 Q1723.83 2322.53 1727.14 2324.37 Q1730.48 2326.18 1732.66 2329.94 M1709.08 2344.64 Q1709.08 2352.28 1712.2 2356.64 Q1715.36 2360.97 1720.85 2360.97 Q1726.35 2360.97 1729.51 2356.64 Q1732.66 2352.28 1732.66 2344.64 Q1732.66 2337.01 1729.51 2332.68 Q1726.35 2328.32 1720.85 2328.32 Q1715.36 2328.32 1712.2 2332.68 Q1709.08 2337.01 1709.08 2344.64 Z" fill="#000000" fill-rule="nonzero" fill-opacity="1" /><path clip-path="url(#clip000)" d="M1789.88 2342.88 L1789.88 2346.26 L1758.06 2346.26 Q1758.51 2353.41 1762.34 2357.17 Q1766.22 2360.89 1773.1 2360.89 Q1777.09 2360.89 1780.81 2359.92 Q1784.57 2358.94 1788.26 2356.98 L1788.26 2363.53 Q1784.54 2365.11 1780.62 2365.94 Q1776.71 2366.76 1772.69 2366.76 Q1762.61 2366.76 1756.7 2360.89 Q1750.83 2355.03 1750.83 2345.02 Q1750.83 2334.68 1756.4 2328.62 Q1762.01 2322.53 1771.48 2322.53 Q1779.99 2322.53 1784.91 2328.02 Q1789.88 2333.47 1789.88 2342.88 M1782.96 2340.85 Q1782.88 2335.17 1779.76 2331.78 Q1776.68 2328.39 1771.56 2328.39 Q1765.77 2328.39 1762.27 2331.67 Q1758.81 2334.94 1758.28 2340.88 L1782.96 2340.85 Z" fill="#000000" fill-rule="nonzero" fill-opacity="1" /><path clip-path="url(#clip000)" d="M1807.93 2359.35 L1807.93 2381.7 L1800.97 2381.7 L1800.97 2323.54 L1807.93 2323.54 L1807.93 2329.94 Q1810.12 2326.18 1813.43 2324.37 Q1816.77 2322.53 1821.4 2322.53 Q1829.07 2322.53 1833.85 2328.62 Q1838.67 2334.71 1838.67 2344.64 Q1838.67 2354.58 1833.85 2360.67 Q1829.07 2366.76 1821.4 2366.76 Q1816.77 2366.76 1813.43 2364.96 Q1810.12 2363.11 1807.93 2359.35 M1831.48 2344.64 Q1831.48 2337.01 1828.32 2332.68 Q1825.2 2328.32 1819.71 2328.32 Q1814.22 2328.32 1811.06 2332.68 Q1807.93 2337.01 1807.93 2344.64 Q1807.93 2352.28 1811.06 2356.64 Q1814.22 2360.97 1819.71 2360.97 Q1825.2 2360.97 1828.32 2356.64 Q1831.48 2352.28 1831.48 2344.64 Z" fill="#000000" fill-rule="nonzero" fill-opacity="1" /><path clip-path="url(#clip000)" d="M1856.98 2311.58 L1856.98 2323.54 L1871.24 2323.54 L1871.24 2328.92 L1856.98 2328.92 L1856.98 2351.79 Q1856.98 2356.95 1858.38 2358.41 Q1859.81 2359.88 1864.13 2359.88 L1871.24 2359.88 L1871.24 2365.67 L1864.13 2365.67 Q1856.12 2365.67 1853.07 2362.7 Q1850.03 2359.69 1850.03 2351.79 L1850.03 2328.92 L1844.95 2328.92 L1844.95 2323.54 L1850.03 2323.54 L1850.03 2311.58 L1856.98 2311.58 Z" fill="#000000" fill-rule="nonzero" fill-opacity="1" /><path clip-path="url(#clip000)" d="M1915.36 2340.24 L1915.36 2365.67 L1908.44 2365.67 L1908.44 2340.47 Q1908.44 2334.49 1906.11 2331.52 Q1903.78 2328.55 1899.11 2328.55 Q1893.51 2328.55 1890.27 2332.12 Q1887.04 2335.69 1887.04 2341.86 L1887.04 2365.67 L1880.08 2365.67 L1880.08 2307.14 L1887.04 2307.14 L1887.04 2330.09 Q1889.52 2326.29 1892.87 2324.41 Q1896.25 2322.53 1900.66 2322.53 Q1907.92 2322.53 1911.64 2327.04 Q1915.36 2331.52 1915.36 2340.24 Z" fill="#000000" fill-rule="nonzero" fill-opacity="1" /><polyline clip-path="url(#clip002)" style="stroke:#000000; stroke-linecap:round; stroke-linejoin:round; stroke-width:2; stroke-opacity:0.1; fill:none" points="260.928,1923.24 3152.76,1923.24 "/>
<polyline clip-path="url(#clip002)" style="stroke:#000000; stroke-linecap:round; stroke-linejoin:round; stroke-width:2; stroke-opacity:0.1; fill:none" points="260.928,1469.37 3152.76,1469.37 "/>
<polyline clip-path="url(#clip002)" style="stroke:#000000; stroke-linecap:round; stroke-linejoin:round; stroke-width:2; stroke-opacity:0.1; fill:none" points="260.928,1015.5 3152.76,1015.5 "/>
<polyline clip-path="url(#clip002)" style="stroke:#000000; stroke-linecap:round; stroke-linejoin:round; stroke-width:2; stroke-opacity:0.1; fill:none" points="260.928,561.631 3152.76,561.631 "/>
<polyline clip-path="url(#clip002)" style="stroke:#000000; stroke-linecap:round; stroke-linejoin:round; stroke-width:2; stroke-opacity:0.1; fill:none" points="260.928,107.76 3152.76,107.76 "/>
<polyline clip-path="url(#clip002)" style="stroke:#000000; stroke-linecap:round; stroke-linejoin:round; stroke-width:2; stroke-opacity:0.1; fill:none" points="260.928,1923.24 3152.76,1923.24 "/>
<polyline clip-path="url(#clip002)" style="stroke:#000000; stroke-linecap:round; stroke-linejoin:round; stroke-width:2; stroke-opacity:0.1; fill:none" points="260.928,1469.37 3152.76,1469.37 "/>
<polyline clip-path="url(#clip002)" style="stroke:#000000; stroke-linecap:round; stroke-linejoin:round; stroke-width:2; stroke-opacity:0.1; fill:none" points="260.928,1015.5 3152.76,1015.5 "/>
<polyline clip-path="url(#clip002)" style="stroke:#000000; stroke-linecap:round; stroke-linejoin:round; stroke-width:2; stroke-opacity:0.1; fill:none" points="260.928,561.631 3152.76,561.631 "/>
<polyline clip-path="url(#clip002)" style="stroke:#000000; stroke-linecap:round; stroke-linejoin:round; stroke-width:2; stroke-opacity:0.1; fill:none" points="260.928,107.76 3152.76,107.76 "/>
<polyline clip-path="url(#clip000)" style="stroke:#000000; stroke-linecap:round; stroke-linejoin:round; stroke-width:4; stroke-opacity:1; fill:none" points="260.928,2185.48 260.928,47.2441 "/>
<polyline clip-path="url(#clip000)" style="stroke:#000000; stroke-linecap:round; stroke-linejoin:round; stroke-width:4; stroke-opacity:1; fill:none" points="3152.76,2185.48 3152.76,47.2441 "/>
<polyline clip-path="url(#clip000)" style="stroke:#000000; stroke-linecap:round; stroke-linejoin:round; stroke-width:4; stroke-opacity:1; fill:none" points="260.928,1923.24 279.825,1923.24 "/>
<polyline clip-path="url(#clip000)" style="stroke:#000000; stroke-linecap:round; stroke-linejoin:round; stroke-width:4; stroke-opacity:1; fill:none" points="260.928,1469.37 279.825,1469.37 "/>
<polyline clip-path="url(#clip000)" style="stroke:#000000; stroke-linecap:round; stroke-linejoin:round; stroke-width:4; stroke-opacity:1; fill:none" points="260.928,1015.5 279.825,1015.5 "/>
<polyline clip-path="url(#clip000)" style="stroke:#000000; stroke-linecap:round; stroke-linejoin:round; stroke-width:4; stroke-opacity:1; fill:none" points="260.928,561.631 279.825,561.631 "/>
<polyline clip-path="url(#clip000)" style="stroke:#000000; stroke-linecap:round; stroke-linejoin:round; stroke-width:4; stroke-opacity:1; fill:none" points="260.928,107.76 279.825,107.76 "/>
<polyline clip-path="url(#clip000)" style="stroke:#000000; stroke-linecap:round; stroke-linejoin:round; stroke-width:4; stroke-opacity:1; fill:none" points="3152.76,1923.24 3133.86,1923.24 "/>
<polyline clip-path="url(#clip000)" style="stroke:#000000; stroke-linecap:round; stroke-linejoin:round; stroke-width:4; stroke-opacity:1; fill:none" points="3152.76,1469.37 3133.86,1469.37 "/>
<polyline clip-path="url(#clip000)" style="stroke:#000000; stroke-linecap:round; stroke-linejoin:round; stroke-width:4; stroke-opacity:1; fill:none" points="3152.76,1015.5 3133.86,1015.5 "/>
<polyline clip-path="url(#clip000)" style="stroke:#000000; stroke-linecap:round; stroke-linejoin:round; stroke-width:4; stroke-opacity:1; fill:none" points="3152.76,561.631 3133.86,561.631 "/>
<polyline clip-path="url(#clip000)" style="stroke:#000000; stroke-linecap:round; stroke-linejoin:round; stroke-width:4; stroke-opacity:1; fill:none" points="3152.76,107.76 3133.86,107.76 "/>
<path clip-path="url(#clip000)" d="M143.455 1905.49 Q138.941 1905.49 136.655 1909.95 Q134.398 1914.37 134.398 1923.29 Q134.398 1932.17 136.655 1936.63 Q138.941 1941.05 143.455 1941.05 Q147.998 1941.05 150.255 1936.63 Q152.54 1932.17 152.54 1923.29 Q152.54 1914.37 150.255 1909.95 Q147.998 1905.49 143.455 1905.49 M143.455 1900.86 Q150.717 1900.86 154.537 1906.62 Q158.385 1912.35 158.385 1923.29 Q158.385 1934.2 154.537 1939.95 Q150.717 1945.68 143.455 1945.68 Q136.192 1945.68 132.344 1939.95 Q128.524 1934.2 128.524 1923.29 Q128.524 1912.35 132.344 1906.62 Q136.192 1900.86 143.455 1900.86 Z" fill="#000000" fill-rule="nonzero" fill-opacity="1" /><path clip-path="url(#clip000)" d="M168.657 1937.49 L174.762 1937.49 L174.762 1944.84 L168.657 1944.84 L168.657 1937.49 Z" fill="#000000" fill-rule="nonzero" fill-opacity="1" /><path clip-path="url(#clip000)" d="M192.529 1939.92 L212.928 1939.92 L212.928 1944.84 L185.497 1944.84 L185.497 1939.92 Q188.825 1936.48 194.554 1930.69 Q200.312 1924.88 201.788 1923.2 Q204.595 1920.05 205.694 1917.88 Q206.823 1915.68 206.823 1913.56 Q206.823 1910.12 204.392 1907.95 Q201.99 1905.78 198.113 1905.78 Q195.364 1905.78 192.297 1906.74 Q189.259 1907.69 185.787 1909.63 L185.787 1903.73 Q189.317 1902.31 192.384 1901.59 Q195.451 1900.86 197.997 1900.86 Q204.71 1900.86 208.703 1904.22 Q212.696 1907.58 212.696 1913.19 Q212.696 1915.85 211.684 1918.25 Q210.7 1920.62 208.067 1923.87 Q207.343 1924.7 203.466 1928.73 Q199.589 1932.72 192.529 1939.92 Z" fill="#000000" fill-rule="nonzero" fill-opacity="1" /><path clip-path="url(#clip000)" d="M140.851 1451.62 Q136.337 1451.62 134.051 1456.08 Q131.794 1460.5 131.794 1469.42 Q131.794 1478.3 134.051 1482.76 Q136.337 1487.18 140.851 1487.18 Q145.393 1487.18 147.65 1482.76 Q149.936 1478.3 149.936 1469.42 Q149.936 1460.5 147.65 1456.08 Q145.393 1451.62 140.851 1451.62 M140.851 1446.99 Q148.113 1446.99 151.933 1452.75 Q155.781 1458.48 155.781 1469.42 Q155.781 1480.32 151.933 1486.08 Q148.113 1491.81 140.851 1491.81 Q133.588 1491.81 129.74 1486.08 Q125.92 1480.32 125.92 1469.42 Q125.92 1458.48 129.74 1452.75 Q133.588 1446.99 140.851 1446.99 Z" fill="#000000" fill-rule="nonzero" fill-opacity="1" /><path clip-path="url(#clip000)" d="M166.053 1483.62 L172.158 1483.62 L172.158 1490.97 L166.053 1490.97 L166.053 1483.62 Z" fill="#000000" fill-rule="nonzero" fill-opacity="1" /><path clip-path="url(#clip000)" d="M200.949 1452.87 L186.192 1475.93 L200.949 1475.93 L200.949 1452.87 M199.415 1447.77 L206.765 1447.77 L206.765 1475.93 L212.928 1475.93 L212.928 1480.79 L206.765 1480.79 L206.765 1490.97 L200.949 1490.97 L200.949 1480.79 L181.446 1480.79 L181.446 1475.15 L199.415 1447.77 Z" fill="#000000" fill-rule="nonzero" fill-opacity="1" /><path clip-path="url(#clip000)" d="M141.256 997.75 Q136.742 997.75 134.456 1002.21 Q132.199 1006.63 132.199 1015.55 Q132.199 1024.43 134.456 1028.88 Q136.742 1033.31 141.256 1033.31 Q145.799 1033.31 148.055 1028.88 Q150.341 1024.43 150.341 1015.55 Q150.341 1006.63 148.055 1002.21 Q145.799 997.75 141.256 997.75 M141.256 993.121 Q148.518 993.121 152.338 998.879 Q156.186 1004.61 156.186 1015.55 Q156.186 1026.45 152.338 1032.21 Q148.518 1037.94 141.256 1037.94 Q133.993 1037.94 130.145 1032.21 Q126.325 1026.45 126.325 1015.55 Q126.325 1004.61 130.145 998.879 Q133.993 993.121 141.256 993.121 Z" fill="#000000" fill-rule="nonzero" fill-opacity="1" /><path clip-path="url(#clip000)" d="M166.458 1029.75 L172.563 1029.75 L172.563 1037.1 L166.458 1037.1 L166.458 1029.75 Z" fill="#000000" fill-rule="nonzero" fill-opacity="1" /><path clip-path="url(#clip000)" d="M198.518 1013.17 Q194.583 1013.17 192.268 1015.86 Q189.982 1018.55 189.982 1023.24 Q189.982 1027.9 192.268 1030.62 Q194.583 1033.31 198.518 1033.31 Q202.453 1033.31 204.739 1030.62 Q207.054 1027.9 207.054 1023.24 Q207.054 1018.55 204.739 1015.86 Q202.453 1013.17 198.518 1013.17 M210.121 994.857 L210.121 1000.18 Q207.922 999.139 205.665 998.589 Q203.437 998.04 201.238 998.04 Q195.451 998.04 192.384 1001.95 Q189.346 1005.85 188.912 1013.75 Q190.619 1011.23 193.194 1009.9 Q195.769 1008.54 198.865 1008.54 Q205.376 1008.54 209.137 1012.51 Q212.928 1016.44 212.928 1023.24 Q212.928 1029.9 208.993 1033.92 Q205.057 1037.94 198.518 1037.94 Q191.024 1037.94 187.06 1032.21 Q183.096 1026.45 183.096 1015.55 Q183.096 1005.3 187.957 999.226 Q192.818 993.121 201.007 993.121 Q203.206 993.121 205.434 993.555 Q207.691 993.989 210.121 994.857 Z" fill="#000000" fill-rule="nonzero" fill-opacity="1" /><path clip-path="url(#clip000)" d="M141.574 543.879 Q137.06 543.879 134.774 548.335 Q132.517 552.762 132.517 561.674 Q132.517 570.557 134.774 575.013 Q137.06 579.441 141.574 579.441 Q146.117 579.441 148.374 575.013 Q150.66 570.557 150.66 561.674 Q150.66 552.762 148.374 548.335 Q146.117 543.879 141.574 543.879 M141.574 539.25 Q148.837 539.25 152.656 545.008 Q156.504 550.737 156.504 561.674 Q156.504 572.583 152.656 578.341 Q148.837 584.07 141.574 584.07 Q134.311 584.07 130.463 578.341 Q126.644 572.583 126.644 561.674 Q126.644 550.737 130.463 545.008 Q134.311 539.25 141.574 539.25 Z" fill="#000000" fill-rule="nonzero" fill-opacity="1" /><path clip-path="url(#clip000)" d="M166.776 575.881 L172.882 575.881 L172.882 583.231 L166.776 583.231 L166.776 575.881 Z" fill="#000000" fill-rule="nonzero" fill-opacity="1" /><path clip-path="url(#clip000)" d="M198.113 562.716 Q193.946 562.716 191.545 564.944 Q189.172 567.172 189.172 571.078 Q189.172 574.985 191.545 577.213 Q193.946 579.441 198.113 579.441 Q202.28 579.441 204.681 577.213 Q207.083 574.956 207.083 571.078 Q207.083 567.172 204.681 564.944 Q202.309 562.716 198.113 562.716 M192.268 560.228 Q188.507 559.302 186.394 556.727 Q184.311 554.151 184.311 550.448 Q184.311 545.268 187.986 542.259 Q191.689 539.25 198.113 539.25 Q204.566 539.25 208.24 542.259 Q211.915 545.268 211.915 550.448 Q211.915 554.151 209.803 556.727 Q207.719 559.302 203.987 560.228 Q208.211 561.211 210.555 564.076 Q212.928 566.941 212.928 571.078 Q212.928 577.357 209.079 580.714 Q205.26 584.07 198.113 584.07 Q190.966 584.07 187.118 580.714 Q183.298 577.357 183.298 571.078 Q183.298 566.941 185.671 564.076 Q188.044 561.211 192.268 560.228 M190.127 550.997 Q190.127 554.354 192.21 556.235 Q194.323 558.115 198.113 558.115 Q201.875 558.115 203.987 556.235 Q206.128 554.354 206.128 550.997 Q206.128 547.641 203.987 545.76 Q201.875 543.879 198.113 543.879 Q194.323 543.879 192.21 545.76 Q190.127 547.641 190.127 550.997 Z" fill="#000000" fill-rule="nonzero" fill-opacity="1" /><path clip-path="url(#clip000)" d="M129.971 124.441 L139.52 124.441 L139.52 91.4842 L129.132 93.5676 L129.132 88.2435 L139.462 86.1602 L145.307 86.1602 L145.307 124.441 L154.855 124.441 L154.855 129.36 L129.971 129.36 L129.971 124.441 Z" fill="#000000" fill-rule="nonzero" fill-opacity="1" /><path clip-path="url(#clip000)" d="M166.661 122.011 L172.766 122.011 L172.766 129.36 L166.661 129.36 L166.661 122.011 Z" fill="#000000" fill-rule="nonzero" fill-opacity="1" /><path clip-path="url(#clip000)" d="M197.997 90.0086 Q193.483 90.0086 191.198 94.4646 Q188.941 98.8916 188.941 107.804 Q188.941 116.687 191.198 121.143 Q193.483 125.57 197.997 125.57 Q202.54 125.57 204.797 121.143 Q207.083 116.687 207.083 107.804 Q207.083 98.8916 204.797 94.4646 Q202.54 90.0086 197.997 90.0086 M197.997 85.379 Q205.26 85.379 209.079 91.137 Q212.928 96.8662 212.928 107.804 Q212.928 118.712 209.079 124.47 Q205.26 130.199 197.997 130.199 Q190.735 130.199 186.886 124.47 Q183.067 118.712 183.067 107.804 Q183.067 96.8662 186.886 91.137 Q190.735 85.379 197.997 85.379 Z" fill="#000000" fill-rule="nonzero" fill-opacity="1" /><path clip-path="url(#clip000)" d="M4.91216 1540.8 L4.91216 1529.47 L43.1295 1515.14 L4.91216 1500.74 L4.91216 1489.41 L61.0722 1489.41 L61.0722 1496.82 L11.7582 1496.82 L50.2765 1511.31 L50.2765 1518.94 L11.7582 1533.42 L61.0722 1533.42 L61.0722 1540.8 L4.91216 1540.8 Z" fill="#000000" fill-rule="nonzero" fill-opacity="1" /><path clip-path="url(#clip000)" d="M18.9428 1474.63 L18.9428 1467.71 L61.0722 1467.71 L61.0722 1474.63 L18.9428 1474.63 M2.54238 1474.63 L2.54238 1467.71 L11.3068 1467.71 L11.3068 1474.63 L2.54238 1474.63 Z" fill="#000000" fill-rule="nonzero" fill-opacity="1" /><path clip-path="url(#clip000)" d="M20.1841 1426.37 L26.7292 1426.37 Q25.2245 1429.3 24.4722 1432.46 Q23.7199 1435.62 23.7199 1439.01 Q23.7199 1444.16 25.2998 1446.76 Q26.8796 1449.32 30.0393 1449.32 Q32.4467 1449.32 33.8385 1447.47 Q35.1927 1445.63 36.434 1440.06 L36.9606 1437.69 Q38.5404 1430.32 41.4368 1427.24 Q44.2956 1424.11 49.449 1424.11 Q55.317 1424.11 58.74 1428.78 Q62.163 1433.4 62.163 1441.53 Q62.163 1444.91 61.4859 1448.6 Q60.8465 1452.25 59.5299 1456.31 L52.383 1456.31 Q54.3766 1452.48 55.3922 1448.75 Q56.3702 1445.03 56.3702 1441.38 Q56.3702 1436.49 54.7151 1433.86 Q53.0224 1431.22 49.9756 1431.22 Q47.1544 1431.22 45.6498 1433.14 Q44.1452 1435.02 42.7534 1441.45 L42.1892 1443.86 Q40.835 1450.29 38.0514 1453.15 Q35.2303 1456.01 30.3403 1456.01 Q24.397 1456.01 21.1621 1451.8 Q17.9271 1447.59 17.9271 1439.84 Q17.9271 1436 18.4914 1432.61 Q19.0556 1429.23 20.1841 1426.37 Z" fill="#000000" fill-rule="nonzero" fill-opacity="1" /><path clip-path="url(#clip000)" d="M20.5602 1382.77 L27.0301 1382.77 Q25.4126 1385.71 24.6227 1388.68 Q23.7952 1391.61 23.7952 1394.62 Q23.7952 1401.36 28.0833 1405.08 Q32.3339 1408.8 40.0451 1408.8 Q47.7563 1408.8 52.0444 1405.08 Q56.295 1401.36 56.295 1394.62 Q56.295 1391.61 55.5051 1388.68 Q54.6775 1385.71 53.06 1382.77 L59.4547 1382.77 Q60.8088 1385.67 61.4859 1388.79 Q62.163 1391.88 62.163 1395.38 Q62.163 1404.89 56.1821 1410.5 Q50.2013 1416.1 40.0451 1416.1 Q29.7384 1416.1 23.8328 1410.46 Q17.9271 1404.78 17.9271 1394.92 Q17.9271 1391.73 18.6042 1388.68 Q19.2437 1385.63 20.5602 1382.77 Z" fill="#000000" fill-rule="nonzero" fill-opacity="1" /><path clip-path="url(#clip000)" d="M2.54238 1370.74 L2.54238 1363.82 L61.0722 1363.82 L61.0722 1370.74 L2.54238 1370.74 Z" fill="#000000" fill-rule="nonzero" fill-opacity="1" /><path clip-path="url(#clip000)" d="M39.8946 1330.19 Q39.8946 1338.58 41.813 1341.81 Q43.7314 1345.05 48.3581 1345.05 Q52.0444 1345.05 54.2261 1342.64 Q56.3702 1340.19 56.3702 1336.02 Q56.3702 1330.26 52.3077 1326.8 Q48.2076 1323.3 41.4368 1323.3 L39.8946 1323.3 L39.8946 1330.19 M37.0358 1316.38 L61.0722 1316.38 L61.0722 1323.3 L54.6775 1323.3 Q58.5143 1325.67 60.3575 1329.21 Q62.163 1332.75 62.163 1337.86 Q62.163 1344.33 58.5519 1348.17 Q54.9032 1351.97 48.8095 1351.97 Q41.7002 1351.97 38.0891 1347.23 Q34.478 1342.45 34.478 1333.01 L34.478 1323.3 L33.8009 1323.3 Q29.0237 1323.3 26.4282 1326.46 Q23.7952 1329.59 23.7952 1335.27 Q23.7952 1338.88 24.6603 1342.3 Q25.5255 1345.72 27.2558 1348.88 L20.8611 1348.88 Q19.3941 1345.08 18.6794 1341.51 Q17.9271 1337.94 17.9271 1334.55 Q17.9271 1325.41 22.6667 1320.9 Q27.4062 1316.38 37.0358 1316.38 Z" fill="#000000" fill-rule="nonzero" fill-opacity="1" /><path clip-path="url(#clip000)" d="M20.1841 1275.27 L26.7292 1275.27 Q25.2245 1278.2 24.4722 1281.36 Q23.7199 1284.52 23.7199 1287.91 Q23.7199 1293.06 25.2998 1295.66 Q26.8796 1298.21 30.0393 1298.21 Q32.4467 1298.21 33.8385 1296.37 Q35.1927 1294.53 36.434 1288.96 L36.9606 1286.59 Q38.5404 1279.22 41.4368 1276.13 Q44.2956 1273.01 49.449 1273.01 Q55.317 1273.01 58.74 1277.68 Q62.163 1282.3 62.163 1290.43 Q62.163 1293.81 61.4859 1297.5 Q60.8465 1301.15 59.5299 1305.21 L52.383 1305.21 Q54.3766 1301.37 55.3922 1297.65 Q56.3702 1293.93 56.3702 1290.28 Q56.3702 1285.39 54.7151 1282.75 Q53.0224 1280.12 49.9756 1280.12 Q47.1544 1280.12 45.6498 1282.04 Q44.1452 1283.92 42.7534 1290.35 L42.1892 1292.76 Q40.835 1299.19 38.0514 1302.05 Q35.2303 1304.91 30.3403 1304.91 Q24.397 1304.91 21.1621 1300.7 Q17.9271 1296.48 17.9271 1288.74 Q17.9271 1284.9 18.4914 1281.51 Q19.0556 1278.13 20.1841 1275.27 Z" fill="#000000" fill-rule="nonzero" fill-opacity="1" /><path clip-path="url(#clip000)" d="M20.1841 1235.13 L26.7292 1235.13 Q25.2245 1238.07 24.4722 1241.23 Q23.7199 1244.39 23.7199 1247.77 Q23.7199 1252.93 25.2998 1255.52 Q26.8796 1258.08 30.0393 1258.08 Q32.4467 1258.08 33.8385 1256.24 Q35.1927 1254.39 36.434 1248.83 L36.9606 1246.46 Q38.5404 1239.08 41.4368 1236 Q44.2956 1232.88 49.449 1232.88 Q55.317 1232.88 58.74 1237.54 Q62.163 1242.17 62.163 1250.29 Q62.163 1253.68 61.4859 1257.36 Q60.8465 1261.01 59.5299 1265.08 L52.383 1265.08 Q54.3766 1261.24 55.3922 1257.51 Q56.3702 1253.79 56.3702 1250.14 Q56.3702 1245.25 54.7151 1242.62 Q53.0224 1239.99 49.9756 1239.99 Q47.1544 1239.99 45.6498 1241.9 Q44.1452 1243.78 42.7534 1250.22 L42.1892 1252.62 Q40.835 1259.06 38.0514 1261.92 Q35.2303 1264.77 30.3403 1264.77 Q24.397 1264.77 21.1621 1260.56 Q17.9271 1256.35 17.9271 1248.6 Q17.9271 1244.76 18.4914 1241.38 Q19.0556 1237.99 20.1841 1235.13 Z" fill="#000000" fill-rule="nonzero" fill-opacity="1" /><path clip-path="url(#clip000)" d="M18.9428 1221.85 L18.9428 1214.93 L61.0722 1214.93 L61.0722 1221.85 L18.9428 1221.85 M2.54238 1221.85 L2.54238 1214.93 L11.3068 1214.93 L11.3068 1221.85 L2.54238 1221.85 Z" fill="#000000" fill-rule="nonzero" fill-opacity="1" /><path clip-path="url(#clip000)" d="M2.54238 1179.12 L8.29756 1179.12 L8.29756 1185.74 Q8.29756 1189.47 9.80218 1190.93 Q11.3068 1192.36 15.2188 1192.36 L18.9428 1192.36 L18.9428 1180.97 L24.3218 1180.97 L24.3218 1192.36 L61.0722 1192.36 L61.0722 1199.32 L24.3218 1199.32 L24.3218 1205.94 L18.9428 1205.94 L18.9428 1199.32 L16.0087 1199.32 Q8.97464 1199.32 5.77731 1196.05 Q2.54238 1192.78 2.54238 1185.67 L2.54238 1179.12 Z" fill="#000000" fill-rule="nonzero" fill-opacity="1" /><path clip-path="url(#clip000)" d="M18.9428 1173.33 L18.9428 1166.41 L61.0722 1166.41 L61.0722 1173.33 L18.9428 1173.33 M2.54238 1173.33 L2.54238 1166.41 L11.3068 1166.41 L11.3068 1173.33 L2.54238 1173.33 Z" fill="#000000" fill-rule="nonzero" fill-opacity="1" /><path clip-path="url(#clip000)" d="M20.5602 1121.61 L27.0301 1121.61 Q25.4126 1124.54 24.6227 1127.51 Q23.7952 1130.45 23.7952 1133.46 Q23.7952 1140.19 28.0833 1143.92 Q32.3339 1147.64 40.0451 1147.64 Q47.7563 1147.64 52.0444 1143.92 Q56.295 1140.19 56.295 1133.46 Q56.295 1130.45 55.5051 1127.51 Q54.6775 1124.54 53.06 1121.61 L59.4547 1121.61 Q60.8088 1124.51 61.4859 1127.63 Q62.163 1130.71 62.163 1134.21 Q62.163 1143.73 56.1821 1149.33 Q50.2013 1154.94 40.0451 1154.94 Q29.7384 1154.94 23.8328 1149.29 Q17.9271 1143.61 17.9271 1133.76 Q17.9271 1130.56 18.6042 1127.51 Q19.2437 1124.47 20.5602 1121.61 Z" fill="#000000" fill-rule="nonzero" fill-opacity="1" /><path clip-path="url(#clip000)" d="M39.8946 1090.43 Q39.8946 1098.81 41.813 1102.05 Q43.7314 1105.28 48.3581 1105.28 Q52.0444 1105.28 54.2261 1102.88 Q56.3702 1100.43 56.3702 1096.26 Q56.3702 1090.5 52.3077 1087.04 Q48.2076 1083.54 41.4368 1083.54 L39.8946 1083.54 L39.8946 1090.43 M37.0358 1076.62 L61.0722 1076.62 L61.0722 1083.54 L54.6775 1083.54 Q58.5143 1085.91 60.3575 1089.45 Q62.163 1092.98 62.163 1098.1 Q62.163 1104.57 58.5519 1108.41 Q54.9032 1112.21 48.8095 1112.21 Q41.7002 1112.21 38.0891 1107.47 Q34.478 1102.69 34.478 1093.25 L34.478 1083.54 L33.8009 1083.54 Q29.0237 1083.54 26.4282 1086.7 Q23.7952 1089.82 23.7952 1095.5 Q23.7952 1099.12 24.6603 1102.54 Q25.5255 1105.96 27.2558 1109.12 L20.8611 1109.12 Q19.3941 1105.32 18.6794 1101.75 Q17.9271 1098.17 17.9271 1094.79 Q17.9271 1085.65 22.6667 1081.14 Q27.4062 1076.62 37.0358 1076.62 Z" fill="#000000" fill-rule="nonzero" fill-opacity="1" /><path clip-path="url(#clip000)" d="M6.98101 1055.52 L18.9428 1055.52 L18.9428 1041.26 L24.3218 1041.26 L24.3218 1055.52 L47.192 1055.52 Q52.3454 1055.52 53.8124 1054.13 Q55.2794 1052.7 55.2794 1048.37 L55.2794 1041.26 L61.0722 1041.26 L61.0722 1048.37 Q61.0722 1056.38 58.1005 1059.43 Q55.0913 1062.48 47.192 1062.48 L24.3218 1062.48 L24.3218 1067.56 L18.9428 1067.56 L18.9428 1062.48 L6.98101 1062.48 L6.98101 1055.52 Z" fill="#000000" fill-rule="nonzero" fill-opacity="1" /><path clip-path="url(#clip000)" d="M18.9428 1032.16 L18.9428 1025.24 L61.0722 1025.24 L61.0722 1032.16 L18.9428 1032.16 M2.54238 1032.16 L2.54238 1025.24 L11.3068 1025.24 L11.3068 1032.16 L2.54238 1032.16 Z" fill="#000000" fill-rule="nonzero" fill-opacity="1" /><path clip-path="url(#clip000)" d="M23.7952 994.431 Q23.7952 999.998 28.1586 1003.23 Q32.4843 1006.47 40.0451 1006.47 Q47.6058 1006.47 51.9692 1003.27 Q56.295 1000.04 56.295 994.431 Q56.295 988.902 51.9316 985.667 Q47.5682 982.432 40.0451 982.432 Q32.5596 982.432 28.1962 985.667 Q23.7952 988.902 23.7952 994.431 M17.9271 994.431 Q17.9271 985.403 23.7952 980.25 Q29.6632 975.097 40.0451 975.097 Q50.3893 975.097 56.295 980.25 Q62.163 985.403 62.163 994.431 Q62.163 1003.5 56.295 1008.65 Q50.3893 1013.77 40.0451 1013.77 Q29.6632 1013.77 23.7952 1008.65 Q17.9271 1003.5 17.9271 994.431 Z" fill="#000000" fill-rule="nonzero" fill-opacity="1" /><path clip-path="url(#clip000)" d="M35.6441 928.604 L61.0722 928.604 L61.0722 935.525 L35.8697 935.525 Q29.8889 935.525 26.9172 937.857 Q23.9456 940.19 23.9456 944.854 Q23.9456 950.459 27.5191 953.694 Q31.0926 956.929 37.2615 956.929 L61.0722 956.929 L61.0722 963.887 L18.9428 963.887 L18.9428 956.929 L25.4879 956.929 Q21.6887 954.446 19.8079 951.098 Q17.9271 947.713 17.9271 943.312 Q17.9271 936.052 22.441 932.328 Q26.9172 928.604 35.6441 928.604 Z" fill="#000000" fill-rule="nonzero" fill-opacity="1" /><path clip-path="url(#clip000)" d="M34.7413 887.866 Q35.5688 885.421 38.2771 883.127 Q40.9855 880.795 45.725 878.462 L61.0722 870.751 L61.0722 878.914 L46.6654 886.098 Q41.0231 888.882 39.1799 891.515 Q37.3368 894.111 37.3368 898.624 L37.3368 906.9 L61.0722 906.9 L61.0722 914.498 L4.91216 914.498 L4.91216 897.345 Q4.91216 887.716 8.93702 882.976 Q12.9619 878.237 21.0868 878.237 Q26.3906 878.237 29.8889 880.719 Q33.3871 883.164 34.7413 887.866 M11.1563 906.9 L31.0926 906.9 L31.0926 897.345 Q31.0926 891.854 28.5723 889.07 Q26.0145 886.249 21.0868 886.249 Q16.1592 886.249 13.6766 889.07 Q11.1563 891.854 11.1563 897.345 L11.1563 906.9 Z" fill="#000000" fill-rule="nonzero" fill-opacity="1" /><path clip-path="url(#clip000)" d="M39.8946 843.819 Q39.8946 852.207 41.813 855.442 Q43.7314 858.677 48.3581 858.677 Q52.0444 858.677 54.2261 856.269 Q56.3702 853.824 56.3702 849.649 Q56.3702 843.894 52.3077 840.433 Q48.2076 836.935 41.4368 836.935 L39.8946 836.935 L39.8946 843.819 M37.0358 830.014 L61.0722 830.014 L61.0722 836.935 L54.6775 836.935 Q58.5143 839.305 60.3575 842.841 Q62.163 846.376 62.163 851.492 Q62.163 857.962 58.5519 861.799 Q54.9032 865.598 48.8095 865.598 Q41.7002 865.598 38.0891 860.858 Q34.478 856.081 34.478 846.64 L34.478 836.935 L33.8009 836.935 Q29.0237 836.935 26.4282 840.095 Q23.7952 843.217 23.7952 848.897 Q23.7952 852.508 24.6603 855.931 Q25.5255 859.354 27.2558 862.514 L20.8611 862.514 Q19.3941 858.714 18.6794 855.141 Q17.9271 851.567 17.9271 848.182 Q17.9271 839.041 22.6667 834.528 Q27.4062 830.014 37.0358 830.014 Z" fill="#000000" fill-rule="nonzero" fill-opacity="1" /><path clip-path="url(#clip000)" d="M6.98101 808.911 L18.9428 808.911 L18.9428 794.655 L24.3218 794.655 L24.3218 808.911 L47.192 808.911 Q52.3454 808.911 53.8124 807.52 Q55.2794 806.09 55.2794 801.764 L55.2794 794.655 L61.0722 794.655 L61.0722 801.764 Q61.0722 809.777 58.1005 812.823 Q55.0913 815.87 47.192 815.87 L24.3218 815.87 L24.3218 820.948 L18.9428 820.948 L18.9428 815.87 L6.98101 815.87 L6.98101 808.911 Z" fill="#000000" fill-rule="nonzero" fill-opacity="1" /><path clip-path="url(#clip000)" d="M38.2771 749.516 L41.6625 749.516 L41.6625 781.339 Q48.8095 780.888 52.571 777.051 Q56.295 773.177 56.295 766.293 Q56.295 762.306 55.317 758.582 Q54.339 754.82 52.383 751.134 L58.9281 751.134 Q60.5079 754.858 61.3355 758.77 Q62.163 762.682 62.163 766.707 Q62.163 776.788 56.295 782.693 Q50.427 788.561 40.4212 788.561 Q30.077 788.561 24.0209 782.994 Q17.9271 777.39 17.9271 767.91 Q17.9271 759.409 23.419 754.482 Q28.8733 749.516 38.2771 749.516 M36.2459 756.438 Q30.566 756.513 27.1806 759.635 Q23.7952 762.719 23.7952 767.835 Q23.7952 773.628 27.0677 777.126 Q30.3403 780.587 36.2835 781.113 L36.2459 756.438 Z" fill="#000000" fill-rule="nonzero" fill-opacity="1" /><path clip-path="url(#clip000)" d="M2.61761 721.53 Q11.2692 726.571 19.7327 729.016 Q28.1962 731.461 36.8854 731.461 Q45.5746 731.461 54.1133 729.016 Q62.6144 726.533 71.2284 721.53 L71.2284 727.549 Q62.3887 733.191 53.85 736.012 Q45.3112 738.796 36.8854 738.796 Q28.4971 738.796 19.996 736.012 Q11.4949 733.229 2.61761 727.549 L2.61761 721.53 Z" fill="#000000" fill-rule="nonzero" fill-opacity="1" /><path clip-path="url(#clip000)" d="M2.61761 709.193 L2.61761 703.174 Q11.4949 697.532 19.996 694.748 Q28.4971 691.927 36.8854 691.927 Q45.3112 691.927 53.85 694.748 Q62.3887 697.532 71.2284 703.174 L71.2284 709.193 Q62.6144 704.19 54.1133 701.745 Q45.5746 699.262 36.8854 699.262 Q28.1962 699.262 19.7327 701.745 Q11.2692 704.19 2.61761 709.193 Z" fill="#000000" fill-rule="nonzero" fill-opacity="1" /><circle clip-path="url(#clip002)" cx="342.772" cy="107.76" r="14.4" fill="#009af9" fill-rule="evenodd" fill-opacity="1" stroke="#000000" stroke-opacity="1" stroke-width="4.8"/>
<circle clip-path="url(#clip002)" cx="1024.81" cy="2124.96" r="14.4" fill="#009af9" fill-rule="evenodd" fill-opacity="1" stroke="#000000" stroke-opacity="1" stroke-width="4.8"/>
<circle clip-path="url(#clip002)" cx="2388.88" cy="1771.95" r="14.4" fill="#009af9" fill-rule="evenodd" fill-opacity="1" stroke="#000000" stroke-opacity="1" stroke-width="4.8"/>
<circle clip-path="url(#clip002)" cx="342.772" cy="107.76" r="14.4" fill="#009af9" fill-rule="evenodd" fill-opacity="1" stroke="#000000" stroke-opacity="1" stroke-width="4.8"/>
<circle clip-path="url(#clip002)" cx="1024.81" cy="2124.96" r="14.4" fill="#009af9" fill-rule="evenodd" fill-opacity="1" stroke="#000000" stroke-opacity="1" stroke-width="4.8"/>
<circle clip-path="url(#clip002)" cx="1024.81" cy="2124.96" r="14.4" fill="#009af9" fill-rule="evenodd" fill-opacity="1" stroke="#000000" stroke-opacity="1" stroke-width="4.8"/>
<circle clip-path="url(#clip002)" cx="1024.81" cy="2124.96" r="14.4" fill="#009af9" fill-rule="evenodd" fill-opacity="1" stroke="#000000" stroke-opacity="1" stroke-width="4.8"/>
<circle clip-path="url(#clip002)" cx="2388.88" cy="1771.95" r="14.4" fill="#009af9" fill-rule="evenodd" fill-opacity="1" stroke="#000000" stroke-opacity="1" stroke-width="4.8"/>
<circle clip-path="url(#clip002)" cx="1024.81" cy="1923.24" r="14.4" fill="#009af9" fill-rule="evenodd" fill-opacity="1" stroke="#000000" stroke-opacity="1" stroke-width="4.8"/>
<circle clip-path="url(#clip002)" cx="3070.91" cy="1771.95" r="14.4" fill="#009af9" fill-rule="evenodd" fill-opacity="1" stroke="#000000" stroke-opacity="1" stroke-width="4.8"/>
</svg>
