<?xml version="1.0" encoding="utf-8"?>
<svg xmlns="http://www.w3.org/2000/svg" xmlns:xlink="http://www.w3.org/1999/xlink" width="600" height="400" viewBox="0 0 2400 1600">
<defs>
  <clipPath id="clip440">
    <rect x="0" y="0" width="2400" height="1600"/>
  </clipPath>
</defs>
<path clip-path="url(#clip440)" d="M0 1600 L2400 1600 L2400 0 L0 0  Z" fill="#ffffff" fill-rule="evenodd" fill-opacity="1"/>
<defs>
  <clipPath id="clip441">
    <rect x="480" y="0" width="1681" height="1600"/>
  </clipPath>
</defs>
<path clip-path="url(#clip440)" d="M300.1 1414.54 L2352.76 1414.54 L2352.76 47.2441 L300.1 47.2441  Z" fill="#ffffff" fill-rule="evenodd" fill-opacity="1"/>
<defs>
  <clipPath id="clip442">
    <rect x="300" y="47" width="2054" height="1368"/>
  </clipPath>
</defs>
<polyline clip-path="url(#clip442)" style="stroke:#000000; stroke-linecap:round; stroke-linejoin:round; stroke-width:2; stroke-opacity:0.1; fill:none" points="573.357,1414.54 573.357,47.2441 "/>
<polyline clip-path="url(#clip442)" style="stroke:#000000; stroke-linecap:round; stroke-linejoin:round; stroke-width:2; stroke-opacity:0.1; fill:none" points="1003.68,1414.54 1003.68,47.2441 "/>
<polyline clip-path="url(#clip442)" style="stroke:#000000; stroke-linecap:round; stroke-linejoin:round; stroke-width:2; stroke-opacity:0.1; fill:none" points="1434.01,1414.54 1434.01,47.2441 "/>
<polyline clip-path="url(#clip442)" style="stroke:#000000; stroke-linecap:round; stroke-linejoin:round; stroke-width:2; stroke-opacity:0.1; fill:none" points="1864.34,1414.54 1864.34,47.2441 "/>
<polyline clip-path="url(#clip442)" style="stroke:#000000; stroke-linecap:round; stroke-linejoin:round; stroke-width:2; stroke-opacity:0.1; fill:none" points="2294.66,1414.54 2294.66,47.2441 "/>
<polyline clip-path="url(#clip440)" style="stroke:#000000; stroke-linecap:round; stroke-linejoin:round; stroke-width:4; stroke-opacity:1; fill:none" points="300.1,1414.54 2352.76,1414.54 "/>
<polyline clip-path="url(#clip440)" style="stroke:#000000; stroke-linecap:round; stroke-linejoin:round; stroke-width:4; stroke-opacity:1; fill:none" points="573.357,1414.54 573.357,1395.64 "/>
<polyline clip-path="url(#clip440)" style="stroke:#000000; stroke-linecap:round; stroke-linejoin:round; stroke-width:4; stroke-opacity:1; fill:none" points="1003.68,1414.54 1003.68,1395.64 "/>
<polyline clip-path="url(#clip440)" style="stroke:#000000; stroke-linecap:round; stroke-linejoin:round; stroke-width:4; stroke-opacity:1; fill:none" points="1434.01,1414.54 1434.01,1395.64 "/>
<polyline clip-path="url(#clip440)" style="stroke:#000000; stroke-linecap:round; stroke-linejoin:round; stroke-width:4; stroke-opacity:1; fill:none" points="1864.34,1414.54 1864.34,1395.64 "/>
<polyline clip-path="url(#clip440)" style="stroke:#000000; stroke-linecap:round; stroke-linejoin:round; stroke-width:4; stroke-opacity:1; fill:none" points="2294.66,1414.54 2294.66,1395.64 "/>
<path clip-path="url(#clip440)" d="M527.915 1477.91 L536.509 1477.91 L536.509 1448.25 L527.16 1450.13 L527.16 1445.33 L536.456 1443.46 L541.717 1443.46 L541.717 1477.91 L550.311 1477.91 L550.311 1482.34 L527.915 1482.34 L527.915 1477.91 Z" fill="#000000" fill-rule="nonzero" fill-opacity="1" /><path clip-path="url(#clip440)" d="M572.185 1446.92 Q568.123 1446.92 566.066 1450.93 Q564.034 1454.92 564.034 1462.94 Q564.034 1470.93 566.066 1474.94 Q568.123 1478.93 572.185 1478.93 Q576.274 1478.93 578.305 1474.94 Q580.362 1470.93 580.362 1462.94 Q580.362 1454.92 578.305 1450.93 Q576.274 1446.92 572.185 1446.92 M572.185 1442.76 Q578.722 1442.76 582.159 1447.94 Q585.623 1453.1 585.623 1462.94 Q585.623 1472.76 582.159 1477.94 Q578.722 1483.1 572.185 1483.1 Q565.649 1483.1 562.185 1477.94 Q558.748 1472.76 558.748 1462.94 Q558.748 1453.1 562.185 1447.94 Q565.649 1442.76 572.185 1442.76 Z" fill="#000000" fill-rule="nonzero" fill-opacity="1" /><path clip-path="url(#clip440)" d="M606.118 1446.92 Q602.055 1446.92 599.998 1450.93 Q597.967 1454.92 597.967 1462.94 Q597.967 1470.93 599.998 1474.94 Q602.055 1478.93 606.118 1478.93 Q610.206 1478.93 612.237 1474.94 Q614.295 1470.93 614.295 1462.94 Q614.295 1454.92 612.237 1450.93 Q610.206 1446.92 606.118 1446.92 M606.118 1442.76 Q612.654 1442.76 616.091 1447.94 Q619.555 1453.1 619.555 1462.94 Q619.555 1472.76 616.091 1477.94 Q612.654 1483.1 606.118 1483.1 Q599.581 1483.1 596.118 1477.94 Q592.68 1472.76 592.68 1462.94 Q592.68 1453.1 596.118 1447.94 Q599.581 1442.76 606.118 1442.76 Z" fill="#000000" fill-rule="nonzero" fill-opacity="1" /><path clip-path="url(#clip440)" d="M962.837 1477.91 L981.197 1477.91 L981.197 1482.34 L956.509 1482.34 L956.509 1477.91 Q959.504 1474.81 964.66 1469.61 Q969.842 1464.37 971.171 1462.86 Q973.697 1460.02 974.686 1458.07 Q975.702 1456.09 975.702 1454.19 Q975.702 1451.09 973.514 1449.14 Q971.353 1447.18 967.863 1447.18 Q965.389 1447.18 962.629 1448.04 Q959.895 1448.9 956.77 1450.65 L956.77 1445.33 Q959.947 1444.06 962.707 1443.41 Q965.468 1442.76 967.759 1442.76 Q973.801 1442.76 977.395 1445.78 Q980.988 1448.8 980.988 1453.85 Q980.988 1456.25 980.077 1458.41 Q979.191 1460.54 976.822 1463.46 Q976.171 1464.21 972.681 1467.83 Q969.191 1471.43 962.837 1477.91 Z" fill="#000000" fill-rule="nonzero" fill-opacity="1" /><path clip-path="url(#clip440)" d="M1003.49 1446.92 Q999.426 1446.92 997.368 1450.93 Q995.337 1454.92 995.337 1462.94 Q995.337 1470.93 997.368 1474.94 Q999.426 1478.93 1003.49 1478.93 Q1007.58 1478.93 1009.61 1474.94 Q1011.67 1470.93 1011.67 1462.94 Q1011.67 1454.92 1009.61 1450.93 Q1007.58 1446.92 1003.49 1446.92 M1003.49 1442.76 Q1010.02 1442.76 1013.46 1447.94 Q1016.93 1453.1 1016.93 1462.94 Q1016.93 1472.76 1013.46 1477.94 Q1010.02 1483.1 1003.49 1483.1 Q996.952 1483.1 993.488 1477.94 Q990.051 1472.76 990.051 1462.94 Q990.051 1453.1 993.488 1447.94 Q996.952 1442.76 1003.49 1442.76 Z" fill="#000000" fill-rule="nonzero" fill-opacity="1" /><path clip-path="url(#clip440)" d="M1037.42 1446.92 Q1033.36 1446.92 1031.3 1450.93 Q1029.27 1454.92 1029.27 1462.94 Q1029.27 1470.93 1031.3 1474.94 Q1033.36 1478.93 1037.42 1478.93 Q1041.51 1478.93 1043.54 1474.94 Q1045.6 1470.93 1045.6 1462.94 Q1045.6 1454.92 1043.54 1450.93 Q1041.51 1446.92 1037.42 1446.92 M1037.42 1442.76 Q1043.96 1442.76 1047.39 1447.94 Q1050.86 1453.1 1050.86 1462.94 Q1050.86 1472.76 1047.39 1477.94 Q1043.96 1483.1 1037.42 1483.1 Q1030.88 1483.1 1027.42 1477.94 Q1023.98 1472.76 1023.98 1462.94 Q1023.98 1453.1 1027.42 1447.94 Q1030.88 1442.76 1037.42 1442.76 Z" fill="#000000" fill-rule="nonzero" fill-opacity="1" /><path clip-path="url(#clip440)" d="M1404.49 1461.38 Q1408.27 1462.18 1410.38 1464.74 Q1412.51 1467.29 1412.51 1471.04 Q1412.51 1476.79 1408.55 1479.94 Q1404.6 1483.1 1397.3 1483.1 Q1394.86 1483.1 1392.25 1482.6 Q1389.67 1482.13 1386.91 1481.17 L1386.91 1476.09 Q1389.1 1477.37 1391.71 1478.02 Q1394.31 1478.67 1397.15 1478.67 Q1402.1 1478.67 1404.67 1476.71 Q1407.28 1474.76 1407.28 1471.04 Q1407.28 1467.6 1404.86 1465.67 Q1402.46 1463.72 1398.16 1463.72 L1393.63 1463.72 L1393.63 1459.4 L1398.37 1459.4 Q1402.25 1459.4 1404.31 1457.86 Q1406.37 1456.3 1406.37 1453.38 Q1406.37 1450.39 1404.23 1448.8 Q1402.12 1447.18 1398.16 1447.18 Q1396 1447.18 1393.53 1447.65 Q1391.05 1448.12 1388.09 1449.11 L1388.09 1444.42 Q1391.08 1443.59 1393.68 1443.17 Q1396.31 1442.76 1398.63 1442.76 Q1404.62 1442.76 1408.11 1445.49 Q1411.6 1448.2 1411.6 1452.83 Q1411.6 1456.06 1409.75 1458.3 Q1407.9 1460.52 1404.49 1461.38 Z" fill="#000000" fill-rule="nonzero" fill-opacity="1" /><path clip-path="url(#clip440)" d="M1433.74 1446.92 Q1429.67 1446.92 1427.62 1450.93 Q1425.59 1454.92 1425.59 1462.94 Q1425.59 1470.93 1427.62 1474.94 Q1429.67 1478.93 1433.74 1478.93 Q1437.82 1478.93 1439.86 1474.94 Q1441.91 1470.93 1441.91 1462.94 Q1441.91 1454.92 1439.86 1450.93 Q1437.82 1446.92 1433.74 1446.92 M1433.74 1442.76 Q1440.27 1442.76 1443.71 1447.94 Q1447.17 1453.1 1447.17 1462.94 Q1447.17 1472.76 1443.71 1477.94 Q1440.27 1483.1 1433.74 1483.1 Q1427.2 1483.1 1423.74 1477.94 Q1420.3 1472.76 1420.3 1462.94 Q1420.3 1453.1 1423.74 1447.94 Q1427.2 1442.76 1433.74 1442.76 Z" fill="#000000" fill-rule="nonzero" fill-opacity="1" /><path clip-path="url(#clip440)" d="M1467.67 1446.92 Q1463.61 1446.92 1461.55 1450.93 Q1459.52 1454.92 1459.52 1462.94 Q1459.52 1470.93 1461.55 1474.94 Q1463.61 1478.93 1467.67 1478.93 Q1471.76 1478.93 1473.79 1474.94 Q1475.85 1470.93 1475.85 1462.94 Q1475.85 1454.92 1473.79 1450.93 Q1471.76 1446.92 1467.67 1446.92 M1467.67 1442.76 Q1474.2 1442.76 1477.64 1447.94 Q1481.11 1453.1 1481.11 1462.94 Q1481.11 1472.76 1477.64 1477.94 Q1474.2 1483.1 1467.67 1483.1 Q1461.13 1483.1 1457.67 1477.94 Q1454.23 1472.76 1454.23 1462.94 Q1454.23 1453.1 1457.67 1447.94 Q1461.13 1442.76 1467.67 1442.76 Z" fill="#000000" fill-rule="nonzero" fill-opacity="1" /><path clip-path="url(#clip440)" d="M1834.06 1448.04 L1820.78 1468.8 L1834.06 1468.8 L1834.06 1448.04 M1832.68 1443.46 L1839.3 1443.46 L1839.3 1468.8 L1844.84 1468.8 L1844.84 1473.17 L1839.3 1473.17 L1839.3 1482.34 L1834.06 1482.34 L1834.06 1473.17 L1816.51 1473.17 L1816.51 1468.1 L1832.68 1443.46 Z" fill="#000000" fill-rule="nonzero" fill-opacity="1" /><path clip-path="url(#clip440)" d="M1864.79 1446.92 Q1860.73 1446.92 1858.67 1450.93 Q1856.64 1454.92 1856.64 1462.94 Q1856.64 1470.93 1858.67 1474.94 Q1860.73 1478.93 1864.79 1478.93 Q1868.88 1478.93 1870.91 1474.94 Q1872.97 1470.93 1872.97 1462.94 Q1872.97 1454.92 1870.91 1450.93 Q1868.88 1446.92 1864.79 1446.92 M1864.79 1442.76 Q1871.33 1442.76 1874.77 1447.94 Q1878.23 1453.1 1878.23 1462.94 Q1878.23 1472.76 1874.77 1477.94 Q1871.33 1483.1 1864.79 1483.1 Q1858.26 1483.1 1854.79 1477.94 Q1851.35 1472.76 1851.35 1462.94 Q1851.35 1453.1 1854.79 1447.94 Q1858.26 1442.76 1864.79 1442.76 Z" fill="#000000" fill-rule="nonzero" fill-opacity="1" /><path clip-path="url(#clip440)" d="M1898.72 1446.92 Q1894.66 1446.92 1892.6 1450.93 Q1890.57 1454.92 1890.57 1462.94 Q1890.57 1470.93 1892.6 1474.94 Q1894.66 1478.93 1898.72 1478.93 Q1902.81 1478.93 1904.84 1474.94 Q1906.9 1470.93 1906.9 1462.94 Q1906.9 1454.92 1904.84 1450.93 Q1902.81 1446.92 1898.72 1446.92 M1898.72 1442.76 Q1905.26 1442.76 1908.7 1447.94 Q1912.16 1453.1 1912.16 1462.94 Q1912.16 1472.76 1908.7 1477.94 Q1905.26 1483.1 1898.72 1483.1 Q1892.19 1483.1 1888.72 1477.94 Q1885.29 1472.76 1885.29 1462.94 Q1885.29 1453.1 1888.72 1447.94 Q1892.19 1442.76 1898.72 1442.76 Z" fill="#000000" fill-rule="nonzero" fill-opacity="1" /><path clip-path="url(#clip440)" d="M2249.23 1443.46 L2269.88 1443.46 L2269.88 1447.89 L2254.05 1447.89 L2254.05 1457.42 Q2255.2 1457.03 2256.34 1456.85 Q2257.49 1456.64 2258.63 1456.64 Q2265.14 1456.64 2268.95 1460.2 Q2272.75 1463.77 2272.75 1469.87 Q2272.75 1476.14 2268.84 1479.63 Q2264.94 1483.1 2257.83 1483.1 Q2255.38 1483.1 2252.83 1482.68 Q2250.3 1482.26 2247.59 1481.43 L2247.59 1476.14 Q2249.94 1477.42 2252.44 1478.04 Q2254.94 1478.67 2257.72 1478.67 Q2262.23 1478.67 2264.86 1476.3 Q2267.49 1473.93 2267.49 1469.87 Q2267.49 1465.8 2264.86 1463.43 Q2262.23 1461.06 2257.72 1461.06 Q2255.61 1461.06 2253.5 1461.53 Q2251.42 1462 2249.23 1462.99 L2249.23 1443.46 Z" fill="#000000" fill-rule="nonzero" fill-opacity="1" /><path clip-path="url(#clip440)" d="M2294.36 1446.92 Q2290.3 1446.92 2288.24 1450.93 Q2286.21 1454.92 2286.21 1462.94 Q2286.21 1470.93 2288.24 1474.94 Q2290.3 1478.93 2294.36 1478.93 Q2298.45 1478.93 2300.48 1474.94 Q2302.54 1470.93 2302.54 1462.94 Q2302.54 1454.92 2300.48 1450.93 Q2298.45 1446.92 2294.36 1446.92 M2294.36 1442.76 Q2300.9 1442.76 2304.34 1447.94 Q2307.8 1453.1 2307.8 1462.94 Q2307.8 1472.76 2304.34 1477.94 Q2300.9 1483.1 2294.36 1483.1 Q2287.83 1483.1 2284.36 1477.94 Q2280.92 1472.76 2280.92 1462.94 Q2280.92 1453.1 2284.36 1447.94 Q2287.83 1442.76 2294.36 1442.76 Z" fill="#000000" fill-rule="nonzero" fill-opacity="1" /><path clip-path="url(#clip440)" d="M2328.29 1446.92 Q2324.23 1446.92 2322.17 1450.93 Q2320.14 1454.92 2320.14 1462.94 Q2320.14 1470.93 2322.17 1474.94 Q2324.23 1478.93 2328.29 1478.93 Q2332.38 1478.93 2334.41 1474.94 Q2336.47 1470.93 2336.47 1462.94 Q2336.47 1454.92 2334.41 1450.93 Q2332.38 1446.92 2328.29 1446.92 M2328.29 1442.76 Q2334.83 1442.76 2338.27 1447.94 Q2341.73 1453.1 2341.73 1462.94 Q2341.73 1472.76 2338.27 1477.94 Q2334.83 1483.1 2328.29 1483.1 Q2321.76 1483.1 2318.29 1477.94 Q2314.86 1472.76 2314.86 1462.94 Q2314.86 1453.1 2318.29 1447.94 Q2321.76 1442.76 2328.29 1442.76 Z" fill="#000000" fill-rule="nonzero" fill-opacity="1" /><path clip-path="url(#clip440)" d="M1010.2 1519.23 L1019.64 1519.23 L1042.63 1562.6 L1042.63 1519.23 L1049.43 1519.23 L1049.43 1571.07 L1039.99 1571.07 L1017 1527.7 L1017 1571.07 L1010.2 1571.07 L1010.2 1519.23 Z" fill="#000000" fill-rule="nonzero" fill-opacity="1" /><path clip-path="url(#clip440)" d="M1062.45 1555.72 L1062.45 1532.18 L1068.84 1532.18 L1068.84 1555.48 Q1068.84 1561 1071 1563.78 Q1073.15 1566.52 1077.45 1566.52 Q1082.63 1566.52 1085.61 1563.22 Q1088.63 1559.92 1088.63 1554.23 L1088.63 1532.18 L1095.02 1532.18 L1095.02 1571.07 L1088.63 1571.07 L1088.63 1565.1 Q1086.31 1568.64 1083.22 1570.37 Q1080.16 1572.07 1076.1 1572.07 Q1069.4 1572.07 1065.93 1567.91 Q1062.45 1563.74 1062.45 1555.72 M1078.53 1531.24 L1078.53 1531.24 Z" fill="#000000" fill-rule="nonzero" fill-opacity="1" /><path clip-path="url(#clip440)" d="M1138.46 1539.64 Q1140.86 1535.34 1144.19 1533.29 Q1147.52 1531.24 1152.04 1531.24 Q1158.11 1531.24 1161.41 1535.51 Q1164.71 1539.75 1164.71 1547.6 L1164.71 1571.07 L1158.29 1571.07 L1158.29 1547.8 Q1158.29 1542.21 1156.31 1539.51 Q1154.33 1536.8 1150.27 1536.8 Q1145.3 1536.8 1142.42 1540.1 Q1139.54 1543.39 1139.54 1549.09 L1139.54 1571.07 L1133.11 1571.07 L1133.11 1547.8 Q1133.11 1542.18 1131.13 1539.51 Q1129.15 1536.8 1125.02 1536.8 Q1120.13 1536.8 1117.25 1540.13 Q1114.36 1543.43 1114.36 1549.09 L1114.36 1571.07 L1107.94 1571.07 L1107.94 1532.18 L1114.36 1532.18 L1114.36 1538.22 Q1116.55 1534.64 1119.61 1532.94 Q1122.66 1531.24 1126.86 1531.24 Q1131.1 1531.24 1134.05 1533.39 Q1137.04 1535.55 1138.46 1539.64 Z" fill="#000000" fill-rule="nonzero" fill-opacity="1" /><path clip-path="url(#clip440)" d="M1205.37 1551.66 Q1205.37 1544.61 1202.45 1540.62 Q1199.57 1536.59 1194.5 1536.59 Q1189.43 1536.59 1186.52 1540.62 Q1183.63 1544.61 1183.63 1551.66 Q1183.63 1558.71 1186.52 1562.73 Q1189.43 1566.73 1194.5 1566.73 Q1199.57 1566.73 1202.45 1562.73 Q1205.37 1558.71 1205.37 1551.66 M1183.63 1538.08 Q1185.65 1534.61 1188.7 1532.94 Q1191.79 1531.24 1196.06 1531.24 Q1203.15 1531.24 1207.56 1536.87 Q1212 1542.49 1212 1551.66 Q1212 1560.82 1207.56 1566.45 Q1203.15 1572.07 1196.06 1572.07 Q1191.79 1572.07 1188.7 1570.41 Q1185.65 1568.71 1183.63 1565.23 L1183.63 1571.07 L1177.21 1571.07 L1177.21 1517.04 L1183.63 1517.04 L1183.63 1538.08 Z" fill="#000000" fill-rule="nonzero" fill-opacity="1" /><path clip-path="url(#clip440)" d="M1255.86 1550.03 L1255.86 1553.15 L1226.48 1553.15 Q1226.9 1559.75 1230.44 1563.22 Q1234.02 1566.66 1240.37 1566.66 Q1244.05 1566.66 1247.49 1565.76 Q1250.96 1564.85 1254.36 1563.05 L1254.36 1569.09 Q1250.92 1570.55 1247.31 1571.31 Q1243.7 1572.07 1239.99 1572.07 Q1230.68 1572.07 1225.23 1566.66 Q1219.81 1561.24 1219.81 1552.01 Q1219.81 1542.46 1224.95 1536.87 Q1230.13 1531.24 1238.88 1531.24 Q1246.72 1531.24 1251.27 1536.31 Q1255.86 1541.35 1255.86 1550.03 M1249.47 1548.15 Q1249.4 1542.91 1246.52 1539.78 Q1243.67 1536.66 1238.95 1536.66 Q1233.6 1536.66 1230.37 1539.68 Q1227.18 1542.7 1226.69 1548.19 L1249.47 1548.15 Z" fill="#000000" fill-rule="nonzero" fill-opacity="1" /><path clip-path="url(#clip440)" d="M1288.88 1538.15 Q1287.8 1537.53 1286.52 1537.25 Q1285.27 1536.94 1283.74 1536.94 Q1278.32 1536.94 1275.4 1540.48 Q1272.52 1543.98 1272.52 1550.58 L1272.52 1571.07 L1266.1 1571.07 L1266.1 1532.18 L1272.52 1532.18 L1272.52 1538.22 Q1274.54 1534.68 1277.77 1532.98 Q1280.99 1531.24 1285.61 1531.24 Q1286.27 1531.24 1287.07 1531.35 Q1287.87 1531.42 1288.84 1531.59 L1288.88 1538.15 Z" fill="#000000" fill-rule="nonzero" fill-opacity="1" /><path clip-path="url(#clip440)" d="M1333.25 1536.66 Q1328.11 1536.66 1325.13 1540.69 Q1322.14 1544.68 1322.14 1551.66 Q1322.14 1558.64 1325.09 1562.67 Q1328.08 1566.66 1333.25 1566.66 Q1338.36 1566.66 1341.34 1562.63 Q1344.33 1558.6 1344.33 1551.66 Q1344.33 1544.75 1341.34 1540.72 Q1338.36 1536.66 1333.25 1536.66 M1333.25 1531.24 Q1341.58 1531.24 1346.34 1536.66 Q1351.1 1542.07 1351.1 1551.66 Q1351.1 1561.21 1346.34 1566.66 Q1341.58 1572.07 1333.25 1572.07 Q1324.88 1572.07 1320.13 1566.66 Q1315.4 1561.21 1315.4 1551.66 Q1315.4 1542.07 1320.13 1536.66 Q1324.88 1531.24 1333.25 1531.24 Z" fill="#000000" fill-rule="nonzero" fill-opacity="1" /><path clip-path="url(#clip440)" d="M1381.38 1517.04 L1381.38 1522.35 L1375.26 1522.35 Q1371.83 1522.35 1370.47 1523.74 Q1369.15 1525.13 1369.15 1528.74 L1369.15 1532.18 L1379.67 1532.18 L1379.67 1537.14 L1369.15 1537.14 L1369.15 1571.07 L1362.73 1571.07 L1362.73 1537.14 L1356.62 1537.14 L1356.62 1532.18 L1362.73 1532.18 L1362.73 1529.47 Q1362.73 1522.98 1365.75 1520.03 Q1368.77 1517.04 1375.33 1517.04 L1381.38 1517.04 Z" fill="#000000" fill-rule="nonzero" fill-opacity="1" /><path clip-path="url(#clip440)" d="M1431.86 1538.15 Q1430.79 1537.53 1429.5 1537.25 Q1428.25 1536.94 1426.72 1536.94 Q1421.31 1536.94 1418.39 1540.48 Q1415.51 1543.98 1415.51 1550.58 L1415.51 1571.07 L1409.08 1571.07 L1409.08 1532.18 L1415.51 1532.18 L1415.51 1538.22 Q1417.52 1534.68 1420.75 1532.98 Q1423.98 1531.24 1428.6 1531.24 Q1429.26 1531.24 1430.06 1531.35 Q1430.85 1531.42 1431.83 1531.59 L1431.86 1538.15 Z" fill="#000000" fill-rule="nonzero" fill-opacity="1" /><path clip-path="url(#clip440)" d="M1452.07 1536.66 Q1446.93 1536.66 1443.94 1540.69 Q1440.96 1544.68 1440.96 1551.66 Q1440.96 1558.64 1443.91 1562.67 Q1446.9 1566.66 1452.07 1566.66 Q1457.17 1566.66 1460.16 1562.63 Q1463.15 1558.6 1463.15 1551.66 Q1463.15 1544.75 1460.16 1540.72 Q1457.17 1536.66 1452.07 1536.66 M1452.07 1531.24 Q1460.4 1531.24 1465.16 1536.66 Q1469.92 1542.07 1469.92 1551.66 Q1469.92 1561.21 1465.16 1566.66 Q1460.4 1572.07 1452.07 1572.07 Q1443.7 1572.07 1438.94 1566.66 Q1434.22 1561.21 1434.22 1551.66 Q1434.22 1542.07 1438.94 1536.66 Q1443.7 1531.24 1452.07 1531.24 Z" fill="#000000" fill-rule="nonzero" fill-opacity="1" /><path clip-path="url(#clip440)" d="M1479.85 1555.72 L1479.85 1532.18 L1486.24 1532.18 L1486.24 1555.48 Q1486.24 1561 1488.39 1563.78 Q1490.54 1566.52 1494.85 1566.52 Q1500.02 1566.52 1503.01 1563.22 Q1506.03 1559.92 1506.03 1554.23 L1506.03 1532.18 L1512.42 1532.18 L1512.42 1571.07 L1506.03 1571.07 L1506.03 1565.1 Q1503.7 1568.64 1500.61 1570.37 Q1497.56 1572.07 1493.49 1572.07 Q1486.79 1572.07 1483.32 1567.91 Q1479.85 1563.74 1479.85 1555.72 M1495.92 1531.24 L1495.92 1531.24 Z" fill="#000000" fill-rule="nonzero" fill-opacity="1" /><path clip-path="url(#clip440)" d="M1557.9 1547.6 L1557.9 1571.07 L1551.51 1571.07 L1551.51 1547.8 Q1551.51 1542.28 1549.36 1539.54 Q1547.21 1536.8 1542.9 1536.8 Q1537.73 1536.8 1534.74 1540.1 Q1531.76 1543.39 1531.76 1549.09 L1531.76 1571.07 L1525.33 1571.07 L1525.33 1532.18 L1531.76 1532.18 L1531.76 1538.22 Q1534.05 1534.71 1537.14 1532.98 Q1540.26 1531.24 1544.33 1531.24 Q1551.03 1531.24 1554.47 1535.41 Q1557.9 1539.54 1557.9 1547.6 Z" fill="#000000" fill-rule="nonzero" fill-opacity="1" /><path clip-path="url(#clip440)" d="M1596.24 1538.08 L1596.24 1517.04 L1602.62 1517.04 L1602.62 1571.07 L1596.24 1571.07 L1596.24 1565.23 Q1594.22 1568.71 1591.13 1570.41 Q1588.08 1572.07 1583.77 1572.07 Q1576.72 1572.07 1572.28 1566.45 Q1567.87 1560.82 1567.87 1551.66 Q1567.87 1542.49 1572.28 1536.87 Q1576.72 1531.24 1583.77 1531.24 Q1588.08 1531.24 1591.13 1532.94 Q1594.22 1534.61 1596.24 1538.08 M1574.46 1551.66 Q1574.46 1558.71 1577.35 1562.73 Q1580.26 1566.73 1585.33 1566.73 Q1590.4 1566.73 1593.32 1562.73 Q1596.24 1558.71 1596.24 1551.66 Q1596.24 1544.61 1593.32 1540.62 Q1590.4 1536.59 1585.33 1536.59 Q1580.26 1536.59 1577.35 1540.62 Q1574.46 1544.61 1574.46 1551.66 Z" fill="#000000" fill-rule="nonzero" fill-opacity="1" /><path clip-path="url(#clip440)" d="M1640.58 1533.32 L1640.58 1539.37 Q1637.87 1537.98 1634.95 1537.28 Q1632.03 1536.59 1628.91 1536.59 Q1624.15 1536.59 1621.76 1538.05 Q1619.4 1539.51 1619.4 1542.42 Q1619.4 1544.64 1621.1 1545.93 Q1622.8 1547.18 1627.94 1548.32 L1630.12 1548.81 Q1636.93 1550.27 1639.78 1552.94 Q1642.66 1555.58 1642.66 1560.34 Q1642.66 1565.76 1638.35 1568.92 Q1634.08 1572.07 1626.58 1572.07 Q1623.46 1572.07 1620.05 1571.45 Q1616.69 1570.86 1612.94 1569.64 L1612.94 1563.05 Q1616.48 1564.89 1619.92 1565.82 Q1623.35 1566.73 1626.72 1566.73 Q1631.24 1566.73 1633.67 1565.2 Q1636.1 1563.64 1636.1 1560.82 Q1636.1 1558.22 1634.33 1556.83 Q1632.59 1555.44 1626.65 1554.16 L1624.43 1553.64 Q1618.49 1552.39 1615.85 1549.82 Q1613.21 1547.21 1613.21 1542.7 Q1613.21 1537.21 1617.1 1534.23 Q1620.99 1531.24 1628.15 1531.24 Q1631.69 1531.24 1634.81 1531.76 Q1637.94 1532.28 1640.58 1533.32 Z" fill="#000000" fill-rule="nonzero" fill-opacity="1" /><polyline clip-path="url(#clip442)" style="stroke:#000000; stroke-linecap:round; stroke-linejoin:round; stroke-width:2; stroke-opacity:0.1; fill:none" points="300.1,1214.76 2352.76,1214.76 "/>
<polyline clip-path="url(#clip442)" style="stroke:#000000; stroke-linecap:round; stroke-linejoin:round; stroke-width:2; stroke-opacity:0.1; fill:none" points="300.1,969.122 2352.76,969.122 "/>
<polyline clip-path="url(#clip442)" style="stroke:#000000; stroke-linecap:round; stroke-linejoin:round; stroke-width:2; stroke-opacity:0.1; fill:none" points="300.1,723.488 2352.76,723.488 "/>
<polyline clip-path="url(#clip442)" style="stroke:#000000; stroke-linecap:round; stroke-linejoin:round; stroke-width:2; stroke-opacity:0.1; fill:none" points="300.1,477.854 2352.76,477.854 "/>
<polyline clip-path="url(#clip442)" style="stroke:#000000; stroke-linecap:round; stroke-linejoin:round; stroke-width:2; stroke-opacity:0.1; fill:none" points="300.1,232.219 2352.76,232.219 "/>
<polyline clip-path="url(#clip440)" style="stroke:#000000; stroke-linecap:round; stroke-linejoin:round; stroke-width:4; stroke-opacity:1; fill:none" points="300.1,1414.54 300.1,47.2441 "/>
<polyline clip-path="url(#clip440)" style="stroke:#000000; stroke-linecap:round; stroke-linejoin:round; stroke-width:4; stroke-opacity:1; fill:none" points="300.1,1214.76 318.998,1214.76 "/>
<polyline clip-path="url(#clip440)" style="stroke:#000000; stroke-linecap:round; stroke-linejoin:round; stroke-width:4; stroke-opacity:1; fill:none" points="300.1,969.122 318.998,969.122 "/>
<polyline clip-path="url(#clip440)" style="stroke:#000000; stroke-linecap:round; stroke-linejoin:round; stroke-width:4; stroke-opacity:1; fill:none" points="300.1,723.488 318.998,723.488 "/>
<polyline clip-path="url(#clip440)" style="stroke:#000000; stroke-linecap:round; stroke-linejoin:round; stroke-width:4; stroke-opacity:1; fill:none" points="300.1,477.854 318.998,477.854 "/>
<polyline clip-path="url(#clip440)" style="stroke:#000000; stroke-linecap:round; stroke-linejoin:round; stroke-width:4; stroke-opacity:1; fill:none" points="300.1,232.219 318.998,232.219 "/>
<path clip-path="url(#clip440)" d="M132.122 1198.78 Q128.059 1198.78 126.002 1202.79 Q123.971 1206.77 123.971 1214.8 Q123.971 1222.79 126.002 1226.8 Q128.059 1230.79 132.122 1230.79 Q136.21 1230.79 138.242 1226.8 Q140.299 1222.79 140.299 1214.8 Q140.299 1206.77 138.242 1202.79 Q136.21 1198.78 132.122 1198.78 M132.122 1194.61 Q138.658 1194.61 142.096 1199.8 Q145.559 1204.95 145.559 1214.8 Q145.559 1224.61 142.096 1229.8 Q138.658 1234.95 132.122 1234.95 Q125.585 1234.95 122.122 1229.8 Q118.684 1224.61 118.684 1214.8 Q118.684 1204.95 122.122 1199.8 Q125.585 1194.61 132.122 1194.61 Z" fill="#000000" fill-rule="nonzero" fill-opacity="1" /><path clip-path="url(#clip440)" d="M154.804 1227.58 L160.299 1227.58 L160.299 1234.2 L154.804 1234.2 L154.804 1227.58 Z" fill="#000000" fill-rule="nonzero" fill-opacity="1" /><path clip-path="url(#clip440)" d="M171.913 1233.39 L171.913 1228.6 Q173.892 1229.54 175.924 1230.03 Q177.955 1230.52 179.908 1230.52 Q185.116 1230.52 187.851 1227.04 Q190.611 1223.52 191.002 1216.38 Q189.491 1218.62 187.174 1219.82 Q184.856 1221.02 182.043 1221.02 Q176.21 1221.02 172.799 1217.5 Q169.413 1213.96 169.413 1207.84 Q169.413 1201.85 172.955 1198.23 Q176.497 1194.61 182.382 1194.61 Q189.127 1194.61 192.668 1199.8 Q196.236 1204.95 196.236 1214.8 Q196.236 1223.99 191.861 1229.48 Q187.512 1234.95 180.142 1234.95 Q178.163 1234.95 176.132 1234.56 Q174.101 1234.17 171.913 1233.39 M182.382 1216.91 Q185.924 1216.91 187.981 1214.48 Q190.064 1212.06 190.064 1207.84 Q190.064 1203.65 187.981 1201.23 Q185.924 1198.78 182.382 1198.78 Q178.84 1198.78 176.757 1201.23 Q174.7 1203.65 174.7 1207.84 Q174.7 1212.06 176.757 1214.48 Q178.84 1216.91 182.382 1216.91 Z" fill="#000000" fill-rule="nonzero" fill-opacity="1" /><path clip-path="url(#clip440)" d="M217.59 1212.66 Q214.048 1212.66 211.965 1215.08 Q209.908 1217.5 209.908 1221.72 Q209.908 1225.92 211.965 1228.36 Q214.048 1230.79 217.59 1230.79 Q221.132 1230.79 223.189 1228.36 Q225.272 1225.92 225.272 1221.72 Q225.272 1217.5 223.189 1215.08 Q221.132 1212.66 217.59 1212.66 M228.033 1196.18 L228.033 1200.97 Q226.054 1200.03 224.022 1199.54 Q222.017 1199.04 220.038 1199.04 Q214.83 1199.04 212.069 1202.56 Q209.335 1206.07 208.944 1213.18 Q210.481 1210.92 212.798 1209.72 Q215.116 1208.49 217.903 1208.49 Q223.762 1208.49 227.147 1212.06 Q230.559 1215.6 230.559 1221.72 Q230.559 1227.71 227.017 1231.33 Q223.475 1234.95 217.59 1234.95 Q210.845 1234.95 207.278 1229.8 Q203.71 1224.61 203.71 1214.8 Q203.71 1205.58 208.085 1200.11 Q212.46 1194.61 219.83 1194.61 Q221.809 1194.61 223.814 1195 Q225.845 1195.39 228.033 1196.18 Z" fill="#000000" fill-rule="nonzero" fill-opacity="1" /><path clip-path="url(#clip440)" d="M239.777 1233.39 L239.777 1228.6 Q241.757 1229.54 243.788 1230.03 Q245.819 1230.52 247.772 1230.52 Q252.98 1230.52 255.715 1227.04 Q258.475 1223.52 258.866 1216.38 Q257.355 1218.62 255.038 1219.82 Q252.72 1221.02 249.908 1221.02 Q244.074 1221.02 240.663 1217.5 Q237.277 1213.96 237.277 1207.84 Q237.277 1201.85 240.819 1198.23 Q244.361 1194.61 250.246 1194.61 Q256.991 1194.61 260.533 1199.8 Q264.1 1204.95 264.1 1214.8 Q264.1 1223.99 259.725 1229.48 Q255.376 1234.95 248.007 1234.95 Q246.027 1234.95 243.996 1234.56 Q241.965 1234.17 239.777 1233.39 M250.246 1216.91 Q253.788 1216.91 255.845 1214.48 Q257.928 1212.06 257.928 1207.84 Q257.928 1203.65 255.845 1201.23 Q253.788 1198.78 250.246 1198.78 Q246.704 1198.78 244.621 1201.23 Q242.564 1203.65 242.564 1207.84 Q242.564 1212.06 244.621 1214.48 Q246.704 1216.91 250.246 1216.91 Z" fill="#000000" fill-rule="nonzero" fill-opacity="1" /><path clip-path="url(#clip440)" d="M133.71 953.146 Q129.648 953.146 127.591 957.156 Q125.559 961.141 125.559 969.161 Q125.559 977.156 127.591 981.167 Q129.648 985.151 133.71 985.151 Q137.799 985.151 139.83 981.167 Q141.887 977.156 141.887 969.161 Q141.887 961.141 139.83 957.156 Q137.799 953.146 133.71 953.146 M133.71 948.979 Q140.247 948.979 143.684 954.162 Q147.148 959.318 147.148 969.161 Q147.148 978.979 143.684 984.161 Q140.247 989.318 133.71 989.318 Q127.174 989.318 123.71 984.161 Q120.273 978.979 120.273 969.161 Q120.273 959.318 123.71 954.162 Q127.174 948.979 133.71 948.979 Z" fill="#000000" fill-rule="nonzero" fill-opacity="1" /><path clip-path="url(#clip440)" d="M156.392 981.948 L161.887 981.948 L161.887 988.562 L156.392 988.562 L156.392 981.948 Z" fill="#000000" fill-rule="nonzero" fill-opacity="1" /><path clip-path="url(#clip440)" d="M173.502 987.755 L173.502 982.963 Q175.481 983.901 177.512 984.396 Q179.543 984.891 181.496 984.891 Q186.705 984.891 189.439 981.401 Q192.2 977.885 192.59 970.75 Q191.08 972.99 188.762 974.187 Q186.444 975.385 183.632 975.385 Q177.799 975.385 174.387 971.87 Q171.002 968.328 171.002 962.208 Q171.002 956.219 174.543 952.599 Q178.085 948.979 183.97 948.979 Q190.715 948.979 194.257 954.162 Q197.825 959.318 197.825 969.161 Q197.825 978.354 193.45 983.849 Q189.101 989.318 181.731 989.318 Q179.752 989.318 177.72 988.927 Q175.689 988.536 173.502 987.755 M183.97 971.271 Q187.512 971.271 189.569 968.849 Q191.653 966.427 191.653 962.208 Q191.653 958.016 189.569 955.594 Q187.512 953.146 183.97 953.146 Q180.429 953.146 178.345 955.594 Q176.288 958.016 176.288 962.208 Q176.288 966.427 178.345 968.849 Q180.429 971.271 183.97 971.271 Z" fill="#000000" fill-rule="nonzero" fill-opacity="1" /><path clip-path="url(#clip440)" d="M205.949 949.682 L230.949 949.682 L230.949 951.922 L216.835 988.562 L211.34 988.562 L224.621 954.109 L205.949 954.109 L205.949 949.682 Z" fill="#000000" fill-rule="nonzero" fill-opacity="1" /><path clip-path="url(#clip440)" d="M245.741 984.135 L264.1 984.135 L264.1 988.562 L239.413 988.562 L239.413 984.135 Q242.408 981.036 247.564 975.828 Q252.746 970.594 254.074 969.083 Q256.6 966.245 257.59 964.292 Q258.605 962.313 258.605 960.411 Q258.605 957.313 256.418 955.359 Q254.257 953.406 250.767 953.406 Q248.293 953.406 245.533 954.266 Q242.798 955.125 239.673 956.87 L239.673 951.557 Q242.85 950.281 245.611 949.63 Q248.371 948.979 250.663 948.979 Q256.704 948.979 260.298 952 Q263.892 955.021 263.892 960.073 Q263.892 962.469 262.98 964.63 Q262.095 966.766 259.725 969.682 Q259.074 970.437 255.585 974.057 Q252.095 977.651 245.741 984.135 Z" fill="#000000" fill-rule="nonzero" fill-opacity="1" /><path clip-path="url(#clip440)" d="M133.033 707.512 Q128.971 707.512 126.913 711.522 Q124.882 715.506 124.882 723.527 Q124.882 731.522 126.913 735.532 Q128.971 739.517 133.033 739.517 Q137.122 739.517 139.153 735.532 Q141.21 731.522 141.21 723.527 Q141.21 715.506 139.153 711.522 Q137.122 707.512 133.033 707.512 M133.033 703.345 Q139.57 703.345 143.007 708.527 Q146.471 713.683 146.471 723.527 Q146.471 733.345 143.007 738.527 Q139.57 743.683 133.033 743.683 Q126.497 743.683 123.033 738.527 Q119.596 733.345 119.596 723.527 Q119.596 713.683 123.033 708.527 Q126.497 703.345 133.033 703.345 Z" fill="#000000" fill-rule="nonzero" fill-opacity="1" /><path clip-path="url(#clip440)" d="M155.715 736.313 L161.21 736.313 L161.21 742.928 L155.715 742.928 L155.715 736.313 Z" fill="#000000" fill-rule="nonzero" fill-opacity="1" /><path clip-path="url(#clip440)" d="M172.825 742.121 L172.825 737.329 Q174.804 738.267 176.835 738.761 Q178.866 739.256 180.819 739.256 Q186.028 739.256 188.762 735.767 Q191.522 732.251 191.913 725.116 Q190.403 727.355 188.085 728.553 Q185.767 729.751 182.955 729.751 Q177.122 729.751 173.71 726.235 Q170.325 722.694 170.325 716.574 Q170.325 710.584 173.866 706.965 Q177.408 703.345 183.293 703.345 Q190.038 703.345 193.58 708.527 Q197.147 713.683 197.147 723.527 Q197.147 732.72 192.772 738.215 Q188.424 743.683 181.054 743.683 Q179.075 743.683 177.043 743.293 Q175.012 742.902 172.825 742.121 M183.293 725.636 Q186.835 725.636 188.892 723.215 Q190.976 720.793 190.976 716.574 Q190.976 712.381 188.892 709.959 Q186.835 707.512 183.293 707.512 Q179.752 707.512 177.668 709.959 Q175.611 712.381 175.611 716.574 Q175.611 720.793 177.668 723.215 Q179.752 725.636 183.293 725.636 Z" fill="#000000" fill-rule="nonzero" fill-opacity="1" /><path clip-path="url(#clip440)" d="M205.272 704.048 L230.272 704.048 L230.272 706.288 L216.158 742.928 L210.663 742.928 L223.944 708.475 L205.272 708.475 L205.272 704.048 Z" fill="#000000" fill-rule="nonzero" fill-opacity="1" /><path clip-path="url(#clip440)" d="M240.585 704.048 L261.236 704.048 L261.236 708.475 L245.402 708.475 L245.402 718.006 Q246.548 717.616 247.694 717.433 Q248.84 717.225 249.986 717.225 Q256.496 717.225 260.298 720.793 Q264.1 724.36 264.1 730.454 Q264.1 736.73 260.194 740.22 Q256.288 743.683 249.178 743.683 Q246.731 743.683 244.178 743.267 Q241.652 742.85 238.944 742.017 L238.944 736.73 Q241.288 738.006 243.788 738.631 Q246.288 739.256 249.074 739.256 Q253.579 739.256 256.21 736.886 Q258.84 734.517 258.84 730.454 Q258.84 726.392 256.21 724.022 Q253.579 721.652 249.074 721.652 Q246.965 721.652 244.856 722.121 Q242.772 722.59 240.585 723.579 L240.585 704.048 Z" fill="#000000" fill-rule="nonzero" fill-opacity="1" /><path clip-path="url(#clip440)" d="M132.018 461.877 Q127.955 461.877 125.898 465.888 Q123.867 469.872 123.867 477.893 Q123.867 485.888 125.898 489.898 Q127.955 493.882 132.018 493.882 Q136.106 493.882 138.137 489.898 Q140.195 485.888 140.195 477.893 Q140.195 469.872 138.137 465.888 Q136.106 461.877 132.018 461.877 M132.018 457.711 Q138.554 457.711 141.991 462.893 Q145.455 468.049 145.455 477.893 Q145.455 487.71 141.991 492.893 Q138.554 498.049 132.018 498.049 Q125.481 498.049 122.018 492.893 Q118.58 487.71 118.58 477.893 Q118.58 468.049 122.018 462.893 Q125.481 457.711 132.018 457.711 Z" fill="#000000" fill-rule="nonzero" fill-opacity="1" /><path clip-path="url(#clip440)" d="M154.7 490.679 L160.195 490.679 L160.195 497.294 L154.7 497.294 L154.7 490.679 Z" fill="#000000" fill-rule="nonzero" fill-opacity="1" /><path clip-path="url(#clip440)" d="M171.809 496.486 L171.809 491.695 Q173.788 492.632 175.819 493.127 Q177.851 493.622 179.804 493.622 Q185.012 493.622 187.746 490.132 Q190.507 486.617 190.897 479.481 Q189.387 481.721 187.069 482.919 Q184.752 484.117 181.939 484.117 Q176.106 484.117 172.694 480.601 Q169.309 477.059 169.309 470.94 Q169.309 464.95 172.851 461.33 Q176.392 457.711 182.278 457.711 Q189.022 457.711 192.564 462.893 Q196.132 468.049 196.132 477.893 Q196.132 487.085 191.757 492.58 Q187.408 498.049 180.038 498.049 Q178.059 498.049 176.028 497.658 Q173.997 497.268 171.809 496.486 M182.278 480.002 Q185.819 480.002 187.877 477.58 Q189.96 475.158 189.96 470.94 Q189.96 466.747 187.877 464.325 Q185.819 461.877 182.278 461.877 Q178.736 461.877 176.653 464.325 Q174.595 466.747 174.595 470.94 Q174.595 475.158 176.653 477.58 Q178.736 480.002 182.278 480.002 Z" fill="#000000" fill-rule="nonzero" fill-opacity="1" /><path clip-path="url(#clip440)" d="M204.257 458.414 L229.257 458.414 L229.257 460.653 L215.142 497.294 L209.647 497.294 L222.929 462.841 L204.257 462.841 L204.257 458.414 Z" fill="#000000" fill-rule="nonzero" fill-opacity="1" /><path clip-path="url(#clip440)" d="M250.767 478.83 Q247.017 478.83 244.856 480.835 Q242.72 482.841 242.72 486.356 Q242.72 489.872 244.856 491.877 Q247.017 493.882 250.767 493.882 Q254.517 493.882 256.678 491.877 Q258.84 489.846 258.84 486.356 Q258.84 482.841 256.678 480.835 Q254.543 478.83 250.767 478.83 M245.507 476.591 Q242.121 475.757 240.22 473.44 Q238.345 471.122 238.345 467.789 Q238.345 463.127 241.652 460.419 Q244.986 457.711 250.767 457.711 Q256.574 457.711 259.881 460.419 Q263.189 463.127 263.189 467.789 Q263.189 471.122 261.288 473.44 Q259.413 475.757 256.053 476.591 Q259.855 477.476 261.965 480.054 Q264.1 482.632 264.1 486.356 Q264.1 492.007 260.637 495.028 Q257.199 498.049 250.767 498.049 Q244.335 498.049 240.871 495.028 Q237.434 492.007 237.434 486.356 Q237.434 482.632 239.569 480.054 Q241.704 477.476 245.507 476.591 M243.579 468.283 Q243.579 471.304 245.454 472.997 Q247.356 474.69 250.767 474.69 Q254.152 474.69 256.053 472.997 Q257.98 471.304 257.98 468.283 Q257.98 465.263 256.053 463.57 Q254.152 461.877 250.767 461.877 Q247.356 461.877 245.454 463.57 Q243.579 465.263 243.579 468.283 Z" fill="#000000" fill-rule="nonzero" fill-opacity="1" /><path clip-path="url(#clip440)" d="M133.294 216.243 Q129.231 216.243 127.174 220.253 Q125.143 224.238 125.143 232.258 Q125.143 240.253 127.174 244.264 Q129.231 248.248 133.294 248.248 Q137.382 248.248 139.413 244.264 Q141.471 240.253 141.471 232.258 Q141.471 224.238 139.413 220.253 Q137.382 216.243 133.294 216.243 M133.294 212.076 Q139.83 212.076 143.268 217.259 Q146.731 222.415 146.731 232.258 Q146.731 242.076 143.268 247.258 Q139.83 252.415 133.294 252.415 Q126.757 252.415 123.294 247.258 Q119.856 242.076 119.856 232.258 Q119.856 222.415 123.294 217.259 Q126.757 212.076 133.294 212.076 Z" fill="#000000" fill-rule="nonzero" fill-opacity="1" /><path clip-path="url(#clip440)" d="M155.976 245.045 L161.471 245.045 L161.471 251.659 L155.976 251.659 L155.976 245.045 Z" fill="#000000" fill-rule="nonzero" fill-opacity="1" /><path clip-path="url(#clip440)" d="M173.085 250.852 L173.085 246.06 Q175.064 246.998 177.095 247.493 Q179.127 247.988 181.08 247.988 Q186.288 247.988 189.022 244.498 Q191.783 240.982 192.174 233.847 Q190.663 236.087 188.345 237.284 Q186.028 238.482 183.215 238.482 Q177.382 238.482 173.97 234.967 Q170.585 231.425 170.585 225.305 Q170.585 219.316 174.127 215.696 Q177.668 212.076 183.554 212.076 Q190.299 212.076 193.84 217.259 Q197.408 222.415 197.408 232.258 Q197.408 241.451 193.033 246.946 Q188.684 252.415 181.314 252.415 Q179.335 252.415 177.304 252.024 Q175.273 251.633 173.085 250.852 M183.554 234.368 Q187.095 234.368 189.153 231.946 Q191.236 229.524 191.236 225.305 Q191.236 221.113 189.153 218.691 Q187.095 216.243 183.554 216.243 Q180.012 216.243 177.929 218.691 Q175.872 221.113 175.872 225.305 Q175.872 229.524 177.929 231.946 Q180.012 234.368 183.554 234.368 Z" fill="#000000" fill-rule="nonzero" fill-opacity="1" /><path clip-path="url(#clip440)" d="M218.111 233.196 Q214.361 233.196 212.199 235.201 Q210.064 237.206 210.064 240.722 Q210.064 244.238 212.199 246.243 Q214.361 248.248 218.111 248.248 Q221.861 248.248 224.022 246.243 Q226.184 244.211 226.184 240.722 Q226.184 237.206 224.022 235.201 Q221.887 233.196 218.111 233.196 M212.85 230.956 Q209.465 230.123 207.564 227.805 Q205.689 225.488 205.689 222.154 Q205.689 217.493 208.996 214.785 Q212.33 212.076 218.111 212.076 Q223.918 212.076 227.225 214.785 Q230.533 217.493 230.533 222.154 Q230.533 225.488 228.632 227.805 Q226.757 230.123 223.397 230.956 Q227.199 231.842 229.309 234.42 Q231.444 236.998 231.444 240.722 Q231.444 246.373 227.981 249.394 Q224.543 252.415 218.111 252.415 Q211.679 252.415 208.215 249.394 Q204.778 246.373 204.778 240.722 Q204.778 236.998 206.913 234.42 Q209.048 231.842 212.85 230.956 M210.923 222.649 Q210.923 225.67 212.798 227.363 Q214.699 229.055 218.111 229.055 Q221.496 229.055 223.397 227.363 Q225.324 225.67 225.324 222.649 Q225.324 219.628 223.397 217.936 Q221.496 216.243 218.111 216.243 Q214.699 216.243 212.798 217.936 Q210.923 219.628 210.923 222.649 Z" fill="#000000" fill-rule="nonzero" fill-opacity="1" /><path clip-path="url(#clip440)" d="M241.704 247.232 L250.298 247.232 L250.298 217.571 L240.949 219.446 L240.949 214.654 L250.246 212.779 L255.507 212.779 L255.507 247.232 L264.1 247.232 L264.1 251.659 L241.704 251.659 L241.704 247.232 Z" fill="#000000" fill-rule="nonzero" fill-opacity="1" /><path clip-path="url(#clip440)" d="M42.2713 884.016 L61.2643 884.016 L61.2643 872.766 Q61.2643 867.107 58.9379 864.398 Q56.5768 861.655 51.7505 861.655 Q46.8894 861.655 44.5977 864.398 Q42.2713 867.107 42.2713 872.766 L42.2713 884.016 M20.952 884.016 L36.5769 884.016 L36.5769 873.634 Q36.5769 868.495 34.6672 865.995 Q32.7228 863.461 28.7645 863.461 Q24.8409 863.461 22.8964 865.995 Q20.952 868.495 20.952 873.634 L20.952 884.016 M15.1882 891.03 L15.1882 873.113 Q15.1882 865.093 18.5215 860.752 Q21.8548 856.412 28.0006 856.412 Q32.7575 856.412 35.57 858.634 Q38.3825 860.857 39.0769 865.162 Q40.188 859.988 43.7297 857.141 Q47.2366 854.259 52.5143 854.259 Q59.4588 854.259 63.2435 858.982 Q67.0282 863.704 67.0282 872.419 L67.0282 891.03 L15.1882 891.03 Z" fill="#000000" fill-rule="nonzero" fill-opacity="1" /><path clip-path="url(#clip440)" d="M34.1117 819.989 Q33.4867 821.065 33.2089 822.35 Q32.8964 823.6 32.8964 825.128 Q32.8964 830.544 36.438 833.461 Q39.945 836.343 46.5422 836.343 L67.0282 836.343 L67.0282 842.766 L28.1395 842.766 L28.1395 836.343 L34.1811 836.343 Q30.6395 834.329 28.9381 831.1 Q27.202 827.871 27.202 823.253 Q27.202 822.593 27.3061 821.794 Q27.3756 820.996 27.5492 820.023 L34.1117 819.989 Z" fill="#000000" fill-rule="nonzero" fill-opacity="1" /><path clip-path="url(#clip440)" d="M28.1395 813.287 L28.1395 806.899 L67.0282 806.899 L67.0282 813.287 L28.1395 813.287 M13.0007 813.287 L13.0007 806.899 L21.0909 806.899 L21.0909 813.287 L13.0007 813.287 Z" fill="#000000" fill-rule="nonzero" fill-opacity="1" /><path clip-path="url(#clip440)" d="M45.9866 760.267 L49.1116 760.267 L49.1116 789.642 Q55.7088 789.225 59.181 785.683 Q62.6185 782.107 62.6185 775.753 Q62.6185 772.072 61.7157 768.635 Q60.8129 765.163 59.0074 761.76 L65.049 761.76 Q66.5073 765.197 67.2712 768.808 Q68.0351 772.42 68.0351 776.135 Q68.0351 785.44 62.6185 790.892 Q57.2018 796.308 47.9658 796.308 Q38.4172 796.308 32.827 791.169 Q27.202 785.996 27.202 777.246 Q27.202 769.399 32.2714 764.85 Q37.3061 760.267 45.9866 760.267 M44.1116 766.656 Q38.8686 766.725 35.7436 769.607 Q32.6186 772.454 32.6186 777.176 Q32.6186 782.524 35.6394 785.753 Q38.6603 788.947 44.1463 789.433 L44.1116 766.656 Z" fill="#000000" fill-rule="nonzero" fill-opacity="1" /><path clip-path="url(#clip440)" d="M34.1117 727.246 Q33.4867 728.323 33.2089 729.607 Q32.8964 730.857 32.8964 732.385 Q32.8964 737.802 36.438 740.718 Q39.945 743.6 46.5422 743.6 L67.0282 743.6 L67.0282 750.024 L28.1395 750.024 L28.1395 743.6 L34.1811 743.6 Q30.6395 741.586 28.9381 738.357 Q27.202 735.128 27.202 730.51 Q27.202 729.85 27.3061 729.052 Q27.3756 728.253 27.5492 727.281 L34.1117 727.246 Z" fill="#000000" fill-rule="nonzero" fill-opacity="1" /><path clip-path="url(#clip440)" d="M13.0007 697.941 L13.0007 691.552 L67.0282 691.552 L67.0282 697.941 L13.0007 697.941 Z" fill="#000000" fill-rule="nonzero" fill-opacity="1" /><path clip-path="url(#clip440)" d="M32.6186 663.115 Q32.6186 668.253 36.6464 671.24 Q40.6394 674.226 47.6185 674.226 Q54.5977 674.226 58.6254 671.274 Q62.6185 668.288 62.6185 663.115 Q62.6185 658.01 58.5907 655.024 Q54.5629 652.038 47.6185 652.038 Q40.7089 652.038 36.6811 655.024 Q32.6186 658.01 32.6186 663.115 M27.202 663.115 Q27.202 654.781 32.6186 650.024 Q38.0353 645.267 47.6185 645.267 Q57.1671 645.267 62.6185 650.024 Q68.0351 654.781 68.0351 663.115 Q68.0351 671.483 62.6185 676.239 Q57.1671 680.962 47.6185 680.962 Q38.0353 680.962 32.6186 676.239 Q27.202 671.483 27.202 663.115 Z" fill="#000000" fill-rule="nonzero" fill-opacity="1" /><path clip-path="url(#clip440)" d="M29.2853 609.886 L35.3269 609.886 Q33.9381 612.594 33.2436 615.511 Q32.5492 618.427 32.5492 621.552 Q32.5492 626.309 34.0075 628.705 Q35.4658 631.066 38.3825 631.066 Q40.6047 631.066 41.8894 629.365 Q43.1394 627.663 44.2852 622.524 L44.7713 620.337 Q46.2297 613.531 48.9033 610.684 Q51.5421 607.802 56.299 607.802 Q61.7157 607.802 64.8754 612.108 Q68.0351 616.379 68.0351 623.879 Q68.0351 627.004 67.4101 630.406 Q66.8198 633.774 65.6046 637.524 L59.0074 637.524 Q60.8476 633.983 61.7851 630.545 Q62.6879 627.108 62.6879 623.74 Q62.6879 619.226 61.1601 616.795 Q59.5976 614.365 56.7852 614.365 Q54.181 614.365 52.7921 616.136 Q51.4032 617.872 50.1185 623.809 L49.5977 626.031 Q48.3477 631.969 45.7783 634.608 Q43.1741 637.247 38.6603 637.247 Q33.1742 637.247 30.1881 633.358 Q27.202 629.469 27.202 622.316 Q27.202 618.775 27.7228 615.65 Q28.2436 612.525 29.2853 609.886 Z" fill="#000000" fill-rule="nonzero" fill-opacity="1" /><path clip-path="url(#clip440)" d="M29.2853 572.837 L35.3269 572.837 Q33.9381 575.546 33.2436 578.462 Q32.5492 581.379 32.5492 584.504 Q32.5492 589.261 34.0075 591.657 Q35.4658 594.018 38.3825 594.018 Q40.6047 594.018 41.8894 592.316 Q43.1394 590.615 44.2852 585.476 L44.7713 583.289 Q46.2297 576.483 48.9033 573.636 Q51.5421 570.754 56.299 570.754 Q61.7157 570.754 64.8754 575.059 Q68.0351 579.33 68.0351 586.83 Q68.0351 589.955 67.4101 593.358 Q66.8198 596.726 65.6046 600.476 L59.0074 600.476 Q60.8476 596.934 61.7851 593.497 Q62.6879 590.059 62.6879 586.691 Q62.6879 582.177 61.1601 579.747 Q59.5976 577.316 56.7852 577.316 Q54.181 577.316 52.7921 579.087 Q51.4032 580.823 50.1185 586.761 L49.5977 588.983 Q48.3477 594.92 45.7783 597.559 Q43.1741 600.198 38.6603 600.198 Q33.1742 600.198 30.1881 596.309 Q27.202 592.42 27.202 585.268 Q27.202 581.726 27.7228 578.601 Q28.2436 575.476 29.2853 572.837 Z" fill="#000000" fill-rule="nonzero" fill-opacity="1" /><polyline clip-path="url(#clip442)" style="stroke:#009af9; stroke-linecap:round; stroke-linejoin:round; stroke-width:4; stroke-opacity:1; fill:none" points="358.194,85.9411 396.924,599.599 435.653,295.151 478.686,288.752 517.415,502.403 556.144,318.073 594.874,623.967 633.603,615.333 672.332,786.179 715.365,641.184 754.094,605.651 792.824,670.193 831.553,255.205 870.282,540.098 913.315,541.899 952.044,570.073 990.774,632.693 1029.5,801.312 1068.23,721.739 1106.96,834.46 1149.99,1071.04 1188.72,964.051 1227.45,1098.02 1266.18,1141.22 1304.91,1199.42 1347.94,1274.11 1386.67,1204.22 1425.4,1351.27 1464.13,1259.74 1502.86,1176.79 1545.89,1231.31 1584.62,1335.32 1623.35,1249.05 1662.08,1338.58 1700.81,1274.87 1739.54,1363.64 1782.57,1337.51 1821.3,1264.09 1860.03,1375.84 1898.76,1227.98 1937.49,1334.07 1980.52,1298.16 2019.25,1176.07 2057.98,1271.13 2096.71,1197.43 2135.44,1309.21 2174.17,1176.12 2217.2,1188.29 2255.93,1253.84 2294.66,1192.15 "/>
<path clip-path="url(#clip440)" d="M2020.08 209.461 L2284.33 209.461 L2284.33 92.8206 L2020.08 92.8206  Z" fill="#ffffff" fill-rule="evenodd" fill-opacity="1"/>
<polyline clip-path="url(#clip440)" style="stroke:#000000; stroke-linecap:round; stroke-linejoin:round; stroke-width:4; stroke-opacity:1; fill:none" points="2020.08,209.461 2284.33,209.461 2284.33,92.8206 2020.08,92.8206 2020.08,209.461 "/>
<polyline clip-path="url(#clip440)" style="stroke:#009af9; stroke-linecap:round; stroke-linejoin:round; stroke-width:4.5; stroke-opacity:1; fill:none" points="2042.89,151.141 2179.74,151.141 "/>
<path clip-path="url(#clip440)" d="M2218.12 173.289 Q2216.08 178.497 2214.16 180.086 Q2212.23 181.674 2209 181.674 L2205.17 181.674 L2205.17 177.664 L2207.99 177.664 Q2209.96 177.664 2211.06 176.726 Q2212.15 175.789 2213.48 172.299 L2214.34 170.112 L2202.54 141.414 L2207.62 141.414 L2216.74 164.226 L2225.85 141.414 L2230.93 141.414 L2218.12 173.289 Z" fill="#000000" fill-rule="nonzero" fill-opacity="1" /><path clip-path="url(#clip440)" d="M2239.13 166.154 L2247.72 166.154 L2247.72 136.492 L2238.38 138.367 L2238.38 133.576 L2247.67 131.701 L2252.93 131.701 L2252.93 166.154 L2261.53 166.154 L2261.53 170.581 L2239.13 170.581 L2239.13 166.154 Z" fill="#000000" fill-rule="nonzero" fill-opacity="1" /></svg>
