<svg version="1.1" id="Layer_1" xmlns="http://www.w3.org/2000/svg" x="0" y="0" viewBox="0 0 200 160" xml:space="preserve"><style>.st3{fill:none;stroke:#4c65af;stroke-miterlimit:10}.st4{fill:#4c65af}</style><circle cx="52.9" cy="28.7" r="27.2" fill="#5fad4f" stroke="#399846" stroke-miterlimit="10"/><path d="M56 26.9l.1-2.7H56l-2.8 4.6h-.6l-2.9-4.6h-.1l.1 2.4v9.6h-3.2V18.8H50l3 4.9 3-4.9h3.5v17.5H56v-9.4z"/><circle cx="52.9" cy="130.5" r="27.2" fill="#d5635c" stroke="#cb3c33" stroke-miterlimit="10"/><path d="M55.8 131.6h3.1v7.1H47.4v-17.5h3.4v14.5h5v-4.1z"/><circle cx="140.7" cy="76.1" r="27.2" fill="#a979b5" stroke="#925aa4" stroke-miterlimit="10"/><path d="M135.5 66.7H146v11.1c0 .9-.1 1.8-.4 2.7-.2.8-.7 1.6-1.3 2.2-.4.4-.8.7-1.3 1-.5.2-.9.4-1.3.5-.4.1-.8.2-1.2.2h-.9c-.8 0-1.6-.1-2.3-.3-.8-.2-1.5-.5-2.2-.9l1.2-2.8c.6.4 1.2.6 1.6.7.5.1 1 .2 1.6.2.4 0 .8-.1 1.2-.2.4-.1.8-.4 1.1-.7.6-.6.9-1.5.9-2.7v-8.1h-7v-2.9z"/><path class="st3" d="M167.9 76.1h23"/><path class="st4" d="M188 79.8l1.6-3.7-1.6-3.7 8.8 3.7z"/><path class="st3" d="M74.7 44.9L111.1 61"/><path class="st4" d="M107.1 63.3l2.9-2.8v-4l6.6 6.9z"/><path class="st3" d="M74.7 114.3L111.5 92"/><path class="st4" d="M111 96.6l-.5-4-3.3-2.3 9.4-1.4z"/><path class="st3" d="M1.5 28.7h18.2"/><path class="st4" d="M16.9 32.4l1.6-3.7-1.6-3.7 8.8 3.7z"/><path class="st3" d="M1.5 130.5h18.2"/><path class="st4" d="M16.9 134.2l1.6-3.7-1.6-3.7 8.8 3.7z"/></svg>