<?xml version="1.0" encoding="utf-8" standalone="no"?>
<!DOCTYPE svg PUBLIC "-//W3C//DTD SVG 1.1//EN"
  "http://www.w3.org/Graphics/SVG/1.1/DTD/svg11.dtd">
<!-- Created with matplotlib (https://matplotlib.org/) -->
<svg height="432pt" version="1.1" viewBox="0 0 576 432" width="576pt" xmlns="http://www.w3.org/2000/svg" xmlns:xlink="http://www.w3.org/1999/xlink">
 <metadata>
  <rdf:RDF xmlns:cc="http://creativecommons.org/ns#" xmlns:dc="http://purl.org/dc/elements/1.1/" xmlns:rdf="http://www.w3.org/1999/02/22-rdf-syntax-ns#">
   <cc:Work>
    <dc:type rdf:resource="http://purl.org/dc/dcmitype/StillImage"/>
    <dc:date>2021-08-06T15:36:03.041544</dc:date>
    <dc:format>image/svg+xml</dc:format>
    <dc:creator>
     <cc:Agent>
      <dc:title>Matplotlib v3.3.4, https://matplotlib.org/</dc:title>
     </cc:Agent>
    </dc:creator>
   </cc:Work>
  </rdf:RDF>
 </metadata>
 <defs>
  <style type="text/css">*{stroke-linecap:butt;stroke-linejoin:round;}</style>
 </defs>
 <g id="figure_1">
  <g id="patch_1">
   <path d="M 0 432 
L 576 432 
L 576 0 
L 0 0 
z
" style="fill:#ffffff;"/>
  </g>
  <g id="axes_1">
   <g id="patch_2">
    <path d="M 72 384.48 
L 518.4 384.48 
L 518.4 51.84 
L 72 51.84 
z
" style="fill:#ffffff;"/>
   </g>
   <g id="matplotlib.axis_1">
    <g id="xtick_1">
     <g id="line2d_1">
      <defs>
       <path d="M 0 0 
L 0 3.5 
" id="m0184e31c59" style="stroke:#000000;stroke-width:0.8;"/>
      </defs>
      <g>
       <use style="stroke:#000000;stroke-width:0.8;" x="92.290909" xlink:href="#m0184e31c59" y="384.48"/>
      </g>
     </g>
     <g id="text_1">
      <!-- 0.0 -->
      <g transform="translate(84.339347 399.078438)scale(0.1 -0.1)">
       <defs>
        <path d="M 31.78125 66.40625 
Q 24.171875 66.40625 20.328125 58.90625 
Q 16.5 51.421875 16.5 36.375 
Q 16.5 21.390625 20.328125 13.890625 
Q 24.171875 6.390625 31.78125 6.390625 
Q 39.453125 6.390625 43.28125 13.890625 
Q 47.125 21.390625 47.125 36.375 
Q 47.125 51.421875 43.28125 58.90625 
Q 39.453125 66.40625 31.78125 66.40625 
z
M 31.78125 74.21875 
Q 44.046875 74.21875 50.515625 64.515625 
Q 56.984375 54.828125 56.984375 36.375 
Q 56.984375 17.96875 50.515625 8.265625 
Q 44.046875 -1.421875 31.78125 -1.421875 
Q 19.53125 -1.421875 13.0625 8.265625 
Q 6.59375 17.96875 6.59375 36.375 
Q 6.59375 54.828125 13.0625 64.515625 
Q 19.53125 74.21875 31.78125 74.21875 
z
" id="DejaVuSans-48"/>
        <path d="M 10.6875 12.40625 
L 21 12.40625 
L 21 0 
L 10.6875 0 
z
" id="DejaVuSans-46"/>
       </defs>
       <use xlink:href="#DejaVuSans-48"/>
       <use x="63.623047" xlink:href="#DejaVuSans-46"/>
       <use x="95.410156" xlink:href="#DejaVuSans-48"/>
      </g>
     </g>
    </g>
    <g id="xtick_2">
     <g id="line2d_2">
      <g>
       <use style="stroke:#000000;stroke-width:0.8;" x="173.454545" xlink:href="#m0184e31c59" y="384.48"/>
      </g>
     </g>
     <g id="text_2">
      <!-- 0.2 -->
      <g transform="translate(165.502983 399.078438)scale(0.1 -0.1)">
       <defs>
        <path d="M 19.1875 8.296875 
L 53.609375 8.296875 
L 53.609375 0 
L 7.328125 0 
L 7.328125 8.296875 
Q 12.9375 14.109375 22.625 23.890625 
Q 32.328125 33.6875 34.8125 36.53125 
Q 39.546875 41.84375 41.421875 45.53125 
Q 43.3125 49.21875 43.3125 52.78125 
Q 43.3125 58.59375 39.234375 62.25 
Q 35.15625 65.921875 28.609375 65.921875 
Q 23.96875 65.921875 18.8125 64.3125 
Q 13.671875 62.703125 7.8125 59.421875 
L 7.8125 69.390625 
Q 13.765625 71.78125 18.9375 73 
Q 24.125 74.21875 28.421875 74.21875 
Q 39.75 74.21875 46.484375 68.546875 
Q 53.21875 62.890625 53.21875 53.421875 
Q 53.21875 48.921875 51.53125 44.890625 
Q 49.859375 40.875 45.40625 35.40625 
Q 44.1875 33.984375 37.640625 27.21875 
Q 31.109375 20.453125 19.1875 8.296875 
z
" id="DejaVuSans-50"/>
       </defs>
       <use xlink:href="#DejaVuSans-48"/>
       <use x="63.623047" xlink:href="#DejaVuSans-46"/>
       <use x="95.410156" xlink:href="#DejaVuSans-50"/>
      </g>
     </g>
    </g>
    <g id="xtick_3">
     <g id="line2d_3">
      <g>
       <use style="stroke:#000000;stroke-width:0.8;" x="254.618182" xlink:href="#m0184e31c59" y="384.48"/>
      </g>
     </g>
     <g id="text_3">
      <!-- 0.4 -->
      <g transform="translate(246.666619 399.078438)scale(0.1 -0.1)">
       <defs>
        <path d="M 37.796875 64.3125 
L 12.890625 25.390625 
L 37.796875 25.390625 
z
M 35.203125 72.90625 
L 47.609375 72.90625 
L 47.609375 25.390625 
L 58.015625 25.390625 
L 58.015625 17.1875 
L 47.609375 17.1875 
L 47.609375 0 
L 37.796875 0 
L 37.796875 17.1875 
L 4.890625 17.1875 
L 4.890625 26.703125 
z
" id="DejaVuSans-52"/>
       </defs>
       <use xlink:href="#DejaVuSans-48"/>
       <use x="63.623047" xlink:href="#DejaVuSans-46"/>
       <use x="95.410156" xlink:href="#DejaVuSans-52"/>
      </g>
     </g>
    </g>
    <g id="xtick_4">
     <g id="line2d_4">
      <g>
       <use style="stroke:#000000;stroke-width:0.8;" x="335.781818" xlink:href="#m0184e31c59" y="384.48"/>
      </g>
     </g>
     <g id="text_4">
      <!-- 0.6 -->
      <g transform="translate(327.830256 399.078438)scale(0.1 -0.1)">
       <defs>
        <path d="M 33.015625 40.375 
Q 26.375 40.375 22.484375 35.828125 
Q 18.609375 31.296875 18.609375 23.390625 
Q 18.609375 15.53125 22.484375 10.953125 
Q 26.375 6.390625 33.015625 6.390625 
Q 39.65625 6.390625 43.53125 10.953125 
Q 47.40625 15.53125 47.40625 23.390625 
Q 47.40625 31.296875 43.53125 35.828125 
Q 39.65625 40.375 33.015625 40.375 
z
M 52.59375 71.296875 
L 52.59375 62.3125 
Q 48.875 64.0625 45.09375 64.984375 
Q 41.3125 65.921875 37.59375 65.921875 
Q 27.828125 65.921875 22.671875 59.328125 
Q 17.53125 52.734375 16.796875 39.40625 
Q 19.671875 43.65625 24.015625 45.921875 
Q 28.375 48.1875 33.59375 48.1875 
Q 44.578125 48.1875 50.953125 41.515625 
Q 57.328125 34.859375 57.328125 23.390625 
Q 57.328125 12.15625 50.6875 5.359375 
Q 44.046875 -1.421875 33.015625 -1.421875 
Q 20.359375 -1.421875 13.671875 8.265625 
Q 6.984375 17.96875 6.984375 36.375 
Q 6.984375 53.65625 15.1875 63.9375 
Q 23.390625 74.21875 37.203125 74.21875 
Q 40.921875 74.21875 44.703125 73.484375 
Q 48.484375 72.75 52.59375 71.296875 
z
" id="DejaVuSans-54"/>
       </defs>
       <use xlink:href="#DejaVuSans-48"/>
       <use x="63.623047" xlink:href="#DejaVuSans-46"/>
       <use x="95.410156" xlink:href="#DejaVuSans-54"/>
      </g>
     </g>
    </g>
    <g id="xtick_5">
     <g id="line2d_5">
      <g>
       <use style="stroke:#000000;stroke-width:0.8;" x="416.945455" xlink:href="#m0184e31c59" y="384.48"/>
      </g>
     </g>
     <g id="text_5">
      <!-- 0.8 -->
      <g transform="translate(408.993892 399.078438)scale(0.1 -0.1)">
       <defs>
        <path d="M 31.78125 34.625 
Q 24.75 34.625 20.71875 30.859375 
Q 16.703125 27.09375 16.703125 20.515625 
Q 16.703125 13.921875 20.71875 10.15625 
Q 24.75 6.390625 31.78125 6.390625 
Q 38.8125 6.390625 42.859375 10.171875 
Q 46.921875 13.96875 46.921875 20.515625 
Q 46.921875 27.09375 42.890625 30.859375 
Q 38.875 34.625 31.78125 34.625 
z
M 21.921875 38.8125 
Q 15.578125 40.375 12.03125 44.71875 
Q 8.5 49.078125 8.5 55.328125 
Q 8.5 64.0625 14.71875 69.140625 
Q 20.953125 74.21875 31.78125 74.21875 
Q 42.671875 74.21875 48.875 69.140625 
Q 55.078125 64.0625 55.078125 55.328125 
Q 55.078125 49.078125 51.53125 44.71875 
Q 48 40.375 41.703125 38.8125 
Q 48.828125 37.15625 52.796875 32.3125 
Q 56.78125 27.484375 56.78125 20.515625 
Q 56.78125 9.90625 50.3125 4.234375 
Q 43.84375 -1.421875 31.78125 -1.421875 
Q 19.734375 -1.421875 13.25 4.234375 
Q 6.78125 9.90625 6.78125 20.515625 
Q 6.78125 27.484375 10.78125 32.3125 
Q 14.796875 37.15625 21.921875 38.8125 
z
M 18.3125 54.390625 
Q 18.3125 48.734375 21.84375 45.5625 
Q 25.390625 42.390625 31.78125 42.390625 
Q 38.140625 42.390625 41.71875 45.5625 
Q 45.3125 48.734375 45.3125 54.390625 
Q 45.3125 60.0625 41.71875 63.234375 
Q 38.140625 66.40625 31.78125 66.40625 
Q 25.390625 66.40625 21.84375 63.234375 
Q 18.3125 60.0625 18.3125 54.390625 
z
" id="DejaVuSans-56"/>
       </defs>
       <use xlink:href="#DejaVuSans-48"/>
       <use x="63.623047" xlink:href="#DejaVuSans-46"/>
       <use x="95.410156" xlink:href="#DejaVuSans-56"/>
      </g>
     </g>
    </g>
    <g id="xtick_6">
     <g id="line2d_6">
      <g>
       <use style="stroke:#000000;stroke-width:0.8;" x="498.109091" xlink:href="#m0184e31c59" y="384.48"/>
      </g>
     </g>
     <g id="text_6">
      <!-- 1.0 -->
      <g transform="translate(490.157528 399.078438)scale(0.1 -0.1)">
       <defs>
        <path d="M 12.40625 8.296875 
L 28.515625 8.296875 
L 28.515625 63.921875 
L 10.984375 60.40625 
L 10.984375 69.390625 
L 28.421875 72.90625 
L 38.28125 72.90625 
L 38.28125 8.296875 
L 54.390625 8.296875 
L 54.390625 0 
L 12.40625 0 
z
" id="DejaVuSans-49"/>
       </defs>
       <use xlink:href="#DejaVuSans-49"/>
       <use x="63.623047" xlink:href="#DejaVuSans-46"/>
       <use x="95.410156" xlink:href="#DejaVuSans-48"/>
      </g>
     </g>
    </g>
    <g id="text_7">
     <!-- False Positive Rate -->
     <g transform="translate(248.733594 412.756563)scale(0.1 -0.1)">
      <defs>
       <path d="M 9.8125 72.90625 
L 51.703125 72.90625 
L 51.703125 64.59375 
L 19.671875 64.59375 
L 19.671875 43.109375 
L 48.578125 43.109375 
L 48.578125 34.8125 
L 19.671875 34.8125 
L 19.671875 0 
L 9.8125 0 
z
" id="DejaVuSans-70"/>
       <path d="M 34.28125 27.484375 
Q 23.390625 27.484375 19.1875 25 
Q 14.984375 22.515625 14.984375 16.5 
Q 14.984375 11.71875 18.140625 8.90625 
Q 21.296875 6.109375 26.703125 6.109375 
Q 34.1875 6.109375 38.703125 11.40625 
Q 43.21875 16.703125 43.21875 25.484375 
L 43.21875 27.484375 
z
M 52.203125 31.203125 
L 52.203125 0 
L 43.21875 0 
L 43.21875 8.296875 
Q 40.140625 3.328125 35.546875 0.953125 
Q 30.953125 -1.421875 24.3125 -1.421875 
Q 15.921875 -1.421875 10.953125 3.296875 
Q 6 8.015625 6 15.921875 
Q 6 25.140625 12.171875 29.828125 
Q 18.359375 34.515625 30.609375 34.515625 
L 43.21875 34.515625 
L 43.21875 35.40625 
Q 43.21875 41.609375 39.140625 45 
Q 35.0625 48.390625 27.6875 48.390625 
Q 23 48.390625 18.546875 47.265625 
Q 14.109375 46.140625 10.015625 43.890625 
L 10.015625 52.203125 
Q 14.9375 54.109375 19.578125 55.046875 
Q 24.21875 56 28.609375 56 
Q 40.484375 56 46.34375 49.84375 
Q 52.203125 43.703125 52.203125 31.203125 
z
" id="DejaVuSans-97"/>
       <path d="M 9.421875 75.984375 
L 18.40625 75.984375 
L 18.40625 0 
L 9.421875 0 
z
" id="DejaVuSans-108"/>
       <path d="M 44.28125 53.078125 
L 44.28125 44.578125 
Q 40.484375 46.53125 36.375 47.5 
Q 32.28125 48.484375 27.875 48.484375 
Q 21.1875 48.484375 17.84375 46.4375 
Q 14.5 44.390625 14.5 40.28125 
Q 14.5 37.15625 16.890625 35.375 
Q 19.28125 33.59375 26.515625 31.984375 
L 29.59375 31.296875 
Q 39.15625 29.25 43.1875 25.515625 
Q 47.21875 21.78125 47.21875 15.09375 
Q 47.21875 7.46875 41.1875 3.015625 
Q 35.15625 -1.421875 24.609375 -1.421875 
Q 20.21875 -1.421875 15.453125 -0.5625 
Q 10.6875 0.296875 5.421875 2 
L 5.421875 11.28125 
Q 10.40625 8.6875 15.234375 7.390625 
Q 20.0625 6.109375 24.8125 6.109375 
Q 31.15625 6.109375 34.5625 8.28125 
Q 37.984375 10.453125 37.984375 14.40625 
Q 37.984375 18.0625 35.515625 20.015625 
Q 33.0625 21.96875 24.703125 23.78125 
L 21.578125 24.515625 
Q 13.234375 26.265625 9.515625 29.90625 
Q 5.8125 33.546875 5.8125 39.890625 
Q 5.8125 47.609375 11.28125 51.796875 
Q 16.75 56 26.8125 56 
Q 31.78125 56 36.171875 55.265625 
Q 40.578125 54.546875 44.28125 53.078125 
z
" id="DejaVuSans-115"/>
       <path d="M 56.203125 29.59375 
L 56.203125 25.203125 
L 14.890625 25.203125 
Q 15.484375 15.921875 20.484375 11.0625 
Q 25.484375 6.203125 34.421875 6.203125 
Q 39.59375 6.203125 44.453125 7.46875 
Q 49.3125 8.734375 54.109375 11.28125 
L 54.109375 2.78125 
Q 49.265625 0.734375 44.1875 -0.34375 
Q 39.109375 -1.421875 33.890625 -1.421875 
Q 20.796875 -1.421875 13.15625 6.1875 
Q 5.515625 13.8125 5.515625 26.8125 
Q 5.515625 40.234375 12.765625 48.109375 
Q 20.015625 56 32.328125 56 
Q 43.359375 56 49.78125 48.890625 
Q 56.203125 41.796875 56.203125 29.59375 
z
M 47.21875 32.234375 
Q 47.125 39.59375 43.09375 43.984375 
Q 39.0625 48.390625 32.421875 48.390625 
Q 24.90625 48.390625 20.390625 44.140625 
Q 15.875 39.890625 15.1875 32.171875 
z
" id="DejaVuSans-101"/>
       <path id="DejaVuSans-32"/>
       <path d="M 19.671875 64.796875 
L 19.671875 37.40625 
L 32.078125 37.40625 
Q 38.96875 37.40625 42.71875 40.96875 
Q 46.484375 44.53125 46.484375 51.125 
Q 46.484375 57.671875 42.71875 61.234375 
Q 38.96875 64.796875 32.078125 64.796875 
z
M 9.8125 72.90625 
L 32.078125 72.90625 
Q 44.34375 72.90625 50.609375 67.359375 
Q 56.890625 61.8125 56.890625 51.125 
Q 56.890625 40.328125 50.609375 34.8125 
Q 44.34375 29.296875 32.078125 29.296875 
L 19.671875 29.296875 
L 19.671875 0 
L 9.8125 0 
z
" id="DejaVuSans-80"/>
       <path d="M 30.609375 48.390625 
Q 23.390625 48.390625 19.1875 42.75 
Q 14.984375 37.109375 14.984375 27.296875 
Q 14.984375 17.484375 19.15625 11.84375 
Q 23.34375 6.203125 30.609375 6.203125 
Q 37.796875 6.203125 41.984375 11.859375 
Q 46.1875 17.53125 46.1875 27.296875 
Q 46.1875 37.015625 41.984375 42.703125 
Q 37.796875 48.390625 30.609375 48.390625 
z
M 30.609375 56 
Q 42.328125 56 49.015625 48.375 
Q 55.71875 40.765625 55.71875 27.296875 
Q 55.71875 13.875 49.015625 6.21875 
Q 42.328125 -1.421875 30.609375 -1.421875 
Q 18.84375 -1.421875 12.171875 6.21875 
Q 5.515625 13.875 5.515625 27.296875 
Q 5.515625 40.765625 12.171875 48.375 
Q 18.84375 56 30.609375 56 
z
" id="DejaVuSans-111"/>
       <path d="M 9.421875 54.6875 
L 18.40625 54.6875 
L 18.40625 0 
L 9.421875 0 
z
M 9.421875 75.984375 
L 18.40625 75.984375 
L 18.40625 64.59375 
L 9.421875 64.59375 
z
" id="DejaVuSans-105"/>
       <path d="M 18.3125 70.21875 
L 18.3125 54.6875 
L 36.8125 54.6875 
L 36.8125 47.703125 
L 18.3125 47.703125 
L 18.3125 18.015625 
Q 18.3125 11.328125 20.140625 9.421875 
Q 21.96875 7.515625 27.59375 7.515625 
L 36.8125 7.515625 
L 36.8125 0 
L 27.59375 0 
Q 17.1875 0 13.234375 3.875 
Q 9.28125 7.765625 9.28125 18.015625 
L 9.28125 47.703125 
L 2.6875 47.703125 
L 2.6875 54.6875 
L 9.28125 54.6875 
L 9.28125 70.21875 
z
" id="DejaVuSans-116"/>
       <path d="M 2.984375 54.6875 
L 12.5 54.6875 
L 29.59375 8.796875 
L 46.6875 54.6875 
L 56.203125 54.6875 
L 35.6875 0 
L 23.484375 0 
z
" id="DejaVuSans-118"/>
       <path d="M 44.390625 34.1875 
Q 47.5625 33.109375 50.5625 29.59375 
Q 53.5625 26.078125 56.59375 19.921875 
L 66.609375 0 
L 56 0 
L 46.6875 18.703125 
Q 43.0625 26.03125 39.671875 28.421875 
Q 36.28125 30.8125 30.421875 30.8125 
L 19.671875 30.8125 
L 19.671875 0 
L 9.8125 0 
L 9.8125 72.90625 
L 32.078125 72.90625 
Q 44.578125 72.90625 50.734375 67.671875 
Q 56.890625 62.453125 56.890625 51.90625 
Q 56.890625 45.015625 53.6875 40.46875 
Q 50.484375 35.9375 44.390625 34.1875 
z
M 19.671875 64.796875 
L 19.671875 38.921875 
L 32.078125 38.921875 
Q 39.203125 38.921875 42.84375 42.21875 
Q 46.484375 45.515625 46.484375 51.90625 
Q 46.484375 58.296875 42.84375 61.546875 
Q 39.203125 64.796875 32.078125 64.796875 
z
" id="DejaVuSans-82"/>
      </defs>
      <use xlink:href="#DejaVuSans-70"/>
      <use x="48.394531" xlink:href="#DejaVuSans-97"/>
      <use x="109.673828" xlink:href="#DejaVuSans-108"/>
      <use x="137.457031" xlink:href="#DejaVuSans-115"/>
      <use x="189.556641" xlink:href="#DejaVuSans-101"/>
      <use x="251.080078" xlink:href="#DejaVuSans-32"/>
      <use x="282.867188" xlink:href="#DejaVuSans-80"/>
      <use x="339.544922" xlink:href="#DejaVuSans-111"/>
      <use x="400.726562" xlink:href="#DejaVuSans-115"/>
      <use x="452.826172" xlink:href="#DejaVuSans-105"/>
      <use x="480.609375" xlink:href="#DejaVuSans-116"/>
      <use x="519.818359" xlink:href="#DejaVuSans-105"/>
      <use x="547.601562" xlink:href="#DejaVuSans-118"/>
      <use x="606.78125" xlink:href="#DejaVuSans-101"/>
      <use x="668.304688" xlink:href="#DejaVuSans-32"/>
      <use x="700.091797" xlink:href="#DejaVuSans-82"/>
      <use x="767.324219" xlink:href="#DejaVuSans-97"/>
      <use x="828.603516" xlink:href="#DejaVuSans-116"/>
      <use x="867.8125" xlink:href="#DejaVuSans-101"/>
     </g>
    </g>
   </g>
   <g id="matplotlib.axis_2">
    <g id="ytick_1">
     <g id="line2d_7">
      <defs>
       <path d="M 0 0 
L -3.5 0 
" id="m2f158d8254" style="stroke:#000000;stroke-width:0.8;"/>
      </defs>
      <g>
       <use style="stroke:#000000;stroke-width:0.8;" x="72" xlink:href="#m2f158d8254" y="369.36"/>
      </g>
     </g>
     <g id="text_8">
      <!-- 0.0 -->
      <g transform="translate(49.096875 373.159219)scale(0.1 -0.1)">
       <use xlink:href="#DejaVuSans-48"/>
       <use x="63.623047" xlink:href="#DejaVuSans-46"/>
       <use x="95.410156" xlink:href="#DejaVuSans-48"/>
      </g>
     </g>
    </g>
    <g id="ytick_2">
     <g id="line2d_8">
      <g>
       <use style="stroke:#000000;stroke-width:0.8;" x="72" xlink:href="#m2f158d8254" y="308.88"/>
      </g>
     </g>
     <g id="text_9">
      <!-- 0.2 -->
      <g transform="translate(49.096875 312.679219)scale(0.1 -0.1)">
       <use xlink:href="#DejaVuSans-48"/>
       <use x="63.623047" xlink:href="#DejaVuSans-46"/>
       <use x="95.410156" xlink:href="#DejaVuSans-50"/>
      </g>
     </g>
    </g>
    <g id="ytick_3">
     <g id="line2d_9">
      <g>
       <use style="stroke:#000000;stroke-width:0.8;" x="72" xlink:href="#m2f158d8254" y="248.4"/>
      </g>
     </g>
     <g id="text_10">
      <!-- 0.4 -->
      <g transform="translate(49.096875 252.199219)scale(0.1 -0.1)">
       <use xlink:href="#DejaVuSans-48"/>
       <use x="63.623047" xlink:href="#DejaVuSans-46"/>
       <use x="95.410156" xlink:href="#DejaVuSans-52"/>
      </g>
     </g>
    </g>
    <g id="ytick_4">
     <g id="line2d_10">
      <g>
       <use style="stroke:#000000;stroke-width:0.8;" x="72" xlink:href="#m2f158d8254" y="187.92"/>
      </g>
     </g>
     <g id="text_11">
      <!-- 0.6 -->
      <g transform="translate(49.096875 191.719219)scale(0.1 -0.1)">
       <use xlink:href="#DejaVuSans-48"/>
       <use x="63.623047" xlink:href="#DejaVuSans-46"/>
       <use x="95.410156" xlink:href="#DejaVuSans-54"/>
      </g>
     </g>
    </g>
    <g id="ytick_5">
     <g id="line2d_11">
      <g>
       <use style="stroke:#000000;stroke-width:0.8;" x="72" xlink:href="#m2f158d8254" y="127.44"/>
      </g>
     </g>
     <g id="text_12">
      <!-- 0.8 -->
      <g transform="translate(49.096875 131.239219)scale(0.1 -0.1)">
       <use xlink:href="#DejaVuSans-48"/>
       <use x="63.623047" xlink:href="#DejaVuSans-46"/>
       <use x="95.410156" xlink:href="#DejaVuSans-56"/>
      </g>
     </g>
    </g>
    <g id="ytick_6">
     <g id="line2d_12">
      <g>
       <use style="stroke:#000000;stroke-width:0.8;" x="72" xlink:href="#m2f158d8254" y="66.96"/>
      </g>
     </g>
     <g id="text_13">
      <!-- 1.0 -->
      <g transform="translate(49.096875 70.759219)scale(0.1 -0.1)">
       <use xlink:href="#DejaVuSans-49"/>
       <use x="63.623047" xlink:href="#DejaVuSans-46"/>
       <use x="95.410156" xlink:href="#DejaVuSans-48"/>
      </g>
     </g>
    </g>
    <g id="text_14">
     <!-- True Positive Rate -->
     <g transform="translate(43.017187 262.689687)rotate(-90)scale(0.1 -0.1)">
      <defs>
       <path d="M -0.296875 72.90625 
L 61.375 72.90625 
L 61.375 64.59375 
L 35.5 64.59375 
L 35.5 0 
L 25.59375 0 
L 25.59375 64.59375 
L -0.296875 64.59375 
z
" id="DejaVuSans-84"/>
       <path d="M 41.109375 46.296875 
Q 39.59375 47.171875 37.8125 47.578125 
Q 36.03125 48 33.890625 48 
Q 26.265625 48 22.1875 43.046875 
Q 18.109375 38.09375 18.109375 28.8125 
L 18.109375 0 
L 9.078125 0 
L 9.078125 54.6875 
L 18.109375 54.6875 
L 18.109375 46.1875 
Q 20.953125 51.171875 25.484375 53.578125 
Q 30.03125 56 36.53125 56 
Q 37.453125 56 38.578125 55.875 
Q 39.703125 55.765625 41.0625 55.515625 
z
" id="DejaVuSans-114"/>
       <path d="M 8.5 21.578125 
L 8.5 54.6875 
L 17.484375 54.6875 
L 17.484375 21.921875 
Q 17.484375 14.15625 20.5 10.265625 
Q 23.53125 6.390625 29.59375 6.390625 
Q 36.859375 6.390625 41.078125 11.03125 
Q 45.3125 15.671875 45.3125 23.6875 
L 45.3125 54.6875 
L 54.296875 54.6875 
L 54.296875 0 
L 45.3125 0 
L 45.3125 8.40625 
Q 42.046875 3.421875 37.71875 1 
Q 33.40625 -1.421875 27.6875 -1.421875 
Q 18.265625 -1.421875 13.375 4.4375 
Q 8.5 10.296875 8.5 21.578125 
z
M 31.109375 56 
z
" id="DejaVuSans-117"/>
      </defs>
      <use xlink:href="#DejaVuSans-84"/>
      <use x="46.333984" xlink:href="#DejaVuSans-114"/>
      <use x="87.447266" xlink:href="#DejaVuSans-117"/>
      <use x="150.826172" xlink:href="#DejaVuSans-101"/>
      <use x="212.349609" xlink:href="#DejaVuSans-32"/>
      <use x="244.136719" xlink:href="#DejaVuSans-80"/>
      <use x="300.814453" xlink:href="#DejaVuSans-111"/>
      <use x="361.996094" xlink:href="#DejaVuSans-115"/>
      <use x="414.095703" xlink:href="#DejaVuSans-105"/>
      <use x="441.878906" xlink:href="#DejaVuSans-116"/>
      <use x="481.087891" xlink:href="#DejaVuSans-105"/>
      <use x="508.871094" xlink:href="#DejaVuSans-118"/>
      <use x="568.050781" xlink:href="#DejaVuSans-101"/>
      <use x="629.574219" xlink:href="#DejaVuSans-32"/>
      <use x="661.361328" xlink:href="#DejaVuSans-82"/>
      <use x="728.59375" xlink:href="#DejaVuSans-97"/>
      <use x="789.873047" xlink:href="#DejaVuSans-116"/>
      <use x="829.082031" xlink:href="#DejaVuSans-101"/>
     </g>
    </g>
   </g>
   <g id="line2d_13">
    <path clip-path="url(#p3f0ade02fe)" d="M 92.290909 369.36 
L 92.290909 361.8 
L 92.290909 354.24 
L 92.290909 346.68 
L 92.290909 339.12 
L 92.290909 331.56 
L 92.290909 324 
L 92.290909 316.44 
L 92.290909 308.88 
L 92.290909 301.32 
L 92.290909 293.76 
L 92.290909 286.2 
L 92.290909 278.64 
L 92.290909 271.08 
L 92.290909 263.52 
L 92.290909 255.96 
L 92.290909 248.4 
L 92.290909 240.84 
L 92.290909 233.28 
L 92.290909 225.72 
L 92.290909 218.16 
L 92.290909 210.6 
L 92.290909 203.04 
L 92.290909 195.48 
L 92.290909 187.92 
L 92.290909 180.36 
L 92.290909 172.8 
L 92.290909 165.24 
L 92.290909 157.68 
L 92.290909 150.12 
L 97.774939 150.12 
L 97.774939 142.56 
L 97.774939 135 
L 97.774939 127.44 
L 103.258968 127.44 
L 103.258968 119.88 
L 103.258968 112.32 
L 103.258968 104.76 
L 103.258968 97.2 
L 103.258968 89.64 
L 108.742998 89.64 
L 108.742998 82.08 
L 114.227027 82.08 
L 119.711057 82.08 
L 125.195086 82.08 
L 130.679115 82.08 
L 136.163145 82.08 
L 141.647174 82.08 
L 147.131204 82.08 
L 152.615233 82.08 
L 158.099263 82.08 
L 163.583292 82.08 
L 169.067322 82.08 
L 174.551351 82.08 
L 174.551351 74.52 
L 180.035381 74.52 
L 185.51941 74.52 
L 191.00344 74.52 
L 196.487469 74.52 
L 201.971499 74.52 
L 207.455528 74.52 
L 212.939558 74.52 
L 218.423587 74.52 
L 223.907617 74.52 
L 229.391646 74.52 
L 234.875676 74.52 
L 240.359705 74.52 
L 245.843735 74.52 
L 251.327764 74.52 
L 256.811794 74.52 
L 262.295823 74.52 
L 267.779853 74.52 
L 273.263882 74.52 
L 273.263882 66.96 
L 278.747912 66.96 
L 284.231941 66.96 
L 289.715971 66.96 
L 295.2 66.96 
L 300.684029 66.96 
L 306.168059 66.96 
L 311.652088 66.96 
L 317.136118 66.96 
L 322.620147 66.96 
L 328.104177 66.96 
L 333.588206 66.96 
L 339.072236 66.96 
L 344.556265 66.96 
L 350.040295 66.96 
L 355.524324 66.96 
L 361.008354 66.96 
L 366.492383 66.96 
L 371.976413 66.96 
L 377.460442 66.96 
L 382.944472 66.96 
L 388.428501 66.96 
L 393.912531 66.96 
L 399.39656 66.96 
L 404.88059 66.96 
L 410.364619 66.96 
L 415.848649 66.96 
L 421.332678 66.96 
L 426.816708 66.96 
L 432.300737 66.96 
L 437.784767 66.96 
L 443.268796 66.96 
L 448.752826 66.96 
L 454.236855 66.96 
L 459.720885 66.96 
L 465.204914 66.96 
L 470.688943 66.96 
L 476.172973 66.96 
L 487.141032 66.96 
L 492.625061 66.96 
L 498.109091 66.96 
" style="fill:none;stroke:#1f77b4;stroke-linecap:square;stroke-width:1.5;"/>
   </g>
   <g id="line2d_14">
    <path clip-path="url(#p3f0ade02fe)" d="M 92.290909 369.36 
L 92.290909 150.12 
L 92.290909 142.56 
L 92.290909 119.88 
L 92.290909 104.76 
L 103.258968 104.76 
L 103.258968 89.64 
L 130.679115 89.64 
L 130.679115 82.08 
L 158.099263 74.52 
L 191.00344 74.52 
L 498.109091 66.96 
" style="fill:none;stroke:#ff7f0e;stroke-linecap:square;stroke-width:1.5;"/>
   </g>
   <g id="line2d_15">
    <path clip-path="url(#p3f0ade02fe)" d="M 92.290909 369.36 
L 92.290909 361.8 
L 92.290909 354.24 
L 92.290909 346.68 
L 92.290909 339.12 
L 92.290909 331.56 
L 92.290909 324 
L 92.290909 316.44 
L 92.290909 308.88 
L 92.290909 301.32 
L 92.290909 293.76 
L 92.290909 286.2 
L 92.290909 278.64 
L 92.290909 271.08 
L 92.290909 263.52 
L 92.290909 255.96 
L 92.290909 248.4 
L 92.290909 240.84 
L 92.290909 233.28 
L 92.290909 225.72 
L 92.290909 218.16 
L 92.290909 210.6 
L 92.290909 203.04 
L 92.290909 195.48 
L 92.290909 187.92 
L 92.290909 180.36 
L 92.290909 172.8 
L 92.290909 165.24 
L 92.290909 157.68 
L 92.290909 150.12 
L 97.774939 150.12 
L 97.774939 142.56 
L 97.774939 135 
L 97.774939 127.44 
L 97.774939 119.88 
L 97.774939 112.32 
L 97.774939 104.76 
L 97.774939 97.2 
L 97.774939 89.64 
L 97.774939 82.08 
L 97.774939 74.52 
L 103.258968 74.52 
L 108.742998 74.52 
L 114.227027 74.52 
L 119.711057 74.52 
L 125.195086 74.52 
L 130.679115 74.52 
L 136.163145 74.52 
L 141.647174 74.52 
L 147.131204 74.52 
L 152.615233 74.52 
L 158.099263 74.52 
L 163.583292 74.52 
L 169.067322 74.52 
L 174.551351 74.52 
L 180.035381 74.52 
L 185.51941 74.52 
L 191.00344 74.52 
L 196.487469 74.52 
L 201.971499 74.52 
L 207.455528 74.52 
L 212.939558 74.52 
L 218.423587 74.52 
L 223.907617 74.52 
L 229.391646 74.52 
L 234.875676 74.52 
L 240.359705 74.52 
L 245.843735 74.52 
L 251.327764 74.52 
L 251.327764 66.96 
L 256.811794 66.96 
L 262.295823 66.96 
L 267.779853 66.96 
L 273.263882 66.96 
L 278.747912 66.96 
L 284.231941 66.96 
L 289.715971 66.96 
L 295.2 66.96 
L 300.684029 66.96 
L 306.168059 66.96 
L 311.652088 66.96 
L 317.136118 66.96 
L 322.620147 66.96 
L 328.104177 66.96 
L 333.588206 66.96 
L 339.072236 66.96 
L 344.556265 66.96 
L 350.040295 66.96 
L 355.524324 66.96 
L 361.008354 66.96 
L 366.492383 66.96 
L 371.976413 66.96 
L 377.460442 66.96 
L 382.944472 66.96 
L 388.428501 66.96 
L 393.912531 66.96 
L 399.39656 66.96 
L 404.88059 66.96 
L 410.364619 66.96 
L 415.848649 66.96 
L 421.332678 66.96 
L 426.816708 66.96 
L 432.300737 66.96 
L 437.784767 66.96 
L 443.268796 66.96 
L 448.752826 66.96 
L 454.236855 66.96 
L 459.720885 66.96 
L 465.204914 66.96 
L 470.688943 66.96 
L 476.172973 66.96 
L 481.657002 66.96 
L 487.141032 66.96 
L 492.625061 66.96 
L 498.109091 66.96 
" style="fill:none;stroke:#2ca02c;stroke-linecap:square;stroke-width:1.5;"/>
   </g>
   <g id="line2d_16">
    <path clip-path="url(#p3f0ade02fe)" d="M 92.290909 369.36 
L 97.774939 142.56 
L 103.258968 142.56 
L 103.258968 135 
L 103.258968 127.44 
L 103.258968 119.88 
L 108.742998 119.88 
L 114.227027 119.88 
L 114.227027 112.32 
L 114.227027 104.76 
L 119.711057 104.76 
L 119.711057 97.2 
L 125.195086 97.2 
L 130.679115 97.2 
L 136.163145 97.2 
L 141.647174 97.2 
L 147.131204 97.2 
L 147.131204 89.64 
L 147.131204 82.08 
L 152.615233 82.08 
L 158.099263 82.08 
L 163.583292 82.08 
L 163.583292 74.52 
L 169.067322 74.52 
L 174.551351 74.52 
L 180.035381 74.52 
L 185.51941 74.52 
L 191.00344 74.52 
L 196.487469 74.52 
L 201.971499 74.52 
L 207.455528 74.52 
L 212.939558 74.52 
L 218.423587 74.52 
L 223.907617 74.52 
L 229.391646 74.52 
L 229.391646 66.96 
L 234.875676 66.96 
L 240.359705 66.96 
L 245.843735 66.96 
L 251.327764 66.96 
L 256.811794 66.96 
L 262.295823 66.96 
L 267.779853 66.96 
L 273.263882 66.96 
L 278.747912 66.96 
L 284.231941 66.96 
L 289.715971 66.96 
L 295.2 66.96 
L 300.684029 66.96 
L 306.168059 66.96 
L 311.652088 66.96 
L 317.136118 66.96 
L 322.620147 66.96 
L 328.104177 66.96 
L 333.588206 66.96 
L 339.072236 66.96 
L 344.556265 66.96 
L 350.040295 66.96 
L 355.524324 66.96 
L 361.008354 66.96 
L 366.492383 66.96 
L 371.976413 66.96 
L 377.460442 66.96 
L 382.944472 66.96 
L 388.428501 66.96 
L 393.912531 66.96 
L 399.39656 66.96 
L 404.88059 66.96 
L 410.364619 66.96 
L 415.848649 66.96 
L 421.332678 66.96 
L 426.816708 66.96 
L 432.300737 66.96 
L 437.784767 66.96 
L 443.268796 66.96 
L 448.752826 66.96 
L 454.236855 66.96 
L 459.720885 66.96 
L 465.204914 66.96 
L 470.688943 66.96 
L 476.172973 66.96 
L 481.657002 66.96 
L 487.141032 66.96 
L 492.625061 66.96 
L 498.109091 66.96 
" style="fill:none;stroke:#d62728;stroke-linecap:square;stroke-width:1.5;"/>
   </g>
   <g id="line2d_17">
    <path clip-path="url(#p3f0ade02fe)" d="M 92.290909 369.36 
L 267.779853 255.96 
L 498.109091 66.96 
" style="fill:none;stroke:#9467bd;stroke-linecap:square;stroke-width:1.5;"/>
   </g>
   <g id="line2d_18">
    <path clip-path="url(#p3f0ade02fe)" d="M 92.290909 369.36 
L 92.290909 286.2 
L 92.290909 240.84 
L 92.290909 218.16 
L 92.290909 195.48 
L 92.290909 187.92 
L 92.290909 165.24 
L 92.290909 157.68 
L 92.290909 150.12 
L 92.290909 142.56 
L 92.290909 135 
L 92.290909 127.44 
L 92.290909 119.88 
L 97.774939 119.88 
L 97.774939 112.32 
L 103.258968 112.32 
L 108.742998 112.32 
L 108.742998 104.76 
L 108.742998 97.2 
L 108.742998 89.64 
L 114.227027 89.64 
L 119.711057 89.64 
L 125.195086 89.64 
L 136.163145 89.64 
L 136.163145 82.08 
L 147.131204 82.08 
L 152.615233 74.52 
L 158.099263 74.52 
L 163.583292 74.52 
L 169.067322 74.52 
L 174.551351 74.52 
L 180.035381 74.52 
L 185.51941 74.52 
L 196.487469 74.52 
L 207.455528 74.52 
L 229.391646 74.52 
L 240.359705 74.52 
L 251.327764 74.52 
L 267.779853 74.52 
L 278.747912 66.96 
L 317.136118 66.96 
L 355.524324 66.96 
L 498.109091 66.96 
" style="fill:none;stroke:#8c564b;stroke-linecap:square;stroke-width:1.5;"/>
   </g>
   <g id="line2d_19">
    <path clip-path="url(#p3f0ade02fe)" d="M 92.290909 369.36 
L 92.290909 150.12 
L 92.290909 142.56 
L 92.290909 135 
L 97.774939 135 
L 97.774939 127.44 
L 103.258968 127.44 
L 103.258968 119.88 
L 108.742998 119.88 
L 108.742998 112.32 
L 114.227027 112.32 
L 114.227027 104.76 
L 119.711057 104.76 
L 125.195086 104.76 
L 125.195086 97.2 
L 130.679115 97.2 
L 136.163145 97.2 
L 136.163145 89.64 
L 141.647174 89.64 
L 147.131204 89.64 
L 152.615233 89.64 
L 158.099263 89.64 
L 163.583292 89.64 
L 163.583292 82.08 
L 163.583292 74.52 
L 169.067322 74.52 
L 174.551351 74.52 
L 180.035381 74.52 
L 185.51941 74.52 
L 191.00344 74.52 
L 196.487469 74.52 
L 201.971499 74.52 
L 201.971499 66.96 
L 207.455528 66.96 
L 212.939558 66.96 
L 218.423587 66.96 
L 223.907617 66.96 
L 229.391646 66.96 
L 234.875676 66.96 
L 240.359705 66.96 
L 245.843735 66.96 
L 251.327764 66.96 
L 256.811794 66.96 
L 262.295823 66.96 
L 267.779853 66.96 
L 273.263882 66.96 
L 278.747912 66.96 
L 284.231941 66.96 
L 289.715971 66.96 
L 295.2 66.96 
L 300.684029 66.96 
L 306.168059 66.96 
L 311.652088 66.96 
L 317.136118 66.96 
L 322.620147 66.96 
L 328.104177 66.96 
L 333.588206 66.96 
L 339.072236 66.96 
L 344.556265 66.96 
L 350.040295 66.96 
L 355.524324 66.96 
L 361.008354 66.96 
L 366.492383 66.96 
L 371.976413 66.96 
L 377.460442 66.96 
L 382.944472 66.96 
L 388.428501 66.96 
L 393.912531 66.96 
L 399.39656 66.96 
L 404.88059 66.96 
L 410.364619 66.96 
L 415.848649 66.96 
L 421.332678 66.96 
L 426.816708 66.96 
L 432.300737 66.96 
L 437.784767 66.96 
L 443.268796 66.96 
L 448.752826 66.96 
L 454.236855 66.96 
L 459.720885 66.96 
L 465.204914 66.96 
L 470.688943 66.96 
L 476.172973 66.96 
L 481.657002 66.96 
L 487.141032 66.96 
L 492.625061 66.96 
L 498.109091 66.96 
" style="fill:none;stroke:#e377c2;stroke-linecap:square;stroke-width:1.5;"/>
   </g>
   <g id="line2d_20">
    <path clip-path="url(#p3f0ade02fe)" d="M 92.290909 369.36 
L 92.290909 361.8 
L 92.290909 354.24 
L 92.290909 346.68 
L 92.290909 339.12 
L 92.290909 331.56 
L 92.290909 324 
L 92.290909 316.44 
L 92.290909 308.88 
L 92.290909 301.32 
L 92.290909 293.76 
L 92.290909 286.2 
L 97.774939 286.2 
L 97.774939 278.64 
L 97.774939 271.08 
L 97.774939 263.52 
L 103.258968 263.52 
L 103.258968 255.96 
L 103.258968 248.4 
L 103.258968 240.84 
L 103.258968 233.28 
L 103.258968 225.72 
L 103.258968 218.16 
L 103.258968 210.6 
L 103.258968 203.04 
L 103.258968 195.48 
L 103.258968 187.92 
L 103.258968 180.36 
L 103.258968 172.8 
L 103.258968 165.24 
L 103.258968 157.68 
L 103.258968 150.12 
L 103.258968 142.56 
L 103.258968 135 
L 103.258968 127.44 
L 103.258968 119.88 
L 103.258968 112.32 
L 103.258968 104.76 
L 103.258968 97.2 
L 103.258968 89.64 
L 103.258968 82.08 
L 103.258968 74.52 
L 108.742998 74.52 
L 114.227027 74.52 
L 119.711057 74.52 
L 125.195086 74.52 
L 130.679115 74.52 
L 136.163145 74.52 
L 141.647174 74.52 
L 147.131204 74.52 
L 152.615233 74.52 
L 158.099263 74.52 
L 163.583292 74.52 
L 169.067322 74.52 
L 174.551351 74.52 
L 180.035381 74.52 
L 185.51941 74.52 
L 191.00344 74.52 
L 196.487469 74.52 
L 201.971499 74.52 
L 201.971499 66.96 
L 207.455528 66.96 
L 212.939558 66.96 
L 218.423587 66.96 
L 223.907617 66.96 
L 229.391646 66.96 
L 234.875676 66.96 
L 240.359705 66.96 
L 245.843735 66.96 
L 251.327764 66.96 
L 256.811794 66.96 
L 262.295823 66.96 
L 267.779853 66.96 
L 273.263882 66.96 
L 278.747912 66.96 
L 284.231941 66.96 
L 289.715971 66.96 
L 295.2 66.96 
L 300.684029 66.96 
L 306.168059 66.96 
L 311.652088 66.96 
L 317.136118 66.96 
L 322.620147 66.96 
L 328.104177 66.96 
L 333.588206 66.96 
L 339.072236 66.96 
L 344.556265 66.96 
L 350.040295 66.96 
L 355.524324 66.96 
L 361.008354 66.96 
L 366.492383 66.96 
L 371.976413 66.96 
L 377.460442 66.96 
L 382.944472 66.96 
L 388.428501 66.96 
L 393.912531 66.96 
L 399.39656 66.96 
L 404.88059 66.96 
L 410.364619 66.96 
L 415.848649 66.96 
L 421.332678 66.96 
L 426.816708 66.96 
L 432.300737 66.96 
L 437.784767 66.96 
L 443.268796 66.96 
L 448.752826 66.96 
L 454.236855 66.96 
L 459.720885 66.96 
L 465.204914 66.96 
L 470.688943 66.96 
L 476.172973 66.96 
L 481.657002 66.96 
L 487.141032 66.96 
L 492.625061 66.96 
L 498.109091 66.96 
" style="fill:none;stroke:#7f7f7f;stroke-linecap:square;stroke-width:1.5;"/>
   </g>
   <g id="line2d_21">
    <path clip-path="url(#p3f0ade02fe)" d="M 92.290909 369.36 
L 92.290909 361.8 
L 92.290909 354.24 
L 92.290909 346.68 
L 92.290909 316.44 
L 92.290909 308.88 
L 92.290909 301.32 
L 92.290909 293.76 
L 92.290909 286.2 
L 92.290909 278.64 
L 92.290909 271.08 
L 92.290909 263.52 
L 92.290909 255.96 
L 92.290909 240.84 
L 92.290909 233.28 
L 92.290909 225.72 
L 92.290909 218.16 
L 92.290909 210.6 
L 92.290909 203.04 
L 92.290909 195.48 
L 92.290909 187.92 
L 92.290909 180.36 
L 92.290909 172.8 
L 92.290909 165.24 
L 92.290909 157.68 
L 92.290909 150.12 
L 92.290909 142.56 
L 92.290909 135 
L 97.774939 135 
L 97.774939 127.44 
L 97.774939 119.88 
L 97.774939 112.32 
L 103.258968 112.32 
L 103.258968 104.76 
L 108.742998 104.76 
L 108.742998 97.2 
L 114.227027 97.2 
L 119.711057 97.2 
L 119.711057 89.64 
L 125.195086 89.64 
L 130.679115 89.64 
L 130.679115 82.08 
L 136.163145 82.08 
L 141.647174 82.08 
L 147.131204 82.08 
L 152.615233 82.08 
L 152.615233 74.52 
L 158.099263 74.52 
L 163.583292 74.52 
L 169.067322 74.52 
L 174.551351 74.52 
L 180.035381 74.52 
L 185.51941 74.52 
L 191.00344 74.52 
L 196.487469 74.52 
L 201.971499 74.52 
L 207.455528 74.52 
L 212.939558 74.52 
L 218.423587 74.52 
L 223.907617 74.52 
L 229.391646 74.52 
L 234.875676 74.52 
L 240.359705 74.52 
L 245.843735 74.52 
L 251.327764 74.52 
L 256.811794 74.52 
L 262.295823 74.52 
L 267.779853 74.52 
L 273.263882 74.52 
L 273.263882 66.96 
L 278.747912 66.96 
L 284.231941 66.96 
L 289.715971 66.96 
L 295.2 66.96 
L 300.684029 66.96 
L 306.168059 66.96 
L 311.652088 66.96 
L 317.136118 66.96 
L 350.040295 66.96 
L 355.524324 66.96 
L 361.008354 66.96 
L 371.976413 66.96 
L 388.428501 66.96 
L 399.39656 66.96 
L 404.88059 66.96 
L 426.816708 66.96 
L 432.300737 66.96 
L 437.784767 66.96 
L 443.268796 66.96 
L 459.720885 66.96 
L 465.204914 66.96 
L 481.657002 66.96 
L 487.141032 66.96 
L 492.625061 66.96 
L 498.109091 66.96 
" style="fill:none;stroke:#bcbd22;stroke-linecap:square;stroke-width:1.5;"/>
   </g>
   <g id="line2d_22">
    <path clip-path="url(#p3f0ade02fe)" d="M 92.290909 369.36 
L 92.290909 142.56 
L 103.258968 112.32 
L 108.742998 97.2 
L 125.195086 82.08 
L 180.035381 74.52 
L 498.109091 66.96 
" style="fill:none;stroke:#17becf;stroke-linecap:square;stroke-width:1.5;"/>
   </g>
   <g id="line2d_23">
    <path clip-path="url(#p3f0ade02fe)" d="M 92.290909 369.36 
L 92.290909 361.8 
L 92.290909 354.24 
L 92.290909 346.68 
L 92.290909 339.12 
L 92.290909 331.56 
L 92.290909 324 
L 92.290909 316.44 
L 92.290909 308.88 
L 92.290909 301.32 
L 92.290909 293.76 
L 92.290909 286.2 
L 92.290909 278.64 
L 92.290909 271.08 
L 92.290909 263.52 
L 92.290909 255.96 
L 92.290909 248.4 
L 92.290909 240.84 
L 92.290909 233.28 
L 92.290909 225.72 
L 92.290909 218.16 
L 92.290909 210.6 
L 92.290909 203.04 
L 92.290909 195.48 
L 92.290909 187.92 
L 92.290909 180.36 
L 92.290909 172.8 
L 92.290909 165.24 
L 92.290909 157.68 
L 92.290909 150.12 
L 92.290909 142.56 
L 92.290909 135 
L 92.290909 127.44 
L 92.290909 119.88 
L 92.290909 112.32 
L 92.290909 104.76 
L 92.290909 97.2 
L 92.290909 89.64 
L 92.290909 82.08 
L 97.774939 82.08 
L 103.258968 82.08 
L 108.742998 82.08 
L 114.227027 82.08 
L 119.711057 82.08 
L 125.195086 82.08 
L 130.679115 82.08 
L 136.163145 82.08 
L 141.647174 82.08 
L 141.647174 74.52 
L 147.131204 74.52 
L 152.615233 74.52 
L 158.099263 74.52 
L 163.583292 74.52 
L 169.067322 74.52 
L 174.551351 74.52 
L 180.035381 74.52 
L 185.51941 74.52 
L 191.00344 74.52 
L 196.487469 74.52 
L 201.971499 74.52 
L 207.455528 74.52 
L 212.939558 74.52 
L 218.423587 74.52 
L 223.907617 74.52 
L 229.391646 74.52 
L 234.875676 74.52 
L 240.359705 74.52 
L 245.843735 74.52 
L 251.327764 74.52 
L 256.811794 74.52 
L 262.295823 74.52 
L 267.779853 74.52 
L 273.263882 74.52 
L 278.747912 74.52 
L 284.231941 74.52 
L 289.715971 74.52 
L 289.715971 66.96 
L 295.2 66.96 
L 300.684029 66.96 
L 306.168059 66.96 
L 311.652088 66.96 
L 317.136118 66.96 
L 322.620147 66.96 
L 328.104177 66.96 
L 333.588206 66.96 
L 339.072236 66.96 
L 344.556265 66.96 
L 350.040295 66.96 
L 355.524324 66.96 
L 361.008354 66.96 
L 366.492383 66.96 
L 371.976413 66.96 
L 377.460442 66.96 
L 382.944472 66.96 
L 388.428501 66.96 
L 393.912531 66.96 
L 399.39656 66.96 
L 404.88059 66.96 
L 410.364619 66.96 
L 415.848649 66.96 
L 421.332678 66.96 
L 426.816708 66.96 
L 432.300737 66.96 
L 437.784767 66.96 
L 443.268796 66.96 
L 448.752826 66.96 
L 454.236855 66.96 
L 459.720885 66.96 
L 465.204914 66.96 
L 470.688943 66.96 
L 476.172973 66.96 
L 481.657002 66.96 
L 487.141032 66.96 
L 492.625061 66.96 
L 498.109091 66.96 
" style="fill:none;stroke:#1f77b4;stroke-linecap:square;stroke-width:1.5;"/>
   </g>
   <g id="line2d_24">
    <path clip-path="url(#p3f0ade02fe)" d="M 92.290909 369.36 
L 92.290909 127.44 
L 92.290909 119.88 
L 92.290909 112.32 
L 97.774939 112.32 
L 97.774939 104.76 
L 97.774939 97.2 
L 103.258968 97.2 
L 103.258968 89.64 
L 103.258968 82.08 
L 108.742998 82.08 
L 114.227027 82.08 
L 119.711057 82.08 
L 125.195086 82.08 
L 130.679115 82.08 
L 136.163145 82.08 
L 141.647174 82.08 
L 147.131204 82.08 
L 152.615233 82.08 
L 158.099263 82.08 
L 163.583292 82.08 
L 169.067322 82.08 
L 174.551351 82.08 
L 180.035381 82.08 
L 185.51941 82.08 
L 191.00344 82.08 
L 196.487469 82.08 
L 201.971499 82.08 
L 207.455528 82.08 
L 212.939558 82.08 
L 218.423587 82.08 
L 223.907617 82.08 
L 229.391646 82.08 
L 234.875676 82.08 
L 240.359705 82.08 
L 245.843735 82.08 
L 251.327764 82.08 
L 256.811794 82.08 
L 262.295823 82.08 
L 267.779853 82.08 
L 273.263882 82.08 
L 278.747912 82.08 
L 284.231941 82.08 
L 289.715971 82.08 
L 289.715971 74.52 
L 295.2 74.52 
L 300.684029 74.52 
L 306.168059 74.52 
L 306.168059 66.96 
L 311.652088 66.96 
L 317.136118 66.96 
L 322.620147 66.96 
L 328.104177 66.96 
L 333.588206 66.96 
L 339.072236 66.96 
L 344.556265 66.96 
L 350.040295 66.96 
L 355.524324 66.96 
L 361.008354 66.96 
L 366.492383 66.96 
L 371.976413 66.96 
L 377.460442 66.96 
L 382.944472 66.96 
L 388.428501 66.96 
L 393.912531 66.96 
L 399.39656 66.96 
L 404.88059 66.96 
L 410.364619 66.96 
L 415.848649 66.96 
L 421.332678 66.96 
L 426.816708 66.96 
L 432.300737 66.96 
L 437.784767 66.96 
L 443.268796 66.96 
L 448.752826 66.96 
L 454.236855 66.96 
L 459.720885 66.96 
L 465.204914 66.96 
L 470.688943 66.96 
L 476.172973 66.96 
L 481.657002 66.96 
L 487.141032 66.96 
L 492.625061 66.96 
L 498.109091 66.96 
" style="fill:none;stroke:#ff7f0e;stroke-linecap:square;stroke-width:1.5;"/>
   </g>
   <g id="line2d_25">
    <path clip-path="url(#p3f0ade02fe)" d="M 92.290909 369.36 
L 92.290909 263.52 
L 92.290909 248.4 
L 92.290909 240.84 
L 92.290909 218.16 
L 92.290909 187.92 
L 92.290909 180.36 
L 92.290909 165.24 
L 92.290909 157.68 
L 92.290909 142.56 
L 92.290909 127.44 
L 92.290909 119.88 
L 97.774939 119.88 
L 97.774939 112.32 
L 103.258968 112.32 
L 103.258968 104.76 
L 108.742998 104.76 
L 108.742998 97.2 
L 114.227027 97.2 
L 125.195086 97.2 
L 130.679115 97.2 
L 130.679115 82.08 
L 136.163145 82.08 
L 147.131204 82.08 
L 147.131204 74.52 
L 158.099263 74.52 
L 163.583292 74.52 
L 169.067322 74.52 
L 174.551351 74.52 
L 180.035381 74.52 
L 201.971499 74.52 
L 218.423587 74.52 
L 234.875676 74.52 
L 245.843735 66.96 
L 273.263882 66.96 
L 317.136118 66.96 
L 498.109091 66.96 
" style="fill:none;stroke:#2ca02c;stroke-linecap:square;stroke-width:1.5;"/>
   </g>
   <g id="patch_3">
    <path d="M 72 384.48 
L 72 51.84 
" style="fill:none;stroke:#000000;stroke-linecap:square;stroke-linejoin:miter;stroke-width:0.8;"/>
   </g>
   <g id="patch_4">
    <path d="M 518.4 384.48 
L 518.4 51.84 
" style="fill:none;stroke:#000000;stroke-linecap:square;stroke-linejoin:miter;stroke-width:0.8;"/>
   </g>
   <g id="patch_5">
    <path d="M 72 384.48 
L 518.4 384.48 
" style="fill:none;stroke:#000000;stroke-linecap:square;stroke-linejoin:miter;stroke-width:0.8;"/>
   </g>
   <g id="patch_6">
    <path d="M 72 51.84 
L 518.4 51.84 
" style="fill:none;stroke:#000000;stroke-linecap:square;stroke-linejoin:miter;stroke-width:0.8;"/>
   </g>
   <g id="text_15">
    <!-- ROC curve -->
    <g transform="translate(263.4 45.84)scale(0.12 -0.12)">
     <defs>
      <path d="M 39.40625 66.21875 
Q 28.65625 66.21875 22.328125 58.203125 
Q 16.015625 50.203125 16.015625 36.375 
Q 16.015625 22.609375 22.328125 14.59375 
Q 28.65625 6.59375 39.40625 6.59375 
Q 50.140625 6.59375 56.421875 14.59375 
Q 62.703125 22.609375 62.703125 36.375 
Q 62.703125 50.203125 56.421875 58.203125 
Q 50.140625 66.21875 39.40625 66.21875 
z
M 39.40625 74.21875 
Q 54.734375 74.21875 63.90625 63.9375 
Q 73.09375 53.65625 73.09375 36.375 
Q 73.09375 19.140625 63.90625 8.859375 
Q 54.734375 -1.421875 39.40625 -1.421875 
Q 24.03125 -1.421875 14.8125 8.828125 
Q 5.609375 19.09375 5.609375 36.375 
Q 5.609375 53.65625 14.8125 63.9375 
Q 24.03125 74.21875 39.40625 74.21875 
z
" id="DejaVuSans-79"/>
      <path d="M 64.40625 67.28125 
L 64.40625 56.890625 
Q 59.421875 61.53125 53.78125 63.8125 
Q 48.140625 66.109375 41.796875 66.109375 
Q 29.296875 66.109375 22.65625 58.46875 
Q 16.015625 50.828125 16.015625 36.375 
Q 16.015625 21.96875 22.65625 14.328125 
Q 29.296875 6.6875 41.796875 6.6875 
Q 48.140625 6.6875 53.78125 8.984375 
Q 59.421875 11.28125 64.40625 15.921875 
L 64.40625 5.609375 
Q 59.234375 2.09375 53.4375 0.328125 
Q 47.65625 -1.421875 41.21875 -1.421875 
Q 24.65625 -1.421875 15.125 8.703125 
Q 5.609375 18.84375 5.609375 36.375 
Q 5.609375 53.953125 15.125 64.078125 
Q 24.65625 74.21875 41.21875 74.21875 
Q 47.75 74.21875 53.53125 72.484375 
Q 59.328125 70.75 64.40625 67.28125 
z
" id="DejaVuSans-67"/>
      <path d="M 48.78125 52.59375 
L 48.78125 44.1875 
Q 44.96875 46.296875 41.140625 47.34375 
Q 37.3125 48.390625 33.40625 48.390625 
Q 24.65625 48.390625 19.8125 42.84375 
Q 14.984375 37.3125 14.984375 27.296875 
Q 14.984375 17.28125 19.8125 11.734375 
Q 24.65625 6.203125 33.40625 6.203125 
Q 37.3125 6.203125 41.140625 7.25 
Q 44.96875 8.296875 48.78125 10.40625 
L 48.78125 2.09375 
Q 45.015625 0.34375 40.984375 -0.53125 
Q 36.96875 -1.421875 32.421875 -1.421875 
Q 20.0625 -1.421875 12.78125 6.34375 
Q 5.515625 14.109375 5.515625 27.296875 
Q 5.515625 40.671875 12.859375 48.328125 
Q 20.21875 56 33.015625 56 
Q 37.15625 56 41.109375 55.140625 
Q 45.0625 54.296875 48.78125 52.59375 
z
" id="DejaVuSans-99"/>
     </defs>
     <use xlink:href="#DejaVuSans-82"/>
     <use x="69.482422" xlink:href="#DejaVuSans-79"/>
     <use x="148.193359" xlink:href="#DejaVuSans-67"/>
     <use x="218.017578" xlink:href="#DejaVuSans-32"/>
     <use x="249.804688" xlink:href="#DejaVuSans-99"/>
     <use x="304.785156" xlink:href="#DejaVuSans-117"/>
     <use x="368.164062" xlink:href="#DejaVuSans-114"/>
     <use x="409.277344" xlink:href="#DejaVuSans-118"/>
     <use x="468.457031" xlink:href="#DejaVuSans-101"/>
    </g>
   </g>
   <g id="legend_1">
    <g id="patch_7">
     <path d="M 418.889803 381.585 
L 514.347 381.585 
Q 515.505 381.585 515.505 380.427 
L 515.505 270.523753 
Q 515.505 269.365753 514.347 269.365753 
L 418.889803 269.365753 
Q 417.731803 269.365753 417.731803 270.523753 
L 417.731803 380.427 
Q 417.731803 381.585 418.889803 381.585 
z
" style="fill:#ffffff;opacity:0.8;stroke:#cccccc;stroke-linejoin:miter;"/>
    </g>
    <g id="line2d_26">
     <path d="M 420.047803 274.054748 
L 431.627803 274.054748 
" style="fill:none;stroke:#1f77b4;stroke-linecap:square;stroke-width:1.5;"/>
    </g>
    <g id="line2d_27"/>
    <g id="text_16">
     <!-- AdaBoostClassifier -->
     <g transform="translate(436.259803 276.081248)scale(0.0579 -0.0579)">
      <defs>
       <path d="M 34.1875 63.1875 
L 20.796875 26.90625 
L 47.609375 26.90625 
z
M 28.609375 72.90625 
L 39.796875 72.90625 
L 67.578125 0 
L 57.328125 0 
L 50.6875 18.703125 
L 17.828125 18.703125 
L 11.1875 0 
L 0.78125 0 
z
" id="DejaVuSans-65"/>
       <path d="M 45.40625 46.390625 
L 45.40625 75.984375 
L 54.390625 75.984375 
L 54.390625 0 
L 45.40625 0 
L 45.40625 8.203125 
Q 42.578125 3.328125 38.25 0.953125 
Q 33.9375 -1.421875 27.875 -1.421875 
Q 17.96875 -1.421875 11.734375 6.484375 
Q 5.515625 14.40625 5.515625 27.296875 
Q 5.515625 40.1875 11.734375 48.09375 
Q 17.96875 56 27.875 56 
Q 33.9375 56 38.25 53.625 
Q 42.578125 51.265625 45.40625 46.390625 
z
M 14.796875 27.296875 
Q 14.796875 17.390625 18.875 11.75 
Q 22.953125 6.109375 30.078125 6.109375 
Q 37.203125 6.109375 41.296875 11.75 
Q 45.40625 17.390625 45.40625 27.296875 
Q 45.40625 37.203125 41.296875 42.84375 
Q 37.203125 48.484375 30.078125 48.484375 
Q 22.953125 48.484375 18.875 42.84375 
Q 14.796875 37.203125 14.796875 27.296875 
z
" id="DejaVuSans-100"/>
       <path d="M 19.671875 34.8125 
L 19.671875 8.109375 
L 35.5 8.109375 
Q 43.453125 8.109375 47.28125 11.40625 
Q 51.125 14.703125 51.125 21.484375 
Q 51.125 28.328125 47.28125 31.5625 
Q 43.453125 34.8125 35.5 34.8125 
z
M 19.671875 64.796875 
L 19.671875 42.828125 
L 34.28125 42.828125 
Q 41.5 42.828125 45.03125 45.53125 
Q 48.578125 48.25 48.578125 53.8125 
Q 48.578125 59.328125 45.03125 62.0625 
Q 41.5 64.796875 34.28125 64.796875 
z
M 9.8125 72.90625 
L 35.015625 72.90625 
Q 46.296875 72.90625 52.390625 68.21875 
Q 58.5 63.53125 58.5 54.890625 
Q 58.5 48.1875 55.375 44.234375 
Q 52.25 40.28125 46.1875 39.3125 
Q 53.46875 37.75 57.5 32.78125 
Q 61.53125 27.828125 61.53125 20.40625 
Q 61.53125 10.640625 54.890625 5.3125 
Q 48.25 0 35.984375 0 
L 9.8125 0 
z
" id="DejaVuSans-66"/>
       <path d="M 37.109375 75.984375 
L 37.109375 68.5 
L 28.515625 68.5 
Q 23.6875 68.5 21.796875 66.546875 
Q 19.921875 64.59375 19.921875 59.515625 
L 19.921875 54.6875 
L 34.71875 54.6875 
L 34.71875 47.703125 
L 19.921875 47.703125 
L 19.921875 0 
L 10.890625 0 
L 10.890625 47.703125 
L 2.296875 47.703125 
L 2.296875 54.6875 
L 10.890625 54.6875 
L 10.890625 58.5 
Q 10.890625 67.625 15.140625 71.796875 
Q 19.390625 75.984375 28.609375 75.984375 
z
" id="DejaVuSans-102"/>
      </defs>
      <use xlink:href="#DejaVuSans-65"/>
      <use x="66.658203" xlink:href="#DejaVuSans-100"/>
      <use x="130.134766" xlink:href="#DejaVuSans-97"/>
      <use x="191.414062" xlink:href="#DejaVuSans-66"/>
      <use x="260.017578" xlink:href="#DejaVuSans-111"/>
      <use x="321.199219" xlink:href="#DejaVuSans-111"/>
      <use x="382.380859" xlink:href="#DejaVuSans-115"/>
      <use x="434.480469" xlink:href="#DejaVuSans-116"/>
      <use x="473.689453" xlink:href="#DejaVuSans-67"/>
      <use x="543.513672" xlink:href="#DejaVuSans-108"/>
      <use x="571.296875" xlink:href="#DejaVuSans-97"/>
      <use x="632.576172" xlink:href="#DejaVuSans-115"/>
      <use x="684.675781" xlink:href="#DejaVuSans-115"/>
      <use x="736.775391" xlink:href="#DejaVuSans-105"/>
      <use x="764.558594" xlink:href="#DejaVuSans-102"/>
      <use x="799.763672" xlink:href="#DejaVuSans-105"/>
      <use x="827.546875" xlink:href="#DejaVuSans-101"/>
      <use x="889.070312" xlink:href="#DejaVuSans-114"/>
     </g>
    </g>
    <g id="line2d_28">
     <path d="M 420.047803 282.553383 
L 431.627803 282.553383 
" style="fill:none;stroke:#ff7f0e;stroke-linecap:square;stroke-width:1.5;"/>
    </g>
    <g id="line2d_29"/>
    <g id="text_17">
     <!-- BaggingClassifier -->
     <g transform="translate(436.259803 284.579883)scale(0.0579 -0.0579)">
      <defs>
       <path d="M 45.40625 27.984375 
Q 45.40625 37.75 41.375 43.109375 
Q 37.359375 48.484375 30.078125 48.484375 
Q 22.859375 48.484375 18.828125 43.109375 
Q 14.796875 37.75 14.796875 27.984375 
Q 14.796875 18.265625 18.828125 12.890625 
Q 22.859375 7.515625 30.078125 7.515625 
Q 37.359375 7.515625 41.375 12.890625 
Q 45.40625 18.265625 45.40625 27.984375 
z
M 54.390625 6.78125 
Q 54.390625 -7.171875 48.1875 -13.984375 
Q 42 -20.796875 29.203125 -20.796875 
Q 24.46875 -20.796875 20.265625 -20.09375 
Q 16.0625 -19.390625 12.109375 -17.921875 
L 12.109375 -9.1875 
Q 16.0625 -11.328125 19.921875 -12.34375 
Q 23.78125 -13.375 27.78125 -13.375 
Q 36.625 -13.375 41.015625 -8.765625 
Q 45.40625 -4.15625 45.40625 5.171875 
L 45.40625 9.625 
Q 42.625 4.78125 38.28125 2.390625 
Q 33.9375 0 27.875 0 
Q 17.828125 0 11.671875 7.65625 
Q 5.515625 15.328125 5.515625 27.984375 
Q 5.515625 40.671875 11.671875 48.328125 
Q 17.828125 56 27.875 56 
Q 33.9375 56 38.28125 53.609375 
Q 42.625 51.21875 45.40625 46.390625 
L 45.40625 54.6875 
L 54.390625 54.6875 
z
" id="DejaVuSans-103"/>
       <path d="M 54.890625 33.015625 
L 54.890625 0 
L 45.90625 0 
L 45.90625 32.71875 
Q 45.90625 40.484375 42.875 44.328125 
Q 39.84375 48.1875 33.796875 48.1875 
Q 26.515625 48.1875 22.3125 43.546875 
Q 18.109375 38.921875 18.109375 30.90625 
L 18.109375 0 
L 9.078125 0 
L 9.078125 54.6875 
L 18.109375 54.6875 
L 18.109375 46.1875 
Q 21.34375 51.125 25.703125 53.5625 
Q 30.078125 56 35.796875 56 
Q 45.21875 56 50.046875 50.171875 
Q 54.890625 44.34375 54.890625 33.015625 
z
" id="DejaVuSans-110"/>
      </defs>
      <use xlink:href="#DejaVuSans-66"/>
      <use x="68.603516" xlink:href="#DejaVuSans-97"/>
      <use x="129.882812" xlink:href="#DejaVuSans-103"/>
      <use x="193.359375" xlink:href="#DejaVuSans-103"/>
      <use x="256.835938" xlink:href="#DejaVuSans-105"/>
      <use x="284.619141" xlink:href="#DejaVuSans-110"/>
      <use x="347.998047" xlink:href="#DejaVuSans-103"/>
      <use x="411.474609" xlink:href="#DejaVuSans-67"/>
      <use x="481.298828" xlink:href="#DejaVuSans-108"/>
      <use x="509.082031" xlink:href="#DejaVuSans-97"/>
      <use x="570.361328" xlink:href="#DejaVuSans-115"/>
      <use x="622.460938" xlink:href="#DejaVuSans-115"/>
      <use x="674.560547" xlink:href="#DejaVuSans-105"/>
      <use x="702.34375" xlink:href="#DejaVuSans-102"/>
      <use x="737.548828" xlink:href="#DejaVuSans-105"/>
      <use x="765.332031" xlink:href="#DejaVuSans-101"/>
      <use x="826.855469" xlink:href="#DejaVuSans-114"/>
     </g>
    </g>
    <g id="line2d_30">
     <path d="M 420.047803 291.052017 
L 431.627803 291.052017 
" style="fill:none;stroke:#2ca02c;stroke-linecap:square;stroke-width:1.5;"/>
    </g>
    <g id="line2d_31"/>
    <g id="text_18">
     <!-- BayesianLDA -->
     <g transform="translate(436.259803 293.078517)scale(0.0579 -0.0579)">
      <defs>
       <path d="M 32.171875 -5.078125 
Q 28.375 -14.84375 24.75 -17.8125 
Q 21.140625 -20.796875 15.09375 -20.796875 
L 7.90625 -20.796875 
L 7.90625 -13.28125 
L 13.1875 -13.28125 
Q 16.890625 -13.28125 18.9375 -11.515625 
Q 21 -9.765625 23.484375 -3.21875 
L 25.09375 0.875 
L 2.984375 54.6875 
L 12.5 54.6875 
L 29.59375 11.921875 
L 46.6875 54.6875 
L 56.203125 54.6875 
z
" id="DejaVuSans-121"/>
       <path d="M 9.8125 72.90625 
L 19.671875 72.90625 
L 19.671875 8.296875 
L 55.171875 8.296875 
L 55.171875 0 
L 9.8125 0 
z
" id="DejaVuSans-76"/>
       <path d="M 19.671875 64.796875 
L 19.671875 8.109375 
L 31.59375 8.109375 
Q 46.6875 8.109375 53.6875 14.9375 
Q 60.6875 21.78125 60.6875 36.53125 
Q 60.6875 51.171875 53.6875 57.984375 
Q 46.6875 64.796875 31.59375 64.796875 
z
M 9.8125 72.90625 
L 30.078125 72.90625 
Q 51.265625 72.90625 61.171875 64.09375 
Q 71.09375 55.28125 71.09375 36.53125 
Q 71.09375 17.671875 61.125 8.828125 
Q 51.171875 0 30.078125 0 
L 9.8125 0 
z
" id="DejaVuSans-68"/>
      </defs>
      <use xlink:href="#DejaVuSans-66"/>
      <use x="68.603516" xlink:href="#DejaVuSans-97"/>
      <use x="129.882812" xlink:href="#DejaVuSans-121"/>
      <use x="189.0625" xlink:href="#DejaVuSans-101"/>
      <use x="250.585938" xlink:href="#DejaVuSans-115"/>
      <use x="302.685547" xlink:href="#DejaVuSans-105"/>
      <use x="330.46875" xlink:href="#DejaVuSans-97"/>
      <use x="391.748047" xlink:href="#DejaVuSans-110"/>
      <use x="455.126953" xlink:href="#DejaVuSans-76"/>
      <use x="510.839844" xlink:href="#DejaVuSans-68"/>
      <use x="586.091797" xlink:href="#DejaVuSans-65"/>
     </g>
    </g>
    <g id="line2d_32">
     <path d="M 420.047803 299.550652 
L 431.627803 299.550652 
" style="fill:none;stroke:#d62728;stroke-linecap:square;stroke-width:1.5;"/>
    </g>
    <g id="line2d_33"/>
    <g id="text_19">
     <!-- BayesianQDA -->
     <g transform="translate(436.259803 301.577152)scale(0.0579 -0.0579)">
      <defs>
       <path d="M 39.40625 66.21875 
Q 28.65625 66.21875 22.328125 58.203125 
Q 16.015625 50.203125 16.015625 36.375 
Q 16.015625 22.609375 22.328125 14.59375 
Q 28.65625 6.59375 39.40625 6.59375 
Q 50.140625 6.59375 56.421875 14.59375 
Q 62.703125 22.609375 62.703125 36.375 
Q 62.703125 50.203125 56.421875 58.203125 
Q 50.140625 66.21875 39.40625 66.21875 
z
M 53.21875 1.3125 
L 66.21875 -12.890625 
L 54.296875 -12.890625 
L 43.5 -1.21875 
Q 41.890625 -1.3125 41.03125 -1.359375 
Q 40.1875 -1.421875 39.40625 -1.421875 
Q 24.03125 -1.421875 14.8125 8.859375 
Q 5.609375 19.140625 5.609375 36.375 
Q 5.609375 53.65625 14.8125 63.9375 
Q 24.03125 74.21875 39.40625 74.21875 
Q 54.734375 74.21875 63.90625 63.9375 
Q 73.09375 53.65625 73.09375 36.375 
Q 73.09375 23.6875 67.984375 14.640625 
Q 62.890625 5.609375 53.21875 1.3125 
z
" id="DejaVuSans-81"/>
      </defs>
      <use xlink:href="#DejaVuSans-66"/>
      <use x="68.603516" xlink:href="#DejaVuSans-97"/>
      <use x="129.882812" xlink:href="#DejaVuSans-121"/>
      <use x="189.0625" xlink:href="#DejaVuSans-101"/>
      <use x="250.585938" xlink:href="#DejaVuSans-115"/>
      <use x="302.685547" xlink:href="#DejaVuSans-105"/>
      <use x="330.46875" xlink:href="#DejaVuSans-97"/>
      <use x="391.748047" xlink:href="#DejaVuSans-110"/>
      <use x="455.126953" xlink:href="#DejaVuSans-81"/>
      <use x="533.837891" xlink:href="#DejaVuSans-68"/>
      <use x="609.089844" xlink:href="#DejaVuSans-65"/>
     </g>
    </g>
    <g id="line2d_34">
     <path d="M 420.047803 308.049286 
L 431.627803 308.049286 
" style="fill:none;stroke:#9467bd;stroke-linecap:square;stroke-width:1.5;"/>
    </g>
    <g id="line2d_35"/>
    <g id="text_20">
     <!-- DummyClassifier -->
     <g transform="translate(436.259803 310.075786)scale(0.0579 -0.0579)">
      <defs>
       <path d="M 52 44.1875 
Q 55.375 50.25 60.0625 53.125 
Q 64.75 56 71.09375 56 
Q 79.640625 56 84.28125 50.015625 
Q 88.921875 44.046875 88.921875 33.015625 
L 88.921875 0 
L 79.890625 0 
L 79.890625 32.71875 
Q 79.890625 40.578125 77.09375 44.375 
Q 74.3125 48.1875 68.609375 48.1875 
Q 61.625 48.1875 57.5625 43.546875 
Q 53.515625 38.921875 53.515625 30.90625 
L 53.515625 0 
L 44.484375 0 
L 44.484375 32.71875 
Q 44.484375 40.625 41.703125 44.40625 
Q 38.921875 48.1875 33.109375 48.1875 
Q 26.21875 48.1875 22.15625 43.53125 
Q 18.109375 38.875 18.109375 30.90625 
L 18.109375 0 
L 9.078125 0 
L 9.078125 54.6875 
L 18.109375 54.6875 
L 18.109375 46.1875 
Q 21.1875 51.21875 25.484375 53.609375 
Q 29.78125 56 35.6875 56 
Q 41.65625 56 45.828125 52.96875 
Q 50 49.953125 52 44.1875 
z
" id="DejaVuSans-109"/>
      </defs>
      <use xlink:href="#DejaVuSans-68"/>
      <use x="77.001953" xlink:href="#DejaVuSans-117"/>
      <use x="140.380859" xlink:href="#DejaVuSans-109"/>
      <use x="237.792969" xlink:href="#DejaVuSans-109"/>
      <use x="335.205078" xlink:href="#DejaVuSans-121"/>
      <use x="394.384766" xlink:href="#DejaVuSans-67"/>
      <use x="464.208984" xlink:href="#DejaVuSans-108"/>
      <use x="491.992188" xlink:href="#DejaVuSans-97"/>
      <use x="553.271484" xlink:href="#DejaVuSans-115"/>
      <use x="605.371094" xlink:href="#DejaVuSans-115"/>
      <use x="657.470703" xlink:href="#DejaVuSans-105"/>
      <use x="685.253906" xlink:href="#DejaVuSans-102"/>
      <use x="720.458984" xlink:href="#DejaVuSans-105"/>
      <use x="748.242188" xlink:href="#DejaVuSans-101"/>
      <use x="809.765625" xlink:href="#DejaVuSans-114"/>
     </g>
    </g>
    <g id="line2d_36">
     <path d="M 420.047803 316.54792 
L 431.627803 316.54792 
" style="fill:none;stroke:#8c564b;stroke-linecap:square;stroke-width:1.5;"/>
    </g>
    <g id="line2d_37"/>
    <g id="text_21">
     <!-- ExtraTreesClassifier -->
     <g transform="translate(436.259803 318.57442)scale(0.0579 -0.0579)">
      <defs>
       <path d="M 9.8125 72.90625 
L 55.90625 72.90625 
L 55.90625 64.59375 
L 19.671875 64.59375 
L 19.671875 43.015625 
L 54.390625 43.015625 
L 54.390625 34.71875 
L 19.671875 34.71875 
L 19.671875 8.296875 
L 56.78125 8.296875 
L 56.78125 0 
L 9.8125 0 
z
" id="DejaVuSans-69"/>
       <path d="M 54.890625 54.6875 
L 35.109375 28.078125 
L 55.90625 0 
L 45.3125 0 
L 29.390625 21.484375 
L 13.484375 0 
L 2.875 0 
L 24.125 28.609375 
L 4.6875 54.6875 
L 15.28125 54.6875 
L 29.78125 35.203125 
L 44.28125 54.6875 
z
" id="DejaVuSans-120"/>
      </defs>
      <use xlink:href="#DejaVuSans-69"/>
      <use x="63.183594" xlink:href="#DejaVuSans-120"/>
      <use x="122.363281" xlink:href="#DejaVuSans-116"/>
      <use x="161.572266" xlink:href="#DejaVuSans-114"/>
      <use x="202.685547" xlink:href="#DejaVuSans-97"/>
      <use x="263.964844" xlink:href="#DejaVuSans-84"/>
      <use x="310.298828" xlink:href="#DejaVuSans-114"/>
      <use x="349.162109" xlink:href="#DejaVuSans-101"/>
      <use x="410.685547" xlink:href="#DejaVuSans-101"/>
      <use x="472.208984" xlink:href="#DejaVuSans-115"/>
      <use x="524.308594" xlink:href="#DejaVuSans-67"/>
      <use x="594.132812" xlink:href="#DejaVuSans-108"/>
      <use x="621.916016" xlink:href="#DejaVuSans-97"/>
      <use x="683.195312" xlink:href="#DejaVuSans-115"/>
      <use x="735.294922" xlink:href="#DejaVuSans-115"/>
      <use x="787.394531" xlink:href="#DejaVuSans-105"/>
      <use x="815.177734" xlink:href="#DejaVuSans-102"/>
      <use x="850.382812" xlink:href="#DejaVuSans-105"/>
      <use x="878.166016" xlink:href="#DejaVuSans-101"/>
      <use x="939.689453" xlink:href="#DejaVuSans-114"/>
     </g>
    </g>
    <g id="line2d_38">
     <path d="M 420.047803 325.046555 
L 431.627803 325.046555 
" style="fill:none;stroke:#e377c2;stroke-linecap:square;stroke-width:1.5;"/>
    </g>
    <g id="line2d_39"/>
    <g id="text_22">
     <!-- GaussianNBClassifier -->
     <g transform="translate(436.259803 327.073055)scale(0.0579 -0.0579)">
      <defs>
       <path d="M 59.515625 10.40625 
L 59.515625 29.984375 
L 43.40625 29.984375 
L 43.40625 38.09375 
L 69.28125 38.09375 
L 69.28125 6.78125 
Q 63.578125 2.734375 56.6875 0.65625 
Q 49.8125 -1.421875 42 -1.421875 
Q 24.90625 -1.421875 15.25 8.5625 
Q 5.609375 18.5625 5.609375 36.375 
Q 5.609375 54.25 15.25 64.234375 
Q 24.90625 74.21875 42 74.21875 
Q 49.125 74.21875 55.546875 72.453125 
Q 61.96875 70.703125 67.390625 67.28125 
L 67.390625 56.78125 
Q 61.921875 61.421875 55.765625 63.765625 
Q 49.609375 66.109375 42.828125 66.109375 
Q 29.4375 66.109375 22.71875 58.640625 
Q 16.015625 51.171875 16.015625 36.375 
Q 16.015625 21.625 22.71875 14.15625 
Q 29.4375 6.6875 42.828125 6.6875 
Q 48.046875 6.6875 52.140625 7.59375 
Q 56.25 8.5 59.515625 10.40625 
z
" id="DejaVuSans-71"/>
       <path d="M 9.8125 72.90625 
L 23.09375 72.90625 
L 55.421875 11.921875 
L 55.421875 72.90625 
L 64.984375 72.90625 
L 64.984375 0 
L 51.703125 0 
L 19.390625 60.984375 
L 19.390625 0 
L 9.8125 0 
z
" id="DejaVuSans-78"/>
      </defs>
      <use xlink:href="#DejaVuSans-71"/>
      <use x="77.490234" xlink:href="#DejaVuSans-97"/>
      <use x="138.769531" xlink:href="#DejaVuSans-117"/>
      <use x="202.148438" xlink:href="#DejaVuSans-115"/>
      <use x="254.248047" xlink:href="#DejaVuSans-115"/>
      <use x="306.347656" xlink:href="#DejaVuSans-105"/>
      <use x="334.130859" xlink:href="#DejaVuSans-97"/>
      <use x="395.410156" xlink:href="#DejaVuSans-110"/>
      <use x="458.789062" xlink:href="#DejaVuSans-78"/>
      <use x="533.59375" xlink:href="#DejaVuSans-66"/>
      <use x="600.447266" xlink:href="#DejaVuSans-67"/>
      <use x="670.271484" xlink:href="#DejaVuSans-108"/>
      <use x="698.054688" xlink:href="#DejaVuSans-97"/>
      <use x="759.333984" xlink:href="#DejaVuSans-115"/>
      <use x="811.433594" xlink:href="#DejaVuSans-115"/>
      <use x="863.533203" xlink:href="#DejaVuSans-105"/>
      <use x="891.316406" xlink:href="#DejaVuSans-102"/>
      <use x="926.521484" xlink:href="#DejaVuSans-105"/>
      <use x="954.304688" xlink:href="#DejaVuSans-101"/>
      <use x="1015.828125" xlink:href="#DejaVuSans-114"/>
     </g>
    </g>
    <g id="line2d_40">
     <path d="M 420.047803 333.545189 
L 431.627803 333.545189 
" style="fill:none;stroke:#7f7f7f;stroke-linecap:square;stroke-width:1.5;"/>
    </g>
    <g id="line2d_41"/>
    <g id="text_23">
     <!-- GaussianProcessClassifier -->
     <g transform="translate(436.259803 335.571689)scale(0.0579 -0.0579)">
      <use xlink:href="#DejaVuSans-71"/>
      <use x="77.490234" xlink:href="#DejaVuSans-97"/>
      <use x="138.769531" xlink:href="#DejaVuSans-117"/>
      <use x="202.148438" xlink:href="#DejaVuSans-115"/>
      <use x="254.248047" xlink:href="#DejaVuSans-115"/>
      <use x="306.347656" xlink:href="#DejaVuSans-105"/>
      <use x="334.130859" xlink:href="#DejaVuSans-97"/>
      <use x="395.410156" xlink:href="#DejaVuSans-110"/>
      <use x="458.789062" xlink:href="#DejaVuSans-80"/>
      <use x="517.341797" xlink:href="#DejaVuSans-114"/>
      <use x="556.205078" xlink:href="#DejaVuSans-111"/>
      <use x="617.386719" xlink:href="#DejaVuSans-99"/>
      <use x="672.367188" xlink:href="#DejaVuSans-101"/>
      <use x="733.890625" xlink:href="#DejaVuSans-115"/>
      <use x="785.990234" xlink:href="#DejaVuSans-115"/>
      <use x="838.089844" xlink:href="#DejaVuSans-67"/>
      <use x="907.914062" xlink:href="#DejaVuSans-108"/>
      <use x="935.697266" xlink:href="#DejaVuSans-97"/>
      <use x="996.976562" xlink:href="#DejaVuSans-115"/>
      <use x="1049.076172" xlink:href="#DejaVuSans-115"/>
      <use x="1101.175781" xlink:href="#DejaVuSans-105"/>
      <use x="1128.958984" xlink:href="#DejaVuSans-102"/>
      <use x="1164.164062" xlink:href="#DejaVuSans-105"/>
      <use x="1191.947266" xlink:href="#DejaVuSans-101"/>
      <use x="1253.470703" xlink:href="#DejaVuSans-114"/>
     </g>
    </g>
    <g id="line2d_42">
     <path d="M 420.047803 342.043823 
L 431.627803 342.043823 
" style="fill:none;stroke:#bcbd22;stroke-linecap:square;stroke-width:1.5;"/>
    </g>
    <g id="line2d_43"/>
    <g id="text_24">
     <!-- GradientBoostingClassifier -->
     <g transform="translate(436.259803 344.070323)scale(0.0579 -0.0579)">
      <use xlink:href="#DejaVuSans-71"/>
      <use x="77.490234" xlink:href="#DejaVuSans-114"/>
      <use x="118.603516" xlink:href="#DejaVuSans-97"/>
      <use x="179.882812" xlink:href="#DejaVuSans-100"/>
      <use x="243.359375" xlink:href="#DejaVuSans-105"/>
      <use x="271.142578" xlink:href="#DejaVuSans-101"/>
      <use x="332.666016" xlink:href="#DejaVuSans-110"/>
      <use x="396.044922" xlink:href="#DejaVuSans-116"/>
      <use x="435.253906" xlink:href="#DejaVuSans-66"/>
      <use x="503.857422" xlink:href="#DejaVuSans-111"/>
      <use x="565.039062" xlink:href="#DejaVuSans-111"/>
      <use x="626.220703" xlink:href="#DejaVuSans-115"/>
      <use x="678.320312" xlink:href="#DejaVuSans-116"/>
      <use x="717.529297" xlink:href="#DejaVuSans-105"/>
      <use x="745.3125" xlink:href="#DejaVuSans-110"/>
      <use x="808.691406" xlink:href="#DejaVuSans-103"/>
      <use x="872.167969" xlink:href="#DejaVuSans-67"/>
      <use x="941.992188" xlink:href="#DejaVuSans-108"/>
      <use x="969.775391" xlink:href="#DejaVuSans-97"/>
      <use x="1031.054688" xlink:href="#DejaVuSans-115"/>
      <use x="1083.154297" xlink:href="#DejaVuSans-115"/>
      <use x="1135.253906" xlink:href="#DejaVuSans-105"/>
      <use x="1163.037109" xlink:href="#DejaVuSans-102"/>
      <use x="1198.242188" xlink:href="#DejaVuSans-105"/>
      <use x="1226.025391" xlink:href="#DejaVuSans-101"/>
      <use x="1287.548828" xlink:href="#DejaVuSans-114"/>
     </g>
    </g>
    <g id="line2d_44">
     <path d="M 420.047803 350.542458 
L 431.627803 350.542458 
" style="fill:none;stroke:#17becf;stroke-linecap:square;stroke-width:1.5;"/>
    </g>
    <g id="line2d_45"/>
    <g id="text_25">
     <!-- KNeighborsClassifier -->
     <g transform="translate(436.259803 352.568958)scale(0.0579 -0.0579)">
      <defs>
       <path d="M 9.8125 72.90625 
L 19.671875 72.90625 
L 19.671875 42.09375 
L 52.390625 72.90625 
L 65.09375 72.90625 
L 28.90625 38.921875 
L 67.671875 0 
L 54.6875 0 
L 19.671875 35.109375 
L 19.671875 0 
L 9.8125 0 
z
" id="DejaVuSans-75"/>
       <path d="M 54.890625 33.015625 
L 54.890625 0 
L 45.90625 0 
L 45.90625 32.71875 
Q 45.90625 40.484375 42.875 44.328125 
Q 39.84375 48.1875 33.796875 48.1875 
Q 26.515625 48.1875 22.3125 43.546875 
Q 18.109375 38.921875 18.109375 30.90625 
L 18.109375 0 
L 9.078125 0 
L 9.078125 75.984375 
L 18.109375 75.984375 
L 18.109375 46.1875 
Q 21.34375 51.125 25.703125 53.5625 
Q 30.078125 56 35.796875 56 
Q 45.21875 56 50.046875 50.171875 
Q 54.890625 44.34375 54.890625 33.015625 
z
" id="DejaVuSans-104"/>
       <path d="M 48.6875 27.296875 
Q 48.6875 37.203125 44.609375 42.84375 
Q 40.53125 48.484375 33.40625 48.484375 
Q 26.265625 48.484375 22.1875 42.84375 
Q 18.109375 37.203125 18.109375 27.296875 
Q 18.109375 17.390625 22.1875 11.75 
Q 26.265625 6.109375 33.40625 6.109375 
Q 40.53125 6.109375 44.609375 11.75 
Q 48.6875 17.390625 48.6875 27.296875 
z
M 18.109375 46.390625 
Q 20.953125 51.265625 25.265625 53.625 
Q 29.59375 56 35.59375 56 
Q 45.5625 56 51.78125 48.09375 
Q 58.015625 40.1875 58.015625 27.296875 
Q 58.015625 14.40625 51.78125 6.484375 
Q 45.5625 -1.421875 35.59375 -1.421875 
Q 29.59375 -1.421875 25.265625 0.953125 
Q 20.953125 3.328125 18.109375 8.203125 
L 18.109375 0 
L 9.078125 0 
L 9.078125 75.984375 
L 18.109375 75.984375 
z
" id="DejaVuSans-98"/>
      </defs>
      <use xlink:href="#DejaVuSans-75"/>
      <use x="65.576172" xlink:href="#DejaVuSans-78"/>
      <use x="140.380859" xlink:href="#DejaVuSans-101"/>
      <use x="201.904297" xlink:href="#DejaVuSans-105"/>
      <use x="229.6875" xlink:href="#DejaVuSans-103"/>
      <use x="293.164062" xlink:href="#DejaVuSans-104"/>
      <use x="356.542969" xlink:href="#DejaVuSans-98"/>
      <use x="420.019531" xlink:href="#DejaVuSans-111"/>
      <use x="481.201172" xlink:href="#DejaVuSans-114"/>
      <use x="522.314453" xlink:href="#DejaVuSans-115"/>
      <use x="574.414062" xlink:href="#DejaVuSans-67"/>
      <use x="644.238281" xlink:href="#DejaVuSans-108"/>
      <use x="672.021484" xlink:href="#DejaVuSans-97"/>
      <use x="733.300781" xlink:href="#DejaVuSans-115"/>
      <use x="785.400391" xlink:href="#DejaVuSans-115"/>
      <use x="837.5" xlink:href="#DejaVuSans-105"/>
      <use x="865.283203" xlink:href="#DejaVuSans-102"/>
      <use x="900.488281" xlink:href="#DejaVuSans-105"/>
      <use x="928.271484" xlink:href="#DejaVuSans-101"/>
      <use x="989.794922" xlink:href="#DejaVuSans-114"/>
     </g>
    </g>
    <g id="line2d_46">
     <path d="M 420.047803 359.041092 
L 431.627803 359.041092 
" style="fill:none;stroke:#1f77b4;stroke-linecap:square;stroke-width:1.5;"/>
    </g>
    <g id="line2d_47"/>
    <g id="text_26">
     <!-- LogisticClassifier -->
     <g transform="translate(436.259803 361.067592)scale(0.0579 -0.0579)">
      <use xlink:href="#DejaVuSans-76"/>
      <use x="53.962891" xlink:href="#DejaVuSans-111"/>
      <use x="115.144531" xlink:href="#DejaVuSans-103"/>
      <use x="178.621094" xlink:href="#DejaVuSans-105"/>
      <use x="206.404297" xlink:href="#DejaVuSans-115"/>
      <use x="258.503906" xlink:href="#DejaVuSans-116"/>
      <use x="297.712891" xlink:href="#DejaVuSans-105"/>
      <use x="325.496094" xlink:href="#DejaVuSans-99"/>
      <use x="380.476562" xlink:href="#DejaVuSans-67"/>
      <use x="450.300781" xlink:href="#DejaVuSans-108"/>
      <use x="478.083984" xlink:href="#DejaVuSans-97"/>
      <use x="539.363281" xlink:href="#DejaVuSans-115"/>
      <use x="591.462891" xlink:href="#DejaVuSans-115"/>
      <use x="643.5625" xlink:href="#DejaVuSans-105"/>
      <use x="671.345703" xlink:href="#DejaVuSans-102"/>
      <use x="706.550781" xlink:href="#DejaVuSans-105"/>
      <use x="734.333984" xlink:href="#DejaVuSans-101"/>
      <use x="795.857422" xlink:href="#DejaVuSans-114"/>
     </g>
    </g>
    <g id="line2d_48">
     <path d="M 420.047803 367.539727 
L 431.627803 367.539727 
" style="fill:none;stroke:#ff7f0e;stroke-linecap:square;stroke-width:1.5;"/>
    </g>
    <g id="line2d_49"/>
    <g id="text_27">
     <!-- ProbabilisticSGDClassifier -->
     <g transform="translate(436.259803 369.566227)scale(0.0579 -0.0579)">
      <defs>
       <path d="M 53.515625 70.515625 
L 53.515625 60.890625 
Q 47.90625 63.578125 42.921875 64.890625 
Q 37.9375 66.21875 33.296875 66.21875 
Q 25.25 66.21875 20.875 63.09375 
Q 16.5 59.96875 16.5 54.203125 
Q 16.5 49.359375 19.40625 46.890625 
Q 22.3125 44.4375 30.421875 42.921875 
L 36.375 41.703125 
Q 47.40625 39.59375 52.65625 34.296875 
Q 57.90625 29 57.90625 20.125 
Q 57.90625 9.515625 50.796875 4.046875 
Q 43.703125 -1.421875 29.984375 -1.421875 
Q 24.8125 -1.421875 18.96875 -0.25 
Q 13.140625 0.921875 6.890625 3.21875 
L 6.890625 13.375 
Q 12.890625 10.015625 18.65625 8.296875 
Q 24.421875 6.59375 29.984375 6.59375 
Q 38.421875 6.59375 43.015625 9.90625 
Q 47.609375 13.234375 47.609375 19.390625 
Q 47.609375 24.75 44.3125 27.78125 
Q 41.015625 30.8125 33.5 32.328125 
L 27.484375 33.5 
Q 16.453125 35.6875 11.515625 40.375 
Q 6.59375 45.0625 6.59375 53.421875 
Q 6.59375 63.09375 13.40625 68.65625 
Q 20.21875 74.21875 32.171875 74.21875 
Q 37.3125 74.21875 42.625 73.28125 
Q 47.953125 72.359375 53.515625 70.515625 
z
" id="DejaVuSans-83"/>
      </defs>
      <use xlink:href="#DejaVuSans-80"/>
      <use x="58.552734" xlink:href="#DejaVuSans-114"/>
      <use x="97.416016" xlink:href="#DejaVuSans-111"/>
      <use x="158.597656" xlink:href="#DejaVuSans-98"/>
      <use x="222.074219" xlink:href="#DejaVuSans-97"/>
      <use x="283.353516" xlink:href="#DejaVuSans-98"/>
      <use x="346.830078" xlink:href="#DejaVuSans-105"/>
      <use x="374.613281" xlink:href="#DejaVuSans-108"/>
      <use x="402.396484" xlink:href="#DejaVuSans-105"/>
      <use x="430.179688" xlink:href="#DejaVuSans-115"/>
      <use x="482.279297" xlink:href="#DejaVuSans-116"/>
      <use x="521.488281" xlink:href="#DejaVuSans-105"/>
      <use x="549.271484" xlink:href="#DejaVuSans-99"/>
      <use x="604.251953" xlink:href="#DejaVuSans-83"/>
      <use x="667.728516" xlink:href="#DejaVuSans-71"/>
      <use x="745.21875" xlink:href="#DejaVuSans-68"/>
      <use x="822.220703" xlink:href="#DejaVuSans-67"/>
      <use x="892.044922" xlink:href="#DejaVuSans-108"/>
      <use x="919.828125" xlink:href="#DejaVuSans-97"/>
      <use x="981.107422" xlink:href="#DejaVuSans-115"/>
      <use x="1033.207031" xlink:href="#DejaVuSans-115"/>
      <use x="1085.306641" xlink:href="#DejaVuSans-105"/>
      <use x="1113.089844" xlink:href="#DejaVuSans-102"/>
      <use x="1148.294922" xlink:href="#DejaVuSans-105"/>
      <use x="1176.078125" xlink:href="#DejaVuSans-101"/>
      <use x="1237.601562" xlink:href="#DejaVuSans-114"/>
     </g>
    </g>
    <g id="line2d_50">
     <path d="M 420.047803 376.038361 
L 431.627803 376.038361 
" style="fill:none;stroke:#2ca02c;stroke-linecap:square;stroke-width:1.5;"/>
    </g>
    <g id="line2d_51"/>
    <g id="text_28">
     <!-- RandomForestClassifier -->
     <g transform="translate(436.259803 378.064861)scale(0.0579 -0.0579)">
      <use xlink:href="#DejaVuSans-82"/>
      <use x="67.232422" xlink:href="#DejaVuSans-97"/>
      <use x="128.511719" xlink:href="#DejaVuSans-110"/>
      <use x="191.890625" xlink:href="#DejaVuSans-100"/>
      <use x="255.367188" xlink:href="#DejaVuSans-111"/>
      <use x="316.548828" xlink:href="#DejaVuSans-109"/>
      <use x="413.960938" xlink:href="#DejaVuSans-70"/>
      <use x="467.855469" xlink:href="#DejaVuSans-111"/>
      <use x="529.037109" xlink:href="#DejaVuSans-114"/>
      <use x="567.900391" xlink:href="#DejaVuSans-101"/>
      <use x="629.423828" xlink:href="#DejaVuSans-115"/>
      <use x="681.523438" xlink:href="#DejaVuSans-116"/>
      <use x="720.732422" xlink:href="#DejaVuSans-67"/>
      <use x="790.556641" xlink:href="#DejaVuSans-108"/>
      <use x="818.339844" xlink:href="#DejaVuSans-97"/>
      <use x="879.619141" xlink:href="#DejaVuSans-115"/>
      <use x="931.71875" xlink:href="#DejaVuSans-115"/>
      <use x="983.818359" xlink:href="#DejaVuSans-105"/>
      <use x="1011.601562" xlink:href="#DejaVuSans-102"/>
      <use x="1046.806641" xlink:href="#DejaVuSans-105"/>
      <use x="1074.589844" xlink:href="#DejaVuSans-101"/>
      <use x="1136.113281" xlink:href="#DejaVuSans-114"/>
     </g>
    </g>
   </g>
  </g>
 </g>
 <defs>
  <clipPath id="p3f0ade02fe">
   <rect height="332.64" width="446.4" x="72" y="51.84"/>
  </clipPath>
 </defs>
</svg>
