<?xml version="1.0" encoding="utf-8"?>
<svg xmlns="http://www.w3.org/2000/svg" xmlns:xlink="http://www.w3.org/1999/xlink" width="600" height="400" viewBox="0 0 2400 1600">
<defs>
  <clipPath id="clip280">
    <rect x="0" y="0" width="2400" height="1600"/>
  </clipPath>
</defs>
<path clip-path="url(#clip280)" d="M0 1600 L2400 1600 L2400 8.88178e-14 L0 8.88178e-14  Z" fill="#ffffff" fill-rule="evenodd" fill-opacity="1"/>
<defs>
  <clipPath id="clip281">
    <rect x="480" y="0" width="1681" height="1600"/>
  </clipPath>
</defs>
<path clip-path="url(#clip280)" d="M215.002 1436.14 L2352.76 1436.14 L2352.76 47.2441 L215.002 47.2441  Z" fill="#ffffff" fill-rule="evenodd" fill-opacity="1"/>
<defs>
  <clipPath id="clip282">
    <rect x="215" y="47" width="2139" height="1390"/>
  </clipPath>
</defs>
<polyline clip-path="url(#clip282)" style="stroke:#000000; stroke-linecap:round; stroke-linejoin:round; stroke-width:2; stroke-opacity:0.1; fill:none" points="755.381,1436.14 755.381,47.2441 "/>
<polyline clip-path="url(#clip282)" style="stroke:#000000; stroke-linecap:round; stroke-linejoin:round; stroke-width:2; stroke-opacity:0.1; fill:none" points="1812.38,1436.14 1812.38,47.2441 "/>
<polyline clip-path="url(#clip280)" style="stroke:#000000; stroke-linecap:round; stroke-linejoin:round; stroke-width:4; stroke-opacity:1; fill:none" points="215.002,1436.14 2352.76,1436.14 "/>
<polyline clip-path="url(#clip280)" style="stroke:#000000; stroke-linecap:round; stroke-linejoin:round; stroke-width:4; stroke-opacity:1; fill:none" points="755.381,1436.14 755.381,1417.24 "/>
<polyline clip-path="url(#clip280)" style="stroke:#000000; stroke-linecap:round; stroke-linejoin:round; stroke-width:4; stroke-opacity:1; fill:none" points="1812.38,1436.14 1812.38,1417.24 "/>
<path clip-path="url(#clip280)" d="M748.748 1478.7 L748.748 1489.78 L755.31 1489.78 Q758.612 1489.78 760.191 1488.42 Q761.792 1487.04 761.792 1484.23 Q761.792 1481.39 760.191 1480.06 Q758.612 1478.7 755.31 1478.7 L748.748 1478.7 M748.748 1466.26 L748.748 1475.38 L754.804 1475.38 Q757.801 1475.38 759.26 1474.26 Q760.738 1473.13 760.738 1470.82 Q760.738 1468.53 759.26 1467.4 Q757.801 1466.26 754.804 1466.26 L748.748 1466.26 M744.656 1462.9 L755.108 1462.9 Q759.786 1462.9 762.318 1464.84 Q764.85 1466.79 764.85 1470.37 Q764.85 1473.15 763.554 1474.79 Q762.257 1476.43 759.746 1476.83 Q762.764 1477.48 764.425 1479.55 Q766.106 1481.59 766.106 1484.67 Q766.106 1488.72 763.351 1490.93 Q760.597 1493.14 755.513 1493.14 L744.656 1493.14 L744.656 1462.9 Z" fill="#000000" fill-rule="nonzero" fill-opacity="1" /><path clip-path="url(#clip280)" d="M1798.54 1462.9 L1804.64 1462.9 L1812.36 1483.48 L1820.11 1462.9 L1826.21 1462.9 L1826.21 1493.14 L1822.22 1493.14 L1822.22 1466.59 L1814.42 1487.33 L1810.31 1487.33 L1802.51 1466.59 L1802.51 1493.14 L1798.54 1493.14 L1798.54 1462.9 Z" fill="#000000" fill-rule="nonzero" fill-opacity="1" /><path clip-path="url(#clip280)" d="M1217.58 1528.27 L1217.58 1533.82 Q1214.92 1531.34 1211.9 1530.12 Q1208.91 1528.9 1205.52 1528.9 Q1198.85 1528.9 1195.31 1532.98 Q1191.77 1537.05 1191.77 1544.75 Q1191.77 1552.44 1195.31 1556.53 Q1198.85 1560.59 1205.52 1560.59 Q1208.91 1560.59 1211.9 1559.36 Q1214.92 1558.14 1217.58 1555.67 L1217.58 1561.16 Q1214.82 1563.04 1211.72 1563.97 Q1208.65 1564.91 1205.21 1564.91 Q1196.38 1564.91 1191.3 1559.52 Q1186.22 1554.1 1186.22 1544.75 Q1186.22 1535.38 1191.3 1529.99 Q1196.38 1524.57 1205.21 1524.57 Q1208.7 1524.57 1211.77 1525.51 Q1214.87 1526.42 1217.58 1528.27 Z" fill="#000000" fill-rule="nonzero" fill-opacity="1" /><path clip-path="url(#clip280)" d="M1225.49 1523.64 L1230.29 1523.64 L1230.29 1564.16 L1225.49 1564.16 L1225.49 1523.64 Z" fill="#000000" fill-rule="nonzero" fill-opacity="1" /><path clip-path="url(#clip280)" d="M1253.57 1549.49 Q1247.76 1549.49 1245.52 1550.82 Q1243.28 1552.15 1243.28 1555.35 Q1243.28 1557.91 1244.95 1559.42 Q1246.64 1560.9 1249.53 1560.9 Q1253.51 1560.9 1255.91 1558.09 Q1258.33 1555.25 1258.33 1550.56 L1258.33 1549.49 L1253.57 1549.49 M1263.12 1547.52 L1263.12 1564.16 L1258.33 1564.16 L1258.33 1559.73 Q1256.69 1562.39 1254.24 1563.66 Q1251.8 1564.91 1248.25 1564.91 Q1243.78 1564.91 1241.12 1562.41 Q1238.49 1559.89 1238.49 1555.67 Q1238.49 1550.74 1241.77 1548.24 Q1245.08 1545.74 1251.61 1545.74 L1258.33 1545.74 L1258.33 1545.28 Q1258.33 1541.97 1256.14 1540.17 Q1253.98 1538.35 1250.05 1538.35 Q1247.55 1538.35 1245.18 1538.95 Q1242.81 1539.55 1240.62 1540.74 L1240.62 1536.32 Q1243.25 1535.3 1245.73 1534.81 Q1248.2 1534.29 1250.55 1534.29 Q1256.87 1534.29 1260 1537.57 Q1263.12 1540.85 1263.12 1547.52 Z" fill="#000000" fill-rule="nonzero" fill-opacity="1" /><path clip-path="url(#clip280)" d="M1291.59 1535.85 L1291.59 1540.38 Q1289.56 1539.34 1287.37 1538.82 Q1285.18 1538.3 1282.84 1538.3 Q1279.27 1538.3 1277.47 1539.39 Q1275.7 1540.48 1275.7 1542.67 Q1275.7 1544.34 1276.98 1545.3 Q1278.25 1546.24 1282.11 1547.1 L1283.75 1547.46 Q1288.85 1548.56 1290.99 1550.56 Q1293.15 1552.54 1293.15 1556.11 Q1293.15 1560.17 1289.92 1562.54 Q1286.72 1564.91 1281.09 1564.91 Q1278.75 1564.91 1276.2 1564.44 Q1273.67 1564 1270.86 1563.09 L1270.86 1558.14 Q1273.51 1559.52 1276.09 1560.22 Q1278.67 1560.9 1281.2 1560.9 Q1284.58 1560.9 1286.41 1559.75 Q1288.23 1558.58 1288.23 1556.47 Q1288.23 1554.52 1286.9 1553.48 Q1285.6 1552.44 1281.14 1551.47 L1279.48 1551.08 Q1275.02 1550.15 1273.05 1548.22 Q1271.07 1546.27 1271.07 1542.88 Q1271.07 1538.77 1273.98 1536.53 Q1276.9 1534.29 1282.26 1534.29 Q1284.92 1534.29 1287.26 1534.68 Q1289.61 1535.07 1291.59 1535.85 Z" fill="#000000" fill-rule="nonzero" fill-opacity="1" /><path clip-path="url(#clip280)" d="M1319.37 1535.85 L1319.37 1540.38 Q1317.34 1539.34 1315.15 1538.82 Q1312.97 1538.3 1310.62 1538.3 Q1307.06 1538.3 1305.26 1539.39 Q1303.49 1540.48 1303.49 1542.67 Q1303.49 1544.34 1304.76 1545.3 Q1306.04 1546.24 1309.89 1547.1 L1311.54 1547.46 Q1316.64 1548.56 1318.77 1550.56 Q1320.94 1552.54 1320.94 1556.11 Q1320.94 1560.17 1317.71 1562.54 Q1314.5 1564.91 1308.88 1564.91 Q1306.54 1564.91 1303.98 1564.44 Q1301.46 1564 1298.64 1563.09 L1298.64 1558.14 Q1301.3 1559.52 1303.88 1560.22 Q1306.46 1560.9 1308.98 1560.9 Q1312.37 1560.9 1314.19 1559.75 Q1316.01 1558.58 1316.01 1556.47 Q1316.01 1554.52 1314.69 1553.48 Q1313.38 1552.44 1308.93 1551.47 L1307.26 1551.08 Q1302.81 1550.15 1300.83 1548.22 Q1298.85 1546.27 1298.85 1542.88 Q1298.85 1538.77 1301.77 1536.53 Q1304.69 1534.29 1310.05 1534.29 Q1312.71 1534.29 1315.05 1534.68 Q1317.39 1535.07 1319.37 1535.85 Z" fill="#000000" fill-rule="nonzero" fill-opacity="1" /><path clip-path="url(#clip280)" d="M1353.51 1548.37 L1353.51 1550.72 L1331.48 1550.72 Q1331.8 1555.67 1334.45 1558.27 Q1337.13 1560.85 1341.9 1560.85 Q1344.66 1560.85 1347.24 1560.17 Q1349.84 1559.49 1352.39 1558.14 L1352.39 1562.67 Q1349.82 1563.77 1347.11 1564.34 Q1344.4 1564.91 1341.61 1564.91 Q1334.63 1564.91 1330.55 1560.85 Q1326.48 1556.79 1326.48 1549.86 Q1326.48 1542.7 1330.34 1538.5 Q1334.22 1534.29 1340.78 1534.29 Q1346.67 1534.29 1350.08 1538.09 Q1353.51 1541.86 1353.51 1548.37 M1348.72 1546.97 Q1348.67 1543.04 1346.51 1540.69 Q1344.37 1538.35 1340.83 1538.35 Q1336.82 1538.35 1334.4 1540.61 Q1332 1542.88 1331.64 1546.99 L1348.72 1546.97 Z" fill="#000000" fill-rule="nonzero" fill-opacity="1" /><path clip-path="url(#clip280)" d="M1379.97 1535.85 L1379.97 1540.38 Q1377.94 1539.34 1375.75 1538.82 Q1373.57 1538.3 1371.22 1538.3 Q1367.65 1538.3 1365.86 1539.39 Q1364.09 1540.48 1364.09 1542.67 Q1364.09 1544.34 1365.36 1545.3 Q1366.64 1546.24 1370.49 1547.1 L1372.13 1547.46 Q1377.24 1548.56 1379.37 1550.56 Q1381.53 1552.54 1381.53 1556.11 Q1381.53 1560.17 1378.31 1562.54 Q1375.1 1564.91 1369.48 1564.91 Q1367.13 1564.91 1364.58 1564.44 Q1362.06 1564 1359.24 1563.09 L1359.24 1558.14 Q1361.9 1559.52 1364.48 1560.22 Q1367.06 1560.9 1369.58 1560.9 Q1372.97 1560.9 1374.79 1559.75 Q1376.61 1558.58 1376.61 1556.47 Q1376.61 1554.52 1375.28 1553.48 Q1373.98 1552.44 1369.53 1551.47 L1367.86 1551.08 Q1363.41 1550.15 1361.43 1548.22 Q1359.45 1546.27 1359.45 1542.88 Q1359.45 1538.77 1362.37 1536.53 Q1365.28 1534.29 1370.65 1534.29 Q1373.31 1534.29 1375.65 1534.68 Q1377.99 1535.07 1379.97 1535.85 Z" fill="#000000" fill-rule="nonzero" fill-opacity="1" /><polyline clip-path="url(#clip282)" style="stroke:#000000; stroke-linecap:round; stroke-linejoin:round; stroke-width:2; stroke-opacity:0.1; fill:none" points="215.002,1436.14 2352.76,1436.14 "/>
<polyline clip-path="url(#clip282)" style="stroke:#000000; stroke-linecap:round; stroke-linejoin:round; stroke-width:2; stroke-opacity:0.1; fill:none" points="215.002,1047.09 2352.76,1047.09 "/>
<polyline clip-path="url(#clip282)" style="stroke:#000000; stroke-linecap:round; stroke-linejoin:round; stroke-width:2; stroke-opacity:0.1; fill:none" points="215.002,658.047 2352.76,658.047 "/>
<polyline clip-path="url(#clip282)" style="stroke:#000000; stroke-linecap:round; stroke-linejoin:round; stroke-width:2; stroke-opacity:0.1; fill:none" points="215.002,269.001 2352.76,269.001 "/>
<polyline clip-path="url(#clip280)" style="stroke:#000000; stroke-linecap:round; stroke-linejoin:round; stroke-width:4; stroke-opacity:1; fill:none" points="215.002,1436.14 215.002,47.2441 "/>
<polyline clip-path="url(#clip280)" style="stroke:#000000; stroke-linecap:round; stroke-linejoin:round; stroke-width:4; stroke-opacity:1; fill:none" points="215.002,1436.14 233.9,1436.14 "/>
<polyline clip-path="url(#clip280)" style="stroke:#000000; stroke-linecap:round; stroke-linejoin:round; stroke-width:4; stroke-opacity:1; fill:none" points="215.002,1047.09 233.9,1047.09 "/>
<polyline clip-path="url(#clip280)" style="stroke:#000000; stroke-linecap:round; stroke-linejoin:round; stroke-width:4; stroke-opacity:1; fill:none" points="215.002,658.047 233.9,658.047 "/>
<polyline clip-path="url(#clip280)" style="stroke:#000000; stroke-linecap:round; stroke-linejoin:round; stroke-width:4; stroke-opacity:1; fill:none" points="215.002,269.001 233.9,269.001 "/>
<path clip-path="url(#clip280)" d="M168.551 1423.71 Q165.391 1423.71 163.791 1426.83 Q162.211 1429.93 162.211 1436.17 Q162.211 1442.39 163.791 1445.51 Q165.391 1448.61 168.551 1448.61 Q171.731 1448.61 173.311 1445.51 Q174.911 1442.39 174.911 1436.17 Q174.911 1429.93 173.311 1426.83 Q171.731 1423.71 168.551 1423.71 M168.551 1420.47 Q173.635 1420.47 176.308 1424.5 Q179.002 1428.51 179.002 1436.17 Q179.002 1443.81 176.308 1447.84 Q173.635 1451.85 168.551 1451.85 Q163.467 1451.85 160.773 1447.84 Q158.1 1443.81 158.1 1436.17 Q158.1 1428.51 160.773 1424.5 Q163.467 1420.47 168.551 1420.47 Z" fill="#000000" fill-rule="nonzero" fill-opacity="1" /><path clip-path="url(#clip280)" d="M107.727 1058.77 L114.411 1058.77 L114.411 1035.7 L107.139 1037.16 L107.139 1033.43 L114.37 1031.97 L118.462 1031.97 L118.462 1058.77 L125.146 1058.77 L125.146 1062.21 L107.727 1062.21 L107.727 1058.77 Z" fill="#000000" fill-rule="nonzero" fill-opacity="1" /><path clip-path="url(#clip280)" d="M142.159 1034.67 Q139 1034.67 137.4 1037.79 Q135.82 1040.89 135.82 1047.12 Q135.82 1053.34 137.4 1056.46 Q139 1059.56 142.159 1059.56 Q145.339 1059.56 146.919 1056.46 Q148.519 1053.34 148.519 1047.12 Q148.519 1040.89 146.919 1037.79 Q145.339 1034.67 142.159 1034.67 M142.159 1031.43 Q147.243 1031.43 149.917 1035.46 Q152.611 1039.47 152.611 1047.12 Q152.611 1054.76 149.917 1058.79 Q147.243 1062.8 142.159 1062.8 Q137.075 1062.8 134.382 1058.79 Q131.708 1054.76 131.708 1047.12 Q131.708 1039.47 134.382 1035.46 Q137.075 1031.43 142.159 1031.43 Z" fill="#000000" fill-rule="nonzero" fill-opacity="1" /><path clip-path="url(#clip280)" d="M168.551 1034.67 Q165.391 1034.67 163.791 1037.79 Q162.211 1040.89 162.211 1047.12 Q162.211 1053.34 163.791 1056.46 Q165.391 1059.56 168.551 1059.56 Q171.731 1059.56 173.311 1056.46 Q174.911 1053.34 174.911 1047.12 Q174.911 1040.89 173.311 1037.79 Q171.731 1034.67 168.551 1034.67 M168.551 1031.43 Q173.635 1031.43 176.308 1035.46 Q179.002 1039.47 179.002 1047.12 Q179.002 1054.76 176.308 1058.79 Q173.635 1062.8 168.551 1062.8 Q163.467 1062.8 160.773 1058.79 Q158.1 1054.76 158.1 1047.12 Q158.1 1039.47 160.773 1035.46 Q163.467 1031.43 168.551 1031.43 Z" fill="#000000" fill-rule="nonzero" fill-opacity="1" /><path clip-path="url(#clip280)" d="M110.542 669.724 L124.821 669.724 L124.821 673.167 L105.62 673.167 L105.62 669.724 Q107.949 667.313 111.96 663.263 Q115.99 659.191 117.023 658.017 Q118.988 655.809 119.758 654.29 Q120.548 652.75 120.548 651.272 Q120.548 648.862 118.846 647.342 Q117.165 645.823 114.451 645.823 Q112.527 645.823 110.38 646.492 Q108.253 647.16 105.823 648.517 L105.823 644.385 Q108.294 643.393 110.441 642.886 Q112.588 642.38 114.37 642.38 Q119.069 642.38 121.864 644.73 Q124.659 647.079 124.659 651.009 Q124.659 652.872 123.95 654.553 Q123.262 656.214 121.419 658.482 Q120.912 659.07 118.198 661.885 Q115.484 664.68 110.542 669.724 Z" fill="#000000" fill-rule="nonzero" fill-opacity="1" /><path clip-path="url(#clip280)" d="M142.159 645.621 Q139 645.621 137.4 648.74 Q135.82 651.839 135.82 658.077 Q135.82 664.296 137.4 667.415 Q139 670.514 142.159 670.514 Q145.339 670.514 146.919 667.415 Q148.519 664.296 148.519 658.077 Q148.519 651.839 146.919 648.74 Q145.339 645.621 142.159 645.621 M142.159 642.38 Q147.243 642.38 149.917 646.411 Q152.611 650.421 152.611 658.077 Q152.611 665.713 149.917 669.744 Q147.243 673.754 142.159 673.754 Q137.075 673.754 134.382 669.744 Q131.708 665.713 131.708 658.077 Q131.708 650.421 134.382 646.411 Q137.075 642.38 142.159 642.38 Z" fill="#000000" fill-rule="nonzero" fill-opacity="1" /><path clip-path="url(#clip280)" d="M168.551 645.621 Q165.391 645.621 163.791 648.74 Q162.211 651.839 162.211 658.077 Q162.211 664.296 163.791 667.415 Q165.391 670.514 168.551 670.514 Q171.731 670.514 173.311 667.415 Q174.911 664.296 174.911 658.077 Q174.911 651.839 173.311 648.74 Q171.731 645.621 168.551 645.621 M168.551 642.38 Q173.635 642.38 176.308 646.411 Q179.002 650.421 179.002 658.077 Q179.002 665.713 176.308 669.744 Q173.635 673.754 168.551 673.754 Q163.467 673.754 160.773 669.744 Q158.1 665.713 158.1 658.077 Q158.1 650.421 160.773 646.411 Q163.467 642.38 168.551 642.38 Z" fill="#000000" fill-rule="nonzero" fill-opacity="1" /><path clip-path="url(#clip280)" d="M119.413 267.816 Q122.35 268.444 123.991 270.429 Q125.652 272.413 125.652 275.33 Q125.652 279.806 122.573 282.257 Q119.495 284.708 113.823 284.708 Q111.919 284.708 109.894 284.323 Q107.889 283.959 105.742 283.209 L105.742 279.259 Q107.443 280.252 109.469 280.758 Q111.494 281.265 113.702 281.265 Q117.55 281.265 119.555 279.746 Q121.581 278.226 121.581 275.33 Q121.581 272.656 119.697 271.158 Q117.834 269.639 114.492 269.639 L110.967 269.639 L110.967 266.276 L114.654 266.276 Q117.672 266.276 119.272 265.081 Q120.872 263.866 120.872 261.598 Q120.872 259.268 119.211 258.033 Q117.57 256.777 114.492 256.777 Q112.811 256.777 110.886 257.142 Q108.962 257.506 106.653 258.276 L106.653 254.63 Q108.982 253.982 111.008 253.658 Q113.054 253.334 114.856 253.334 Q119.515 253.334 122.229 255.46 Q124.943 257.567 124.943 261.172 Q124.943 263.684 123.505 265.426 Q122.067 267.147 119.413 267.816 Z" fill="#000000" fill-rule="nonzero" fill-opacity="1" /><path clip-path="url(#clip280)" d="M142.159 256.574 Q139 256.574 137.4 259.694 Q135.82 262.793 135.82 269.031 Q135.82 275.249 137.4 278.368 Q139 281.467 142.159 281.467 Q145.339 281.467 146.919 278.368 Q148.519 275.249 148.519 269.031 Q148.519 262.793 146.919 259.694 Q145.339 256.574 142.159 256.574 M142.159 253.334 Q147.243 253.334 149.917 257.364 Q152.611 261.375 152.611 269.031 Q152.611 276.667 149.917 280.698 Q147.243 284.708 142.159 284.708 Q137.075 284.708 134.382 280.698 Q131.708 276.667 131.708 269.031 Q131.708 261.375 134.382 257.364 Q137.075 253.334 142.159 253.334 Z" fill="#000000" fill-rule="nonzero" fill-opacity="1" /><path clip-path="url(#clip280)" d="M168.551 256.574 Q165.391 256.574 163.791 259.694 Q162.211 262.793 162.211 269.031 Q162.211 275.249 163.791 278.368 Q165.391 281.467 168.551 281.467 Q171.731 281.467 173.311 278.368 Q174.911 275.249 174.911 269.031 Q174.911 262.793 173.311 259.694 Q171.731 256.574 168.551 256.574 M168.551 253.334 Q173.635 253.334 176.308 257.364 Q179.002 261.375 179.002 269.031 Q179.002 276.667 176.308 280.698 Q173.635 284.708 168.551 284.708 Q163.467 284.708 160.773 280.698 Q158.1 276.667 158.1 269.031 Q158.1 261.375 160.773 257.364 Q163.467 253.334 168.551 253.334 Z" fill="#000000" fill-rule="nonzero" fill-opacity="1" /><path clip-path="url(#clip280)" d="M19.0762 998.396 L19.0762 991.313 L51.602 974.074 L19.0762 974.074 L19.0762 968.969 L57.9562 968.969 L57.9562 976.053 L25.4303 993.292 L57.9562 993.292 L57.9562 998.396 L19.0762 998.396 Z" fill="#000000" fill-rule="nonzero" fill-opacity="1" /><path clip-path="url(#clip280)" d="M46.4458 959.204 L28.7896 959.204 L28.7896 954.412 L46.2635 954.412 Q50.4041 954.412 52.4874 952.798 Q54.5447 951.183 54.5447 947.954 Q54.5447 944.074 52.0708 941.834 Q49.5968 939.569 45.326 939.569 L28.7896 939.569 L28.7896 934.777 L57.9562 934.777 L57.9562 939.569 L53.477 939.569 Q56.1333 941.313 57.4353 943.631 Q58.7114 945.923 58.7114 948.97 Q58.7114 953.996 55.5864 956.6 Q52.4614 959.204 46.4458 959.204 M28.0865 947.147 L28.0865 947.147 Z" fill="#000000" fill-rule="nonzero" fill-opacity="1" /><path clip-path="url(#clip280)" d="M34.3886 902.199 Q31.1594 900.402 29.623 897.902 Q28.0865 895.402 28.0865 892.017 Q28.0865 887.459 31.2896 884.985 Q34.4667 882.512 40.3521 882.512 L57.9562 882.512 L57.9562 887.329 L40.5083 887.329 Q36.3156 887.329 34.2844 888.814 Q32.2532 890.298 32.2532 893.345 Q32.2532 897.069 34.7271 899.23 Q37.2011 901.392 41.4719 901.392 L57.9562 901.392 L57.9562 906.209 L40.5083 906.209 Q36.2896 906.209 34.2844 907.694 Q32.2532 909.178 32.2532 912.277 Q32.2532 915.949 34.7532 918.11 Q37.2271 920.272 41.4719 920.272 L57.9562 920.272 L57.9562 925.089 L28.7896 925.089 L28.7896 920.272 L33.3209 920.272 Q30.6386 918.631 29.3626 916.339 Q28.0865 914.048 28.0865 910.897 Q28.0865 907.72 29.7011 905.506 Q31.3157 903.267 34.3886 902.199 Z" fill="#000000" fill-rule="nonzero" fill-opacity="1" /><path clip-path="url(#clip280)" d="M43.3989 852.017 Q38.1125 852.017 35.1177 854.204 Q32.0969 856.366 32.0969 860.168 Q32.0969 863.97 35.1177 866.157 Q38.1125 868.319 43.3989 868.319 Q48.6854 868.319 51.7062 866.157 Q54.701 863.97 54.701 860.168 Q54.701 856.366 51.7062 854.204 Q48.6854 852.017 43.3989 852.017 M33.2167 868.319 Q30.6126 866.808 29.3626 864.517 Q28.0865 862.199 28.0865 858.996 Q28.0865 853.684 32.3053 850.376 Q36.524 847.043 43.3989 847.043 Q50.2739 847.043 54.4926 850.376 Q58.7114 853.684 58.7114 858.996 Q58.7114 862.199 57.4614 864.517 Q56.1853 866.808 53.5812 868.319 L57.9562 868.319 L57.9562 873.137 L17.4355 873.137 L17.4355 868.319 L33.2167 868.319 Z" fill="#000000" fill-rule="nonzero" fill-opacity="1" /><path clip-path="url(#clip280)" d="M42.175 814.153 L44.5187 814.153 L44.5187 836.184 Q49.4666 835.871 52.0708 833.215 Q54.6489 830.533 54.6489 825.767 Q54.6489 823.007 53.9718 820.429 Q53.2947 817.824 51.9406 815.272 L56.4718 815.272 Q57.5655 817.85 58.1384 820.559 Q58.7114 823.267 58.7114 826.053 Q58.7114 833.033 54.6489 837.121 Q50.5864 841.184 43.6594 841.184 Q36.4979 841.184 32.3053 837.329 Q28.0865 833.449 28.0865 826.887 Q28.0865 821.001 31.8886 817.59 Q35.6646 814.153 42.175 814.153 M40.7687 818.944 Q36.8365 818.996 34.4927 821.158 Q32.149 823.293 32.149 826.835 Q32.149 830.845 34.4146 833.267 Q36.6802 835.663 40.7948 836.027 L40.7687 818.944 Z" fill="#000000" fill-rule="nonzero" fill-opacity="1" /><path clip-path="url(#clip280)" d="M33.2688 789.387 Q32.8 790.194 32.5917 791.158 Q32.3573 792.095 32.3573 793.241 Q32.3573 797.304 35.0136 799.491 Q37.6438 801.653 42.5917 801.653 L57.9562 801.653 L57.9562 806.47 L28.7896 806.47 L28.7896 801.653 L33.3209 801.653 Q30.6646 800.142 29.3886 797.72 Q28.0865 795.298 28.0865 791.835 Q28.0865 791.34 28.1647 790.741 Q28.2167 790.142 28.3469 789.413 L33.2688 789.387 Z" fill="#000000" fill-rule="nonzero" fill-opacity="1" /><path clip-path="url(#clip280)" d="M32.149 756.106 Q32.149 759.96 35.1698 762.2 Q38.1646 764.439 43.3989 764.439 Q48.6333 764.439 51.6541 762.226 Q54.6489 759.986 54.6489 756.106 Q54.6489 752.278 51.6281 750.038 Q48.6072 747.799 43.3989 747.799 Q38.2167 747.799 35.1959 750.038 Q32.149 752.278 32.149 756.106 M28.0865 756.106 Q28.0865 749.856 32.149 746.288 Q36.2115 742.721 43.3989 742.721 Q50.5604 742.721 54.6489 746.288 Q58.7114 749.856 58.7114 756.106 Q58.7114 762.382 54.6489 765.95 Q50.5604 769.491 43.3989 769.491 Q36.2115 769.491 32.149 765.95 Q28.0865 762.382 28.0865 756.106 Z" fill="#000000" fill-rule="nonzero" fill-opacity="1" /><path clip-path="url(#clip280)" d="M17.4355 720.012 L21.4199 720.012 L21.4199 724.596 Q21.4199 727.174 22.4616 728.189 Q23.5032 729.179 26.2115 729.179 L28.7896 729.179 L28.7896 721.288 L32.5136 721.288 L32.5136 729.179 L57.9562 729.179 L57.9562 733.997 L32.5136 733.997 L32.5136 738.58 L28.7896 738.58 L28.7896 733.997 L26.7584 733.997 Q21.8886 733.997 19.6751 731.731 Q17.4355 729.465 17.4355 724.544 L17.4355 720.012 Z" fill="#000000" fill-rule="nonzero" fill-opacity="1" /><path clip-path="url(#clip280)" d="M29.649 680.455 L34.1802 680.455 Q33.1386 682.487 32.6178 684.674 Q32.0969 686.862 32.0969 689.205 Q32.0969 692.773 33.1907 694.57 Q34.2844 696.341 36.4719 696.341 Q38.1386 696.341 39.1021 695.065 Q40.0396 693.789 40.899 689.934 L41.2635 688.294 Q42.3573 683.19 44.3625 681.054 Q46.3416 678.893 49.9093 678.893 Q53.9718 678.893 56.3416 682.122 Q58.7114 685.325 58.7114 690.95 Q58.7114 693.294 58.2426 695.846 Q57.7999 698.372 56.8885 701.184 L51.9406 701.184 Q53.3208 698.528 54.0239 695.95 Q54.701 693.372 54.701 690.846 Q54.701 687.46 53.5551 685.638 Q52.3833 683.815 50.2739 683.815 Q48.3208 683.815 47.2791 685.143 Q46.2375 686.445 45.2739 690.898 L44.8833 692.565 Q43.9458 697.018 42.0187 698.997 Q40.0656 700.976 36.6802 700.976 Q32.5657 700.976 30.3261 698.059 Q28.0865 695.143 28.0865 689.778 Q28.0865 687.122 28.4771 684.778 Q28.8678 682.434 29.649 680.455 Z" fill="#000000" fill-rule="nonzero" fill-opacity="1" /><path clip-path="url(#clip280)" d="M43.2948 658.008 Q43.2948 663.815 44.6229 666.054 Q45.951 668.294 49.1541 668.294 Q51.7062 668.294 53.2166 666.627 Q54.701 664.935 54.701 662.044 Q54.701 658.06 51.8885 655.664 Q49.05 653.242 44.3625 653.242 L43.2948 653.242 L43.2948 658.008 M41.3156 648.45 L57.9562 648.45 L57.9562 653.242 L53.5291 653.242 Q56.1853 654.883 57.4614 657.33 Q58.7114 659.778 58.7114 663.32 Q58.7114 667.799 56.2114 670.455 Q53.6853 673.086 49.4666 673.086 Q44.5448 673.086 42.0448 669.804 Q39.5448 666.497 39.5448 659.961 L39.5448 653.242 L39.0761 653.242 Q35.7688 653.242 33.9719 655.429 Q32.149 657.591 32.149 661.523 Q32.149 664.023 32.748 666.393 Q33.3469 668.763 34.5448 670.95 L30.1178 670.95 Q29.1021 668.32 28.6074 665.846 Q28.0865 663.372 28.0865 661.028 Q28.0865 654.7 31.3678 651.575 Q34.649 648.45 41.3156 648.45 Z" fill="#000000" fill-rule="nonzero" fill-opacity="1" /><path clip-path="url(#clip280)" d="M34.3886 615.872 Q31.1594 614.075 29.623 611.575 Q28.0865 609.075 28.0865 605.69 Q28.0865 601.133 31.2896 598.659 Q34.4667 596.185 40.3521 596.185 L57.9562 596.185 L57.9562 601.003 L40.5083 601.003 Q36.3156 601.003 34.2844 602.487 Q32.2532 603.971 32.2532 607.018 Q32.2532 610.742 34.7271 612.904 Q37.2011 615.065 41.4719 615.065 L57.9562 615.065 L57.9562 619.883 L40.5083 619.883 Q36.2896 619.883 34.2844 621.367 Q32.2532 622.851 32.2532 625.95 Q32.2532 629.622 34.7532 631.784 Q37.2271 633.945 41.4719 633.945 L57.9562 633.945 L57.9562 638.763 L28.7896 638.763 L28.7896 633.945 L33.3209 633.945 Q30.6386 632.305 29.3626 630.013 Q28.0865 627.721 28.0865 624.57 Q28.0865 621.393 29.7011 619.18 Q31.3157 616.94 34.3886 615.872 Z" fill="#000000" fill-rule="nonzero" fill-opacity="1" /><path clip-path="url(#clip280)" d="M53.5812 581.992 L69.0498 581.992 L69.0498 586.81 L28.7896 586.81 L28.7896 581.992 L33.2167 581.992 Q30.6126 580.482 29.3626 578.19 Q28.0865 575.873 28.0865 572.669 Q28.0865 567.357 32.3053 564.05 Q36.524 560.716 43.3989 560.716 Q50.2739 560.716 54.4926 564.05 Q58.7114 567.357 58.7114 572.669 Q58.7114 575.873 57.4614 578.19 Q56.1853 580.482 53.5812 581.992 M43.3989 565.69 Q38.1125 565.69 35.1177 567.878 Q32.0969 570.039 32.0969 573.841 Q32.0969 577.643 35.1177 579.831 Q38.1125 581.992 43.3989 581.992 Q48.6854 581.992 51.7062 579.831 Q54.701 577.643 54.701 573.841 Q54.701 570.039 51.7062 567.878 Q48.6854 565.69 43.3989 565.69 Z" fill="#000000" fill-rule="nonzero" fill-opacity="1" /><path clip-path="url(#clip280)" d="M17.4355 552.774 L17.4355 547.982 L57.9562 547.982 L57.9562 552.774 L17.4355 552.774 Z" fill="#000000" fill-rule="nonzero" fill-opacity="1" /><path clip-path="url(#clip280)" d="M42.175 513.008 L44.5187 513.008 L44.5187 535.039 Q49.4666 534.727 52.0708 532.071 Q54.6489 529.388 54.6489 524.623 Q54.6489 521.862 53.9718 519.284 Q53.2947 516.68 51.9406 514.128 L56.4718 514.128 Q57.5655 516.706 58.1384 519.415 Q58.7114 522.123 58.7114 524.909 Q58.7114 531.888 54.6489 535.977 Q50.5864 540.039 43.6594 540.039 Q36.4979 540.039 32.3053 536.185 Q28.0865 532.305 28.0865 525.743 Q28.0865 519.857 31.8886 516.446 Q35.6646 513.008 42.175 513.008 M40.7687 517.8 Q36.8365 517.852 34.4927 520.013 Q32.149 522.149 32.149 525.691 Q32.149 529.701 34.4146 532.123 Q36.6802 534.519 40.7948 534.883 L40.7687 517.8 Z" fill="#000000" fill-rule="nonzero" fill-opacity="1" /><path clip-path="url(#clip280)" d="M29.649 486.55 L34.1802 486.55 Q33.1386 488.581 32.6178 490.769 Q32.0969 492.956 32.0969 495.3 Q32.0969 498.868 33.1907 500.665 Q34.2844 502.435 36.4719 502.435 Q38.1386 502.435 39.1021 501.159 Q40.0396 499.883 40.899 496.029 L41.2635 494.389 Q42.3573 489.284 44.3625 487.149 Q46.3416 484.988 49.9093 484.988 Q53.9718 484.988 56.3416 488.217 Q58.7114 491.42 58.7114 497.045 Q58.7114 499.389 58.2426 501.941 Q57.7999 504.467 56.8885 507.279 L51.9406 507.279 Q53.3208 504.623 54.0239 502.045 Q54.701 499.467 54.701 496.941 Q54.701 493.555 53.5551 491.732 Q52.3833 489.909 50.2739 489.909 Q48.3208 489.909 47.2791 491.238 Q46.2375 492.54 45.2739 496.993 L44.8833 498.659 Q43.9458 503.113 42.0187 505.092 Q40.0656 507.071 36.6802 507.071 Q32.5657 507.071 30.3261 504.154 Q28.0865 501.238 28.0865 495.873 Q28.0865 493.217 28.4771 490.873 Q28.8678 488.529 29.649 486.55 Z" fill="#000000" fill-rule="nonzero" fill-opacity="1" /><path clip-path="url(#clip282)" d="M332.583 47.2441 L332.583 1436.14 L1178.18 1436.14 L1178.18 47.2441 L332.583 47.2441 L332.583 47.2441  Z" fill="#009af9" fill-rule="evenodd" fill-opacity="1"/>
<polyline clip-path="url(#clip282)" style="stroke:#000000; stroke-linecap:round; stroke-linejoin:round; stroke-width:4; stroke-opacity:1; fill:none" points="332.583,47.2441 332.583,1436.14 1178.18,1436.14 1178.18,47.2441 332.583,47.2441 "/>
<path clip-path="url(#clip282)" d="M1389.58 611.361 L1389.58 1436.14 L2235.18 1436.14 L2235.18 611.361 L1389.58 611.361 L1389.58 611.361  Z" fill="#009af9" fill-rule="evenodd" fill-opacity="1"/>
<polyline clip-path="url(#clip282)" style="stroke:#000000; stroke-linecap:round; stroke-linejoin:round; stroke-width:4; stroke-opacity:1; fill:none" points="1389.58,611.361 1389.58,1436.14 2235.18,1436.14 2235.18,611.361 1389.58,611.361 "/>
<circle clip-path="url(#clip282)" style="fill:#009af9; stroke:none; fill-opacity:0" cx="755.381" cy="47.2441" r="2"/>
<circle clip-path="url(#clip282)" style="fill:#009af9; stroke:none; fill-opacity:0" cx="1812.38" cy="611.361" r="2"/>
</svg>
