<?xml version="1.0" encoding="utf-8"?>
<svg xmlns="http://www.w3.org/2000/svg" xmlns:xlink="http://www.w3.org/1999/xlink" width="600" height="400" viewBox="0 0 2400 1600">
<defs>
  <clipPath id="clip440">
    <rect x="0" y="0" width="2400" height="1600"/>
  </clipPath>
</defs>
<path clip-path="url(#clip440)" d="M0 1600 L2400 1600 L2400 0 L0 0  Z" fill="#ffffff" fill-rule="evenodd" fill-opacity="1"/>
<defs>
  <clipPath id="clip441">
    <rect x="480" y="0" width="1681" height="1600"/>
  </clipPath>
</defs>
<path clip-path="url(#clip440)" d="M263.732 1405.9 L2352.76 1405.9 L2352.76 47.2441 L263.732 47.2441  Z" fill="#ffffff" fill-rule="evenodd" fill-opacity="1"/>
<defs>
  <clipPath id="clip442">
    <rect x="263" y="47" width="2090" height="1360"/>
  </clipPath>
</defs>
<polyline clip-path="url(#clip442)" style="stroke:#000000; stroke-linecap:round; stroke-linejoin:round; stroke-width:2; stroke-opacity:0.1; fill:none" points="791.793,1405.9 791.793,47.2441 "/>
<polyline clip-path="url(#clip442)" style="stroke:#000000; stroke-linecap:round; stroke-linejoin:round; stroke-width:2; stroke-opacity:0.1; fill:none" points="1824.69,1405.9 1824.69,47.2441 "/>
<polyline clip-path="url(#clip440)" style="stroke:#000000; stroke-linecap:round; stroke-linejoin:round; stroke-width:4; stroke-opacity:1; fill:none" points="263.732,1405.9 2352.76,1405.9 "/>
<polyline clip-path="url(#clip440)" style="stroke:#000000; stroke-linecap:round; stroke-linejoin:round; stroke-width:4; stroke-opacity:1; fill:none" points="791.793,1405.9 791.793,1387 "/>
<polyline clip-path="url(#clip440)" style="stroke:#000000; stroke-linecap:round; stroke-linejoin:round; stroke-width:4; stroke-opacity:1; fill:none" points="1824.69,1405.9 1824.69,1387 "/>
<path clip-path="url(#clip440)" d="M782.316 1458.47 L782.316 1474.3 L791.691 1474.3 Q796.408 1474.3 798.665 1472.36 Q800.951 1470.39 800.951 1466.37 Q800.951 1462.32 798.665 1460.41 Q796.408 1458.47 791.691 1458.47 L782.316 1458.47 M782.316 1440.7 L782.316 1453.72 L790.968 1453.72 Q795.25 1453.72 797.334 1452.13 Q799.446 1450.51 799.446 1447.21 Q799.446 1443.94 797.334 1442.32 Q795.25 1440.7 790.968 1440.7 L782.316 1440.7 M776.472 1435.9 L791.402 1435.9 Q798.086 1435.9 801.703 1438.68 Q805.32 1441.46 805.32 1446.58 Q805.32 1450.54 803.468 1452.88 Q801.616 1455.23 798.028 1455.81 Q802.34 1456.73 804.712 1459.68 Q807.114 1462.61 807.114 1467 Q807.114 1472.79 803.179 1475.95 Q799.243 1479.1 791.981 1479.1 L776.472 1479.1 L776.472 1435.9 Z" fill="#000000" fill-rule="nonzero" fill-opacity="1" /><path clip-path="url(#clip440)" d="M1804.93 1435.9 L1813.64 1435.9 L1824.67 1465.3 L1835.75 1435.9 L1844.46 1435.9 L1844.46 1479.1 L1838.76 1479.1 L1838.76 1441.17 L1827.62 1470.8 L1821.74 1470.8 L1810.6 1441.17 L1810.6 1479.1 L1804.93 1479.1 L1804.93 1435.9 Z" fill="#000000" fill-rule="nonzero" fill-opacity="1" /><path clip-path="url(#clip440)" d="M1212.47 1522.26 L1212.47 1530.27 Q1208.64 1526.7 1204.27 1524.93 Q1199.95 1523.16 1195.06 1523.16 Q1185.43 1523.16 1180.31 1529.07 Q1175.2 1534.93 1175.2 1546.07 Q1175.2 1557.16 1180.31 1563.07 Q1185.43 1568.94 1195.06 1568.94 Q1199.95 1568.94 1204.27 1567.17 Q1208.64 1565.4 1212.47 1561.83 L1212.47 1569.77 Q1208.49 1572.47 1204.01 1573.83 Q1199.57 1575.18 1194.61 1575.18 Q1181.86 1575.18 1174.52 1567.4 Q1167.19 1559.57 1167.19 1546.07 Q1167.19 1532.53 1174.52 1524.74 Q1181.86 1516.92 1194.61 1516.92 Q1199.65 1516.92 1204.09 1518.27 Q1208.56 1519.59 1212.47 1522.26 Z" fill="#000000" fill-rule="nonzero" fill-opacity="1" /><path clip-path="url(#clip440)" d="M1223.91 1515.56 L1230.83 1515.56 L1230.83 1574.09 L1223.91 1574.09 L1223.91 1515.56 Z" fill="#000000" fill-rule="nonzero" fill-opacity="1" /><path clip-path="url(#clip440)" d="M1264.46 1552.91 Q1256.07 1552.91 1252.84 1554.83 Q1249.6 1556.75 1249.6 1561.38 Q1249.6 1565.06 1252.01 1567.25 Q1254.45 1569.39 1258.63 1569.39 Q1264.38 1569.39 1267.84 1565.33 Q1271.34 1561.23 1271.34 1554.46 L1271.34 1552.91 L1264.46 1552.91 M1278.26 1550.06 L1278.26 1574.09 L1271.34 1574.09 L1271.34 1567.7 Q1268.97 1571.53 1265.44 1573.38 Q1261.9 1575.18 1256.79 1575.18 Q1250.32 1575.18 1246.48 1571.57 Q1242.68 1567.92 1242.68 1561.83 Q1242.68 1554.72 1247.42 1551.11 Q1252.2 1547.5 1261.64 1547.5 L1271.34 1547.5 L1271.34 1546.82 Q1271.34 1542.04 1268.18 1539.45 Q1265.06 1536.81 1259.38 1536.81 Q1255.77 1536.81 1252.35 1537.68 Q1248.92 1538.55 1245.76 1540.28 L1245.76 1533.88 Q1249.56 1532.41 1253.14 1531.7 Q1256.71 1530.95 1260.1 1530.95 Q1269.24 1530.95 1273.75 1535.69 Q1278.26 1540.43 1278.26 1550.06 Z" fill="#000000" fill-rule="nonzero" fill-opacity="1" /><path clip-path="url(#clip440)" d="M1319.38 1533.2 L1319.38 1539.75 Q1316.44 1538.24 1313.28 1537.49 Q1310.12 1536.74 1306.74 1536.74 Q1301.59 1536.74 1298.99 1538.32 Q1296.43 1539.9 1296.43 1543.06 Q1296.43 1545.47 1298.28 1546.86 Q1300.12 1548.21 1305.69 1549.45 L1308.06 1549.98 Q1315.43 1551.56 1318.51 1554.46 Q1321.63 1557.32 1321.63 1562.47 Q1321.63 1568.34 1316.97 1571.76 Q1312.34 1575.18 1304.22 1575.18 Q1300.83 1575.18 1297.15 1574.51 Q1293.5 1573.87 1289.44 1572.55 L1289.44 1565.4 Q1293.27 1567.4 1297 1568.41 Q1300.72 1569.39 1304.37 1569.39 Q1309.26 1569.39 1311.89 1567.73 Q1314.53 1566.04 1314.53 1563 Q1314.53 1560.17 1312.61 1558.67 Q1310.73 1557.16 1304.29 1555.77 L1301.89 1555.21 Q1295.45 1553.85 1292.6 1551.07 Q1289.74 1548.25 1289.74 1543.36 Q1289.74 1537.42 1293.95 1534.18 Q1298.16 1530.95 1305.91 1530.95 Q1309.75 1530.95 1313.13 1531.51 Q1316.52 1532.08 1319.38 1533.2 Z" fill="#000000" fill-rule="nonzero" fill-opacity="1" /><path clip-path="url(#clip440)" d="M1359.51 1533.2 L1359.51 1539.75 Q1356.58 1538.24 1353.42 1537.49 Q1350.26 1536.74 1346.87 1536.74 Q1341.72 1536.74 1339.13 1538.32 Q1336.57 1539.9 1336.57 1543.06 Q1336.57 1545.47 1338.41 1546.86 Q1340.25 1548.21 1345.82 1549.45 L1348.19 1549.98 Q1355.56 1551.56 1358.65 1554.46 Q1361.77 1557.32 1361.77 1562.47 Q1361.77 1568.34 1357.11 1571.76 Q1352.48 1575.18 1344.35 1575.18 Q1340.97 1575.18 1337.28 1574.51 Q1333.63 1573.87 1329.57 1572.55 L1329.57 1565.4 Q1333.41 1567.4 1337.13 1568.41 Q1340.86 1569.39 1344.51 1569.39 Q1349.4 1569.39 1352.03 1567.73 Q1354.66 1566.04 1354.66 1563 Q1354.66 1560.17 1352.74 1558.67 Q1350.86 1557.16 1344.43 1555.77 L1342.02 1555.21 Q1335.59 1553.85 1332.73 1551.07 Q1329.87 1548.25 1329.87 1543.36 Q1329.87 1537.42 1334.09 1534.18 Q1338.3 1530.95 1346.05 1530.95 Q1349.88 1530.95 1353.27 1531.51 Q1356.66 1532.08 1359.51 1533.2 Z" fill="#000000" fill-rule="nonzero" fill-opacity="1" /><path clip-path="url(#clip440)" d="M1408.83 1551.3 L1408.83 1554.68 L1377.01 1554.68 Q1377.46 1561.83 1381.29 1565.59 Q1385.17 1569.31 1392.05 1569.31 Q1396.04 1569.31 1399.76 1568.34 Q1403.52 1567.36 1407.21 1565.4 L1407.21 1571.95 Q1403.49 1573.53 1399.57 1574.36 Q1395.66 1575.18 1391.64 1575.18 Q1381.56 1575.18 1375.65 1569.31 Q1369.78 1563.45 1369.78 1553.44 Q1369.78 1543.1 1375.35 1537.04 Q1380.95 1530.95 1390.43 1530.95 Q1398.93 1530.95 1403.86 1536.44 Q1408.83 1541.89 1408.83 1551.3 M1401.91 1549.27 Q1401.83 1543.59 1398.71 1540.2 Q1395.62 1536.81 1390.51 1536.81 Q1384.72 1536.81 1381.22 1540.09 Q1377.76 1543.36 1377.23 1549.3 L1401.91 1549.27 Z" fill="#000000" fill-rule="nonzero" fill-opacity="1" /><path clip-path="url(#clip440)" d="M1447.05 1533.2 L1447.05 1539.75 Q1444.11 1538.24 1440.95 1537.49 Q1437.79 1536.74 1434.41 1536.74 Q1429.25 1536.74 1426.66 1538.32 Q1424.1 1539.9 1424.1 1543.06 Q1424.1 1545.47 1425.94 1546.86 Q1427.79 1548.21 1433.35 1549.45 L1435.72 1549.98 Q1443.1 1551.56 1446.18 1554.46 Q1449.3 1557.32 1449.3 1562.47 Q1449.3 1568.34 1444.64 1571.76 Q1440.01 1575.18 1431.89 1575.18 Q1428.5 1575.18 1424.81 1574.51 Q1421.17 1573.87 1417.1 1572.55 L1417.1 1565.4 Q1420.94 1567.4 1424.66 1568.41 Q1428.39 1569.39 1432.04 1569.39 Q1436.93 1569.39 1439.56 1567.73 Q1442.19 1566.04 1442.19 1563 Q1442.19 1560.17 1440.27 1558.67 Q1438.39 1557.16 1431.96 1555.77 L1429.55 1555.21 Q1423.12 1553.85 1420.26 1551.07 Q1417.4 1548.25 1417.4 1543.36 Q1417.4 1537.42 1421.62 1534.18 Q1425.83 1530.95 1433.58 1530.95 Q1437.42 1530.95 1440.8 1531.51 Q1444.19 1532.08 1447.05 1533.2 Z" fill="#000000" fill-rule="nonzero" fill-opacity="1" /><polyline clip-path="url(#clip442)" style="stroke:#000000; stroke-linecap:round; stroke-linejoin:round; stroke-width:2; stroke-opacity:0.1; fill:none" points="263.732,1405.9 2352.76,1405.9 "/>
<polyline clip-path="url(#clip442)" style="stroke:#000000; stroke-linecap:round; stroke-linejoin:round; stroke-width:2; stroke-opacity:0.1; fill:none" points="263.732,1025.32 2352.76,1025.32 "/>
<polyline clip-path="url(#clip442)" style="stroke:#000000; stroke-linecap:round; stroke-linejoin:round; stroke-width:2; stroke-opacity:0.1; fill:none" points="263.732,644.748 2352.76,644.748 "/>
<polyline clip-path="url(#clip442)" style="stroke:#000000; stroke-linecap:round; stroke-linejoin:round; stroke-width:2; stroke-opacity:0.1; fill:none" points="263.732,264.172 2352.76,264.172 "/>
<polyline clip-path="url(#clip440)" style="stroke:#000000; stroke-linecap:round; stroke-linejoin:round; stroke-width:4; stroke-opacity:1; fill:none" points="263.732,1405.9 263.732,47.2441 "/>
<polyline clip-path="url(#clip440)" style="stroke:#000000; stroke-linecap:round; stroke-linejoin:round; stroke-width:4; stroke-opacity:1; fill:none" points="263.732,1405.9 282.629,1405.9 "/>
<polyline clip-path="url(#clip440)" style="stroke:#000000; stroke-linecap:round; stroke-linejoin:round; stroke-width:4; stroke-opacity:1; fill:none" points="263.732,1025.32 282.629,1025.32 "/>
<polyline clip-path="url(#clip440)" style="stroke:#000000; stroke-linecap:round; stroke-linejoin:round; stroke-width:4; stroke-opacity:1; fill:none" points="263.732,644.748 282.629,644.748 "/>
<polyline clip-path="url(#clip440)" style="stroke:#000000; stroke-linecap:round; stroke-linejoin:round; stroke-width:4; stroke-opacity:1; fill:none" points="263.732,264.172 282.629,264.172 "/>
<path clip-path="url(#clip440)" d="M212.801 1388.15 Q208.287 1388.15 206.002 1392.6 Q203.745 1397.03 203.745 1405.94 Q203.745 1414.83 206.002 1419.28 Q208.287 1423.71 212.801 1423.71 Q217.344 1423.71 219.601 1419.28 Q221.887 1414.83 221.887 1405.94 Q221.887 1397.03 219.601 1392.6 Q217.344 1388.15 212.801 1388.15 M212.801 1383.52 Q220.064 1383.52 223.883 1389.28 Q227.732 1395.01 227.732 1405.94 Q227.732 1416.85 223.883 1422.61 Q220.064 1428.34 212.801 1428.34 Q205.539 1428.34 201.69 1422.61 Q197.871 1416.85 197.871 1405.94 Q197.871 1395.01 201.69 1389.28 Q205.539 1383.52 212.801 1383.52 Z" fill="#000000" fill-rule="nonzero" fill-opacity="1" /><path clip-path="url(#clip440)" d="M125.909 1042.01 L135.458 1042.01 L135.458 1009.05 L125.07 1011.13 L125.07 1005.81 L135.4 1003.72 L141.245 1003.72 L141.245 1042.01 L150.794 1042.01 L150.794 1046.92 L125.909 1046.92 L125.909 1042.01 Z" fill="#000000" fill-rule="nonzero" fill-opacity="1" /><path clip-path="url(#clip440)" d="M175.099 1007.57 Q170.585 1007.57 168.299 1012.03 Q166.042 1016.46 166.042 1025.37 Q166.042 1034.25 168.299 1038.71 Q170.585 1043.13 175.099 1043.13 Q179.642 1043.13 181.899 1038.71 Q184.185 1034.25 184.185 1025.37 Q184.185 1016.46 181.899 1012.03 Q179.642 1007.57 175.099 1007.57 M175.099 1002.94 Q182.362 1002.94 186.181 1008.7 Q190.029 1014.43 190.029 1025.37 Q190.029 1036.28 186.181 1042.03 Q182.362 1047.76 175.099 1047.76 Q167.836 1047.76 163.988 1042.03 Q160.168 1036.28 160.168 1025.37 Q160.168 1014.43 163.988 1008.7 Q167.836 1002.94 175.099 1002.94 Z" fill="#000000" fill-rule="nonzero" fill-opacity="1" /><path clip-path="url(#clip440)" d="M212.801 1007.57 Q208.287 1007.57 206.002 1012.03 Q203.745 1016.46 203.745 1025.37 Q203.745 1034.25 206.002 1038.71 Q208.287 1043.13 212.801 1043.13 Q217.344 1043.13 219.601 1038.71 Q221.887 1034.25 221.887 1025.37 Q221.887 1016.46 219.601 1012.03 Q217.344 1007.57 212.801 1007.57 M212.801 1002.94 Q220.064 1002.94 223.883 1008.7 Q227.732 1014.43 227.732 1025.37 Q227.732 1036.28 223.883 1042.03 Q220.064 1047.76 212.801 1047.76 Q205.539 1047.76 201.69 1042.03 Q197.871 1036.28 197.871 1025.37 Q197.871 1014.43 201.69 1008.7 Q205.539 1002.94 212.801 1002.94 Z" fill="#000000" fill-rule="nonzero" fill-opacity="1" /><path clip-path="url(#clip440)" d="M129.931 661.429 L150.331 661.429 L150.331 666.348 L122.9 666.348 L122.9 661.429 Q126.228 657.986 131.957 652.199 Q137.715 646.383 139.191 644.705 Q141.997 641.551 143.097 639.381 Q144.225 637.182 144.225 635.069 Q144.225 631.626 141.795 629.456 Q139.393 627.286 135.516 627.286 Q132.767 627.286 129.7 628.241 Q126.662 629.196 123.19 631.134 L123.19 625.231 Q126.72 623.814 129.787 623.09 Q132.854 622.367 135.4 622.367 Q142.113 622.367 146.106 625.723 Q150.099 629.08 150.099 634.693 Q150.099 637.355 149.086 639.757 Q148.103 642.13 145.469 645.37 Q144.746 646.209 140.869 650.231 Q136.992 654.224 129.931 661.429 Z" fill="#000000" fill-rule="nonzero" fill-opacity="1" /><path clip-path="url(#clip440)" d="M175.099 626.997 Q170.585 626.997 168.299 631.453 Q166.042 635.88 166.042 644.792 Q166.042 653.675 168.299 658.131 Q170.585 662.558 175.099 662.558 Q179.642 662.558 181.899 658.131 Q184.185 653.675 184.185 644.792 Q184.185 635.88 181.899 631.453 Q179.642 626.997 175.099 626.997 M175.099 622.367 Q182.362 622.367 186.181 628.125 Q190.029 633.854 190.029 644.792 Q190.029 655.7 186.181 661.458 Q182.362 667.187 175.099 667.187 Q167.836 667.187 163.988 661.458 Q160.168 655.7 160.168 644.792 Q160.168 633.854 163.988 628.125 Q167.836 622.367 175.099 622.367 Z" fill="#000000" fill-rule="nonzero" fill-opacity="1" /><path clip-path="url(#clip440)" d="M212.801 626.997 Q208.287 626.997 206.002 631.453 Q203.745 635.88 203.745 644.792 Q203.745 653.675 206.002 658.131 Q208.287 662.558 212.801 662.558 Q217.344 662.558 219.601 658.131 Q221.887 653.675 221.887 644.792 Q221.887 635.88 219.601 631.453 Q217.344 626.997 212.801 626.997 M212.801 622.367 Q220.064 622.367 223.883 628.125 Q227.732 633.854 227.732 644.792 Q227.732 655.7 223.883 661.458 Q220.064 667.187 212.801 667.187 Q205.539 667.187 201.69 661.458 Q197.871 655.7 197.871 644.792 Q197.871 633.854 201.69 628.125 Q205.539 622.367 212.801 622.367 Z" fill="#000000" fill-rule="nonzero" fill-opacity="1" /><path clip-path="url(#clip440)" d="M142.605 262.48 Q146.8 263.377 149.144 266.212 Q151.517 269.048 151.517 273.215 Q151.517 279.609 147.119 283.11 Q142.721 286.611 134.619 286.611 Q131.899 286.611 129.005 286.062 Q126.141 285.541 123.074 284.47 L123.074 278.828 Q125.504 280.246 128.398 280.969 Q131.291 281.692 134.445 281.692 Q139.943 281.692 142.807 279.522 Q145.701 277.352 145.701 273.215 Q145.701 269.395 143.01 267.254 Q140.348 265.084 135.574 265.084 L130.539 265.084 L130.539 260.281 L135.805 260.281 Q140.117 260.281 142.402 258.573 Q144.688 256.837 144.688 253.597 Q144.688 250.269 142.316 248.504 Q139.972 246.71 135.574 246.71 Q133.172 246.71 130.423 247.231 Q127.674 247.752 124.376 248.851 L124.376 243.643 Q127.703 242.717 130.597 242.254 Q133.519 241.791 136.095 241.791 Q142.75 241.791 146.627 244.829 Q150.504 247.838 150.504 252.989 Q150.504 256.577 148.45 259.065 Q146.395 261.525 142.605 262.48 Z" fill="#000000" fill-rule="nonzero" fill-opacity="1" /><path clip-path="url(#clip440)" d="M175.099 246.421 Q170.585 246.421 168.299 250.877 Q166.042 255.304 166.042 264.216 Q166.042 273.099 168.299 277.555 Q170.585 281.982 175.099 281.982 Q179.642 281.982 181.899 277.555 Q184.185 273.099 184.185 264.216 Q184.185 255.304 181.899 250.877 Q179.642 246.421 175.099 246.421 M175.099 241.791 Q182.362 241.791 186.181 247.549 Q190.029 253.278 190.029 264.216 Q190.029 275.124 186.181 280.882 Q182.362 286.611 175.099 286.611 Q167.836 286.611 163.988 280.882 Q160.168 275.124 160.168 264.216 Q160.168 253.278 163.988 247.549 Q167.836 241.791 175.099 241.791 Z" fill="#000000" fill-rule="nonzero" fill-opacity="1" /><path clip-path="url(#clip440)" d="M212.801 246.421 Q208.287 246.421 206.002 250.877 Q203.745 255.304 203.745 264.216 Q203.745 273.099 206.002 277.555 Q208.287 281.982 212.801 281.982 Q217.344 281.982 219.601 277.555 Q221.887 273.099 221.887 264.216 Q221.887 255.304 219.601 250.877 Q217.344 246.421 212.801 246.421 M212.801 241.791 Q220.064 241.791 223.883 247.549 Q227.732 253.278 227.732 264.216 Q227.732 275.124 223.883 280.882 Q220.064 286.611 212.801 286.611 Q205.539 286.611 201.69 280.882 Q197.871 275.124 197.871 264.216 Q197.871 253.278 201.69 247.549 Q205.539 241.791 212.801 241.791 Z" fill="#000000" fill-rule="nonzero" fill-opacity="1" /><path clip-path="url(#clip440)" d="M13.8922 1097.37 L13.8922 1087.14 L60.874 1062.23 L13.8922 1062.23 L13.8922 1054.86 L70.0522 1054.86 L70.0522 1065.09 L23.0703 1089.99 L70.0522 1089.99 L70.0522 1097.37 L13.8922 1097.37 Z" fill="#000000" fill-rule="nonzero" fill-opacity="1" /><path clip-path="url(#clip440)" d="M53.4261 1040.76 L27.9228 1040.76 L27.9228 1033.83 L53.1628 1033.83 Q59.1437 1033.83 62.1529 1031.5 Q65.1245 1029.17 65.1245 1024.51 Q65.1245 1018.9 61.551 1015.67 Q57.9776 1012.39 51.8086 1012.39 L27.9228 1012.39 L27.9228 1005.47 L70.0522 1005.47 L70.0522 1012.39 L63.5823 1012.39 Q67.4191 1014.91 69.2998 1018.26 Q71.143 1021.57 71.143 1025.97 Q71.143 1033.23 66.6291 1036.99 Q62.1153 1040.76 53.4261 1040.76 M26.9071 1023.34 L26.9071 1023.34 Z" fill="#000000" fill-rule="nonzero" fill-opacity="1" /><path clip-path="url(#clip440)" d="M36.0101 958.415 Q31.3458 955.82 29.1265 952.209 Q26.9071 948.598 26.9071 943.708 Q26.9071 937.125 31.5338 933.551 Q36.1229 929.978 44.6241 929.978 L70.0522 929.978 L70.0522 936.937 L44.8497 936.937 Q38.7936 936.937 35.8596 939.081 Q32.9256 941.225 32.9256 945.626 Q32.9256 951.005 36.4991 954.127 Q40.0726 957.249 46.2415 957.249 L70.0522 957.249 L70.0522 964.208 L44.8497 964.208 Q38.756 964.208 35.8596 966.352 Q32.9256 968.496 32.9256 972.973 Q32.9256 978.276 36.5367 981.398 Q40.1102 984.521 46.2415 984.521 L70.0522 984.521 L70.0522 991.479 L27.9228 991.479 L27.9228 984.521 L34.4679 984.521 Q30.5935 982.151 28.7503 978.841 Q26.9071 975.53 26.9071 970.979 Q26.9071 966.39 29.2393 963.193 Q31.5715 959.958 36.0101 958.415 Z" fill="#000000" fill-rule="nonzero" fill-opacity="1" /><path clip-path="url(#clip440)" d="M49.0251 885.93 Q41.3891 885.93 37.0633 889.09 Q32.6999 892.212 32.6999 897.704 Q32.6999 903.196 37.0633 906.355 Q41.3891 909.478 49.0251 909.478 Q56.661 909.478 61.0244 906.355 Q65.3502 903.196 65.3502 897.704 Q65.3502 892.212 61.0244 889.09 Q56.661 885.93 49.0251 885.93 M34.3174 909.478 Q30.5558 907.296 28.7503 903.986 Q26.9071 900.638 26.9071 896.011 Q26.9071 888.338 33.0009 883.56 Q39.0946 878.746 49.0251 878.746 Q58.9556 878.746 65.0493 883.56 Q71.143 888.338 71.143 896.011 Q71.143 900.638 69.3375 903.986 Q67.4943 907.296 63.7327 909.478 L70.0522 909.478 L70.0522 916.436 L11.5224 916.436 L11.5224 909.478 L34.3174 909.478 Z" fill="#000000" fill-rule="nonzero" fill-opacity="1" /><path clip-path="url(#clip440)" d="M47.2571 831.237 L50.6425 831.237 L50.6425 863.06 Q57.7895 862.609 61.551 858.772 Q65.275 854.897 65.275 848.014 Q65.275 844.026 64.297 840.303 Q63.319 836.541 61.363 832.855 L67.9081 832.855 Q69.4879 836.579 70.3155 840.491 Q71.143 844.403 71.143 848.428 Q71.143 858.508 65.275 864.414 Q59.407 870.282 49.4012 870.282 Q39.057 870.282 33.0009 864.715 Q26.9071 859.11 26.9071 849.631 Q26.9071 841.13 32.399 836.202 Q37.8533 831.237 47.2571 831.237 M45.2259 838.158 Q39.546 838.234 36.1606 841.356 Q32.7752 844.44 32.7752 849.556 Q32.7752 855.349 36.0477 858.847 Q39.3203 862.308 45.2635 862.834 L45.2259 838.158 Z" fill="#000000" fill-rule="nonzero" fill-opacity="1" /><path clip-path="url(#clip440)" d="M34.3926 795.465 Q33.7155 796.631 33.4146 798.023 Q33.0761 799.377 33.0761 801.032 Q33.0761 806.9 36.9129 810.06 Q40.712 813.182 47.859 813.182 L70.0522 813.182 L70.0522 820.141 L27.9228 820.141 L27.9228 813.182 L34.4679 813.182 Q30.6311 811 28.7879 807.502 Q26.9071 804.004 26.9071 799.001 Q26.9071 798.286 27.02 797.421 Q27.0952 796.556 27.2833 795.502 L34.3926 795.465 Z" fill="#000000" fill-rule="nonzero" fill-opacity="1" /><path clip-path="url(#clip440)" d="M32.7752 747.392 Q32.7752 752.959 37.1386 756.194 Q41.4643 759.429 49.0251 759.429 Q56.5858 759.429 60.9492 756.232 Q65.275 752.997 65.275 747.392 Q65.275 741.863 60.9116 738.628 Q56.5482 735.393 49.0251 735.393 Q41.5396 735.393 37.1762 738.628 Q32.7752 741.863 32.7752 747.392 M26.9071 747.392 Q26.9071 738.364 32.7752 733.211 Q38.6432 728.058 49.0251 728.058 Q59.3693 728.058 65.275 733.211 Q71.143 738.364 71.143 747.392 Q71.143 756.458 65.275 761.611 Q59.3693 766.727 49.0251 766.727 Q38.6432 766.727 32.7752 761.611 Q26.9071 756.458 26.9071 747.392 Z" fill="#000000" fill-rule="nonzero" fill-opacity="1" /><path clip-path="url(#clip440)" d="M11.5224 695.257 L17.2776 695.257 L17.2776 701.877 Q17.2776 705.601 18.7822 707.068 Q20.2868 708.498 24.1988 708.498 L27.9228 708.498 L27.9228 697.1 L33.3018 697.1 L33.3018 708.498 L70.0522 708.498 L70.0522 715.457 L33.3018 715.457 L33.3018 722.077 L27.9228 722.077 L27.9228 715.457 L24.9887 715.457 Q17.9546 715.457 14.7573 712.184 Q11.5224 708.911 11.5224 701.802 L11.5224 695.257 Z" fill="#000000" fill-rule="nonzero" fill-opacity="1" /><path clip-path="url(#clip440)" d="M29.1641 638.119 L35.7092 638.119 Q34.2045 641.053 33.4522 644.213 Q32.6999 647.372 32.6999 650.758 Q32.6999 655.911 34.2798 658.507 Q35.8596 661.065 39.0193 661.065 Q41.4267 661.065 42.8185 659.221 Q44.1727 657.378 45.414 651.811 L45.9406 649.441 Q47.5204 642.069 50.4168 638.984 Q53.2756 635.862 58.429 635.862 Q64.297 635.862 67.72 640.526 Q71.143 645.153 71.143 653.278 Q71.143 656.663 70.4659 660.35 Q69.8265 663.999 68.5099 668.061 L61.363 668.061 Q63.3566 664.224 64.3722 660.5 Q65.3502 656.776 65.3502 653.128 Q65.3502 648.238 63.6951 645.605 Q62.0024 642.971 58.9556 642.971 Q56.1344 642.971 54.6298 644.89 Q53.1252 646.771 51.7334 653.203 L51.1692 655.61 Q49.815 662.043 47.0314 664.901 Q44.2103 667.76 39.3203 667.76 Q33.377 667.76 30.1421 663.547 Q26.9071 659.334 26.9071 651.585 Q26.9071 647.749 27.4714 644.363 Q28.0356 640.978 29.1641 638.119 Z" fill="#000000" fill-rule="nonzero" fill-opacity="1" /><path clip-path="url(#clip440)" d="M48.8746 605.694 Q48.8746 614.083 50.793 617.318 Q52.7114 620.553 57.3381 620.553 Q61.0244 620.553 63.2061 618.145 Q65.3502 615.7 65.3502 611.525 Q65.3502 605.77 61.2877 602.309 Q57.1876 598.811 50.4168 598.811 L48.8746 598.811 L48.8746 605.694 M46.0158 591.89 L70.0522 591.89 L70.0522 598.811 L63.6575 598.811 Q67.4943 601.181 69.3375 604.716 Q71.143 608.252 71.143 613.368 Q71.143 619.838 67.5319 623.675 Q63.8832 627.474 57.7895 627.474 Q50.6802 627.474 47.0691 622.734 Q43.458 617.957 43.458 608.516 L43.458 598.811 L42.7809 598.811 Q38.0037 598.811 35.4082 601.97 Q32.7752 605.093 32.7752 610.773 Q32.7752 614.384 33.6403 617.807 Q34.5055 621.23 36.2358 624.389 L29.8411 624.389 Q28.3741 620.59 27.6594 617.017 Q26.9071 613.443 26.9071 610.058 Q26.9071 600.917 31.6467 596.403 Q36.3862 591.89 46.0158 591.89 Z" fill="#000000" fill-rule="nonzero" fill-opacity="1" /><path clip-path="url(#clip440)" d="M36.0101 544.832 Q31.3458 542.237 29.1265 538.626 Q26.9071 535.015 26.9071 530.125 Q26.9071 523.542 31.5338 519.969 Q36.1229 516.395 44.6241 516.395 L70.0522 516.395 L70.0522 523.354 L44.8497 523.354 Q38.7936 523.354 35.8596 525.498 Q32.9256 527.642 32.9256 532.043 Q32.9256 537.422 36.4991 540.544 Q40.0726 543.666 46.2415 543.666 L70.0522 543.666 L70.0522 550.625 L44.8497 550.625 Q38.756 550.625 35.8596 552.769 Q32.9256 554.913 32.9256 559.39 Q32.9256 564.693 36.5367 567.816 Q40.1102 570.938 46.2415 570.938 L70.0522 570.938 L70.0522 577.897 L27.9228 577.897 L27.9228 570.938 L34.4679 570.938 Q30.5935 568.568 28.7503 565.258 Q26.9071 561.948 26.9071 557.396 Q26.9071 552.807 29.2393 549.61 Q31.5715 546.375 36.0101 544.832 Z" fill="#000000" fill-rule="nonzero" fill-opacity="1" /><path clip-path="url(#clip440)" d="M63.7327 495.895 L86.0764 495.895 L86.0764 502.854 L27.9228 502.854 L27.9228 495.895 L34.3174 495.895 Q30.5558 493.713 28.7503 490.403 Q26.9071 487.055 26.9071 482.428 Q26.9071 474.755 33.0009 469.978 Q39.0946 465.163 49.0251 465.163 Q58.9556 465.163 65.0493 469.978 Q71.143 474.755 71.143 482.428 Q71.143 487.055 69.3375 490.403 Q67.4943 493.713 63.7327 495.895 M49.0251 472.347 Q41.3891 472.347 37.0633 475.507 Q32.6999 478.629 32.6999 484.121 Q32.6999 489.613 37.0633 492.773 Q41.3891 495.895 49.0251 495.895 Q56.661 495.895 61.0244 492.773 Q65.3502 489.613 65.3502 484.121 Q65.3502 478.629 61.0244 475.507 Q56.661 472.347 49.0251 472.347 Z" fill="#000000" fill-rule="nonzero" fill-opacity="1" /><path clip-path="url(#clip440)" d="M11.5224 453.69 L11.5224 446.769 L70.0522 446.769 L70.0522 453.69 L11.5224 453.69 Z" fill="#000000" fill-rule="nonzero" fill-opacity="1" /><path clip-path="url(#clip440)" d="M47.2571 396.251 L50.6425 396.251 L50.6425 428.074 Q57.7895 427.622 61.551 423.786 Q65.275 419.911 65.275 413.028 Q65.275 409.04 64.297 405.316 Q63.319 401.555 61.363 397.869 L67.9081 397.869 Q69.4879 401.593 70.3155 405.505 Q71.143 409.417 71.143 413.441 Q71.143 423.522 65.275 429.428 Q59.407 435.296 49.4012 435.296 Q39.057 435.296 33.0009 429.729 Q26.9071 424.124 26.9071 414.645 Q26.9071 406.144 32.399 401.216 Q37.8533 396.251 47.2571 396.251 M45.2259 403.172 Q39.546 403.248 36.1606 406.37 Q32.7752 409.454 32.7752 414.57 Q32.7752 420.363 36.0477 423.861 Q39.3203 427.322 45.2635 427.848 L45.2259 403.172 Z" fill="#000000" fill-rule="nonzero" fill-opacity="1" /><path clip-path="url(#clip440)" d="M29.1641 358.034 L35.7092 358.034 Q34.2045 360.968 33.4522 364.127 Q32.6999 367.287 32.6999 370.673 Q32.6999 375.826 34.2798 378.421 Q35.8596 380.979 39.0193 380.979 Q41.4267 380.979 42.8185 379.136 Q44.1727 377.293 45.414 371.726 L45.9406 369.356 Q47.5204 361.983 50.4168 358.899 Q53.2756 355.777 58.429 355.777 Q64.297 355.777 67.72 360.441 Q71.143 365.068 71.143 373.193 Q71.143 376.578 70.4659 380.265 Q69.8265 383.913 68.5099 387.976 L61.363 387.976 Q63.3566 384.139 64.3722 380.415 Q65.3502 376.691 65.3502 373.042 Q65.3502 368.152 63.6951 365.519 Q62.0024 362.886 58.9556 362.886 Q56.1344 362.886 54.6298 364.805 Q53.1252 366.685 51.7334 373.118 L51.1692 375.525 Q49.815 381.957 47.0314 384.816 Q44.2103 387.675 39.3203 387.675 Q33.377 387.675 30.1421 383.462 Q26.9071 379.249 26.9071 371.5 Q26.9071 367.663 27.4714 364.278 Q28.0356 360.893 29.1641 358.034 Z" fill="#000000" fill-rule="nonzero" fill-opacity="1" /><path clip-path="url(#clip442)" d="M378.632 47.2441 L378.632 1405.9 L1204.95 1405.9 L1204.95 47.2441 L378.632 47.2441 L378.632 47.2441  Z" fill="#009af9" fill-rule="evenodd" fill-opacity="1"/>
<polyline clip-path="url(#clip442)" style="stroke:#000000; stroke-linecap:round; stroke-linejoin:round; stroke-width:4; stroke-opacity:1; fill:none" points="378.632,47.2441 378.632,1405.9 1204.95,1405.9 1204.95,47.2441 378.632,47.2441 "/>
<path clip-path="url(#clip442)" d="M1411.53 599.079 L1411.53 1405.9 L2237.86 1405.9 L2237.86 599.079 L1411.53 599.079 L1411.53 599.079  Z" fill="#009af9" fill-rule="evenodd" fill-opacity="1"/>
<polyline clip-path="url(#clip442)" style="stroke:#000000; stroke-linecap:round; stroke-linejoin:round; stroke-width:4; stroke-opacity:1; fill:none" points="1411.53,599.079 1411.53,1405.9 2237.86,1405.9 2237.86,599.079 1411.53,599.079 "/>
<circle clip-path="url(#clip442)" style="fill:#009af9; stroke:none; fill-opacity:0" cx="791.793" cy="47.2441" r="2"/>
<circle clip-path="url(#clip442)" style="fill:#009af9; stroke:none; fill-opacity:0" cx="1824.69" cy="599.079" r="2"/>
</svg>
