<?xml version="1.0" encoding="utf-8"?>
<svg xmlns="http://www.w3.org/2000/svg" xmlns:xlink="http://www.w3.org/1999/xlink" width="600" height="400" viewBox="0 0 2400 1600">
<defs>
  <clipPath id="clip920">
    <rect x="0" y="0" width="2400" height="1600"/>
  </clipPath>
</defs>
<path clip-path="url(#clip920)" d="M0 1600 L2400 1600 L2400 0 L0 0  Z" fill="#ffffff" fill-rule="evenodd" fill-opacity="1"/>
<defs>
  <clipPath id="clip921">
    <rect x="480" y="0" width="1681" height="1600"/>
  </clipPath>
</defs>
<path clip-path="url(#clip920)" d="M276.35 1414.54 L2352.76 1414.54 L2352.76 47.2441 L276.35 47.2441  Z" fill="#ffffff" fill-rule="evenodd" fill-opacity="1"/>
<defs>
  <clipPath id="clip922">
    <rect x="276" y="47" width="2077" height="1368"/>
  </clipPath>
</defs>
<polyline clip-path="url(#clip922)" style="stroke:#000000; stroke-linecap:round; stroke-linejoin:round; stroke-width:2; stroke-opacity:0.1; fill:none" points="605.306,1414.54 605.306,47.2441 "/>
<polyline clip-path="url(#clip922)" style="stroke:#000000; stroke-linecap:round; stroke-linejoin:round; stroke-width:2; stroke-opacity:0.1; fill:none" points="943.043,1414.54 943.043,47.2441 "/>
<polyline clip-path="url(#clip922)" style="stroke:#000000; stroke-linecap:round; stroke-linejoin:round; stroke-width:2; stroke-opacity:0.1; fill:none" points="1280.78,1414.54 1280.78,47.2441 "/>
<polyline clip-path="url(#clip922)" style="stroke:#000000; stroke-linecap:round; stroke-linejoin:round; stroke-width:2; stroke-opacity:0.1; fill:none" points="1618.52,1414.54 1618.52,47.2441 "/>
<polyline clip-path="url(#clip922)" style="stroke:#000000; stroke-linecap:round; stroke-linejoin:round; stroke-width:2; stroke-opacity:0.1; fill:none" points="1956.25,1414.54 1956.25,47.2441 "/>
<polyline clip-path="url(#clip922)" style="stroke:#000000; stroke-linecap:round; stroke-linejoin:round; stroke-width:2; stroke-opacity:0.1; fill:none" points="2293.99,1414.54 2293.99,47.2441 "/>
<polyline clip-path="url(#clip920)" style="stroke:#000000; stroke-linecap:round; stroke-linejoin:round; stroke-width:4; stroke-opacity:1; fill:none" points="276.35,1414.54 2352.76,1414.54 "/>
<polyline clip-path="url(#clip920)" style="stroke:#000000; stroke-linecap:round; stroke-linejoin:round; stroke-width:4; stroke-opacity:1; fill:none" points="605.306,1414.54 605.306,1395.64 "/>
<polyline clip-path="url(#clip920)" style="stroke:#000000; stroke-linecap:round; stroke-linejoin:round; stroke-width:4; stroke-opacity:1; fill:none" points="943.043,1414.54 943.043,1395.64 "/>
<polyline clip-path="url(#clip920)" style="stroke:#000000; stroke-linecap:round; stroke-linejoin:round; stroke-width:4; stroke-opacity:1; fill:none" points="1280.78,1414.54 1280.78,1395.64 "/>
<polyline clip-path="url(#clip920)" style="stroke:#000000; stroke-linecap:round; stroke-linejoin:round; stroke-width:4; stroke-opacity:1; fill:none" points="1618.52,1414.54 1618.52,1395.64 "/>
<polyline clip-path="url(#clip920)" style="stroke:#000000; stroke-linecap:round; stroke-linejoin:round; stroke-width:4; stroke-opacity:1; fill:none" points="1956.25,1414.54 1956.25,1395.64 "/>
<polyline clip-path="url(#clip920)" style="stroke:#000000; stroke-linecap:round; stroke-linejoin:round; stroke-width:4; stroke-opacity:1; fill:none" points="2293.99,1414.54 2293.99,1395.64 "/>
<path clip-path="url(#clip920)" d="M594.368 1443.46 L615.019 1443.46 L615.019 1447.89 L599.186 1447.89 L599.186 1457.42 Q600.332 1457.03 601.478 1456.85 Q602.624 1456.64 603.769 1456.64 Q610.28 1456.64 614.082 1460.2 Q617.884 1463.77 617.884 1469.87 Q617.884 1476.14 613.978 1479.63 Q610.072 1483.1 602.962 1483.1 Q600.514 1483.1 597.962 1482.68 Q595.436 1482.26 592.728 1481.43 L592.728 1476.14 Q595.072 1477.42 597.572 1478.04 Q600.072 1478.67 602.858 1478.67 Q607.363 1478.67 609.993 1476.3 Q612.624 1473.93 612.624 1469.87 Q612.624 1465.8 609.993 1463.43 Q607.363 1461.06 602.858 1461.06 Q600.749 1461.06 598.639 1461.53 Q596.556 1462 594.368 1462.99 L594.368 1443.46 Z" fill="#000000" fill-rule="nonzero" fill-opacity="1" /><path clip-path="url(#clip920)" d="M914.566 1477.91 L923.16 1477.91 L923.16 1448.25 L913.811 1450.13 L913.811 1445.33 L923.108 1443.46 L928.368 1443.46 L928.368 1477.91 L936.962 1477.91 L936.962 1482.34 L914.566 1482.34 L914.566 1477.91 Z" fill="#000000" fill-rule="nonzero" fill-opacity="1" /><path clip-path="url(#clip920)" d="M958.837 1446.92 Q954.774 1446.92 952.717 1450.93 Q950.686 1454.92 950.686 1462.94 Q950.686 1470.93 952.717 1474.94 Q954.774 1478.93 958.837 1478.93 Q962.925 1478.93 964.957 1474.94 Q967.014 1470.93 967.014 1462.94 Q967.014 1454.92 964.957 1450.93 Q962.925 1446.92 958.837 1446.92 M958.837 1442.76 Q965.373 1442.76 968.811 1447.94 Q972.274 1453.1 972.274 1462.94 Q972.274 1472.76 968.811 1477.94 Q965.373 1483.1 958.837 1483.1 Q952.3 1483.1 948.837 1477.94 Q945.399 1472.76 945.399 1462.94 Q945.399 1453.1 948.837 1447.94 Q952.3 1442.76 958.837 1442.76 Z" fill="#000000" fill-rule="nonzero" fill-opacity="1" /><path clip-path="url(#clip920)" d="M1252.86 1477.91 L1261.46 1477.91 L1261.46 1448.25 L1252.11 1450.13 L1252.11 1445.33 L1261.4 1443.46 L1266.66 1443.46 L1266.66 1477.91 L1275.26 1477.91 L1275.26 1482.34 L1252.86 1482.34 L1252.86 1477.91 Z" fill="#000000" fill-rule="nonzero" fill-opacity="1" /><path clip-path="url(#clip920)" d="M1285.94 1443.46 L1306.59 1443.46 L1306.59 1447.89 L1290.75 1447.89 L1290.75 1457.42 Q1291.9 1457.03 1293.05 1456.85 Q1294.19 1456.64 1295.34 1456.64 Q1301.85 1456.64 1305.65 1460.2 Q1309.45 1463.77 1309.45 1469.87 Q1309.45 1476.14 1305.54 1479.63 Q1301.64 1483.1 1294.53 1483.1 Q1292.08 1483.1 1289.53 1482.68 Q1287 1482.26 1284.3 1481.43 L1284.3 1476.14 Q1286.64 1477.42 1289.14 1478.04 Q1291.64 1478.67 1294.43 1478.67 Q1298.93 1478.67 1301.56 1476.3 Q1304.19 1473.93 1304.19 1469.87 Q1304.19 1465.8 1301.56 1463.43 Q1298.93 1461.06 1294.43 1461.06 Q1292.32 1461.06 1290.21 1461.53 Q1288.12 1462 1285.94 1462.99 L1285.94 1443.46 Z" fill="#000000" fill-rule="nonzero" fill-opacity="1" /><path clip-path="url(#clip920)" d="M1594.64 1477.91 L1613 1477.91 L1613 1482.34 L1588.31 1482.34 L1588.31 1477.91 Q1591.3 1474.81 1596.46 1469.61 Q1601.64 1464.37 1602.97 1462.86 Q1605.5 1460.02 1606.49 1458.07 Q1607.5 1456.09 1607.5 1454.19 Q1607.5 1451.09 1605.31 1449.14 Q1603.15 1447.18 1599.66 1447.18 Q1597.19 1447.18 1594.43 1448.04 Q1591.69 1448.9 1588.57 1450.65 L1588.57 1445.33 Q1591.75 1444.06 1594.51 1443.41 Q1597.27 1442.76 1599.56 1442.76 Q1605.6 1442.76 1609.19 1445.78 Q1612.79 1448.8 1612.79 1453.85 Q1612.79 1456.25 1611.88 1458.41 Q1610.99 1460.54 1608.62 1463.46 Q1607.97 1464.21 1604.48 1467.83 Q1600.99 1471.43 1594.64 1477.91 Z" fill="#000000" fill-rule="nonzero" fill-opacity="1" /><path clip-path="url(#clip920)" d="M1635.29 1446.92 Q1631.22 1446.92 1629.17 1450.93 Q1627.14 1454.92 1627.14 1462.94 Q1627.14 1470.93 1629.17 1474.94 Q1631.22 1478.93 1635.29 1478.93 Q1639.38 1478.93 1641.41 1474.94 Q1643.46 1470.93 1643.46 1462.94 Q1643.46 1454.92 1641.41 1450.93 Q1639.38 1446.92 1635.29 1446.92 M1635.29 1442.76 Q1641.82 1442.76 1645.26 1447.94 Q1648.72 1453.1 1648.72 1462.94 Q1648.72 1472.76 1645.26 1477.94 Q1641.82 1483.1 1635.29 1483.1 Q1628.75 1483.1 1625.29 1477.94 Q1621.85 1472.76 1621.85 1462.94 Q1621.85 1453.1 1625.29 1447.94 Q1628.75 1442.76 1635.29 1442.76 Z" fill="#000000" fill-rule="nonzero" fill-opacity="1" /><path clip-path="url(#clip920)" d="M1932.93 1477.91 L1951.29 1477.91 L1951.29 1482.34 L1926.6 1482.34 L1926.6 1477.91 Q1929.6 1474.81 1934.76 1469.61 Q1939.94 1464.37 1941.27 1462.86 Q1943.79 1460.02 1944.78 1458.07 Q1945.8 1456.09 1945.8 1454.19 Q1945.8 1451.09 1943.61 1449.14 Q1941.45 1447.18 1937.96 1447.18 Q1935.48 1447.18 1932.72 1448.04 Q1929.99 1448.9 1926.87 1450.65 L1926.87 1445.33 Q1930.04 1444.06 1932.8 1443.41 Q1935.56 1442.76 1937.85 1442.76 Q1943.9 1442.76 1947.49 1445.78 Q1951.08 1448.8 1951.08 1453.85 Q1951.08 1456.25 1950.17 1458.41 Q1949.29 1460.54 1946.92 1463.46 Q1946.27 1464.21 1942.78 1467.83 Q1939.29 1471.43 1932.93 1477.91 Z" fill="#000000" fill-rule="nonzero" fill-opacity="1" /><path clip-path="url(#clip920)" d="M1962.39 1443.46 L1983.04 1443.46 L1983.04 1447.89 L1967.2 1447.89 L1967.2 1457.42 Q1968.35 1457.03 1969.5 1456.85 Q1970.64 1456.64 1971.79 1456.64 Q1978.3 1456.64 1982.1 1460.2 Q1985.9 1463.77 1985.9 1469.87 Q1985.9 1476.14 1982 1479.63 Q1978.09 1483.1 1970.98 1483.1 Q1968.53 1483.1 1965.98 1482.68 Q1963.45 1482.26 1960.75 1481.43 L1960.75 1476.14 Q1963.09 1477.42 1965.59 1478.04 Q1968.09 1478.67 1970.88 1478.67 Q1975.38 1478.67 1978.01 1476.3 Q1980.64 1473.93 1980.64 1469.87 Q1980.64 1465.8 1978.01 1463.43 Q1975.38 1461.06 1970.88 1461.06 Q1968.77 1461.06 1966.66 1461.53 Q1964.57 1462 1962.39 1462.99 L1962.39 1443.46 Z" fill="#000000" fill-rule="nonzero" fill-opacity="1" /><path clip-path="url(#clip920)" d="M2281.44 1461.38 Q2285.21 1462.18 2287.32 1464.74 Q2289.46 1467.29 2289.46 1471.04 Q2289.46 1476.79 2285.5 1479.94 Q2281.54 1483.1 2274.25 1483.1 Q2271.8 1483.1 2269.2 1482.6 Q2266.62 1482.13 2263.86 1481.17 L2263.86 1476.09 Q2266.05 1477.37 2268.65 1478.02 Q2271.26 1478.67 2274.09 1478.67 Q2279.04 1478.67 2281.62 1476.71 Q2284.22 1474.76 2284.22 1471.04 Q2284.22 1467.6 2281.8 1465.67 Q2279.41 1463.72 2275.11 1463.72 L2270.58 1463.72 L2270.58 1459.4 L2275.32 1459.4 Q2279.2 1459.4 2281.26 1457.86 Q2283.31 1456.3 2283.31 1453.38 Q2283.31 1450.39 2281.18 1448.8 Q2279.07 1447.18 2275.11 1447.18 Q2272.95 1447.18 2270.47 1447.65 Q2268 1448.12 2265.03 1449.11 L2265.03 1444.42 Q2268.03 1443.59 2270.63 1443.17 Q2273.26 1442.76 2275.58 1442.76 Q2281.57 1442.76 2285.06 1445.49 Q2288.55 1448.2 2288.55 1452.83 Q2288.55 1456.06 2286.7 1458.3 Q2284.85 1460.52 2281.44 1461.38 Z" fill="#000000" fill-rule="nonzero" fill-opacity="1" /><path clip-path="url(#clip920)" d="M2310.68 1446.92 Q2306.62 1446.92 2304.56 1450.93 Q2302.53 1454.92 2302.53 1462.94 Q2302.53 1470.93 2304.56 1474.94 Q2306.62 1478.93 2310.68 1478.93 Q2314.77 1478.93 2316.8 1474.94 Q2318.86 1470.93 2318.86 1462.94 Q2318.86 1454.92 2316.8 1450.93 Q2314.77 1446.92 2310.68 1446.92 M2310.68 1442.76 Q2317.22 1442.76 2320.66 1447.94 Q2324.12 1453.1 2324.12 1462.94 Q2324.12 1472.76 2320.66 1477.94 Q2317.22 1483.1 2310.68 1483.1 Q2304.15 1483.1 2300.68 1477.94 Q2297.24 1472.76 2297.24 1462.94 Q2297.24 1453.1 2300.68 1447.94 Q2304.15 1442.76 2310.68 1442.76 Z" fill="#000000" fill-rule="nonzero" fill-opacity="1" /><path clip-path="url(#clip920)" d="M1227.49 1550.03 L1227.49 1553.15 L1198.11 1553.15 Q1198.53 1559.75 1202.07 1563.22 Q1205.65 1566.66 1212 1566.66 Q1215.68 1566.66 1219.12 1565.76 Q1222.59 1564.85 1225.99 1563.05 L1225.99 1569.09 Q1222.56 1570.55 1218.95 1571.31 Q1215.33 1572.07 1211.62 1572.07 Q1202.31 1572.07 1196.86 1566.66 Q1191.45 1561.24 1191.45 1552.01 Q1191.45 1542.46 1196.59 1536.87 Q1201.76 1531.24 1210.51 1531.24 Q1218.36 1531.24 1222.9 1536.31 Q1227.49 1541.35 1227.49 1550.03 M1221.1 1548.15 Q1221.03 1542.91 1218.15 1539.78 Q1215.3 1536.66 1210.58 1536.66 Q1205.23 1536.66 1202 1539.68 Q1198.81 1542.7 1198.32 1548.19 L1221.1 1548.15 Z" fill="#000000" fill-rule="nonzero" fill-opacity="1" /><path clip-path="url(#clip920)" d="M1244.15 1565.23 L1244.15 1585.86 L1237.73 1585.86 L1237.73 1532.18 L1244.15 1532.18 L1244.15 1538.08 Q1246.17 1534.61 1249.22 1532.94 Q1252.31 1531.24 1256.58 1531.24 Q1263.67 1531.24 1268.08 1536.87 Q1272.52 1542.49 1272.52 1551.66 Q1272.52 1560.82 1268.08 1566.45 Q1263.67 1572.07 1256.58 1572.07 Q1252.31 1572.07 1249.22 1570.41 Q1246.17 1568.71 1244.15 1565.23 M1265.89 1551.66 Q1265.89 1544.61 1262.97 1540.62 Q1260.09 1536.59 1255.02 1536.59 Q1249.95 1536.59 1247.04 1540.62 Q1244.15 1544.61 1244.15 1551.66 Q1244.15 1558.71 1247.04 1562.73 Q1249.95 1566.73 1255.02 1566.73 Q1260.09 1566.73 1262.97 1562.73 Q1265.89 1558.71 1265.89 1551.66 Z" fill="#000000" fill-rule="nonzero" fill-opacity="1" /><path clip-path="url(#clip920)" d="M1298.18 1536.66 Q1293.04 1536.66 1290.06 1540.69 Q1287.07 1544.68 1287.07 1551.66 Q1287.07 1558.64 1290.02 1562.67 Q1293.01 1566.66 1298.18 1566.66 Q1303.29 1566.66 1306.27 1562.63 Q1309.26 1558.6 1309.26 1551.66 Q1309.26 1544.75 1306.27 1540.72 Q1303.29 1536.66 1298.18 1536.66 M1298.18 1531.24 Q1306.51 1531.24 1311.27 1536.66 Q1316.03 1542.07 1316.03 1551.66 Q1316.03 1561.21 1311.27 1566.66 Q1306.51 1572.07 1298.18 1572.07 Q1289.81 1572.07 1285.06 1566.66 Q1280.33 1561.21 1280.33 1551.66 Q1280.33 1542.07 1285.06 1536.66 Q1289.81 1531.24 1298.18 1531.24 Z" fill="#000000" fill-rule="nonzero" fill-opacity="1" /><path clip-path="url(#clip920)" d="M1354.6 1533.67 L1354.6 1539.64 Q1351.9 1538.15 1349.15 1537.42 Q1346.45 1536.66 1343.67 1536.66 Q1337.45 1536.66 1334.01 1540.62 Q1330.58 1544.54 1330.58 1551.66 Q1330.58 1558.78 1334.01 1562.73 Q1337.45 1566.66 1343.67 1566.66 Q1346.45 1566.66 1349.15 1565.93 Q1351.9 1565.17 1354.6 1563.67 L1354.6 1569.57 Q1351.93 1570.82 1349.05 1571.45 Q1346.2 1572.07 1342.97 1572.07 Q1334.19 1572.07 1329.01 1566.55 Q1323.84 1561.03 1323.84 1551.66 Q1323.84 1542.14 1329.05 1536.69 Q1334.29 1531.24 1343.39 1531.24 Q1346.34 1531.24 1349.15 1531.87 Q1351.97 1532.46 1354.6 1533.67 Z" fill="#000000" fill-rule="nonzero" fill-opacity="1" /><path clip-path="url(#clip920)" d="M1398.04 1547.6 L1398.04 1571.07 L1391.65 1571.07 L1391.65 1547.8 Q1391.65 1542.28 1389.5 1539.54 Q1387.35 1536.8 1383.04 1536.8 Q1377.87 1536.8 1374.88 1540.1 Q1371.9 1543.39 1371.9 1549.09 L1371.9 1571.07 L1365.47 1571.07 L1365.47 1517.04 L1371.9 1517.04 L1371.9 1538.22 Q1374.19 1534.71 1377.28 1532.98 Q1380.4 1531.24 1384.47 1531.24 Q1391.17 1531.24 1394.6 1535.41 Q1398.04 1539.54 1398.04 1547.6 Z" fill="#000000" fill-rule="nonzero" fill-opacity="1" /><path clip-path="url(#clip920)" d="M1435.58 1533.32 L1435.58 1539.37 Q1432.87 1537.98 1429.95 1537.28 Q1427.04 1536.59 1423.91 1536.59 Q1419.15 1536.59 1416.76 1538.05 Q1414.4 1539.51 1414.4 1542.42 Q1414.4 1544.64 1416.1 1545.93 Q1417.8 1547.18 1422.94 1548.32 L1425.13 1548.81 Q1431.93 1550.27 1434.78 1552.94 Q1437.66 1555.58 1437.66 1560.34 Q1437.66 1565.76 1433.35 1568.92 Q1429.08 1572.07 1421.58 1572.07 Q1418.46 1572.07 1415.06 1571.45 Q1411.69 1570.86 1407.94 1569.64 L1407.94 1563.05 Q1411.48 1564.89 1414.92 1565.82 Q1418.35 1566.73 1421.72 1566.73 Q1426.24 1566.73 1428.67 1565.2 Q1431.1 1563.64 1431.1 1560.82 Q1431.1 1558.22 1429.33 1556.83 Q1427.59 1555.44 1421.65 1554.16 L1419.43 1553.64 Q1413.49 1552.39 1410.85 1549.82 Q1408.22 1547.21 1408.22 1542.7 Q1408.22 1537.21 1412.1 1534.23 Q1415.99 1531.24 1423.15 1531.24 Q1426.69 1531.24 1429.81 1531.76 Q1432.94 1532.28 1435.58 1533.32 Z" fill="#000000" fill-rule="nonzero" fill-opacity="1" /><polyline clip-path="url(#clip922)" style="stroke:#000000; stroke-linecap:round; stroke-linejoin:round; stroke-width:2; stroke-opacity:0.1; fill:none" points="276.35,830.969 2352.76,830.969 "/>
<polyline clip-path="url(#clip922)" style="stroke:#000000; stroke-linecap:round; stroke-linejoin:round; stroke-width:2; stroke-opacity:0.1; fill:none" points="276.35,202.89 2352.76,202.89 "/>
<polyline clip-path="url(#clip920)" style="stroke:#000000; stroke-linecap:round; stroke-linejoin:round; stroke-width:4; stroke-opacity:1; fill:none" points="276.35,1414.54 276.35,47.2441 "/>
<polyline clip-path="url(#clip920)" style="stroke:#000000; stroke-linecap:round; stroke-linejoin:round; stroke-width:4; stroke-opacity:1; fill:none" points="276.35,830.969 295.248,830.969 "/>
<polyline clip-path="url(#clip920)" style="stroke:#000000; stroke-linecap:round; stroke-linejoin:round; stroke-width:4; stroke-opacity:1; fill:none" points="276.35,202.89 295.248,202.89 "/>
<path clip-path="url(#clip920)" d="M121.24 853.235 L129.833 853.235 L129.833 823.574 L120.484 825.449 L120.484 820.657 L129.781 818.782 L135.042 818.782 L135.042 853.235 L143.635 853.235 L143.635 857.662 L121.24 857.662 L121.24 853.235 Z" fill="#000000" fill-rule="nonzero" fill-opacity="1" /><path clip-path="url(#clip920)" d="M165.51 822.246 Q161.448 822.246 159.39 826.256 Q157.359 830.241 157.359 838.261 Q157.359 846.256 159.39 850.267 Q161.448 854.251 165.51 854.251 Q169.599 854.251 171.63 850.267 Q173.687 846.256 173.687 838.261 Q173.687 830.241 171.63 826.256 Q169.599 822.246 165.51 822.246 M165.51 818.079 Q172.047 818.079 175.484 823.262 Q178.948 828.418 178.948 838.261 Q178.948 848.079 175.484 853.261 Q172.047 858.418 165.51 858.418 Q158.974 858.418 155.51 853.261 Q152.073 848.079 152.073 838.261 Q152.073 828.418 155.51 823.262 Q158.974 818.079 165.51 818.079 Z" fill="#000000" fill-rule="nonzero" fill-opacity="1" /><path clip-path="url(#clip920)" d="M184.089 823.229 L199.006 823.229 L199.006 826.826 L178.948 826.826 L178.948 823.229 Q181.381 820.711 185.57 816.479 Q189.781 812.226 190.86 810.999 Q192.912 808.693 193.716 807.106 Q194.542 805.498 194.542 803.953 Q194.542 801.435 192.764 799.848 Q191.008 798.261 188.173 798.261 Q186.163 798.261 183.92 798.96 Q181.698 799.658 179.159 801.076 L179.159 796.759 Q181.741 795.722 183.983 795.193 Q186.226 794.664 188.088 794.664 Q192.997 794.664 195.917 797.119 Q198.837 799.573 198.837 803.678 Q198.837 805.625 198.096 807.381 Q197.377 809.116 195.451 811.486 Q194.923 812.099 192.087 815.04 Q189.252 817.96 184.089 823.229 Z" fill="#000000" fill-rule="nonzero" fill-opacity="1" /><path clip-path="url(#clip920)" d="M207.977 821.451 L212.442 821.451 L212.442 826.826 L207.977 826.826 L207.977 821.451 Z" fill="#000000" fill-rule="nonzero" fill-opacity="1" /><path clip-path="url(#clip920)" d="M225.433 823.229 L240.35 823.229 L240.35 826.826 L220.292 826.826 L220.292 823.229 Q222.725 820.711 226.915 816.479 Q231.125 812.226 232.204 810.999 Q234.257 808.693 235.061 807.106 Q235.886 805.498 235.886 803.953 Q235.886 801.435 234.109 799.848 Q232.352 798.261 229.517 798.261 Q227.507 798.261 225.264 798.96 Q223.042 799.658 220.503 801.076 L220.503 796.759 Q223.085 795.722 225.328 795.193 Q227.57 794.664 229.432 794.664 Q234.341 794.664 237.261 797.119 Q240.181 799.573 240.181 803.678 Q240.181 805.625 239.441 807.381 Q238.721 809.116 236.796 811.486 Q236.267 812.099 233.431 815.04 Q230.596 817.96 225.433 823.229 Z" fill="#000000" fill-rule="nonzero" fill-opacity="1" /><path clip-path="url(#clip920)" d="M119.335 225.157 L127.929 225.157 L127.929 195.495 L118.58 197.37 L118.58 192.579 L127.877 190.704 L133.137 190.704 L133.137 225.157 L141.731 225.157 L141.731 229.584 L119.335 229.584 L119.335 225.157 Z" fill="#000000" fill-rule="nonzero" fill-opacity="1" /><path clip-path="url(#clip920)" d="M163.606 194.167 Q159.543 194.167 157.486 198.178 Q155.455 202.162 155.455 210.183 Q155.455 218.177 157.486 222.188 Q159.543 226.172 163.606 226.172 Q167.694 226.172 169.726 222.188 Q171.783 218.177 171.783 210.183 Q171.783 202.162 169.726 198.178 Q167.694 194.167 163.606 194.167 M163.606 190.001 Q170.142 190.001 173.58 195.183 Q177.043 200.339 177.043 210.183 Q177.043 220 173.58 225.183 Q170.142 230.339 163.606 230.339 Q157.07 230.339 153.606 225.183 Q150.169 220 150.169 210.183 Q150.169 200.339 153.606 195.183 Q157.07 190.001 163.606 190.001 Z" fill="#000000" fill-rule="nonzero" fill-opacity="1" /><path clip-path="url(#clip920)" d="M182.185 195.15 L197.102 195.15 L197.102 198.747 L177.043 198.747 L177.043 195.15 Q179.477 192.632 183.666 188.4 Q187.877 184.147 188.956 182.92 Q191.008 180.614 191.812 179.027 Q192.637 177.419 192.637 175.874 Q192.637 173.356 190.86 171.77 Q189.104 170.183 186.269 170.183 Q184.259 170.183 182.016 170.881 Q179.794 171.579 177.255 172.997 L177.255 168.68 Q179.836 167.644 182.079 167.115 Q184.322 166.586 186.184 166.586 Q191.093 166.586 194.013 169.04 Q196.933 171.495 196.933 175.599 Q196.933 177.546 196.192 179.302 Q195.473 181.037 193.547 183.407 Q193.018 184.021 190.183 186.962 Q187.348 189.881 182.185 195.15 Z" fill="#000000" fill-rule="nonzero" fill-opacity="1" /><path clip-path="url(#clip920)" d="M206.073 193.373 L210.538 193.373 L210.538 198.747 L206.073 198.747 L206.073 193.373 Z" fill="#000000" fill-rule="nonzero" fill-opacity="1" /><path clip-path="url(#clip920)" d="M231.591 170.881 L220.8 187.744 L231.591 187.744 L231.591 170.881 M230.469 167.157 L235.844 167.157 L235.844 187.744 L240.35 187.744 L240.35 191.299 L235.844 191.299 L235.844 198.747 L231.591 198.747 L231.591 191.299 L217.33 191.299 L217.33 187.173 L230.469 167.157 Z" fill="#000000" fill-rule="nonzero" fill-opacity="1" /><path clip-path="url(#clip920)" d="M13.0007 823.843 L13.0007 817.454 L67.0282 817.454 L67.0282 823.843 L13.0007 823.843 Z" fill="#000000" fill-rule="nonzero" fill-opacity="1" /><path clip-path="url(#clip920)" d="M61.1254 797.142 L61.1254 772.663 L67.0282 772.663 L67.0282 805.579 L61.1254 805.579 Q56.9935 801.586 50.0491 794.711 Q43.07 787.801 41.0561 786.031 Q37.2714 782.663 34.6672 781.343 Q32.0283 779.989 29.4936 779.989 Q25.3617 779.989 22.7576 782.906 Q20.1534 785.788 20.1534 790.44 Q20.1534 793.739 21.2992 797.419 Q22.4451 801.065 24.7714 805.232 L17.6881 805.232 Q15.9868 800.996 15.1187 797.315 Q14.2507 793.635 14.2507 790.579 Q14.2507 782.524 18.2784 777.732 Q22.3062 772.94 29.0422 772.94 Q32.2367 772.94 35.1186 774.156 Q37.9658 775.336 41.8547 778.496 Q42.8616 779.364 47.688 784.017 Q52.4796 788.669 61.1254 797.142 Z" fill="#000000" fill-rule="nonzero" fill-opacity="1" /><path clip-path="url(#clip920)" d="M44.7019 762.072 L44.7019 743.357 L50.3963 743.357 L50.3963 762.072 L44.7019 762.072 Z" fill="#000000" fill-rule="nonzero" fill-opacity="1" /><path clip-path="url(#clip920)" d="M13.0007 733.184 L13.0007 726.795 L67.0282 726.795 L67.0282 733.184 L13.0007 733.184 Z" fill="#000000" fill-rule="nonzero" fill-opacity="1" /><path clip-path="url(#clip920)" d="M32.6186 698.357 Q32.6186 703.496 36.6464 706.482 Q40.6394 709.468 47.6185 709.468 Q54.5977 709.468 58.6254 706.517 Q62.6185 703.531 62.6185 698.357 Q62.6185 693.253 58.5907 690.267 Q54.5629 687.281 47.6185 687.281 Q40.7089 687.281 36.6811 690.267 Q32.6186 693.253 32.6186 698.357 M27.202 698.357 Q27.202 690.024 32.6186 685.267 Q38.0353 680.51 47.6185 680.51 Q57.1671 680.51 62.6185 685.267 Q68.0351 690.024 68.0351 698.357 Q68.0351 706.725 62.6185 711.482 Q57.1671 716.205 47.6185 716.205 Q38.0353 716.205 32.6186 711.482 Q27.202 706.725 27.202 698.357 Z" fill="#000000" fill-rule="nonzero" fill-opacity="1" /><path clip-path="url(#clip920)" d="M47.1324 644.33 Q40.188 644.33 36.3686 647.212 Q32.5492 650.059 32.5492 655.233 Q32.5492 660.372 36.3686 663.253 Q40.188 666.101 47.1324 666.101 Q54.0421 666.101 57.8615 663.253 Q61.681 660.372 61.681 655.233 Q61.681 650.059 57.8615 647.212 Q54.0421 644.33 47.1324 644.33 M62.2018 637.941 Q72.1323 637.941 76.9587 642.351 Q81.8197 646.76 81.8197 655.858 Q81.8197 659.226 81.2989 662.212 Q80.8128 665.198 79.7711 668.01 L73.5559 668.01 Q75.0837 665.198 75.8128 662.455 Q76.542 659.712 76.542 656.865 Q76.542 650.58 73.2434 647.455 Q69.9795 644.33 63.3476 644.33 L60.1879 644.33 Q63.6254 646.309 65.3268 649.399 Q67.0282 652.49 67.0282 656.795 Q67.0282 663.948 61.5768 668.323 Q56.1254 672.698 47.1324 672.698 Q38.1047 672.698 32.6533 668.323 Q27.202 663.948 27.202 656.795 Q27.202 652.49 28.9034 649.399 Q30.6047 646.309 34.0422 644.33 L28.1395 644.33 L28.1395 637.941 L62.2018 637.941 Z" fill="#000000" fill-rule="nonzero" fill-opacity="1" /><polyline clip-path="url(#clip922)" style="stroke:#009af9; stroke-linecap:round; stroke-linejoin:round; stroke-width:4; stroke-opacity:1; fill:none" points="335.117,101.111 402.664,1254.42 470.211,1375.84 537.759,1257.31 605.306,952.008 672.853,636.139 740.401,396.925 807.948,238.795 875.495,143.613 943.043,93.7557 1078.14,85.9411 1145.68,116.831 1280.78,236.508 1415.87,420.241 1550.97,640.268 1686.06,859.696 1888.71,1125.07 2091.35,1285.52 2293.99,1355.61 "/>
</svg>
