<?xml version="1.0" encoding="utf-8" standalone="no"?>
<!DOCTYPE svg PUBLIC "-//W3C//DTD SVG 1.1//EN"
  "http://www.w3.org/Graphics/SVG/1.1/DTD/svg11.dtd">
<!-- Created with matplotlib (https://matplotlib.org/) -->
<svg height="432pt" version="1.1" viewBox="0 0 576 432" width="576pt" xmlns="http://www.w3.org/2000/svg" xmlns:xlink="http://www.w3.org/1999/xlink">
 <defs>
  <style type="text/css">
*{stroke-linecap:butt;stroke-linejoin:round;}
  </style>
 </defs>
 <g id="figure_1">
  <g id="patch_1">
   <path d="M 0 432 
L 576 432 
L 576 0 
L 0 0 
z
" style="fill:#ffffff;"/>
  </g>
  <g id="axes_1">
   <g id="patch_2">
    <path d="M 72 384.48 
L 518.4 384.48 
L 518.4 51.84 
L 72 51.84 
z
" style="fill:#ffffff;"/>
   </g>
   <g id="PathCollection_1">
    <path clip-path="url(#pd7a1daa3a1)" d="M 518.4 288.831929 
L 455.444597 288.831929 
L 454.628571 288.831929 
L 391.673168 288.831929 
L 390.857143 288.831929 
L 390.052378 288.84032 
L 386.603752 289.44 
L 388.435111 291.244805 
L 390.857143 290.910595 
L 393.440293 291.364863 
L 454.628571 291.364863 
L 515.81685 291.364863 
L 518.4 291.364863 
L 518.4 289.44 
M 182.502038 302.138159 
L 199.542857 310.974882 
L 249.357778 299.83985 
L 263.314286 295.29737 
L 272.92412 296.600877 
L 278.816987 289.44 
L 266.778333 286.858726 
L 263.314286 286.715919 
L 259.068034 286.275858 
L 199.542857 281.159934 
L 188.971771 281.562836 
L 168.768791 289.44 
" style="fill:#48186a;"/>
   </g>
   <g id="PathCollection_2">
    <path clip-path="url(#pd7a1daa3a1)" d="M 518.4 291.364863 
L 515.81685 291.364863 
L 454.628571 291.364863 
L 393.440293 291.364863 
L 390.857143 290.910595 
L 388.435111 291.244805 
L 386.603752 289.44 
L 390.052378 288.84032 
L 390.857143 288.831929 
L 391.673168 288.831929 
L 454.628571 288.831929 
L 455.444597 288.831929 
L 518.4 288.831929 
L 518.4 252.057269 
L 504.795873 252.057269 
L 454.628571 252.057269 
L 441.024444 252.057269 
L 390.857143 252.057269 
L 341.3821 252.573113 
L 327.085714 255.059105 
L 313.39311 252.123199 
L 263.314286 250.058673 
L 201.927334 243.69682 
L 199.542857 243.491885 
L 140.881306 245.727683 
L 135.771429 247.72003 
L 128.307196 247.482057 
L 72 243.496655 
L 72 289.44 
L 72 336.96 
L 72 356.569658 
L 81.022171 343.682972 
L 135.771429 343.236854 
L 185.533427 347.399285 
L 199.542857 347.723555 
L 253.227682 344.476147 
L 263.314286 343.563271 
L 269.77425 341.773715 
L 327.085714 342.757588 
L 333.439809 341.694825 
L 390.857143 340.95654 
L 448.008408 341.893089 
L 454.628571 342.304384 
L 461.504121 342.083393 
L 518.4 342.083393 
L 518.4 336.96 
M 168.768791 289.44 
L 188.971771 281.562836 
L 199.542857 281.159934 
L 259.068034 286.275858 
L 263.314286 286.715919 
L 266.778333 286.858726 
L 278.816987 289.44 
L 272.92412 296.600877 
L 263.314286 295.29737 
L 249.357778 299.83985 
L 199.542857 310.974882 
L 182.502038 302.138159 
" style="fill:#423f85;"/>
   </g>
   <g id="PathCollection_3">
    <path clip-path="url(#pd7a1daa3a1)" d="M 518.4 342.083393 
L 461.504121 342.083393 
L 454.628571 342.304384 
L 448.008408 341.893089 
L 390.857143 340.95654 
L 333.439809 341.694825 
L 327.085714 342.757588 
L 269.77425 341.773715 
L 263.314286 343.563271 
L 253.227682 344.476147 
L 199.542857 347.723555 
L 185.533427 347.399285 
L 135.771429 343.236854 
L 81.022171 343.682972 
L 72 356.569658 
L 72 384.48 
L 84.381201 384.48 
L 101.999818 359.314703 
L 135.771429 359.039519 
L 166.46669 361.607079 
L 199.542857 362.372678 
L 231.831827 360.41951 
L 263.314286 357.570228 
L 283.477223 351.98464 
L 327.085714 352.733273 
L 344.373052 349.841855 
L 390.857143 349.244152 
L 437.12583 350.002366 
L 454.628571 351.089769 
L 472.806518 350.505502 
L 518.4 350.505502 
M 518.4 209.116842 
L 474.378446 209.116842 
L 454.628571 209.116842 
L 434.878696 209.116842 
L 390.857143 209.116842 
L 370.760995 209.374872 
L 327.085714 209.374872 
L 283.410434 209.374872 
L 263.314286 208.401138 
L 247.164731 206.434023 
L 199.542857 208.955356 
L 154.185122 208.121172 
L 135.771429 208.811371 
L 117.55009 207.977836 
L 72 207.508144 
L 72 241.92 
L 72 243.496655 
L 128.307196 247.482057 
L 135.771429 247.72003 
L 140.881306 245.727683 
L 199.542857 243.491885 
L 201.927334 243.69682 
L 263.314286 250.058673 
L 313.39311 252.123199 
L 327.085714 255.059105 
L 341.3821 252.573113 
L 390.857143 252.057269 
L 441.024444 252.057269 
L 454.628571 252.057269 
L 504.795873 252.057269 
L 518.4 252.057269 
L 518.4 241.92 
" style="fill:#33638d;"/>
   </g>
   <g id="PathCollection_4">
    <path clip-path="url(#pd7a1daa3a1)" d="M 518.4 350.505502 
L 472.806518 350.505502 
L 454.628571 351.089769 
L 437.12583 350.002366 
L 390.857143 349.244152 
L 344.373052 349.841855 
L 327.085714 352.733273 
L 283.477223 351.98464 
L 263.314286 357.570228 
L 231.831827 360.41951 
L 199.542857 362.372678 
L 166.46669 361.607079 
L 135.771429 359.039519 
L 101.999818 359.314703 
L 84.381201 384.48 
L 116.302868 384.48 
L 122.977466 374.946435 
L 135.771429 374.842184 
L 147.399954 375.814873 
L 199.542857 377.0218 
L 210.435971 376.362873 
L 263.314286 371.577185 
L 297.180196 362.195565 
L 327.085714 362.708957 
L 355.306295 357.988884 
L 390.857143 357.531763 
L 426.243251 358.111642 
L 454.628571 359.875154 
L 484.108914 358.92761 
L 518.4 358.92761 
M 518.4 127.094542 
L 481.180485 127.094542 
L 454.628571 127.094542 
L 417.409057 127.094542 
L 390.857143 127.094542 
L 353.637628 127.094542 
L 327.085714 127.094542 
L 300.533801 127.094542 
L 263.314286 127.094542 
L 226.094771 127.094542 
L 199.542857 127.094542 
L 172.990943 127.094542 
L 135.771429 127.094542 
L 83.367249 138.409566 
L 72 138.926674 
L 72 146.88 
L 72 194.4 
L 72 207.508144 
L 117.55009 207.977836 
L 135.771429 208.811371 
L 154.185122 208.121172 
L 199.542857 208.955356 
L 247.164731 206.434023 
L 263.314286 208.401138 
L 283.410434 209.374872 
L 327.085714 209.374872 
L 370.760995 209.374872 
L 390.857143 209.116842 
L 434.878696 209.116842 
L 454.628571 209.116842 
L 474.378446 209.116842 
L 518.4 209.116842 
L 518.4 194.4 
L 518.4 146.88 
M 72 68.58445 
L 95.591119 69.419189 
L 135.771429 71.339838 
L 173.374244 71.339838 
L 199.542857 71.339838 
L 225.711471 71.339838 
L 263.314286 71.339838 
L 300.917101 71.339838 
L 327.085714 71.339838 
L 353.254328 71.339838 
L 390.857143 71.339838 
L 417.025756 71.339838 
L 454.628571 71.339838 
L 480.797185 71.339838 
L 518.4 71.339838 
L 518.4 51.84 
L 454.628571 51.84 
L 390.857143 51.84 
L 327.085714 51.84 
L 263.314286 51.84 
L 199.542857 51.84 
L 135.771429 51.84 
L 72 51.84 
" style="fill:#26828e;"/>
   </g>
   <g id="PathCollection_5">
    <path clip-path="url(#pd7a1daa3a1)" d="M 267.300033 384.48 
L 310.883169 372.40649 
L 327.085714 372.684641 
L 366.239537 366.135913 
L 390.857143 365.819375 
L 415.360672 366.220919 
L 454.628571 368.660539 
L 495.411311 367.349719 
L 518.4 367.349719 
L 518.4 358.92761 
L 484.108914 358.92761 
L 454.628571 359.875154 
L 426.243251 358.111642 
L 390.857143 357.531763 
L 355.306295 357.988884 
L 327.085714 362.708957 
L 297.180196 362.195565 
L 263.314286 371.577185 
L 210.435971 376.362873 
L 199.542857 377.0218 
L 147.399954 375.814873 
L 135.771429 374.842184 
L 122.977466 374.946435 
L 116.302868 384.48 
L 135.771429 384.48 
L 199.542857 384.48 
L 263.314286 384.48 
M 518.4 71.339838 
L 480.797185 71.339838 
L 454.628571 71.339838 
L 417.025756 71.339838 
L 390.857143 71.339838 
L 353.254328 71.339838 
L 327.085714 71.339838 
L 300.917101 71.339838 
L 263.314286 71.339838 
L 225.711471 71.339838 
L 199.542857 71.339838 
L 173.374244 71.339838 
L 135.771429 71.339838 
L 95.591119 69.419189 
L 72 68.58445 
L 72 99.36 
L 72 138.926674 
L 83.367249 138.409566 
L 135.771429 127.094542 
L 172.990943 127.094542 
L 199.542857 127.094542 
L 226.094771 127.094542 
L 263.314286 127.094542 
L 300.533801 127.094542 
L 327.085714 127.094542 
L 353.637628 127.094542 
L 390.857143 127.094542 
L 417.409057 127.094542 
L 454.628571 127.094542 
L 481.180485 127.094542 
L 518.4 127.094542 
L 518.4 99.36 
" style="fill:#1f9f88;"/>
   </g>
   <g id="PathCollection_6">
    <path clip-path="url(#pd7a1daa3a1)" d="M 317.862556 384.48 
L 324.586142 382.617415 
L 327.085714 382.660326 
L 377.17278 374.282943 
L 390.857143 374.106986 
L 404.478093 374.330195 
L 454.628571 377.445924 
L 506.713708 375.771828 
L 518.4 375.771828 
L 518.4 367.349719 
L 495.411311 367.349719 
L 454.628571 368.660539 
L 415.360672 366.220919 
L 390.857143 365.819375 
L 366.239537 366.135913 
L 327.085714 372.684641 
L 310.883169 372.40649 
L 267.300033 384.48 
" style="fill:#3fbc73;"/>
   </g>
   <g id="PathCollection_7">
    <path clip-path="url(#pd7a1daa3a1)" d="M 375.849227 384.48 
L 388.106023 382.429972 
L 390.857143 382.394598 
L 393.595514 382.439472 
L 426.439666 384.48 
L 454.628571 384.48 
L 509.115974 384.48 
L 518.016105 384.193936 
L 518.4 384.193936 
L 518.4 375.771828 
L 506.713708 375.771828 
L 454.628571 377.445924 
L 404.478093 374.330195 
L 390.857143 374.106986 
L 377.17278 374.282943 
L 327.085714 382.660326 
L 324.586142 382.617415 
L 317.862556 384.48 
L 327.085714 384.48 
" style="fill:#84d44b;"/>
   </g>
   <g id="PathCollection_8">
    <path clip-path="url(#pd7a1daa3a1)" d="M 426.439666 384.48 
L 393.595514 382.439472 
L 390.857143 382.394598 
L 388.106023 382.429972 
L 375.849227 384.48 
L 390.857143 384.48 
M 518.4 384.193936 
L 518.016105 384.193936 
L 509.115974 384.48 
L 518.4 384.48 
" style="fill:#d8e219;"/>
   </g>
   <g id="matplotlib.axis_1">
    <g id="xtick_1">
     <g id="line2d_1">
      <defs>
       <path d="M 0 0 
L 0 3.5 
" id="m2db66cc22f" style="stroke:#000000;stroke-width:0.8;"/>
      </defs>
      <g>
       <use style="stroke:#000000;stroke-width:0.8;" x="72" xlink:href="#m2db66cc22f" y="384.48"/>
      </g>
     </g>
     <g id="text_1">
      <!-- 3 -->
      <defs>
       <path d="M 40.578125 39.3125 
Q 47.65625 37.796875 51.625 33 
Q 55.609375 28.21875 55.609375 21.1875 
Q 55.609375 10.40625 48.1875 4.484375 
Q 40.765625 -1.421875 27.09375 -1.421875 
Q 22.515625 -1.421875 17.65625 -0.515625 
Q 12.796875 0.390625 7.625 2.203125 
L 7.625 11.71875 
Q 11.71875 9.328125 16.59375 8.109375 
Q 21.484375 6.890625 26.8125 6.890625 
Q 36.078125 6.890625 40.9375 10.546875 
Q 45.796875 14.203125 45.796875 21.1875 
Q 45.796875 27.640625 41.28125 31.265625 
Q 36.765625 34.90625 28.71875 34.90625 
L 20.21875 34.90625 
L 20.21875 43.015625 
L 29.109375 43.015625 
Q 36.375 43.015625 40.234375 45.921875 
Q 44.09375 48.828125 44.09375 54.296875 
Q 44.09375 59.90625 40.109375 62.90625 
Q 36.140625 65.921875 28.71875 65.921875 
Q 24.65625 65.921875 20.015625 65.03125 
Q 15.375 64.15625 9.8125 62.3125 
L 9.8125 71.09375 
Q 15.4375 72.65625 20.34375 73.4375 
Q 25.25 74.21875 29.59375 74.21875 
Q 40.828125 74.21875 47.359375 69.109375 
Q 53.90625 64.015625 53.90625 55.328125 
Q 53.90625 49.265625 50.4375 45.09375 
Q 46.96875 40.921875 40.578125 39.3125 
z
" id="DejaVuSans-51"/>
      </defs>
      <g transform="translate(68.1825 400.598125)scale(0.12 -0.12)">
       <use xlink:href="#DejaVuSans-51"/>
      </g>
     </g>
    </g>
    <g id="xtick_2">
     <g id="line2d_2">
      <g>
       <use style="stroke:#000000;stroke-width:0.8;" x="199.542857" xlink:href="#m2db66cc22f" y="384.48"/>
      </g>
     </g>
     <g id="text_2">
      <!-- 5 -->
      <defs>
       <path d="M 10.796875 72.90625 
L 49.515625 72.90625 
L 49.515625 64.59375 
L 19.828125 64.59375 
L 19.828125 46.734375 
Q 21.96875 47.46875 24.109375 47.828125 
Q 26.265625 48.1875 28.421875 48.1875 
Q 40.625 48.1875 47.75 41.5 
Q 54.890625 34.8125 54.890625 23.390625 
Q 54.890625 11.625 47.5625 5.09375 
Q 40.234375 -1.421875 26.90625 -1.421875 
Q 22.3125 -1.421875 17.546875 -0.640625 
Q 12.796875 0.140625 7.71875 1.703125 
L 7.71875 11.625 
Q 12.109375 9.234375 16.796875 8.0625 
Q 21.484375 6.890625 26.703125 6.890625 
Q 35.15625 6.890625 40.078125 11.328125 
Q 45.015625 15.765625 45.015625 23.390625 
Q 45.015625 31 40.078125 35.4375 
Q 35.15625 39.890625 26.703125 39.890625 
Q 22.75 39.890625 18.8125 39.015625 
Q 14.890625 38.140625 10.796875 36.28125 
z
" id="DejaVuSans-53"/>
      </defs>
      <g transform="translate(195.725357 400.598125)scale(0.12 -0.12)">
       <use xlink:href="#DejaVuSans-53"/>
      </g>
     </g>
    </g>
    <g id="xtick_3">
     <g id="line2d_3">
      <g>
       <use style="stroke:#000000;stroke-width:0.8;" x="327.085714" xlink:href="#m2db66cc22f" y="384.48"/>
      </g>
     </g>
     <g id="text_3">
      <!-- 7 -->
      <defs>
       <path d="M 8.203125 72.90625 
L 55.078125 72.90625 
L 55.078125 68.703125 
L 28.609375 0 
L 18.3125 0 
L 43.21875 64.59375 
L 8.203125 64.59375 
z
" id="DejaVuSans-55"/>
      </defs>
      <g transform="translate(323.268214 400.598125)scale(0.12 -0.12)">
       <use xlink:href="#DejaVuSans-55"/>
      </g>
     </g>
    </g>
    <g id="xtick_4">
     <g id="line2d_4">
      <g>
       <use style="stroke:#000000;stroke-width:0.8;" x="454.628571" xlink:href="#m2db66cc22f" y="384.48"/>
      </g>
     </g>
     <g id="text_4">
      <!-- 9 -->
      <defs>
       <path d="M 10.984375 1.515625 
L 10.984375 10.5 
Q 14.703125 8.734375 18.5 7.8125 
Q 22.3125 6.890625 25.984375 6.890625 
Q 35.75 6.890625 40.890625 13.453125 
Q 46.046875 20.015625 46.78125 33.40625 
Q 43.953125 29.203125 39.59375 26.953125 
Q 35.25 24.703125 29.984375 24.703125 
Q 19.046875 24.703125 12.671875 31.3125 
Q 6.296875 37.9375 6.296875 49.421875 
Q 6.296875 60.640625 12.9375 67.421875 
Q 19.578125 74.21875 30.609375 74.21875 
Q 43.265625 74.21875 49.921875 64.515625 
Q 56.59375 54.828125 56.59375 36.375 
Q 56.59375 19.140625 48.40625 8.859375 
Q 40.234375 -1.421875 26.421875 -1.421875 
Q 22.703125 -1.421875 18.890625 -0.6875 
Q 15.09375 0.046875 10.984375 1.515625 
z
M 30.609375 32.421875 
Q 37.25 32.421875 41.125 36.953125 
Q 45.015625 41.5 45.015625 49.421875 
Q 45.015625 57.28125 41.125 61.84375 
Q 37.25 66.40625 30.609375 66.40625 
Q 23.96875 66.40625 20.09375 61.84375 
Q 16.21875 57.28125 16.21875 49.421875 
Q 16.21875 41.5 20.09375 36.953125 
Q 23.96875 32.421875 30.609375 32.421875 
z
" id="DejaVuSans-57"/>
      </defs>
      <g transform="translate(450.811071 400.598125)scale(0.12 -0.12)">
       <use xlink:href="#DejaVuSans-57"/>
      </g>
     </g>
    </g>
    <g id="text_5">
     <!-- Maximum tree depth -->
     <defs>
      <path d="M 9.8125 72.90625 
L 24.515625 72.90625 
L 43.109375 23.296875 
L 61.8125 72.90625 
L 76.515625 72.90625 
L 76.515625 0 
L 66.890625 0 
L 66.890625 64.015625 
L 48.09375 14.015625 
L 38.1875 14.015625 
L 19.390625 64.015625 
L 19.390625 0 
L 9.8125 0 
z
" id="DejaVuSans-77"/>
      <path d="M 34.28125 27.484375 
Q 23.390625 27.484375 19.1875 25 
Q 14.984375 22.515625 14.984375 16.5 
Q 14.984375 11.71875 18.140625 8.90625 
Q 21.296875 6.109375 26.703125 6.109375 
Q 34.1875 6.109375 38.703125 11.40625 
Q 43.21875 16.703125 43.21875 25.484375 
L 43.21875 27.484375 
z
M 52.203125 31.203125 
L 52.203125 0 
L 43.21875 0 
L 43.21875 8.296875 
Q 40.140625 3.328125 35.546875 0.953125 
Q 30.953125 -1.421875 24.3125 -1.421875 
Q 15.921875 -1.421875 10.953125 3.296875 
Q 6 8.015625 6 15.921875 
Q 6 25.140625 12.171875 29.828125 
Q 18.359375 34.515625 30.609375 34.515625 
L 43.21875 34.515625 
L 43.21875 35.40625 
Q 43.21875 41.609375 39.140625 45 
Q 35.0625 48.390625 27.6875 48.390625 
Q 23 48.390625 18.546875 47.265625 
Q 14.109375 46.140625 10.015625 43.890625 
L 10.015625 52.203125 
Q 14.9375 54.109375 19.578125 55.046875 
Q 24.21875 56 28.609375 56 
Q 40.484375 56 46.34375 49.84375 
Q 52.203125 43.703125 52.203125 31.203125 
z
" id="DejaVuSans-97"/>
      <path d="M 54.890625 54.6875 
L 35.109375 28.078125 
L 55.90625 0 
L 45.3125 0 
L 29.390625 21.484375 
L 13.484375 0 
L 2.875 0 
L 24.125 28.609375 
L 4.6875 54.6875 
L 15.28125 54.6875 
L 29.78125 35.203125 
L 44.28125 54.6875 
z
" id="DejaVuSans-120"/>
      <path d="M 9.421875 54.6875 
L 18.40625 54.6875 
L 18.40625 0 
L 9.421875 0 
z
M 9.421875 75.984375 
L 18.40625 75.984375 
L 18.40625 64.59375 
L 9.421875 64.59375 
z
" id="DejaVuSans-105"/>
      <path d="M 52 44.1875 
Q 55.375 50.25 60.0625 53.125 
Q 64.75 56 71.09375 56 
Q 79.640625 56 84.28125 50.015625 
Q 88.921875 44.046875 88.921875 33.015625 
L 88.921875 0 
L 79.890625 0 
L 79.890625 32.71875 
Q 79.890625 40.578125 77.09375 44.375 
Q 74.3125 48.1875 68.609375 48.1875 
Q 61.625 48.1875 57.5625 43.546875 
Q 53.515625 38.921875 53.515625 30.90625 
L 53.515625 0 
L 44.484375 0 
L 44.484375 32.71875 
Q 44.484375 40.625 41.703125 44.40625 
Q 38.921875 48.1875 33.109375 48.1875 
Q 26.21875 48.1875 22.15625 43.53125 
Q 18.109375 38.875 18.109375 30.90625 
L 18.109375 0 
L 9.078125 0 
L 9.078125 54.6875 
L 18.109375 54.6875 
L 18.109375 46.1875 
Q 21.1875 51.21875 25.484375 53.609375 
Q 29.78125 56 35.6875 56 
Q 41.65625 56 45.828125 52.96875 
Q 50 49.953125 52 44.1875 
z
" id="DejaVuSans-109"/>
      <path d="M 8.5 21.578125 
L 8.5 54.6875 
L 17.484375 54.6875 
L 17.484375 21.921875 
Q 17.484375 14.15625 20.5 10.265625 
Q 23.53125 6.390625 29.59375 6.390625 
Q 36.859375 6.390625 41.078125 11.03125 
Q 45.3125 15.671875 45.3125 23.6875 
L 45.3125 54.6875 
L 54.296875 54.6875 
L 54.296875 0 
L 45.3125 0 
L 45.3125 8.40625 
Q 42.046875 3.421875 37.71875 1 
Q 33.40625 -1.421875 27.6875 -1.421875 
Q 18.265625 -1.421875 13.375 4.4375 
Q 8.5 10.296875 8.5 21.578125 
z
M 31.109375 56 
z
" id="DejaVuSans-117"/>
      <path id="DejaVuSans-32"/>
      <path d="M 18.3125 70.21875 
L 18.3125 54.6875 
L 36.8125 54.6875 
L 36.8125 47.703125 
L 18.3125 47.703125 
L 18.3125 18.015625 
Q 18.3125 11.328125 20.140625 9.421875 
Q 21.96875 7.515625 27.59375 7.515625 
L 36.8125 7.515625 
L 36.8125 0 
L 27.59375 0 
Q 17.1875 0 13.234375 3.875 
Q 9.28125 7.765625 9.28125 18.015625 
L 9.28125 47.703125 
L 2.6875 47.703125 
L 2.6875 54.6875 
L 9.28125 54.6875 
L 9.28125 70.21875 
z
" id="DejaVuSans-116"/>
      <path d="M 41.109375 46.296875 
Q 39.59375 47.171875 37.8125 47.578125 
Q 36.03125 48 33.890625 48 
Q 26.265625 48 22.1875 43.046875 
Q 18.109375 38.09375 18.109375 28.8125 
L 18.109375 0 
L 9.078125 0 
L 9.078125 54.6875 
L 18.109375 54.6875 
L 18.109375 46.1875 
Q 20.953125 51.171875 25.484375 53.578125 
Q 30.03125 56 36.53125 56 
Q 37.453125 56 38.578125 55.875 
Q 39.703125 55.765625 41.0625 55.515625 
z
" id="DejaVuSans-114"/>
      <path d="M 56.203125 29.59375 
L 56.203125 25.203125 
L 14.890625 25.203125 
Q 15.484375 15.921875 20.484375 11.0625 
Q 25.484375 6.203125 34.421875 6.203125 
Q 39.59375 6.203125 44.453125 7.46875 
Q 49.3125 8.734375 54.109375 11.28125 
L 54.109375 2.78125 
Q 49.265625 0.734375 44.1875 -0.34375 
Q 39.109375 -1.421875 33.890625 -1.421875 
Q 20.796875 -1.421875 13.15625 6.1875 
Q 5.515625 13.8125 5.515625 26.8125 
Q 5.515625 40.234375 12.765625 48.109375 
Q 20.015625 56 32.328125 56 
Q 43.359375 56 49.78125 48.890625 
Q 56.203125 41.796875 56.203125 29.59375 
z
M 47.21875 32.234375 
Q 47.125 39.59375 43.09375 43.984375 
Q 39.0625 48.390625 32.421875 48.390625 
Q 24.90625 48.390625 20.390625 44.140625 
Q 15.875 39.890625 15.1875 32.171875 
z
" id="DejaVuSans-101"/>
      <path d="M 45.40625 46.390625 
L 45.40625 75.984375 
L 54.390625 75.984375 
L 54.390625 0 
L 45.40625 0 
L 45.40625 8.203125 
Q 42.578125 3.328125 38.25 0.953125 
Q 33.9375 -1.421875 27.875 -1.421875 
Q 17.96875 -1.421875 11.734375 6.484375 
Q 5.515625 14.40625 5.515625 27.296875 
Q 5.515625 40.1875 11.734375 48.09375 
Q 17.96875 56 27.875 56 
Q 33.9375 56 38.25 53.625 
Q 42.578125 51.265625 45.40625 46.390625 
z
M 14.796875 27.296875 
Q 14.796875 17.390625 18.875 11.75 
Q 22.953125 6.109375 30.078125 6.109375 
Q 37.203125 6.109375 41.296875 11.75 
Q 45.40625 17.390625 45.40625 27.296875 
Q 45.40625 37.203125 41.296875 42.84375 
Q 37.203125 48.484375 30.078125 48.484375 
Q 22.953125 48.484375 18.875 42.84375 
Q 14.796875 37.203125 14.796875 27.296875 
z
" id="DejaVuSans-100"/>
      <path d="M 18.109375 8.203125 
L 18.109375 -20.796875 
L 9.078125 -20.796875 
L 9.078125 54.6875 
L 18.109375 54.6875 
L 18.109375 46.390625 
Q 20.953125 51.265625 25.265625 53.625 
Q 29.59375 56 35.59375 56 
Q 45.5625 56 51.78125 48.09375 
Q 58.015625 40.1875 58.015625 27.296875 
Q 58.015625 14.40625 51.78125 6.484375 
Q 45.5625 -1.421875 35.59375 -1.421875 
Q 29.59375 -1.421875 25.265625 0.953125 
Q 20.953125 3.328125 18.109375 8.203125 
z
M 48.6875 27.296875 
Q 48.6875 37.203125 44.609375 42.84375 
Q 40.53125 48.484375 33.40625 48.484375 
Q 26.265625 48.484375 22.1875 42.84375 
Q 18.109375 37.203125 18.109375 27.296875 
Q 18.109375 17.390625 22.1875 11.75 
Q 26.265625 6.109375 33.40625 6.109375 
Q 40.53125 6.109375 44.609375 11.75 
Q 48.6875 17.390625 48.6875 27.296875 
z
" id="DejaVuSans-112"/>
      <path d="M 54.890625 33.015625 
L 54.890625 0 
L 45.90625 0 
L 45.90625 32.71875 
Q 45.90625 40.484375 42.875 44.328125 
Q 39.84375 48.1875 33.796875 48.1875 
Q 26.515625 48.1875 22.3125 43.546875 
Q 18.109375 38.921875 18.109375 30.90625 
L 18.109375 0 
L 9.078125 0 
L 9.078125 75.984375 
L 18.109375 75.984375 
L 18.109375 46.1875 
Q 21.34375 51.125 25.703125 53.5625 
Q 30.078125 56 35.796875 56 
Q 45.21875 56 50.046875 50.171875 
Q 54.890625 44.34375 54.890625 33.015625 
z
" id="DejaVuSans-104"/>
     </defs>
     <g transform="translate(221.650781 417.731562)scale(0.14 -0.14)">
      <use xlink:href="#DejaVuSans-77"/>
      <use x="86.279297" xlink:href="#DejaVuSans-97"/>
      <use x="147.558594" xlink:href="#DejaVuSans-120"/>
      <use x="206.738281" xlink:href="#DejaVuSans-105"/>
      <use x="234.521484" xlink:href="#DejaVuSans-109"/>
      <use x="331.933594" xlink:href="#DejaVuSans-117"/>
      <use x="395.3125" xlink:href="#DejaVuSans-109"/>
      <use x="492.724609" xlink:href="#DejaVuSans-32"/>
      <use x="524.511719" xlink:href="#DejaVuSans-116"/>
      <use x="563.720703" xlink:href="#DejaVuSans-114"/>
      <use x="604.802734" xlink:href="#DejaVuSans-101"/>
      <use x="666.326172" xlink:href="#DejaVuSans-101"/>
      <use x="727.849609" xlink:href="#DejaVuSans-32"/>
      <use x="759.636719" xlink:href="#DejaVuSans-100"/>
      <use x="823.113281" xlink:href="#DejaVuSans-101"/>
      <use x="884.636719" xlink:href="#DejaVuSans-112"/>
      <use x="948.113281" xlink:href="#DejaVuSans-116"/>
      <use x="987.322266" xlink:href="#DejaVuSans-104"/>
     </g>
    </g>
   </g>
   <g id="matplotlib.axis_2">
    <g id="ytick_1">
     <g id="line2d_5">
      <defs>
       <path d="M 0 0 
L -3.5 0 
" id="mc3a0f66502" style="stroke:#000000;stroke-width:0.8;"/>
      </defs>
      <g>
       <use style="stroke:#000000;stroke-width:0.8;" x="72" xlink:href="#mc3a0f66502" y="384.48"/>
      </g>
     </g>
     <g id="text_6">
      <!-- 0 -->
      <defs>
       <path d="M 31.78125 66.40625 
Q 24.171875 66.40625 20.328125 58.90625 
Q 16.5 51.421875 16.5 36.375 
Q 16.5 21.390625 20.328125 13.890625 
Q 24.171875 6.390625 31.78125 6.390625 
Q 39.453125 6.390625 43.28125 13.890625 
Q 47.125 21.390625 47.125 36.375 
Q 47.125 51.421875 43.28125 58.90625 
Q 39.453125 66.40625 31.78125 66.40625 
z
M 31.78125 74.21875 
Q 44.046875 74.21875 50.515625 64.515625 
Q 56.984375 54.828125 56.984375 36.375 
Q 56.984375 17.96875 50.515625 8.265625 
Q 44.046875 -1.421875 31.78125 -1.421875 
Q 19.53125 -1.421875 13.0625 8.265625 
Q 6.59375 17.96875 6.59375 36.375 
Q 6.59375 54.828125 13.0625 64.515625 
Q 19.53125 74.21875 31.78125 74.21875 
z
" id="DejaVuSans-48"/>
      </defs>
      <g transform="translate(57.365 389.039062)scale(0.12 -0.12)">
       <use xlink:href="#DejaVuSans-48"/>
      </g>
     </g>
    </g>
    <g id="ytick_2">
     <g id="line2d_6">
      <g>
       <use style="stroke:#000000;stroke-width:0.8;" x="72" xlink:href="#mc3a0f66502" y="317.952"/>
      </g>
     </g>
     <g id="text_7">
      <!-- 1 -->
      <defs>
       <path d="M 12.40625 8.296875 
L 28.515625 8.296875 
L 28.515625 63.921875 
L 10.984375 60.40625 
L 10.984375 69.390625 
L 28.421875 72.90625 
L 38.28125 72.90625 
L 38.28125 8.296875 
L 54.390625 8.296875 
L 54.390625 0 
L 12.40625 0 
z
" id="DejaVuSans-49"/>
      </defs>
      <g transform="translate(57.365 322.511062)scale(0.12 -0.12)">
       <use xlink:href="#DejaVuSans-49"/>
      </g>
     </g>
    </g>
    <g id="ytick_3">
     <g id="line2d_7">
      <g>
       <use style="stroke:#000000;stroke-width:0.8;" x="72" xlink:href="#mc3a0f66502" y="251.424"/>
      </g>
     </g>
     <g id="text_8">
      <!-- 2 -->
      <defs>
       <path d="M 19.1875 8.296875 
L 53.609375 8.296875 
L 53.609375 0 
L 7.328125 0 
L 7.328125 8.296875 
Q 12.9375 14.109375 22.625 23.890625 
Q 32.328125 33.6875 34.8125 36.53125 
Q 39.546875 41.84375 41.421875 45.53125 
Q 43.3125 49.21875 43.3125 52.78125 
Q 43.3125 58.59375 39.234375 62.25 
Q 35.15625 65.921875 28.609375 65.921875 
Q 23.96875 65.921875 18.8125 64.3125 
Q 13.671875 62.703125 7.8125 59.421875 
L 7.8125 69.390625 
Q 13.765625 71.78125 18.9375 73 
Q 24.125 74.21875 28.421875 74.21875 
Q 39.75 74.21875 46.484375 68.546875 
Q 53.21875 62.890625 53.21875 53.421875 
Q 53.21875 48.921875 51.53125 44.890625 
Q 49.859375 40.875 45.40625 35.40625 
Q 44.1875 33.984375 37.640625 27.21875 
Q 31.109375 20.453125 19.1875 8.296875 
z
" id="DejaVuSans-50"/>
      </defs>
      <g transform="translate(57.365 255.983062)scale(0.12 -0.12)">
       <use xlink:href="#DejaVuSans-50"/>
      </g>
     </g>
    </g>
    <g id="ytick_4">
     <g id="line2d_8">
      <g>
       <use style="stroke:#000000;stroke-width:0.8;" x="72" xlink:href="#mc3a0f66502" y="184.896"/>
      </g>
     </g>
     <g id="text_9">
      <!-- 3 -->
      <g transform="translate(57.365 189.455063)scale(0.12 -0.12)">
       <use xlink:href="#DejaVuSans-51"/>
      </g>
     </g>
    </g>
    <g id="ytick_5">
     <g id="line2d_9">
      <g>
       <use style="stroke:#000000;stroke-width:0.8;" x="72" xlink:href="#mc3a0f66502" y="118.368"/>
      </g>
     </g>
     <g id="text_10">
      <!-- 4 -->
      <defs>
       <path d="M 37.796875 64.3125 
L 12.890625 25.390625 
L 37.796875 25.390625 
z
M 35.203125 72.90625 
L 47.609375 72.90625 
L 47.609375 25.390625 
L 58.015625 25.390625 
L 58.015625 17.1875 
L 47.609375 17.1875 
L 47.609375 0 
L 37.796875 0 
L 37.796875 17.1875 
L 4.890625 17.1875 
L 4.890625 26.703125 
z
" id="DejaVuSans-52"/>
      </defs>
      <g transform="translate(57.365 122.927062)scale(0.12 -0.12)">
       <use xlink:href="#DejaVuSans-52"/>
      </g>
     </g>
    </g>
    <g id="ytick_6">
     <g id="line2d_10">
      <g>
       <use style="stroke:#000000;stroke-width:0.8;" x="72" xlink:href="#mc3a0f66502" y="51.84"/>
      </g>
     </g>
     <g id="text_11">
      <!-- 5 -->
      <g transform="translate(57.365 56.399062)scale(0.12 -0.12)">
       <use xlink:href="#DejaVuSans-53"/>
      </g>
     </g>
    </g>
    <g id="text_12">
     <!-- Minimum child weight -->
     <defs>
      <path d="M 54.890625 33.015625 
L 54.890625 0 
L 45.90625 0 
L 45.90625 32.71875 
Q 45.90625 40.484375 42.875 44.328125 
Q 39.84375 48.1875 33.796875 48.1875 
Q 26.515625 48.1875 22.3125 43.546875 
Q 18.109375 38.921875 18.109375 30.90625 
L 18.109375 0 
L 9.078125 0 
L 9.078125 54.6875 
L 18.109375 54.6875 
L 18.109375 46.1875 
Q 21.34375 51.125 25.703125 53.5625 
Q 30.078125 56 35.796875 56 
Q 45.21875 56 50.046875 50.171875 
Q 54.890625 44.34375 54.890625 33.015625 
z
" id="DejaVuSans-110"/>
      <path d="M 48.78125 52.59375 
L 48.78125 44.1875 
Q 44.96875 46.296875 41.140625 47.34375 
Q 37.3125 48.390625 33.40625 48.390625 
Q 24.65625 48.390625 19.8125 42.84375 
Q 14.984375 37.3125 14.984375 27.296875 
Q 14.984375 17.28125 19.8125 11.734375 
Q 24.65625 6.203125 33.40625 6.203125 
Q 37.3125 6.203125 41.140625 7.25 
Q 44.96875 8.296875 48.78125 10.40625 
L 48.78125 2.09375 
Q 45.015625 0.34375 40.984375 -0.53125 
Q 36.96875 -1.421875 32.421875 -1.421875 
Q 20.0625 -1.421875 12.78125 6.34375 
Q 5.515625 14.109375 5.515625 27.296875 
Q 5.515625 40.671875 12.859375 48.328125 
Q 20.21875 56 33.015625 56 
Q 37.15625 56 41.109375 55.140625 
Q 45.0625 54.296875 48.78125 52.59375 
z
" id="DejaVuSans-99"/>
      <path d="M 9.421875 75.984375 
L 18.40625 75.984375 
L 18.40625 0 
L 9.421875 0 
z
" id="DejaVuSans-108"/>
      <path d="M 4.203125 54.6875 
L 13.1875 54.6875 
L 24.421875 12.015625 
L 35.59375 54.6875 
L 46.1875 54.6875 
L 57.421875 12.015625 
L 68.609375 54.6875 
L 77.59375 54.6875 
L 63.28125 0 
L 52.6875 0 
L 40.921875 44.828125 
L 29.109375 0 
L 18.5 0 
z
" id="DejaVuSans-119"/>
      <path d="M 45.40625 27.984375 
Q 45.40625 37.75 41.375 43.109375 
Q 37.359375 48.484375 30.078125 48.484375 
Q 22.859375 48.484375 18.828125 43.109375 
Q 14.796875 37.75 14.796875 27.984375 
Q 14.796875 18.265625 18.828125 12.890625 
Q 22.859375 7.515625 30.078125 7.515625 
Q 37.359375 7.515625 41.375 12.890625 
Q 45.40625 18.265625 45.40625 27.984375 
z
M 54.390625 6.78125 
Q 54.390625 -7.171875 48.1875 -13.984375 
Q 42 -20.796875 29.203125 -20.796875 
Q 24.46875 -20.796875 20.265625 -20.09375 
Q 16.0625 -19.390625 12.109375 -17.921875 
L 12.109375 -9.1875 
Q 16.0625 -11.328125 19.921875 -12.34375 
Q 23.78125 -13.375 27.78125 -13.375 
Q 36.625 -13.375 41.015625 -8.765625 
Q 45.40625 -4.15625 45.40625 5.171875 
L 45.40625 9.625 
Q 42.625 4.78125 38.28125 2.390625 
Q 33.9375 0 27.875 0 
Q 17.828125 0 11.671875 7.65625 
Q 5.515625 15.328125 5.515625 27.984375 
Q 5.515625 40.671875 11.671875 48.328125 
Q 17.828125 56 27.875 56 
Q 33.9375 56 38.28125 53.609375 
Q 42.625 51.21875 45.40625 46.390625 
L 45.40625 54.6875 
L 54.390625 54.6875 
z
" id="DejaVuSans-103"/>
     </defs>
     <g transform="translate(50.453437 295.267187)rotate(-90)scale(0.14 -0.14)">
      <use xlink:href="#DejaVuSans-77"/>
      <use x="86.279297" xlink:href="#DejaVuSans-105"/>
      <use x="114.0625" xlink:href="#DejaVuSans-110"/>
      <use x="177.441406" xlink:href="#DejaVuSans-105"/>
      <use x="205.224609" xlink:href="#DejaVuSans-109"/>
      <use x="302.636719" xlink:href="#DejaVuSans-117"/>
      <use x="366.015625" xlink:href="#DejaVuSans-109"/>
      <use x="463.427734" xlink:href="#DejaVuSans-32"/>
      <use x="495.214844" xlink:href="#DejaVuSans-99"/>
      <use x="550.195312" xlink:href="#DejaVuSans-104"/>
      <use x="613.574219" xlink:href="#DejaVuSans-105"/>
      <use x="641.357422" xlink:href="#DejaVuSans-108"/>
      <use x="669.140625" xlink:href="#DejaVuSans-100"/>
      <use x="732.617188" xlink:href="#DejaVuSans-32"/>
      <use x="764.404297" xlink:href="#DejaVuSans-119"/>
      <use x="846.191406" xlink:href="#DejaVuSans-101"/>
      <use x="907.714844" xlink:href="#DejaVuSans-105"/>
      <use x="935.498047" xlink:href="#DejaVuSans-103"/>
      <use x="998.974609" xlink:href="#DejaVuSans-104"/>
      <use x="1062.353516" xlink:href="#DejaVuSans-116"/>
     </g>
    </g>
   </g>
   <g id="patch_3">
    <path d="M 72 384.48 
L 72 51.84 
" style="fill:none;stroke:#000000;stroke-linecap:square;stroke-linejoin:miter;stroke-width:0.8;"/>
   </g>
   <g id="patch_4">
    <path d="M 518.4 384.48 
L 518.4 51.84 
" style="fill:none;stroke:#000000;stroke-linecap:square;stroke-linejoin:miter;stroke-width:0.8;"/>
   </g>
   <g id="patch_5">
    <path d="M 72 384.48 
L 518.4 384.48 
" style="fill:none;stroke:#000000;stroke-linecap:square;stroke-linejoin:miter;stroke-width:0.8;"/>
   </g>
   <g id="patch_6">
    <path d="M 72 51.84 
L 518.4 51.84 
" style="fill:none;stroke:#000000;stroke-linecap:square;stroke-linejoin:miter;stroke-width:0.8;"/>
   </g>
  </g>
 </g>
 <defs>
  <clipPath id="pd7a1daa3a1">
   <rect height="332.64" width="446.4" x="72" y="51.84"/>
  </clipPath>
 </defs>
</svg>
