<?xml version="1.0" encoding="utf-8" standalone="no"?>
<!DOCTYPE svg PUBLIC "-//W3C//DTD SVG 1.1//EN"
  "http://www.w3.org/Graphics/SVG/1.1/DTD/svg11.dtd">
<!-- Created with matplotlib (https://matplotlib.org/) -->
<svg height="432pt" version="1.1" viewBox="0 0 576 432" width="576pt" xmlns="http://www.w3.org/2000/svg" xmlns:xlink="http://www.w3.org/1999/xlink">
 <defs>
  <style type="text/css">
*{stroke-linecap:butt;stroke-linejoin:round;}
  </style>
 </defs>
 <g id="figure_1">
  <g id="patch_1">
   <path d="M 0 432 
L 576 432 
L 576 0 
L 0 0 
z
" style="fill:#ffffff;"/>
  </g>
  <g id="axes_1">
   <g id="patch_2">
    <path d="M 72 384.48 
L 518.4 384.48 
L 518.4 51.84 
L 72 51.84 
z
" style="fill:#ffffff;"/>
   </g>
   <g id="matplotlib.axis_1">
    <g id="xtick_1">
     <g id="line2d_1">
      <defs>
       <path d="M 0 0 
L 0 3.5 
" id="m96f051680e" style="stroke:#000000;stroke-width:0.8;"/>
      </defs>
      <g>
       <use style="stroke:#000000;stroke-width:0.8;" x="99.638274" xlink:href="#m96f051680e" y="384.48"/>
      </g>
     </g>
     <g id="text_1">
      <!-- 50 -->
      <defs>
       <path d="M 10.796875 72.90625 
L 49.515625 72.90625 
L 49.515625 64.59375 
L 19.828125 64.59375 
L 19.828125 46.734375 
Q 21.96875 47.46875 24.109375 47.828125 
Q 26.265625 48.1875 28.421875 48.1875 
Q 40.625 48.1875 47.75 41.5 
Q 54.890625 34.8125 54.890625 23.390625 
Q 54.890625 11.625 47.5625 5.09375 
Q 40.234375 -1.421875 26.90625 -1.421875 
Q 22.3125 -1.421875 17.546875 -0.640625 
Q 12.796875 0.140625 7.71875 1.703125 
L 7.71875 11.625 
Q 12.109375 9.234375 16.796875 8.0625 
Q 21.484375 6.890625 26.703125 6.890625 
Q 35.15625 6.890625 40.078125 11.328125 
Q 45.015625 15.765625 45.015625 23.390625 
Q 45.015625 31 40.078125 35.4375 
Q 35.15625 39.890625 26.703125 39.890625 
Q 22.75 39.890625 18.8125 39.015625 
Q 14.890625 38.140625 10.796875 36.28125 
z
" id="DejaVuSans-53"/>
       <path d="M 31.78125 66.40625 
Q 24.171875 66.40625 20.328125 58.90625 
Q 16.5 51.421875 16.5 36.375 
Q 16.5 21.390625 20.328125 13.890625 
Q 24.171875 6.390625 31.78125 6.390625 
Q 39.453125 6.390625 43.28125 13.890625 
Q 47.125 21.390625 47.125 36.375 
Q 47.125 51.421875 43.28125 58.90625 
Q 39.453125 66.40625 31.78125 66.40625 
z
M 31.78125 74.21875 
Q 44.046875 74.21875 50.515625 64.515625 
Q 56.984375 54.828125 56.984375 36.375 
Q 56.984375 17.96875 50.515625 8.265625 
Q 44.046875 -1.421875 31.78125 -1.421875 
Q 19.53125 -1.421875 13.0625 8.265625 
Q 6.59375 17.96875 6.59375 36.375 
Q 6.59375 54.828125 13.0625 64.515625 
Q 19.53125 74.21875 31.78125 74.21875 
z
" id="DejaVuSans-48"/>
      </defs>
      <g transform="translate(92.003274 400.598125)scale(0.12 -0.12)">
       <use xlink:href="#DejaVuSans-53"/>
       <use x="63.623047" xlink:href="#DejaVuSans-48"/>
      </g>
     </g>
    </g>
    <g id="xtick_2">
     <g id="line2d_2">
      <g>
       <use style="stroke:#000000;stroke-width:0.8;" x="204.328705" xlink:href="#m96f051680e" y="384.48"/>
      </g>
     </g>
     <g id="text_2">
      <!-- 100 -->
      <defs>
       <path d="M 12.40625 8.296875 
L 28.515625 8.296875 
L 28.515625 63.921875 
L 10.984375 60.40625 
L 10.984375 69.390625 
L 28.421875 72.90625 
L 38.28125 72.90625 
L 38.28125 8.296875 
L 54.390625 8.296875 
L 54.390625 0 
L 12.40625 0 
z
" id="DejaVuSans-49"/>
      </defs>
      <g transform="translate(192.876205 400.598125)scale(0.12 -0.12)">
       <use xlink:href="#DejaVuSans-49"/>
       <use x="63.623047" xlink:href="#DejaVuSans-48"/>
       <use x="127.246094" xlink:href="#DejaVuSans-48"/>
      </g>
     </g>
    </g>
    <g id="xtick_3">
     <g id="line2d_3">
      <g>
       <use style="stroke:#000000;stroke-width:0.8;" x="309.019137" xlink:href="#m96f051680e" y="384.48"/>
      </g>
     </g>
     <g id="text_3">
      <!-- 150 -->
      <g transform="translate(297.566637 400.598125)scale(0.12 -0.12)">
       <use xlink:href="#DejaVuSans-49"/>
       <use x="63.623047" xlink:href="#DejaVuSans-53"/>
       <use x="127.246094" xlink:href="#DejaVuSans-48"/>
      </g>
     </g>
    </g>
    <g id="xtick_4">
     <g id="line2d_4">
      <g>
       <use style="stroke:#000000;stroke-width:0.8;" x="413.709568" xlink:href="#m96f051680e" y="384.48"/>
      </g>
     </g>
     <g id="text_4">
      <!-- 200 -->
      <defs>
       <path d="M 19.1875 8.296875 
L 53.609375 8.296875 
L 53.609375 0 
L 7.328125 0 
L 7.328125 8.296875 
Q 12.9375 14.109375 22.625 23.890625 
Q 32.328125 33.6875 34.8125 36.53125 
Q 39.546875 41.84375 41.421875 45.53125 
Q 43.3125 49.21875 43.3125 52.78125 
Q 43.3125 58.59375 39.234375 62.25 
Q 35.15625 65.921875 28.609375 65.921875 
Q 23.96875 65.921875 18.8125 64.3125 
Q 13.671875 62.703125 7.8125 59.421875 
L 7.8125 69.390625 
Q 13.765625 71.78125 18.9375 73 
Q 24.125 74.21875 28.421875 74.21875 
Q 39.75 74.21875 46.484375 68.546875 
Q 53.21875 62.890625 53.21875 53.421875 
Q 53.21875 48.921875 51.53125 44.890625 
Q 49.859375 40.875 45.40625 35.40625 
Q 44.1875 33.984375 37.640625 27.21875 
Q 31.109375 20.453125 19.1875 8.296875 
z
" id="DejaVuSans-50"/>
      </defs>
      <g transform="translate(402.257068 400.598125)scale(0.12 -0.12)">
       <use xlink:href="#DejaVuSans-50"/>
       <use x="63.623047" xlink:href="#DejaVuSans-48"/>
       <use x="127.246094" xlink:href="#DejaVuSans-48"/>
      </g>
     </g>
    </g>
    <g id="xtick_5">
     <g id="line2d_5">
      <g>
       <use style="stroke:#000000;stroke-width:0.8;" x="518.4" xlink:href="#m96f051680e" y="384.48"/>
      </g>
     </g>
     <g id="text_5">
      <!-- 250 -->
      <g transform="translate(506.9475 400.598125)scale(0.12 -0.12)">
       <use xlink:href="#DejaVuSans-50"/>
       <use x="63.623047" xlink:href="#DejaVuSans-53"/>
       <use x="127.246094" xlink:href="#DejaVuSans-48"/>
      </g>
     </g>
    </g>
    <g id="text_6">
     <!-- Horsepower -->
     <defs>
      <path d="M 9.8125 72.90625 
L 19.671875 72.90625 
L 19.671875 43.015625 
L 55.515625 43.015625 
L 55.515625 72.90625 
L 65.375 72.90625 
L 65.375 0 
L 55.515625 0 
L 55.515625 34.71875 
L 19.671875 34.71875 
L 19.671875 0 
L 9.8125 0 
z
" id="DejaVuSans-72"/>
      <path d="M 30.609375 48.390625 
Q 23.390625 48.390625 19.1875 42.75 
Q 14.984375 37.109375 14.984375 27.296875 
Q 14.984375 17.484375 19.15625 11.84375 
Q 23.34375 6.203125 30.609375 6.203125 
Q 37.796875 6.203125 41.984375 11.859375 
Q 46.1875 17.53125 46.1875 27.296875 
Q 46.1875 37.015625 41.984375 42.703125 
Q 37.796875 48.390625 30.609375 48.390625 
z
M 30.609375 56 
Q 42.328125 56 49.015625 48.375 
Q 55.71875 40.765625 55.71875 27.296875 
Q 55.71875 13.875 49.015625 6.21875 
Q 42.328125 -1.421875 30.609375 -1.421875 
Q 18.84375 -1.421875 12.171875 6.21875 
Q 5.515625 13.875 5.515625 27.296875 
Q 5.515625 40.765625 12.171875 48.375 
Q 18.84375 56 30.609375 56 
z
" id="DejaVuSans-111"/>
      <path d="M 41.109375 46.296875 
Q 39.59375 47.171875 37.8125 47.578125 
Q 36.03125 48 33.890625 48 
Q 26.265625 48 22.1875 43.046875 
Q 18.109375 38.09375 18.109375 28.8125 
L 18.109375 0 
L 9.078125 0 
L 9.078125 54.6875 
L 18.109375 54.6875 
L 18.109375 46.1875 
Q 20.953125 51.171875 25.484375 53.578125 
Q 30.03125 56 36.53125 56 
Q 37.453125 56 38.578125 55.875 
Q 39.703125 55.765625 41.0625 55.515625 
z
" id="DejaVuSans-114"/>
      <path d="M 44.28125 53.078125 
L 44.28125 44.578125 
Q 40.484375 46.53125 36.375 47.5 
Q 32.28125 48.484375 27.875 48.484375 
Q 21.1875 48.484375 17.84375 46.4375 
Q 14.5 44.390625 14.5 40.28125 
Q 14.5 37.15625 16.890625 35.375 
Q 19.28125 33.59375 26.515625 31.984375 
L 29.59375 31.296875 
Q 39.15625 29.25 43.1875 25.515625 
Q 47.21875 21.78125 47.21875 15.09375 
Q 47.21875 7.46875 41.1875 3.015625 
Q 35.15625 -1.421875 24.609375 -1.421875 
Q 20.21875 -1.421875 15.453125 -0.5625 
Q 10.6875 0.296875 5.421875 2 
L 5.421875 11.28125 
Q 10.40625 8.6875 15.234375 7.390625 
Q 20.0625 6.109375 24.8125 6.109375 
Q 31.15625 6.109375 34.5625 8.28125 
Q 37.984375 10.453125 37.984375 14.40625 
Q 37.984375 18.0625 35.515625 20.015625 
Q 33.0625 21.96875 24.703125 23.78125 
L 21.578125 24.515625 
Q 13.234375 26.265625 9.515625 29.90625 
Q 5.8125 33.546875 5.8125 39.890625 
Q 5.8125 47.609375 11.28125 51.796875 
Q 16.75 56 26.8125 56 
Q 31.78125 56 36.171875 55.265625 
Q 40.578125 54.546875 44.28125 53.078125 
z
" id="DejaVuSans-115"/>
      <path d="M 56.203125 29.59375 
L 56.203125 25.203125 
L 14.890625 25.203125 
Q 15.484375 15.921875 20.484375 11.0625 
Q 25.484375 6.203125 34.421875 6.203125 
Q 39.59375 6.203125 44.453125 7.46875 
Q 49.3125 8.734375 54.109375 11.28125 
L 54.109375 2.78125 
Q 49.265625 0.734375 44.1875 -0.34375 
Q 39.109375 -1.421875 33.890625 -1.421875 
Q 20.796875 -1.421875 13.15625 6.1875 
Q 5.515625 13.8125 5.515625 26.8125 
Q 5.515625 40.234375 12.765625 48.109375 
Q 20.015625 56 32.328125 56 
Q 43.359375 56 49.78125 48.890625 
Q 56.203125 41.796875 56.203125 29.59375 
z
M 47.21875 32.234375 
Q 47.125 39.59375 43.09375 43.984375 
Q 39.0625 48.390625 32.421875 48.390625 
Q 24.90625 48.390625 20.390625 44.140625 
Q 15.875 39.890625 15.1875 32.171875 
z
" id="DejaVuSans-101"/>
      <path d="M 18.109375 8.203125 
L 18.109375 -20.796875 
L 9.078125 -20.796875 
L 9.078125 54.6875 
L 18.109375 54.6875 
L 18.109375 46.390625 
Q 20.953125 51.265625 25.265625 53.625 
Q 29.59375 56 35.59375 56 
Q 45.5625 56 51.78125 48.09375 
Q 58.015625 40.1875 58.015625 27.296875 
Q 58.015625 14.40625 51.78125 6.484375 
Q 45.5625 -1.421875 35.59375 -1.421875 
Q 29.59375 -1.421875 25.265625 0.953125 
Q 20.953125 3.328125 18.109375 8.203125 
z
M 48.6875 27.296875 
Q 48.6875 37.203125 44.609375 42.84375 
Q 40.53125 48.484375 33.40625 48.484375 
Q 26.265625 48.484375 22.1875 42.84375 
Q 18.109375 37.203125 18.109375 27.296875 
Q 18.109375 17.390625 22.1875 11.75 
Q 26.265625 6.109375 33.40625 6.109375 
Q 40.53125 6.109375 44.609375 11.75 
Q 48.6875 17.390625 48.6875 27.296875 
z
" id="DejaVuSans-112"/>
      <path d="M 4.203125 54.6875 
L 13.1875 54.6875 
L 24.421875 12.015625 
L 35.59375 54.6875 
L 46.1875 54.6875 
L 57.421875 12.015625 
L 68.609375 54.6875 
L 77.59375 54.6875 
L 63.28125 0 
L 52.6875 0 
L 40.921875 44.828125 
L 29.109375 0 
L 18.5 0 
z
" id="DejaVuSans-119"/>
     </defs>
     <g transform="translate(253.184687 417.731562)scale(0.14 -0.14)">
      <use xlink:href="#DejaVuSans-72"/>
      <use x="75.195312" xlink:href="#DejaVuSans-111"/>
      <use x="136.376953" xlink:href="#DejaVuSans-114"/>
      <use x="177.490234" xlink:href="#DejaVuSans-115"/>
      <use x="229.589844" xlink:href="#DejaVuSans-101"/>
      <use x="291.113281" xlink:href="#DejaVuSans-112"/>
      <use x="354.589844" xlink:href="#DejaVuSans-111"/>
      <use x="415.771484" xlink:href="#DejaVuSans-119"/>
      <use x="497.558594" xlink:href="#DejaVuSans-101"/>
      <use x="559.082031" xlink:href="#DejaVuSans-114"/>
     </g>
    </g>
   </g>
   <g id="matplotlib.axis_2">
    <g id="ytick_1">
     <g id="line2d_6">
      <defs>
       <path d="M 0 0 
L -3.5 0 
" id="mdd4dc08d9f" style="stroke:#000000;stroke-width:0.8;"/>
      </defs>
      <g>
       <use style="stroke:#000000;stroke-width:0.8;" x="72" xlink:href="#mdd4dc08d9f" y="340.693972"/>
      </g>
     </g>
     <g id="text_7">
      <!-- 10 -->
      <g transform="translate(49.73 345.253035)scale(0.12 -0.12)">
       <use xlink:href="#DejaVuSans-49"/>
       <use x="63.623047" xlink:href="#DejaVuSans-48"/>
      </g>
     </g>
    </g>
    <g id="ytick_2">
     <g id="line2d_7">
      <g>
       <use style="stroke:#000000;stroke-width:0.8;" x="72" xlink:href="#mdd4dc08d9f" y="268.480479"/>
      </g>
     </g>
     <g id="text_8">
      <!-- 20 -->
      <g transform="translate(49.73 273.039542)scale(0.12 -0.12)">
       <use xlink:href="#DejaVuSans-50"/>
       <use x="63.623047" xlink:href="#DejaVuSans-48"/>
      </g>
     </g>
    </g>
    <g id="ytick_3">
     <g id="line2d_8">
      <g>
       <use style="stroke:#000000;stroke-width:0.8;" x="72" xlink:href="#mdd4dc08d9f" y="196.266986"/>
      </g>
     </g>
     <g id="text_9">
      <!-- 30 -->
      <defs>
       <path d="M 40.578125 39.3125 
Q 47.65625 37.796875 51.625 33 
Q 55.609375 28.21875 55.609375 21.1875 
Q 55.609375 10.40625 48.1875 4.484375 
Q 40.765625 -1.421875 27.09375 -1.421875 
Q 22.515625 -1.421875 17.65625 -0.515625 
Q 12.796875 0.390625 7.625 2.203125 
L 7.625 11.71875 
Q 11.71875 9.328125 16.59375 8.109375 
Q 21.484375 6.890625 26.8125 6.890625 
Q 36.078125 6.890625 40.9375 10.546875 
Q 45.796875 14.203125 45.796875 21.1875 
Q 45.796875 27.640625 41.28125 31.265625 
Q 36.765625 34.90625 28.71875 34.90625 
L 20.21875 34.90625 
L 20.21875 43.015625 
L 29.109375 43.015625 
Q 36.375 43.015625 40.234375 45.921875 
Q 44.09375 48.828125 44.09375 54.296875 
Q 44.09375 59.90625 40.109375 62.90625 
Q 36.140625 65.921875 28.71875 65.921875 
Q 24.65625 65.921875 20.015625 65.03125 
Q 15.375 64.15625 9.8125 62.3125 
L 9.8125 71.09375 
Q 15.4375 72.65625 20.34375 73.4375 
Q 25.25 74.21875 29.59375 74.21875 
Q 40.828125 74.21875 47.359375 69.109375 
Q 53.90625 64.015625 53.90625 55.328125 
Q 53.90625 49.265625 50.4375 45.09375 
Q 46.96875 40.921875 40.578125 39.3125 
z
" id="DejaVuSans-51"/>
      </defs>
      <g transform="translate(49.73 200.826049)scale(0.12 -0.12)">
       <use xlink:href="#DejaVuSans-51"/>
       <use x="63.623047" xlink:href="#DejaVuSans-48"/>
      </g>
     </g>
    </g>
    <g id="ytick_4">
     <g id="line2d_9">
      <g>
       <use style="stroke:#000000;stroke-width:0.8;" x="72" xlink:href="#mdd4dc08d9f" y="124.053493"/>
      </g>
     </g>
     <g id="text_10">
      <!-- 40 -->
      <defs>
       <path d="M 37.796875 64.3125 
L 12.890625 25.390625 
L 37.796875 25.390625 
z
M 35.203125 72.90625 
L 47.609375 72.90625 
L 47.609375 25.390625 
L 58.015625 25.390625 
L 58.015625 17.1875 
L 47.609375 17.1875 
L 47.609375 0 
L 37.796875 0 
L 37.796875 17.1875 
L 4.890625 17.1875 
L 4.890625 26.703125 
z
" id="DejaVuSans-52"/>
      </defs>
      <g transform="translate(49.73 128.612556)scale(0.12 -0.12)">
       <use xlink:href="#DejaVuSans-52"/>
       <use x="63.623047" xlink:href="#DejaVuSans-48"/>
      </g>
     </g>
    </g>
    <g id="ytick_5">
     <g id="line2d_10">
      <g>
       <use style="stroke:#000000;stroke-width:0.8;" x="72" xlink:href="#mdd4dc08d9f" y="51.84"/>
      </g>
     </g>
     <g id="text_11">
      <!-- 50 -->
      <g transform="translate(49.73 56.399062)scale(0.12 -0.12)">
       <use xlink:href="#DejaVuSans-53"/>
       <use x="63.623047" xlink:href="#DejaVuSans-48"/>
      </g>
     </g>
    </g>
    <g id="text_12">
     <!-- MPG -->
     <defs>
      <path d="M 9.8125 72.90625 
L 24.515625 72.90625 
L 43.109375 23.296875 
L 61.8125 72.90625 
L 76.515625 72.90625 
L 76.515625 0 
L 66.890625 0 
L 66.890625 64.015625 
L 48.09375 14.015625 
L 38.1875 14.015625 
L 19.390625 64.015625 
L 19.390625 0 
L 9.8125 0 
z
" id="DejaVuSans-77"/>
      <path d="M 19.671875 64.796875 
L 19.671875 37.40625 
L 32.078125 37.40625 
Q 38.96875 37.40625 42.71875 40.96875 
Q 46.484375 44.53125 46.484375 51.125 
Q 46.484375 57.671875 42.71875 61.234375 
Q 38.96875 64.796875 32.078125 64.796875 
z
M 9.8125 72.90625 
L 32.078125 72.90625 
Q 44.34375 72.90625 50.609375 67.359375 
Q 56.890625 61.8125 56.890625 51.125 
Q 56.890625 40.328125 50.609375 34.8125 
Q 44.34375 29.296875 32.078125 29.296875 
L 19.671875 29.296875 
L 19.671875 0 
L 9.8125 0 
z
" id="DejaVuSans-80"/>
      <path d="M 59.515625 10.40625 
L 59.515625 29.984375 
L 43.40625 29.984375 
L 43.40625 38.09375 
L 69.28125 38.09375 
L 69.28125 6.78125 
Q 63.578125 2.734375 56.6875 0.65625 
Q 49.8125 -1.421875 42 -1.421875 
Q 24.90625 -1.421875 15.25 8.5625 
Q 5.609375 18.5625 5.609375 36.375 
Q 5.609375 54.25 15.25 64.234375 
Q 24.90625 74.21875 42 74.21875 
Q 49.125 74.21875 55.546875 72.453125 
Q 61.96875 70.703125 67.390625 67.28125 
L 67.390625 56.78125 
Q 61.921875 61.421875 55.765625 63.765625 
Q 49.609375 66.109375 42.828125 66.109375 
Q 29.4375 66.109375 22.71875 58.640625 
Q 16.015625 51.171875 16.015625 36.375 
Q 16.015625 21.625 22.71875 14.15625 
Q 29.4375 6.6875 42.828125 6.6875 
Q 48.046875 6.6875 52.140625 7.59375 
Q 56.25 8.5 59.515625 10.40625 
z
" id="DejaVuSans-71"/>
     </defs>
     <g transform="translate(42.818438 233.844375)rotate(-90)scale(0.14 -0.14)">
      <use xlink:href="#DejaVuSans-77"/>
      <use x="86.279297" xlink:href="#DejaVuSans-80"/>
      <use x="146.582031" xlink:href="#DejaVuSans-71"/>
     </g>
    </g>
   </g>
   <g id="line2d_11">
    <defs>
     <path d="M 0 3 
C 0.795609 3 1.55874 2.683901 2.12132 2.12132 
C 2.683901 1.55874 3 0.795609 3 0 
C 3 -0.795609 2.683901 -1.55874 2.12132 -2.12132 
C 1.55874 -2.683901 0.795609 -3 0 -3 
C -0.795609 -3 -1.55874 -2.683901 -2.12132 -2.12132 
C -2.683901 -1.55874 -3 -0.795609 -3 0 
C -3 0.795609 -2.683901 1.55874 -2.12132 2.12132 
C -1.55874 2.683901 -0.795609 3 0 3 
z
" id="mef33246b07" style="stroke:#1f77b4;"/>
    </defs>
    <g clip-path="url(#p7fdcd25aec)">
     <use style="fill:#1f77b4;stroke:#1f77b4;" x="267.142964" xlink:href="#mef33246b07" y="282.923178"/>
     <use style="fill:#1f77b4;stroke:#1f77b4;" x="340.426266" xlink:href="#mef33246b07" y="304.587226"/>
     <use style="fill:#1f77b4;stroke:#1f77b4;" x="309.019137" xlink:href="#mef33246b07" y="282.923178"/>
     <use style="fill:#1f77b4;stroke:#1f77b4;" x="309.019137" xlink:href="#mef33246b07" y="297.365877"/>
     <use style="fill:#1f77b4;stroke:#1f77b4;" x="288.081051" xlink:href="#mef33246b07" y="290.144527"/>
     <use style="fill:#1f77b4;stroke:#1f77b4;" x="409.521951" xlink:href="#mef33246b07" y="304.587226"/>
     <use style="fill:#1f77b4;stroke:#1f77b4;" x="455.585741" xlink:href="#mef33246b07" y="311.808575"/>
     <use style="fill:#1f77b4;stroke:#1f77b4;" x="445.116698" xlink:href="#mef33246b07" y="311.808575"/>
     <use style="fill:#1f77b4;stroke:#1f77b4;" x="466.054784" xlink:href="#mef33246b07" y="311.808575"/>
     <use style="fill:#1f77b4;stroke:#1f77b4;" x="392.771482" xlink:href="#mef33246b07" y="304.587226"/>
     <use style="fill:#1f77b4;stroke:#1f77b4;" x="350.89531" xlink:href="#mef33246b07" y="304.587226"/>
     <use style="fill:#1f77b4;stroke:#1f77b4;" x="329.957223" xlink:href="#mef33246b07" y="311.808575"/>
     <use style="fill:#1f77b4;stroke:#1f77b4;" x="309.019137" xlink:href="#mef33246b07" y="304.587226"/>
     <use style="fill:#1f77b4;stroke:#1f77b4;" x="466.054784" xlink:href="#mef33246b07" y="311.808575"/>
     <use style="fill:#1f77b4;stroke:#1f77b4;" x="193.859662" xlink:href="#mef33246b07" y="239.595082"/>
     <use style="fill:#1f77b4;stroke:#1f77b4;" x="193.859662" xlink:href="#mef33246b07" y="254.037781"/>
     <use style="fill:#1f77b4;stroke:#1f77b4;" x="198.04728" xlink:href="#mef33246b07" y="282.923178"/>
     <use style="fill:#1f77b4;stroke:#1f77b4;" x="172.921576" xlink:href="#mef33246b07" y="261.25913"/>
     <use style="fill:#1f77b4;stroke:#1f77b4;" x="179.203002" xlink:href="#mef33246b07" y="217.931034"/>
     <use style="fill:#1f77b4;stroke:#1f77b4;" x="91.263039" xlink:href="#mef33246b07" y="225.152383"/>
     <use style="fill:#1f77b4;stroke:#1f77b4;" x="177.109193" xlink:href="#mef33246b07" y="232.373733"/>
     <use style="fill:#1f77b4;stroke:#1f77b4;" x="183.390619" xlink:href="#mef33246b07" y="239.595082"/>
     <use style="fill:#1f77b4;stroke:#1f77b4;" x="193.859662" xlink:href="#mef33246b07" y="232.373733"/>
     <use style="fill:#1f77b4;stroke:#1f77b4;" x="231.548218" xlink:href="#mef33246b07" y="225.152383"/>
     <use style="fill:#1f77b4;stroke:#1f77b4;" x="183.390619" xlink:href="#mef33246b07" y="261.25913"/>
     <use style="fill:#1f77b4;stroke:#1f77b4;" x="445.116698" xlink:href="#mef33246b07" y="340.693972"/>
     <use style="fill:#1f77b4;stroke:#1f77b4;" x="413.709568" xlink:href="#mef33246b07" y="340.693972"/>
     <use style="fill:#1f77b4;stroke:#1f77b4;" x="434.647655" xlink:href="#mef33246b07" y="333.472623"/>
     <use style="fill:#1f77b4;stroke:#1f77b4;" x="399.052908" xlink:href="#mef33246b07" y="347.915322"/>
     <use style="fill:#1f77b4;stroke:#1f77b4;" x="179.203002" xlink:href="#mef33246b07" y="217.931034"/>
     <use style="fill:#1f77b4;stroke:#1f77b4;" x="183.390619" xlink:href="#mef33246b07" y="210.709685"/>
     <use style="fill:#1f77b4;stroke:#1f77b4;" x="193.859662" xlink:href="#mef33246b07" y="232.373733"/>
     <use style="fill:#1f77b4;stroke:#1f77b4;" x="204.328705" xlink:href="#mef33246b07" y="275.701829"/>
     <use style="fill:#1f77b4;stroke:#1f77b4;" x="214.797749" xlink:href="#mef33246b07" y="297.365877"/>
     <use style="fill:#1f77b4;stroke:#1f77b4;" x="204.328705" xlink:href="#mef33246b07" y="290.144527"/>
     <use style="fill:#1f77b4;stroke:#1f77b4;" x="179.203002" xlink:href="#mef33246b07" y="275.701829"/>
     <use style="fill:#1f77b4;stroke:#1f77b4;" x="204.328705" xlink:href="#mef33246b07" y="282.923178"/>
     <use style="fill:#1f77b4;stroke:#1f77b4;" x="340.426266" xlink:href="#mef33246b07" y="311.808575"/>
     <use style="fill:#1f77b4;stroke:#1f77b4;" x="361.364353" xlink:href="#mef33246b07" y="311.808575"/>
     <use style="fill:#1f77b4;stroke:#1f77b4;" x="315.300563" xlink:href="#mef33246b07" y="311.808575"/>
     <use style="fill:#1f77b4;stroke:#1f77b4;" x="309.019137" xlink:href="#mef33246b07" y="311.808575"/>
     <use style="fill:#1f77b4;stroke:#1f77b4;" x="371.833396" xlink:href="#mef33246b07" y="326.251274"/>
     <use style="fill:#1f77b4;stroke:#1f77b4;" x="350.89531" xlink:href="#mef33246b07" y="319.029925"/>
     <use style="fill:#1f77b4;stroke:#1f77b4;" x="361.364353" xlink:href="#mef33246b07" y="319.029925"/>
     <use style="fill:#1f77b4;stroke:#1f77b4;" x="225.266792" xlink:href="#mef33246b07" y="282.923178"/>
     <use style="fill:#1f77b4;stroke:#1f77b4;" x="145.702064" xlink:href="#mef33246b07" y="254.037781"/>
     <use style="fill:#1f77b4;stroke:#1f77b4;" x="204.328705" xlink:href="#mef33246b07" y="275.701829"/>
     <use style="fill:#1f77b4;stroke:#1f77b4;" x="179.203002" xlink:href="#mef33246b07" y="282.923178"/>
     <use style="fill:#1f77b4;stroke:#1f77b4;" x="175.015385" xlink:href="#mef33246b07" y="246.816431"/>
     <use style="fill:#1f77b4;stroke:#1f77b4;" x="183.390619" xlink:href="#mef33246b07" y="210.709685"/>
     <use style="fill:#1f77b4;stroke:#1f77b4;" x="141.514447" xlink:href="#mef33246b07" y="196.266986"/>
     <use style="fill:#1f77b4;stroke:#1f77b4;" x="154.077298" xlink:href="#mef33246b07" y="196.266986"/>
     <use style="fill:#1f77b4;stroke:#1f77b4;" x="131.045403" xlink:href="#mef33246b07" y="189.045637"/>
     <use style="fill:#1f77b4;stroke:#1f77b4;" x="139.420638" xlink:href="#mef33246b07" y="160.16024"/>
     <use style="fill:#1f77b4;stroke:#1f77b4;" x="120.57636" xlink:href="#mef33246b07" y="217.931034"/>
     <use style="fill:#1f77b4;stroke:#1f77b4;" x="141.514447" xlink:href="#mef33246b07" y="225.152383"/>
     <use style="fill:#1f77b4;stroke:#1f77b4;" x="193.859662" xlink:href="#mef33246b07" y="239.595082"/>
     <use style="fill:#1f77b4;stroke:#1f77b4;" x="162.452533" xlink:href="#mef33246b07" y="232.373733"/>
     <use style="fill:#1f77b4;stroke:#1f77b4;" x="108.013508" xlink:href="#mef33246b07" y="246.816431"/>
     <use style="fill:#1f77b4;stroke:#1f77b4;" x="183.390619" xlink:href="#mef33246b07" y="268.480479"/>
     <use style="fill:#1f77b4;stroke:#1f77b4;" x="175.015385" xlink:href="#mef33246b07" y="261.25913"/>
     <use style="fill:#1f77b4;stroke:#1f77b4;" x="340.426266" xlink:href="#mef33246b07" y="319.029925"/>
     <use style="fill:#1f77b4;stroke:#1f77b4;" x="361.364353" xlink:href="#mef33246b07" y="311.808575"/>
     <use style="fill:#1f77b4;stroke:#1f77b4;" x="309.019137" xlink:href="#mef33246b07" y="304.587226"/>
     <use style="fill:#1f77b4;stroke:#1f77b4;" x="315.300563" xlink:href="#mef33246b07" y="311.808575"/>
     <use style="fill:#1f77b4;stroke:#1f77b4;" x="309.019137" xlink:href="#mef33246b07" y="290.144527"/>
     <use style="fill:#1f77b4;stroke:#1f77b4;" x="430.460038" xlink:href="#mef33246b07" y="333.472623"/>
     <use style="fill:#1f77b4;stroke:#1f77b4;" x="319.48818" xlink:href="#mef33246b07" y="319.029925"/>
     <use style="fill:#1f77b4;stroke:#1f77b4;" x="329.957223" xlink:href="#mef33246b07" y="326.251274"/>
     <use style="fill:#1f77b4;stroke:#1f77b4;" x="392.771482" xlink:href="#mef33246b07" y="319.029925"/>
     <use style="fill:#1f77b4;stroke:#1f77b4;" x="198.04728" xlink:href="#mef33246b07" y="275.701829"/>
     <use style="fill:#1f77b4;stroke:#1f77b4;" x="309.019137" xlink:href="#mef33246b07" y="304.587226"/>
     <use style="fill:#1f77b4;stroke:#1f77b4;" x="267.142964" xlink:href="#mef33246b07" y="319.029925"/>
     <use style="fill:#1f77b4;stroke:#1f77b4;" x="288.081051" xlink:href="#mef33246b07" y="319.029925"/>
     <use style="fill:#1f77b4;stroke:#1f77b4;" x="309.019137" xlink:href="#mef33246b07" y="311.808575"/>
     <use style="fill:#1f77b4;stroke:#1f77b4;" x="229.454409" xlink:href="#mef33246b07" y="282.923178"/>
     <use style="fill:#1f77b4;stroke:#1f77b4;" x="154.077298" xlink:href="#mef33246b07" y="254.037781"/>
     <use style="fill:#1f77b4;stroke:#1f77b4;" x="177.109193" xlink:href="#mef33246b07" y="261.25913"/>
     <use style="fill:#1f77b4;stroke:#1f77b4;" x="139.420638" xlink:href="#mef33246b07" y="225.152383"/>
     <use style="fill:#1f77b4;stroke:#1f77b4;" x="175.015385" xlink:href="#mef33246b07" y="254.037781"/>
     <use style="fill:#1f77b4;stroke:#1f77b4;" x="187.578236" xlink:href="#mef33246b07" y="210.709685"/>
     <use style="fill:#1f77b4;stroke:#1f77b4;" x="198.04728" xlink:href="#mef33246b07" y="246.816431"/>
     <use style="fill:#1f77b4;stroke:#1f77b4;" x="162.452533" xlink:href="#mef33246b07" y="210.709685"/>
     <use style="fill:#1f77b4;stroke:#1f77b4;" x="179.203002" xlink:href="#mef33246b07" y="217.931034"/>
     <use style="fill:#1f77b4;stroke:#1f77b4;" x="361.364353" xlink:href="#mef33246b07" y="319.029925"/>
     <use style="fill:#1f77b4;stroke:#1f77b4;" x="309.019137" xlink:href="#mef33246b07" y="311.808575"/>
     <use style="fill:#1f77b4;stroke:#1f77b4;" x="298.550094" xlink:href="#mef33246b07" y="319.029925"/>
     <use style="fill:#1f77b4;stroke:#1f77b4;" x="281.799625" xlink:href="#mef33246b07" y="311.808575"/>
     <use style="fill:#1f77b4;stroke:#1f77b4;" x="309.019137" xlink:href="#mef33246b07" y="304.587226"/>
     <use style="fill:#1f77b4;stroke:#1f77b4;" x="409.521951" xlink:href="#mef33246b07" y="326.251274"/>
     <use style="fill:#1f77b4;stroke:#1f77b4;" x="309.019137" xlink:href="#mef33246b07" y="319.029925"/>
     <use style="fill:#1f77b4;stroke:#1f77b4;" x="325.769606" xlink:href="#mef33246b07" y="319.029925"/>
     <use style="fill:#1f77b4;stroke:#1f77b4;" x="309.019137" xlink:href="#mef33246b07" y="311.808575"/>
     <use style="fill:#1f77b4;stroke:#1f77b4;" x="445.116698" xlink:href="#mef33246b07" y="319.029925"/>
     <use style="fill:#1f77b4;stroke:#1f77b4;" x="466.054784" xlink:href="#mef33246b07" y="326.251274"/>
     <use style="fill:#1f77b4;stroke:#1f77b4;" x="361.364353" xlink:href="#mef33246b07" y="319.029925"/>
     <use style="fill:#1f77b4;stroke:#1f77b4;" x="214.797749" xlink:href="#mef33246b07" y="282.923178"/>
     <use style="fill:#1f77b4;stroke:#1f77b4;" x="204.328705" xlink:href="#mef33246b07" y="297.365877"/>
     <use style="fill:#1f77b4;stroke:#1f77b4;" x="204.328705" xlink:href="#mef33246b07" y="282.923178"/>
     <use style="fill:#1f77b4;stroke:#1f77b4;" x="179.203002" xlink:href="#mef33246b07" y="282.923178"/>
     <use style="fill:#1f77b4;stroke:#1f77b4;" x="193.859662" xlink:href="#mef33246b07" y="246.816431"/>
     <use style="fill:#1f77b4;stroke:#1f77b4;" x="91.263039" xlink:href="#mef33246b07" y="225.152383"/>
     <use style="fill:#1f77b4;stroke:#1f77b4;" x="309.019137" xlink:href="#mef33246b07" y="333.472623"/>
     <use style="fill:#1f77b4;stroke:#1f77b4;" x="344.613884" xlink:href="#mef33246b07" y="326.251274"/>
     <use style="fill:#1f77b4;stroke:#1f77b4;" x="350.89531" xlink:href="#mef33246b07" y="319.029925"/>
     <use style="fill:#1f77b4;stroke:#1f77b4;" x="371.833396" xlink:href="#mef33246b07" y="326.251274"/>
     <use style="fill:#1f77b4;stroke:#1f77b4;" x="204.328705" xlink:href="#mef33246b07" y="282.923178"/>
     <use style="fill:#1f77b4;stroke:#1f77b4;" x="179.203002" xlink:href="#mef33246b07" y="268.480479"/>
     <use style="fill:#1f77b4;stroke:#1f77b4;" x="145.702064" xlink:href="#mef33246b07" y="261.25913"/>
     <use style="fill:#1f77b4;stroke:#1f77b4;" x="191.765854" xlink:href="#mef33246b07" y="254.037781"/>
     <use style="fill:#1f77b4;stroke:#1f77b4;" x="183.390619" xlink:href="#mef33246b07" y="282.923178"/>
     <use style="fill:#1f77b4;stroke:#1f77b4;" x="172.921576" xlink:href="#mef33246b07" y="275.701829"/>
     <use style="fill:#1f77b4;stroke:#1f77b4;" x="218.985366" xlink:href="#mef33246b07" y="261.25913"/>
     <use style="fill:#1f77b4;stroke:#1f77b4;" x="183.390619" xlink:href="#mef33246b07" y="225.152383"/>
     <use style="fill:#1f77b4;stroke:#1f77b4;" x="298.550094" xlink:href="#mef33246b07" y="304.587226"/>
     <use style="fill:#1f77b4;stroke:#1f77b4;" x="476.523827" xlink:href="#mef33246b07" y="297.365877"/>
     <use style="fill:#1f77b4;stroke:#1f77b4;" x="97.544465" xlink:href="#mef33246b07" y="203.488336"/>
     <use style="fill:#1f77b4;stroke:#1f77b4;" x="151.98349" xlink:href="#mef33246b07" y="239.595082"/>
     <use style="fill:#1f77b4;stroke:#1f77b4;" x="185.484428" xlink:href="#mef33246b07" y="268.480479"/>
     <use style="fill:#1f77b4;stroke:#1f77b4;" x="229.454409" xlink:href="#mef33246b07" y="275.701829"/>
     <use style="fill:#1f77b4;stroke:#1f77b4;" x="309.019137" xlink:href="#mef33246b07" y="304.587226"/>
     <use style="fill:#1f77b4;stroke:#1f77b4;" x="225.266792" xlink:href="#mef33246b07" y="239.595082"/>
     <use style="fill:#1f77b4;stroke:#1f77b4;" x="250.392495" xlink:href="#mef33246b07" y="268.480479"/>
     <use style="fill:#1f77b4;stroke:#1f77b4;" x="371.833396" xlink:href="#mef33246b07" y="333.472623"/>
     <use style="fill:#1f77b4;stroke:#1f77b4;" x="193.859662" xlink:href="#mef33246b07" y="268.480479"/>
     <use style="fill:#1f77b4;stroke:#1f77b4;" x="204.328705" xlink:href="#mef33246b07" y="275.701829"/>
     <use style="fill:#1f77b4;stroke:#1f77b4;" x="204.328705" xlink:href="#mef33246b07" y="304.587226"/>
     <use style="fill:#1f77b4;stroke:#1f77b4;" x="135.233021" xlink:href="#mef33246b07" y="189.045637"/>
     <use style="fill:#1f77b4;stroke:#1f77b4;" x="162.452533" xlink:href="#mef33246b07" y="225.152383"/>
     <use style="fill:#1f77b4;stroke:#1f77b4;" x="131.045403" xlink:href="#mef33246b07" y="181.824288"/>
     <use style="fill:#1f77b4;stroke:#1f77b4;" x="151.98349" xlink:href="#mef33246b07" y="232.373733"/>
     <use style="fill:#1f77b4;stroke:#1f77b4;" x="204.328705" xlink:href="#mef33246b07" y="297.365877"/>
     <use style="fill:#1f77b4;stroke:#1f77b4;" x="225.266792" xlink:href="#mef33246b07" y="297.365877"/>
     <use style="fill:#1f77b4;stroke:#1f77b4;" x="214.797749" xlink:href="#mef33246b07" y="282.923178"/>
     <use style="fill:#1f77b4;stroke:#1f77b4;" x="288.081051" xlink:href="#mef33246b07" y="297.365877"/>
     <use style="fill:#1f77b4;stroke:#1f77b4;" x="309.019137" xlink:href="#mef33246b07" y="319.029925"/>
     <use style="fill:#1f77b4;stroke:#1f77b4;" x="309.019137" xlink:href="#mef33246b07" y="311.808575"/>
     <use style="fill:#1f77b4;stroke:#1f77b4;" x="288.081051" xlink:href="#mef33246b07" y="311.808575"/>
     <use style="fill:#1f77b4;stroke:#1f77b4;" x="309.019137" xlink:href="#mef33246b07" y="311.808575"/>
     <use style="fill:#1f77b4;stroke:#1f77b4;" x="168.733959" xlink:href="#mef33246b07" y="203.488336"/>
     <use style="fill:#1f77b4;stroke:#1f77b4;" x="135.233021" xlink:href="#mef33246b07" y="225.152383"/>
     <use style="fill:#1f77b4;stroke:#1f77b4;" x="158.264916" xlink:href="#mef33246b07" y="225.152383"/>
     <use style="fill:#1f77b4;stroke:#1f77b4;" x="103.825891" xlink:href="#mef33246b07" y="189.045637"/>
     <use style="fill:#1f77b4;stroke:#1f77b4;" x="122.670169" xlink:href="#mef33246b07" y="181.824288"/>
     <use style="fill:#1f77b4;stroke:#1f77b4;" x="151.98349" xlink:href="#mef33246b07" y="210.709685"/>
     <use style="fill:#1f77b4;stroke:#1f77b4;" x="151.98349" xlink:href="#mef33246b07" y="239.595082"/>
     <use style="fill:#1f77b4;stroke:#1f77b4;" x="151.98349" xlink:href="#mef33246b07" y="225.152383"/>
     <use style="fill:#1f77b4;stroke:#1f77b4;" x="198.04728" xlink:href="#mef33246b07" y="239.595082"/>
     <use style="fill:#1f77b4;stroke:#1f77b4;" x="189.672045" xlink:href="#mef33246b07" y="225.152383"/>
     <use style="fill:#1f77b4;stroke:#1f77b4;" x="135.233021" xlink:href="#mef33246b07" y="189.045637"/>
     <use style="fill:#1f77b4;stroke:#1f77b4;" x="193.859662" xlink:href="#mef33246b07" y="275.701829"/>
     <use style="fill:#1f77b4;stroke:#1f77b4;" x="214.797749" xlink:href="#mef33246b07" y="282.923178"/>
     <use style="fill:#1f77b4;stroke:#1f77b4;" x="145.702064" xlink:href="#mef33246b07" y="304.587226"/>
     <use style="fill:#1f77b4;stroke:#1f77b4;" x="145.702064" xlink:href="#mef33246b07" y="304.587226"/>
     <use style="fill:#1f77b4;stroke:#1f77b4;" x="350.89531" xlink:href="#mef33246b07" y="297.365877"/>
     <use style="fill:#1f77b4;stroke:#1f77b4;" x="298.550094" xlink:href="#mef33246b07" y="304.587226"/>
     <use style="fill:#1f77b4;stroke:#1f77b4;" x="309.019137" xlink:href="#mef33246b07" y="297.365877"/>
     <use style="fill:#1f77b4;stroke:#1f77b4;" x="304.83152" xlink:href="#mef33246b07" y="311.808575"/>
     <use style="fill:#1f77b4;stroke:#1f77b4;" x="225.266792" xlink:href="#mef33246b07" y="290.144527"/>
     <use style="fill:#1f77b4;stroke:#1f77b4;" x="214.797749" xlink:href="#mef33246b07" y="297.365877"/>
     <use style="fill:#1f77b4;stroke:#1f77b4;" x="225.266792" xlink:href="#mef33246b07" y="304.587226"/>
     <use style="fill:#1f77b4;stroke:#1f77b4;" x="193.859662" xlink:href="#mef33246b07" y="282.923178"/>
     <use style="fill:#1f77b4;stroke:#1f77b4;" x="225.266792" xlink:href="#mef33246b07" y="261.25913"/>
     <use style="fill:#1f77b4;stroke:#1f77b4;" x="225.266792" xlink:href="#mef33246b07" y="268.480479"/>
     <use style="fill:#1f77b4;stroke:#1f77b4;" x="265.049156" xlink:href="#mef33246b07" y="319.029925"/>
     <use style="fill:#1f77b4;stroke:#1f77b4;" x="151.98349" xlink:href="#mef33246b07" y="203.488336"/>
     <use style="fill:#1f77b4;stroke:#1f77b4;" x="168.733959" xlink:href="#mef33246b07" y="246.816431"/>
     <use style="fill:#1f77b4;stroke:#1f77b4;" x="204.328705" xlink:href="#mef33246b07" y="268.480479"/>
     <use style="fill:#1f77b4;stroke:#1f77b4;" x="158.264916" xlink:href="#mef33246b07" y="246.816431"/>
     <use style="fill:#1f77b4;stroke:#1f77b4;" x="195.953471" xlink:href="#mef33246b07" y="239.595082"/>
     <use style="fill:#1f77b4;stroke:#1f77b4;" x="143.608255" xlink:href="#mef33246b07" y="232.373733"/>
     <use style="fill:#1f77b4;stroke:#1f77b4;" x="198.04728" xlink:href="#mef33246b07" y="239.595082"/>
     <use style="fill:#1f77b4;stroke:#1f77b4;" x="198.04728" xlink:href="#mef33246b07" y="282.923178"/>
     <use style="fill:#1f77b4;stroke:#1f77b4;" x="141.514447" xlink:href="#mef33246b07" y="203.488336"/>
     <use style="fill:#1f77b4;stroke:#1f77b4;" x="183.390619" xlink:href="#mef33246b07" y="275.701829"/>
     <use style="fill:#1f77b4;stroke:#1f77b4;" x="193.859662" xlink:href="#mef33246b07" y="246.816431"/>
     <use style="fill:#1f77b4;stroke:#1f77b4;" x="179.203002" xlink:href="#mef33246b07" y="246.816431"/>
     <use style="fill:#1f77b4;stroke:#1f77b4;" x="200.141088" xlink:href="#mef33246b07" y="254.037781"/>
     <use style="fill:#1f77b4;stroke:#1f77b4;" x="235.735835" xlink:href="#mef33246b07" y="232.373733"/>
     <use style="fill:#1f77b4;stroke:#1f77b4;" x="105.9197" xlink:href="#mef33246b07" y="174.602938"/>
     <use style="fill:#1f77b4;stroke:#1f77b4;" x="175.015385" xlink:href="#mef33246b07" y="210.709685"/>
     <use style="fill:#1f77b4;stroke:#1f77b4;" x="164.546341" xlink:href="#mef33246b07" y="232.373733"/>
     <use style="fill:#1f77b4;stroke:#1f77b4;" x="187.578236" xlink:href="#mef33246b07" y="232.373733"/>
     <use style="fill:#1f77b4;stroke:#1f77b4;" x="160.358724" xlink:href="#mef33246b07" y="225.152383"/>
     <use style="fill:#1f77b4;stroke:#1f77b4;" x="168.733959" xlink:href="#mef33246b07" y="217.931034"/>
     <use style="fill:#1f77b4;stroke:#1f77b4;" x="288.081051" xlink:href="#mef33246b07" y="286.533853"/>
     <use style="fill:#1f77b4;stroke:#1f77b4;" x="309.019137" xlink:href="#mef33246b07" y="297.365877"/>
     <use style="fill:#1f77b4;stroke:#1f77b4;" x="246.204878" xlink:href="#mef33246b07" y="300.976551"/>
     <use style="fill:#1f77b4;stroke:#1f77b4;" x="313.206754" xlink:href="#mef33246b07" y="308.197901"/>
     <use style="fill:#1f77b4;stroke:#1f77b4;" x="204.328705" xlink:href="#mef33246b07" y="254.037781"/>
     <use style="fill:#1f77b4;stroke:#1f77b4;" x="214.797749" xlink:href="#mef33246b07" y="254.037781"/>
     <use style="fill:#1f77b4;stroke:#1f77b4;" x="164.546341" xlink:href="#mef33246b07" y="239.595082"/>
     <use style="fill:#1f77b4;stroke:#1f77b4;" x="183.390619" xlink:href="#mef33246b07" y="250.427106"/>
     <use style="fill:#1f77b4;stroke:#1f77b4;" x="103.825891" xlink:href="#mef33246b07" y="203.488336"/>
     <use style="fill:#1f77b4;stroke:#1f77b4;" x="120.57636" xlink:href="#mef33246b07" y="235.984407"/>
     <use style="fill:#1f77b4;stroke:#1f77b4;" x="141.514447" xlink:href="#mef33246b07" y="203.488336"/>
     <use style="fill:#1f77b4;stroke:#1f77b4;" x="105.9197" xlink:href="#mef33246b07" y="174.602938"/>
     <use style="fill:#1f77b4;stroke:#1f77b4;" x="204.328705" xlink:href="#mef33246b07" y="268.480479"/>
     <use style="fill:#1f77b4;stroke:#1f77b4;" x="158.264916" xlink:href="#mef33246b07" y="282.923178"/>
     <use style="fill:#1f77b4;stroke:#1f77b4;" x="225.266792" xlink:href="#mef33246b07" y="279.312503"/>
     <use style="fill:#1f77b4;stroke:#1f77b4;" x="193.859662" xlink:href="#mef33246b07" y="286.533853"/>
     <use style="fill:#1f77b4;stroke:#1f77b4;" x="143.608255" xlink:href="#mef33246b07" y="199.877661"/>
     <use style="fill:#1f77b4;stroke:#1f77b4;" x="141.514447" xlink:href="#mef33246b07" y="181.824288"/>
     <use style="fill:#1f77b4;stroke:#1f77b4;" x="151.98349" xlink:href="#mef33246b07" y="210.709685"/>
     <use style="fill:#1f77b4;stroke:#1f77b4;" x="145.702064" xlink:href="#mef33246b07" y="221.541709"/>
     <use style="fill:#1f77b4;stroke:#1f77b4;" x="208.516323" xlink:href="#mef33246b07" y="268.480479"/>
     <use style="fill:#1f77b4;stroke:#1f77b4;" x="309.019137" xlink:href="#mef33246b07" y="319.029925"/>
     <use style="fill:#1f77b4;stroke:#1f77b4;" x="179.203002" xlink:href="#mef33246b07" y="275.701829"/>
     <use style="fill:#1f77b4;stroke:#1f77b4;" x="221.079174" xlink:href="#mef33246b07" y="275.701829"/>
     <use style="fill:#1f77b4;stroke:#1f77b4;" x="246.204878" xlink:href="#mef33246b07" y="293.755202"/>
     <use style="fill:#1f77b4;stroke:#1f77b4;" x="371.833396" xlink:href="#mef33246b07" y="293.755202"/>
     <use style="fill:#1f77b4;stroke:#1f77b4;" x="298.550094" xlink:href="#mef33246b07" y="319.029925"/>
     <use style="fill:#1f77b4;stroke:#1f77b4;" x="267.142964" xlink:href="#mef33246b07" y="319.029925"/>
     <use style="fill:#1f77b4;stroke:#1f77b4;" x="309.019137" xlink:href="#mef33246b07" y="319.029925"/>
     <use style="fill:#1f77b4;stroke:#1f77b4;" x="137.326829" xlink:href="#mef33246b07" y="185.434962"/>
     <use style="fill:#1f77b4;stroke:#1f77b4;" x="162.452533" xlink:href="#mef33246b07" y="196.266986"/>
     <use style="fill:#1f77b4;stroke:#1f77b4;" x="116.388743" xlink:href="#mef33246b07" y="152.93889"/>
     <use style="fill:#1f77b4;stroke:#1f77b4;" x="195.953471" xlink:href="#mef33246b07" y="228.763058"/>
     <use style="fill:#1f77b4;stroke:#1f77b4;" x="141.514447" xlink:href="#mef33246b07" y="170.992264"/>
     <use style="fill:#1f77b4;stroke:#1f77b4;" x="298.550094" xlink:href="#mef33246b07" y="286.533853"/>
     <use style="fill:#1f77b4;stroke:#1f77b4;" x="225.266792" xlink:href="#mef33246b07" y="290.144527"/>
     <use style="fill:#1f77b4;stroke:#1f77b4;" x="298.550094" xlink:href="#mef33246b07" y="300.976551"/>
     <use style="fill:#1f77b4;stroke:#1f77b4;" x="267.142964" xlink:href="#mef33246b07" y="304.587226"/>
     <use style="fill:#1f77b4;stroke:#1f77b4;" x="225.266792" xlink:href="#mef33246b07" y="286.533853"/>
     <use style="fill:#1f77b4;stroke:#1f77b4;" x="214.797749" xlink:href="#mef33246b07" y="264.869805"/>
     <use style="fill:#1f77b4;stroke:#1f77b4;" x="204.328705" xlink:href="#mef33246b07" y="275.701829"/>
     <use style="fill:#1f77b4;stroke:#1f77b4;" x="200.141088" xlink:href="#mef33246b07" y="279.312503"/>
     <use style="fill:#1f77b4;stroke:#1f77b4;" x="371.833396" xlink:href="#mef33246b07" y="297.365877"/>
     <use style="fill:#1f77b4;stroke:#1f77b4;" x="350.89531" xlink:href="#mef33246b07" y="300.976551"/>
     <use style="fill:#1f77b4;stroke:#1f77b4;" x="392.771482" xlink:href="#mef33246b07" y="300.976551"/>
     <use style="fill:#1f77b4;stroke:#1f77b4;" x="306.925328" xlink:href="#mef33246b07" y="297.365877"/>
     <use style="fill:#1f77b4;stroke:#1f77b4;" x="158.264916" xlink:href="#mef33246b07" y="203.488336"/>
     <use style="fill:#1f77b4;stroke:#1f77b4;" x="179.203002" xlink:href="#mef33246b07" y="235.984407"/>
     <use style="fill:#1f77b4;stroke:#1f77b4;" x="151.98349" xlink:href="#mef33246b07" y="225.152383"/>
     <use style="fill:#1f77b4;stroke:#1f77b4;" x="181.296811" xlink:href="#mef33246b07" y="228.763058"/>
     <use style="fill:#1f77b4;stroke:#1f77b4;" x="126.857786" xlink:href="#mef33246b07" y="192.656312"/>
     <use style="fill:#1f77b4;stroke:#1f77b4;" x="168.733959" xlink:href="#mef33246b07" y="170.992264"/>
     <use style="fill:#1f77b4;stroke:#1f77b4;" x="135.233021" xlink:href="#mef33246b07" y="196.266986"/>
     <use style="fill:#1f77b4;stroke:#1f77b4;" x="158.264916" xlink:href="#mef33246b07" y="192.656312"/>
     <use style="fill:#1f77b4;stroke:#1f77b4;" x="198.04728" xlink:href="#mef33246b07" y="254.037781"/>
     <use style="fill:#1f77b4;stroke:#1f77b4;" x="225.266792" xlink:href="#mef33246b07" y="257.648455"/>
     <use style="fill:#1f77b4;stroke:#1f77b4;" x="225.266792" xlink:href="#mef33246b07" y="257.648455"/>
     <use style="fill:#1f77b4;stroke:#1f77b4;" x="95.450657" xlink:href="#mef33246b07" y="101.66731"/>
     <use style="fill:#1f77b4;stroke:#1f77b4;" x="133.139212" xlink:href="#mef33246b07" y="152.216755"/>
     <use style="fill:#1f77b4;stroke:#1f77b4;" x="103.825891" xlink:href="#mef33246b07" y="176.047208"/>
     <use style="fill:#1f77b4;stroke:#1f77b4;" x="141.514447" xlink:href="#mef33246b07" y="128.386303"/>
     <use style="fill:#1f77b4;stroke:#1f77b4;" x="120.57636" xlink:href="#mef33246b07" y="152.216755"/>
     <use style="fill:#1f77b4;stroke:#1f77b4;" x="225.266792" xlink:href="#mef33246b07" y="269.202614"/>
     <use style="fill:#1f77b4;stroke:#1f77b4;" x="288.081051" xlink:href="#mef33246b07" y="272.813289"/>
     <use style="fill:#1f77b4;stroke:#1f77b4;" x="285.987242" xlink:href="#mef33246b07" y="267.036209"/>
     <use style="fill:#1f77b4;stroke:#1f77b4;" x="214.797749" xlink:href="#mef33246b07" y="274.257559"/>
     <use style="fill:#1f77b4;stroke:#1f77b4;" x="193.859662" xlink:href="#mef33246b07" y="264.869805"/>
     <use style="fill:#1f77b4;stroke:#1f77b4;" x="172.921576" xlink:href="#mef33246b07" y="267.036209"/>
     <use style="fill:#1f77b4;stroke:#1f77b4;" x="179.203002" xlink:href="#mef33246b07" y="231.651598"/>
     <use style="fill:#1f77b4;stroke:#1f77b4;" x="204.328705" xlink:href="#mef33246b07" y="264.869805"/>
     <use style="fill:#1f77b4;stroke:#1f77b4;" x="183.390619" xlink:href="#mef33246b07" y="272.813289"/>
     <use style="fill:#1f77b4;stroke:#1f77b4;" x="214.797749" xlink:href="#mef33246b07" y="264.14767"/>
     <use style="fill:#1f77b4;stroke:#1f77b4;" x="172.921576" xlink:href="#mef33246b07" y="262.7034"/>
     <use style="fill:#1f77b4;stroke:#1f77b4;" x="225.266792" xlink:href="#mef33246b07" y="278.590368"/>
     <use style="fill:#1f77b4;stroke:#1f77b4;" x="246.204878" xlink:href="#mef33246b07" y="282.201043"/>
     <use style="fill:#1f77b4;stroke:#1f77b4;" x="298.550094" xlink:href="#mef33246b07" y="274.257559"/>
     <use style="fill:#1f77b4;stroke:#1f77b4;" x="340.426266" xlink:href="#mef33246b07" y="285.089583"/>
     <use style="fill:#1f77b4;stroke:#1f77b4;" x="285.987242" xlink:href="#mef33246b07" y="282.201043"/>
     <use style="fill:#1f77b4;stroke:#1f77b4;" x="288.081051" xlink:href="#mef33246b07" y="286.533853"/>
     <use style="fill:#1f77b4;stroke:#1f77b4;" x="137.326829" xlink:href="#mef33246b07" y="196.266986"/>
     <use style="fill:#1f77b4;stroke:#1f77b4;" x="193.859662" xlink:href="#mef33246b07" y="214.32036"/>
     <use style="fill:#1f77b4;stroke:#1f77b4;" x="198.04728" xlink:href="#mef33246b07" y="216.486764"/>
     <use style="fill:#1f77b4;stroke:#1f77b4;" x="151.98349" xlink:href="#mef33246b07" y="189.767772"/>
     <use style="fill:#1f77b4;stroke:#1f77b4;" x="193.859662" xlink:href="#mef33246b07" y="260.536995"/>
     <use style="fill:#1f77b4;stroke:#1f77b4;" x="214.797749" xlink:href="#mef33246b07" y="245.372162"/>
     <use style="fill:#1f77b4;stroke:#1f77b4;" x="172.921576" xlink:href="#mef33246b07" y="241.039352"/>
     <use style="fill:#1f77b4;stroke:#1f77b4;" x="198.04728" xlink:href="#mef33246b07" y="240.317217"/>
     <use style="fill:#1f77b4;stroke:#1f77b4;" x="210.610131" xlink:href="#mef33246b07" y="266.314075"/>
     <use style="fill:#1f77b4;stroke:#1f77b4;" x="256.673921" xlink:href="#mef33246b07" y="290.144527"/>
     <use style="fill:#1f77b4;stroke:#1f77b4;" x="235.735835" xlink:href="#mef33246b07" y="256.92632"/>
     <use style="fill:#1f77b4;stroke:#1f77b4;" x="273.42439" xlink:href="#mef33246b07" y="295.921607"/>
     <use style="fill:#1f77b4;stroke:#1f77b4;" x="143.608255" xlink:href="#mef33246b07" y="185.434962"/>
     <use style="fill:#1f77b4;stroke:#1f77b4;" x="137.326829" xlink:href="#mef33246b07" y="199.877661"/>
     <use style="fill:#1f77b4;stroke:#1f77b4;" x="235.735835" xlink:href="#mef33246b07" y="257.648455"/>
     <use style="fill:#1f77b4;stroke:#1f77b4;" x="172.921576" xlink:href="#mef33246b07" y="269.924749"/>
     <use style="fill:#1f77b4;stroke:#1f77b4;" x="179.203002" xlink:href="#mef33246b07" y="251.871376"/>
     <use style="fill:#1f77b4;stroke:#1f77b4;" x="183.390619" xlink:href="#mef33246b07" y="267.036209"/>
     <use style="fill:#1f77b4;stroke:#1f77b4;" x="225.266792" xlink:href="#mef33246b07" y="264.14767"/>
     <use style="fill:#1f77b4;stroke:#1f77b4;" x="267.142964" xlink:href="#mef33246b07" y="290.144527"/>
     <use style="fill:#1f77b4;stroke:#1f77b4;" x="265.049156" xlink:href="#mef33246b07" y="285.811718"/>
     <use style="fill:#1f77b4;stroke:#1f77b4;" x="283.893433" xlink:href="#mef33246b07" y="293.755202"/>
     <use style="fill:#1f77b4;stroke:#1f77b4;" x="277.612008" xlink:href="#mef33246b07" y="281.478908"/>
     <use style="fill:#1f77b4;stroke:#1f77b4;" x="319.48818" xlink:href="#mef33246b07" y="290.866662"/>
     <use style="fill:#1f77b4;stroke:#1f77b4;" x="292.268668" xlink:href="#mef33246b07" y="300.976551"/>
     <use style="fill:#1f77b4;stroke:#1f77b4;" x="256.673921" xlink:href="#mef33246b07" y="274.257559"/>
     <use style="fill:#1f77b4;stroke:#1f77b4;" x="309.019137" xlink:href="#mef33246b07" y="279.312503"/>
     <use style="fill:#1f77b4;stroke:#1f77b4;" x="143.608255" xlink:href="#mef33246b07" y="182.546423"/>
     <use style="fill:#1f77b4;stroke:#1f77b4;" x="131.045403" xlink:href="#mef33246b07" y="166.659454"/>
     <use style="fill:#1f77b4;stroke:#1f77b4;" x="162.452533" xlink:href="#mef33246b07" y="155.105295"/>
     <use style="fill:#1f77b4;stroke:#1f77b4;" x="162.452533" xlink:href="#mef33246b07" y="215.042494"/>
     <use style="fill:#1f77b4;stroke:#1f77b4;" x="156.171107" xlink:href="#mef33246b07" y="229.485193"/>
     <use style="fill:#1f77b4;stroke:#1f77b4;" x="256.673921" xlink:href="#mef33246b07" y="246.816431"/>
     <use style="fill:#1f77b4;stroke:#1f77b4;" x="143.608255" xlink:href="#mef33246b07" y="216.486764"/>
     <use style="fill:#1f77b4;stroke:#1f77b4;" x="183.390619" xlink:href="#mef33246b07" y="240.317217"/>
     <use style="fill:#1f77b4;stroke:#1f77b4;" x="141.514447" xlink:href="#mef33246b07" y="165.937319"/>
     <use style="fill:#1f77b4;stroke:#1f77b4;" x="141.514447" xlink:href="#mef33246b07" y="163.770914"/>
     <use style="fill:#1f77b4;stroke:#1f77b4;" x="131.045403" xlink:href="#mef33246b07" y="183.268557"/>
     <use style="fill:#1f77b4;stroke:#1f77b4;" x="139.420638" xlink:href="#mef33246b07" y="143.551136"/>
     <use style="fill:#1f77b4;stroke:#1f77b4;" x="183.390619" xlink:href="#mef33246b07" y="207.821145"/>
     <use style="fill:#1f77b4;stroke:#1f77b4;" x="235.735835" xlink:href="#mef33246b07" y="204.932605"/>
     <use style="fill:#1f77b4;stroke:#1f77b4;" x="235.735835" xlink:href="#mef33246b07" y="219.375304"/>
     <use style="fill:#1f77b4;stroke:#1f77b4;" x="183.390619" xlink:href="#mef33246b07" y="170.992264"/>
     <use style="fill:#1f77b4;stroke:#1f77b4;" x="154.077298" xlink:href="#mef33246b07" y="113.221469"/>
     <use style="fill:#1f77b4;stroke:#1f77b4;" x="120.57636" xlink:href="#mef33246b07" y="137.774057"/>
     <use style="fill:#1f77b4;stroke:#1f77b4;" x="141.514447" xlink:href="#mef33246b07" y="181.102153"/>
     <use style="fill:#1f77b4;stroke:#1f77b4;" x="131.045403" xlink:href="#mef33246b07" y="144.273271"/>
     <use style="fill:#1f77b4;stroke:#1f77b4;" x="183.390619" xlink:href="#mef33246b07" y="210.709685"/>
     <use style="fill:#1f77b4;stroke:#1f77b4;" x="179.203002" xlink:href="#mef33246b07" y="222.263844"/>
     <use style="fill:#1f77b4;stroke:#1f77b4;" x="183.390619" xlink:href="#mef33246b07" y="237.428677"/>
     <use style="fill:#1f77b4;stroke:#1f77b4;" x="183.390619" xlink:href="#mef33246b07" y="274.979694"/>
     <use style="fill:#1f77b4;stroke:#1f77b4;" x="158.264916" xlink:href="#mef33246b07" y="165.215184"/>
     <use style="fill:#1f77b4;stroke:#1f77b4;" x="183.390619" xlink:href="#mef33246b07" y="197.711256"/>
     <use style="fill:#1f77b4;stroke:#1f77b4;" x="151.98349" xlink:href="#mef33246b07" y="186.879232"/>
     <use style="fill:#1f77b4;stroke:#1f77b4;" x="187.578236" xlink:href="#mef33246b07" y="145.717541"/>
     <use style="fill:#1f77b4;stroke:#1f77b4;" x="151.98349" xlink:href="#mef33246b07" y="180.380018"/>
     <use style="fill:#1f77b4;stroke:#1f77b4;" x="131.045403" xlink:href="#mef33246b07" y="76.392588"/>
     <use style="fill:#1f77b4;stroke:#1f77b4;" x="214.797749" xlink:href="#mef33246b07" y="211.43182"/>
     <use style="fill:#1f77b4;stroke:#1f77b4;" x="131.045403" xlink:href="#mef33246b07" y="118.276414"/>
     <use style="fill:#1f77b4;stroke:#1f77b4;" x="95.450657" xlink:href="#mef33246b07" y="93.001691"/>
     <use style="fill:#1f77b4;stroke:#1f77b4;" x="95.450657" xlink:href="#mef33246b07" y="99.500905"/>
     <use style="fill:#1f77b4;stroke:#1f77b4;" x="135.233021" xlink:href="#mef33246b07" y="150.050351"/>
     <use style="fill:#1f77b4;stroke:#1f77b4;" x="135.233021" xlink:href="#mef33246b07" y="196.266986"/>
     <use style="fill:#1f77b4;stroke:#1f77b4;" x="135.233021" xlink:href="#mef33246b07" y="90.835286"/>
     <use style="fill:#1f77b4;stroke:#1f77b4;" x="135.233021" xlink:href="#mef33246b07" y="168.825859"/>
     <use style="fill:#1f77b4;stroke:#1f77b4;" x="124.763977" xlink:href="#mef33246b07" y="197.711256"/>
     <use style="fill:#1f77b4;stroke:#1f77b4;" x="271.330582" xlink:href="#mef33246b07" y="176.769343"/>
     <use style="fill:#1f77b4;stroke:#1f77b4;" x="204.328705" xlink:href="#mef33246b07" y="241.761487"/>
     <use style="fill:#1f77b4;stroke:#1f77b4;" x="179.203002" xlink:href="#mef33246b07" y="160.16024"/>
     <use style="fill:#1f77b4;stroke:#1f77b4;" x="145.702064" xlink:href="#mef33246b07" y="178.935748"/>
     <use style="fill:#1f77b4;stroke:#1f77b4;" x="170.827767" xlink:href="#mef33246b07" y="216.486764"/>
     <use style="fill:#1f77b4;stroke:#1f77b4;" x="170.827767" xlink:href="#mef33246b07" y="220.819574"/>
     <use style="fill:#1f77b4;stroke:#1f77b4;" x="187.578236" xlink:href="#mef33246b07" y="226.596653"/>
     <use style="fill:#1f77b4;stroke:#1f77b4;" x="225.266792" xlink:href="#mef33246b07" y="243.205757"/>
     <use style="fill:#1f77b4;stroke:#1f77b4;" x="170.827767" xlink:href="#mef33246b07" y="196.266986"/>
     <use style="fill:#1f77b4;stroke:#1f77b4;" x="116.388743" xlink:href="#mef33246b07" y="130.552707"/>
     <use style="fill:#1f77b4;stroke:#1f77b4;" x="128.951595" xlink:href="#mef33246b07" y="131.274842"/>
     <use style="fill:#1f77b4;stroke:#1f77b4;" x="120.57636" xlink:href="#mef33246b07" y="159.438105"/>
     <use style="fill:#1f77b4;stroke:#1f77b4;" x="135.233021" xlink:href="#mef33246b07" y="179.657883"/>
     <use style="fill:#1f77b4;stroke:#1f77b4;" x="131.045403" xlink:href="#mef33246b07" y="145.717541"/>
     <use style="fill:#1f77b4;stroke:#1f77b4;" x="124.763977" xlink:href="#mef33246b07" y="140.662597"/>
     <use style="fill:#1f77b4;stroke:#1f77b4;" x="137.326829" xlink:href="#mef33246b07" y="166.659454"/>
     <use style="fill:#1f77b4;stroke:#1f77b4;" x="126.857786" xlink:href="#mef33246b07" y="162.326644"/>
     <use style="fill:#1f77b4;stroke:#1f77b4;" x="131.045403" xlink:href="#mef33246b07" y="164.493049"/>
     <use style="fill:#1f77b4;stroke:#1f77b4;" x="131.045403" xlink:href="#mef33246b07" y="196.989121"/>
     <use style="fill:#1f77b4;stroke:#1f77b4;" x="149.889681" xlink:href="#mef33246b07" y="174.602938"/>
     <use style="fill:#1f77b4;stroke:#1f77b4;" x="151.98349" xlink:href="#mef33246b07" y="169.547994"/>
     <use style="fill:#1f77b4;stroke:#1f77b4;" x="151.98349" xlink:href="#mef33246b07" y="178.935748"/>
     <use style="fill:#1f77b4;stroke:#1f77b4;" x="204.328705" xlink:href="#mef33246b07" y="175.325073"/>
     <use style="fill:#1f77b4;stroke:#1f77b4;" x="149.889681" xlink:href="#mef33246b07" y="184.712827"/>
     <use style="fill:#1f77b4;stroke:#1f77b4;" x="162.452533" xlink:href="#mef33246b07" y="209.98755"/>
     <use style="fill:#1f77b4;stroke:#1f77b4;" x="154.077298" xlink:href="#mef33246b07" y="191.212042"/>
     <use style="fill:#1f77b4;stroke:#1f77b4;" x="237.829644" xlink:href="#mef33246b07" y="229.485193"/>
     <use style="fill:#1f77b4;stroke:#1f77b4;" x="246.204878" xlink:href="#mef33246b07" y="238.150812"/>
     <use style="fill:#1f77b4;stroke:#1f77b4;" x="225.266792" xlink:href="#mef33246b07" y="251.149241"/>
     <use style="fill:#1f77b4;stroke:#1f77b4;" x="214.797749" xlink:href="#mef33246b07" y="220.819574"/>
     <use style="fill:#1f77b4;stroke:#1f77b4;" x="179.203002" xlink:href="#mef33246b07" y="267.036209"/>
     <use style="fill:#1f77b4;stroke:#1f77b4;" x="172.921576" xlink:href="#mef33246b07" y="285.811718"/>
     <use style="fill:#1f77b4;stroke:#1f77b4;" x="179.203002" xlink:href="#mef33246b07" y="210.709685"/>
     <use style="fill:#1f77b4;stroke:#1f77b4;" x="179.203002" xlink:href="#mef33246b07" y="217.931034"/>
     <use style="fill:#1f77b4;stroke:#1f77b4;" x="179.203002" xlink:href="#mef33246b07" y="167.381589"/>
     <use style="fill:#1f77b4;stroke:#1f77b4;" x="172.921576" xlink:href="#mef33246b07" y="189.045637"/>
     <use style="fill:#1f77b4;stroke:#1f77b4;" x="170.827767" xlink:href="#mef33246b07" y="203.488336"/>
     <use style="fill:#1f77b4;stroke:#1f77b4;" x="183.390619" xlink:href="#mef33246b07" y="217.931034"/>
     <use style="fill:#1f77b4;stroke:#1f77b4;" x="187.578236" xlink:href="#mef33246b07" y="239.595082"/>
     <use style="fill:#1f77b4;stroke:#1f77b4;" x="149.889681" xlink:href="#mef33246b07" y="152.93889"/>
     <use style="fill:#1f77b4;stroke:#1f77b4;" x="137.326829" xlink:href="#mef33246b07" y="145.717541"/>
     <use style="fill:#1f77b4;stroke:#1f77b4;" x="137.326829" xlink:href="#mef33246b07" y="189.045637"/>
     <use style="fill:#1f77b4;stroke:#1f77b4;" x="126.857786" xlink:href="#mef33246b07" y="138.496192"/>
     <use style="fill:#1f77b4;stroke:#1f77b4;" x="141.514447" xlink:href="#mef33246b07" y="152.93889"/>
     <use style="fill:#1f77b4;stroke:#1f77b4;" x="179.203002" xlink:href="#mef33246b07" y="152.93889"/>
     <use style="fill:#1f77b4;stroke:#1f77b4;" x="151.98349" xlink:href="#mef33246b07" y="152.93889"/>
     <use style="fill:#1f77b4;stroke:#1f77b4;" x="141.514447" xlink:href="#mef33246b07" y="167.381589"/>
     <use style="fill:#1f77b4;stroke:#1f77b4;" x="135.233021" xlink:href="#mef33246b07" y="138.496192"/>
     <use style="fill:#1f77b4;stroke:#1f77b4;" x="135.233021" xlink:href="#mef33246b07" y="181.824288"/>
     <use style="fill:#1f77b4;stroke:#1f77b4;" x="135.233021" xlink:href="#mef33246b07" y="138.496192"/>
     <use style="fill:#1f77b4;stroke:#1f77b4;" x="225.266792" xlink:href="#mef33246b07" y="232.373733"/>
     <use style="fill:#1f77b4;stroke:#1f77b4;" x="172.921576" xlink:href="#mef33246b07" y="138.496192"/>
     <use style="fill:#1f77b4;stroke:#1f77b4;" x="187.578236" xlink:href="#mef33246b07" y="225.152383"/>
     <use style="fill:#1f77b4;stroke:#1f77b4;" x="229.454409" xlink:href="#mef33246b07" y="254.037781"/>
     <use style="fill:#1f77b4;stroke:#1f77b4;" x="195.953471" xlink:href="#mef33246b07" y="181.824288"/>
     <use style="fill:#1f77b4;stroke:#1f77b4;" x="170.827767" xlink:href="#mef33246b07" y="152.93889"/>
     <use style="fill:#1f77b4;stroke:#1f77b4;" x="183.390619" xlink:href="#mef33246b07" y="217.931034"/>
     <use style="fill:#1f77b4;stroke:#1f77b4;" x="175.015385" xlink:href="#mef33246b07" y="217.931034"/>
     <use style="fill:#1f77b4;stroke:#1f77b4;" x="103.825891" xlink:href="#mef33246b07" y="95.168096"/>
     <use style="fill:#1f77b4;stroke:#1f77b4;" x="170.827767" xlink:href="#mef33246b07" y="181.824288"/>
     <use style="fill:#1f77b4;stroke:#1f77b4;" x="160.358724" xlink:href="#mef33246b07" y="210.709685"/>
     <use style="fill:#1f77b4;stroke:#1f77b4;" x="166.64015" xlink:href="#mef33246b07" y="189.045637"/>
    </g>
   </g>
   <g id="line2d_12">
    <path clip-path="url(#p7fdcd25aec)" d="M 99.638274 186.335071 
L 103.339451 188.188345 
L 107.040628 190.041619 
L 110.741805 191.894892 
L 114.442981 193.748166 
L 118.144158 195.60144 
L 121.845335 197.454713 
L 125.546512 199.307987 
L 129.247689 201.161261 
L 132.948866 203.014535 
L 136.650043 204.867808 
L 140.35122 206.721082 
L 144.052396 208.574356 
L 147.753573 210.42763 
L 151.45475 212.280903 
L 155.155927 214.134177 
L 158.857104 215.987451 
L 162.558281 217.840725 
L 166.259458 219.693998 
L 169.960634 221.547272 
L 173.661811 223.400546 
L 177.362988 225.253819 
L 181.064165 227.107093 
L 184.765342 228.960367 
L 188.466519 230.813641 
L 192.167696 232.666914 
L 195.868873 234.520188 
L 199.570049 236.373462 
L 203.271226 238.226736 
L 206.972403 240.080009 
L 210.67358 241.933283 
L 214.374757 243.786557 
L 218.075934 245.639831 
L 221.777111 247.493104 
L 225.478288 249.346378 
L 229.179464 251.199652 
L 232.880641 253.052926 
L 236.581818 254.906199 
L 240.282995 256.759473 
L 243.984172 258.612747 
L 247.685349 260.46602 
L 251.386526 262.319294 
L 255.087703 264.172568 
L 258.788879 266.025842 
L 262.490056 267.879115 
L 266.191233 269.732389 
L 269.89241 271.585663 
L 273.593587 273.438937 
L 277.294764 275.29221 
L 280.995941 277.145484 
L 284.697118 278.998758 
L 288.398294 280.852032 
L 292.099471 282.705305 
L 295.800648 284.558579 
L 299.501825 286.411853 
L 303.203002 288.265126 
L 306.904179 290.1184 
L 310.605356 291.971674 
L 314.306532 293.824948 
L 318.007709 295.678221 
L 321.708886 297.531495 
L 325.410063 299.384769 
L 329.11124 301.238043 
L 332.812417 303.091316 
L 336.513594 304.94459 
L 340.214771 306.797864 
L 343.915947 308.651138 
L 347.617124 310.504411 
L 351.318301 312.357685 
L 355.019478 314.210959 
L 358.720655 316.064233 
L 362.421832 317.917506 
L 366.123009 319.77078 
L 369.824186 321.624054 
L 373.525362 323.477327 
L 377.226539 325.330601 
L 380.927716 327.183875 
L 384.628893 329.037149 
L 388.33007 330.890422 
L 392.031247 332.743696 
L 395.732424 334.59697 
L 399.433601 336.450244 
L 403.134777 338.303517 
L 406.835954 340.156791 
L 410.537131 342.010065 
L 414.238308 343.863339 
L 417.939485 345.716612 
L 421.640662 347.569886 
L 425.341839 349.42316 
L 429.043016 351.276433 
L 432.744192 353.129707 
L 436.445369 354.982981 
L 440.146546 356.836255 
L 443.847723 358.689528 
L 447.5489 360.542802 
L 451.250077 362.396076 
L 454.951254 364.24935 
L 458.65243 366.102623 
L 462.353607 367.955897 
L 466.054784 369.809171 
" style="fill:none;stroke:#ff7f0e;stroke-linecap:square;stroke-width:3;"/>
   </g>
   <g id="line2d_13">
    <path clip-path="url(#p7fdcd25aec)" d="M 99.638274 146.382096 
L 103.339451 150.837639 
L 107.040628 155.235869 
L 110.741805 159.576784 
L 114.442981 163.860386 
L 118.144158 168.086674 
L 121.845335 172.255648 
L 125.546512 176.367308 
L 129.247689 180.421655 
L 132.948866 184.418688 
L 136.650043 188.358407 
L 140.35122 192.240813 
L 144.052396 196.065904 
L 147.753573 199.833682 
L 151.45475 203.544146 
L 155.155927 207.197297 
L 158.857104 210.793134 
L 162.558281 214.331656 
L 166.259458 217.812866 
L 169.960634 221.236761 
L 173.661811 224.603343 
L 177.362988 227.912611 
L 181.064165 231.164565 
L 184.765342 234.359205 
L 188.466519 237.496532 
L 192.167696 240.576545 
L 195.868873 243.599244 
L 199.570049 246.56463 
L 203.271226 249.472701 
L 206.972403 252.323459 
L 210.67358 255.116903 
L 214.374757 257.853034 
L 218.075934 260.53185 
L 221.777111 263.153353 
L 225.478288 265.717543 
L 229.179464 268.224418 
L 232.880641 270.67398 
L 236.581818 273.066228 
L 240.282995 275.401162 
L 243.984172 277.678782 
L 247.685349 279.899089 
L 251.386526 282.062082 
L 255.087703 284.167761 
L 258.788879 286.216126 
L 262.490056 288.207178 
L 266.191233 290.140916 
L 269.89241 292.01734 
L 273.593587 293.836451 
L 277.294764 295.598247 
L 280.995941 297.30273 
L 284.697118 298.949899 
L 288.398294 300.539755 
L 292.099471 302.072296 
L 295.800648 303.547524 
L 299.501825 304.965439 
L 303.203002 306.326039 
L 306.904179 307.629326 
L 310.605356 308.875299 
L 314.306532 310.063958 
L 318.007709 311.195303 
L 321.708886 312.269335 
L 325.410063 313.286053 
L 329.11124 314.245457 
L 332.812417 315.147547 
L 336.513594 315.992324 
L 340.214771 316.779787 
L 343.915947 317.509936 
L 347.617124 318.182771 
L 351.318301 318.798293 
L 355.019478 319.356501 
L 358.720655 319.857395 
L 362.421832 320.300976 
L 366.123009 320.687242 
L 369.824186 321.016195 
L 373.525362 321.287834 
L 377.226539 321.50216 
L 380.927716 321.659171 
L 384.628893 321.758869 
L 388.33007 321.801253 
L 392.031247 321.786324 
L 395.732424 321.71408 
L 399.433601 321.584523 
L 403.134777 321.397653 
L 406.835954 321.153468 
L 410.537131 320.85197 
L 414.238308 320.493157 
L 417.939485 320.077032 
L 421.640662 319.603592 
L 425.341839 319.072839 
L 429.043016 318.484772 
L 432.744192 317.839391 
L 436.445369 317.136696 
L 440.146546 316.376688 
L 443.847723 315.559366 
L 447.5489 314.68473 
L 451.250077 313.75278 
L 454.951254 312.763517 
L 458.65243 311.71694 
L 462.353607 310.613049 
L 466.054784 309.451844 
" style="fill:none;stroke:#2ca02c;stroke-linecap:square;stroke-width:3;"/>
   </g>
   <g id="line2d_14">
    <path clip-path="url(#p7fdcd25aec)" d="M 99.638274 139.105149 
L 103.339451 144.33388 
L 107.040628 149.465055 
L 110.741805 154.499519 
L 114.442981 159.438116 
L 118.144158 164.281692 
L 121.845335 169.031091 
L 125.546512 173.687159 
L 129.247689 178.25074 
L 132.948866 182.72268 
L 136.650043 187.103824 
L 140.35122 191.395016 
L 144.052396 195.597102 
L 147.753573 199.710927 
L 151.45475 203.737336 
L 155.155927 207.677174 
L 158.857104 211.531285 
L 162.558281 215.300515 
L 166.259458 218.985709 
L 169.960634 222.587713 
L 173.661811 226.10737 
L 177.362988 229.545526 
L 181.064165 232.903026 
L 184.765342 236.180716 
L 188.466519 239.379439 
L 192.167696 242.500042 
L 195.868873 245.543369 
L 199.570049 248.510265 
L 203.271226 251.401575 
L 206.972403 254.218145 
L 210.67358 256.960819 
L 214.374757 259.630442 
L 218.075934 262.227859 
L 221.777111 264.753917 
L 225.478288 267.209458 
L 229.179464 269.595329 
L 232.880641 271.912375 
L 236.581818 274.16144 
L 240.282995 276.343369 
L 243.984172 278.459008 
L 247.685349 280.509202 
L 251.386526 282.494796 
L 255.087703 284.416634 
L 258.788879 286.275562 
L 262.490056 288.072425 
L 266.191233 289.808067 
L 269.89241 291.483335 
L 273.593587 293.099072 
L 277.294764 294.656124 
L 280.995941 296.155336 
L 284.697118 297.597553 
L 288.398294 298.98362 
L 292.099471 300.314382 
L 295.800648 301.590684 
L 299.501825 302.813371 
L 303.203002 303.983288 
L 306.904179 305.101281 
L 310.605356 306.168194 
L 314.306532 307.184871 
L 318.007709 308.152159 
L 321.708886 309.070903 
L 325.410063 309.941946 
L 329.11124 310.766136 
L 332.812417 311.544315 
L 336.513594 312.27733 
L 340.214771 312.966025 
L 343.915947 313.611246 
L 347.617124 314.213837 
L 351.318301 314.774644 
L 355.019478 315.294511 
L 358.720655 315.774284 
L 362.421832 316.214808 
L 366.123009 316.616927 
L 369.824186 316.981487 
L 373.525362 317.309332 
L 377.226539 317.601309 
L 380.927716 317.858261 
L 384.628893 318.081034 
L 388.33007 318.270473 
L 392.031247 318.427423 
L 395.732424 318.552729 
L 399.433601 318.647235 
L 403.134777 318.711788 
L 406.835954 318.747232 
L 410.537131 318.754411 
L 414.238308 318.734172 
L 417.939485 318.687359 
L 421.640662 318.614817 
L 425.341839 318.517392 
L 429.043016 318.395927 
L 432.744192 318.251269 
L 436.445369 318.084262 
L 440.146546 317.895751 
L 443.847723 317.686582 
L 447.5489 317.457599 
L 451.250077 317.209647 
L 454.951254 316.943572 
L 458.65243 316.660219 
L 462.353607 316.360431 
L 466.054784 316.045056 
" style="fill:none;stroke:#d62728;stroke-linecap:square;stroke-width:3;"/>
   </g>
   <g id="patch_3">
    <path d="M 72 384.48 
L 72 51.84 
" style="fill:none;stroke:#000000;stroke-linecap:square;stroke-linejoin:miter;stroke-width:0.8;"/>
   </g>
   <g id="patch_4">
    <path d="M 518.4 384.48 
L 518.4 51.84 
" style="fill:none;stroke:#000000;stroke-linecap:square;stroke-linejoin:miter;stroke-width:0.8;"/>
   </g>
   <g id="patch_5">
    <path d="M 72 384.48 
L 518.4 384.48 
" style="fill:none;stroke:#000000;stroke-linecap:square;stroke-linejoin:miter;stroke-width:0.8;"/>
   </g>
   <g id="patch_6">
    <path d="M 72 51.84 
L 518.4 51.84 
" style="fill:none;stroke:#000000;stroke-linecap:square;stroke-linejoin:miter;stroke-width:0.8;"/>
   </g>
   <g id="legend_1">
    <g id="patch_7">
     <path d="M 410.411875 124.688125 
L 508.6 124.688125 
Q 511.4 124.688125 511.4 121.888125 
L 511.4 61.64 
Q 511.4 58.84 508.6 58.84 
L 410.411875 58.84 
Q 407.611875 58.84 407.611875 61.64 
L 407.611875 121.888125 
Q 407.611875 124.688125 410.411875 124.688125 
z
" style="fill:#ffffff;opacity:0.8;stroke:#cccccc;stroke-linejoin:miter;"/>
    </g>
    <g id="line2d_15">
     <path d="M 413.211875 70.177812 
L 441.211875 70.177812 
" style="fill:none;stroke:#ff7f0e;stroke-linecap:square;stroke-width:3;"/>
    </g>
    <g id="line2d_16"/>
    <g id="text_13">
     <!-- Order 1 -->
     <defs>
      <path d="M 39.40625 66.21875 
Q 28.65625 66.21875 22.328125 58.203125 
Q 16.015625 50.203125 16.015625 36.375 
Q 16.015625 22.609375 22.328125 14.59375 
Q 28.65625 6.59375 39.40625 6.59375 
Q 50.140625 6.59375 56.421875 14.59375 
Q 62.703125 22.609375 62.703125 36.375 
Q 62.703125 50.203125 56.421875 58.203125 
Q 50.140625 66.21875 39.40625 66.21875 
z
M 39.40625 74.21875 
Q 54.734375 74.21875 63.90625 63.9375 
Q 73.09375 53.65625 73.09375 36.375 
Q 73.09375 19.140625 63.90625 8.859375 
Q 54.734375 -1.421875 39.40625 -1.421875 
Q 24.03125 -1.421875 14.8125 8.828125 
Q 5.609375 19.09375 5.609375 36.375 
Q 5.609375 53.65625 14.8125 63.9375 
Q 24.03125 74.21875 39.40625 74.21875 
z
" id="DejaVuSans-79"/>
      <path d="M 45.40625 46.390625 
L 45.40625 75.984375 
L 54.390625 75.984375 
L 54.390625 0 
L 45.40625 0 
L 45.40625 8.203125 
Q 42.578125 3.328125 38.25 0.953125 
Q 33.9375 -1.421875 27.875 -1.421875 
Q 17.96875 -1.421875 11.734375 6.484375 
Q 5.515625 14.40625 5.515625 27.296875 
Q 5.515625 40.1875 11.734375 48.09375 
Q 17.96875 56 27.875 56 
Q 33.9375 56 38.25 53.625 
Q 42.578125 51.265625 45.40625 46.390625 
z
M 14.796875 27.296875 
Q 14.796875 17.390625 18.875 11.75 
Q 22.953125 6.109375 30.078125 6.109375 
Q 37.203125 6.109375 41.296875 11.75 
Q 45.40625 17.390625 45.40625 27.296875 
Q 45.40625 37.203125 41.296875 42.84375 
Q 37.203125 48.484375 30.078125 48.484375 
Q 22.953125 48.484375 18.875 42.84375 
Q 14.796875 37.203125 14.796875 27.296875 
z
" id="DejaVuSans-100"/>
      <path id="DejaVuSans-32"/>
     </defs>
     <g transform="translate(452.411875 75.077812)scale(0.14 -0.14)">
      <use xlink:href="#DejaVuSans-79"/>
      <use x="78.710938" xlink:href="#DejaVuSans-114"/>
      <use x="119.808594" xlink:href="#DejaVuSans-100"/>
      <use x="183.285156" xlink:href="#DejaVuSans-101"/>
      <use x="244.808594" xlink:href="#DejaVuSans-114"/>
      <use x="285.921875" xlink:href="#DejaVuSans-32"/>
      <use x="317.708984" xlink:href="#DejaVuSans-49"/>
     </g>
    </g>
    <g id="line2d_17">
     <path d="M 413.211875 90.727187 
L 441.211875 90.727187 
" style="fill:none;stroke:#2ca02c;stroke-linecap:square;stroke-width:3;"/>
    </g>
    <g id="line2d_18"/>
    <g id="text_14">
     <!-- Order 2 -->
     <g transform="translate(452.411875 95.627187)scale(0.14 -0.14)">
      <use xlink:href="#DejaVuSans-79"/>
      <use x="78.710938" xlink:href="#DejaVuSans-114"/>
      <use x="119.808594" xlink:href="#DejaVuSans-100"/>
      <use x="183.285156" xlink:href="#DejaVuSans-101"/>
      <use x="244.808594" xlink:href="#DejaVuSans-114"/>
      <use x="285.921875" xlink:href="#DejaVuSans-32"/>
      <use x="317.708984" xlink:href="#DejaVuSans-50"/>
     </g>
    </g>
    <g id="line2d_19">
     <path d="M 413.211875 111.276562 
L 441.211875 111.276562 
" style="fill:none;stroke:#d62728;stroke-linecap:square;stroke-width:3;"/>
    </g>
    <g id="line2d_20"/>
    <g id="text_15">
     <!-- Order 3 -->
     <g transform="translate(452.411875 116.176562)scale(0.14 -0.14)">
      <use xlink:href="#DejaVuSans-79"/>
      <use x="78.710938" xlink:href="#DejaVuSans-114"/>
      <use x="119.808594" xlink:href="#DejaVuSans-100"/>
      <use x="183.285156" xlink:href="#DejaVuSans-101"/>
      <use x="244.808594" xlink:href="#DejaVuSans-114"/>
      <use x="285.921875" xlink:href="#DejaVuSans-32"/>
      <use x="317.708984" xlink:href="#DejaVuSans-51"/>
     </g>
    </g>
   </g>
  </g>
 </g>
 <defs>
  <clipPath id="p7fdcd25aec">
   <rect height="332.64" width="446.4" x="72" y="51.84"/>
  </clipPath>
 </defs>
</svg>
