<?xml version="1.0" encoding="utf-8" standalone="no"?>
<!DOCTYPE svg PUBLIC "-//W3C//DTD SVG 1.1//EN"
  "http://www.w3.org/Graphics/SVG/1.1/DTD/svg11.dtd">
<!-- Created with matplotlib (https://matplotlib.org/) -->
<svg height="432pt" version="1.1" viewBox="0 0 576 432" width="576pt" xmlns="http://www.w3.org/2000/svg" xmlns:xlink="http://www.w3.org/1999/xlink">
 <defs>
  <style type="text/css">
*{stroke-linecap:butt;stroke-linejoin:round;}
  </style>
 </defs>
 <g id="figure_1">
  <g id="patch_1">
   <path d="M 0 432 
L 576 432 
L 576 0 
L 0 0 
z
" style="fill:#ffffff;"/>
  </g>
  <g id="axes_1">
   <g id="patch_2">
    <path d="M 72 384.48 
L 518.4 384.48 
L 518.4 51.84 
L 72 51.84 
z
" style="fill:#ffffff;"/>
   </g>
   <g id="matplotlib.axis_1">
    <g id="xtick_1">
     <g id="line2d_1">
      <defs>
       <path d="M 0 0 
L 0 3.5 
" id="m3bbaffb8e4" style="stroke:#000000;stroke-width:0.8;"/>
      </defs>
      <g>
       <use style="stroke:#000000;stroke-width:0.8;" x="92.290909" xlink:href="#m3bbaffb8e4" y="384.48"/>
      </g>
     </g>
     <g id="text_1">
      <!-- 0 -->
      <defs>
       <path d="M 31.78125 66.40625 
Q 24.171875 66.40625 20.328125 58.90625 
Q 16.5 51.421875 16.5 36.375 
Q 16.5 21.390625 20.328125 13.890625 
Q 24.171875 6.390625 31.78125 6.390625 
Q 39.453125 6.390625 43.28125 13.890625 
Q 47.125 21.390625 47.125 36.375 
Q 47.125 51.421875 43.28125 58.90625 
Q 39.453125 66.40625 31.78125 66.40625 
z
M 31.78125 74.21875 
Q 44.046875 74.21875 50.515625 64.515625 
Q 56.984375 54.828125 56.984375 36.375 
Q 56.984375 17.96875 50.515625 8.265625 
Q 44.046875 -1.421875 31.78125 -1.421875 
Q 19.53125 -1.421875 13.0625 8.265625 
Q 6.59375 17.96875 6.59375 36.375 
Q 6.59375 54.828125 13.0625 64.515625 
Q 19.53125 74.21875 31.78125 74.21875 
z
" id="DejaVuSans-48"/>
      </defs>
      <g transform="translate(88.473409 400.598125)scale(0.12 -0.12)">
       <use xlink:href="#DejaVuSans-48"/>
      </g>
     </g>
    </g>
    <g id="xtick_2">
     <g id="line2d_2">
      <g>
       <use style="stroke:#000000;stroke-width:0.8;" x="169.737127" xlink:href="#m3bbaffb8e4" y="384.48"/>
      </g>
     </g>
     <g id="text_2">
      <!-- 50 -->
      <defs>
       <path d="M 10.796875 72.90625 
L 49.515625 72.90625 
L 49.515625 64.59375 
L 19.828125 64.59375 
L 19.828125 46.734375 
Q 21.96875 47.46875 24.109375 47.828125 
Q 26.265625 48.1875 28.421875 48.1875 
Q 40.625 48.1875 47.75 41.5 
Q 54.890625 34.8125 54.890625 23.390625 
Q 54.890625 11.625 47.5625 5.09375 
Q 40.234375 -1.421875 26.90625 -1.421875 
Q 22.3125 -1.421875 17.546875 -0.640625 
Q 12.796875 0.140625 7.71875 1.703125 
L 7.71875 11.625 
Q 12.109375 9.234375 16.796875 8.0625 
Q 21.484375 6.890625 26.703125 6.890625 
Q 35.15625 6.890625 40.078125 11.328125 
Q 45.015625 15.765625 45.015625 23.390625 
Q 45.015625 31 40.078125 35.4375 
Q 35.15625 39.890625 26.703125 39.890625 
Q 22.75 39.890625 18.8125 39.015625 
Q 14.890625 38.140625 10.796875 36.28125 
z
" id="DejaVuSans-53"/>
      </defs>
      <g transform="translate(162.102127 400.598125)scale(0.12 -0.12)">
       <use xlink:href="#DejaVuSans-53"/>
       <use x="63.623047" xlink:href="#DejaVuSans-48"/>
      </g>
     </g>
    </g>
    <g id="xtick_3">
     <g id="line2d_3">
      <g>
       <use style="stroke:#000000;stroke-width:0.8;" x="247.183345" xlink:href="#m3bbaffb8e4" y="384.48"/>
      </g>
     </g>
     <g id="text_3">
      <!-- 100 -->
      <defs>
       <path d="M 12.40625 8.296875 
L 28.515625 8.296875 
L 28.515625 63.921875 
L 10.984375 60.40625 
L 10.984375 69.390625 
L 28.421875 72.90625 
L 38.28125 72.90625 
L 38.28125 8.296875 
L 54.390625 8.296875 
L 54.390625 0 
L 12.40625 0 
z
" id="DejaVuSans-49"/>
      </defs>
      <g transform="translate(235.730845 400.598125)scale(0.12 -0.12)">
       <use xlink:href="#DejaVuSans-49"/>
       <use x="63.623047" xlink:href="#DejaVuSans-48"/>
       <use x="127.246094" xlink:href="#DejaVuSans-48"/>
      </g>
     </g>
    </g>
    <g id="xtick_4">
     <g id="line2d_4">
      <g>
       <use style="stroke:#000000;stroke-width:0.8;" x="324.629563" xlink:href="#m3bbaffb8e4" y="384.48"/>
      </g>
     </g>
     <g id="text_4">
      <!-- 150 -->
      <g transform="translate(313.177063 400.598125)scale(0.12 -0.12)">
       <use xlink:href="#DejaVuSans-49"/>
       <use x="63.623047" xlink:href="#DejaVuSans-53"/>
       <use x="127.246094" xlink:href="#DejaVuSans-48"/>
      </g>
     </g>
    </g>
    <g id="xtick_5">
     <g id="line2d_5">
      <g>
       <use style="stroke:#000000;stroke-width:0.8;" x="402.075781" xlink:href="#m3bbaffb8e4" y="384.48"/>
      </g>
     </g>
     <g id="text_5">
      <!-- 200 -->
      <defs>
       <path d="M 19.1875 8.296875 
L 53.609375 8.296875 
L 53.609375 0 
L 7.328125 0 
L 7.328125 8.296875 
Q 12.9375 14.109375 22.625 23.890625 
Q 32.328125 33.6875 34.8125 36.53125 
Q 39.546875 41.84375 41.421875 45.53125 
Q 43.3125 49.21875 43.3125 52.78125 
Q 43.3125 58.59375 39.234375 62.25 
Q 35.15625 65.921875 28.609375 65.921875 
Q 23.96875 65.921875 18.8125 64.3125 
Q 13.671875 62.703125 7.8125 59.421875 
L 7.8125 69.390625 
Q 13.765625 71.78125 18.9375 73 
Q 24.125 74.21875 28.421875 74.21875 
Q 39.75 74.21875 46.484375 68.546875 
Q 53.21875 62.890625 53.21875 53.421875 
Q 53.21875 48.921875 51.53125 44.890625 
Q 49.859375 40.875 45.40625 35.40625 
Q 44.1875 33.984375 37.640625 27.21875 
Q 31.109375 20.453125 19.1875 8.296875 
z
" id="DejaVuSans-50"/>
      </defs>
      <g transform="translate(390.623281 400.598125)scale(0.12 -0.12)">
       <use xlink:href="#DejaVuSans-50"/>
       <use x="63.623047" xlink:href="#DejaVuSans-48"/>
       <use x="127.246094" xlink:href="#DejaVuSans-48"/>
      </g>
     </g>
    </g>
    <g id="xtick_6">
     <g id="line2d_6">
      <g>
       <use style="stroke:#000000;stroke-width:0.8;" x="479.521999" xlink:href="#m3bbaffb8e4" y="384.48"/>
      </g>
     </g>
     <g id="text_6">
      <!-- 250 -->
      <g transform="translate(468.069499 400.598125)scale(0.12 -0.12)">
       <use xlink:href="#DejaVuSans-50"/>
       <use x="63.623047" xlink:href="#DejaVuSans-53"/>
       <use x="127.246094" xlink:href="#DejaVuSans-48"/>
      </g>
     </g>
    </g>
    <g id="text_7">
     <!-- Index -->
     <defs>
      <path d="M 9.8125 72.90625 
L 19.671875 72.90625 
L 19.671875 0 
L 9.8125 0 
z
" id="DejaVuSans-73"/>
      <path d="M 54.890625 33.015625 
L 54.890625 0 
L 45.90625 0 
L 45.90625 32.71875 
Q 45.90625 40.484375 42.875 44.328125 
Q 39.84375 48.1875 33.796875 48.1875 
Q 26.515625 48.1875 22.3125 43.546875 
Q 18.109375 38.921875 18.109375 30.90625 
L 18.109375 0 
L 9.078125 0 
L 9.078125 54.6875 
L 18.109375 54.6875 
L 18.109375 46.1875 
Q 21.34375 51.125 25.703125 53.5625 
Q 30.078125 56 35.796875 56 
Q 45.21875 56 50.046875 50.171875 
Q 54.890625 44.34375 54.890625 33.015625 
z
" id="DejaVuSans-110"/>
      <path d="M 45.40625 46.390625 
L 45.40625 75.984375 
L 54.390625 75.984375 
L 54.390625 0 
L 45.40625 0 
L 45.40625 8.203125 
Q 42.578125 3.328125 38.25 0.953125 
Q 33.9375 -1.421875 27.875 -1.421875 
Q 17.96875 -1.421875 11.734375 6.484375 
Q 5.515625 14.40625 5.515625 27.296875 
Q 5.515625 40.1875 11.734375 48.09375 
Q 17.96875 56 27.875 56 
Q 33.9375 56 38.25 53.625 
Q 42.578125 51.265625 45.40625 46.390625 
z
M 14.796875 27.296875 
Q 14.796875 17.390625 18.875 11.75 
Q 22.953125 6.109375 30.078125 6.109375 
Q 37.203125 6.109375 41.296875 11.75 
Q 45.40625 17.390625 45.40625 27.296875 
Q 45.40625 37.203125 41.296875 42.84375 
Q 37.203125 48.484375 30.078125 48.484375 
Q 22.953125 48.484375 18.875 42.84375 
Q 14.796875 37.203125 14.796875 27.296875 
z
" id="DejaVuSans-100"/>
      <path d="M 56.203125 29.59375 
L 56.203125 25.203125 
L 14.890625 25.203125 
Q 15.484375 15.921875 20.484375 11.0625 
Q 25.484375 6.203125 34.421875 6.203125 
Q 39.59375 6.203125 44.453125 7.46875 
Q 49.3125 8.734375 54.109375 11.28125 
L 54.109375 2.78125 
Q 49.265625 0.734375 44.1875 -0.34375 
Q 39.109375 -1.421875 33.890625 -1.421875 
Q 20.796875 -1.421875 13.15625 6.1875 
Q 5.515625 13.8125 5.515625 26.8125 
Q 5.515625 40.234375 12.765625 48.109375 
Q 20.015625 56 32.328125 56 
Q 43.359375 56 49.78125 48.890625 
Q 56.203125 41.796875 56.203125 29.59375 
z
M 47.21875 32.234375 
Q 47.125 39.59375 43.09375 43.984375 
Q 39.0625 48.390625 32.421875 48.390625 
Q 24.90625 48.390625 20.390625 44.140625 
Q 15.875 39.890625 15.1875 32.171875 
z
" id="DejaVuSans-101"/>
      <path d="M 54.890625 54.6875 
L 35.109375 28.078125 
L 55.90625 0 
L 45.3125 0 
L 29.390625 21.484375 
L 13.484375 0 
L 2.875 0 
L 24.125 28.609375 
L 4.6875 54.6875 
L 15.28125 54.6875 
L 29.78125 35.203125 
L 44.28125 54.6875 
z
" id="DejaVuSans-120"/>
     </defs>
     <g transform="translate(275.805625 417.731562)scale(0.14 -0.14)">
      <use xlink:href="#DejaVuSans-73"/>
      <use x="29.492188" xlink:href="#DejaVuSans-110"/>
      <use x="92.871094" xlink:href="#DejaVuSans-100"/>
      <use x="156.347656" xlink:href="#DejaVuSans-101"/>
      <use x="217.855469" xlink:href="#DejaVuSans-120"/>
     </g>
    </g>
   </g>
   <g id="matplotlib.axis_2">
    <g id="ytick_1">
     <g id="line2d_7">
      <defs>
       <path d="M 0 0 
L -3.5 0 
" id="mb0843e3536" style="stroke:#000000;stroke-width:0.8;"/>
      </defs>
      <g>
       <use style="stroke:#000000;stroke-width:0.8;" x="72" xlink:href="#mb0843e3536" y="377.891661"/>
      </g>
     </g>
     <g id="text_8">
      <!-- 0 -->
      <g transform="translate(57.365 382.450724)scale(0.12 -0.12)">
       <use xlink:href="#DejaVuSans-48"/>
      </g>
     </g>
    </g>
    <g id="ytick_2">
     <g id="line2d_8">
      <g>
       <use style="stroke:#000000;stroke-width:0.8;" x="72" xlink:href="#mb0843e3536" y="314.694169"/>
      </g>
     </g>
     <g id="text_9">
      <!-- 500 -->
      <g transform="translate(42.095 319.253232)scale(0.12 -0.12)">
       <use xlink:href="#DejaVuSans-53"/>
       <use x="63.623047" xlink:href="#DejaVuSans-48"/>
       <use x="127.246094" xlink:href="#DejaVuSans-48"/>
      </g>
     </g>
    </g>
    <g id="ytick_3">
     <g id="line2d_9">
      <g>
       <use style="stroke:#000000;stroke-width:0.8;" x="72" xlink:href="#mb0843e3536" y="251.496677"/>
      </g>
     </g>
     <g id="text_10">
      <!-- 1000 -->
      <g transform="translate(34.46 256.05574)scale(0.12 -0.12)">
       <use xlink:href="#DejaVuSans-49"/>
       <use x="63.623047" xlink:href="#DejaVuSans-48"/>
       <use x="127.246094" xlink:href="#DejaVuSans-48"/>
       <use x="190.869141" xlink:href="#DejaVuSans-48"/>
      </g>
     </g>
    </g>
    <g id="ytick_4">
     <g id="line2d_10">
      <g>
       <use style="stroke:#000000;stroke-width:0.8;" x="72" xlink:href="#mb0843e3536" y="188.299185"/>
      </g>
     </g>
     <g id="text_11">
      <!-- 1500 -->
      <g transform="translate(34.46 192.858247)scale(0.12 -0.12)">
       <use xlink:href="#DejaVuSans-49"/>
       <use x="63.623047" xlink:href="#DejaVuSans-53"/>
       <use x="127.246094" xlink:href="#DejaVuSans-48"/>
       <use x="190.869141" xlink:href="#DejaVuSans-48"/>
      </g>
     </g>
    </g>
    <g id="ytick_5">
     <g id="line2d_11">
      <g>
       <use style="stroke:#000000;stroke-width:0.8;" x="72" xlink:href="#mb0843e3536" y="125.101693"/>
      </g>
     </g>
     <g id="text_12">
      <!-- 2000 -->
      <g transform="translate(34.46 129.660755)scale(0.12 -0.12)">
       <use xlink:href="#DejaVuSans-50"/>
       <use x="63.623047" xlink:href="#DejaVuSans-48"/>
       <use x="127.246094" xlink:href="#DejaVuSans-48"/>
       <use x="190.869141" xlink:href="#DejaVuSans-48"/>
      </g>
     </g>
    </g>
    <g id="ytick_6">
     <g id="line2d_12">
      <g>
       <use style="stroke:#000000;stroke-width:0.8;" x="72" xlink:href="#mb0843e3536" y="61.904201"/>
      </g>
     </g>
     <g id="text_13">
      <!-- 2500 -->
      <g transform="translate(34.46 66.463263)scale(0.12 -0.12)">
       <use xlink:href="#DejaVuSans-50"/>
       <use x="63.623047" xlink:href="#DejaVuSans-53"/>
       <use x="127.246094" xlink:href="#DejaVuSans-48"/>
       <use x="190.869141" xlink:href="#DejaVuSans-48"/>
      </g>
     </g>
    </g>
    <g id="text_14">
     <!-- Salary -->
     <defs>
      <path d="M 53.515625 70.515625 
L 53.515625 60.890625 
Q 47.90625 63.578125 42.921875 64.890625 
Q 37.9375 66.21875 33.296875 66.21875 
Q 25.25 66.21875 20.875 63.09375 
Q 16.5 59.96875 16.5 54.203125 
Q 16.5 49.359375 19.40625 46.890625 
Q 22.3125 44.4375 30.421875 42.921875 
L 36.375 41.703125 
Q 47.40625 39.59375 52.65625 34.296875 
Q 57.90625 29 57.90625 20.125 
Q 57.90625 9.515625 50.796875 4.046875 
Q 43.703125 -1.421875 29.984375 -1.421875 
Q 24.8125 -1.421875 18.96875 -0.25 
Q 13.140625 0.921875 6.890625 3.21875 
L 6.890625 13.375 
Q 12.890625 10.015625 18.65625 8.296875 
Q 24.421875 6.59375 29.984375 6.59375 
Q 38.421875 6.59375 43.015625 9.90625 
Q 47.609375 13.234375 47.609375 19.390625 
Q 47.609375 24.75 44.3125 27.78125 
Q 41.015625 30.8125 33.5 32.328125 
L 27.484375 33.5 
Q 16.453125 35.6875 11.515625 40.375 
Q 6.59375 45.0625 6.59375 53.421875 
Q 6.59375 63.09375 13.40625 68.65625 
Q 20.21875 74.21875 32.171875 74.21875 
Q 37.3125 74.21875 42.625 73.28125 
Q 47.953125 72.359375 53.515625 70.515625 
z
" id="DejaVuSans-83"/>
      <path d="M 34.28125 27.484375 
Q 23.390625 27.484375 19.1875 25 
Q 14.984375 22.515625 14.984375 16.5 
Q 14.984375 11.71875 18.140625 8.90625 
Q 21.296875 6.109375 26.703125 6.109375 
Q 34.1875 6.109375 38.703125 11.40625 
Q 43.21875 16.703125 43.21875 25.484375 
L 43.21875 27.484375 
z
M 52.203125 31.203125 
L 52.203125 0 
L 43.21875 0 
L 43.21875 8.296875 
Q 40.140625 3.328125 35.546875 0.953125 
Q 30.953125 -1.421875 24.3125 -1.421875 
Q 15.921875 -1.421875 10.953125 3.296875 
Q 6 8.015625 6 15.921875 
Q 6 25.140625 12.171875 29.828125 
Q 18.359375 34.515625 30.609375 34.515625 
L 43.21875 34.515625 
L 43.21875 35.40625 
Q 43.21875 41.609375 39.140625 45 
Q 35.0625 48.390625 27.6875 48.390625 
Q 23 48.390625 18.546875 47.265625 
Q 14.109375 46.140625 10.015625 43.890625 
L 10.015625 52.203125 
Q 14.9375 54.109375 19.578125 55.046875 
Q 24.21875 56 28.609375 56 
Q 40.484375 56 46.34375 49.84375 
Q 52.203125 43.703125 52.203125 31.203125 
z
" id="DejaVuSans-97"/>
      <path d="M 9.421875 75.984375 
L 18.40625 75.984375 
L 18.40625 0 
L 9.421875 0 
z
" id="DejaVuSans-108"/>
      <path d="M 41.109375 46.296875 
Q 39.59375 47.171875 37.8125 47.578125 
Q 36.03125 48 33.890625 48 
Q 26.265625 48 22.1875 43.046875 
Q 18.109375 38.09375 18.109375 28.8125 
L 18.109375 0 
L 9.078125 0 
L 9.078125 54.6875 
L 18.109375 54.6875 
L 18.109375 46.1875 
Q 20.953125 51.171875 25.484375 53.578125 
Q 30.03125 56 36.53125 56 
Q 37.453125 56 38.578125 55.875 
Q 39.703125 55.765625 41.0625 55.515625 
z
" id="DejaVuSans-114"/>
      <path d="M 32.171875 -5.078125 
Q 28.375 -14.84375 24.75 -17.8125 
Q 21.140625 -20.796875 15.09375 -20.796875 
L 7.90625 -20.796875 
L 7.90625 -13.28125 
L 13.1875 -13.28125 
Q 16.890625 -13.28125 18.9375 -11.515625 
Q 21 -9.765625 23.484375 -3.21875 
L 25.09375 0.875 
L 2.984375 54.6875 
L 12.5 54.6875 
L 29.59375 11.921875 
L 46.6875 54.6875 
L 56.203125 54.6875 
z
" id="DejaVuSans-121"/>
     </defs>
     <g transform="translate(27.548437 240.14875)rotate(-90)scale(0.14 -0.14)">
      <use xlink:href="#DejaVuSans-83"/>
      <use x="63.476562" xlink:href="#DejaVuSans-97"/>
      <use x="124.755859" xlink:href="#DejaVuSans-108"/>
      <use x="152.539062" xlink:href="#DejaVuSans-97"/>
      <use x="213.818359" xlink:href="#DejaVuSans-114"/>
      <use x="254.931641" xlink:href="#DejaVuSans-121"/>
     </g>
    </g>
   </g>
   <g id="line2d_13">
    <defs>
     <path d="M 0 3 
C 0.795609 3 1.55874 2.683901 2.12132 2.12132 
C 2.683901 1.55874 3 0.795609 3 0 
C 3 -0.795609 2.683901 -1.55874 2.12132 -2.12132 
C 1.55874 -2.683901 0.795609 -3 0 -3 
C -0.795609 -3 -1.55874 -2.683901 -2.12132 -2.12132 
C -2.683901 -1.55874 -3 -0.795609 -3 0 
C -3 0.795609 -2.683901 1.55874 -2.12132 2.12132 
C -1.55874 2.683901 -0.795609 3 0 3 
z
" id="mbd9566b4d3" style="stroke:#1f77b4;"/>
    </defs>
    <g clip-path="url(#pb36a164c32)">
     <use style="fill:#1f77b4;stroke:#1f77b4;" x="92.290909" xlink:href="#mbd9566b4d3" y="317.854044"/>
     <use style="fill:#1f77b4;stroke:#1f77b4;" x="93.839833" xlink:href="#mbd9566b4d3" y="317.222069"/>
     <use style="fill:#1f77b4;stroke:#1f77b4;" x="95.388758" xlink:href="#mbd9566b4d3" y="314.694169"/>
     <use style="fill:#1f77b4;stroke:#1f77b4;" x="96.937682" xlink:href="#mbd9566b4d3" y="366.32652"/>
     <use style="fill:#1f77b4;stroke:#1f77b4;" x="98.486607" xlink:href="#mbd9566b4d3" y="283.095423"/>
     <use style="fill:#1f77b4;stroke:#1f77b4;" x="100.035531" xlink:href="#mbd9566b4d3" y="369.044013"/>
     <use style="fill:#1f77b4;stroke:#1f77b4;" x="101.584455" xlink:href="#mbd9566b4d3" y="365.252163"/>
     <use style="fill:#1f77b4;stroke:#1f77b4;" x="103.13338" xlink:href="#mbd9566b4d3" y="368.412038"/>
     <use style="fill:#1f77b4;stroke:#1f77b4;" x="104.682304" xlink:href="#mbd9566b4d3" y="238.857179"/>
     <use style="fill:#1f77b4;stroke:#1f77b4;" x="106.231228" xlink:href="#mbd9566b4d3" y="312.52738"/>
     <use style="fill:#1f77b4;stroke:#1f77b4;" x="107.780153" xlink:href="#mbd9566b4d3" y="313.114232"/>
     <use style="fill:#1f77b4;stroke:#1f77b4;" x="109.329077" xlink:href="#mbd9566b4d3" y="308.37442"/>
     <use style="fill:#1f77b4;stroke:#1f77b4;" x="110.878001" xlink:href="#mbd9566b4d3" y="289.415172"/>
     <use style="fill:#1f77b4;stroke:#1f77b4;" x="112.426926" xlink:href="#mbd9566b4d3" y="347.556865"/>
     <use style="fill:#1f77b4;stroke:#1f77b4;" x="113.97585" xlink:href="#mbd9566b4d3" y="279.935549"/>
     <use style="fill:#1f77b4;stroke:#1f77b4;" x="115.524774" xlink:href="#mbd9566b4d3" y="355.772539"/>
     <use style="fill:#1f77b4;stroke:#1f77b4;" x="117.073699" xlink:href="#mbd9566b4d3" y="360.828339"/>
     <use style="fill:#1f77b4;stroke:#1f77b4;" x="118.622623" xlink:href="#mbd9566b4d3" y="365.252163"/>
     <use style="fill:#1f77b4;stroke:#1f77b4;" x="120.171548" xlink:href="#mbd9566b4d3" y="363.356238"/>
     <use style="fill:#1f77b4;stroke:#1f77b4;" x="121.720472" xlink:href="#mbd9566b4d3" y="302.054671"/>
     <use style="fill:#1f77b4;stroke:#1f77b4;" x="123.269396" xlink:href="#mbd9566b4d3" y="279.724848"/>
     <use style="fill:#1f77b4;stroke:#1f77b4;" x="124.818321" xlink:href="#mbd9566b4d3" y="281.199498"/>
     <use style="fill:#1f77b4;stroke:#1f77b4;" x="126.367245" xlink:href="#mbd9566b4d3" y="288.361923"/>
     <use style="fill:#1f77b4;stroke:#1f77b4;" x="127.916169" xlink:href="#mbd9566b4d3" y="283.095423"/>
     <use style="fill:#1f77b4;stroke:#1f77b4;" x="129.465094" xlink:href="#mbd9566b4d3" y="298.894796"/>
     <use style="fill:#1f77b4;stroke:#1f77b4;" x="131.014018" xlink:href="#mbd9566b4d3" y="264.136176"/>
     <use style="fill:#1f77b4;stroke:#1f77b4;" x="132.562942" xlink:href="#mbd9566b4d3" y="363.988213"/>
     <use style="fill:#1f77b4;stroke:#1f77b4;" x="134.111867" xlink:href="#mbd9566b4d3" y="300.474734"/>
     <use style="fill:#1f77b4;stroke:#1f77b4;" x="135.660791" xlink:href="#mbd9566b4d3" y="339.973166"/>
     <use style="fill:#1f77b4;stroke:#1f77b4;" x="137.209715" xlink:href="#mbd9566b4d3" y="270.455925"/>
     <use style="fill:#1f77b4;stroke:#1f77b4;" x="138.75864" xlink:href="#mbd9566b4d3" y="366.516113"/>
     <use style="fill:#1f77b4;stroke:#1f77b4;" x="140.307564" xlink:href="#mbd9566b4d3" y="369.36"/>
     <use style="fill:#1f77b4;stroke:#1f77b4;" x="141.856489" xlink:href="#mbd9566b4d3" y="355.140564"/>
     <use style="fill:#1f77b4;stroke:#1f77b4;" x="143.405413" xlink:href="#mbd9566b4d3" y="339.341191"/>
     <use style="fill:#1f77b4;stroke:#1f77b4;" x="144.954337" xlink:href="#mbd9566b4d3" y="350.71674"/>
     <use style="fill:#1f77b4;stroke:#1f77b4;" x="146.503262" xlink:href="#mbd9566b4d3" y="346.608903"/>
     <use style="fill:#1f77b4;stroke:#1f77b4;" x="148.052186" xlink:href="#mbd9566b4d3" y="274.879749"/>
     <use style="fill:#1f77b4;stroke:#1f77b4;" x="149.60111" xlink:href="#mbd9566b4d3" y="267.29605"/>
     <use style="fill:#1f77b4;stroke:#1f77b4;" x="151.150035" xlink:href="#mbd9566b4d3" y="369.044013"/>
     <use style="fill:#1f77b4;stroke:#1f77b4;" x="152.698959" xlink:href="#mbd9566b4d3" y="226.21768"/>
     <use style="fill:#1f77b4;stroke:#1f77b4;" x="154.247883" xlink:href="#mbd9566b4d3" y="292.575047"/>
     <use style="fill:#1f77b4;stroke:#1f77b4;" x="155.796808" xlink:href="#mbd9566b4d3" y="325.437743"/>
     <use style="fill:#1f77b4;stroke:#1f77b4;" x="157.345732" xlink:href="#mbd9566b4d3" y="334.917367"/>
     <use style="fill:#1f77b4;stroke:#1f77b4;" x="158.894656" xlink:href="#mbd9566b4d3" y="325.227043"/>
     <use style="fill:#1f77b4;stroke:#1f77b4;" x="160.443581" xlink:href="#mbd9566b4d3" y="207.258433"/>
     <use style="fill:#1f77b4;stroke:#1f77b4;" x="161.992505" xlink:href="#mbd9566b4d3" y="366.516113"/>
     <use style="fill:#1f77b4;stroke:#1f77b4;" x="163.54143" xlink:href="#mbd9566b4d3" y="343.133041"/>
     <use style="fill:#1f77b4;stroke:#1f77b4;" x="165.090354" xlink:href="#mbd9566b4d3" y="348.820815"/>
     <use style="fill:#1f77b4;stroke:#1f77b4;" x="166.639278" xlink:href="#mbd9566b4d3" y="349.45279"/>
     <use style="fill:#1f77b4;stroke:#1f77b4;" x="168.188203" xlink:href="#mbd9566b4d3" y="257.816426"/>
     <use style="fill:#1f77b4;stroke:#1f77b4;" x="169.737127" xlink:href="#mbd9566b4d3" y="368.412038"/>
     <use style="fill:#1f77b4;stroke:#1f77b4;" x="171.286051" xlink:href="#mbd9566b4d3" y="364.620188"/>
     <use style="fill:#1f77b4;stroke:#1f77b4;" x="172.834976" xlink:href="#mbd9566b4d3" y="337.445266"/>
     <use style="fill:#1f77b4;stroke:#1f77b4;" x="174.3839" xlink:href="#mbd9566b4d3" y="270.455925"/>
     <use style="fill:#1f77b4;stroke:#1f77b4;" x="175.932824" xlink:href="#mbd9566b4d3" y="310.270345"/>
     <use style="fill:#1f77b4;stroke:#1f77b4;" x="177.481749" xlink:href="#mbd9566b4d3" y="259.923052"/>
     <use style="fill:#1f77b4;stroke:#1f77b4;" x="179.030673" xlink:href="#mbd9566b4d3" y="270.455925"/>
     <use style="fill:#1f77b4;stroke:#1f77b4;" x="180.579598" xlink:href="#mbd9566b4d3" y="351.348715"/>
     <use style="fill:#1f77b4;stroke:#1f77b4;" x="182.128522" xlink:href="#mbd9566b4d3" y="336.813292"/>
     <use style="fill:#1f77b4;stroke:#1f77b4;" x="183.677446" xlink:href="#mbd9566b4d3" y="343.133041"/>
     <use style="fill:#1f77b4;stroke:#1f77b4;" x="185.226371" xlink:href="#mbd9566b4d3" y="321.013918"/>
     <use style="fill:#1f77b4;stroke:#1f77b4;" x="186.775295" xlink:href="#mbd9566b4d3" y="128.261567"/>
     <use style="fill:#1f77b4;stroke:#1f77b4;" x="188.324219" xlink:href="#mbd9566b4d3" y="137.741191"/>
     <use style="fill:#1f77b4;stroke:#1f77b4;" x="189.873144" xlink:href="#mbd9566b4d3" y="302.054671"/>
     <use style="fill:#1f77b4;stroke:#1f77b4;" x="191.422068" xlink:href="#mbd9566b4d3" y="246.230177"/>
     <use style="fill:#1f77b4;stroke:#1f77b4;" x="192.970992" xlink:href="#mbd9566b4d3" y="363.988213"/>
     <use style="fill:#1f77b4;stroke:#1f77b4;" x="194.519917" xlink:href="#mbd9566b4d3" y="345.028966"/>
     <use style="fill:#1f77b4;stroke:#1f77b4;" x="196.068841" xlink:href="#mbd9566b4d3" y="317.854044"/>
     <use style="fill:#1f77b4;stroke:#1f77b4;" x="197.617765" xlink:href="#mbd9566b4d3" y="323.352226"/>
     <use style="fill:#1f77b4;stroke:#1f77b4;" x="199.16669" xlink:href="#mbd9566b4d3" y="223.689781"/>
     <use style="fill:#1f77b4;stroke:#1f77b4;" x="200.715614" xlink:href="#mbd9566b4d3" y="369.044013"/>
     <use style="fill:#1f77b4;stroke:#1f77b4;" x="202.264539" xlink:href="#mbd9566b4d3" y="359.564389"/>
     <use style="fill:#1f77b4;stroke:#1f77b4;" x="203.813463" xlink:href="#mbd9566b4d3" y="302.686646"/>
     <use style="fill:#1f77b4;stroke:#1f77b4;" x="205.362387" xlink:href="#mbd9566b4d3" y="142.612454"/>
     <use style="fill:#1f77b4;stroke:#1f77b4;" x="206.911312" xlink:href="#mbd9566b4d3" y="339.973166"/>
     <use style="fill:#1f77b4;stroke:#1f77b4;" x="208.460236" xlink:href="#mbd9566b4d3" y="315.958119"/>
     <use style="fill:#1f77b4;stroke:#1f77b4;" x="210.00916" xlink:href="#mbd9566b4d3" y="66.96"/>
     <use style="fill:#1f77b4;stroke:#1f77b4;" x="211.558085" xlink:href="#mbd9566b4d3" y="330.493542"/>
     <use style="fill:#1f77b4;stroke:#1f77b4;" x="213.107009" xlink:href="#mbd9566b4d3" y="283.095423"/>
     <use style="fill:#1f77b4;stroke:#1f77b4;" x="214.655933" xlink:href="#mbd9566b4d3" y="229.377555"/>
     <use style="fill:#1f77b4;stroke:#1f77b4;" x="216.204858" xlink:href="#mbd9566b4d3" y="369.044013"/>
     <use style="fill:#1f77b4;stroke:#1f77b4;" x="217.753782" xlink:href="#mbd9566b4d3" y="188.299185"/>
     <use style="fill:#1f77b4;stroke:#1f77b4;" x="219.302706" xlink:href="#mbd9566b4d3" y="329.229592"/>
     <use style="fill:#1f77b4;stroke:#1f77b4;" x="220.851631" xlink:href="#mbd9566b4d3" y="134.509145"/>
     <use style="fill:#1f77b4;stroke:#1f77b4;" x="222.400555" xlink:href="#mbd9566b4d3" y="350.71674"/>
     <use style="fill:#1f77b4;stroke:#1f77b4;" x="223.94948" xlink:href="#mbd9566b4d3" y="264.136176"/>
     <use style="fill:#1f77b4;stroke:#1f77b4;" x="225.498404" xlink:href="#mbd9566b4d3" y="358.300439"/>
     <use style="fill:#1f77b4;stroke:#1f77b4;" x="227.047328" xlink:href="#mbd9566b4d3" y="289.415172"/>
     <use style="fill:#1f77b4;stroke:#1f77b4;" x="228.596253" xlink:href="#mbd9566b4d3" y="310.270345"/>
     <use style="fill:#1f77b4;stroke:#1f77b4;" x="230.145177" xlink:href="#mbd9566b4d3" y="332.07348"/>
     <use style="fill:#1f77b4;stroke:#1f77b4;" x="231.694101" xlink:href="#mbd9566b4d3" y="285.202048"/>
     <use style="fill:#1f77b4;stroke:#1f77b4;" x="233.243026" xlink:href="#mbd9566b4d3" y="352.612665"/>
     <use style="fill:#1f77b4;stroke:#1f77b4;" x="234.79195" xlink:href="#mbd9566b4d3" y="327.333668"/>
     <use style="fill:#1f77b4;stroke:#1f77b4;" x="236.340874" xlink:href="#mbd9566b4d3" y="327.333668"/>
     <use style="fill:#1f77b4;stroke:#1f77b4;" x="237.889799" xlink:href="#mbd9566b4d3" y="284.675361"/>
     <use style="fill:#1f77b4;stroke:#1f77b4;" x="239.438723" xlink:href="#mbd9566b4d3" y="314.694169"/>
     <use style="fill:#1f77b4;stroke:#1f77b4;" x="240.987647" xlink:href="#mbd9566b4d3" y="302.054671"/>
     <use style="fill:#1f77b4;stroke:#1f77b4;" x="242.536572" xlink:href="#mbd9566b4d3" y="294.154984"/>
     <use style="fill:#1f77b4;stroke:#1f77b4;" x="244.085496" xlink:href="#mbd9566b4d3" y="257.816426"/>
     <use style="fill:#1f77b4;stroke:#1f77b4;" x="245.634421" xlink:href="#mbd9566b4d3" y="283.095423"/>
     <use style="fill:#1f77b4;stroke:#1f77b4;" x="247.183345" xlink:href="#mbd9566b4d3" y="340.289154"/>
     <use style="fill:#1f77b4;stroke:#1f77b4;" x="248.732269" xlink:href="#mbd9566b4d3" y="336.813292"/>
     <use style="fill:#1f77b4;stroke:#1f77b4;" x="250.281194" xlink:href="#mbd9566b4d3" y="366.8321"/>
     <use style="fill:#1f77b4;stroke:#1f77b4;" x="251.830118" xlink:href="#mbd9566b4d3" y="355.772539"/>
     <use style="fill:#1f77b4;stroke:#1f77b4;" x="253.379042" xlink:href="#mbd9566b4d3" y="366.516113"/>
     <use style="fill:#1f77b4;stroke:#1f77b4;" x="254.927967" xlink:href="#mbd9566b4d3" y="221.477868"/>
     <use style="fill:#1f77b4;stroke:#1f77b4;" x="256.476891" xlink:href="#mbd9566b4d3" y="323.541818"/>
     <use style="fill:#1f77b4;stroke:#1f77b4;" x="258.025815" xlink:href="#mbd9566b4d3" y="365.252163"/>
     <use style="fill:#1f77b4;stroke:#1f77b4;" x="259.57474" xlink:href="#mbd9566b4d3" y="357.036489"/>
     <use style="fill:#1f77b4;stroke:#1f77b4;" x="261.123664" xlink:href="#mbd9566b4d3" y="346.292915"/>
     <use style="fill:#1f77b4;stroke:#1f77b4;" x="262.672588" xlink:href="#mbd9566b4d3" y="213.578182"/>
     <use style="fill:#1f77b4;stroke:#1f77b4;" x="264.221513" xlink:href="#mbd9566b4d3" y="280.146249"/>
     <use style="fill:#1f77b4;stroke:#1f77b4;" x="265.770437" xlink:href="#mbd9566b4d3" y="250.443428"/>
     <use style="fill:#1f77b4;stroke:#1f77b4;" x="267.319362" xlink:href="#mbd9566b4d3" y="343.133041"/>
     <use style="fill:#1f77b4;stroke:#1f77b4;" x="268.868286" xlink:href="#mbd9566b4d3" y="279.935549"/>
     <use style="fill:#1f77b4;stroke:#1f77b4;" x="270.41721" xlink:href="#mbd9566b4d3" y="270.455925"/>
     <use style="fill:#1f77b4;stroke:#1f77b4;" x="271.966135" xlink:href="#mbd9566b4d3" y="331.757492"/>
     <use style="fill:#1f77b4;stroke:#1f77b4;" x="273.515059" xlink:href="#mbd9566b4d3" y="365.884138"/>
     <use style="fill:#1f77b4;stroke:#1f77b4;" x="275.063983" xlink:href="#mbd9566b4d3" y="363.988213"/>
     <use style="fill:#1f77b4;stroke:#1f77b4;" x="276.612908" xlink:href="#mbd9566b4d3" y="365.252163"/>
     <use style="fill:#1f77b4;stroke:#1f77b4;" x="278.161832" xlink:href="#mbd9566b4d3" y="342.817053"/>
     <use style="fill:#1f77b4;stroke:#1f77b4;" x="279.710756" xlink:href="#mbd9566b4d3" y="367.780063"/>
     <use style="fill:#1f77b4;stroke:#1f77b4;" x="281.259681" xlink:href="#mbd9566b4d3" y="302.054671"/>
     <use style="fill:#1f77b4;stroke:#1f77b4;" x="282.808605" xlink:href="#mbd9566b4d3" y="352.612665"/>
     <use style="fill:#1f77b4;stroke:#1f77b4;" x="284.357529" xlink:href="#mbd9566b4d3" y="294.850157"/>
     <use style="fill:#1f77b4;stroke:#1f77b4;" x="285.906454" xlink:href="#mbd9566b4d3" y="368.412038"/>
     <use style="fill:#1f77b4;stroke:#1f77b4;" x="287.455378" xlink:href="#mbd9566b4d3" y="72.963762"/>
     <use style="fill:#1f77b4;stroke:#1f77b4;" x="289.004303" xlink:href="#mbd9566b4d3" y="346.292915"/>
     <use style="fill:#1f77b4;stroke:#1f77b4;" x="290.553227" xlink:href="#mbd9566b4d3" y="358.300439"/>
     <use style="fill:#1f77b4;stroke:#1f77b4;" x="292.102151" xlink:href="#mbd9566b4d3" y="296.998871"/>
     <use style="fill:#1f77b4;stroke:#1f77b4;" x="293.651076" xlink:href="#mbd9566b4d3" y="339.973166"/>
     <use style="fill:#1f77b4;stroke:#1f77b4;" x="295.2" xlink:href="#mbd9566b4d3" y="363.988213"/>
     <use style="fill:#1f77b4;stroke:#1f77b4;" x="296.748924" xlink:href="#mbd9566b4d3" y="273.615799"/>
     <use style="fill:#1f77b4;stroke:#1f77b4;" x="298.297849" xlink:href="#mbd9566b4d3" y="353.244639"/>
     <use style="fill:#1f77b4;stroke:#1f77b4;" x="299.846773" xlink:href="#mbd9566b4d3" y="321.013918"/>
     <use style="fill:#1f77b4;stroke:#1f77b4;" x="301.395697" xlink:href="#mbd9566b4d3" y="298.262821"/>
     <use style="fill:#1f77b4;stroke:#1f77b4;" x="302.944622" xlink:href="#mbd9566b4d3" y="366.958495"/>
     <use style="fill:#1f77b4;stroke:#1f77b4;" x="304.493546" xlink:href="#mbd9566b4d3" y="213.578182"/>
     <use style="fill:#1f77b4;stroke:#1f77b4;" x="306.042471" xlink:href="#mbd9566b4d3" y="251.496677"/>
     <use style="fill:#1f77b4;stroke:#1f77b4;" x="307.591395" xlink:href="#mbd9566b4d3" y="150.38069"/>
     <use style="fill:#1f77b4;stroke:#1f77b4;" x="309.140319" xlink:href="#mbd9566b4d3" y="212.314232"/>
     <use style="fill:#1f77b4;stroke:#1f77b4;" x="310.689244" xlink:href="#mbd9566b4d3" y="284.675361"/>
     <use style="fill:#1f77b4;stroke:#1f77b4;" x="312.238168" xlink:href="#mbd9566b4d3" y="298.894796"/>
     <use style="fill:#1f77b4;stroke:#1f77b4;" x="313.787092" xlink:href="#mbd9566b4d3" y="362.092288"/>
     <use style="fill:#1f77b4;stroke:#1f77b4;" x="315.336017" xlink:href="#mbd9566b4d3" y="246.019603"/>
     <use style="fill:#1f77b4;stroke:#1f77b4;" x="316.884941" xlink:href="#mbd9566b4d3" y="286.255298"/>
     <use style="fill:#1f77b4;stroke:#1f77b4;" x="318.433865" xlink:href="#mbd9566b4d3" y="339.973166"/>
     <use style="fill:#1f77b4;stroke:#1f77b4;" x="319.98279" xlink:href="#mbd9566b4d3" y="331.757492"/>
     <use style="fill:#1f77b4;stroke:#1f77b4;" x="321.531714" xlink:href="#mbd9566b4d3" y="368.412038"/>
     <use style="fill:#1f77b4;stroke:#1f77b4;" x="323.080638" xlink:href="#mbd9566b4d3" y="228.324305"/>
     <use style="fill:#1f77b4;stroke:#1f77b4;" x="324.629563" xlink:href="#mbd9566b4d3" y="352.296677"/>
     <use style="fill:#1f77b4;stroke:#1f77b4;" x="326.178487" xlink:href="#mbd9566b4d3" y="349.45279"/>
     <use style="fill:#1f77b4;stroke:#1f77b4;" x="327.727412" xlink:href="#mbd9566b4d3" y="311.534295"/>
     <use style="fill:#1f77b4;stroke:#1f77b4;" x="329.276336" xlink:href="#mbd9566b4d3" y="344.396991"/>
     <use style="fill:#1f77b4;stroke:#1f77b4;" x="330.82526" xlink:href="#mbd9566b4d3" y="278.355611"/>
     <use style="fill:#1f77b4;stroke:#1f77b4;" x="332.374185" xlink:href="#mbd9566b4d3" y="276.775674"/>
     <use style="fill:#1f77b4;stroke:#1f77b4;" x="333.923109" xlink:href="#mbd9566b4d3" y="303.634608"/>
     <use style="fill:#1f77b4;stroke:#1f77b4;" x="335.472033" xlink:href="#mbd9566b4d3" y="359.564389"/>
     <use style="fill:#1f77b4;stroke:#1f77b4;" x="337.020958" xlink:href="#mbd9566b4d3" y="324.805768"/>
     <use style="fill:#1f77b4;stroke:#1f77b4;" x="338.569882" xlink:href="#mbd9566b4d3" y="368.412038"/>
     <use style="fill:#1f77b4;stroke:#1f77b4;" x="340.118806" xlink:href="#mbd9566b4d3" y="305.214545"/>
     <use style="fill:#1f77b4;stroke:#1f77b4;" x="341.667731" xlink:href="#mbd9566b4d3" y="279.303574"/>
     <use style="fill:#1f77b4;stroke:#1f77b4;" x="343.216655" xlink:href="#mbd9566b4d3" y="366.516113"/>
     <use style="fill:#1f77b4;stroke:#1f77b4;" x="344.765579" xlink:href="#mbd9566b4d3" y="358.932414"/>
     <use style="fill:#1f77b4;stroke:#1f77b4;" x="346.314504" xlink:href="#mbd9566b4d3" y="289.415172"/>
     <use style="fill:#1f77b4;stroke:#1f77b4;" x="347.863428" xlink:href="#mbd9566b4d3" y="308.37442"/>
     <use style="fill:#1f77b4;stroke:#1f77b4;" x="349.412353" xlink:href="#mbd9566b4d3" y="295.734922"/>
     <use style="fill:#1f77b4;stroke:#1f77b4;" x="350.961277" xlink:href="#mbd9566b4d3" y="369.296803"/>
     <use style="fill:#1f77b4;stroke:#1f77b4;" x="352.510201" xlink:href="#mbd9566b4d3" y="365.252163"/>
     <use style="fill:#1f77b4;stroke:#1f77b4;" x="354.059126" xlink:href="#mbd9566b4d3" y="293.207022"/>
     <use style="fill:#1f77b4;stroke:#1f77b4;" x="355.60805" xlink:href="#mbd9566b4d3" y="355.772539"/>
     <use style="fill:#1f77b4;stroke:#1f77b4;" x="357.156974" xlink:href="#mbd9566b4d3" y="360.575549"/>
     <use style="fill:#1f77b4;stroke:#1f77b4;" x="358.705899" xlink:href="#mbd9566b4d3" y="109.00744"/>
     <use style="fill:#1f77b4;stroke:#1f77b4;" x="360.254823" xlink:href="#mbd9566b4d3" y="267.29605"/>
     <use style="fill:#1f77b4;stroke:#1f77b4;" x="361.803747" xlink:href="#mbd9566b4d3" y="362.724263"/>
     <use style="fill:#1f77b4;stroke:#1f77b4;" x="363.352672" xlink:href="#mbd9566b4d3" y="360.196364"/>
     <use style="fill:#1f77b4;stroke:#1f77b4;" x="364.901596" xlink:href="#mbd9566b4d3" y="351.348715"/>
     <use style="fill:#1f77b4;stroke:#1f77b4;" x="366.45052" xlink:href="#mbd9566b4d3" y="276.775674"/>
     <use style="fill:#1f77b4;stroke:#1f77b4;" x="367.999445" xlink:href="#mbd9566b4d3" y="347.556865"/>
     <use style="fill:#1f77b4;stroke:#1f77b4;" x="369.548369" xlink:href="#mbd9566b4d3" y="333.653417"/>
     <use style="fill:#1f77b4;stroke:#1f77b4;" x="371.097294" xlink:href="#mbd9566b4d3" y="355.772539"/>
     <use style="fill:#1f77b4;stroke:#1f77b4;" x="372.646218" xlink:href="#mbd9566b4d3" y="352.612665"/>
     <use style="fill:#1f77b4;stroke:#1f77b4;" x="374.195142" xlink:href="#mbd9566b4d3" y="132.685392"/>
     <use style="fill:#1f77b4;stroke:#1f77b4;" x="375.744067" xlink:href="#mbd9566b4d3" y="289.415172"/>
     <use style="fill:#1f77b4;stroke:#1f77b4;" x="377.292991" xlink:href="#mbd9566b4d3" y="283.095423"/>
     <use style="fill:#1f77b4;stroke:#1f77b4;" x="378.841915" xlink:href="#mbd9566b4d3" y="321.013918"/>
     <use style="fill:#1f77b4;stroke:#1f77b4;" x="380.39084" xlink:href="#mbd9566b4d3" y="356.151724"/>
     <use style="fill:#1f77b4;stroke:#1f77b4;" x="381.939764" xlink:href="#mbd9566b4d3" y="218.633981"/>
     <use style="fill:#1f77b4;stroke:#1f77b4;" x="383.488688" xlink:href="#mbd9566b4d3" y="283.095423"/>
     <use style="fill:#1f77b4;stroke:#1f77b4;" x="385.037613" xlink:href="#mbd9566b4d3" y="353.876614"/>
     <use style="fill:#1f77b4;stroke:#1f77b4;" x="386.586537" xlink:href="#mbd9566b4d3" y="304.582571"/>
     <use style="fill:#1f77b4;stroke:#1f77b4;" x="388.135461" xlink:href="#mbd9566b4d3" y="361.460313"/>
     <use style="fill:#1f77b4;stroke:#1f77b4;" x="389.684386" xlink:href="#mbd9566b4d3" y="321.013918"/>
     <use style="fill:#1f77b4;stroke:#1f77b4;" x="391.23331" xlink:href="#mbd9566b4d3" y="339.973166"/>
     <use style="fill:#1f77b4;stroke:#1f77b4;" x="392.782235" xlink:href="#mbd9566b4d3" y="346.292915"/>
     <use style="fill:#1f77b4;stroke:#1f77b4;" x="394.331159" xlink:href="#mbd9566b4d3" y="245.176928"/>
     <use style="fill:#1f77b4;stroke:#1f77b4;" x="395.880083" xlink:href="#mbd9566b4d3" y="350.71674"/>
     <use style="fill:#1f77b4;stroke:#1f77b4;" x="397.429008" xlink:href="#mbd9566b4d3" y="327.333668"/>
     <use style="fill:#1f77b4;stroke:#1f77b4;" x="398.977932" xlink:href="#mbd9566b4d3" y="307.11047"/>
     <use style="fill:#1f77b4;stroke:#1f77b4;" x="400.526856" xlink:href="#mbd9566b4d3" y="166.812038"/>
     <use style="fill:#1f77b4;stroke:#1f77b4;" x="402.075781" xlink:href="#mbd9566b4d3" y="316.274107"/>
     <use style="fill:#1f77b4;stroke:#1f77b4;" x="403.624705" xlink:href="#mbd9566b4d3" y="324.173793"/>
     <use style="fill:#1f77b4;stroke:#1f77b4;" x="405.173629" xlink:href="#mbd9566b4d3" y="314.694169"/>
     <use style="fill:#1f77b4;stroke:#1f77b4;" x="406.722554" xlink:href="#mbd9566b4d3" y="346.292915"/>
     <use style="fill:#1f77b4;stroke:#1f77b4;" x="408.271478" xlink:href="#mbd9566b4d3" y="327.333668"/>
     <use style="fill:#1f77b4;stroke:#1f77b4;" x="409.820402" xlink:href="#mbd9566b4d3" y="321.013918"/>
     <use style="fill:#1f77b4;stroke:#1f77b4;" x="411.369327" xlink:href="#mbd9566b4d3" y="283.095423"/>
     <use style="fill:#1f77b4;stroke:#1f77b4;" x="412.918251" xlink:href="#mbd9566b4d3" y="369.044013"/>
     <use style="fill:#1f77b4;stroke:#1f77b4;" x="414.467176" xlink:href="#mbd9566b4d3" y="267.29605"/>
     <use style="fill:#1f77b4;stroke:#1f77b4;" x="416.0161" xlink:href="#mbd9566b4d3" y="353.876614"/>
     <use style="fill:#1f77b4;stroke:#1f77b4;" x="417.565024" xlink:href="#mbd9566b4d3" y="353.750219"/>
     <use style="fill:#1f77b4;stroke:#1f77b4;" x="419.113949" xlink:href="#mbd9566b4d3" y="284.359373"/>
     <use style="fill:#1f77b4;stroke:#1f77b4;" x="420.662873" xlink:href="#mbd9566b4d3" y="346.292915"/>
     <use style="fill:#1f77b4;stroke:#1f77b4;" x="422.211797" xlink:href="#mbd9566b4d3" y="360.196364"/>
     <use style="fill:#1f77b4;stroke:#1f77b4;" x="423.760722" xlink:href="#mbd9566b4d3" y="365.56815"/>
     <use style="fill:#1f77b4;stroke:#1f77b4;" x="425.309646" xlink:href="#mbd9566b4d3" y="284.359373"/>
     <use style="fill:#1f77b4;stroke:#1f77b4;" x="426.85857" xlink:href="#mbd9566b4d3" y="360.196364"/>
     <use style="fill:#1f77b4;stroke:#1f77b4;" x="428.407495" xlink:href="#mbd9566b4d3" y="334.706666"/>
     <use style="fill:#1f77b4;stroke:#1f77b4;" x="429.956419" xlink:href="#mbd9566b4d3" y="251.496677"/>
     <use style="fill:#1f77b4;stroke:#1f77b4;" x="431.505344" xlink:href="#mbd9566b4d3" y="365.252163"/>
     <use style="fill:#1f77b4;stroke:#1f77b4;" x="433.054268" xlink:href="#mbd9566b4d3" y="366.516113"/>
     <use style="fill:#1f77b4;stroke:#1f77b4;" x="434.603192" xlink:href="#mbd9566b4d3" y="352.612665"/>
     <use style="fill:#1f77b4;stroke:#1f77b4;" x="436.152117" xlink:href="#mbd9566b4d3" y="360.828339"/>
     <use style="fill:#1f77b4;stroke:#1f77b4;" x="437.701041" xlink:href="#mbd9566b4d3" y="358.300439"/>
     <use style="fill:#1f77b4;stroke:#1f77b4;" x="439.249965" xlink:href="#mbd9566b4d3" y="317.854044"/>
     <use style="fill:#1f77b4;stroke:#1f77b4;" x="440.79889" xlink:href="#mbd9566b4d3" y="194.618934"/>
     <use style="fill:#1f77b4;stroke:#1f77b4;" x="442.347814" xlink:href="#mbd9566b4d3" y="358.932414"/>
     <use style="fill:#1f77b4;stroke:#1f77b4;" x="443.896738" xlink:href="#mbd9566b4d3" y="364.620188"/>
     <use style="fill:#1f77b4;stroke:#1f77b4;" x="445.445663" xlink:href="#mbd9566b4d3" y="333.653417"/>
     <use style="fill:#1f77b4;stroke:#1f77b4;" x="446.994587" xlink:href="#mbd9566b4d3" y="366.516113"/>
     <use style="fill:#1f77b4;stroke:#1f77b4;" x="448.543511" xlink:href="#mbd9566b4d3" y="310.90232"/>
     <use style="fill:#1f77b4;stroke:#1f77b4;" x="450.092436" xlink:href="#mbd9566b4d3" y="334.706666"/>
     <use style="fill:#1f77b4;stroke:#1f77b4;" x="451.64136" xlink:href="#mbd9566b4d3" y="259.080376"/>
     <use style="fill:#1f77b4;stroke:#1f77b4;" x="453.190285" xlink:href="#mbd9566b4d3" y="333.653417"/>
     <use style="fill:#1f77b4;stroke:#1f77b4;" x="454.739209" xlink:href="#mbd9566b4d3" y="336.602591"/>
     <use style="fill:#1f77b4;stroke:#1f77b4;" x="456.288133" xlink:href="#mbd9566b4d3" y="346.292915"/>
     <use style="fill:#1f77b4;stroke:#1f77b4;" x="457.837058" xlink:href="#mbd9566b4d3" y="284.359373"/>
     <use style="fill:#1f77b4;stroke:#1f77b4;" x="459.385982" xlink:href="#mbd9566b4d3" y="324.173793"/>
     <use style="fill:#1f77b4;stroke:#1f77b4;" x="460.934906" xlink:href="#mbd9566b4d3" y="260.976301"/>
     <use style="fill:#1f77b4;stroke:#1f77b4;" x="462.483831" xlink:href="#mbd9566b4d3" y="354.508589"/>
     <use style="fill:#1f77b4;stroke:#1f77b4;" x="464.032755" xlink:href="#mbd9566b4d3" y="261.608276"/>
     <use style="fill:#1f77b4;stroke:#1f77b4;" x="465.581679" xlink:href="#mbd9566b4d3" y="341.65839"/>
     <use style="fill:#1f77b4;stroke:#1f77b4;" x="467.130604" xlink:href="#mbd9566b4d3" y="346.92489"/>
     <use style="fill:#1f77b4;stroke:#1f77b4;" x="468.679528" xlink:href="#mbd9566b4d3" y="348.18884"/>
     <use style="fill:#1f77b4;stroke:#1f77b4;" x="470.228452" xlink:href="#mbd9566b4d3" y="232.537429"/>
     <use style="fill:#1f77b4;stroke:#1f77b4;" x="471.777377" xlink:href="#mbd9566b4d3" y="357.668464"/>
     <use style="fill:#1f77b4;stroke:#1f77b4;" x="473.326301" xlink:href="#mbd9566b4d3" y="324.173793"/>
     <use style="fill:#1f77b4;stroke:#1f77b4;" x="474.875226" xlink:href="#mbd9566b4d3" y="264.136176"/>
     <use style="fill:#1f77b4;stroke:#1f77b4;" x="476.42415" xlink:href="#mbd9566b4d3" y="314.694169"/>
     <use style="fill:#1f77b4;stroke:#1f77b4;" x="477.973074" xlink:href="#mbd9566b4d3" y="342.817053"/>
     <use style="fill:#1f77b4;stroke:#1f77b4;" x="479.521999" xlink:href="#mbd9566b4d3" y="283.095423"/>
     <use style="fill:#1f77b4;stroke:#1f77b4;" x="481.070923" xlink:href="#mbd9566b4d3" y="357.668464"/>
     <use style="fill:#1f77b4;stroke:#1f77b4;" x="482.619847" xlink:href="#mbd9566b4d3" y="213.578182"/>
     <use style="fill:#1f77b4;stroke:#1f77b4;" x="484.168772" xlink:href="#mbd9566b4d3" y="311.534295"/>
     <use style="fill:#1f77b4;stroke:#1f77b4;" x="485.717696" xlink:href="#mbd9566b4d3" y="308.37442"/>
     <use style="fill:#1f77b4;stroke:#1f77b4;" x="487.26662" xlink:href="#mbd9566b4d3" y="175.659687"/>
     <use style="fill:#1f77b4;stroke:#1f77b4;" x="488.815545" xlink:href="#mbd9566b4d3" y="362.724263"/>
     <use style="fill:#1f77b4;stroke:#1f77b4;" x="490.364469" xlink:href="#mbd9566b4d3" y="357.036489"/>
     <use style="fill:#1f77b4;stroke:#1f77b4;" x="491.913393" xlink:href="#mbd9566b4d3" y="289.415172"/>
     <use style="fill:#1f77b4;stroke:#1f77b4;" x="493.462318" xlink:href="#mbd9566b4d3" y="267.29605"/>
     <use style="fill:#1f77b4;stroke:#1f77b4;" x="495.011242" xlink:href="#mbd9566b4d3" y="329.229592"/>
     <use style="fill:#1f77b4;stroke:#1f77b4;" x="496.560167" xlink:href="#mbd9566b4d3" y="256.552476"/>
     <use style="fill:#1f77b4;stroke:#1f77b4;" x="498.109091" xlink:href="#mbd9566b4d3" y="251.496677"/>
    </g>
   </g>
   <g id="patch_3">
    <path d="M 72 384.48 
L 72 51.84 
" style="fill:none;stroke:#000000;stroke-linecap:square;stroke-linejoin:miter;stroke-width:0.8;"/>
   </g>
   <g id="patch_4">
    <path d="M 518.4 384.48 
L 518.4 51.84 
" style="fill:none;stroke:#000000;stroke-linecap:square;stroke-linejoin:miter;stroke-width:0.8;"/>
   </g>
   <g id="patch_5">
    <path d="M 72 384.48 
L 518.4 384.48 
" style="fill:none;stroke:#000000;stroke-linecap:square;stroke-linejoin:miter;stroke-width:0.8;"/>
   </g>
   <g id="patch_6">
    <path d="M 72 51.84 
L 518.4 51.84 
" style="fill:none;stroke:#000000;stroke-linecap:square;stroke-linejoin:miter;stroke-width:0.8;"/>
   </g>
  </g>
 </g>
 <defs>
  <clipPath id="pb36a164c32">
   <rect height="332.64" width="446.4" x="72" y="51.84"/>
  </clipPath>
 </defs>
</svg>
