<?xml version="1.0" encoding="utf-8"?>
<svg xmlns="http://www.w3.org/2000/svg" xmlns:xlink="http://www.w3.org/1999/xlink" width="800" height="600" viewBox="0 0 3200 2400">
<defs>
  <clipPath id="clip520">
    <rect x="0" y="0" width="3200" height="2400"/>
  </clipPath>
</defs>
<path clip-path="url(#clip520)" d="M0 2400 L3200 2400 L3200 0 L0 0  Z" fill="#ffffff" fill-rule="evenodd" fill-opacity="1"/>
<defs>
  <clipPath id="clip521">
    <rect x="640" y="0" width="2241" height="2241"/>
  </clipPath>
</defs>
<path clip-path="url(#clip520)" d="M298.023 2185.48 L3152.76 2185.48 L3152.76 47.2441 L298.023 47.2441  Z" fill="#ffffff" fill-rule="evenodd" fill-opacity="1"/>
<defs>
  <clipPath id="clip522">
    <rect x="298" y="47" width="2856" height="2139"/>
  </clipPath>
</defs>
<polyline clip-path="url(#clip522)" style="stroke:#000000; stroke-linecap:round; stroke-linejoin:round; stroke-width:2; stroke-opacity:0.1; fill:none" points="378.817,2185.48 378.817,47.2441 "/>
<polyline clip-path="url(#clip522)" style="stroke:#000000; stroke-linecap:round; stroke-linejoin:round; stroke-width:2; stroke-opacity:0.1; fill:none" points="623.648,2185.48 623.648,47.2441 "/>
<polyline clip-path="url(#clip522)" style="stroke:#000000; stroke-linecap:round; stroke-linejoin:round; stroke-width:2; stroke-opacity:0.1; fill:none" points="1031.7,2185.48 1031.7,47.2441 "/>
<polyline clip-path="url(#clip522)" style="stroke:#000000; stroke-linecap:round; stroke-linejoin:round; stroke-width:2; stroke-opacity:0.1; fill:none" points="1711.79,2185.48 1711.79,47.2441 "/>
<polyline clip-path="url(#clip522)" style="stroke:#000000; stroke-linecap:round; stroke-linejoin:round; stroke-width:2; stroke-opacity:0.1; fill:none" points="2391.87,2185.48 2391.87,47.2441 "/>
<polyline clip-path="url(#clip522)" style="stroke:#000000; stroke-linecap:round; stroke-linejoin:round; stroke-width:2; stroke-opacity:0.1; fill:none" points="3071.96,2185.48 3071.96,47.2441 "/>
<polyline clip-path="url(#clip520)" style="stroke:#000000; stroke-linecap:round; stroke-linejoin:round; stroke-width:4; stroke-opacity:1; fill:none" points="298.023,2185.48 3152.76,2185.48 "/>
<polyline clip-path="url(#clip520)" style="stroke:#000000; stroke-linecap:round; stroke-linejoin:round; stroke-width:4; stroke-opacity:1; fill:none" points="378.817,2185.48 378.817,2166.58 "/>
<polyline clip-path="url(#clip520)" style="stroke:#000000; stroke-linecap:round; stroke-linejoin:round; stroke-width:4; stroke-opacity:1; fill:none" points="623.648,2185.48 623.648,2166.58 "/>
<polyline clip-path="url(#clip520)" style="stroke:#000000; stroke-linecap:round; stroke-linejoin:round; stroke-width:4; stroke-opacity:1; fill:none" points="1031.7,2185.48 1031.7,2166.58 "/>
<polyline clip-path="url(#clip520)" style="stroke:#000000; stroke-linecap:round; stroke-linejoin:round; stroke-width:4; stroke-opacity:1; fill:none" points="1711.79,2185.48 1711.79,2166.58 "/>
<polyline clip-path="url(#clip520)" style="stroke:#000000; stroke-linecap:round; stroke-linejoin:round; stroke-width:4; stroke-opacity:1; fill:none" points="2391.87,2185.48 2391.87,2166.58 "/>
<polyline clip-path="url(#clip520)" style="stroke:#000000; stroke-linecap:round; stroke-linejoin:round; stroke-width:4; stroke-opacity:1; fill:none" points="3071.96,2185.48 3071.96,2166.58 "/>
<path clip-path="url(#clip520)" d="M347.176 2260.16 L356.725 2260.16 L356.725 2227.2 L346.337 2229.29 L346.337 2223.96 L356.667 2221.88 L362.512 2221.88 L362.512 2260.16 L372.061 2260.16 L372.061 2265.08 L347.176 2265.08 L347.176 2260.16 Z" fill="#000000" fill-rule="nonzero" fill-opacity="1" /><path clip-path="url(#clip520)" d="M396.366 2225.73 Q391.852 2225.73 389.566 2230.18 Q387.309 2234.61 387.309 2243.52 Q387.309 2252.41 389.566 2256.86 Q391.852 2261.29 396.366 2261.29 Q400.909 2261.29 403.166 2256.86 Q405.452 2252.41 405.452 2243.52 Q405.452 2234.61 403.166 2230.18 Q400.909 2225.73 396.366 2225.73 M396.366 2221.1 Q403.629 2221.1 407.448 2226.86 Q411.296 2232.59 411.296 2243.52 Q411.296 2254.43 407.448 2260.19 Q403.629 2265.92 396.366 2265.92 Q389.103 2265.92 385.255 2260.19 Q381.435 2254.43 381.435 2243.52 Q381.435 2232.59 385.255 2226.86 Q389.103 2221.1 396.366 2221.1 Z" fill="#000000" fill-rule="nonzero" fill-opacity="1" /><path clip-path="url(#clip520)" d="M573.157 2260.16 L582.705 2260.16 L582.705 2227.2 L572.317 2229.29 L572.317 2223.96 L582.647 2221.88 L588.492 2221.88 L588.492 2260.16 L598.041 2260.16 L598.041 2265.08 L573.157 2265.08 L573.157 2260.16 Z" fill="#000000" fill-rule="nonzero" fill-opacity="1" /><path clip-path="url(#clip520)" d="M622.346 2225.73 Q617.832 2225.73 615.546 2230.18 Q613.289 2234.61 613.289 2243.52 Q613.289 2252.41 615.546 2256.86 Q617.832 2261.29 622.346 2261.29 Q626.889 2261.29 629.146 2256.86 Q631.432 2252.41 631.432 2243.52 Q631.432 2234.61 629.146 2230.18 Q626.889 2225.73 622.346 2225.73 M622.346 2221.1 Q629.609 2221.1 633.428 2226.86 Q637.277 2232.59 637.277 2243.52 Q637.277 2254.43 633.428 2260.19 Q629.609 2265.92 622.346 2265.92 Q615.083 2265.92 611.235 2260.19 Q607.416 2254.43 607.416 2243.52 Q607.416 2232.59 611.235 2226.86 Q615.083 2221.1 622.346 2221.1 Z" fill="#000000" fill-rule="nonzero" fill-opacity="1" /><path clip-path="url(#clip520)" d="M660.048 2225.73 Q655.535 2225.73 653.249 2230.18 Q650.992 2234.61 650.992 2243.52 Q650.992 2252.41 653.249 2256.86 Q655.535 2261.29 660.048 2261.29 Q664.591 2261.29 666.848 2256.86 Q669.134 2252.41 669.134 2243.52 Q669.134 2234.61 666.848 2230.18 Q664.591 2225.73 660.048 2225.73 M660.048 2221.1 Q667.311 2221.1 671.131 2226.86 Q674.979 2232.59 674.979 2243.52 Q674.979 2254.43 671.131 2260.19 Q667.311 2265.92 660.048 2265.92 Q652.786 2265.92 648.937 2260.19 Q645.118 2254.43 645.118 2243.52 Q645.118 2232.59 648.937 2226.86 Q652.786 2221.1 660.048 2221.1 Z" fill="#000000" fill-rule="nonzero" fill-opacity="1" /><path clip-path="url(#clip520)" d="M986.316 2260.16 L1006.72 2260.16 L1006.72 2265.08 L979.285 2265.08 L979.285 2260.16 Q982.612 2256.72 988.341 2250.93 Q994.099 2245.11 995.575 2243.44 Q998.382 2240.28 999.481 2238.11 Q1000.61 2235.91 1000.61 2233.8 Q1000.61 2230.36 998.179 2228.19 Q995.778 2226.02 991.9 2226.02 Q989.151 2226.02 986.084 2226.97 Q983.046 2227.93 979.574 2229.87 L979.574 2223.96 Q983.104 2222.55 986.171 2221.82 Q989.238 2221.1 991.785 2221.1 Q998.497 2221.1 1002.49 2224.46 Q1006.48 2227.81 1006.48 2233.42 Q1006.48 2236.09 1005.47 2238.49 Q1004.49 2240.86 1001.85 2244.1 Q1001.13 2244.94 997.253 2248.96 Q993.376 2252.96 986.316 2260.16 Z" fill="#000000" fill-rule="nonzero" fill-opacity="1" /><path clip-path="url(#clip520)" d="M1019.04 2221.88 L1041.99 2221.88 L1041.99 2226.8 L1024.39 2226.8 L1024.39 2237.39 Q1025.67 2236.95 1026.94 2236.75 Q1028.21 2236.52 1029.49 2236.52 Q1036.72 2236.52 1040.95 2240.49 Q1045.17 2244.45 1045.17 2251.22 Q1045.17 2258.19 1040.83 2262.07 Q1036.49 2265.92 1028.59 2265.92 Q1025.87 2265.92 1023.03 2265.46 Q1020.23 2264.99 1017.22 2264.07 L1017.22 2258.19 Q1019.82 2259.61 1022.6 2260.31 Q1025.38 2261 1028.47 2261 Q1033.48 2261 1036.4 2258.37 Q1039.32 2255.73 1039.32 2251.22 Q1039.32 2246.71 1036.4 2244.07 Q1033.48 2241.44 1028.47 2241.44 Q1026.13 2241.44 1023.79 2241.96 Q1021.47 2242.48 1019.04 2243.58 L1019.04 2221.88 Z" fill="#000000" fill-rule="nonzero" fill-opacity="1" /><path clip-path="url(#clip520)" d="M1069.19 2225.73 Q1064.67 2225.73 1062.39 2230.18 Q1060.13 2234.61 1060.13 2243.52 Q1060.13 2252.41 1062.39 2256.86 Q1064.67 2261.29 1069.19 2261.29 Q1073.73 2261.29 1075.99 2256.86 Q1078.27 2252.41 1078.27 2243.52 Q1078.27 2234.61 1075.99 2230.18 Q1073.73 2225.73 1069.19 2225.73 M1069.19 2221.1 Q1076.45 2221.1 1080.27 2226.86 Q1084.12 2232.59 1084.12 2243.52 Q1084.12 2254.43 1080.27 2260.19 Q1076.45 2265.92 1069.19 2265.92 Q1061.92 2265.92 1058.07 2260.19 Q1054.26 2254.43 1054.26 2243.52 Q1054.26 2232.59 1058.07 2226.86 Q1061.92 2221.1 1069.19 2221.1 Z" fill="#000000" fill-rule="nonzero" fill-opacity="1" /><path clip-path="url(#clip520)" d="M1661.31 2221.88 L1684.26 2221.88 L1684.26 2226.8 L1666.66 2226.8 L1666.66 2237.39 Q1667.94 2236.95 1669.21 2236.75 Q1670.48 2236.52 1671.76 2236.52 Q1678.99 2236.52 1683.21 2240.49 Q1687.44 2244.45 1687.44 2251.22 Q1687.44 2258.19 1683.1 2262.07 Q1678.76 2265.92 1670.86 2265.92 Q1668.14 2265.92 1665.3 2265.46 Q1662.5 2264.99 1659.49 2264.07 L1659.49 2258.19 Q1662.09 2259.61 1664.87 2260.31 Q1667.65 2261 1670.74 2261 Q1675.75 2261 1678.67 2258.37 Q1681.59 2255.73 1681.59 2251.22 Q1681.59 2246.71 1678.67 2244.07 Q1675.75 2241.44 1670.74 2241.44 Q1668.4 2241.44 1666.06 2241.96 Q1663.74 2242.48 1661.31 2243.58 L1661.31 2221.88 Z" fill="#000000" fill-rule="nonzero" fill-opacity="1" /><path clip-path="url(#clip520)" d="M1711.45 2225.73 Q1706.94 2225.73 1704.65 2230.18 Q1702.4 2234.61 1702.4 2243.52 Q1702.4 2252.41 1704.65 2256.86 Q1706.94 2261.29 1711.45 2261.29 Q1716 2261.29 1718.25 2256.86 Q1720.54 2252.41 1720.54 2243.52 Q1720.54 2234.61 1718.25 2230.18 Q1716 2225.73 1711.45 2225.73 M1711.45 2221.1 Q1718.72 2221.1 1722.54 2226.86 Q1726.39 2232.59 1726.39 2243.52 Q1726.39 2254.43 1722.54 2260.19 Q1718.72 2265.92 1711.45 2265.92 Q1704.19 2265.92 1700.34 2260.19 Q1696.52 2254.43 1696.52 2243.52 Q1696.52 2232.59 1700.34 2226.86 Q1704.19 2221.1 1711.45 2221.1 Z" fill="#000000" fill-rule="nonzero" fill-opacity="1" /><path clip-path="url(#clip520)" d="M1749.16 2225.73 Q1744.64 2225.73 1742.36 2230.18 Q1740.1 2234.61 1740.1 2243.52 Q1740.1 2252.41 1742.36 2256.86 Q1744.64 2261.29 1749.16 2261.29 Q1753.7 2261.29 1755.96 2256.86 Q1758.24 2252.41 1758.24 2243.52 Q1758.24 2234.61 1755.96 2230.18 Q1753.7 2225.73 1749.16 2225.73 M1749.16 2221.1 Q1756.42 2221.1 1760.24 2226.86 Q1764.09 2232.59 1764.09 2243.52 Q1764.09 2254.43 1760.24 2260.19 Q1756.42 2265.92 1749.16 2265.92 Q1741.89 2265.92 1738.05 2260.19 Q1734.23 2254.43 1734.23 2243.52 Q1734.23 2232.59 1738.05 2226.86 Q1741.89 2221.1 1749.16 2221.1 Z" fill="#000000" fill-rule="nonzero" fill-opacity="1" /><path clip-path="url(#clip520)" d="M2339.72 2221.88 L2367.5 2221.88 L2367.5 2224.37 L2351.81 2265.08 L2345.71 2265.08 L2360.47 2226.8 L2339.72 2226.8 L2339.72 2221.88 Z" fill="#000000" fill-rule="nonzero" fill-opacity="1" /><path clip-path="url(#clip520)" d="M2378.96 2221.88 L2401.9 2221.88 L2401.9 2226.8 L2384.31 2226.8 L2384.31 2237.39 Q2385.58 2236.95 2386.85 2236.75 Q2388.13 2236.52 2389.4 2236.52 Q2396.63 2236.52 2400.86 2240.49 Q2405.08 2244.45 2405.08 2251.22 Q2405.08 2258.19 2400.74 2262.07 Q2396.4 2265.92 2388.5 2265.92 Q2385.78 2265.92 2382.95 2265.46 Q2380.14 2264.99 2377.13 2264.07 L2377.13 2258.19 Q2379.74 2259.61 2382.51 2260.31 Q2385.29 2261 2388.39 2261 Q2393.39 2261 2396.32 2258.37 Q2399.24 2255.73 2399.24 2251.22 Q2399.24 2246.71 2396.32 2244.07 Q2393.39 2241.44 2388.39 2241.44 Q2386.04 2241.44 2383.7 2241.96 Q2381.39 2242.48 2378.96 2243.58 L2378.96 2221.88 Z" fill="#000000" fill-rule="nonzero" fill-opacity="1" /><path clip-path="url(#clip520)" d="M2429.1 2225.73 Q2424.59 2225.73 2422.3 2230.18 Q2420.04 2234.61 2420.04 2243.52 Q2420.04 2252.41 2422.3 2256.86 Q2424.59 2261.29 2429.1 2261.29 Q2433.64 2261.29 2435.9 2256.86 Q2438.19 2252.41 2438.19 2243.52 Q2438.19 2234.61 2435.9 2230.18 Q2433.64 2225.73 2429.1 2225.73 M2429.1 2221.1 Q2436.36 2221.1 2440.18 2226.86 Q2444.03 2232.59 2444.03 2243.52 Q2444.03 2254.43 2440.18 2260.19 Q2436.36 2265.92 2429.1 2265.92 Q2421.84 2265.92 2417.99 2260.19 Q2414.17 2254.43 2414.17 2243.52 Q2414.17 2232.59 2417.99 2226.86 Q2421.84 2221.1 2429.1 2221.1 Z" fill="#000000" fill-rule="nonzero" fill-opacity="1" /><path clip-path="url(#clip520)" d="M3002.62 2260.16 L3012.17 2260.16 L3012.17 2227.2 L3001.78 2229.29 L3001.78 2223.96 L3012.11 2221.88 L3017.95 2221.88 L3017.95 2260.16 L3027.5 2260.16 L3027.5 2265.08 L3002.62 2265.08 L3002.62 2260.16 Z" fill="#000000" fill-rule="nonzero" fill-opacity="1" /><path clip-path="url(#clip520)" d="M3051.81 2225.73 Q3047.29 2225.73 3045.01 2230.18 Q3042.75 2234.61 3042.75 2243.52 Q3042.75 2252.41 3045.01 2256.86 Q3047.29 2261.29 3051.81 2261.29 Q3056.35 2261.29 3058.61 2256.86 Q3060.89 2252.41 3060.89 2243.52 Q3060.89 2234.61 3058.61 2230.18 Q3056.35 2225.73 3051.81 2225.73 M3051.81 2221.1 Q3059.07 2221.1 3062.89 2226.86 Q3066.74 2232.59 3066.74 2243.52 Q3066.74 2254.43 3062.89 2260.19 Q3059.07 2265.92 3051.81 2265.92 Q3044.55 2265.92 3040.7 2260.19 Q3036.88 2254.43 3036.88 2243.52 Q3036.88 2232.59 3040.7 2226.86 Q3044.55 2221.1 3051.81 2221.1 Z" fill="#000000" fill-rule="nonzero" fill-opacity="1" /><path clip-path="url(#clip520)" d="M3089.51 2225.73 Q3085 2225.73 3082.71 2230.18 Q3080.45 2234.61 3080.45 2243.52 Q3080.45 2252.41 3082.71 2256.86 Q3085 2261.29 3089.51 2261.29 Q3094.05 2261.29 3096.31 2256.86 Q3098.6 2252.41 3098.6 2243.52 Q3098.6 2234.61 3096.31 2230.18 Q3094.05 2225.73 3089.51 2225.73 M3089.51 2221.1 Q3096.77 2221.1 3100.59 2226.86 Q3104.44 2232.59 3104.44 2243.52 Q3104.44 2254.43 3100.59 2260.19 Q3096.77 2265.92 3089.51 2265.92 Q3082.25 2265.92 3078.4 2260.19 Q3074.58 2254.43 3074.58 2243.52 Q3074.58 2232.59 3078.4 2226.86 Q3082.25 2221.1 3089.51 2221.1 Z" fill="#000000" fill-rule="nonzero" fill-opacity="1" /><path clip-path="url(#clip520)" d="M3127.21 2225.73 Q3122.7 2225.73 3120.41 2230.18 Q3118.16 2234.61 3118.16 2243.52 Q3118.16 2252.41 3120.41 2256.86 Q3122.7 2261.29 3127.21 2261.29 Q3131.76 2261.29 3134.01 2256.86 Q3136.3 2252.41 3136.3 2243.52 Q3136.3 2234.61 3134.01 2230.18 Q3131.76 2225.73 3127.21 2225.73 M3127.21 2221.1 Q3134.48 2221.1 3138.3 2226.86 Q3142.14 2232.59 3142.14 2243.52 Q3142.14 2254.43 3138.3 2260.19 Q3134.48 2265.92 3127.21 2265.92 Q3119.95 2265.92 3116.1 2260.19 Q3112.28 2254.43 3112.28 2243.52 Q3112.28 2232.59 3116.1 2226.86 Q3119.95 2221.1 3127.21 2221.1 Z" fill="#000000" fill-rule="nonzero" fill-opacity="1" /><path clip-path="url(#clip520)" d="M1417.15 2309.51 L1427.38 2309.51 L1452.28 2356.49 L1452.28 2309.51 L1459.65 2309.51 L1459.65 2365.67 L1449.42 2365.67 L1424.52 2318.69 L1424.52 2365.67 L1417.15 2365.67 L1417.15 2309.51 Z" fill="#000000" fill-rule="nonzero" fill-opacity="1" /><path clip-path="url(#clip520)" d="M1473.76 2349.05 L1473.76 2323.54 L1480.68 2323.54 L1480.68 2348.78 Q1480.68 2354.76 1483.01 2357.77 Q1485.35 2360.74 1490.01 2360.74 Q1495.61 2360.74 1498.85 2357.17 Q1502.12 2353.6 1502.12 2347.43 L1502.12 2323.54 L1509.04 2323.54 L1509.04 2365.67 L1502.12 2365.67 L1502.12 2359.2 Q1499.6 2363.04 1496.25 2364.92 Q1492.94 2366.76 1488.54 2366.76 Q1481.28 2366.76 1477.52 2362.25 Q1473.76 2357.73 1473.76 2349.05 M1491.18 2322.53 L1491.18 2322.53 Z" fill="#000000" fill-rule="nonzero" fill-opacity="1" /><path clip-path="url(#clip520)" d="M1556.1 2331.63 Q1558.7 2326.97 1562.31 2324.75 Q1565.92 2322.53 1570.81 2322.53 Q1577.39 2322.53 1580.96 2327.15 Q1584.54 2331.74 1584.54 2340.24 L1584.54 2365.67 L1577.58 2365.67 L1577.58 2340.47 Q1577.58 2334.41 1575.43 2331.48 Q1573.29 2328.55 1568.89 2328.55 Q1563.51 2328.55 1560.39 2332.12 Q1557.27 2335.69 1557.27 2341.86 L1557.27 2365.67 L1550.31 2365.67 L1550.31 2340.47 Q1550.31 2334.38 1548.16 2331.48 Q1546.02 2328.55 1541.54 2328.55 Q1536.24 2328.55 1533.12 2332.16 Q1530 2335.73 1530 2341.86 L1530 2365.67 L1523.04 2365.67 L1523.04 2323.54 L1530 2323.54 L1530 2330.09 Q1532.37 2326.21 1535.68 2324.37 Q1538.99 2322.53 1543.54 2322.53 Q1548.13 2322.53 1551.32 2324.86 Q1554.56 2327.19 1556.1 2331.63 Z" fill="#000000" fill-rule="nonzero" fill-opacity="1" /><path clip-path="url(#clip520)" d="M1628.59 2344.64 Q1628.59 2337.01 1625.43 2332.68 Q1622.3 2328.32 1616.81 2328.32 Q1611.32 2328.32 1608.16 2332.68 Q1605.04 2337.01 1605.04 2344.64 Q1605.04 2352.28 1608.16 2356.64 Q1611.32 2360.97 1616.81 2360.97 Q1622.3 2360.97 1625.43 2356.64 Q1628.59 2352.28 1628.59 2344.64 M1605.04 2329.94 Q1607.22 2326.18 1610.53 2324.37 Q1613.88 2322.53 1618.5 2322.53 Q1626.18 2322.53 1630.96 2328.62 Q1635.77 2334.71 1635.77 2344.64 Q1635.77 2354.58 1630.96 2360.67 Q1626.18 2366.76 1618.5 2366.76 Q1613.88 2366.76 1610.53 2364.96 Q1607.22 2363.11 1605.04 2359.35 L1605.04 2365.67 L1598.08 2365.67 L1598.08 2307.14 L1605.04 2307.14 L1605.04 2329.94 Z" fill="#000000" fill-rule="nonzero" fill-opacity="1" /><path clip-path="url(#clip520)" d="M1683.28 2342.88 L1683.28 2346.26 L1651.46 2346.26 Q1651.91 2353.41 1655.74 2357.17 Q1659.62 2360.89 1666.5 2360.89 Q1670.49 2360.89 1674.21 2359.92 Q1677.97 2358.94 1681.66 2356.98 L1681.66 2363.53 Q1677.94 2365.11 1674.03 2365.94 Q1670.11 2366.76 1666.09 2366.76 Q1656.01 2366.76 1650.1 2360.89 Q1644.23 2355.03 1644.23 2345.02 Q1644.23 2334.68 1649.8 2328.62 Q1655.41 2322.53 1664.88 2322.53 Q1673.39 2322.53 1678.31 2328.02 Q1683.28 2333.47 1683.28 2342.88 M1676.36 2340.85 Q1676.28 2335.17 1673.16 2331.78 Q1670.08 2328.39 1664.96 2328.39 Q1659.17 2328.39 1655.67 2331.67 Q1652.21 2334.94 1651.68 2340.88 L1676.36 2340.85 Z" fill="#000000" fill-rule="nonzero" fill-opacity="1" /><path clip-path="url(#clip520)" d="M1719.05 2330.01 Q1717.88 2329.34 1716.49 2329.03 Q1715.14 2328.7 1713.48 2328.7 Q1707.62 2328.7 1704.46 2332.53 Q1701.33 2336.33 1701.33 2343.48 L1701.33 2365.67 L1694.38 2365.67 L1694.38 2323.54 L1701.33 2323.54 L1701.33 2330.09 Q1703.52 2326.25 1707.01 2324.41 Q1710.51 2322.53 1715.52 2322.53 Q1716.23 2322.53 1717.09 2322.64 Q1717.96 2322.71 1719.01 2322.9 L1719.05 2330.01 Z" fill="#000000" fill-rule="nonzero" fill-opacity="1" /><path clip-path="url(#clip520)" d="M1767.12 2328.39 Q1761.56 2328.39 1758.32 2332.76 Q1755.09 2337.08 1755.09 2344.64 Q1755.09 2352.21 1758.28 2356.57 Q1761.52 2360.89 1767.12 2360.89 Q1772.65 2360.89 1775.89 2356.53 Q1779.12 2352.17 1779.12 2344.64 Q1779.12 2337.16 1775.89 2332.8 Q1772.65 2328.39 1767.12 2328.39 M1767.12 2322.53 Q1776.15 2322.53 1781.3 2328.39 Q1786.46 2334.26 1786.46 2344.64 Q1786.46 2354.99 1781.3 2360.89 Q1776.15 2366.76 1767.12 2366.76 Q1758.06 2366.76 1752.9 2360.89 Q1747.79 2354.99 1747.79 2344.64 Q1747.79 2334.26 1752.9 2328.39 Q1758.06 2322.53 1767.12 2322.53 Z" fill="#000000" fill-rule="nonzero" fill-opacity="1" /><path clip-path="url(#clip520)" d="M1819.26 2307.14 L1819.26 2312.9 L1812.64 2312.9 Q1808.91 2312.9 1807.45 2314.4 Q1806.02 2315.91 1806.02 2319.82 L1806.02 2323.54 L1817.42 2323.54 L1817.42 2328.92 L1806.02 2328.92 L1806.02 2365.67 L1799.06 2365.67 L1799.06 2328.92 L1792.44 2328.92 L1792.44 2323.54 L1799.06 2323.54 L1799.06 2320.61 Q1799.06 2313.57 1802.33 2310.38 Q1805.6 2307.14 1812.71 2307.14 L1819.26 2307.14 Z" fill="#000000" fill-rule="nonzero" fill-opacity="1" /><path clip-path="url(#clip520)" d="M1856.39 2311.58 L1856.39 2323.54 L1870.64 2323.54 L1870.64 2328.92 L1856.39 2328.92 L1856.39 2351.79 Q1856.39 2356.95 1857.78 2358.41 Q1859.21 2359.88 1863.53 2359.88 L1870.64 2359.88 L1870.64 2365.67 L1863.53 2365.67 Q1855.52 2365.67 1852.47 2362.7 Q1849.43 2359.69 1849.43 2351.79 L1849.43 2328.92 L1844.35 2328.92 L1844.35 2323.54 L1849.43 2323.54 L1849.43 2311.58 L1856.39 2311.58 Z" fill="#000000" fill-rule="nonzero" fill-opacity="1" /><path clip-path="url(#clip520)" d="M1904.16 2330.01 Q1902.99 2329.34 1901.6 2329.03 Q1900.25 2328.7 1898.59 2328.7 Q1892.72 2328.7 1889.56 2332.53 Q1886.44 2336.33 1886.44 2343.48 L1886.44 2365.67 L1879.48 2365.67 L1879.48 2323.54 L1886.44 2323.54 L1886.44 2330.09 Q1888.62 2326.25 1892.12 2324.41 Q1895.62 2322.53 1900.62 2322.53 Q1901.34 2322.53 1902.2 2322.64 Q1903.07 2322.71 1904.12 2322.9 L1904.16 2330.01 Z" fill="#000000" fill-rule="nonzero" fill-opacity="1" /><path clip-path="url(#clip520)" d="M1945.76 2342.88 L1945.76 2346.26 L1913.94 2346.26 Q1914.39 2353.41 1918.23 2357.17 Q1922.1 2360.89 1928.98 2360.89 Q1932.97 2360.89 1936.69 2359.92 Q1940.46 2358.94 1944.14 2356.98 L1944.14 2363.53 Q1940.42 2365.11 1936.51 2365.94 Q1932.59 2366.76 1928.57 2366.76 Q1918.49 2366.76 1912.58 2360.89 Q1906.71 2355.03 1906.71 2345.02 Q1906.71 2334.68 1912.28 2328.62 Q1917.89 2322.53 1927.37 2322.53 Q1935.87 2322.53 1940.79 2328.02 Q1945.76 2333.47 1945.76 2342.88 M1938.84 2340.85 Q1938.76 2335.17 1935.64 2331.78 Q1932.56 2328.39 1927.44 2328.39 Q1921.65 2328.39 1918.15 2331.67 Q1914.69 2334.94 1914.16 2340.88 L1938.84 2340.85 Z" fill="#000000" fill-rule="nonzero" fill-opacity="1" /><path clip-path="url(#clip520)" d="M1993.16 2342.88 L1993.16 2346.26 L1961.33 2346.26 Q1961.78 2353.41 1965.62 2357.17 Q1969.5 2360.89 1976.38 2360.89 Q1980.37 2360.89 1984.09 2359.92 Q1987.85 2358.94 1991.54 2356.98 L1991.54 2363.53 Q1987.81 2365.11 1983.9 2365.94 Q1979.99 2366.76 1975.97 2366.76 Q1965.88 2366.76 1959.98 2360.89 Q1954.11 2355.03 1954.11 2345.02 Q1954.11 2334.68 1959.68 2328.62 Q1965.28 2322.53 1974.76 2322.53 Q1983.26 2322.53 1988.19 2328.02 Q1993.16 2333.47 1993.16 2342.88 M1986.23 2340.85 Q1986.16 2335.17 1983.04 2331.78 Q1979.95 2328.39 1974.84 2328.39 Q1969.04 2328.39 1965.55 2331.67 Q1962.08 2334.94 1961.56 2340.88 L1986.23 2340.85 Z" fill="#000000" fill-rule="nonzero" fill-opacity="1" /><path clip-path="url(#clip520)" d="M2031.37 2324.78 L2031.37 2331.33 Q2028.44 2329.82 2025.28 2329.07 Q2022.12 2328.32 2018.73 2328.32 Q2013.58 2328.32 2010.99 2329.9 Q2008.43 2331.48 2008.43 2334.64 Q2008.43 2337.05 2010.27 2338.44 Q2012.11 2339.79 2017.68 2341.03 L2020.05 2341.56 Q2027.42 2343.14 2030.51 2346.04 Q2033.63 2348.9 2033.63 2354.05 Q2033.63 2359.92 2028.97 2363.34 Q2024.34 2366.76 2016.21 2366.76 Q2012.83 2366.76 2009.14 2366.09 Q2005.49 2365.45 2001.43 2364.13 L2001.43 2356.98 Q2005.27 2358.98 2008.99 2359.99 Q2012.72 2360.97 2016.36 2360.97 Q2021.25 2360.97 2023.89 2359.31 Q2026.52 2357.62 2026.52 2354.58 Q2026.52 2351.75 2024.6 2350.25 Q2022.72 2348.74 2016.29 2347.35 L2013.88 2346.79 Q2007.45 2345.43 2004.59 2342.65 Q2001.73 2339.83 2001.73 2334.94 Q2001.73 2329 2005.94 2325.76 Q2010.16 2322.53 2017.91 2322.53 Q2021.74 2322.53 2025.13 2323.09 Q2028.51 2323.66 2031.37 2324.78 Z" fill="#000000" fill-rule="nonzero" fill-opacity="1" /><polyline clip-path="url(#clip522)" style="stroke:#000000; stroke-linecap:round; stroke-linejoin:round; stroke-width:2; stroke-opacity:0.1; fill:none" points="298.023,2103.17 3152.76,2103.17 "/>
<polyline clip-path="url(#clip522)" style="stroke:#000000; stroke-linecap:round; stroke-linejoin:round; stroke-width:2; stroke-opacity:0.1; fill:none" points="298.023,1716.86 3152.76,1716.86 "/>
<polyline clip-path="url(#clip522)" style="stroke:#000000; stroke-linecap:round; stroke-linejoin:round; stroke-width:2; stroke-opacity:0.1; fill:none" points="298.023,1330.54 3152.76,1330.54 "/>
<polyline clip-path="url(#clip522)" style="stroke:#000000; stroke-linecap:round; stroke-linejoin:round; stroke-width:2; stroke-opacity:0.1; fill:none" points="298.023,944.223 3152.76,944.223 "/>
<polyline clip-path="url(#clip522)" style="stroke:#000000; stroke-linecap:round; stroke-linejoin:round; stroke-width:2; stroke-opacity:0.1; fill:none" points="298.023,557.906 3152.76,557.906 "/>
<polyline clip-path="url(#clip522)" style="stroke:#000000; stroke-linecap:round; stroke-linejoin:round; stroke-width:2; stroke-opacity:0.1; fill:none" points="298.023,171.588 3152.76,171.588 "/>
<polyline clip-path="url(#clip520)" style="stroke:#000000; stroke-linecap:round; stroke-linejoin:round; stroke-width:4; stroke-opacity:1; fill:none" points="298.023,2185.48 298.023,47.2441 "/>
<polyline clip-path="url(#clip520)" style="stroke:#000000; stroke-linecap:round; stroke-linejoin:round; stroke-width:4; stroke-opacity:1; fill:none" points="298.023,2103.17 316.92,2103.17 "/>
<polyline clip-path="url(#clip520)" style="stroke:#000000; stroke-linecap:round; stroke-linejoin:round; stroke-width:4; stroke-opacity:1; fill:none" points="298.023,1716.86 316.92,1716.86 "/>
<polyline clip-path="url(#clip520)" style="stroke:#000000; stroke-linecap:round; stroke-linejoin:round; stroke-width:4; stroke-opacity:1; fill:none" points="298.023,1330.54 316.92,1330.54 "/>
<polyline clip-path="url(#clip520)" style="stroke:#000000; stroke-linecap:round; stroke-linejoin:round; stroke-width:4; stroke-opacity:1; fill:none" points="298.023,944.223 316.92,944.223 "/>
<polyline clip-path="url(#clip520)" style="stroke:#000000; stroke-linecap:round; stroke-linejoin:round; stroke-width:4; stroke-opacity:1; fill:none" points="298.023,557.906 316.92,557.906 "/>
<polyline clip-path="url(#clip520)" style="stroke:#000000; stroke-linecap:round; stroke-linejoin:round; stroke-width:4; stroke-opacity:1; fill:none" points="298.023,171.588 316.92,171.588 "/>
<path clip-path="url(#clip520)" d="M145.451 2101.48 Q149.647 2102.38 151.991 2105.21 Q154.363 2108.05 154.363 2112.22 Q154.363 2118.61 149.965 2122.11 Q145.567 2125.61 137.465 2125.61 Q134.745 2125.61 131.852 2125.06 Q128.987 2124.54 125.92 2123.47 L125.92 2117.83 Q128.351 2119.25 131.244 2119.97 Q134.138 2120.69 137.292 2120.69 Q142.789 2120.69 145.654 2118.52 Q148.547 2116.35 148.547 2112.22 Q148.547 2108.4 145.856 2106.26 Q143.194 2104.09 138.42 2104.09 L133.385 2104.09 L133.385 2099.28 L138.652 2099.28 Q142.963 2099.28 145.249 2097.58 Q147.535 2095.84 147.535 2092.6 Q147.535 2089.27 145.162 2087.51 Q142.818 2085.71 138.42 2085.71 Q136.018 2085.71 133.27 2086.23 Q130.521 2086.75 127.222 2087.85 L127.222 2082.64 Q130.55 2081.72 133.443 2081.26 Q136.366 2080.79 138.941 2080.79 Q145.596 2080.79 149.473 2083.83 Q153.351 2086.84 153.351 2091.99 Q153.351 2095.58 151.296 2098.07 Q149.242 2100.53 145.451 2101.48 Z" fill="#000000" fill-rule="nonzero" fill-opacity="1" /><path clip-path="url(#clip520)" d="M165.445 2117.42 L171.551 2117.42 L171.551 2124.77 L165.445 2124.77 L165.445 2117.42 Z" fill="#000000" fill-rule="nonzero" fill-opacity="1" /><path clip-path="url(#clip520)" d="M196.782 2085.42 Q192.268 2085.42 189.982 2089.88 Q187.725 2094.31 187.725 2103.22 Q187.725 2112.1 189.982 2116.56 Q192.268 2120.98 196.782 2120.98 Q201.325 2120.98 203.582 2116.56 Q205.868 2112.1 205.868 2103.22 Q205.868 2094.31 203.582 2089.88 Q201.325 2085.42 196.782 2085.42 M196.782 2080.79 Q204.045 2080.79 207.864 2086.55 Q211.713 2092.28 211.713 2103.22 Q211.713 2114.13 207.864 2119.88 Q204.045 2125.61 196.782 2125.61 Q189.519 2125.61 185.671 2119.88 Q181.852 2114.13 181.852 2103.22 Q181.852 2092.28 185.671 2086.55 Q189.519 2080.79 196.782 2080.79 Z" fill="#000000" fill-rule="nonzero" fill-opacity="1" /><path clip-path="url(#clip520)" d="M238.043 2086.67 L223.287 2109.73 L238.043 2109.73 L238.043 2086.67 M236.51 2081.57 L243.859 2081.57 L243.859 2109.73 L250.023 2109.73 L250.023 2114.59 L243.859 2114.59 L243.859 2124.77 L238.043 2124.77 L238.043 2114.59 L218.541 2114.59 L218.541 2108.95 L236.51 2081.57 Z" fill="#000000" fill-rule="nonzero" fill-opacity="1" /><path clip-path="url(#clip520)" d="M147.303 1715.16 Q151.499 1716.06 153.842 1718.9 Q156.215 1721.73 156.215 1725.9 Q156.215 1732.29 151.817 1735.79 Q147.419 1739.3 139.317 1739.3 Q136.597 1739.3 133.704 1738.75 Q130.839 1738.23 127.772 1737.15 L127.772 1731.51 Q130.203 1732.93 133.096 1733.65 Q135.99 1734.38 139.143 1734.38 Q144.641 1734.38 147.506 1732.21 Q150.399 1730.04 150.399 1725.9 Q150.399 1722.08 147.708 1719.94 Q145.046 1717.77 140.272 1717.77 L135.237 1717.77 L135.237 1712.97 L140.503 1712.97 Q144.815 1712.97 147.101 1711.26 Q149.386 1709.52 149.386 1706.28 Q149.386 1702.95 147.014 1701.19 Q144.67 1699.39 140.272 1699.39 Q137.87 1699.39 135.121 1699.92 Q132.373 1700.44 129.074 1701.54 L129.074 1696.33 Q132.402 1695.4 135.295 1694.94 Q138.218 1694.48 140.793 1694.48 Q147.448 1694.48 151.325 1697.51 Q155.202 1700.52 155.202 1705.67 Q155.202 1709.26 153.148 1711.75 Q151.094 1714.21 147.303 1715.16 Z" fill="#000000" fill-rule="nonzero" fill-opacity="1" /><path clip-path="url(#clip520)" d="M167.297 1731.11 L173.403 1731.11 L173.403 1738.46 L167.297 1738.46 L167.297 1731.11 Z" fill="#000000" fill-rule="nonzero" fill-opacity="1" /><path clip-path="url(#clip520)" d="M198.634 1699.11 Q194.12 1699.11 191.834 1703.56 Q189.577 1707.99 189.577 1716.9 Q189.577 1725.78 191.834 1730.24 Q194.12 1734.67 198.634 1734.67 Q203.177 1734.67 205.434 1730.24 Q207.719 1725.78 207.719 1716.9 Q207.719 1707.99 205.434 1703.56 Q203.177 1699.11 198.634 1699.11 M198.634 1694.48 Q205.897 1694.48 209.716 1700.23 Q213.564 1705.96 213.564 1716.9 Q213.564 1727.81 209.716 1733.57 Q205.897 1739.3 198.634 1739.3 Q191.371 1739.3 187.523 1733.57 Q183.703 1727.81 183.703 1716.9 Q183.703 1705.96 187.523 1700.23 Q191.371 1694.48 198.634 1694.48 Z" fill="#000000" fill-rule="nonzero" fill-opacity="1" /><path clip-path="url(#clip520)" d="M223.894 1695.26 L246.84 1695.26 L246.84 1700.18 L229.247 1700.18 L229.247 1710.77 Q230.52 1710.33 231.793 1710.13 Q233.067 1709.9 234.34 1709.9 Q241.573 1709.9 245.798 1713.86 Q250.023 1717.83 250.023 1724.6 Q250.023 1731.57 245.682 1735.45 Q241.342 1739.3 233.443 1739.3 Q230.723 1739.3 227.887 1738.83 Q225.081 1738.37 222.071 1737.44 L222.071 1731.57 Q224.675 1732.99 227.453 1733.68 Q230.231 1734.38 233.327 1734.38 Q238.333 1734.38 241.255 1731.74 Q244.178 1729.11 244.178 1724.6 Q244.178 1720.08 241.255 1717.45 Q238.333 1714.82 233.327 1714.82 Q230.983 1714.82 228.64 1715.34 Q226.325 1715.86 223.894 1716.96 L223.894 1695.26 Z" fill="#000000" fill-rule="nonzero" fill-opacity="1" /><path clip-path="url(#clip520)" d="M145.856 1328.85 Q150.052 1329.74 152.396 1332.58 Q154.768 1335.42 154.768 1339.58 Q154.768 1345.98 150.37 1349.48 Q145.972 1352.98 137.87 1352.98 Q135.15 1352.98 132.257 1352.43 Q129.392 1351.91 126.325 1350.84 L126.325 1345.2 Q128.756 1346.61 131.649 1347.34 Q134.543 1348.06 137.697 1348.06 Q143.194 1348.06 146.059 1345.89 Q148.952 1343.72 148.952 1339.58 Q148.952 1335.76 146.261 1333.62 Q143.599 1331.45 138.825 1331.45 L133.79 1331.45 L133.79 1326.65 L139.057 1326.65 Q143.368 1326.65 145.654 1324.94 Q147.94 1323.2 147.94 1319.96 Q147.94 1316.64 145.567 1314.87 Q143.223 1313.08 138.825 1313.08 Q136.424 1313.08 133.675 1313.6 Q130.926 1314.12 127.627 1315.22 L127.627 1310.01 Q130.955 1309.08 133.848 1308.62 Q136.771 1308.16 139.346 1308.16 Q146.001 1308.16 149.878 1311.2 Q153.756 1314.21 153.756 1319.36 Q153.756 1322.94 151.701 1325.43 Q149.647 1327.89 145.856 1328.85 Z" fill="#000000" fill-rule="nonzero" fill-opacity="1" /><path clip-path="url(#clip520)" d="M165.85 1344.79 L171.956 1344.79 L171.956 1352.14 L165.85 1352.14 L165.85 1344.79 Z" fill="#000000" fill-rule="nonzero" fill-opacity="1" /><path clip-path="url(#clip520)" d="M197.187 1312.79 Q192.673 1312.79 190.387 1317.24 Q188.13 1321.67 188.13 1330.58 Q188.13 1339.47 190.387 1343.92 Q192.673 1348.35 197.187 1348.35 Q201.73 1348.35 203.987 1343.92 Q206.273 1339.47 206.273 1330.58 Q206.273 1321.67 203.987 1317.24 Q201.73 1312.79 197.187 1312.79 M197.187 1308.16 Q204.45 1308.16 208.269 1313.92 Q212.118 1319.65 212.118 1330.58 Q212.118 1341.49 208.269 1347.25 Q204.45 1352.98 197.187 1352.98 Q189.924 1352.98 186.076 1347.25 Q182.257 1341.49 182.257 1330.58 Q182.257 1319.65 186.076 1313.92 Q189.924 1308.16 197.187 1308.16 Z" fill="#000000" fill-rule="nonzero" fill-opacity="1" /><path clip-path="url(#clip520)" d="M235.613 1328.21 Q231.678 1328.21 229.363 1330.9 Q227.077 1333.59 227.077 1338.28 Q227.077 1342.94 229.363 1345.66 Q231.678 1348.35 235.613 1348.35 Q239.548 1348.35 241.834 1345.66 Q244.149 1342.94 244.149 1338.28 Q244.149 1333.59 241.834 1330.9 Q239.548 1328.21 235.613 1328.21 M247.216 1309.89 L247.216 1315.22 Q245.017 1314.18 242.76 1313.63 Q240.532 1313.08 238.333 1313.08 Q232.546 1313.08 229.479 1316.98 Q226.44 1320.89 226.006 1328.79 Q227.714 1326.27 230.289 1324.94 Q232.864 1323.58 235.96 1323.58 Q242.47 1323.58 246.232 1327.55 Q250.023 1331.48 250.023 1338.28 Q250.023 1344.93 246.087 1348.96 Q242.152 1352.98 235.613 1352.98 Q228.119 1352.98 224.155 1347.25 Q220.19 1341.49 220.19 1330.58 Q220.19 1320.34 225.052 1314.26 Q229.913 1308.16 238.101 1308.16 Q240.3 1308.16 242.528 1308.59 Q244.785 1309.03 247.216 1309.89 Z" fill="#000000" fill-rule="nonzero" fill-opacity="1" /><path clip-path="url(#clip520)" d="M147.187 942.53 Q151.383 943.427 153.727 946.263 Q156.099 949.098 156.099 953.265 Q156.099 959.66 151.701 963.161 Q147.303 966.662 139.201 966.662 Q136.481 966.662 133.588 966.112 Q130.723 965.591 127.656 964.521 L127.656 958.878 Q130.087 960.296 132.98 961.019 Q135.874 961.743 139.028 961.743 Q144.525 961.743 147.39 959.573 Q150.283 957.403 150.283 953.265 Q150.283 949.445 147.592 947.304 Q144.93 945.134 140.156 945.134 L135.121 945.134 L135.121 940.331 L140.388 940.331 Q144.699 940.331 146.985 938.624 Q149.271 936.888 149.271 933.647 Q149.271 930.319 146.898 928.554 Q144.554 926.76 140.156 926.76 Q137.755 926.76 135.006 927.281 Q132.257 927.802 128.958 928.902 L128.958 923.693 Q132.286 922.767 135.179 922.304 Q138.102 921.841 140.677 921.841 Q147.332 921.841 151.209 924.88 Q155.087 927.889 155.087 933.039 Q155.087 936.627 153.032 939.116 Q150.978 941.575 147.187 942.53 Z" fill="#000000" fill-rule="nonzero" fill-opacity="1" /><path clip-path="url(#clip520)" d="M167.182 958.473 L173.287 958.473 L173.287 965.823 L167.182 965.823 L167.182 958.473 Z" fill="#000000" fill-rule="nonzero" fill-opacity="1" /><path clip-path="url(#clip520)" d="M198.518 926.471 Q194.004 926.471 191.718 930.927 Q189.461 935.354 189.461 944.266 Q189.461 953.149 191.718 957.605 Q194.004 962.032 198.518 962.032 Q203.061 962.032 205.318 957.605 Q207.604 953.149 207.604 944.266 Q207.604 935.354 205.318 930.927 Q203.061 926.471 198.518 926.471 M198.518 921.841 Q205.781 921.841 209.6 927.6 Q213.449 933.329 213.449 944.266 Q213.449 955.175 209.6 960.933 Q205.781 966.662 198.518 966.662 Q191.255 966.662 187.407 960.933 Q183.588 955.175 183.588 944.266 Q183.588 933.329 187.407 927.6 Q191.255 921.841 198.518 921.841 Z" fill="#000000" fill-rule="nonzero" fill-opacity="1" /><path clip-path="url(#clip520)" d="M222.245 922.623 L250.023 922.623 L250.023 925.111 L234.34 965.823 L228.234 965.823 L242.991 927.542 L222.245 927.542 L222.245 922.623 Z" fill="#000000" fill-rule="nonzero" fill-opacity="1" /><path clip-path="url(#clip520)" d="M146.175 556.213 Q150.37 557.11 152.714 559.946 Q155.087 562.781 155.087 566.948 Q155.087 573.342 150.689 576.844 Q146.29 580.345 138.189 580.345 Q135.469 580.345 132.575 579.795 Q129.711 579.274 126.644 578.204 L126.644 572.561 Q129.074 573.979 131.968 574.702 Q134.861 575.426 138.015 575.426 Q143.513 575.426 146.377 573.256 Q149.271 571.086 149.271 566.948 Q149.271 563.128 146.58 560.987 Q143.918 558.817 139.143 558.817 L134.109 558.817 L134.109 554.014 L139.375 554.014 Q143.686 554.014 145.972 552.307 Q148.258 550.571 148.258 547.33 Q148.258 544.002 145.885 542.237 Q143.542 540.443 139.143 540.443 Q136.742 540.443 133.993 540.964 Q131.244 541.485 127.946 542.584 L127.946 537.376 Q131.273 536.45 134.167 535.987 Q137.089 535.524 139.664 535.524 Q146.319 535.524 150.197 538.563 Q154.074 541.572 154.074 546.722 Q154.074 550.31 152.02 552.799 Q149.965 555.258 146.175 556.213 Z" fill="#000000" fill-rule="nonzero" fill-opacity="1" /><path clip-path="url(#clip520)" d="M166.169 572.156 L172.274 572.156 L172.274 579.506 L166.169 579.506 L166.169 572.156 Z" fill="#000000" fill-rule="nonzero" fill-opacity="1" /><path clip-path="url(#clip520)" d="M197.505 540.154 Q192.992 540.154 190.706 544.61 Q188.449 549.037 188.449 557.949 Q188.449 566.832 190.706 571.288 Q192.992 575.715 197.505 575.715 Q202.048 575.715 204.305 571.288 Q206.591 566.832 206.591 557.949 Q206.591 549.037 204.305 544.61 Q202.048 540.154 197.505 540.154 M197.505 535.524 Q204.768 535.524 208.588 541.282 Q212.436 547.012 212.436 557.949 Q212.436 568.858 208.588 574.616 Q204.768 580.345 197.505 580.345 Q190.243 580.345 186.394 574.616 Q182.575 568.858 182.575 557.949 Q182.575 547.012 186.394 541.282 Q190.243 535.524 197.505 535.524 Z" fill="#000000" fill-rule="nonzero" fill-opacity="1" /><path clip-path="url(#clip520)" d="M235.208 558.991 Q231.041 558.991 228.64 561.219 Q226.267 563.447 226.267 567.353 Q226.267 571.259 228.64 573.487 Q231.041 575.715 235.208 575.715 Q239.374 575.715 241.776 573.487 Q244.178 571.23 244.178 567.353 Q244.178 563.447 241.776 561.219 Q239.403 558.991 235.208 558.991 M229.363 556.502 Q225.601 555.576 223.489 553.001 Q221.406 550.426 221.406 546.722 Q221.406 541.543 225.081 538.534 Q228.784 535.524 235.208 535.524 Q241.66 535.524 245.335 538.534 Q249.01 541.543 249.01 546.722 Q249.01 550.426 246.898 553.001 Q244.814 555.576 241.082 556.502 Q245.306 557.486 247.65 560.351 Q250.023 563.215 250.023 567.353 Q250.023 573.632 246.174 576.988 Q242.355 580.345 235.208 580.345 Q228.061 580.345 224.212 576.988 Q220.393 573.632 220.393 567.353 Q220.393 563.215 222.766 560.351 Q225.138 557.486 229.363 556.502 M227.222 547.272 Q227.222 550.628 229.305 552.509 Q231.417 554.39 235.208 554.39 Q238.969 554.39 241.082 552.509 Q243.223 550.628 243.223 547.272 Q243.223 543.916 241.082 542.035 Q238.969 540.154 235.208 540.154 Q231.417 540.154 229.305 542.035 Q227.222 543.916 227.222 547.272 Z" fill="#000000" fill-rule="nonzero" fill-opacity="1" /><path clip-path="url(#clip520)" d="M146.29 169.896 Q150.486 170.793 152.83 173.628 Q155.202 176.464 155.202 180.631 Q155.202 187.025 150.804 190.526 Q146.406 194.028 138.304 194.028 Q135.584 194.028 132.691 193.478 Q129.826 192.957 126.759 191.886 L126.759 186.244 Q129.19 187.662 132.083 188.385 Q134.977 189.109 138.131 189.109 Q143.628 189.109 146.493 186.939 Q149.386 184.768 149.386 180.631 Q149.386 176.811 146.696 174.67 Q144.033 172.5 139.259 172.5 L134.225 172.5 L134.225 167.697 L139.491 167.697 Q143.802 167.697 146.088 165.99 Q148.374 164.253 148.374 161.013 Q148.374 157.685 146.001 155.92 Q143.657 154.126 139.259 154.126 Q136.858 154.126 134.109 154.647 Q131.36 155.168 128.061 156.267 L128.061 151.059 Q131.389 150.133 134.282 149.67 Q137.205 149.207 139.78 149.207 Q146.435 149.207 150.312 152.245 Q154.19 155.255 154.19 160.405 Q154.19 163.993 152.135 166.481 Q150.081 168.941 146.29 169.896 Z" fill="#000000" fill-rule="nonzero" fill-opacity="1" /><path clip-path="url(#clip520)" d="M166.285 185.839 L172.39 185.839 L172.39 193.188 L166.285 193.188 L166.285 185.839 Z" fill="#000000" fill-rule="nonzero" fill-opacity="1" /><path clip-path="url(#clip520)" d="M197.621 153.837 Q193.107 153.837 190.821 158.293 Q188.564 162.72 188.564 171.632 Q188.564 180.515 190.821 184.971 Q193.107 189.398 197.621 189.398 Q202.164 189.398 204.421 184.971 Q206.707 180.515 206.707 171.632 Q206.707 162.72 204.421 158.293 Q202.164 153.837 197.621 153.837 M197.621 149.207 Q204.884 149.207 208.703 154.965 Q212.552 160.694 212.552 171.632 Q212.552 182.54 208.703 188.298 Q204.884 194.028 197.621 194.028 Q190.358 194.028 186.51 188.298 Q182.691 182.54 182.691 171.632 Q182.691 160.694 186.51 154.965 Q190.358 149.207 197.621 149.207 Z" fill="#000000" fill-rule="nonzero" fill-opacity="1" /><path clip-path="url(#clip520)" d="M222.997 192.292 L222.997 186.967 Q225.196 188.009 227.453 188.559 Q229.71 189.109 231.88 189.109 Q237.667 189.109 240.705 185.231 Q243.773 181.325 244.207 173.397 Q242.528 175.885 239.953 177.216 Q237.378 178.547 234.253 178.547 Q227.771 178.547 223.981 174.641 Q220.219 170.706 220.219 163.906 Q220.219 157.251 224.155 153.229 Q228.09 149.207 234.629 149.207 Q242.123 149.207 246.058 154.965 Q250.023 160.694 250.023 171.632 Q250.023 181.846 245.161 187.951 Q240.329 194.028 232.141 194.028 Q229.942 194.028 227.685 193.594 Q225.428 193.16 222.997 192.292 M234.629 173.976 Q238.564 173.976 240.85 171.285 Q243.165 168.594 243.165 163.906 Q243.165 159.248 240.85 156.557 Q238.564 153.837 234.629 153.837 Q230.694 153.837 228.379 156.557 Q226.093 159.248 226.093 163.906 Q226.093 168.594 228.379 171.285 Q230.694 173.976 234.629 173.976 Z" fill="#000000" fill-rule="nonzero" fill-opacity="1" /><path clip-path="url(#clip520)" d="M34.7413 1568.2 Q35.5688 1565.75 38.2771 1563.46 Q40.9855 1561.13 45.725 1558.8 L61.0722 1551.08 L61.0722 1559.25 L46.6654 1566.43 Q41.0231 1569.22 39.1799 1571.85 Q37.3368 1574.44 37.3368 1578.96 L37.3368 1587.23 L61.0722 1587.23 L61.0722 1594.83 L4.91216 1594.83 L4.91216 1577.68 Q4.91216 1568.05 8.93702 1563.31 Q12.9619 1558.57 21.0868 1558.57 Q26.3906 1558.57 29.8889 1561.05 Q33.3871 1563.5 34.7413 1568.2 M11.1563 1587.23 L31.0926 1587.23 L31.0926 1577.68 Q31.0926 1572.19 28.5723 1569.4 Q26.0145 1566.58 21.0868 1566.58 Q16.1592 1566.58 13.6766 1569.4 Q11.1563 1572.19 11.1563 1577.68 L11.1563 1587.23 Z" fill="#000000" fill-rule="nonzero" fill-opacity="1" /><path clip-path="url(#clip520)" d="M23.7952 1528.74 Q23.7952 1534.31 28.1586 1537.54 Q32.4843 1540.78 40.0451 1540.78 Q47.6058 1540.78 51.9692 1537.58 Q56.295 1534.35 56.295 1528.74 Q56.295 1523.21 51.9316 1519.98 Q47.5682 1516.74 40.0451 1516.74 Q32.5596 1516.74 28.1962 1519.98 Q23.7952 1523.21 23.7952 1528.74 M17.9271 1528.74 Q17.9271 1519.71 23.7952 1514.56 Q29.6632 1509.41 40.0451 1509.41 Q50.3893 1509.41 56.295 1514.56 Q62.163 1519.71 62.163 1528.74 Q62.163 1537.81 56.295 1542.96 Q50.3893 1548.08 40.0451 1548.08 Q29.6632 1548.08 23.7952 1542.96 Q17.9271 1537.81 17.9271 1528.74 Z" fill="#000000" fill-rule="nonzero" fill-opacity="1" /><path clip-path="url(#clip520)" d="M23.7952 1481.61 Q23.7952 1487.18 28.1586 1490.41 Q32.4843 1493.65 40.0451 1493.65 Q47.6058 1493.65 51.9692 1490.45 Q56.295 1487.21 56.295 1481.61 Q56.295 1476.08 51.9316 1472.84 Q47.5682 1469.61 40.0451 1469.61 Q32.5596 1469.61 28.1962 1472.84 Q23.7952 1476.08 23.7952 1481.61 M17.9271 1481.61 Q17.9271 1472.58 23.7952 1467.43 Q29.6632 1462.27 40.0451 1462.27 Q50.3893 1462.27 56.295 1467.43 Q62.163 1472.58 62.163 1481.61 Q62.163 1490.67 56.295 1495.83 Q50.3893 1500.94 40.0451 1500.94 Q29.6632 1500.94 23.7952 1495.83 Q17.9271 1490.67 17.9271 1481.61 Z" fill="#000000" fill-rule="nonzero" fill-opacity="1" /><path clip-path="url(#clip520)" d="M6.98101 1443.96 L18.9428 1443.96 L18.9428 1429.7 L24.3218 1429.7 L24.3218 1443.96 L47.192 1443.96 Q52.3454 1443.96 53.8124 1442.56 Q55.2794 1441.13 55.2794 1436.81 L55.2794 1429.7 L61.0722 1429.7 L61.0722 1436.81 Q61.0722 1444.82 58.1005 1447.87 Q55.0913 1450.91 47.192 1450.91 L24.3218 1450.91 L24.3218 1455.99 L18.9428 1455.99 L18.9428 1450.91 L6.98101 1450.91 L6.98101 1443.96 Z" fill="#000000" fill-rule="nonzero" fill-opacity="1" /><path clip-path="url(#clip520)" d="M4.91216 1395.81 L4.91216 1384.49 L43.1295 1370.15 L4.91216 1355.75 L4.91216 1344.42 L61.0722 1344.42 L61.0722 1351.84 L11.7582 1351.84 L50.2765 1366.32 L50.2765 1373.95 L11.7582 1388.44 L61.0722 1388.44 L61.0722 1395.81 L4.91216 1395.81 Z" fill="#000000" fill-rule="nonzero" fill-opacity="1" /><path clip-path="url(#clip520)" d="M38.2771 1293.61 L41.6625 1293.61 L41.6625 1325.43 Q48.8095 1324.98 52.571 1321.14 Q56.295 1317.27 56.295 1310.38 Q56.295 1306.4 55.317 1302.67 Q54.339 1298.91 52.383 1295.22 L58.9281 1295.22 Q60.5079 1298.95 61.3355 1302.86 Q62.163 1306.77 62.163 1310.8 Q62.163 1320.88 56.295 1326.78 Q50.427 1332.65 40.4212 1332.65 Q30.077 1332.65 24.0209 1327.08 Q17.9271 1321.48 17.9271 1312 Q17.9271 1303.5 23.419 1298.57 Q28.8733 1293.61 38.2771 1293.61 M36.2459 1300.53 Q30.566 1300.6 27.1806 1303.72 Q23.7952 1306.81 23.7952 1311.93 Q23.7952 1317.72 27.0677 1321.22 Q30.3403 1324.68 36.2835 1325.2 L36.2459 1300.53 Z" fill="#000000" fill-rule="nonzero" fill-opacity="1" /><path clip-path="url(#clip520)" d="M39.8946 1263.1 Q39.8946 1271.49 41.813 1274.72 Q43.7314 1277.96 48.3581 1277.96 Q52.0444 1277.96 54.2261 1275.55 Q56.3702 1273.11 56.3702 1268.93 Q56.3702 1263.18 52.3077 1259.71 Q48.2076 1256.22 41.4368 1256.22 L39.8946 1256.22 L39.8946 1263.1 M37.0358 1249.3 L61.0722 1249.3 L61.0722 1256.22 L54.6775 1256.22 Q58.5143 1258.59 60.3575 1262.12 Q62.163 1265.66 62.163 1270.77 Q62.163 1277.24 58.5519 1281.08 Q54.9032 1284.88 48.8095 1284.88 Q41.7002 1284.88 38.0891 1280.14 Q34.478 1275.36 34.478 1265.92 L34.478 1256.22 L33.8009 1256.22 Q29.0237 1256.22 26.4282 1259.38 Q23.7952 1262.5 23.7952 1268.18 Q23.7952 1271.79 24.6603 1275.21 Q25.5255 1278.64 27.2558 1281.8 L20.8611 1281.8 Q19.3941 1278 18.6794 1274.42 Q17.9271 1270.85 17.9271 1267.46 Q17.9271 1258.32 22.6667 1253.81 Q27.4062 1249.3 37.0358 1249.3 Z" fill="#000000" fill-rule="nonzero" fill-opacity="1" /><path clip-path="url(#clip520)" d="M35.6441 1200.02 L61.0722 1200.02 L61.0722 1206.94 L35.8697 1206.94 Q29.8889 1206.94 26.9172 1209.27 Q23.9456 1211.6 23.9456 1216.27 Q23.9456 1221.87 27.5191 1225.11 Q31.0926 1228.34 37.2615 1228.34 L61.0722 1228.34 L61.0722 1235.3 L18.9428 1235.3 L18.9428 1228.34 L25.4879 1228.34 Q21.6887 1225.86 19.8079 1222.51 Q17.9271 1219.13 17.9271 1214.73 Q17.9271 1207.47 22.441 1203.74 Q26.9172 1200.02 35.6441 1200.02 Z" fill="#000000" fill-rule="nonzero" fill-opacity="1" /><path clip-path="url(#clip520)" d="M6.75532 1127.76 L14.1656 1127.76 Q12.0967 1132.09 11.0811 1135.92 Q10.0655 1139.76 10.0655 1143.33 Q10.0655 1149.54 12.4729 1152.92 Q14.8803 1156.27 19.3189 1156.27 Q23.0428 1156.27 24.9612 1154.05 Q26.842 1151.8 28.0081 1145.55 L28.9485 1140.96 Q30.566 1132.46 34.666 1128.44 Q38.7285 1124.37 45.5746 1124.37 Q53.7371 1124.37 57.9501 1129.87 Q62.163 1135.32 62.163 1145.89 Q62.163 1149.88 61.2602 1154.39 Q60.3575 1158.87 58.5895 1163.68 L50.7655 1163.68 Q53.361 1159.06 54.6775 1154.62 Q55.9941 1150.18 55.9941 1145.89 Q55.9941 1139.38 53.4362 1135.85 Q50.8783 1132.31 46.1388 1132.31 Q42.0011 1132.31 39.6689 1134.87 Q37.3368 1137.39 36.1707 1143.18 L35.2679 1147.81 Q33.5752 1156.31 29.9641 1160.11 Q26.353 1163.91 19.9208 1163.91 Q12.4729 1163.91 8.18471 1158.68 Q3.89654 1153.41 3.89654 1144.2 Q3.89654 1140.25 4.61123 1136.15 Q5.32593 1132.05 6.75532 1127.76 Z" fill="#000000" fill-rule="nonzero" fill-opacity="1" /><path clip-path="url(#clip520)" d="M40.0451 1108.69 Q47.681 1108.69 52.0444 1105.57 Q56.3702 1102.41 56.3702 1096.91 Q56.3702 1091.42 52.0444 1088.26 Q47.681 1085.1 40.0451 1085.1 Q32.4091 1085.1 28.0833 1088.26 Q23.7199 1091.42 23.7199 1096.91 Q23.7199 1102.41 28.0833 1105.57 Q32.4091 1108.69 40.0451 1108.69 M54.7527 1085.1 Q58.5143 1087.29 60.3575 1090.63 Q62.163 1093.94 62.163 1098.61 Q62.163 1106.24 56.0693 1111.06 Q49.9756 1115.84 40.0451 1115.84 Q30.1146 1115.84 24.0209 1111.06 Q17.9271 1106.24 17.9271 1098.61 Q17.9271 1093.94 19.7703 1090.63 Q21.5758 1087.29 25.3374 1085.1 L18.9428 1085.1 L18.9428 1078.18 L77.0964 1078.18 L77.0964 1085.1 L54.7527 1085.1 Z" fill="#000000" fill-rule="nonzero" fill-opacity="1" /><path clip-path="url(#clip520)" d="M44.4461 1064.64 L18.9428 1064.64 L18.9428 1057.72 L44.1828 1057.72 Q50.1637 1057.72 53.1729 1055.39 Q56.1445 1053.06 56.1445 1048.39 Q56.1445 1042.79 52.571 1039.55 Q48.9976 1036.28 42.8286 1036.28 L18.9428 1036.28 L18.9428 1029.36 L61.0722 1029.36 L61.0722 1036.28 L54.6023 1036.28 Q58.4391 1038.8 60.3198 1042.15 Q62.163 1045.46 62.163 1049.86 Q62.163 1057.12 57.6491 1060.88 Q53.1353 1064.64 44.4461 1064.64 M17.9271 1047.22 L17.9271 1047.22 Z" fill="#000000" fill-rule="nonzero" fill-opacity="1" /><path clip-path="url(#clip520)" d="M39.8946 995.955 Q39.8946 1004.34 41.813 1007.58 Q43.7314 1010.81 48.3581 1010.81 Q52.0444 1010.81 54.2261 1008.41 Q56.3702 1005.96 56.3702 1001.79 Q56.3702 996.03 52.3077 992.569 Q48.2076 989.071 41.4368 989.071 L39.8946 989.071 L39.8946 995.955 M37.0358 982.15 L61.0722 982.15 L61.0722 989.071 L54.6775 989.071 Q58.5143 991.441 60.3575 994.977 Q62.163 998.512 62.163 1003.63 Q62.163 1010.1 58.5519 1013.93 Q54.9032 1017.73 48.8095 1017.73 Q41.7002 1017.73 38.0891 1012.99 Q34.478 1008.22 34.478 998.776 L34.478 989.071 L33.8009 989.071 Q29.0237 989.071 26.4282 992.231 Q23.7952 995.353 23.7952 1001.03 Q23.7952 1004.64 24.6603 1008.07 Q25.5255 1011.49 27.2558 1014.65 L20.8611 1014.65 Q19.3941 1010.85 18.6794 1007.28 Q17.9271 1003.7 17.9271 1000.32 Q17.9271 991.177 22.6667 986.664 Q27.4062 982.15 37.0358 982.15 Z" fill="#000000" fill-rule="nonzero" fill-opacity="1" /><path clip-path="url(#clip520)" d="M25.4126 943.481 Q24.7355 944.647 24.4346 946.039 Q24.0961 947.393 24.0961 949.048 Q24.0961 954.916 27.9329 958.076 Q31.732 961.198 38.879 961.198 L61.0722 961.198 L61.0722 968.157 L18.9428 968.157 L18.9428 961.198 L25.4879 961.198 Q21.6511 959.016 19.8079 955.518 Q17.9271 952.02 17.9271 947.017 Q17.9271 946.302 18.04 945.437 Q18.1152 944.572 18.3033 943.519 L25.4126 943.481 Z" fill="#000000" fill-rule="nonzero" fill-opacity="1" /><path clip-path="url(#clip520)" d="M38.2771 901.878 L41.6625 901.878 L41.6625 933.701 Q48.8095 933.25 52.571 929.413 Q56.295 925.538 56.295 918.655 Q56.295 914.667 55.317 910.944 Q54.339 907.182 52.383 903.496 L58.9281 903.496 Q60.5079 907.22 61.3355 911.132 Q62.163 915.044 62.163 919.068 Q62.163 929.149 56.295 935.055 Q50.427 940.923 40.4212 940.923 Q30.077 940.923 24.0209 935.356 Q17.9271 929.751 17.9271 920.272 Q17.9271 911.771 23.419 906.843 Q28.8733 901.878 38.2771 901.878 M36.2459 908.799 Q30.566 908.875 27.1806 911.997 Q23.7952 915.081 23.7952 920.197 Q23.7952 925.99 27.0677 929.488 Q30.3403 932.949 36.2835 933.475 L36.2459 908.799 Z" fill="#000000" fill-rule="nonzero" fill-opacity="1" /><path clip-path="url(#clip520)" d="M25.3374 862.796 L2.54238 862.796 L2.54238 855.874 L61.0722 855.874 L61.0722 862.796 L54.7527 862.796 Q58.5143 864.977 60.3575 868.325 Q62.163 871.635 62.163 876.3 Q62.163 883.936 56.0693 888.75 Q49.9756 893.528 40.0451 893.528 Q30.1146 893.528 24.0209 888.75 Q17.9271 883.936 17.9271 876.3 Q17.9271 871.635 19.7703 868.325 Q21.5758 864.977 25.3374 862.796 M40.0451 886.381 Q47.681 886.381 52.0444 883.258 Q56.3702 880.099 56.3702 874.607 Q56.3702 869.115 52.0444 865.955 Q47.681 862.796 40.0451 862.796 Q32.4091 862.796 28.0833 865.955 Q23.7199 869.115 23.7199 874.607 Q23.7199 880.099 28.0833 883.258 Q32.4091 886.381 40.0451 886.381 Z" fill="#000000" fill-rule="nonzero" fill-opacity="1" /><path clip-path="url(#clip520)" d="M38.2771 781.095 L41.6625 781.095 L41.6625 812.917 Q48.8095 812.466 52.571 808.629 Q56.295 804.755 56.295 797.871 Q56.295 793.884 55.317 790.16 Q54.339 786.398 52.383 782.712 L58.9281 782.712 Q60.5079 786.436 61.3355 790.348 Q62.163 794.26 62.163 798.285 Q62.163 808.366 56.295 814.272 Q50.427 820.14 40.4212 820.14 Q30.077 820.14 24.0209 814.572 Q17.9271 808.968 17.9271 799.489 Q17.9271 790.988 23.419 786.06 Q28.8733 781.095 38.2771 781.095 M36.2459 788.016 Q30.566 788.091 27.1806 791.213 Q23.7952 794.298 23.7952 799.413 Q23.7952 805.206 27.0677 808.704 Q30.3403 812.165 36.2835 812.692 L36.2459 788.016 Z" fill="#000000" fill-rule="nonzero" fill-opacity="1" /><path clip-path="url(#clip520)" d="M25.4126 745.322 Q24.7355 746.488 24.4346 747.88 Q24.0961 749.234 24.0961 750.889 Q24.0961 756.757 27.9329 759.917 Q31.732 763.039 38.879 763.039 L61.0722 763.039 L61.0722 769.998 L18.9428 769.998 L18.9428 763.039 L25.4879 763.039 Q21.6511 760.858 19.8079 757.359 Q17.9271 753.861 17.9271 748.858 Q17.9271 748.143 18.04 747.278 Q18.1152 746.413 18.3033 745.36 L25.4126 745.322 Z" fill="#000000" fill-rule="nonzero" fill-opacity="1" /><path clip-path="url(#clip520)" d="M25.4126 715.004 Q24.7355 716.17 24.4346 717.562 Q24.0961 718.916 24.0961 720.571 Q24.0961 726.439 27.9329 729.599 Q31.732 732.721 38.879 732.721 L61.0722 732.721 L61.0722 739.68 L18.9428 739.68 L18.9428 732.721 L25.4879 732.721 Q21.6511 730.539 19.8079 727.041 Q17.9271 723.543 17.9271 718.54 Q17.9271 717.825 18.04 716.96 Q18.1152 716.095 18.3033 715.042 L25.4126 715.004 Z" fill="#000000" fill-rule="nonzero" fill-opacity="1" /><path clip-path="url(#clip520)" d="M23.7952 693.112 Q23.7952 698.679 28.1586 701.914 Q32.4843 705.149 40.0451 705.149 Q47.6058 705.149 51.9692 701.952 Q56.295 698.717 56.295 693.112 Q56.295 687.582 51.9316 684.348 Q47.5682 681.113 40.0451 681.113 Q32.5596 681.113 28.1962 684.348 Q23.7952 687.582 23.7952 693.112 M17.9271 693.112 Q17.9271 684.084 23.7952 678.931 Q29.6632 673.778 40.0451 673.778 Q50.3893 673.778 56.295 678.931 Q62.163 684.084 62.163 693.112 Q62.163 702.177 56.295 707.331 Q50.3893 712.446 40.0451 712.446 Q29.6632 712.446 23.7952 707.331 Q17.9271 702.177 17.9271 693.112 Z" fill="#000000" fill-rule="nonzero" fill-opacity="1" /><path clip-path="url(#clip520)" d="M25.4126 637.892 Q24.7355 639.058 24.4346 640.45 Q24.0961 641.804 24.0961 643.459 Q24.0961 649.327 27.9329 652.487 Q31.732 655.609 38.879 655.609 L61.0722 655.609 L61.0722 662.568 L18.9428 662.568 L18.9428 655.609 L25.4879 655.609 Q21.6511 653.428 19.8079 649.929 Q17.9271 646.431 17.9271 641.428 Q17.9271 640.713 18.04 639.848 Q18.1152 638.983 18.3033 637.93 L25.4126 637.892 Z" fill="#000000" fill-rule="nonzero" fill-opacity="1" /><polyline clip-path="url(#clip522)" style="stroke:#009af9; stroke-linecap:round; stroke-linejoin:round; stroke-width:8; stroke-opacity:1; fill:none" points="378.817,107.76 471.309,1641.47 563.801,1865.5 656.292,1201.34 751.505,1230.53 843.996,1593.27 936.488,1301.49 1028.98,2124.96 1121.47,1655.14 1213.96,1625.93 1306.46,1729.25 1401.67,1171.88 1494.16,1361.88 1586.65,1094.94 1679.14,1393.21 1771.64,1339.82 1864.13,1245.42 1956.62,1219.09 2049.11,1133.82 2144.32,1125.89 2236.81,1132.54 2329.31,1021.1 2421.8,851.402 2514.29,1079.69 2606.78,1123.01 2699.27,1060.37 2794.49,898.868 2886.98,830.228 2979.47,938.516 3071.96,940.784 "/>
</svg>
