<?xml version="1.0" encoding="utf-8"?>
<svg xmlns="http://www.w3.org/2000/svg" xmlns:xlink="http://www.w3.org/1999/xlink" width="600" height="400" viewBox="0 0 2400 1600">
<defs>
  <clipPath id="clip350">
    <rect x="0" y="0" width="2400" height="1600"/>
  </clipPath>
</defs>
<path clip-path="url(#clip350)" d="M0 1600 L2400 1600 L2400 8.88178e-14 L0 8.88178e-14  Z" fill="#ffffff" fill-rule="evenodd" fill-opacity="1"/>
<defs>
  <clipPath id="clip351">
    <rect x="480" y="0" width="1681" height="1600"/>
  </clipPath>
</defs>
<path clip-path="url(#clip350)" d="M156.922 1423.18 L2352.76 1423.18 L2352.76 47.2441 L156.922 47.2441  Z" fill="#ffffff" fill-rule="evenodd" fill-opacity="1"/>
<defs>
  <clipPath id="clip352">
    <rect x="156" y="47" width="2197" height="1377"/>
  </clipPath>
</defs>
<polyline clip-path="url(#clip352)" style="stroke:#000000; stroke-linecap:round; stroke-linejoin:round; stroke-width:2; stroke-opacity:0.1; fill:none" points="176.792,1423.18 176.792,47.2441 "/>
<polyline clip-path="url(#clip352)" style="stroke:#000000; stroke-linecap:round; stroke-linejoin:round; stroke-width:2; stroke-opacity:0.1; fill:none" points="705.247,1423.18 705.247,47.2441 "/>
<polyline clip-path="url(#clip352)" style="stroke:#000000; stroke-linecap:round; stroke-linejoin:round; stroke-width:2; stroke-opacity:0.1; fill:none" points="1233.7,1423.18 1233.7,47.2441 "/>
<polyline clip-path="url(#clip352)" style="stroke:#000000; stroke-linecap:round; stroke-linejoin:round; stroke-width:2; stroke-opacity:0.1; fill:none" points="1762.16,1423.18 1762.16,47.2441 "/>
<polyline clip-path="url(#clip352)" style="stroke:#000000; stroke-linecap:round; stroke-linejoin:round; stroke-width:2; stroke-opacity:0.1; fill:none" points="2290.61,1423.18 2290.61,47.2441 "/>
<polyline clip-path="url(#clip350)" style="stroke:#000000; stroke-linecap:round; stroke-linejoin:round; stroke-width:4; stroke-opacity:1; fill:none" points="156.922,1423.18 2352.76,1423.18 "/>
<polyline clip-path="url(#clip350)" style="stroke:#000000; stroke-linecap:round; stroke-linejoin:round; stroke-width:4; stroke-opacity:1; fill:none" points="176.792,1423.18 176.792,1404.28 "/>
<polyline clip-path="url(#clip350)" style="stroke:#000000; stroke-linecap:round; stroke-linejoin:round; stroke-width:4; stroke-opacity:1; fill:none" points="705.247,1423.18 705.247,1404.28 "/>
<polyline clip-path="url(#clip350)" style="stroke:#000000; stroke-linecap:round; stroke-linejoin:round; stroke-width:4; stroke-opacity:1; fill:none" points="1233.7,1423.18 1233.7,1404.28 "/>
<polyline clip-path="url(#clip350)" style="stroke:#000000; stroke-linecap:round; stroke-linejoin:round; stroke-width:4; stroke-opacity:1; fill:none" points="1762.16,1423.18 1762.16,1404.28 "/>
<polyline clip-path="url(#clip350)" style="stroke:#000000; stroke-linecap:round; stroke-linejoin:round; stroke-width:4; stroke-opacity:1; fill:none" points="2290.61,1423.18 2290.61,1404.28 "/>
<path clip-path="url(#clip350)" d="M176.792 1454.1 Q173.181 1454.1 171.352 1457.66 Q169.547 1461.2 169.547 1468.33 Q169.547 1475.44 171.352 1479.01 Q173.181 1482.55 176.792 1482.55 Q180.426 1482.55 182.232 1479.01 Q184.061 1475.44 184.061 1468.33 Q184.061 1461.2 182.232 1457.66 Q180.426 1454.1 176.792 1454.1 M176.792 1450.39 Q182.602 1450.39 185.658 1455 Q188.737 1459.58 188.737 1468.33 Q188.737 1477.06 185.658 1481.67 Q182.602 1486.25 176.792 1486.25 Q170.982 1486.25 167.903 1481.67 Q164.848 1477.06 164.848 1468.33 Q164.848 1459.58 167.903 1455 Q170.982 1450.39 176.792 1450.39 Z" fill="#000000" fill-rule="nonzero" fill-opacity="1" /><path clip-path="url(#clip350)" d="M684.518 1481.64 L700.837 1481.64 L700.837 1485.58 L678.893 1485.58 L678.893 1481.64 Q681.555 1478.89 686.138 1474.26 Q690.744 1469.61 691.925 1468.27 Q694.17 1465.74 695.05 1464.01 Q695.953 1462.25 695.953 1460.56 Q695.953 1457.8 694.008 1456.07 Q692.087 1454.33 688.985 1454.33 Q686.786 1454.33 684.332 1455.09 Q681.902 1455.86 679.124 1457.41 L679.124 1452.69 Q681.948 1451.55 684.402 1450.97 Q686.855 1450.39 688.892 1450.39 Q694.263 1450.39 697.457 1453.08 Q700.652 1455.77 700.652 1460.26 Q700.652 1462.39 699.841 1464.31 Q699.054 1466.2 696.948 1468.8 Q696.369 1469.47 693.267 1472.69 Q690.166 1475.88 684.518 1481.64 Z" fill="#000000" fill-rule="nonzero" fill-opacity="1" /><path clip-path="url(#clip350)" d="M710.698 1451.02 L729.054 1451.02 L729.054 1454.96 L714.98 1454.96 L714.98 1463.43 Q715.999 1463.08 717.017 1462.92 Q718.036 1462.73 719.054 1462.73 Q724.841 1462.73 728.221 1465.9 Q731.601 1469.08 731.601 1474.49 Q731.601 1480.07 728.128 1483.17 Q724.656 1486.25 718.337 1486.25 Q716.161 1486.25 713.892 1485.88 Q711.647 1485.51 709.24 1484.77 L709.24 1480.07 Q711.323 1481.2 713.545 1481.76 Q715.767 1482.32 718.244 1482.32 Q722.249 1482.32 724.587 1480.21 Q726.925 1478.1 726.925 1474.49 Q726.925 1470.88 724.587 1468.77 Q722.249 1466.67 718.244 1466.67 Q716.369 1466.67 714.494 1467.08 Q712.642 1467.5 710.698 1468.38 L710.698 1451.02 Z" fill="#000000" fill-rule="nonzero" fill-opacity="1" /><path clip-path="url(#clip350)" d="M1208.4 1451.02 L1226.76 1451.02 L1226.76 1454.96 L1212.68 1454.96 L1212.68 1463.43 Q1213.7 1463.08 1214.72 1462.92 Q1215.74 1462.73 1216.76 1462.73 Q1222.54 1462.73 1225.92 1465.9 Q1229.3 1469.08 1229.3 1474.49 Q1229.3 1480.07 1225.83 1483.17 Q1222.36 1486.25 1216.04 1486.25 Q1213.86 1486.25 1211.59 1485.88 Q1209.35 1485.51 1206.94 1484.77 L1206.94 1480.07 Q1209.03 1481.2 1211.25 1481.76 Q1213.47 1482.32 1215.95 1482.32 Q1219.95 1482.32 1222.29 1480.21 Q1224.63 1478.1 1224.63 1474.49 Q1224.63 1470.88 1222.29 1468.77 Q1219.95 1466.67 1215.95 1466.67 Q1214.07 1466.67 1212.2 1467.08 Q1210.34 1467.5 1208.4 1468.38 L1208.4 1451.02 Z" fill="#000000" fill-rule="nonzero" fill-opacity="1" /><path clip-path="url(#clip350)" d="M1248.52 1454.1 Q1244.9 1454.1 1243.08 1457.66 Q1241.27 1461.2 1241.27 1468.33 Q1241.27 1475.44 1243.08 1479.01 Q1244.9 1482.55 1248.52 1482.55 Q1252.15 1482.55 1253.96 1479.01 Q1255.78 1475.44 1255.78 1468.33 Q1255.78 1461.2 1253.96 1457.66 Q1252.15 1454.1 1248.52 1454.1 M1248.52 1450.39 Q1254.33 1450.39 1257.38 1455 Q1260.46 1459.58 1260.46 1468.33 Q1260.46 1477.06 1257.38 1481.67 Q1254.33 1486.25 1248.52 1486.25 Q1242.71 1486.25 1239.63 1481.67 Q1236.57 1477.06 1236.57 1468.33 Q1236.57 1459.58 1239.63 1455 Q1242.71 1450.39 1248.52 1450.39 Z" fill="#000000" fill-rule="nonzero" fill-opacity="1" /><path clip-path="url(#clip350)" d="M1736.01 1451.02 L1758.23 1451.02 L1758.23 1453.01 L1745.69 1485.58 L1740.8 1485.58 L1752.61 1454.96 L1736.01 1454.96 L1736.01 1451.02 Z" fill="#000000" fill-rule="nonzero" fill-opacity="1" /><path clip-path="url(#clip350)" d="M1767.4 1451.02 L1785.75 1451.02 L1785.75 1454.96 L1771.68 1454.96 L1771.68 1463.43 Q1772.7 1463.08 1773.72 1462.92 Q1774.74 1462.73 1775.75 1462.73 Q1781.54 1462.73 1784.92 1465.9 Q1788.3 1469.08 1788.3 1474.49 Q1788.3 1480.07 1784.83 1483.17 Q1781.36 1486.25 1775.04 1486.25 Q1772.86 1486.25 1770.59 1485.88 Q1768.35 1485.51 1765.94 1484.77 L1765.94 1480.07 Q1768.02 1481.2 1770.25 1481.76 Q1772.47 1482.32 1774.94 1482.32 Q1778.95 1482.32 1781.29 1480.21 Q1783.63 1478.1 1783.63 1474.49 Q1783.63 1470.88 1781.29 1468.77 Q1778.95 1466.67 1774.94 1466.67 Q1773.07 1466.67 1771.19 1467.08 Q1769.34 1467.5 1767.4 1468.38 L1767.4 1451.02 Z" fill="#000000" fill-rule="nonzero" fill-opacity="1" /><path clip-path="url(#clip350)" d="M2250.22 1481.64 L2257.86 1481.64 L2257.86 1455.28 L2249.55 1456.95 L2249.55 1452.69 L2257.81 1451.02 L2262.48 1451.02 L2262.48 1481.64 L2270.12 1481.64 L2270.12 1485.58 L2250.22 1485.58 L2250.22 1481.64 Z" fill="#000000" fill-rule="nonzero" fill-opacity="1" /><path clip-path="url(#clip350)" d="M2289.57 1454.1 Q2285.96 1454.1 2284.13 1457.66 Q2282.32 1461.2 2282.32 1468.33 Q2282.32 1475.44 2284.13 1479.01 Q2285.96 1482.55 2289.57 1482.55 Q2293.2 1482.55 2295.01 1479.01 Q2296.84 1475.44 2296.84 1468.33 Q2296.84 1461.2 2295.01 1457.66 Q2293.2 1454.1 2289.57 1454.1 M2289.57 1450.39 Q2295.38 1450.39 2298.43 1455 Q2301.51 1459.58 2301.51 1468.33 Q2301.51 1477.06 2298.43 1481.67 Q2295.38 1486.25 2289.57 1486.25 Q2283.76 1486.25 2280.68 1481.67 Q2277.62 1477.06 2277.62 1468.33 Q2277.62 1459.58 2280.68 1455 Q2283.76 1450.39 2289.57 1450.39 Z" fill="#000000" fill-rule="nonzero" fill-opacity="1" /><path clip-path="url(#clip350)" d="M2319.73 1454.1 Q2316.12 1454.1 2314.29 1457.66 Q2312.48 1461.2 2312.48 1468.33 Q2312.48 1475.44 2314.29 1479.01 Q2316.12 1482.55 2319.73 1482.55 Q2323.36 1482.55 2325.17 1479.01 Q2327 1475.44 2327 1468.33 Q2327 1461.2 2325.17 1457.66 Q2323.36 1454.1 2319.73 1454.1 M2319.73 1450.39 Q2325.54 1450.39 2328.6 1455 Q2331.67 1459.58 2331.67 1468.33 Q2331.67 1477.06 2328.6 1481.67 Q2325.54 1486.25 2319.73 1486.25 Q2313.92 1486.25 2310.84 1481.67 Q2307.79 1477.06 2307.79 1468.33 Q2307.79 1459.58 2310.84 1455 Q2313.92 1450.39 2319.73 1450.39 Z" fill="#000000" fill-rule="nonzero" fill-opacity="1" /><path clip-path="url(#clip350)" d="M988.466 1539.24 Q990.662 1535.29 993.718 1533.41 Q996.773 1531.54 1000.91 1531.54 Q1006.48 1531.54 1009.5 1535.45 Q1012.53 1539.33 1012.53 1546.53 L1012.53 1568.04 L1006.64 1568.04 L1006.64 1546.72 Q1006.64 1541.59 1004.83 1539.11 Q1003.01 1536.63 999.288 1536.63 Q994.736 1536.63 992.095 1539.65 Q989.453 1542.68 989.453 1547.9 L989.453 1568.04 L983.565 1568.04 L983.565 1546.72 Q983.565 1541.56 981.75 1539.11 Q979.936 1536.63 976.148 1536.63 Q971.661 1536.63 969.019 1539.68 Q966.377 1542.71 966.377 1547.9 L966.377 1568.04 L960.489 1568.04 L960.489 1532.4 L966.377 1532.4 L966.377 1537.93 Q968.382 1534.66 971.183 1533.1 Q973.984 1531.54 977.835 1531.54 Q981.718 1531.54 984.424 1533.51 Q987.161 1535.48 988.466 1539.24 Z" fill="#000000" fill-rule="nonzero" fill-opacity="1" /><path clip-path="url(#clip350)" d="M1024.21 1532.4 L1030.07 1532.4 L1030.07 1568.04 L1024.21 1568.04 L1024.21 1532.4 M1024.21 1518.52 L1030.07 1518.52 L1030.07 1525.93 L1024.21 1525.93 L1024.21 1518.52 Z" fill="#000000" fill-rule="nonzero" fill-opacity="1" /><path clip-path="url(#clip350)" d="M1071.95 1546.53 L1071.95 1568.04 L1066.1 1568.04 L1066.1 1546.72 Q1066.1 1541.66 1064.12 1539.14 Q1062.15 1536.63 1058.2 1536.63 Q1053.46 1536.63 1050.72 1539.65 Q1047.99 1542.68 1047.99 1547.9 L1047.99 1568.04 L1042.1 1568.04 L1042.1 1532.4 L1047.99 1532.4 L1047.99 1537.93 Q1050.09 1534.72 1052.92 1533.13 Q1055.78 1531.54 1059.51 1531.54 Q1065.65 1531.54 1068.8 1535.36 Q1071.95 1539.14 1071.95 1546.53 Z" fill="#000000" fill-rule="nonzero" fill-opacity="1" /><path clip-path="url(#clip350)" d="M1110.72 1578.87 L1110.72 1583.42 L1076.85 1583.42 L1076.85 1578.87 L1110.72 1578.87 Z" fill="#000000" fill-rule="nonzero" fill-opacity="1" /><path clip-path="url(#clip350)" d="M1138.95 1533.45 L1138.95 1538.98 Q1136.47 1537.71 1133.8 1537.07 Q1131.12 1536.44 1128.26 1536.44 Q1123.9 1536.44 1121.7 1537.77 Q1119.54 1539.11 1119.54 1541.79 Q1119.54 1543.82 1121.1 1545 Q1122.66 1546.15 1127.37 1547.2 L1129.37 1547.64 Q1135.61 1548.98 1138.22 1551.43 Q1140.86 1553.85 1140.86 1558.21 Q1140.86 1563.17 1136.91 1566.07 Q1133 1568.97 1126.12 1568.97 Q1123.26 1568.97 1120.14 1568.39 Q1117.05 1567.85 1113.62 1566.74 L1113.62 1560.69 Q1116.86 1562.38 1120.01 1563.24 Q1123.16 1564.07 1126.25 1564.07 Q1130.39 1564.07 1132.62 1562.66 Q1134.85 1561.23 1134.85 1558.65 Q1134.85 1556.27 1133.22 1554.99 Q1131.63 1553.72 1126.19 1552.54 L1124.15 1552.07 Q1118.71 1550.92 1116.29 1548.56 Q1113.87 1546.18 1113.87 1542.04 Q1113.87 1537.01 1117.44 1534.27 Q1121 1531.54 1127.56 1531.54 Q1130.8 1531.54 1133.67 1532.01 Q1136.53 1532.49 1138.95 1533.45 Z" fill="#000000" fill-rule="nonzero" fill-opacity="1" /><path clip-path="url(#clip350)" d="M1166.39 1550.12 Q1159.29 1550.12 1156.55 1551.75 Q1153.82 1553.37 1153.82 1557.29 Q1153.82 1560.4 1155.85 1562.25 Q1157.92 1564.07 1161.45 1564.07 Q1166.32 1564.07 1169.25 1560.63 Q1172.21 1557.16 1172.21 1551.43 L1172.21 1550.12 L1166.39 1550.12 M1178.07 1547.71 L1178.07 1568.04 L1172.21 1568.04 L1172.21 1562.63 Q1170.21 1565.88 1167.22 1567.44 Q1164.22 1568.97 1159.89 1568.97 Q1154.42 1568.97 1151.17 1565.91 Q1147.96 1562.82 1147.96 1557.67 Q1147.96 1551.65 1151.97 1548.6 Q1156.01 1545.54 1164 1545.54 L1172.21 1545.54 L1172.21 1544.97 Q1172.21 1540.93 1169.54 1538.73 Q1166.9 1536.5 1162.09 1536.5 Q1159.04 1536.5 1156.14 1537.23 Q1153.24 1537.97 1150.57 1539.43 L1150.57 1534.02 Q1153.78 1532.78 1156.81 1532.17 Q1159.83 1531.54 1162.7 1531.54 Q1170.43 1531.54 1174.25 1535.55 Q1178.07 1539.56 1178.07 1547.71 Z" fill="#000000" fill-rule="nonzero" fill-opacity="1" /><path clip-path="url(#clip350)" d="M1217.89 1539.24 Q1220.08 1535.29 1223.14 1533.41 Q1226.19 1531.54 1230.33 1531.54 Q1235.9 1531.54 1238.92 1535.45 Q1241.95 1539.33 1241.95 1546.53 L1241.95 1568.04 L1236.06 1568.04 L1236.06 1546.72 Q1236.06 1541.59 1234.25 1539.11 Q1232.43 1536.63 1228.71 1536.63 Q1224.16 1536.63 1221.51 1539.65 Q1218.87 1542.68 1218.87 1547.9 L1218.87 1568.04 L1212.98 1568.04 L1212.98 1546.72 Q1212.98 1541.56 1211.17 1539.11 Q1209.36 1536.63 1205.57 1536.63 Q1201.08 1536.63 1198.44 1539.68 Q1195.8 1542.71 1195.8 1547.9 L1195.8 1568.04 L1189.91 1568.04 L1189.91 1532.4 L1195.8 1532.4 L1195.8 1537.93 Q1197.8 1534.66 1200.6 1533.1 Q1203.4 1531.54 1207.26 1531.54 Q1211.14 1531.54 1213.84 1533.51 Q1216.58 1535.48 1217.89 1539.24 Z" fill="#000000" fill-rule="nonzero" fill-opacity="1" /><path clip-path="url(#clip350)" d="M1259.3 1562.7 L1259.3 1581.6 L1253.41 1581.6 L1253.41 1532.4 L1259.3 1532.4 L1259.3 1537.81 Q1261.14 1534.62 1263.94 1533.1 Q1266.77 1531.54 1270.69 1531.54 Q1277.18 1531.54 1281.22 1536.69 Q1285.3 1541.85 1285.3 1550.25 Q1285.3 1558.65 1281.22 1563.81 Q1277.18 1568.97 1270.69 1568.97 Q1266.77 1568.97 1263.94 1567.44 Q1261.14 1565.88 1259.3 1562.7 M1279.22 1550.25 Q1279.22 1543.79 1276.55 1540.13 Q1273.9 1536.44 1269.26 1536.44 Q1264.61 1536.44 1261.94 1540.13 Q1259.3 1543.79 1259.3 1550.25 Q1259.3 1556.71 1261.94 1560.4 Q1264.61 1564.07 1269.26 1564.07 Q1273.9 1564.07 1276.55 1560.4 Q1279.22 1556.71 1279.22 1550.25 Z" fill="#000000" fill-rule="nonzero" fill-opacity="1" /><path clip-path="url(#clip350)" d="M1295.01 1518.52 L1300.86 1518.52 L1300.86 1568.04 L1295.01 1568.04 L1295.01 1518.52 Z" fill="#000000" fill-rule="nonzero" fill-opacity="1" /><path clip-path="url(#clip350)" d="M1343.61 1548.76 L1343.61 1551.62 L1316.68 1551.62 Q1317.06 1557.67 1320.31 1560.85 Q1323.59 1564 1329.41 1564 Q1332.79 1564 1335.94 1563.17 Q1339.12 1562.35 1342.24 1560.69 L1342.24 1566.23 Q1339.09 1567.57 1335.78 1568.27 Q1332.47 1568.97 1329.06 1568.97 Q1320.53 1568.97 1315.54 1564 Q1310.57 1559.04 1310.57 1550.57 Q1310.57 1541.82 1315.28 1536.69 Q1320.02 1531.54 1328.04 1531.54 Q1335.24 1531.54 1339.41 1536.18 Q1343.61 1540.8 1343.61 1548.76 M1337.75 1547.04 Q1337.69 1542.23 1335.05 1539.37 Q1332.44 1536.5 1328.11 1536.5 Q1323.21 1536.5 1320.25 1539.27 Q1317.32 1542.04 1316.87 1547.07 L1337.75 1547.04 Z" fill="#000000" fill-rule="nonzero" fill-opacity="1" /><path clip-path="url(#clip350)" d="M1375.95 1533.45 L1375.95 1538.98 Q1373.46 1537.71 1370.79 1537.07 Q1368.12 1536.44 1365.25 1536.44 Q1360.89 1536.44 1358.7 1537.77 Q1356.53 1539.11 1356.53 1541.79 Q1356.53 1543.82 1358.09 1545 Q1359.65 1546.15 1364.36 1547.2 L1366.37 1547.64 Q1372.6 1548.98 1375.21 1551.43 Q1377.86 1553.85 1377.86 1558.21 Q1377.86 1563.17 1373.91 1566.07 Q1369.99 1568.97 1363.12 1568.97 Q1360.26 1568.97 1357.14 1568.39 Q1354.05 1567.85 1350.61 1566.74 L1350.61 1560.69 Q1353.86 1562.38 1357.01 1563.24 Q1360.16 1564.07 1363.25 1564.07 Q1367.38 1564.07 1369.61 1562.66 Q1371.84 1561.23 1371.84 1558.65 Q1371.84 1556.27 1370.22 1554.99 Q1368.63 1553.72 1363.18 1552.54 L1361.15 1552.07 Q1355.7 1550.92 1353.28 1548.56 Q1350.87 1546.18 1350.87 1542.04 Q1350.87 1537.01 1354.43 1534.27 Q1358 1531.54 1364.55 1531.54 Q1367.8 1531.54 1370.66 1532.01 Q1373.53 1532.49 1375.95 1533.45 Z" fill="#000000" fill-rule="nonzero" fill-opacity="1" /><path clip-path="url(#clip350)" d="M1414.27 1578.87 L1414.27 1583.42 L1380.4 1583.42 L1380.4 1578.87 L1414.27 1578.87 Z" fill="#000000" fill-rule="nonzero" fill-opacity="1" /><path clip-path="url(#clip350)" d="M1442.5 1533.45 L1442.5 1538.98 Q1440.02 1537.71 1437.34 1537.07 Q1434.67 1536.44 1431.81 1536.44 Q1427.45 1536.44 1425.25 1537.77 Q1423.08 1539.11 1423.08 1541.79 Q1423.08 1543.82 1424.64 1545 Q1426.2 1546.15 1430.91 1547.2 L1432.92 1547.64 Q1439.16 1548.98 1441.77 1551.43 Q1444.41 1553.85 1444.41 1558.21 Q1444.41 1563.17 1440.46 1566.07 Q1436.55 1568.97 1429.67 1568.97 Q1426.81 1568.97 1423.69 1568.39 Q1420.6 1567.85 1417.16 1566.74 L1417.16 1560.69 Q1420.41 1562.38 1423.56 1563.24 Q1426.71 1564.07 1429.8 1564.07 Q1433.94 1564.07 1436.17 1562.66 Q1438.39 1561.23 1438.39 1558.65 Q1438.39 1556.27 1436.77 1554.99 Q1435.18 1553.72 1429.74 1552.54 L1427.7 1552.07 Q1422.26 1550.92 1419.84 1548.56 Q1417.42 1546.18 1417.42 1542.04 Q1417.42 1537.01 1420.98 1534.27 Q1424.55 1531.54 1431.11 1531.54 Q1434.35 1531.54 1437.22 1532.01 Q1440.08 1532.49 1442.5 1533.45 Z" fill="#000000" fill-rule="nonzero" fill-opacity="1" /><path clip-path="url(#clip350)" d="M1459.4 1562.7 L1459.4 1581.6 L1453.51 1581.6 L1453.51 1532.4 L1459.4 1532.4 L1459.4 1537.81 Q1461.25 1534.62 1464.05 1533.1 Q1466.88 1531.54 1470.8 1531.54 Q1477.29 1531.54 1481.33 1536.69 Q1485.41 1541.85 1485.41 1550.25 Q1485.41 1558.65 1481.33 1563.81 Q1477.29 1568.97 1470.8 1568.97 Q1466.88 1568.97 1464.05 1567.44 Q1461.25 1565.88 1459.4 1562.7 M1479.33 1550.25 Q1479.33 1543.79 1476.65 1540.13 Q1474.01 1536.44 1469.36 1536.44 Q1464.72 1536.44 1462.04 1540.13 Q1459.4 1543.79 1459.4 1550.25 Q1459.4 1556.71 1462.04 1560.4 Q1464.72 1564.07 1469.36 1564.07 Q1474.01 1564.07 1476.65 1560.4 Q1479.33 1556.71 1479.33 1550.25 Z" fill="#000000" fill-rule="nonzero" fill-opacity="1" /><path clip-path="url(#clip350)" d="M1495.11 1518.52 L1500.97 1518.52 L1500.97 1568.04 L1495.11 1568.04 L1495.11 1518.52 Z" fill="#000000" fill-rule="nonzero" fill-opacity="1" /><path clip-path="url(#clip350)" d="M1513.22 1532.4 L1519.08 1532.4 L1519.08 1568.04 L1513.22 1568.04 L1513.22 1532.4 M1513.22 1518.52 L1519.08 1518.52 L1519.08 1525.93 L1513.22 1525.93 L1513.22 1518.52 Z" fill="#000000" fill-rule="nonzero" fill-opacity="1" /><path clip-path="url(#clip350)" d="M1537.13 1522.27 L1537.13 1532.4 L1549.19 1532.4 L1549.19 1536.95 L1537.13 1536.95 L1537.13 1556.3 Q1537.13 1560.66 1538.3 1561.9 Q1539.51 1563.14 1543.17 1563.14 L1549.19 1563.14 L1549.19 1568.04 L1543.17 1568.04 Q1536.39 1568.04 1533.82 1565.53 Q1531.24 1562.98 1531.24 1556.3 L1531.24 1536.95 L1526.94 1536.95 L1526.94 1532.4 L1531.24 1532.4 L1531.24 1522.27 L1537.13 1522.27 Z" fill="#000000" fill-rule="nonzero" fill-opacity="1" /><polyline clip-path="url(#clip352)" style="stroke:#000000; stroke-linecap:round; stroke-linejoin:round; stroke-width:2; stroke-opacity:0.1; fill:none" points="156.922,1145.8 2352.76,1145.8 "/>
<polyline clip-path="url(#clip352)" style="stroke:#000000; stroke-linecap:round; stroke-linejoin:round; stroke-width:2; stroke-opacity:0.1; fill:none" points="156.922,847.965 2352.76,847.965 "/>
<polyline clip-path="url(#clip352)" style="stroke:#000000; stroke-linecap:round; stroke-linejoin:round; stroke-width:2; stroke-opacity:0.1; fill:none" points="156.922,550.129 2352.76,550.129 "/>
<polyline clip-path="url(#clip352)" style="stroke:#000000; stroke-linecap:round; stroke-linejoin:round; stroke-width:2; stroke-opacity:0.1; fill:none" points="156.922,252.292 2352.76,252.292 "/>
<polyline clip-path="url(#clip350)" style="stroke:#000000; stroke-linecap:round; stroke-linejoin:round; stroke-width:4; stroke-opacity:1; fill:none" points="156.922,1423.18 156.922,47.2441 "/>
<polyline clip-path="url(#clip350)" style="stroke:#000000; stroke-linecap:round; stroke-linejoin:round; stroke-width:4; stroke-opacity:1; fill:none" points="156.922,1145.8 175.82,1145.8 "/>
<polyline clip-path="url(#clip350)" style="stroke:#000000; stroke-linecap:round; stroke-linejoin:round; stroke-width:4; stroke-opacity:1; fill:none" points="156.922,847.965 175.82,847.965 "/>
<polyline clip-path="url(#clip350)" style="stroke:#000000; stroke-linecap:round; stroke-linejoin:round; stroke-width:4; stroke-opacity:1; fill:none" points="156.922,550.129 175.82,550.129 "/>
<polyline clip-path="url(#clip350)" style="stroke:#000000; stroke-linecap:round; stroke-linejoin:round; stroke-width:4; stroke-opacity:1; fill:none" points="156.922,252.292 175.82,252.292 "/>
<path clip-path="url(#clip350)" d="M67.7513 1144.45 Q71.1078 1145.17 72.9827 1147.43 Q74.8809 1149.7 74.8809 1153.04 Q74.8809 1158.15 71.3624 1160.95 Q67.8439 1163.75 61.3624 1163.75 Q59.1865 1163.75 56.8717 1163.31 Q54.5801 1162.9 52.1264 1162.04 L52.1264 1157.53 Q54.0708 1158.66 56.3856 1159.24 Q58.7004 1159.82 61.2236 1159.82 Q65.6217 1159.82 67.9133 1158.08 Q70.2281 1156.35 70.2281 1153.04 Q70.2281 1149.98 68.0754 1148.27 Q65.9457 1146.53 62.1263 1146.53 L58.0986 1146.53 L58.0986 1142.69 L62.3115 1142.69 Q65.7606 1142.69 67.5893 1141.32 Q69.418 1139.93 69.418 1137.34 Q69.418 1134.68 67.5198 1133.27 Q65.6448 1131.83 62.1263 1131.83 Q60.205 1131.83 58.006 1132.25 Q55.8069 1132.67 53.168 1133.55 L53.168 1129.38 Q55.8301 1128.64 58.1449 1128.27 Q60.4828 1127.9 62.543 1127.9 Q67.867 1127.9 70.9689 1130.33 Q74.0707 1132.74 74.0707 1136.86 Q74.0707 1139.73 72.4272 1141.72 Q70.7837 1143.68 67.7513 1144.45 Z" fill="#000000" fill-rule="nonzero" fill-opacity="1" /><path clip-path="url(#clip350)" d="M83.7466 1157.2 L88.6308 1157.2 L88.6308 1163.08 L83.7466 1163.08 L83.7466 1157.2 Z" fill="#000000" fill-rule="nonzero" fill-opacity="1" /><path clip-path="url(#clip350)" d="M109.395 1143.94 Q106.246 1143.94 104.395 1146.09 Q102.566 1148.24 102.566 1151.99 Q102.566 1155.72 104.395 1157.9 Q106.246 1160.05 109.395 1160.05 Q112.543 1160.05 114.371 1157.9 Q116.223 1155.72 116.223 1151.99 Q116.223 1148.24 114.371 1146.09 Q112.543 1143.94 109.395 1143.94 M118.677 1129.29 L118.677 1133.55 Q116.918 1132.71 115.112 1132.27 Q113.33 1131.83 111.571 1131.83 Q106.941 1131.83 104.487 1134.96 Q102.057 1138.08 101.709 1144.4 Q103.075 1142.39 105.135 1141.32 Q107.196 1140.24 109.672 1140.24 Q114.881 1140.24 117.89 1143.41 Q120.922 1146.55 120.922 1151.99 Q120.922 1157.32 117.774 1160.54 Q114.626 1163.75 109.395 1163.75 Q103.399 1163.75 100.228 1159.17 Q97.0567 1154.56 97.0567 1145.84 Q97.0567 1137.64 100.946 1132.78 Q104.834 1127.9 111.385 1127.9 Q113.145 1127.9 114.927 1128.24 Q116.733 1128.59 118.677 1129.29 Z" fill="#000000" fill-rule="nonzero" fill-opacity="1" /><path clip-path="url(#clip350)" d="M68.0059 846.611 Q71.3624 847.329 73.2374 849.597 Q75.1355 851.866 75.1355 855.199 Q75.1355 860.315 71.617 863.116 Q68.0985 865.917 61.6171 865.917 Q59.4412 865.917 57.1264 865.477 Q54.8347 865.06 52.381 864.204 L52.381 859.69 Q54.3254 860.824 56.6402 861.403 Q58.955 861.982 61.4782 861.982 Q65.8763 861.982 68.168 860.245 Q70.4828 858.509 70.4828 855.199 Q70.4828 852.144 68.33 850.431 Q66.2004 848.695 62.381 848.695 L58.3532 848.695 L58.3532 844.852 L62.5661 844.852 Q66.0152 844.852 67.8439 843.486 Q69.6726 842.097 69.6726 839.505 Q69.6726 836.843 67.7744 835.431 Q65.8995 833.996 62.381 833.996 Q60.4597 833.996 58.2606 834.412 Q56.0615 834.829 53.4227 835.709 L53.4227 831.542 Q56.0847 830.801 58.3995 830.431 Q60.7374 830.06 62.7976 830.06 Q68.1217 830.06 71.2235 832.491 Q74.3253 834.898 74.3253 839.019 Q74.3253 841.889 72.6818 843.88 Q71.0383 845.847 68.0059 846.611 Z" fill="#000000" fill-rule="nonzero" fill-opacity="1" /><path clip-path="url(#clip350)" d="M84.0012 859.366 L88.8854 859.366 L88.8854 865.245 L84.0012 865.245 L84.0012 859.366 Z" fill="#000000" fill-rule="nonzero" fill-opacity="1" /><path clip-path="url(#clip350)" d="M109.071 848.834 Q105.737 848.834 103.816 850.616 Q101.918 852.398 101.918 855.523 Q101.918 858.648 103.816 860.431 Q105.737 862.213 109.071 862.213 Q112.404 862.213 114.325 860.431 Q116.246 858.625 116.246 855.523 Q116.246 852.398 114.325 850.616 Q112.427 848.834 109.071 848.834 M104.395 846.843 Q101.385 846.102 99.6956 844.042 Q98.0289 841.982 98.0289 839.019 Q98.0289 834.875 100.969 832.468 Q103.932 830.06 109.071 830.06 Q114.233 830.06 117.172 832.468 Q120.112 834.875 120.112 839.019 Q120.112 841.982 118.422 844.042 Q116.756 846.102 113.77 846.843 Q117.149 847.63 119.024 849.921 Q120.922 852.213 120.922 855.523 Q120.922 860.546 117.844 863.232 Q114.788 865.917 109.071 865.917 Q103.353 865.917 100.274 863.232 Q97.2187 860.546 97.2187 855.523 Q97.2187 852.213 99.1169 849.921 Q101.015 847.63 104.395 846.843 M102.682 839.459 Q102.682 842.144 104.348 843.648 Q106.038 845.153 109.071 845.153 Q112.08 845.153 113.77 843.648 Q115.483 842.144 115.483 839.459 Q115.483 836.773 113.77 835.269 Q112.08 833.764 109.071 833.764 Q106.038 833.764 104.348 835.269 Q102.682 836.773 102.682 839.459 Z" fill="#000000" fill-rule="nonzero" fill-opacity="1" /><path clip-path="url(#clip350)" d="M66.5939 536.923 L54.7884 555.372 L66.5939 555.372 L66.5939 536.923 M65.367 532.849 L71.2466 532.849 L71.2466 555.372 L76.1772 555.372 L76.1772 559.26 L71.2466 559.26 L71.2466 567.409 L66.5939 567.409 L66.5939 559.26 L50.9921 559.26 L50.9921 554.747 L65.367 532.849 Z" fill="#000000" fill-rule="nonzero" fill-opacity="1" /><path clip-path="url(#clip350)" d="M83.9086 561.529 L88.7928 561.529 L88.7928 567.409 L83.9086 567.409 L83.9086 561.529 Z" fill="#000000" fill-rule="nonzero" fill-opacity="1" /><path clip-path="url(#clip350)" d="M108.978 535.927 Q105.367 535.927 103.538 539.492 Q101.733 543.034 101.733 550.163 Q101.733 557.27 103.538 560.835 Q105.367 564.376 108.978 564.376 Q112.612 564.376 114.418 560.835 Q116.246 557.27 116.246 550.163 Q116.246 543.034 114.418 539.492 Q112.612 535.927 108.978 535.927 M108.978 532.224 Q114.788 532.224 117.844 536.83 Q120.922 541.413 120.922 550.163 Q120.922 558.89 117.844 563.497 Q114.788 568.08 108.978 568.08 Q103.168 568.08 100.089 563.497 Q97.0335 558.89 97.0335 550.163 Q97.0335 541.413 100.089 536.83 Q103.168 532.224 108.978 532.224 Z" fill="#000000" fill-rule="nonzero" fill-opacity="1" /><path clip-path="url(#clip350)" d="M68.1911 239.086 L56.3856 257.535 L68.1911 257.535 L68.1911 239.086 M66.9643 235.012 L72.8439 235.012 L72.8439 257.535 L77.7744 257.535 L77.7744 261.424 L72.8439 261.424 L72.8439 269.572 L68.1911 269.572 L68.1911 261.424 L52.5893 261.424 L52.5893 256.91 L66.9643 235.012 Z" fill="#000000" fill-rule="nonzero" fill-opacity="1" /><path clip-path="url(#clip350)" d="M85.5058 263.692 L90.3901 263.692 L90.3901 269.572 L85.5058 269.572 L85.5058 263.692 Z" fill="#000000" fill-rule="nonzero" fill-opacity="1" /><path clip-path="url(#clip350)" d="M104.603 265.637 L120.922 265.637 L120.922 269.572 L98.978 269.572 L98.978 265.637 Q101.64 262.882 106.223 258.252 Q110.83 253.6 112.01 252.257 Q114.256 249.734 115.135 247.998 Q116.038 246.239 116.038 244.549 Q116.038 241.794 114.094 240.058 Q112.172 238.322 109.071 238.322 Q106.871 238.322 104.418 239.086 Q101.987 239.85 99.2095 241.401 L99.2095 236.678 Q102.034 235.544 104.487 234.965 Q106.941 234.387 108.978 234.387 Q114.348 234.387 117.543 237.072 Q120.737 239.757 120.737 244.248 Q120.737 246.377 119.927 248.299 Q119.14 250.197 117.033 252.789 Q116.455 253.461 113.353 256.678 Q110.251 259.873 104.603 265.637 Z" fill="#000000" fill-rule="nonzero" fill-opacity="1" /><polyline clip-path="url(#clip352)" style="stroke:#009af9; stroke-linecap:round; stroke-linejoin:round; stroke-width:4; stroke-opacity:1; fill:none" points="219.069,968.343 240.207,950.528 261.345,1014.83 282.483,955.742 303.621,1005.88 324.759,1034.8 345.898,1006.15 367.036,1022.98 388.174,976.567 430.45,1130.09 451.588,1169.05 493.865,1252.55 536.141,1177.11 599.556,1281.55 662.97,1259.23 726.385,1254.87 810.937,1384.24 895.49,1206.5 1001.18,980.002 1128.01,967.864 1254.84,1017.55 1402.81,727.288 1593.05,491.06 1783.29,376.095 2015.81,317.247 2290.61,86.1857 "/>
<path clip-path="url(#clip350)" d="M230.117 196.789 L502.13 196.789 L502.13 93.1086 L230.117 93.1086  Z" fill="#ffffff" fill-rule="evenodd" fill-opacity="1"/>
<polyline clip-path="url(#clip350)" style="stroke:#000000; stroke-linecap:round; stroke-linejoin:round; stroke-width:4; stroke-opacity:1; fill:none" points="230.117,196.789 502.13,196.789 502.13,93.1086 230.117,93.1086 230.117,196.789 "/>
<polyline clip-path="url(#clip350)" style="stroke:#009af9; stroke-linecap:round; stroke-linejoin:round; stroke-width:4; stroke-opacity:1; fill:none" points="254.515,144.949 400.904,144.949 "/>
<path clip-path="url(#clip350)" d="M439.144 164.636 Q437.339 169.266 435.626 170.678 Q433.913 172.09 431.043 172.09 L427.64 172.09 L427.64 168.525 L430.14 168.525 Q431.899 168.525 432.871 167.692 Q433.844 166.858 435.024 163.756 L435.788 161.812 L425.302 136.303 L429.816 136.303 L437.918 156.581 L446.019 136.303 L450.533 136.303 L439.144 164.636 Z" fill="#000000" fill-rule="nonzero" fill-opacity="1" /><path clip-path="url(#clip350)" d="M457.825 158.293 L465.464 158.293 L465.464 131.928 L457.154 133.595 L457.154 129.335 L465.417 127.669 L470.093 127.669 L470.093 158.293 L477.732 158.293 L477.732 162.229 L457.825 162.229 L457.825 158.293 Z" fill="#000000" fill-rule="nonzero" fill-opacity="1" /></svg>
