<?xml version="1.0" encoding="utf-8"?>
<svg xmlns="http://www.w3.org/2000/svg" xmlns:xlink="http://www.w3.org/1999/xlink" width="600" height="400" viewBox="0 0 2400 1600">
<defs>
  <clipPath id="clip360">
    <rect x="0" y="0" width="2400" height="1600"/>
  </clipPath>
</defs>
<path clip-path="url(#clip360)" d="M0 1600 L2400 1600 L2400 0 L0 0  Z" fill="#ffffff" fill-rule="evenodd" fill-opacity="1"/>
<defs>
  <clipPath id="clip361">
    <rect x="480" y="0" width="1681" height="1600"/>
  </clipPath>
</defs>
<path clip-path="url(#clip360)" d="M148.181 1436.14 L2352.76 1436.14 L2352.76 47.2441 L148.181 47.2441  Z" fill="#ffffff" fill-rule="evenodd" fill-opacity="1"/>
<defs>
  <clipPath id="clip362">
    <rect x="148" y="47" width="2206" height="1390"/>
  </clipPath>
</defs>
<polyline clip-path="url(#clip362)" style="stroke:#000000; stroke-linecap:round; stroke-linejoin:round; stroke-width:2; stroke-opacity:0.1; fill:none" points="168.13,1436.14 168.13,47.2441 "/>
<polyline clip-path="url(#clip362)" style="stroke:#000000; stroke-linecap:round; stroke-linejoin:round; stroke-width:2; stroke-opacity:0.1; fill:none" points="698.688,1436.14 698.688,47.2441 "/>
<polyline clip-path="url(#clip362)" style="stroke:#000000; stroke-linecap:round; stroke-linejoin:round; stroke-width:2; stroke-opacity:0.1; fill:none" points="1229.25,1436.14 1229.25,47.2441 "/>
<polyline clip-path="url(#clip362)" style="stroke:#000000; stroke-linecap:round; stroke-linejoin:round; stroke-width:2; stroke-opacity:0.1; fill:none" points="1759.8,1436.14 1759.8,47.2441 "/>
<polyline clip-path="url(#clip362)" style="stroke:#000000; stroke-linecap:round; stroke-linejoin:round; stroke-width:2; stroke-opacity:0.1; fill:none" points="2290.36,1436.14 2290.36,47.2441 "/>
<polyline clip-path="url(#clip360)" style="stroke:#000000; stroke-linecap:round; stroke-linejoin:round; stroke-width:4; stroke-opacity:1; fill:none" points="148.181,1436.14 2352.76,1436.14 "/>
<polyline clip-path="url(#clip360)" style="stroke:#000000; stroke-linecap:round; stroke-linejoin:round; stroke-width:4; stroke-opacity:1; fill:none" points="168.13,1436.14 168.13,1417.24 "/>
<polyline clip-path="url(#clip360)" style="stroke:#000000; stroke-linecap:round; stroke-linejoin:round; stroke-width:4; stroke-opacity:1; fill:none" points="698.688,1436.14 698.688,1417.24 "/>
<polyline clip-path="url(#clip360)" style="stroke:#000000; stroke-linecap:round; stroke-linejoin:round; stroke-width:4; stroke-opacity:1; fill:none" points="1229.25,1436.14 1229.25,1417.24 "/>
<polyline clip-path="url(#clip360)" style="stroke:#000000; stroke-linecap:round; stroke-linejoin:round; stroke-width:4; stroke-opacity:1; fill:none" points="1759.8,1436.14 1759.8,1417.24 "/>
<polyline clip-path="url(#clip360)" style="stroke:#000000; stroke-linecap:round; stroke-linejoin:round; stroke-width:4; stroke-opacity:1; fill:none" points="2290.36,1436.14 2290.36,1417.24 "/>
<path clip-path="url(#clip360)" d="M168.13 1465.59 Q164.97 1465.59 163.37 1468.71 Q161.79 1471.81 161.79 1478.05 Q161.79 1484.27 163.37 1487.39 Q164.97 1490.49 168.13 1490.49 Q171.31 1490.49 172.89 1487.39 Q174.49 1484.27 174.49 1478.05 Q174.49 1471.81 172.89 1468.71 Q171.31 1465.59 168.13 1465.59 M168.13 1462.35 Q173.214 1462.35 175.887 1466.38 Q178.581 1470.39 178.581 1478.05 Q178.581 1485.69 175.887 1489.72 Q173.214 1493.73 168.13 1493.73 Q163.046 1493.73 160.352 1489.72 Q157.679 1485.69 157.679 1478.05 Q157.679 1470.39 160.352 1466.38 Q163.046 1462.35 168.13 1462.35 Z" fill="#000000" fill-rule="nonzero" fill-opacity="1" /><path clip-path="url(#clip360)" d="M680.55 1489.7 L694.83 1489.7 L694.83 1493.14 L675.628 1493.14 L675.628 1489.7 Q677.958 1487.29 681.968 1483.24 Q685.999 1479.16 687.032 1477.99 Q688.996 1475.78 689.766 1474.26 Q690.556 1472.72 690.556 1471.24 Q690.556 1468.83 688.855 1467.32 Q687.173 1465.8 684.459 1465.8 Q682.535 1465.8 680.388 1466.46 Q678.261 1467.13 675.831 1468.49 L675.831 1464.36 Q678.302 1463.37 680.449 1462.86 Q682.596 1462.35 684.378 1462.35 Q689.077 1462.35 691.872 1464.7 Q694.668 1467.05 694.668 1470.98 Q694.668 1472.84 693.959 1474.53 Q693.27 1476.19 691.427 1478.46 Q690.92 1479.04 688.206 1481.86 Q685.492 1484.65 680.55 1489.7 Z" fill="#000000" fill-rule="nonzero" fill-opacity="1" /><path clip-path="url(#clip360)" d="M703.458 1462.9 L719.52 1462.9 L719.52 1466.34 L707.205 1466.34 L707.205 1473.76 Q708.096 1473.45 708.988 1473.31 Q709.879 1473.15 710.77 1473.15 Q715.834 1473.15 718.791 1475.92 Q721.748 1478.7 721.748 1483.44 Q721.748 1488.32 718.71 1491.03 Q715.671 1493.73 710.142 1493.73 Q708.238 1493.73 706.253 1493.4 Q704.288 1493.08 702.182 1492.43 L702.182 1488.32 Q704.005 1489.31 705.949 1489.8 Q707.894 1490.28 710.061 1490.28 Q713.565 1490.28 715.611 1488.44 Q717.656 1486.6 717.656 1483.44 Q717.656 1480.28 715.611 1478.44 Q713.565 1476.59 710.061 1476.59 Q708.42 1476.59 706.78 1476.96 Q705.159 1477.32 703.458 1478.09 L703.458 1462.9 Z" fill="#000000" fill-rule="nonzero" fill-opacity="1" /><path clip-path="url(#clip360)" d="M1207.11 1462.9 L1223.17 1462.9 L1223.17 1466.34 L1210.86 1466.34 L1210.86 1473.76 Q1211.75 1473.45 1212.64 1473.31 Q1213.53 1473.15 1214.42 1473.15 Q1219.48 1473.15 1222.44 1475.92 Q1225.4 1478.7 1225.4 1483.44 Q1225.4 1488.32 1222.36 1491.03 Q1219.32 1493.73 1213.79 1493.73 Q1211.89 1493.73 1209.9 1493.4 Q1207.94 1493.08 1205.83 1492.43 L1205.83 1488.32 Q1207.65 1489.31 1209.6 1489.8 Q1211.54 1490.28 1213.71 1490.28 Q1217.21 1490.28 1219.26 1488.44 Q1221.31 1486.6 1221.31 1483.44 Q1221.31 1480.28 1219.26 1478.44 Q1217.21 1476.59 1213.71 1476.59 Q1212.07 1476.59 1210.43 1476.96 Q1208.81 1477.32 1207.11 1478.09 L1207.11 1462.9 Z" fill="#000000" fill-rule="nonzero" fill-opacity="1" /><path clip-path="url(#clip360)" d="M1242.21 1465.59 Q1239.05 1465.59 1237.45 1468.71 Q1235.87 1471.81 1235.87 1478.05 Q1235.87 1484.27 1237.45 1487.39 Q1239.05 1490.49 1242.21 1490.49 Q1245.39 1490.49 1246.97 1487.39 Q1248.57 1484.27 1248.57 1478.05 Q1248.57 1471.81 1246.97 1468.71 Q1245.39 1465.59 1242.21 1465.59 M1242.21 1462.35 Q1247.29 1462.35 1249.97 1466.38 Q1252.66 1470.39 1252.66 1478.05 Q1252.66 1485.69 1249.97 1489.72 Q1247.29 1493.73 1242.21 1493.73 Q1237.13 1493.73 1234.43 1489.72 Q1231.76 1485.69 1231.76 1478.05 Q1231.76 1470.39 1234.43 1466.38 Q1237.13 1462.35 1242.21 1462.35 Z" fill="#000000" fill-rule="nonzero" fill-opacity="1" /><path clip-path="url(#clip360)" d="M1736.93 1462.9 L1756.37 1462.9 L1756.37 1464.64 L1745.39 1493.14 L1741.12 1493.14 L1751.45 1466.34 L1736.93 1466.34 L1736.93 1462.9 Z" fill="#000000" fill-rule="nonzero" fill-opacity="1" /><path clip-path="url(#clip360)" d="M1764.39 1462.9 L1780.45 1462.9 L1780.45 1466.34 L1768.14 1466.34 L1768.14 1473.76 Q1769.03 1473.45 1769.92 1473.31 Q1770.81 1473.15 1771.7 1473.15 Q1776.77 1473.15 1779.72 1475.92 Q1782.68 1478.7 1782.68 1483.44 Q1782.68 1488.32 1779.64 1491.03 Q1776.61 1493.73 1771.08 1493.73 Q1769.17 1493.73 1767.19 1493.4 Q1765.22 1493.08 1763.12 1492.43 L1763.12 1488.32 Q1764.94 1489.31 1766.88 1489.8 Q1768.83 1490.28 1770.99 1490.28 Q1774.5 1490.28 1776.54 1488.44 Q1778.59 1486.6 1778.59 1483.44 Q1778.59 1480.28 1776.54 1478.44 Q1774.5 1476.59 1770.99 1476.59 Q1769.35 1476.59 1767.71 1476.96 Q1766.09 1477.32 1764.39 1478.09 L1764.39 1462.9 Z" fill="#000000" fill-rule="nonzero" fill-opacity="1" /><path clip-path="url(#clip360)" d="M2255.02 1489.7 L2261.7 1489.7 L2261.7 1466.63 L2254.43 1468.08 L2254.43 1464.36 L2261.66 1462.9 L2265.75 1462.9 L2265.75 1489.7 L2272.44 1489.7 L2272.44 1493.14 L2255.02 1493.14 L2255.02 1489.7 Z" fill="#000000" fill-rule="nonzero" fill-opacity="1" /><path clip-path="url(#clip360)" d="M2289.45 1465.59 Q2286.29 1465.59 2284.69 1468.71 Q2283.11 1471.81 2283.11 1478.05 Q2283.11 1484.27 2284.69 1487.39 Q2286.29 1490.49 2289.45 1490.49 Q2292.63 1490.49 2294.21 1487.39 Q2295.81 1484.27 2295.81 1478.05 Q2295.81 1471.81 2294.21 1468.71 Q2292.63 1465.59 2289.45 1465.59 M2289.45 1462.35 Q2294.53 1462.35 2297.21 1466.38 Q2299.9 1470.39 2299.9 1478.05 Q2299.9 1485.69 2297.21 1489.72 Q2294.53 1493.73 2289.45 1493.73 Q2284.37 1493.73 2281.67 1489.72 Q2279 1485.69 2279 1478.05 Q2279 1470.39 2281.67 1466.38 Q2284.37 1462.35 2289.45 1462.35 Z" fill="#000000" fill-rule="nonzero" fill-opacity="1" /><path clip-path="url(#clip360)" d="M2315.84 1465.59 Q2312.68 1465.59 2311.08 1468.71 Q2309.5 1471.81 2309.5 1478.05 Q2309.5 1484.27 2311.08 1487.39 Q2312.68 1490.49 2315.84 1490.49 Q2319.02 1490.49 2320.6 1487.39 Q2322.2 1484.27 2322.2 1478.05 Q2322.2 1471.81 2320.6 1468.71 Q2319.02 1465.59 2315.84 1465.59 M2315.84 1462.35 Q2320.93 1462.35 2323.6 1466.38 Q2326.29 1470.39 2326.29 1478.05 Q2326.29 1485.69 2323.6 1489.72 Q2320.93 1493.73 2315.84 1493.73 Q2310.76 1493.73 2308.06 1489.72 Q2305.39 1485.69 2305.39 1478.05 Q2305.39 1470.39 2308.06 1466.38 Q2310.76 1462.35 2315.84 1462.35 Z" fill="#000000" fill-rule="nonzero" fill-opacity="1" /><path clip-path="url(#clip360)" d="M1032.53 1540.59 Q1034.32 1537.36 1036.82 1535.82 Q1039.32 1534.29 1042.71 1534.29 Q1047.27 1534.29 1049.74 1537.49 Q1052.21 1540.67 1052.21 1546.55 L1052.21 1564.16 L1047.4 1564.16 L1047.4 1546.71 Q1047.4 1542.52 1045.91 1540.48 Q1044.43 1538.45 1041.38 1538.45 Q1037.66 1538.45 1035.5 1540.93 Q1033.33 1543.4 1033.33 1547.67 L1033.33 1564.16 L1028.52 1564.16 L1028.52 1546.71 Q1028.52 1542.49 1027.03 1540.48 Q1025.55 1538.45 1022.45 1538.45 Q1018.78 1538.45 1016.62 1540.95 Q1014.45 1543.43 1014.45 1547.67 L1014.45 1564.16 L1009.64 1564.16 L1009.64 1534.99 L1014.45 1534.99 L1014.45 1539.52 Q1016.09 1536.84 1018.39 1535.56 Q1020.68 1534.29 1023.83 1534.29 Q1027.01 1534.29 1029.22 1535.9 Q1031.46 1537.52 1032.53 1540.59 Z" fill="#000000" fill-rule="nonzero" fill-opacity="1" /><path clip-path="url(#clip360)" d="M1061.77 1534.99 L1066.56 1534.99 L1066.56 1564.16 L1061.77 1564.16 L1061.77 1534.99 M1061.77 1523.64 L1066.56 1523.64 L1066.56 1529.7 L1061.77 1529.7 L1061.77 1523.64 Z" fill="#000000" fill-rule="nonzero" fill-opacity="1" /><path clip-path="url(#clip360)" d="M1100.83 1546.55 L1100.83 1564.16 L1096.04 1564.16 L1096.04 1546.71 Q1096.04 1542.57 1094.43 1540.51 Q1092.81 1538.45 1089.58 1538.45 Q1085.7 1538.45 1083.46 1540.93 Q1081.22 1543.4 1081.22 1547.67 L1081.22 1564.16 L1076.41 1564.16 L1076.41 1534.99 L1081.22 1534.99 L1081.22 1539.52 Q1082.94 1536.89 1085.26 1535.59 Q1087.6 1534.29 1090.65 1534.29 Q1095.68 1534.29 1098.26 1537.41 Q1100.83 1540.51 1100.83 1546.55 Z" fill="#000000" fill-rule="nonzero" fill-opacity="1" /><path clip-path="url(#clip360)" d="M1132.55 1573.01 L1132.55 1576.73 L1104.84 1576.73 L1104.84 1573.01 L1132.55 1573.01 Z" fill="#000000" fill-rule="nonzero" fill-opacity="1" /><path clip-path="url(#clip360)" d="M1155.65 1535.85 L1155.65 1540.38 Q1153.62 1539.34 1151.43 1538.82 Q1149.25 1538.3 1146.9 1538.3 Q1143.33 1538.3 1141.54 1539.39 Q1139.77 1540.48 1139.77 1542.67 Q1139.77 1544.34 1141.04 1545.3 Q1142.32 1546.24 1146.17 1547.1 L1147.81 1547.46 Q1152.92 1548.56 1155.05 1550.56 Q1157.21 1552.54 1157.21 1556.11 Q1157.21 1560.17 1153.98 1562.54 Q1150.78 1564.91 1145.16 1564.91 Q1142.81 1564.91 1140.26 1564.44 Q1137.73 1564 1134.92 1563.09 L1134.92 1558.14 Q1137.58 1559.52 1140.16 1560.22 Q1142.73 1560.9 1145.26 1560.9 Q1148.65 1560.9 1150.47 1559.75 Q1152.29 1558.58 1152.29 1556.47 Q1152.29 1554.52 1150.96 1553.48 Q1149.66 1552.44 1145.21 1551.47 L1143.54 1551.08 Q1139.09 1550.15 1137.11 1548.22 Q1135.13 1546.27 1135.13 1542.88 Q1135.13 1538.77 1138.05 1536.53 Q1140.96 1534.29 1146.33 1534.29 Q1148.98 1534.29 1151.33 1534.68 Q1153.67 1535.07 1155.65 1535.85 Z" fill="#000000" fill-rule="nonzero" fill-opacity="1" /><path clip-path="url(#clip360)" d="M1178.1 1549.49 Q1172.29 1549.49 1170.05 1550.82 Q1167.81 1552.15 1167.81 1555.35 Q1167.81 1557.91 1169.48 1559.42 Q1171.17 1560.9 1174.06 1560.9 Q1178.05 1560.9 1180.44 1558.09 Q1182.86 1555.25 1182.86 1550.56 L1182.86 1549.49 L1178.1 1549.49 M1187.66 1547.52 L1187.66 1564.16 L1182.86 1564.16 L1182.86 1559.73 Q1181.22 1562.39 1178.78 1563.66 Q1176.33 1564.91 1172.79 1564.91 Q1168.31 1564.91 1165.65 1562.41 Q1163.02 1559.89 1163.02 1555.67 Q1163.02 1550.74 1166.3 1548.24 Q1169.61 1545.74 1176.15 1545.74 L1182.86 1545.74 L1182.86 1545.28 Q1182.86 1541.97 1180.68 1540.17 Q1178.52 1538.35 1174.58 1538.35 Q1172.08 1538.35 1169.71 1538.95 Q1167.34 1539.55 1165.16 1540.74 L1165.16 1536.32 Q1167.79 1535.3 1170.26 1534.81 Q1172.73 1534.29 1175.08 1534.29 Q1181.41 1534.29 1184.53 1537.57 Q1187.66 1540.85 1187.66 1547.52 Z" fill="#000000" fill-rule="nonzero" fill-opacity="1" /><path clip-path="url(#clip360)" d="M1220.23 1540.59 Q1222.03 1537.36 1224.53 1535.82 Q1227.03 1534.29 1230.42 1534.29 Q1234.97 1534.29 1237.45 1537.49 Q1239.92 1540.67 1239.92 1546.55 L1239.92 1564.16 L1235.1 1564.16 L1235.1 1546.71 Q1235.1 1542.52 1233.62 1540.48 Q1232.14 1538.45 1229.09 1538.45 Q1225.36 1538.45 1223.2 1540.93 Q1221.04 1543.4 1221.04 1547.67 L1221.04 1564.16 L1216.22 1564.16 L1216.22 1546.71 Q1216.22 1542.49 1214.74 1540.48 Q1213.26 1538.45 1210.16 1538.45 Q1206.48 1538.45 1204.32 1540.95 Q1202.16 1543.43 1202.16 1547.67 L1202.16 1564.16 L1197.34 1564.16 L1197.34 1534.99 L1202.16 1534.99 L1202.16 1539.52 Q1203.8 1536.84 1206.09 1535.56 Q1208.39 1534.29 1211.54 1534.29 Q1214.71 1534.29 1216.93 1535.9 Q1219.17 1537.52 1220.23 1540.59 Z" fill="#000000" fill-rule="nonzero" fill-opacity="1" /><path clip-path="url(#clip360)" d="M1254.11 1559.78 L1254.11 1575.25 L1249.3 1575.25 L1249.3 1534.99 L1254.11 1534.99 L1254.11 1539.42 Q1255.62 1536.81 1257.92 1535.56 Q1260.23 1534.29 1263.44 1534.29 Q1268.75 1534.29 1272.06 1538.5 Q1275.39 1542.72 1275.39 1549.6 Q1275.39 1556.47 1272.06 1560.69 Q1268.75 1564.91 1263.44 1564.91 Q1260.23 1564.91 1257.92 1563.66 Q1255.62 1562.39 1254.11 1559.78 M1270.42 1549.6 Q1270.42 1544.31 1268.23 1541.32 Q1266.07 1538.3 1262.27 1538.3 Q1258.46 1538.3 1256.28 1541.32 Q1254.11 1544.31 1254.11 1549.6 Q1254.11 1554.89 1256.28 1557.91 Q1258.46 1560.9 1262.27 1560.9 Q1266.07 1560.9 1268.23 1557.91 Q1270.42 1554.89 1270.42 1549.6 Z" fill="#000000" fill-rule="nonzero" fill-opacity="1" /><path clip-path="url(#clip360)" d="M1283.33 1523.64 L1288.12 1523.64 L1288.12 1564.16 L1283.33 1564.16 L1283.33 1523.64 Z" fill="#000000" fill-rule="nonzero" fill-opacity="1" /><path clip-path="url(#clip360)" d="M1323.1 1548.37 L1323.1 1550.72 L1301.07 1550.72 Q1301.38 1555.67 1304.04 1558.27 Q1306.72 1560.85 1311.48 1560.85 Q1314.24 1560.85 1316.82 1560.17 Q1319.43 1559.49 1321.98 1558.14 L1321.98 1562.67 Q1319.4 1563.77 1316.69 1564.34 Q1313.98 1564.91 1311.2 1564.91 Q1304.22 1564.91 1300.13 1560.85 Q1296.07 1556.79 1296.07 1549.86 Q1296.07 1542.7 1299.92 1538.5 Q1303.8 1534.29 1310.36 1534.29 Q1316.25 1534.29 1319.66 1538.09 Q1323.1 1541.86 1323.1 1548.37 M1318.31 1546.97 Q1318.25 1543.04 1316.09 1540.69 Q1313.96 1538.35 1310.42 1538.35 Q1306.41 1538.35 1303.98 1540.61 Q1301.59 1542.88 1301.22 1546.99 L1318.31 1546.97 Z" fill="#000000" fill-rule="nonzero" fill-opacity="1" /><path clip-path="url(#clip360)" d="M1349.56 1535.85 L1349.56 1540.38 Q1347.53 1539.34 1345.34 1538.82 Q1343.15 1538.3 1340.81 1538.3 Q1337.24 1538.3 1335.44 1539.39 Q1333.67 1540.48 1333.67 1542.67 Q1333.67 1544.34 1334.95 1545.3 Q1336.22 1546.24 1340.08 1547.1 L1341.72 1547.46 Q1346.82 1548.56 1348.96 1550.56 Q1351.12 1552.54 1351.12 1556.11 Q1351.12 1560.17 1347.89 1562.54 Q1344.69 1564.91 1339.06 1564.91 Q1336.72 1564.91 1334.17 1564.44 Q1331.64 1564 1328.83 1563.09 L1328.83 1558.14 Q1331.48 1559.52 1334.06 1560.22 Q1336.64 1560.9 1339.17 1560.9 Q1342.55 1560.9 1344.37 1559.75 Q1346.2 1558.58 1346.2 1556.47 Q1346.2 1554.52 1344.87 1553.48 Q1343.57 1552.44 1339.11 1551.47 L1337.45 1551.08 Q1332.99 1550.15 1331.01 1548.22 Q1329.04 1546.27 1329.04 1542.88 Q1329.04 1538.77 1331.95 1536.53 Q1334.87 1534.29 1340.23 1534.29 Q1342.89 1534.29 1345.23 1534.68 Q1347.58 1535.07 1349.56 1535.85 Z" fill="#000000" fill-rule="nonzero" fill-opacity="1" /><path clip-path="url(#clip360)" d="M1380.91 1573.01 L1380.91 1576.73 L1353.2 1576.73 L1353.2 1573.01 L1380.91 1573.01 Z" fill="#000000" fill-rule="nonzero" fill-opacity="1" /><path clip-path="url(#clip360)" d="M1404.01 1535.85 L1404.01 1540.38 Q1401.98 1539.34 1399.79 1538.82 Q1397.6 1538.3 1395.26 1538.3 Q1391.69 1538.3 1389.89 1539.39 Q1388.12 1540.48 1388.12 1542.67 Q1388.12 1544.34 1389.4 1545.3 Q1390.68 1546.24 1394.53 1547.1 L1396.17 1547.46 Q1401.27 1548.56 1403.41 1550.56 Q1405.57 1552.54 1405.57 1556.11 Q1405.57 1560.17 1402.34 1562.54 Q1399.14 1564.91 1393.51 1564.91 Q1391.17 1564.91 1388.62 1564.44 Q1386.09 1564 1383.28 1563.09 L1383.28 1558.14 Q1385.94 1559.52 1388.51 1560.22 Q1391.09 1560.9 1393.62 1560.9 Q1397 1560.9 1398.83 1559.75 Q1400.65 1558.58 1400.65 1556.47 Q1400.65 1554.52 1399.32 1553.48 Q1398.02 1552.44 1393.57 1551.47 L1391.9 1551.08 Q1387.45 1550.15 1385.47 1548.22 Q1383.49 1546.27 1383.49 1542.88 Q1383.49 1538.77 1386.41 1536.53 Q1389.32 1534.29 1394.69 1534.29 Q1397.34 1534.29 1399.69 1534.68 Q1402.03 1535.07 1404.01 1535.85 Z" fill="#000000" fill-rule="nonzero" fill-opacity="1" /><path clip-path="url(#clip360)" d="M1417.84 1559.78 L1417.84 1575.25 L1413.02 1575.25 L1413.02 1534.99 L1417.84 1534.99 L1417.84 1539.42 Q1419.35 1536.81 1421.64 1535.56 Q1423.96 1534.29 1427.16 1534.29 Q1432.47 1534.29 1435.78 1538.5 Q1439.11 1542.72 1439.11 1549.6 Q1439.11 1556.47 1435.78 1560.69 Q1432.47 1564.91 1427.16 1564.91 Q1423.96 1564.91 1421.64 1563.66 Q1419.35 1562.39 1417.84 1559.78 M1434.14 1549.6 Q1434.14 1544.31 1431.95 1541.32 Q1429.79 1538.3 1425.99 1538.3 Q1422.19 1538.3 1420 1541.32 Q1417.84 1544.31 1417.84 1549.6 Q1417.84 1554.89 1420 1557.91 Q1422.19 1560.9 1425.99 1560.9 Q1429.79 1560.9 1431.95 1557.91 Q1434.14 1554.89 1434.14 1549.6 Z" fill="#000000" fill-rule="nonzero" fill-opacity="1" /><path clip-path="url(#clip360)" d="M1447.06 1523.64 L1451.85 1523.64 L1451.85 1564.16 L1447.06 1564.16 L1447.06 1523.64 Z" fill="#000000" fill-rule="nonzero" fill-opacity="1" /><path clip-path="url(#clip360)" d="M1461.87 1534.99 L1466.67 1534.99 L1466.67 1564.16 L1461.87 1564.16 L1461.87 1534.99 M1461.87 1523.64 L1466.67 1523.64 L1466.67 1529.7 L1461.87 1529.7 L1461.87 1523.64 Z" fill="#000000" fill-rule="nonzero" fill-opacity="1" /><path clip-path="url(#clip360)" d="M1481.43 1526.71 L1481.43 1534.99 L1491.3 1534.99 L1491.3 1538.71 L1481.43 1538.71 L1481.43 1554.55 Q1481.43 1558.11 1482.39 1559.13 Q1483.38 1560.15 1486.38 1560.15 L1491.3 1560.15 L1491.3 1564.16 L1486.38 1564.16 Q1480.83 1564.16 1478.72 1562.1 Q1476.61 1560.02 1476.61 1554.55 L1476.61 1538.71 L1473.1 1538.71 L1473.1 1534.99 L1476.61 1534.99 L1476.61 1526.71 L1481.43 1526.71 Z" fill="#000000" fill-rule="nonzero" fill-opacity="1" /><polyline clip-path="url(#clip362)" style="stroke:#000000; stroke-linecap:round; stroke-linejoin:round; stroke-width:2; stroke-opacity:0.1; fill:none" points="148.181,1172.84 2352.76,1172.84 "/>
<polyline clip-path="url(#clip362)" style="stroke:#000000; stroke-linecap:round; stroke-linejoin:round; stroke-width:2; stroke-opacity:0.1; fill:none" points="148.181,867.507 2352.76,867.507 "/>
<polyline clip-path="url(#clip362)" style="stroke:#000000; stroke-linecap:round; stroke-linejoin:round; stroke-width:2; stroke-opacity:0.1; fill:none" points="148.181,562.173 2352.76,562.173 "/>
<polyline clip-path="url(#clip362)" style="stroke:#000000; stroke-linecap:round; stroke-linejoin:round; stroke-width:2; stroke-opacity:0.1; fill:none" points="148.181,256.84 2352.76,256.84 "/>
<polyline clip-path="url(#clip360)" style="stroke:#000000; stroke-linecap:round; stroke-linejoin:round; stroke-width:4; stroke-opacity:1; fill:none" points="148.181,1436.14 148.181,47.2441 "/>
<polyline clip-path="url(#clip360)" style="stroke:#000000; stroke-linecap:round; stroke-linejoin:round; stroke-width:4; stroke-opacity:1; fill:none" points="148.181,1172.84 167.079,1172.84 "/>
<polyline clip-path="url(#clip360)" style="stroke:#000000; stroke-linecap:round; stroke-linejoin:round; stroke-width:4; stroke-opacity:1; fill:none" points="148.181,867.507 167.079,867.507 "/>
<polyline clip-path="url(#clip360)" style="stroke:#000000; stroke-linecap:round; stroke-linejoin:round; stroke-width:4; stroke-opacity:1; fill:none" points="148.181,562.173 167.079,562.173 "/>
<polyline clip-path="url(#clip360)" style="stroke:#000000; stroke-linecap:round; stroke-linejoin:round; stroke-width:4; stroke-opacity:1; fill:none" points="148.181,256.84 167.079,256.84 "/>
<path clip-path="url(#clip360)" d="M65.6564 1171.66 Q68.5933 1172.28 70.2339 1174.27 Q71.8948 1176.25 71.8948 1179.17 Q71.8948 1183.65 68.8161 1186.1 Q65.7374 1188.55 60.0662 1188.55 Q58.1622 1188.55 56.1368 1188.16 Q54.1316 1187.8 51.9846 1187.05 L51.9846 1183.1 Q53.686 1184.09 55.7114 1184.6 Q57.7369 1185.1 59.9446 1185.1 Q63.793 1185.1 65.7982 1183.59 Q67.8236 1182.07 67.8236 1179.17 Q67.8236 1176.5 65.94 1175 Q64.0765 1173.48 60.7346 1173.48 L57.2103 1173.48 L57.2103 1170.12 L60.8966 1170.12 Q63.9145 1170.12 65.5146 1168.92 Q67.1147 1167.71 67.1147 1165.44 Q67.1147 1163.11 65.4539 1161.87 Q63.8132 1160.62 60.7346 1160.62 Q59.0534 1160.62 57.1292 1160.98 Q55.2051 1161.35 52.8961 1162.12 L52.8961 1158.47 Q55.2253 1157.82 57.2508 1157.5 Q59.2965 1157.17 61.0991 1157.17 Q65.7577 1157.17 68.4718 1159.3 Q71.1859 1161.41 71.1859 1165.01 Q71.1859 1167.52 69.7478 1169.27 Q68.3097 1170.99 65.6564 1171.66 Z" fill="#000000" fill-rule="nonzero" fill-opacity="1" /><path clip-path="url(#clip360)" d="M79.6523 1182.82 L83.926 1182.82 L83.926 1187.96 L79.6523 1187.96 L79.6523 1182.82 Z" fill="#000000" fill-rule="nonzero" fill-opacity="1" /><path clip-path="url(#clip360)" d="M102.094 1171.21 Q99.3397 1171.21 97.7193 1173.09 Q96.1192 1174.98 96.1192 1178.26 Q96.1192 1181.52 97.7193 1183.42 Q99.3397 1185.31 102.094 1185.31 Q104.849 1185.31 106.449 1183.42 Q108.069 1181.52 108.069 1178.26 Q108.069 1174.98 106.449 1173.09 Q104.849 1171.21 102.094 1171.21 M110.216 1158.39 L110.216 1162.12 Q108.677 1161.39 107.097 1161 Q105.538 1160.62 103.998 1160.62 Q99.9473 1160.62 97.8003 1163.35 Q95.6736 1166.09 95.3698 1171.62 Q96.5648 1169.85 98.3675 1168.92 Q100.17 1167.97 102.337 1167.97 Q106.895 1167.97 109.528 1170.74 Q112.181 1173.5 112.181 1178.26 Q112.181 1182.92 109.426 1185.73 Q106.672 1188.55 102.094 1188.55 Q96.8484 1188.55 94.0735 1184.54 Q91.2986 1180.51 91.2986 1172.87 Q91.2986 1165.7 94.7014 1161.45 Q98.1041 1157.17 103.836 1157.17 Q105.376 1157.17 106.935 1157.48 Q108.515 1157.78 110.216 1158.39 Z" fill="#000000" fill-rule="nonzero" fill-opacity="1" /><path clip-path="url(#clip360)" d="M65.8792 866.322 Q68.8161 866.95 70.4567 868.935 Q72.1176 870.92 72.1176 873.837 Q72.1176 878.313 69.0389 880.764 Q65.9602 883.214 60.289 883.214 Q58.385 883.214 56.3596 882.83 Q54.3544 882.465 52.2074 881.716 L52.2074 877.766 Q53.9088 878.758 55.9342 879.265 Q57.9597 879.771 60.1674 879.771 Q64.0158 879.771 66.021 878.252 Q68.0464 876.733 68.0464 873.837 Q68.0464 871.163 66.1628 869.664 Q64.2993 868.145 60.9574 868.145 L57.4331 868.145 L57.4331 864.783 L61.1194 864.783 Q64.1373 864.783 65.7374 863.588 Q67.3375 862.372 67.3375 860.104 Q67.3375 857.775 65.6767 856.539 Q64.036 855.283 60.9574 855.283 Q59.2762 855.283 57.352 855.648 Q55.4279 856.013 53.1189 856.782 L53.1189 853.136 Q55.4481 852.488 57.4736 852.164 Q59.5193 851.84 61.3219 851.84 Q65.9805 851.84 68.6946 853.967 Q71.4087 856.073 71.4087 859.679 Q71.4087 862.19 69.9706 863.932 Q68.5325 865.654 65.8792 866.322 Z" fill="#000000" fill-rule="nonzero" fill-opacity="1" /><path clip-path="url(#clip360)" d="M79.8751 877.482 L84.1488 877.482 L84.1488 882.627 L79.8751 882.627 L79.8751 877.482 Z" fill="#000000" fill-rule="nonzero" fill-opacity="1" /><path clip-path="url(#clip360)" d="M101.811 868.267 Q98.8941 868.267 97.2129 869.826 Q95.5521 871.386 95.5521 874.12 Q95.5521 876.854 97.2129 878.414 Q98.8941 879.974 101.811 879.974 Q104.727 879.974 106.408 878.414 Q108.09 876.834 108.09 874.12 Q108.09 871.386 106.408 869.826 Q104.748 868.267 101.811 868.267 M97.7193 866.525 Q95.0862 865.876 93.6076 864.074 Q92.1493 862.271 92.1493 859.679 Q92.1493 856.053 94.7216 853.947 Q97.3142 851.84 101.811 851.84 Q106.327 851.84 108.9 853.947 Q111.472 856.053 111.472 859.679 Q111.472 862.271 109.994 864.074 Q108.535 865.876 105.922 866.525 Q108.88 867.213 110.52 869.218 Q112.181 871.224 112.181 874.12 Q112.181 878.515 109.487 880.865 Q106.814 883.214 101.811 883.214 Q96.8079 883.214 94.114 880.865 Q91.4404 878.515 91.4404 874.12 Q91.4404 871.224 93.1013 869.218 Q94.7621 867.213 97.7193 866.525 M96.2205 860.063 Q96.2205 862.413 97.6788 863.73 Q99.1574 865.046 101.811 865.046 Q104.444 865.046 105.922 863.73 Q107.421 862.413 107.421 860.063 Q107.421 857.714 105.922 856.397 Q104.444 855.081 101.811 855.081 Q99.1574 855.081 97.6788 856.397 Q96.2205 857.714 96.2205 860.063 Z" fill="#000000" fill-rule="nonzero" fill-opacity="1" /><path clip-path="url(#clip360)" d="M64.6437 550.618 L54.3139 566.761 L64.6437 566.761 L64.6437 550.618 M63.5702 547.053 L68.7148 547.053 L68.7148 566.761 L73.029 566.761 L73.029 570.164 L68.7148 570.164 L68.7148 577.293 L64.6437 577.293 L64.6437 570.164 L50.9921 570.164 L50.9921 566.214 L63.5702 547.053 Z" fill="#000000" fill-rule="nonzero" fill-opacity="1" /><path clip-path="url(#clip360)" d="M79.7941 572.149 L84.0678 572.149 L84.0678 577.293 L79.7941 577.293 L79.7941 572.149 Z" fill="#000000" fill-rule="nonzero" fill-opacity="1" /><path clip-path="url(#clip360)" d="M101.73 549.747 Q98.57 549.747 96.9699 552.866 Q95.39 555.965 95.39 562.204 Q95.39 568.422 96.9699 571.541 Q98.57 574.64 101.73 574.64 Q104.91 574.64 106.49 571.541 Q108.09 568.422 108.09 562.204 Q108.09 555.965 106.49 552.866 Q104.91 549.747 101.73 549.747 M101.73 546.506 Q106.814 546.506 109.487 550.537 Q112.181 554.547 112.181 562.204 Q112.181 569.84 109.487 573.87 Q106.814 577.881 101.73 577.881 Q96.6458 577.881 93.952 573.87 Q91.2784 569.84 91.2784 562.204 Q91.2784 554.547 93.952 550.537 Q96.6458 546.506 101.73 546.506 Z" fill="#000000" fill-rule="nonzero" fill-opacity="1" /><path clip-path="url(#clip360)" d="M66.0412 245.284 L55.7114 261.427 L66.0412 261.427 L66.0412 245.284 M64.9677 241.72 L70.1124 241.72 L70.1124 261.427 L74.4266 261.427 L74.4266 264.83 L70.1124 264.83 L70.1124 271.96 L66.0412 271.96 L66.0412 264.83 L52.3897 264.83 L52.3897 260.88 L64.9677 241.72 Z" fill="#000000" fill-rule="nonzero" fill-opacity="1" /><path clip-path="url(#clip360)" d="M81.1916 266.815 L85.4653 266.815 L85.4653 271.96 L81.1916 271.96 L81.1916 266.815 Z" fill="#000000" fill-rule="nonzero" fill-opacity="1" /><path clip-path="url(#clip360)" d="M97.9016 268.516 L112.181 268.516 L112.181 271.96 L92.9797 271.96 L92.9797 268.516 Q95.309 266.106 99.3194 262.055 Q103.35 257.984 104.383 256.809 Q106.348 254.601 107.117 253.082 Q107.907 251.543 107.907 250.064 Q107.907 247.654 106.206 246.135 Q104.525 244.616 101.811 244.616 Q99.8865 244.616 97.7396 245.284 Q95.6128 245.953 93.1823 247.31 L93.1823 243.178 Q95.6533 242.185 97.8003 241.679 Q99.9473 241.173 101.73 241.173 Q106.429 241.173 109.224 243.522 Q112.019 245.872 112.019 249.801 Q112.019 251.665 111.31 253.346 Q110.621 255.007 108.778 257.275 Q108.272 257.862 105.558 260.678 Q102.844 263.473 97.9016 268.516 Z" fill="#000000" fill-rule="nonzero" fill-opacity="1" /><polyline clip-path="url(#clip362)" style="stroke:#009af9; stroke-linecap:round; stroke-linejoin:round; stroke-width:4; stroke-opacity:1; fill:none" points="210.575,981.22 231.797,1034.1 253.019,1030.28 274.242,1019.16 295.464,1037.7 316.686,999.813 337.909,976.849 359.131,1021.38 380.353,1037.23 422.798,1165.03 444.02,1175.05 486.465,1300.07 528.91,1204.93 592.576,1339.49 656.243,1289.12 719.91,1284.65 804.8,1396.83 889.689,1235.07 995.801,982.42 1123.13,990.424 1250.47,996.393 1399.02,743.792 1590.03,501.618 1781.03,383.759 2014.47,323.43 2290.36,86.5525 "/>
<path clip-path="url(#clip360)" d="M221.667 184.261 L488.001 184.261 L488.001 93.5406 L221.667 93.5406  Z" fill="#ffffff" fill-rule="evenodd" fill-opacity="1"/>
<polyline clip-path="url(#clip360)" style="stroke:#000000; stroke-linecap:round; stroke-linejoin:round; stroke-width:4; stroke-opacity:1; fill:none" points="221.667,184.261 488.001,184.261 488.001,93.5406 221.667,93.5406 221.667,184.261 "/>
<polyline clip-path="url(#clip360)" style="stroke:#009af9; stroke-linecap:round; stroke-linejoin:round; stroke-width:3.5; stroke-opacity:1; fill:none" points="246.162,138.901 393.134,138.901 "/>
<path clip-path="url(#clip360)" d="M429.741 156.127 Q428.161 160.178 426.663 161.414 Q425.164 162.649 422.652 162.649 L419.675 162.649 L419.675 159.53 L421.862 159.53 Q423.402 159.53 424.252 158.801 Q425.103 158.072 426.136 155.357 L426.804 153.656 L417.629 131.336 L421.579 131.336 L428.668 149.079 L435.757 131.336 L439.707 131.336 L429.741 156.127 Z" fill="#000000" fill-rule="nonzero" fill-opacity="1" /><path clip-path="url(#clip360)" d="M446.087 150.577 L452.771 150.577 L452.771 127.507 L445.499 128.966 L445.499 125.239 L452.73 123.781 L456.822 123.781 L456.822 150.577 L463.506 150.577 L463.506 154.021 L446.087 154.021 L446.087 150.577 Z" fill="#000000" fill-rule="nonzero" fill-opacity="1" /></svg>
