<?xml version="1.0" encoding="utf-8"?>
<svg xmlns="http://www.w3.org/2000/svg" xmlns:xlink="http://www.w3.org/1999/xlink" width="600" height="400" viewBox="0 0 2400 1600">
<defs>
  <clipPath id="clip530">
    <rect x="0" y="0" width="2400" height="1600"/>
  </clipPath>
</defs>
<path clip-path="url(#clip530)" d="M0 1600 L2400 1600 L2400 8.88178e-14 L0 8.88178e-14  Z" fill="#ffffff" fill-rule="evenodd" fill-opacity="1"/>
<defs>
  <clipPath id="clip531">
    <rect x="480" y="0" width="1681" height="1600"/>
  </clipPath>
</defs>
<path clip-path="url(#clip530)" d="M156.922 1423.18 L2352.76 1423.18 L2352.76 47.2441 L156.922 47.2441  Z" fill="#ffffff" fill-rule="evenodd" fill-opacity="1"/>
<defs>
  <clipPath id="clip532">
    <rect x="156" y="47" width="2197" height="1377"/>
  </clipPath>
</defs>
<polyline clip-path="url(#clip532)" style="stroke:#000000; stroke-linecap:round; stroke-linejoin:round; stroke-width:2; stroke-opacity:0.1; fill:none" points="176.792,1423.18 176.792,47.2441 "/>
<polyline clip-path="url(#clip532)" style="stroke:#000000; stroke-linecap:round; stroke-linejoin:round; stroke-width:2; stroke-opacity:0.1; fill:none" points="705.247,1423.18 705.247,47.2441 "/>
<polyline clip-path="url(#clip532)" style="stroke:#000000; stroke-linecap:round; stroke-linejoin:round; stroke-width:2; stroke-opacity:0.1; fill:none" points="1233.7,1423.18 1233.7,47.2441 "/>
<polyline clip-path="url(#clip532)" style="stroke:#000000; stroke-linecap:round; stroke-linejoin:round; stroke-width:2; stroke-opacity:0.1; fill:none" points="1762.16,1423.18 1762.16,47.2441 "/>
<polyline clip-path="url(#clip532)" style="stroke:#000000; stroke-linecap:round; stroke-linejoin:round; stroke-width:2; stroke-opacity:0.1; fill:none" points="2290.61,1423.18 2290.61,47.2441 "/>
<polyline clip-path="url(#clip530)" style="stroke:#000000; stroke-linecap:round; stroke-linejoin:round; stroke-width:4; stroke-opacity:1; fill:none" points="156.922,1423.18 2352.76,1423.18 "/>
<polyline clip-path="url(#clip530)" style="stroke:#000000; stroke-linecap:round; stroke-linejoin:round; stroke-width:4; stroke-opacity:1; fill:none" points="176.792,1423.18 176.792,1404.28 "/>
<polyline clip-path="url(#clip530)" style="stroke:#000000; stroke-linecap:round; stroke-linejoin:round; stroke-width:4; stroke-opacity:1; fill:none" points="705.247,1423.18 705.247,1404.28 "/>
<polyline clip-path="url(#clip530)" style="stroke:#000000; stroke-linecap:round; stroke-linejoin:round; stroke-width:4; stroke-opacity:1; fill:none" points="1233.7,1423.18 1233.7,1404.28 "/>
<polyline clip-path="url(#clip530)" style="stroke:#000000; stroke-linecap:round; stroke-linejoin:round; stroke-width:4; stroke-opacity:1; fill:none" points="1762.16,1423.18 1762.16,1404.28 "/>
<polyline clip-path="url(#clip530)" style="stroke:#000000; stroke-linecap:round; stroke-linejoin:round; stroke-width:4; stroke-opacity:1; fill:none" points="2290.61,1423.18 2290.61,1404.28 "/>
<path clip-path="url(#clip530)" d="M176.792 1454.1 Q173.181 1454.1 171.352 1457.66 Q169.547 1461.2 169.547 1468.33 Q169.547 1475.44 171.352 1479.01 Q173.181 1482.55 176.792 1482.55 Q180.426 1482.55 182.232 1479.01 Q184.061 1475.44 184.061 1468.33 Q184.061 1461.2 182.232 1457.66 Q180.426 1454.1 176.792 1454.1 M176.792 1450.39 Q182.602 1450.39 185.658 1455 Q188.737 1459.58 188.737 1468.33 Q188.737 1477.06 185.658 1481.67 Q182.602 1486.25 176.792 1486.25 Q170.982 1486.25 167.903 1481.67 Q164.848 1477.06 164.848 1468.33 Q164.848 1459.58 167.903 1455 Q170.982 1450.39 176.792 1450.39 Z" fill="#000000" fill-rule="nonzero" fill-opacity="1" /><path clip-path="url(#clip530)" d="M684.518 1481.64 L700.837 1481.64 L700.837 1485.58 L678.893 1485.58 L678.893 1481.64 Q681.555 1478.89 686.138 1474.26 Q690.744 1469.61 691.925 1468.27 Q694.17 1465.74 695.05 1464.01 Q695.953 1462.25 695.953 1460.56 Q695.953 1457.8 694.008 1456.07 Q692.087 1454.33 688.985 1454.33 Q686.786 1454.33 684.332 1455.09 Q681.902 1455.86 679.124 1457.41 L679.124 1452.69 Q681.948 1451.55 684.402 1450.97 Q686.855 1450.39 688.892 1450.39 Q694.263 1450.39 697.457 1453.08 Q700.652 1455.77 700.652 1460.26 Q700.652 1462.39 699.841 1464.31 Q699.054 1466.2 696.948 1468.8 Q696.369 1469.47 693.267 1472.69 Q690.166 1475.88 684.518 1481.64 Z" fill="#000000" fill-rule="nonzero" fill-opacity="1" /><path clip-path="url(#clip530)" d="M710.698 1451.02 L729.054 1451.02 L729.054 1454.96 L714.98 1454.96 L714.98 1463.43 Q715.999 1463.08 717.017 1462.92 Q718.036 1462.73 719.054 1462.73 Q724.841 1462.73 728.221 1465.9 Q731.601 1469.08 731.601 1474.49 Q731.601 1480.07 728.128 1483.17 Q724.656 1486.25 718.337 1486.25 Q716.161 1486.25 713.892 1485.88 Q711.647 1485.51 709.24 1484.77 L709.24 1480.07 Q711.323 1481.2 713.545 1481.76 Q715.767 1482.32 718.244 1482.32 Q722.249 1482.32 724.587 1480.21 Q726.925 1478.1 726.925 1474.49 Q726.925 1470.88 724.587 1468.77 Q722.249 1466.67 718.244 1466.67 Q716.369 1466.67 714.494 1467.08 Q712.642 1467.5 710.698 1468.38 L710.698 1451.02 Z" fill="#000000" fill-rule="nonzero" fill-opacity="1" /><path clip-path="url(#clip530)" d="M1208.4 1451.02 L1226.76 1451.02 L1226.76 1454.96 L1212.68 1454.96 L1212.68 1463.43 Q1213.7 1463.08 1214.72 1462.92 Q1215.74 1462.73 1216.76 1462.73 Q1222.54 1462.73 1225.92 1465.9 Q1229.3 1469.08 1229.3 1474.49 Q1229.3 1480.07 1225.83 1483.17 Q1222.36 1486.25 1216.04 1486.25 Q1213.86 1486.25 1211.59 1485.88 Q1209.35 1485.51 1206.94 1484.77 L1206.94 1480.07 Q1209.03 1481.2 1211.25 1481.76 Q1213.47 1482.32 1215.95 1482.32 Q1219.95 1482.32 1222.29 1480.21 Q1224.63 1478.1 1224.63 1474.49 Q1224.63 1470.88 1222.29 1468.77 Q1219.95 1466.67 1215.95 1466.67 Q1214.07 1466.67 1212.2 1467.08 Q1210.34 1467.5 1208.4 1468.38 L1208.4 1451.02 Z" fill="#000000" fill-rule="nonzero" fill-opacity="1" /><path clip-path="url(#clip530)" d="M1248.52 1454.1 Q1244.9 1454.1 1243.08 1457.66 Q1241.27 1461.2 1241.27 1468.33 Q1241.27 1475.44 1243.08 1479.01 Q1244.9 1482.55 1248.52 1482.55 Q1252.15 1482.55 1253.96 1479.01 Q1255.78 1475.44 1255.78 1468.33 Q1255.78 1461.2 1253.96 1457.66 Q1252.15 1454.1 1248.52 1454.1 M1248.52 1450.39 Q1254.33 1450.39 1257.38 1455 Q1260.46 1459.58 1260.46 1468.33 Q1260.46 1477.06 1257.38 1481.67 Q1254.33 1486.25 1248.52 1486.25 Q1242.71 1486.25 1239.63 1481.67 Q1236.57 1477.06 1236.57 1468.33 Q1236.57 1459.58 1239.63 1455 Q1242.71 1450.39 1248.52 1450.39 Z" fill="#000000" fill-rule="nonzero" fill-opacity="1" /><path clip-path="url(#clip530)" d="M1736.01 1451.02 L1758.23 1451.02 L1758.23 1453.01 L1745.69 1485.58 L1740.8 1485.58 L1752.61 1454.96 L1736.01 1454.96 L1736.01 1451.02 Z" fill="#000000" fill-rule="nonzero" fill-opacity="1" /><path clip-path="url(#clip530)" d="M1767.4 1451.02 L1785.75 1451.02 L1785.75 1454.96 L1771.68 1454.96 L1771.68 1463.43 Q1772.7 1463.08 1773.72 1462.92 Q1774.74 1462.73 1775.75 1462.73 Q1781.54 1462.73 1784.92 1465.9 Q1788.3 1469.08 1788.3 1474.49 Q1788.3 1480.07 1784.83 1483.17 Q1781.36 1486.25 1775.04 1486.25 Q1772.86 1486.25 1770.59 1485.88 Q1768.35 1485.51 1765.94 1484.77 L1765.94 1480.07 Q1768.02 1481.2 1770.25 1481.76 Q1772.47 1482.32 1774.94 1482.32 Q1778.95 1482.32 1781.29 1480.21 Q1783.63 1478.1 1783.63 1474.49 Q1783.63 1470.88 1781.29 1468.77 Q1778.95 1466.67 1774.94 1466.67 Q1773.07 1466.67 1771.19 1467.08 Q1769.34 1467.5 1767.4 1468.38 L1767.4 1451.02 Z" fill="#000000" fill-rule="nonzero" fill-opacity="1" /><path clip-path="url(#clip530)" d="M2250.22 1481.64 L2257.86 1481.64 L2257.86 1455.28 L2249.55 1456.95 L2249.55 1452.69 L2257.81 1451.02 L2262.48 1451.02 L2262.48 1481.64 L2270.12 1481.64 L2270.12 1485.58 L2250.22 1485.58 L2250.22 1481.64 Z" fill="#000000" fill-rule="nonzero" fill-opacity="1" /><path clip-path="url(#clip530)" d="M2289.57 1454.1 Q2285.96 1454.1 2284.13 1457.66 Q2282.32 1461.2 2282.32 1468.33 Q2282.32 1475.44 2284.13 1479.01 Q2285.96 1482.55 2289.57 1482.55 Q2293.2 1482.55 2295.01 1479.01 Q2296.84 1475.44 2296.84 1468.33 Q2296.84 1461.2 2295.01 1457.66 Q2293.2 1454.1 2289.57 1454.1 M2289.57 1450.39 Q2295.38 1450.39 2298.43 1455 Q2301.51 1459.58 2301.51 1468.33 Q2301.51 1477.06 2298.43 1481.67 Q2295.38 1486.25 2289.57 1486.25 Q2283.76 1486.25 2280.68 1481.67 Q2277.62 1477.06 2277.62 1468.33 Q2277.62 1459.58 2280.68 1455 Q2283.76 1450.39 2289.57 1450.39 Z" fill="#000000" fill-rule="nonzero" fill-opacity="1" /><path clip-path="url(#clip530)" d="M2319.73 1454.1 Q2316.12 1454.1 2314.29 1457.66 Q2312.48 1461.2 2312.48 1468.33 Q2312.48 1475.44 2314.29 1479.01 Q2316.12 1482.55 2319.73 1482.55 Q2323.36 1482.55 2325.17 1479.01 Q2327 1475.44 2327 1468.33 Q2327 1461.2 2325.17 1457.66 Q2323.36 1454.1 2319.73 1454.1 M2319.73 1450.39 Q2325.54 1450.39 2328.6 1455 Q2331.67 1459.58 2331.67 1468.33 Q2331.67 1477.06 2328.6 1481.67 Q2325.54 1486.25 2319.73 1486.25 Q2313.92 1486.25 2310.84 1481.67 Q2307.79 1477.06 2307.79 1468.33 Q2307.79 1459.58 2310.84 1455 Q2313.92 1450.39 2319.73 1450.39 Z" fill="#000000" fill-rule="nonzero" fill-opacity="1" /><path clip-path="url(#clip530)" d="M988.466 1539.24 Q990.662 1535.29 993.718 1533.41 Q996.773 1531.54 1000.91 1531.54 Q1006.48 1531.54 1009.5 1535.45 Q1012.53 1539.33 1012.53 1546.53 L1012.53 1568.04 L1006.64 1568.04 L1006.64 1546.72 Q1006.64 1541.59 1004.83 1539.11 Q1003.01 1536.63 999.288 1536.63 Q994.736 1536.63 992.095 1539.65 Q989.453 1542.68 989.453 1547.9 L989.453 1568.04 L983.565 1568.04 L983.565 1546.72 Q983.565 1541.56 981.75 1539.11 Q979.936 1536.63 976.148 1536.63 Q971.661 1536.63 969.019 1539.68 Q966.377 1542.71 966.377 1547.9 L966.377 1568.04 L960.489 1568.04 L960.489 1532.4 L966.377 1532.4 L966.377 1537.93 Q968.382 1534.66 971.183 1533.1 Q973.984 1531.54 977.835 1531.54 Q981.718 1531.54 984.424 1533.51 Q987.161 1535.48 988.466 1539.24 Z" fill="#000000" fill-rule="nonzero" fill-opacity="1" /><path clip-path="url(#clip530)" d="M1024.21 1532.4 L1030.07 1532.4 L1030.07 1568.04 L1024.21 1568.04 L1024.21 1532.4 M1024.21 1518.52 L1030.07 1518.52 L1030.07 1525.93 L1024.21 1525.93 L1024.21 1518.52 Z" fill="#000000" fill-rule="nonzero" fill-opacity="1" /><path clip-path="url(#clip530)" d="M1071.95 1546.53 L1071.95 1568.04 L1066.1 1568.04 L1066.1 1546.72 Q1066.1 1541.66 1064.12 1539.14 Q1062.15 1536.63 1058.2 1536.63 Q1053.46 1536.63 1050.72 1539.65 Q1047.99 1542.68 1047.99 1547.9 L1047.99 1568.04 L1042.1 1568.04 L1042.1 1532.4 L1047.99 1532.4 L1047.99 1537.93 Q1050.09 1534.72 1052.92 1533.13 Q1055.78 1531.54 1059.51 1531.54 Q1065.65 1531.54 1068.8 1535.36 Q1071.95 1539.14 1071.95 1546.53 Z" fill="#000000" fill-rule="nonzero" fill-opacity="1" /><path clip-path="url(#clip530)" d="M1110.72 1578.87 L1110.72 1583.42 L1076.85 1583.42 L1076.85 1578.87 L1110.72 1578.87 Z" fill="#000000" fill-rule="nonzero" fill-opacity="1" /><path clip-path="url(#clip530)" d="M1138.95 1533.45 L1138.95 1538.98 Q1136.47 1537.71 1133.8 1537.07 Q1131.12 1536.44 1128.26 1536.44 Q1123.9 1536.44 1121.7 1537.77 Q1119.54 1539.11 1119.54 1541.79 Q1119.54 1543.82 1121.1 1545 Q1122.66 1546.15 1127.37 1547.2 L1129.37 1547.64 Q1135.61 1548.98 1138.22 1551.43 Q1140.86 1553.85 1140.86 1558.21 Q1140.86 1563.17 1136.91 1566.07 Q1133 1568.97 1126.12 1568.97 Q1123.26 1568.97 1120.14 1568.39 Q1117.05 1567.85 1113.62 1566.74 L1113.62 1560.69 Q1116.86 1562.38 1120.01 1563.24 Q1123.16 1564.07 1126.25 1564.07 Q1130.39 1564.07 1132.62 1562.66 Q1134.85 1561.23 1134.85 1558.65 Q1134.85 1556.27 1133.22 1554.99 Q1131.63 1553.72 1126.19 1552.54 L1124.15 1552.07 Q1118.71 1550.92 1116.29 1548.56 Q1113.87 1546.18 1113.87 1542.04 Q1113.87 1537.01 1117.44 1534.27 Q1121 1531.54 1127.56 1531.54 Q1130.8 1531.54 1133.67 1532.01 Q1136.53 1532.49 1138.95 1533.45 Z" fill="#000000" fill-rule="nonzero" fill-opacity="1" /><path clip-path="url(#clip530)" d="M1166.39 1550.12 Q1159.29 1550.12 1156.55 1551.75 Q1153.82 1553.37 1153.82 1557.29 Q1153.82 1560.4 1155.85 1562.25 Q1157.92 1564.07 1161.45 1564.07 Q1166.32 1564.07 1169.25 1560.63 Q1172.21 1557.16 1172.21 1551.43 L1172.21 1550.12 L1166.39 1550.12 M1178.07 1547.71 L1178.07 1568.04 L1172.21 1568.04 L1172.21 1562.63 Q1170.21 1565.88 1167.22 1567.44 Q1164.22 1568.97 1159.89 1568.97 Q1154.42 1568.97 1151.17 1565.91 Q1147.96 1562.82 1147.96 1557.67 Q1147.96 1551.65 1151.97 1548.6 Q1156.01 1545.54 1164 1545.54 L1172.21 1545.54 L1172.21 1544.97 Q1172.21 1540.93 1169.54 1538.73 Q1166.9 1536.5 1162.09 1536.5 Q1159.04 1536.5 1156.14 1537.23 Q1153.24 1537.97 1150.57 1539.43 L1150.57 1534.02 Q1153.78 1532.78 1156.81 1532.17 Q1159.83 1531.54 1162.7 1531.54 Q1170.43 1531.54 1174.25 1535.55 Q1178.07 1539.56 1178.07 1547.71 Z" fill="#000000" fill-rule="nonzero" fill-opacity="1" /><path clip-path="url(#clip530)" d="M1217.89 1539.24 Q1220.08 1535.29 1223.14 1533.41 Q1226.19 1531.54 1230.33 1531.54 Q1235.9 1531.54 1238.92 1535.45 Q1241.95 1539.33 1241.95 1546.53 L1241.95 1568.04 L1236.06 1568.04 L1236.06 1546.72 Q1236.06 1541.59 1234.25 1539.11 Q1232.43 1536.63 1228.71 1536.63 Q1224.16 1536.63 1221.51 1539.65 Q1218.87 1542.68 1218.87 1547.9 L1218.87 1568.04 L1212.98 1568.04 L1212.98 1546.72 Q1212.98 1541.56 1211.17 1539.11 Q1209.36 1536.63 1205.57 1536.63 Q1201.08 1536.63 1198.44 1539.68 Q1195.8 1542.71 1195.8 1547.9 L1195.8 1568.04 L1189.91 1568.04 L1189.91 1532.4 L1195.8 1532.4 L1195.8 1537.93 Q1197.8 1534.66 1200.6 1533.1 Q1203.4 1531.54 1207.26 1531.54 Q1211.14 1531.54 1213.84 1533.51 Q1216.58 1535.48 1217.89 1539.24 Z" fill="#000000" fill-rule="nonzero" fill-opacity="1" /><path clip-path="url(#clip530)" d="M1259.3 1562.7 L1259.3 1581.6 L1253.41 1581.6 L1253.41 1532.4 L1259.3 1532.4 L1259.3 1537.81 Q1261.14 1534.62 1263.94 1533.1 Q1266.77 1531.54 1270.69 1531.54 Q1277.18 1531.54 1281.22 1536.69 Q1285.3 1541.85 1285.3 1550.25 Q1285.3 1558.65 1281.22 1563.81 Q1277.18 1568.97 1270.69 1568.97 Q1266.77 1568.97 1263.94 1567.44 Q1261.14 1565.88 1259.3 1562.7 M1279.22 1550.25 Q1279.22 1543.79 1276.55 1540.13 Q1273.9 1536.44 1269.26 1536.44 Q1264.61 1536.44 1261.94 1540.13 Q1259.3 1543.79 1259.3 1550.25 Q1259.3 1556.71 1261.94 1560.4 Q1264.61 1564.07 1269.26 1564.07 Q1273.9 1564.07 1276.55 1560.4 Q1279.22 1556.71 1279.22 1550.25 Z" fill="#000000" fill-rule="nonzero" fill-opacity="1" /><path clip-path="url(#clip530)" d="M1295.01 1518.52 L1300.86 1518.52 L1300.86 1568.04 L1295.01 1568.04 L1295.01 1518.52 Z" fill="#000000" fill-rule="nonzero" fill-opacity="1" /><path clip-path="url(#clip530)" d="M1343.61 1548.76 L1343.61 1551.62 L1316.68 1551.62 Q1317.06 1557.67 1320.31 1560.85 Q1323.59 1564 1329.41 1564 Q1332.79 1564 1335.94 1563.17 Q1339.12 1562.35 1342.24 1560.69 L1342.24 1566.23 Q1339.09 1567.57 1335.78 1568.27 Q1332.47 1568.97 1329.06 1568.97 Q1320.53 1568.97 1315.54 1564 Q1310.57 1559.04 1310.57 1550.57 Q1310.57 1541.82 1315.28 1536.69 Q1320.02 1531.54 1328.04 1531.54 Q1335.24 1531.54 1339.41 1536.18 Q1343.61 1540.8 1343.61 1548.76 M1337.75 1547.04 Q1337.69 1542.23 1335.05 1539.37 Q1332.44 1536.5 1328.11 1536.5 Q1323.21 1536.5 1320.25 1539.27 Q1317.32 1542.04 1316.87 1547.07 L1337.75 1547.04 Z" fill="#000000" fill-rule="nonzero" fill-opacity="1" /><path clip-path="url(#clip530)" d="M1375.95 1533.45 L1375.95 1538.98 Q1373.46 1537.71 1370.79 1537.07 Q1368.12 1536.44 1365.25 1536.44 Q1360.89 1536.44 1358.7 1537.77 Q1356.53 1539.11 1356.53 1541.79 Q1356.53 1543.82 1358.09 1545 Q1359.65 1546.15 1364.36 1547.2 L1366.37 1547.64 Q1372.6 1548.98 1375.21 1551.43 Q1377.86 1553.85 1377.86 1558.21 Q1377.86 1563.17 1373.91 1566.07 Q1369.99 1568.97 1363.12 1568.97 Q1360.26 1568.97 1357.14 1568.39 Q1354.05 1567.85 1350.61 1566.74 L1350.61 1560.69 Q1353.86 1562.38 1357.01 1563.24 Q1360.16 1564.07 1363.25 1564.07 Q1367.38 1564.07 1369.61 1562.66 Q1371.84 1561.23 1371.84 1558.65 Q1371.84 1556.27 1370.22 1554.99 Q1368.63 1553.72 1363.18 1552.54 L1361.15 1552.07 Q1355.7 1550.92 1353.28 1548.56 Q1350.87 1546.18 1350.87 1542.04 Q1350.87 1537.01 1354.43 1534.27 Q1358 1531.54 1364.55 1531.54 Q1367.8 1531.54 1370.66 1532.01 Q1373.53 1532.49 1375.95 1533.45 Z" fill="#000000" fill-rule="nonzero" fill-opacity="1" /><path clip-path="url(#clip530)" d="M1414.27 1578.87 L1414.27 1583.42 L1380.4 1583.42 L1380.4 1578.87 L1414.27 1578.87 Z" fill="#000000" fill-rule="nonzero" fill-opacity="1" /><path clip-path="url(#clip530)" d="M1442.5 1533.45 L1442.5 1538.98 Q1440.02 1537.71 1437.34 1537.07 Q1434.67 1536.44 1431.81 1536.44 Q1427.45 1536.44 1425.25 1537.77 Q1423.08 1539.11 1423.08 1541.79 Q1423.08 1543.82 1424.64 1545 Q1426.2 1546.15 1430.91 1547.2 L1432.92 1547.64 Q1439.16 1548.98 1441.77 1551.43 Q1444.41 1553.85 1444.41 1558.21 Q1444.41 1563.17 1440.46 1566.07 Q1436.55 1568.97 1429.67 1568.97 Q1426.81 1568.97 1423.69 1568.39 Q1420.6 1567.85 1417.16 1566.74 L1417.16 1560.69 Q1420.41 1562.38 1423.56 1563.24 Q1426.71 1564.07 1429.8 1564.07 Q1433.94 1564.07 1436.17 1562.66 Q1438.39 1561.23 1438.39 1558.65 Q1438.39 1556.27 1436.77 1554.99 Q1435.18 1553.72 1429.74 1552.54 L1427.7 1552.07 Q1422.26 1550.92 1419.84 1548.56 Q1417.42 1546.18 1417.42 1542.04 Q1417.42 1537.01 1420.98 1534.27 Q1424.55 1531.54 1431.11 1531.54 Q1434.35 1531.54 1437.22 1532.01 Q1440.08 1532.49 1442.5 1533.45 Z" fill="#000000" fill-rule="nonzero" fill-opacity="1" /><path clip-path="url(#clip530)" d="M1459.4 1562.7 L1459.4 1581.6 L1453.51 1581.6 L1453.51 1532.4 L1459.4 1532.4 L1459.4 1537.81 Q1461.25 1534.62 1464.05 1533.1 Q1466.88 1531.54 1470.8 1531.54 Q1477.29 1531.54 1481.33 1536.69 Q1485.41 1541.85 1485.41 1550.25 Q1485.41 1558.65 1481.33 1563.81 Q1477.29 1568.97 1470.8 1568.97 Q1466.88 1568.97 1464.05 1567.44 Q1461.25 1565.88 1459.4 1562.7 M1479.33 1550.25 Q1479.33 1543.79 1476.65 1540.13 Q1474.01 1536.44 1469.36 1536.44 Q1464.72 1536.44 1462.04 1540.13 Q1459.4 1543.79 1459.4 1550.25 Q1459.4 1556.71 1462.04 1560.4 Q1464.72 1564.07 1469.36 1564.07 Q1474.01 1564.07 1476.65 1560.4 Q1479.33 1556.71 1479.33 1550.25 Z" fill="#000000" fill-rule="nonzero" fill-opacity="1" /><path clip-path="url(#clip530)" d="M1495.11 1518.52 L1500.97 1518.52 L1500.97 1568.04 L1495.11 1568.04 L1495.11 1518.52 Z" fill="#000000" fill-rule="nonzero" fill-opacity="1" /><path clip-path="url(#clip530)" d="M1513.22 1532.4 L1519.08 1532.4 L1519.08 1568.04 L1513.22 1568.04 L1513.22 1532.4 M1513.22 1518.52 L1519.08 1518.52 L1519.08 1525.93 L1513.22 1525.93 L1513.22 1518.52 Z" fill="#000000" fill-rule="nonzero" fill-opacity="1" /><path clip-path="url(#clip530)" d="M1537.13 1522.27 L1537.13 1532.4 L1549.19 1532.4 L1549.19 1536.95 L1537.13 1536.95 L1537.13 1556.3 Q1537.13 1560.66 1538.3 1561.9 Q1539.51 1563.14 1543.17 1563.14 L1549.19 1563.14 L1549.19 1568.04 L1543.17 1568.04 Q1536.39 1568.04 1533.82 1565.53 Q1531.24 1562.98 1531.24 1556.3 L1531.24 1536.95 L1526.94 1536.95 L1526.94 1532.4 L1531.24 1532.4 L1531.24 1522.27 L1537.13 1522.27 Z" fill="#000000" fill-rule="nonzero" fill-opacity="1" /><polyline clip-path="url(#clip532)" style="stroke:#000000; stroke-linecap:round; stroke-linejoin:round; stroke-width:2; stroke-opacity:0.1; fill:none" points="156.922,1162.34 2352.76,1162.34 "/>
<polyline clip-path="url(#clip532)" style="stroke:#000000; stroke-linecap:round; stroke-linejoin:round; stroke-width:2; stroke-opacity:0.1; fill:none" points="156.922,859.853 2352.76,859.853 "/>
<polyline clip-path="url(#clip532)" style="stroke:#000000; stroke-linecap:round; stroke-linejoin:round; stroke-width:2; stroke-opacity:0.1; fill:none" points="156.922,557.368 2352.76,557.368 "/>
<polyline clip-path="url(#clip532)" style="stroke:#000000; stroke-linecap:round; stroke-linejoin:round; stroke-width:2; stroke-opacity:0.1; fill:none" points="156.922,254.884 2352.76,254.884 "/>
<polyline clip-path="url(#clip530)" style="stroke:#000000; stroke-linecap:round; stroke-linejoin:round; stroke-width:4; stroke-opacity:1; fill:none" points="156.922,1423.18 156.922,47.2441 "/>
<polyline clip-path="url(#clip530)" style="stroke:#000000; stroke-linecap:round; stroke-linejoin:round; stroke-width:4; stroke-opacity:1; fill:none" points="156.922,1162.34 175.82,1162.34 "/>
<polyline clip-path="url(#clip530)" style="stroke:#000000; stroke-linecap:round; stroke-linejoin:round; stroke-width:4; stroke-opacity:1; fill:none" points="156.922,859.853 175.82,859.853 "/>
<polyline clip-path="url(#clip530)" style="stroke:#000000; stroke-linecap:round; stroke-linejoin:round; stroke-width:4; stroke-opacity:1; fill:none" points="156.922,557.368 175.82,557.368 "/>
<polyline clip-path="url(#clip530)" style="stroke:#000000; stroke-linecap:round; stroke-linejoin:round; stroke-width:4; stroke-opacity:1; fill:none" points="156.922,254.884 175.82,254.884 "/>
<path clip-path="url(#clip530)" d="M67.7513 1160.98 Q71.1078 1161.7 72.9827 1163.97 Q74.8809 1166.24 74.8809 1169.57 Q74.8809 1174.69 71.3624 1177.49 Q67.8439 1180.29 61.3624 1180.29 Q59.1865 1180.29 56.8717 1179.85 Q54.5801 1179.43 52.1264 1178.58 L52.1264 1174.06 Q54.0708 1175.2 56.3856 1175.78 Q58.7004 1176.35 61.2236 1176.35 Q65.6217 1176.35 67.9133 1174.62 Q70.2281 1172.88 70.2281 1169.57 Q70.2281 1166.52 68.0754 1164.8 Q65.9457 1163.07 62.1263 1163.07 L58.0986 1163.07 L58.0986 1159.22 L62.3115 1159.22 Q65.7606 1159.22 67.5893 1157.86 Q69.418 1156.47 69.418 1153.88 Q69.418 1151.21 67.5198 1149.8 Q65.6448 1148.37 62.1263 1148.37 Q60.205 1148.37 58.006 1148.78 Q55.8069 1149.2 53.168 1150.08 L53.168 1145.91 Q55.8301 1145.17 58.1449 1144.8 Q60.4828 1144.43 62.543 1144.43 Q67.867 1144.43 70.9689 1146.86 Q74.0707 1149.27 74.0707 1153.39 Q74.0707 1156.26 72.4272 1158.25 Q70.7837 1160.22 67.7513 1160.98 Z" fill="#000000" fill-rule="nonzero" fill-opacity="1" /><path clip-path="url(#clip530)" d="M83.7466 1173.74 L88.6308 1173.74 L88.6308 1179.62 L83.7466 1179.62 L83.7466 1173.74 Z" fill="#000000" fill-rule="nonzero" fill-opacity="1" /><path clip-path="url(#clip530)" d="M109.395 1160.47 Q106.246 1160.47 104.395 1162.63 Q102.566 1164.78 102.566 1168.53 Q102.566 1172.26 104.395 1174.43 Q106.246 1176.59 109.395 1176.59 Q112.543 1176.59 114.371 1174.43 Q116.223 1172.26 116.223 1168.53 Q116.223 1164.78 114.371 1162.63 Q112.543 1160.47 109.395 1160.47 M118.677 1145.82 L118.677 1150.08 Q116.918 1149.25 115.112 1148.81 Q113.33 1148.37 111.571 1148.37 Q106.941 1148.37 104.487 1151.49 Q102.057 1154.62 101.709 1160.94 Q103.075 1158.92 105.135 1157.86 Q107.196 1156.77 109.672 1156.77 Q114.881 1156.77 117.89 1159.94 Q120.922 1163.09 120.922 1168.53 Q120.922 1173.85 117.774 1177.07 Q114.626 1180.29 109.395 1180.29 Q103.399 1180.29 100.228 1175.71 Q97.0567 1171.1 97.0567 1162.37 Q97.0567 1154.18 100.946 1149.32 Q104.834 1144.43 111.385 1144.43 Q113.145 1144.43 114.927 1144.78 Q116.733 1145.13 118.677 1145.82 Z" fill="#000000" fill-rule="nonzero" fill-opacity="1" /><path clip-path="url(#clip530)" d="M68.0059 858.499 Q71.3624 859.216 73.2374 861.485 Q75.1355 863.753 75.1355 867.087 Q75.1355 872.202 71.617 875.003 Q68.0985 877.804 61.6171 877.804 Q59.4412 877.804 57.1264 877.364 Q54.8347 876.948 52.381 876.091 L52.381 871.577 Q54.3254 872.712 56.6402 873.29 Q58.955 873.869 61.4782 873.869 Q65.8763 873.869 68.168 872.133 Q70.4828 870.397 70.4828 867.087 Q70.4828 864.031 68.33 862.318 Q66.2004 860.582 62.381 860.582 L58.3532 860.582 L58.3532 856.74 L62.5661 856.74 Q66.0152 856.74 67.8439 855.374 Q69.6726 853.985 69.6726 851.392 Q69.6726 848.73 67.7744 847.318 Q65.8995 845.883 62.381 845.883 Q60.4597 845.883 58.2606 846.3 Q56.0615 846.716 53.4227 847.596 L53.4227 843.429 Q56.0847 842.689 58.3995 842.318 Q60.7374 841.948 62.7976 841.948 Q68.1217 841.948 71.2235 844.379 Q74.3253 846.786 74.3253 850.906 Q74.3253 853.777 72.6818 855.767 Q71.0383 857.735 68.0059 858.499 Z" fill="#000000" fill-rule="nonzero" fill-opacity="1" /><path clip-path="url(#clip530)" d="M84.0012 871.253 L88.8854 871.253 L88.8854 877.133 L84.0012 877.133 L84.0012 871.253 Z" fill="#000000" fill-rule="nonzero" fill-opacity="1" /><path clip-path="url(#clip530)" d="M109.071 860.721 Q105.737 860.721 103.816 862.503 Q101.918 864.286 101.918 867.411 Q101.918 870.536 103.816 872.318 Q105.737 874.101 109.071 874.101 Q112.404 874.101 114.325 872.318 Q116.246 870.513 116.246 867.411 Q116.246 864.286 114.325 862.503 Q112.427 860.721 109.071 860.721 M104.395 858.73 Q101.385 857.99 99.6956 855.929 Q98.0289 853.869 98.0289 850.906 Q98.0289 846.763 100.969 844.355 Q103.932 841.948 109.071 841.948 Q114.233 841.948 117.172 844.355 Q120.112 846.763 120.112 850.906 Q120.112 853.869 118.422 855.929 Q116.756 857.99 113.77 858.73 Q117.149 859.517 119.024 861.809 Q120.922 864.101 120.922 867.411 Q120.922 872.434 117.844 875.119 Q114.788 877.804 109.071 877.804 Q103.353 877.804 100.274 875.119 Q97.2187 872.434 97.2187 867.411 Q97.2187 864.101 99.1169 861.809 Q101.015 859.517 104.395 858.73 M102.682 851.346 Q102.682 854.031 104.348 855.536 Q106.038 857.04 109.071 857.04 Q112.08 857.04 113.77 855.536 Q115.483 854.031 115.483 851.346 Q115.483 848.661 113.77 847.156 Q112.08 845.652 109.071 845.652 Q106.038 845.652 104.348 847.156 Q102.682 848.661 102.682 851.346 Z" fill="#000000" fill-rule="nonzero" fill-opacity="1" /><path clip-path="url(#clip530)" d="M66.5939 544.162 L54.7884 562.611 L66.5939 562.611 L66.5939 544.162 M65.367 540.088 L71.2466 540.088 L71.2466 562.611 L76.1772 562.611 L76.1772 566.5 L71.2466 566.5 L71.2466 574.648 L66.5939 574.648 L66.5939 566.5 L50.9921 566.5 L50.9921 561.986 L65.367 540.088 Z" fill="#000000" fill-rule="nonzero" fill-opacity="1" /><path clip-path="url(#clip530)" d="M83.9086 568.769 L88.7928 568.769 L88.7928 574.648 L83.9086 574.648 L83.9086 568.769 Z" fill="#000000" fill-rule="nonzero" fill-opacity="1" /><path clip-path="url(#clip530)" d="M108.978 543.167 Q105.367 543.167 103.538 546.732 Q101.733 550.274 101.733 557.403 Q101.733 564.51 103.538 568.074 Q105.367 571.616 108.978 571.616 Q112.612 571.616 114.418 568.074 Q116.246 564.51 116.246 557.403 Q116.246 550.274 114.418 546.732 Q112.612 543.167 108.978 543.167 M108.978 539.463 Q114.788 539.463 117.844 544.07 Q120.922 548.653 120.922 557.403 Q120.922 566.13 117.844 570.736 Q114.788 575.32 108.978 575.32 Q103.168 575.32 100.089 570.736 Q97.0335 566.13 97.0335 557.403 Q97.0335 548.653 100.089 544.07 Q103.168 539.463 108.978 539.463 Z" fill="#000000" fill-rule="nonzero" fill-opacity="1" /><path clip-path="url(#clip530)" d="M68.1911 241.678 L56.3856 260.127 L68.1911 260.127 L68.1911 241.678 M66.9643 237.604 L72.8439 237.604 L72.8439 260.127 L77.7744 260.127 L77.7744 264.016 L72.8439 264.016 L72.8439 272.164 L68.1911 272.164 L68.1911 264.016 L52.5893 264.016 L52.5893 259.502 L66.9643 237.604 Z" fill="#000000" fill-rule="nonzero" fill-opacity="1" /><path clip-path="url(#clip530)" d="M85.5058 266.284 L90.3901 266.284 L90.3901 272.164 L85.5058 272.164 L85.5058 266.284 Z" fill="#000000" fill-rule="nonzero" fill-opacity="1" /><path clip-path="url(#clip530)" d="M104.603 268.229 L120.922 268.229 L120.922 272.164 L98.978 272.164 L98.978 268.229 Q101.64 265.474 106.223 260.844 Q110.83 256.192 112.01 254.849 Q114.256 252.326 115.135 250.59 Q116.038 248.831 116.038 247.141 Q116.038 244.386 114.094 242.65 Q112.172 240.914 109.071 240.914 Q106.871 240.914 104.418 241.678 Q101.987 242.442 99.2095 243.993 L99.2095 239.27 Q102.034 238.136 104.487 237.558 Q106.941 236.979 108.978 236.979 Q114.348 236.979 117.543 239.664 Q120.737 242.349 120.737 246.84 Q120.737 248.969 119.927 250.891 Q119.14 252.789 117.033 255.381 Q116.455 256.053 113.353 259.27 Q110.251 262.465 104.603 268.229 Z" fill="#000000" fill-rule="nonzero" fill-opacity="1" /><polyline clip-path="url(#clip532)" style="stroke:#009af9; stroke-linecap:round; stroke-linejoin:round; stroke-width:4; stroke-opacity:1; fill:none" points="219.069,1009.5 240.207,994.893 261.345,1047.22 282.483,968.447 303.621,976.125 324.759,1032.24 345.898,1042.79 367.036,982.974 388.174,985.536 430.45,1131.68 451.588,1162.43 493.865,1288.38 536.141,1213.7 599.556,1327.43 662.97,1277.53 726.385,1273.11 810.937,1384.24 895.49,1223.99 1001.18,993.95 1128.01,981.623 1254.84,987.536 1402.81,737.292 1593.05,452.828 1783.29,380.619 2015.81,320.852 2290.61,86.1857 "/>
<path clip-path="url(#clip530)" d="M230.117 196.789 L502.13 196.789 L502.13 93.1086 L230.117 93.1086  Z" fill="#ffffff" fill-rule="evenodd" fill-opacity="1"/>
<polyline clip-path="url(#clip530)" style="stroke:#000000; stroke-linecap:round; stroke-linejoin:round; stroke-width:4; stroke-opacity:1; fill:none" points="230.117,196.789 502.13,196.789 502.13,93.1086 230.117,93.1086 230.117,196.789 "/>
<polyline clip-path="url(#clip530)" style="stroke:#009af9; stroke-linecap:round; stroke-linejoin:round; stroke-width:4; stroke-opacity:1; fill:none" points="254.515,144.949 400.904,144.949 "/>
<path clip-path="url(#clip530)" d="M439.144 164.636 Q437.339 169.266 435.626 170.678 Q433.913 172.09 431.043 172.09 L427.64 172.09 L427.64 168.525 L430.14 168.525 Q431.899 168.525 432.871 167.692 Q433.844 166.858 435.024 163.756 L435.788 161.812 L425.302 136.303 L429.816 136.303 L437.918 156.581 L446.019 136.303 L450.533 136.303 L439.144 164.636 Z" fill="#000000" fill-rule="nonzero" fill-opacity="1" /><path clip-path="url(#clip530)" d="M457.825 158.293 L465.464 158.293 L465.464 131.928 L457.154 133.595 L457.154 129.335 L465.417 127.669 L470.093 127.669 L470.093 158.293 L477.732 158.293 L477.732 162.229 L457.825 162.229 L457.825 158.293 Z" fill="#000000" fill-rule="nonzero" fill-opacity="1" /></svg>
