<?xml version="1.0" encoding="utf-8"?>
<svg xmlns="http://www.w3.org/2000/svg" xmlns:xlink="http://www.w3.org/1999/xlink" width="600" height="400" viewBox="0 0 2400 1600">
<defs>
  <clipPath id="clip930">
    <rect x="0" y="0" width="2400" height="1600"/>
  </clipPath>
</defs>
<path clip-path="url(#clip930)" d="M0 1600 L2400 1600 L2400 8.88178e-14 L0 8.88178e-14  Z" fill="#ffffff" fill-rule="evenodd" fill-opacity="1"/>
<defs>
  <clipPath id="clip931">
    <rect x="480" y="0" width="1681" height="1600"/>
  </clipPath>
</defs>
<path clip-path="url(#clip930)" d="M147.472 1436.14 L2352.76 1436.14 L2352.76 47.2441 L147.472 47.2441  Z" fill="#ffffff" fill-rule="evenodd" fill-opacity="1"/>
<defs>
  <clipPath id="clip932">
    <rect x="147" y="47" width="2206" height="1390"/>
  </clipPath>
</defs>
<polyline clip-path="url(#clip932)" style="stroke:#000000; stroke-linecap:round; stroke-linejoin:round; stroke-width:2; stroke-opacity:0.1; fill:none" points="167.428,1436.14 167.428,47.2441 "/>
<polyline clip-path="url(#clip932)" style="stroke:#000000; stroke-linecap:round; stroke-linejoin:round; stroke-width:2; stroke-opacity:0.1; fill:none" points="698.156,1436.14 698.156,47.2441 "/>
<polyline clip-path="url(#clip932)" style="stroke:#000000; stroke-linecap:round; stroke-linejoin:round; stroke-width:2; stroke-opacity:0.1; fill:none" points="1228.88,1436.14 1228.88,47.2441 "/>
<polyline clip-path="url(#clip932)" style="stroke:#000000; stroke-linecap:round; stroke-linejoin:round; stroke-width:2; stroke-opacity:0.1; fill:none" points="1759.61,1436.14 1759.61,47.2441 "/>
<polyline clip-path="url(#clip932)" style="stroke:#000000; stroke-linecap:round; stroke-linejoin:round; stroke-width:2; stroke-opacity:0.1; fill:none" points="2290.34,1436.14 2290.34,47.2441 "/>
<polyline clip-path="url(#clip930)" style="stroke:#000000; stroke-linecap:round; stroke-linejoin:round; stroke-width:4; stroke-opacity:1; fill:none" points="147.472,1436.14 2352.76,1436.14 "/>
<polyline clip-path="url(#clip930)" style="stroke:#000000; stroke-linecap:round; stroke-linejoin:round; stroke-width:4; stroke-opacity:1; fill:none" points="167.428,1436.14 167.428,1417.24 "/>
<polyline clip-path="url(#clip930)" style="stroke:#000000; stroke-linecap:round; stroke-linejoin:round; stroke-width:4; stroke-opacity:1; fill:none" points="698.156,1436.14 698.156,1417.24 "/>
<polyline clip-path="url(#clip930)" style="stroke:#000000; stroke-linecap:round; stroke-linejoin:round; stroke-width:4; stroke-opacity:1; fill:none" points="1228.88,1436.14 1228.88,1417.24 "/>
<polyline clip-path="url(#clip930)" style="stroke:#000000; stroke-linecap:round; stroke-linejoin:round; stroke-width:4; stroke-opacity:1; fill:none" points="1759.61,1436.14 1759.61,1417.24 "/>
<polyline clip-path="url(#clip930)" style="stroke:#000000; stroke-linecap:round; stroke-linejoin:round; stroke-width:4; stroke-opacity:1; fill:none" points="2290.34,1436.14 2290.34,1417.24 "/>
<path clip-path="url(#clip930)" d="M167.428 1465.59 Q164.268 1465.59 162.668 1468.71 Q161.088 1471.81 161.088 1478.05 Q161.088 1484.27 162.668 1487.39 Q164.268 1490.49 167.428 1490.49 Q170.607 1490.49 172.187 1487.39 Q173.787 1484.27 173.787 1478.05 Q173.787 1471.81 172.187 1468.71 Q170.607 1465.59 167.428 1465.59 M167.428 1462.35 Q172.511 1462.35 175.185 1466.38 Q177.879 1470.39 177.879 1478.05 Q177.879 1485.69 175.185 1489.72 Q172.511 1493.73 167.428 1493.73 Q162.344 1493.73 159.65 1489.72 Q156.976 1485.69 156.976 1478.05 Q156.976 1470.39 159.65 1466.38 Q162.344 1462.35 167.428 1462.35 Z" fill="#000000" fill-rule="nonzero" fill-opacity="1" /><path clip-path="url(#clip930)" d="M680.018 1489.7 L694.298 1489.7 L694.298 1493.14 L675.096 1493.14 L675.096 1489.7 Q677.426 1487.29 681.436 1483.24 Q685.467 1479.16 686.5 1477.99 Q688.464 1475.78 689.234 1474.26 Q690.024 1472.72 690.024 1471.24 Q690.024 1468.83 688.323 1467.32 Q686.642 1465.8 683.927 1465.8 Q682.003 1465.8 679.856 1466.46 Q677.73 1467.13 675.299 1468.49 L675.299 1464.36 Q677.77 1463.37 679.917 1462.86 Q682.064 1462.35 683.846 1462.35 Q688.545 1462.35 691.341 1464.7 Q694.136 1467.05 694.136 1470.98 Q694.136 1472.84 693.427 1474.53 Q692.738 1476.19 690.895 1478.46 Q690.389 1479.04 687.674 1481.86 Q684.96 1484.65 680.018 1489.7 Z" fill="#000000" fill-rule="nonzero" fill-opacity="1" /><path clip-path="url(#clip930)" d="M702.926 1462.9 L718.988 1462.9 L718.988 1466.34 L706.673 1466.34 L706.673 1473.76 Q707.564 1473.45 708.456 1473.31 Q709.347 1473.15 710.238 1473.15 Q715.302 1473.15 718.259 1475.92 Q721.216 1478.7 721.216 1483.44 Q721.216 1488.32 718.178 1491.03 Q715.14 1493.73 709.61 1493.73 Q707.706 1493.73 705.721 1493.4 Q703.757 1493.08 701.65 1492.43 L701.65 1488.32 Q703.473 1489.31 705.417 1489.8 Q707.362 1490.28 709.529 1490.28 Q713.033 1490.28 715.079 1488.44 Q717.125 1486.6 717.125 1483.44 Q717.125 1480.28 715.079 1478.44 Q713.033 1476.59 709.529 1476.59 Q707.888 1476.59 706.248 1476.96 Q704.628 1477.32 702.926 1478.09 L702.926 1462.9 Z" fill="#000000" fill-rule="nonzero" fill-opacity="1" /><path clip-path="url(#clip930)" d="M1206.75 1462.9 L1222.81 1462.9 L1222.81 1466.34 L1210.49 1466.34 L1210.49 1473.76 Q1211.38 1473.45 1212.28 1473.31 Q1213.17 1473.15 1214.06 1473.15 Q1219.12 1473.15 1222.08 1475.92 Q1225.04 1478.7 1225.04 1483.44 Q1225.04 1488.32 1222 1491.03 Q1218.96 1493.73 1213.43 1493.73 Q1211.53 1493.73 1209.54 1493.4 Q1207.58 1493.08 1205.47 1492.43 L1205.47 1488.32 Q1207.29 1489.31 1209.24 1489.8 Q1211.18 1490.28 1213.35 1490.28 Q1216.85 1490.28 1218.9 1488.44 Q1220.95 1486.6 1220.95 1483.44 Q1220.95 1480.28 1218.9 1478.44 Q1216.85 1476.59 1213.35 1476.59 Q1211.71 1476.59 1210.07 1476.96 Q1208.45 1477.32 1206.75 1478.09 L1206.75 1462.9 Z" fill="#000000" fill-rule="nonzero" fill-opacity="1" /><path clip-path="url(#clip930)" d="M1241.85 1465.59 Q1238.69 1465.59 1237.09 1468.71 Q1235.51 1471.81 1235.51 1478.05 Q1235.51 1484.27 1237.09 1487.39 Q1238.69 1490.49 1241.85 1490.49 Q1245.03 1490.49 1246.61 1487.39 Q1248.21 1484.27 1248.21 1478.05 Q1248.21 1471.81 1246.61 1468.71 Q1245.03 1465.59 1241.85 1465.59 M1241.85 1462.35 Q1246.93 1462.35 1249.61 1466.38 Q1252.3 1470.39 1252.3 1478.05 Q1252.3 1485.69 1249.61 1489.72 Q1246.93 1493.73 1241.85 1493.73 Q1236.76 1493.73 1234.07 1489.72 Q1231.4 1485.69 1231.4 1478.05 Q1231.4 1470.39 1234.07 1466.38 Q1236.76 1462.35 1241.85 1462.35 Z" fill="#000000" fill-rule="nonzero" fill-opacity="1" /><path clip-path="url(#clip930)" d="M1736.74 1462.9 L1756.18 1462.9 L1756.18 1464.64 L1745.2 1493.14 L1740.93 1493.14 L1751.26 1466.34 L1736.74 1466.34 L1736.74 1462.9 Z" fill="#000000" fill-rule="nonzero" fill-opacity="1" /><path clip-path="url(#clip930)" d="M1764.2 1462.9 L1780.26 1462.9 L1780.26 1466.34 L1767.95 1466.34 L1767.95 1473.76 Q1768.84 1473.45 1769.73 1473.31 Q1770.62 1473.15 1771.51 1473.15 Q1776.58 1473.15 1779.53 1475.92 Q1782.49 1478.7 1782.49 1483.44 Q1782.49 1488.32 1779.45 1491.03 Q1776.41 1493.73 1770.89 1493.73 Q1768.98 1493.73 1767 1493.4 Q1765.03 1493.08 1762.93 1492.43 L1762.93 1488.32 Q1764.75 1489.31 1766.69 1489.8 Q1768.64 1490.28 1770.8 1490.28 Q1774.31 1490.28 1776.35 1488.44 Q1778.4 1486.6 1778.4 1483.44 Q1778.4 1480.28 1776.35 1478.44 Q1774.31 1476.59 1770.8 1476.59 Q1769.16 1476.59 1767.52 1476.96 Q1765.9 1477.32 1764.2 1478.09 L1764.2 1462.9 Z" fill="#000000" fill-rule="nonzero" fill-opacity="1" /><path clip-path="url(#clip930)" d="M2255 1489.7 L2261.68 1489.7 L2261.68 1466.63 L2254.41 1468.08 L2254.41 1464.36 L2261.64 1462.9 L2265.73 1462.9 L2265.73 1489.7 L2272.42 1489.7 L2272.42 1493.14 L2255 1493.14 L2255 1489.7 Z" fill="#000000" fill-rule="nonzero" fill-opacity="1" /><path clip-path="url(#clip930)" d="M2289.43 1465.59 Q2286.27 1465.59 2284.67 1468.71 Q2283.09 1471.81 2283.09 1478.05 Q2283.09 1484.27 2284.67 1487.39 Q2286.27 1490.49 2289.43 1490.49 Q2292.61 1490.49 2294.19 1487.39 Q2295.79 1484.27 2295.79 1478.05 Q2295.79 1471.81 2294.19 1468.71 Q2292.61 1465.59 2289.43 1465.59 M2289.43 1462.35 Q2294.51 1462.35 2297.19 1466.38 Q2299.88 1470.39 2299.88 1478.05 Q2299.88 1485.69 2297.19 1489.72 Q2294.51 1493.73 2289.43 1493.73 Q2284.35 1493.73 2281.65 1489.72 Q2278.98 1485.69 2278.98 1478.05 Q2278.98 1470.39 2281.65 1466.38 Q2284.35 1462.35 2289.43 1462.35 Z" fill="#000000" fill-rule="nonzero" fill-opacity="1" /><path clip-path="url(#clip930)" d="M2315.82 1465.59 Q2312.66 1465.59 2311.06 1468.71 Q2309.48 1471.81 2309.48 1478.05 Q2309.48 1484.27 2311.06 1487.39 Q2312.66 1490.49 2315.82 1490.49 Q2319 1490.49 2320.58 1487.39 Q2322.18 1484.27 2322.18 1478.05 Q2322.18 1471.81 2320.58 1468.71 Q2319 1465.59 2315.82 1465.59 M2315.82 1462.35 Q2320.91 1462.35 2323.58 1466.38 Q2326.27 1470.39 2326.27 1478.05 Q2326.27 1485.69 2323.58 1489.72 Q2320.91 1493.73 2315.82 1493.73 Q2310.74 1493.73 2308.04 1489.72 Q2305.37 1485.69 2305.37 1478.05 Q2305.37 1470.39 2308.04 1466.38 Q2310.74 1462.35 2315.82 1462.35 Z" fill="#000000" fill-rule="nonzero" fill-opacity="1" /><path clip-path="url(#clip930)" d="M945.975 1549.49 Q940.168 1549.49 937.928 1550.82 Q935.689 1552.15 935.689 1555.35 Q935.689 1557.91 937.355 1559.42 Q939.048 1560.9 941.939 1560.9 Q945.923 1560.9 948.319 1558.09 Q950.741 1555.25 950.741 1550.56 L950.741 1549.49 L945.975 1549.49 M955.532 1547.52 L955.532 1564.16 L950.741 1564.16 L950.741 1559.73 Q949.1 1562.39 946.652 1563.66 Q944.204 1564.91 940.663 1564.91 Q936.183 1564.91 933.527 1562.41 Q930.897 1559.89 930.897 1555.67 Q930.897 1550.74 934.178 1548.24 Q937.485 1545.74 944.022 1545.74 L950.741 1545.74 L950.741 1545.28 Q950.741 1541.97 948.553 1540.17 Q946.392 1538.35 942.459 1538.35 Q939.959 1538.35 937.59 1538.95 Q935.22 1539.55 933.032 1540.74 L933.032 1536.32 Q935.663 1535.3 938.137 1534.81 Q940.61 1534.29 942.954 1534.29 Q949.282 1534.29 952.407 1537.57 Q955.532 1540.85 955.532 1547.52 Z" fill="#000000" fill-rule="nonzero" fill-opacity="1" /><path clip-path="url(#clip930)" d="M970.142 1526.71 L970.142 1534.99 L980.011 1534.99 L980.011 1538.71 L970.142 1538.71 L970.142 1554.55 Q970.142 1558.11 971.105 1559.13 Q972.095 1560.15 975.089 1560.15 L980.011 1560.15 L980.011 1564.16 L975.089 1564.16 Q969.543 1564.16 967.433 1562.1 Q965.324 1560.02 965.324 1554.55 L965.324 1538.71 L961.808 1538.71 L961.808 1534.99 L965.324 1534.99 L965.324 1526.71 L970.142 1526.71 Z" fill="#000000" fill-rule="nonzero" fill-opacity="1" /><path clip-path="url(#clip930)" d="M997.615 1538.35 Q993.761 1538.35 991.522 1541.37 Q989.282 1544.36 989.282 1549.6 Q989.282 1554.83 991.496 1557.85 Q993.735 1560.85 997.615 1560.85 Q1001.44 1560.85 1003.68 1557.83 Q1005.92 1554.81 1005.92 1549.6 Q1005.92 1544.42 1003.68 1541.4 Q1001.44 1538.35 997.615 1538.35 M997.615 1534.29 Q1003.87 1534.29 1007.43 1538.35 Q1011 1542.41 1011 1549.6 Q1011 1556.76 1007.43 1560.85 Q1003.87 1564.91 997.615 1564.91 Q991.339 1564.91 987.772 1560.85 Q984.23 1556.76 984.23 1549.6 Q984.23 1542.41 987.772 1538.35 Q991.339 1534.29 997.615 1534.29 Z" fill="#000000" fill-rule="nonzero" fill-opacity="1" /><path clip-path="url(#clip930)" d="M1041.65 1540.59 Q1043.45 1537.36 1045.95 1535.82 Q1048.45 1534.29 1051.83 1534.29 Q1056.39 1534.29 1058.87 1537.49 Q1061.34 1540.67 1061.34 1546.55 L1061.34 1564.16 L1056.52 1564.16 L1056.52 1546.71 Q1056.52 1542.52 1055.04 1540.48 Q1053.55 1538.45 1050.51 1538.45 Q1046.78 1538.45 1044.62 1540.93 Q1042.46 1543.4 1042.46 1547.67 L1042.46 1564.16 L1037.64 1564.16 L1037.64 1546.71 Q1037.64 1542.49 1036.16 1540.48 Q1034.67 1538.45 1031.57 1538.45 Q1027.9 1538.45 1025.74 1540.95 Q1023.58 1543.43 1023.58 1547.67 L1023.58 1564.16 L1018.76 1564.16 L1018.76 1534.99 L1023.58 1534.99 L1023.58 1539.52 Q1025.22 1536.84 1027.51 1535.56 Q1029.8 1534.29 1032.95 1534.29 Q1036.13 1534.29 1038.34 1535.9 Q1040.58 1537.52 1041.65 1540.59 Z" fill="#000000" fill-rule="nonzero" fill-opacity="1" /><path clip-path="url(#clip930)" d="M1071.57 1557.54 L1077.07 1557.54 L1077.07 1564.16 L1071.57 1564.16 L1071.57 1557.54 Z" fill="#000000" fill-rule="nonzero" fill-opacity="1" /><path clip-path="url(#clip930)" d="M1110.56 1540.59 Q1112.35 1537.36 1114.85 1535.82 Q1117.35 1534.29 1120.74 1534.29 Q1125.3 1534.29 1127.77 1537.49 Q1130.24 1540.67 1130.24 1546.55 L1130.24 1564.16 L1125.43 1564.16 L1125.43 1546.71 Q1125.43 1542.52 1123.94 1540.48 Q1122.46 1538.45 1119.41 1538.45 Q1115.69 1538.45 1113.53 1540.93 Q1111.36 1543.4 1111.36 1547.67 L1111.36 1564.16 L1106.55 1564.16 L1106.55 1546.71 Q1106.55 1542.49 1105.06 1540.48 Q1103.58 1538.45 1100.48 1538.45 Q1096.81 1538.45 1094.65 1540.95 Q1092.48 1543.43 1092.48 1547.67 L1092.48 1564.16 L1087.67 1564.16 L1087.67 1534.99 L1092.48 1534.99 L1092.48 1539.52 Q1094.13 1536.84 1096.42 1535.56 Q1098.71 1534.29 1101.86 1534.29 Q1105.04 1534.29 1107.25 1535.9 Q1109.49 1537.52 1110.56 1540.59 Z" fill="#000000" fill-rule="nonzero" fill-opacity="1" /><path clip-path="url(#clip930)" d="M1139.8 1534.99 L1144.59 1534.99 L1144.59 1564.16 L1139.8 1564.16 L1139.8 1534.99 M1139.8 1523.64 L1144.59 1523.64 L1144.59 1529.7 L1139.8 1529.7 L1139.8 1523.64 Z" fill="#000000" fill-rule="nonzero" fill-opacity="1" /><path clip-path="url(#clip930)" d="M1178.86 1546.55 L1178.86 1564.16 L1174.07 1564.16 L1174.07 1546.71 Q1174.07 1542.57 1172.46 1540.51 Q1170.84 1538.45 1167.61 1538.45 Q1163.73 1538.45 1161.49 1540.93 Q1159.26 1543.4 1159.26 1547.67 L1159.26 1564.16 L1154.44 1564.16 L1154.44 1534.99 L1159.26 1534.99 L1159.26 1539.52 Q1160.97 1536.89 1163.29 1535.59 Q1165.64 1534.29 1168.68 1534.29 Q1173.71 1534.29 1176.29 1537.41 Q1178.86 1540.51 1178.86 1546.55 Z" fill="#000000" fill-rule="nonzero" fill-opacity="1" /><path clip-path="url(#clip930)" d="M1210.58 1573.01 L1210.58 1576.73 L1182.87 1576.73 L1182.87 1573.01 L1210.58 1573.01 Z" fill="#000000" fill-rule="nonzero" fill-opacity="1" /><path clip-path="url(#clip930)" d="M1233.68 1535.85 L1233.68 1540.38 Q1231.65 1539.34 1229.46 1538.82 Q1227.28 1538.3 1224.93 1538.3 Q1221.36 1538.3 1219.57 1539.39 Q1217.8 1540.48 1217.8 1542.67 Q1217.8 1544.34 1219.07 1545.3 Q1220.35 1546.24 1224.2 1547.1 L1225.84 1547.46 Q1230.95 1548.56 1233.08 1550.56 Q1235.24 1552.54 1235.24 1556.11 Q1235.24 1560.17 1232.02 1562.54 Q1228.81 1564.91 1223.19 1564.91 Q1220.84 1564.91 1218.29 1564.44 Q1215.77 1564 1212.95 1563.09 L1212.95 1558.14 Q1215.61 1559.52 1218.19 1560.22 Q1220.77 1560.9 1223.29 1560.9 Q1226.68 1560.9 1228.5 1559.75 Q1230.32 1558.58 1230.32 1556.47 Q1230.32 1554.52 1228.99 1553.48 Q1227.69 1552.44 1223.24 1551.47 L1221.57 1551.08 Q1217.12 1550.15 1215.14 1548.22 Q1213.16 1546.27 1213.16 1542.88 Q1213.16 1538.77 1216.08 1536.53 Q1218.99 1534.29 1224.36 1534.29 Q1227.02 1534.29 1229.36 1534.68 Q1231.7 1535.07 1233.68 1535.85 Z" fill="#000000" fill-rule="nonzero" fill-opacity="1" /><path clip-path="url(#clip930)" d="M1256.13 1549.49 Q1250.32 1549.49 1248.08 1550.82 Q1245.84 1552.15 1245.84 1555.35 Q1245.84 1557.91 1247.51 1559.42 Q1249.2 1560.9 1252.09 1560.9 Q1256.08 1560.9 1258.47 1558.09 Q1260.9 1555.25 1260.9 1550.56 L1260.9 1549.49 L1256.13 1549.49 M1265.69 1547.52 L1265.69 1564.16 L1260.9 1564.16 L1260.9 1559.73 Q1259.25 1562.39 1256.81 1563.66 Q1254.36 1564.91 1250.82 1564.91 Q1246.34 1564.91 1243.68 1562.41 Q1241.05 1559.89 1241.05 1555.67 Q1241.05 1550.74 1244.33 1548.24 Q1247.64 1545.74 1254.18 1545.74 L1260.9 1545.74 L1260.9 1545.28 Q1260.9 1541.97 1258.71 1540.17 Q1256.55 1538.35 1252.61 1538.35 Q1250.11 1538.35 1247.74 1538.95 Q1245.37 1539.55 1243.19 1540.74 L1243.19 1536.32 Q1245.82 1535.3 1248.29 1534.81 Q1250.77 1534.29 1253.11 1534.29 Q1259.44 1534.29 1262.56 1537.57 Q1265.69 1540.85 1265.69 1547.52 Z" fill="#000000" fill-rule="nonzero" fill-opacity="1" /><path clip-path="url(#clip930)" d="M1298.26 1540.59 Q1300.06 1537.36 1302.56 1535.82 Q1305.06 1534.29 1308.45 1534.29 Q1313 1534.29 1315.48 1537.49 Q1317.95 1540.67 1317.95 1546.55 L1317.95 1564.16 L1313.13 1564.16 L1313.13 1546.71 Q1313.13 1542.52 1311.65 1540.48 Q1310.17 1538.45 1307.12 1538.45 Q1303.39 1538.45 1301.23 1540.93 Q1299.07 1543.4 1299.07 1547.67 L1299.07 1564.16 L1294.25 1564.16 L1294.25 1546.71 Q1294.25 1542.49 1292.77 1540.48 Q1291.29 1538.45 1288.19 1538.45 Q1284.51 1538.45 1282.35 1540.95 Q1280.19 1543.43 1280.19 1547.67 L1280.19 1564.16 L1275.37 1564.16 L1275.37 1534.99 L1280.19 1534.99 L1280.19 1539.52 Q1281.83 1536.84 1284.12 1535.56 Q1286.42 1534.29 1289.57 1534.29 Q1292.74 1534.29 1294.96 1535.9 Q1297.2 1537.52 1298.26 1540.59 Z" fill="#000000" fill-rule="nonzero" fill-opacity="1" /><path clip-path="url(#clip930)" d="M1332.14 1559.78 L1332.14 1575.25 L1327.33 1575.25 L1327.33 1534.99 L1332.14 1534.99 L1332.14 1539.42 Q1333.66 1536.81 1335.95 1535.56 Q1338.26 1534.29 1341.47 1534.29 Q1346.78 1534.29 1350.09 1538.5 Q1353.42 1542.72 1353.42 1549.6 Q1353.42 1556.47 1350.09 1560.69 Q1346.78 1564.91 1341.47 1564.91 Q1338.26 1564.91 1335.95 1563.66 Q1333.66 1562.39 1332.14 1559.78 M1348.45 1549.6 Q1348.45 1544.31 1346.26 1541.32 Q1344.1 1538.3 1340.3 1538.3 Q1336.49 1538.3 1334.31 1541.32 Q1332.14 1544.31 1332.14 1549.6 Q1332.14 1554.89 1334.31 1557.91 Q1336.49 1560.9 1340.3 1560.9 Q1344.1 1560.9 1346.26 1557.91 Q1348.45 1554.89 1348.45 1549.6 Z" fill="#000000" fill-rule="nonzero" fill-opacity="1" /><path clip-path="url(#clip930)" d="M1361.36 1523.64 L1366.16 1523.64 L1366.16 1564.16 L1361.36 1564.16 L1361.36 1523.64 Z" fill="#000000" fill-rule="nonzero" fill-opacity="1" /><path clip-path="url(#clip930)" d="M1401.13 1548.37 L1401.13 1550.72 L1379.1 1550.72 Q1379.41 1555.67 1382.07 1558.27 Q1384.75 1560.85 1389.51 1560.85 Q1392.27 1560.85 1394.85 1560.17 Q1397.46 1559.49 1400.01 1558.14 L1400.01 1562.67 Q1397.43 1563.77 1394.72 1564.34 Q1392.01 1564.91 1389.23 1564.91 Q1382.25 1564.91 1378.16 1560.85 Q1374.1 1556.79 1374.1 1549.86 Q1374.1 1542.7 1377.95 1538.5 Q1381.83 1534.29 1388.39 1534.29 Q1394.28 1534.29 1397.69 1538.09 Q1401.13 1541.86 1401.13 1548.37 M1396.34 1546.97 Q1396.29 1543.04 1394.12 1540.69 Q1391.99 1538.35 1388.45 1538.35 Q1384.44 1538.35 1382.01 1540.61 Q1379.62 1542.88 1379.25 1546.99 L1396.34 1546.97 Z" fill="#000000" fill-rule="nonzero" fill-opacity="1" /><path clip-path="url(#clip930)" d="M1427.59 1535.85 L1427.59 1540.38 Q1425.56 1539.34 1423.37 1538.82 Q1421.18 1538.3 1418.84 1538.3 Q1415.27 1538.3 1413.47 1539.39 Q1411.7 1540.48 1411.7 1542.67 Q1411.7 1544.34 1412.98 1545.3 Q1414.25 1546.24 1418.11 1547.1 L1419.75 1547.46 Q1424.85 1548.56 1426.99 1550.56 Q1429.15 1552.54 1429.15 1556.11 Q1429.15 1560.17 1425.92 1562.54 Q1422.72 1564.91 1417.09 1564.91 Q1414.75 1564.91 1412.2 1564.44 Q1409.67 1564 1406.86 1563.09 L1406.86 1558.14 Q1409.51 1559.52 1412.09 1560.22 Q1414.67 1560.9 1417.2 1560.9 Q1420.58 1560.9 1422.4 1559.75 Q1424.23 1558.58 1424.23 1556.47 Q1424.23 1554.52 1422.9 1553.48 Q1421.6 1552.44 1417.14 1551.47 L1415.48 1551.08 Q1411.02 1550.15 1409.05 1548.22 Q1407.07 1546.27 1407.07 1542.88 Q1407.07 1538.77 1409.98 1536.53 Q1412.9 1534.29 1418.26 1534.29 Q1420.92 1534.29 1423.26 1534.68 Q1425.61 1535.07 1427.59 1535.85 Z" fill="#000000" fill-rule="nonzero" fill-opacity="1" /><path clip-path="url(#clip930)" d="M1458.94 1573.01 L1458.94 1576.73 L1431.23 1576.73 L1431.23 1573.01 L1458.94 1573.01 Z" fill="#000000" fill-rule="nonzero" fill-opacity="1" /><path clip-path="url(#clip930)" d="M1482.04 1535.85 L1482.04 1540.38 Q1480.01 1539.34 1477.82 1538.82 Q1475.63 1538.3 1473.29 1538.3 Q1469.72 1538.3 1467.93 1539.39 Q1466.15 1540.48 1466.15 1542.67 Q1466.15 1544.34 1467.43 1545.3 Q1468.71 1546.24 1472.56 1547.1 L1474.2 1547.46 Q1479.31 1548.56 1481.44 1550.56 Q1483.6 1552.54 1483.6 1556.11 Q1483.6 1560.17 1480.37 1562.54 Q1477.17 1564.91 1471.55 1564.91 Q1469.2 1564.91 1466.65 1564.44 Q1464.12 1564 1461.31 1563.09 L1461.31 1558.14 Q1463.97 1559.52 1466.55 1560.22 Q1469.12 1560.9 1471.65 1560.9 Q1475.03 1560.9 1476.86 1559.75 Q1478.68 1558.58 1478.68 1556.47 Q1478.68 1554.52 1477.35 1553.48 Q1476.05 1552.44 1471.6 1551.47 L1469.93 1551.08 Q1465.48 1550.15 1463.5 1548.22 Q1461.52 1546.27 1461.52 1542.88 Q1461.52 1538.77 1464.44 1536.53 Q1467.35 1534.29 1472.72 1534.29 Q1475.37 1534.29 1477.72 1534.68 Q1480.06 1535.07 1482.04 1535.85 Z" fill="#000000" fill-rule="nonzero" fill-opacity="1" /><path clip-path="url(#clip930)" d="M1495.87 1559.78 L1495.87 1575.25 L1491.05 1575.25 L1491.05 1534.99 L1495.87 1534.99 L1495.87 1539.42 Q1497.38 1536.81 1499.67 1535.56 Q1501.99 1534.29 1505.19 1534.29 Q1510.5 1534.29 1513.81 1538.5 Q1517.14 1542.72 1517.14 1549.6 Q1517.14 1556.47 1513.81 1560.69 Q1510.5 1564.91 1505.19 1564.91 Q1501.99 1564.91 1499.67 1563.66 Q1497.38 1562.39 1495.87 1559.78 M1512.17 1549.6 Q1512.17 1544.31 1509.98 1541.32 Q1507.82 1538.3 1504.02 1538.3 Q1500.22 1538.3 1498.03 1541.32 Q1495.87 1544.31 1495.87 1549.6 Q1495.87 1554.89 1498.03 1557.91 Q1500.22 1560.9 1504.02 1560.9 Q1507.82 1560.9 1509.98 1557.91 Q1512.17 1554.89 1512.17 1549.6 Z" fill="#000000" fill-rule="nonzero" fill-opacity="1" /><path clip-path="url(#clip930)" d="M1525.09 1523.64 L1529.88 1523.64 L1529.88 1564.16 L1525.09 1564.16 L1525.09 1523.64 Z" fill="#000000" fill-rule="nonzero" fill-opacity="1" /><path clip-path="url(#clip930)" d="M1539.9 1534.99 L1544.7 1534.99 L1544.7 1564.16 L1539.9 1564.16 L1539.9 1534.99 M1539.9 1523.64 L1544.7 1523.64 L1544.7 1529.7 L1539.9 1529.7 L1539.9 1523.64 Z" fill="#000000" fill-rule="nonzero" fill-opacity="1" /><path clip-path="url(#clip930)" d="M1559.46 1526.71 L1559.46 1534.99 L1569.33 1534.99 L1569.33 1538.71 L1559.46 1538.71 L1559.46 1554.55 Q1559.46 1558.11 1560.42 1559.13 Q1561.41 1560.15 1564.41 1560.15 L1569.33 1560.15 L1569.33 1564.16 L1564.41 1564.16 Q1558.86 1564.16 1556.75 1562.1 Q1554.64 1560.02 1554.64 1554.55 L1554.64 1538.71 L1551.13 1538.71 L1551.13 1534.99 L1554.64 1534.99 L1554.64 1526.71 L1559.46 1526.71 Z" fill="#000000" fill-rule="nonzero" fill-opacity="1" /><polyline clip-path="url(#clip932)" style="stroke:#000000; stroke-linecap:round; stroke-linejoin:round; stroke-width:2; stroke-opacity:0.1; fill:none" points="147.472,1225.97 2352.76,1225.97 "/>
<polyline clip-path="url(#clip932)" style="stroke:#000000; stroke-linecap:round; stroke-linejoin:round; stroke-width:2; stroke-opacity:0.1; fill:none" points="147.472,1005.16 2352.76,1005.16 "/>
<polyline clip-path="url(#clip932)" style="stroke:#000000; stroke-linecap:round; stroke-linejoin:round; stroke-width:2; stroke-opacity:0.1; fill:none" points="147.472,784.336 2352.76,784.336 "/>
<polyline clip-path="url(#clip932)" style="stroke:#000000; stroke-linecap:round; stroke-linejoin:round; stroke-width:2; stroke-opacity:0.1; fill:none" points="147.472,563.516 2352.76,563.516 "/>
<polyline clip-path="url(#clip932)" style="stroke:#000000; stroke-linecap:round; stroke-linejoin:round; stroke-width:2; stroke-opacity:0.1; fill:none" points="147.472,342.697 2352.76,342.697 "/>
<polyline clip-path="url(#clip932)" style="stroke:#000000; stroke-linecap:round; stroke-linejoin:round; stroke-width:2; stroke-opacity:0.1; fill:none" points="147.472,121.878 2352.76,121.878 "/>
<polyline clip-path="url(#clip930)" style="stroke:#000000; stroke-linecap:round; stroke-linejoin:round; stroke-width:4; stroke-opacity:1; fill:none" points="147.472,1436.14 147.472,47.2441 "/>
<polyline clip-path="url(#clip930)" style="stroke:#000000; stroke-linecap:round; stroke-linejoin:round; stroke-width:4; stroke-opacity:1; fill:none" points="147.472,1225.97 166.37,1225.97 "/>
<polyline clip-path="url(#clip930)" style="stroke:#000000; stroke-linecap:round; stroke-linejoin:round; stroke-width:4; stroke-opacity:1; fill:none" points="147.472,1005.16 166.37,1005.16 "/>
<polyline clip-path="url(#clip930)" style="stroke:#000000; stroke-linecap:round; stroke-linejoin:round; stroke-width:4; stroke-opacity:1; fill:none" points="147.472,784.336 166.37,784.336 "/>
<polyline clip-path="url(#clip930)" style="stroke:#000000; stroke-linecap:round; stroke-linejoin:round; stroke-width:4; stroke-opacity:1; fill:none" points="147.472,563.516 166.37,563.516 "/>
<polyline clip-path="url(#clip930)" style="stroke:#000000; stroke-linecap:round; stroke-linejoin:round; stroke-width:4; stroke-opacity:1; fill:none" points="147.472,342.697 166.37,342.697 "/>
<polyline clip-path="url(#clip930)" style="stroke:#000000; stroke-linecap:round; stroke-linejoin:round; stroke-width:4; stroke-opacity:1; fill:none" points="147.472,121.878 166.37,121.878 "/>
<path clip-path="url(#clip930)" d="M66.1628 1224.79 Q69.0997 1225.42 70.7403 1227.4 Q72.4012 1229.39 72.4012 1232.3 Q72.4012 1236.78 69.3225 1239.23 Q66.2438 1241.68 60.5725 1241.68 Q58.6686 1241.68 56.6431 1241.3 Q54.6379 1240.93 52.491 1240.18 L52.491 1236.23 Q54.1923 1237.23 56.2178 1237.73 Q58.2432 1238.24 60.451 1238.24 Q64.2993 1238.24 66.3045 1236.72 Q68.33 1235.2 68.33 1232.3 Q68.33 1229.63 66.4463 1228.13 Q64.5829 1226.61 61.2409 1226.61 L57.7166 1226.61 L57.7166 1223.25 L61.4029 1223.25 Q64.4209 1223.25 66.021 1222.06 Q67.6211 1220.84 67.6211 1218.57 Q67.6211 1216.24 65.9602 1215.01 Q64.3196 1213.75 61.2409 1213.75 Q59.5598 1213.75 57.6356 1214.12 Q55.7114 1214.48 53.4024 1215.25 L53.4024 1211.6 Q55.7317 1210.96 57.7571 1210.63 Q59.8028 1210.31 61.6055 1210.31 Q66.264 1210.31 68.9781 1212.43 Q71.6922 1214.54 71.6922 1218.15 Q71.6922 1220.66 70.2542 1222.4 Q68.8161 1224.12 66.1628 1224.79 Z" fill="#000000" fill-rule="nonzero" fill-opacity="1" /><path clip-path="url(#clip930)" d="M80.1586 1235.95 L84.4323 1235.95 L84.4323 1241.09 L80.1586 1241.09 L80.1586 1235.95 Z" fill="#000000" fill-rule="nonzero" fill-opacity="1" /><path clip-path="url(#clip930)" d="M94.0532 1237.65 L100.737 1237.65 L100.737 1214.58 L93.4659 1216.04 L93.4659 1212.31 L100.697 1210.85 L104.788 1210.85 L104.788 1237.65 L111.472 1237.65 L111.472 1241.09 L94.0532 1241.09 L94.0532 1237.65 Z" fill="#000000" fill-rule="nonzero" fill-opacity="1" /><path clip-path="url(#clip930)" d="M66.4868 1003.97 Q69.4237 1004.6 71.0644 1006.58 Q72.7252 1008.57 72.7252 1011.48 Q72.7252 1015.96 69.6465 1018.41 Q66.5679 1020.86 60.8966 1020.86 Q58.9927 1020.86 56.9672 1020.48 Q54.962 1020.11 52.815 1019.36 L52.815 1015.41 Q54.5164 1016.41 56.5419 1016.91 Q58.5673 1017.42 60.7751 1017.42 Q64.6234 1017.42 66.6286 1015.9 Q68.6541 1014.38 68.6541 1011.48 Q68.6541 1008.81 66.7704 1007.31 Q64.907 1005.79 61.565 1005.79 L58.0407 1005.79 L58.0407 1002.43 L61.727 1002.43 Q64.7449 1002.43 66.3451 1001.24 Q67.9452 1000.02 67.9452 997.752 Q67.9452 995.423 66.2843 994.187 Q64.6437 992.932 61.565 992.932 Q59.8839 992.932 57.9597 993.296 Q56.0355 993.661 53.7265 994.431 L53.7265 990.785 Q56.0558 990.137 58.0812 989.812 Q60.1269 989.488 61.9296 989.488 Q66.5881 989.488 69.3022 991.615 Q72.0163 993.722 72.0163 997.327 Q72.0163 999.838 70.5782 1001.58 Q69.1402 1003.3 66.4868 1003.97 Z" fill="#000000" fill-rule="nonzero" fill-opacity="1" /><path clip-path="url(#clip930)" d="M80.4827 1015.13 L84.7564 1015.13 L84.7564 1020.28 L80.4827 1020.28 L80.4827 1015.13 Z" fill="#000000" fill-rule="nonzero" fill-opacity="1" /><path clip-path="url(#clip930)" d="M97.1927 1016.83 L111.472 1016.83 L111.472 1020.28 L92.2708 1020.28 L92.2708 1016.83 Q94.6001 1014.42 98.6105 1010.37 Q102.641 1006.3 103.674 1005.12 Q105.639 1002.92 106.408 1001.4 Q107.198 999.859 107.198 998.38 Q107.198 995.97 105.497 994.451 Q103.816 992.932 101.102 992.932 Q99.1776 992.932 97.0307 993.6 Q94.9039 994.268 92.4734 995.626 L92.4734 991.494 Q94.9444 990.501 97.0914 989.995 Q99.2384 989.488 101.021 989.488 Q105.72 989.488 108.515 991.838 Q111.31 994.187 111.31 998.117 Q111.31 999.98 110.601 1001.66 Q109.913 1003.32 108.069 1005.59 Q107.563 1006.18 104.849 1008.99 Q102.135 1011.79 97.1927 1016.83 Z" fill="#000000" fill-rule="nonzero" fill-opacity="1" /><path clip-path="url(#clip930)" d="M65.6564 783.151 Q68.5933 783.779 70.2339 785.764 Q71.8948 787.749 71.8948 790.665 Q71.8948 795.142 68.8161 797.592 Q65.7374 800.043 60.0662 800.043 Q58.1622 800.043 56.1368 799.658 Q54.1316 799.294 51.9846 798.544 L51.9846 794.595 Q53.686 795.587 55.7114 796.094 Q57.7369 796.6 59.9446 796.6 Q63.793 796.6 65.7982 795.081 Q67.8236 793.562 67.8236 790.665 Q67.8236 787.992 65.94 786.493 Q64.0765 784.974 60.7346 784.974 L57.2103 784.974 L57.2103 781.612 L60.8966 781.612 Q63.9145 781.612 65.5146 780.417 Q67.1147 779.201 67.1147 776.933 Q67.1147 774.604 65.4539 773.368 Q63.8132 772.112 60.7346 772.112 Q59.0534 772.112 57.1292 772.477 Q55.2051 772.841 52.8961 773.611 L52.8961 769.965 Q55.2253 769.317 57.2508 768.993 Q59.2965 768.669 61.0991 768.669 Q65.7577 768.669 68.4718 770.796 Q71.1859 772.902 71.1859 776.507 Q71.1859 779.019 69.7478 780.761 Q68.3097 782.483 65.6564 783.151 Z" fill="#000000" fill-rule="nonzero" fill-opacity="1" /><path clip-path="url(#clip930)" d="M79.6523 794.311 L83.926 794.311 L83.926 799.456 L79.6523 799.456 L79.6523 794.311 Z" fill="#000000" fill-rule="nonzero" fill-opacity="1" /><path clip-path="url(#clip930)" d="M105.234 783.151 Q108.171 783.779 109.811 785.764 Q111.472 787.749 111.472 790.665 Q111.472 795.142 108.393 797.592 Q105.315 800.043 99.6435 800.043 Q97.7396 800.043 95.7141 799.658 Q93.7089 799.294 91.5619 798.544 L91.5619 794.595 Q93.2633 795.587 95.2888 796.094 Q97.3142 796.6 99.522 796.6 Q103.37 796.6 105.376 795.081 Q107.401 793.562 107.401 790.665 Q107.401 787.992 105.517 786.493 Q103.654 784.974 100.312 784.974 L96.7876 784.974 L96.7876 781.612 L100.474 781.612 Q103.492 781.612 105.092 780.417 Q106.692 779.201 106.692 776.933 Q106.692 774.604 105.031 773.368 Q103.391 772.112 100.312 772.112 Q98.6308 772.112 96.7066 772.477 Q94.7824 772.841 92.4734 773.611 L92.4734 769.965 Q94.8027 769.317 96.8281 768.993 Q98.8738 768.669 100.676 768.669 Q105.335 768.669 108.049 770.796 Q110.763 772.902 110.763 776.507 Q110.763 779.019 109.325 780.761 Q107.887 782.483 105.234 783.151 Z" fill="#000000" fill-rule="nonzero" fill-opacity="1" /><path clip-path="url(#clip930)" d="M64.6639 562.332 Q67.6008 562.959 69.2414 564.944 Q70.9023 566.929 70.9023 569.846 Q70.9023 574.322 67.8236 576.773 Q64.7449 579.224 59.0737 579.224 Q57.1698 579.224 55.1443 578.839 Q53.1391 578.474 50.9921 577.725 L50.9921 573.775 Q52.6935 574.768 54.719 575.274 Q56.7444 575.781 58.9522 575.781 Q62.8005 575.781 64.8057 574.261 Q66.8312 572.742 66.8312 569.846 Q66.8312 567.172 64.9475 565.674 Q63.0841 564.154 59.7421 564.154 L56.2178 564.154 L56.2178 560.792 L59.9041 560.792 Q62.922 560.792 64.5221 559.597 Q66.1223 558.382 66.1223 556.113 Q66.1223 553.784 64.4614 552.549 Q62.8208 551.293 59.7421 551.293 Q58.061 551.293 56.1368 551.657 Q54.2126 552.022 51.9036 552.792 L51.9036 549.146 Q54.2328 548.498 56.2583 548.174 Q58.304 547.85 60.1067 547.85 Q64.7652 547.85 67.4793 549.976 Q70.1934 552.083 70.1934 555.688 Q70.1934 558.2 68.7553 559.942 Q67.3173 561.663 64.6639 562.332 Z" fill="#000000" fill-rule="nonzero" fill-opacity="1" /><path clip-path="url(#clip930)" d="M78.6598 573.492 L82.9335 573.492 L82.9335 578.636 L78.6598 578.636 L78.6598 573.492 Z" fill="#000000" fill-rule="nonzero" fill-opacity="1" /><path clip-path="url(#clip930)" d="M103.087 551.961 L92.7569 568.104 L103.087 568.104 L103.087 551.961 M102.013 548.396 L107.158 548.396 L107.158 568.104 L111.472 568.104 L111.472 571.507 L107.158 571.507 L107.158 578.636 L103.087 578.636 L103.087 571.507 L89.4352 571.507 L89.4352 567.557 L102.013 548.396 Z" fill="#000000" fill-rule="nonzero" fill-opacity="1" /><path clip-path="url(#clip930)" d="M65.9602 341.512 Q68.8971 342.14 70.5377 344.125 Q72.1986 346.11 72.1986 349.027 Q72.1986 353.503 69.1199 355.954 Q66.0412 358.404 60.37 358.404 Q58.466 358.404 56.4406 358.02 Q54.4354 357.655 52.2884 356.906 L52.2884 352.956 Q53.9898 353.948 56.0152 354.455 Q58.0407 354.961 60.2484 354.961 Q64.0968 354.961 66.102 353.442 Q68.1275 351.923 68.1275 349.027 Q68.1275 346.353 66.2438 344.854 Q64.3804 343.335 61.0384 343.335 L57.5141 343.335 L57.5141 339.973 L61.2004 339.973 Q64.2183 339.973 65.8184 338.778 Q67.4185 337.563 67.4185 335.294 Q67.4185 332.965 65.7577 331.729 Q64.1171 330.473 61.0384 330.473 Q59.3572 330.473 57.4331 330.838 Q55.5089 331.203 53.1999 331.972 L53.1999 328.326 Q55.5291 327.678 57.5546 327.354 Q59.6003 327.03 61.4029 327.03 Q66.0615 327.03 68.7756 329.157 Q71.4897 331.263 71.4897 334.869 Q71.4897 337.38 70.0516 339.122 Q68.6136 340.844 65.9602 341.512 Z" fill="#000000" fill-rule="nonzero" fill-opacity="1" /><path clip-path="url(#clip930)" d="M79.9561 352.672 L84.2298 352.672 L84.2298 357.817 L79.9561 357.817 L79.9561 352.672 Z" fill="#000000" fill-rule="nonzero" fill-opacity="1" /><path clip-path="url(#clip930)" d="M93.1823 327.577 L109.244 327.577 L109.244 331.02 L96.9294 331.02 L96.9294 338.433 Q97.8206 338.13 98.7118 337.988 Q99.603 337.826 100.494 337.826 Q105.558 337.826 108.515 340.601 Q111.472 343.376 111.472 348.115 Q111.472 352.996 108.434 355.711 Q105.396 358.404 99.8663 358.404 Q97.9624 358.404 95.9774 358.08 Q94.0127 357.756 91.9063 357.108 L91.9063 352.996 Q93.7292 353.989 95.6736 354.475 Q97.618 354.961 99.7853 354.961 Q103.289 354.961 105.335 353.118 Q107.381 351.275 107.381 348.115 Q107.381 344.955 105.335 343.112 Q103.289 341.269 99.7853 341.269 Q98.1447 341.269 96.504 341.634 Q94.8837 341.998 93.1823 342.768 L93.1823 327.577 Z" fill="#000000" fill-rule="nonzero" fill-opacity="1" /><path clip-path="url(#clip930)" d="M64.9475 120.693 Q67.8844 121.321 69.525 123.306 Q71.1859 125.291 71.1859 128.207 Q71.1859 132.683 68.1072 135.134 Q65.0285 137.585 59.3572 137.585 Q57.4533 137.585 55.4279 137.2 Q53.4227 136.836 51.2757 136.086 L51.2757 132.137 Q52.9771 133.129 55.0025 133.635 Q57.028 134.142 59.2357 134.142 Q63.0841 134.142 65.0893 132.623 Q67.1147 131.104 67.1147 128.207 Q67.1147 125.534 65.2311 124.035 Q63.3676 122.516 60.0256 122.516 L56.5014 122.516 L56.5014 119.153 L60.1877 119.153 Q63.2056 119.153 64.8057 117.958 Q66.4058 116.743 66.4058 114.475 Q66.4058 112.145 64.7449 110.91 Q63.1043 109.654 60.0256 109.654 Q58.3445 109.654 56.4203 110.019 Q54.4962 110.383 52.1871 111.153 L52.1871 107.507 Q54.5164 106.859 56.5419 106.535 Q58.5876 106.211 60.3902 106.211 Q65.0488 106.211 67.7629 108.337 Q70.477 110.444 70.477 114.049 Q70.477 116.561 69.0389 118.303 Q67.6008 120.024 64.9475 120.693 Z" fill="#000000" fill-rule="nonzero" fill-opacity="1" /><path clip-path="url(#clip930)" d="M78.9434 131.853 L83.2171 131.853 L83.2171 136.998 L78.9434 136.998 L78.9434 131.853 Z" fill="#000000" fill-rule="nonzero" fill-opacity="1" /><path clip-path="url(#clip930)" d="M101.385 120.247 Q98.6308 120.247 97.0104 122.131 Q95.4103 124.014 95.4103 127.296 Q95.4103 130.557 97.0104 132.461 Q98.6308 134.344 101.385 134.344 Q104.14 134.344 105.74 132.461 Q107.36 130.557 107.36 127.296 Q107.36 124.014 105.74 122.131 Q104.14 120.247 101.385 120.247 M109.507 107.426 L109.507 111.153 Q107.968 110.424 106.388 110.039 Q104.829 109.654 103.289 109.654 Q99.2384 109.654 97.0914 112.388 Q94.9647 115.123 94.6609 120.652 Q95.8559 118.89 97.6585 117.958 Q99.4612 117.006 101.628 117.006 Q106.186 117.006 108.819 119.781 Q111.472 122.536 111.472 127.296 Q111.472 131.954 108.718 134.77 Q105.963 137.585 101.385 137.585 Q96.1395 137.585 93.3646 133.575 Q90.5897 129.544 90.5897 121.908 Q90.5897 114.738 93.9925 110.484 Q97.3952 106.211 103.127 106.211 Q104.667 106.211 106.226 106.515 Q107.806 106.818 109.507 107.426 Z" fill="#000000" fill-rule="nonzero" fill-opacity="1" /><polyline clip-path="url(#clip932)" style="stroke:#009af9; stroke-linecap:round; stroke-linejoin:round; stroke-width:4; stroke-opacity:1; fill:none" points="209.886,1319.44 231.115,1337.84 252.344,1295.3 273.573,1396.83 294.802,1155.07 316.032,1182.16 337.261,1201.6 358.49,1325.24 379.719,1168.39 422.177,1294.13 443.406,1365.04 485.865,1173.49 528.323,1172.38 592.01,1124.42 655.698,1044.94 719.385,1027.39 804.302,1111.82 889.219,942.856 995.364,877.13 1122.74,760.837 1250.11,676.533 1398.72,470.457 1589.78,546.276 1780.84,386.349 2014.36,86.5525 2290.34,111.116 "/>
<path clip-path="url(#clip930)" d="M220.982 184.261 L487.386 184.261 L487.386 93.5406 L220.982 93.5406  Z" fill="#ffffff" fill-rule="evenodd" fill-opacity="1"/>
<polyline clip-path="url(#clip930)" style="stroke:#000000; stroke-linecap:round; stroke-linejoin:round; stroke-width:4; stroke-opacity:1; fill:none" points="220.982,184.261 487.386,184.261 487.386,93.5406 220.982,93.5406 220.982,184.261 "/>
<polyline clip-path="url(#clip930)" style="stroke:#009af9; stroke-linecap:round; stroke-linejoin:round; stroke-width:3.5; stroke-opacity:1; fill:none" points="245.485,138.901 392.504,138.901 "/>
<path clip-path="url(#clip930)" d="M429.119 156.127 Q427.539 160.178 426.04 161.414 Q424.541 162.649 422.03 162.649 L419.053 162.649 L419.053 159.53 L421.24 159.53 Q422.779 159.53 423.63 158.801 Q424.481 158.072 425.514 155.357 L426.182 153.656 L417.007 131.336 L420.956 131.336 L428.046 149.079 L435.135 131.336 L439.084 131.336 L429.119 156.127 Z" fill="#000000" fill-rule="nonzero" fill-opacity="1" /><path clip-path="url(#clip930)" d="M445.464 150.577 L452.148 150.577 L452.148 127.507 L444.877 128.966 L444.877 125.239 L452.108 123.781 L456.199 123.781 L456.199 150.577 L462.883 150.577 L462.883 154.021 L445.464 154.021 L445.464 150.577 Z" fill="#000000" fill-rule="nonzero" fill-opacity="1" /></svg>
