<?xml version="1.0" encoding="utf-8"?>
<svg xmlns="http://www.w3.org/2000/svg" xmlns:xlink="http://www.w3.org/1999/xlink" width="600" height="400" viewBox="0 0 2400 1600">
<defs>
  <clipPath id="clip180">
    <rect x="0" y="0" width="2400" height="1600"/>
  </clipPath>
</defs>
<path clip-path="url(#clip180)" d="M0 1600 L2400 1600 L2400 8.88178e-14 L0 8.88178e-14  Z" fill="#ffffff" fill-rule="evenodd" fill-opacity="1"/>
<defs>
  <clipPath id="clip181">
    <rect x="480" y="0" width="1681" height="1600"/>
  </clipPath>
</defs>
<path clip-path="url(#clip180)" d="M147.472 1436.14 L2352.76 1436.14 L2352.76 47.2441 L147.472 47.2441  Z" fill="#ffffff" fill-rule="evenodd" fill-opacity="1"/>
<defs>
  <clipPath id="clip182">
    <rect x="147" y="47" width="2206" height="1390"/>
  </clipPath>
</defs>
<polyline clip-path="url(#clip182)" style="stroke:#000000; stroke-linecap:round; stroke-linejoin:round; stroke-width:2; stroke-opacity:0.1; fill:none" points="167.428,1436.14 167.428,47.2441 "/>
<polyline clip-path="url(#clip182)" style="stroke:#000000; stroke-linecap:round; stroke-linejoin:round; stroke-width:2; stroke-opacity:0.1; fill:none" points="698.156,1436.14 698.156,47.2441 "/>
<polyline clip-path="url(#clip182)" style="stroke:#000000; stroke-linecap:round; stroke-linejoin:round; stroke-width:2; stroke-opacity:0.1; fill:none" points="1228.88,1436.14 1228.88,47.2441 "/>
<polyline clip-path="url(#clip182)" style="stroke:#000000; stroke-linecap:round; stroke-linejoin:round; stroke-width:2; stroke-opacity:0.1; fill:none" points="1759.61,1436.14 1759.61,47.2441 "/>
<polyline clip-path="url(#clip182)" style="stroke:#000000; stroke-linecap:round; stroke-linejoin:round; stroke-width:2; stroke-opacity:0.1; fill:none" points="2290.34,1436.14 2290.34,47.2441 "/>
<polyline clip-path="url(#clip180)" style="stroke:#000000; stroke-linecap:round; stroke-linejoin:round; stroke-width:4; stroke-opacity:1; fill:none" points="147.472,1436.14 2352.76,1436.14 "/>
<polyline clip-path="url(#clip180)" style="stroke:#000000; stroke-linecap:round; stroke-linejoin:round; stroke-width:4; stroke-opacity:1; fill:none" points="167.428,1436.14 167.428,1417.24 "/>
<polyline clip-path="url(#clip180)" style="stroke:#000000; stroke-linecap:round; stroke-linejoin:round; stroke-width:4; stroke-opacity:1; fill:none" points="698.156,1436.14 698.156,1417.24 "/>
<polyline clip-path="url(#clip180)" style="stroke:#000000; stroke-linecap:round; stroke-linejoin:round; stroke-width:4; stroke-opacity:1; fill:none" points="1228.88,1436.14 1228.88,1417.24 "/>
<polyline clip-path="url(#clip180)" style="stroke:#000000; stroke-linecap:round; stroke-linejoin:round; stroke-width:4; stroke-opacity:1; fill:none" points="1759.61,1436.14 1759.61,1417.24 "/>
<polyline clip-path="url(#clip180)" style="stroke:#000000; stroke-linecap:round; stroke-linejoin:round; stroke-width:4; stroke-opacity:1; fill:none" points="2290.34,1436.14 2290.34,1417.24 "/>
<path clip-path="url(#clip180)" d="M167.428 1465.59 Q164.268 1465.59 162.668 1468.71 Q161.088 1471.81 161.088 1478.05 Q161.088 1484.27 162.668 1487.39 Q164.268 1490.49 167.428 1490.49 Q170.607 1490.49 172.187 1487.39 Q173.787 1484.27 173.787 1478.05 Q173.787 1471.81 172.187 1468.71 Q170.607 1465.59 167.428 1465.59 M167.428 1462.35 Q172.511 1462.35 175.185 1466.38 Q177.879 1470.39 177.879 1478.05 Q177.879 1485.69 175.185 1489.72 Q172.511 1493.73 167.428 1493.73 Q162.344 1493.73 159.65 1489.72 Q156.976 1485.69 156.976 1478.05 Q156.976 1470.39 159.65 1466.38 Q162.344 1462.35 167.428 1462.35 Z" fill="#000000" fill-rule="nonzero" fill-opacity="1" /><path clip-path="url(#clip180)" d="M680.018 1489.7 L694.298 1489.7 L694.298 1493.14 L675.096 1493.14 L675.096 1489.7 Q677.426 1487.29 681.436 1483.24 Q685.467 1479.16 686.5 1477.99 Q688.464 1475.78 689.234 1474.26 Q690.024 1472.72 690.024 1471.24 Q690.024 1468.83 688.323 1467.32 Q686.642 1465.8 683.927 1465.8 Q682.003 1465.8 679.856 1466.46 Q677.73 1467.13 675.299 1468.49 L675.299 1464.36 Q677.77 1463.37 679.917 1462.86 Q682.064 1462.35 683.846 1462.35 Q688.545 1462.35 691.341 1464.7 Q694.136 1467.05 694.136 1470.98 Q694.136 1472.84 693.427 1474.53 Q692.738 1476.19 690.895 1478.46 Q690.389 1479.04 687.674 1481.86 Q684.96 1484.65 680.018 1489.7 Z" fill="#000000" fill-rule="nonzero" fill-opacity="1" /><path clip-path="url(#clip180)" d="M702.926 1462.9 L718.988 1462.9 L718.988 1466.34 L706.673 1466.34 L706.673 1473.76 Q707.564 1473.45 708.456 1473.31 Q709.347 1473.15 710.238 1473.15 Q715.302 1473.15 718.259 1475.92 Q721.216 1478.7 721.216 1483.44 Q721.216 1488.32 718.178 1491.03 Q715.14 1493.73 709.61 1493.73 Q707.706 1493.73 705.721 1493.4 Q703.757 1493.08 701.65 1492.43 L701.65 1488.32 Q703.473 1489.31 705.417 1489.8 Q707.362 1490.28 709.529 1490.28 Q713.033 1490.28 715.079 1488.44 Q717.125 1486.6 717.125 1483.44 Q717.125 1480.28 715.079 1478.44 Q713.033 1476.59 709.529 1476.59 Q707.888 1476.59 706.248 1476.96 Q704.628 1477.32 702.926 1478.09 L702.926 1462.9 Z" fill="#000000" fill-rule="nonzero" fill-opacity="1" /><path clip-path="url(#clip180)" d="M1206.75 1462.9 L1222.81 1462.9 L1222.81 1466.34 L1210.49 1466.34 L1210.49 1473.76 Q1211.38 1473.45 1212.28 1473.31 Q1213.17 1473.15 1214.06 1473.15 Q1219.12 1473.15 1222.08 1475.92 Q1225.04 1478.7 1225.04 1483.44 Q1225.04 1488.32 1222 1491.03 Q1218.96 1493.73 1213.43 1493.73 Q1211.53 1493.73 1209.54 1493.4 Q1207.58 1493.08 1205.47 1492.43 L1205.47 1488.32 Q1207.29 1489.31 1209.24 1489.8 Q1211.18 1490.28 1213.35 1490.28 Q1216.85 1490.28 1218.9 1488.44 Q1220.95 1486.6 1220.95 1483.44 Q1220.95 1480.28 1218.9 1478.44 Q1216.85 1476.59 1213.35 1476.59 Q1211.71 1476.59 1210.07 1476.96 Q1208.45 1477.32 1206.75 1478.09 L1206.75 1462.9 Z" fill="#000000" fill-rule="nonzero" fill-opacity="1" /><path clip-path="url(#clip180)" d="M1241.85 1465.59 Q1238.69 1465.59 1237.09 1468.71 Q1235.51 1471.81 1235.51 1478.05 Q1235.51 1484.27 1237.09 1487.39 Q1238.69 1490.49 1241.85 1490.49 Q1245.03 1490.49 1246.61 1487.39 Q1248.21 1484.27 1248.21 1478.05 Q1248.21 1471.81 1246.61 1468.71 Q1245.03 1465.59 1241.85 1465.59 M1241.85 1462.35 Q1246.93 1462.35 1249.61 1466.38 Q1252.3 1470.39 1252.3 1478.05 Q1252.3 1485.69 1249.61 1489.72 Q1246.93 1493.73 1241.85 1493.73 Q1236.76 1493.73 1234.07 1489.72 Q1231.4 1485.69 1231.4 1478.05 Q1231.4 1470.39 1234.07 1466.38 Q1236.76 1462.35 1241.85 1462.35 Z" fill="#000000" fill-rule="nonzero" fill-opacity="1" /><path clip-path="url(#clip180)" d="M1736.74 1462.9 L1756.18 1462.9 L1756.18 1464.64 L1745.2 1493.14 L1740.93 1493.14 L1751.26 1466.34 L1736.74 1466.34 L1736.74 1462.9 Z" fill="#000000" fill-rule="nonzero" fill-opacity="1" /><path clip-path="url(#clip180)" d="M1764.2 1462.9 L1780.26 1462.9 L1780.26 1466.34 L1767.95 1466.34 L1767.95 1473.76 Q1768.84 1473.45 1769.73 1473.31 Q1770.62 1473.15 1771.51 1473.15 Q1776.58 1473.15 1779.53 1475.92 Q1782.49 1478.7 1782.49 1483.44 Q1782.49 1488.32 1779.45 1491.03 Q1776.41 1493.73 1770.89 1493.73 Q1768.98 1493.73 1767 1493.4 Q1765.03 1493.08 1762.93 1492.43 L1762.93 1488.32 Q1764.75 1489.31 1766.69 1489.8 Q1768.64 1490.28 1770.8 1490.28 Q1774.31 1490.28 1776.35 1488.44 Q1778.4 1486.6 1778.4 1483.44 Q1778.4 1480.28 1776.35 1478.44 Q1774.31 1476.59 1770.8 1476.59 Q1769.16 1476.59 1767.52 1476.96 Q1765.9 1477.32 1764.2 1478.09 L1764.2 1462.9 Z" fill="#000000" fill-rule="nonzero" fill-opacity="1" /><path clip-path="url(#clip180)" d="M2255 1489.7 L2261.68 1489.7 L2261.68 1466.63 L2254.41 1468.08 L2254.41 1464.36 L2261.64 1462.9 L2265.73 1462.9 L2265.73 1489.7 L2272.42 1489.7 L2272.42 1493.14 L2255 1493.14 L2255 1489.7 Z" fill="#000000" fill-rule="nonzero" fill-opacity="1" /><path clip-path="url(#clip180)" d="M2289.43 1465.59 Q2286.27 1465.59 2284.67 1468.71 Q2283.09 1471.81 2283.09 1478.05 Q2283.09 1484.27 2284.67 1487.39 Q2286.27 1490.49 2289.43 1490.49 Q2292.61 1490.49 2294.19 1487.39 Q2295.79 1484.27 2295.79 1478.05 Q2295.79 1471.81 2294.19 1468.71 Q2292.61 1465.59 2289.43 1465.59 M2289.43 1462.35 Q2294.51 1462.35 2297.19 1466.38 Q2299.88 1470.39 2299.88 1478.05 Q2299.88 1485.69 2297.19 1489.72 Q2294.51 1493.73 2289.43 1493.73 Q2284.35 1493.73 2281.65 1489.72 Q2278.98 1485.69 2278.98 1478.05 Q2278.98 1470.39 2281.65 1466.38 Q2284.35 1462.35 2289.43 1462.35 Z" fill="#000000" fill-rule="nonzero" fill-opacity="1" /><path clip-path="url(#clip180)" d="M2315.82 1465.59 Q2312.66 1465.59 2311.06 1468.71 Q2309.48 1471.81 2309.48 1478.05 Q2309.48 1484.27 2311.06 1487.39 Q2312.66 1490.49 2315.82 1490.49 Q2319 1490.49 2320.58 1487.39 Q2322.18 1484.27 2322.18 1478.05 Q2322.18 1471.81 2320.58 1468.71 Q2319 1465.59 2315.82 1465.59 M2315.82 1462.35 Q2320.91 1462.35 2323.58 1466.38 Q2326.27 1470.39 2326.27 1478.05 Q2326.27 1485.69 2323.58 1489.72 Q2320.91 1493.73 2315.82 1493.73 Q2310.74 1493.73 2308.04 1489.72 Q2305.37 1485.69 2305.37 1478.05 Q2305.37 1470.39 2308.04 1466.38 Q2310.74 1462.35 2315.82 1462.35 Z" fill="#000000" fill-rule="nonzero" fill-opacity="1" /><path clip-path="url(#clip180)" d="M945.975 1549.49 Q940.168 1549.49 937.928 1550.82 Q935.689 1552.15 935.689 1555.35 Q935.689 1557.91 937.355 1559.42 Q939.048 1560.9 941.939 1560.9 Q945.923 1560.9 948.319 1558.09 Q950.741 1555.25 950.741 1550.56 L950.741 1549.49 L945.975 1549.49 M955.532 1547.52 L955.532 1564.16 L950.741 1564.16 L950.741 1559.73 Q949.1 1562.39 946.652 1563.66 Q944.204 1564.91 940.663 1564.91 Q936.183 1564.91 933.527 1562.41 Q930.897 1559.89 930.897 1555.67 Q930.897 1550.74 934.178 1548.24 Q937.485 1545.74 944.022 1545.74 L950.741 1545.74 L950.741 1545.28 Q950.741 1541.97 948.553 1540.17 Q946.392 1538.35 942.459 1538.35 Q939.959 1538.35 937.59 1538.95 Q935.22 1539.55 933.032 1540.74 L933.032 1536.32 Q935.663 1535.3 938.137 1534.81 Q940.61 1534.29 942.954 1534.29 Q949.282 1534.29 952.407 1537.57 Q955.532 1540.85 955.532 1547.52 Z" fill="#000000" fill-rule="nonzero" fill-opacity="1" /><path clip-path="url(#clip180)" d="M970.142 1526.71 L970.142 1534.99 L980.011 1534.99 L980.011 1538.71 L970.142 1538.71 L970.142 1554.55 Q970.142 1558.11 971.105 1559.13 Q972.095 1560.15 975.089 1560.15 L980.011 1560.15 L980.011 1564.16 L975.089 1564.16 Q969.543 1564.16 967.433 1562.1 Q965.324 1560.02 965.324 1554.55 L965.324 1538.71 L961.808 1538.71 L961.808 1534.99 L965.324 1534.99 L965.324 1526.71 L970.142 1526.71 Z" fill="#000000" fill-rule="nonzero" fill-opacity="1" /><path clip-path="url(#clip180)" d="M997.615 1538.35 Q993.761 1538.35 991.522 1541.37 Q989.282 1544.36 989.282 1549.6 Q989.282 1554.83 991.496 1557.85 Q993.735 1560.85 997.615 1560.85 Q1001.44 1560.85 1003.68 1557.83 Q1005.92 1554.81 1005.92 1549.6 Q1005.92 1544.42 1003.68 1541.4 Q1001.44 1538.35 997.615 1538.35 M997.615 1534.29 Q1003.87 1534.29 1007.43 1538.35 Q1011 1542.41 1011 1549.6 Q1011 1556.76 1007.43 1560.85 Q1003.87 1564.91 997.615 1564.91 Q991.339 1564.91 987.772 1560.85 Q984.23 1556.76 984.23 1549.6 Q984.23 1542.41 987.772 1538.35 Q991.339 1534.29 997.615 1534.29 Z" fill="#000000" fill-rule="nonzero" fill-opacity="1" /><path clip-path="url(#clip180)" d="M1041.65 1540.59 Q1043.45 1537.36 1045.95 1535.82 Q1048.45 1534.29 1051.83 1534.29 Q1056.39 1534.29 1058.87 1537.49 Q1061.34 1540.67 1061.34 1546.55 L1061.34 1564.16 L1056.52 1564.16 L1056.52 1546.71 Q1056.52 1542.52 1055.04 1540.48 Q1053.55 1538.45 1050.51 1538.45 Q1046.78 1538.45 1044.62 1540.93 Q1042.46 1543.4 1042.46 1547.67 L1042.46 1564.16 L1037.64 1564.16 L1037.64 1546.71 Q1037.64 1542.49 1036.16 1540.48 Q1034.67 1538.45 1031.57 1538.45 Q1027.9 1538.45 1025.74 1540.95 Q1023.58 1543.43 1023.58 1547.67 L1023.58 1564.16 L1018.76 1564.16 L1018.76 1534.99 L1023.58 1534.99 L1023.58 1539.52 Q1025.22 1536.84 1027.51 1535.56 Q1029.8 1534.29 1032.95 1534.29 Q1036.13 1534.29 1038.34 1535.9 Q1040.58 1537.52 1041.65 1540.59 Z" fill="#000000" fill-rule="nonzero" fill-opacity="1" /><path clip-path="url(#clip180)" d="M1071.57 1557.54 L1077.07 1557.54 L1077.07 1564.16 L1071.57 1564.16 L1071.57 1557.54 Z" fill="#000000" fill-rule="nonzero" fill-opacity="1" /><path clip-path="url(#clip180)" d="M1110.56 1540.59 Q1112.35 1537.36 1114.85 1535.82 Q1117.35 1534.29 1120.74 1534.29 Q1125.3 1534.29 1127.77 1537.49 Q1130.24 1540.67 1130.24 1546.55 L1130.24 1564.16 L1125.43 1564.16 L1125.43 1546.71 Q1125.43 1542.52 1123.94 1540.48 Q1122.46 1538.45 1119.41 1538.45 Q1115.69 1538.45 1113.53 1540.93 Q1111.36 1543.4 1111.36 1547.67 L1111.36 1564.16 L1106.55 1564.16 L1106.55 1546.71 Q1106.55 1542.49 1105.06 1540.48 Q1103.58 1538.45 1100.48 1538.45 Q1096.81 1538.45 1094.65 1540.95 Q1092.48 1543.43 1092.48 1547.67 L1092.48 1564.16 L1087.67 1564.16 L1087.67 1534.99 L1092.48 1534.99 L1092.48 1539.52 Q1094.13 1536.84 1096.42 1535.56 Q1098.71 1534.29 1101.86 1534.29 Q1105.04 1534.29 1107.25 1535.9 Q1109.49 1537.52 1110.56 1540.59 Z" fill="#000000" fill-rule="nonzero" fill-opacity="1" /><path clip-path="url(#clip180)" d="M1139.8 1534.99 L1144.59 1534.99 L1144.59 1564.16 L1139.8 1564.16 L1139.8 1534.99 M1139.8 1523.64 L1144.59 1523.64 L1144.59 1529.7 L1139.8 1529.7 L1139.8 1523.64 Z" fill="#000000" fill-rule="nonzero" fill-opacity="1" /><path clip-path="url(#clip180)" d="M1178.86 1546.55 L1178.86 1564.16 L1174.07 1564.16 L1174.07 1546.71 Q1174.07 1542.57 1172.46 1540.51 Q1170.84 1538.45 1167.61 1538.45 Q1163.73 1538.45 1161.49 1540.93 Q1159.26 1543.4 1159.26 1547.67 L1159.26 1564.16 L1154.44 1564.16 L1154.44 1534.99 L1159.26 1534.99 L1159.26 1539.52 Q1160.97 1536.89 1163.29 1535.59 Q1165.64 1534.29 1168.68 1534.29 Q1173.71 1534.29 1176.29 1537.41 Q1178.86 1540.51 1178.86 1546.55 Z" fill="#000000" fill-rule="nonzero" fill-opacity="1" /><path clip-path="url(#clip180)" d="M1210.58 1573.01 L1210.58 1576.73 L1182.87 1576.73 L1182.87 1573.01 L1210.58 1573.01 Z" fill="#000000" fill-rule="nonzero" fill-opacity="1" /><path clip-path="url(#clip180)" d="M1233.68 1535.85 L1233.68 1540.38 Q1231.65 1539.34 1229.46 1538.82 Q1227.28 1538.3 1224.93 1538.3 Q1221.36 1538.3 1219.57 1539.39 Q1217.8 1540.48 1217.8 1542.67 Q1217.8 1544.34 1219.07 1545.3 Q1220.35 1546.24 1224.2 1547.1 L1225.84 1547.46 Q1230.95 1548.56 1233.08 1550.56 Q1235.24 1552.54 1235.24 1556.11 Q1235.24 1560.17 1232.02 1562.54 Q1228.81 1564.91 1223.19 1564.91 Q1220.84 1564.91 1218.29 1564.44 Q1215.77 1564 1212.95 1563.09 L1212.95 1558.14 Q1215.61 1559.52 1218.19 1560.22 Q1220.77 1560.9 1223.29 1560.9 Q1226.68 1560.9 1228.5 1559.75 Q1230.32 1558.58 1230.32 1556.47 Q1230.32 1554.52 1228.99 1553.48 Q1227.69 1552.44 1223.24 1551.47 L1221.57 1551.08 Q1217.12 1550.15 1215.14 1548.22 Q1213.16 1546.27 1213.16 1542.88 Q1213.16 1538.77 1216.08 1536.53 Q1218.99 1534.29 1224.36 1534.29 Q1227.02 1534.29 1229.36 1534.68 Q1231.7 1535.07 1233.68 1535.85 Z" fill="#000000" fill-rule="nonzero" fill-opacity="1" /><path clip-path="url(#clip180)" d="M1256.13 1549.49 Q1250.32 1549.49 1248.08 1550.82 Q1245.84 1552.15 1245.84 1555.35 Q1245.84 1557.91 1247.51 1559.42 Q1249.2 1560.9 1252.09 1560.9 Q1256.08 1560.9 1258.47 1558.09 Q1260.9 1555.25 1260.9 1550.56 L1260.9 1549.49 L1256.13 1549.49 M1265.69 1547.52 L1265.69 1564.16 L1260.9 1564.16 L1260.9 1559.73 Q1259.25 1562.39 1256.81 1563.66 Q1254.36 1564.91 1250.82 1564.91 Q1246.34 1564.91 1243.68 1562.41 Q1241.05 1559.89 1241.05 1555.67 Q1241.05 1550.74 1244.33 1548.24 Q1247.64 1545.74 1254.18 1545.74 L1260.9 1545.74 L1260.9 1545.28 Q1260.9 1541.97 1258.71 1540.17 Q1256.55 1538.35 1252.61 1538.35 Q1250.11 1538.35 1247.74 1538.95 Q1245.37 1539.55 1243.19 1540.74 L1243.19 1536.32 Q1245.82 1535.3 1248.29 1534.81 Q1250.77 1534.29 1253.11 1534.29 Q1259.44 1534.29 1262.56 1537.57 Q1265.69 1540.85 1265.69 1547.52 Z" fill="#000000" fill-rule="nonzero" fill-opacity="1" /><path clip-path="url(#clip180)" d="M1298.26 1540.59 Q1300.06 1537.36 1302.56 1535.82 Q1305.06 1534.29 1308.45 1534.29 Q1313 1534.29 1315.48 1537.49 Q1317.95 1540.67 1317.95 1546.55 L1317.95 1564.16 L1313.13 1564.16 L1313.13 1546.71 Q1313.13 1542.52 1311.65 1540.48 Q1310.17 1538.45 1307.12 1538.45 Q1303.39 1538.45 1301.23 1540.93 Q1299.07 1543.4 1299.07 1547.67 L1299.07 1564.16 L1294.25 1564.16 L1294.25 1546.71 Q1294.25 1542.49 1292.77 1540.48 Q1291.29 1538.45 1288.19 1538.45 Q1284.51 1538.45 1282.35 1540.95 Q1280.19 1543.43 1280.19 1547.67 L1280.19 1564.16 L1275.37 1564.16 L1275.37 1534.99 L1280.19 1534.99 L1280.19 1539.52 Q1281.83 1536.84 1284.12 1535.56 Q1286.42 1534.29 1289.57 1534.29 Q1292.74 1534.29 1294.96 1535.9 Q1297.2 1537.52 1298.26 1540.59 Z" fill="#000000" fill-rule="nonzero" fill-opacity="1" /><path clip-path="url(#clip180)" d="M1332.14 1559.78 L1332.14 1575.25 L1327.33 1575.25 L1327.33 1534.99 L1332.14 1534.99 L1332.14 1539.42 Q1333.66 1536.81 1335.95 1535.56 Q1338.26 1534.29 1341.47 1534.29 Q1346.78 1534.29 1350.09 1538.5 Q1353.42 1542.72 1353.42 1549.6 Q1353.42 1556.47 1350.09 1560.69 Q1346.78 1564.91 1341.47 1564.91 Q1338.26 1564.91 1335.95 1563.66 Q1333.66 1562.39 1332.14 1559.78 M1348.45 1549.6 Q1348.45 1544.31 1346.26 1541.32 Q1344.1 1538.3 1340.3 1538.3 Q1336.49 1538.3 1334.31 1541.32 Q1332.14 1544.31 1332.14 1549.6 Q1332.14 1554.89 1334.31 1557.91 Q1336.49 1560.9 1340.3 1560.9 Q1344.1 1560.9 1346.26 1557.91 Q1348.45 1554.89 1348.45 1549.6 Z" fill="#000000" fill-rule="nonzero" fill-opacity="1" /><path clip-path="url(#clip180)" d="M1361.36 1523.64 L1366.16 1523.64 L1366.16 1564.16 L1361.36 1564.16 L1361.36 1523.64 Z" fill="#000000" fill-rule="nonzero" fill-opacity="1" /><path clip-path="url(#clip180)" d="M1401.13 1548.37 L1401.13 1550.72 L1379.1 1550.72 Q1379.41 1555.67 1382.07 1558.27 Q1384.75 1560.85 1389.51 1560.85 Q1392.27 1560.85 1394.85 1560.17 Q1397.46 1559.49 1400.01 1558.14 L1400.01 1562.67 Q1397.43 1563.77 1394.72 1564.34 Q1392.01 1564.91 1389.23 1564.91 Q1382.25 1564.91 1378.16 1560.85 Q1374.1 1556.79 1374.1 1549.86 Q1374.1 1542.7 1377.95 1538.5 Q1381.83 1534.29 1388.39 1534.29 Q1394.28 1534.29 1397.69 1538.09 Q1401.13 1541.86 1401.13 1548.37 M1396.34 1546.97 Q1396.29 1543.04 1394.12 1540.69 Q1391.99 1538.35 1388.45 1538.35 Q1384.44 1538.35 1382.01 1540.61 Q1379.62 1542.88 1379.25 1546.99 L1396.34 1546.97 Z" fill="#000000" fill-rule="nonzero" fill-opacity="1" /><path clip-path="url(#clip180)" d="M1427.59 1535.85 L1427.59 1540.38 Q1425.56 1539.34 1423.37 1538.82 Q1421.18 1538.3 1418.84 1538.3 Q1415.27 1538.3 1413.47 1539.39 Q1411.7 1540.48 1411.7 1542.67 Q1411.7 1544.34 1412.98 1545.3 Q1414.25 1546.24 1418.11 1547.1 L1419.75 1547.46 Q1424.85 1548.56 1426.99 1550.56 Q1429.15 1552.54 1429.15 1556.11 Q1429.15 1560.17 1425.92 1562.54 Q1422.72 1564.91 1417.09 1564.91 Q1414.75 1564.91 1412.2 1564.44 Q1409.67 1564 1406.86 1563.09 L1406.86 1558.14 Q1409.51 1559.52 1412.09 1560.22 Q1414.67 1560.9 1417.2 1560.9 Q1420.58 1560.9 1422.4 1559.75 Q1424.23 1558.58 1424.23 1556.47 Q1424.23 1554.52 1422.9 1553.48 Q1421.6 1552.44 1417.14 1551.47 L1415.48 1551.08 Q1411.02 1550.15 1409.05 1548.22 Q1407.07 1546.27 1407.07 1542.88 Q1407.07 1538.77 1409.98 1536.53 Q1412.9 1534.29 1418.26 1534.29 Q1420.92 1534.29 1423.26 1534.68 Q1425.61 1535.07 1427.59 1535.85 Z" fill="#000000" fill-rule="nonzero" fill-opacity="1" /><path clip-path="url(#clip180)" d="M1458.94 1573.01 L1458.94 1576.73 L1431.23 1576.73 L1431.23 1573.01 L1458.94 1573.01 Z" fill="#000000" fill-rule="nonzero" fill-opacity="1" /><path clip-path="url(#clip180)" d="M1482.04 1535.85 L1482.04 1540.38 Q1480.01 1539.34 1477.82 1538.82 Q1475.63 1538.3 1473.29 1538.3 Q1469.72 1538.3 1467.93 1539.39 Q1466.15 1540.48 1466.15 1542.67 Q1466.15 1544.34 1467.43 1545.3 Q1468.71 1546.24 1472.56 1547.1 L1474.2 1547.46 Q1479.31 1548.56 1481.44 1550.56 Q1483.6 1552.54 1483.6 1556.11 Q1483.6 1560.17 1480.37 1562.54 Q1477.17 1564.91 1471.55 1564.91 Q1469.2 1564.91 1466.65 1564.44 Q1464.12 1564 1461.31 1563.09 L1461.31 1558.14 Q1463.97 1559.52 1466.55 1560.22 Q1469.12 1560.9 1471.65 1560.9 Q1475.03 1560.9 1476.86 1559.75 Q1478.68 1558.58 1478.68 1556.47 Q1478.68 1554.52 1477.35 1553.48 Q1476.05 1552.44 1471.6 1551.47 L1469.93 1551.08 Q1465.48 1550.15 1463.5 1548.22 Q1461.52 1546.27 1461.52 1542.88 Q1461.52 1538.77 1464.44 1536.53 Q1467.35 1534.29 1472.72 1534.29 Q1475.37 1534.29 1477.72 1534.68 Q1480.06 1535.07 1482.04 1535.85 Z" fill="#000000" fill-rule="nonzero" fill-opacity="1" /><path clip-path="url(#clip180)" d="M1495.87 1559.78 L1495.87 1575.25 L1491.05 1575.25 L1491.05 1534.99 L1495.87 1534.99 L1495.87 1539.42 Q1497.38 1536.81 1499.67 1535.56 Q1501.99 1534.29 1505.19 1534.29 Q1510.5 1534.29 1513.81 1538.5 Q1517.14 1542.72 1517.14 1549.6 Q1517.14 1556.47 1513.81 1560.69 Q1510.5 1564.91 1505.19 1564.91 Q1501.99 1564.91 1499.67 1563.66 Q1497.38 1562.39 1495.87 1559.78 M1512.17 1549.6 Q1512.17 1544.31 1509.98 1541.32 Q1507.82 1538.3 1504.02 1538.3 Q1500.22 1538.3 1498.03 1541.32 Q1495.87 1544.31 1495.87 1549.6 Q1495.87 1554.89 1498.03 1557.91 Q1500.22 1560.9 1504.02 1560.9 Q1507.82 1560.9 1509.98 1557.91 Q1512.17 1554.89 1512.17 1549.6 Z" fill="#000000" fill-rule="nonzero" fill-opacity="1" /><path clip-path="url(#clip180)" d="M1525.09 1523.64 L1529.88 1523.64 L1529.88 1564.16 L1525.09 1564.16 L1525.09 1523.64 Z" fill="#000000" fill-rule="nonzero" fill-opacity="1" /><path clip-path="url(#clip180)" d="M1539.9 1534.99 L1544.7 1534.99 L1544.7 1564.16 L1539.9 1564.16 L1539.9 1534.99 M1539.9 1523.64 L1544.7 1523.64 L1544.7 1529.7 L1539.9 1529.7 L1539.9 1523.64 Z" fill="#000000" fill-rule="nonzero" fill-opacity="1" /><path clip-path="url(#clip180)" d="M1559.46 1526.71 L1559.46 1534.99 L1569.33 1534.99 L1569.33 1538.71 L1559.46 1538.71 L1559.46 1554.55 Q1559.46 1558.11 1560.42 1559.13 Q1561.41 1560.15 1564.41 1560.15 L1569.33 1560.15 L1569.33 1564.16 L1564.41 1564.16 Q1558.86 1564.16 1556.75 1562.1 Q1554.64 1560.02 1554.64 1554.55 L1554.64 1538.71 L1551.13 1538.71 L1551.13 1534.99 L1554.64 1534.99 L1554.64 1526.71 L1559.46 1526.71 Z" fill="#000000" fill-rule="nonzero" fill-opacity="1" /><polyline clip-path="url(#clip182)" style="stroke:#000000; stroke-linecap:round; stroke-linejoin:round; stroke-width:2; stroke-opacity:0.1; fill:none" points="147.472,1256.4 2352.76,1256.4 "/>
<polyline clip-path="url(#clip182)" style="stroke:#000000; stroke-linecap:round; stroke-linejoin:round; stroke-width:2; stroke-opacity:0.1; fill:none" points="147.472,1036.13 2352.76,1036.13 "/>
<polyline clip-path="url(#clip182)" style="stroke:#000000; stroke-linecap:round; stroke-linejoin:round; stroke-width:2; stroke-opacity:0.1; fill:none" points="147.472,815.869 2352.76,815.869 "/>
<polyline clip-path="url(#clip182)" style="stroke:#000000; stroke-linecap:round; stroke-linejoin:round; stroke-width:2; stroke-opacity:0.1; fill:none" points="147.472,595.605 2352.76,595.605 "/>
<polyline clip-path="url(#clip182)" style="stroke:#000000; stroke-linecap:round; stroke-linejoin:round; stroke-width:2; stroke-opacity:0.1; fill:none" points="147.472,375.341 2352.76,375.341 "/>
<polyline clip-path="url(#clip182)" style="stroke:#000000; stroke-linecap:round; stroke-linejoin:round; stroke-width:2; stroke-opacity:0.1; fill:none" points="147.472,155.077 2352.76,155.077 "/>
<polyline clip-path="url(#clip180)" style="stroke:#000000; stroke-linecap:round; stroke-linejoin:round; stroke-width:4; stroke-opacity:1; fill:none" points="147.472,1436.14 147.472,47.2441 "/>
<polyline clip-path="url(#clip180)" style="stroke:#000000; stroke-linecap:round; stroke-linejoin:round; stroke-width:4; stroke-opacity:1; fill:none" points="147.472,1256.4 166.37,1256.4 "/>
<polyline clip-path="url(#clip180)" style="stroke:#000000; stroke-linecap:round; stroke-linejoin:round; stroke-width:4; stroke-opacity:1; fill:none" points="147.472,1036.13 166.37,1036.13 "/>
<polyline clip-path="url(#clip180)" style="stroke:#000000; stroke-linecap:round; stroke-linejoin:round; stroke-width:4; stroke-opacity:1; fill:none" points="147.472,815.869 166.37,815.869 "/>
<polyline clip-path="url(#clip180)" style="stroke:#000000; stroke-linecap:round; stroke-linejoin:round; stroke-width:4; stroke-opacity:1; fill:none" points="147.472,595.605 166.37,595.605 "/>
<polyline clip-path="url(#clip180)" style="stroke:#000000; stroke-linecap:round; stroke-linejoin:round; stroke-width:4; stroke-opacity:1; fill:none" points="147.472,375.341 166.37,375.341 "/>
<polyline clip-path="url(#clip180)" style="stroke:#000000; stroke-linecap:round; stroke-linejoin:round; stroke-width:4; stroke-opacity:1; fill:none" points="147.472,155.077 166.37,155.077 "/>
<path clip-path="url(#clip180)" d="M66.1628 1255.21 Q69.0997 1255.84 70.7403 1257.82 Q72.4012 1259.81 72.4012 1262.73 Q72.4012 1267.2 69.3225 1269.65 Q66.2438 1272.1 60.5725 1272.1 Q58.6686 1272.1 56.6431 1271.72 Q54.6379 1271.35 52.491 1270.6 L52.491 1266.66 Q54.1923 1267.65 56.2178 1268.15 Q58.2432 1268.66 60.451 1268.66 Q64.2993 1268.66 66.3045 1267.14 Q68.33 1265.62 68.33 1262.73 Q68.33 1260.05 66.4463 1258.55 Q64.5829 1257.03 61.2409 1257.03 L57.7166 1257.03 L57.7166 1253.67 L61.4029 1253.67 Q64.4209 1253.67 66.021 1252.48 Q67.6211 1251.26 67.6211 1248.99 Q67.6211 1246.66 65.9602 1245.43 Q64.3196 1244.17 61.2409 1244.17 Q59.5598 1244.17 57.6356 1244.54 Q55.7114 1244.9 53.4024 1245.67 L53.4024 1242.03 Q55.7317 1241.38 57.7571 1241.05 Q59.8028 1240.73 61.6055 1240.73 Q66.264 1240.73 68.9781 1242.86 Q71.6922 1244.96 71.6922 1248.57 Q71.6922 1251.08 70.2542 1252.82 Q68.8161 1254.54 66.1628 1255.21 Z" fill="#000000" fill-rule="nonzero" fill-opacity="1" /><path clip-path="url(#clip180)" d="M80.1586 1266.37 L84.4323 1266.37 L84.4323 1271.52 L80.1586 1271.52 L80.1586 1266.37 Z" fill="#000000" fill-rule="nonzero" fill-opacity="1" /><path clip-path="url(#clip180)" d="M94.0532 1268.07 L100.737 1268.07 L100.737 1245 L93.4659 1246.46 L93.4659 1242.73 L100.697 1241.28 L104.788 1241.28 L104.788 1268.07 L111.472 1268.07 L111.472 1271.52 L94.0532 1271.52 L94.0532 1268.07 Z" fill="#000000" fill-rule="nonzero" fill-opacity="1" /><path clip-path="url(#clip180)" d="M66.4868 1034.95 Q69.4237 1035.58 71.0644 1037.56 Q72.7252 1039.55 72.7252 1042.46 Q72.7252 1046.94 69.6465 1049.39 Q66.5679 1051.84 60.8966 1051.84 Q58.9927 1051.84 56.9672 1051.45 Q54.962 1051.09 52.815 1050.34 L52.815 1046.39 Q54.5164 1047.38 56.5419 1047.89 Q58.5673 1048.4 60.7751 1048.4 Q64.6234 1048.4 66.6286 1046.88 Q68.6541 1045.36 68.6541 1042.46 Q68.6541 1039.79 66.7704 1038.29 Q64.907 1036.77 61.565 1036.77 L58.0407 1036.77 L58.0407 1033.41 L61.727 1033.41 Q64.7449 1033.41 66.3451 1032.21 Q67.9452 1031 67.9452 1028.73 Q67.9452 1026.4 66.2843 1025.16 Q64.6437 1023.91 61.565 1023.91 Q59.8839 1023.91 57.9597 1024.27 Q56.0355 1024.64 53.7265 1025.41 L53.7265 1021.76 Q56.0558 1021.11 58.0812 1020.79 Q60.1269 1020.47 61.9296 1020.47 Q66.5881 1020.47 69.3022 1022.59 Q72.0163 1024.7 72.0163 1028.3 Q72.0163 1030.82 70.5782 1032.56 Q69.1402 1034.28 66.4868 1034.95 Z" fill="#000000" fill-rule="nonzero" fill-opacity="1" /><path clip-path="url(#clip180)" d="M80.4827 1046.11 L84.7564 1046.11 L84.7564 1051.25 L80.4827 1051.25 L80.4827 1046.11 Z" fill="#000000" fill-rule="nonzero" fill-opacity="1" /><path clip-path="url(#clip180)" d="M97.1927 1047.81 L111.472 1047.81 L111.472 1051.25 L92.2708 1051.25 L92.2708 1047.81 Q94.6001 1045.4 98.6105 1041.35 Q102.641 1037.28 103.674 1036.1 Q105.639 1033.89 106.408 1032.38 Q107.198 1030.84 107.198 1029.36 Q107.198 1026.95 105.497 1025.43 Q103.816 1023.91 101.102 1023.91 Q99.1776 1023.91 97.0307 1024.58 Q94.9039 1025.25 92.4734 1026.6 L92.4734 1022.47 Q94.9444 1021.48 97.0914 1020.97 Q99.2384 1020.47 101.021 1020.47 Q105.72 1020.47 108.515 1022.82 Q111.31 1025.16 111.31 1029.09 Q111.31 1030.96 110.601 1032.64 Q109.913 1034.3 108.069 1036.57 Q107.563 1037.16 104.849 1039.97 Q102.135 1042.77 97.1927 1047.81 Z" fill="#000000" fill-rule="nonzero" fill-opacity="1" /><path clip-path="url(#clip180)" d="M65.6564 814.684 Q68.5933 815.312 70.2339 817.296 Q71.8948 819.281 71.8948 822.198 Q71.8948 826.674 68.8161 829.125 Q65.7374 831.576 60.0662 831.576 Q58.1622 831.576 56.1368 831.191 Q54.1316 830.826 51.9846 830.077 L51.9846 826.127 Q53.686 827.12 55.7114 827.626 Q57.7369 828.133 59.9446 828.133 Q63.793 828.133 65.7982 826.614 Q67.8236 825.094 67.8236 822.198 Q67.8236 819.524 65.94 818.026 Q64.0765 816.507 60.7346 816.507 L57.2103 816.507 L57.2103 813.144 L60.8966 813.144 Q63.9145 813.144 65.5146 811.949 Q67.1147 810.734 67.1147 808.465 Q67.1147 806.136 65.4539 804.901 Q63.8132 803.645 60.7346 803.645 Q59.0534 803.645 57.1292 804.009 Q55.2051 804.374 52.8961 805.144 L52.8961 801.498 Q55.2253 800.85 57.2508 800.526 Q59.2965 800.202 61.0991 800.202 Q65.7577 800.202 68.4718 802.328 Q71.1859 804.435 71.1859 808.04 Q71.1859 810.552 69.7478 812.294 Q68.3097 814.015 65.6564 814.684 Z" fill="#000000" fill-rule="nonzero" fill-opacity="1" /><path clip-path="url(#clip180)" d="M79.6523 825.844 L83.926 825.844 L83.926 830.989 L79.6523 830.989 L79.6523 825.844 Z" fill="#000000" fill-rule="nonzero" fill-opacity="1" /><path clip-path="url(#clip180)" d="M105.234 814.684 Q108.171 815.312 109.811 817.296 Q111.472 819.281 111.472 822.198 Q111.472 826.674 108.393 829.125 Q105.315 831.576 99.6435 831.576 Q97.7396 831.576 95.7141 831.191 Q93.7089 830.826 91.5619 830.077 L91.5619 826.127 Q93.2633 827.12 95.2888 827.626 Q97.3142 828.133 99.522 828.133 Q103.37 828.133 105.376 826.614 Q107.401 825.094 107.401 822.198 Q107.401 819.524 105.517 818.026 Q103.654 816.507 100.312 816.507 L96.7876 816.507 L96.7876 813.144 L100.474 813.144 Q103.492 813.144 105.092 811.949 Q106.692 810.734 106.692 808.465 Q106.692 806.136 105.031 804.901 Q103.391 803.645 100.312 803.645 Q98.6308 803.645 96.7066 804.009 Q94.7824 804.374 92.4734 805.144 L92.4734 801.498 Q94.8027 800.85 96.8281 800.526 Q98.8738 800.202 100.676 800.202 Q105.335 800.202 108.049 802.328 Q110.763 804.435 110.763 808.04 Q110.763 810.552 109.325 812.294 Q107.887 814.015 105.234 814.684 Z" fill="#000000" fill-rule="nonzero" fill-opacity="1" /><path clip-path="url(#clip180)" d="M64.6639 594.42 Q67.6008 595.048 69.2414 597.033 Q70.9023 599.017 70.9023 601.934 Q70.9023 606.41 67.8236 608.861 Q64.7449 611.312 59.0737 611.312 Q57.1698 611.312 55.1443 610.927 Q53.1391 610.563 50.9921 609.813 L50.9921 605.864 Q52.6935 606.856 54.719 607.362 Q56.7444 607.869 58.9522 607.869 Q62.8005 607.869 64.8057 606.35 Q66.8312 604.831 66.8312 601.934 Q66.8312 599.261 64.9475 597.762 Q63.0841 596.243 59.7421 596.243 L56.2178 596.243 L56.2178 592.88 L59.9041 592.88 Q62.922 592.88 64.5221 591.685 Q66.1223 590.47 66.1223 588.202 Q66.1223 585.872 64.4614 584.637 Q62.8208 583.381 59.7421 583.381 Q58.061 583.381 56.1368 583.746 Q54.2126 584.11 51.9036 584.88 L51.9036 581.234 Q54.2328 580.586 56.2583 580.262 Q58.304 579.938 60.1067 579.938 Q64.7652 579.938 67.4793 582.064 Q70.1934 584.171 70.1934 587.776 Q70.1934 590.288 68.7553 592.03 Q67.3173 593.751 64.6639 594.42 Z" fill="#000000" fill-rule="nonzero" fill-opacity="1" /><path clip-path="url(#clip180)" d="M78.6598 605.58 L82.9335 605.58 L82.9335 610.725 L78.6598 610.725 L78.6598 605.58 Z" fill="#000000" fill-rule="nonzero" fill-opacity="1" /><path clip-path="url(#clip180)" d="M103.087 584.049 L92.7569 600.192 L103.087 600.192 L103.087 584.049 M102.013 580.485 L107.158 580.485 L107.158 600.192 L111.472 600.192 L111.472 603.595 L107.158 603.595 L107.158 610.725 L103.087 610.725 L103.087 603.595 L89.4352 603.595 L89.4352 599.645 L102.013 580.485 Z" fill="#000000" fill-rule="nonzero" fill-opacity="1" /><path clip-path="url(#clip180)" d="M65.9602 374.156 Q68.8971 374.784 70.5377 376.769 Q72.1986 378.754 72.1986 381.67 Q72.1986 386.147 69.1199 388.597 Q66.0412 391.048 60.37 391.048 Q58.466 391.048 56.4406 390.663 Q54.4354 390.299 52.2884 389.549 L52.2884 385.6 Q53.9898 386.592 56.0152 387.098 Q58.0407 387.605 60.2484 387.605 Q64.0968 387.605 66.102 386.086 Q68.1275 384.567 68.1275 381.67 Q68.1275 378.997 66.2438 377.498 Q64.3804 375.979 61.0384 375.979 L57.5141 375.979 L57.5141 372.616 L61.2004 372.616 Q64.2183 372.616 65.8184 371.421 Q67.4185 370.206 67.4185 367.938 Q67.4185 365.608 65.7577 364.373 Q64.1171 363.117 61.0384 363.117 Q59.3572 363.117 57.4331 363.482 Q55.5089 363.846 53.1999 364.616 L53.1999 360.97 Q55.5291 360.322 57.5546 359.998 Q59.6003 359.674 61.4029 359.674 Q66.0615 359.674 68.7756 361.801 Q71.4897 363.907 71.4897 367.512 Q71.4897 370.024 70.0516 371.766 Q68.6136 373.487 65.9602 374.156 Z" fill="#000000" fill-rule="nonzero" fill-opacity="1" /><path clip-path="url(#clip180)" d="M79.9561 385.316 L84.2298 385.316 L84.2298 390.461 L79.9561 390.461 L79.9561 385.316 Z" fill="#000000" fill-rule="nonzero" fill-opacity="1" /><path clip-path="url(#clip180)" d="M93.1823 360.221 L109.244 360.221 L109.244 363.664 L96.9294 363.664 L96.9294 371.077 Q97.8206 370.773 98.7118 370.632 Q99.603 370.47 100.494 370.47 Q105.558 370.47 108.515 373.244 Q111.472 376.019 111.472 380.759 Q111.472 385.64 108.434 388.354 Q105.396 391.048 99.8663 391.048 Q97.9624 391.048 95.9774 390.724 Q94.0127 390.4 91.9063 389.752 L91.9063 385.64 Q93.7292 386.633 95.6736 387.119 Q97.618 387.605 99.7853 387.605 Q103.289 387.605 105.335 385.762 Q107.381 383.919 107.381 380.759 Q107.381 377.599 105.335 375.756 Q103.289 373.913 99.7853 373.913 Q98.1447 373.913 96.504 374.277 Q94.8837 374.642 93.1823 375.412 L93.1823 360.221 Z" fill="#000000" fill-rule="nonzero" fill-opacity="1" /><path clip-path="url(#clip180)" d="M64.9475 153.892 Q67.8844 154.52 69.525 156.505 Q71.1859 158.49 71.1859 161.406 Q71.1859 165.883 68.1072 168.333 Q65.0285 170.784 59.3572 170.784 Q57.4533 170.784 55.4279 170.399 Q53.4227 170.035 51.2757 169.285 L51.2757 165.336 Q52.9771 166.328 55.0025 166.835 Q57.028 167.341 59.2357 167.341 Q63.0841 167.341 65.0893 165.822 Q67.1147 164.303 67.1147 161.406 Q67.1147 158.733 65.2311 157.234 Q63.3676 155.715 60.0256 155.715 L56.5014 155.715 L56.5014 152.353 L60.1877 152.353 Q63.2056 152.353 64.8057 151.158 Q66.4058 149.942 66.4058 147.674 Q66.4058 145.345 64.7449 144.109 Q63.1043 142.853 60.0256 142.853 Q58.3445 142.853 56.4203 143.218 Q54.4962 143.582 52.1871 144.352 L52.1871 140.706 Q54.5164 140.058 56.5419 139.734 Q58.5876 139.41 60.3902 139.41 Q65.0488 139.41 67.7629 141.537 Q70.477 143.643 70.477 147.248 Q70.477 149.76 69.0389 151.502 Q67.6008 153.224 64.9475 153.892 Z" fill="#000000" fill-rule="nonzero" fill-opacity="1" /><path clip-path="url(#clip180)" d="M78.9434 165.052 L83.2171 165.052 L83.2171 170.197 L78.9434 170.197 L78.9434 165.052 Z" fill="#000000" fill-rule="nonzero" fill-opacity="1" /><path clip-path="url(#clip180)" d="M101.385 153.446 Q98.6308 153.446 97.0104 155.33 Q95.4103 157.214 95.4103 160.495 Q95.4103 163.756 97.0104 165.66 Q98.6308 167.543 101.385 167.543 Q104.14 167.543 105.74 165.66 Q107.36 163.756 107.36 160.495 Q107.36 157.214 105.74 155.33 Q104.14 153.446 101.385 153.446 M109.507 140.625 L109.507 144.352 Q107.968 143.623 106.388 143.238 Q104.829 142.853 103.289 142.853 Q99.2384 142.853 97.0914 145.588 Q94.9647 148.322 94.6609 153.851 Q95.8559 152.089 97.6585 151.158 Q99.4612 150.206 101.628 150.206 Q106.186 150.206 108.819 152.98 Q111.472 155.735 111.472 160.495 Q111.472 165.153 108.718 167.969 Q105.963 170.784 101.385 170.784 Q96.1395 170.784 93.3646 166.774 Q90.5897 162.743 90.5897 155.107 Q90.5897 147.937 93.9925 143.684 Q97.3952 139.41 103.127 139.41 Q104.667 139.41 106.226 139.714 Q107.806 140.018 109.507 140.625 Z" fill="#000000" fill-rule="nonzero" fill-opacity="1" /><polyline clip-path="url(#clip182)" style="stroke:#009af9; stroke-linecap:round; stroke-linejoin:round; stroke-width:4; stroke-opacity:1; fill:none" points="209.886,1193.72 231.115,1347.69 252.344,1370.29 273.573,1396.83 294.802,1243.12 316.032,1305.67 337.261,1270.87 358.49,1260.19 379.719,1181.35 422.177,1122.39 443.406,1262.53 485.865,1267.64 528.323,1155.74 592.01,1149.23 655.698,1155.2 719.385,1099.62 804.302,993.221 889.219,1017.67 995.364,820.358 1122.74,870.844 1250.11,674.086 1398.72,448.951 1589.78,464.87 1780.84,399.902 2014.36,224.095 2290.34,86.5525 "/>
<path clip-path="url(#clip180)" d="M220.982 184.261 L487.386 184.261 L487.386 93.5406 L220.982 93.5406  Z" fill="#ffffff" fill-rule="evenodd" fill-opacity="1"/>
<polyline clip-path="url(#clip180)" style="stroke:#000000; stroke-linecap:round; stroke-linejoin:round; stroke-width:4; stroke-opacity:1; fill:none" points="220.982,184.261 487.386,184.261 487.386,93.5406 220.982,93.5406 220.982,184.261 "/>
<polyline clip-path="url(#clip180)" style="stroke:#009af9; stroke-linecap:round; stroke-linejoin:round; stroke-width:3.5; stroke-opacity:1; fill:none" points="245.485,138.901 392.504,138.901 "/>
<path clip-path="url(#clip180)" d="M429.119 156.127 Q427.539 160.178 426.04 161.414 Q424.541 162.649 422.03 162.649 L419.053 162.649 L419.053 159.53 L421.24 159.53 Q422.779 159.53 423.63 158.801 Q424.481 158.072 425.514 155.357 L426.182 153.656 L417.007 131.336 L420.956 131.336 L428.046 149.079 L435.135 131.336 L439.084 131.336 L429.119 156.127 Z" fill="#000000" fill-rule="nonzero" fill-opacity="1" /><path clip-path="url(#clip180)" d="M445.464 150.577 L452.148 150.577 L452.148 127.507 L444.877 128.966 L444.877 125.239 L452.108 123.781 L456.199 123.781 L456.199 150.577 L462.883 150.577 L462.883 154.021 L445.464 154.021 L445.464 150.577 Z" fill="#000000" fill-rule="nonzero" fill-opacity="1" /></svg>
