<?xml version="1.0" encoding="utf-8"?>
<svg xmlns="http://www.w3.org/2000/svg" xmlns:xlink="http://www.w3.org/1999/xlink" width="600" height="400" viewBox="0 0 2400 1600">
<defs>
  <clipPath id="clip560">
    <rect x="0" y="0" width="2400" height="1600"/>
  </clipPath>
</defs>
<path clip-path="url(#clip560)" d="M0 1600 L2400 1600 L2400 8.88178e-14 L0 8.88178e-14  Z" fill="#ffffff" fill-rule="evenodd" fill-opacity="1"/>
<defs>
  <clipPath id="clip561">
    <rect x="480" y="0" width="1681" height="1600"/>
  </clipPath>
</defs>
<path clip-path="url(#clip560)" d="M156.112 1423.18 L2352.76 1423.18 L2352.76 47.2441 L156.112 47.2441  Z" fill="#ffffff" fill-rule="evenodd" fill-opacity="1"/>
<defs>
  <clipPath id="clip562">
    <rect x="156" y="47" width="2198" height="1377"/>
  </clipPath>
</defs>
<polyline clip-path="url(#clip562)" style="stroke:#000000; stroke-linecap:round; stroke-linejoin:round; stroke-width:2; stroke-opacity:0.1; fill:none" points="175.989,1423.18 175.989,47.2441 "/>
<polyline clip-path="url(#clip562)" style="stroke:#000000; stroke-linecap:round; stroke-linejoin:round; stroke-width:2; stroke-opacity:0.1; fill:none" points="704.639,1423.18 704.639,47.2441 "/>
<polyline clip-path="url(#clip562)" style="stroke:#000000; stroke-linecap:round; stroke-linejoin:round; stroke-width:2; stroke-opacity:0.1; fill:none" points="1233.29,1423.18 1233.29,47.2441 "/>
<polyline clip-path="url(#clip562)" style="stroke:#000000; stroke-linecap:round; stroke-linejoin:round; stroke-width:2; stroke-opacity:0.1; fill:none" points="1761.94,1423.18 1761.94,47.2441 "/>
<polyline clip-path="url(#clip562)" style="stroke:#000000; stroke-linecap:round; stroke-linejoin:round; stroke-width:2; stroke-opacity:0.1; fill:none" points="2290.59,1423.18 2290.59,47.2441 "/>
<polyline clip-path="url(#clip560)" style="stroke:#000000; stroke-linecap:round; stroke-linejoin:round; stroke-width:4; stroke-opacity:1; fill:none" points="156.112,1423.18 2352.76,1423.18 "/>
<polyline clip-path="url(#clip560)" style="stroke:#000000; stroke-linecap:round; stroke-linejoin:round; stroke-width:4; stroke-opacity:1; fill:none" points="175.989,1423.18 175.989,1404.28 "/>
<polyline clip-path="url(#clip560)" style="stroke:#000000; stroke-linecap:round; stroke-linejoin:round; stroke-width:4; stroke-opacity:1; fill:none" points="704.639,1423.18 704.639,1404.28 "/>
<polyline clip-path="url(#clip560)" style="stroke:#000000; stroke-linecap:round; stroke-linejoin:round; stroke-width:4; stroke-opacity:1; fill:none" points="1233.29,1423.18 1233.29,1404.28 "/>
<polyline clip-path="url(#clip560)" style="stroke:#000000; stroke-linecap:round; stroke-linejoin:round; stroke-width:4; stroke-opacity:1; fill:none" points="1761.94,1423.18 1761.94,1404.28 "/>
<polyline clip-path="url(#clip560)" style="stroke:#000000; stroke-linecap:round; stroke-linejoin:round; stroke-width:4; stroke-opacity:1; fill:none" points="2290.59,1423.18 2290.59,1404.28 "/>
<path clip-path="url(#clip560)" d="M175.989 1454.1 Q172.378 1454.1 170.55 1457.66 Q168.744 1461.2 168.744 1468.33 Q168.744 1475.44 170.55 1479.01 Q172.378 1482.55 175.989 1482.55 Q179.624 1482.55 181.429 1479.01 Q183.258 1475.44 183.258 1468.33 Q183.258 1461.2 181.429 1457.66 Q179.624 1454.1 175.989 1454.1 M175.989 1450.39 Q181.799 1450.39 184.855 1455 Q187.934 1459.58 187.934 1468.33 Q187.934 1477.06 184.855 1481.67 Q181.799 1486.25 175.989 1486.25 Q170.179 1486.25 167.101 1481.67 Q164.045 1477.06 164.045 1468.33 Q164.045 1459.58 167.101 1455 Q170.179 1450.39 175.989 1450.39 Z" fill="#000000" fill-rule="nonzero" fill-opacity="1" /><path clip-path="url(#clip560)" d="M683.91 1481.64 L700.229 1481.64 L700.229 1485.58 L678.285 1485.58 L678.285 1481.64 Q680.947 1478.89 685.53 1474.26 Q690.136 1469.61 691.317 1468.27 Q693.562 1465.74 694.442 1464.01 Q695.345 1462.25 695.345 1460.56 Q695.345 1457.8 693.4 1456.07 Q691.479 1454.33 688.377 1454.33 Q686.178 1454.33 683.724 1455.09 Q681.294 1455.86 678.516 1457.41 L678.516 1452.69 Q681.34 1451.55 683.794 1450.97 Q686.248 1450.39 688.285 1450.39 Q693.655 1450.39 696.849 1453.08 Q700.044 1455.77 700.044 1460.26 Q700.044 1462.39 699.234 1464.31 Q698.447 1466.2 696.34 1468.8 Q695.761 1469.47 692.66 1472.69 Q689.558 1475.88 683.91 1481.64 Z" fill="#000000" fill-rule="nonzero" fill-opacity="1" /><path clip-path="url(#clip560)" d="M710.09 1451.02 L728.446 1451.02 L728.446 1454.96 L714.372 1454.96 L714.372 1463.43 Q715.391 1463.08 716.409 1462.92 Q717.428 1462.73 718.446 1462.73 Q724.233 1462.73 727.613 1465.9 Q730.993 1469.08 730.993 1474.49 Q730.993 1480.07 727.521 1483.17 Q724.048 1486.25 717.729 1486.25 Q715.553 1486.25 713.284 1485.88 Q711.039 1485.51 708.632 1484.77 L708.632 1480.07 Q710.715 1481.2 712.937 1481.76 Q715.159 1482.32 717.636 1482.32 Q721.641 1482.32 723.979 1480.21 Q726.317 1478.1 726.317 1474.49 Q726.317 1470.88 723.979 1468.77 Q721.641 1466.67 717.636 1466.67 Q715.761 1466.67 713.886 1467.08 Q712.034 1467.5 710.09 1468.38 L710.09 1451.02 Z" fill="#000000" fill-rule="nonzero" fill-opacity="1" /><path clip-path="url(#clip560)" d="M1207.99 1451.02 L1226.34 1451.02 L1226.34 1454.96 L1212.27 1454.96 L1212.27 1463.43 Q1213.29 1463.08 1214.31 1462.92 Q1215.33 1462.73 1216.34 1462.73 Q1222.13 1462.73 1225.51 1465.9 Q1228.89 1469.08 1228.89 1474.49 Q1228.89 1480.07 1225.42 1483.17 Q1221.95 1486.25 1215.63 1486.25 Q1213.45 1486.25 1211.18 1485.88 Q1208.94 1485.51 1206.53 1484.77 L1206.53 1480.07 Q1208.61 1481.2 1210.83 1481.76 Q1213.06 1482.32 1215.53 1482.32 Q1219.54 1482.32 1221.88 1480.21 Q1224.21 1478.1 1224.21 1474.49 Q1224.21 1470.88 1221.88 1468.77 Q1219.54 1466.67 1215.53 1466.67 Q1213.66 1466.67 1211.78 1467.08 Q1209.93 1467.5 1207.99 1468.38 L1207.99 1451.02 Z" fill="#000000" fill-rule="nonzero" fill-opacity="1" /><path clip-path="url(#clip560)" d="M1248.1 1454.1 Q1244.49 1454.1 1242.66 1457.66 Q1240.86 1461.2 1240.86 1468.33 Q1240.86 1475.44 1242.66 1479.01 Q1244.49 1482.55 1248.1 1482.55 Q1251.74 1482.55 1253.54 1479.01 Q1255.37 1475.44 1255.37 1468.33 Q1255.37 1461.2 1253.54 1457.66 Q1251.74 1454.1 1248.1 1454.1 M1248.1 1450.39 Q1253.91 1450.39 1256.97 1455 Q1260.05 1459.58 1260.05 1468.33 Q1260.05 1477.06 1256.97 1481.67 Q1253.91 1486.25 1248.1 1486.25 Q1242.29 1486.25 1239.21 1481.67 Q1236.16 1477.06 1236.16 1468.33 Q1236.16 1459.58 1239.21 1455 Q1242.29 1450.39 1248.1 1450.39 Z" fill="#000000" fill-rule="nonzero" fill-opacity="1" /><path clip-path="url(#clip560)" d="M1735.79 1451.02 L1758.01 1451.02 L1758.01 1453.01 L1745.47 1485.58 L1740.58 1485.58 L1752.39 1454.96 L1735.79 1454.96 L1735.79 1451.02 Z" fill="#000000" fill-rule="nonzero" fill-opacity="1" /><path clip-path="url(#clip560)" d="M1767.18 1451.02 L1785.54 1451.02 L1785.54 1454.96 L1771.46 1454.96 L1771.46 1463.43 Q1772.48 1463.08 1773.5 1462.92 Q1774.52 1462.73 1775.54 1462.73 Q1781.32 1462.73 1784.7 1465.9 Q1788.08 1469.08 1788.08 1474.49 Q1788.08 1480.07 1784.61 1483.17 Q1781.14 1486.25 1774.82 1486.25 Q1772.64 1486.25 1770.37 1485.88 Q1768.13 1485.51 1765.72 1484.77 L1765.72 1480.07 Q1767.81 1481.2 1770.03 1481.76 Q1772.25 1482.32 1774.73 1482.32 Q1778.73 1482.32 1781.07 1480.21 Q1783.41 1478.1 1783.41 1474.49 Q1783.41 1470.88 1781.07 1468.77 Q1778.73 1466.67 1774.73 1466.67 Q1772.85 1466.67 1770.98 1467.08 Q1769.12 1467.5 1767.18 1468.38 L1767.18 1451.02 Z" fill="#000000" fill-rule="nonzero" fill-opacity="1" /><path clip-path="url(#clip560)" d="M2250.19 1481.64 L2257.83 1481.64 L2257.83 1455.28 L2249.52 1456.95 L2249.52 1452.69 L2257.79 1451.02 L2262.46 1451.02 L2262.46 1481.64 L2270.1 1481.64 L2270.1 1485.58 L2250.19 1485.58 L2250.19 1481.64 Z" fill="#000000" fill-rule="nonzero" fill-opacity="1" /><path clip-path="url(#clip560)" d="M2289.55 1454.1 Q2285.93 1454.1 2284.11 1457.66 Q2282.3 1461.2 2282.3 1468.33 Q2282.3 1475.44 2284.11 1479.01 Q2285.93 1482.55 2289.55 1482.55 Q2293.18 1482.55 2294.98 1479.01 Q2296.81 1475.44 2296.81 1468.33 Q2296.81 1461.2 2294.98 1457.66 Q2293.18 1454.1 2289.55 1454.1 M2289.55 1450.39 Q2295.36 1450.39 2298.41 1455 Q2301.49 1459.58 2301.49 1468.33 Q2301.49 1477.06 2298.41 1481.67 Q2295.36 1486.25 2289.55 1486.25 Q2283.73 1486.25 2280.66 1481.67 Q2277.6 1477.06 2277.6 1468.33 Q2277.6 1459.58 2280.66 1455 Q2283.73 1450.39 2289.55 1450.39 Z" fill="#000000" fill-rule="nonzero" fill-opacity="1" /><path clip-path="url(#clip560)" d="M2319.71 1454.1 Q2316.1 1454.1 2314.27 1457.66 Q2312.46 1461.2 2312.46 1468.33 Q2312.46 1475.44 2314.27 1479.01 Q2316.1 1482.55 2319.71 1482.55 Q2323.34 1482.55 2325.15 1479.01 Q2326.98 1475.44 2326.98 1468.33 Q2326.98 1461.2 2325.15 1457.66 Q2323.34 1454.1 2319.71 1454.1 M2319.71 1450.39 Q2325.52 1450.39 2328.57 1455 Q2331.65 1459.58 2331.65 1468.33 Q2331.65 1477.06 2328.57 1481.67 Q2325.52 1486.25 2319.71 1486.25 Q2313.9 1486.25 2310.82 1481.67 Q2307.76 1477.06 2307.76 1468.33 Q2307.76 1459.58 2310.82 1455 Q2313.9 1450.39 2319.71 1450.39 Z" fill="#000000" fill-rule="nonzero" fill-opacity="1" /><path clip-path="url(#clip560)" d="M882.709 1550.12 Q875.611 1550.12 872.874 1551.75 Q870.136 1553.37 870.136 1557.29 Q870.136 1560.4 872.173 1562.25 Q874.242 1564.07 877.775 1564.07 Q882.645 1564.07 885.573 1560.63 Q888.533 1557.16 888.533 1551.43 L888.533 1550.12 L882.709 1550.12 M894.39 1547.71 L894.39 1568.04 L888.533 1568.04 L888.533 1562.63 Q886.528 1565.88 883.536 1567.44 Q880.544 1568.97 876.216 1568.97 Q870.741 1568.97 867.495 1565.91 Q864.28 1562.82 864.28 1557.67 Q864.28 1551.65 868.29 1548.6 Q872.332 1545.54 880.321 1545.54 L888.533 1545.54 L888.533 1544.97 Q888.533 1540.93 885.86 1538.73 Q883.218 1536.5 878.412 1536.5 Q875.356 1536.5 872.46 1537.23 Q869.563 1537.97 866.89 1539.43 L866.89 1534.02 Q870.104 1532.78 873.128 1532.17 Q876.152 1531.54 879.016 1531.54 Q886.751 1531.54 890.57 1535.55 Q894.39 1539.56 894.39 1547.71 Z" fill="#000000" fill-rule="nonzero" fill-opacity="1" /><path clip-path="url(#clip560)" d="M912.245 1522.27 L912.245 1532.4 L924.308 1532.4 L924.308 1536.95 L912.245 1536.95 L912.245 1556.3 Q912.245 1560.66 913.423 1561.9 Q914.633 1563.14 918.293 1563.14 L924.308 1563.14 L924.308 1568.04 L918.293 1568.04 Q911.513 1568.04 908.935 1565.53 Q906.357 1562.98 906.357 1556.3 L906.357 1536.95 L902.06 1536.95 L902.06 1532.4 L906.357 1532.4 L906.357 1522.27 L912.245 1522.27 Z" fill="#000000" fill-rule="nonzero" fill-opacity="1" /><path clip-path="url(#clip560)" d="M945.825 1536.5 Q941.114 1536.5 938.377 1540.19 Q935.639 1543.85 935.639 1550.25 Q935.639 1556.65 938.345 1560.34 Q941.082 1564 945.825 1564 Q950.503 1564 953.241 1560.31 Q955.978 1556.62 955.978 1550.25 Q955.978 1543.92 953.241 1540.23 Q950.503 1536.5 945.825 1536.5 M945.825 1531.54 Q953.463 1531.54 957.824 1536.5 Q962.184 1541.47 962.184 1550.25 Q962.184 1559 957.824 1564 Q953.463 1568.97 945.825 1568.97 Q938.154 1568.97 933.793 1564 Q929.465 1559 929.465 1550.25 Q929.465 1541.47 933.793 1536.5 Q938.154 1531.54 945.825 1531.54 Z" fill="#000000" fill-rule="nonzero" fill-opacity="1" /><path clip-path="url(#clip560)" d="M999.647 1539.24 Q1001.84 1535.29 1004.9 1533.41 Q1007.95 1531.54 1012.09 1531.54 Q1017.66 1531.54 1020.69 1535.45 Q1023.71 1539.33 1023.71 1546.53 L1023.71 1568.04 L1017.82 1568.04 L1017.82 1546.72 Q1017.82 1541.59 1016.01 1539.11 Q1014.19 1536.63 1010.47 1536.63 Q1005.92 1536.63 1003.28 1539.65 Q1000.63 1542.68 1000.63 1547.9 L1000.63 1568.04 L994.745 1568.04 L994.745 1546.72 Q994.745 1541.56 992.931 1539.11 Q991.117 1536.63 987.329 1536.63 Q982.841 1536.63 980.199 1539.68 Q977.558 1542.71 977.558 1547.9 L977.558 1568.04 L971.669 1568.04 L971.669 1532.4 L977.558 1532.4 L977.558 1537.93 Q979.563 1534.66 982.364 1533.1 Q985.165 1531.54 989.016 1531.54 Q992.899 1531.54 995.604 1533.51 Q998.342 1535.48 999.647 1539.24 Z" fill="#000000" fill-rule="nonzero" fill-opacity="1" /><path clip-path="url(#clip560)" d="M1036.22 1559.96 L1042.93 1559.96 L1042.93 1568.04 L1036.22 1568.04 L1036.22 1559.96 Z" fill="#000000" fill-rule="nonzero" fill-opacity="1" /><path clip-path="url(#clip560)" d="M1083.86 1539.24 Q1086.06 1535.29 1089.12 1533.41 Q1092.17 1531.54 1096.31 1531.54 Q1101.88 1531.54 1104.9 1535.45 Q1107.93 1539.33 1107.93 1546.53 L1107.93 1568.04 L1102.04 1568.04 L1102.04 1546.72 Q1102.04 1541.59 1100.22 1539.11 Q1098.41 1536.63 1094.69 1536.63 Q1090.14 1536.63 1087.49 1539.65 Q1084.85 1542.68 1084.85 1547.9 L1084.85 1568.04 L1078.96 1568.04 L1078.96 1546.72 Q1078.96 1541.56 1077.15 1539.11 Q1075.33 1536.63 1071.55 1536.63 Q1067.06 1536.63 1064.42 1539.68 Q1061.78 1542.71 1061.78 1547.9 L1061.78 1568.04 L1055.89 1568.04 L1055.89 1532.4 L1061.78 1532.4 L1061.78 1537.93 Q1063.78 1534.66 1066.58 1533.1 Q1069.38 1531.54 1073.23 1531.54 Q1077.12 1531.54 1079.82 1533.51 Q1082.56 1535.48 1083.86 1539.24 Z" fill="#000000" fill-rule="nonzero" fill-opacity="1" /><path clip-path="url(#clip560)" d="M1119.61 1532.4 L1125.46 1532.4 L1125.46 1568.04 L1119.61 1568.04 L1119.61 1532.4 M1119.61 1518.52 L1125.46 1518.52 L1125.46 1525.93 L1119.61 1525.93 L1119.61 1518.52 Z" fill="#000000" fill-rule="nonzero" fill-opacity="1" /><path clip-path="url(#clip560)" d="M1167.35 1546.53 L1167.35 1568.04 L1161.49 1568.04 L1161.49 1546.72 Q1161.49 1541.66 1159.52 1539.14 Q1157.55 1536.63 1153.6 1536.63 Q1148.86 1536.63 1146.12 1539.65 Q1143.38 1542.68 1143.38 1547.9 L1143.38 1568.04 L1137.5 1568.04 L1137.5 1532.4 L1143.38 1532.4 L1143.38 1537.93 Q1145.48 1534.72 1148.32 1533.13 Q1151.18 1531.54 1154.91 1531.54 Q1161.05 1531.54 1164.2 1535.36 Q1167.35 1539.14 1167.35 1546.53 Z" fill="#000000" fill-rule="nonzero" fill-opacity="1" /><path clip-path="url(#clip560)" d="M1206.12 1578.87 L1206.12 1583.42 L1172.25 1583.42 L1172.25 1578.87 L1206.12 1578.87 Z" fill="#000000" fill-rule="nonzero" fill-opacity="1" /><path clip-path="url(#clip560)" d="M1234.35 1533.45 L1234.35 1538.98 Q1231.87 1537.71 1229.19 1537.07 Q1226.52 1536.44 1223.66 1536.44 Q1219.3 1536.44 1217.1 1537.77 Q1214.93 1539.11 1214.93 1541.79 Q1214.93 1543.82 1216.49 1545 Q1218.05 1546.15 1222.76 1547.2 L1224.77 1547.64 Q1231.01 1548.98 1233.62 1551.43 Q1236.26 1553.85 1236.26 1558.21 Q1236.26 1563.17 1232.31 1566.07 Q1228.4 1568.97 1221.52 1568.97 Q1218.66 1568.97 1215.54 1568.39 Q1212.45 1567.85 1209.01 1566.74 L1209.01 1560.69 Q1212.26 1562.38 1215.41 1563.24 Q1218.56 1564.07 1221.65 1564.07 Q1225.79 1564.07 1228.02 1562.66 Q1230.24 1561.23 1230.24 1558.65 Q1230.24 1556.27 1228.62 1554.99 Q1227.03 1553.72 1221.59 1552.54 L1219.55 1552.07 Q1214.11 1550.92 1211.69 1548.56 Q1209.27 1546.18 1209.27 1542.04 Q1209.27 1537.01 1212.83 1534.27 Q1216.4 1531.54 1222.96 1531.54 Q1226.2 1531.54 1229.07 1532.01 Q1231.93 1532.49 1234.35 1533.45 Z" fill="#000000" fill-rule="nonzero" fill-opacity="1" /><path clip-path="url(#clip560)" d="M1261.79 1550.12 Q1254.69 1550.12 1251.95 1551.75 Q1249.21 1553.37 1249.21 1557.29 Q1249.21 1560.4 1251.25 1562.25 Q1253.32 1564.07 1256.85 1564.07 Q1261.72 1564.07 1264.65 1560.63 Q1267.61 1557.16 1267.61 1551.43 L1267.61 1550.12 L1261.79 1550.12 M1273.47 1547.71 L1273.47 1568.04 L1267.61 1568.04 L1267.61 1562.63 Q1265.61 1565.88 1262.61 1567.44 Q1259.62 1568.97 1255.29 1568.97 Q1249.82 1568.97 1246.57 1565.91 Q1243.36 1562.82 1243.36 1557.67 Q1243.36 1551.65 1247.37 1548.6 Q1251.41 1545.54 1259.4 1545.54 L1267.61 1545.54 L1267.61 1544.97 Q1267.61 1540.93 1264.94 1538.73 Q1262.3 1536.5 1257.49 1536.5 Q1254.43 1536.5 1251.54 1537.23 Q1248.64 1537.97 1245.97 1539.43 L1245.97 1534.02 Q1249.18 1532.78 1252.21 1532.17 Q1255.23 1531.54 1258.09 1531.54 Q1265.83 1531.54 1269.65 1535.55 Q1273.47 1539.56 1273.47 1547.71 Z" fill="#000000" fill-rule="nonzero" fill-opacity="1" /><path clip-path="url(#clip560)" d="M1313.28 1539.24 Q1315.48 1535.29 1318.54 1533.41 Q1321.59 1531.54 1325.73 1531.54 Q1331.3 1531.54 1334.32 1535.45 Q1337.35 1539.33 1337.35 1546.53 L1337.35 1568.04 L1331.46 1568.04 L1331.46 1546.72 Q1331.46 1541.59 1329.64 1539.11 Q1327.83 1536.63 1324.11 1536.63 Q1319.56 1536.63 1316.91 1539.65 Q1314.27 1542.68 1314.27 1547.9 L1314.27 1568.04 L1308.38 1568.04 L1308.38 1546.72 Q1308.38 1541.56 1306.57 1539.11 Q1304.75 1536.63 1300.97 1536.63 Q1296.48 1536.63 1293.84 1539.68 Q1291.2 1542.71 1291.2 1547.9 L1291.2 1568.04 L1285.31 1568.04 L1285.31 1532.4 L1291.2 1532.4 L1291.2 1537.93 Q1293.2 1534.66 1296 1533.1 Q1298.8 1531.54 1302.65 1531.54 Q1306.54 1531.54 1309.24 1533.51 Q1311.98 1535.48 1313.28 1539.24 Z" fill="#000000" fill-rule="nonzero" fill-opacity="1" /><path clip-path="url(#clip560)" d="M1354.69 1562.7 L1354.69 1581.6 L1348.81 1581.6 L1348.81 1532.4 L1354.69 1532.4 L1354.69 1537.81 Q1356.54 1534.62 1359.34 1533.1 Q1362.17 1531.54 1366.09 1531.54 Q1372.58 1531.54 1376.62 1536.69 Q1380.7 1541.85 1380.7 1550.25 Q1380.7 1558.65 1376.62 1563.81 Q1372.58 1568.97 1366.09 1568.97 Q1362.17 1568.97 1359.34 1567.44 Q1356.54 1565.88 1354.69 1562.7 M1374.62 1550.25 Q1374.62 1543.79 1371.94 1540.13 Q1369.3 1536.44 1364.66 1536.44 Q1360.01 1536.44 1357.34 1540.13 Q1354.69 1543.79 1354.69 1550.25 Q1354.69 1556.71 1357.34 1560.4 Q1360.01 1564.07 1364.66 1564.07 Q1369.3 1564.07 1371.94 1560.4 Q1374.62 1556.71 1374.62 1550.25 Z" fill="#000000" fill-rule="nonzero" fill-opacity="1" /><path clip-path="url(#clip560)" d="M1390.41 1518.52 L1396.26 1518.52 L1396.26 1568.04 L1390.41 1568.04 L1390.41 1518.52 Z" fill="#000000" fill-rule="nonzero" fill-opacity="1" /><path clip-path="url(#clip560)" d="M1439.01 1548.76 L1439.01 1551.62 L1412.08 1551.62 Q1412.46 1557.67 1415.71 1560.85 Q1418.99 1564 1424.81 1564 Q1428.19 1564 1431.34 1563.17 Q1434.52 1562.35 1437.64 1560.69 L1437.64 1566.23 Q1434.49 1567.57 1431.18 1568.27 Q1427.87 1568.97 1424.46 1568.97 Q1415.93 1568.97 1410.93 1564 Q1405.97 1559.04 1405.97 1550.57 Q1405.97 1541.82 1410.68 1536.69 Q1415.42 1531.54 1423.44 1531.54 Q1430.64 1531.54 1434.81 1536.18 Q1439.01 1540.8 1439.01 1548.76 M1433.15 1547.04 Q1433.09 1542.23 1430.45 1539.37 Q1427.84 1536.5 1423.51 1536.5 Q1418.61 1536.5 1415.65 1539.27 Q1412.72 1542.04 1412.27 1547.07 L1433.15 1547.04 Z" fill="#000000" fill-rule="nonzero" fill-opacity="1" /><path clip-path="url(#clip560)" d="M1471.35 1533.45 L1471.35 1538.98 Q1468.86 1537.71 1466.19 1537.07 Q1463.52 1536.44 1460.65 1536.44 Q1456.29 1536.44 1454.09 1537.77 Q1451.93 1539.11 1451.93 1541.79 Q1451.93 1543.82 1453.49 1545 Q1455.05 1546.15 1459.76 1547.2 L1461.77 1547.64 Q1468 1548.98 1470.61 1551.43 Q1473.26 1553.85 1473.26 1558.21 Q1473.26 1563.17 1469.31 1566.07 Q1465.39 1568.97 1458.52 1568.97 Q1455.65 1568.97 1452.53 1568.39 Q1449.45 1567.85 1446.01 1566.74 L1446.01 1560.69 Q1449.26 1562.38 1452.41 1563.24 Q1455.56 1564.07 1458.65 1564.07 Q1462.78 1564.07 1465.01 1562.66 Q1467.24 1561.23 1467.24 1558.65 Q1467.24 1556.27 1465.62 1554.99 Q1464.02 1553.72 1458.58 1552.54 L1456.55 1552.07 Q1451.1 1550.92 1448.68 1548.56 Q1446.26 1546.18 1446.26 1542.04 Q1446.26 1537.01 1449.83 1534.27 Q1453.39 1531.54 1459.95 1531.54 Q1463.2 1531.54 1466.06 1532.01 Q1468.93 1532.49 1471.35 1533.45 Z" fill="#000000" fill-rule="nonzero" fill-opacity="1" /><path clip-path="url(#clip560)" d="M1509.67 1578.87 L1509.67 1583.42 L1475.8 1583.42 L1475.8 1578.87 L1509.67 1578.87 Z" fill="#000000" fill-rule="nonzero" fill-opacity="1" /><path clip-path="url(#clip560)" d="M1537.9 1533.45 L1537.9 1538.98 Q1535.42 1537.71 1532.74 1537.07 Q1530.07 1536.44 1527.2 1536.44 Q1522.84 1536.44 1520.65 1537.77 Q1518.48 1539.11 1518.48 1541.79 Q1518.48 1543.82 1520.04 1545 Q1521.6 1546.15 1526.31 1547.2 L1528.32 1547.64 Q1534.56 1548.98 1537.17 1551.43 Q1539.81 1553.85 1539.81 1558.21 Q1539.81 1563.17 1535.86 1566.07 Q1531.95 1568.97 1525.07 1568.97 Q1522.21 1568.97 1519.09 1568.39 Q1516 1567.85 1512.56 1566.74 L1512.56 1560.69 Q1515.81 1562.38 1518.96 1563.24 Q1522.11 1564.07 1525.2 1564.07 Q1529.34 1564.07 1531.57 1562.66 Q1533.79 1561.23 1533.79 1558.65 Q1533.79 1556.27 1532.17 1554.99 Q1530.58 1553.72 1525.14 1552.54 L1523.1 1552.07 Q1517.66 1550.92 1515.24 1548.56 Q1512.82 1546.18 1512.82 1542.04 Q1512.82 1537.01 1516.38 1534.27 Q1519.95 1531.54 1526.5 1531.54 Q1529.75 1531.54 1532.62 1532.01 Q1535.48 1532.49 1537.9 1533.45 Z" fill="#000000" fill-rule="nonzero" fill-opacity="1" /><path clip-path="url(#clip560)" d="M1554.8 1562.7 L1554.8 1581.6 L1548.91 1581.6 L1548.91 1532.4 L1554.8 1532.4 L1554.8 1537.81 Q1556.65 1534.62 1559.45 1533.1 Q1562.28 1531.54 1566.19 1531.54 Q1572.69 1531.54 1576.73 1536.69 Q1580.8 1541.85 1580.8 1550.25 Q1580.8 1558.65 1576.73 1563.81 Q1572.69 1568.97 1566.19 1568.97 Q1562.28 1568.97 1559.45 1567.44 Q1556.65 1565.88 1554.8 1562.7 M1574.72 1550.25 Q1574.72 1543.79 1572.05 1540.13 Q1569.41 1536.44 1564.76 1536.44 Q1560.12 1536.44 1557.44 1540.13 Q1554.8 1543.79 1554.8 1550.25 Q1554.8 1556.71 1557.44 1560.4 Q1560.12 1564.07 1564.76 1564.07 Q1569.41 1564.07 1572.05 1560.4 Q1574.72 1556.71 1574.72 1550.25 Z" fill="#000000" fill-rule="nonzero" fill-opacity="1" /><path clip-path="url(#clip560)" d="M1590.51 1518.52 L1596.37 1518.52 L1596.37 1568.04 L1590.51 1568.04 L1590.51 1518.52 Z" fill="#000000" fill-rule="nonzero" fill-opacity="1" /><path clip-path="url(#clip560)" d="M1608.62 1532.4 L1614.48 1532.4 L1614.48 1568.04 L1608.62 1568.04 L1608.62 1532.4 M1608.62 1518.52 L1614.48 1518.52 L1614.48 1525.93 L1608.62 1525.93 L1608.62 1518.52 Z" fill="#000000" fill-rule="nonzero" fill-opacity="1" /><path clip-path="url(#clip560)" d="M1632.53 1522.27 L1632.53 1532.4 L1644.59 1532.4 L1644.59 1536.95 L1632.53 1536.95 L1632.53 1556.3 Q1632.53 1560.66 1633.7 1561.9 Q1634.91 1563.14 1638.57 1563.14 L1644.59 1563.14 L1644.59 1568.04 L1638.57 1568.04 Q1631.79 1568.04 1629.21 1565.53 Q1626.64 1562.98 1626.64 1556.3 L1626.64 1536.95 L1622.34 1536.95 L1622.34 1532.4 L1626.64 1532.4 L1626.64 1522.27 L1632.53 1522.27 Z" fill="#000000" fill-rule="nonzero" fill-opacity="1" /><polyline clip-path="url(#clip562)" style="stroke:#000000; stroke-linecap:round; stroke-linejoin:round; stroke-width:2; stroke-opacity:0.1; fill:none" points="156.112,1272.54 2352.76,1272.54 "/>
<polyline clip-path="url(#clip562)" style="stroke:#000000; stroke-linecap:round; stroke-linejoin:round; stroke-width:2; stroke-opacity:0.1; fill:none" points="156.112,1043.51 2352.76,1043.51 "/>
<polyline clip-path="url(#clip562)" style="stroke:#000000; stroke-linecap:round; stroke-linejoin:round; stroke-width:2; stroke-opacity:0.1; fill:none" points="156.112,814.477 2352.76,814.477 "/>
<polyline clip-path="url(#clip562)" style="stroke:#000000; stroke-linecap:round; stroke-linejoin:round; stroke-width:2; stroke-opacity:0.1; fill:none" points="156.112,585.445 2352.76,585.445 "/>
<polyline clip-path="url(#clip562)" style="stroke:#000000; stroke-linecap:round; stroke-linejoin:round; stroke-width:2; stroke-opacity:0.1; fill:none" points="156.112,356.414 2352.76,356.414 "/>
<polyline clip-path="url(#clip562)" style="stroke:#000000; stroke-linecap:round; stroke-linejoin:round; stroke-width:2; stroke-opacity:0.1; fill:none" points="156.112,127.382 2352.76,127.382 "/>
<polyline clip-path="url(#clip560)" style="stroke:#000000; stroke-linecap:round; stroke-linejoin:round; stroke-width:4; stroke-opacity:1; fill:none" points="156.112,1423.18 156.112,47.2441 "/>
<polyline clip-path="url(#clip560)" style="stroke:#000000; stroke-linecap:round; stroke-linejoin:round; stroke-width:4; stroke-opacity:1; fill:none" points="156.112,1272.54 175.01,1272.54 "/>
<polyline clip-path="url(#clip560)" style="stroke:#000000; stroke-linecap:round; stroke-linejoin:round; stroke-width:4; stroke-opacity:1; fill:none" points="156.112,1043.51 175.01,1043.51 "/>
<polyline clip-path="url(#clip560)" style="stroke:#000000; stroke-linecap:round; stroke-linejoin:round; stroke-width:4; stroke-opacity:1; fill:none" points="156.112,814.477 175.01,814.477 "/>
<polyline clip-path="url(#clip560)" style="stroke:#000000; stroke-linecap:round; stroke-linejoin:round; stroke-width:4; stroke-opacity:1; fill:none" points="156.112,585.445 175.01,585.445 "/>
<polyline clip-path="url(#clip560)" style="stroke:#000000; stroke-linecap:round; stroke-linejoin:round; stroke-width:4; stroke-opacity:1; fill:none" points="156.112,356.414 175.01,356.414 "/>
<polyline clip-path="url(#clip560)" style="stroke:#000000; stroke-linecap:round; stroke-linejoin:round; stroke-width:4; stroke-opacity:1; fill:none" points="156.112,127.382 175.01,127.382 "/>
<path clip-path="url(#clip560)" d="M68.33 1271.19 Q71.6865 1271.9 73.5614 1274.17 Q75.4596 1276.44 75.4596 1279.77 Q75.4596 1284.89 71.9411 1287.69 Q68.4226 1290.49 61.9411 1290.49 Q59.7652 1290.49 57.4504 1290.05 Q55.1588 1289.64 52.7051 1288.78 L52.7051 1284.26 Q54.6495 1285.4 56.9643 1285.98 Q59.2791 1286.56 61.8023 1286.56 Q66.2004 1286.56 68.492 1284.82 Q70.8068 1283.08 70.8068 1279.77 Q70.8068 1276.72 68.6541 1275.01 Q66.5245 1273.27 62.705 1273.27 L58.6773 1273.27 L58.6773 1269.43 L62.8902 1269.43 Q66.3393 1269.43 68.168 1268.06 Q69.9967 1266.67 69.9967 1264.08 Q69.9967 1261.42 68.0985 1260.01 Q66.2235 1258.57 62.705 1258.57 Q60.7837 1258.57 58.5847 1258.99 Q56.3856 1259.4 53.7467 1260.28 L53.7467 1256.12 Q56.4088 1255.38 58.7236 1255.01 Q61.0615 1254.64 63.1217 1254.64 Q68.4457 1254.64 71.5476 1257.07 Q74.6494 1259.47 74.6494 1263.59 Q74.6494 1266.46 73.0059 1268.45 Q71.3624 1270.42 68.33 1271.19 Z" fill="#000000" fill-rule="nonzero" fill-opacity="1" /><path clip-path="url(#clip560)" d="M84.3253 1283.94 L89.2095 1283.94 L89.2095 1289.82 L84.3253 1289.82 L84.3253 1283.94 Z" fill="#000000" fill-rule="nonzero" fill-opacity="1" /><path clip-path="url(#clip560)" d="M100.205 1285.89 L107.844 1285.89 L107.844 1259.52 L99.5335 1261.19 L99.5335 1256.93 L107.797 1255.26 L112.473 1255.26 L112.473 1285.89 L120.112 1285.89 L120.112 1289.82 L100.205 1289.82 L100.205 1285.89 Z" fill="#000000" fill-rule="nonzero" fill-opacity="1" /><path clip-path="url(#clip560)" d="M68.7004 1042.15 Q72.0568 1042.87 73.9318 1045.14 Q75.83 1047.41 75.83 1050.74 Q75.83 1055.86 72.3115 1058.66 Q68.793 1061.46 62.3115 1061.46 Q60.1356 1061.46 57.8208 1061.02 Q55.5291 1060.6 53.0754 1059.75 L53.0754 1055.23 Q55.0199 1056.37 57.3347 1056.95 Q59.6495 1057.52 62.1726 1057.52 Q66.5707 1057.52 68.8624 1055.79 Q71.1772 1054.05 71.1772 1050.74 Q71.1772 1047.69 69.0244 1045.97 Q66.8948 1044.24 63.0754 1044.24 L59.0476 1044.24 L59.0476 1040.4 L63.2606 1040.4 Q66.7096 1040.4 68.5383 1039.03 Q70.367 1037.64 70.367 1035.05 Q70.367 1032.39 68.4689 1030.97 Q66.5939 1029.54 63.0754 1029.54 Q61.1541 1029.54 58.955 1029.96 Q56.756 1030.37 54.1171 1031.25 L54.1171 1027.09 Q56.7791 1026.34 59.0939 1025.97 Q61.4319 1025.6 63.4921 1025.6 Q68.8161 1025.6 71.9179 1028.03 Q75.0198 1030.44 75.0198 1034.56 Q75.0198 1037.43 73.3763 1039.42 Q71.7328 1041.39 68.7004 1042.15 Z" fill="#000000" fill-rule="nonzero" fill-opacity="1" /><path clip-path="url(#clip560)" d="M84.6956 1054.91 L89.5799 1054.91 L89.5799 1060.79 L84.6956 1060.79 L84.6956 1054.91 Z" fill="#000000" fill-rule="nonzero" fill-opacity="1" /><path clip-path="url(#clip560)" d="M103.793 1056.85 L120.112 1056.85 L120.112 1060.79 L98.1678 1060.79 L98.1678 1056.85 Q100.83 1054.1 105.413 1049.47 Q110.02 1044.82 111.2 1043.47 Q113.445 1040.95 114.325 1039.21 Q115.228 1037.46 115.228 1035.77 Q115.228 1033.01 113.283 1031.27 Q111.362 1029.54 108.26 1029.54 Q106.061 1029.54 103.608 1030.3 Q101.177 1031.07 98.3993 1032.62 L98.3993 1027.9 Q101.223 1026.76 103.677 1026.18 Q106.131 1025.6 108.168 1025.6 Q113.538 1025.6 116.733 1028.29 Q119.927 1030.97 119.927 1035.46 Q119.927 1037.59 119.117 1039.52 Q118.33 1041.41 116.223 1044.01 Q115.645 1044.68 112.543 1047.9 Q109.441 1051.09 103.793 1056.85 Z" fill="#000000" fill-rule="nonzero" fill-opacity="1" /><path clip-path="url(#clip560)" d="M67.7513 813.123 Q71.1078 813.84 72.9827 816.109 Q74.8809 818.377 74.8809 821.711 Q74.8809 826.826 71.3624 829.627 Q67.8439 832.428 61.3624 832.428 Q59.1865 832.428 56.8717 831.988 Q54.5801 831.572 52.1264 830.715 L52.1264 826.201 Q54.0708 827.336 56.3856 827.914 Q58.7004 828.493 61.2236 828.493 Q65.6217 828.493 67.9133 826.757 Q70.2281 825.021 70.2281 821.711 Q70.2281 818.655 68.0754 816.942 Q65.9457 815.206 62.1263 815.206 L58.0986 815.206 L58.0986 811.364 L62.3115 811.364 Q65.7606 811.364 67.5893 809.998 Q69.418 808.609 69.418 806.016 Q69.418 803.354 67.5198 801.942 Q65.6448 800.507 62.1263 800.507 Q60.205 800.507 58.006 800.924 Q55.8069 801.34 53.168 802.22 L53.168 798.053 Q55.8301 797.313 58.1449 796.942 Q60.4828 796.572 62.543 796.572 Q67.867 796.572 70.9689 799.002 Q74.0707 801.41 74.0707 805.53 Q74.0707 808.401 72.4272 810.391 Q70.7837 812.359 67.7513 813.123 Z" fill="#000000" fill-rule="nonzero" fill-opacity="1" /><path clip-path="url(#clip560)" d="M83.7466 825.877 L88.6308 825.877 L88.6308 831.757 L83.7466 831.757 L83.7466 825.877 Z" fill="#000000" fill-rule="nonzero" fill-opacity="1" /><path clip-path="url(#clip560)" d="M112.983 813.123 Q116.339 813.84 118.214 816.109 Q120.112 818.377 120.112 821.711 Q120.112 826.826 116.594 829.627 Q113.075 832.428 106.594 832.428 Q104.418 832.428 102.103 831.988 Q99.8113 831.572 97.3576 830.715 L97.3576 826.201 Q99.3021 827.336 101.617 827.914 Q103.932 828.493 106.455 828.493 Q110.853 828.493 113.145 826.757 Q115.459 825.021 115.459 821.711 Q115.459 818.655 113.307 816.942 Q111.177 815.206 107.358 815.206 L103.33 815.206 L103.33 811.364 L107.543 811.364 Q110.992 811.364 112.82 809.998 Q114.649 808.609 114.649 806.016 Q114.649 803.354 112.751 801.942 Q110.876 800.507 107.358 800.507 Q105.436 800.507 103.237 800.924 Q101.038 801.34 98.3993 802.22 L98.3993 798.053 Q101.061 797.313 103.376 796.942 Q105.714 796.572 107.774 796.572 Q113.098 796.572 116.2 799.002 Q119.302 801.41 119.302 805.53 Q119.302 808.401 117.658 810.391 Q116.015 812.359 112.983 813.123 Z" fill="#000000" fill-rule="nonzero" fill-opacity="1" /><path clip-path="url(#clip560)" d="M66.617 584.091 Q69.9735 584.809 71.8485 587.077 Q73.7466 589.346 73.7466 592.679 Q73.7466 597.795 70.2281 600.596 Q66.7096 603.397 60.2282 603.397 Q58.0523 603.397 55.7375 602.957 Q53.4458 602.54 50.9921 601.684 L50.9921 597.17 Q52.9366 598.304 55.2514 598.883 Q57.5662 599.461 60.0893 599.461 Q64.4874 599.461 66.7791 597.725 Q69.0939 595.989 69.0939 592.679 Q69.0939 589.624 66.9411 587.911 Q64.8115 586.174 60.9921 586.174 L56.9643 586.174 L56.9643 582.332 L61.1773 582.332 Q64.6263 582.332 66.455 580.966 Q68.2837 579.577 68.2837 576.985 Q68.2837 574.323 66.3856 572.911 Q64.5106 571.476 60.9921 571.476 Q59.0708 571.476 56.8717 571.892 Q54.6727 572.309 52.0338 573.188 L52.0338 569.022 Q54.6958 568.281 57.0106 567.911 Q59.3486 567.54 61.4087 567.54 Q66.7328 567.54 69.8346 569.971 Q72.9365 572.378 72.9365 576.499 Q72.9365 579.369 71.2929 581.36 Q69.6494 583.327 66.617 584.091 Z" fill="#000000" fill-rule="nonzero" fill-opacity="1" /><path clip-path="url(#clip560)" d="M82.6123 596.846 L87.4966 596.846 L87.4966 602.725 L82.6123 602.725 L82.6123 596.846 Z" fill="#000000" fill-rule="nonzero" fill-opacity="1" /><path clip-path="url(#clip560)" d="M110.529 572.239 L98.7234 590.688 L110.529 590.688 L110.529 572.239 M109.302 568.165 L115.182 568.165 L115.182 590.688 L120.112 590.688 L120.112 594.577 L115.182 594.577 L115.182 602.725 L110.529 602.725 L110.529 594.577 L94.9271 594.577 L94.9271 590.063 L109.302 568.165 Z" fill="#000000" fill-rule="nonzero" fill-opacity="1" /><path clip-path="url(#clip560)" d="M68.0985 355.06 Q71.455 355.777 73.33 358.046 Q75.2281 360.314 75.2281 363.647 Q75.2281 368.763 71.7096 371.564 Q68.1911 374.365 61.7097 374.365 Q59.5337 374.365 57.2189 373.925 Q54.9273 373.509 52.4736 372.652 L52.4736 368.138 Q54.418 369.272 56.7328 369.851 Q59.0476 370.43 61.5708 370.43 Q65.9689 370.43 68.2606 368.694 Q70.5754 366.958 70.5754 363.647 Q70.5754 360.592 68.4226 358.879 Q66.293 357.143 62.4735 357.143 L58.4458 357.143 L58.4458 353.3 L62.6587 353.3 Q66.1078 353.3 67.9365 351.935 Q69.7652 350.546 69.7652 347.953 Q69.7652 345.291 67.867 343.879 Q65.992 342.444 62.4735 342.444 Q60.5523 342.444 58.3532 342.861 Q56.1541 343.277 53.5153 344.157 L53.5153 339.99 Q56.1773 339.249 58.4921 338.879 Q60.83 338.509 62.8902 338.509 Q68.2143 338.509 71.3161 340.939 Q74.4179 343.347 74.4179 347.467 Q74.4179 350.337 72.7744 352.328 Q71.1309 354.296 68.0985 355.06 Z" fill="#000000" fill-rule="nonzero" fill-opacity="1" /><path clip-path="url(#clip560)" d="M84.0938 367.814 L88.978 367.814 L88.978 373.694 L84.0938 373.694 L84.0938 367.814 Z" fill="#000000" fill-rule="nonzero" fill-opacity="1" /><path clip-path="url(#clip560)" d="M99.2095 339.134 L117.566 339.134 L117.566 343.069 L103.492 343.069 L103.492 351.541 Q104.51 351.194 105.529 351.032 Q106.547 350.847 107.566 350.847 Q113.353 350.847 116.733 354.018 Q120.112 357.189 120.112 362.606 Q120.112 368.184 116.64 371.286 Q113.168 374.365 106.848 374.365 Q104.672 374.365 102.404 373.995 Q100.159 373.624 97.7511 372.884 L97.7511 368.184 Q99.8345 369.319 102.057 369.874 Q104.279 370.43 106.756 370.43 Q110.76 370.43 113.098 368.323 Q115.436 366.217 115.436 362.606 Q115.436 358.995 113.098 356.888 Q110.76 354.782 106.756 354.782 Q104.881 354.782 103.006 355.198 Q101.154 355.615 99.2095 356.495 L99.2095 339.134 Z" fill="#000000" fill-rule="nonzero" fill-opacity="1" /><path clip-path="url(#clip560)" d="M66.9411 126.028 Q70.2976 126.746 72.1726 129.014 Q74.0707 131.283 74.0707 134.616 Q74.0707 139.732 70.5522 142.532 Q67.0337 145.333 60.5523 145.333 Q58.3763 145.333 56.0615 144.894 Q53.7699 144.477 51.3162 143.62 L51.3162 139.107 Q53.2606 140.241 55.5754 140.82 Q57.8902 141.398 60.4134 141.398 Q64.8115 141.398 67.1032 139.662 Q69.418 137.926 69.418 134.616 Q69.418 131.56 67.2652 129.847 Q65.1356 128.111 61.3161 128.111 L57.2884 128.111 L57.2884 124.269 L61.5013 124.269 Q64.9504 124.269 66.7791 122.903 Q68.6078 121.514 68.6078 118.921 Q68.6078 116.259 66.7096 114.847 Q64.8346 113.412 61.3161 113.412 Q59.3949 113.412 57.1958 113.829 Q54.9967 114.246 52.3579 115.125 L52.3579 110.959 Q55.0199 110.218 57.3347 109.847 Q59.6726 109.477 61.7328 109.477 Q67.0569 109.477 70.1587 111.908 Q73.2605 114.315 73.2605 118.435 Q73.2605 121.306 71.617 123.296 Q69.9735 125.264 66.9411 126.028 Z" fill="#000000" fill-rule="nonzero" fill-opacity="1" /><path clip-path="url(#clip560)" d="M82.9364 138.782 L87.8206 138.782 L87.8206 144.662 L82.9364 144.662 L82.9364 138.782 Z" fill="#000000" fill-rule="nonzero" fill-opacity="1" /><path clip-path="url(#clip560)" d="M108.584 125.519 Q105.436 125.519 103.584 127.671 Q101.756 129.824 101.756 133.574 Q101.756 137.301 103.584 139.477 Q105.436 141.63 108.584 141.63 Q111.733 141.63 113.561 139.477 Q115.413 137.301 115.413 133.574 Q115.413 129.824 113.561 127.671 Q111.733 125.519 108.584 125.519 M117.867 110.866 L117.867 115.125 Q116.108 114.292 114.302 113.852 Q112.52 113.412 110.76 113.412 Q106.131 113.412 103.677 116.537 Q101.246 119.662 100.899 125.982 Q102.265 123.968 104.325 122.903 Q106.385 121.815 108.862 121.815 Q114.07 121.815 117.08 124.986 Q120.112 128.134 120.112 133.574 Q120.112 138.898 116.964 142.116 Q113.816 145.333 108.584 145.333 Q102.589 145.333 99.4178 140.75 Q96.2465 136.144 96.2465 127.417 Q96.2465 119.222 100.135 114.361 Q104.024 109.477 110.575 109.477 Q112.334 109.477 114.117 109.824 Q115.922 110.172 117.867 110.866 Z" fill="#000000" fill-rule="nonzero" fill-opacity="1" /><polyline clip-path="url(#clip562)" style="stroke:#009af9; stroke-linecap:round; stroke-linejoin:round; stroke-width:4; stroke-opacity:1; fill:none" points="218.281,1311.19 239.427,1285.73 260.573,1213.76 281.719,1369.05 302.865,1242.53 324.011,1294.35 345.157,1370.18 366.303,1326.23 387.449,1384.24 429.741,1332.94 450.887,1242.47 493.179,1153.04 535.471,1171.79 598.909,1136.12 662.347,1008.02 725.785,1176.27 810.369,998.208 894.952,911.678 1000.68,787.97 1127.56,766.005 1254.43,740.853 1402.46,581.555 1592.77,514.24 1783.08,465.666 2015.69,353.842 2290.59,86.1857 "/>
<path clip-path="url(#clip560)" d="M229.334 196.789 L501.428 196.789 L501.428 93.1086 L229.334 93.1086  Z" fill="#ffffff" fill-rule="evenodd" fill-opacity="1"/>
<polyline clip-path="url(#clip560)" style="stroke:#000000; stroke-linecap:round; stroke-linejoin:round; stroke-width:4; stroke-opacity:1; fill:none" points="229.334,196.789 501.428,196.789 501.428,93.1086 229.334,93.1086 229.334,196.789 "/>
<polyline clip-path="url(#clip560)" style="stroke:#009af9; stroke-linecap:round; stroke-linejoin:round; stroke-width:4; stroke-opacity:1; fill:none" points="253.741,144.949 400.184,144.949 "/>
<path clip-path="url(#clip560)" d="M438.433 164.636 Q436.628 169.266 434.915 170.678 Q433.202 172.09 430.332 172.09 L426.929 172.09 L426.929 168.525 L429.429 168.525 Q431.188 168.525 432.16 167.692 Q433.132 166.858 434.313 163.756 L435.077 161.812 L424.591 136.303 L429.105 136.303 L437.206 156.581 L445.308 136.303 L449.822 136.303 L438.433 164.636 Z" fill="#000000" fill-rule="nonzero" fill-opacity="1" /><path clip-path="url(#clip560)" d="M457.114 158.293 L464.753 158.293 L464.753 131.928 L456.442 133.595 L456.442 129.335 L464.706 127.669 L469.382 127.669 L469.382 158.293 L477.021 158.293 L477.021 162.229 L457.114 162.229 L457.114 158.293 Z" fill="#000000" fill-rule="nonzero" fill-opacity="1" /></svg>
