<?xml version="1.0" encoding="utf-8"?>
<svg xmlns="http://www.w3.org/2000/svg" xmlns:xlink="http://www.w3.org/1999/xlink" width="600" height="400" viewBox="0 0 2400 1600">
<defs>
  <clipPath id="clip380">
    <rect x="0" y="0" width="2400" height="1600"/>
  </clipPath>
</defs>
<path clip-path="url(#clip380)" d="M0 1600 L2400 1600 L2400 8.88178e-14 L0 8.88178e-14  Z" fill="#ffffff" fill-rule="evenodd" fill-opacity="1"/>
<defs>
  <clipPath id="clip381">
    <rect x="480" y="0" width="1681" height="1600"/>
  </clipPath>
</defs>
<path clip-path="url(#clip380)" d="M156.112 1423.18 L2352.76 1423.18 L2352.76 47.2441 L156.112 47.2441  Z" fill="#ffffff" fill-rule="evenodd" fill-opacity="1"/>
<defs>
  <clipPath id="clip382">
    <rect x="156" y="47" width="2198" height="1377"/>
  </clipPath>
</defs>
<polyline clip-path="url(#clip382)" style="stroke:#000000; stroke-linecap:round; stroke-linejoin:round; stroke-width:2; stroke-opacity:0.1; fill:none" points="175.989,1423.18 175.989,47.2441 "/>
<polyline clip-path="url(#clip382)" style="stroke:#000000; stroke-linecap:round; stroke-linejoin:round; stroke-width:2; stroke-opacity:0.1; fill:none" points="704.639,1423.18 704.639,47.2441 "/>
<polyline clip-path="url(#clip382)" style="stroke:#000000; stroke-linecap:round; stroke-linejoin:round; stroke-width:2; stroke-opacity:0.1; fill:none" points="1233.29,1423.18 1233.29,47.2441 "/>
<polyline clip-path="url(#clip382)" style="stroke:#000000; stroke-linecap:round; stroke-linejoin:round; stroke-width:2; stroke-opacity:0.1; fill:none" points="1761.94,1423.18 1761.94,47.2441 "/>
<polyline clip-path="url(#clip382)" style="stroke:#000000; stroke-linecap:round; stroke-linejoin:round; stroke-width:2; stroke-opacity:0.1; fill:none" points="2290.59,1423.18 2290.59,47.2441 "/>
<polyline clip-path="url(#clip380)" style="stroke:#000000; stroke-linecap:round; stroke-linejoin:round; stroke-width:4; stroke-opacity:1; fill:none" points="156.112,1423.18 2352.76,1423.18 "/>
<polyline clip-path="url(#clip380)" style="stroke:#000000; stroke-linecap:round; stroke-linejoin:round; stroke-width:4; stroke-opacity:1; fill:none" points="175.989,1423.18 175.989,1404.28 "/>
<polyline clip-path="url(#clip380)" style="stroke:#000000; stroke-linecap:round; stroke-linejoin:round; stroke-width:4; stroke-opacity:1; fill:none" points="704.639,1423.18 704.639,1404.28 "/>
<polyline clip-path="url(#clip380)" style="stroke:#000000; stroke-linecap:round; stroke-linejoin:round; stroke-width:4; stroke-opacity:1; fill:none" points="1233.29,1423.18 1233.29,1404.28 "/>
<polyline clip-path="url(#clip380)" style="stroke:#000000; stroke-linecap:round; stroke-linejoin:round; stroke-width:4; stroke-opacity:1; fill:none" points="1761.94,1423.18 1761.94,1404.28 "/>
<polyline clip-path="url(#clip380)" style="stroke:#000000; stroke-linecap:round; stroke-linejoin:round; stroke-width:4; stroke-opacity:1; fill:none" points="2290.59,1423.18 2290.59,1404.28 "/>
<path clip-path="url(#clip380)" d="M175.989 1454.1 Q172.378 1454.1 170.55 1457.66 Q168.744 1461.2 168.744 1468.33 Q168.744 1475.44 170.55 1479.01 Q172.378 1482.55 175.989 1482.55 Q179.624 1482.55 181.429 1479.01 Q183.258 1475.44 183.258 1468.33 Q183.258 1461.2 181.429 1457.66 Q179.624 1454.1 175.989 1454.1 M175.989 1450.39 Q181.799 1450.39 184.855 1455 Q187.934 1459.58 187.934 1468.33 Q187.934 1477.06 184.855 1481.67 Q181.799 1486.25 175.989 1486.25 Q170.179 1486.25 167.101 1481.67 Q164.045 1477.06 164.045 1468.33 Q164.045 1459.58 167.101 1455 Q170.179 1450.39 175.989 1450.39 Z" fill="#000000" fill-rule="nonzero" fill-opacity="1" /><path clip-path="url(#clip380)" d="M683.91 1481.64 L700.229 1481.64 L700.229 1485.58 L678.285 1485.58 L678.285 1481.64 Q680.947 1478.89 685.53 1474.26 Q690.136 1469.61 691.317 1468.27 Q693.562 1465.74 694.442 1464.01 Q695.345 1462.25 695.345 1460.56 Q695.345 1457.8 693.4 1456.07 Q691.479 1454.33 688.377 1454.33 Q686.178 1454.33 683.724 1455.09 Q681.294 1455.86 678.516 1457.41 L678.516 1452.69 Q681.34 1451.55 683.794 1450.97 Q686.248 1450.39 688.285 1450.39 Q693.655 1450.39 696.849 1453.08 Q700.044 1455.77 700.044 1460.26 Q700.044 1462.39 699.234 1464.31 Q698.447 1466.2 696.34 1468.8 Q695.761 1469.47 692.66 1472.69 Q689.558 1475.88 683.91 1481.64 Z" fill="#000000" fill-rule="nonzero" fill-opacity="1" /><path clip-path="url(#clip380)" d="M710.09 1451.02 L728.446 1451.02 L728.446 1454.96 L714.372 1454.96 L714.372 1463.43 Q715.391 1463.08 716.409 1462.92 Q717.428 1462.73 718.446 1462.73 Q724.233 1462.73 727.613 1465.9 Q730.993 1469.08 730.993 1474.49 Q730.993 1480.07 727.521 1483.17 Q724.048 1486.25 717.729 1486.25 Q715.553 1486.25 713.284 1485.88 Q711.039 1485.51 708.632 1484.77 L708.632 1480.07 Q710.715 1481.2 712.937 1481.76 Q715.159 1482.32 717.636 1482.32 Q721.641 1482.32 723.979 1480.21 Q726.317 1478.1 726.317 1474.49 Q726.317 1470.88 723.979 1468.77 Q721.641 1466.67 717.636 1466.67 Q715.761 1466.67 713.886 1467.08 Q712.034 1467.5 710.09 1468.38 L710.09 1451.02 Z" fill="#000000" fill-rule="nonzero" fill-opacity="1" /><path clip-path="url(#clip380)" d="M1207.99 1451.02 L1226.34 1451.02 L1226.34 1454.96 L1212.27 1454.96 L1212.27 1463.43 Q1213.29 1463.08 1214.31 1462.92 Q1215.33 1462.73 1216.34 1462.73 Q1222.13 1462.73 1225.51 1465.9 Q1228.89 1469.08 1228.89 1474.49 Q1228.89 1480.07 1225.42 1483.17 Q1221.95 1486.25 1215.63 1486.25 Q1213.45 1486.25 1211.18 1485.88 Q1208.94 1485.51 1206.53 1484.77 L1206.53 1480.07 Q1208.61 1481.2 1210.83 1481.76 Q1213.06 1482.32 1215.53 1482.32 Q1219.54 1482.32 1221.88 1480.21 Q1224.21 1478.1 1224.21 1474.49 Q1224.21 1470.88 1221.88 1468.77 Q1219.54 1466.67 1215.53 1466.67 Q1213.66 1466.67 1211.78 1467.08 Q1209.93 1467.5 1207.99 1468.38 L1207.99 1451.02 Z" fill="#000000" fill-rule="nonzero" fill-opacity="1" /><path clip-path="url(#clip380)" d="M1248.1 1454.1 Q1244.49 1454.1 1242.66 1457.66 Q1240.86 1461.2 1240.86 1468.33 Q1240.86 1475.44 1242.66 1479.01 Q1244.49 1482.55 1248.1 1482.55 Q1251.74 1482.55 1253.54 1479.01 Q1255.37 1475.44 1255.37 1468.33 Q1255.37 1461.2 1253.54 1457.66 Q1251.74 1454.1 1248.1 1454.1 M1248.1 1450.39 Q1253.91 1450.39 1256.97 1455 Q1260.05 1459.58 1260.05 1468.33 Q1260.05 1477.06 1256.97 1481.67 Q1253.91 1486.25 1248.1 1486.25 Q1242.29 1486.25 1239.21 1481.67 Q1236.16 1477.06 1236.16 1468.33 Q1236.16 1459.58 1239.21 1455 Q1242.29 1450.39 1248.1 1450.39 Z" fill="#000000" fill-rule="nonzero" fill-opacity="1" /><path clip-path="url(#clip380)" d="M1735.79 1451.02 L1758.01 1451.02 L1758.01 1453.01 L1745.47 1485.58 L1740.58 1485.58 L1752.39 1454.96 L1735.79 1454.96 L1735.79 1451.02 Z" fill="#000000" fill-rule="nonzero" fill-opacity="1" /><path clip-path="url(#clip380)" d="M1767.18 1451.02 L1785.54 1451.02 L1785.54 1454.96 L1771.46 1454.96 L1771.46 1463.43 Q1772.48 1463.08 1773.5 1462.92 Q1774.52 1462.73 1775.54 1462.73 Q1781.32 1462.73 1784.7 1465.9 Q1788.08 1469.08 1788.08 1474.49 Q1788.08 1480.07 1784.61 1483.17 Q1781.14 1486.25 1774.82 1486.25 Q1772.64 1486.25 1770.37 1485.88 Q1768.13 1485.51 1765.72 1484.77 L1765.72 1480.07 Q1767.81 1481.2 1770.03 1481.76 Q1772.25 1482.32 1774.73 1482.32 Q1778.73 1482.32 1781.07 1480.21 Q1783.41 1478.1 1783.41 1474.49 Q1783.41 1470.88 1781.07 1468.77 Q1778.73 1466.67 1774.73 1466.67 Q1772.85 1466.67 1770.98 1467.08 Q1769.12 1467.5 1767.18 1468.38 L1767.18 1451.02 Z" fill="#000000" fill-rule="nonzero" fill-opacity="1" /><path clip-path="url(#clip380)" d="M2250.19 1481.64 L2257.83 1481.64 L2257.83 1455.28 L2249.52 1456.95 L2249.52 1452.69 L2257.79 1451.02 L2262.46 1451.02 L2262.46 1481.64 L2270.1 1481.64 L2270.1 1485.58 L2250.19 1485.58 L2250.19 1481.64 Z" fill="#000000" fill-rule="nonzero" fill-opacity="1" /><path clip-path="url(#clip380)" d="M2289.55 1454.1 Q2285.93 1454.1 2284.11 1457.66 Q2282.3 1461.2 2282.3 1468.33 Q2282.3 1475.44 2284.11 1479.01 Q2285.93 1482.55 2289.55 1482.55 Q2293.18 1482.55 2294.98 1479.01 Q2296.81 1475.44 2296.81 1468.33 Q2296.81 1461.2 2294.98 1457.66 Q2293.18 1454.1 2289.55 1454.1 M2289.55 1450.39 Q2295.36 1450.39 2298.41 1455 Q2301.49 1459.58 2301.49 1468.33 Q2301.49 1477.06 2298.41 1481.67 Q2295.36 1486.25 2289.55 1486.25 Q2283.73 1486.25 2280.66 1481.67 Q2277.6 1477.06 2277.6 1468.33 Q2277.6 1459.58 2280.66 1455 Q2283.73 1450.39 2289.55 1450.39 Z" fill="#000000" fill-rule="nonzero" fill-opacity="1" /><path clip-path="url(#clip380)" d="M2319.71 1454.1 Q2316.1 1454.1 2314.27 1457.66 Q2312.46 1461.2 2312.46 1468.33 Q2312.46 1475.44 2314.27 1479.01 Q2316.1 1482.55 2319.71 1482.55 Q2323.34 1482.55 2325.15 1479.01 Q2326.98 1475.44 2326.98 1468.33 Q2326.98 1461.2 2325.15 1457.66 Q2323.34 1454.1 2319.71 1454.1 M2319.71 1450.39 Q2325.52 1450.39 2328.57 1455 Q2331.65 1459.58 2331.65 1468.33 Q2331.65 1477.06 2328.57 1481.67 Q2325.52 1486.25 2319.71 1486.25 Q2313.9 1486.25 2310.82 1481.67 Q2307.76 1477.06 2307.76 1468.33 Q2307.76 1459.58 2310.82 1455 Q2313.9 1450.39 2319.71 1450.39 Z" fill="#000000" fill-rule="nonzero" fill-opacity="1" /><path clip-path="url(#clip380)" d="M882.709 1550.12 Q875.611 1550.12 872.874 1551.75 Q870.136 1553.37 870.136 1557.29 Q870.136 1560.4 872.173 1562.25 Q874.242 1564.07 877.775 1564.07 Q882.645 1564.07 885.573 1560.63 Q888.533 1557.16 888.533 1551.43 L888.533 1550.12 L882.709 1550.12 M894.39 1547.71 L894.39 1568.04 L888.533 1568.04 L888.533 1562.63 Q886.528 1565.88 883.536 1567.44 Q880.544 1568.97 876.216 1568.97 Q870.741 1568.97 867.495 1565.91 Q864.28 1562.82 864.28 1557.67 Q864.28 1551.65 868.29 1548.6 Q872.332 1545.54 880.321 1545.54 L888.533 1545.54 L888.533 1544.97 Q888.533 1540.93 885.86 1538.73 Q883.218 1536.5 878.412 1536.5 Q875.356 1536.5 872.46 1537.23 Q869.563 1537.97 866.89 1539.43 L866.89 1534.02 Q870.104 1532.78 873.128 1532.17 Q876.152 1531.54 879.016 1531.54 Q886.751 1531.54 890.57 1535.55 Q894.39 1539.56 894.39 1547.71 Z" fill="#000000" fill-rule="nonzero" fill-opacity="1" /><path clip-path="url(#clip380)" d="M912.245 1522.27 L912.245 1532.4 L924.308 1532.4 L924.308 1536.95 L912.245 1536.95 L912.245 1556.3 Q912.245 1560.66 913.423 1561.9 Q914.633 1563.14 918.293 1563.14 L924.308 1563.14 L924.308 1568.04 L918.293 1568.04 Q911.513 1568.04 908.935 1565.53 Q906.357 1562.98 906.357 1556.3 L906.357 1536.95 L902.06 1536.95 L902.06 1532.4 L906.357 1532.4 L906.357 1522.27 L912.245 1522.27 Z" fill="#000000" fill-rule="nonzero" fill-opacity="1" /><path clip-path="url(#clip380)" d="M945.825 1536.5 Q941.114 1536.5 938.377 1540.19 Q935.639 1543.85 935.639 1550.25 Q935.639 1556.65 938.345 1560.34 Q941.082 1564 945.825 1564 Q950.503 1564 953.241 1560.31 Q955.978 1556.62 955.978 1550.25 Q955.978 1543.92 953.241 1540.23 Q950.503 1536.5 945.825 1536.5 M945.825 1531.54 Q953.463 1531.54 957.824 1536.5 Q962.184 1541.47 962.184 1550.25 Q962.184 1559 957.824 1564 Q953.463 1568.97 945.825 1568.97 Q938.154 1568.97 933.793 1564 Q929.465 1559 929.465 1550.25 Q929.465 1541.47 933.793 1536.5 Q938.154 1531.54 945.825 1531.54 Z" fill="#000000" fill-rule="nonzero" fill-opacity="1" /><path clip-path="url(#clip380)" d="M999.647 1539.24 Q1001.84 1535.29 1004.9 1533.41 Q1007.95 1531.54 1012.09 1531.54 Q1017.66 1531.54 1020.69 1535.45 Q1023.71 1539.33 1023.71 1546.53 L1023.71 1568.04 L1017.82 1568.04 L1017.82 1546.72 Q1017.82 1541.59 1016.01 1539.11 Q1014.19 1536.63 1010.47 1536.63 Q1005.92 1536.63 1003.28 1539.65 Q1000.63 1542.68 1000.63 1547.9 L1000.63 1568.04 L994.745 1568.04 L994.745 1546.72 Q994.745 1541.56 992.931 1539.11 Q991.117 1536.63 987.329 1536.63 Q982.841 1536.63 980.199 1539.68 Q977.558 1542.71 977.558 1547.9 L977.558 1568.04 L971.669 1568.04 L971.669 1532.4 L977.558 1532.4 L977.558 1537.93 Q979.563 1534.66 982.364 1533.1 Q985.165 1531.54 989.016 1531.54 Q992.899 1531.54 995.604 1533.51 Q998.342 1535.48 999.647 1539.24 Z" fill="#000000" fill-rule="nonzero" fill-opacity="1" /><path clip-path="url(#clip380)" d="M1036.22 1559.96 L1042.93 1559.96 L1042.93 1568.04 L1036.22 1568.04 L1036.22 1559.96 Z" fill="#000000" fill-rule="nonzero" fill-opacity="1" /><path clip-path="url(#clip380)" d="M1083.86 1539.24 Q1086.06 1535.29 1089.12 1533.41 Q1092.17 1531.54 1096.31 1531.54 Q1101.88 1531.54 1104.9 1535.45 Q1107.93 1539.33 1107.93 1546.53 L1107.93 1568.04 L1102.04 1568.04 L1102.04 1546.72 Q1102.04 1541.59 1100.22 1539.11 Q1098.41 1536.63 1094.69 1536.63 Q1090.14 1536.63 1087.49 1539.65 Q1084.85 1542.68 1084.85 1547.9 L1084.85 1568.04 L1078.96 1568.04 L1078.96 1546.72 Q1078.96 1541.56 1077.15 1539.11 Q1075.33 1536.63 1071.55 1536.63 Q1067.06 1536.63 1064.42 1539.68 Q1061.78 1542.71 1061.78 1547.9 L1061.78 1568.04 L1055.89 1568.04 L1055.89 1532.4 L1061.78 1532.4 L1061.78 1537.93 Q1063.78 1534.66 1066.58 1533.1 Q1069.38 1531.54 1073.23 1531.54 Q1077.12 1531.54 1079.82 1533.51 Q1082.56 1535.48 1083.86 1539.24 Z" fill="#000000" fill-rule="nonzero" fill-opacity="1" /><path clip-path="url(#clip380)" d="M1119.61 1532.4 L1125.46 1532.4 L1125.46 1568.04 L1119.61 1568.04 L1119.61 1532.4 M1119.61 1518.52 L1125.46 1518.52 L1125.46 1525.93 L1119.61 1525.93 L1119.61 1518.52 Z" fill="#000000" fill-rule="nonzero" fill-opacity="1" /><path clip-path="url(#clip380)" d="M1167.35 1546.53 L1167.35 1568.04 L1161.49 1568.04 L1161.49 1546.72 Q1161.49 1541.66 1159.52 1539.14 Q1157.55 1536.63 1153.6 1536.63 Q1148.86 1536.63 1146.12 1539.65 Q1143.38 1542.68 1143.38 1547.9 L1143.38 1568.04 L1137.5 1568.04 L1137.5 1532.4 L1143.38 1532.4 L1143.38 1537.93 Q1145.48 1534.72 1148.32 1533.13 Q1151.18 1531.54 1154.91 1531.54 Q1161.05 1531.54 1164.2 1535.36 Q1167.35 1539.14 1167.35 1546.53 Z" fill="#000000" fill-rule="nonzero" fill-opacity="1" /><path clip-path="url(#clip380)" d="M1206.12 1578.87 L1206.12 1583.42 L1172.25 1583.42 L1172.25 1578.87 L1206.12 1578.87 Z" fill="#000000" fill-rule="nonzero" fill-opacity="1" /><path clip-path="url(#clip380)" d="M1234.35 1533.45 L1234.35 1538.98 Q1231.87 1537.71 1229.19 1537.07 Q1226.52 1536.44 1223.66 1536.44 Q1219.3 1536.44 1217.1 1537.77 Q1214.93 1539.11 1214.93 1541.79 Q1214.93 1543.82 1216.49 1545 Q1218.05 1546.15 1222.76 1547.2 L1224.77 1547.64 Q1231.01 1548.98 1233.62 1551.43 Q1236.26 1553.85 1236.26 1558.21 Q1236.26 1563.17 1232.31 1566.07 Q1228.4 1568.97 1221.52 1568.97 Q1218.66 1568.97 1215.54 1568.39 Q1212.45 1567.85 1209.01 1566.74 L1209.01 1560.69 Q1212.26 1562.38 1215.41 1563.24 Q1218.56 1564.07 1221.65 1564.07 Q1225.79 1564.07 1228.02 1562.66 Q1230.24 1561.23 1230.24 1558.65 Q1230.24 1556.27 1228.62 1554.99 Q1227.03 1553.72 1221.59 1552.54 L1219.55 1552.07 Q1214.11 1550.92 1211.69 1548.56 Q1209.27 1546.18 1209.27 1542.04 Q1209.27 1537.01 1212.83 1534.27 Q1216.4 1531.54 1222.96 1531.54 Q1226.2 1531.54 1229.07 1532.01 Q1231.93 1532.49 1234.35 1533.45 Z" fill="#000000" fill-rule="nonzero" fill-opacity="1" /><path clip-path="url(#clip380)" d="M1261.79 1550.12 Q1254.69 1550.12 1251.95 1551.75 Q1249.21 1553.37 1249.21 1557.29 Q1249.21 1560.4 1251.25 1562.25 Q1253.32 1564.07 1256.85 1564.07 Q1261.72 1564.07 1264.65 1560.63 Q1267.61 1557.16 1267.61 1551.43 L1267.61 1550.12 L1261.79 1550.12 M1273.47 1547.71 L1273.47 1568.04 L1267.61 1568.04 L1267.61 1562.63 Q1265.61 1565.88 1262.61 1567.44 Q1259.62 1568.97 1255.29 1568.97 Q1249.82 1568.97 1246.57 1565.91 Q1243.36 1562.82 1243.36 1557.67 Q1243.36 1551.65 1247.37 1548.6 Q1251.41 1545.54 1259.4 1545.54 L1267.61 1545.54 L1267.61 1544.97 Q1267.61 1540.93 1264.94 1538.73 Q1262.3 1536.5 1257.49 1536.5 Q1254.43 1536.5 1251.54 1537.23 Q1248.64 1537.97 1245.97 1539.43 L1245.97 1534.02 Q1249.18 1532.78 1252.21 1532.17 Q1255.23 1531.54 1258.09 1531.54 Q1265.83 1531.54 1269.65 1535.55 Q1273.47 1539.56 1273.47 1547.71 Z" fill="#000000" fill-rule="nonzero" fill-opacity="1" /><path clip-path="url(#clip380)" d="M1313.28 1539.24 Q1315.48 1535.29 1318.54 1533.41 Q1321.59 1531.54 1325.73 1531.54 Q1331.3 1531.54 1334.32 1535.45 Q1337.35 1539.33 1337.35 1546.53 L1337.35 1568.04 L1331.46 1568.04 L1331.46 1546.72 Q1331.46 1541.59 1329.64 1539.11 Q1327.83 1536.63 1324.11 1536.63 Q1319.56 1536.63 1316.91 1539.65 Q1314.27 1542.68 1314.27 1547.9 L1314.27 1568.04 L1308.38 1568.04 L1308.38 1546.72 Q1308.38 1541.56 1306.57 1539.11 Q1304.75 1536.63 1300.97 1536.63 Q1296.48 1536.63 1293.84 1539.68 Q1291.2 1542.71 1291.2 1547.9 L1291.2 1568.04 L1285.31 1568.04 L1285.31 1532.4 L1291.2 1532.4 L1291.2 1537.93 Q1293.2 1534.66 1296 1533.1 Q1298.8 1531.54 1302.65 1531.54 Q1306.54 1531.54 1309.24 1533.51 Q1311.98 1535.48 1313.28 1539.24 Z" fill="#000000" fill-rule="nonzero" fill-opacity="1" /><path clip-path="url(#clip380)" d="M1354.69 1562.7 L1354.69 1581.6 L1348.81 1581.6 L1348.81 1532.4 L1354.69 1532.4 L1354.69 1537.81 Q1356.54 1534.62 1359.34 1533.1 Q1362.17 1531.54 1366.09 1531.54 Q1372.58 1531.54 1376.62 1536.69 Q1380.7 1541.85 1380.7 1550.25 Q1380.7 1558.65 1376.62 1563.81 Q1372.58 1568.97 1366.09 1568.97 Q1362.17 1568.97 1359.34 1567.44 Q1356.54 1565.88 1354.69 1562.7 M1374.62 1550.25 Q1374.62 1543.79 1371.94 1540.13 Q1369.3 1536.44 1364.66 1536.44 Q1360.01 1536.44 1357.34 1540.13 Q1354.69 1543.79 1354.69 1550.25 Q1354.69 1556.71 1357.34 1560.4 Q1360.01 1564.07 1364.66 1564.07 Q1369.3 1564.07 1371.94 1560.4 Q1374.62 1556.71 1374.62 1550.25 Z" fill="#000000" fill-rule="nonzero" fill-opacity="1" /><path clip-path="url(#clip380)" d="M1390.41 1518.52 L1396.26 1518.52 L1396.26 1568.04 L1390.41 1568.04 L1390.41 1518.52 Z" fill="#000000" fill-rule="nonzero" fill-opacity="1" /><path clip-path="url(#clip380)" d="M1439.01 1548.76 L1439.01 1551.62 L1412.08 1551.62 Q1412.46 1557.67 1415.71 1560.85 Q1418.99 1564 1424.81 1564 Q1428.19 1564 1431.34 1563.17 Q1434.52 1562.35 1437.64 1560.69 L1437.64 1566.23 Q1434.49 1567.57 1431.18 1568.27 Q1427.87 1568.97 1424.46 1568.97 Q1415.93 1568.97 1410.93 1564 Q1405.97 1559.04 1405.97 1550.57 Q1405.97 1541.82 1410.68 1536.69 Q1415.42 1531.54 1423.44 1531.54 Q1430.64 1531.54 1434.81 1536.18 Q1439.01 1540.8 1439.01 1548.76 M1433.15 1547.04 Q1433.09 1542.23 1430.45 1539.37 Q1427.84 1536.5 1423.51 1536.5 Q1418.61 1536.5 1415.65 1539.27 Q1412.72 1542.04 1412.27 1547.07 L1433.15 1547.04 Z" fill="#000000" fill-rule="nonzero" fill-opacity="1" /><path clip-path="url(#clip380)" d="M1471.35 1533.45 L1471.35 1538.98 Q1468.86 1537.71 1466.19 1537.07 Q1463.52 1536.44 1460.65 1536.44 Q1456.29 1536.44 1454.09 1537.77 Q1451.93 1539.11 1451.93 1541.79 Q1451.93 1543.82 1453.49 1545 Q1455.05 1546.15 1459.76 1547.2 L1461.77 1547.64 Q1468 1548.98 1470.61 1551.43 Q1473.26 1553.85 1473.26 1558.21 Q1473.26 1563.17 1469.31 1566.07 Q1465.39 1568.97 1458.52 1568.97 Q1455.65 1568.97 1452.53 1568.39 Q1449.45 1567.85 1446.01 1566.74 L1446.01 1560.69 Q1449.26 1562.38 1452.41 1563.24 Q1455.56 1564.07 1458.65 1564.07 Q1462.78 1564.07 1465.01 1562.66 Q1467.24 1561.23 1467.24 1558.65 Q1467.24 1556.27 1465.62 1554.99 Q1464.02 1553.72 1458.58 1552.54 L1456.55 1552.07 Q1451.1 1550.92 1448.68 1548.56 Q1446.26 1546.18 1446.26 1542.04 Q1446.26 1537.01 1449.83 1534.27 Q1453.39 1531.54 1459.95 1531.54 Q1463.2 1531.54 1466.06 1532.01 Q1468.93 1532.49 1471.35 1533.45 Z" fill="#000000" fill-rule="nonzero" fill-opacity="1" /><path clip-path="url(#clip380)" d="M1509.67 1578.87 L1509.67 1583.42 L1475.8 1583.42 L1475.8 1578.87 L1509.67 1578.87 Z" fill="#000000" fill-rule="nonzero" fill-opacity="1" /><path clip-path="url(#clip380)" d="M1537.9 1533.45 L1537.9 1538.98 Q1535.42 1537.71 1532.74 1537.07 Q1530.07 1536.44 1527.2 1536.44 Q1522.84 1536.44 1520.65 1537.77 Q1518.48 1539.11 1518.48 1541.79 Q1518.48 1543.82 1520.04 1545 Q1521.6 1546.15 1526.31 1547.2 L1528.32 1547.64 Q1534.56 1548.98 1537.17 1551.43 Q1539.81 1553.85 1539.81 1558.21 Q1539.81 1563.17 1535.86 1566.07 Q1531.95 1568.97 1525.07 1568.97 Q1522.21 1568.97 1519.09 1568.39 Q1516 1567.85 1512.56 1566.74 L1512.56 1560.69 Q1515.81 1562.38 1518.96 1563.24 Q1522.11 1564.07 1525.2 1564.07 Q1529.34 1564.07 1531.57 1562.66 Q1533.79 1561.23 1533.79 1558.65 Q1533.79 1556.27 1532.17 1554.99 Q1530.58 1553.72 1525.14 1552.54 L1523.1 1552.07 Q1517.66 1550.92 1515.24 1548.56 Q1512.82 1546.18 1512.82 1542.04 Q1512.82 1537.01 1516.38 1534.27 Q1519.95 1531.54 1526.5 1531.54 Q1529.75 1531.54 1532.62 1532.01 Q1535.48 1532.49 1537.9 1533.45 Z" fill="#000000" fill-rule="nonzero" fill-opacity="1" /><path clip-path="url(#clip380)" d="M1554.8 1562.7 L1554.8 1581.6 L1548.91 1581.6 L1548.91 1532.4 L1554.8 1532.4 L1554.8 1537.81 Q1556.65 1534.62 1559.45 1533.1 Q1562.28 1531.54 1566.19 1531.54 Q1572.69 1531.54 1576.73 1536.69 Q1580.8 1541.85 1580.8 1550.25 Q1580.8 1558.65 1576.73 1563.81 Q1572.69 1568.97 1566.19 1568.97 Q1562.28 1568.97 1559.45 1567.44 Q1556.65 1565.88 1554.8 1562.7 M1574.72 1550.25 Q1574.72 1543.79 1572.05 1540.13 Q1569.41 1536.44 1564.76 1536.44 Q1560.12 1536.44 1557.44 1540.13 Q1554.8 1543.79 1554.8 1550.25 Q1554.8 1556.71 1557.44 1560.4 Q1560.12 1564.07 1564.76 1564.07 Q1569.41 1564.07 1572.05 1560.4 Q1574.72 1556.71 1574.72 1550.25 Z" fill="#000000" fill-rule="nonzero" fill-opacity="1" /><path clip-path="url(#clip380)" d="M1590.51 1518.52 L1596.37 1518.52 L1596.37 1568.04 L1590.51 1568.04 L1590.51 1518.52 Z" fill="#000000" fill-rule="nonzero" fill-opacity="1" /><path clip-path="url(#clip380)" d="M1608.62 1532.4 L1614.48 1532.4 L1614.48 1568.04 L1608.62 1568.04 L1608.62 1532.4 M1608.62 1518.52 L1614.48 1518.52 L1614.48 1525.93 L1608.62 1525.93 L1608.62 1518.52 Z" fill="#000000" fill-rule="nonzero" fill-opacity="1" /><path clip-path="url(#clip380)" d="M1632.53 1522.27 L1632.53 1532.4 L1644.59 1532.4 L1644.59 1536.95 L1632.53 1536.95 L1632.53 1556.3 Q1632.53 1560.66 1633.7 1561.9 Q1634.91 1563.14 1638.57 1563.14 L1644.59 1563.14 L1644.59 1568.04 L1638.57 1568.04 Q1631.79 1568.04 1629.21 1565.53 Q1626.64 1562.98 1626.64 1556.3 L1626.64 1536.95 L1622.34 1536.95 L1622.34 1532.4 L1626.64 1532.4 L1626.64 1522.27 L1632.53 1522.27 Z" fill="#000000" fill-rule="nonzero" fill-opacity="1" /><polyline clip-path="url(#clip382)" style="stroke:#000000; stroke-linecap:round; stroke-linejoin:round; stroke-width:2; stroke-opacity:0.1; fill:none" points="156.112,1306.19 2352.76,1306.19 "/>
<polyline clip-path="url(#clip382)" style="stroke:#000000; stroke-linecap:round; stroke-linejoin:round; stroke-width:2; stroke-opacity:0.1; fill:none" points="156.112,1077.73 2352.76,1077.73 "/>
<polyline clip-path="url(#clip382)" style="stroke:#000000; stroke-linecap:round; stroke-linejoin:round; stroke-width:2; stroke-opacity:0.1; fill:none" points="156.112,849.264 2352.76,849.264 "/>
<polyline clip-path="url(#clip382)" style="stroke:#000000; stroke-linecap:round; stroke-linejoin:round; stroke-width:2; stroke-opacity:0.1; fill:none" points="156.112,620.802 2352.76,620.802 "/>
<polyline clip-path="url(#clip382)" style="stroke:#000000; stroke-linecap:round; stroke-linejoin:round; stroke-width:2; stroke-opacity:0.1; fill:none" points="156.112,392.34 2352.76,392.34 "/>
<polyline clip-path="url(#clip382)" style="stroke:#000000; stroke-linecap:round; stroke-linejoin:round; stroke-width:2; stroke-opacity:0.1; fill:none" points="156.112,163.878 2352.76,163.878 "/>
<polyline clip-path="url(#clip380)" style="stroke:#000000; stroke-linecap:round; stroke-linejoin:round; stroke-width:4; stroke-opacity:1; fill:none" points="156.112,1423.18 156.112,47.2441 "/>
<polyline clip-path="url(#clip380)" style="stroke:#000000; stroke-linecap:round; stroke-linejoin:round; stroke-width:4; stroke-opacity:1; fill:none" points="156.112,1306.19 175.01,1306.19 "/>
<polyline clip-path="url(#clip380)" style="stroke:#000000; stroke-linecap:round; stroke-linejoin:round; stroke-width:4; stroke-opacity:1; fill:none" points="156.112,1077.73 175.01,1077.73 "/>
<polyline clip-path="url(#clip380)" style="stroke:#000000; stroke-linecap:round; stroke-linejoin:round; stroke-width:4; stroke-opacity:1; fill:none" points="156.112,849.264 175.01,849.264 "/>
<polyline clip-path="url(#clip380)" style="stroke:#000000; stroke-linecap:round; stroke-linejoin:round; stroke-width:4; stroke-opacity:1; fill:none" points="156.112,620.802 175.01,620.802 "/>
<polyline clip-path="url(#clip380)" style="stroke:#000000; stroke-linecap:round; stroke-linejoin:round; stroke-width:4; stroke-opacity:1; fill:none" points="156.112,392.34 175.01,392.34 "/>
<polyline clip-path="url(#clip380)" style="stroke:#000000; stroke-linecap:round; stroke-linejoin:round; stroke-width:4; stroke-opacity:1; fill:none" points="156.112,163.878 175.01,163.878 "/>
<path clip-path="url(#clip380)" d="M68.33 1304.83 Q71.6865 1305.55 73.5614 1307.82 Q75.4596 1310.09 75.4596 1313.42 Q75.4596 1318.54 71.9411 1321.34 Q68.4226 1324.14 61.9411 1324.14 Q59.7652 1324.14 57.4504 1323.7 Q55.1588 1323.28 52.7051 1322.43 L52.7051 1317.91 Q54.6495 1319.05 56.9643 1319.62 Q59.2791 1320.2 61.8023 1320.2 Q66.2004 1320.2 68.492 1318.47 Q70.8068 1316.73 70.8068 1313.42 Q70.8068 1310.37 68.6541 1308.65 Q66.5245 1306.92 62.705 1306.92 L58.6773 1306.92 L58.6773 1303.07 L62.8902 1303.07 Q66.3393 1303.07 68.168 1301.71 Q69.9967 1300.32 69.9967 1297.73 Q69.9967 1295.06 68.0985 1293.65 Q66.2235 1292.22 62.705 1292.22 Q60.7837 1292.22 58.5847 1292.63 Q56.3856 1293.05 53.7467 1293.93 L53.7467 1289.76 Q56.4088 1289.02 58.7236 1288.65 Q61.0615 1288.28 63.1217 1288.28 Q68.4457 1288.28 71.5476 1290.71 Q74.6494 1293.12 74.6494 1297.24 Q74.6494 1300.11 73.0059 1302.1 Q71.3624 1304.07 68.33 1304.83 Z" fill="#000000" fill-rule="nonzero" fill-opacity="1" /><path clip-path="url(#clip380)" d="M84.3253 1317.59 L89.2095 1317.59 L89.2095 1323.47 L84.3253 1323.47 L84.3253 1317.59 Z" fill="#000000" fill-rule="nonzero" fill-opacity="1" /><path clip-path="url(#clip380)" d="M100.205 1319.53 L107.844 1319.53 L107.844 1293.17 L99.5335 1294.83 L99.5335 1290.57 L107.797 1288.91 L112.473 1288.91 L112.473 1319.53 L120.112 1319.53 L120.112 1323.47 L100.205 1323.47 L100.205 1319.53 Z" fill="#000000" fill-rule="nonzero" fill-opacity="1" /><path clip-path="url(#clip380)" d="M68.7004 1076.37 Q72.0568 1077.09 73.9318 1079.36 Q75.83 1081.63 75.83 1084.96 Q75.83 1090.07 72.3115 1092.88 Q68.793 1095.68 62.3115 1095.68 Q60.1356 1095.68 57.8208 1095.24 Q55.5291 1094.82 53.0754 1093.96 L53.0754 1089.45 Q55.0199 1090.58 57.3347 1091.16 Q59.6495 1091.74 62.1726 1091.74 Q66.5707 1091.74 68.8624 1090.01 Q71.1772 1088.27 71.1772 1084.96 Q71.1772 1081.9 69.0244 1080.19 Q66.8948 1078.45 63.0754 1078.45 L59.0476 1078.45 L59.0476 1074.61 L63.2606 1074.61 Q66.7096 1074.61 68.5383 1073.25 Q70.367 1071.86 70.367 1069.26 Q70.367 1066.6 68.4689 1065.19 Q66.5939 1063.76 63.0754 1063.76 Q61.1541 1063.76 58.955 1064.17 Q56.756 1064.59 54.1171 1065.47 L54.1171 1061.3 Q56.7791 1060.56 59.0939 1060.19 Q61.4319 1059.82 63.4921 1059.82 Q68.8161 1059.82 71.9179 1062.25 Q75.0198 1064.66 75.0198 1068.78 Q75.0198 1071.65 73.3763 1073.64 Q71.7328 1075.61 68.7004 1076.37 Z" fill="#000000" fill-rule="nonzero" fill-opacity="1" /><path clip-path="url(#clip380)" d="M84.6956 1089.13 L89.5799 1089.13 L89.5799 1095.01 L84.6956 1095.01 L84.6956 1089.13 Z" fill="#000000" fill-rule="nonzero" fill-opacity="1" /><path clip-path="url(#clip380)" d="M103.793 1091.07 L120.112 1091.07 L120.112 1095.01 L98.1678 1095.01 L98.1678 1091.07 Q100.83 1088.32 105.413 1083.69 Q110.02 1079.03 111.2 1077.69 Q113.445 1075.17 114.325 1073.43 Q115.228 1071.67 115.228 1069.98 Q115.228 1067.23 113.283 1065.49 Q111.362 1063.76 108.26 1063.76 Q106.061 1063.76 103.608 1064.52 Q101.177 1065.28 98.3993 1066.83 L98.3993 1062.11 Q101.223 1060.98 103.677 1060.4 Q106.131 1059.82 108.168 1059.82 Q113.538 1059.82 116.733 1062.51 Q119.927 1065.19 119.927 1069.68 Q119.927 1071.81 119.117 1073.73 Q118.33 1075.63 116.223 1078.22 Q115.645 1078.89 112.543 1082.11 Q109.441 1085.31 103.793 1091.07 Z" fill="#000000" fill-rule="nonzero" fill-opacity="1" /><path clip-path="url(#clip380)" d="M67.7513 847.909 Q71.1078 848.627 72.9827 850.896 Q74.8809 853.164 74.8809 856.497 Q74.8809 861.613 71.3624 864.414 Q67.8439 867.215 61.3624 867.215 Q59.1865 867.215 56.8717 866.775 Q54.5801 866.358 52.1264 865.502 L52.1264 860.988 Q54.0708 862.122 56.3856 862.701 Q58.7004 863.28 61.2236 863.28 Q65.6217 863.28 67.9133 861.544 Q70.2281 859.808 70.2281 856.497 Q70.2281 853.442 68.0754 851.729 Q65.9457 849.993 62.1263 849.993 L58.0986 849.993 L58.0986 846.15 L62.3115 846.15 Q65.7606 846.15 67.5893 844.785 Q69.418 843.396 69.418 840.803 Q69.418 838.141 67.5198 836.729 Q65.6448 835.294 62.1263 835.294 Q60.205 835.294 58.006 835.71 Q55.8069 836.127 53.168 837.007 L53.168 832.84 Q55.8301 832.099 58.1449 831.729 Q60.4828 831.359 62.543 831.359 Q67.867 831.359 70.9689 833.789 Q74.0707 836.197 74.0707 840.317 Q74.0707 843.187 72.4272 845.178 Q70.7837 847.146 67.7513 847.909 Z" fill="#000000" fill-rule="nonzero" fill-opacity="1" /><path clip-path="url(#clip380)" d="M83.7466 860.664 L88.6308 860.664 L88.6308 866.544 L83.7466 866.544 L83.7466 860.664 Z" fill="#000000" fill-rule="nonzero" fill-opacity="1" /><path clip-path="url(#clip380)" d="M112.983 847.909 Q116.339 848.627 118.214 850.896 Q120.112 853.164 120.112 856.497 Q120.112 861.613 116.594 864.414 Q113.075 867.215 106.594 867.215 Q104.418 867.215 102.103 866.775 Q99.8113 866.358 97.3576 865.502 L97.3576 860.988 Q99.3021 862.122 101.617 862.701 Q103.932 863.28 106.455 863.28 Q110.853 863.28 113.145 861.544 Q115.459 859.808 115.459 856.497 Q115.459 853.442 113.307 851.729 Q111.177 849.993 107.358 849.993 L103.33 849.993 L103.33 846.15 L107.543 846.15 Q110.992 846.15 112.82 844.785 Q114.649 843.396 114.649 840.803 Q114.649 838.141 112.751 836.729 Q110.876 835.294 107.358 835.294 Q105.436 835.294 103.237 835.71 Q101.038 836.127 98.3993 837.007 L98.3993 832.84 Q101.061 832.099 103.376 831.729 Q105.714 831.359 107.774 831.359 Q113.098 831.359 116.2 833.789 Q119.302 836.197 119.302 840.317 Q119.302 843.187 117.658 845.178 Q116.015 847.146 112.983 847.909 Z" fill="#000000" fill-rule="nonzero" fill-opacity="1" /><path clip-path="url(#clip380)" d="M66.617 619.448 Q69.9735 620.165 71.8485 622.434 Q73.7466 624.702 73.7466 628.036 Q73.7466 633.151 70.2281 635.952 Q66.7096 638.753 60.2282 638.753 Q58.0523 638.753 55.7375 638.313 Q53.4458 637.897 50.9921 637.04 L50.9921 632.526 Q52.9366 633.661 55.2514 634.239 Q57.5662 634.818 60.0893 634.818 Q64.4874 634.818 66.7791 633.082 Q69.0939 631.346 69.0939 628.036 Q69.0939 624.98 66.9411 623.267 Q64.8115 621.531 60.9921 621.531 L56.9643 621.531 L56.9643 617.688 L61.1773 617.688 Q64.6263 617.688 66.455 616.323 Q68.2837 614.934 68.2837 612.341 Q68.2837 609.679 66.3856 608.267 Q64.5106 606.832 60.9921 606.832 Q59.0708 606.832 56.8717 607.249 Q54.6727 607.665 52.0338 608.545 L52.0338 604.378 Q54.6958 603.638 57.0106 603.267 Q59.3486 602.897 61.4087 602.897 Q66.7328 602.897 69.8346 605.327 Q72.9365 607.735 72.9365 611.855 Q72.9365 614.726 71.2929 616.716 Q69.6494 618.684 66.617 619.448 Z" fill="#000000" fill-rule="nonzero" fill-opacity="1" /><path clip-path="url(#clip380)" d="M82.6123 632.202 L87.4966 632.202 L87.4966 638.082 L82.6123 638.082 L82.6123 632.202 Z" fill="#000000" fill-rule="nonzero" fill-opacity="1" /><path clip-path="url(#clip380)" d="M110.529 607.596 L98.7234 626.045 L110.529 626.045 L110.529 607.596 M109.302 603.522 L115.182 603.522 L115.182 626.045 L120.112 626.045 L120.112 629.934 L115.182 629.934 L115.182 638.082 L110.529 638.082 L110.529 629.934 L94.9271 629.934 L94.9271 625.42 L109.302 603.522 Z" fill="#000000" fill-rule="nonzero" fill-opacity="1" /><path clip-path="url(#clip380)" d="M68.0985 390.986 Q71.455 391.704 73.33 393.972 Q75.2281 396.241 75.2281 399.574 Q75.2281 404.69 71.7096 407.49 Q68.1911 410.291 61.7097 410.291 Q59.5337 410.291 57.2189 409.852 Q54.9273 409.435 52.4736 408.578 L52.4736 404.065 Q54.418 405.199 56.7328 405.778 Q59.0476 406.356 61.5708 406.356 Q65.9689 406.356 68.2606 404.62 Q70.5754 402.884 70.5754 399.574 Q70.5754 396.518 68.4226 394.805 Q66.293 393.069 62.4735 393.069 L58.4458 393.069 L58.4458 389.227 L62.6587 389.227 Q66.1078 389.227 67.9365 387.861 Q69.7652 386.472 69.7652 383.88 Q69.7652 381.217 67.867 379.805 Q65.992 378.37 62.4735 378.37 Q60.5523 378.37 58.3532 378.787 Q56.1541 379.204 53.5153 380.083 L53.5153 375.917 Q56.1773 375.176 58.4921 374.805 Q60.83 374.435 62.8902 374.435 Q68.2143 374.435 71.3161 376.866 Q74.4179 379.273 74.4179 383.393 Q74.4179 386.264 72.7744 388.254 Q71.1309 390.222 68.0985 390.986 Z" fill="#000000" fill-rule="nonzero" fill-opacity="1" /><path clip-path="url(#clip380)" d="M84.0938 403.741 L88.978 403.741 L88.978 409.62 L84.0938 409.62 L84.0938 403.741 Z" fill="#000000" fill-rule="nonzero" fill-opacity="1" /><path clip-path="url(#clip380)" d="M99.2095 375.06 L117.566 375.06 L117.566 378.995 L103.492 378.995 L103.492 387.467 Q104.51 387.12 105.529 386.958 Q106.547 386.773 107.566 386.773 Q113.353 386.773 116.733 389.944 Q120.112 393.116 120.112 398.532 Q120.112 404.111 116.64 407.213 Q113.168 410.291 106.848 410.291 Q104.672 410.291 102.404 409.921 Q100.159 409.551 97.7511 408.81 L97.7511 404.111 Q99.8345 405.245 102.057 405.801 Q104.279 406.356 106.756 406.356 Q110.76 406.356 113.098 404.25 Q115.436 402.143 115.436 398.532 Q115.436 394.921 113.098 392.815 Q110.76 390.708 106.756 390.708 Q104.881 390.708 103.006 391.125 Q101.154 391.542 99.2095 392.421 L99.2095 375.06 Z" fill="#000000" fill-rule="nonzero" fill-opacity="1" /><path clip-path="url(#clip380)" d="M66.9411 162.524 Q70.2976 163.242 72.1726 165.51 Q74.0707 167.779 74.0707 171.112 Q74.0707 176.228 70.5522 179.029 Q67.0337 181.83 60.5523 181.83 Q58.3763 181.83 56.0615 181.39 Q53.7699 180.973 51.3162 180.117 L51.3162 175.603 Q53.2606 176.737 55.5754 177.316 Q57.8902 177.894 60.4134 177.894 Q64.8115 177.894 67.1032 176.158 Q69.418 174.422 69.418 171.112 Q69.418 168.057 67.2652 166.344 Q65.1356 164.608 61.3161 164.608 L57.2884 164.608 L57.2884 160.765 L61.5013 160.765 Q64.9504 160.765 66.7791 159.399 Q68.6078 158.01 68.6078 155.418 Q68.6078 152.756 66.7096 151.344 Q64.8346 149.909 61.3161 149.909 Q59.3949 149.909 57.1958 150.325 Q54.9967 150.742 52.3579 151.621 L52.3579 147.455 Q55.0199 146.714 57.3347 146.344 Q59.6726 145.973 61.7328 145.973 Q67.0569 145.973 70.1587 148.404 Q73.2605 150.811 73.2605 154.932 Q73.2605 157.802 71.617 159.793 Q69.9735 161.76 66.9411 162.524 Z" fill="#000000" fill-rule="nonzero" fill-opacity="1" /><path clip-path="url(#clip380)" d="M82.9364 175.279 L87.8206 175.279 L87.8206 181.158 L82.9364 181.158 L82.9364 175.279 Z" fill="#000000" fill-rule="nonzero" fill-opacity="1" /><path clip-path="url(#clip380)" d="M108.584 162.015 Q105.436 162.015 103.584 164.168 Q101.756 166.32 101.756 170.07 Q101.756 173.797 103.584 175.973 Q105.436 178.126 108.584 178.126 Q111.733 178.126 113.561 175.973 Q115.413 173.797 115.413 170.07 Q115.413 166.32 113.561 164.168 Q111.733 162.015 108.584 162.015 M117.867 147.362 L117.867 151.621 Q116.108 150.788 114.302 150.348 Q112.52 149.909 110.76 149.909 Q106.131 149.909 103.677 153.033 Q101.246 156.158 100.899 162.478 Q102.265 160.464 104.325 159.399 Q106.385 158.311 108.862 158.311 Q114.07 158.311 117.08 161.483 Q120.112 164.631 120.112 170.07 Q120.112 175.394 116.964 178.612 Q113.816 181.83 108.584 181.83 Q102.589 181.83 99.4178 177.246 Q96.2465 172.64 96.2465 163.913 Q96.2465 155.719 100.135 150.858 Q104.024 145.973 110.575 145.973 Q112.334 145.973 114.117 146.321 Q115.922 146.668 117.867 147.362 Z" fill="#000000" fill-rule="nonzero" fill-opacity="1" /><polyline clip-path="url(#clip382)" style="stroke:#009af9; stroke-linecap:round; stroke-linejoin:round; stroke-width:4; stroke-opacity:1; fill:none" points="218.281,1302.4 239.427,1340.4 260.573,1316.19 281.719,1250.2 302.865,1266.6 324.011,1307.66 345.157,1226.65 366.303,1384.24 387.449,1286.67 429.741,1309.63 450.887,1304.84 493.179,1192.54 535.471,1112.93 598.909,1315.59 662.347,1221.78 725.785,1131.7 810.369,1109.66 894.952,1065.47 1000.68,912.215 1127.56,800.908 1254.43,898.771 1402.46,700.724 1592.77,569.605 1783.08,443.84 2015.69,176.229 2290.59,86.1857 "/>
<path clip-path="url(#clip380)" d="M229.334 196.789 L501.428 196.789 L501.428 93.1086 L229.334 93.1086  Z" fill="#ffffff" fill-rule="evenodd" fill-opacity="1"/>
<polyline clip-path="url(#clip380)" style="stroke:#000000; stroke-linecap:round; stroke-linejoin:round; stroke-width:4; stroke-opacity:1; fill:none" points="229.334,196.789 501.428,196.789 501.428,93.1086 229.334,93.1086 229.334,196.789 "/>
<polyline clip-path="url(#clip380)" style="stroke:#009af9; stroke-linecap:round; stroke-linejoin:round; stroke-width:4; stroke-opacity:1; fill:none" points="253.741,144.949 400.184,144.949 "/>
<path clip-path="url(#clip380)" d="M438.433 164.636 Q436.628 169.266 434.915 170.678 Q433.202 172.09 430.332 172.09 L426.929 172.09 L426.929 168.525 L429.429 168.525 Q431.188 168.525 432.16 167.692 Q433.132 166.858 434.313 163.756 L435.077 161.812 L424.591 136.303 L429.105 136.303 L437.206 156.581 L445.308 136.303 L449.822 136.303 L438.433 164.636 Z" fill="#000000" fill-rule="nonzero" fill-opacity="1" /><path clip-path="url(#clip380)" d="M457.114 158.293 L464.753 158.293 L464.753 131.928 L456.442 133.595 L456.442 129.335 L464.706 127.669 L469.382 127.669 L469.382 158.293 L477.021 158.293 L477.021 162.229 L457.114 162.229 L457.114 158.293 Z" fill="#000000" fill-rule="nonzero" fill-opacity="1" /></svg>
