<?xml version="1.0" encoding="utf-8"?>
<svg xmlns="http://www.w3.org/2000/svg" xmlns:xlink="http://www.w3.org/1999/xlink" width="800" height="600" viewBox="0 0 3200 2400">
<defs>
  <clipPath id="clip240">
    <rect x="0" y="0" width="3200" height="2400"/>
  </clipPath>
</defs>
<path clip-path="url(#clip240)" d="M0 2400 L3200 2400 L3200 0 L0 0  Z" fill="#ffffff" fill-rule="evenodd" fill-opacity="1"/>
<defs>
  <clipPath id="clip241">
    <rect x="640" y="0" width="2241" height="2241"/>
  </clipPath>
</defs>
<path clip-path="url(#clip240)" d="M254.387 2180.62 L3152.76 2180.62 L3152.76 150.472 L254.387 150.472  Z" fill="#ffffff" fill-rule="evenodd" fill-opacity="1"/>
<defs>
  <clipPath id="clip242">
    <rect x="254" y="150" width="2899" height="2031"/>
  </clipPath>
</defs>
<polyline clip-path="url(#clip242)" style="stroke:#000000; stroke-linecap:round; stroke-linejoin:round; stroke-width:2; stroke-opacity:0.1; fill:none" points="406.957,2180.62 406.957,150.472 "/>
<polyline clip-path="url(#clip242)" style="stroke:#000000; stroke-linecap:round; stroke-linejoin:round; stroke-width:2; stroke-opacity:0.1; fill:none" points="816.476,2180.62 816.476,150.472 "/>
<polyline clip-path="url(#clip242)" style="stroke:#000000; stroke-linecap:round; stroke-linejoin:round; stroke-width:2; stroke-opacity:0.1; fill:none" points="1226,2180.62 1226,150.472 "/>
<polyline clip-path="url(#clip242)" style="stroke:#000000; stroke-linecap:round; stroke-linejoin:round; stroke-width:2; stroke-opacity:0.1; fill:none" points="1635.51,2180.62 1635.51,150.472 "/>
<polyline clip-path="url(#clip242)" style="stroke:#000000; stroke-linecap:round; stroke-linejoin:round; stroke-width:2; stroke-opacity:0.1; fill:none" points="2045.03,2180.62 2045.03,150.472 "/>
<polyline clip-path="url(#clip242)" style="stroke:#000000; stroke-linecap:round; stroke-linejoin:round; stroke-width:2; stroke-opacity:0.1; fill:none" points="2454.55,2180.62 2454.55,150.472 "/>
<polyline clip-path="url(#clip242)" style="stroke:#000000; stroke-linecap:round; stroke-linejoin:round; stroke-width:2; stroke-opacity:0.1; fill:none" points="2864.07,2180.62 2864.07,150.472 "/>
<polyline clip-path="url(#clip240)" style="stroke:#000000; stroke-linecap:round; stroke-linejoin:round; stroke-width:4; stroke-opacity:1; fill:none" points="254.387,2180.62 3152.76,2180.62 "/>
<polyline clip-path="url(#clip240)" style="stroke:#000000; stroke-linecap:round; stroke-linejoin:round; stroke-width:4; stroke-opacity:1; fill:none" points="406.957,2180.62 406.957,2161.72 "/>
<polyline clip-path="url(#clip240)" style="stroke:#000000; stroke-linecap:round; stroke-linejoin:round; stroke-width:4; stroke-opacity:1; fill:none" points="816.476,2180.62 816.476,2161.72 "/>
<polyline clip-path="url(#clip240)" style="stroke:#000000; stroke-linecap:round; stroke-linejoin:round; stroke-width:4; stroke-opacity:1; fill:none" points="1226,2180.62 1226,2161.72 "/>
<polyline clip-path="url(#clip240)" style="stroke:#000000; stroke-linecap:round; stroke-linejoin:round; stroke-width:4; stroke-opacity:1; fill:none" points="1635.51,2180.62 1635.51,2161.72 "/>
<polyline clip-path="url(#clip240)" style="stroke:#000000; stroke-linecap:round; stroke-linejoin:round; stroke-width:4; stroke-opacity:1; fill:none" points="2045.03,2180.62 2045.03,2161.72 "/>
<polyline clip-path="url(#clip240)" style="stroke:#000000; stroke-linecap:round; stroke-linejoin:round; stroke-width:4; stroke-opacity:1; fill:none" points="2454.55,2180.62 2454.55,2161.72 "/>
<polyline clip-path="url(#clip240)" style="stroke:#000000; stroke-linecap:round; stroke-linejoin:round; stroke-width:4; stroke-opacity:1; fill:none" points="2864.07,2180.62 2864.07,2161.72 "/>
<path clip-path="url(#clip240)" d="M340.739 2239.18 L377.834 2239.18 L377.834 2244.1 L340.739 2244.1 L340.739 2239.18 Z" fill="#000000" fill-rule="nonzero" fill-opacity="1" /><path clip-path="url(#clip240)" d="M391.463 2255.3 L401.011 2255.3 L401.011 2222.34 L390.623 2224.43 L390.623 2219.1 L400.953 2217.02 L406.798 2217.02 L406.798 2255.3 L416.347 2255.3 L416.347 2260.22 L391.463 2260.22 L391.463 2255.3 Z" fill="#000000" fill-rule="nonzero" fill-opacity="1" /><path clip-path="url(#clip240)" d="M428.152 2252.87 L434.257 2252.87 L434.257 2260.22 L428.152 2260.22 L428.152 2252.87 Z" fill="#000000" fill-rule="nonzero" fill-opacity="1" /><path clip-path="url(#clip240)" d="M447.047 2217.02 L469.992 2217.02 L469.992 2221.94 L452.4 2221.94 L452.4 2232.53 Q453.673 2232.09 454.946 2231.89 Q456.219 2231.66 457.492 2231.66 Q464.726 2231.66 468.951 2235.63 Q473.175 2239.59 473.175 2246.36 Q473.175 2253.33 468.835 2257.21 Q464.495 2261.06 456.595 2261.06 Q453.875 2261.06 451.04 2260.6 Q448.233 2260.13 445.224 2259.21 L445.224 2253.33 Q447.828 2254.75 450.606 2255.45 Q453.383 2256.14 456.48 2256.14 Q461.485 2256.14 464.408 2253.51 Q467.33 2250.87 467.33 2246.36 Q467.33 2241.85 464.408 2239.21 Q461.485 2236.58 456.48 2236.58 Q454.136 2236.58 451.792 2237.1 Q449.477 2237.62 447.047 2238.72 L447.047 2217.02 Z" fill="#000000" fill-rule="nonzero" fill-opacity="1" /><path clip-path="url(#clip240)" d="M749.636 2239.18 L786.731 2239.18 L786.731 2244.1 L749.636 2244.1 L749.636 2239.18 Z" fill="#000000" fill-rule="nonzero" fill-opacity="1" /><path clip-path="url(#clip240)" d="M800.359 2255.3 L809.908 2255.3 L809.908 2222.34 L799.52 2224.43 L799.52 2219.1 L809.85 2217.02 L815.695 2217.02 L815.695 2255.3 L825.244 2255.3 L825.244 2260.22 L800.359 2260.22 L800.359 2255.3 Z" fill="#000000" fill-rule="nonzero" fill-opacity="1" /><path clip-path="url(#clip240)" d="M837.049 2252.87 L843.154 2252.87 L843.154 2260.22 L837.049 2260.22 L837.049 2252.87 Z" fill="#000000" fill-rule="nonzero" fill-opacity="1" /><path clip-path="url(#clip240)" d="M868.386 2220.87 Q863.872 2220.87 861.586 2225.32 Q859.329 2229.75 859.329 2238.66 Q859.329 2247.55 861.586 2252 Q863.872 2256.43 868.386 2256.43 Q872.929 2256.43 875.185 2252 Q877.471 2247.55 877.471 2238.66 Q877.471 2229.75 875.185 2225.32 Q872.929 2220.87 868.386 2220.87 M868.386 2216.24 Q875.648 2216.24 879.468 2222 Q883.316 2227.73 883.316 2238.66 Q883.316 2249.57 879.468 2255.33 Q875.648 2261.06 868.386 2261.06 Q861.123 2261.06 857.275 2255.33 Q853.455 2249.57 853.455 2238.66 Q853.455 2227.73 857.275 2222 Q861.123 2216.24 868.386 2216.24 Z" fill="#000000" fill-rule="nonzero" fill-opacity="1" /><path clip-path="url(#clip240)" d="M1159.78 2239.18 L1196.87 2239.18 L1196.87 2244.1 L1159.78 2244.1 L1159.78 2239.18 Z" fill="#000000" fill-rule="nonzero" fill-opacity="1" /><path clip-path="url(#clip240)" d="M1221.99 2220.87 Q1217.47 2220.87 1215.19 2225.32 Q1212.93 2229.75 1212.93 2238.66 Q1212.93 2247.55 1215.19 2252 Q1217.47 2256.43 1221.99 2256.43 Q1226.53 2256.43 1228.79 2252 Q1231.07 2247.55 1231.07 2238.66 Q1231.07 2229.75 1228.79 2225.32 Q1226.53 2220.87 1221.99 2220.87 M1221.99 2216.24 Q1229.25 2216.24 1233.07 2222 Q1236.92 2227.73 1236.92 2238.66 Q1236.92 2249.57 1233.07 2255.33 Q1229.25 2261.06 1221.99 2261.06 Q1214.73 2261.06 1210.88 2255.33 Q1207.06 2249.57 1207.06 2238.66 Q1207.06 2227.73 1210.88 2222 Q1214.73 2216.24 1221.99 2216.24 Z" fill="#000000" fill-rule="nonzero" fill-opacity="1" /><path clip-path="url(#clip240)" d="M1247.19 2252.87 L1253.3 2252.87 L1253.3 2260.22 L1247.19 2260.22 L1247.19 2252.87 Z" fill="#000000" fill-rule="nonzero" fill-opacity="1" /><path clip-path="url(#clip240)" d="M1266.08 2217.02 L1289.03 2217.02 L1289.03 2221.94 L1271.44 2221.94 L1271.44 2232.53 Q1272.71 2232.09 1273.98 2231.89 Q1275.26 2231.66 1276.53 2231.66 Q1283.76 2231.66 1287.99 2235.63 Q1292.21 2239.59 1292.21 2246.36 Q1292.21 2253.33 1287.87 2257.21 Q1283.53 2261.06 1275.63 2261.06 Q1272.91 2261.06 1270.08 2260.6 Q1267.27 2260.13 1264.26 2259.21 L1264.26 2253.33 Q1266.87 2254.75 1269.64 2255.45 Q1272.42 2256.14 1275.52 2256.14 Q1280.52 2256.14 1283.45 2253.51 Q1286.37 2250.87 1286.37 2246.36 Q1286.37 2241.85 1283.45 2239.21 Q1280.52 2236.58 1275.52 2236.58 Q1273.17 2236.58 1270.83 2237.1 Q1268.52 2237.62 1266.08 2238.72 L1266.08 2217.02 Z" fill="#000000" fill-rule="nonzero" fill-opacity="1" /><path clip-path="url(#clip240)" d="M1607.24 2220.87 Q1602.73 2220.87 1600.45 2225.32 Q1598.19 2229.75 1598.19 2238.66 Q1598.19 2247.55 1600.45 2252 Q1602.73 2256.43 1607.24 2256.43 Q1611.79 2256.43 1614.04 2252 Q1616.33 2247.55 1616.33 2238.66 Q1616.33 2229.75 1614.04 2225.32 Q1611.79 2220.87 1607.24 2220.87 M1607.24 2216.24 Q1614.51 2216.24 1618.33 2222 Q1622.18 2227.73 1622.18 2238.66 Q1622.18 2249.57 1618.33 2255.33 Q1614.51 2261.06 1607.24 2261.06 Q1599.98 2261.06 1596.13 2255.33 Q1592.31 2249.57 1592.31 2238.66 Q1592.31 2227.73 1596.13 2222 Q1599.98 2216.24 1607.24 2216.24 Z" fill="#000000" fill-rule="nonzero" fill-opacity="1" /><path clip-path="url(#clip240)" d="M1632.45 2252.87 L1638.55 2252.87 L1638.55 2260.22 L1632.45 2260.22 L1632.45 2252.87 Z" fill="#000000" fill-rule="nonzero" fill-opacity="1" /><path clip-path="url(#clip240)" d="M1663.78 2220.87 Q1659.27 2220.87 1656.98 2225.32 Q1654.73 2229.75 1654.73 2238.66 Q1654.73 2247.55 1656.98 2252 Q1659.27 2256.43 1663.78 2256.43 Q1668.33 2256.43 1670.58 2252 Q1672.87 2247.55 1672.87 2238.66 Q1672.87 2229.75 1670.58 2225.32 Q1668.33 2220.87 1663.78 2220.87 M1663.78 2216.24 Q1671.05 2216.24 1674.87 2222 Q1678.71 2227.73 1678.71 2238.66 Q1678.71 2249.57 1674.87 2255.33 Q1671.05 2261.06 1663.78 2261.06 Q1656.52 2261.06 1652.67 2255.33 Q1648.85 2249.57 1648.85 2238.66 Q1648.85 2227.73 1652.67 2222 Q1656.52 2216.24 1663.78 2216.24 Z" fill="#000000" fill-rule="nonzero" fill-opacity="1" /><path clip-path="url(#clip240)" d="M2017.39 2220.87 Q2012.87 2220.87 2010.59 2225.32 Q2008.33 2229.75 2008.33 2238.66 Q2008.33 2247.55 2010.59 2252 Q2012.87 2256.43 2017.39 2256.43 Q2021.93 2256.43 2024.19 2252 Q2026.47 2247.55 2026.47 2238.66 Q2026.47 2229.75 2024.19 2225.32 Q2021.93 2220.87 2017.39 2220.87 M2017.39 2216.24 Q2024.65 2216.24 2028.47 2222 Q2032.32 2227.73 2032.32 2238.66 Q2032.32 2249.57 2028.47 2255.33 Q2024.65 2261.06 2017.39 2261.06 Q2010.12 2261.06 2006.27 2255.33 Q2002.46 2249.57 2002.46 2238.66 Q2002.46 2227.73 2006.27 2222 Q2010.12 2216.24 2017.39 2216.24 Z" fill="#000000" fill-rule="nonzero" fill-opacity="1" /><path clip-path="url(#clip240)" d="M2042.59 2252.87 L2048.69 2252.87 L2048.69 2260.22 L2042.59 2260.22 L2042.59 2252.87 Z" fill="#000000" fill-rule="nonzero" fill-opacity="1" /><path clip-path="url(#clip240)" d="M2061.48 2217.02 L2084.43 2217.02 L2084.43 2221.94 L2066.84 2221.94 L2066.84 2232.53 Q2068.11 2232.09 2069.38 2231.89 Q2070.66 2231.66 2071.93 2231.66 Q2079.16 2231.66 2083.39 2235.63 Q2087.61 2239.59 2087.61 2246.36 Q2087.61 2253.33 2083.27 2257.21 Q2078.93 2261.06 2071.03 2261.06 Q2068.31 2261.06 2065.48 2260.6 Q2062.67 2260.13 2059.66 2259.21 L2059.66 2253.33 Q2062.26 2254.75 2065.04 2255.45 Q2067.82 2256.14 2070.92 2256.14 Q2075.92 2256.14 2078.84 2253.51 Q2081.77 2250.87 2081.77 2246.36 Q2081.77 2241.85 2078.84 2239.21 Q2075.92 2236.58 2070.92 2236.58 Q2068.57 2236.58 2066.23 2237.1 Q2063.91 2237.62 2061.48 2238.72 L2061.48 2217.02 Z" fill="#000000" fill-rule="nonzero" fill-opacity="1" /><path clip-path="url(#clip240)" d="M2413.49 2255.3 L2423.04 2255.3 L2423.04 2222.34 L2412.65 2224.43 L2412.65 2219.1 L2422.98 2217.02 L2428.83 2217.02 L2428.83 2255.3 L2438.38 2255.3 L2438.38 2260.22 L2413.49 2260.22 L2413.49 2255.3 Z" fill="#000000" fill-rule="nonzero" fill-opacity="1" /><path clip-path="url(#clip240)" d="M2450.18 2252.87 L2456.29 2252.87 L2456.29 2260.22 L2450.18 2260.22 L2450.18 2252.87 Z" fill="#000000" fill-rule="nonzero" fill-opacity="1" /><path clip-path="url(#clip240)" d="M2481.52 2220.87 Q2477.01 2220.87 2474.72 2225.32 Q2472.46 2229.75 2472.46 2238.66 Q2472.46 2247.55 2474.72 2252 Q2477.01 2256.43 2481.52 2256.43 Q2486.06 2256.43 2488.32 2252 Q2490.61 2247.55 2490.61 2238.66 Q2490.61 2229.75 2488.32 2225.32 Q2486.06 2220.87 2481.52 2220.87 M2481.52 2216.24 Q2488.78 2216.24 2492.6 2222 Q2496.45 2227.73 2496.45 2238.66 Q2496.45 2249.57 2492.6 2255.33 Q2488.78 2261.06 2481.52 2261.06 Q2474.26 2261.06 2470.41 2255.33 Q2466.59 2249.57 2466.59 2238.66 Q2466.59 2227.73 2470.41 2222 Q2474.26 2216.24 2481.52 2216.24 Z" fill="#000000" fill-rule="nonzero" fill-opacity="1" /><path clip-path="url(#clip240)" d="M2823.63 2255.3 L2833.18 2255.3 L2833.18 2222.34 L2822.8 2224.43 L2822.8 2219.1 L2833.13 2217.02 L2838.97 2217.02 L2838.97 2255.3 L2848.52 2255.3 L2848.52 2260.22 L2823.63 2260.22 L2823.63 2255.3 Z" fill="#000000" fill-rule="nonzero" fill-opacity="1" /><path clip-path="url(#clip240)" d="M2860.32 2252.87 L2866.43 2252.87 L2866.43 2260.22 L2860.32 2260.22 L2860.32 2252.87 Z" fill="#000000" fill-rule="nonzero" fill-opacity="1" /><path clip-path="url(#clip240)" d="M2879.22 2217.02 L2902.16 2217.02 L2902.16 2221.94 L2884.57 2221.94 L2884.57 2232.53 Q2885.84 2232.09 2887.12 2231.89 Q2888.39 2231.66 2889.66 2231.66 Q2896.9 2231.66 2901.12 2235.63 Q2905.35 2239.59 2905.35 2246.36 Q2905.35 2253.33 2901.01 2257.21 Q2896.67 2261.06 2888.77 2261.06 Q2886.05 2261.06 2883.21 2260.6 Q2880.41 2260.13 2877.4 2259.21 L2877.4 2253.33 Q2880 2254.75 2882.78 2255.45 Q2885.56 2256.14 2888.65 2256.14 Q2893.66 2256.14 2896.58 2253.51 Q2899.5 2250.87 2899.5 2246.36 Q2899.5 2241.85 2896.58 2239.21 Q2893.66 2236.58 2888.65 2236.58 Q2886.31 2236.58 2883.96 2237.1 Q2881.65 2237.62 2879.22 2238.72 L2879.22 2217.02 Z" fill="#000000" fill-rule="nonzero" fill-opacity="1" /><path clip-path="url(#clip240)" d="M1656.58 2305.52 L1665.37 2305.52 L1680.4 2328 L1695.51 2305.52 L1704.3 2305.52 L1684.86 2334.56 L1705.6 2366 L1696.81 2366 L1679.79 2340.27 L1662.66 2366 L1653.83 2366 L1675.42 2333.71 L1656.58 2305.52 Z" fill="#000000" fill-rule="nonzero" fill-opacity="1" /><path clip-path="url(#clip240)" d="M1718.48 2359.11 L1731.85 2359.11 L1731.85 2312.97 L1717.3 2315.89 L1717.3 2308.43 L1731.77 2305.52 L1739.95 2305.52 L1739.95 2359.11 L1753.32 2359.11 L1753.32 2366 L1718.48 2366 L1718.48 2359.11 Z" fill="#000000" fill-rule="nonzero" fill-opacity="1" /><polyline clip-path="url(#clip242)" style="stroke:#000000; stroke-linecap:round; stroke-linejoin:round; stroke-width:2; stroke-opacity:0.1; fill:none" points="254.387,1958.61 3152.76,1958.61 "/>
<polyline clip-path="url(#clip242)" style="stroke:#000000; stroke-linecap:round; stroke-linejoin:round; stroke-width:2; stroke-opacity:0.1; fill:none" points="254.387,1433.93 3152.76,1433.93 "/>
<polyline clip-path="url(#clip242)" style="stroke:#000000; stroke-linecap:round; stroke-linejoin:round; stroke-width:2; stroke-opacity:0.1; fill:none" points="254.387,909.238 3152.76,909.238 "/>
<polyline clip-path="url(#clip242)" style="stroke:#000000; stroke-linecap:round; stroke-linejoin:round; stroke-width:2; stroke-opacity:0.1; fill:none" points="254.387,384.55 3152.76,384.55 "/>
<polyline clip-path="url(#clip240)" style="stroke:#000000; stroke-linecap:round; stroke-linejoin:round; stroke-width:4; stroke-opacity:1; fill:none" points="254.387,2180.62 254.387,150.472 "/>
<polyline clip-path="url(#clip240)" style="stroke:#000000; stroke-linecap:round; stroke-linejoin:round; stroke-width:4; stroke-opacity:1; fill:none" points="254.387,1958.61 273.285,1958.61 "/>
<polyline clip-path="url(#clip240)" style="stroke:#000000; stroke-linecap:round; stroke-linejoin:round; stroke-width:4; stroke-opacity:1; fill:none" points="254.387,1433.93 273.285,1433.93 "/>
<polyline clip-path="url(#clip240)" style="stroke:#000000; stroke-linecap:round; stroke-linejoin:round; stroke-width:4; stroke-opacity:1; fill:none" points="254.387,909.238 273.285,909.238 "/>
<polyline clip-path="url(#clip240)" style="stroke:#000000; stroke-linecap:round; stroke-linejoin:round; stroke-width:4; stroke-opacity:1; fill:none" points="254.387,384.55 273.285,384.55 "/>
<path clip-path="url(#clip240)" d="M131.243 1959.18 L168.338 1959.18 L168.338 1964.1 L131.243 1964.1 L131.243 1959.18 Z" fill="#000000" fill-rule="nonzero" fill-opacity="1" /><path clip-path="url(#clip240)" d="M185.988 1975.29 L206.387 1975.29 L206.387 1980.21 L178.957 1980.21 L178.957 1975.29 Q182.285 1971.85 188.014 1966.06 Q193.772 1960.25 195.247 1958.57 Q198.054 1955.42 199.154 1953.25 Q200.282 1951.05 200.282 1948.93 Q200.282 1945.49 197.852 1943.32 Q195.45 1941.15 191.573 1941.15 Q188.824 1941.15 185.757 1942.11 Q182.719 1943.06 179.246 1945 L179.246 1939.1 Q182.776 1937.68 185.844 1936.95 Q188.911 1936.23 191.457 1936.23 Q198.17 1936.23 202.163 1939.59 Q206.156 1942.94 206.156 1948.56 Q206.156 1951.22 205.143 1953.62 Q204.159 1955.99 201.526 1959.23 Q200.803 1960.07 196.926 1964.1 Q193.048 1968.09 185.988 1975.29 Z" fill="#000000" fill-rule="nonzero" fill-opacity="1" /><path clip-path="url(#clip240)" d="M130.78 1434.49 L167.875 1434.49 L167.875 1439.41 L130.78 1439.41 L130.78 1434.49 Z" fill="#000000" fill-rule="nonzero" fill-opacity="1" /><path clip-path="url(#clip240)" d="M181.503 1450.61 L191.052 1450.61 L191.052 1417.65 L180.664 1419.73 L180.664 1414.41 L190.994 1412.33 L196.839 1412.33 L196.839 1450.61 L206.387 1450.61 L206.387 1455.53 L181.503 1455.53 L181.503 1450.61 Z" fill="#000000" fill-rule="nonzero" fill-opacity="1" /><path clip-path="url(#clip240)" d="M191.457 891.486 Q186.943 891.486 184.657 895.942 Q182.4 900.369 182.4 909.281 Q182.4 918.164 184.657 922.62 Q186.943 927.047 191.457 927.047 Q196 927.047 198.257 922.62 Q200.543 918.164 200.543 909.281 Q200.543 900.369 198.257 895.942 Q196 891.486 191.457 891.486 M191.457 886.857 Q198.72 886.857 202.539 892.615 Q206.387 898.344 206.387 909.281 Q206.387 920.19 202.539 925.948 Q198.72 931.677 191.457 931.677 Q184.194 931.677 180.346 925.948 Q176.526 920.19 176.526 909.281 Q176.526 898.344 180.346 892.615 Q184.194 886.857 191.457 886.857 Z" fill="#000000" fill-rule="nonzero" fill-opacity="1" /><path clip-path="url(#clip240)" d="M181.503 401.231 L191.052 401.231 L191.052 368.274 L180.664 370.358 L180.664 365.034 L190.994 362.95 L196.839 362.95 L196.839 401.231 L206.387 401.231 L206.387 406.15 L181.503 406.15 L181.503 401.231 Z" fill="#000000" fill-rule="nonzero" fill-opacity="1" /><path clip-path="url(#clip240)" d="M4.15616 1212.21 L4.15616 1203.42 L26.6387 1188.39 L4.15616 1173.28 L4.15616 1164.49 L33.2011 1183.94 L64.6362 1163.2 L64.6362 1171.99 L38.9129 1189 L64.6362 1206.14 L64.6362 1214.97 L32.3505 1193.38 L4.15616 1212.21 Z" fill="#000000" fill-rule="nonzero" fill-opacity="1" /><path clip-path="url(#clip240)" d="M57.7496 1144.68 L57.7496 1116.12 L64.6362 1116.12 L64.6362 1154.53 L57.7496 1154.53 Q52.929 1149.87 44.8272 1141.85 Q36.6849 1133.79 34.3354 1131.72 Q29.9199 1127.79 26.8817 1126.25 Q23.803 1124.67 20.8459 1124.67 Q16.0253 1124.67 12.9871 1128.08 Q9.94895 1131.44 9.94895 1136.87 Q9.94895 1140.71 11.2857 1145.01 Q12.6225 1149.26 15.3367 1154.12 L7.07281 1154.12 Q5.08787 1149.18 4.07514 1144.89 Q3.06241 1140.59 3.06241 1137.03 Q3.06241 1127.63 7.76146 1122.04 Q12.4605 1116.45 20.3193 1116.45 Q24.0461 1116.45 27.4083 1117.87 Q30.7301 1119.24 35.2671 1122.93 Q36.4419 1123.94 42.0726 1129.37 Q47.6629 1134.8 57.7496 1144.68 Z" fill="#000000" fill-rule="nonzero" fill-opacity="1" /><path clip-path="url(#clip240)" d="M1448.52 18.1041 L1448.52 28.3644 Q1442.53 25.4999 1437.22 24.0936 Q1431.91 22.6874 1426.96 22.6874 Q1418.36 22.6874 1413.68 26.0207 Q1409.04 29.354 1409.04 35.4998 Q1409.04 40.656 1412.11 43.3123 Q1415.24 45.9164 1423.89 47.531 L1430.24 48.8331 Q1442.01 51.0726 1447.58 56.7497 Q1453.21 62.3747 1453.21 71.8538 Q1453.21 83.1558 1445.6 88.9891 Q1438.05 94.8224 1423.42 94.8224 Q1417.9 94.8224 1411.65 93.5724 Q1405.45 92.3224 1398.78 89.8745 L1398.78 79.0412 Q1405.19 82.635 1411.33 84.4579 Q1417.48 86.2808 1423.42 86.2808 Q1432.43 86.2808 1437.32 82.7391 Q1442.22 79.1975 1442.22 72.635 Q1442.22 66.9059 1438.68 63.6767 Q1435.19 60.4476 1427.17 58.833 L1420.76 57.583 Q1408.99 55.2393 1403.73 50.2393 Q1398.47 45.2393 1398.47 36.3331 Q1398.47 26.0207 1405.71 20.0832 Q1413 14.1458 1425.76 14.1458 Q1431.23 14.1458 1436.91 15.1353 Q1442.58 16.1249 1448.52 18.1041 Z" fill="#000000" fill-rule="nonzero" fill-opacity="1" /><path clip-path="url(#clip240)" d="M1511.18 37.2186 L1511.18 46.1768 Q1507.11 43.9373 1503 42.8435 Q1498.94 41.6977 1494.77 41.6977 Q1485.45 41.6977 1480.29 47.6352 Q1475.14 53.5205 1475.14 64.1976 Q1475.14 74.8746 1480.29 80.8121 Q1485.45 86.6975 1494.77 86.6975 Q1498.94 86.6975 1503 85.6037 Q1507.11 84.4579 1511.18 82.2183 L1511.18 91.0724 Q1507.17 92.9474 1502.84 93.8849 Q1498.57 94.8224 1493.73 94.8224 Q1480.55 94.8224 1472.79 86.5412 Q1465.03 78.26 1465.03 64.1976 Q1465.03 49.9268 1472.84 41.7498 Q1480.71 33.5727 1494.35 33.5727 Q1498.78 33.5727 1503 34.5102 Q1507.22 35.3956 1511.18 37.2186 Z" fill="#000000" fill-rule="nonzero" fill-opacity="1" /><path clip-path="url(#clip240)" d="M1554.35 63.9892 Q1542.74 63.9892 1538.26 66.6455 Q1533.78 69.3017 1533.78 75.7079 Q1533.78 80.8121 1537.11 83.8329 Q1540.5 86.8016 1546.28 86.8016 Q1554.25 86.8016 1559.04 81.1766 Q1563.88 75.4996 1563.88 66.1246 L1563.88 63.9892 L1554.35 63.9892 M1573.47 60.0309 L1573.47 93.312 L1563.88 93.312 L1563.88 84.4579 Q1560.6 89.7704 1555.71 92.3224 Q1550.81 94.8224 1543.73 94.8224 Q1534.77 94.8224 1529.46 89.8224 Q1524.2 84.7704 1524.2 76.3329 Q1524.2 66.4892 1530.76 61.4893 Q1537.37 56.4893 1550.45 56.4893 L1563.88 56.4893 L1563.88 55.5518 Q1563.88 48.9372 1559.51 45.3435 Q1555.19 41.6977 1547.32 41.6977 Q1542.32 41.6977 1537.58 42.8956 Q1532.84 44.0935 1528.47 46.4893 L1528.47 37.6352 Q1533.73 35.604 1538.68 34.6144 Q1543.62 33.5727 1548.31 33.5727 Q1560.97 33.5727 1567.22 40.1352 Q1573.47 46.6977 1573.47 60.0309 Z" fill="#000000" fill-rule="nonzero" fill-opacity="1" /><path clip-path="url(#clip240)" d="M1602.69 18.4166 L1602.69 34.979 L1622.43 34.979 L1622.43 42.4269 L1602.69 42.4269 L1602.69 74.0934 Q1602.69 81.2287 1604.61 83.26 Q1606.59 85.2912 1612.58 85.2912 L1622.43 85.2912 L1622.43 93.312 L1612.58 93.312 Q1601.49 93.312 1597.27 89.1974 Q1593.05 85.0308 1593.05 74.0934 L1593.05 42.4269 L1586.02 42.4269 L1586.02 34.979 L1593.05 34.979 L1593.05 18.4166 L1602.69 18.4166 Z" fill="#000000" fill-rule="nonzero" fill-opacity="1" /><path clip-path="url(#clip240)" d="M1644.51 18.4166 L1644.51 34.979 L1664.25 34.979 L1664.25 42.4269 L1644.51 42.4269 L1644.51 74.0934 Q1644.51 81.2287 1646.44 83.26 Q1648.42 85.2912 1654.41 85.2912 L1664.25 85.2912 L1664.25 93.312 L1654.41 93.312 Q1643.31 93.312 1639.09 89.1974 Q1634.87 85.0308 1634.87 74.0934 L1634.87 42.4269 L1627.84 42.4269 L1627.84 34.979 L1634.87 34.979 L1634.87 18.4166 L1644.51 18.4166 Z" fill="#000000" fill-rule="nonzero" fill-opacity="1" /><path clip-path="url(#clip240)" d="M1726.75 61.7497 L1726.75 66.4371 L1682.69 66.4371 Q1683.31 76.3329 1688.62 81.5412 Q1693.99 86.6975 1703.52 86.6975 Q1709.04 86.6975 1714.2 85.3433 Q1719.4 83.9891 1724.51 81.2808 L1724.51 90.3433 Q1719.35 92.5308 1713.94 93.6766 Q1708.52 94.8224 1702.95 94.8224 Q1688.99 94.8224 1680.81 86.6975 Q1672.69 78.5725 1672.69 64.7184 Q1672.69 50.3956 1680.39 42.0102 Q1688.16 33.5727 1701.28 33.5727 Q1713.05 33.5727 1719.87 41.1769 Q1726.75 48.7289 1726.75 61.7497 M1717.17 58.9372 Q1717.06 51.0726 1712.74 46.3852 Q1708.47 41.6977 1701.38 41.6977 Q1693.36 41.6977 1688.52 46.2289 Q1683.73 50.7601 1683 58.9893 L1717.17 58.9372 Z" fill="#000000" fill-rule="nonzero" fill-opacity="1" /><path clip-path="url(#clip240)" d="M1776.28 43.9373 Q1774.67 42.9998 1772.74 42.5831 Q1770.86 42.1144 1768.57 42.1144 Q1760.45 42.1144 1756.07 47.4268 Q1751.75 52.6872 1751.75 62.583 L1751.75 93.312 L1742.11 93.312 L1742.11 34.979 L1751.75 34.979 L1751.75 44.0414 Q1754.77 38.729 1759.61 36.1769 Q1764.46 33.5727 1771.38 33.5727 Q1772.37 33.5727 1773.57 33.729 Q1774.77 33.8332 1776.23 34.0936 L1776.28 43.9373 Z" fill="#000000" fill-rule="nonzero" fill-opacity="1" /><path clip-path="url(#clip240)" d="M1831.18 24.1978 L1831.18 53.4164 L1844.4 53.4164 Q1851.75 53.4164 1855.76 49.6143 Q1859.77 45.8123 1859.77 38.781 Q1859.77 31.8019 1855.76 27.9998 Q1851.75 24.1978 1844.4 24.1978 L1831.18 24.1978 M1820.65 15.552 L1844.4 15.552 Q1857.48 15.552 1864.14 21.4895 Q1870.86 27.3749 1870.86 38.781 Q1870.86 50.2914 1864.14 56.1768 Q1857.48 62.0622 1844.4 62.0622 L1831.18 62.0622 L1831.18 93.312 L1820.65 93.312 L1820.65 15.552 Z" fill="#000000" fill-rule="nonzero" fill-opacity="1" /><path clip-path="url(#clip240)" d="M1884.56 12.2708 L1894.14 12.2708 L1894.14 93.312 L1884.56 93.312 L1884.56 12.2708 Z" fill="#000000" fill-rule="nonzero" fill-opacity="1" /><path clip-path="url(#clip240)" d="M1936.8 41.6977 Q1929.09 41.6977 1924.61 47.7393 Q1920.13 53.7289 1920.13 64.1976 Q1920.13 74.6663 1924.56 80.7079 Q1929.04 86.6975 1936.8 86.6975 Q1944.46 86.6975 1948.93 80.6558 Q1953.41 74.6142 1953.41 64.1976 Q1953.41 53.833 1948.93 47.7914 Q1944.46 41.6977 1936.8 41.6977 M1936.8 33.5727 Q1949.3 33.5727 1956.43 41.6977 Q1963.57 49.8226 1963.57 64.1976 Q1963.57 78.5204 1956.43 86.6975 Q1949.3 94.8224 1936.8 94.8224 Q1924.25 94.8224 1917.11 86.6975 Q1910.03 78.5204 1910.03 64.1976 Q1910.03 49.8226 1917.11 41.6977 Q1924.25 33.5727 1936.8 33.5727 Z" fill="#000000" fill-rule="nonzero" fill-opacity="1" /><path clip-path="url(#clip240)" d="M1988.93 18.4166 L1988.93 34.979 L2008.67 34.979 L2008.67 42.4269 L1988.93 42.4269 L1988.93 74.0934 Q1988.93 81.2287 1990.86 83.26 Q1992.84 85.2912 1998.83 85.2912 L2008.67 85.2912 L2008.67 93.312 L1998.83 93.312 Q1987.74 93.312 1983.52 89.1974 Q1979.3 85.0308 1979.3 74.0934 L1979.3 42.4269 L1972.27 42.4269 L1972.27 34.979 L1979.3 34.979 L1979.3 18.4166 L1988.93 18.4166 Z" fill="#000000" fill-rule="nonzero" fill-opacity="1" /><circle clip-path="url(#clip242)" cx="3070.73" cy="350.414" r="14.4" fill="#009af9" fill-rule="evenodd" fill-opacity="1" stroke="#000000" stroke-opacity="1" stroke-width="4.8"/>
<circle clip-path="url(#clip242)" cx="2162.74" cy="789.914" r="14.4" fill="#009af9" fill-rule="evenodd" fill-opacity="1" stroke="#000000" stroke-opacity="1" stroke-width="4.8"/>
<circle clip-path="url(#clip242)" cx="445.751" cy="1195.18" r="14.4" fill="#009af9" fill-rule="evenodd" fill-opacity="1" stroke="#000000" stroke-opacity="1" stroke-width="4.8"/>
<circle clip-path="url(#clip242)" cx="1962.85" cy="724.958" r="14.4" fill="#009af9" fill-rule="evenodd" fill-opacity="1" stroke="#000000" stroke-opacity="1" stroke-width="4.8"/>
<circle clip-path="url(#clip242)" cx="1886.02" cy="1340.4" r="14.4" fill="#009af9" fill-rule="evenodd" fill-opacity="1" stroke="#000000" stroke-opacity="1" stroke-width="4.8"/>
<circle clip-path="url(#clip242)" cx="1866.19" cy="861.391" r="14.4" fill="#009af9" fill-rule="evenodd" fill-opacity="1" stroke="#000000" stroke-opacity="1" stroke-width="4.8"/>
<circle clip-path="url(#clip242)" cx="1791.76" cy="835.042" r="14.4" fill="#009af9" fill-rule="evenodd" fill-opacity="1" stroke="#000000" stroke-opacity="1" stroke-width="4.8"/>
<circle clip-path="url(#clip242)" cx="712.117" cy="862.328" r="14.4" fill="#009af9" fill-rule="evenodd" fill-opacity="1" stroke="#000000" stroke-opacity="1" stroke-width="4.8"/>
<circle clip-path="url(#clip242)" cx="813.243" cy="345.354" r="14.4" fill="#009af9" fill-rule="evenodd" fill-opacity="1" stroke="#000000" stroke-opacity="1" stroke-width="4.8"/>
<circle clip-path="url(#clip242)" cx="336.417" cy="1133.56" r="14.4" fill="#009af9" fill-rule="evenodd" fill-opacity="1" stroke="#000000" stroke-opacity="1" stroke-width="4.8"/>
<line clip-path="url(#clip242)" x1="2300.35" y1="694.881" x2="2300.35" y2="678.881" style="stroke:#e26f46; stroke-width:4.8; stroke-opacity:1"/>
<line clip-path="url(#clip242)" x1="2300.35" y1="694.881" x2="2284.35" y2="694.881" style="stroke:#e26f46; stroke-width:4.8; stroke-opacity:1"/>
<line clip-path="url(#clip242)" x1="2300.35" y1="694.881" x2="2300.35" y2="710.881" style="stroke:#e26f46; stroke-width:4.8; stroke-opacity:1"/>
<line clip-path="url(#clip242)" x1="2300.35" y1="694.881" x2="2316.35" y2="694.881" style="stroke:#e26f46; stroke-width:4.8; stroke-opacity:1"/>
<line clip-path="url(#clip242)" x1="519.506" y1="238.738" x2="519.506" y2="222.738" style="stroke:#e26f46; stroke-width:4.8; stroke-opacity:1"/>
<line clip-path="url(#clip242)" x1="519.506" y1="238.738" x2="503.506" y2="238.738" style="stroke:#e26f46; stroke-width:4.8; stroke-opacity:1"/>
<line clip-path="url(#clip242)" x1="519.506" y1="238.738" x2="519.506" y2="254.738" style="stroke:#e26f46; stroke-width:4.8; stroke-opacity:1"/>
<line clip-path="url(#clip242)" x1="519.506" y1="238.738" x2="535.506" y2="238.738" style="stroke:#e26f46; stroke-width:4.8; stroke-opacity:1"/>
<line clip-path="url(#clip242)" x1="1537.51" y1="1606.68" x2="1537.51" y2="1590.68" style="stroke:#e26f46; stroke-width:4.8; stroke-opacity:1"/>
<line clip-path="url(#clip242)" x1="1537.51" y1="1606.68" x2="1521.51" y2="1606.68" style="stroke:#e26f46; stroke-width:4.8; stroke-opacity:1"/>
<line clip-path="url(#clip242)" x1="1537.51" y1="1606.68" x2="1537.51" y2="1622.68" style="stroke:#e26f46; stroke-width:4.8; stroke-opacity:1"/>
<line clip-path="url(#clip242)" x1="1537.51" y1="1606.68" x2="1553.51" y2="1606.68" style="stroke:#e26f46; stroke-width:4.8; stroke-opacity:1"/>
<line clip-path="url(#clip242)" x1="1128.88" y1="1021.58" x2="1128.88" y2="1005.58" style="stroke:#e26f46; stroke-width:4.8; stroke-opacity:1"/>
<line clip-path="url(#clip242)" x1="1128.88" y1="1021.58" x2="1112.88" y2="1021.58" style="stroke:#e26f46; stroke-width:4.8; stroke-opacity:1"/>
<line clip-path="url(#clip242)" x1="1128.88" y1="1021.58" x2="1128.88" y2="1037.58" style="stroke:#e26f46; stroke-width:4.8; stroke-opacity:1"/>
<line clip-path="url(#clip242)" x1="1128.88" y1="1021.58" x2="1144.88" y2="1021.58" style="stroke:#e26f46; stroke-width:4.8; stroke-opacity:1"/>
<line clip-path="url(#clip242)" x1="1920.37" y1="1591.29" x2="1920.37" y2="1575.29" style="stroke:#e26f46; stroke-width:4.8; stroke-opacity:1"/>
<line clip-path="url(#clip242)" x1="1920.37" y1="1591.29" x2="1904.37" y2="1591.29" style="stroke:#e26f46; stroke-width:4.8; stroke-opacity:1"/>
<line clip-path="url(#clip242)" x1="1920.37" y1="1591.29" x2="1920.37" y2="1607.29" style="stroke:#e26f46; stroke-width:4.8; stroke-opacity:1"/>
<line clip-path="url(#clip242)" x1="1920.37" y1="1591.29" x2="1936.37" y2="1591.29" style="stroke:#e26f46; stroke-width:4.8; stroke-opacity:1"/>
<line clip-path="url(#clip242)" x1="1584.44" y1="207.929" x2="1584.44" y2="191.929" style="stroke:#e26f46; stroke-width:4.8; stroke-opacity:1"/>
<line clip-path="url(#clip242)" x1="1584.44" y1="207.929" x2="1568.44" y2="207.929" style="stroke:#e26f46; stroke-width:4.8; stroke-opacity:1"/>
<line clip-path="url(#clip242)" x1="1584.44" y1="207.929" x2="1584.44" y2="223.929" style="stroke:#e26f46; stroke-width:4.8; stroke-opacity:1"/>
<line clip-path="url(#clip242)" x1="1584.44" y1="207.929" x2="1600.44" y2="207.929" style="stroke:#e26f46; stroke-width:4.8; stroke-opacity:1"/>
<line clip-path="url(#clip242)" x1="2777.63" y1="1442.33" x2="2777.63" y2="1426.33" style="stroke:#e26f46; stroke-width:4.8; stroke-opacity:1"/>
<line clip-path="url(#clip242)" x1="2777.63" y1="1442.33" x2="2761.63" y2="1442.33" style="stroke:#e26f46; stroke-width:4.8; stroke-opacity:1"/>
<line clip-path="url(#clip242)" x1="2777.63" y1="1442.33" x2="2777.63" y2="1458.33" style="stroke:#e26f46; stroke-width:4.8; stroke-opacity:1"/>
<line clip-path="url(#clip242)" x1="2777.63" y1="1442.33" x2="2793.63" y2="1442.33" style="stroke:#e26f46; stroke-width:4.8; stroke-opacity:1"/>
<line clip-path="url(#clip242)" x1="2063.3" y1="2123.16" x2="2063.3" y2="2107.16" style="stroke:#e26f46; stroke-width:4.8; stroke-opacity:1"/>
<line clip-path="url(#clip242)" x1="2063.3" y1="2123.16" x2="2047.3" y2="2123.16" style="stroke:#e26f46; stroke-width:4.8; stroke-opacity:1"/>
<line clip-path="url(#clip242)" x1="2063.3" y1="2123.16" x2="2063.3" y2="2139.16" style="stroke:#e26f46; stroke-width:4.8; stroke-opacity:1"/>
<line clip-path="url(#clip242)" x1="2063.3" y1="2123.16" x2="2079.3" y2="2123.16" style="stroke:#e26f46; stroke-width:4.8; stroke-opacity:1"/>
<line clip-path="url(#clip242)" x1="635.045" y1="764.927" x2="635.045" y2="748.927" style="stroke:#e26f46; stroke-width:4.8; stroke-opacity:1"/>
<line clip-path="url(#clip242)" x1="635.045" y1="764.927" x2="619.045" y2="764.927" style="stroke:#e26f46; stroke-width:4.8; stroke-opacity:1"/>
<line clip-path="url(#clip242)" x1="635.045" y1="764.927" x2="635.045" y2="780.927" style="stroke:#e26f46; stroke-width:4.8; stroke-opacity:1"/>
<line clip-path="url(#clip242)" x1="635.045" y1="764.927" x2="651.045" y2="764.927" style="stroke:#e26f46; stroke-width:4.8; stroke-opacity:1"/>
<line clip-path="url(#clip242)" x1="1532.54" y1="714.498" x2="1532.54" y2="698.498" style="stroke:#e26f46; stroke-width:4.8; stroke-opacity:1"/>
<line clip-path="url(#clip242)" x1="1532.54" y1="714.498" x2="1516.54" y2="714.498" style="stroke:#e26f46; stroke-width:4.8; stroke-opacity:1"/>
<line clip-path="url(#clip242)" x1="1532.54" y1="714.498" x2="1532.54" y2="730.498" style="stroke:#e26f46; stroke-width:4.8; stroke-opacity:1"/>
<line clip-path="url(#clip242)" x1="1532.54" y1="714.498" x2="1548.54" y2="714.498" style="stroke:#e26f46; stroke-width:4.8; stroke-opacity:1"/>
<path clip-path="url(#clip240)" d="M2629.73 2112.95 L3056.14 2112.95 L3056.14 1918.55 L2629.73 1918.55  Z" fill="#ffffff" fill-rule="evenodd" fill-opacity="1"/>
<polyline clip-path="url(#clip240)" style="stroke:#000000; stroke-linecap:round; stroke-linejoin:round; stroke-width:4; stroke-opacity:1; fill:none" points="2629.73,2112.95 3056.14,2112.95 3056.14,1918.55 2629.73,1918.55 2629.73,2112.95 "/>
<circle clip-path="url(#clip240)" cx="2758.55" cy="1983.35" r="25.6" fill="#009af9" fill-rule="evenodd" fill-opacity="1" stroke="#000000" stroke-opacity="1" stroke-width="8.53333"/>
<path clip-path="url(#clip240)" d="M2904.67 2007.96 Q2902.41 2013.74 2900.27 2015.51 Q2898.13 2017.27 2894.54 2017.27 L2890.29 2017.27 L2890.29 2012.82 L2893.41 2012.82 Q2895.61 2012.82 2896.83 2011.78 Q2898.04 2010.74 2899.52 2006.86 L2900.47 2004.43 L2887.37 1972.54 L2893.01 1972.54 L2903.14 1997.89 L2913.26 1972.54 L2918.91 1972.54 L2904.67 2007.96 Z" fill="#000000" fill-rule="nonzero" fill-opacity="1" /><path clip-path="url(#clip240)" d="M2926.95 1978.04 L2964.04 1978.04 L2964.04 1982.9 L2926.95 1982.9 L2926.95 1978.04 M2926.95 1989.84 L2964.04 1989.84 L2964.04 1994.76 L2926.95 1994.76 L2926.95 1989.84 Z" fill="#000000" fill-rule="nonzero" fill-opacity="1" /><path clip-path="url(#clip240)" d="M2973.22 1986.34 L2988.81 1986.34 L2988.81 1991.09 L2973.22 1991.09 L2973.22 1986.34 Z" fill="#000000" fill-rule="nonzero" fill-opacity="1" /><path clip-path="url(#clip240)" d="M2999.06 2000.03 L3008.6 2000.03 L3008.6 1967.07 L2998.22 1969.16 L2998.22 1963.83 L3008.55 1961.75 L3014.39 1961.75 L3014.39 2000.03 L3023.94 2000.03 L3023.94 2004.95 L2999.06 2004.95 L2999.06 2000.03 Z" fill="#000000" fill-rule="nonzero" fill-opacity="1" /><line clip-path="url(#clip240)" x1="2758.55" y1="2048.15" x2="2758.55" y2="2019.7" style="stroke:#e26f46; stroke-width:8.53333; stroke-opacity:1"/>
<line clip-path="url(#clip240)" x1="2758.55" y1="2048.15" x2="2730.11" y2="2048.15" style="stroke:#e26f46; stroke-width:8.53333; stroke-opacity:1"/>
<line clip-path="url(#clip240)" x1="2758.55" y1="2048.15" x2="2758.55" y2="2076.59" style="stroke:#e26f46; stroke-width:8.53333; stroke-opacity:1"/>
<line clip-path="url(#clip240)" x1="2758.55" y1="2048.15" x2="2786.99" y2="2048.15" style="stroke:#e26f46; stroke-width:8.53333; stroke-opacity:1"/>
<path clip-path="url(#clip240)" d="M2904.67 2072.76 Q2902.41 2078.54 2900.27 2080.31 Q2898.13 2082.07 2894.54 2082.07 L2890.29 2082.07 L2890.29 2077.62 L2893.41 2077.62 Q2895.61 2077.62 2896.83 2076.58 Q2898.04 2075.54 2899.52 2071.66 L2900.47 2069.23 L2887.37 2037.34 L2893.01 2037.34 L2903.14 2062.69 L2913.26 2037.34 L2918.91 2037.34 L2904.67 2072.76 Z" fill="#000000" fill-rule="nonzero" fill-opacity="1" /><path clip-path="url(#clip240)" d="M2926.95 2042.84 L2964.04 2042.84 L2964.04 2047.7 L2926.95 2047.7 L2926.95 2042.84 M2926.95 2054.64 L2964.04 2054.64 L2964.04 2059.56 L2926.95 2059.56 L2926.95 2054.64 Z" fill="#000000" fill-rule="nonzero" fill-opacity="1" /><path clip-path="url(#clip240)" d="M2977.67 2064.83 L2987.22 2064.83 L2987.22 2031.87 L2976.83 2033.96 L2976.83 2028.63 L2987.16 2026.55 L2993.01 2026.55 L2993.01 2064.83 L3002.56 2064.83 L3002.56 2069.75 L2977.67 2069.75 L2977.67 2064.83 Z" fill="#000000" fill-rule="nonzero" fill-opacity="1" /></svg>
