<?xml version="1.0" encoding="utf-8"?>
<svg xmlns="http://www.w3.org/2000/svg" xmlns:xlink="http://www.w3.org/1999/xlink" width="600" height="400" viewBox="0 0 2400 1600">
<defs>
  <clipPath id="clip090">
    <rect x="0" y="0" width="2400" height="1600"/>
  </clipPath>
</defs>
<path clip-path="url(#clip090)" d="M0 1600 L2400 1600 L2400 0 L0 0  Z" fill="#ffffff" fill-rule="evenodd" fill-opacity="1"/>
<defs>
  <clipPath id="clip091">
    <rect x="480" y="0" width="1681" height="1600"/>
  </clipPath>
</defs>
<path clip-path="url(#clip090)" d="M228.492 1436.14 L2352.76 1436.14 L2352.76 47.2441 L228.492 47.2441  Z" fill="#ffffff" fill-rule="evenodd" fill-opacity="1"/>
<defs>
  <clipPath id="clip092">
    <rect x="228" y="47" width="2125" height="1390"/>
  </clipPath>
</defs>
<polyline clip-path="url(#clip092)" style="stroke:#000000; stroke-linecap:round; stroke-linejoin:round; stroke-width:2; stroke-opacity:0.1; fill:none" points="288.612,1436.14 288.612,47.2441 "/>
<polyline clip-path="url(#clip092)" style="stroke:#000000; stroke-linecap:round; stroke-linejoin:round; stroke-width:2; stroke-opacity:0.1; fill:none" points="789.618,1436.14 789.618,47.2441 "/>
<polyline clip-path="url(#clip092)" style="stroke:#000000; stroke-linecap:round; stroke-linejoin:round; stroke-width:2; stroke-opacity:0.1; fill:none" points="1290.62,1436.14 1290.62,47.2441 "/>
<polyline clip-path="url(#clip092)" style="stroke:#000000; stroke-linecap:round; stroke-linejoin:round; stroke-width:2; stroke-opacity:0.1; fill:none" points="1791.63,1436.14 1791.63,47.2441 "/>
<polyline clip-path="url(#clip092)" style="stroke:#000000; stroke-linecap:round; stroke-linejoin:round; stroke-width:2; stroke-opacity:0.1; fill:none" points="2292.64,1436.14 2292.64,47.2441 "/>
<polyline clip-path="url(#clip090)" style="stroke:#000000; stroke-linecap:round; stroke-linejoin:round; stroke-width:4; stroke-opacity:1; fill:none" points="228.492,1436.14 2352.76,1436.14 "/>
<polyline clip-path="url(#clip090)" style="stroke:#000000; stroke-linecap:round; stroke-linejoin:round; stroke-width:4; stroke-opacity:1; fill:none" points="288.612,1436.14 288.612,1417.24 "/>
<polyline clip-path="url(#clip090)" style="stroke:#000000; stroke-linecap:round; stroke-linejoin:round; stroke-width:4; stroke-opacity:1; fill:none" points="789.618,1436.14 789.618,1417.24 "/>
<polyline clip-path="url(#clip090)" style="stroke:#000000; stroke-linecap:round; stroke-linejoin:round; stroke-width:4; stroke-opacity:1; fill:none" points="1290.62,1436.14 1290.62,1417.24 "/>
<polyline clip-path="url(#clip090)" style="stroke:#000000; stroke-linecap:round; stroke-linejoin:round; stroke-width:4; stroke-opacity:1; fill:none" points="1791.63,1436.14 1791.63,1417.24 "/>
<polyline clip-path="url(#clip090)" style="stroke:#000000; stroke-linecap:round; stroke-linejoin:round; stroke-width:4; stroke-opacity:1; fill:none" points="2292.64,1436.14 2292.64,1417.24 "/>
<path clip-path="url(#clip090)" d="M255.628 1465.59 Q252.468 1465.59 250.868 1468.71 Q249.288 1471.81 249.288 1478.05 Q249.288 1484.27 250.868 1487.39 Q252.468 1490.49 255.628 1490.49 Q258.808 1490.49 260.388 1487.39 Q261.988 1484.27 261.988 1478.05 Q261.988 1471.81 260.388 1468.71 Q258.808 1465.59 255.628 1465.59 M255.628 1462.35 Q260.712 1462.35 263.385 1466.38 Q266.079 1470.39 266.079 1478.05 Q266.079 1485.69 263.385 1489.72 Q260.712 1493.73 255.628 1493.73 Q250.544 1493.73 247.85 1489.72 Q245.177 1485.69 245.177 1478.05 Q245.177 1470.39 247.85 1466.38 Q250.544 1462.35 255.628 1462.35 Z" fill="#000000" fill-rule="nonzero" fill-opacity="1" /><path clip-path="url(#clip090)" d="M273.27 1488 L277.543 1488 L277.543 1493.14 L273.27 1493.14 L273.27 1488 Z" fill="#000000" fill-rule="nonzero" fill-opacity="1" /><path clip-path="url(#clip090)" d="M295.205 1465.59 Q292.046 1465.59 290.446 1468.71 Q288.866 1471.81 288.866 1478.05 Q288.866 1484.27 290.446 1487.39 Q292.046 1490.49 295.205 1490.49 Q298.385 1490.49 299.965 1487.39 Q301.565 1484.27 301.565 1478.05 Q301.565 1471.81 299.965 1468.71 Q298.385 1465.59 295.205 1465.59 M295.205 1462.35 Q300.289 1462.35 302.963 1466.38 Q305.657 1470.39 305.657 1478.05 Q305.657 1485.69 302.963 1489.72 Q300.289 1493.73 295.205 1493.73 Q290.121 1493.73 287.428 1489.72 Q284.754 1485.69 284.754 1478.05 Q284.754 1470.39 287.428 1466.38 Q290.121 1462.35 295.205 1462.35 Z" fill="#000000" fill-rule="nonzero" fill-opacity="1" /><path clip-path="url(#clip090)" d="M321.597 1465.59 Q318.437 1465.59 316.837 1468.71 Q315.257 1471.81 315.257 1478.05 Q315.257 1484.27 316.837 1487.39 Q318.437 1490.49 321.597 1490.49 Q324.777 1490.49 326.357 1487.39 Q327.957 1484.27 327.957 1478.05 Q327.957 1471.81 326.357 1468.71 Q324.777 1465.59 321.597 1465.59 M321.597 1462.35 Q326.681 1462.35 329.354 1466.38 Q332.048 1470.39 332.048 1478.05 Q332.048 1485.69 329.354 1489.72 Q326.681 1493.73 321.597 1493.73 Q316.513 1493.73 313.819 1489.72 Q311.146 1485.69 311.146 1478.05 Q311.146 1470.39 313.819 1466.38 Q316.513 1462.35 321.597 1462.35 Z" fill="#000000" fill-rule="nonzero" fill-opacity="1" /><path clip-path="url(#clip090)" d="M757.069 1465.59 Q753.909 1465.59 752.309 1468.71 Q750.729 1471.81 750.729 1478.05 Q750.729 1484.27 752.309 1487.39 Q753.909 1490.49 757.069 1490.49 Q760.249 1490.49 761.829 1487.39 Q763.429 1484.27 763.429 1478.05 Q763.429 1471.81 761.829 1468.71 Q760.249 1465.59 757.069 1465.59 M757.069 1462.35 Q762.153 1462.35 764.827 1466.38 Q767.52 1470.39 767.52 1478.05 Q767.52 1485.69 764.827 1489.72 Q762.153 1493.73 757.069 1493.73 Q751.985 1493.73 749.291 1489.72 Q746.618 1485.69 746.618 1478.05 Q746.618 1470.39 749.291 1466.38 Q751.985 1462.35 757.069 1462.35 Z" fill="#000000" fill-rule="nonzero" fill-opacity="1" /><path clip-path="url(#clip090)" d="M774.711 1488 L778.985 1488 L778.985 1493.14 L774.711 1493.14 L774.711 1488 Z" fill="#000000" fill-rule="nonzero" fill-opacity="1" /><path clip-path="url(#clip090)" d="M791.421 1489.7 L805.7 1489.7 L805.7 1493.14 L786.499 1493.14 L786.499 1489.7 Q788.828 1487.29 792.839 1483.24 Q796.869 1479.16 797.902 1477.99 Q799.867 1475.78 800.637 1474.26 Q801.427 1472.72 801.427 1471.24 Q801.427 1468.83 799.725 1467.32 Q798.044 1465.8 795.33 1465.8 Q793.406 1465.8 791.259 1466.46 Q789.132 1467.13 786.702 1468.49 L786.702 1464.36 Q789.173 1463.37 791.32 1462.86 Q793.467 1462.35 795.249 1462.35 Q799.948 1462.35 802.743 1464.7 Q805.538 1467.05 805.538 1470.98 Q805.538 1472.84 804.829 1474.53 Q804.141 1476.19 802.297 1478.46 Q801.791 1479.04 799.077 1481.86 Q796.363 1484.65 791.421 1489.7 Z" fill="#000000" fill-rule="nonzero" fill-opacity="1" /><path clip-path="url(#clip090)" d="M814.329 1462.9 L830.391 1462.9 L830.391 1466.34 L818.076 1466.34 L818.076 1473.76 Q818.967 1473.45 819.858 1473.31 Q820.749 1473.15 821.641 1473.15 Q826.704 1473.15 829.661 1475.92 Q832.619 1478.7 832.619 1483.44 Q832.619 1488.32 829.58 1491.03 Q826.542 1493.73 821.013 1493.73 Q819.109 1493.73 817.124 1493.4 Q815.159 1493.08 813.053 1492.43 L813.053 1488.32 Q814.876 1489.31 816.82 1489.8 Q818.764 1490.28 820.932 1490.28 Q824.436 1490.28 826.481 1488.44 Q828.527 1486.6 828.527 1483.44 Q828.527 1480.28 826.481 1478.44 Q824.436 1476.59 820.932 1476.59 Q819.291 1476.59 817.65 1476.96 Q816.03 1477.32 814.329 1478.09 L814.329 1462.9 Z" fill="#000000" fill-rule="nonzero" fill-opacity="1" /><path clip-path="url(#clip090)" d="M1257.64 1465.59 Q1254.48 1465.59 1252.88 1468.71 Q1251.3 1471.81 1251.3 1478.05 Q1251.3 1484.27 1252.88 1487.39 Q1254.48 1490.49 1257.64 1490.49 Q1260.82 1490.49 1262.4 1487.39 Q1264 1484.27 1264 1478.05 Q1264 1471.81 1262.4 1468.71 Q1260.82 1465.59 1257.64 1465.59 M1257.64 1462.35 Q1262.72 1462.35 1265.4 1466.38 Q1268.09 1470.39 1268.09 1478.05 Q1268.09 1485.69 1265.4 1489.72 Q1262.72 1493.73 1257.64 1493.73 Q1252.56 1493.73 1249.86 1489.72 Q1247.19 1485.69 1247.19 1478.05 Q1247.19 1470.39 1249.86 1466.38 Q1252.56 1462.35 1257.64 1462.35 Z" fill="#000000" fill-rule="nonzero" fill-opacity="1" /><path clip-path="url(#clip090)" d="M1275.28 1488 L1279.55 1488 L1279.55 1493.14 L1275.28 1493.14 L1275.28 1488 Z" fill="#000000" fill-rule="nonzero" fill-opacity="1" /><path clip-path="url(#clip090)" d="M1288.51 1462.9 L1304.57 1462.9 L1304.57 1466.34 L1292.25 1466.34 L1292.25 1473.76 Q1293.15 1473.45 1294.04 1473.31 Q1294.93 1473.15 1295.82 1473.15 Q1300.88 1473.15 1303.84 1475.92 Q1306.8 1478.7 1306.8 1483.44 Q1306.8 1488.32 1303.76 1491.03 Q1300.72 1493.73 1295.19 1493.73 Q1293.29 1493.73 1291.3 1493.4 Q1289.34 1493.08 1287.23 1492.43 L1287.23 1488.32 Q1289.05 1489.31 1291 1489.8 Q1292.94 1490.28 1295.11 1490.28 Q1298.61 1490.28 1300.66 1488.44 Q1302.71 1486.6 1302.71 1483.44 Q1302.71 1480.28 1300.66 1478.44 Q1298.61 1476.59 1295.11 1476.59 Q1293.47 1476.59 1291.83 1476.96 Q1290.21 1477.32 1288.51 1478.09 L1288.51 1462.9 Z" fill="#000000" fill-rule="nonzero" fill-opacity="1" /><path clip-path="url(#clip090)" d="M1323.61 1465.59 Q1320.45 1465.59 1318.85 1468.71 Q1317.27 1471.81 1317.27 1478.05 Q1317.27 1484.27 1318.85 1487.39 Q1320.45 1490.49 1323.61 1490.49 Q1326.79 1490.49 1328.37 1487.39 Q1329.97 1484.27 1329.97 1478.05 Q1329.97 1471.81 1328.37 1468.71 Q1326.79 1465.59 1323.61 1465.59 M1323.61 1462.35 Q1328.69 1462.35 1331.37 1466.38 Q1334.06 1470.39 1334.06 1478.05 Q1334.06 1485.69 1331.37 1489.72 Q1328.69 1493.73 1323.61 1493.73 Q1318.52 1493.73 1315.83 1489.72 Q1313.16 1485.69 1313.16 1478.05 Q1313.16 1470.39 1315.83 1466.38 Q1318.52 1462.35 1323.61 1462.35 Z" fill="#000000" fill-rule="nonzero" fill-opacity="1" /><path clip-path="url(#clip090)" d="M1759.08 1465.59 Q1755.92 1465.59 1754.32 1468.71 Q1752.74 1471.81 1752.74 1478.05 Q1752.74 1484.27 1754.32 1487.39 Q1755.92 1490.49 1759.08 1490.49 Q1762.26 1490.49 1763.84 1487.39 Q1765.44 1484.27 1765.44 1478.05 Q1765.44 1471.81 1763.84 1468.71 Q1762.26 1465.59 1759.08 1465.59 M1759.08 1462.35 Q1764.16 1462.35 1766.84 1466.38 Q1769.53 1470.39 1769.53 1478.05 Q1769.53 1485.69 1766.84 1489.72 Q1764.16 1493.73 1759.08 1493.73 Q1754 1493.73 1751.3 1489.72 Q1748.63 1485.69 1748.63 1478.05 Q1748.63 1470.39 1751.3 1466.38 Q1754 1462.35 1759.08 1462.35 Z" fill="#000000" fill-rule="nonzero" fill-opacity="1" /><path clip-path="url(#clip090)" d="M1776.72 1488 L1781 1488 L1781 1493.14 L1776.72 1493.14 L1776.72 1488 Z" fill="#000000" fill-rule="nonzero" fill-opacity="1" /><path clip-path="url(#clip090)" d="M1788.87 1462.9 L1808.32 1462.9 L1808.32 1464.64 L1797.34 1493.14 L1793.07 1493.14 L1803.4 1466.34 L1788.87 1466.34 L1788.87 1462.9 Z" fill="#000000" fill-rule="nonzero" fill-opacity="1" /><path clip-path="url(#clip090)" d="M1816.34 1462.9 L1832.4 1462.9 L1832.4 1466.34 L1820.09 1466.34 L1820.09 1473.76 Q1820.98 1473.45 1821.87 1473.31 Q1822.76 1473.15 1823.65 1473.15 Q1828.72 1473.15 1831.67 1475.92 Q1834.63 1478.7 1834.63 1483.44 Q1834.63 1488.32 1831.59 1491.03 Q1828.55 1493.73 1823.02 1493.73 Q1821.12 1493.73 1819.14 1493.4 Q1817.17 1493.08 1815.06 1492.43 L1815.06 1488.32 Q1816.89 1489.31 1818.83 1489.8 Q1820.78 1490.28 1822.94 1490.28 Q1826.45 1490.28 1828.49 1488.44 Q1830.54 1486.6 1830.54 1483.44 Q1830.54 1480.28 1828.49 1478.44 Q1826.45 1476.59 1822.94 1476.59 Q1821.3 1476.59 1819.66 1476.96 Q1818.04 1477.32 1816.34 1478.09 L1816.34 1462.9 Z" fill="#000000" fill-rule="nonzero" fill-opacity="1" /><path clip-path="url(#clip090)" d="M2250.7 1489.7 L2257.38 1489.7 L2257.38 1466.63 L2250.11 1468.08 L2250.11 1464.36 L2257.34 1462.9 L2261.43 1462.9 L2261.43 1489.7 L2268.12 1489.7 L2268.12 1493.14 L2250.7 1493.14 L2250.7 1489.7 Z" fill="#000000" fill-rule="nonzero" fill-opacity="1" /><path clip-path="url(#clip090)" d="M2276.38 1488 L2280.65 1488 L2280.65 1493.14 L2276.38 1493.14 L2276.38 1488 Z" fill="#000000" fill-rule="nonzero" fill-opacity="1" /><path clip-path="url(#clip090)" d="M2298.32 1465.59 Q2295.16 1465.59 2293.56 1468.71 Q2291.98 1471.81 2291.98 1478.05 Q2291.98 1484.27 2293.56 1487.39 Q2295.16 1490.49 2298.32 1490.49 Q2301.5 1490.49 2303.08 1487.39 Q2304.68 1484.27 2304.68 1478.05 Q2304.68 1471.81 2303.08 1468.71 Q2301.5 1465.59 2298.32 1465.59 M2298.32 1462.35 Q2303.4 1462.35 2306.07 1466.38 Q2308.77 1470.39 2308.77 1478.05 Q2308.77 1485.69 2306.07 1489.72 Q2303.4 1493.73 2298.32 1493.73 Q2293.23 1493.73 2290.54 1489.72 Q2287.87 1485.69 2287.87 1478.05 Q2287.87 1470.39 2290.54 1466.38 Q2293.23 1462.35 2298.32 1462.35 Z" fill="#000000" fill-rule="nonzero" fill-opacity="1" /><path clip-path="url(#clip090)" d="M2324.71 1465.59 Q2321.55 1465.59 2319.95 1468.71 Q2318.37 1471.81 2318.37 1478.05 Q2318.37 1484.27 2319.95 1487.39 Q2321.55 1490.49 2324.71 1490.49 Q2327.89 1490.49 2329.47 1487.39 Q2331.07 1484.27 2331.07 1478.05 Q2331.07 1471.81 2329.47 1468.71 Q2327.89 1465.59 2324.71 1465.59 M2324.71 1462.35 Q2329.79 1462.35 2332.47 1466.38 Q2335.16 1470.39 2335.16 1478.05 Q2335.16 1485.69 2332.47 1489.72 Q2329.79 1493.73 2324.71 1493.73 Q2319.62 1493.73 2316.93 1489.72 Q2314.26 1485.69 2314.26 1478.05 Q2314.26 1470.39 2316.93 1466.38 Q2319.62 1462.35 2324.71 1462.35 Z" fill="#000000" fill-rule="nonzero" fill-opacity="1" /><path clip-path="url(#clip090)" d="M1072.07 1523.64 L1072.07 1527.62 L1067.49 1527.62 Q1064.91 1527.62 1063.89 1528.66 Q1062.9 1529.7 1062.9 1532.41 L1062.9 1534.99 L1070.79 1534.99 L1070.79 1538.71 L1062.9 1538.71 L1062.9 1564.16 L1058.09 1564.16 L1058.09 1538.71 L1053.5 1538.71 L1053.5 1534.99 L1058.09 1534.99 L1058.09 1532.96 Q1058.09 1528.09 1060.35 1525.87 Q1062.62 1523.64 1067.54 1523.64 L1072.07 1523.64 Z" fill="#000000" fill-rule="nonzero" fill-opacity="1" /><path clip-path="url(#clip090)" d="M1089.34 1549.49 Q1083.53 1549.49 1081.29 1550.82 Q1079.05 1552.15 1079.05 1555.35 Q1079.05 1557.91 1080.72 1559.42 Q1082.41 1560.9 1085.3 1560.9 Q1089.28 1560.9 1091.68 1558.09 Q1094.1 1555.25 1094.1 1550.56 L1094.1 1549.49 L1089.34 1549.49 M1098.89 1547.52 L1098.89 1564.16 L1094.1 1564.16 L1094.1 1559.73 Q1092.46 1562.39 1090.01 1563.66 Q1087.57 1564.91 1084.02 1564.91 Q1079.54 1564.91 1076.89 1562.41 Q1074.26 1559.89 1074.26 1555.67 Q1074.26 1550.74 1077.54 1548.24 Q1080.85 1545.74 1087.38 1545.74 L1094.1 1545.74 L1094.1 1545.28 Q1094.1 1541.97 1091.91 1540.17 Q1089.75 1538.35 1085.82 1538.35 Q1083.32 1538.35 1080.95 1538.95 Q1078.58 1539.55 1076.39 1540.74 L1076.39 1536.32 Q1079.02 1535.3 1081.5 1534.81 Q1083.97 1534.29 1086.32 1534.29 Q1092.64 1534.29 1095.77 1537.57 Q1098.89 1540.85 1098.89 1547.52 Z" fill="#000000" fill-rule="nonzero" fill-opacity="1" /><path clip-path="url(#clip090)" d="M1108.76 1523.64 L1113.55 1523.64 L1113.55 1564.16 L1108.76 1564.16 L1108.76 1523.64 Z" fill="#000000" fill-rule="nonzero" fill-opacity="1" /><path clip-path="url(#clip090)" d="M1142.17 1535.85 L1142.17 1540.38 Q1140.14 1539.34 1137.96 1538.82 Q1135.77 1538.3 1133.42 1538.3 Q1129.86 1538.3 1128.06 1539.39 Q1126.29 1540.48 1126.29 1542.67 Q1126.29 1544.34 1127.56 1545.3 Q1128.84 1546.24 1132.7 1547.1 L1134.34 1547.46 Q1139.44 1548.56 1141.58 1550.56 Q1143.74 1552.54 1143.74 1556.11 Q1143.74 1560.17 1140.51 1562.54 Q1137.3 1564.91 1131.68 1564.91 Q1129.34 1564.91 1126.78 1564.44 Q1124.26 1564 1121.45 1563.09 L1121.45 1558.14 Q1124.1 1559.52 1126.68 1560.22 Q1129.26 1560.9 1131.78 1560.9 Q1135.17 1560.9 1136.99 1559.75 Q1138.81 1558.58 1138.81 1556.47 Q1138.81 1554.52 1137.49 1553.48 Q1136.18 1552.44 1131.73 1551.47 L1130.06 1551.08 Q1125.61 1550.15 1123.63 1548.22 Q1121.65 1546.27 1121.65 1542.88 Q1121.65 1538.77 1124.57 1536.53 Q1127.49 1534.29 1132.85 1534.29 Q1135.51 1534.29 1137.85 1534.68 Q1140.19 1535.07 1142.17 1535.85 Z" fill="#000000" fill-rule="nonzero" fill-opacity="1" /><path clip-path="url(#clip090)" d="M1176.31 1548.37 L1176.31 1550.72 L1154.28 1550.72 Q1154.6 1555.67 1157.25 1558.27 Q1159.93 1560.85 1164.7 1560.85 Q1167.46 1560.85 1170.04 1560.17 Q1172.64 1559.49 1175.19 1558.14 L1175.19 1562.67 Q1172.62 1563.77 1169.91 1564.34 Q1167.2 1564.91 1164.41 1564.91 Q1157.43 1564.91 1153.35 1560.85 Q1149.28 1556.79 1149.28 1549.86 Q1149.28 1542.7 1153.14 1538.5 Q1157.02 1534.29 1163.58 1534.29 Q1169.47 1534.29 1172.88 1538.09 Q1176.31 1541.86 1176.31 1548.37 M1171.52 1546.97 Q1171.47 1543.04 1169.31 1540.69 Q1167.17 1538.35 1163.63 1538.35 Q1159.62 1538.35 1157.2 1540.61 Q1154.8 1542.88 1154.44 1546.99 L1171.52 1546.97 Z" fill="#000000" fill-rule="nonzero" fill-opacity="1" /><path clip-path="url(#clip090)" d="M1205.77 1559.78 L1205.77 1575.25 L1200.95 1575.25 L1200.95 1534.99 L1205.77 1534.99 L1205.77 1539.42 Q1207.28 1536.81 1209.57 1535.56 Q1211.89 1534.29 1215.09 1534.29 Q1220.4 1534.29 1223.71 1538.5 Q1227.04 1542.72 1227.04 1549.6 Q1227.04 1556.47 1223.71 1560.69 Q1220.4 1564.91 1215.09 1564.91 Q1211.89 1564.91 1209.57 1563.66 Q1207.28 1562.39 1205.77 1559.78 M1222.07 1549.6 Q1222.07 1544.31 1219.88 1541.32 Q1217.72 1538.3 1213.92 1538.3 Q1210.12 1538.3 1207.93 1541.32 Q1205.77 1544.31 1205.77 1549.6 Q1205.77 1554.89 1207.93 1557.91 Q1210.12 1560.9 1213.92 1560.9 Q1217.72 1560.9 1219.88 1557.91 Q1222.07 1554.89 1222.07 1549.6 Z" fill="#000000" fill-rule="nonzero" fill-opacity="1" /><path clip-path="url(#clip090)" d="M1246.29 1538.35 Q1242.43 1538.35 1240.19 1541.37 Q1237.95 1544.36 1237.95 1549.6 Q1237.95 1554.83 1240.17 1557.85 Q1242.41 1560.85 1246.29 1560.85 Q1250.12 1560.85 1252.36 1557.83 Q1254.6 1554.81 1254.6 1549.6 Q1254.6 1544.42 1252.36 1541.4 Q1250.12 1538.35 1246.29 1538.35 M1246.29 1534.29 Q1252.54 1534.29 1256.11 1538.35 Q1259.67 1542.41 1259.67 1549.6 Q1259.67 1556.76 1256.11 1560.85 Q1252.54 1564.91 1246.29 1564.91 Q1240.01 1564.91 1236.44 1560.85 Q1232.9 1556.76 1232.9 1549.6 Q1232.9 1542.41 1236.44 1538.35 Q1240.01 1534.29 1246.29 1534.29 Z" fill="#000000" fill-rule="nonzero" fill-opacity="1" /><path clip-path="url(#clip090)" d="M1286.21 1535.85 L1286.21 1540.38 Q1284.18 1539.34 1281.99 1538.82 Q1279.8 1538.3 1277.46 1538.3 Q1273.89 1538.3 1272.1 1539.39 Q1270.32 1540.48 1270.32 1542.67 Q1270.32 1544.34 1271.6 1545.3 Q1272.88 1546.24 1276.73 1547.1 L1278.37 1547.46 Q1283.48 1548.56 1285.61 1550.56 Q1287.77 1552.54 1287.77 1556.11 Q1287.77 1560.17 1284.54 1562.54 Q1281.34 1564.91 1275.72 1564.91 Q1273.37 1564.91 1270.82 1564.44 Q1268.29 1564 1265.48 1563.09 L1265.48 1558.14 Q1268.14 1559.52 1270.72 1560.22 Q1273.29 1560.9 1275.82 1560.9 Q1279.2 1560.9 1281.03 1559.75 Q1282.85 1558.58 1282.85 1556.47 Q1282.85 1554.52 1281.52 1553.48 Q1280.22 1552.44 1275.77 1551.47 L1274.1 1551.08 Q1269.65 1550.15 1267.67 1548.22 Q1265.69 1546.27 1265.69 1542.88 Q1265.69 1538.77 1268.61 1536.53 Q1271.52 1534.29 1276.89 1534.29 Q1279.54 1534.29 1281.89 1534.68 Q1284.23 1535.07 1286.21 1535.85 Z" fill="#000000" fill-rule="nonzero" fill-opacity="1" /><path clip-path="url(#clip090)" d="M1295.4 1534.99 L1300.19 1534.99 L1300.19 1564.16 L1295.4 1564.16 L1295.4 1534.99 M1295.4 1523.64 L1300.19 1523.64 L1300.19 1529.7 L1295.4 1529.7 L1295.4 1523.64 Z" fill="#000000" fill-rule="nonzero" fill-opacity="1" /><path clip-path="url(#clip090)" d="M1314.96 1526.71 L1314.96 1534.99 L1324.83 1534.99 L1324.83 1538.71 L1314.96 1538.71 L1314.96 1554.55 Q1314.96 1558.11 1315.92 1559.13 Q1316.91 1560.15 1319.91 1560.15 L1324.83 1560.15 L1324.83 1564.16 L1319.91 1564.16 Q1314.36 1564.16 1312.25 1562.1 Q1310.14 1560.02 1310.14 1554.55 L1310.14 1538.71 L1306.63 1538.71 L1306.63 1534.99 L1310.14 1534.99 L1310.14 1526.71 L1314.96 1526.71 Z" fill="#000000" fill-rule="nonzero" fill-opacity="1" /><path clip-path="url(#clip090)" d="M1331.13 1534.99 L1335.92 1534.99 L1335.92 1564.16 L1331.13 1564.16 L1331.13 1534.99 M1331.13 1523.64 L1335.92 1523.64 L1335.92 1529.7 L1331.13 1529.7 L1331.13 1523.64 Z" fill="#000000" fill-rule="nonzero" fill-opacity="1" /><path clip-path="url(#clip090)" d="M1342.51 1534.99 L1347.59 1534.99 L1356.7 1559.47 L1365.82 1534.99 L1370.9 1534.99 L1359.96 1564.16 L1353.45 1564.16 L1342.51 1534.99 Z" fill="#000000" fill-rule="nonzero" fill-opacity="1" /><path clip-path="url(#clip090)" d="M1402.46 1548.37 L1402.46 1550.72 L1380.43 1550.72 Q1380.74 1555.67 1383.4 1558.27 Q1386.08 1560.85 1390.84 1560.85 Q1393.61 1560.85 1396.18 1560.17 Q1398.79 1559.49 1401.34 1558.14 L1401.34 1562.67 Q1398.76 1563.77 1396.05 1564.34 Q1393.34 1564.91 1390.56 1564.91 Q1383.58 1564.91 1379.49 1560.85 Q1375.43 1556.79 1375.43 1549.86 Q1375.43 1542.7 1379.28 1538.5 Q1383.16 1534.29 1389.72 1534.29 Q1395.61 1534.29 1399.02 1538.09 Q1402.46 1541.86 1402.46 1548.37 M1397.67 1546.97 Q1397.62 1543.04 1395.45 1540.69 Q1393.32 1538.35 1389.78 1538.35 Q1385.77 1538.35 1383.34 1540.61 Q1380.95 1542.88 1380.58 1546.99 L1397.67 1546.97 Z" fill="#000000" fill-rule="nonzero" fill-opacity="1" /><path clip-path="url(#clip090)" d="M1444.18 1539.47 Q1443.37 1539 1442.41 1538.79 Q1441.47 1538.56 1440.32 1538.56 Q1436.26 1538.56 1434.07 1541.21 Q1431.91 1543.84 1431.91 1548.79 L1431.91 1564.16 L1427.09 1564.16 L1427.09 1534.99 L1431.91 1534.99 L1431.91 1539.52 Q1433.42 1536.86 1435.84 1535.59 Q1438.27 1534.29 1441.73 1534.29 Q1442.22 1534.29 1442.82 1534.36 Q1443.42 1534.42 1444.15 1534.55 L1444.18 1539.47 Z" fill="#000000" fill-rule="nonzero" fill-opacity="1" /><path clip-path="url(#clip090)" d="M1462.46 1549.49 Q1456.65 1549.49 1454.41 1550.82 Q1452.17 1552.15 1452.17 1555.35 Q1452.17 1557.91 1453.84 1559.42 Q1455.53 1560.9 1458.42 1560.9 Q1462.41 1560.9 1464.8 1558.09 Q1467.22 1555.25 1467.22 1550.56 L1467.22 1549.49 L1462.46 1549.49 M1472.02 1547.52 L1472.02 1564.16 L1467.22 1564.16 L1467.22 1559.73 Q1465.58 1562.39 1463.14 1563.66 Q1460.69 1564.91 1457.15 1564.91 Q1452.67 1564.91 1450.01 1562.41 Q1447.38 1559.89 1447.38 1555.67 Q1447.38 1550.74 1450.66 1548.24 Q1453.97 1545.74 1460.51 1545.74 L1467.22 1545.74 L1467.22 1545.28 Q1467.22 1541.97 1465.04 1540.17 Q1462.88 1538.35 1458.94 1538.35 Q1456.44 1538.35 1454.07 1538.95 Q1451.7 1539.55 1449.52 1540.74 L1449.52 1536.32 Q1452.15 1535.3 1454.62 1534.81 Q1457.09 1534.29 1459.44 1534.29 Q1465.77 1534.29 1468.89 1537.57 Q1472.02 1540.85 1472.02 1547.52 Z" fill="#000000" fill-rule="nonzero" fill-opacity="1" /><path clip-path="url(#clip090)" d="M1486.63 1526.71 L1486.63 1534.99 L1496.5 1534.99 L1496.5 1538.71 L1486.63 1538.71 L1486.63 1554.55 Q1486.63 1558.11 1487.59 1559.13 Q1488.58 1560.15 1491.57 1560.15 L1496.5 1560.15 L1496.5 1564.16 L1491.57 1564.16 Q1486.03 1564.16 1483.92 1562.1 Q1481.81 1560.02 1481.81 1554.55 L1481.81 1538.71 L1478.29 1538.71 L1478.29 1534.99 L1481.81 1534.99 L1481.81 1526.71 L1486.63 1526.71 Z" fill="#000000" fill-rule="nonzero" fill-opacity="1" /><path clip-path="url(#clip090)" d="M1527.74 1548.37 L1527.74 1550.72 L1505.71 1550.72 Q1506.03 1555.67 1508.68 1558.27 Q1511.36 1560.85 1516.13 1560.85 Q1518.89 1560.85 1521.47 1560.17 Q1524.07 1559.49 1526.63 1558.14 L1526.63 1562.67 Q1524.05 1563.77 1521.34 1564.34 Q1518.63 1564.91 1515.84 1564.91 Q1508.86 1564.91 1504.78 1560.85 Q1500.71 1556.79 1500.71 1549.86 Q1500.71 1542.7 1504.57 1538.5 Q1508.45 1534.29 1515.01 1534.29 Q1520.9 1534.29 1524.31 1538.09 Q1527.74 1541.86 1527.74 1548.37 M1522.95 1546.97 Q1522.9 1543.04 1520.74 1540.69 Q1518.6 1538.35 1515.06 1538.35 Q1511.05 1538.35 1508.63 1540.61 Q1506.23 1542.88 1505.87 1546.99 L1522.95 1546.97 Z" fill="#000000" fill-rule="nonzero" fill-opacity="1" /><polyline clip-path="url(#clip092)" style="stroke:#000000; stroke-linecap:round; stroke-linejoin:round; stroke-width:2; stroke-opacity:0.1; fill:none" points="228.492,1396.83 2352.76,1396.83 "/>
<polyline clip-path="url(#clip092)" style="stroke:#000000; stroke-linecap:round; stroke-linejoin:round; stroke-width:2; stroke-opacity:0.1; fill:none" points="228.492,1069.26 2352.76,1069.26 "/>
<polyline clip-path="url(#clip092)" style="stroke:#000000; stroke-linecap:round; stroke-linejoin:round; stroke-width:2; stroke-opacity:0.1; fill:none" points="228.492,741.692 2352.76,741.692 "/>
<polyline clip-path="url(#clip092)" style="stroke:#000000; stroke-linecap:round; stroke-linejoin:round; stroke-width:2; stroke-opacity:0.1; fill:none" points="228.492,414.122 2352.76,414.122 "/>
<polyline clip-path="url(#clip092)" style="stroke:#000000; stroke-linecap:round; stroke-linejoin:round; stroke-width:2; stroke-opacity:0.1; fill:none" points="228.492,86.5525 2352.76,86.5525 "/>
<polyline clip-path="url(#clip090)" style="stroke:#000000; stroke-linecap:round; stroke-linejoin:round; stroke-width:4; stroke-opacity:1; fill:none" points="228.492,1436.14 228.492,47.2441 "/>
<polyline clip-path="url(#clip090)" style="stroke:#000000; stroke-linecap:round; stroke-linejoin:round; stroke-width:4; stroke-opacity:1; fill:none" points="228.492,1396.83 247.389,1396.83 "/>
<polyline clip-path="url(#clip090)" style="stroke:#000000; stroke-linecap:round; stroke-linejoin:round; stroke-width:4; stroke-opacity:1; fill:none" points="228.492,1069.26 247.389,1069.26 "/>
<polyline clip-path="url(#clip090)" style="stroke:#000000; stroke-linecap:round; stroke-linejoin:round; stroke-width:4; stroke-opacity:1; fill:none" points="228.492,741.692 247.389,741.692 "/>
<polyline clip-path="url(#clip090)" style="stroke:#000000; stroke-linecap:round; stroke-linejoin:round; stroke-width:4; stroke-opacity:1; fill:none" points="228.492,414.122 247.389,414.122 "/>
<polyline clip-path="url(#clip090)" style="stroke:#000000; stroke-linecap:round; stroke-linejoin:round; stroke-width:4; stroke-opacity:1; fill:none" points="228.492,86.5525 247.389,86.5525 "/>
<path clip-path="url(#clip090)" d="M116.071 1384.41 Q112.912 1384.41 111.312 1387.52 Q109.732 1390.62 109.732 1396.86 Q109.732 1403.08 111.312 1406.2 Q112.912 1409.3 116.071 1409.3 Q119.251 1409.3 120.831 1406.2 Q122.431 1403.08 122.431 1396.86 Q122.431 1390.62 120.831 1387.52 Q119.251 1384.41 116.071 1384.41 M116.071 1381.16 Q121.155 1381.16 123.829 1385.2 Q126.523 1389.21 126.523 1396.86 Q126.523 1404.5 123.829 1408.53 Q121.155 1412.54 116.071 1412.54 Q110.988 1412.54 108.294 1408.53 Q105.62 1404.5 105.62 1396.86 Q105.62 1389.21 108.294 1385.2 Q110.988 1381.16 116.071 1381.16 Z" fill="#000000" fill-rule="nonzero" fill-opacity="1" /><path clip-path="url(#clip090)" d="M133.713 1406.81 L137.987 1406.81 L137.987 1411.95 L133.713 1411.95 L133.713 1406.81 Z" fill="#000000" fill-rule="nonzero" fill-opacity="1" /><path clip-path="url(#clip090)" d="M155.649 1384.41 Q152.489 1384.41 150.889 1387.52 Q149.309 1390.62 149.309 1396.86 Q149.309 1403.08 150.889 1406.2 Q152.489 1409.3 155.649 1409.3 Q158.829 1409.3 160.409 1406.2 Q162.009 1403.08 162.009 1396.86 Q162.009 1390.62 160.409 1387.52 Q158.829 1384.41 155.649 1384.41 M155.649 1381.16 Q160.733 1381.16 163.406 1385.2 Q166.1 1389.21 166.1 1396.86 Q166.1 1404.5 163.406 1408.53 Q160.733 1412.54 155.649 1412.54 Q150.565 1412.54 147.871 1408.53 Q145.197 1404.5 145.197 1396.86 Q145.197 1389.21 147.871 1385.2 Q150.565 1381.16 155.649 1381.16 Z" fill="#000000" fill-rule="nonzero" fill-opacity="1" /><path clip-path="url(#clip090)" d="M182.04 1384.41 Q178.881 1384.41 177.281 1387.52 Q175.701 1390.62 175.701 1396.86 Q175.701 1403.08 177.281 1406.2 Q178.881 1409.3 182.04 1409.3 Q185.22 1409.3 186.8 1406.2 Q188.4 1403.08 188.4 1396.86 Q188.4 1390.62 186.8 1387.52 Q185.22 1384.41 182.04 1384.41 M182.04 1381.16 Q187.124 1381.16 189.798 1385.2 Q192.492 1389.21 192.492 1396.86 Q192.492 1404.5 189.798 1408.53 Q187.124 1412.54 182.04 1412.54 Q176.957 1412.54 174.263 1408.53 Q171.589 1404.5 171.589 1396.86 Q171.589 1389.21 174.263 1385.2 Q176.957 1381.16 182.04 1381.16 Z" fill="#000000" fill-rule="nonzero" fill-opacity="1" /><path clip-path="url(#clip090)" d="M116.942 1056.84 Q113.783 1056.84 112.183 1059.95 Q110.603 1063.05 110.603 1069.29 Q110.603 1075.51 112.183 1078.63 Q113.783 1081.73 116.942 1081.73 Q120.122 1081.73 121.702 1078.63 Q123.302 1075.51 123.302 1069.29 Q123.302 1063.05 121.702 1059.95 Q120.122 1056.84 116.942 1056.84 M116.942 1053.59 Q122.026 1053.59 124.7 1057.63 Q127.394 1061.64 127.394 1069.29 Q127.394 1076.93 124.7 1080.96 Q122.026 1084.97 116.942 1084.97 Q111.859 1084.97 109.165 1080.96 Q106.491 1076.93 106.491 1069.29 Q106.491 1061.64 109.165 1057.63 Q111.859 1053.59 116.942 1053.59 Z" fill="#000000" fill-rule="nonzero" fill-opacity="1" /><path clip-path="url(#clip090)" d="M134.584 1079.24 L138.858 1079.24 L138.858 1084.38 L134.584 1084.38 L134.584 1079.24 Z" fill="#000000" fill-rule="nonzero" fill-opacity="1" /><path clip-path="url(#clip090)" d="M151.294 1080.94 L165.574 1080.94 L165.574 1084.38 L146.372 1084.38 L146.372 1080.94 Q148.702 1078.53 152.712 1074.48 Q156.743 1070.41 157.776 1069.23 Q159.74 1067.02 160.51 1065.5 Q161.3 1063.97 161.3 1062.49 Q161.3 1060.08 159.598 1058.56 Q157.917 1057.04 155.203 1057.04 Q153.279 1057.04 151.132 1057.71 Q149.005 1058.37 146.575 1059.73 L146.575 1055.6 Q149.046 1054.61 151.193 1054.1 Q153.34 1053.59 155.122 1053.59 Q159.821 1053.59 162.616 1055.94 Q165.412 1058.29 165.412 1062.22 Q165.412 1064.09 164.703 1065.77 Q164.014 1067.43 162.171 1069.7 Q161.664 1070.28 158.95 1073.1 Q156.236 1075.9 151.294 1080.94 Z" fill="#000000" fill-rule="nonzero" fill-opacity="1" /><path clip-path="url(#clip090)" d="M174.202 1054.14 L190.264 1054.14 L190.264 1057.58 L177.949 1057.58 L177.949 1065 Q178.84 1064.69 179.731 1064.55 Q180.623 1064.39 181.514 1064.39 Q186.577 1064.39 189.535 1067.17 Q192.492 1069.94 192.492 1074.68 Q192.492 1079.56 189.454 1082.28 Q186.415 1084.97 180.886 1084.97 Q178.982 1084.97 176.997 1084.65 Q175.032 1084.32 172.926 1083.67 L172.926 1079.56 Q174.749 1080.55 176.693 1081.04 Q178.638 1081.53 180.805 1081.53 Q184.309 1081.53 186.355 1079.68 Q188.4 1077.84 188.4 1074.68 Q188.4 1071.52 186.355 1069.68 Q184.309 1067.83 180.805 1067.83 Q179.164 1067.83 177.524 1068.2 Q175.903 1068.56 174.202 1069.33 L174.202 1054.14 Z" fill="#000000" fill-rule="nonzero" fill-opacity="1" /><path clip-path="url(#clip090)" d="M116.071 729.266 Q112.912 729.266 111.312 732.385 Q109.732 735.484 109.732 741.722 Q109.732 747.94 111.312 751.06 Q112.912 754.159 116.071 754.159 Q119.251 754.159 120.831 751.06 Q122.431 747.94 122.431 741.722 Q122.431 735.484 120.831 732.385 Q119.251 729.266 116.071 729.266 M116.071 726.025 Q121.155 726.025 123.829 730.056 Q126.523 734.066 126.523 741.722 Q126.523 749.358 123.829 753.389 Q121.155 757.399 116.071 757.399 Q110.988 757.399 108.294 753.389 Q105.62 749.358 105.62 741.722 Q105.62 734.066 108.294 730.056 Q110.988 726.025 116.071 726.025 Z" fill="#000000" fill-rule="nonzero" fill-opacity="1" /><path clip-path="url(#clip090)" d="M133.713 751.667 L137.987 751.667 L137.987 756.812 L133.713 756.812 L133.713 751.667 Z" fill="#000000" fill-rule="nonzero" fill-opacity="1" /><path clip-path="url(#clip090)" d="M146.939 726.572 L163.001 726.572 L163.001 730.015 L150.686 730.015 L150.686 737.428 Q151.578 737.125 152.469 736.983 Q153.36 736.821 154.251 736.821 Q159.315 736.821 162.272 739.596 Q165.229 742.37 165.229 747.11 Q165.229 751.991 162.191 754.705 Q159.153 757.399 153.623 757.399 Q151.719 757.399 149.735 757.075 Q147.77 756.751 145.663 756.103 L145.663 751.991 Q147.486 752.984 149.431 753.47 Q151.375 753.956 153.542 753.956 Q157.046 753.956 159.092 752.113 Q161.138 750.27 161.138 747.11 Q161.138 743.95 159.092 742.107 Q157.046 740.264 153.542 740.264 Q151.902 740.264 150.261 740.629 Q148.641 740.993 146.939 741.763 L146.939 726.572 Z" fill="#000000" fill-rule="nonzero" fill-opacity="1" /><path clip-path="url(#clip090)" d="M182.04 729.266 Q178.881 729.266 177.281 732.385 Q175.701 735.484 175.701 741.722 Q175.701 747.94 177.281 751.06 Q178.881 754.159 182.04 754.159 Q185.22 754.159 186.8 751.06 Q188.4 747.94 188.4 741.722 Q188.4 735.484 186.8 732.385 Q185.22 729.266 182.04 729.266 M182.04 726.025 Q187.124 726.025 189.798 730.056 Q192.492 734.066 192.492 741.722 Q192.492 749.358 189.798 753.389 Q187.124 757.399 182.04 757.399 Q176.957 757.399 174.263 753.389 Q171.589 749.358 171.589 741.722 Q171.589 734.066 174.263 730.056 Q176.957 726.025 182.04 726.025 Z" fill="#000000" fill-rule="nonzero" fill-opacity="1" /><path clip-path="url(#clip090)" d="M116.942 401.696 Q113.783 401.696 112.183 404.815 Q110.603 407.914 110.603 414.153 Q110.603 420.371 112.183 423.49 Q113.783 426.589 116.942 426.589 Q120.122 426.589 121.702 423.49 Q123.302 420.371 123.302 414.153 Q123.302 407.914 121.702 404.815 Q120.122 401.696 116.942 401.696 M116.942 398.455 Q122.026 398.455 124.7 402.486 Q127.394 406.496 127.394 414.153 Q127.394 421.789 124.7 425.819 Q122.026 429.83 116.942 429.83 Q111.859 429.83 109.165 425.819 Q106.491 421.789 106.491 414.153 Q106.491 406.496 109.165 402.486 Q111.859 398.455 116.942 398.455 Z" fill="#000000" fill-rule="nonzero" fill-opacity="1" /><path clip-path="url(#clip090)" d="M134.584 424.098 L138.858 424.098 L138.858 429.242 L134.584 429.242 L134.584 424.098 Z" fill="#000000" fill-rule="nonzero" fill-opacity="1" /><path clip-path="url(#clip090)" d="M146.737 399.002 L166.181 399.002 L166.181 400.744 L155.203 429.242 L150.93 429.242 L161.259 402.445 L146.737 402.445 L146.737 399.002 Z" fill="#000000" fill-rule="nonzero" fill-opacity="1" /><path clip-path="url(#clip090)" d="M174.202 399.002 L190.264 399.002 L190.264 402.445 L177.949 402.445 L177.949 409.859 Q178.84 409.555 179.731 409.413 Q180.623 409.251 181.514 409.251 Q186.577 409.251 189.535 412.026 Q192.492 414.801 192.492 419.54 Q192.492 424.422 189.454 427.136 Q186.415 429.83 180.886 429.83 Q178.982 429.83 176.997 429.506 Q175.032 429.181 172.926 428.533 L172.926 424.422 Q174.749 425.414 176.693 425.9 Q178.638 426.386 180.805 426.386 Q184.309 426.386 186.355 424.543 Q188.4 422.7 188.4 419.54 Q188.4 416.381 186.355 414.537 Q184.309 412.694 180.805 412.694 Q179.164 412.694 177.524 413.059 Q175.903 413.423 174.202 414.193 L174.202 399.002 Z" fill="#000000" fill-rule="nonzero" fill-opacity="1" /><path clip-path="url(#clip090)" d="M108.03 98.2292 L114.714 98.2292 L114.714 75.1593 L107.443 76.6176 L107.443 72.8908 L114.674 71.4325 L118.765 71.4325 L118.765 98.2292 L125.449 98.2292 L125.449 101.672 L108.03 101.672 L108.03 98.2292 Z" fill="#000000" fill-rule="nonzero" fill-opacity="1" /><path clip-path="url(#clip090)" d="M133.713 96.5278 L137.987 96.5278 L137.987 101.672 L133.713 101.672 L133.713 96.5278 Z" fill="#000000" fill-rule="nonzero" fill-opacity="1" /><path clip-path="url(#clip090)" d="M155.649 74.1263 Q152.489 74.1263 150.889 77.2455 Q149.309 80.3445 149.309 86.5828 Q149.309 92.801 150.889 95.9202 Q152.489 99.0191 155.649 99.0191 Q158.829 99.0191 160.409 95.9202 Q162.009 92.801 162.009 86.5828 Q162.009 80.3445 160.409 77.2455 Q158.829 74.1263 155.649 74.1263 M155.649 70.8856 Q160.733 70.8856 163.406 74.9162 Q166.1 78.9266 166.1 86.5828 Q166.1 94.2188 163.406 98.2495 Q160.733 102.26 155.649 102.26 Q150.565 102.26 147.871 98.2495 Q145.197 94.2188 145.197 86.5828 Q145.197 78.9266 147.871 74.9162 Q150.565 70.8856 155.649 70.8856 Z" fill="#000000" fill-rule="nonzero" fill-opacity="1" /><path clip-path="url(#clip090)" d="M182.04 74.1263 Q178.881 74.1263 177.281 77.2455 Q175.701 80.3445 175.701 86.5828 Q175.701 92.801 177.281 95.9202 Q178.881 99.0191 182.04 99.0191 Q185.22 99.0191 186.8 95.9202 Q188.4 92.801 188.4 86.5828 Q188.4 80.3445 186.8 77.2455 Q185.22 74.1263 182.04 74.1263 M182.04 70.8856 Q187.124 70.8856 189.798 74.9162 Q192.492 78.9266 192.492 86.5828 Q192.492 94.2188 189.798 98.2495 Q187.124 102.26 182.04 102.26 Q176.957 102.26 174.263 98.2495 Q171.589 94.2188 171.589 86.5828 Q171.589 78.9266 174.263 74.9162 Q176.957 70.8856 182.04 70.8856 Z" fill="#000000" fill-rule="nonzero" fill-opacity="1" /><path clip-path="url(#clip090)" d="M20.5084 961.665 L28.7896 961.665 L28.7896 951.795 L32.5136 951.795 L32.5136 961.665 L48.3468 961.665 Q51.9145 961.665 52.9301 960.701 Q53.9458 959.712 53.9458 956.717 L53.9458 951.795 L57.9562 951.795 L57.9562 956.717 Q57.9562 962.264 55.8989 964.373 Q53.8156 966.482 48.3468 966.482 L32.5136 966.482 L32.5136 969.998 L28.7896 969.998 L28.7896 966.482 L20.5084 966.482 L20.5084 961.665 Z" fill="#000000" fill-rule="nonzero" fill-opacity="1" /><path clip-path="url(#clip090)" d="M33.2688 928.592 Q32.8 929.399 32.5917 930.363 Q32.3573 931.3 32.3573 932.446 Q32.3573 936.509 35.0136 938.696 Q37.6438 940.858 42.5917 940.858 L57.9562 940.858 L57.9562 945.675 L28.7896 945.675 L28.7896 940.858 L33.3209 940.858 Q30.6646 939.347 29.3886 936.925 Q28.0865 934.503 28.0865 931.04 Q28.0865 930.545 28.1647 929.946 Q28.2167 929.347 28.3469 928.618 L33.2688 928.592 Z" fill="#000000" fill-rule="nonzero" fill-opacity="1" /><path clip-path="url(#clip090)" d="M46.4458 924.061 L28.7896 924.061 L28.7896 919.269 L46.2635 919.269 Q50.4041 919.269 52.4874 917.655 Q54.5447 916.04 54.5447 912.811 Q54.5447 908.931 52.0708 906.691 Q49.5968 904.425 45.326 904.425 L28.7896 904.425 L28.7896 899.634 L57.9562 899.634 L57.9562 904.425 L53.477 904.425 Q56.1333 906.17 57.4353 908.488 Q58.7114 910.78 58.7114 913.826 Q58.7114 918.852 55.5864 921.457 Q52.4614 924.061 46.4458 924.061 M28.0865 912.004 L28.0865 912.004 Z" fill="#000000" fill-rule="nonzero" fill-opacity="1" /><path clip-path="url(#clip090)" d="M42.175 864.816 L44.5187 864.816 L44.5187 886.847 Q49.4666 886.535 52.0708 883.879 Q54.6489 881.196 54.6489 876.431 Q54.6489 873.67 53.9718 871.092 Q53.2947 868.488 51.9406 865.936 L56.4718 865.936 Q57.5655 868.514 58.1384 871.223 Q58.7114 873.931 58.7114 876.717 Q58.7114 883.696 54.6489 887.785 Q50.5864 891.847 43.6594 891.847 Q36.4979 891.847 32.3053 887.993 Q28.0865 884.113 28.0865 877.551 Q28.0865 871.665 31.8886 868.254 Q35.6646 864.816 42.175 864.816 M40.7687 869.608 Q36.8365 869.66 34.4927 871.821 Q32.149 873.957 32.149 877.499 Q32.149 881.509 34.4146 883.931 Q36.6802 886.327 40.7948 886.691 L40.7687 869.608 Z" fill="#000000" fill-rule="nonzero" fill-opacity="1" /><path clip-path="url(#clip090)" d="M53.5812 835.363 L69.0498 835.363 L69.0498 840.181 L28.7896 840.181 L28.7896 835.363 L33.2167 835.363 Q30.6126 833.853 29.3626 831.561 Q28.0865 829.244 28.0865 826.04 Q28.0865 820.728 32.3053 817.421 Q36.524 814.087 43.3989 814.087 Q50.2739 814.087 54.4926 817.421 Q58.7114 820.728 58.7114 826.04 Q58.7114 829.244 57.4614 831.561 Q56.1853 833.853 53.5812 835.363 M43.3989 819.061 Q38.1125 819.061 35.1177 821.249 Q32.0969 823.41 32.0969 827.212 Q32.0969 831.014 35.1177 833.202 Q38.1125 835.363 43.3989 835.363 Q48.6854 835.363 51.7062 833.202 Q54.701 831.014 54.701 827.212 Q54.701 823.41 51.7062 821.249 Q48.6854 819.061 43.3989 819.061 Z" fill="#000000" fill-rule="nonzero" fill-opacity="1" /><path clip-path="url(#clip090)" d="M32.149 794.843 Q32.149 798.697 35.1698 800.936 Q38.1646 803.176 43.3989 803.176 Q48.6333 803.176 51.6541 800.962 Q54.6489 798.723 54.6489 794.843 Q54.6489 791.015 51.6281 788.775 Q48.6072 786.535 43.3989 786.535 Q38.2167 786.535 35.1959 788.775 Q32.149 791.015 32.149 794.843 M28.0865 794.843 Q28.0865 788.593 32.149 785.025 Q36.2115 781.457 43.3989 781.457 Q50.5604 781.457 54.6489 785.025 Q58.7114 788.593 58.7114 794.843 Q58.7114 801.119 54.6489 804.686 Q50.5604 808.228 43.3989 808.228 Q36.2115 808.228 32.149 804.686 Q28.0865 801.119 28.0865 794.843 Z" fill="#000000" fill-rule="nonzero" fill-opacity="1" /><path clip-path="url(#clip090)" d="M29.649 754.921 L34.1802 754.921 Q33.1386 756.952 32.6178 759.14 Q32.0969 761.327 32.0969 763.671 Q32.0969 767.239 33.1907 769.036 Q34.2844 770.806 36.4719 770.806 Q38.1386 770.806 39.1021 769.53 Q40.0396 768.254 40.899 764.4 L41.2635 762.76 Q42.3573 757.655 44.3625 755.52 Q46.3416 753.359 49.9093 753.359 Q53.9718 753.359 56.3416 756.588 Q58.7114 759.791 58.7114 765.416 Q58.7114 767.76 58.2426 770.312 Q57.7999 772.838 56.8885 775.65 L51.9406 775.65 Q53.3208 772.994 54.0239 770.416 Q54.701 767.838 54.701 765.312 Q54.701 761.926 53.5551 760.103 Q52.3833 758.28 50.2739 758.28 Q48.3208 758.28 47.2791 759.609 Q46.2375 760.911 45.2739 765.364 L44.8833 767.03 Q43.9458 771.483 42.0187 773.463 Q40.0656 775.442 36.6802 775.442 Q32.5657 775.442 30.3261 772.525 Q28.0865 769.608 28.0865 764.244 Q28.0865 761.588 28.4771 759.244 Q28.8678 756.9 29.649 754.921 Z" fill="#000000" fill-rule="nonzero" fill-opacity="1" /><path clip-path="url(#clip090)" d="M28.7896 745.728 L28.7896 740.937 L57.9562 740.937 L57.9562 745.728 L28.7896 745.728 M17.4355 745.728 L17.4355 740.937 L23.5032 740.937 L23.5032 745.728 L17.4355 745.728 Z" fill="#000000" fill-rule="nonzero" fill-opacity="1" /><path clip-path="url(#clip090)" d="M20.5084 726.171 L28.7896 726.171 L28.7896 716.301 L32.5136 716.301 L32.5136 726.171 L48.3468 726.171 Q51.9145 726.171 52.9301 725.208 Q53.9458 724.218 53.9458 721.223 L53.9458 716.301 L57.9562 716.301 L57.9562 721.223 Q57.9562 726.77 55.8989 728.88 Q53.8156 730.989 48.3468 730.989 L32.5136 730.989 L32.5136 734.505 L28.7896 734.505 L28.7896 730.989 L20.5084 730.989 L20.5084 726.171 Z" fill="#000000" fill-rule="nonzero" fill-opacity="1" /><path clip-path="url(#clip090)" d="M28.7896 709.999 L28.7896 705.208 L57.9562 705.208 L57.9562 709.999 L28.7896 709.999 M17.4355 709.999 L17.4355 705.208 L23.5032 705.208 L23.5032 709.999 L17.4355 709.999 Z" fill="#000000" fill-rule="nonzero" fill-opacity="1" /><path clip-path="url(#clip090)" d="M28.7896 698.619 L28.7896 693.541 L53.2687 684.427 L28.7896 675.312 L28.7896 670.234 L57.9562 681.171 L57.9562 687.682 L28.7896 698.619 Z" fill="#000000" fill-rule="nonzero" fill-opacity="1" /><path clip-path="url(#clip090)" d="M42.175 638.672 L44.5187 638.672 L44.5187 660.703 Q49.4666 660.39 52.0708 657.734 Q54.6489 655.052 54.6489 650.286 Q54.6489 647.526 53.9718 644.948 Q53.2947 642.344 51.9406 639.791 L56.4718 639.791 Q57.5655 642.37 58.1384 645.078 Q58.7114 647.786 58.7114 650.573 Q58.7114 657.552 54.6489 661.64 Q50.5864 665.703 43.6594 665.703 Q36.4979 665.703 32.3053 661.849 Q28.0865 657.968 28.0865 651.406 Q28.0865 645.521 31.8886 642.109 Q35.6646 638.672 42.175 638.672 M40.7687 643.463 Q36.8365 643.515 34.4927 645.677 Q32.149 647.812 32.149 651.354 Q32.149 655.364 34.4146 657.786 Q36.6802 660.182 40.7948 660.547 L40.7687 643.463 Z" fill="#000000" fill-rule="nonzero" fill-opacity="1" /><path clip-path="url(#clip090)" d="M33.2688 596.953 Q32.8 597.76 32.5917 598.724 Q32.3573 599.661 32.3573 600.807 Q32.3573 604.87 35.0136 607.057 Q37.6438 609.219 42.5917 609.219 L57.9562 609.219 L57.9562 614.036 L28.7896 614.036 L28.7896 609.219 L33.3209 609.219 Q30.6646 607.708 29.3886 605.286 Q28.0865 602.865 28.0865 599.401 Q28.0865 598.906 28.1647 598.307 Q28.2167 597.708 28.3469 596.979 L33.2688 596.953 Z" fill="#000000" fill-rule="nonzero" fill-opacity="1" /><path clip-path="url(#clip090)" d="M43.2948 578.672 Q43.2948 584.479 44.6229 586.719 Q45.951 588.958 49.1541 588.958 Q51.7062 588.958 53.2166 587.292 Q54.701 585.599 54.701 582.708 Q54.701 578.724 51.8885 576.328 Q49.05 573.906 44.3625 573.906 L43.2948 573.906 L43.2948 578.672 M41.3156 569.115 L57.9562 569.115 L57.9562 573.906 L53.5291 573.906 Q56.1853 575.547 57.4614 577.995 Q58.7114 580.443 58.7114 583.984 Q58.7114 588.464 56.2114 591.12 Q53.6853 593.75 49.4666 593.75 Q44.5448 593.75 42.0448 590.469 Q39.5448 587.162 39.5448 580.625 L39.5448 573.906 L39.0761 573.906 Q35.7688 573.906 33.9719 576.094 Q32.149 578.255 32.149 582.188 Q32.149 584.688 32.748 587.057 Q33.3469 589.427 34.5448 591.615 L30.1178 591.615 Q29.1021 588.984 28.6074 586.511 Q28.0865 584.037 28.0865 581.693 Q28.0865 575.365 31.3678 572.24 Q34.649 569.115 41.3156 569.115 Z" fill="#000000" fill-rule="nonzero" fill-opacity="1" /><path clip-path="url(#clip090)" d="M20.5084 554.505 L28.7896 554.505 L28.7896 544.636 L32.5136 544.636 L32.5136 554.505 L48.3468 554.505 Q51.9145 554.505 52.9301 553.542 Q53.9458 552.552 53.9458 549.558 L53.9458 544.636 L57.9562 544.636 L57.9562 549.558 Q57.9562 555.104 55.8989 557.214 Q53.8156 559.323 48.3468 559.323 L32.5136 559.323 L32.5136 562.839 L28.7896 562.839 L28.7896 559.323 L20.5084 559.323 L20.5084 554.505 Z" fill="#000000" fill-rule="nonzero" fill-opacity="1" /><path clip-path="url(#clip090)" d="M42.175 513.386 L44.5187 513.386 L44.5187 535.417 Q49.4666 535.105 52.0708 532.448 Q54.6489 529.766 54.6489 525 Q54.6489 522.24 53.9718 519.662 Q53.2947 517.058 51.9406 514.506 L56.4718 514.506 Q57.5655 517.084 58.1384 519.792 Q58.7114 522.5 58.7114 525.287 Q58.7114 532.266 54.6489 536.355 Q50.5864 540.417 43.6594 540.417 Q36.4979 540.417 32.3053 536.563 Q28.0865 532.683 28.0865 526.12 Q28.0865 520.235 31.8886 516.823 Q35.6646 513.386 42.175 513.386 M40.7687 518.178 Q36.8365 518.23 34.4927 520.391 Q32.149 522.526 32.149 526.068 Q32.149 530.079 34.4146 532.5 Q36.6802 534.896 40.7948 535.261 L40.7687 518.178 Z" fill="#000000" fill-rule="nonzero" fill-opacity="1" /><polyline clip-path="url(#clip092)" style="stroke:#009af9; stroke-linecap:round; stroke-linejoin:round; stroke-width:4; stroke-opacity:1; fill:none" points="288.612,1396.83 288.612,1134.78 288.612,872.72 288.612,610.664 289.317,610.664 290.022,610.664 290.727,610.664 291.432,610.664 292.137,610.664 292.842,610.664 293.547,610.664 294.252,610.664 294.957,610.664 295.661,610.664 296.366,610.664 297.071,610.664 297.776,610.664 298.481,610.664 299.186,610.664 299.891,610.664 300.596,610.664 301.301,610.664 302.006,610.664 302.71,610.664 303.415,610.664 304.12,610.664 304.825,610.664 305.53,610.664 306.235,610.664 306.94,610.664 307.645,610.664 308.35,610.664 309.054,610.664 309.759,610.664 310.464,610.664 311.169,610.664 311.874,610.664 312.579,610.664 313.284,610.664 313.989,610.664 314.694,610.664 315.399,610.664 316.103,610.664 316.808,610.664 317.513,610.664 318.218,610.664 318.923,610.664 319.628,610.664 320.333,610.664 321.038,610.664 321.743,610.664 322.448,610.664 323.152,610.664 323.857,610.664 324.562,610.664 325.267,610.664 325.972,610.664 326.677,610.664 327.382,610.664 328.087,610.664 328.792,610.664 329.497,610.664 330.201,610.664 330.906,610.664 331.611,610.664 332.316,610.664 333.021,610.664 333.726,610.664 334.431,610.664 335.136,610.664 335.841,610.664 336.545,610.664 337.25,610.664 337.955,610.664 338.66,610.664 339.365,610.664 340.07,610.664 340.775,610.664 341.48,610.664 342.185,610.664 342.89,610.664 343.594,610.664 344.299,610.664 345.004,610.664 345.709,610.664 346.414,610.664 347.119,610.664 347.824,610.664 348.529,610.664 349.234,610.664 349.939,610.664 350.643,610.664 351.348,610.664 352.053,610.664 352.758,610.664 353.463,610.664 354.168,610.664 354.873,610.664 355.578,610.664 356.283,610.664 356.988,610.664 357.692,610.664 358.397,610.664 359.102,610.664 359.807,610.664 360.512,610.664 361.217,610.664 361.922,610.664 362.627,610.664 363.332,610.664 364.036,610.664 364.741,610.664 365.446,610.664 366.151,610.664 366.856,610.664 367.561,610.664 368.266,610.664 368.971,610.664 369.676,610.664 370.381,610.664 371.085,610.664 371.79,610.664 372.495,610.664 373.2,610.664 373.905,610.664 374.61,610.664 375.315,610.664 376.02,610.664 376.725,610.664 377.43,610.664 378.134,610.664 378.839,610.664 379.544,610.664 380.249,610.664 380.954,610.664 381.659,610.664 382.364,610.664 383.069,610.664 383.774,610.664 384.479,610.664 385.183,610.664 385.888,610.664 386.593,610.664 387.298,610.664 388.003,610.664 388.708,610.664 389.413,610.664 390.118,610.664 390.823,610.664 391.527,610.664 392.232,610.664 392.937,610.664 393.642,610.664 394.347,610.664 395.052,610.664 395.757,610.664 396.462,610.664 397.167,610.664 397.872,610.664 398.576,610.664 399.281,610.664 399.986,610.664 400.691,610.664 401.396,610.664 402.101,610.664 402.806,610.664 403.511,610.664 404.216,610.664 404.921,610.664 405.625,610.664 406.33,610.664 407.035,610.664 407.74,610.664 408.445,610.664 409.15,610.664 409.855,610.664 410.56,610.664 411.265,610.664 411.969,610.664 412.674,610.664 413.379,610.664 414.084,610.664 414.789,610.664 415.494,610.664 416.199,610.664 416.904,610.664 417.609,610.664 418.314,610.664 419.018,610.664 419.723,610.664 420.428,610.664 421.133,610.664 421.838,610.664 422.543,610.664 423.248,610.664 423.953,610.664 424.658,610.664 425.363,610.664 426.067,610.664 426.772,610.664 427.477,610.664 428.182,610.664 428.887,610.664 429.592,610.664 430.297,610.664 431.002,610.664 431.707,610.664 432.412,610.664 433.116,610.664 433.821,610.664 434.526,610.664 435.231,610.664 435.936,610.664 436.641,610.664 437.346,610.664 438.051,610.664 438.756,610.664 439.46,610.664 440.165,610.664 440.87,610.664 441.575,610.664 442.28,610.664 442.985,610.664 443.69,610.664 444.395,610.664 445.1,610.664 445.805,610.664 446.509,610.664 447.214,610.664 447.919,610.664 448.624,610.664 449.329,610.664 450.034,610.664 450.739,610.664 451.444,610.664 452.149,610.664 452.854,610.664 453.558,610.664 454.263,610.664 454.968,610.664 455.673,610.664 456.378,610.664 457.083,610.664 457.788,610.664 458.493,610.664 459.198,610.664 459.903,610.664 460.607,610.664 461.312,610.664 462.017,610.664 462.722,610.664 463.427,610.664 464.132,610.664 464.837,610.664 465.542,610.664 466.247,610.664 466.951,610.664 467.656,610.664 468.361,610.664 469.066,610.664 469.771,610.664 470.476,610.664 471.181,610.664 471.886,610.664 472.591,610.664 473.296,610.664 474,610.664 474.705,610.664 475.41,610.664 476.115,610.664 476.82,610.664 477.525,610.664 478.23,610.664 478.935,610.664 479.64,610.664 480.345,610.664 481.049,610.664 481.754,610.664 482.459,610.664 483.164,610.664 483.869,610.664 484.574,610.664 485.279,610.664 485.984,610.664 486.689,610.664 487.393,610.664 488.098,610.664 488.803,610.664 489.508,610.664 490.213,610.664 490.918,610.664 491.623,610.664 492.328,610.664 493.033,610.664 493.738,610.664 494.442,610.664 495.147,610.664 495.852,610.664 496.557,610.664 497.262,610.664 497.967,610.664 498.672,610.664 499.377,610.664 500.082,610.664 500.787,610.664 501.491,610.664 502.196,610.664 502.196,348.608 502.901,348.608 503.606,348.608 504.311,348.608 505.016,348.608 505.721,348.608 506.426,348.608 507.131,348.608 507.836,348.608 508.54,348.608 509.245,348.608 509.95,348.608 510.655,348.608 511.36,348.608 512.065,348.608 512.77,348.608 513.475,348.608 514.18,348.608 514.884,348.608 515.589,348.608 516.294,348.608 516.999,348.608 517.704,348.608 518.409,348.608 519.114,348.608 519.819,348.608 520.524,348.608 521.229,348.608 521.933,348.608 522.638,348.608 523.343,348.608 524.048,348.608 524.753,348.608 525.458,348.608 526.163,348.608 526.868,348.608 527.573,348.608 528.278,348.608 528.982,348.608 529.687,348.608 530.392,348.608 531.097,348.608 531.802,348.608 532.507,348.608 533.212,348.608 533.917,348.608 534.622,348.608 535.327,348.608 536.031,348.608 536.736,348.608 537.441,348.608 538.146,348.608 538.851,348.608 539.556,348.608 540.261,348.608 540.966,348.608 541.671,348.608 542.375,348.608 543.08,348.608 543.785,348.608 544.49,348.608 545.195,348.608 545.9,348.608 546.605,348.608 547.31,348.608 548.015,348.608 548.72,348.608 549.424,348.608 550.129,348.608 550.834,348.608 551.539,348.608 552.244,348.608 552.949,348.608 553.654,348.608 554.359,348.608 555.064,348.608 555.769,348.608 556.473,348.608 557.178,348.608 557.883,348.608 558.588,348.608 559.293,348.608 559.998,348.608 560.703,348.608 561.408,348.608 562.113,348.608 562.817,348.608 563.522,348.608 564.227,348.608 564.932,348.608 565.637,348.608 566.342,348.608 567.047,348.608 567.752,348.608 568.457,348.608 569.162,348.608 569.866,348.608 570.571,348.608 571.276,348.608 571.981,348.608 572.686,348.608 573.391,348.608 574.096,348.608 574.801,348.608 575.506,348.608 576.211,348.608 576.915,348.608 577.62,348.608 578.325,348.608 579.03,348.608 579.735,348.608 580.44,348.608 581.145,348.608 581.85,348.608 582.555,348.608 583.26,348.608 583.964,348.608 584.669,348.608 585.374,348.608 586.079,348.608 586.784,348.608 587.489,348.608 588.194,348.608 588.899,348.608 589.604,348.608 590.308,348.608 591.013,348.608 591.718,348.608 592.423,348.608 593.128,348.608 593.833,348.608 594.538,348.608 595.243,348.608 595.948,348.608 596.653,348.608 597.357,348.608 598.062,348.608 598.767,348.608 599.472,348.608 600.177,348.608 600.882,348.608 601.587,348.608 602.292,348.608 602.997,348.608 603.702,348.608 604.406,348.608 605.111,348.608 605.816,348.608 606.521,348.608 607.226,348.608 607.931,348.608 608.636,348.608 609.341,348.608 610.046,348.608 610.751,348.608 611.455,348.608 612.16,348.608 612.865,348.608 613.57,348.608 614.275,348.608 614.98,348.608 615.685,348.608 616.39,348.608 617.095,348.608 617.799,348.608 618.504,348.608 619.209,348.608 619.914,348.608 620.619,348.608 621.324,348.608 622.029,348.608 622.734,348.608 623.439,348.608 624.144,348.608 624.848,348.608 625.553,348.608 626.258,348.608 626.963,348.608 627.668,348.608 628.373,348.608 629.078,348.608 629.783,348.608 630.488,348.608 631.193,348.608 631.897,348.608 632.602,348.608 633.307,348.608 634.012,348.608 634.717,348.608 635.422,348.608 636.127,348.608 636.832,348.608 637.537,348.608 638.241,348.608 638.946,348.608 639.651,348.608 640.356,348.608 641.061,348.608 641.766,348.608 642.471,348.608 643.176,348.608 643.881,348.608 644.586,348.608 645.29,348.608 645.995,348.608 646.7,348.608 647.405,348.608 648.11,348.608 648.815,348.608 649.52,348.608 650.225,348.608 650.93,348.608 651.635,348.608 652.339,348.608 653.044,348.608 653.749,348.608 654.454,348.608 655.159,348.608 655.864,348.608 656.569,348.608 657.274,348.608 657.979,348.608 658.684,348.608 659.388,348.608 660.093,348.608 660.798,348.608 661.503,348.608 662.208,348.608 662.913,348.608 663.618,348.608 664.323,348.608 665.028,348.608 665.732,348.608 666.437,348.608 667.142,348.608 667.847,348.608 668.552,348.608 669.257,348.608 669.962,348.608 670.667,348.608 671.372,348.608 672.077,348.608 672.781,348.608 673.486,348.608 674.191,348.608 674.896,348.608 675.601,348.608 676.306,348.608 677.011,348.608 677.716,348.608 678.421,348.608 679.126,348.608 679.83,348.608 680.535,348.608 681.24,348.608 681.945,348.608 682.65,348.608 683.355,348.608 684.06,348.608 684.765,348.608 685.47,348.608 686.175,348.608 686.879,348.608 687.584,348.608 688.289,348.608 688.994,348.608 689.699,348.608 690.404,348.608 691.109,348.608 691.814,348.608 692.519,348.608 693.223,348.608 693.928,348.608 694.633,348.608 695.338,348.608 696.043,348.608 696.748,348.608 697.453,348.608 698.158,348.608 698.863,348.608 699.568,348.608 700.272,348.608 700.977,348.608 701.682,348.608 702.387,348.608 703.092,348.608 703.797,348.608 704.502,348.608 705.207,348.608 705.912,348.608 706.617,348.608 707.321,348.608 708.026,348.608 708.731,348.608 709.436,348.608 710.141,348.608 710.846,348.608 711.551,348.608 712.256,348.608 712.961,348.608 713.665,348.608 714.37,348.608 715.075,348.608 715.78,348.608 716.485,348.608 717.19,348.608 717.895,348.608 718.6,348.608 719.305,348.608 720.01,348.608 720.714,348.608 721.419,348.608 722.124,348.608 722.829,348.608 723.534,348.608 724.239,348.608 724.944,348.608 725.649,348.608 726.354,348.608 727.059,348.608 727.763,348.608 728.468,348.608 729.173,348.608 729.878,348.608 730.583,348.608 731.288,348.608 731.993,348.608 732.698,348.608 733.403,348.608 734.108,348.608 734.812,348.608 735.517,348.608 736.222,348.608 736.927,348.608 737.632,348.608 738.337,348.608 739.042,348.608 739.747,348.608 740.452,348.608 741.156,348.608 741.861,348.608 742.566,348.608 743.271,348.608 743.976,348.608 744.681,348.608 745.386,348.608 746.091,348.608 746.796,348.608 747.501,348.608 748.205,348.608 748.91,348.608 749.615,348.608 750.32,348.608 751.025,348.608 751.73,348.608 752.435,348.608 753.14,348.608 753.845,348.608 754.55,348.608 755.254,348.608 755.959,348.608 756.664,348.608 757.369,348.608 758.074,348.608 758.779,348.608 759.484,348.608 760.189,348.608 760.894,348.608 761.599,348.608 762.303,348.608 763.008,348.608 763.713,348.608 764.418,348.608 765.123,348.608 765.828,348.608 766.533,348.608 767.238,348.608 767.943,348.608 768.647,348.608 769.352,348.608 770.057,348.608 770.762,348.608 771.467,348.608 772.172,348.608 772.877,348.608 773.582,348.608 774.287,348.608 774.992,348.608 775.696,348.608 776.401,348.608 777.106,348.608 777.811,348.608 778.516,348.608 779.221,348.608 779.926,348.608 780.631,348.608 781.336,348.608 782.041,348.608 782.745,348.608 783.45,348.608 784.155,348.608 784.86,348.608 785.565,348.608 786.27,348.608 786.975,348.608 787.68,348.608 788.385,348.608 789.089,348.608 789.794,348.608 790.499,348.608 791.204,348.608 791.909,348.608 792.614,348.608 793.319,348.608 794.024,348.608 794.729,348.608 795.434,348.608 796.138,348.608 796.843,348.608 797.548,348.608 798.253,348.608 798.958,348.608 799.663,348.608 800.368,348.608 801.073,348.608 801.778,348.608 802.483,348.608 803.187,348.608 803.892,348.608 804.597,348.608 805.302,348.608 806.007,348.608 806.712,348.608 807.417,348.608 808.122,348.608 808.827,348.608 809.532,348.608 810.236,348.608 810.941,348.608 811.646,348.608 812.351,348.608 813.056,348.608 813.761,348.608 814.466,348.608 815.171,348.608 815.876,348.608 816.58,348.608 817.285,348.608 817.99,348.608 818.695,348.608 819.4,348.608 820.105,348.608 820.81,348.608 821.515,348.608 822.22,348.608 822.925,348.608 823.629,348.608 824.334,348.608 825.039,348.608 825.744,348.608 826.449,348.608 827.154,348.608 827.859,348.608 828.564,348.608 829.269,348.608 829.974,348.608 830.678,348.608 831.383,348.608 832.088,348.608 832.793,348.608 833.498,348.608 834.203,348.608 834.908,348.608 835.613,348.608 836.318,348.608 837.023,348.608 837.727,348.608 838.432,348.608 839.137,348.608 839.842,348.608 840.547,348.608 841.252,348.608 841.957,348.608 842.662,348.608 843.367,348.608 844.071,348.608 844.776,348.608 845.481,348.608 846.186,348.608 846.891,348.608 847.596,348.608 848.301,348.608 849.006,348.608 849.711,348.608 850.416,348.608 851.12,348.608 851.825,348.608 852.53,348.608 853.235,348.608 853.94,348.608 854.645,348.608 855.35,348.608 856.055,348.608 856.76,348.608 857.465,348.608 858.169,348.608 858.874,348.608 859.579,348.608 860.284,348.608 860.989,348.608 861.694,348.608 862.399,348.608 863.104,348.608 863.809,348.608 864.513,348.608 865.218,348.608 865.923,348.608 866.628,348.608 867.333,348.608 868.038,348.608 868.743,348.608 869.448,348.608 870.153,348.608 870.858,348.608 871.562,348.608 872.267,348.608 872.972,348.608 873.677,348.608 874.382,348.608 875.087,348.608 875.792,348.608 876.497,348.608 877.202,348.608 877.907,348.608 878.611,348.608 879.316,348.608 880.021,348.608 880.726,348.608 881.431,348.608 882.136,348.608 882.841,348.608 883.546,348.608 884.251,348.608 884.956,348.608 885.66,348.608 886.365,348.608 887.07,348.608 887.775,348.608 888.48,348.608 889.185,348.608 889.89,348.608 890.595,348.608 891.3,348.608 892.004,348.608 892.709,348.608 893.414,348.608 894.119,348.608 894.824,348.608 895.529,348.608 896.234,348.608 896.939,348.608 897.644,348.608 898.349,348.608 899.053,348.608 899.758,348.608 900.463,348.608 901.168,348.608 901.873,348.608 902.578,348.608 903.283,348.608 903.988,348.608 904.693,348.608 905.398,348.608 906.102,348.608 906.807,348.608 907.512,348.608 908.217,348.608 908.922,348.608 909.627,348.608 910.332,348.608 911.037,348.608 911.742,348.608 912.447,348.608 913.151,348.608 913.856,348.608 914.561,348.608 915.266,348.608 915.971,348.608 916.676,348.608 917.381,348.608 918.086,348.608 918.791,348.608 919.495,348.608 920.2,348.608 920.905,348.608 921.61,348.608 922.315,348.608 923.02,348.608 923.725,348.608 924.43,348.608 925.135,348.608 925.84,348.608 926.544,348.608 927.249,348.608 927.954,348.608 928.659,348.608 929.364,348.608 930.069,348.608 930.774,348.608 931.479,348.608 932.184,348.608 932.889,348.608 933.593,348.608 934.298,348.608 935.003,348.608 935.708,348.608 936.413,348.608 937.118,348.608 937.823,348.608 938.528,348.608 939.233,348.608 939.937,348.608 940.642,348.608 941.347,348.608 942.052,348.608 942.757,348.608 943.462,348.608 944.167,348.608 944.872,348.608 945.577,348.608 946.282,348.608 946.986,348.608 947.691,348.608 948.396,348.608 949.101,348.608 949.806,348.608 950.511,348.608 951.216,348.608 951.921,348.608 952.626,348.608 953.331,348.608 954.035,348.608 954.74,348.608 955.445,348.608 956.15,348.608 956.855,348.608 957.56,348.608 958.265,348.608 958.97,348.608 959.675,348.608 960.38,348.608 961.084,348.608 961.789,348.608 962.494,348.608 963.199,348.608 963.904,348.608 964.609,348.608 965.314,348.608 966.019,348.608 966.724,348.608 967.428,348.608 968.133,348.608 968.838,348.608 969.543,348.608 970.248,348.608 970.953,348.608 971.658,348.608 972.363,348.608 973.068,348.608 973.773,348.608 974.477,348.608 975.182,348.608 975.887,348.608 976.592,348.608 977.297,348.608 978.002,348.608 978.707,348.608 979.412,348.608 980.117,348.608 980.822,348.608 981.526,348.608 982.231,348.608 982.936,348.608 983.641,348.608 984.346,348.608 985.051,348.608 985.756,348.608 986.461,348.608 987.166,348.608 987.871,348.608 988.575,348.608 989.28,348.608 989.985,348.608 990.69,348.608 991.395,348.608 992.1,348.608 992.805,348.608 993.51,348.608 994.215,348.608 994.919,348.608 995.624,348.608 996.329,348.608 997.034,348.608 997.739,348.608 998.444,348.608 999.149,348.608 999.854,348.608 1000.56,348.608 1001.26,348.608 1001.97,348.608 1002.67,348.608 1003.38,348.608 1004.08,348.608 1004.79,348.608 1005.49,348.608 1006.2,348.608 1006.9,348.608 1007.61,348.608 1008.31,348.608 1009.02,348.608 1009.72,348.608 1010.43,348.608 1011.13,348.608 1011.84,348.608 1012.54,348.608 1013.25,348.608 1013.95,348.608 1014.66,348.608 1015.36,348.608 1016.07,348.608 1016.77,348.608 1017.48,348.608 1018.18,348.608 1018.89,348.608 1019.59,348.608 1020.3,348.608 1021,348.608 1021.71,348.608 1022.41,348.608 1023.12,348.608 1023.82,348.608 1024.53,348.608 1025.23,348.608 1025.93,348.608 1026.64,348.608 1027.34,348.608 1028.05,348.608 1028.75,348.608 1029.46,348.608 1030.16,348.608 1030.87,348.608 1031.57,348.608 1032.28,348.608 1032.98,348.608 1033.69,348.608 1034.39,348.608 1035.1,348.608 1035.8,348.608 1036.51,348.608 1037.21,348.608 1037.92,348.608 1038.62,348.608 1039.33,348.608 1040.03,348.608 1040.74,348.608 1041.44,348.608 1042.15,348.608 1042.85,348.608 1043.56,348.608 1044.26,348.608 1044.97,348.608 1045.67,348.608 1046.38,348.608 1047.08,348.608 1047.79,348.608 1048.49,348.608 1049.2,348.608 1049.9,348.608 1050.61,348.608 1051.31,348.608 1052.02,348.608 1052.72,348.608 1053.43,348.608 1054.13,348.608 1054.84,348.608 1055.54,348.608 1056.25,348.608 1056.95,348.608 1057.66,348.608 1058.36,348.608 1059.07,348.608 1059.77,348.608 1060.47,348.608 1061.18,348.608 1061.88,348.608 1062.59,348.608 1063.29,348.608 1064,348.608 1064.7,348.608 1065.41,348.608 1066.11,348.608 1066.82,348.608 1067.52,348.608 1068.23,348.608 1068.93,348.608 1069.64,348.608 1070.34,348.608 1071.05,348.608 1071.75,348.608 1072.46,348.608 1073.16,348.608 1073.87,348.608 1074.57,348.608 1075.28,348.608 1075.98,348.608 1076.69,348.608 1077.39,348.608 1078.1,348.608 1078.8,348.608 1079.51,348.608 1080.21,348.608 1080.92,348.608 1081.62,348.608 1082.33,348.608 1083.03,348.608 1083.74,348.608 1084.44,348.608 1085.15,348.608 1085.85,348.608 1086.56,348.608 1087.26,348.608 1087.97,348.608 1088.67,348.608 1089.38,348.608 1090.08,348.608 1090.79,348.608 1091.49,348.608 1092.2,348.608 1092.9,348.608 1093.61,348.608 1094.31,348.608 1095.01,348.608 1095.72,348.608 1096.42,348.608 1097.13,348.608 1097.83,348.608 1098.54,348.608 1099.24,348.608 1099.95,348.608 1100.65,348.608 1101.36,348.608 1102.06,348.608 1102.77,348.608 1103.47,348.608 1104.18,348.608 1104.88,348.608 1105.59,348.608 1106.29,348.608 1107,348.608 1107.7,348.608 1108.41,348.608 1109.11,348.608 1109.82,348.608 1110.52,348.608 1111.23,348.608 1111.93,348.608 1112.64,348.608 1113.34,348.608 1114.05,348.608 1114.75,348.608 1115.46,348.608 1116.16,348.608 1116.87,348.608 1117.57,348.608 1118.28,348.608 1118.98,348.608 1119.69,348.608 1120.39,348.608 1121.1,348.608 1121.8,348.608 1122.51,348.608 1123.21,348.608 1123.92,348.608 1124.62,348.608 1125.33,348.608 1126.03,348.608 1126.74,348.608 1127.44,348.608 1128.15,348.608 1128.85,348.608 1129.55,348.608 1130.26,348.608 1130.96,348.608 1131.67,348.608 1132.37,348.608 1133.08,348.608 1133.78,348.608 1134.49,348.608 1135.19,348.608 1135.9,348.608 1136.6,348.608 1137.31,348.608 1138.01,348.608 1138.72,348.608 1139.42,348.608 1140.13,348.608 1140.83,348.608 1141.54,348.608 1142.24,348.608 1142.95,348.608 1143.65,348.608 1144.36,348.608 1145.06,348.608 1145.77,348.608 1146.47,348.608 1147.18,348.608 1147.88,348.608 1148.59,348.608 1149.29,348.608 1150,348.608 1150.7,348.608 1151.41,348.608 1152.11,348.608 1152.82,348.608 1153.52,348.608 1154.23,348.608 1154.93,348.608 1155.64,348.608 1156.34,348.608 1157.05,348.608 1157.75,348.608 1158.46,348.608 1159.16,348.608 1159.87,348.608 1160.57,348.608 1161.28,348.608 1161.98,348.608 1162.69,348.608 1163.39,348.608 1164.09,348.608 1164.8,348.608 1165.5,348.608 1166.21,348.608 1166.91,348.608 1167.62,348.608 1168.32,348.608 1169.03,348.608 1169.73,348.608 1170.44,348.608 1171.14,348.608 1171.85,348.608 1172.55,348.608 1173.26,348.608 1173.96,348.608 1174.67,348.608 1175.37,348.608 1176.08,348.608 1176.78,348.608 1177.49,348.608 1178.19,348.608 1178.9,348.608 1179.6,348.608 1180.31,348.608 1181.01,348.608 1181.72,348.608 1182.42,348.608 1183.13,348.608 1183.83,348.608 1184.54,348.608 1185.24,348.608 1185.95,348.608 1186.65,348.608 1187.36,348.608 1188.06,348.608 1188.77,348.608 1189.47,348.608 1190.18,348.608 1190.88,348.608 1191.59,348.608 1192.29,348.608 1193,348.608 1193.7,348.608 1194.41,348.608 1195.11,348.608 1195.82,348.608 1196.52,348.608 1197.22,348.608 1197.93,348.608 1198.63,348.608 1199.34,348.608 1200.04,348.608 1200.75,348.608 1201.45,348.608 1202.16,348.608 1202.86,348.608 1203.57,348.608 1204.27,348.608 1204.98,348.608 1205.68,348.608 1206.39,348.608 1207.09,348.608 1207.8,348.608 1208.5,348.608 1209.21,348.608 1209.91,348.608 1210.62,348.608 1211.32,348.608 1212.03,348.608 1212.73,348.608 1213.44,348.608 1214.14,348.608 1214.85,348.608 1215.55,348.608 1216.26,348.608 1216.96,348.608 1217.67,348.608 1218.37,348.608 1219.08,348.608 1219.78,348.608 1220.49,348.608 1221.19,348.608 1221.9,348.608 1222.6,348.608 1223.31,348.608 1224.01,348.608 1224.72,348.608 1225.42,348.608 1226.13,348.608 1226.83,348.608 1227.54,348.608 1228.24,348.608 1228.95,348.608 1229.65,348.608 1230.36,348.608 1231.06,348.608 1231.76,348.608 1232.47,348.608 1233.17,348.608 1233.88,348.608 1234.58,348.608 1235.29,348.608 1235.99,348.608 1236.7,348.608 1237.4,348.608 1238.11,348.608 1238.81,348.608 1239.52,348.608 1240.22,348.608 1240.93,348.608 1241.63,348.608 1242.34,348.608 1243.04,348.608 1243.75,348.608 1244.45,348.608 1245.16,348.608 1245.86,348.608 1246.57,348.608 1247.27,348.608 1247.98,348.608 1248.68,348.608 1249.39,348.608 1250.09,348.608 1250.8,348.608 1251.5,348.608 1252.21,348.608 1252.91,348.608 1253.62,348.608 1254.32,348.608 1255.03,348.608 1255.73,348.608 1256.44,348.608 1257.14,348.608 1257.85,348.608 1258.55,348.608 1259.26,348.608 1259.96,348.608 1260.67,348.608 1261.37,348.608 1262.08,348.608 1262.78,348.608 1263.49,348.608 1264.19,348.608 1264.9,348.608 1265.6,348.608 1266.3,348.608 1267.01,348.608 1267.71,348.608 1268.42,348.608 1269.12,348.608 1269.83,348.608 1270.53,348.608 1271.24,348.608 1271.94,348.608 1272.65,348.608 1273.35,348.608 1274.06,348.608 1274.76,348.608 1275.47,348.608 1276.17,348.608 1276.88,348.608 1277.58,348.608 1278.29,348.608 1278.99,348.608 1279.7,348.608 1280.4,348.608 1281.11,348.608 1281.81,348.608 1282.52,348.608 1283.22,348.608 1283.93,348.608 1284.63,348.608 1285.34,348.608 1286.04,348.608 1286.75,348.608 1287.45,348.608 1288.16,348.608 1288.86,348.608 1289.57,348.608 1290.27,348.608 1290.98,348.608 1291.68,348.608 1292.39,348.608 1293.09,348.608 1293.8,348.608 1294.5,348.608 1295.21,348.608 1295.91,348.608 1296.62,348.608 1297.32,348.608 1298.03,348.608 1298.73,348.608 1299.44,348.608 1300.14,348.608 1300.84,348.608 1301.55,348.608 1302.25,348.608 1302.96,348.608 1303.66,348.608 1304.37,348.608 1305.07,348.608 1305.78,348.608 1306.48,348.608 1307.19,348.608 1307.89,348.608 1308.6,348.608 1309.3,348.608 1310.01,348.608 1310.71,348.608 1311.42,348.608 1312.12,348.608 1312.83,348.608 1313.53,348.608 1314.24,348.608 1314.94,348.608 1315.65,348.608 1316.35,348.608 1317.06,348.608 1317.76,348.608 1318.47,348.608 1319.17,348.608 1319.88,348.608 1320.58,348.608 1321.29,348.608 1321.99,348.608 1322.7,348.608 1323.4,348.608 1324.11,348.608 1324.81,348.608 1325.52,348.608 1326.22,348.608 1326.93,348.608 1327.63,348.608 1328.34,348.608 1329.04,348.608 1329.75,348.608 1330.45,348.608 1331.16,348.608 1331.86,348.608 1332.57,348.608 1333.27,348.608 1333.98,348.608 1334.68,348.608 1335.38,348.608 1336.09,348.608 1336.79,348.608 1337.5,348.608 1338.2,348.608 1338.91,348.608 1339.61,348.608 1340.32,348.608 1341.02,348.608 1341.73,348.608 1342.43,348.608 1342.43,86.5525 1343.14,86.5525 1343.84,86.5525 1344.55,86.5525 1345.25,86.5525 1345.96,86.5525 1346.66,86.5525 1347.37,86.5525 1348.07,86.5525 1348.78,86.5525 1349.48,86.5525 1350.19,86.5525 1350.89,86.5525 1351.6,86.5525 1352.3,86.5525 1353.01,86.5525 1353.71,86.5525 1354.42,86.5525 1355.12,86.5525 1355.83,86.5525 1356.53,86.5525 1357.24,86.5525 1357.94,86.5525 1358.65,86.5525 1359.35,86.5525 1360.06,86.5525 1360.76,86.5525 1361.47,86.5525 1362.17,86.5525 1362.88,86.5525 1363.58,86.5525 1364.29,86.5525 1364.99,86.5525 1365.7,86.5525 1366.4,86.5525 1367.11,86.5525 1367.81,86.5525 1368.51,86.5525 1369.22,86.5525 1369.92,86.5525 1370.63,86.5525 1371.33,86.5525 1372.04,86.5525 1372.74,86.5525 1373.45,86.5525 1374.15,86.5525 1374.86,86.5525 1375.56,86.5525 1376.27,86.5525 1376.97,86.5525 1377.68,86.5525 1378.38,86.5525 1379.09,86.5525 1379.79,86.5525 1380.5,86.5525 1381.2,86.5525 1381.91,86.5525 1382.61,86.5525 1383.32,86.5525 1384.02,86.5525 1384.73,86.5525 1385.43,86.5525 1386.14,86.5525 1386.84,86.5525 1387.55,86.5525 1388.25,86.5525 1388.96,86.5525 1389.66,86.5525 1390.37,86.5525 1391.07,86.5525 1391.78,86.5525 1392.48,86.5525 1393.19,86.5525 1393.89,86.5525 1394.6,86.5525 1395.3,86.5525 1396.01,86.5525 1396.71,86.5525 1397.42,86.5525 1398.12,86.5525 1398.83,86.5525 1399.53,86.5525 1400.24,86.5525 1400.94,86.5525 1401.65,86.5525 1402.35,86.5525 1403.05,86.5525 1403.76,86.5525 1404.46,86.5525 1405.17,86.5525 1405.87,86.5525 1406.58,86.5525 1407.28,86.5525 1407.99,86.5525 1408.69,86.5525 1409.4,86.5525 1410.1,86.5525 1410.81,86.5525 1411.51,86.5525 1412.22,86.5525 1412.92,86.5525 1413.63,86.5525 1414.33,86.5525 1415.04,86.5525 1415.74,86.5525 1416.45,86.5525 1417.15,86.5525 1417.86,86.5525 1418.56,86.5525 1419.27,86.5525 1419.97,86.5525 1420.68,86.5525 1421.38,86.5525 1422.09,86.5525 1422.79,86.5525 1423.5,86.5525 1424.2,86.5525 1424.91,86.5525 1425.61,86.5525 1426.32,86.5525 1427.02,86.5525 1427.73,86.5525 1428.43,86.5525 1429.14,86.5525 1429.84,86.5525 1430.55,86.5525 1431.25,86.5525 1431.96,86.5525 1432.66,86.5525 1433.37,86.5525 1434.07,86.5525 1434.78,86.5525 1435.48,86.5525 1436.19,86.5525 1436.89,86.5525 1437.59,86.5525 1438.3,86.5525 1439,86.5525 1439.71,86.5525 1440.41,86.5525 1441.12,86.5525 1441.82,86.5525 1442.53,86.5525 1443.23,86.5525 1443.94,86.5525 1444.64,86.5525 1445.35,86.5525 1446.05,86.5525 1446.76,86.5525 1447.46,86.5525 1448.17,86.5525 1448.87,86.5525 1449.58,86.5525 1450.28,86.5525 1450.99,86.5525 1451.69,86.5525 1452.4,86.5525 1453.1,86.5525 1453.81,86.5525 1454.51,86.5525 1455.22,86.5525 1455.92,86.5525 1456.63,86.5525 1457.33,86.5525 1458.04,86.5525 1458.74,86.5525 1459.45,86.5525 1460.15,86.5525 1460.86,86.5525 1461.56,86.5525 1462.27,86.5525 1462.97,86.5525 1463.68,86.5525 1464.38,86.5525 1465.09,86.5525 1465.79,86.5525 1466.5,86.5525 1467.2,86.5525 1467.91,86.5525 1468.61,86.5525 1469.32,86.5525 1470.02,86.5525 1470.73,86.5525 1471.43,86.5525 1472.13,86.5525 1472.84,86.5525 1473.54,86.5525 1474.25,86.5525 1474.95,86.5525 1475.66,86.5525 1476.36,86.5525 1477.07,86.5525 1477.77,86.5525 1478.48,86.5525 1479.18,86.5525 1479.89,86.5525 1480.59,86.5525 1481.3,86.5525 1482,86.5525 1482.71,86.5525 1483.41,86.5525 1484.12,86.5525 1484.82,86.5525 1485.53,86.5525 1486.23,86.5525 1486.94,86.5525 1487.64,86.5525 1488.35,86.5525 1489.05,86.5525 1489.76,86.5525 1490.46,86.5525 1491.17,86.5525 1491.87,86.5525 1492.58,86.5525 1493.28,86.5525 1493.99,86.5525 1494.69,86.5525 1495.4,86.5525 1496.1,86.5525 1496.81,86.5525 1497.51,86.5525 1498.22,86.5525 1498.92,86.5525 1499.63,86.5525 1500.33,86.5525 1501.04,86.5525 1501.74,86.5525 1502.45,86.5525 1503.15,86.5525 1503.86,86.5525 1504.56,86.5525 1505.27,86.5525 1505.97,86.5525 1506.67,86.5525 1507.38,86.5525 1508.08,86.5525 1508.79,86.5525 1509.49,86.5525 1510.2,86.5525 1510.9,86.5525 1511.61,86.5525 1512.31,86.5525 1513.02,86.5525 1513.72,86.5525 1514.43,86.5525 1515.13,86.5525 1515.84,86.5525 1516.54,86.5525 1517.25,86.5525 1517.95,86.5525 1518.66,86.5525 1519.36,86.5525 1520.07,86.5525 1520.77,86.5525 1521.48,86.5525 1522.18,86.5525 1522.89,86.5525 1523.59,86.5525 1524.3,86.5525 1525,86.5525 1525.71,86.5525 1526.41,86.5525 1527.12,86.5525 1527.82,86.5525 1528.53,86.5525 1529.23,86.5525 1529.94,86.5525 1530.64,86.5525 1531.35,86.5525 1532.05,86.5525 1532.76,86.5525 1533.46,86.5525 1534.17,86.5525 1534.87,86.5525 1535.58,86.5525 1536.28,86.5525 1536.99,86.5525 1537.69,86.5525 1538.4,86.5525 1539.1,86.5525 1539.81,86.5525 1540.51,86.5525 1541.21,86.5525 1541.92,86.5525 1542.62,86.5525 1543.33,86.5525 1544.03,86.5525 1544.74,86.5525 1545.44,86.5525 1546.15,86.5525 1546.85,86.5525 1547.56,86.5525 1548.26,86.5525 1548.97,86.5525 1549.67,86.5525 1550.38,86.5525 1551.08,86.5525 1551.79,86.5525 1552.49,86.5525 1553.2,86.5525 1553.9,86.5525 1554.61,86.5525 1555.31,86.5525 1556.02,86.5525 1556.72,86.5525 1557.43,86.5525 1558.13,86.5525 1558.84,86.5525 1559.54,86.5525 1560.25,86.5525 1560.95,86.5525 1561.66,86.5525 1562.36,86.5525 1563.07,86.5525 1563.77,86.5525 1564.48,86.5525 1565.18,86.5525 1565.89,86.5525 1566.59,86.5525 1567.3,86.5525 1568,86.5525 1568.71,86.5525 1569.41,86.5525 1570.12,86.5525 1570.82,86.5525 1571.53,86.5525 1572.23,86.5525 1572.94,86.5525 1573.64,86.5525 1574.34,86.5525 1575.05,86.5525 1575.75,86.5525 1576.46,86.5525 1577.16,86.5525 1577.87,86.5525 1578.57,86.5525 1579.28,86.5525 1579.98,86.5525 1580.69,86.5525 1581.39,86.5525 1582.1,86.5525 1582.8,86.5525 1583.51,86.5525 1584.21,86.5525 1584.92,86.5525 1585.62,86.5525 1586.33,86.5525 1587.03,86.5525 1587.74,86.5525 1588.44,86.5525 1589.15,86.5525 1589.85,86.5525 1590.56,86.5525 1591.26,86.5525 1591.97,86.5525 1592.67,86.5525 1593.38,86.5525 1594.08,86.5525 1594.79,86.5525 1595.49,86.5525 1596.2,86.5525 1596.9,86.5525 1597.61,86.5525 1598.31,86.5525 1599.02,86.5525 1599.72,86.5525 1600.43,86.5525 1601.13,86.5525 1601.84,86.5525 1602.54,86.5525 1603.25,86.5525 1603.95,86.5525 1604.66,86.5525 1605.36,86.5525 1606.07,86.5525 1606.77,86.5525 1607.48,86.5525 1608.18,86.5525 1608.88,86.5525 1609.59,86.5525 1610.29,86.5525 1611,86.5525 1611.7,86.5525 1612.41,86.5525 1613.11,86.5525 1613.82,86.5525 1614.52,86.5525 1615.23,86.5525 1615.93,86.5525 1616.64,86.5525 1617.34,86.5525 1618.05,86.5525 1618.75,86.5525 1619.46,86.5525 1620.16,86.5525 1620.87,86.5525 1621.57,86.5525 1622.28,86.5525 1622.98,86.5525 1623.69,86.5525 1624.39,86.5525 1625.1,86.5525 1625.8,86.5525 1626.51,86.5525 1627.21,86.5525 1627.92,86.5525 1628.62,86.5525 1629.33,86.5525 1630.03,86.5525 1630.74,86.5525 1631.44,86.5525 1632.15,86.5525 1632.85,86.5525 1633.56,86.5525 1634.26,86.5525 1634.97,86.5525 1635.67,86.5525 1636.38,86.5525 1637.08,86.5525 1637.79,86.5525 1638.49,86.5525 1639.2,86.5525 1639.9,86.5525 1640.61,86.5525 1641.31,86.5525 1642.02,86.5525 1642.72,86.5525 1643.42,86.5525 1644.13,86.5525 1644.83,86.5525 1645.54,86.5525 1646.24,86.5525 1646.95,86.5525 1647.65,86.5525 1648.36,86.5525 1649.06,86.5525 1649.77,86.5525 1650.47,86.5525 1651.18,86.5525 1651.88,86.5525 1652.59,86.5525 1653.29,86.5525 1654,86.5525 1654.7,86.5525 1655.41,86.5525 1656.11,86.5525 1656.82,86.5525 1657.52,86.5525 1658.23,86.5525 1658.93,86.5525 1659.64,86.5525 1660.34,86.5525 1661.05,86.5525 1661.75,86.5525 1662.46,86.5525 1663.16,86.5525 1663.87,86.5525 1664.57,86.5525 1665.28,86.5525 1665.98,86.5525 1666.69,86.5525 1667.39,86.5525 1668.1,86.5525 1668.8,86.5525 1669.51,86.5525 1670.21,86.5525 1670.92,86.5525 1671.62,86.5525 1672.33,86.5525 1673.03,86.5525 1673.74,86.5525 1674.44,86.5525 1675.15,86.5525 1675.85,86.5525 1676.56,86.5525 1677.26,86.5525 1677.96,86.5525 1678.67,86.5525 1679.37,86.5525 1680.08,86.5525 1680.78,86.5525 1681.49,86.5525 1682.19,86.5525 1682.9,86.5525 1683.6,86.5525 1684.31,86.5525 1685.01,86.5525 1685.72,86.5525 1686.42,86.5525 1687.13,86.5525 1687.83,86.5525 1688.54,86.5525 1689.24,86.5525 1689.95,86.5525 1690.65,86.5525 1691.36,86.5525 1692.06,86.5525 1692.77,86.5525 1693.47,86.5525 1694.18,86.5525 1694.88,86.5525 1695.59,86.5525 1696.29,86.5525 1697,86.5525 1697.7,86.5525 1698.41,86.5525 1699.11,86.5525 1699.82,86.5525 1700.52,86.5525 1701.23,86.5525 1701.93,86.5525 1702.64,86.5525 1703.34,86.5525 1704.05,86.5525 1704.75,86.5525 1705.46,86.5525 1706.16,86.5525 1706.87,86.5525 1707.57,86.5525 1708.28,86.5525 1708.98,86.5525 1709.69,86.5525 1710.39,86.5525 1711.1,86.5525 1711.8,86.5525 1712.5,86.5525 1713.21,86.5525 1713.91,86.5525 1714.62,86.5525 1715.32,86.5525 1716.03,86.5525 1716.73,86.5525 1717.44,86.5525 1718.14,86.5525 1718.85,86.5525 1719.55,86.5525 1720.26,86.5525 1720.96,86.5525 1721.67,86.5525 1722.37,86.5525 1723.08,86.5525 1723.78,86.5525 1724.49,86.5525 1725.19,86.5525 1725.9,86.5525 1726.6,86.5525 1727.31,86.5525 1728.01,86.5525 1728.72,86.5525 1729.42,86.5525 1730.13,86.5525 1730.83,86.5525 1731.54,86.5525 1732.24,86.5525 1732.95,86.5525 1733.65,86.5525 1734.36,86.5525 1735.06,86.5525 1735.77,86.5525 1736.47,86.5525 1737.18,86.5525 1737.88,86.5525 1738.59,86.5525 1739.29,86.5525 1740,86.5525 1740.7,86.5525 1741.41,86.5525 1742.11,86.5525 1742.82,86.5525 1743.52,86.5525 1744.23,86.5525 1744.93,86.5525 1745.63,86.5525 1746.34,86.5525 1747.04,86.5525 1747.75,86.5525 1748.45,86.5525 1749.16,86.5525 1749.86,86.5525 1750.57,86.5525 1751.27,86.5525 1751.98,86.5525 1752.68,86.5525 1753.39,86.5525 1754.09,86.5525 1754.8,86.5525 1755.5,86.5525 1756.21,86.5525 1756.91,86.5525 1757.62,86.5525 1758.32,86.5525 1759.03,86.5525 1759.73,86.5525 1760.44,86.5525 1761.14,86.5525 1761.85,86.5525 1762.55,86.5525 1763.26,86.5525 1763.96,86.5525 1764.67,86.5525 1765.37,86.5525 1766.08,86.5525 1766.78,86.5525 1767.49,86.5525 1768.19,86.5525 1768.9,86.5525 1769.6,86.5525 1770.31,86.5525 1771.01,86.5525 1771.72,86.5525 1772.42,86.5525 1773.13,86.5525 1773.83,86.5525 1774.54,86.5525 1775.24,86.5525 1775.95,86.5525 1776.65,86.5525 1777.36,86.5525 1778.06,86.5525 1778.77,86.5525 1779.47,86.5525 1780.17,86.5525 1780.88,86.5525 1781.58,86.5525 1782.29,86.5525 1782.99,86.5525 1783.7,86.5525 1784.4,86.5525 1785.11,86.5525 1785.81,86.5525 1786.52,86.5525 1787.22,86.5525 1787.93,86.5525 1788.63,86.5525 1789.34,86.5525 1790.04,86.5525 1790.75,86.5525 1791.45,86.5525 1792.16,86.5525 1792.86,86.5525 1793.57,86.5525 1794.27,86.5525 1794.98,86.5525 1795.68,86.5525 1796.39,86.5525 1797.09,86.5525 1797.8,86.5525 1798.5,86.5525 1799.21,86.5525 1799.91,86.5525 1800.62,86.5525 1801.32,86.5525 1802.03,86.5525 1802.73,86.5525 1803.44,86.5525 1804.14,86.5525 1804.85,86.5525 1805.55,86.5525 1806.26,86.5525 1806.96,86.5525 1807.67,86.5525 1808.37,86.5525 1809.08,86.5525 1809.78,86.5525 1810.49,86.5525 1811.19,86.5525 1811.9,86.5525 1812.6,86.5525 1813.31,86.5525 1814.01,86.5525 1814.71,86.5525 1815.42,86.5525 1816.12,86.5525 1816.83,86.5525 1817.53,86.5525 1818.24,86.5525 1818.94,86.5525 1819.65,86.5525 1820.35,86.5525 1821.06,86.5525 1821.76,86.5525 1822.47,86.5525 1823.17,86.5525 1823.88,86.5525 1824.58,86.5525 1825.29,86.5525 1825.99,86.5525 1826.7,86.5525 1827.4,86.5525 1828.11,86.5525 1828.81,86.5525 1829.52,86.5525 1830.22,86.5525 1830.93,86.5525 1831.63,86.5525 1832.34,86.5525 1833.04,86.5525 1833.75,86.5525 1834.45,86.5525 1835.16,86.5525 1835.86,86.5525 1836.57,86.5525 1837.27,86.5525 1837.98,86.5525 1838.68,86.5525 1839.39,86.5525 1840.09,86.5525 1840.8,86.5525 1841.5,86.5525 1842.21,86.5525 1842.91,86.5525 1843.62,86.5525 1844.32,86.5525 1845.03,86.5525 1845.73,86.5525 1846.44,86.5525 1847.14,86.5525 1847.85,86.5525 1848.55,86.5525 1849.25,86.5525 1849.96,86.5525 1850.66,86.5525 1851.37,86.5525 1852.07,86.5525 1852.78,86.5525 1853.48,86.5525 1854.19,86.5525 1854.89,86.5525 1855.6,86.5525 1856.3,86.5525 1857.01,86.5525 1857.71,86.5525 1858.42,86.5525 1859.12,86.5525 1859.83,86.5525 1860.53,86.5525 1861.24,86.5525 1861.94,86.5525 1862.65,86.5525 1863.35,86.5525 1864.06,86.5525 1864.76,86.5525 1865.47,86.5525 1866.17,86.5525 1866.88,86.5525 1867.58,86.5525 1868.29,86.5525 1868.99,86.5525 1869.7,86.5525 1870.4,86.5525 1871.11,86.5525 1871.81,86.5525 1872.52,86.5525 1873.22,86.5525 1873.93,86.5525 1874.63,86.5525 1875.34,86.5525 1876.04,86.5525 1876.75,86.5525 1877.45,86.5525 1878.16,86.5525 1878.86,86.5525 1879.57,86.5525 1880.27,86.5525 1880.98,86.5525 1881.68,86.5525 1882.39,86.5525 1883.09,86.5525 1883.79,86.5525 1884.5,86.5525 1885.2,86.5525 1885.91,86.5525 1886.61,86.5525 1887.32,86.5525 1888.02,86.5525 1888.73,86.5525 1889.43,86.5525 1890.14,86.5525 1890.84,86.5525 1891.55,86.5525 1892.25,86.5525 1892.96,86.5525 1893.66,86.5525 1894.37,86.5525 1895.07,86.5525 1895.78,86.5525 1896.48,86.5525 1897.19,86.5525 1897.89,86.5525 1898.6,86.5525 1899.3,86.5525 1900.01,86.5525 1900.71,86.5525 1901.42,86.5525 1902.12,86.5525 1902.83,86.5525 1903.53,86.5525 1904.24,86.5525 1904.94,86.5525 1905.65,86.5525 1906.35,86.5525 1907.06,86.5525 1907.76,86.5525 1908.47,86.5525 1909.17,86.5525 1909.88,86.5525 1910.58,86.5525 1911.29,86.5525 1911.99,86.5525 1912.7,86.5525 1913.4,86.5525 1914.11,86.5525 1914.81,86.5525 1915.52,86.5525 1916.22,86.5525 1916.93,86.5525 1917.63,86.5525 1918.33,86.5525 1919.04,86.5525 1919.74,86.5525 1920.45,86.5525 1921.15,86.5525 1921.86,86.5525 1922.56,86.5525 1923.27,86.5525 1923.97,86.5525 1924.68,86.5525 1925.38,86.5525 1926.09,86.5525 1926.79,86.5525 1927.5,86.5525 1928.2,86.5525 1928.91,86.5525 1929.61,86.5525 1930.32,86.5525 1931.02,86.5525 1931.73,86.5525 1932.43,86.5525 1933.14,86.5525 1933.84,86.5525 1934.55,86.5525 1935.25,86.5525 1935.96,86.5525 1936.66,86.5525 1937.37,86.5525 1938.07,86.5525 1938.78,86.5525 1939.48,86.5525 1940.19,86.5525 1940.89,86.5525 1941.6,86.5525 1942.3,86.5525 1943.01,86.5525 1943.71,86.5525 1944.42,86.5525 1945.12,86.5525 1945.83,86.5525 1946.53,86.5525 1947.24,86.5525 1947.94,86.5525 1948.65,86.5525 1949.35,86.5525 1950.06,86.5525 1950.76,86.5525 1951.46,86.5525 1952.17,86.5525 1952.87,86.5525 1953.58,86.5525 1954.28,86.5525 1954.99,86.5525 1955.69,86.5525 1956.4,86.5525 1957.1,86.5525 1957.81,86.5525 1958.51,86.5525 1959.22,86.5525 1959.92,86.5525 1960.63,86.5525 1961.33,86.5525 1962.04,86.5525 1962.74,86.5525 1963.45,86.5525 1964.15,86.5525 1964.86,86.5525 1965.56,86.5525 1966.27,86.5525 1966.97,86.5525 1967.68,86.5525 1968.38,86.5525 1969.09,86.5525 1969.79,86.5525 1970.5,86.5525 1971.2,86.5525 1971.91,86.5525 1972.61,86.5525 1973.32,86.5525 1974.02,86.5525 1974.73,86.5525 1975.43,86.5525 1976.14,86.5525 1976.84,86.5525 1977.55,86.5525 1978.25,86.5525 1978.96,86.5525 1979.66,86.5525 1980.37,86.5525 1981.07,86.5525 1981.78,86.5525 1982.48,86.5525 1983.19,86.5525 1983.89,86.5525 1984.6,86.5525 1985.3,86.5525 1986,86.5525 1986.71,86.5525 1987.41,86.5525 1988.12,86.5525 1988.82,86.5525 1989.53,86.5525 1990.23,86.5525 1990.94,86.5525 1991.64,86.5525 1992.35,86.5525 1993.05,86.5525 1993.76,86.5525 1994.46,86.5525 1995.17,86.5525 1995.87,86.5525 1996.58,86.5525 1997.28,86.5525 1997.99,86.5525 1998.69,86.5525 1999.4,86.5525 2000.1,86.5525 2000.81,86.5525 2001.51,86.5525 2002.22,86.5525 2002.92,86.5525 2003.63,86.5525 2004.33,86.5525 2005.04,86.5525 2005.74,86.5525 2006.45,86.5525 2007.15,86.5525 2007.86,86.5525 2008.56,86.5525 2009.27,86.5525 2009.97,86.5525 2010.68,86.5525 2011.38,86.5525 2012.09,86.5525 2012.79,86.5525 2013.5,86.5525 2014.2,86.5525 2014.91,86.5525 2015.61,86.5525 2016.32,86.5525 2017.02,86.5525 2017.73,86.5525 2018.43,86.5525 2019.14,86.5525 2019.84,86.5525 2020.54,86.5525 2021.25,86.5525 2021.95,86.5525 2022.66,86.5525 2023.36,86.5525 2024.07,86.5525 2024.77,86.5525 2025.48,86.5525 2026.18,86.5525 2026.89,86.5525 2027.59,86.5525 2028.3,86.5525 2029,86.5525 2029.71,86.5525 2030.41,86.5525 2031.12,86.5525 2031.82,86.5525 2032.53,86.5525 2033.23,86.5525 2033.94,86.5525 2034.64,86.5525 2035.35,86.5525 2036.05,86.5525 2036.76,86.5525 2037.46,86.5525 2038.17,86.5525 2038.87,86.5525 2039.58,86.5525 2040.28,86.5525 2040.99,86.5525 2041.69,86.5525 2042.4,86.5525 2043.1,86.5525 2043.81,86.5525 2044.51,86.5525 2045.22,86.5525 2045.92,86.5525 2046.63,86.5525 2047.33,86.5525 2048.04,86.5525 2048.74,86.5525 2049.45,86.5525 2050.15,86.5525 2050.86,86.5525 2051.56,86.5525 2052.27,86.5525 2052.97,86.5525 2053.68,86.5525 2054.38,86.5525 2055.08,86.5525 2055.79,86.5525 2056.49,86.5525 2057.2,86.5525 2057.9,86.5525 2058.61,86.5525 2059.31,86.5525 2060.02,86.5525 2060.72,86.5525 2061.43,86.5525 2062.13,86.5525 2062.84,86.5525 2063.54,86.5525 2064.25,86.5525 2064.95,86.5525 2065.66,86.5525 2066.36,86.5525 2067.07,86.5525 2067.77,86.5525 2068.48,86.5525 2069.18,86.5525 2069.89,86.5525 2070.59,86.5525 2071.3,86.5525 2072,86.5525 2072.71,86.5525 2073.41,86.5525 2074.12,86.5525 2074.82,86.5525 2075.53,86.5525 2076.23,86.5525 2076.94,86.5525 2077.64,86.5525 2078.35,86.5525 2079.05,86.5525 2079.76,86.5525 2080.46,86.5525 2081.17,86.5525 2081.87,86.5525 2082.58,86.5525 2083.28,86.5525 2083.99,86.5525 2084.69,86.5525 2085.4,86.5525 2086.1,86.5525 2086.81,86.5525 2088.22,86.5525 2088.92,86.5525 2089.62,86.5525 2090.33,86.5525 2091.03,86.5525 2091.74,86.5525 2092.44,86.5525 2093.15,86.5525 2093.85,86.5525 2094.56,86.5525 2095.26,86.5525 2095.97,86.5525 2096.67,86.5525 2097.38,86.5525 2098.08,86.5525 2098.79,86.5525 2099.49,86.5525 2100.2,86.5525 2100.9,86.5525 2101.61,86.5525 2102.31,86.5525 2103.02,86.5525 2103.72,86.5525 2104.43,86.5525 2105.13,86.5525 2105.84,86.5525 2106.54,86.5525 2107.25,86.5525 2107.95,86.5525 2108.66,86.5525 2109.36,86.5525 2110.07,86.5525 2110.77,86.5525 2111.48,86.5525 2112.18,86.5525 2112.89,86.5525 2113.59,86.5525 2114.3,86.5525 2115,86.5525 2115.71,86.5525 2116.41,86.5525 2117.12,86.5525 2117.82,86.5525 2118.53,86.5525 2119.23,86.5525 2119.94,86.5525 2120.64,86.5525 2121.35,86.5525 2122.05,86.5525 2122.75,86.5525 2123.46,86.5525 2124.16,86.5525 2124.87,86.5525 2125.57,86.5525 2126.28,86.5525 2126.98,86.5525 2127.69,86.5525 2128.39,86.5525 2129.1,86.5525 2129.8,86.5525 2130.51,86.5525 2131.21,86.5525 2131.92,86.5525 2132.62,86.5525 2133.33,86.5525 2134.03,86.5525 2134.74,86.5525 2135.44,86.5525 2136.15,86.5525 2136.85,86.5525 2137.56,86.5525 2138.26,86.5525 2138.97,86.5525 2139.67,86.5525 2140.38,86.5525 2141.08,86.5525 2141.79,86.5525 2142.49,86.5525 2143.2,86.5525 2143.9,86.5525 2144.61,86.5525 2145.31,86.5525 2146.02,86.5525 2146.72,86.5525 2147.43,86.5525 2148.13,86.5525 2148.84,86.5525 2149.54,86.5525 2150.25,86.5525 2150.95,86.5525 2151.66,86.5525 2152.36,86.5525 2153.07,86.5525 2153.77,86.5525 2154.48,86.5525 2155.18,86.5525 2155.89,86.5525 2156.59,86.5525 2157.29,86.5525 2158,86.5525 2158.7,86.5525 2159.41,86.5525 2160.11,86.5525 2160.82,86.5525 2161.52,86.5525 2162.23,86.5525 2162.93,86.5525 2163.64,86.5525 2164.34,86.5525 2165.05,86.5525 2165.75,86.5525 2166.46,86.5525 2167.16,86.5525 2167.87,86.5525 2168.57,86.5525 2169.28,86.5525 2169.98,86.5525 2170.69,86.5525 2171.39,86.5525 2172.1,86.5525 2172.8,86.5525 2173.51,86.5525 2174.21,86.5525 2174.92,86.5525 2175.62,86.5525 2176.33,86.5525 2177.03,86.5525 2177.74,86.5525 2178.44,86.5525 2179.15,86.5525 2179.85,86.5525 2180.56,86.5525 2181.26,86.5525 2181.97,86.5525 2182.67,86.5525 2183.38,86.5525 2184.08,86.5525 2184.79,86.5525 2185.49,86.5525 2186.2,86.5525 2186.9,86.5525 2187.61,86.5525 2188.31,86.5525 2189.02,86.5525 2189.72,86.5525 2190.43,86.5525 2191.13,86.5525 2191.83,86.5525 2192.54,86.5525 2193.24,86.5525 2193.95,86.5525 2194.65,86.5525 2195.36,86.5525 2196.06,86.5525 2196.77,86.5525 2197.47,86.5525 2198.18,86.5525 2198.88,86.5525 2199.59,86.5525 2200.29,86.5525 2201,86.5525 2201.7,86.5525 2202.41,86.5525 2203.11,86.5525 2203.82,86.5525 2204.52,86.5525 2205.23,86.5525 2205.93,86.5525 2206.64,86.5525 2207.34,86.5525 2208.05,86.5525 2208.75,86.5525 2209.46,86.5525 2210.16,86.5525 2210.87,86.5525 2211.57,86.5525 2212.28,86.5525 2212.98,86.5525 2213.69,86.5525 2214.39,86.5525 2215.1,86.5525 2215.8,86.5525 2216.51,86.5525 2217.21,86.5525 2217.92,86.5525 2218.62,86.5525 2219.33,86.5525 2220.03,86.5525 2220.74,86.5525 2221.44,86.5525 2222.15,86.5525 2222.85,86.5525 2223.56,86.5525 2224.26,86.5525 2224.97,86.5525 2225.67,86.5525 2226.37,86.5525 2227.08,86.5525 2227.78,86.5525 2228.49,86.5525 2229.19,86.5525 2229.9,86.5525 2230.6,86.5525 2231.31,86.5525 2232.01,86.5525 2232.72,86.5525 2233.42,86.5525 2234.13,86.5525 2234.83,86.5525 2235.54,86.5525 2236.24,86.5525 2236.95,86.5525 2237.65,86.5525 2238.36,86.5525 2239.06,86.5525 2239.77,86.5525 2240.47,86.5525 2241.18,86.5525 2241.88,86.5525 2242.59,86.5525 2243.29,86.5525 2244,86.5525 2244.7,86.5525 2245.41,86.5525 2246.11,86.5525 2246.82,86.5525 2247.52,86.5525 2248.23,86.5525 2248.93,86.5525 2249.64,86.5525 2250.34,86.5525 2251.05,86.5525 2251.75,86.5525 2252.46,86.5525 2253.16,86.5525 2253.87,86.5525 2254.57,86.5525 2255.28,86.5525 2255.98,86.5525 2256.69,86.5525 2257.39,86.5525 2258.1,86.5525 2258.8,86.5525 2259.51,86.5525 2260.21,86.5525 2260.91,86.5525 2261.62,86.5525 2262.32,86.5525 2263.03,86.5525 2263.73,86.5525 2264.44,86.5525 2265.14,86.5525 2265.85,86.5525 2266.55,86.5525 2267.26,86.5525 2267.96,86.5525 2268.67,86.5525 2269.37,86.5525 2270.08,86.5525 2270.78,86.5525 2271.49,86.5525 2272.19,86.5525 2272.9,86.5525 2273.6,86.5525 2274.31,86.5525 2275.01,86.5525 2275.72,86.5525 2276.42,86.5525 2277.13,86.5525 2277.83,86.5525 2278.54,86.5525 2279.24,86.5525 2279.95,86.5525 2280.65,86.5525 2281.36,86.5525 2282.06,86.5525 2282.77,86.5525 2283.47,86.5525 2284.18,86.5525 2284.88,86.5525 2285.59,86.5525 2286.29,86.5525 2287,86.5525 2287.7,86.5525 2288.41,86.5525 2289.11,86.5525 2289.82,86.5525 2290.52,86.5525 2291.23,86.5525 2291.93,86.5525 2292.64,86.5525 "/>
<polyline clip-path="url(#clip092)" style="stroke:#000000; stroke-linecap:round; stroke-linejoin:round; stroke-width:8; stroke-opacity:1; fill:none" stroke-dasharray="32, 20" points="288.612,1396.83 2292.64,86.5525 "/>
<path clip-path="url(#clip090)" d="M2023.64 1389.84 L2281.95 1389.84 L2281.95 1299.12 L2023.64 1299.12  Z" fill="#ffffff" fill-rule="evenodd" fill-opacity="1"/>
<polyline clip-path="url(#clip090)" style="stroke:#000000; stroke-linecap:round; stroke-linejoin:round; stroke-width:4; stroke-opacity:1; fill:none" points="2023.64,1389.84 2281.95,1389.84 2281.95,1299.12 2023.64,1299.12 2023.64,1389.84 "/>
<polyline clip-path="url(#clip090)" style="stroke:#009af9; stroke-linecap:round; stroke-linejoin:round; stroke-width:3.5; stroke-opacity:1; fill:none" points="2047.25,1344.48 2188.86,1344.48 "/>
<path clip-path="url(#clip090)" d="M2224.58 1361.71 Q2223 1365.76 2221.5 1367 Q2220 1368.23 2217.49 1368.23 L2214.51 1368.23 L2214.51 1365.11 L2216.7 1365.11 Q2218.24 1365.11 2219.09 1364.38 Q2219.94 1363.65 2220.97 1360.94 L2221.64 1359.24 L2212.47 1336.92 L2216.42 1336.92 L2223.51 1354.66 L2230.6 1336.92 L2234.55 1336.92 L2224.58 1361.71 Z" fill="#000000" fill-rule="nonzero" fill-opacity="1" /><path clip-path="url(#clip090)" d="M2240.93 1356.16 L2247.61 1356.16 L2247.61 1333.09 L2240.34 1334.55 L2240.34 1330.82 L2247.57 1329.36 L2251.66 1329.36 L2251.66 1356.16 L2258.34 1356.16 L2258.34 1359.6 L2240.93 1359.6 L2240.93 1356.16 Z" fill="#000000" fill-rule="nonzero" fill-opacity="1" /></svg>
