<?xml version="1.0" encoding="utf-8" standalone="no"?>
<!DOCTYPE svg PUBLIC "-//W3C//DTD SVG 1.1//EN"
  "http://www.w3.org/Graphics/SVG/1.1/DTD/svg11.dtd">
<!-- Created with matplotlib (https://matplotlib.org/) -->
<svg height="432pt" version="1.1" viewBox="0 0 576 432" width="576pt" xmlns="http://www.w3.org/2000/svg" xmlns:xlink="http://www.w3.org/1999/xlink">
 <defs>
  <style type="text/css">
*{stroke-linecap:butt;stroke-linejoin:round;}
  </style>
 </defs>
 <g id="figure_1">
  <g id="patch_1">
   <path d="M 0 432 
L 576 432 
L 576 0 
L 0 0 
z
" style="fill:#ffffff;"/>
  </g>
  <g id="axes_1">
   <g id="patch_2">
    <path d="M 72 384.48 
L 518.4 384.48 
L 518.4 51.84 
L 72 51.84 
z
" style="fill:#ffffff;"/>
   </g>
   <g id="matplotlib.axis_1">
    <g id="xtick_1">
     <g id="line2d_1">
      <defs>
       <path d="M 0 0 
L 0 3.5 
" id="mfd0cdb710f" style="stroke:#000000;stroke-width:0.8;"/>
      </defs>
      <g>
       <use style="stroke:#000000;stroke-width:0.8;" x="92.290909" xlink:href="#mfd0cdb710f" y="384.48"/>
      </g>
     </g>
     <g id="text_1">
      <!-- 0 -->
      <defs>
       <path d="M 31.78125 66.40625 
Q 24.171875 66.40625 20.328125 58.90625 
Q 16.5 51.421875 16.5 36.375 
Q 16.5 21.390625 20.328125 13.890625 
Q 24.171875 6.390625 31.78125 6.390625 
Q 39.453125 6.390625 43.28125 13.890625 
Q 47.125 21.390625 47.125 36.375 
Q 47.125 51.421875 43.28125 58.90625 
Q 39.453125 66.40625 31.78125 66.40625 
z
M 31.78125 74.21875 
Q 44.046875 74.21875 50.515625 64.515625 
Q 56.984375 54.828125 56.984375 36.375 
Q 56.984375 17.96875 50.515625 8.265625 
Q 44.046875 -1.421875 31.78125 -1.421875 
Q 19.53125 -1.421875 13.0625 8.265625 
Q 6.59375 17.96875 6.59375 36.375 
Q 6.59375 54.828125 13.0625 64.515625 
Q 19.53125 74.21875 31.78125 74.21875 
z
" id="DejaVuSans-48"/>
      </defs>
      <g transform="translate(89.109659 399.078438)scale(0.1 -0.1)">
       <use xlink:href="#DejaVuSans-48"/>
      </g>
     </g>
    </g>
    <g id="xtick_2">
     <g id="line2d_2">
      <g>
       <use style="stroke:#000000;stroke-width:0.8;" x="144.185817" xlink:href="#mfd0cdb710f" y="384.48"/>
      </g>
     </g>
     <g id="text_2">
      <!-- 50 -->
      <defs>
       <path d="M 10.796875 72.90625 
L 49.515625 72.90625 
L 49.515625 64.59375 
L 19.828125 64.59375 
L 19.828125 46.734375 
Q 21.96875 47.46875 24.109375 47.828125 
Q 26.265625 48.1875 28.421875 48.1875 
Q 40.625 48.1875 47.75 41.5 
Q 54.890625 34.8125 54.890625 23.390625 
Q 54.890625 11.625 47.5625 5.09375 
Q 40.234375 -1.421875 26.90625 -1.421875 
Q 22.3125 -1.421875 17.546875 -0.640625 
Q 12.796875 0.140625 7.71875 1.703125 
L 7.71875 11.625 
Q 12.109375 9.234375 16.796875 8.0625 
Q 21.484375 6.890625 26.703125 6.890625 
Q 35.15625 6.890625 40.078125 11.328125 
Q 45.015625 15.765625 45.015625 23.390625 
Q 45.015625 31 40.078125 35.4375 
Q 35.15625 39.890625 26.703125 39.890625 
Q 22.75 39.890625 18.8125 39.015625 
Q 14.890625 38.140625 10.796875 36.28125 
z
" id="DejaVuSans-53"/>
      </defs>
      <g transform="translate(137.823317 399.078438)scale(0.1 -0.1)">
       <use xlink:href="#DejaVuSans-53"/>
       <use x="63.623047" xlink:href="#DejaVuSans-48"/>
      </g>
     </g>
    </g>
    <g id="xtick_3">
     <g id="line2d_3">
      <g>
       <use style="stroke:#000000;stroke-width:0.8;" x="196.080725" xlink:href="#mfd0cdb710f" y="384.48"/>
      </g>
     </g>
     <g id="text_3">
      <!-- 100 -->
      <defs>
       <path d="M 12.40625 8.296875 
L 28.515625 8.296875 
L 28.515625 63.921875 
L 10.984375 60.40625 
L 10.984375 69.390625 
L 28.421875 72.90625 
L 38.28125 72.90625 
L 38.28125 8.296875 
L 54.390625 8.296875 
L 54.390625 0 
L 12.40625 0 
z
" id="DejaVuSans-49"/>
      </defs>
      <g transform="translate(186.536975 399.078438)scale(0.1 -0.1)">
       <use xlink:href="#DejaVuSans-49"/>
       <use x="63.623047" xlink:href="#DejaVuSans-48"/>
       <use x="127.246094" xlink:href="#DejaVuSans-48"/>
      </g>
     </g>
    </g>
    <g id="xtick_4">
     <g id="line2d_4">
      <g>
       <use style="stroke:#000000;stroke-width:0.8;" x="247.975634" xlink:href="#mfd0cdb710f" y="384.48"/>
      </g>
     </g>
     <g id="text_4">
      <!-- 150 -->
      <g transform="translate(238.431884 399.078438)scale(0.1 -0.1)">
       <use xlink:href="#DejaVuSans-49"/>
       <use x="63.623047" xlink:href="#DejaVuSans-53"/>
       <use x="127.246094" xlink:href="#DejaVuSans-48"/>
      </g>
     </g>
    </g>
    <g id="xtick_5">
     <g id="line2d_5">
      <g>
       <use style="stroke:#000000;stroke-width:0.8;" x="299.870542" xlink:href="#mfd0cdb710f" y="384.48"/>
      </g>
     </g>
     <g id="text_5">
      <!-- 200 -->
      <defs>
       <path d="M 19.1875 8.296875 
L 53.609375 8.296875 
L 53.609375 0 
L 7.328125 0 
L 7.328125 8.296875 
Q 12.9375 14.109375 22.625 23.890625 
Q 32.328125 33.6875 34.8125 36.53125 
Q 39.546875 41.84375 41.421875 45.53125 
Q 43.3125 49.21875 43.3125 52.78125 
Q 43.3125 58.59375 39.234375 62.25 
Q 35.15625 65.921875 28.609375 65.921875 
Q 23.96875 65.921875 18.8125 64.3125 
Q 13.671875 62.703125 7.8125 59.421875 
L 7.8125 69.390625 
Q 13.765625 71.78125 18.9375 73 
Q 24.125 74.21875 28.421875 74.21875 
Q 39.75 74.21875 46.484375 68.546875 
Q 53.21875 62.890625 53.21875 53.421875 
Q 53.21875 48.921875 51.53125 44.890625 
Q 49.859375 40.875 45.40625 35.40625 
Q 44.1875 33.984375 37.640625 27.21875 
Q 31.109375 20.453125 19.1875 8.296875 
z
" id="DejaVuSans-50"/>
      </defs>
      <g transform="translate(290.326792 399.078438)scale(0.1 -0.1)">
       <use xlink:href="#DejaVuSans-50"/>
       <use x="63.623047" xlink:href="#DejaVuSans-48"/>
       <use x="127.246094" xlink:href="#DejaVuSans-48"/>
      </g>
     </g>
    </g>
    <g id="xtick_6">
     <g id="line2d_6">
      <g>
       <use style="stroke:#000000;stroke-width:0.8;" x="351.76545" xlink:href="#mfd0cdb710f" y="384.48"/>
      </g>
     </g>
     <g id="text_6">
      <!-- 250 -->
      <g transform="translate(342.2217 399.078438)scale(0.1 -0.1)">
       <use xlink:href="#DejaVuSans-50"/>
       <use x="63.623047" xlink:href="#DejaVuSans-53"/>
       <use x="127.246094" xlink:href="#DejaVuSans-48"/>
      </g>
     </g>
    </g>
    <g id="xtick_7">
     <g id="line2d_7">
      <g>
       <use style="stroke:#000000;stroke-width:0.8;" x="403.660358" xlink:href="#mfd0cdb710f" y="384.48"/>
      </g>
     </g>
     <g id="text_7">
      <!-- 300 -->
      <defs>
       <path d="M 40.578125 39.3125 
Q 47.65625 37.796875 51.625 33 
Q 55.609375 28.21875 55.609375 21.1875 
Q 55.609375 10.40625 48.1875 4.484375 
Q 40.765625 -1.421875 27.09375 -1.421875 
Q 22.515625 -1.421875 17.65625 -0.515625 
Q 12.796875 0.390625 7.625 2.203125 
L 7.625 11.71875 
Q 11.71875 9.328125 16.59375 8.109375 
Q 21.484375 6.890625 26.8125 6.890625 
Q 36.078125 6.890625 40.9375 10.546875 
Q 45.796875 14.203125 45.796875 21.1875 
Q 45.796875 27.640625 41.28125 31.265625 
Q 36.765625 34.90625 28.71875 34.90625 
L 20.21875 34.90625 
L 20.21875 43.015625 
L 29.109375 43.015625 
Q 36.375 43.015625 40.234375 45.921875 
Q 44.09375 48.828125 44.09375 54.296875 
Q 44.09375 59.90625 40.109375 62.90625 
Q 36.140625 65.921875 28.71875 65.921875 
Q 24.65625 65.921875 20.015625 65.03125 
Q 15.375 64.15625 9.8125 62.3125 
L 9.8125 71.09375 
Q 15.4375 72.65625 20.34375 73.4375 
Q 25.25 74.21875 29.59375 74.21875 
Q 40.828125 74.21875 47.359375 69.109375 
Q 53.90625 64.015625 53.90625 55.328125 
Q 53.90625 49.265625 50.4375 45.09375 
Q 46.96875 40.921875 40.578125 39.3125 
z
" id="DejaVuSans-51"/>
      </defs>
      <g transform="translate(394.116608 399.078438)scale(0.1 -0.1)">
       <use xlink:href="#DejaVuSans-51"/>
       <use x="63.623047" xlink:href="#DejaVuSans-48"/>
       <use x="127.246094" xlink:href="#DejaVuSans-48"/>
      </g>
     </g>
    </g>
    <g id="xtick_8">
     <g id="line2d_8">
      <g>
       <use style="stroke:#000000;stroke-width:0.8;" x="455.555266" xlink:href="#mfd0cdb710f" y="384.48"/>
      </g>
     </g>
     <g id="text_8">
      <!-- 350 -->
      <g transform="translate(446.011516 399.078438)scale(0.1 -0.1)">
       <use xlink:href="#DejaVuSans-51"/>
       <use x="63.623047" xlink:href="#DejaVuSans-53"/>
       <use x="127.246094" xlink:href="#DejaVuSans-48"/>
      </g>
     </g>
    </g>
    <g id="xtick_9">
     <g id="line2d_9">
      <g>
       <use style="stroke:#000000;stroke-width:0.8;" x="507.450174" xlink:href="#mfd0cdb710f" y="384.48"/>
      </g>
     </g>
     <g id="text_9">
      <!-- 400 -->
      <defs>
       <path d="M 37.796875 64.3125 
L 12.890625 25.390625 
L 37.796875 25.390625 
z
M 35.203125 72.90625 
L 47.609375 72.90625 
L 47.609375 25.390625 
L 58.015625 25.390625 
L 58.015625 17.1875 
L 47.609375 17.1875 
L 47.609375 0 
L 37.796875 0 
L 37.796875 17.1875 
L 4.890625 17.1875 
L 4.890625 26.703125 
z
" id="DejaVuSans-52"/>
      </defs>
      <g transform="translate(497.906424 399.078438)scale(0.1 -0.1)">
       <use xlink:href="#DejaVuSans-52"/>
       <use x="63.623047" xlink:href="#DejaVuSans-48"/>
       <use x="127.246094" xlink:href="#DejaVuSans-48"/>
      </g>
     </g>
    </g>
   </g>
   <g id="matplotlib.axis_2">
    <g id="ytick_1">
     <g id="line2d_10">
      <defs>
       <path d="M 0 0 
L -3.5 0 
" id="m3d1310ddbb" style="stroke:#000000;stroke-width:0.8;"/>
      </defs>
      <g>
       <use style="stroke:#000000;stroke-width:0.8;" x="72" xlink:href="#m3d1310ddbb" y="361.317447"/>
      </g>
     </g>
     <g id="text_10">
      <!-- 10 -->
      <g transform="translate(52.275 365.116666)scale(0.1 -0.1)">
       <use xlink:href="#DejaVuSans-49"/>
       <use x="63.623047" xlink:href="#DejaVuSans-48"/>
      </g>
     </g>
    </g>
    <g id="ytick_2">
     <g id="line2d_11">
      <g>
       <use style="stroke:#000000;stroke-width:0.8;" x="72" xlink:href="#m3d1310ddbb" y="321.104681"/>
      </g>
     </g>
     <g id="text_11">
      <!-- 15 -->
      <g transform="translate(52.275 324.9039)scale(0.1 -0.1)">
       <use xlink:href="#DejaVuSans-49"/>
       <use x="63.623047" xlink:href="#DejaVuSans-53"/>
      </g>
     </g>
    </g>
    <g id="ytick_3">
     <g id="line2d_12">
      <g>
       <use style="stroke:#000000;stroke-width:0.8;" x="72" xlink:href="#m3d1310ddbb" y="280.891915"/>
      </g>
     </g>
     <g id="text_12">
      <!-- 20 -->
      <g transform="translate(52.275 284.691134)scale(0.1 -0.1)">
       <use xlink:href="#DejaVuSans-50"/>
       <use x="63.623047" xlink:href="#DejaVuSans-48"/>
      </g>
     </g>
    </g>
    <g id="ytick_4">
     <g id="line2d_13">
      <g>
       <use style="stroke:#000000;stroke-width:0.8;" x="72" xlink:href="#m3d1310ddbb" y="240.679149"/>
      </g>
     </g>
     <g id="text_13">
      <!-- 25 -->
      <g transform="translate(52.275 244.478368)scale(0.1 -0.1)">
       <use xlink:href="#DejaVuSans-50"/>
       <use x="63.623047" xlink:href="#DejaVuSans-53"/>
      </g>
     </g>
    </g>
    <g id="ytick_5">
     <g id="line2d_14">
      <g>
       <use style="stroke:#000000;stroke-width:0.8;" x="72" xlink:href="#m3d1310ddbb" y="200.466383"/>
      </g>
     </g>
     <g id="text_14">
      <!-- 30 -->
      <g transform="translate(52.275 204.265602)scale(0.1 -0.1)">
       <use xlink:href="#DejaVuSans-51"/>
       <use x="63.623047" xlink:href="#DejaVuSans-48"/>
      </g>
     </g>
    </g>
    <g id="ytick_6">
     <g id="line2d_15">
      <g>
       <use style="stroke:#000000;stroke-width:0.8;" x="72" xlink:href="#m3d1310ddbb" y="160.253617"/>
      </g>
     </g>
     <g id="text_15">
      <!-- 35 -->
      <g transform="translate(52.275 164.052836)scale(0.1 -0.1)">
       <use xlink:href="#DejaVuSans-51"/>
       <use x="63.623047" xlink:href="#DejaVuSans-53"/>
      </g>
     </g>
    </g>
    <g id="ytick_7">
     <g id="line2d_16">
      <g>
       <use style="stroke:#000000;stroke-width:0.8;" x="72" xlink:href="#m3d1310ddbb" y="120.040851"/>
      </g>
     </g>
     <g id="text_16">
      <!-- 40 -->
      <g transform="translate(52.275 123.84007)scale(0.1 -0.1)">
       <use xlink:href="#DejaVuSans-52"/>
       <use x="63.623047" xlink:href="#DejaVuSans-48"/>
      </g>
     </g>
    </g>
    <g id="ytick_8">
     <g id="line2d_17">
      <g>
       <use style="stroke:#000000;stroke-width:0.8;" x="72" xlink:href="#m3d1310ddbb" y="79.828085"/>
      </g>
     </g>
     <g id="text_17">
      <!-- 45 -->
      <g transform="translate(52.275 83.627304)scale(0.1 -0.1)">
       <use xlink:href="#DejaVuSans-52"/>
       <use x="63.623047" xlink:href="#DejaVuSans-53"/>
      </g>
     </g>
    </g>
   </g>
   <g id="line2d_18">
    <path clip-path="url(#p9913537d46)" d="M 92.290909 296.977021 
L 93.328807 321.104681 
L 94.366705 296.977021 
L 95.404604 313.062128 
L 96.442502 305.019574 
L 97.4804 321.104681 
L 98.518298 329.147234 
L 100.594094 329.147234 
L 101.631993 321.104681 
L 102.669891 321.104681 
L 103.707789 329.147234 
L 104.745687 321.104681 
L 105.783585 329.147234 
L 106.821483 248.721702 
L 107.859382 264.806809 
L 108.89728 296.977021 
L 109.935178 272.849362 
L 110.973076 224.594043 
L 114.086771 248.721702 
L 116.162567 232.636596 
L 117.200465 272.849362 
L 118.238363 361.317447 
L 119.276261 361.317447 
L 120.314159 353.274894 
L 121.352058 369.36 
L 122.389956 224.594043 
L 123.427854 216.551489 
L 124.465752 240.679149 
L 125.50365 288.934468 
L 126.541548 313.062128 
L 127.579447 305.019574 
L 128.617345 288.934468 
L 129.655243 296.977021 
L 130.693141 329.147234 
L 133.806836 329.147234 
L 134.844734 345.23234 
L 135.882632 337.189787 
L 136.92053 337.189787 
L 137.958428 296.977021 
L 138.996326 264.806809 
L 140.034225 288.934468 
L 141.072123 296.977021 
L 143.147919 216.551489 
L 144.185817 200.466383 
L 145.223715 200.466383 
L 146.261614 192.42383 
L 147.299512 160.253617 
L 148.33741 224.594043 
L 149.375308 232.636596 
L 150.413206 248.721702 
L 151.451104 240.679149 
L 152.489003 256.764255 
L 153.526901 280.891915 
L 154.564799 272.849362 
L 155.602697 337.189787 
L 157.678493 321.104681 
L 158.716392 329.147234 
L 159.75429 305.019574 
L 160.792188 353.274894 
L 161.830086 337.189787 
L 162.867984 345.23234 
L 163.905882 337.189787 
L 164.943781 288.934468 
L 165.981679 321.104681 
L 167.019577 337.189787 
L 168.057475 337.189787 
L 169.095373 329.147234 
L 171.171169 264.806809 
L 172.209068 272.849362 
L 173.246966 232.636596 
L 174.284864 264.806809 
L 175.322762 216.551489 
L 176.36066 256.764255 
L 177.398558 216.551489 
L 178.436457 224.594043 
L 179.474355 337.189787 
L 180.512253 329.147234 
L 181.550151 337.189787 
L 183.625947 321.104681 
L 184.663846 345.23234 
L 185.701744 337.189787 
L 186.739642 337.189787 
L 187.77754 329.147234 
L 189.853336 345.23234 
L 190.891235 337.189787 
L 191.929133 296.977021 
L 192.967031 313.062128 
L 194.004929 296.977021 
L 195.042827 296.977021 
L 196.080725 256.764255 
L 197.118624 232.636596 
L 198.156522 353.274894 
L 200.232318 337.189787 
L 201.270216 345.23234 
L 202.308114 296.977021 
L 203.346013 280.891915 
L 205.421809 264.806809 
L 206.459707 296.977021 
L 207.497605 288.934468 
L 208.535503 272.849362 
L 209.573402 232.636596 
L 210.6113 321.104681 
L 211.649198 313.062128 
L 212.687096 208.508936 
L 213.724994 248.721702 
L 214.762892 280.891915 
L 215.800791 288.934468 
L 216.838689 321.104681 
L 217.876587 248.721702 
L 218.914485 280.891915 
L 219.952383 353.274894 
L 220.990281 280.891915 
L 222.028179 288.934468 
L 223.066078 321.104681 
L 224.103976 192.42383 
L 225.141874 232.636596 
L 226.179772 184.381277 
L 227.21767 240.679149 
L 228.255568 313.062128 
L 229.293467 313.062128 
L 230.331365 296.977021 
L 231.369263 313.062128 
L 232.407161 337.189787 
L 233.445059 329.147234 
L 235.520856 329.147234 
L 236.558754 208.508936 
L 237.596652 232.636596 
L 238.63455 232.636596 
L 239.672448 192.42383 
L 240.710346 184.381277 
L 242.786143 248.721702 
L 243.824041 232.636596 
L 244.861939 248.721702 
L 245.899837 232.636596 
L 246.937735 192.42383 
L 247.975634 288.934468 
L 249.013532 296.977021 
L 250.05143 321.104681 
L 251.089328 321.104681 
L 252.127226 313.062128 
L 253.165124 321.104681 
L 254.203023 313.062128 
L 255.240921 329.147234 
L 256.278819 305.019574 
L 258.354615 321.104681 
L 260.430412 272.849362 
L 261.46831 280.891915 
L 262.506208 337.189787 
L 263.544106 208.508936 
L 264.582004 256.764255 
L 265.619902 280.891915 
L 266.657801 256.764255 
L 268.733597 240.679149 
L 269.771495 248.721702 
L 270.809393 296.977021 
L 271.847291 208.508936 
L 272.885189 288.934468 
L 273.923088 256.764255 
L 274.960986 256.764255 
L 275.998884 264.806809 
L 277.036782 240.679149 
L 278.07468 176.338723 
L 279.112578 216.551489 
L 280.150477 240.679149 
L 281.188375 240.679149 
L 283.264171 224.594043 
L 284.302069 300.998298 
L 285.339967 313.062128 
L 286.377866 317.083404 
L 287.415764 325.125957 
L 288.453662 264.806809 
L 289.49156 264.806809 
L 290.529458 248.721702 
L 291.567356 260.785532 
L 292.605255 208.508936 
L 293.643153 244.700426 
L 294.681051 208.508936 
L 295.718949 176.338723 
L 296.756847 280.891915 
L 297.794745 296.977021 
L 298.832644 292.955745 
L 299.870542 300.998298 
L 300.90844 204.48766 
L 301.946338 184.381277 
L 302.984236 216.551489 
L 304.022134 228.615319 
L 306.097931 337.189787 
L 307.135829 288.934468 
L 308.173727 288.934468 
L 309.211625 309.040851 
L 310.249523 309.040851 
L 311.287422 337.189787 
L 313.363218 337.189787 
L 314.401116 188.402553 
L 315.439014 200.466383 
L 316.476912 152.211064 
L 317.514811 236.657872 
L 318.552709 172.317447 
L 319.590607 300.998298 
L 320.628505 305.019574 
L 321.666403 317.083404 
L 322.704301 321.104681 
L 323.742199 300.998298 
L 324.780098 276.870638 
L 325.817996 288.934468 
L 326.855894 292.955745 
L 327.893792 313.062128 
L 328.93169 317.083404 
L 329.969588 317.083404 
L 331.007487 313.062128 
L 332.045385 208.508936 
L 333.083283 244.700426 
L 334.121181 232.636596 
L 335.159079 236.657872 
L 336.196977 196.445106 
L 337.234876 172.317447 
L 338.272774 200.466383 
L 339.310672 196.445106 
L 340.34857 264.806809 
L 341.386468 268.828085 
L 342.424366 268.828085 
L 343.462265 95.108936 
L 344.500163 151.406809 
L 345.538061 177.947234 
L 346.575959 124.866383 
L 347.613857 151.406809 
L 348.651755 281.69617 
L 349.689654 285.717447 
L 350.727552 279.283404 
L 351.76545 287.325957 
L 352.803348 276.870638 
L 353.841246 279.283404 
L 354.879144 239.874894 
L 355.917043 276.870638 
L 356.954941 285.717447 
L 357.992839 276.066383 
L 359.030737 274.457872 
L 360.068635 292.151489 
L 361.106533 296.172766 
L 362.144432 287.325957 
L 363.18233 299.389787 
L 364.220228 296.172766 
L 365.258126 300.998298 
L 366.296024 200.466383 
L 367.333922 220.572766 
L 368.371821 222.985532 
L 369.409719 193.228085 
L 370.447617 272.045106 
L 371.485515 255.155745 
L 372.523413 250.330213 
L 373.561311 249.525957 
L 375.637108 305.019574 
L 376.675006 268.02383 
L 377.712904 311.453617 
L 378.750802 188.402553 
L 379.7887 204.48766 
L 380.826598 268.828085 
L 381.864497 282.500426 
L 382.902395 262.394043 
L 383.940293 279.283404 
L 384.978191 276.066383 
L 386.016089 305.019574 
L 387.053987 300.194043 
L 388.091886 309.040851 
L 389.129784 295.368511 
L 391.20558 317.083404 
L 392.243478 287.325957 
L 393.281376 292.955745 
L 394.319275 185.185532 
L 395.357173 167.491915 
L 396.395071 154.62383 
L 397.432969 221.377021 
L 398.470867 237.462128 
L 399.508765 256.764255 
L 400.546664 222.985532 
L 401.584562 249.525957 
L 402.62246 166.68766 
L 403.660358 164.274894 
L 404.698256 185.989787 
L 405.736154 141.755745 
L 406.774053 213.334468 
L 407.811951 210.117447 
L 408.849849 226.202553 
L 409.887747 172.317447 
L 410.925645 107.977021 
L 411.963543 135.321702 
L 413.001442 183.577021 
L 414.03934 142.56 
L 415.077238 216.551489 
L 416.115136 229.419574 
L 417.153034 246.308936 
L 418.190932 288.130213 
L 419.228831 165.883404 
L 420.266729 202.074894 
L 421.304627 190.011064 
L 422.342525 144.168511 
L 423.380423 182.772766 
L 424.418321 66.96 
L 425.456219 217.355745 
L 426.494118 113.606809 
L 427.532016 85.457872 
L 428.569914 92.69617 
L 430.64571 200.466383 
L 431.683608 83.045106 
L 432.721507 169.904681 
L 433.759405 202.074894 
L 434.797303 178.751489 
L 435.835201 251.134468 
L 436.873099 160.253617 
L 437.910997 181.164255 
L 438.948896 222.985532 
L 439.986794 227.811064 
L 441.024692 234.245106 
L 442.06259 252.742979 
L 443.100488 200.466383 
L 444.138386 127.279149 
L 445.176285 128.083404 
L 446.214183 159.449362 
L 447.252081 181.968511 
L 448.289979 144.168511 
L 449.327877 138.538723 
L 450.365775 167.491915 
L 451.403674 162.666383 
L 452.441572 165.079149 
L 453.47947 201.270638 
L 454.517368 176.338723 
L 455.555266 170.708936 
L 456.593164 181.164255 
L 457.631063 177.142979 
L 458.668961 187.598298 
L 459.706859 215.747234 
L 460.744757 194.836596 
L 461.782655 237.462128 
L 462.820553 247.113191 
L 463.858452 261.589787 
L 464.89635 227.811064 
L 465.934248 279.283404 
L 466.972146 300.194043 
L 468.010044 216.551489 
L 469.047942 224.594043 
L 470.085841 168.29617 
L 471.123739 192.42383 
L 473.199535 224.594043 
L 474.237433 248.721702 
L 475.275331 152.211064 
L 476.313229 144.168511 
L 477.351128 192.42383 
L 478.389026 136.125957 
L 479.426924 152.211064 
L 481.50272 152.211064 
L 482.540618 168.29617 
L 483.578517 136.125957 
L 484.616415 184.381277 
L 485.654313 136.125957 
L 486.692211 240.679149 
L 487.730109 136.125957 
L 488.768007 232.636596 
L 489.805906 264.806809 
L 490.843804 184.381277 
L 491.881702 152.211064 
L 492.9196 224.594043 
L 493.957498 224.594043 
L 494.995396 87.870638 
L 496.033295 184.381277 
L 497.071193 216.551489 
L 498.109091 192.42383 
L 498.109091 192.42383 
" style="fill:none;stroke:#1f77b4;stroke-linecap:square;stroke-width:1.5;"/>
   </g>
   <g id="patch_3">
    <path d="M 72 384.48 
L 72 51.84 
" style="fill:none;stroke:#000000;stroke-linecap:square;stroke-linejoin:miter;stroke-width:0.8;"/>
   </g>
   <g id="patch_4">
    <path d="M 518.4 384.48 
L 518.4 51.84 
" style="fill:none;stroke:#000000;stroke-linecap:square;stroke-linejoin:miter;stroke-width:0.8;"/>
   </g>
   <g id="patch_5">
    <path d="M 72 384.48 
L 518.4 384.48 
" style="fill:none;stroke:#000000;stroke-linecap:square;stroke-linejoin:miter;stroke-width:0.8;"/>
   </g>
   <g id="patch_6">
    <path d="M 72 51.84 
L 518.4 51.84 
" style="fill:none;stroke:#000000;stroke-linecap:square;stroke-linejoin:miter;stroke-width:0.8;"/>
   </g>
  </g>
 </g>
 <defs>
  <clipPath id="p9913537d46">
   <rect height="332.64" width="446.4" x="72" y="51.84"/>
  </clipPath>
 </defs>
</svg>
