<?xml version="1.0" encoding="utf-8" standalone="no"?>
<!DOCTYPE svg PUBLIC "-//W3C//DTD SVG 1.1//EN"
  "http://www.w3.org/Graphics/SVG/1.1/DTD/svg11.dtd">
<svg height="432pt" version="1.1" viewBox="0 0 576 432" width="576pt" xmlns="http://www.w3.org/2000/svg" xmlns:xlink="http://www.w3.org/1999/xlink">
 <metadata>
  <rdf:RDF xmlns:cc="http://creativecommons.org/ns#" xmlns:dc="http://purl.org/dc/elements/1.1/" xmlns:rdf="http://www.w3.org/1999/02/22-rdf-syntax-ns#">
   <cc:Work>
    <dc:type rdf:resource="http://purl.org/dc/dcmitype/StillImage"/>
    <dc:date>2022-01-13T09:40:28.188392</dc:date>
    <dc:format>image/svg+xml</dc:format>
    <dc:creator>
     <cc:Agent>
      <dc:title>Matplotlib v3.4.2, https://matplotlib.org/</dc:title>
     </cc:Agent>
    </dc:creator>
   </cc:Work>
  </rdf:RDF>
 </metadata>
 <defs>
  <style type="text/css">*{stroke-linecap:butt;stroke-linejoin:round;}</style>
 </defs>
 <g id="figure_1">
  <g id="patch_1">
   <path d="M 0 432 
L 576 432 
L 576 0 
L 0 0 
z
" style="fill:#ffffff;"/>
  </g>
  <g id="axes_1">
   <g id="patch_2">
    <path d="M 72 384.48 
L 518.4 384.48 
L 518.4 51.84 
L 72 51.84 
z
" style="fill:#ffffff;"/>
   </g>
   <g id="patch_3">
    <path clip-path="url(#p2347c99e93)" d="M 78.862414 384.48 
L 83.048486 384.48 
L 83.048486 188.428441 
L 78.862414 188.428441 
z
" style="fill:#0000ff;opacity:0.5;stroke:#ffffff;stroke-linejoin:miter;"/>
   </g>
   <g id="patch_4">
    <path clip-path="url(#p2347c99e93)" d="M 83.048486 384.48 
L 87.234558 384.48 
L 87.234558 193.917006 
L 83.048486 193.917006 
z
" style="fill:#0000ff;opacity:0.5;stroke:#ffffff;stroke-linejoin:miter;"/>
   </g>
   <g id="patch_5">
    <path clip-path="url(#p2347c99e93)" d="M 87.234558 384.48 
L 91.42063 384.48 
L 91.42063 208.406819 
L 87.234558 208.406819 
z
" style="fill:#0000ff;opacity:0.5;stroke:#ffffff;stroke-linejoin:miter;"/>
   </g>
   <g id="patch_6">
    <path clip-path="url(#p2347c99e93)" d="M 91.42063 384.48 
L 95.606703 384.48 
L 95.606703 203.796424 
L 91.42063 203.796424 
z
" style="fill:#0000ff;opacity:0.5;stroke:#ffffff;stroke-linejoin:miter;"/>
   </g>
   <g id="patch_7">
    <path clip-path="url(#p2347c99e93)" d="M 95.606703 384.48 
L 99.792775 384.48 
L 99.792775 67.68 
L 95.606703 67.68 
z
" style="fill:#0000ff;opacity:0.5;stroke:#ffffff;stroke-linejoin:miter;"/>
   </g>
   <g id="patch_8">
    <path clip-path="url(#p2347c99e93)" d="M 99.792775 384.48 
L 103.978847 384.48 
L 103.978847 249.900374 
L 99.792775 249.900374 
z
" style="fill:#0000ff;opacity:0.5;stroke:#ffffff;stroke-linejoin:miter;"/>
   </g>
   <g id="patch_9">
    <path clip-path="url(#p2347c99e93)" d="M 103.978847 384.48 
L 108.164919 384.48 
L 108.164919 264.170644 
L 103.978847 264.170644 
z
" style="fill:#0000ff;opacity:0.5;stroke:#ffffff;stroke-linejoin:miter;"/>
   </g>
   <g id="patch_10">
    <path clip-path="url(#p2347c99e93)" d="M 108.164919 384.48 
L 112.350992 384.48 
L 112.350992 259.340707 
L 108.164919 259.340707 
z
" style="fill:#0000ff;opacity:0.5;stroke:#ffffff;stroke-linejoin:miter;"/>
   </g>
   <g id="patch_11">
    <path clip-path="url(#p2347c99e93)" d="M 112.350992 384.48 
L 116.537064 384.48 
L 116.537064 277.343202 
L 112.350992 277.343202 
z
" style="fill:#0000ff;opacity:0.5;stroke:#ffffff;stroke-linejoin:miter;"/>
   </g>
   <g id="patch_12">
    <path clip-path="url(#p2347c99e93)" d="M 116.537064 384.48 
L 120.723136 384.48 
L 120.723136 209.065447 
L 116.537064 209.065447 
z
" style="fill:#0000ff;opacity:0.5;stroke:#ffffff;stroke-linejoin:miter;"/>
   </g>
   <g id="patch_13">
    <path clip-path="url(#p2347c99e93)" d="M 120.723136 384.48 
L 124.909208 384.48 
L 124.909208 306.981455 
L 120.723136 306.981455 
z
" style="fill:#0000ff;opacity:0.5;stroke:#ffffff;stroke-linejoin:miter;"/>
   </g>
   <g id="patch_14">
    <path clip-path="url(#p2347c99e93)" d="M 124.909208 384.48 
L 129.095281 384.48 
L 129.095281 310.933222 
L 124.909208 310.933222 
z
" style="fill:#0000ff;opacity:0.5;stroke:#ffffff;stroke-linejoin:miter;"/>
   </g>
   <g id="patch_15">
    <path clip-path="url(#p2347c99e93)" d="M 129.095281 384.48 
L 133.281353 384.48 
L 133.281353 314.88499 
L 129.095281 314.88499 
z
" style="fill:#0000ff;opacity:0.5;stroke:#ffffff;stroke-linejoin:miter;"/>
   </g>
   <g id="patch_16">
    <path clip-path="url(#p2347c99e93)" d="M 133.281353 384.48 
L 137.467425 384.48 
L 137.467425 225.311601 
L 133.281353 225.311601 
z
" style="fill:#0000ff;opacity:0.5;stroke:#ffffff;stroke-linejoin:miter;"/>
   </g>
   <g id="patch_17">
    <path clip-path="url(#p2347c99e93)" d="M 137.467425 384.48 
L 141.653497 384.48 
L 141.653497 324.325322 
L 137.467425 324.325322 
z
" style="fill:#0000ff;opacity:0.5;stroke:#ffffff;stroke-linejoin:miter;"/>
   </g>
   <g id="patch_18">
    <path clip-path="url(#p2347c99e93)" d="M 141.653497 384.48 
L 145.83957 384.48 
L 145.83957 337.497879 
L 141.653497 337.497879 
z
" style="fill:#0000ff;opacity:0.5;stroke:#ffffff;stroke-linejoin:miter;"/>
   </g>
   <g id="patch_19">
    <path clip-path="url(#p2347c99e93)" d="M 145.83957 384.48 
L 150.025642 384.48 
L 150.025642 345.840499 
L 145.83957 345.840499 
z
" style="fill:#0000ff;opacity:0.5;stroke:#ffffff;stroke-linejoin:miter;"/>
   </g>
   <g id="patch_20">
    <path clip-path="url(#p2347c99e93)" d="M 150.025642 384.48 
L 154.211714 384.48 
L 154.211714 353.304948 
L 150.025642 353.304948 
z
" style="fill:#0000ff;opacity:0.5;stroke:#ffffff;stroke-linejoin:miter;"/>
   </g>
   <g id="patch_21">
    <path clip-path="url(#p2347c99e93)" d="M 154.211714 384.48 
L 158.397786 384.48 
L 158.397786 312.689563 
L 154.211714 312.689563 
z
" style="fill:#0000ff;opacity:0.5;stroke:#ffffff;stroke-linejoin:miter;"/>
   </g>
   <g id="patch_22">
    <path clip-path="url(#p2347c99e93)" d="M 158.397786 384.48 
L 162.583859 384.48 
L 162.583859 345.840499 
L 158.397786 345.840499 
z
" style="fill:#0000ff;opacity:0.5;stroke:#ffffff;stroke-linejoin:miter;"/>
   </g>
   <g id="patch_23">
    <path clip-path="url(#p2347c99e93)" d="M 162.583859 384.48 
L 166.769931 384.48 
L 166.769931 349.792266 
L 162.583859 349.792266 
z
" style="fill:#0000ff;opacity:0.5;stroke:#ffffff;stroke-linejoin:miter;"/>
   </g>
   <g id="patch_24">
    <path clip-path="url(#p2347c99e93)" d="M 166.769931 384.48 
L 170.956003 384.48 
L 170.956003 348.914096 
L 166.769931 348.914096 
z
" style="fill:#0000ff;opacity:0.5;stroke:#ffffff;stroke-linejoin:miter;"/>
   </g>
   <g id="patch_25">
    <path clip-path="url(#p2347c99e93)" d="M 170.956003 384.48 
L 175.142075 384.48 
L 175.142075 316.641331 
L 170.956003 316.641331 
z
" style="fill:#0000ff;opacity:0.5;stroke:#ffffff;stroke-linejoin:miter;"/>
   </g>
   <g id="patch_26">
    <path clip-path="url(#p2347c99e93)" d="M 175.142075 384.48 
L 179.328148 384.48 
L 179.328148 344.084158 
L 175.142075 344.084158 
z
" style="fill:#0000ff;opacity:0.5;stroke:#ffffff;stroke-linejoin:miter;"/>
   </g>
   <g id="patch_27">
    <path clip-path="url(#p2347c99e93)" d="M 179.328148 384.48 
L 183.51422 384.48 
L 183.51422 343.645073 
L 179.328148 343.645073 
z
" style="fill:#0000ff;opacity:0.5;stroke:#ffffff;stroke-linejoin:miter;"/>
   </g>
   <g id="patch_28">
    <path clip-path="url(#p2347c99e93)" d="M 183.51422 384.48 
L 187.700292 384.48 
L 187.700292 345.840499 
L 183.51422 345.840499 
z
" style="fill:#0000ff;opacity:0.5;stroke:#ffffff;stroke-linejoin:miter;"/>
   </g>
   <g id="patch_29">
    <path clip-path="url(#p2347c99e93)" d="M 187.700292 384.48 
L 191.886364 384.48 
L 191.886364 342.108274 
L 187.700292 342.108274 
z
" style="fill:#0000ff;opacity:0.5;stroke:#ffffff;stroke-linejoin:miter;"/>
   </g>
   <g id="patch_30">
    <path clip-path="url(#p2347c99e93)" d="M 191.886364 384.48 
L 196.072437 384.48 
L 196.072437 316.202245 
L 191.886364 316.202245 
z
" style="fill:#0000ff;opacity:0.5;stroke:#ffffff;stroke-linejoin:miter;"/>
   </g>
   <g id="patch_31">
    <path clip-path="url(#p2347c99e93)" d="M 196.072437 384.48 
L 200.258509 384.48 
L 200.258509 360.330312 
L 196.072437 360.330312 
z
" style="fill:#0000ff;opacity:0.5;stroke:#ffffff;stroke-linejoin:miter;"/>
   </g>
   <g id="patch_32">
    <path clip-path="url(#p2347c99e93)" d="M 200.258509 384.48 
L 204.444581 384.48 
L 204.444581 356.81763 
L 200.258509 356.81763 
z
" style="fill:#0000ff;opacity:0.5;stroke:#ffffff;stroke-linejoin:miter;"/>
   </g>
   <g id="patch_33">
    <path clip-path="url(#p2347c99e93)" d="M 204.444581 384.48 
L 208.630653 384.48 
L 208.630653 362.525738 
L 204.444581 362.525738 
z
" style="fill:#0000ff;opacity:0.5;stroke:#ffffff;stroke-linejoin:miter;"/>
   </g>
   <g id="patch_34">
    <path clip-path="url(#p2347c99e93)" d="M 208.630653 384.48 
L 212.816726 384.48 
L 212.816726 341.888732 
L 208.630653 341.888732 
z
" style="fill:#0000ff;opacity:0.5;stroke:#ffffff;stroke-linejoin:miter;"/>
   </g>
   <g id="patch_35">
    <path clip-path="url(#p2347c99e93)" d="M 212.816726 384.48 
L 217.002798 384.48 
L 217.002798 360.110769 
L 212.816726 360.110769 
z
" style="fill:#0000ff;opacity:0.5;stroke:#ffffff;stroke-linejoin:miter;"/>
   </g>
   <g id="patch_36">
    <path clip-path="url(#p2347c99e93)" d="M 217.002798 384.48 
L 221.18887 384.48 
L 221.18887 366.697048 
L 217.002798 366.697048 
z
" style="fill:#0000ff;opacity:0.5;stroke:#ffffff;stroke-linejoin:miter;"/>
   </g>
   <g id="patch_37">
    <path clip-path="url(#p2347c99e93)" d="M 221.18887 384.48 
L 225.374942 384.48 
L 225.374942 363.184366 
L 221.18887 363.184366 
z
" style="fill:#0000ff;opacity:0.5;stroke:#ffffff;stroke-linejoin:miter;"/>
   </g>
   <g id="patch_38">
    <path clip-path="url(#p2347c99e93)" d="M 225.374942 384.48 
L 229.561015 384.48 
L 229.561015 360.98894 
L 225.374942 360.98894 
z
" style="fill:#0000ff;opacity:0.5;stroke:#ffffff;stroke-linejoin:miter;"/>
   </g>
   <g id="patch_39">
    <path clip-path="url(#p2347c99e93)" d="M 229.561015 384.48 
L 233.747087 384.48 
L 233.747087 335.521996 
L 229.561015 335.521996 
z
" style="fill:#0000ff;opacity:0.5;stroke:#ffffff;stroke-linejoin:miter;"/>
   </g>
   <g id="patch_40">
    <path clip-path="url(#p2347c99e93)" d="M 233.747087 384.48 
L 237.933159 384.48 
L 237.933159 362.086653 
L 233.747087 362.086653 
z
" style="fill:#0000ff;opacity:0.5;stroke:#ffffff;stroke-linejoin:miter;"/>
   </g>
   <g id="patch_41">
    <path clip-path="url(#p2347c99e93)" d="M 237.933159 384.48 
L 242.119231 384.48 
L 242.119231 365.818877 
L 237.933159 365.818877 
z
" style="fill:#0000ff;opacity:0.5;stroke:#ffffff;stroke-linejoin:miter;"/>
   </g>
   <g id="patch_42">
    <path clip-path="url(#p2347c99e93)" d="M 242.119231 384.48 
L 246.305304 384.48 
L 246.305304 356.378545 
L 242.119231 356.378545 
z
" style="fill:#0000ff;opacity:0.5;stroke:#ffffff;stroke-linejoin:miter;"/>
   </g>
   <g id="patch_43">
    <path clip-path="url(#p2347c99e93)" d="M 246.305304 384.48 
L 250.491376 384.48 
L 250.491376 337.936965 
L 246.305304 337.936965 
z
" style="fill:#0000ff;opacity:0.5;stroke:#ffffff;stroke-linejoin:miter;"/>
   </g>
   <g id="patch_44">
    <path clip-path="url(#p2347c99e93)" d="M 250.491376 384.48 
L 254.677448 384.48 
L 254.677448 366.91659 
L 250.491376 366.91659 
z
" style="fill:#0000ff;opacity:0.5;stroke:#ffffff;stroke-linejoin:miter;"/>
   </g>
   <g id="patch_45">
    <path clip-path="url(#p2347c99e93)" d="M 254.677448 384.48 
L 258.86352 384.48 
L 258.86352 364.721164 
L 254.677448 364.721164 
z
" style="fill:#0000ff;opacity:0.5;stroke:#ffffff;stroke-linejoin:miter;"/>
   </g>
   <g id="patch_46">
    <path clip-path="url(#p2347c99e93)" d="M 258.86352 384.48 
L 263.049593 384.48 
L 263.049593 368.233846 
L 258.86352 368.233846 
z
" style="fill:#0000ff;opacity:0.5;stroke:#ffffff;stroke-linejoin:miter;"/>
   </g>
   <g id="patch_47">
    <path clip-path="url(#p2347c99e93)" d="M 263.049593 384.48 
L 267.235665 384.48 
L 267.235665 366.697048 
L 263.049593 366.697048 
z
" style="fill:#0000ff;opacity:0.5;stroke:#ffffff;stroke-linejoin:miter;"/>
   </g>
   <g id="patch_48">
    <path clip-path="url(#p2347c99e93)" d="M 267.235665 384.48 
L 271.421737 384.48 
L 271.421737 353.304948 
L 267.235665 353.304948 
z
" style="fill:#0000ff;opacity:0.5;stroke:#ffffff;stroke-linejoin:miter;"/>
   </g>
   <g id="patch_49">
    <path clip-path="url(#p2347c99e93)" d="M 271.421737 384.48 
L 275.607809 384.48 
L 275.607809 372.185613 
L 271.421737 372.185613 
z
" style="fill:#0000ff;opacity:0.5;stroke:#ffffff;stroke-linejoin:miter;"/>
   </g>
   <g id="patch_50">
    <path clip-path="url(#p2347c99e93)" d="M 275.607809 384.48 
L 279.793882 384.48 
L 279.793882 371.526985 
L 275.607809 371.526985 
z
" style="fill:#0000ff;opacity:0.5;stroke:#ffffff;stroke-linejoin:miter;"/>
   </g>
   <g id="patch_51">
    <path clip-path="url(#p2347c99e93)" d="M 279.793882 384.48 
L 283.979954 384.48 
L 283.979954 368.014304 
L 279.793882 368.014304 
z
" style="fill:#0000ff;opacity:0.5;stroke:#ffffff;stroke-linejoin:miter;"/>
   </g>
   <g id="patch_52">
    <path clip-path="url(#p2347c99e93)" d="M 283.979954 384.48 
L 288.166026 384.48 
L 288.166026 369.112017 
L 283.979954 369.112017 
z
" style="fill:#0000ff;opacity:0.5;stroke:#ffffff;stroke-linejoin:miter;"/>
   </g>
   <g id="patch_53">
    <path clip-path="url(#p2347c99e93)" d="M 288.166026 384.48 
L 292.352098 384.48 
L 292.352098 358.134886 
L 288.166026 358.134886 
z
" style="fill:#0000ff;opacity:0.5;stroke:#ffffff;stroke-linejoin:miter;"/>
   </g>
   <g id="patch_54">
    <path clip-path="url(#p2347c99e93)" d="M 292.352098 384.48 
L 296.538171 384.48 
L 296.538171 369.770644 
L 292.352098 369.770644 
z
" style="fill:#0000ff;opacity:0.5;stroke:#ffffff;stroke-linejoin:miter;"/>
   </g>
   <g id="patch_55">
    <path clip-path="url(#p2347c99e93)" d="M 296.538171 384.48 
L 300.724243 384.48 
L 300.724243 373.502869 
L 296.538171 373.502869 
z
" style="fill:#0000ff;opacity:0.5;stroke:#ffffff;stroke-linejoin:miter;"/>
   </g>
   <g id="patch_56">
    <path clip-path="url(#p2347c99e93)" d="M 300.724243 384.48 
L 304.910315 384.48 
L 304.910315 373.502869 
L 300.724243 373.502869 
z
" style="fill:#0000ff;opacity:0.5;stroke:#ffffff;stroke-linejoin:miter;"/>
   </g>
   <g id="patch_57">
    <path clip-path="url(#p2347c99e93)" d="M 304.910315 384.48 
L 309.096387 384.48 
L 309.096387 365.599335 
L 304.910315 365.599335 
z
" style="fill:#0000ff;opacity:0.5;stroke:#ffffff;stroke-linejoin:miter;"/>
   </g>
   <g id="patch_58">
    <path clip-path="url(#p2347c99e93)" d="M 309.096387 384.48 
L 313.28246 384.48 
L 313.28246 375.478753 
L 309.096387 375.478753 
z
" style="fill:#0000ff;opacity:0.5;stroke:#ffffff;stroke-linejoin:miter;"/>
   </g>
   <g id="patch_59">
    <path clip-path="url(#p2347c99e93)" d="M 313.28246 384.48 
L 317.468532 384.48 
L 317.468532 376.576466 
L 313.28246 376.576466 
z
" style="fill:#0000ff;opacity:0.5;stroke:#ffffff;stroke-linejoin:miter;"/>
   </g>
   <g id="patch_60">
    <path clip-path="url(#p2347c99e93)" d="M 317.468532 384.48 
L 321.654604 384.48 
L 321.654604 378.113264 
L 317.468532 378.113264 
z
" style="fill:#0000ff;opacity:0.5;stroke:#ffffff;stroke-linejoin:miter;"/>
   </g>
   <g id="patch_61">
    <path clip-path="url(#p2347c99e93)" d="M 321.654604 384.48 
L 325.840676 384.48 
L 325.840676 378.552349 
L 321.654604 378.552349 
z
" style="fill:#0000ff;opacity:0.5;stroke:#ffffff;stroke-linejoin:miter;"/>
   </g>
   <g id="patch_62">
    <path clip-path="url(#p2347c99e93)" d="M 325.840676 384.48 
L 330.026749 384.48 
L 330.026749 378.991435 
L 325.840676 378.991435 
z
" style="fill:#0000ff;opacity:0.5;stroke:#ffffff;stroke-linejoin:miter;"/>
   </g>
   <g id="patch_63">
    <path clip-path="url(#p2347c99e93)" d="M 330.026749 384.48 
L 334.212821 384.48 
L 334.212821 379.650062 
L 330.026749 379.650062 
z
" style="fill:#0000ff;opacity:0.5;stroke:#ffffff;stroke-linejoin:miter;"/>
   </g>
   <g id="patch_64">
    <path clip-path="url(#p2347c99e93)" d="M 334.212821 384.48 
L 338.398893 384.48 
L 338.398893 377.235094 
L 334.212821 377.235094 
z
" style="fill:#0000ff;opacity:0.5;stroke:#ffffff;stroke-linejoin:miter;"/>
   </g>
   <g id="patch_65">
    <path clip-path="url(#p2347c99e93)" d="M 338.398893 384.48 
L 342.584965 384.48 
L 342.584965 380.528233 
L 338.398893 380.528233 
z
" style="fill:#0000ff;opacity:0.5;stroke:#ffffff;stroke-linejoin:miter;"/>
   </g>
   <g id="patch_66">
    <path clip-path="url(#p2347c99e93)" d="M 342.584965 384.48 
L 346.771038 384.48 
L 346.771038 376.356923 
L 342.584965 376.356923 
z
" style="fill:#0000ff;opacity:0.5;stroke:#ffffff;stroke-linejoin:miter;"/>
   </g>
   <g id="patch_67">
    <path clip-path="url(#p2347c99e93)" d="M 346.771038 384.48 
L 350.95711 384.48 
L 350.95711 381.845489 
L 346.771038 381.845489 
z
" style="fill:#0000ff;opacity:0.5;stroke:#ffffff;stroke-linejoin:miter;"/>
   </g>
   <g id="patch_68">
    <path clip-path="url(#p2347c99e93)" d="M 350.95711 384.48 
L 355.143182 384.48 
L 355.143182 380.30869 
L 350.95711 380.30869 
z
" style="fill:#0000ff;opacity:0.5;stroke:#ffffff;stroke-linejoin:miter;"/>
   </g>
   <g id="patch_69">
    <path clip-path="url(#p2347c99e93)" d="M 355.143182 384.48 
L 359.329254 384.48 
L 359.329254 381.625946 
L 355.143182 381.625946 
z
" style="fill:#0000ff;opacity:0.5;stroke:#ffffff;stroke-linejoin:miter;"/>
   </g>
   <g id="patch_70">
    <path clip-path="url(#p2347c99e93)" d="M 359.329254 384.48 
L 363.515327 384.48 
L 363.515327 380.30869 
L 359.329254 380.30869 
z
" style="fill:#0000ff;opacity:0.5;stroke:#ffffff;stroke-linejoin:miter;"/>
   </g>
   <g id="patch_71">
    <path clip-path="url(#p2347c99e93)" d="M 363.515327 384.48 
L 367.701399 384.48 
L 367.701399 376.356923 
L 363.515327 376.356923 
z
" style="fill:#0000ff;opacity:0.5;stroke:#ffffff;stroke-linejoin:miter;"/>
   </g>
   <g id="patch_72">
    <path clip-path="url(#p2347c99e93)" d="M 367.701399 384.48 
L 371.887471 384.48 
L 371.887471 381.186861 
L 367.701399 381.186861 
z
" style="fill:#0000ff;opacity:0.5;stroke:#ffffff;stroke-linejoin:miter;"/>
   </g>
   <g id="patch_73">
    <path clip-path="url(#p2347c99e93)" d="M 371.887471 384.48 
L 376.073543 384.48 
L 376.073543 380.30869 
L 371.887471 380.30869 
z
" style="fill:#0000ff;opacity:0.5;stroke:#ffffff;stroke-linejoin:miter;"/>
   </g>
   <g id="patch_74">
    <path clip-path="url(#p2347c99e93)" d="M 376.073543 384.48 
L 380.259616 384.48 
L 380.259616 378.991435 
L 376.073543 378.991435 
z
" style="fill:#0000ff;opacity:0.5;stroke:#ffffff;stroke-linejoin:miter;"/>
   </g>
   <g id="patch_75">
    <path clip-path="url(#p2347c99e93)" d="M 380.259616 384.48 
L 384.445688 384.48 
L 384.445688 373.941954 
L 380.259616 373.941954 
z
" style="fill:#0000ff;opacity:0.5;stroke:#ffffff;stroke-linejoin:miter;"/>
   </g>
   <g id="patch_76">
    <path clip-path="url(#p2347c99e93)" d="M 384.445688 384.48 
L 388.63176 384.48 
L 388.63176 376.796008 
L 384.445688 376.796008 
z
" style="fill:#0000ff;opacity:0.5;stroke:#ffffff;stroke-linejoin:miter;"/>
   </g>
   <g id="patch_77">
    <path clip-path="url(#p2347c99e93)" d="M 388.63176 384.48 
L 392.817832 384.48 
L 392.817832 377.454636 
L 388.63176 377.454636 
z
" style="fill:#0000ff;opacity:0.5;stroke:#ffffff;stroke-linejoin:miter;"/>
   </g>
   <g id="patch_78">
    <path clip-path="url(#p2347c99e93)" d="M 392.817832 384.48 
L 397.003905 384.48 
L 397.003905 377.893721 
L 392.817832 377.893721 
z
" style="fill:#0000ff;opacity:0.5;stroke:#ffffff;stroke-linejoin:miter;"/>
   </g>
   <g id="patch_79">
    <path clip-path="url(#p2347c99e93)" d="M 397.003905 384.48 
L 401.189977 384.48 
L 401.189977 374.38104 
L 397.003905 374.38104 
z
" style="fill:#0000ff;opacity:0.5;stroke:#ffffff;stroke-linejoin:miter;"/>
   </g>
   <g id="patch_80">
    <path clip-path="url(#p2347c99e93)" d="M 401.189977 384.48 
L 405.376049 384.48 
L 405.376049 369.990187 
L 401.189977 369.990187 
z
" style="fill:#0000ff;opacity:0.5;stroke:#ffffff;stroke-linejoin:miter;"/>
   </g>
   <g id="patch_81">
    <path clip-path="url(#p2347c99e93)" d="M 405.376049 384.48 
L 409.562121 384.48 
L 409.562121 379.650062 
L 405.376049 379.650062 
z
" style="fill:#0000ff;opacity:0.5;stroke:#ffffff;stroke-linejoin:miter;"/>
   </g>
   <g id="patch_82">
    <path clip-path="url(#p2347c99e93)" d="M 409.562121 384.48 
L 413.748194 384.48 
L 413.748194 379.869605 
L 409.562121 379.869605 
z
" style="fill:#0000ff;opacity:0.5;stroke:#ffffff;stroke-linejoin:miter;"/>
   </g>
   <g id="patch_83">
    <path clip-path="url(#p2347c99e93)" d="M 413.748194 384.48 
L 417.934266 384.48 
L 417.934266 379.869605 
L 413.748194 379.869605 
z
" style="fill:#0000ff;opacity:0.5;stroke:#ffffff;stroke-linejoin:miter;"/>
   </g>
   <g id="patch_84">
    <path clip-path="url(#p2347c99e93)" d="M 417.934266 384.48 
L 422.120338 384.48 
L 422.120338 378.332807 
L 417.934266 378.332807 
z
" style="fill:#0000ff;opacity:0.5;stroke:#ffffff;stroke-linejoin:miter;"/>
   </g>
   <g id="patch_85">
    <path clip-path="url(#p2347c99e93)" d="M 422.120338 384.48 
L 426.30641 384.48 
L 426.30641 380.30869 
L 422.120338 380.30869 
z
" style="fill:#0000ff;opacity:0.5;stroke:#ffffff;stroke-linejoin:miter;"/>
   </g>
   <g id="patch_86">
    <path clip-path="url(#p2347c99e93)" d="M 426.30641 384.48 
L 430.492483 384.48 
L 430.492483 382.284574 
L 426.30641 382.284574 
z
" style="fill:#0000ff;opacity:0.5;stroke:#ffffff;stroke-linejoin:miter;"/>
   </g>
   <g id="patch_87">
    <path clip-path="url(#p2347c99e93)" d="M 430.492483 384.48 
L 434.678555 384.48 
L 434.678555 381.845489 
L 430.492483 381.845489 
z
" style="fill:#0000ff;opacity:0.5;stroke:#ffffff;stroke-linejoin:miter;"/>
   </g>
   <g id="patch_88">
    <path clip-path="url(#p2347c99e93)" d="M 434.678555 384.48 
L 438.864627 384.48 
L 438.864627 380.528233 
L 434.678555 380.528233 
z
" style="fill:#0000ff;opacity:0.5;stroke:#ffffff;stroke-linejoin:miter;"/>
   </g>
   <g id="patch_89">
    <path clip-path="url(#p2347c99e93)" d="M 438.864627 384.48 
L 443.050699 384.48 
L 443.050699 376.356923 
L 438.864627 376.356923 
z
" style="fill:#0000ff;opacity:0.5;stroke:#ffffff;stroke-linejoin:miter;"/>
   </g>
   <g id="patch_90">
    <path clip-path="url(#p2347c99e93)" d="M 443.050699 384.48 
L 447.236772 384.48 
L 447.236772 382.723659 
L 443.050699 382.723659 
z
" style="fill:#0000ff;opacity:0.5;stroke:#ffffff;stroke-linejoin:miter;"/>
   </g>
   <g id="patch_91">
    <path clip-path="url(#p2347c99e93)" d="M 447.236772 384.48 
L 451.422844 384.48 
L 451.422844 381.625946 
L 447.236772 381.625946 
z
" style="fill:#0000ff;opacity:0.5;stroke:#ffffff;stroke-linejoin:miter;"/>
   </g>
   <g id="patch_92">
    <path clip-path="url(#p2347c99e93)" d="M 451.422844 384.48 
L 455.608916 384.48 
L 455.608916 382.284574 
L 451.422844 382.284574 
z
" style="fill:#0000ff;opacity:0.5;stroke:#ffffff;stroke-linejoin:miter;"/>
   </g>
   <g id="patch_93">
    <path clip-path="url(#p2347c99e93)" d="M 455.608916 384.48 
L 459.794988 384.48 
L 459.794988 379.650062 
L 455.608916 379.650062 
z
" style="fill:#0000ff;opacity:0.5;stroke:#ffffff;stroke-linejoin:miter;"/>
   </g>
   <g id="patch_94">
    <path clip-path="url(#p2347c99e93)" d="M 459.794988 384.48 
L 463.981061 384.48 
L 463.981061 383.162744 
L 459.794988 383.162744 
z
" style="fill:#0000ff;opacity:0.5;stroke:#ffffff;stroke-linejoin:miter;"/>
   </g>
   <g id="patch_95">
    <path clip-path="url(#p2347c99e93)" d="M 463.981061 384.48 
L 468.167133 384.48 
L 468.167133 382.723659 
L 463.981061 382.723659 
z
" style="fill:#0000ff;opacity:0.5;stroke:#ffffff;stroke-linejoin:miter;"/>
   </g>
   <g id="patch_96">
    <path clip-path="url(#p2347c99e93)" d="M 468.167133 384.48 
L 472.353205 384.48 
L 472.353205 383.382287 
L 468.167133 383.382287 
z
" style="fill:#0000ff;opacity:0.5;stroke:#ffffff;stroke-linejoin:miter;"/>
   </g>
   <g id="patch_97">
    <path clip-path="url(#p2347c99e93)" d="M 472.353205 384.48 
L 476.539277 384.48 
L 476.539277 383.60183 
L 472.353205 383.60183 
z
" style="fill:#0000ff;opacity:0.5;stroke:#ffffff;stroke-linejoin:miter;"/>
   </g>
   <g id="patch_98">
    <path clip-path="url(#p2347c99e93)" d="M 476.539277 384.48 
L 480.72535 384.48 
L 480.72535 383.162744 
L 476.539277 383.162744 
z
" style="fill:#0000ff;opacity:0.5;stroke:#ffffff;stroke-linejoin:miter;"/>
   </g>
   <g id="patch_99">
    <path clip-path="url(#p2347c99e93)" d="M 480.72535 384.48 
L 484.911422 384.48 
L 484.911422 383.162744 
L 480.72535 383.162744 
z
" style="fill:#0000ff;opacity:0.5;stroke:#ffffff;stroke-linejoin:miter;"/>
   </g>
   <g id="patch_100">
    <path clip-path="url(#p2347c99e93)" d="M 484.911422 384.48 
L 489.097494 384.48 
L 489.097494 384.260457 
L 484.911422 384.260457 
z
" style="fill:#0000ff;opacity:0.5;stroke:#ffffff;stroke-linejoin:miter;"/>
   </g>
   <g id="patch_101">
    <path clip-path="url(#p2347c99e93)" d="M 489.097494 384.48 
L 493.283566 384.48 
L 493.283566 384.48 
L 489.097494 384.48 
z
" style="fill:#0000ff;opacity:0.5;stroke:#ffffff;stroke-linejoin:miter;"/>
   </g>
   <g id="patch_102">
    <path clip-path="url(#p2347c99e93)" d="M 493.283566 384.48 
L 497.469639 384.48 
L 497.469639 384.260457 
L 493.283566 384.260457 
z
" style="fill:#0000ff;opacity:0.5;stroke:#ffffff;stroke-linejoin:miter;"/>
   </g>
   <g id="matplotlib.axis_1">
    <g id="xtick_1">
     <g id="line2d_1">
      <defs>
       <path d="M 0 0 
L 0 3.5 
" id="m1571031678" style="stroke:#000000;stroke-width:0.8;"/>
      </defs>
      <g>
       <use style="stroke:#000000;stroke-width:0.8;" x="72" xlink:href="#m1571031678" y="384.48"/>
      </g>
     </g>
     <g id="text_1">
      <!-- 0 -->
      <g transform="translate(68.81875 399.078438)scale(0.1 -0.1)">
       <defs>
        <path d="M 2034 4250 
Q 1547 4250 1301 3770 
Q 1056 3291 1056 2328 
Q 1056 1369 1301 889 
Q 1547 409 2034 409 
Q 2525 409 2770 889 
Q 3016 1369 3016 2328 
Q 3016 3291 2770 3770 
Q 2525 4250 2034 4250 
z
M 2034 4750 
Q 2819 4750 3233 4129 
Q 3647 3509 3647 2328 
Q 3647 1150 3233 529 
Q 2819 -91 2034 -91 
Q 1250 -91 836 529 
Q 422 1150 422 2328 
Q 422 3509 836 4129 
Q 1250 4750 2034 4750 
z
" id="DejaVuSans-30" transform="scale(0.015625)"/>
       </defs>
       <use xlink:href="#DejaVuSans-30"/>
      </g>
     </g>
    </g>
    <g id="xtick_2">
     <g id="line2d_2">
      <g>
       <use style="stroke:#000000;stroke-width:0.8;" x="140.624135" xlink:href="#m1571031678" y="384.48"/>
      </g>
     </g>
     <g id="text_2">
      <!-- 20 -->
      <g transform="translate(134.261635 399.078438)scale(0.1 -0.1)">
       <defs>
        <path d="M 1228 531 
L 3431 531 
L 3431 0 
L 469 0 
L 469 531 
Q 828 903 1448 1529 
Q 2069 2156 2228 2338 
Q 2531 2678 2651 2914 
Q 2772 3150 2772 3378 
Q 2772 3750 2511 3984 
Q 2250 4219 1831 4219 
Q 1534 4219 1204 4116 
Q 875 4013 500 3803 
L 500 4441 
Q 881 4594 1212 4672 
Q 1544 4750 1819 4750 
Q 2544 4750 2975 4387 
Q 3406 4025 3406 3419 
Q 3406 3131 3298 2873 
Q 3191 2616 2906 2266 
Q 2828 2175 2409 1742 
Q 1991 1309 1228 531 
z
" id="DejaVuSans-32" transform="scale(0.015625)"/>
       </defs>
       <use xlink:href="#DejaVuSans-32"/>
       <use x="63.623047" xlink:href="#DejaVuSans-30"/>
      </g>
     </g>
    </g>
    <g id="xtick_3">
     <g id="line2d_3">
      <g>
       <use style="stroke:#000000;stroke-width:0.8;" x="209.248271" xlink:href="#m1571031678" y="384.48"/>
      </g>
     </g>
     <g id="text_3">
      <!-- 40 -->
      <g transform="translate(202.885771 399.078438)scale(0.1 -0.1)">
       <defs>
        <path d="M 2419 4116 
L 825 1625 
L 2419 1625 
L 2419 4116 
z
M 2253 4666 
L 3047 4666 
L 3047 1625 
L 3713 1625 
L 3713 1100 
L 3047 1100 
L 3047 0 
L 2419 0 
L 2419 1100 
L 313 1100 
L 313 1709 
L 2253 4666 
z
" id="DejaVuSans-34" transform="scale(0.015625)"/>
       </defs>
       <use xlink:href="#DejaVuSans-34"/>
       <use x="63.623047" xlink:href="#DejaVuSans-30"/>
      </g>
     </g>
    </g>
    <g id="xtick_4">
     <g id="line2d_4">
      <g>
       <use style="stroke:#000000;stroke-width:0.8;" x="277.872406" xlink:href="#m1571031678" y="384.48"/>
      </g>
     </g>
     <g id="text_4">
      <!-- 60 -->
      <g transform="translate(271.509906 399.078438)scale(0.1 -0.1)">
       <defs>
        <path d="M 2113 2584 
Q 1688 2584 1439 2293 
Q 1191 2003 1191 1497 
Q 1191 994 1439 701 
Q 1688 409 2113 409 
Q 2538 409 2786 701 
Q 3034 994 3034 1497 
Q 3034 2003 2786 2293 
Q 2538 2584 2113 2584 
z
M 3366 4563 
L 3366 3988 
Q 3128 4100 2886 4159 
Q 2644 4219 2406 4219 
Q 1781 4219 1451 3797 
Q 1122 3375 1075 2522 
Q 1259 2794 1537 2939 
Q 1816 3084 2150 3084 
Q 2853 3084 3261 2657 
Q 3669 2231 3669 1497 
Q 3669 778 3244 343 
Q 2819 -91 2113 -91 
Q 1303 -91 875 529 
Q 447 1150 447 2328 
Q 447 3434 972 4092 
Q 1497 4750 2381 4750 
Q 2619 4750 2861 4703 
Q 3103 4656 3366 4563 
z
" id="DejaVuSans-36" transform="scale(0.015625)"/>
       </defs>
       <use xlink:href="#DejaVuSans-36"/>
       <use x="63.623047" xlink:href="#DejaVuSans-30"/>
      </g>
     </g>
    </g>
    <g id="xtick_5">
     <g id="line2d_5">
      <g>
       <use style="stroke:#000000;stroke-width:0.8;" x="346.496541" xlink:href="#m1571031678" y="384.48"/>
      </g>
     </g>
     <g id="text_5">
      <!-- 80 -->
      <g transform="translate(340.134041 399.078438)scale(0.1 -0.1)">
       <defs>
        <path d="M 2034 2216 
Q 1584 2216 1326 1975 
Q 1069 1734 1069 1313 
Q 1069 891 1326 650 
Q 1584 409 2034 409 
Q 2484 409 2743 651 
Q 3003 894 3003 1313 
Q 3003 1734 2745 1975 
Q 2488 2216 2034 2216 
z
M 1403 2484 
Q 997 2584 770 2862 
Q 544 3141 544 3541 
Q 544 4100 942 4425 
Q 1341 4750 2034 4750 
Q 2731 4750 3128 4425 
Q 3525 4100 3525 3541 
Q 3525 3141 3298 2862 
Q 3072 2584 2669 2484 
Q 3125 2378 3379 2068 
Q 3634 1759 3634 1313 
Q 3634 634 3220 271 
Q 2806 -91 2034 -91 
Q 1263 -91 848 271 
Q 434 634 434 1313 
Q 434 1759 690 2068 
Q 947 2378 1403 2484 
z
M 1172 3481 
Q 1172 3119 1398 2916 
Q 1625 2713 2034 2713 
Q 2441 2713 2670 2916 
Q 2900 3119 2900 3481 
Q 2900 3844 2670 4047 
Q 2441 4250 2034 4250 
Q 1625 4250 1398 4047 
Q 1172 3844 1172 3481 
z
" id="DejaVuSans-38" transform="scale(0.015625)"/>
       </defs>
       <use xlink:href="#DejaVuSans-38"/>
       <use x="63.623047" xlink:href="#DejaVuSans-30"/>
      </g>
     </g>
    </g>
    <g id="xtick_6">
     <g id="line2d_6">
      <g>
       <use style="stroke:#000000;stroke-width:0.8;" x="415.120676" xlink:href="#m1571031678" y="384.48"/>
      </g>
     </g>
     <g id="text_6">
      <!-- 100 -->
      <g transform="translate(405.576926 399.078438)scale(0.1 -0.1)">
       <defs>
        <path d="M 794 531 
L 1825 531 
L 1825 4091 
L 703 3866 
L 703 4441 
L 1819 4666 
L 2450 4666 
L 2450 531 
L 3481 531 
L 3481 0 
L 794 0 
L 794 531 
z
" id="DejaVuSans-31" transform="scale(0.015625)"/>
       </defs>
       <use xlink:href="#DejaVuSans-31"/>
       <use x="63.623047" xlink:href="#DejaVuSans-30"/>
       <use x="127.246094" xlink:href="#DejaVuSans-30"/>
      </g>
     </g>
    </g>
    <g id="xtick_7">
     <g id="line2d_7">
      <g>
       <use style="stroke:#000000;stroke-width:0.8;" x="483.744812" xlink:href="#m1571031678" y="384.48"/>
      </g>
     </g>
     <g id="text_7">
      <!-- 120 -->
      <g transform="translate(474.201062 399.078438)scale(0.1 -0.1)">
       <use xlink:href="#DejaVuSans-31"/>
       <use x="63.623047" xlink:href="#DejaVuSans-32"/>
       <use x="127.246094" xlink:href="#DejaVuSans-30"/>
      </g>
     </g>
    </g>
   </g>
   <g id="matplotlib.axis_2">
    <g id="ytick_1">
     <g id="line2d_8">
      <defs>
       <path d="M 0 0 
L -3.5 0 
" id="m6fd3526287" style="stroke:#000000;stroke-width:0.8;"/>
      </defs>
      <g>
       <use style="stroke:#000000;stroke-width:0.8;" x="72" xlink:href="#m6fd3526287" y="384.48"/>
      </g>
     </g>
     <g id="text_8">
      <!-- 0.00 -->
      <g transform="translate(42.734375 388.279219)scale(0.1 -0.1)">
       <defs>
        <path d="M 684 794 
L 1344 794 
L 1344 0 
L 684 0 
L 684 794 
z
" id="DejaVuSans-2e" transform="scale(0.015625)"/>
       </defs>
       <use xlink:href="#DejaVuSans-30"/>
       <use x="63.623047" xlink:href="#DejaVuSans-2e"/>
       <use x="95.410156" xlink:href="#DejaVuSans-30"/>
       <use x="159.033203" xlink:href="#DejaVuSans-30"/>
      </g>
     </g>
    </g>
    <g id="ytick_2">
     <g id="line2d_9">
      <g>
       <use style="stroke:#000000;stroke-width:0.8;" x="72" xlink:href="#m6fd3526287" y="340.813719"/>
      </g>
     </g>
     <g id="text_9">
      <!-- 0.01 -->
      <g transform="translate(42.734375 344.612938)scale(0.1 -0.1)">
       <use xlink:href="#DejaVuSans-30"/>
       <use x="63.623047" xlink:href="#DejaVuSans-2e"/>
       <use x="95.410156" xlink:href="#DejaVuSans-30"/>
       <use x="159.033203" xlink:href="#DejaVuSans-31"/>
      </g>
     </g>
    </g>
    <g id="ytick_3">
     <g id="line2d_10">
      <g>
       <use style="stroke:#000000;stroke-width:0.8;" x="72" xlink:href="#m6fd3526287" y="297.147439"/>
      </g>
     </g>
     <g id="text_10">
      <!-- 0.02 -->
      <g transform="translate(42.734375 300.946658)scale(0.1 -0.1)">
       <use xlink:href="#DejaVuSans-30"/>
       <use x="63.623047" xlink:href="#DejaVuSans-2e"/>
       <use x="95.410156" xlink:href="#DejaVuSans-30"/>
       <use x="159.033203" xlink:href="#DejaVuSans-32"/>
      </g>
     </g>
    </g>
    <g id="ytick_4">
     <g id="line2d_11">
      <g>
       <use style="stroke:#000000;stroke-width:0.8;" x="72" xlink:href="#m6fd3526287" y="253.481158"/>
      </g>
     </g>
     <g id="text_11">
      <!-- 0.03 -->
      <g transform="translate(42.734375 257.280377)scale(0.1 -0.1)">
       <defs>
        <path d="M 2597 2516 
Q 3050 2419 3304 2112 
Q 3559 1806 3559 1356 
Q 3559 666 3084 287 
Q 2609 -91 1734 -91 
Q 1441 -91 1130 -33 
Q 819 25 488 141 
L 488 750 
Q 750 597 1062 519 
Q 1375 441 1716 441 
Q 2309 441 2620 675 
Q 2931 909 2931 1356 
Q 2931 1769 2642 2001 
Q 2353 2234 1838 2234 
L 1294 2234 
L 1294 2753 
L 1863 2753 
Q 2328 2753 2575 2939 
Q 2822 3125 2822 3475 
Q 2822 3834 2567 4026 
Q 2313 4219 1838 4219 
Q 1578 4219 1281 4162 
Q 984 4106 628 3988 
L 628 4550 
Q 988 4650 1302 4700 
Q 1616 4750 1894 4750 
Q 2613 4750 3031 4423 
Q 3450 4097 3450 3541 
Q 3450 3153 3228 2886 
Q 3006 2619 2597 2516 
z
" id="DejaVuSans-33" transform="scale(0.015625)"/>
       </defs>
       <use xlink:href="#DejaVuSans-30"/>
       <use x="63.623047" xlink:href="#DejaVuSans-2e"/>
       <use x="95.410156" xlink:href="#DejaVuSans-30"/>
       <use x="159.033203" xlink:href="#DejaVuSans-33"/>
      </g>
     </g>
    </g>
    <g id="ytick_5">
     <g id="line2d_12">
      <g>
       <use style="stroke:#000000;stroke-width:0.8;" x="72" xlink:href="#m6fd3526287" y="209.814878"/>
      </g>
     </g>
     <g id="text_12">
      <!-- 0.04 -->
      <g transform="translate(42.734375 213.614096)scale(0.1 -0.1)">
       <use xlink:href="#DejaVuSans-30"/>
       <use x="63.623047" xlink:href="#DejaVuSans-2e"/>
       <use x="95.410156" xlink:href="#DejaVuSans-30"/>
       <use x="159.033203" xlink:href="#DejaVuSans-34"/>
      </g>
     </g>
    </g>
    <g id="ytick_6">
     <g id="line2d_13">
      <g>
       <use style="stroke:#000000;stroke-width:0.8;" x="72" xlink:href="#m6fd3526287" y="166.148597"/>
      </g>
     </g>
     <g id="text_13">
      <!-- 0.05 -->
      <g transform="translate(42.734375 169.947816)scale(0.1 -0.1)">
       <defs>
        <path d="M 691 4666 
L 3169 4666 
L 3169 4134 
L 1269 4134 
L 1269 2991 
Q 1406 3038 1543 3061 
Q 1681 3084 1819 3084 
Q 2600 3084 3056 2656 
Q 3513 2228 3513 1497 
Q 3513 744 3044 326 
Q 2575 -91 1722 -91 
Q 1428 -91 1123 -41 
Q 819 9 494 109 
L 494 744 
Q 775 591 1075 516 
Q 1375 441 1709 441 
Q 2250 441 2565 725 
Q 2881 1009 2881 1497 
Q 2881 1984 2565 2268 
Q 2250 2553 1709 2553 
Q 1456 2553 1204 2497 
Q 953 2441 691 2322 
L 691 4666 
z
" id="DejaVuSans-35" transform="scale(0.015625)"/>
       </defs>
       <use xlink:href="#DejaVuSans-30"/>
       <use x="63.623047" xlink:href="#DejaVuSans-2e"/>
       <use x="95.410156" xlink:href="#DejaVuSans-30"/>
       <use x="159.033203" xlink:href="#DejaVuSans-35"/>
      </g>
     </g>
    </g>
    <g id="ytick_7">
     <g id="line2d_14">
      <g>
       <use style="stroke:#000000;stroke-width:0.8;" x="72" xlink:href="#m6fd3526287" y="122.482317"/>
      </g>
     </g>
     <g id="text_14">
      <!-- 0.06 -->
      <g transform="translate(42.734375 126.281535)scale(0.1 -0.1)">
       <use xlink:href="#DejaVuSans-30"/>
       <use x="63.623047" xlink:href="#DejaVuSans-2e"/>
       <use x="95.410156" xlink:href="#DejaVuSans-30"/>
       <use x="159.033203" xlink:href="#DejaVuSans-36"/>
      </g>
     </g>
    </g>
    <g id="ytick_8">
     <g id="line2d_15">
      <g>
       <use style="stroke:#000000;stroke-width:0.8;" x="72" xlink:href="#m6fd3526287" y="78.816036"/>
      </g>
     </g>
     <g id="text_15">
      <!-- 0.07 -->
      <g transform="translate(42.734375 82.615255)scale(0.1 -0.1)">
       <defs>
        <path d="M 525 4666 
L 3525 4666 
L 3525 4397 
L 1831 0 
L 1172 0 
L 2766 4134 
L 525 4134 
L 525 4666 
z
" id="DejaVuSans-37" transform="scale(0.015625)"/>
       </defs>
       <use xlink:href="#DejaVuSans-30"/>
       <use x="63.623047" xlink:href="#DejaVuSans-2e"/>
       <use x="95.410156" xlink:href="#DejaVuSans-30"/>
       <use x="159.033203" xlink:href="#DejaVuSans-37"/>
      </g>
     </g>
    </g>
   </g>
   <g id="line2d_16">
    <path clip-path="url(#p2347c99e93)" d="M 156.110763 384.48 
L 156.110763 51.84 
" style="fill:none;stroke:#ff0000;stroke-linecap:square;stroke-width:1.5;"/>
   </g>
   <g id="line2d_17">
    <path clip-path="url(#p2347c99e93)" d="M 123.468101 384.48 
L 123.468101 51.84 
" style="fill:none;stroke:#1f77b4;stroke-linecap:square;stroke-width:1.5;"/>
   </g>
   <g id="patch_103">
    <path d="M 72 384.48 
L 72 51.84 
" style="fill:none;stroke:#000000;stroke-linecap:square;stroke-linejoin:miter;stroke-width:0.8;"/>
   </g>
   <g id="patch_104">
    <path d="M 518.4 384.48 
L 518.4 51.84 
" style="fill:none;stroke:#000000;stroke-linecap:square;stroke-linejoin:miter;stroke-width:0.8;"/>
   </g>
   <g id="patch_105">
    <path d="M 72 384.48 
L 518.4 384.48 
" style="fill:none;stroke:#000000;stroke-linecap:square;stroke-linejoin:miter;stroke-width:0.8;"/>
   </g>
   <g id="patch_106">
    <path d="M 72 51.84 
L 518.4 51.84 
" style="fill:none;stroke:#000000;stroke-linecap:square;stroke-linejoin:miter;stroke-width:0.8;"/>
   </g>
   <g id="legend_1">
    <g id="patch_107">
     <path d="M 443.026562 89.19625 
L 511.4 89.19625 
Q 513.4 89.19625 513.4 87.19625 
L 513.4 58.84 
Q 513.4 56.84 511.4 56.84 
L 443.026562 56.84 
Q 441.026562 56.84 441.026562 58.84 
L 441.026562 87.19625 
Q 441.026562 89.19625 443.026562 89.19625 
z
" style="fill:#ffffff;opacity:0.8;stroke:#cccccc;stroke-linejoin:miter;"/>
    </g>
    <g id="line2d_18">
     <path d="M 445.026562 64.938437 
L 465.026562 64.938437 
" style="fill:none;stroke:#ff0000;stroke-linecap:square;stroke-width:1.5;"/>
    </g>
    <g id="line2d_19"/>
    <g id="text_16">
     <!-- Mean -->
     <g transform="translate(473.026562 68.438437)scale(0.1 -0.1)">
      <defs>
       <path d="M 628 4666 
L 1569 4666 
L 2759 1491 
L 3956 4666 
L 4897 4666 
L 4897 0 
L 4281 0 
L 4281 4097 
L 3078 897 
L 2444 897 
L 1241 4097 
L 1241 0 
L 628 0 
L 628 4666 
z
" id="DejaVuSans-4d" transform="scale(0.015625)"/>
       <path d="M 3597 1894 
L 3597 1613 
L 953 1613 
Q 991 1019 1311 708 
Q 1631 397 2203 397 
Q 2534 397 2845 478 
Q 3156 559 3463 722 
L 3463 178 
Q 3153 47 2828 -22 
Q 2503 -91 2169 -91 
Q 1331 -91 842 396 
Q 353 884 353 1716 
Q 353 2575 817 3079 
Q 1281 3584 2069 3584 
Q 2775 3584 3186 3129 
Q 3597 2675 3597 1894 
z
M 3022 2063 
Q 3016 2534 2758 2815 
Q 2500 3097 2075 3097 
Q 1594 3097 1305 2825 
Q 1016 2553 972 2059 
L 3022 2063 
z
" id="DejaVuSans-65" transform="scale(0.015625)"/>
       <path d="M 2194 1759 
Q 1497 1759 1228 1600 
Q 959 1441 959 1056 
Q 959 750 1161 570 
Q 1363 391 1709 391 
Q 2188 391 2477 730 
Q 2766 1069 2766 1631 
L 2766 1759 
L 2194 1759 
z
M 3341 1997 
L 3341 0 
L 2766 0 
L 2766 531 
Q 2569 213 2275 61 
Q 1981 -91 1556 -91 
Q 1019 -91 701 211 
Q 384 513 384 1019 
Q 384 1609 779 1909 
Q 1175 2209 1959 2209 
L 2766 2209 
L 2766 2266 
Q 2766 2663 2505 2880 
Q 2244 3097 1772 3097 
Q 1472 3097 1187 3025 
Q 903 2953 641 2809 
L 641 3341 
Q 956 3463 1253 3523 
Q 1550 3584 1831 3584 
Q 2591 3584 2966 3190 
Q 3341 2797 3341 1997 
z
" id="DejaVuSans-61" transform="scale(0.015625)"/>
       <path d="M 3513 2113 
L 3513 0 
L 2938 0 
L 2938 2094 
Q 2938 2591 2744 2837 
Q 2550 3084 2163 3084 
Q 1697 3084 1428 2787 
Q 1159 2491 1159 1978 
L 1159 0 
L 581 0 
L 581 3500 
L 1159 3500 
L 1159 2956 
Q 1366 3272 1645 3428 
Q 1925 3584 2291 3584 
Q 2894 3584 3203 3211 
Q 3513 2838 3513 2113 
z
" id="DejaVuSans-6e" transform="scale(0.015625)"/>
      </defs>
      <use xlink:href="#DejaVuSans-4d"/>
      <use x="86.279297" xlink:href="#DejaVuSans-65"/>
      <use x="147.802734" xlink:href="#DejaVuSans-61"/>
      <use x="209.082031" xlink:href="#DejaVuSans-6e"/>
     </g>
    </g>
    <g id="line2d_20">
     <path d="M 445.026562 79.616562 
L 465.026562 79.616562 
" style="fill:none;stroke:#1f77b4;stroke-linecap:square;stroke-width:1.5;"/>
    </g>
    <g id="line2d_21"/>
    <g id="text_17">
     <!-- Median -->
     <g transform="translate(473.026562 83.116562)scale(0.1 -0.1)">
      <defs>
       <path d="M 2906 2969 
L 2906 4863 
L 3481 4863 
L 3481 0 
L 2906 0 
L 2906 525 
Q 2725 213 2448 61 
Q 2172 -91 1784 -91 
Q 1150 -91 751 415 
Q 353 922 353 1747 
Q 353 2572 751 3078 
Q 1150 3584 1784 3584 
Q 2172 3584 2448 3432 
Q 2725 3281 2906 2969 
z
M 947 1747 
Q 947 1113 1208 752 
Q 1469 391 1925 391 
Q 2381 391 2643 752 
Q 2906 1113 2906 1747 
Q 2906 2381 2643 2742 
Q 2381 3103 1925 3103 
Q 1469 3103 1208 2742 
Q 947 2381 947 1747 
z
" id="DejaVuSans-64" transform="scale(0.015625)"/>
       <path d="M 603 3500 
L 1178 3500 
L 1178 0 
L 603 0 
L 603 3500 
z
M 603 4863 
L 1178 4863 
L 1178 4134 
L 603 4134 
L 603 4863 
z
" id="DejaVuSans-69" transform="scale(0.015625)"/>
      </defs>
      <use xlink:href="#DejaVuSans-4d"/>
      <use x="86.279297" xlink:href="#DejaVuSans-65"/>
      <use x="147.802734" xlink:href="#DejaVuSans-64"/>
      <use x="211.279297" xlink:href="#DejaVuSans-69"/>
      <use x="239.0625" xlink:href="#DejaVuSans-61"/>
      <use x="300.341797" xlink:href="#DejaVuSans-6e"/>
     </g>
    </g>
   </g>
  </g>
 </g>
 <defs>
  <clipPath id="p2347c99e93">
   <rect height="332.64" width="446.4" x="72" y="51.84"/>
  </clipPath>
 </defs>
</svg>
