<?xml version="1.0" encoding="utf-8"?>
<svg xmlns="http://www.w3.org/2000/svg" xmlns:xlink="http://www.w3.org/1999/xlink" width="600" height="400" viewBox="0 0 2400 1600">
<defs>
  <clipPath id="clip220">
    <rect x="0" y="0" width="2400" height="1600"/>
  </clipPath>
</defs>
<path clip-path="url(#clip220)" d="M0 1600 L2400 1600 L2400 0 L0 0  Z" fill="#ffffff" fill-rule="evenodd" fill-opacity="1"/>
<defs>
  <clipPath id="clip221">
    <rect x="480" y="0" width="1681" height="1600"/>
  </clipPath>
</defs>
<path clip-path="url(#clip220)" d="M230.973 1477.81 L2352.76 1477.81 L2352.76 47.2441 L230.973 47.2441  Z" fill="#ffffff" fill-rule="evenodd" fill-opacity="1"/>
<defs>
  <clipPath id="clip222">
    <rect x="230" y="47" width="2123" height="1432"/>
  </clipPath>
</defs>
<polyline clip-path="url(#clip222)" style="stroke:#000000; stroke-linecap:round; stroke-linejoin:round; stroke-width:2; stroke-opacity:0.1; fill:none" points="617.443,1477.81 617.443,47.2441 "/>
<polyline clip-path="url(#clip222)" style="stroke:#000000; stroke-linecap:round; stroke-linejoin:round; stroke-width:2; stroke-opacity:0.1; fill:none" points="1291.86,1477.81 1291.86,47.2441 "/>
<polyline clip-path="url(#clip222)" style="stroke:#000000; stroke-linecap:round; stroke-linejoin:round; stroke-width:2; stroke-opacity:0.1; fill:none" points="1966.29,1477.81 1966.29,47.2441 "/>
<polyline clip-path="url(#clip220)" style="stroke:#000000; stroke-linecap:round; stroke-linejoin:round; stroke-width:4; stroke-opacity:1; fill:none" points="230.973,1477.81 2352.76,1477.81 "/>
<polyline clip-path="url(#clip220)" style="stroke:#000000; stroke-linecap:round; stroke-linejoin:round; stroke-width:4; stroke-opacity:1; fill:none" points="617.443,1477.81 617.443,1458.91 "/>
<polyline clip-path="url(#clip220)" style="stroke:#000000; stroke-linecap:round; stroke-linejoin:round; stroke-width:4; stroke-opacity:1; fill:none" points="1291.86,1477.81 1291.86,1458.91 "/>
<polyline clip-path="url(#clip220)" style="stroke:#000000; stroke-linecap:round; stroke-linejoin:round; stroke-width:4; stroke-opacity:1; fill:none" points="1966.29,1477.81 1966.29,1458.91 "/>
<path clip-path="url(#clip220)" d="M565.548 1512.61 L565.548 1546.2 L572.608 1546.2 Q581.549 1546.2 585.687 1542.15 Q589.854 1538.1 589.854 1529.36 Q589.854 1520.68 585.687 1516.66 Q581.549 1512.61 572.608 1512.61 L565.548 1512.61 M559.703 1507.81 L571.711 1507.81 Q584.269 1507.81 590.143 1513.05 Q596.017 1518.25 596.017 1529.36 Q596.017 1540.53 590.114 1545.77 Q584.211 1551.01 571.711 1551.01 L559.703 1551.01 L559.703 1507.81 Z" fill="#000000" fill-rule="nonzero" fill-opacity="1" /><path clip-path="url(#clip220)" d="M605.334 1507.81 L632.649 1507.81 L632.649 1512.73 L611.179 1512.73 L611.179 1525.52 L631.752 1525.52 L631.752 1530.44 L611.179 1530.44 L611.179 1546.09 L633.169 1546.09 L633.169 1551.01 L605.334 1551.01 L605.334 1507.81 Z" fill="#000000" fill-rule="nonzero" fill-opacity="1" /><path clip-path="url(#clip220)" d="M642.11 1507.81 L647.984 1507.81 L647.984 1534.05 Q647.984 1541 650.501 1544.06 Q653.019 1547.1 658.661 1547.1 Q664.275 1547.1 666.792 1544.06 Q669.309 1541 669.309 1534.05 L669.309 1507.81 L675.183 1507.81 L675.183 1534.78 Q675.183 1543.22 670.987 1547.54 Q666.821 1551.85 658.661 1551.85 Q650.473 1551.85 646.277 1547.54 Q642.11 1543.22 642.11 1534.78 L642.11 1507.81 Z" fill="#000000" fill-rule="nonzero" fill-opacity="1" /><path clip-path="url(#clip220)" d="M1238.32 1507.81 L1263.15 1507.81 L1263.15 1512.73 L1244.16 1512.73 L1244.16 1525.46 L1261.29 1525.46 L1261.29 1530.38 L1244.16 1530.38 L1244.16 1551.01 L1238.32 1551.01 L1238.32 1507.81 Z" fill="#000000" fill-rule="nonzero" fill-opacity="1" /><path clip-path="url(#clip220)" d="M1292.89 1530.75 Q1294.77 1531.39 1296.54 1533.47 Q1298.33 1535.56 1300.13 1539.2 L1306.06 1551.01 L1299.78 1551.01 L1294.25 1539.93 Q1292.11 1535.59 1290.08 1534.17 Q1288.09 1532.75 1284.62 1532.75 L1278.25 1532.75 L1278.25 1551.01 L1272.41 1551.01 L1272.41 1507.81 L1285.6 1507.81 Q1293.01 1507.81 1296.65 1510.9 Q1300.3 1514 1300.3 1520.25 Q1300.3 1524.33 1298.39 1527.02 Q1296.51 1529.71 1292.89 1530.75 M1278.25 1512.61 L1278.25 1527.95 L1285.6 1527.95 Q1289.82 1527.95 1291.97 1526.01 Q1294.14 1524.04 1294.14 1520.25 Q1294.14 1516.46 1291.97 1514.55 Q1289.82 1512.61 1285.6 1512.61 L1278.25 1512.61 Z" fill="#000000" fill-rule="nonzero" fill-opacity="1" /><path clip-path="url(#clip220)" d="M1325.62 1513.57 L1317.69 1535.06 L1333.57 1535.06 L1325.62 1513.57 M1322.32 1507.81 L1328.94 1507.81 L1345.41 1551.01 L1339.33 1551.01 L1335.4 1539.93 L1315.92 1539.93 L1311.99 1551.01 L1305.83 1551.01 L1322.32 1507.81 Z" fill="#000000" fill-rule="nonzero" fill-opacity="1" /><path clip-path="url(#clip220)" d="M1919.64 1530.38 L1919.64 1546.2 L1929.02 1546.2 Q1933.73 1546.2 1935.99 1544.27 Q1938.28 1542.3 1938.28 1538.28 Q1938.28 1534.23 1935.99 1532.32 Q1933.73 1530.38 1929.02 1530.38 L1919.64 1530.38 M1919.64 1512.61 L1919.64 1525.63 L1928.29 1525.63 Q1932.58 1525.63 1934.66 1524.04 Q1936.77 1522.42 1936.77 1519.12 Q1936.77 1515.85 1934.66 1514.23 Q1932.58 1512.61 1928.29 1512.61 L1919.64 1512.61 M1913.8 1507.81 L1928.73 1507.81 Q1935.41 1507.81 1939.03 1510.59 Q1942.65 1513.36 1942.65 1518.48 Q1942.65 1522.45 1940.79 1524.79 Q1938.94 1527.14 1935.35 1527.72 Q1939.67 1528.64 1942.04 1531.59 Q1944.44 1534.51 1944.44 1538.91 Q1944.44 1544.7 1940.5 1547.85 Q1936.57 1551.01 1929.31 1551.01 L1913.8 1551.01 L1913.8 1507.81 Z" fill="#000000" fill-rule="nonzero" fill-opacity="1" /><path clip-path="url(#clip220)" d="M1954.45 1507.81 L1981.77 1507.81 L1981.77 1512.73 L1960.3 1512.73 L1960.3 1525.52 L1980.87 1525.52 L1980.87 1530.44 L1960.3 1530.44 L1960.3 1546.09 L1982.29 1546.09 L1982.29 1551.01 L1954.45 1551.01 L1954.45 1507.81 Z" fill="#000000" fill-rule="nonzero" fill-opacity="1" /><path clip-path="url(#clip220)" d="M1991.89 1507.81 L1997.74 1507.81 L1997.74 1546.09 L2018.77 1546.09 L2018.77 1551.01 L1991.89 1551.01 L1991.89 1507.81 Z" fill="#000000" fill-rule="nonzero" fill-opacity="1" /><polyline clip-path="url(#clip222)" style="stroke:#000000; stroke-linecap:round; stroke-linejoin:round; stroke-width:2; stroke-opacity:0.1; fill:none" points="230.973,1477.81 2352.76,1477.81 "/>
<polyline clip-path="url(#clip222)" style="stroke:#000000; stroke-linecap:round; stroke-linejoin:round; stroke-width:2; stroke-opacity:0.1; fill:none" points="230.973,1266.52 2352.76,1266.52 "/>
<polyline clip-path="url(#clip222)" style="stroke:#000000; stroke-linecap:round; stroke-linejoin:round; stroke-width:2; stroke-opacity:0.1; fill:none" points="230.973,1055.22 2352.76,1055.22 "/>
<polyline clip-path="url(#clip222)" style="stroke:#000000; stroke-linecap:round; stroke-linejoin:round; stroke-width:2; stroke-opacity:0.1; fill:none" points="230.973,843.933 2352.76,843.933 "/>
<polyline clip-path="url(#clip222)" style="stroke:#000000; stroke-linecap:round; stroke-linejoin:round; stroke-width:2; stroke-opacity:0.1; fill:none" points="230.973,632.641 2352.76,632.641 "/>
<polyline clip-path="url(#clip222)" style="stroke:#000000; stroke-linecap:round; stroke-linejoin:round; stroke-width:2; stroke-opacity:0.1; fill:none" points="230.973,421.349 2352.76,421.349 "/>
<polyline clip-path="url(#clip222)" style="stroke:#000000; stroke-linecap:round; stroke-linejoin:round; stroke-width:2; stroke-opacity:0.1; fill:none" points="230.973,210.058 2352.76,210.058 "/>
<polyline clip-path="url(#clip220)" style="stroke:#000000; stroke-linecap:round; stroke-linejoin:round; stroke-width:4; stroke-opacity:1; fill:none" points="230.973,1477.81 230.973,47.2441 "/>
<polyline clip-path="url(#clip220)" style="stroke:#000000; stroke-linecap:round; stroke-linejoin:round; stroke-width:4; stroke-opacity:1; fill:none" points="230.973,1477.81 249.87,1477.81 "/>
<polyline clip-path="url(#clip220)" style="stroke:#000000; stroke-linecap:round; stroke-linejoin:round; stroke-width:4; stroke-opacity:1; fill:none" points="230.973,1266.52 249.87,1266.52 "/>
<polyline clip-path="url(#clip220)" style="stroke:#000000; stroke-linecap:round; stroke-linejoin:round; stroke-width:4; stroke-opacity:1; fill:none" points="230.973,1055.22 249.87,1055.22 "/>
<polyline clip-path="url(#clip220)" style="stroke:#000000; stroke-linecap:round; stroke-linejoin:round; stroke-width:4; stroke-opacity:1; fill:none" points="230.973,843.933 249.87,843.933 "/>
<polyline clip-path="url(#clip220)" style="stroke:#000000; stroke-linecap:round; stroke-linejoin:round; stroke-width:4; stroke-opacity:1; fill:none" points="230.973,632.641 249.87,632.641 "/>
<polyline clip-path="url(#clip220)" style="stroke:#000000; stroke-linecap:round; stroke-linejoin:round; stroke-width:4; stroke-opacity:1; fill:none" points="230.973,421.349 249.87,421.349 "/>
<polyline clip-path="url(#clip220)" style="stroke:#000000; stroke-linecap:round; stroke-linejoin:round; stroke-width:4; stroke-opacity:1; fill:none" points="230.973,210.058 249.87,210.058 "/>
<path clip-path="url(#clip220)" d="M180.042 1460.06 Q175.528 1460.06 173.243 1464.51 Q170.986 1468.94 170.986 1477.85 Q170.986 1486.73 173.243 1491.19 Q175.528 1495.62 180.042 1495.62 Q184.585 1495.62 186.842 1491.19 Q189.128 1486.73 189.128 1477.85 Q189.128 1468.94 186.842 1464.51 Q184.585 1460.06 180.042 1460.06 M180.042 1455.43 Q187.305 1455.43 191.124 1461.18 Q194.973 1466.91 194.973 1477.85 Q194.973 1488.76 191.124 1494.52 Q187.305 1500.25 180.042 1500.25 Q172.78 1500.25 168.931 1494.52 Q165.112 1488.76 165.112 1477.85 Q165.112 1466.91 168.931 1461.18 Q172.78 1455.43 180.042 1455.43 Z" fill="#000000" fill-rule="nonzero" fill-opacity="1" /><path clip-path="url(#clip220)" d="M55.4481 1283.2 L64.9967 1283.2 L64.9967 1250.24 L54.609 1252.32 L54.609 1247 L64.9388 1244.92 L70.7837 1244.92 L70.7837 1283.2 L80.3322 1283.2 L80.3322 1288.12 L55.4481 1288.12 L55.4481 1283.2 Z" fill="#000000" fill-rule="nonzero" fill-opacity="1" /><path clip-path="url(#clip220)" d="M104.638 1248.76 Q100.124 1248.76 97.8379 1253.22 Q95.581 1257.65 95.581 1266.56 Q95.581 1275.44 97.8379 1279.9 Q100.124 1284.33 104.638 1284.33 Q109.18 1284.33 111.437 1279.9 Q113.723 1275.44 113.723 1266.56 Q113.723 1257.65 111.437 1253.22 Q109.18 1248.76 104.638 1248.76 M104.638 1244.13 Q111.9 1244.13 115.72 1249.89 Q119.568 1255.62 119.568 1266.56 Q119.568 1277.47 115.72 1283.23 Q111.9 1288.96 104.638 1288.96 Q97.375 1288.96 93.5266 1283.23 Q89.7072 1277.47 89.7072 1266.56 Q89.7072 1255.62 93.5266 1249.89 Q97.375 1244.13 104.638 1244.13 Z" fill="#000000" fill-rule="nonzero" fill-opacity="1" /><path clip-path="url(#clip220)" d="M142.34 1248.76 Q137.826 1248.76 135.54 1253.22 Q133.283 1257.65 133.283 1266.56 Q133.283 1275.44 135.54 1279.9 Q137.826 1284.33 142.34 1284.33 Q146.883 1284.33 149.14 1279.9 Q151.426 1275.44 151.426 1266.56 Q151.426 1257.65 149.14 1253.22 Q146.883 1248.76 142.34 1248.76 M142.34 1244.13 Q149.603 1244.13 153.422 1249.89 Q157.27 1255.62 157.27 1266.56 Q157.27 1277.47 153.422 1283.23 Q149.603 1288.96 142.34 1288.96 Q135.077 1288.96 131.229 1283.23 Q127.41 1277.47 127.41 1266.56 Q127.41 1255.62 131.229 1249.89 Q135.077 1244.13 142.34 1244.13 Z" fill="#000000" fill-rule="nonzero" fill-opacity="1" /><path clip-path="url(#clip220)" d="M180.042 1248.76 Q175.528 1248.76 173.243 1253.22 Q170.986 1257.65 170.986 1266.56 Q170.986 1275.44 173.243 1279.9 Q175.528 1284.33 180.042 1284.33 Q184.585 1284.33 186.842 1279.9 Q189.128 1275.44 189.128 1266.56 Q189.128 1257.65 186.842 1253.22 Q184.585 1248.76 180.042 1248.76 M180.042 1244.13 Q187.305 1244.13 191.124 1249.89 Q194.973 1255.62 194.973 1266.56 Q194.973 1277.47 191.124 1283.23 Q187.305 1288.96 180.042 1288.96 Q172.78 1288.96 168.931 1283.23 Q165.112 1277.47 165.112 1266.56 Q165.112 1255.62 168.931 1249.89 Q172.78 1244.13 180.042 1244.13 Z" fill="#000000" fill-rule="nonzero" fill-opacity="1" /><path clip-path="url(#clip220)" d="M59.4701 1071.91 L79.8693 1071.91 L79.8693 1076.82 L52.4389 1076.82 L52.4389 1071.91 Q55.7664 1068.46 61.4955 1062.68 Q67.2536 1056.86 68.7293 1055.18 Q71.536 1052.03 72.6355 1049.86 Q73.764 1047.66 73.764 1045.55 Q73.764 1042.1 71.3335 1039.93 Q68.9318 1037.76 65.0546 1037.76 Q62.3057 1037.76 59.2386 1038.72 Q56.2004 1039.67 52.7282 1041.61 L52.7282 1035.71 Q56.2583 1034.29 59.3254 1033.57 Q62.3925 1032.84 64.9388 1032.84 Q71.6517 1032.84 75.6448 1036.2 Q79.6378 1039.56 79.6378 1045.17 Q79.6378 1047.83 78.6251 1050.23 Q77.6413 1052.61 75.0082 1055.85 Q74.2848 1056.69 70.4075 1060.71 Q66.5302 1064.7 59.4701 1071.91 Z" fill="#000000" fill-rule="nonzero" fill-opacity="1" /><path clip-path="url(#clip220)" d="M104.638 1037.47 Q100.124 1037.47 97.8379 1041.93 Q95.581 1046.36 95.581 1055.27 Q95.581 1064.15 97.8379 1068.61 Q100.124 1073.03 104.638 1073.03 Q109.18 1073.03 111.437 1068.61 Q113.723 1064.15 113.723 1055.27 Q113.723 1046.36 111.437 1041.93 Q109.18 1037.47 104.638 1037.47 M104.638 1032.84 Q111.9 1032.84 115.72 1038.6 Q119.568 1044.33 119.568 1055.27 Q119.568 1066.18 115.72 1071.93 Q111.9 1077.66 104.638 1077.66 Q97.375 1077.66 93.5266 1071.93 Q89.7072 1066.18 89.7072 1055.27 Q89.7072 1044.33 93.5266 1038.6 Q97.375 1032.84 104.638 1032.84 Z" fill="#000000" fill-rule="nonzero" fill-opacity="1" /><path clip-path="url(#clip220)" d="M142.34 1037.47 Q137.826 1037.47 135.54 1041.93 Q133.283 1046.36 133.283 1055.27 Q133.283 1064.15 135.54 1068.61 Q137.826 1073.03 142.34 1073.03 Q146.883 1073.03 149.14 1068.61 Q151.426 1064.15 151.426 1055.27 Q151.426 1046.36 149.14 1041.93 Q146.883 1037.47 142.34 1037.47 M142.34 1032.84 Q149.603 1032.84 153.422 1038.6 Q157.27 1044.33 157.27 1055.27 Q157.27 1066.18 153.422 1071.93 Q149.603 1077.66 142.34 1077.66 Q135.077 1077.66 131.229 1071.93 Q127.41 1066.18 127.41 1055.27 Q127.41 1044.33 131.229 1038.6 Q135.077 1032.84 142.34 1032.84 Z" fill="#000000" fill-rule="nonzero" fill-opacity="1" /><path clip-path="url(#clip220)" d="M180.042 1037.47 Q175.528 1037.47 173.243 1041.93 Q170.986 1046.36 170.986 1055.27 Q170.986 1064.15 173.243 1068.61 Q175.528 1073.03 180.042 1073.03 Q184.585 1073.03 186.842 1068.61 Q189.128 1064.15 189.128 1055.27 Q189.128 1046.36 186.842 1041.93 Q184.585 1037.47 180.042 1037.47 M180.042 1032.84 Q187.305 1032.84 191.124 1038.6 Q194.973 1044.33 194.973 1055.27 Q194.973 1066.18 191.124 1071.93 Q187.305 1077.66 180.042 1077.66 Q172.78 1077.66 168.931 1071.93 Q165.112 1066.18 165.112 1055.27 Q165.112 1044.33 168.931 1038.6 Q172.78 1032.84 180.042 1032.84 Z" fill="#000000" fill-rule="nonzero" fill-opacity="1" /><path clip-path="url(#clip220)" d="M72.1436 842.24 Q76.3392 843.137 78.6829 845.973 Q81.0556 848.808 81.0556 852.975 Q81.0556 859.37 76.6575 862.871 Q72.2594 866.372 64.1576 866.372 Q61.4377 866.372 58.5442 865.822 Q55.6796 865.301 52.6125 864.231 L52.6125 858.588 Q55.043 860.006 57.9365 860.73 Q60.83 861.453 63.984 861.453 Q69.4816 861.453 72.3462 859.283 Q75.2397 857.113 75.2397 852.975 Q75.2397 849.156 72.5487 847.014 Q69.8867 844.844 65.1124 844.844 L60.0777 844.844 L60.0777 840.041 L65.3439 840.041 Q69.6552 840.041 71.9411 838.334 Q74.227 836.598 74.227 833.357 Q74.227 830.029 71.8543 828.264 Q69.5105 826.47 65.1124 826.47 Q62.7108 826.47 59.962 826.991 Q57.2132 827.512 53.9146 828.612 L53.9146 823.403 Q57.2421 822.477 60.1356 822.014 Q63.058 821.552 65.6333 821.552 Q72.2883 821.552 76.1656 824.59 Q80.0429 827.599 80.0429 832.749 Q80.0429 836.337 77.9885 838.826 Q75.9341 841.285 72.1436 842.24 Z" fill="#000000" fill-rule="nonzero" fill-opacity="1" /><path clip-path="url(#clip220)" d="M104.638 826.181 Q100.124 826.181 97.8379 830.637 Q95.581 835.064 95.581 843.976 Q95.581 852.859 97.8379 857.315 Q100.124 861.742 104.638 861.742 Q109.18 861.742 111.437 857.315 Q113.723 852.859 113.723 843.976 Q113.723 835.064 111.437 830.637 Q109.18 826.181 104.638 826.181 M104.638 821.552 Q111.9 821.552 115.72 827.31 Q119.568 833.039 119.568 843.976 Q119.568 854.885 115.72 860.643 Q111.9 866.372 104.638 866.372 Q97.375 866.372 93.5266 860.643 Q89.7072 854.885 89.7072 843.976 Q89.7072 833.039 93.5266 827.31 Q97.375 821.552 104.638 821.552 Z" fill="#000000" fill-rule="nonzero" fill-opacity="1" /><path clip-path="url(#clip220)" d="M142.34 826.181 Q137.826 826.181 135.54 830.637 Q133.283 835.064 133.283 843.976 Q133.283 852.859 135.54 857.315 Q137.826 861.742 142.34 861.742 Q146.883 861.742 149.14 857.315 Q151.426 852.859 151.426 843.976 Q151.426 835.064 149.14 830.637 Q146.883 826.181 142.34 826.181 M142.34 821.552 Q149.603 821.552 153.422 827.31 Q157.27 833.039 157.27 843.976 Q157.27 854.885 153.422 860.643 Q149.603 866.372 142.34 866.372 Q135.077 866.372 131.229 860.643 Q127.41 854.885 127.41 843.976 Q127.41 833.039 131.229 827.31 Q135.077 821.552 142.34 821.552 Z" fill="#000000" fill-rule="nonzero" fill-opacity="1" /><path clip-path="url(#clip220)" d="M180.042 826.181 Q175.528 826.181 173.243 830.637 Q170.986 835.064 170.986 843.976 Q170.986 852.859 173.243 857.315 Q175.528 861.742 180.042 861.742 Q184.585 861.742 186.842 857.315 Q189.128 852.859 189.128 843.976 Q189.128 835.064 186.842 830.637 Q184.585 826.181 180.042 826.181 M180.042 821.552 Q187.305 821.552 191.124 827.31 Q194.973 833.039 194.973 843.976 Q194.973 854.885 191.124 860.643 Q187.305 866.372 180.042 866.372 Q172.78 866.372 168.931 860.643 Q165.112 854.885 165.112 843.976 Q165.112 833.039 168.931 827.31 Q172.78 821.552 180.042 821.552 Z" fill="#000000" fill-rule="nonzero" fill-opacity="1" /><path clip-path="url(#clip220)" d="M70.4943 616.134 L55.7375 639.195 L70.4943 639.195 L70.4943 616.134 M68.9608 611.041 L76.3103 611.041 L76.3103 639.195 L82.4734 639.195 L82.4734 644.056 L76.3103 644.056 L76.3103 654.241 L70.4943 654.241 L70.4943 644.056 L50.9921 644.056 L50.9921 638.414 L68.9608 611.041 Z" fill="#000000" fill-rule="nonzero" fill-opacity="1" /><path clip-path="url(#clip220)" d="M104.638 614.889 Q100.124 614.889 97.8379 619.345 Q95.581 623.772 95.581 632.684 Q95.581 641.568 97.8379 646.024 Q100.124 650.451 104.638 650.451 Q109.18 650.451 111.437 646.024 Q113.723 641.568 113.723 632.684 Q113.723 623.772 111.437 619.345 Q109.18 614.889 104.638 614.889 M104.638 610.26 Q111.9 610.26 115.72 616.018 Q119.568 621.747 119.568 632.684 Q119.568 643.593 115.72 649.351 Q111.9 655.08 104.638 655.08 Q97.375 655.08 93.5266 649.351 Q89.7072 643.593 89.7072 632.684 Q89.7072 621.747 93.5266 616.018 Q97.375 610.26 104.638 610.26 Z" fill="#000000" fill-rule="nonzero" fill-opacity="1" /><path clip-path="url(#clip220)" d="M142.34 614.889 Q137.826 614.889 135.54 619.345 Q133.283 623.772 133.283 632.684 Q133.283 641.568 135.54 646.024 Q137.826 650.451 142.34 650.451 Q146.883 650.451 149.14 646.024 Q151.426 641.568 151.426 632.684 Q151.426 623.772 149.14 619.345 Q146.883 614.889 142.34 614.889 M142.34 610.26 Q149.603 610.26 153.422 616.018 Q157.27 621.747 157.27 632.684 Q157.27 643.593 153.422 649.351 Q149.603 655.08 142.34 655.08 Q135.077 655.08 131.229 649.351 Q127.41 643.593 127.41 632.684 Q127.41 621.747 131.229 616.018 Q135.077 610.26 142.34 610.26 Z" fill="#000000" fill-rule="nonzero" fill-opacity="1" /><path clip-path="url(#clip220)" d="M180.042 614.889 Q175.528 614.889 173.243 619.345 Q170.986 623.772 170.986 632.684 Q170.986 641.568 173.243 646.024 Q175.528 650.451 180.042 650.451 Q184.585 650.451 186.842 646.024 Q189.128 641.568 189.128 632.684 Q189.128 623.772 186.842 619.345 Q184.585 614.889 180.042 614.889 M180.042 610.26 Q187.305 610.26 191.124 616.018 Q194.973 621.747 194.973 632.684 Q194.973 643.593 191.124 649.351 Q187.305 655.08 180.042 655.08 Q172.78 655.08 168.931 649.351 Q165.112 643.593 165.112 632.684 Q165.112 621.747 168.931 616.018 Q172.78 610.26 180.042 610.26 Z" fill="#000000" fill-rule="nonzero" fill-opacity="1" /><path clip-path="url(#clip220)" d="M54.4933 399.749 L77.4387 399.749 L77.4387 404.668 L59.8462 404.668 L59.8462 415.259 Q61.1194 414.824 62.3925 414.622 Q63.6657 414.39 64.9388 414.39 Q72.1726 414.39 76.3971 418.355 Q80.6216 422.319 80.6216 429.089 Q80.6216 436.063 76.2813 439.94 Q71.9411 443.788 64.0418 443.788 Q61.3219 443.788 58.4863 443.326 Q55.6796 442.863 52.6704 441.937 L52.6704 436.063 Q55.2745 437.481 58.0523 438.175 Q60.83 438.87 63.9261 438.87 Q68.9318 438.87 71.8543 436.236 Q74.7767 433.603 74.7767 429.089 Q74.7767 424.576 71.8543 421.943 Q68.9318 419.309 63.9261 419.309 Q61.5823 419.309 59.2386 419.83 Q56.9238 420.351 54.4933 421.451 L54.4933 399.749 Z" fill="#000000" fill-rule="nonzero" fill-opacity="1" /><path clip-path="url(#clip220)" d="M104.638 403.598 Q100.124 403.598 97.8379 408.054 Q95.581 412.481 95.581 421.393 Q95.581 430.276 97.8379 434.732 Q100.124 439.159 104.638 439.159 Q109.18 439.159 111.437 434.732 Q113.723 430.276 113.723 421.393 Q113.723 412.481 111.437 408.054 Q109.18 403.598 104.638 403.598 M104.638 398.968 Q111.9 398.968 115.72 404.726 Q119.568 410.455 119.568 421.393 Q119.568 432.301 115.72 438.059 Q111.9 443.788 104.638 443.788 Q97.375 443.788 93.5266 438.059 Q89.7072 432.301 89.7072 421.393 Q89.7072 410.455 93.5266 404.726 Q97.375 398.968 104.638 398.968 Z" fill="#000000" fill-rule="nonzero" fill-opacity="1" /><path clip-path="url(#clip220)" d="M142.34 403.598 Q137.826 403.598 135.54 408.054 Q133.283 412.481 133.283 421.393 Q133.283 430.276 135.54 434.732 Q137.826 439.159 142.34 439.159 Q146.883 439.159 149.14 434.732 Q151.426 430.276 151.426 421.393 Q151.426 412.481 149.14 408.054 Q146.883 403.598 142.34 403.598 M142.34 398.968 Q149.603 398.968 153.422 404.726 Q157.27 410.455 157.27 421.393 Q157.27 432.301 153.422 438.059 Q149.603 443.788 142.34 443.788 Q135.077 443.788 131.229 438.059 Q127.41 432.301 127.41 421.393 Q127.41 410.455 131.229 404.726 Q135.077 398.968 142.34 398.968 Z" fill="#000000" fill-rule="nonzero" fill-opacity="1" /><path clip-path="url(#clip220)" d="M180.042 403.598 Q175.528 403.598 173.243 408.054 Q170.986 412.481 170.986 421.393 Q170.986 430.276 173.243 434.732 Q175.528 439.159 180.042 439.159 Q184.585 439.159 186.842 434.732 Q189.128 430.276 189.128 421.393 Q189.128 412.481 186.842 408.054 Q184.585 403.598 180.042 403.598 M180.042 398.968 Q187.305 398.968 191.124 404.726 Q194.973 410.455 194.973 421.393 Q194.973 432.301 191.124 438.059 Q187.305 443.788 180.042 443.788 Q172.78 443.788 168.931 438.059 Q165.112 432.301 165.112 421.393 Q165.112 410.455 168.931 404.726 Q172.78 398.968 180.042 398.968 Z" fill="#000000" fill-rule="nonzero" fill-opacity="1" /><path clip-path="url(#clip220)" d="M67.6587 207.728 Q63.7235 207.728 61.4087 210.419 Q59.1229 213.11 59.1229 217.798 Q59.1229 222.456 61.4087 225.176 Q63.7235 227.867 67.6587 227.867 Q71.5939 227.867 73.8797 225.176 Q76.1945 222.456 76.1945 217.798 Q76.1945 213.11 73.8797 210.419 Q71.5939 207.728 67.6587 207.728 M79.2617 189.412 L79.2617 194.737 Q77.0626 193.695 74.8057 193.145 Q72.5777 192.595 70.3786 192.595 Q64.5916 192.595 61.5245 196.502 Q58.4863 200.408 58.0523 208.307 Q59.7594 205.79 62.3347 204.459 Q64.9099 203.099 68.0059 203.099 Q74.5163 203.099 78.2779 207.063 Q82.0683 210.998 82.0683 217.798 Q82.0683 224.453 78.1332 228.475 Q74.198 232.497 67.6587 232.497 Q60.1645 232.497 56.2004 226.768 Q52.2363 221.01 52.2363 210.101 Q52.2363 199.858 57.0974 193.782 Q61.9585 187.676 70.1471 187.676 Q72.3462 187.676 74.5742 188.11 Q76.8311 188.544 79.2617 189.412 Z" fill="#000000" fill-rule="nonzero" fill-opacity="1" /><path clip-path="url(#clip220)" d="M104.638 192.306 Q100.124 192.306 97.8379 196.762 Q95.581 201.189 95.581 210.101 Q95.581 218.984 97.8379 223.44 Q100.124 227.867 104.638 227.867 Q109.18 227.867 111.437 223.44 Q113.723 218.984 113.723 210.101 Q113.723 201.189 111.437 196.762 Q109.18 192.306 104.638 192.306 M104.638 187.676 Q111.9 187.676 115.72 193.434 Q119.568 199.164 119.568 210.101 Q119.568 221.01 115.72 226.768 Q111.9 232.497 104.638 232.497 Q97.375 232.497 93.5266 226.768 Q89.7072 221.01 89.7072 210.101 Q89.7072 199.164 93.5266 193.434 Q97.375 187.676 104.638 187.676 Z" fill="#000000" fill-rule="nonzero" fill-opacity="1" /><path clip-path="url(#clip220)" d="M142.34 192.306 Q137.826 192.306 135.54 196.762 Q133.283 201.189 133.283 210.101 Q133.283 218.984 135.54 223.44 Q137.826 227.867 142.34 227.867 Q146.883 227.867 149.14 223.44 Q151.426 218.984 151.426 210.101 Q151.426 201.189 149.14 196.762 Q146.883 192.306 142.34 192.306 M142.34 187.676 Q149.603 187.676 153.422 193.434 Q157.27 199.164 157.27 210.101 Q157.27 221.01 153.422 226.768 Q149.603 232.497 142.34 232.497 Q135.077 232.497 131.229 226.768 Q127.41 221.01 127.41 210.101 Q127.41 199.164 131.229 193.434 Q135.077 187.676 142.34 187.676 Z" fill="#000000" fill-rule="nonzero" fill-opacity="1" /><path clip-path="url(#clip220)" d="M180.042 192.306 Q175.528 192.306 173.243 196.762 Q170.986 201.189 170.986 210.101 Q170.986 218.984 173.243 223.44 Q175.528 227.867 180.042 227.867 Q184.585 227.867 186.842 223.44 Q189.128 218.984 189.128 210.101 Q189.128 201.189 186.842 196.762 Q184.585 192.306 180.042 192.306 M180.042 187.676 Q187.305 187.676 191.124 193.434 Q194.973 199.164 194.973 210.101 Q194.973 221.01 191.124 226.768 Q187.305 232.497 180.042 232.497 Q172.78 232.497 168.931 226.768 Q165.112 221.01 165.112 210.101 Q165.112 199.164 168.931 193.434 Q172.78 187.676 180.042 187.676 Z" fill="#000000" fill-rule="nonzero" fill-opacity="1" /><path clip-path="url(#clip222)" d="M347.675 47.2441 L347.675 1477.81 L887.212 1477.81 L887.212 47.2441 L347.675 47.2441 L347.675 47.2441  Z" fill="#009af9" fill-rule="evenodd" fill-opacity="1"/>
<polyline clip-path="url(#clip222)" style="stroke:#000000; stroke-linecap:round; stroke-linejoin:round; stroke-width:4; stroke-opacity:1; fill:none" points="347.675,47.2441 347.675,1477.81 887.212,1477.81 887.212,47.2441 347.675,47.2441 "/>
<path clip-path="url(#clip222)" d="M1022.1 440.277 L1022.1 1477.81 L1561.63 1477.81 L1561.63 440.277 L1022.1 440.277 L1022.1 440.277  Z" fill="#009af9" fill-rule="evenodd" fill-opacity="1"/>
<polyline clip-path="url(#clip222)" style="stroke:#000000; stroke-linecap:round; stroke-linejoin:round; stroke-width:4; stroke-opacity:1; fill:none" points="1022.1,440.277 1022.1,1477.81 1561.63,1477.81 1561.63,440.277 1022.1,440.277 "/>
<path clip-path="url(#clip222)" d="M1696.52 1453.26 L1696.52 1477.81 L2236.05 1477.81 L2236.05 1453.26 L1696.52 1453.26 L1696.52 1453.26  Z" fill="#009af9" fill-rule="evenodd" fill-opacity="1"/>
<polyline clip-path="url(#clip222)" style="stroke:#000000; stroke-linecap:round; stroke-linejoin:round; stroke-width:4; stroke-opacity:1; fill:none" points="1696.52,1453.26 1696.52,1477.81 2236.05,1477.81 2236.05,1453.26 1696.52,1453.26 "/>
<circle clip-path="url(#clip222)" style="fill:#009af9; stroke:none; fill-opacity:0" cx="617.443" cy="47.2441" r="2"/>
<circle clip-path="url(#clip222)" style="fill:#009af9; stroke:none; fill-opacity:0" cx="1291.86" cy="440.277" r="2"/>
<circle clip-path="url(#clip222)" style="fill:#009af9; stroke:none; fill-opacity:0" cx="1966.29" cy="1453.26" r="2"/>
</svg>
