<?xml version="1.0" encoding="utf-8"?>
<svg xmlns="http://www.w3.org/2000/svg" xmlns:xlink="http://www.w3.org/1999/xlink" width="900" height="600" viewBox="0 0 3600 2400">
<defs>
  <clipPath id="clip700">
    <rect x="0" y="0" width="3600" height="2400"/>
  </clipPath>
</defs>
<path clip-path="url(#clip700)" d="M0 2400 L3600 2400 L3600 0 L0 0  Z" fill="#ffffff" fill-rule="evenodd" fill-opacity="1"/>
<defs>
  <clipPath id="clip701">
    <rect x="720" y="0" width="2521" height="2400"/>
  </clipPath>
</defs>
<path clip-path="url(#clip700)" d="M243.796 2269.81 L1791.59 2269.81 L1791.59 260.752 L243.796 260.752  Z" fill="#ffffff" fill-rule="evenodd" fill-opacity="1"/>
<defs>
  <clipPath id="clip702">
    <rect x="243" y="260" width="1549" height="2010"/>
  </clipPath>
</defs>
<polyline clip-path="url(#clip702)" style="stroke:#000000; stroke-linecap:round; stroke-linejoin:round; stroke-width:2; stroke-opacity:0.1; fill:none" points="635.046,2269.81 635.046,260.752 "/>
<polyline clip-path="url(#clip702)" style="stroke:#000000; stroke-linecap:round; stroke-linejoin:round; stroke-width:2; stroke-opacity:0.1; fill:none" points="1400.34,2269.81 1400.34,260.752 "/>
<polyline clip-path="url(#clip700)" style="stroke:#000000; stroke-linecap:round; stroke-linejoin:round; stroke-width:4; stroke-opacity:1; fill:none" points="243.796,2269.81 1791.59,2269.81 "/>
<polyline clip-path="url(#clip700)" style="stroke:#000000; stroke-linecap:round; stroke-linejoin:round; stroke-width:4; stroke-opacity:1; fill:none" points="635.046,2269.81 635.046,2250.91 "/>
<polyline clip-path="url(#clip700)" style="stroke:#000000; stroke-linecap:round; stroke-linejoin:round; stroke-width:4; stroke-opacity:1; fill:none" points="1400.34,2269.81 1400.34,2250.91 "/>
<path clip-path="url(#clip700)" d="M588.403 2331.98 L588.403 2347.8 L597.778 2347.8 Q602.495 2347.8 604.751 2345.87 Q607.037 2343.9 607.037 2339.88 Q607.037 2335.83 604.751 2333.92 Q602.495 2331.98 597.778 2331.98 L588.403 2331.98 M588.403 2314.21 L588.403 2327.23 L597.055 2327.23 Q601.337 2327.23 603.42 2325.64 Q605.533 2324.02 605.533 2320.72 Q605.533 2317.45 603.42 2315.83 Q601.337 2314.21 597.055 2314.21 L588.403 2314.21 M582.558 2309.41 L597.489 2309.41 Q604.173 2309.41 607.79 2312.19 Q611.407 2314.96 611.407 2320.08 Q611.407 2324.05 609.555 2326.39 Q607.703 2328.74 604.115 2329.32 Q608.426 2330.24 610.799 2333.19 Q613.2 2336.11 613.2 2340.51 Q613.2 2346.3 609.265 2349.45 Q605.33 2352.61 598.067 2352.61 L582.558 2352.61 L582.558 2309.41 Z" fill="#000000" fill-rule="nonzero" fill-opacity="1" /><path clip-path="url(#clip700)" d="M623.212 2309.41 L650.527 2309.41 L650.527 2314.33 L629.057 2314.33 L629.057 2327.12 L649.63 2327.12 L649.63 2332.04 L629.057 2332.04 L629.057 2347.69 L651.047 2347.69 L651.047 2352.61 L623.212 2352.61 L623.212 2309.41 Z" fill="#000000" fill-rule="nonzero" fill-opacity="1" /><path clip-path="url(#clip700)" d="M660.654 2309.41 L666.499 2309.41 L666.499 2347.69 L687.535 2347.69 L687.535 2352.61 L660.654 2352.61 L660.654 2309.41 Z" fill="#000000" fill-rule="nonzero" fill-opacity="1" /><path clip-path="url(#clip700)" d="M1348.45 2314.21 L1348.45 2347.8 L1355.51 2347.8 Q1364.45 2347.8 1368.59 2343.75 Q1372.75 2339.7 1372.75 2330.96 Q1372.75 2322.28 1368.59 2318.26 Q1364.45 2314.21 1355.51 2314.21 L1348.45 2314.21 M1342.6 2309.41 L1354.61 2309.41 Q1367.17 2309.41 1373.04 2314.65 Q1378.92 2319.85 1378.92 2330.96 Q1378.92 2342.13 1373.01 2347.37 Q1367.11 2352.61 1354.61 2352.61 L1342.6 2352.61 L1342.6 2309.41 Z" fill="#000000" fill-rule="nonzero" fill-opacity="1" /><path clip-path="url(#clip700)" d="M1388.23 2309.41 L1415.55 2309.41 L1415.55 2314.33 L1394.08 2314.33 L1394.08 2327.12 L1414.65 2327.12 L1414.65 2332.04 L1394.08 2332.04 L1394.08 2347.69 L1416.07 2347.69 L1416.07 2352.61 L1388.23 2352.61 L1388.23 2309.41 Z" fill="#000000" fill-rule="nonzero" fill-opacity="1" /><path clip-path="url(#clip700)" d="M1425.01 2309.41 L1430.88 2309.41 L1430.88 2335.65 Q1430.88 2342.6 1433.4 2345.66 Q1435.92 2348.7 1441.56 2348.7 Q1447.17 2348.7 1449.69 2345.66 Q1452.21 2342.6 1452.21 2335.65 L1452.21 2309.41 L1458.08 2309.41 L1458.08 2336.38 Q1458.08 2344.82 1453.89 2349.14 Q1449.72 2353.45 1441.56 2353.45 Q1433.37 2353.45 1429.18 2349.14 Q1425.01 2344.82 1425.01 2336.38 L1425.01 2309.41 Z" fill="#000000" fill-rule="nonzero" fill-opacity="1" /><polyline clip-path="url(#clip702)" style="stroke:#000000; stroke-linecap:round; stroke-linejoin:round; stroke-width:2; stroke-opacity:0.1; fill:none" points="243.796,2269.81 1791.59,2269.81 "/>
<polyline clip-path="url(#clip702)" style="stroke:#000000; stroke-linecap:round; stroke-linejoin:round; stroke-width:2; stroke-opacity:0.1; fill:none" points="243.796,1883.45 1791.59,1883.45 "/>
<polyline clip-path="url(#clip702)" style="stroke:#000000; stroke-linecap:round; stroke-linejoin:round; stroke-width:2; stroke-opacity:0.1; fill:none" points="243.796,1497.09 1791.59,1497.09 "/>
<polyline clip-path="url(#clip702)" style="stroke:#000000; stroke-linecap:round; stroke-linejoin:round; stroke-width:2; stroke-opacity:0.1; fill:none" points="243.796,1110.74 1791.59,1110.74 "/>
<polyline clip-path="url(#clip702)" style="stroke:#000000; stroke-linecap:round; stroke-linejoin:round; stroke-width:2; stroke-opacity:0.1; fill:none" points="243.796,724.38 1791.59,724.38 "/>
<polyline clip-path="url(#clip702)" style="stroke:#000000; stroke-linecap:round; stroke-linejoin:round; stroke-width:2; stroke-opacity:0.1; fill:none" points="243.796,338.024 1791.59,338.024 "/>
<polyline clip-path="url(#clip700)" style="stroke:#000000; stroke-linecap:round; stroke-linejoin:round; stroke-width:4; stroke-opacity:1; fill:none" points="243.796,2269.81 243.796,260.752 "/>
<polyline clip-path="url(#clip700)" style="stroke:#000000; stroke-linecap:round; stroke-linejoin:round; stroke-width:4; stroke-opacity:1; fill:none" points="243.796,2269.81 262.694,2269.81 "/>
<polyline clip-path="url(#clip700)" style="stroke:#000000; stroke-linecap:round; stroke-linejoin:round; stroke-width:4; stroke-opacity:1; fill:none" points="243.796,1883.45 262.694,1883.45 "/>
<polyline clip-path="url(#clip700)" style="stroke:#000000; stroke-linecap:round; stroke-linejoin:round; stroke-width:4; stroke-opacity:1; fill:none" points="243.796,1497.09 262.694,1497.09 "/>
<polyline clip-path="url(#clip700)" style="stroke:#000000; stroke-linecap:round; stroke-linejoin:round; stroke-width:4; stroke-opacity:1; fill:none" points="243.796,1110.74 262.694,1110.74 "/>
<polyline clip-path="url(#clip700)" style="stroke:#000000; stroke-linecap:round; stroke-linejoin:round; stroke-width:4; stroke-opacity:1; fill:none" points="243.796,724.38 262.694,724.38 "/>
<polyline clip-path="url(#clip700)" style="stroke:#000000; stroke-linecap:round; stroke-linejoin:round; stroke-width:4; stroke-opacity:1; fill:none" points="243.796,338.024 262.694,338.024 "/>
<path clip-path="url(#clip700)" d="M174.866 2252.06 Q170.352 2252.06 168.066 2256.51 Q165.809 2260.94 165.809 2269.85 Q165.809 2278.73 168.066 2283.19 Q170.352 2287.62 174.866 2287.62 Q179.409 2287.62 181.665 2283.19 Q183.951 2278.73 183.951 2269.85 Q183.951 2260.94 181.665 2256.51 Q179.409 2252.06 174.866 2252.06 M174.866 2247.43 Q182.128 2247.43 185.948 2253.18 Q189.796 2258.91 189.796 2269.85 Q189.796 2280.76 185.948 2286.52 Q182.128 2292.25 174.866 2292.25 Q167.603 2292.25 163.755 2286.52 Q159.935 2280.76 159.935 2269.85 Q159.935 2258.91 163.755 2253.18 Q167.603 2247.43 174.866 2247.43 Z" fill="#000000" fill-rule="nonzero" fill-opacity="1" /><path clip-path="url(#clip700)" d="M125.676 1900.13 L135.225 1900.13 L135.225 1867.18 L124.837 1869.26 L124.837 1863.93 L135.167 1861.85 L141.012 1861.85 L141.012 1900.13 L150.56 1900.13 L150.56 1905.05 L125.676 1905.05 L125.676 1900.13 Z" fill="#000000" fill-rule="nonzero" fill-opacity="1" /><path clip-path="url(#clip700)" d="M174.866 1865.7 Q170.352 1865.7 168.066 1870.16 Q165.809 1874.58 165.809 1883.49 Q165.809 1892.38 168.066 1896.83 Q170.352 1901.26 174.866 1901.26 Q179.409 1901.26 181.665 1896.83 Q183.951 1892.38 183.951 1883.49 Q183.951 1874.58 181.665 1870.16 Q179.409 1865.7 174.866 1865.7 M174.866 1861.07 Q182.128 1861.07 185.948 1866.83 Q189.796 1872.56 189.796 1883.49 Q189.796 1894.4 185.948 1900.16 Q182.128 1905.89 174.866 1905.89 Q167.603 1905.89 163.755 1900.16 Q159.935 1894.4 159.935 1883.49 Q159.935 1872.56 163.755 1866.83 Q167.603 1861.07 174.866 1861.07 Z" fill="#000000" fill-rule="nonzero" fill-opacity="1" /><path clip-path="url(#clip700)" d="M129.698 1513.78 L150.097 1513.78 L150.097 1518.69 L122.667 1518.69 L122.667 1513.78 Q125.994 1510.33 131.724 1504.54 Q137.482 1498.73 138.957 1497.05 Q141.764 1493.9 142.864 1491.73 Q143.992 1489.53 143.992 1487.42 Q143.992 1483.97 141.561 1481.8 Q139.16 1479.63 135.283 1479.63 Q132.534 1479.63 129.467 1480.59 Q126.428 1481.54 122.956 1483.48 L122.956 1477.58 Q126.486 1476.16 129.553 1475.44 Q132.621 1474.71 135.167 1474.71 Q141.88 1474.71 145.873 1478.07 Q149.866 1481.43 149.866 1487.04 Q149.866 1489.7 148.853 1492.1 Q147.869 1494.48 145.236 1497.72 Q144.513 1498.56 140.636 1502.58 Q136.758 1506.57 129.698 1513.78 Z" fill="#000000" fill-rule="nonzero" fill-opacity="1" /><path clip-path="url(#clip700)" d="M174.866 1479.34 Q170.352 1479.34 168.066 1483.8 Q165.809 1488.23 165.809 1497.14 Q165.809 1506.02 168.066 1510.48 Q170.352 1514.9 174.866 1514.9 Q179.409 1514.9 181.665 1510.48 Q183.951 1506.02 183.951 1497.14 Q183.951 1488.23 181.665 1483.8 Q179.409 1479.34 174.866 1479.34 M174.866 1474.71 Q182.128 1474.71 185.948 1480.47 Q189.796 1486.2 189.796 1497.14 Q189.796 1508.05 185.948 1513.8 Q182.128 1519.53 174.866 1519.53 Q167.603 1519.53 163.755 1513.8 Q159.935 1508.05 159.935 1497.14 Q159.935 1486.2 163.755 1480.47 Q167.603 1474.71 174.866 1474.71 Z" fill="#000000" fill-rule="nonzero" fill-opacity="1" /><path clip-path="url(#clip700)" d="M142.372 1109.04 Q146.567 1109.94 148.911 1112.78 Q151.284 1115.61 151.284 1119.78 Q151.284 1126.17 146.886 1129.68 Q142.487 1133.18 134.386 1133.18 Q131.666 1133.18 128.772 1132.63 Q125.908 1132.11 122.841 1131.04 L122.841 1125.39 Q125.271 1126.81 128.165 1127.53 Q131.058 1128.26 134.212 1128.26 Q139.71 1128.26 142.574 1126.09 Q145.468 1123.92 145.468 1119.78 Q145.468 1115.96 142.777 1113.82 Q140.115 1111.65 135.34 1111.65 L130.306 1111.65 L130.306 1106.85 L135.572 1106.85 Q139.883 1106.85 142.169 1105.14 Q144.455 1103.4 144.455 1100.16 Q144.455 1096.83 142.082 1095.07 Q139.739 1093.27 135.34 1093.27 Q132.939 1093.27 130.19 1093.8 Q127.441 1094.32 124.143 1095.42 L124.143 1090.21 Q127.47 1089.28 130.364 1088.82 Q133.286 1088.36 135.861 1088.36 Q142.516 1088.36 146.394 1091.39 Q150.271 1094.4 150.271 1099.55 Q150.271 1103.14 148.217 1105.63 Q146.162 1108.09 142.372 1109.04 Z" fill="#000000" fill-rule="nonzero" fill-opacity="1" /><path clip-path="url(#clip700)" d="M174.866 1092.99 Q170.352 1092.99 168.066 1097.44 Q165.809 1101.87 165.809 1110.78 Q165.809 1119.66 168.066 1124.12 Q170.352 1128.55 174.866 1128.55 Q179.409 1128.55 181.665 1124.12 Q183.951 1119.66 183.951 1110.78 Q183.951 1101.87 181.665 1097.44 Q179.409 1092.99 174.866 1092.99 M174.866 1088.36 Q182.128 1088.36 185.948 1094.11 Q189.796 1099.84 189.796 1110.78 Q189.796 1121.69 185.948 1127.45 Q182.128 1133.18 174.866 1133.18 Q167.603 1133.18 163.755 1127.45 Q159.935 1121.69 159.935 1110.78 Q159.935 1099.84 163.755 1094.11 Q167.603 1088.36 174.866 1088.36 Z" fill="#000000" fill-rule="nonzero" fill-opacity="1" /><path clip-path="url(#clip700)" d="M140.722 707.873 L125.966 730.934 L140.722 730.934 L140.722 707.873 M139.189 702.78 L146.538 702.78 L146.538 730.934 L152.701 730.934 L152.701 735.795 L146.538 735.795 L146.538 745.98 L140.722 745.98 L140.722 735.795 L121.22 735.795 L121.22 730.153 L139.189 702.78 Z" fill="#000000" fill-rule="nonzero" fill-opacity="1" /><path clip-path="url(#clip700)" d="M174.866 706.629 Q170.352 706.629 168.066 711.085 Q165.809 715.512 165.809 724.424 Q165.809 733.307 168.066 737.763 Q170.352 742.19 174.866 742.19 Q179.409 742.19 181.665 737.763 Q183.951 733.307 183.951 724.424 Q183.951 715.512 181.665 711.085 Q179.409 706.629 174.866 706.629 M174.866 701.999 Q182.128 701.999 185.948 707.757 Q189.796 713.486 189.796 724.424 Q189.796 735.332 185.948 741.09 Q182.128 746.819 174.866 746.819 Q167.603 746.819 163.755 741.09 Q159.935 735.332 159.935 724.424 Q159.935 713.486 163.755 707.757 Q167.603 701.999 174.866 701.999 Z" fill="#000000" fill-rule="nonzero" fill-opacity="1" /><path clip-path="url(#clip700)" d="M124.721 316.424 L147.667 316.424 L147.667 321.342 L130.074 321.342 L130.074 331.933 Q131.347 331.499 132.621 331.296 Q133.894 331.065 135.167 331.065 Q142.401 331.065 146.625 335.029 Q150.85 338.993 150.85 345.764 Q150.85 352.737 146.509 356.614 Q142.169 360.463 134.27 360.463 Q131.55 360.463 128.714 360 Q125.908 359.537 122.898 358.611 L122.898 352.737 Q125.503 354.155 128.28 354.849 Q131.058 355.544 134.154 355.544 Q139.16 355.544 142.082 352.911 Q145.005 350.277 145.005 345.764 Q145.005 341.25 142.082 338.617 Q139.16 335.984 134.154 335.984 Q131.81 335.984 129.467 336.504 Q127.152 337.025 124.721 338.125 L124.721 316.424 Z" fill="#000000" fill-rule="nonzero" fill-opacity="1" /><path clip-path="url(#clip700)" d="M174.866 320.272 Q170.352 320.272 168.066 324.728 Q165.809 329.155 165.809 338.067 Q165.809 346.95 168.066 351.406 Q170.352 355.833 174.866 355.833 Q179.409 355.833 181.665 351.406 Q183.951 346.95 183.951 338.067 Q183.951 329.155 181.665 324.728 Q179.409 320.272 174.866 320.272 M174.866 315.642 Q182.128 315.642 185.948 321.4 Q189.796 327.129 189.796 338.067 Q189.796 348.975 185.948 354.733 Q182.128 360.463 174.866 360.463 Q167.603 360.463 163.755 354.733 Q159.935 348.975 159.935 338.067 Q159.935 327.129 163.755 321.4 Q167.603 315.642 174.866 315.642 Z" fill="#000000" fill-rule="nonzero" fill-opacity="1" /><path clip-path="url(#clip700)" d="M-3.34254 1315.27 L26.7557 1326.37 L26.7557 1304.13 L-3.34254 1315.27 M-11.4038 1319.89 L-11.4038 1310.61 L49.0762 1287.56 L49.0762 1296.07 L33.5612 1301.58 L33.5612 1328.84 L49.0762 1334.35 L49.0762 1342.98 L-11.4038 1319.89 Z" fill="#000000" fill-rule="nonzero" fill-opacity="1" /><path clip-path="url(#clip700)" d="M25.8645 1249.2 Q17.7627 1249.2 13.3067 1252.56 Q8.85068 1255.88 8.85068 1261.92 Q8.85068 1267.91 13.3067 1271.28 Q17.7627 1274.6 25.8645 1274.6 Q33.9258 1274.6 38.3818 1271.28 Q42.8378 1267.91 42.8378 1261.92 Q42.8378 1255.88 38.3818 1252.56 Q33.9258 1249.2 25.8645 1249.2 M43.4454 1241.74 Q55.031 1241.74 60.6617 1246.89 Q66.333 1252.03 66.333 1262.65 Q66.333 1266.58 65.7254 1270.06 Q65.1582 1273.54 63.943 1276.83 L56.6919 1276.83 Q58.4743 1273.54 59.3249 1270.34 Q60.1756 1267.14 60.1756 1263.82 Q60.1756 1256.49 56.3273 1252.84 Q52.5194 1249.2 44.7822 1249.2 L41.0959 1249.2 Q45.1063 1251.51 47.0912 1255.11 Q49.0762 1258.72 49.0762 1263.74 Q49.0762 1272.09 42.7162 1277.19 Q36.3563 1282.29 25.8645 1282.29 Q15.3321 1282.29 8.97221 1277.19 Q2.61229 1272.09 2.61229 1263.74 Q2.61229 1258.72 4.59723 1255.11 Q6.58217 1251.51 10.5926 1249.2 L3.70603 1249.2 L3.70603 1241.74 L43.4454 1241.74 Z" fill="#000000" fill-rule="nonzero" fill-opacity="1" /><path clip-path="url(#clip700)" d="M24.5277 1187.58 L28.1735 1187.58 L28.1735 1221.85 Q35.8702 1221.37 39.9211 1217.24 Q43.9315 1213.06 43.9315 1205.65 Q43.9315 1201.36 42.8783 1197.35 Q41.825 1193.3 39.7186 1189.33 L46.7671 1189.33 Q48.4685 1193.34 49.3597 1197.55 Q50.2509 1201.76 50.2509 1206.1 Q50.2509 1216.95 43.9315 1223.31 Q37.6121 1229.63 26.8367 1229.63 Q15.6967 1229.63 9.17475 1223.64 Q2.61229 1217.6 2.61229 1207.39 Q2.61229 1198.24 8.52661 1192.93 Q14.4004 1187.58 24.5277 1187.58 M22.3402 1195.04 Q16.2233 1195.12 12.5775 1198.48 Q8.9317 1201.8 8.9317 1207.31 Q8.9317 1213.55 12.456 1217.32 Q15.9803 1221.04 22.3807 1221.61 L22.3402 1195.04 Z" fill="#000000" fill-rule="nonzero" fill-opacity="1" /><path clip-path="url(#clip700)" d="M971.028 141.542 L971.028 152.635 Q965.716 147.687 959.674 145.239 Q953.685 142.792 946.914 142.792 Q933.581 142.792 926.497 150.969 Q919.414 159.094 919.414 174.51 Q919.414 189.875 926.497 198.052 Q933.581 206.177 946.914 206.177 Q953.685 206.177 959.674 203.729 Q965.716 201.281 971.028 196.333 L971.028 207.322 Q965.508 211.072 959.31 212.947 Q953.164 214.822 946.289 214.822 Q928.633 214.822 918.477 204.041 Q908.32 193.208 908.32 174.51 Q908.32 155.76 918.477 144.979 Q928.633 134.146 946.289 134.146 Q953.268 134.146 959.414 136.021 Q965.612 137.844 971.028 141.542 Z" fill="#000000" fill-rule="nonzero" fill-opacity="1" /><path clip-path="url(#clip700)" d="M1009.47 161.698 Q1001.76 161.698 997.278 167.739 Q992.799 173.729 992.799 184.198 Q992.799 194.666 997.226 200.708 Q1001.71 206.697 1009.47 206.697 Q1017.12 206.697 1021.6 200.656 Q1026.08 194.614 1026.08 184.198 Q1026.08 173.833 1021.6 167.791 Q1017.12 161.698 1009.47 161.698 M1009.47 153.573 Q1021.97 153.573 1029.1 161.698 Q1036.24 169.823 1036.24 184.198 Q1036.24 198.52 1029.1 206.697 Q1021.97 214.822 1009.47 214.822 Q996.914 214.822 989.778 206.697 Q982.695 198.52 982.695 184.198 Q982.695 169.823 989.778 161.698 Q996.914 153.573 1009.47 153.573 Z" fill="#000000" fill-rule="nonzero" fill-opacity="1" /><path clip-path="url(#clip700)" d="M1078.63 183.989 Q1067.02 183.989 1062.54 186.645 Q1058.06 189.302 1058.06 195.708 Q1058.06 200.812 1061.39 203.833 Q1064.78 206.802 1070.56 206.802 Q1078.53 206.802 1083.32 201.177 Q1088.16 195.5 1088.16 186.125 L1088.16 183.989 L1078.63 183.989 M1097.75 180.031 L1097.75 213.312 L1088.16 213.312 L1088.16 204.458 Q1084.88 209.77 1079.99 212.322 Q1075.09 214.822 1068.01 214.822 Q1059.05 214.822 1053.74 209.822 Q1048.48 204.77 1048.48 196.333 Q1048.48 186.489 1055.04 181.489 Q1061.65 176.489 1074.73 176.489 L1088.16 176.489 L1088.16 175.552 Q1088.16 168.937 1083.79 165.344 Q1079.47 161.698 1071.6 161.698 Q1066.6 161.698 1061.86 162.896 Q1057.12 164.094 1052.75 166.489 L1052.75 157.635 Q1058.01 155.604 1062.95 154.614 Q1067.9 153.573 1072.59 153.573 Q1085.25 153.573 1091.5 160.135 Q1097.75 166.698 1097.75 180.031 Z" fill="#000000" fill-rule="nonzero" fill-opacity="1" /><path clip-path="url(#clip700)" d="M1117.49 132.271 L1127.07 132.271 L1127.07 213.312 L1117.49 213.312 L1117.49 132.271 Z" fill="#000000" fill-rule="nonzero" fill-opacity="1" /><path clip-path="url(#clip702)" d="M328.928 260.752 L328.928 2269.81 L941.165 2269.81 L941.165 260.752 L328.928 260.752 L328.928 260.752  Z" fill="#009af9" fill-rule="evenodd" fill-opacity="1"/>
<polyline clip-path="url(#clip702)" style="stroke:#000000; stroke-linecap:round; stroke-linejoin:round; stroke-width:4; stroke-opacity:1; fill:none" points="328.928,260.752 328.928,2269.81 941.165,2269.81 941.165,260.752 328.928,260.752 "/>
<path clip-path="url(#clip702)" d="M1094.22 902.365 L1094.22 2269.81 L1706.46 2269.81 L1706.46 902.365 L1094.22 902.365 L1094.22 902.365  Z" fill="#009af9" fill-rule="evenodd" fill-opacity="1"/>
<polyline clip-path="url(#clip702)" style="stroke:#000000; stroke-linecap:round; stroke-linejoin:round; stroke-width:4; stroke-opacity:1; fill:none" points="1094.22,902.365 1094.22,2269.81 1706.46,2269.81 1706.46,902.365 1094.22,902.365 "/>
<circle clip-path="url(#clip702)" style="fill:#009af9; stroke:none; fill-opacity:0" cx="635.046" cy="260.752" r="2"/>
<circle clip-path="url(#clip702)" style="fill:#009af9; stroke:none; fill-opacity:0" cx="1400.34" cy="902.365" r="2"/>
<path clip-path="url(#clip700)" d="M1519.68 457.321 L1740 457.321 L1740 327.721 L1519.68 327.721  Z" fill="#ffffff" fill-rule="evenodd" fill-opacity="1"/>
<polyline clip-path="url(#clip700)" style="stroke:#000000; stroke-linecap:round; stroke-linejoin:round; stroke-width:4; stroke-opacity:1; fill:none" points="1519.68,457.321 1740,457.321 1740,327.721 1519.68,327.721 1519.68,457.321 "/>
<path clip-path="url(#clip700)" d="M1536.88 418.441 L1640.07 418.441 L1640.07 366.601 L1536.88 366.601 L1536.88 418.441  Z" fill="#009af9" fill-rule="evenodd" fill-opacity="1"/>
<polyline clip-path="url(#clip700)" style="stroke:#000000; stroke-linecap:round; stroke-linejoin:round; stroke-width:5; stroke-opacity:1; fill:none" points="1536.88,418.441 1640.07,418.441 1640.07,366.601 1536.88,366.601 1536.88,418.441 "/>
<path clip-path="url(#clip700)" d="M1674.57 417.13 Q1672.31 422.917 1670.17 424.682 Q1668.03 426.447 1664.44 426.447 L1660.19 426.447 L1660.19 421.991 L1663.31 421.991 Q1665.51 421.991 1666.73 420.949 Q1667.94 419.908 1669.42 416.03 L1670.37 413.6 L1657.26 381.713 L1662.91 381.713 L1673.03 407.061 L1683.16 381.713 L1688.8 381.713 L1674.57 417.13 Z" fill="#000000" fill-rule="nonzero" fill-opacity="1" /><path clip-path="url(#clip700)" d="M1697.92 409.202 L1707.47 409.202 L1707.47 376.245 L1697.08 378.328 L1697.08 373.004 L1707.41 370.921 L1713.25 370.921 L1713.25 409.202 L1722.8 409.202 L1722.8 414.121 L1697.92 414.121 L1697.92 409.202 Z" fill="#000000" fill-rule="nonzero" fill-opacity="1" /><path clip-path="url(#clip700)" d="M2004.96 2269.81 L3552.76 2269.81 L3552.76 260.752 L2004.96 260.752  Z" fill="#ffffff" fill-rule="evenodd" fill-opacity="1"/>
<defs>
  <clipPath id="clip703">
    <rect x="2004" y="260" width="1549" height="2010"/>
  </clipPath>
</defs>
<polyline clip-path="url(#clip703)" style="stroke:#000000; stroke-linecap:round; stroke-linejoin:round; stroke-width:2; stroke-opacity:0.1; fill:none" points="2396.21,2269.81 2396.21,260.752 "/>
<polyline clip-path="url(#clip703)" style="stroke:#000000; stroke-linecap:round; stroke-linejoin:round; stroke-width:2; stroke-opacity:0.1; fill:none" points="3161.51,2269.81 3161.51,260.752 "/>
<polyline clip-path="url(#clip700)" style="stroke:#000000; stroke-linecap:round; stroke-linejoin:round; stroke-width:4; stroke-opacity:1; fill:none" points="2004.96,2269.81 3552.76,2269.81 "/>
<polyline clip-path="url(#clip700)" style="stroke:#000000; stroke-linecap:round; stroke-linejoin:round; stroke-width:4; stroke-opacity:1; fill:none" points="2396.21,2269.81 2396.21,2250.91 "/>
<polyline clip-path="url(#clip700)" style="stroke:#000000; stroke-linecap:round; stroke-linejoin:round; stroke-width:4; stroke-opacity:1; fill:none" points="3161.51,2269.81 3161.51,2250.91 "/>
<path clip-path="url(#clip700)" d="M2349.57 2331.98 L2349.57 2347.8 L2358.94 2347.8 Q2363.66 2347.8 2365.91 2345.87 Q2368.2 2343.9 2368.2 2339.88 Q2368.2 2335.83 2365.91 2333.92 Q2363.66 2331.98 2358.94 2331.98 L2349.57 2331.98 M2349.57 2314.21 L2349.57 2327.23 L2358.22 2327.23 Q2362.5 2327.23 2364.58 2325.64 Q2366.7 2324.02 2366.7 2320.72 Q2366.7 2317.45 2364.58 2315.83 Q2362.5 2314.21 2358.22 2314.21 L2349.57 2314.21 M2343.72 2309.41 L2358.65 2309.41 Q2365.34 2309.41 2368.95 2312.19 Q2372.57 2314.96 2372.57 2320.08 Q2372.57 2324.05 2370.72 2326.39 Q2368.87 2328.74 2365.28 2329.32 Q2369.59 2330.24 2371.96 2333.19 Q2374.36 2336.11 2374.36 2340.51 Q2374.36 2346.3 2370.43 2349.45 Q2366.49 2352.61 2359.23 2352.61 L2343.72 2352.61 L2343.72 2309.41 Z" fill="#000000" fill-rule="nonzero" fill-opacity="1" /><path clip-path="url(#clip700)" d="M2384.37 2309.41 L2411.69 2309.41 L2411.69 2314.33 L2390.22 2314.33 L2390.22 2327.12 L2410.79 2327.12 L2410.79 2332.04 L2390.22 2332.04 L2390.22 2347.69 L2412.21 2347.69 L2412.21 2352.61 L2384.37 2352.61 L2384.37 2309.41 Z" fill="#000000" fill-rule="nonzero" fill-opacity="1" /><path clip-path="url(#clip700)" d="M2421.82 2309.41 L2427.66 2309.41 L2427.66 2347.69 L2448.7 2347.69 L2448.7 2352.61 L2421.82 2352.61 L2421.82 2309.41 Z" fill="#000000" fill-rule="nonzero" fill-opacity="1" /><path clip-path="url(#clip700)" d="M3109.61 2314.21 L3109.61 2347.8 L3116.67 2347.8 Q3125.61 2347.8 3129.75 2343.75 Q3133.92 2339.7 3133.92 2330.96 Q3133.92 2322.28 3129.75 2318.26 Q3125.61 2314.21 3116.67 2314.21 L3109.61 2314.21 M3103.77 2309.41 L3115.77 2309.41 Q3128.33 2309.41 3134.21 2314.65 Q3140.08 2319.85 3140.08 2330.96 Q3140.08 2342.13 3134.18 2347.37 Q3128.27 2352.61 3115.77 2352.61 L3103.77 2352.61 L3103.77 2309.41 Z" fill="#000000" fill-rule="nonzero" fill-opacity="1" /><path clip-path="url(#clip700)" d="M3149.4 2309.41 L3176.71 2309.41 L3176.71 2314.33 L3155.24 2314.33 L3155.24 2327.12 L3175.81 2327.12 L3175.81 2332.04 L3155.24 2332.04 L3155.24 2347.69 L3177.23 2347.69 L3177.23 2352.61 L3149.4 2352.61 L3149.4 2309.41 Z" fill="#000000" fill-rule="nonzero" fill-opacity="1" /><path clip-path="url(#clip700)" d="M3186.17 2309.41 L3192.05 2309.41 L3192.05 2335.65 Q3192.05 2342.6 3194.56 2345.66 Q3197.08 2348.7 3202.72 2348.7 Q3208.34 2348.7 3210.85 2345.66 Q3213.37 2342.6 3213.37 2335.65 L3213.37 2309.41 L3219.25 2309.41 L3219.25 2336.38 Q3219.25 2344.82 3215.05 2349.14 Q3210.88 2353.45 3202.72 2353.45 Q3194.53 2353.45 3190.34 2349.14 Q3186.17 2344.82 3186.17 2336.38 L3186.17 2309.41 Z" fill="#000000" fill-rule="nonzero" fill-opacity="1" /><polyline clip-path="url(#clip703)" style="stroke:#000000; stroke-linecap:round; stroke-linejoin:round; stroke-width:2; stroke-opacity:0.1; fill:none" points="2004.96,2269.81 3552.76,2269.81 "/>
<polyline clip-path="url(#clip703)" style="stroke:#000000; stroke-linecap:round; stroke-linejoin:round; stroke-width:2; stroke-opacity:0.1; fill:none" points="2004.96,1878.74 3552.76,1878.74 "/>
<polyline clip-path="url(#clip703)" style="stroke:#000000; stroke-linecap:round; stroke-linejoin:round; stroke-width:2; stroke-opacity:0.1; fill:none" points="2004.96,1487.67 3552.76,1487.67 "/>
<polyline clip-path="url(#clip703)" style="stroke:#000000; stroke-linecap:round; stroke-linejoin:round; stroke-width:2; stroke-opacity:0.1; fill:none" points="2004.96,1096.6 3552.76,1096.6 "/>
<polyline clip-path="url(#clip703)" style="stroke:#000000; stroke-linecap:round; stroke-linejoin:round; stroke-width:2; stroke-opacity:0.1; fill:none" points="2004.96,705.529 3552.76,705.529 "/>
<polyline clip-path="url(#clip703)" style="stroke:#000000; stroke-linecap:round; stroke-linejoin:round; stroke-width:2; stroke-opacity:0.1; fill:none" points="2004.96,314.459 3552.76,314.459 "/>
<polyline clip-path="url(#clip700)" style="stroke:#000000; stroke-linecap:round; stroke-linejoin:round; stroke-width:4; stroke-opacity:1; fill:none" points="2004.96,2269.81 2004.96,260.752 "/>
<polyline clip-path="url(#clip700)" style="stroke:#000000; stroke-linecap:round; stroke-linejoin:round; stroke-width:4; stroke-opacity:1; fill:none" points="2004.96,2269.81 2023.86,2269.81 "/>
<polyline clip-path="url(#clip700)" style="stroke:#000000; stroke-linecap:round; stroke-linejoin:round; stroke-width:4; stroke-opacity:1; fill:none" points="2004.96,1878.74 2023.86,1878.74 "/>
<polyline clip-path="url(#clip700)" style="stroke:#000000; stroke-linecap:round; stroke-linejoin:round; stroke-width:4; stroke-opacity:1; fill:none" points="2004.96,1487.67 2023.86,1487.67 "/>
<polyline clip-path="url(#clip700)" style="stroke:#000000; stroke-linecap:round; stroke-linejoin:round; stroke-width:4; stroke-opacity:1; fill:none" points="2004.96,1096.6 2023.86,1096.6 "/>
<polyline clip-path="url(#clip700)" style="stroke:#000000; stroke-linecap:round; stroke-linejoin:round; stroke-width:4; stroke-opacity:1; fill:none" points="2004.96,705.529 2023.86,705.529 "/>
<polyline clip-path="url(#clip700)" style="stroke:#000000; stroke-linecap:round; stroke-linejoin:round; stroke-width:4; stroke-opacity:1; fill:none" points="2004.96,314.459 2023.86,314.459 "/>
<path clip-path="url(#clip700)" d="M1936.03 2252.06 Q1931.51 2252.06 1929.23 2256.51 Q1926.97 2260.94 1926.97 2269.85 Q1926.97 2278.73 1929.23 2283.19 Q1931.51 2287.62 1936.03 2287.62 Q1940.57 2287.62 1942.83 2283.19 Q1945.11 2278.73 1945.11 2269.85 Q1945.11 2260.94 1942.83 2256.51 Q1940.57 2252.06 1936.03 2252.06 M1936.03 2247.43 Q1943.29 2247.43 1947.11 2253.18 Q1950.96 2258.91 1950.96 2269.85 Q1950.96 2280.76 1947.11 2286.52 Q1943.29 2292.25 1936.03 2292.25 Q1928.77 2292.25 1924.92 2286.52 Q1921.1 2280.76 1921.1 2269.85 Q1921.1 2258.91 1924.92 2253.18 Q1928.77 2247.43 1936.03 2247.43 Z" fill="#000000" fill-rule="nonzero" fill-opacity="1" /><path clip-path="url(#clip700)" d="M1924.83 1857.14 L1947.78 1857.14 L1947.78 1862.06 L1930.18 1862.06 L1930.18 1872.65 Q1931.46 1872.21 1932.73 1872.01 Q1934 1871.78 1935.28 1871.78 Q1942.51 1871.78 1946.73 1875.74 Q1950.96 1879.71 1950.96 1886.48 Q1950.96 1893.45 1946.62 1897.33 Q1942.28 1901.18 1934.38 1901.18 Q1931.66 1901.18 1928.82 1900.71 Q1926.02 1900.25 1923.01 1899.33 L1923.01 1893.45 Q1925.61 1894.87 1928.39 1895.56 Q1931.17 1896.26 1934.26 1896.26 Q1939.27 1896.26 1942.19 1893.63 Q1945.11 1890.99 1945.11 1886.48 Q1945.11 1881.96 1942.19 1879.33 Q1939.27 1876.7 1934.26 1876.7 Q1931.92 1876.7 1929.58 1877.22 Q1927.26 1877.74 1924.83 1878.84 L1924.83 1857.14 Z" fill="#000000" fill-rule="nonzero" fill-opacity="1" /><path clip-path="url(#clip700)" d="M1886.84 1504.35 L1896.39 1504.35 L1896.39 1471.39 L1886 1473.48 L1886 1468.15 L1896.33 1466.07 L1902.17 1466.07 L1902.17 1504.35 L1911.72 1504.35 L1911.72 1509.27 L1886.84 1509.27 L1886.84 1504.35 Z" fill="#000000" fill-rule="nonzero" fill-opacity="1" /><path clip-path="url(#clip700)" d="M1936.03 1469.92 Q1931.51 1469.92 1929.23 1474.37 Q1926.97 1478.8 1926.97 1487.71 Q1926.97 1496.59 1929.23 1501.05 Q1931.51 1505.48 1936.03 1505.48 Q1940.57 1505.48 1942.83 1501.05 Q1945.11 1496.59 1945.11 1487.71 Q1945.11 1478.8 1942.83 1474.37 Q1940.57 1469.92 1936.03 1469.92 M1936.03 1465.29 Q1943.29 1465.29 1947.11 1471.05 Q1950.96 1476.77 1950.96 1487.71 Q1950.96 1498.62 1947.11 1504.38 Q1943.29 1510.11 1936.03 1510.11 Q1928.77 1510.11 1924.92 1504.38 Q1921.1 1498.62 1921.1 1487.71 Q1921.1 1476.77 1924.92 1471.05 Q1928.77 1465.29 1936.03 1465.29 Z" fill="#000000" fill-rule="nonzero" fill-opacity="1" /><path clip-path="url(#clip700)" d="M1888.08 1113.28 L1897.63 1113.28 L1897.63 1080.32 L1887.24 1082.41 L1887.24 1077.08 L1897.57 1075 L1903.42 1075 L1903.42 1113.28 L1912.97 1113.28 L1912.97 1118.2 L1888.08 1118.2 L1888.08 1113.28 Z" fill="#000000" fill-rule="nonzero" fill-opacity="1" /><path clip-path="url(#clip700)" d="M1924.83 1075 L1947.78 1075 L1947.78 1079.92 L1930.18 1079.92 L1930.18 1090.51 Q1931.46 1090.07 1932.73 1089.87 Q1934 1089.64 1935.28 1089.64 Q1942.51 1089.64 1946.73 1093.6 Q1950.96 1097.57 1950.96 1104.34 Q1950.96 1111.31 1946.62 1115.19 Q1942.28 1119.04 1934.38 1119.04 Q1931.66 1119.04 1928.82 1118.57 Q1926.02 1118.11 1923.01 1117.19 L1923.01 1111.31 Q1925.61 1112.73 1928.39 1113.42 Q1931.17 1114.12 1934.26 1114.12 Q1939.27 1114.12 1942.19 1111.49 Q1945.11 1108.85 1945.11 1104.34 Q1945.11 1099.82 1942.19 1097.19 Q1939.27 1094.56 1934.26 1094.56 Q1931.92 1094.56 1929.58 1095.08 Q1927.26 1095.6 1924.83 1096.7 L1924.83 1075 Z" fill="#000000" fill-rule="nonzero" fill-opacity="1" /><path clip-path="url(#clip700)" d="M1890.86 722.21 L1911.26 722.21 L1911.26 727.129 L1883.83 727.129 L1883.83 722.21 Q1887.16 718.767 1892.89 712.98 Q1898.64 707.164 1900.12 705.485 Q1902.93 702.331 1904.03 700.161 Q1905.15 697.962 1905.15 695.85 Q1905.15 692.407 1902.72 690.237 Q1900.32 688.067 1896.45 688.067 Q1893.7 688.067 1890.63 689.021 Q1887.59 689.976 1884.12 691.915 L1884.12 686.012 Q1887.65 684.594 1890.72 683.871 Q1893.78 683.148 1896.33 683.148 Q1903.04 683.148 1907.04 686.504 Q1911.03 689.86 1911.03 695.474 Q1911.03 698.136 1910.02 700.538 Q1909.03 702.91 1906.4 706.151 Q1905.68 706.99 1901.8 711.012 Q1897.92 715.005 1890.86 722.21 Z" fill="#000000" fill-rule="nonzero" fill-opacity="1" /><path clip-path="url(#clip700)" d="M1936.03 687.777 Q1931.51 687.777 1929.23 692.233 Q1926.97 696.66 1926.97 705.572 Q1926.97 714.455 1929.23 718.911 Q1931.51 723.338 1936.03 723.338 Q1940.57 723.338 1942.83 718.911 Q1945.11 714.455 1945.11 705.572 Q1945.11 696.66 1942.83 692.233 Q1940.57 687.777 1936.03 687.777 M1936.03 683.148 Q1943.29 683.148 1947.11 688.906 Q1950.96 694.635 1950.96 705.572 Q1950.96 716.481 1947.11 722.239 Q1943.29 727.968 1936.03 727.968 Q1928.77 727.968 1924.92 722.239 Q1921.1 716.481 1921.1 705.572 Q1921.1 694.635 1924.92 688.906 Q1928.77 683.148 1936.03 683.148 Z" fill="#000000" fill-rule="nonzero" fill-opacity="1" /><path clip-path="url(#clip700)" d="M1892.1 331.14 L1912.5 331.14 L1912.5 336.059 L1885.07 336.059 L1885.07 331.14 Q1888.4 327.697 1894.13 321.91 Q1899.89 316.094 1901.36 314.416 Q1904.17 311.262 1905.27 309.092 Q1906.4 306.893 1906.4 304.78 Q1906.4 301.337 1903.97 299.167 Q1901.57 296.997 1897.69 296.997 Q1894.94 296.997 1891.87 297.952 Q1888.84 298.906 1885.36 300.845 L1885.36 294.942 Q1888.89 293.525 1891.96 292.801 Q1895.03 292.078 1897.57 292.078 Q1904.29 292.078 1908.28 295.434 Q1912.27 298.791 1912.27 304.404 Q1912.27 307.066 1911.26 309.468 Q1910.28 311.84 1907.64 315.081 Q1906.92 315.92 1903.04 319.942 Q1899.17 323.935 1892.1 331.14 Z" fill="#000000" fill-rule="nonzero" fill-opacity="1" /><path clip-path="url(#clip700)" d="M1924.83 292.859 L1947.78 292.859 L1947.78 297.778 L1930.18 297.778 L1930.18 308.368 Q1931.46 307.934 1932.73 307.732 Q1934 307.5 1935.28 307.5 Q1942.51 307.5 1946.73 311.464 Q1950.96 315.428 1950.96 322.199 Q1950.96 329.173 1946.62 333.05 Q1942.28 336.898 1934.38 336.898 Q1931.66 336.898 1928.82 336.435 Q1926.02 335.972 1923.01 335.046 L1923.01 329.173 Q1925.61 330.59 1928.39 331.285 Q1931.17 331.979 1934.26 331.979 Q1939.27 331.979 1942.19 329.346 Q1945.11 326.713 1945.11 322.199 Q1945.11 317.685 1942.19 315.052 Q1939.27 312.419 1934.26 312.419 Q1931.92 312.419 1929.58 312.94 Q1927.26 313.461 1924.83 314.56 L1924.83 292.859 Z" fill="#000000" fill-rule="nonzero" fill-opacity="1" /><path clip-path="url(#clip700)" d="M2740.16 202.218 L2740.16 181.333 L2722.97 181.333 L2722.97 172.687 L2750.58 172.687 L2750.58 206.072 Q2744.48 210.395 2737.14 212.635 Q2729.8 214.822 2721.46 214.822 Q2703.23 214.822 2692.92 204.197 Q2682.66 193.52 2682.66 174.51 Q2682.66 155.448 2692.92 144.823 Q2703.23 134.146 2721.46 134.146 Q2729.07 134.146 2735.89 136.021 Q2742.76 137.896 2748.55 141.542 L2748.55 152.739 Q2742.71 147.792 2736.15 145.292 Q2729.59 142.792 2722.35 142.792 Q2708.08 142.792 2700.89 150.76 Q2693.75 158.729 2693.75 174.51 Q2693.75 190.239 2700.89 198.208 Q2708.08 206.177 2722.35 206.177 Q2727.92 206.177 2732.3 205.239 Q2736.67 204.25 2740.16 202.218 Z" fill="#000000" fill-rule="nonzero" fill-opacity="1" /><path clip-path="url(#clip700)" d="M2795.89 183.989 Q2784.27 183.989 2779.79 186.645 Q2775.32 189.302 2775.32 195.708 Q2775.32 200.812 2778.65 203.833 Q2782.03 206.802 2787.82 206.802 Q2795.78 206.802 2800.58 201.177 Q2805.42 195.5 2805.42 186.125 L2805.42 183.989 L2795.89 183.989 M2815 180.031 L2815 213.312 L2805.42 213.312 L2805.42 204.458 Q2802.14 209.77 2797.24 212.322 Q2792.35 214.822 2785.26 214.822 Q2776.31 214.822 2770.99 209.822 Q2765.73 204.77 2765.73 196.333 Q2765.73 186.489 2772.29 181.489 Q2778.91 176.489 2791.98 176.489 L2805.42 176.489 L2805.42 175.552 Q2805.42 168.937 2801.04 165.344 Q2796.72 161.698 2788.86 161.698 Q2783.86 161.698 2779.12 162.896 Q2774.38 164.094 2770 166.489 L2770 157.635 Q2775.26 155.604 2780.21 154.614 Q2785.16 153.573 2789.85 153.573 Q2802.5 153.573 2808.75 160.135 Q2815 166.698 2815 180.031 Z" fill="#000000" fill-rule="nonzero" fill-opacity="1" /><path clip-path="url(#clip700)" d="M2871.93 156.698 L2871.93 165.76 Q2867.87 163.677 2863.49 162.635 Q2859.12 161.594 2854.43 161.594 Q2847.29 161.594 2843.7 163.781 Q2840.16 165.969 2840.16 170.343 Q2840.16 173.677 2842.71 175.604 Q2845.26 177.479 2852.97 179.198 L2856.25 179.927 Q2866.46 182.114 2870.73 186.125 Q2875.05 190.083 2875.05 197.218 Q2875.05 205.343 2868.6 210.083 Q2862.19 214.822 2850.94 214.822 Q2846.25 214.822 2841.15 213.885 Q2836.1 213 2830.47 211.177 L2830.47 201.281 Q2835.78 204.041 2840.94 205.447 Q2846.1 206.802 2851.15 206.802 Q2857.92 206.802 2861.57 204.51 Q2865.21 202.166 2865.21 197.947 Q2865.21 194.041 2862.55 191.958 Q2859.95 189.875 2851.04 187.948 L2847.71 187.166 Q2838.8 185.291 2834.85 181.437 Q2830.89 177.531 2830.89 170.76 Q2830.89 162.531 2836.72 158.052 Q2842.55 153.573 2853.28 153.573 Q2858.6 153.573 2863.28 154.354 Q2867.97 155.135 2871.93 156.698 Z" fill="#000000" fill-rule="nonzero" fill-opacity="1" /><path clip-path="url(#clip703)" d="M2090.09 979.278 L2090.09 2269.81 L2702.33 2269.81 L2702.33 979.278 L2090.09 979.278 L2090.09 979.278  Z" fill="#009af9" fill-rule="evenodd" fill-opacity="1"/>
<polyline clip-path="url(#clip703)" style="stroke:#000000; stroke-linecap:round; stroke-linejoin:round; stroke-width:4; stroke-opacity:1; fill:none" points="2090.09,979.278 2090.09,2269.81 2702.33,2269.81 2702.33,979.278 2090.09,979.278 "/>
<path clip-path="url(#clip703)" d="M2855.39 260.752 L2855.39 2269.81 L3467.62 2269.81 L3467.62 260.752 L2855.39 260.752 L2855.39 260.752  Z" fill="#009af9" fill-rule="evenodd" fill-opacity="1"/>
<polyline clip-path="url(#clip703)" style="stroke:#000000; stroke-linecap:round; stroke-linejoin:round; stroke-width:4; stroke-opacity:1; fill:none" points="2855.39,260.752 2855.39,2269.81 3467.62,2269.81 3467.62,260.752 2855.39,260.752 "/>
<circle clip-path="url(#clip703)" style="fill:#009af9; stroke:none; fill-opacity:0" cx="2396.21" cy="979.278" r="2"/>
<circle clip-path="url(#clip703)" style="fill:#009af9; stroke:none; fill-opacity:0" cx="3161.51" cy="260.752" r="2"/>
<path clip-path="url(#clip700)" d="M2056.55 457.321 L2276.87 457.321 L2276.87 327.721 L2056.55 327.721  Z" fill="#ffffff" fill-rule="evenodd" fill-opacity="1"/>
<polyline clip-path="url(#clip700)" style="stroke:#000000; stroke-linecap:round; stroke-linejoin:round; stroke-width:4; stroke-opacity:1; fill:none" points="2056.55,457.321 2276.87,457.321 2276.87,327.721 2056.55,327.721 2056.55,457.321 "/>
<path clip-path="url(#clip700)" d="M2073.75 418.441 L2176.94 418.441 L2176.94 366.601 L2073.75 366.601 L2073.75 418.441  Z" fill="#009af9" fill-rule="evenodd" fill-opacity="1"/>
<polyline clip-path="url(#clip700)" style="stroke:#000000; stroke-linecap:round; stroke-linejoin:round; stroke-width:5; stroke-opacity:1; fill:none" points="2073.75,418.441 2176.94,418.441 2176.94,366.601 2073.75,366.601 2073.75,418.441 "/>
<path clip-path="url(#clip700)" d="M2211.44 417.13 Q2209.18 422.917 2207.04 424.682 Q2204.9 426.447 2201.31 426.447 L2197.06 426.447 L2197.06 421.991 L2200.18 421.991 Q2202.38 421.991 2203.6 420.949 Q2204.81 419.908 2206.29 416.03 L2207.24 413.6 L2194.13 381.713 L2199.78 381.713 L2209.9 407.061 L2220.03 381.713 L2225.67 381.713 L2211.44 417.13 Z" fill="#000000" fill-rule="nonzero" fill-opacity="1" /><path clip-path="url(#clip700)" d="M2234.79 409.202 L2244.34 409.202 L2244.34 376.245 L2233.95 378.328 L2233.95 373.004 L2244.28 370.921 L2250.12 370.921 L2250.12 409.202 L2259.67 409.202 L2259.67 414.121 L2234.79 414.121 L2234.79 409.202 Z" fill="#000000" fill-rule="nonzero" fill-opacity="1" /><path clip-path="url(#clip700)" d="M243.796 120 L3552.76 120 L3552.76 0 L243.796 0  Z" fill="#ffffff" fill-rule="evenodd" fill-opacity="1"/>
<defs>
  <clipPath id="clip704">
    <rect x="243" y="0" width="3310" height="121"/>
  </clipPath>
</defs>
<path clip-path="url(#clip700)" d="M566.551 18.144 L584.841 18.144 L607.992 79.8798 L631.265 18.144 L649.554 18.144 L649.554 108.864 L637.584 108.864 L637.584 29.203 L614.19 91.4249 L601.855 91.4249 L578.461 29.203 L578.461 108.864 L566.551 108.864 L566.551 18.144 Z" fill="#000000" fill-rule="nonzero" fill-opacity="1" /><path clip-path="url(#clip700)" d="M731.646 72.0413 L731.646 77.51 L680.24 77.51 Q680.969 89.0551 687.167 95.1314 Q693.426 101.147 704.545 101.147 Q710.986 101.147 717.002 99.5672 Q723.078 97.9873 729.033 94.8276 L729.033 105.4 Q723.018 107.953 716.698 109.289 Q710.379 110.626 703.877 110.626 Q687.592 110.626 678.053 101.147 Q668.573 91.6679 668.573 75.5048 Q668.573 58.7948 677.566 49.0119 Q686.62 39.1682 701.933 39.1682 Q715.665 39.1682 723.625 48.0397 Q731.646 56.8504 731.646 72.0413 M720.466 68.76 Q720.344 59.5848 715.301 54.116 Q710.318 48.6473 702.054 48.6473 Q692.697 48.6473 687.046 53.9337 Q681.455 59.2202 680.605 68.8208 L720.466 68.76 Z" fill="#000000" fill-rule="nonzero" fill-opacity="1" /><path clip-path="url(#clip700)" d="M780.925 74.6541 Q767.375 74.6541 762.149 77.7531 Q756.924 80.852 756.924 88.3259 Q756.924 94.2807 760.813 97.805 Q764.762 101.269 771.507 101.269 Q780.804 101.269 786.394 94.7061 Q792.045 88.0829 792.045 77.1454 L792.045 74.6541 L780.925 74.6541 M803.225 70.0361 L803.225 108.864 L792.045 108.864 L792.045 98.5342 Q788.217 104.732 782.505 107.709 Q776.793 110.626 768.529 110.626 Q758.078 110.626 751.88 104.793 Q745.743 98.8988 745.743 89.0551 Q745.743 77.5708 753.399 71.7375 Q761.116 65.9042 776.368 65.9042 L792.045 65.9042 L792.045 64.8104 Q792.045 57.0934 786.941 52.9008 Q781.897 48.6473 772.722 48.6473 Q766.889 48.6473 761.359 50.0449 Q755.83 51.4424 750.726 54.2376 L750.726 43.9078 Q756.863 41.538 762.635 40.3835 Q768.408 39.1682 773.877 39.1682 Q788.642 39.1682 795.934 46.8244 Q803.225 54.4806 803.225 70.0361 Z" fill="#000000" fill-rule="nonzero" fill-opacity="1" /><path clip-path="url(#clip700)" d="M882.826 67.7878 L882.826 108.864 L871.645 108.864 L871.645 68.1524 Q871.645 58.491 867.878 53.6907 Q864.111 48.8904 856.576 48.8904 Q847.522 48.8904 842.296 54.6629 Q837.071 60.4354 837.071 70.4007 L837.071 108.864 L825.83 108.864 L825.83 40.8088 L837.071 40.8088 L837.071 51.3817 Q841.081 45.2445 846.489 42.2064 Q851.958 39.1682 859.067 39.1682 Q870.795 39.1682 876.81 46.4598 Q882.826 53.6907 882.826 67.7878 Z" fill="#000000" fill-rule="nonzero" fill-opacity="1" /><path clip-path="url(#clip700)" d="M955.499 98.6557 L955.499 134.749 L944.258 134.749 L944.258 40.8088 L955.499 40.8088 L955.499 51.1386 Q959.023 45.0623 964.37 42.1456 Q969.778 39.1682 977.252 39.1682 Q989.648 39.1682 997.365 49.0119 Q1005.14 58.8556 1005.14 74.8972 Q1005.14 90.9387 997.365 100.782 Q989.648 110.626 977.252 110.626 Q969.778 110.626 964.37 107.709 Q959.023 104.732 955.499 98.6557 M993.537 74.8972 Q993.537 62.5622 988.433 55.5744 Q983.389 48.5258 974.518 48.5258 Q965.646 48.5258 960.542 55.5744 Q955.499 62.5622 955.499 74.8972 Q955.499 87.2322 960.542 94.2807 Q965.646 101.269 974.518 101.269 Q983.389 101.269 988.433 94.2807 Q993.537 87.2322 993.537 74.8972 Z" fill="#000000" fill-rule="nonzero" fill-opacity="1" /><path clip-path="url(#clip700)" d="M1023.68 14.3159 L1034.86 14.3159 L1034.86 108.864 L1023.68 108.864 L1023.68 14.3159 Z" fill="#000000" fill-rule="nonzero" fill-opacity="1" /><path clip-path="url(#clip700)" d="M1089.18 74.6541 Q1075.63 74.6541 1070.4 77.7531 Q1065.18 80.852 1065.18 88.3259 Q1065.18 94.2807 1069.07 97.805 Q1073.02 101.269 1079.76 101.269 Q1089.06 101.269 1094.65 94.7061 Q1100.3 88.0829 1100.3 77.1454 L1100.3 74.6541 L1089.18 74.6541 M1111.48 70.0361 L1111.48 108.864 L1100.3 108.864 L1100.3 98.5342 Q1096.47 104.732 1090.76 107.709 Q1085.05 110.626 1076.78 110.626 Q1066.33 110.626 1060.13 104.793 Q1054 98.8988 1054 89.0551 Q1054 77.5708 1061.65 71.7375 Q1069.37 65.9042 1084.62 65.9042 L1100.3 65.9042 L1100.3 64.8104 Q1100.3 57.0934 1095.19 52.9008 Q1090.15 48.6473 1080.98 48.6473 Q1075.14 48.6473 1069.61 50.0449 Q1064.08 51.4424 1058.98 54.2376 L1058.98 43.9078 Q1065.12 41.538 1070.89 40.3835 Q1076.66 39.1682 1082.13 39.1682 Q1096.9 39.1682 1104.19 46.8244 Q1111.48 54.4806 1111.48 70.0361 Z" fill="#000000" fill-rule="nonzero" fill-opacity="1" /><path clip-path="url(#clip700)" d="M1191.08 67.7878 L1191.08 108.864 L1179.9 108.864 L1179.9 68.1524 Q1179.9 58.491 1176.13 53.6907 Q1172.36 48.8904 1164.83 48.8904 Q1155.78 48.8904 1150.55 54.6629 Q1145.32 60.4354 1145.32 70.4007 L1145.32 108.864 L1134.08 108.864 L1134.08 40.8088 L1145.32 40.8088 L1145.32 51.3817 Q1149.33 45.2445 1154.74 42.2064 Q1160.21 39.1682 1167.32 39.1682 Q1179.05 39.1682 1185.06 46.4598 Q1191.08 53.6907 1191.08 67.7878 Z" fill="#000000" fill-rule="nonzero" fill-opacity="1" /><path clip-path="url(#clip700)" d="M1224.44 21.486 L1224.44 40.8088 L1247.47 40.8088 L1247.47 49.498 L1224.44 49.498 L1224.44 86.4422 Q1224.44 94.7669 1226.69 97.1366 Q1229 99.5064 1235.98 99.5064 L1247.47 99.5064 L1247.47 108.864 L1235.98 108.864 Q1223.04 108.864 1218.12 104.064 Q1213.2 99.2026 1213.2 86.4422 L1213.2 49.498 L1204.99 49.498 L1204.99 40.8088 L1213.2 40.8088 L1213.2 21.486 L1224.44 21.486 Z" fill="#000000" fill-rule="nonzero" fill-opacity="1" /><path clip-path="url(#clip700)" d="M1332.66 74.6541 Q1319.11 74.6541 1313.88 77.7531 Q1308.66 80.852 1308.66 88.3259 Q1308.66 94.2807 1312.55 97.805 Q1316.5 101.269 1323.24 101.269 Q1332.54 101.269 1338.13 94.7061 Q1343.78 88.0829 1343.78 77.1454 L1343.78 74.6541 L1332.66 74.6541 M1354.96 70.0361 L1354.96 108.864 L1343.78 108.864 L1343.78 98.5342 Q1339.95 104.732 1334.24 107.709 Q1328.53 110.626 1320.26 110.626 Q1309.81 110.626 1303.61 104.793 Q1297.48 98.8988 1297.48 89.0551 Q1297.48 77.5708 1305.13 71.7375 Q1312.85 65.9042 1328.1 65.9042 L1343.78 65.9042 L1343.78 64.8104 Q1343.78 57.0934 1338.67 52.9008 Q1333.63 48.6473 1324.46 48.6473 Q1318.62 48.6473 1313.09 50.0449 Q1307.56 51.4424 1302.46 54.2376 L1302.46 43.9078 Q1308.6 41.538 1314.37 40.3835 Q1320.14 39.1682 1325.61 39.1682 Q1340.38 39.1682 1347.67 46.8244 Q1354.96 54.4806 1354.96 70.0361 Z" fill="#000000" fill-rule="nonzero" fill-opacity="1" /><path clip-path="url(#clip700)" d="M1422.77 74.0465 Q1422.77 61.8938 1417.73 55.2098 Q1412.74 48.5258 1403.69 48.5258 Q1394.7 48.5258 1389.65 55.2098 Q1384.67 61.8938 1384.67 74.0465 Q1384.67 86.1384 1389.65 92.8224 Q1394.7 99.5064 1403.69 99.5064 Q1412.74 99.5064 1417.73 92.8224 Q1422.77 86.1384 1422.77 74.0465 M1433.95 100.418 Q1433.95 117.796 1426.23 126.242 Q1418.52 134.749 1402.6 134.749 Q1396.7 134.749 1391.48 133.838 Q1386.25 132.987 1381.33 131.164 L1381.33 120.288 Q1386.25 122.961 1391.05 124.237 Q1395.85 125.513 1400.84 125.513 Q1411.83 125.513 1417.3 119.741 Q1422.77 114.029 1422.77 102.423 L1422.77 96.8936 Q1419.31 102.909 1413.9 105.887 Q1408.49 108.864 1400.96 108.864 Q1388.44 108.864 1380.78 99.3241 Q1373.13 89.7842 1373.13 74.0465 Q1373.13 58.248 1380.78 48.7081 Q1388.44 39.1682 1400.96 39.1682 Q1408.49 39.1682 1413.9 42.1456 Q1419.31 45.123 1422.77 51.1386 L1422.77 40.8088 L1433.95 40.8088 L1433.95 100.418 Z" fill="#000000" fill-rule="nonzero" fill-opacity="1" /><path clip-path="url(#clip700)" d="M1515.19 72.0413 L1515.19 77.51 L1463.79 77.51 Q1464.52 89.0551 1470.71 95.1314 Q1476.97 101.147 1488.09 101.147 Q1494.53 101.147 1500.55 99.5672 Q1506.62 97.9873 1512.58 94.8276 L1512.58 105.4 Q1506.56 107.953 1500.24 109.289 Q1493.92 110.626 1487.42 110.626 Q1471.14 110.626 1461.6 101.147 Q1452.12 91.6679 1452.12 75.5048 Q1452.12 58.7948 1461.11 49.0119 Q1470.17 39.1682 1485.48 39.1682 Q1499.21 39.1682 1507.17 48.0397 Q1515.19 56.8504 1515.19 72.0413 M1504.01 68.76 Q1503.89 59.5848 1498.85 54.116 Q1493.86 48.6473 1485.6 48.6473 Q1476.24 48.6473 1470.59 53.9337 Q1465 59.2202 1464.15 68.8208 L1504.01 68.76 Z" fill="#000000" fill-rule="nonzero" fill-opacity="1" /><path clip-path="url(#clip700)" d="M1621.95 74.8972 Q1621.95 62.5622 1616.85 55.5744 Q1611.81 48.5258 1602.93 48.5258 Q1594.06 48.5258 1588.96 55.5744 Q1583.92 62.5622 1583.92 74.8972 Q1583.92 87.2322 1588.96 94.2807 Q1594.06 101.269 1602.93 101.269 Q1611.81 101.269 1616.85 94.2807 Q1621.95 87.2322 1621.95 74.8972 M1583.92 51.1386 Q1587.44 45.0623 1592.79 42.1456 Q1598.2 39.1682 1605.67 39.1682 Q1618.06 39.1682 1625.78 49.0119 Q1633.56 58.8556 1633.56 74.8972 Q1633.56 90.9387 1625.78 100.782 Q1618.06 110.626 1605.67 110.626 Q1598.2 110.626 1592.79 107.709 Q1587.44 104.732 1583.92 98.6557 L1583.92 108.864 L1572.67 108.864 L1572.67 14.3159 L1583.92 14.3159 L1583.92 51.1386 Z" fill="#000000" fill-rule="nonzero" fill-opacity="1" /><path clip-path="url(#clip700)" d="M1680.41 115.183 Q1675.67 127.336 1671.17 131.043 Q1666.68 134.749 1659.14 134.749 L1650.21 134.749 L1650.21 125.392 L1656.77 125.392 Q1661.39 125.392 1663.94 123.204 Q1666.49 121.017 1669.59 112.874 L1671.6 107.77 L1644.07 40.8088 L1655.92 40.8088 L1677.19 94.0377 L1698.46 40.8088 L1710.3 40.8088 L1680.41 115.183 Z" fill="#000000" fill-rule="nonzero" fill-opacity="1" /><path clip-path="url(#clip700)" d="M1814.27 43.4216 L1814.27 53.873 Q1809.53 51.2601 1804.73 49.9841 Q1799.99 48.6473 1795.13 48.6473 Q1784.25 48.6473 1778.24 55.5744 Q1772.22 62.4406 1772.22 74.8972 Q1772.22 87.3537 1778.24 94.2807 Q1784.25 101.147 1795.13 101.147 Q1799.99 101.147 1804.73 99.871 Q1809.53 98.5342 1814.27 95.9214 L1814.27 106.251 Q1809.59 108.439 1804.55 109.532 Q1799.57 110.626 1793.91 110.626 Q1778.54 110.626 1769.49 100.965 Q1760.43 91.3033 1760.43 74.8972 Q1760.43 58.248 1769.55 48.7081 Q1778.72 39.1682 1794.64 39.1682 Q1799.81 39.1682 1804.73 40.2619 Q1809.65 41.2949 1814.27 43.4216 Z" fill="#000000" fill-rule="nonzero" fill-opacity="1" /><path clip-path="url(#clip700)" d="M1860.09 48.6473 Q1851.09 48.6473 1845.87 55.6959 Q1840.64 62.6837 1840.64 74.8972 Q1840.64 87.1106 1845.81 94.1592 Q1851.03 101.147 1860.09 101.147 Q1869.02 101.147 1874.24 94.0985 Q1879.47 87.0499 1879.47 74.8972 Q1879.47 62.8052 1874.24 55.7566 Q1869.02 48.6473 1860.09 48.6473 M1860.09 39.1682 Q1874.67 39.1682 1882.99 48.6473 Q1891.32 58.1264 1891.32 74.8972 Q1891.32 91.6071 1882.99 101.147 Q1874.67 110.626 1860.09 110.626 Q1845.44 110.626 1837.12 101.147 Q1828.85 91.6071 1828.85 74.8972 Q1828.85 58.1264 1837.12 48.6473 Q1845.44 39.1682 1860.09 39.1682 Z" fill="#000000" fill-rule="nonzero" fill-opacity="1" /><path clip-path="url(#clip700)" d="M1908.7 82.0065 L1908.7 40.8088 L1919.88 40.8088 L1919.88 81.5812 Q1919.88 91.2426 1923.64 96.1037 Q1927.41 100.904 1934.95 100.904 Q1944 100.904 1949.23 95.1314 Q1954.51 89.3589 1954.51 79.3937 L1954.51 40.8088 L1965.69 40.8088 L1965.69 108.864 L1954.51 108.864 L1954.51 98.4127 Q1950.44 104.611 1945.03 107.649 Q1939.69 110.626 1932.58 110.626 Q1920.85 110.626 1914.77 103.335 Q1908.7 96.0429 1908.7 82.0065 M1936.83 39.1682 L1936.83 39.1682 Z" fill="#000000" fill-rule="nonzero" fill-opacity="1" /><path clip-path="url(#clip700)" d="M2045.29 67.7878 L2045.29 108.864 L2034.11 108.864 L2034.11 68.1524 Q2034.11 58.491 2030.35 53.6907 Q2026.58 48.8904 2019.04 48.8904 Q2009.99 48.8904 2004.76 54.6629 Q1999.54 60.4354 1999.54 70.4007 L1999.54 108.864 L1988.3 108.864 L1988.3 40.8088 L1999.54 40.8088 L1999.54 51.3817 Q2003.55 45.2445 2008.96 42.2064 Q2014.43 39.1682 2021.53 39.1682 Q2033.26 39.1682 2039.28 46.4598 Q2045.29 53.6907 2045.29 67.7878 Z" fill="#000000" fill-rule="nonzero" fill-opacity="1" /><path clip-path="url(#clip700)" d="M2078.65 21.486 L2078.65 40.8088 L2101.68 40.8088 L2101.68 49.498 L2078.65 49.498 L2078.65 86.4422 Q2078.65 94.7669 2080.9 97.1366 Q2083.21 99.5064 2090.2 99.5064 L2101.68 99.5064 L2101.68 108.864 L2090.2 108.864 Q2077.26 108.864 2072.33 104.064 Q2067.41 99.2026 2067.41 86.4422 L2067.41 49.498 L2059.21 49.498 L2059.21 40.8088 L2067.41 40.8088 L2067.41 21.486 L2078.65 21.486 Z" fill="#000000" fill-rule="nonzero" fill-opacity="1" /><path clip-path="url(#clip700)" d="M2155.82 51.2601 Q2153.94 50.1664 2151.69 49.6803 Q2149.5 49.1334 2146.83 49.1334 Q2137.35 49.1334 2132.25 55.3313 Q2127.2 61.4684 2127.2 73.0135 L2127.2 108.864 L2115.96 108.864 L2115.96 40.8088 L2127.2 40.8088 L2127.2 51.3817 Q2130.73 45.1838 2136.38 42.2064 Q2142.03 39.1682 2150.11 39.1682 Q2151.27 39.1682 2152.66 39.3505 Q2154.06 39.472 2155.76 39.7758 L2155.82 51.2601 Z" fill="#000000" fill-rule="nonzero" fill-opacity="1" /><path clip-path="url(#clip700)" d="M2195.87 115.183 Q2191.13 127.336 2186.63 131.043 Q2182.13 134.749 2174.6 134.749 L2165.67 134.749 L2165.67 125.392 L2172.23 125.392 Q2176.85 125.392 2179.4 123.204 Q2181.95 121.017 2185.05 112.874 L2187.05 107.77 L2159.53 40.8088 L2171.38 40.8088 L2192.65 94.0377 L2213.91 40.8088 L2225.76 40.8088 L2195.87 115.183 Z" fill="#000000" fill-rule="nonzero" fill-opacity="1" /><path clip-path="url(#clip700)" d="M2311.68 74.6541 Q2298.13 74.6541 2292.91 77.7531 Q2287.68 80.852 2287.68 88.3259 Q2287.68 94.2807 2291.57 97.805 Q2295.52 101.269 2302.26 101.269 Q2311.56 101.269 2317.15 94.7061 Q2322.8 88.0829 2322.8 77.1454 L2322.8 74.6541 L2311.68 74.6541 M2333.98 70.0361 L2333.98 108.864 L2322.8 108.864 L2322.8 98.5342 Q2318.97 104.732 2313.26 107.709 Q2307.55 110.626 2299.29 110.626 Q2288.83 110.626 2282.64 104.793 Q2276.5 98.8988 2276.5 89.0551 Q2276.5 77.5708 2284.16 71.7375 Q2291.87 65.9042 2307.12 65.9042 L2322.8 65.9042 L2322.8 64.8104 Q2322.8 57.0934 2317.7 52.9008 Q2312.65 48.6473 2303.48 48.6473 Q2297.64 48.6473 2292.12 50.0449 Q2286.59 51.4424 2281.48 54.2376 L2281.48 43.9078 Q2287.62 41.538 2293.39 40.3835 Q2299.16 39.1682 2304.63 39.1682 Q2319.4 39.1682 2326.69 46.8244 Q2333.98 54.4806 2333.98 70.0361 Z" fill="#000000" fill-rule="nonzero" fill-opacity="1" /><path clip-path="url(#clip700)" d="M2413.58 67.7878 L2413.58 108.864 L2402.4 108.864 L2402.4 68.1524 Q2402.4 58.491 2398.63 53.6907 Q2394.87 48.8904 2387.33 48.8904 Q2378.28 48.8904 2373.05 54.6629 Q2367.83 60.4354 2367.83 70.4007 L2367.83 108.864 L2356.59 108.864 L2356.59 40.8088 L2367.83 40.8088 L2367.83 51.3817 Q2371.84 45.2445 2377.24 42.2064 Q2382.71 39.1682 2389.82 39.1682 Q2401.55 39.1682 2407.57 46.4598 Q2413.58 53.6907 2413.58 67.7878 Z" fill="#000000" fill-rule="nonzero" fill-opacity="1" /><path clip-path="url(#clip700)" d="M2480.66 51.1386 L2480.66 14.3159 L2491.84 14.3159 L2491.84 108.864 L2480.66 108.864 L2480.66 98.6557 Q2477.14 104.732 2471.73 107.709 Q2466.38 110.626 2458.85 110.626 Q2446.52 110.626 2438.74 100.782 Q2431.02 90.9387 2431.02 74.8972 Q2431.02 58.8556 2438.74 49.0119 Q2446.52 39.1682 2458.85 39.1682 Q2466.38 39.1682 2471.73 42.1456 Q2477.14 45.0623 2480.66 51.1386 M2442.57 74.8972 Q2442.57 87.2322 2447.61 94.2807 Q2452.71 101.269 2461.58 101.269 Q2470.46 101.269 2475.56 94.2807 Q2480.66 87.2322 2480.66 74.8972 Q2480.66 62.5622 2475.56 55.5744 Q2470.46 48.5258 2461.58 48.5258 Q2452.71 48.5258 2447.61 55.5744 Q2442.57 62.5622 2442.57 74.8972 Z" fill="#000000" fill-rule="nonzero" fill-opacity="1" /><path clip-path="url(#clip700)" d="M2565.49 21.486 L2565.49 40.8088 L2588.52 40.8088 L2588.52 49.498 L2565.49 49.498 L2565.49 86.4422 Q2565.49 94.7669 2567.74 97.1366 Q2570.05 99.5064 2577.04 99.5064 L2588.52 99.5064 L2588.52 108.864 L2577.04 108.864 Q2564.09 108.864 2559.17 104.064 Q2554.25 99.2026 2554.25 86.4422 L2554.25 49.498 L2546.05 49.498 L2546.05 40.8088 L2554.25 40.8088 L2554.25 21.486 L2565.49 21.486 Z" fill="#000000" fill-rule="nonzero" fill-opacity="1" /><path clip-path="url(#clip700)" d="M2661.44 72.0413 L2661.44 77.51 L2610.03 77.51 Q2610.76 89.0551 2616.96 95.1314 Q2623.22 101.147 2634.34 101.147 Q2640.78 101.147 2646.79 99.5672 Q2652.87 97.9873 2658.82 94.8276 L2658.82 105.4 Q2652.81 107.953 2646.49 109.289 Q2640.17 110.626 2633.67 110.626 Q2617.38 110.626 2607.84 101.147 Q2598.36 91.6679 2598.36 75.5048 Q2598.36 58.7948 2607.36 49.0119 Q2616.41 39.1682 2631.72 39.1682 Q2645.46 39.1682 2653.42 48.0397 Q2661.44 56.8504 2661.44 72.0413 M2650.26 68.76 Q2650.13 59.5848 2645.09 54.116 Q2640.11 48.6473 2631.84 48.6473 Q2622.49 48.6473 2616.84 53.9337 Q2611.25 59.2202 2610.39 68.8208 L2650.26 68.76 Z" fill="#000000" fill-rule="nonzero" fill-opacity="1" /><path clip-path="url(#clip700)" d="M2728.76 43.4216 L2728.76 53.873 Q2724.02 51.2601 2719.22 49.9841 Q2714.48 48.6473 2709.62 48.6473 Q2698.74 48.6473 2692.73 55.5744 Q2686.71 62.4406 2686.71 74.8972 Q2686.71 87.3537 2692.73 94.2807 Q2698.74 101.147 2709.62 101.147 Q2714.48 101.147 2719.22 99.871 Q2724.02 98.5342 2728.76 95.9214 L2728.76 106.251 Q2724.08 108.439 2719.04 109.532 Q2714.06 110.626 2708.41 110.626 Q2693.03 110.626 2683.98 100.965 Q2674.93 91.3033 2674.93 74.8972 Q2674.93 58.248 2684.04 48.7081 Q2693.22 39.1682 2709.14 39.1682 Q2714.3 39.1682 2719.22 40.2619 Q2724.14 41.2949 2728.76 43.4216 Z" fill="#000000" fill-rule="nonzero" fill-opacity="1" /><path clip-path="url(#clip700)" d="M2804.78 67.7878 L2804.78 108.864 L2793.6 108.864 L2793.6 68.1524 Q2793.6 58.491 2789.83 53.6907 Q2786.06 48.8904 2778.53 48.8904 Q2769.47 48.8904 2764.25 54.6629 Q2759.02 60.4354 2759.02 70.4007 L2759.02 108.864 L2747.78 108.864 L2747.78 14.3159 L2759.02 14.3159 L2759.02 51.3817 Q2763.03 45.2445 2768.44 42.2064 Q2773.91 39.1682 2781.02 39.1682 Q2792.75 39.1682 2798.76 46.4598 Q2804.78 53.6907 2804.78 67.7878 Z" fill="#000000" fill-rule="nonzero" fill-opacity="1" /><path clip-path="url(#clip700)" d="M2883.65 67.7878 L2883.65 108.864 L2872.47 108.864 L2872.47 68.1524 Q2872.47 58.491 2868.7 53.6907 Q2864.93 48.8904 2857.4 48.8904 Q2848.34 48.8904 2843.12 54.6629 Q2837.89 60.4354 2837.89 70.4007 L2837.89 108.864 L2826.65 108.864 L2826.65 40.8088 L2837.89 40.8088 L2837.89 51.3817 Q2841.9 45.2445 2847.31 42.2064 Q2852.78 39.1682 2859.89 39.1682 Q2871.62 39.1682 2877.63 46.4598 Q2883.65 53.6907 2883.65 67.7878 Z" fill="#000000" fill-rule="nonzero" fill-opacity="1" /><path clip-path="url(#clip700)" d="M2932.32 48.6473 Q2923.33 48.6473 2918.1 55.6959 Q2912.88 62.6837 2912.88 74.8972 Q2912.88 87.1106 2918.04 94.1592 Q2923.27 101.147 2932.32 101.147 Q2941.25 101.147 2946.48 94.0985 Q2951.7 87.0499 2951.7 74.8972 Q2951.7 62.8052 2946.48 55.7566 Q2941.25 48.6473 2932.32 48.6473 M2932.32 39.1682 Q2946.9 39.1682 2955.23 48.6473 Q2963.55 58.1264 2963.55 74.8972 Q2963.55 91.6071 2955.23 101.147 Q2946.9 110.626 2932.32 110.626 Q2917.68 110.626 2909.35 101.147 Q2901.09 91.6071 2901.09 74.8972 Q2901.09 58.1264 2909.35 48.6473 Q2917.68 39.1682 2932.32 39.1682 Z" fill="#000000" fill-rule="nonzero" fill-opacity="1" /><path clip-path="url(#clip700)" d="M2982.09 14.3159 L2993.27 14.3159 L2993.27 108.864 L2982.09 108.864 L2982.09 14.3159 Z" fill="#000000" fill-rule="nonzero" fill-opacity="1" /><path clip-path="url(#clip700)" d="M3043.03 48.6473 Q3034.04 48.6473 3028.81 55.6959 Q3023.59 62.6837 3023.59 74.8972 Q3023.59 87.1106 3028.75 94.1592 Q3033.98 101.147 3043.03 101.147 Q3051.96 101.147 3057.19 94.0985 Q3062.41 87.0499 3062.41 74.8972 Q3062.41 62.8052 3057.19 55.7566 Q3051.96 48.6473 3043.03 48.6473 M3043.03 39.1682 Q3057.61 39.1682 3065.94 48.6473 Q3074.26 58.1264 3074.26 74.8972 Q3074.26 91.6071 3065.94 101.147 Q3057.61 110.626 3043.03 110.626 Q3028.39 110.626 3020.06 101.147 Q3011.8 91.6071 3011.8 74.8972 Q3011.8 58.1264 3020.06 48.6473 Q3028.39 39.1682 3043.03 39.1682 Z" fill="#000000" fill-rule="nonzero" fill-opacity="1" /><path clip-path="url(#clip700)" d="M3137.58 74.0465 Q3137.58 61.8938 3132.54 55.2098 Q3127.55 48.5258 3118.5 48.5258 Q3109.51 48.5258 3104.46 55.2098 Q3099.48 61.8938 3099.48 74.0465 Q3099.48 86.1384 3104.46 92.8224 Q3109.51 99.5064 3118.5 99.5064 Q3127.55 99.5064 3132.54 92.8224 Q3137.58 86.1384 3137.58 74.0465 M3148.76 100.418 Q3148.76 117.796 3141.04 126.242 Q3133.33 134.749 3117.41 134.749 Q3111.51 134.749 3106.29 133.838 Q3101.06 132.987 3096.14 131.164 L3096.14 120.288 Q3101.06 122.961 3105.86 124.237 Q3110.66 125.513 3115.64 125.513 Q3126.64 125.513 3132.11 119.741 Q3137.58 114.029 3137.58 102.423 L3137.58 96.8936 Q3134.12 102.909 3128.71 105.887 Q3123.3 108.864 3115.77 108.864 Q3103.25 108.864 3095.59 99.3241 Q3087.94 89.7842 3087.94 74.0465 Q3087.94 58.248 3095.59 48.7081 Q3103.25 39.1682 3115.77 39.1682 Q3123.3 39.1682 3128.71 42.1456 Q3134.12 45.123 3137.58 51.1386 L3137.58 40.8088 L3148.76 40.8088 L3148.76 100.418 Z" fill="#000000" fill-rule="nonzero" fill-opacity="1" /><path clip-path="url(#clip700)" d="M3200.11 115.183 Q3195.37 127.336 3190.87 131.043 Q3186.37 134.749 3178.84 134.749 L3169.91 134.749 L3169.91 125.392 L3176.47 125.392 Q3181.09 125.392 3183.64 123.204 Q3186.19 121.017 3189.29 112.874 L3191.29 107.77 L3163.77 40.8088 L3175.62 40.8088 L3196.88 94.0377 L3218.15 40.8088 L3230 40.8088 L3200.11 115.183 Z" fill="#000000" fill-rule="nonzero" fill-opacity="1" /></svg>
