<?xml version="1.0" encoding="utf-8" standalone="no"?>
<!DOCTYPE svg PUBLIC "-//W3C//DTD SVG 1.1//EN"
  "http://www.w3.org/Graphics/SVG/1.1/DTD/svg11.dtd">
<!-- Created with matplotlib (https://matplotlib.org/) -->
<svg height="432pt" version="1.1" viewBox="0 0 576 432" width="576pt" xmlns="http://www.w3.org/2000/svg" xmlns:xlink="http://www.w3.org/1999/xlink">
 <defs>
  <style type="text/css">
*{stroke-linecap:butt;stroke-linejoin:round;}
  </style>
 </defs>
 <g id="figure_1">
  <g id="patch_1">
   <path d="M 0 432 
L 576 432 
L 576 0 
L 0 0 
z
" style="fill:#ffffff;"/>
  </g>
  <g id="axes_1">
   <g id="patch_2">
    <path d="M 72 384.48 
L 518.4 384.48 
L 518.4 51.84 
L 72 51.84 
z
" style="fill:#ffffff;"/>
   </g>
   <g id="PathCollection_1">
    <path clip-path="url(#p52fa920907)" d="M 220.8 191.282046 
L 219.820359 191.207377 
L 217.854601 191.898947 
L 220.180726 192.554705 
L 220.8 192.594507 
L 222.296246 193.483343 
L 227.150414 191.898947 
L 221.27785 191.561613 
M 270.4 357.072742 
L 278.118862 349.465263 
L 270.4 339.458487 
L 260.119709 349.465263 
M 118.755186 349.465263 
L 114.215933 354.677988 
L 121.6 352.40156 
L 127.665694 353.747293 
L 125.609921 349.465263 
L 127.261327 345.468693 
L 121.6 347.286727 
L 110.577746 341.684188 
" style="fill:#48186a;"/>
   </g>
   <g id="PathCollection_2">
    <path clip-path="url(#p52fa920907)" d="M 72 189.442716 
L 104.930251 180.131067 
L 77.472819 156.884211 
L 83.881526 148.496539 
L 72 145.037919 
L 72 156.884211 
M 72 251.360975 
L 93.340781 259.486412 
L 86.901949 244.421053 
L 102.03283 212.618886 
L 72 196.547309 
L 72 244.421053 
M 72 318.607171 
L 104.429993 349.465263 
L 77.033117 380.92691 
L 121.6 367.187421 
L 158.209785 375.309658 
L 145.802066 349.465263 
L 155.769204 325.343778 
L 121.6 336.316605 
L 78.581383 314.450526 
L 86.993095 303.866267 
L 72 310.101701 
L 72 314.450526 
M 253.356309 384.48 
L 220.8 363.847521 
L 208.025195 375.461725 
L 195.682061 384.48 
L 220.8 384.48 
M 403.292611 384.48 
L 377.703423 378.759451 
L 369.6 370.691783 
L 352.998449 372.760263 
L 339.170838 384.48 
L 369.6 384.48 
M 518.4 95.983827 
L 501.844338 86.854737 
L 472.879444 83.974885 
L 468.8 82.750549 
L 446.180103 70.886395 
L 458.612649 86.854737 
L 454.959113 96.625604 
L 468.8 114.251719 
L 476.918843 121.869474 
L 495.488788 138.043467 
L 506.023338 156.884211 
L 518.4 161.118209 
L 518.4 156.884211 
L 518.4 121.869474 
M 221.27785 191.561613 
L 227.150414 191.898947 
L 222.296246 193.483343 
L 220.8 192.594507 
L 220.180726 192.554705 
L 217.854601 191.898947 
L 219.820359 191.207377 
L 220.8 191.282046 
M 260.119709 349.465263 
L 270.4 339.458487 
L 278.118862 349.465263 
L 270.4 357.072742 
M 110.577746 341.684188 
L 121.6 347.286727 
L 127.261327 345.468693 
L 125.609921 349.465263 
L 127.665694 353.747293 
L 121.6 352.40156 
L 114.215933 354.677988 
L 118.755186 349.465263 
M 220.8 166.143826 
L 179.900822 163.026488 
L 171.2 166.08751 
L 139.537855 191.898947 
L 171.2 212.582066 
L 194.945852 219.276251 
L 220.8 220.937961 
L 260.33091 244.421053 
L 270.4 247.643772 
L 275.55416 244.421053 
L 285.972951 208.389354 
L 299.923649 191.898947 
L 320 176.476417 
L 330.213103 156.884211 
L 320 137.016332 
L 301.105845 143.546027 
L 304.084216 156.884211 
L 270.4 179.51869 
L 240.749841 177.815511 
M 270.4 379.383539 
L 300.756317 349.465263 
L 277.749081 319.638553 
L 289.715322 314.450526 
L 275.612922 310.770504 
L 270.4 312.128551 
L 227.007372 279.435789 
L 220.8 270.177561 
L 217.351212 279.435789 
L 203.195888 291.863276 
L 220.8 285.2671 
L 265.923424 314.450526 
L 254.175171 325.904319 
L 229.970237 349.465263 
M 468.8 281.108973 
L 459.097135 314.450526 
L 458.881325 321.452538 
L 468.8 348.262552 
L 506.046185 314.450526 
M 468.8 175.206017 
L 436.409467 179.750057 
L 419.2 185.550237 
L 412.172553 186.937975 
L 413.284978 191.898947 
L 413.494537 238.379462 
L 407.603698 244.421053 
L 404.353006 254.902173 
L 413.806787 279.435789 
L 419.2 281.285729 
L 459.895959 279.435789 
L 465.883186 277.376687 
L 440.539917 244.421053 
L 468.8 222.060704 
L 482.37754 191.898947 
M 335.812301 314.450526 
L 369.6 329.484379 
L 378.749656 320.909655 
L 378.546805 314.450526 
L 369.6 303.072998 
" style="fill:#423f85;"/>
   </g>
   <g id="PathCollection_3">
    <path clip-path="url(#p52fa920907)" d="M 72 145.037919 
L 83.881526 148.496539 
L 77.472819 156.884211 
L 104.930251 180.131067 
L 72 189.442716 
L 72 191.898947 
L 72 196.547309 
L 102.03283 212.618886 
L 86.901949 244.421053 
L 93.340781 259.486412 
L 72 251.360975 
L 72 264.417054 
L 111.445453 279.435789 
L 72 295.840643 
L 72 310.101701 
L 86.993095 303.866267 
L 78.581383 314.450526 
L 121.6 336.316605 
L 155.769204 325.343778 
L 145.802066 349.465263 
L 158.209785 375.309658 
L 121.6 367.187421 
L 77.033117 380.92691 
L 104.429993 349.465263 
L 72 318.607171 
L 72 332.238015 
L 90.104799 349.465263 
L 72 370.256203 
L 72 384.48 
L 113.468939 384.48 
L 121.6 381.973282 
L 132.898663 384.48 
L 171.2 384.48 
L 195.682061 384.48 
L 208.025195 375.461725 
L 220.8 363.847521 
L 253.356309 384.48 
L 270.4 384.48 
L 320 384.48 
L 339.170838 384.48 
L 352.998449 372.760263 
L 369.6 370.691783 
L 377.703423 378.759451 
L 403.292611 384.48 
L 419.2 384.48 
L 468.8 384.48 
L 518.4 384.48 
L 518.4 349.465263 
L 518.4 314.450526 
L 518.4 279.435789 
L 518.4 244.421053 
L 518.4 238.980954 
L 482.599473 229.808605 
L 499.664789 191.898947 
L 474.400725 160.837999 
L 518.4 175.889945 
L 518.4 161.118209 
L 506.023338 156.884211 
L 495.488788 138.043467 
L 476.918843 121.869474 
L 468.8 114.251719 
L 454.959113 96.625604 
L 458.612649 86.854737 
L 446.180103 70.886395 
L 468.8 82.750549 
L 472.879444 83.974885 
L 501.844338 86.854737 
L 518.4 95.983827 
L 518.4 86.854737 
L 518.4 82.193745 
L 480.710707 78.446465 
L 468.8 74.871785 
L 424.888179 51.84 
L 419.2 51.84 
L 408.875694 51.84 
L 414.673039 55.035773 
L 419.2 61.351591 
L 439.056103 86.854737 
L 428.388913 115.382632 
L 433.482699 121.869474 
L 454.656476 146.899699 
L 463.126349 156.884211 
L 419.2 171.688895 
L 396.829303 176.106527 
L 400.370523 191.898947 
L 400.518131 224.638571 
L 381.229268 244.421053 
L 370.585258 278.740254 
L 370.853275 279.435789 
L 419.2 296.019321 
L 447.105575 294.750801 
L 441.372676 314.450526 
L 440.76264 334.243284 
L 446.394188 349.465263 
L 458.177199 376.980916 
L 419.2 370.424497 
L 396.650961 365.383583 
L 380.662092 349.465263 
L 397.219478 333.948284 
L 396.607147 314.450526 
L 369.6 280.105911 
L 367.784968 280.717098 
L 320 288.265284 
L 310.868172 285.882333 
L 270.4 296.424922 
L 247.850572 279.435789 
L 227.586225 249.211736 
L 270.4 262.914738 
L 299.977324 244.421053 
L 304.670949 228.188915 
L 320 210.069227 
L 327.637252 191.898947 
L 329.73984 185.023182 
L 344.408235 156.884211 
L 330.059296 128.970756 
L 324.379937 121.869474 
L 325.304348 118.12491 
L 320 113.308549 
L 283.924685 121.869474 
L 274.844967 125.007364 
L 281.962961 156.884211 
L 270.4 164.654069 
L 260.221832 164.06941 
L 247.940522 156.884211 
L 259.917733 129.269349 
L 220.8 152.023467 
L 182.333086 129.728789 
L 171.2 128.503779 
L 163.878753 156.884211 
L 121.6 187.471605 
L 85.472479 156.884211 
L 101.24884 136.236218 
L 72 127.722108 
M 240.749841 177.815511 
L 270.4 179.51869 
L 304.084216 156.884211 
L 301.105845 143.546027 
L 320 137.016332 
L 330.213103 156.884211 
L 320 176.476417 
L 299.923649 191.898947 
L 285.972951 208.389354 
L 275.55416 244.421053 
L 270.4 247.643772 
L 260.33091 244.421053 
L 220.8 220.937961 
L 194.945852 219.276251 
L 171.2 212.582066 
L 139.537855 191.898947 
L 171.2 166.08751 
L 179.900822 163.026488 
L 220.8 166.143826 
M 229.970237 349.465263 
L 254.175171 325.904319 
L 265.923424 314.450526 
L 220.8 285.2671 
L 203.195888 291.863276 
L 217.351212 279.435789 
L 220.8 270.177561 
L 227.007372 279.435789 
L 270.4 312.128551 
L 275.612922 310.770504 
L 289.715322 314.450526 
L 277.749081 319.638553 
L 300.756317 349.465263 
L 270.4 379.383539 
M 506.046185 314.450526 
L 468.8 348.262552 
L 458.881325 321.452538 
L 459.097135 314.450526 
L 468.8 281.108973 
M 482.37754 191.898947 
L 468.8 222.060704 
L 440.539917 244.421053 
L 465.883186 277.376687 
L 459.895959 279.435789 
L 419.2 281.285729 
L 413.806787 279.435789 
L 404.353006 254.902173 
L 407.603698 244.421053 
L 413.494537 238.379462 
L 413.284978 191.898947 
L 412.172553 186.937975 
L 419.2 185.550237 
L 436.409467 179.750057 
L 468.8 175.206017 
M 369.6 303.072998 
L 378.546805 314.450526 
L 378.749656 320.909655 
L 369.6 329.484379 
L 335.812301 314.450526 
M 121.6 287.477665 
L 155.529831 314.450526 
L 121.6 325.346483 
L 100.163646 314.450526 
M 114.936992 244.421053 
L 121.6 230.416707 
L 161.334873 244.421053 
L 171.2 245.099731 
L 218.105648 246.32311 
L 205.770826 279.435789 
L 171.2 309.786806 
L 126.076141 279.435789 
L 121.6 260.010931 
M 171.2 360.308551 
L 165.994211 349.465263 
L 171.2 336.866725 
L 184.608963 349.465263 
L 178.748023 354.793732 
M 195.171243 314.450526 
L 220.8 304.847554 
L 235.648119 314.450526 
L 220.8 328.926489 
" style="fill:#33638d;"/>
   </g>
   <g id="PathCollection_4">
    <path clip-path="url(#p52fa920907)" d="M 206.056869 51.84 
L 212.568308 57.651099 
L 220.8 60.8054 
L 245.787895 51.84 
L 220.8 51.84 
M 72 127.722108 
L 101.24884 136.236218 
L 85.472479 156.884211 
L 121.6 187.471605 
L 163.878753 156.884211 
L 171.2 128.503779 
L 182.333086 129.728789 
L 220.8 152.023467 
L 259.917733 129.269349 
L 247.940522 156.884211 
L 260.221832 164.06941 
L 270.4 164.654069 
L 281.962961 156.884211 
L 274.844967 125.007364 
L 283.924685 121.869474 
L 320 113.308549 
L 325.304348 118.12491 
L 324.379937 121.869474 
L 330.059296 128.970756 
L 344.408235 156.884211 
L 329.73984 185.023182 
L 327.637252 191.898947 
L 320 210.069227 
L 304.670949 228.188915 
L 299.977324 244.421053 
L 270.4 262.914738 
L 227.586225 249.211736 
L 247.850572 279.435789 
L 270.4 296.424922 
L 310.868172 285.882333 
L 320 288.265284 
L 367.784968 280.717098 
L 369.6 280.105911 
L 396.607147 314.450526 
L 397.219478 333.948284 
L 380.662092 349.465263 
L 396.650961 365.383583 
L 419.2 370.424497 
L 458.177199 376.980916 
L 446.394188 349.465263 
L 440.76264 334.243284 
L 441.372676 314.450526 
L 447.105575 294.750801 
L 419.2 296.019321 
L 370.853275 279.435789 
L 370.585258 278.740254 
L 381.229268 244.421053 
L 400.518131 224.638571 
L 400.370523 191.898947 
L 396.829303 176.106527 
L 419.2 171.688895 
L 463.126349 156.884211 
L 454.656476 146.899699 
L 433.482699 121.869474 
L 428.388913 115.382632 
L 439.056103 86.854737 
L 419.2 61.351591 
L 414.673039 55.035773 
L 408.875694 51.84 
L 381.611064 51.84 
L 402.718153 63.475232 
L 419.2 86.469986 
L 419.499557 86.854737 
L 419.2 87.65586 
L 409.72496 115.180642 
L 411.681299 121.869474 
L 396.491688 137.900231 
L 419.2 153.584734 
L 421.99895 156.884211 
L 419.2 157.827553 
L 381.486053 165.275078 
L 387.456067 191.898947 
L 387.541724 210.897679 
L 369.6 229.298549 
L 325.718368 238.365796 
L 345.249109 191.898947 
L 352.200363 169.16735 
L 358.603367 156.884211 
L 352.339811 144.699514 
L 334.08114 121.869474 
L 337.053045 109.831008 
L 320 94.346801 
L 304.013017 98.140624 
L 300.568314 86.854737 
L 270.4 69.934559 
L 258.461566 86.854737 
L 255.502577 111.352753 
L 259.409874 121.869474 
L 220.8 144.328178 
L 182.050075 121.869474 
L 185.926572 111.473364 
L 171.2 114.998255 
L 150.721348 107.412727 
L 130.216504 121.869474 
L 161.846317 128.472634 
L 154.517036 156.884211 
L 121.6 180.698686 
L 93.472138 156.884211 
L 118.616154 123.975897 
L 111.379879 121.869474 
L 90.001187 109.161675 
L 72 116.847908 
L 72 121.869474 
M 72 277.473133 
L 77.154754 279.435789 
L 72 281.579585 
L 72 295.840643 
L 111.445453 279.435789 
L 72 264.417054 
M 72 345.868858 
L 75.779605 349.465263 
L 72 353.805634 
L 72 370.256203 
L 90.104799 349.465263 
L 72 332.238015 
M 132.898663 384.48 
L 121.6 381.973282 
L 113.468939 384.48 
L 121.6 384.48 
M 518.4 195.537709 
L 515.633134 194.828819 
L 516.952038 191.898947 
L 514.999489 189.498383 
L 518.4 190.661682 
L 518.4 175.889945 
L 474.400725 160.837999 
L 499.664789 191.898947 
L 482.599473 229.808605 
L 518.4 238.980954 
M 518.4 75.886698 
L 488.54197 72.918045 
L 468.8 66.99302 
L 439.909633 51.84 
L 424.888179 51.84 
L 468.8 74.871785 
L 480.710707 78.446465 
L 518.4 82.193745 
M 300.242883 51.84 
L 320 70.174491 
L 326.722066 56.58539 
L 344.6232 51.84 
L 320 51.84 
M 100.163646 314.450526 
L 121.6 325.346483 
L 155.529831 314.450526 
L 121.6 287.477665 
M 121.6 260.010931 
L 126.076141 279.435789 
L 171.2 309.786806 
L 205.770826 279.435789 
L 218.105648 246.32311 
L 171.2 245.099731 
L 161.334873 244.421053 
L 121.6 230.416707 
L 114.936992 244.421053 
M 178.748023 354.793732 
L 184.608963 349.465263 
L 171.2 336.866725 
L 165.994211 349.465263 
L 171.2 360.308551 
M 220.8 328.926489 
L 235.648119 314.450526 
L 220.8 304.847554 
L 195.171243 314.450526 
M 270.4 278.185705 
L 285.895006 268.497209 
L 275.334455 279.435789 
L 270.4 280.721292 
L 268.693771 279.435789 
L 267.160446 277.148852 
M 202.393396 257.415053 
L 194.190439 279.435789 
L 171.2 299.619953 
L 141.191537 279.435789 
L 135.361603 254.13595 
L 171.2 256.601476 
M 409.011764 307.25822 
L 419.2 310.752912 
L 424.798334 310.498426 
L 423.648217 314.450526 
L 422.643955 347.03403 
L 423.543418 349.465263 
L 425.425385 353.860025 
L 419.2 352.812843 
L 415.598498 352.007715 
L 413.044778 349.465263 
L 415.689301 346.986913 
L 414.667489 314.450526 
" style="fill:#26818e;"/>
   </g>
   <g id="PathCollection_5">
    <path clip-path="url(#p52fa920907)" d="M 183.92072 51.84 
L 200.208792 66.376204 
L 220.8 74.266545 
L 257.061269 61.256374 
L 238.999735 86.854737 
L 237.56982 98.693262 
L 246.180522 121.869474 
L 220.8 136.63289 
L 195.327415 121.869474 
L 203.947617 98.751547 
L 171.2 106.58988 
L 125.661428 89.72187 
L 121.6 92.585341 
L 117.193051 89.965788 
L 72 109.262534 
L 72 116.847908 
L 90.001187 109.161675 
L 111.379879 121.869474 
L 118.616154 123.975897 
L 93.472138 156.884211 
L 121.6 180.698686 
L 154.517036 156.884211 
L 161.846317 128.472634 
L 130.216504 121.869474 
L 150.721348 107.412727 
L 171.2 114.998255 
L 185.926572 111.473364 
L 182.050075 121.869474 
L 220.8 144.328178 
L 259.409874 121.869474 
L 255.502577 111.352753 
L 258.461566 86.854737 
L 270.4 69.934559 
L 300.568314 86.854737 
L 304.013017 98.140624 
L 320 94.346801 
L 337.053045 109.831008 
L 334.08114 121.869474 
L 352.339811 144.699514 
L 358.603367 156.884211 
L 352.200363 169.16735 
L 345.249109 191.898947 
L 325.718368 238.365796 
L 369.6 229.298549 
L 387.541724 210.897679 
L 387.456067 191.898947 
L 381.486053 165.275078 
L 419.2 157.827553 
L 421.99895 156.884211 
L 419.2 153.584734 
L 396.491688 137.900231 
L 411.681299 121.869474 
L 409.72496 115.180642 
L 419.2 87.65586 
L 419.499557 86.854737 
L 419.2 86.469986 
L 402.718153 63.475232 
L 381.611064 51.84 
L 369.6 51.84 
L 344.6232 51.84 
L 326.722066 56.58539 
L 320 70.174491 
L 300.242883 51.84 
L 270.4 51.84 
L 245.787895 51.84 
L 220.8 60.8054 
L 212.568308 57.651099 
L 206.056869 51.84 
M 72 55.062888 
L 104.182985 74.559329 
L 121.6 81.112171 
L 150.852125 51.84 
L 121.6 51.84 
L 72 51.84 
M 72 281.579585 
L 77.154754 279.435789 
L 72 277.473133 
L 72 279.435789 
M 72 353.805634 
L 75.779605 349.465263 
L 72 345.868858 
L 72 349.465263 
M 518.4 190.661682 
L 514.999489 189.498383 
L 516.952038 191.898947 
L 515.633134 194.828819 
L 518.4 195.537709 
L 518.4 191.898947 
M 518.4 69.57965 
L 496.373234 67.389625 
L 468.8 59.114256 
L 454.931086 51.84 
L 439.909633 51.84 
L 468.8 66.99302 
L 488.54197 72.918045 
L 518.4 75.886698 
M 267.160446 277.148852 
L 268.693771 279.435789 
L 270.4 280.721292 
L 275.334455 279.435789 
L 285.895006 268.497209 
L 270.4 278.185705 
M 171.2 256.601476 
L 135.361603 254.13595 
L 141.191537 279.435789 
L 171.2 299.619953 
L 194.190439 279.435789 
L 202.393396 257.415053 
M 414.667489 314.450526 
L 415.689301 346.986913 
L 413.044778 349.465263 
L 415.598498 352.007715 
L 419.2 352.812843 
L 425.425385 353.860025 
L 423.543418 349.465263 
L 422.643955 347.03403 
L 423.648217 314.450526 
L 424.798334 310.498426 
L 419.2 310.752912 
L 409.011764 307.25822 
M 101.471798 156.884211 
L 121.6 130.540559 
L 150.400127 136.552983 
L 145.155319 156.884211 
L 121.6 173.925768 
M 186.681144 268.506996 
L 182.610053 279.435789 
L 171.2 289.4531 
L 156.306933 279.435789 
L 153.413563 266.879591 
L 171.2 268.103221 
M 362.860965 191.898947 
L 369.6 169.86134 
L 374.541612 191.898947 
L 374.565317 197.156788 
L 369.6 202.249172 
L 357.455893 204.758505 
M 332.631775 86.854737 
L 342.200007 67.511923 
L 369.6 60.248492 
L 390.763267 71.914692 
L 401.471776 86.854737 
L 395.240779 104.955647 
L 400.18771 121.869474 
L 369.6 154.151021 
L 343.782342 121.869474 
L 348.801742 101.537106 
" style="fill:#1fa088;"/>
   </g>
   <g id="PathCollection_6">
    <path clip-path="url(#p52fa920907)" d="M 150.852125 51.84 
L 121.6 81.112171 
L 104.182985 74.559329 
L 72 55.062888 
L 72 65.824904 
L 106.71417 86.854737 
L 72 101.677159 
L 72 109.262534 
L 117.193051 89.965788 
L 121.6 92.585341 
L 125.661428 89.72187 
L 171.2 106.58988 
L 203.947617 98.751547 
L 195.327415 121.869474 
L 220.8 136.63289 
L 246.180522 121.869474 
L 237.56982 98.693262 
L 238.999735 86.854737 
L 257.061269 61.256374 
L 220.8 74.266545 
L 200.208792 66.376204 
L 183.92072 51.84 
L 171.2 51.84 
M 518.4 63.272602 
L 504.204497 61.861206 
L 470.8142 51.84 
L 468.8 51.84 
L 454.931086 51.84 
L 468.8 59.114256 
L 496.373234 67.389625 
L 518.4 69.57965 
M 121.6 173.925768 
L 145.155319 156.884211 
L 150.400127 136.552983 
L 121.6 130.540559 
L 101.471798 156.884211 
M 171.2 268.103221 
L 153.413563 266.879591 
L 156.306933 279.435789 
L 171.2 289.4531 
L 182.610053 279.435789 
L 186.681144 268.506996 
M 357.455893 204.758505 
L 369.6 202.249172 
L 374.565317 197.156788 
L 374.541612 191.898947 
L 369.6 169.86134 
L 362.860965 191.898947 
M 348.801742 101.537106 
L 343.782342 121.869474 
L 369.6 154.151021 
L 400.18771 121.869474 
L 395.240779 104.955647 
L 401.471776 86.854737 
L 390.763267 71.914692 
L 369.6 60.248492 
L 342.200007 67.511923 
L 332.631775 86.854737 
M 187.849277 75.101308 
L 218.521879 86.854737 
L 171.2 98.181505 
L 140.62112 86.854737 
L 171.2 60.24275 
M 109.471458 156.884211 
L 121.6 141.010458 
L 138.953937 144.633332 
L 135.793601 156.884211 
L 121.6 167.15285 
M 232.951169 121.869474 
L 220.8 128.937602 
L 208.604754 121.869474 
L 220.8 89.163882 
M 353.514701 86.854737 
L 357.677948 78.438456 
L 369.6 75.278054 
L 378.808381 80.354152 
L 383.467776 86.854737 
L 380.756598 94.730651 
L 388.69412 121.869474 
L 369.6 142.020957 
L 353.483545 121.869474 
L 360.550439 93.243205 
" style="fill:#3fbc73;"/>
   </g>
   <g id="PathCollection_7">
    <path clip-path="url(#p52fa920907)" d="M 72 76.58692 
L 88.949195 86.854737 
L 72 94.091785 
L 72 101.677159 
L 106.71417 86.854737 
L 72 65.824904 
M 518.4 56.965554 
L 512.03576 56.332786 
L 497.06596 51.84 
L 470.8142 51.84 
L 504.204497 61.861206 
L 518.4 63.272602 
M 171.2 60.24275 
L 140.62112 86.854737 
L 171.2 98.181505 
L 218.521879 86.854737 
L 187.849277 75.101308 
M 121.6 167.15285 
L 135.793601 156.884211 
L 138.953937 144.633332 
L 121.6 141.010458 
L 109.471458 156.884211 
M 220.8 89.163882 
L 208.604754 121.869474 
L 220.8 128.937602 
L 232.951169 121.869474 
M 360.550439 93.243205 
L 353.483545 121.869474 
L 369.6 142.020957 
L 388.69412 121.869474 
L 380.756598 94.730651 
L 383.467776 86.854737 
L 378.808381 80.354152 
L 369.6 75.278054 
L 357.677948 78.438456 
L 353.514701 86.854737 
M 175.489761 83.826413 
L 183.392696 86.854737 
L 171.2 89.77313 
L 163.321214 86.854737 
L 171.2 79.998038 
M 117.471118 156.884211 
L 121.6 151.480358 
L 127.507748 152.713682 
L 126.431884 156.884211 
L 121.6 160.379932 
M 369.6 95.882845 
L 377.20053 121.869474 
L 369.6 129.890894 
L 363.184747 121.869474 
" style="fill:#84d44b;"/>
   </g>
   <g id="PathCollection_8">
    <path clip-path="url(#p52fa920907)" d="M 72 94.091785 
L 88.949195 86.854737 
L 72 76.58692 
L 72 86.854737 
M 497.06596 51.84 
L 512.03576 56.332786 
L 518.4 56.965554 
L 518.4 51.84 
M 171.2 79.998038 
L 163.321214 86.854737 
L 171.2 89.77313 
L 183.392696 86.854737 
L 175.489761 83.826413 
M 121.6 160.379932 
L 126.431884 156.884211 
L 127.507748 152.713682 
L 121.6 151.480358 
L 117.471118 156.884211 
M 363.184747 121.869474 
L 369.6 129.890894 
L 377.20053 121.869474 
L 369.6 95.882845 
" style="fill:#d8e219;"/>
   </g>
   <g id="matplotlib.axis_1">
    <g id="xtick_1">
     <g id="line2d_1">
      <defs>
       <path d="M 0 0 
L 0 3.5 
" id="m1bb1ffa472" style="stroke:#000000;stroke-width:0.8;"/>
      </defs>
      <g>
       <use style="stroke:#000000;stroke-width:0.8;" x="72" xlink:href="#m1bb1ffa472" y="384.48"/>
      </g>
     </g>
     <g id="text_1">
      <!-- 0.5 -->
      <defs>
       <path d="M 31.78125 66.40625 
Q 24.171875 66.40625 20.328125 58.90625 
Q 16.5 51.421875 16.5 36.375 
Q 16.5 21.390625 20.328125 13.890625 
Q 24.171875 6.390625 31.78125 6.390625 
Q 39.453125 6.390625 43.28125 13.890625 
Q 47.125 21.390625 47.125 36.375 
Q 47.125 51.421875 43.28125 58.90625 
Q 39.453125 66.40625 31.78125 66.40625 
z
M 31.78125 74.21875 
Q 44.046875 74.21875 50.515625 64.515625 
Q 56.984375 54.828125 56.984375 36.375 
Q 56.984375 17.96875 50.515625 8.265625 
Q 44.046875 -1.421875 31.78125 -1.421875 
Q 19.53125 -1.421875 13.0625 8.265625 
Q 6.59375 17.96875 6.59375 36.375 
Q 6.59375 54.828125 13.0625 64.515625 
Q 19.53125 74.21875 31.78125 74.21875 
z
" id="DejaVuSans-48"/>
       <path d="M 10.6875 12.40625 
L 21 12.40625 
L 21 0 
L 10.6875 0 
z
" id="DejaVuSans-46"/>
       <path d="M 10.796875 72.90625 
L 49.515625 72.90625 
L 49.515625 64.59375 
L 19.828125 64.59375 
L 19.828125 46.734375 
Q 21.96875 47.46875 24.109375 47.828125 
Q 26.265625 48.1875 28.421875 48.1875 
Q 40.625 48.1875 47.75 41.5 
Q 54.890625 34.8125 54.890625 23.390625 
Q 54.890625 11.625 47.5625 5.09375 
Q 40.234375 -1.421875 26.90625 -1.421875 
Q 22.3125 -1.421875 17.546875 -0.640625 
Q 12.796875 0.140625 7.71875 1.703125 
L 7.71875 11.625 
Q 12.109375 9.234375 16.796875 8.0625 
Q 21.484375 6.890625 26.703125 6.890625 
Q 35.15625 6.890625 40.078125 11.328125 
Q 45.015625 15.765625 45.015625 23.390625 
Q 45.015625 31 40.078125 35.4375 
Q 35.15625 39.890625 26.703125 39.890625 
Q 22.75 39.890625 18.8125 39.015625 
Q 14.890625 38.140625 10.796875 36.28125 
z
" id="DejaVuSans-53"/>
      </defs>
      <g transform="translate(62.458125 400.598125)scale(0.12 -0.12)">
       <use xlink:href="#DejaVuSans-48"/>
       <use x="63.623047" xlink:href="#DejaVuSans-46"/>
       <use x="95.410156" xlink:href="#DejaVuSans-53"/>
      </g>
     </g>
    </g>
    <g id="xtick_2">
     <g id="line2d_2">
      <g>
       <use style="stroke:#000000;stroke-width:0.8;" x="161.28" xlink:href="#m1bb1ffa472" y="384.48"/>
      </g>
     </g>
     <g id="text_2">
      <!-- 0.6 -->
      <defs>
       <path d="M 33.015625 40.375 
Q 26.375 40.375 22.484375 35.828125 
Q 18.609375 31.296875 18.609375 23.390625 
Q 18.609375 15.53125 22.484375 10.953125 
Q 26.375 6.390625 33.015625 6.390625 
Q 39.65625 6.390625 43.53125 10.953125 
Q 47.40625 15.53125 47.40625 23.390625 
Q 47.40625 31.296875 43.53125 35.828125 
Q 39.65625 40.375 33.015625 40.375 
z
M 52.59375 71.296875 
L 52.59375 62.3125 
Q 48.875 64.0625 45.09375 64.984375 
Q 41.3125 65.921875 37.59375 65.921875 
Q 27.828125 65.921875 22.671875 59.328125 
Q 17.53125 52.734375 16.796875 39.40625 
Q 19.671875 43.65625 24.015625 45.921875 
Q 28.375 48.1875 33.59375 48.1875 
Q 44.578125 48.1875 50.953125 41.515625 
Q 57.328125 34.859375 57.328125 23.390625 
Q 57.328125 12.15625 50.6875 5.359375 
Q 44.046875 -1.421875 33.015625 -1.421875 
Q 20.359375 -1.421875 13.671875 8.265625 
Q 6.984375 17.96875 6.984375 36.375 
Q 6.984375 53.65625 15.1875 63.9375 
Q 23.390625 74.21875 37.203125 74.21875 
Q 40.921875 74.21875 44.703125 73.484375 
Q 48.484375 72.75 52.59375 71.296875 
z
" id="DejaVuSans-54"/>
      </defs>
      <g transform="translate(151.738125 400.598125)scale(0.12 -0.12)">
       <use xlink:href="#DejaVuSans-48"/>
       <use x="63.623047" xlink:href="#DejaVuSans-46"/>
       <use x="95.410156" xlink:href="#DejaVuSans-54"/>
      </g>
     </g>
    </g>
    <g id="xtick_3">
     <g id="line2d_3">
      <g>
       <use style="stroke:#000000;stroke-width:0.8;" x="250.56" xlink:href="#m1bb1ffa472" y="384.48"/>
      </g>
     </g>
     <g id="text_3">
      <!-- 0.7 -->
      <defs>
       <path d="M 8.203125 72.90625 
L 55.078125 72.90625 
L 55.078125 68.703125 
L 28.609375 0 
L 18.3125 0 
L 43.21875 64.59375 
L 8.203125 64.59375 
z
" id="DejaVuSans-55"/>
      </defs>
      <g transform="translate(241.018125 400.598125)scale(0.12 -0.12)">
       <use xlink:href="#DejaVuSans-48"/>
       <use x="63.623047" xlink:href="#DejaVuSans-46"/>
       <use x="95.410156" xlink:href="#DejaVuSans-55"/>
      </g>
     </g>
    </g>
    <g id="xtick_4">
     <g id="line2d_4">
      <g>
       <use style="stroke:#000000;stroke-width:0.8;" x="339.84" xlink:href="#m1bb1ffa472" y="384.48"/>
      </g>
     </g>
     <g id="text_4">
      <!-- 0.8 -->
      <defs>
       <path d="M 31.78125 34.625 
Q 24.75 34.625 20.71875 30.859375 
Q 16.703125 27.09375 16.703125 20.515625 
Q 16.703125 13.921875 20.71875 10.15625 
Q 24.75 6.390625 31.78125 6.390625 
Q 38.8125 6.390625 42.859375 10.171875 
Q 46.921875 13.96875 46.921875 20.515625 
Q 46.921875 27.09375 42.890625 30.859375 
Q 38.875 34.625 31.78125 34.625 
z
M 21.921875 38.8125 
Q 15.578125 40.375 12.03125 44.71875 
Q 8.5 49.078125 8.5 55.328125 
Q 8.5 64.0625 14.71875 69.140625 
Q 20.953125 74.21875 31.78125 74.21875 
Q 42.671875 74.21875 48.875 69.140625 
Q 55.078125 64.0625 55.078125 55.328125 
Q 55.078125 49.078125 51.53125 44.71875 
Q 48 40.375 41.703125 38.8125 
Q 48.828125 37.15625 52.796875 32.3125 
Q 56.78125 27.484375 56.78125 20.515625 
Q 56.78125 9.90625 50.3125 4.234375 
Q 43.84375 -1.421875 31.78125 -1.421875 
Q 19.734375 -1.421875 13.25 4.234375 
Q 6.78125 9.90625 6.78125 20.515625 
Q 6.78125 27.484375 10.78125 32.3125 
Q 14.796875 37.15625 21.921875 38.8125 
z
M 18.3125 54.390625 
Q 18.3125 48.734375 21.84375 45.5625 
Q 25.390625 42.390625 31.78125 42.390625 
Q 38.140625 42.390625 41.71875 45.5625 
Q 45.3125 48.734375 45.3125 54.390625 
Q 45.3125 60.0625 41.71875 63.234375 
Q 38.140625 66.40625 31.78125 66.40625 
Q 25.390625 66.40625 21.84375 63.234375 
Q 18.3125 60.0625 18.3125 54.390625 
z
" id="DejaVuSans-56"/>
      </defs>
      <g transform="translate(330.298125 400.598125)scale(0.12 -0.12)">
       <use xlink:href="#DejaVuSans-48"/>
       <use x="63.623047" xlink:href="#DejaVuSans-46"/>
       <use x="95.410156" xlink:href="#DejaVuSans-56"/>
      </g>
     </g>
    </g>
    <g id="xtick_5">
     <g id="line2d_5">
      <g>
       <use style="stroke:#000000;stroke-width:0.8;" x="429.12" xlink:href="#m1bb1ffa472" y="384.48"/>
      </g>
     </g>
     <g id="text_5">
      <!-- 0.9 -->
      <defs>
       <path d="M 10.984375 1.515625 
L 10.984375 10.5 
Q 14.703125 8.734375 18.5 7.8125 
Q 22.3125 6.890625 25.984375 6.890625 
Q 35.75 6.890625 40.890625 13.453125 
Q 46.046875 20.015625 46.78125 33.40625 
Q 43.953125 29.203125 39.59375 26.953125 
Q 35.25 24.703125 29.984375 24.703125 
Q 19.046875 24.703125 12.671875 31.3125 
Q 6.296875 37.9375 6.296875 49.421875 
Q 6.296875 60.640625 12.9375 67.421875 
Q 19.578125 74.21875 30.609375 74.21875 
Q 43.265625 74.21875 49.921875 64.515625 
Q 56.59375 54.828125 56.59375 36.375 
Q 56.59375 19.140625 48.40625 8.859375 
Q 40.234375 -1.421875 26.421875 -1.421875 
Q 22.703125 -1.421875 18.890625 -0.6875 
Q 15.09375 0.046875 10.984375 1.515625 
z
M 30.609375 32.421875 
Q 37.25 32.421875 41.125 36.953125 
Q 45.015625 41.5 45.015625 49.421875 
Q 45.015625 57.28125 41.125 61.84375 
Q 37.25 66.40625 30.609375 66.40625 
Q 23.96875 66.40625 20.09375 61.84375 
Q 16.21875 57.28125 16.21875 49.421875 
Q 16.21875 41.5 20.09375 36.953125 
Q 23.96875 32.421875 30.609375 32.421875 
z
" id="DejaVuSans-57"/>
      </defs>
      <g transform="translate(419.578125 400.598125)scale(0.12 -0.12)">
       <use xlink:href="#DejaVuSans-48"/>
       <use x="63.623047" xlink:href="#DejaVuSans-46"/>
       <use x="95.410156" xlink:href="#DejaVuSans-57"/>
      </g>
     </g>
    </g>
    <g id="xtick_6">
     <g id="line2d_6">
      <g>
       <use style="stroke:#000000;stroke-width:0.8;" x="518.4" xlink:href="#m1bb1ffa472" y="384.48"/>
      </g>
     </g>
     <g id="text_6">
      <!-- 1.0 -->
      <defs>
       <path d="M 12.40625 8.296875 
L 28.515625 8.296875 
L 28.515625 63.921875 
L 10.984375 60.40625 
L 10.984375 69.390625 
L 28.421875 72.90625 
L 38.28125 72.90625 
L 38.28125 8.296875 
L 54.390625 8.296875 
L 54.390625 0 
L 12.40625 0 
z
" id="DejaVuSans-49"/>
      </defs>
      <g transform="translate(508.858125 400.598125)scale(0.12 -0.12)">
       <use xlink:href="#DejaVuSans-49"/>
       <use x="63.623047" xlink:href="#DejaVuSans-46"/>
       <use x="95.410156" xlink:href="#DejaVuSans-48"/>
      </g>
     </g>
    </g>
    <g id="text_7">
     <!-- Bagging fraction -->
     <defs>
      <path d="M 19.671875 34.8125 
L 19.671875 8.109375 
L 35.5 8.109375 
Q 43.453125 8.109375 47.28125 11.40625 
Q 51.125 14.703125 51.125 21.484375 
Q 51.125 28.328125 47.28125 31.5625 
Q 43.453125 34.8125 35.5 34.8125 
z
M 19.671875 64.796875 
L 19.671875 42.828125 
L 34.28125 42.828125 
Q 41.5 42.828125 45.03125 45.53125 
Q 48.578125 48.25 48.578125 53.8125 
Q 48.578125 59.328125 45.03125 62.0625 
Q 41.5 64.796875 34.28125 64.796875 
z
M 9.8125 72.90625 
L 35.015625 72.90625 
Q 46.296875 72.90625 52.390625 68.21875 
Q 58.5 63.53125 58.5 54.890625 
Q 58.5 48.1875 55.375 44.234375 
Q 52.25 40.28125 46.1875 39.3125 
Q 53.46875 37.75 57.5 32.78125 
Q 61.53125 27.828125 61.53125 20.40625 
Q 61.53125 10.640625 54.890625 5.3125 
Q 48.25 0 35.984375 0 
L 9.8125 0 
z
" id="DejaVuSans-66"/>
      <path d="M 34.28125 27.484375 
Q 23.390625 27.484375 19.1875 25 
Q 14.984375 22.515625 14.984375 16.5 
Q 14.984375 11.71875 18.140625 8.90625 
Q 21.296875 6.109375 26.703125 6.109375 
Q 34.1875 6.109375 38.703125 11.40625 
Q 43.21875 16.703125 43.21875 25.484375 
L 43.21875 27.484375 
z
M 52.203125 31.203125 
L 52.203125 0 
L 43.21875 0 
L 43.21875 8.296875 
Q 40.140625 3.328125 35.546875 0.953125 
Q 30.953125 -1.421875 24.3125 -1.421875 
Q 15.921875 -1.421875 10.953125 3.296875 
Q 6 8.015625 6 15.921875 
Q 6 25.140625 12.171875 29.828125 
Q 18.359375 34.515625 30.609375 34.515625 
L 43.21875 34.515625 
L 43.21875 35.40625 
Q 43.21875 41.609375 39.140625 45 
Q 35.0625 48.390625 27.6875 48.390625 
Q 23 48.390625 18.546875 47.265625 
Q 14.109375 46.140625 10.015625 43.890625 
L 10.015625 52.203125 
Q 14.9375 54.109375 19.578125 55.046875 
Q 24.21875 56 28.609375 56 
Q 40.484375 56 46.34375 49.84375 
Q 52.203125 43.703125 52.203125 31.203125 
z
" id="DejaVuSans-97"/>
      <path d="M 45.40625 27.984375 
Q 45.40625 37.75 41.375 43.109375 
Q 37.359375 48.484375 30.078125 48.484375 
Q 22.859375 48.484375 18.828125 43.109375 
Q 14.796875 37.75 14.796875 27.984375 
Q 14.796875 18.265625 18.828125 12.890625 
Q 22.859375 7.515625 30.078125 7.515625 
Q 37.359375 7.515625 41.375 12.890625 
Q 45.40625 18.265625 45.40625 27.984375 
z
M 54.390625 6.78125 
Q 54.390625 -7.171875 48.1875 -13.984375 
Q 42 -20.796875 29.203125 -20.796875 
Q 24.46875 -20.796875 20.265625 -20.09375 
Q 16.0625 -19.390625 12.109375 -17.921875 
L 12.109375 -9.1875 
Q 16.0625 -11.328125 19.921875 -12.34375 
Q 23.78125 -13.375 27.78125 -13.375 
Q 36.625 -13.375 41.015625 -8.765625 
Q 45.40625 -4.15625 45.40625 5.171875 
L 45.40625 9.625 
Q 42.625 4.78125 38.28125 2.390625 
Q 33.9375 0 27.875 0 
Q 17.828125 0 11.671875 7.65625 
Q 5.515625 15.328125 5.515625 27.984375 
Q 5.515625 40.671875 11.671875 48.328125 
Q 17.828125 56 27.875 56 
Q 33.9375 56 38.28125 53.609375 
Q 42.625 51.21875 45.40625 46.390625 
L 45.40625 54.6875 
L 54.390625 54.6875 
z
" id="DejaVuSans-103"/>
      <path d="M 9.421875 54.6875 
L 18.40625 54.6875 
L 18.40625 0 
L 9.421875 0 
z
M 9.421875 75.984375 
L 18.40625 75.984375 
L 18.40625 64.59375 
L 9.421875 64.59375 
z
" id="DejaVuSans-105"/>
      <path d="M 54.890625 33.015625 
L 54.890625 0 
L 45.90625 0 
L 45.90625 32.71875 
Q 45.90625 40.484375 42.875 44.328125 
Q 39.84375 48.1875 33.796875 48.1875 
Q 26.515625 48.1875 22.3125 43.546875 
Q 18.109375 38.921875 18.109375 30.90625 
L 18.109375 0 
L 9.078125 0 
L 9.078125 54.6875 
L 18.109375 54.6875 
L 18.109375 46.1875 
Q 21.34375 51.125 25.703125 53.5625 
Q 30.078125 56 35.796875 56 
Q 45.21875 56 50.046875 50.171875 
Q 54.890625 44.34375 54.890625 33.015625 
z
" id="DejaVuSans-110"/>
      <path id="DejaVuSans-32"/>
      <path d="M 37.109375 75.984375 
L 37.109375 68.5 
L 28.515625 68.5 
Q 23.6875 68.5 21.796875 66.546875 
Q 19.921875 64.59375 19.921875 59.515625 
L 19.921875 54.6875 
L 34.71875 54.6875 
L 34.71875 47.703125 
L 19.921875 47.703125 
L 19.921875 0 
L 10.890625 0 
L 10.890625 47.703125 
L 2.296875 47.703125 
L 2.296875 54.6875 
L 10.890625 54.6875 
L 10.890625 58.5 
Q 10.890625 67.625 15.140625 71.796875 
Q 19.390625 75.984375 28.609375 75.984375 
z
" id="DejaVuSans-102"/>
      <path d="M 41.109375 46.296875 
Q 39.59375 47.171875 37.8125 47.578125 
Q 36.03125 48 33.890625 48 
Q 26.265625 48 22.1875 43.046875 
Q 18.109375 38.09375 18.109375 28.8125 
L 18.109375 0 
L 9.078125 0 
L 9.078125 54.6875 
L 18.109375 54.6875 
L 18.109375 46.1875 
Q 20.953125 51.171875 25.484375 53.578125 
Q 30.03125 56 36.53125 56 
Q 37.453125 56 38.578125 55.875 
Q 39.703125 55.765625 41.0625 55.515625 
z
" id="DejaVuSans-114"/>
      <path d="M 48.78125 52.59375 
L 48.78125 44.1875 
Q 44.96875 46.296875 41.140625 47.34375 
Q 37.3125 48.390625 33.40625 48.390625 
Q 24.65625 48.390625 19.8125 42.84375 
Q 14.984375 37.3125 14.984375 27.296875 
Q 14.984375 17.28125 19.8125 11.734375 
Q 24.65625 6.203125 33.40625 6.203125 
Q 37.3125 6.203125 41.140625 7.25 
Q 44.96875 8.296875 48.78125 10.40625 
L 48.78125 2.09375 
Q 45.015625 0.34375 40.984375 -0.53125 
Q 36.96875 -1.421875 32.421875 -1.421875 
Q 20.0625 -1.421875 12.78125 6.34375 
Q 5.515625 14.109375 5.515625 27.296875 
Q 5.515625 40.671875 12.859375 48.328125 
Q 20.21875 56 33.015625 56 
Q 37.15625 56 41.109375 55.140625 
Q 45.0625 54.296875 48.78125 52.59375 
z
" id="DejaVuSans-99"/>
      <path d="M 18.3125 70.21875 
L 18.3125 54.6875 
L 36.8125 54.6875 
L 36.8125 47.703125 
L 18.3125 47.703125 
L 18.3125 18.015625 
Q 18.3125 11.328125 20.140625 9.421875 
Q 21.96875 7.515625 27.59375 7.515625 
L 36.8125 7.515625 
L 36.8125 0 
L 27.59375 0 
Q 17.1875 0 13.234375 3.875 
Q 9.28125 7.765625 9.28125 18.015625 
L 9.28125 47.703125 
L 2.6875 47.703125 
L 2.6875 54.6875 
L 9.28125 54.6875 
L 9.28125 70.21875 
z
" id="DejaVuSans-116"/>
      <path d="M 30.609375 48.390625 
Q 23.390625 48.390625 19.1875 42.75 
Q 14.984375 37.109375 14.984375 27.296875 
Q 14.984375 17.484375 19.15625 11.84375 
Q 23.34375 6.203125 30.609375 6.203125 
Q 37.796875 6.203125 41.984375 11.859375 
Q 46.1875 17.53125 46.1875 27.296875 
Q 46.1875 37.015625 41.984375 42.703125 
Q 37.796875 48.390625 30.609375 48.390625 
z
M 30.609375 56 
Q 42.328125 56 49.015625 48.375 
Q 55.71875 40.765625 55.71875 27.296875 
Q 55.71875 13.875 49.015625 6.21875 
Q 42.328125 -1.421875 30.609375 -1.421875 
Q 18.84375 -1.421875 12.171875 6.21875 
Q 5.515625 13.875 5.515625 27.296875 
Q 5.515625 40.765625 12.171875 48.375 
Q 18.84375 56 30.609375 56 
z
" id="DejaVuSans-111"/>
     </defs>
     <g transform="translate(237.281562 417.731562)scale(0.14 -0.14)">
      <use xlink:href="#DejaVuSans-66"/>
      <use x="68.603516" xlink:href="#DejaVuSans-97"/>
      <use x="129.882812" xlink:href="#DejaVuSans-103"/>
      <use x="193.359375" xlink:href="#DejaVuSans-103"/>
      <use x="256.835938" xlink:href="#DejaVuSans-105"/>
      <use x="284.619141" xlink:href="#DejaVuSans-110"/>
      <use x="347.998047" xlink:href="#DejaVuSans-103"/>
      <use x="411.474609" xlink:href="#DejaVuSans-32"/>
      <use x="443.261719" xlink:href="#DejaVuSans-102"/>
      <use x="478.466797" xlink:href="#DejaVuSans-114"/>
      <use x="519.580078" xlink:href="#DejaVuSans-97"/>
      <use x="580.859375" xlink:href="#DejaVuSans-99"/>
      <use x="635.839844" xlink:href="#DejaVuSans-116"/>
      <use x="675.048828" xlink:href="#DejaVuSans-105"/>
      <use x="702.832031" xlink:href="#DejaVuSans-111"/>
      <use x="764.013672" xlink:href="#DejaVuSans-110"/>
     </g>
    </g>
   </g>
   <g id="matplotlib.axis_2">
    <g id="ytick_1">
     <g id="line2d_7">
      <defs>
       <path d="M 0 0 
L -3.5 0 
" id="ma2e1b102a2" style="stroke:#000000;stroke-width:0.8;"/>
      </defs>
      <g>
       <use style="stroke:#000000;stroke-width:0.8;" x="72" xlink:href="#ma2e1b102a2" y="384.48"/>
      </g>
     </g>
     <g id="text_8">
      <!-- 1 -->
      <g transform="translate(57.365 389.039062)scale(0.12 -0.12)">
       <use xlink:href="#DejaVuSans-49"/>
      </g>
     </g>
    </g>
    <g id="ytick_2">
     <g id="line2d_8">
      <g>
       <use style="stroke:#000000;stroke-width:0.8;" x="72" xlink:href="#ma2e1b102a2" y="314.450526"/>
      </g>
     </g>
     <g id="text_9">
      <!-- 5 -->
      <g transform="translate(57.365 319.009589)scale(0.12 -0.12)">
       <use xlink:href="#DejaVuSans-53"/>
      </g>
     </g>
    </g>
    <g id="ytick_3">
     <g id="line2d_9">
      <g>
       <use style="stroke:#000000;stroke-width:0.8;" x="72" xlink:href="#ma2e1b102a2" y="226.913684"/>
      </g>
     </g>
     <g id="text_10">
      <!-- 10 -->
      <g transform="translate(49.73 231.472747)scale(0.12 -0.12)">
       <use xlink:href="#DejaVuSans-49"/>
       <use x="63.623047" xlink:href="#DejaVuSans-48"/>
      </g>
     </g>
    </g>
    <g id="ytick_4">
     <g id="line2d_10">
      <g>
       <use style="stroke:#000000;stroke-width:0.8;" x="72" xlink:href="#ma2e1b102a2" y="139.376842"/>
      </g>
     </g>
     <g id="text_11">
      <!-- 15 -->
      <g transform="translate(49.73 143.935905)scale(0.12 -0.12)">
       <use xlink:href="#DejaVuSans-49"/>
       <use x="63.623047" xlink:href="#DejaVuSans-53"/>
      </g>
     </g>
    </g>
    <g id="ytick_5">
     <g id="line2d_11">
      <g>
       <use style="stroke:#000000;stroke-width:0.8;" x="72" xlink:href="#ma2e1b102a2" y="51.84"/>
      </g>
     </g>
     <g id="text_12">
      <!-- 20 -->
      <defs>
       <path d="M 19.1875 8.296875 
L 53.609375 8.296875 
L 53.609375 0 
L 7.328125 0 
L 7.328125 8.296875 
Q 12.9375 14.109375 22.625 23.890625 
Q 32.328125 33.6875 34.8125 36.53125 
Q 39.546875 41.84375 41.421875 45.53125 
Q 43.3125 49.21875 43.3125 52.78125 
Q 43.3125 58.59375 39.234375 62.25 
Q 35.15625 65.921875 28.609375 65.921875 
Q 23.96875 65.921875 18.8125 64.3125 
Q 13.671875 62.703125 7.8125 59.421875 
L 7.8125 69.390625 
Q 13.765625 71.78125 18.9375 73 
Q 24.125 74.21875 28.421875 74.21875 
Q 39.75 74.21875 46.484375 68.546875 
Q 53.21875 62.890625 53.21875 53.421875 
Q 53.21875 48.921875 51.53125 44.890625 
Q 49.859375 40.875 45.40625 35.40625 
Q 44.1875 33.984375 37.640625 27.21875 
Q 31.109375 20.453125 19.1875 8.296875 
z
" id="DejaVuSans-50"/>
      </defs>
      <g transform="translate(49.73 56.399062)scale(0.12 -0.12)">
       <use xlink:href="#DejaVuSans-50"/>
       <use x="63.623047" xlink:href="#DejaVuSans-48"/>
      </g>
     </g>
    </g>
    <g id="text_13">
     <!-- Number of neighbors - K -->
     <defs>
      <path d="M 9.8125 72.90625 
L 23.09375 72.90625 
L 55.421875 11.921875 
L 55.421875 72.90625 
L 64.984375 72.90625 
L 64.984375 0 
L 51.703125 0 
L 19.390625 60.984375 
L 19.390625 0 
L 9.8125 0 
z
" id="DejaVuSans-78"/>
      <path d="M 8.5 21.578125 
L 8.5 54.6875 
L 17.484375 54.6875 
L 17.484375 21.921875 
Q 17.484375 14.15625 20.5 10.265625 
Q 23.53125 6.390625 29.59375 6.390625 
Q 36.859375 6.390625 41.078125 11.03125 
Q 45.3125 15.671875 45.3125 23.6875 
L 45.3125 54.6875 
L 54.296875 54.6875 
L 54.296875 0 
L 45.3125 0 
L 45.3125 8.40625 
Q 42.046875 3.421875 37.71875 1 
Q 33.40625 -1.421875 27.6875 -1.421875 
Q 18.265625 -1.421875 13.375 4.4375 
Q 8.5 10.296875 8.5 21.578125 
z
M 31.109375 56 
z
" id="DejaVuSans-117"/>
      <path d="M 52 44.1875 
Q 55.375 50.25 60.0625 53.125 
Q 64.75 56 71.09375 56 
Q 79.640625 56 84.28125 50.015625 
Q 88.921875 44.046875 88.921875 33.015625 
L 88.921875 0 
L 79.890625 0 
L 79.890625 32.71875 
Q 79.890625 40.578125 77.09375 44.375 
Q 74.3125 48.1875 68.609375 48.1875 
Q 61.625 48.1875 57.5625 43.546875 
Q 53.515625 38.921875 53.515625 30.90625 
L 53.515625 0 
L 44.484375 0 
L 44.484375 32.71875 
Q 44.484375 40.625 41.703125 44.40625 
Q 38.921875 48.1875 33.109375 48.1875 
Q 26.21875 48.1875 22.15625 43.53125 
Q 18.109375 38.875 18.109375 30.90625 
L 18.109375 0 
L 9.078125 0 
L 9.078125 54.6875 
L 18.109375 54.6875 
L 18.109375 46.1875 
Q 21.1875 51.21875 25.484375 53.609375 
Q 29.78125 56 35.6875 56 
Q 41.65625 56 45.828125 52.96875 
Q 50 49.953125 52 44.1875 
z
" id="DejaVuSans-109"/>
      <path d="M 48.6875 27.296875 
Q 48.6875 37.203125 44.609375 42.84375 
Q 40.53125 48.484375 33.40625 48.484375 
Q 26.265625 48.484375 22.1875 42.84375 
Q 18.109375 37.203125 18.109375 27.296875 
Q 18.109375 17.390625 22.1875 11.75 
Q 26.265625 6.109375 33.40625 6.109375 
Q 40.53125 6.109375 44.609375 11.75 
Q 48.6875 17.390625 48.6875 27.296875 
z
M 18.109375 46.390625 
Q 20.953125 51.265625 25.265625 53.625 
Q 29.59375 56 35.59375 56 
Q 45.5625 56 51.78125 48.09375 
Q 58.015625 40.1875 58.015625 27.296875 
Q 58.015625 14.40625 51.78125 6.484375 
Q 45.5625 -1.421875 35.59375 -1.421875 
Q 29.59375 -1.421875 25.265625 0.953125 
Q 20.953125 3.328125 18.109375 8.203125 
L 18.109375 0 
L 9.078125 0 
L 9.078125 75.984375 
L 18.109375 75.984375 
z
" id="DejaVuSans-98"/>
      <path d="M 56.203125 29.59375 
L 56.203125 25.203125 
L 14.890625 25.203125 
Q 15.484375 15.921875 20.484375 11.0625 
Q 25.484375 6.203125 34.421875 6.203125 
Q 39.59375 6.203125 44.453125 7.46875 
Q 49.3125 8.734375 54.109375 11.28125 
L 54.109375 2.78125 
Q 49.265625 0.734375 44.1875 -0.34375 
Q 39.109375 -1.421875 33.890625 -1.421875 
Q 20.796875 -1.421875 13.15625 6.1875 
Q 5.515625 13.8125 5.515625 26.8125 
Q 5.515625 40.234375 12.765625 48.109375 
Q 20.015625 56 32.328125 56 
Q 43.359375 56 49.78125 48.890625 
Q 56.203125 41.796875 56.203125 29.59375 
z
M 47.21875 32.234375 
Q 47.125 39.59375 43.09375 43.984375 
Q 39.0625 48.390625 32.421875 48.390625 
Q 24.90625 48.390625 20.390625 44.140625 
Q 15.875 39.890625 15.1875 32.171875 
z
" id="DejaVuSans-101"/>
      <path d="M 54.890625 33.015625 
L 54.890625 0 
L 45.90625 0 
L 45.90625 32.71875 
Q 45.90625 40.484375 42.875 44.328125 
Q 39.84375 48.1875 33.796875 48.1875 
Q 26.515625 48.1875 22.3125 43.546875 
Q 18.109375 38.921875 18.109375 30.90625 
L 18.109375 0 
L 9.078125 0 
L 9.078125 75.984375 
L 18.109375 75.984375 
L 18.109375 46.1875 
Q 21.34375 51.125 25.703125 53.5625 
Q 30.078125 56 35.796875 56 
Q 45.21875 56 50.046875 50.171875 
Q 54.890625 44.34375 54.890625 33.015625 
z
" id="DejaVuSans-104"/>
      <path d="M 44.28125 53.078125 
L 44.28125 44.578125 
Q 40.484375 46.53125 36.375 47.5 
Q 32.28125 48.484375 27.875 48.484375 
Q 21.1875 48.484375 17.84375 46.4375 
Q 14.5 44.390625 14.5 40.28125 
Q 14.5 37.15625 16.890625 35.375 
Q 19.28125 33.59375 26.515625 31.984375 
L 29.59375 31.296875 
Q 39.15625 29.25 43.1875 25.515625 
Q 47.21875 21.78125 47.21875 15.09375 
Q 47.21875 7.46875 41.1875 3.015625 
Q 35.15625 -1.421875 24.609375 -1.421875 
Q 20.21875 -1.421875 15.453125 -0.5625 
Q 10.6875 0.296875 5.421875 2 
L 5.421875 11.28125 
Q 10.40625 8.6875 15.234375 7.390625 
Q 20.0625 6.109375 24.8125 6.109375 
Q 31.15625 6.109375 34.5625 8.28125 
Q 37.984375 10.453125 37.984375 14.40625 
Q 37.984375 18.0625 35.515625 20.015625 
Q 33.0625 21.96875 24.703125 23.78125 
L 21.578125 24.515625 
Q 13.234375 26.265625 9.515625 29.90625 
Q 5.8125 33.546875 5.8125 39.890625 
Q 5.8125 47.609375 11.28125 51.796875 
Q 16.75 56 26.8125 56 
Q 31.78125 56 36.171875 55.265625 
Q 40.578125 54.546875 44.28125 53.078125 
z
" id="DejaVuSans-115"/>
      <path d="M 4.890625 31.390625 
L 31.203125 31.390625 
L 31.203125 23.390625 
L 4.890625 23.390625 
z
" id="DejaVuSans-45"/>
      <path d="M 9.8125 72.90625 
L 19.671875 72.90625 
L 19.671875 42.09375 
L 52.390625 72.90625 
L 65.09375 72.90625 
L 28.90625 38.921875 
L 67.671875 0 
L 54.6875 0 
L 19.671875 35.109375 
L 19.671875 0 
L 9.8125 0 
z
" id="DejaVuSans-75"/>
     </defs>
     <g transform="translate(42.818438 303.861875)rotate(-90)scale(0.14 -0.14)">
      <use xlink:href="#DejaVuSans-78"/>
      <use x="74.804688" xlink:href="#DejaVuSans-117"/>
      <use x="138.183594" xlink:href="#DejaVuSans-109"/>
      <use x="235.595703" xlink:href="#DejaVuSans-98"/>
      <use x="299.072266" xlink:href="#DejaVuSans-101"/>
      <use x="360.595703" xlink:href="#DejaVuSans-114"/>
      <use x="401.708984" xlink:href="#DejaVuSans-32"/>
      <use x="433.496094" xlink:href="#DejaVuSans-111"/>
      <use x="494.677734" xlink:href="#DejaVuSans-102"/>
      <use x="529.882812" xlink:href="#DejaVuSans-32"/>
      <use x="561.669922" xlink:href="#DejaVuSans-110"/>
      <use x="625.048828" xlink:href="#DejaVuSans-101"/>
      <use x="686.572266" xlink:href="#DejaVuSans-105"/>
      <use x="714.355469" xlink:href="#DejaVuSans-103"/>
      <use x="777.832031" xlink:href="#DejaVuSans-104"/>
      <use x="841.210938" xlink:href="#DejaVuSans-98"/>
      <use x="904.6875" xlink:href="#DejaVuSans-111"/>
      <use x="965.869141" xlink:href="#DejaVuSans-114"/>
      <use x="1006.982422" xlink:href="#DejaVuSans-115"/>
      <use x="1059.082031" xlink:href="#DejaVuSans-32"/>
      <use x="1090.869141" xlink:href="#DejaVuSans-45"/>
      <use x="1126.953125" xlink:href="#DejaVuSans-32"/>
      <use x="1158.740234" xlink:href="#DejaVuSans-75"/>
     </g>
    </g>
   </g>
   <g id="patch_3">
    <path d="M 72 384.48 
L 72 51.84 
" style="fill:none;stroke:#000000;stroke-linecap:square;stroke-linejoin:miter;stroke-width:0.8;"/>
   </g>
   <g id="patch_4">
    <path d="M 518.4 384.48 
L 518.4 51.84 
" style="fill:none;stroke:#000000;stroke-linecap:square;stroke-linejoin:miter;stroke-width:0.8;"/>
   </g>
   <g id="patch_5">
    <path d="M 72 384.48 
L 518.4 384.48 
" style="fill:none;stroke:#000000;stroke-linecap:square;stroke-linejoin:miter;stroke-width:0.8;"/>
   </g>
   <g id="patch_6">
    <path d="M 72 51.84 
L 518.4 51.84 
" style="fill:none;stroke:#000000;stroke-linecap:square;stroke-linejoin:miter;stroke-width:0.8;"/>
   </g>
  </g>
 </g>
 <defs>
  <clipPath id="p52fa920907">
   <rect height="332.64" width="446.4" x="72" y="51.84"/>
  </clipPath>
 </defs>
</svg>
