<?xml version="1.0" encoding="utf-8" standalone="no"?>
<!DOCTYPE svg PUBLIC "-//W3C//DTD SVG 1.1//EN"
  "http://www.w3.org/Graphics/SVG/1.1/DTD/svg11.dtd">
<!-- Created with matplotlib (https://matplotlib.org/) -->
<svg height="432pt" version="1.1" viewBox="0 0 576 432" width="576pt" xmlns="http://www.w3.org/2000/svg" xmlns:xlink="http://www.w3.org/1999/xlink">
 <defs>
  <style type="text/css">
*{stroke-linecap:butt;stroke-linejoin:round;}
  </style>
 </defs>
 <g id="figure_1">
  <g id="patch_1">
   <path d="M 0 432 
L 576 432 
L 576 0 
L 0 0 
z
" style="fill:#ffffff;"/>
  </g>
  <g id="axes_1">
   <g id="patch_2">
    <path d="M 72 384.48 
L 518.4 384.48 
L 518.4 51.84 
L 72 51.84 
z
" style="fill:#ffffff;"/>
   </g>
   <g id="PathCollection_1">
    <path clip-path="url(#p7eae6b906d)" d="M 72 381.570875 
L 104.833052 372.643503 
L 83.784295 349.465263 
L 81.502181 321.158518 
L 121.6 315.405781 
L 123.778847 315.988667 
L 128.532922 314.450526 
L 121.6 313.782868 
L 78.997195 309.510911 
L 72 310.207593 
L 72 314.450526 
L 72 349.465263 
M 481.915295 384.48 
L 518.4 350.676891 
L 518.4 349.465263 
L 518.4 343.989256 
L 516.171247 347.891892 
L 517.796441 349.465263 
L 468.8 380.629898 
L 440.64246 384.48 
L 468.8 384.48 
M 518.4 273.346298 
L 507.92475 272.040868 
L 468.8 269.53886 
L 451.140812 279.435789 
L 419.2 312.443637 
L 416.594311 312.61106 
L 418.044317 314.450526 
L 419.2 315.519212 
L 425.838682 314.450526 
L 468.8 299.892296 
L 510.812029 309.093857 
L 518.4 307.09789 
L 518.4 279.435789 
M 468.8 77.922867 
L 461.446978 86.854737 
L 459.615788 115.38595 
L 448.430637 121.869474 
L 431.743338 148.029338 
L 466.941792 156.884211 
L 451.615044 179.767361 
L 465.362038 191.898947 
L 468.8 196.116495 
L 476.458948 191.898947 
L 472.310133 189.420996 
L 469.075786 156.884211 
L 483.578178 132.302014 
L 481.143794 121.869474 
L 494.411463 103.789259 
L 491.11322 86.854737 
M 320 256.259547 
L 331.930158 244.421053 
L 320 231.721198 
L 283.556657 191.898947 
L 282.504434 183.353916 
L 270.4 183.763837 
L 259.176935 191.898947 
L 270.4 205.48556 
L 308.313077 244.421053 
M 121.6 194.612972 
L 125.086278 191.898947 
L 121.6 190.472096 
L 117.801429 191.898947 
M 311.206166 115.661534 
L 270.4 121.763152 
L 270.189953 121.869474 
L 270.4 121.998924 
L 309.685363 129.151012 
L 320 129.53018 
L 358.367182 129.799195 
L 369.6 132.402562 
L 406.032831 147.58895 
L 389.187764 121.869474 
L 378.304003 115.72495 
L 369.6 108.059781 
L 357.058066 113.015593 
L 320 113.306046 
M 248.759086 349.465263 
L 246.143514 366.588942 
L 270.4 382.826507 
L 309.207436 349.465263 
L 270.4 338.346033 
" style="fill:#481b6d;"/>
   </g>
   <g id="PathCollection_2">
    <path clip-path="url(#p7eae6b906d)" d="M 409.493432 51.84 
L 419.2 59.809149 
L 443.523664 51.84 
L 419.2 51.84 
M 110.323045 51.84 
L 121.6 55.674954 
L 138.793261 63.97745 
L 154.125947 51.84 
L 121.6 51.84 
M 72 310.207593 
L 78.997195 309.510911 
L 121.6 313.782868 
L 128.532922 314.450526 
L 123.778847 315.988667 
L 121.6 315.405781 
L 81.502181 321.158518 
L 83.784295 349.465263 
L 104.833052 372.643503 
L 72 381.570875 
L 72 384.48 
L 121.6 384.48 
L 171.2 384.48 
L 220.8 384.48 
L 270.4 384.48 
L 320 384.48 
L 369.6 384.48 
L 419.2 384.48 
L 440.64246 384.48 
L 468.8 380.629898 
L 517.796441 349.465263 
L 516.171247 347.891892 
L 518.4 343.989256 
L 518.4 314.450526 
L 518.4 307.09789 
L 510.812029 309.093857 
L 468.8 299.892296 
L 425.838682 314.450526 
L 419.2 315.519212 
L 418.044317 314.450526 
L 416.594311 312.61106 
L 419.2 312.443637 
L 451.140812 279.435789 
L 468.8 269.53886 
L 507.92475 272.040868 
L 518.4 273.346298 
L 518.4 259.164069 
L 483.528233 254.818335 
L 468.8 253.876472 
L 423.194262 279.435789 
L 419.2 283.563486 
L 379.097129 286.140214 
L 401.413451 314.450526 
L 419.2 330.898137 
L 453.27039 325.413534 
L 468.8 329.648353 
L 489.269625 349.465263 
L 468.8 362.485155 
L 445.926299 365.612776 
L 419.2 370.129645 
L 381.244635 349.465263 
L 369.6 343.78516 
L 348.137644 334.314079 
L 320 327.919419 
L 294.339217 331.350232 
L 270.4 324.491091 
L 221.793764 349.465263 
L 220.8 355.971259 
L 204.423826 372.919366 
L 171.2 359.007118 
L 154.643574 361.153144 
L 121.6 371.960813 
L 101.171211 349.465263 
L 99.938368 334.173401 
L 121.6 331.06566 
L 159.49759 341.204037 
L 171.2 337.417822 
L 218.036449 347.514356 
L 220.8 328.570345 
L 222.447862 314.450526 
L 245.159016 296.631849 
L 244.528562 279.435789 
L 238.070231 267.244003 
L 234.569747 244.421053 
L 220.8 232.720756 
L 186.678131 228.031052 
L 171.2 222.011175 
L 156.397999 244.421053 
L 157.740359 253.922782 
L 171.2 277.499945 
L 174.298478 279.435789 
L 171.2 281.866841 
L 159.986419 306.534386 
L 121.6 302.837677 
L 92.573193 299.92704 
L 72 301.975429 
M 518.4 350.676891 
L 481.915295 384.48 
L 518.4 384.48 
M 518.4 184.279487 
L 497.378606 171.724101 
L 495.903434 156.884211 
L 502.517914 145.672374 
L 496.963618 121.869474 
L 518.4 92.657533 
L 518.4 86.854737 
L 518.4 84.158145 
L 505.237991 77.563118 
L 468.8 62.977173 
L 449.143171 86.854737 
L 447.845288 107.076656 
L 422.325231 121.869474 
L 419.2 126.768746 
L 415.991203 121.869474 
L 390.214357 107.316928 
L 369.6 89.16292 
L 339.895978 100.900149 
L 320 101.056089 
L 298.626613 106.781096 
L 270.4 111.001733 
L 248.929809 121.869474 
L 270.4 135.101371 
L 294.930307 139.56723 
L 320 140.488798 
L 342.996457 140.650039 
L 369.6 146.815794 
L 393.754587 156.884211 
L 369.6 191.018478 
L 369.009746 191.482262 
L 368.885054 191.898947 
L 369.6 192.646695 
L 370.595117 191.898947 
L 419.2 172.829226 
L 440.80899 191.898947 
L 468.8 226.237147 
L 504.577897 206.535358 
L 518.4 201.52336 
L 518.4 191.898947 
M 491.11322 86.854737 
L 494.411463 103.789259 
L 481.143794 121.869474 
L 483.578178 132.302014 
L 469.075786 156.884211 
L 472.310133 189.420996 
L 476.458948 191.898947 
L 468.8 196.116495 
L 465.362038 191.898947 
L 451.615044 179.767361 
L 466.941792 156.884211 
L 431.743338 148.029338 
L 448.430637 121.869474 
L 459.615788 115.38595 
L 461.446978 86.854737 
L 468.8 77.922867 
M 308.313077 244.421053 
L 270.4 205.48556 
L 259.176935 191.898947 
L 270.4 183.763837 
L 282.504434 183.353916 
L 283.556657 191.898947 
L 320 231.721198 
L 331.930158 244.421053 
L 320 256.259547 
M 117.801429 191.898947 
L 121.6 190.472096 
L 125.086278 191.898947 
L 121.6 194.612972 
M 320 113.306046 
L 357.058066 113.015593 
L 369.6 108.059781 
L 378.304003 115.72495 
L 389.187764 121.869474 
L 406.032831 147.58895 
L 369.6 132.402562 
L 358.367182 129.799195 
L 320 129.53018 
L 309.685363 129.151012 
L 270.4 121.998924 
L 270.189953 121.869474 
L 270.4 121.763152 
L 311.206166 115.661534 
M 270.4 338.346033 
L 309.207436 349.465263 
L 270.4 382.826507 
L 246.143514 366.588942 
L 248.759086 349.465263 
M 320 272.890637 
L 348.690021 244.421053 
L 320 213.880041 
L 299.883996 191.898947 
L 297.525971 172.749578 
L 270.4 173.668209 
L 245.249172 191.898947 
L 270.4 222.346473 
L 291.894918 244.421053 
M 121.6 211.95571 
L 147.363753 191.898947 
L 121.6 181.354449 
L 93.528388 191.898947 
M 171.2 106.965394 
L 151.361228 121.869474 
L 171.2 140.203703 
L 190.099788 135.211633 
L 190.329711 121.869474 
L 182.360208 113.991011 
" style="fill:#3f4788;"/>
   </g>
   <g id="PathCollection_3">
    <path clip-path="url(#p7eae6b906d)" d="M 443.523664 51.84 
L 419.2 59.809149 
L 409.493432 51.84 
L 395.957382 51.84 
L 419.2 70.922324 
L 461.314388 57.12441 
L 436.839363 86.854737 
L 436.074787 98.767363 
L 419.2 108.54891 
L 402.124711 98.908905 
L 388.436883 86.854737 
L 369.6 75.974298 
L 359.447314 79.687527 
L 327.618161 86.854737 
L 322.733889 88.784705 
L 320 88.806133 
L 286.047061 97.900658 
L 270.4 100.240314 
L 227.669665 121.869474 
L 270.4 148.203817 
L 280.17525 149.983448 
L 320 151.447415 
L 327.625732 151.500884 
L 350.853312 156.884211 
L 336.25186 168.357085 
L 329.207051 191.898947 
L 369.6 234.145115 
L 403.018018 209.034266 
L 394.484261 244.421053 
L 380.718041 252.269748 
L 369.6 253.140782 
L 355.219417 254.572914 
L 365.449883 244.421053 
L 320 196.038885 
L 316.211335 191.898947 
L 312.547507 162.14524 
L 270.4 163.572581 
L 231.321409 191.898947 
L 270.4 239.207387 
L 275.476759 244.421053 
L 287.149671 256.245354 
L 270.4 264.226001 
L 262.76422 249.811472 
L 261.937462 244.421053 
L 220.8 209.466125 
L 206.116061 207.447967 
L 171.2 193.868137 
L 137.809174 244.421053 
L 140.837314 265.855356 
L 148.59006 279.435789 
L 142.032879 293.860223 
L 121.6 291.892485 
L 106.149191 290.343169 
L 72 293.743265 
L 72 301.975429 
L 92.573193 299.92704 
L 121.6 302.837677 
L 159.986419 306.534386 
L 171.2 281.866841 
L 174.298478 279.435789 
L 171.2 277.499945 
L 157.740359 253.922782 
L 156.397999 244.421053 
L 171.2 222.011175 
L 186.678131 228.031052 
L 220.8 232.720756 
L 234.569747 244.421053 
L 238.070231 267.244003 
L 244.528562 279.435789 
L 245.159016 296.631849 
L 222.447862 314.450526 
L 220.8 328.570345 
L 218.036449 347.514356 
L 171.2 337.417822 
L 159.49759 341.204037 
L 121.6 331.06566 
L 99.938368 334.173401 
L 101.171211 349.465263 
L 121.6 371.960813 
L 154.643574 361.153144 
L 171.2 359.007118 
L 204.423826 372.919366 
L 220.8 355.971259 
L 221.793764 349.465263 
L 270.4 324.491091 
L 294.339217 331.350232 
L 320 327.919419 
L 348.137644 334.314079 
L 369.6 343.78516 
L 381.244635 349.465263 
L 419.2 370.129645 
L 445.926299 365.612776 
L 468.8 362.485155 
L 489.269625 349.465263 
L 468.8 329.648353 
L 453.27039 325.413534 
L 419.2 330.898137 
L 401.413451 314.450526 
L 379.097129 286.140214 
L 419.2 283.563486 
L 423.194262 279.435789 
L 468.8 253.876472 
L 483.528233 254.818335 
L 518.4 259.164069 
L 518.4 244.98184 
L 513.900034 244.421053 
L 518.4 242.789331 
L 518.4 201.52336 
L 504.577897 206.535358 
L 468.8 226.237147 
L 440.80899 191.898947 
L 419.2 172.829226 
L 370.595117 191.898947 
L 369.6 192.646695 
L 368.885054 191.898947 
L 369.009746 191.482262 
L 369.6 191.018478 
L 393.754587 156.884211 
L 369.6 146.815794 
L 342.996457 140.650039 
L 320 140.488798 
L 294.930307 139.56723 
L 270.4 135.101371 
L 248.929809 121.869474 
L 270.4 111.001733 
L 298.626613 106.781096 
L 320 101.056089 
L 339.895978 100.900149 
L 369.6 89.16292 
L 390.214357 107.316928 
L 415.991203 121.869474 
L 419.2 126.768746 
L 422.325231 121.869474 
L 447.845288 107.076656 
L 449.143171 86.854737 
L 468.8 62.977173 
L 505.237991 77.563118 
L 518.4 84.158145 
L 518.4 74.139971 
L 473.894885 51.84 
L 468.8 51.84 
M 154.125947 51.84 
L 138.793261 63.97745 
L 121.6 55.674954 
L 110.323045 51.84 
L 91.359679 51.84 
L 121.6 62.123827 
L 167.705506 84.387826 
L 171.2 81.621562 
L 185.836634 51.84 
L 171.2 51.84 
M 72 193.916155 
L 77.693545 197.927918 
L 121.6 229.298447 
L 169.641228 191.898947 
L 121.6 172.236802 
L 75.121185 189.695571 
L 72 188.631191 
L 72 191.898947 
M 518.4 145.939195 
L 512.783443 121.869474 
L 518.4 114.215639 
L 518.4 92.657533 
L 496.963618 121.869474 
L 502.517914 145.672374 
L 495.903434 156.884211 
L 497.378606 171.724101 
L 518.4 184.279487 
L 518.4 156.884211 
M 291.894918 244.421053 
L 270.4 222.346473 
L 245.249172 191.898947 
L 270.4 173.668209 
L 297.525971 172.749578 
L 299.883996 191.898947 
L 320 213.880041 
L 348.690021 244.421053 
L 320 272.890637 
M 93.528388 191.898947 
L 121.6 181.354449 
L 147.363753 191.898947 
L 121.6 211.95571 
M 182.360208 113.991011 
L 190.329711 121.869474 
L 190.099788 135.211633 
L 171.2 140.203703 
L 151.361228 121.869474 
L 171.2 106.965394 
M 118.374555 347.188285 
L 121.6 346.725539 
L 131.841181 349.465263 
L 121.6 352.814879 
L 118.558127 349.465263 
M 384.782585 314.450526 
L 419.2 346.277061 
L 425.050301 345.335288 
L 440.195433 349.465263 
L 419.2 353.013589 
L 412.682602 349.465263 
L 369.6 328.450126 
L 337.875599 314.450526 
L 369.6 295.190017 
M 171.2 184.101817 
L 183.318655 165.439281 
L 191.609779 156.884211 
L 212.852046 151.273414 
L 213.35876 121.869474 
L 195.795276 104.506629 
L 171.2 89.023316 
L 127.478587 121.869474 
L 146.495901 139.444543 
L 164.916694 156.884211 
" style="fill:#2e6e8e;"/>
   </g>
   <g id="PathCollection_4">
    <path clip-path="url(#p7eae6b906d)" d="M 473.894885 51.84 
L 518.4 74.139971 
L 518.4 64.121797 
L 493.888633 51.84 
M 382.421333 51.84 
L 419.2 82.035499 
L 431.938763 77.861905 
L 424.535556 86.854737 
L 424.304287 90.458069 
L 419.2 93.416792 
L 414.035065 90.500883 
L 409.89477 86.854737 
L 369.6 63.579931 
L 347.881962 71.523056 
L 320 77.801447 
L 301.147921 73.546258 
L 281.55199 86.854737 
L 273.467508 89.02022 
L 270.4 89.478895 
L 257.263719 96.128193 
L 220.8 106.459735 
L 209.230344 95.022246 
L 196.256238 86.854737 
L 199.84595 66.63235 
L 207.115891 51.84 
L 185.836634 51.84 
L 171.2 81.621562 
L 167.705506 84.387826 
L 121.6 62.123827 
L 91.359679 51.84 
L 72.396313 51.84 
L 121.6 68.572699 
L 159.459443 86.854737 
L 121.6 114.514307 
L 106.892157 111.486586 
L 84.686079 121.869474 
L 77.73397 152.836359 
L 121.6 140.229539 
L 139.191635 156.884211 
L 142.616729 171.720808 
L 121.6 163.119155 
L 102.724175 170.209453 
L 72 159.731957 
L 72 188.631191 
L 75.121185 189.695571 
L 121.6 172.236802 
L 169.641228 191.898947 
L 121.6 229.298447 
L 77.693545 197.927918 
L 72 193.916155 
L 72 211.755846 
L 118.358873 244.421053 
L 114.268058 249.596981 
L 121.6 261.265108 
L 123.934268 277.787931 
L 124.874992 279.435789 
L 124.079339 281.18606 
L 121.6 280.947293 
L 119.725189 280.759298 
L 72 285.511101 
L 72 293.743265 
L 106.149191 290.343169 
L 121.6 291.892485 
L 142.032879 293.860223 
L 148.59006 279.435789 
L 140.837314 265.855356 
L 137.809174 244.421053 
L 171.2 193.868137 
L 206.116061 207.447967 
L 220.8 209.466125 
L 261.937462 244.421053 
L 262.76422 249.811472 
L 270.4 264.226001 
L 287.149671 256.245354 
L 275.476759 244.421053 
L 270.4 239.207387 
L 231.321409 191.898947 
L 270.4 163.572581 
L 312.547507 162.14524 
L 316.211335 191.898947 
L 320 196.038885 
L 365.449883 244.421053 
L 355.219417 254.572914 
L 369.6 253.140782 
L 380.718041 252.269748 
L 394.484261 244.421053 
L 403.018018 209.034266 
L 369.6 234.145115 
L 329.207051 191.898947 
L 336.25186 168.357085 
L 350.853312 156.884211 
L 327.625732 151.500884 
L 320 151.447415 
L 280.17525 149.983448 
L 270.4 148.203817 
L 227.669665 121.869474 
L 270.4 100.240314 
L 286.047061 97.900658 
L 320 88.806133 
L 322.733889 88.784705 
L 327.618161 86.854737 
L 359.447314 79.687527 
L 369.6 75.974298 
L 388.436883 86.854737 
L 402.124711 98.908905 
L 419.2 108.54891 
L 436.074787 98.767363 
L 436.839363 86.854737 
L 461.314388 57.12441 
L 419.2 70.922324 
L 395.957382 51.84 
M 518.4 242.789331 
L 513.900034 244.421053 
L 518.4 244.98184 
L 518.4 244.421053 
M 518.4 114.215639 
L 512.783443 121.869474 
L 518.4 145.939195 
L 518.4 121.869474 
M 118.558127 349.465263 
L 121.6 352.814879 
L 131.841181 349.465263 
L 121.6 346.725539 
L 118.374555 347.188285 
M 369.6 295.190017 
L 337.875599 314.450526 
L 369.6 328.450126 
L 412.682602 349.465263 
L 419.2 353.013589 
L 440.195433 349.465263 
L 425.050301 345.335288 
L 419.2 346.277061 
L 384.782585 314.450526 
M 164.916694 156.884211 
L 146.495901 139.444543 
L 127.478587 121.869474 
L 171.2 89.023316 
L 195.795276 104.506629 
L 213.35876 121.869474 
L 212.852046 151.273414 
L 191.609779 156.884211 
L 183.318655 165.439281 
L 171.2 184.101817 
" style="fill:#21908d;"/>
   </g>
   <g id="PathCollection_5">
    <path clip-path="url(#p7eae6b906d)" d="M 493.888633 51.84 
L 518.4 64.121797 
L 518.4 54.103623 
L 513.88238 51.84 
M 367.810649 51.84 
L 336.316611 63.358585 
L 320 67.032719 
L 278.723707 57.716056 
L 270.4 63.36906 
L 234.302462 77.322778 
L 245.114114 51.84 
L 220.8 51.84 
L 207.115891 51.84 
L 199.84595 66.63235 
L 196.256238 86.854737 
L 209.230344 95.022246 
L 220.8 106.459735 
L 257.263719 96.128193 
L 270.4 89.478895 
L 273.467508 89.02022 
L 281.55199 86.854737 
L 301.147921 73.546258 
L 320 77.801447 
L 347.881962 71.523056 
L 369.6 63.579931 
L 409.89477 86.854737 
L 414.035065 90.500883 
L 419.2 93.416792 
L 424.304287 90.458069 
L 424.535556 86.854737 
L 431.938763 77.861905 
L 419.2 82.035499 
L 382.421333 51.84 
L 369.6 51.84 
M 72 71.236197 
L 89.257658 64.02291 
L 121.6 75.021571 
L 146.104766 86.854737 
L 121.6 104.75757 
L 87.381988 97.713532 
L 72 104.905683 
L 72 121.869474 
L 72 156.884211 
L 72 159.731957 
L 102.724175 170.209453 
L 121.6 163.119155 
L 142.616729 171.720808 
L 139.191635 156.884211 
L 121.6 140.229539 
L 77.73397 152.836359 
L 84.686079 121.869474 
L 106.892157 111.486586 
L 121.6 114.514307 
L 159.459443 86.854737 
L 121.6 68.572699 
L 72.396313 51.84 
L 72 51.84 
M 72 229.595536 
L 93.040559 244.421053 
L 72 271.042743 
L 72 279.435789 
L 72 285.511101 
L 119.725189 280.759298 
L 121.6 280.947293 
L 124.079339 281.18606 
L 124.874992 279.435789 
L 123.934268 277.787931 
L 121.6 261.265108 
L 114.268058 249.596981 
L 118.358873 244.421053 
L 72 211.755846 
" style="fill:#2db27d;"/>
   </g>
   <g id="PathCollection_6">
    <path clip-path="url(#p7eae6b906d)" d="M 513.88238 51.84 
L 518.4 54.103623 
L 518.4 51.84 
M 333.922056 51.84 
L 324.751259 55.194114 
L 320 56.263991 
L 300.400068 51.84 
L 270.4 51.84 
L 245.114114 51.84 
L 234.302462 77.322778 
L 270.4 63.36906 
L 278.723707 57.716056 
L 320 67.032719 
L 336.316611 63.358585 
L 367.810649 51.84 
M 72 104.905683 
L 87.381988 97.713532 
L 121.6 104.75757 
L 146.104766 86.854737 
L 121.6 75.021571 
L 89.257658 64.02291 
L 72 71.236197 
L 72 86.854737 
M 72 271.042743 
L 93.040559 244.421053 
L 72 229.595536 
L 72 244.421053 
M 106.883679 76.465864 
L 121.6 81.470443 
L 132.750089 86.854737 
L 121.6 95.000833 
L 82.028488 86.854737 
" style="fill:#73d056;"/>
   </g>
   <g id="PathCollection_7">
    <path clip-path="url(#p7eae6b906d)" d="M 300.400068 51.84 
L 320 56.263991 
L 324.751259 55.194114 
L 333.922056 51.84 
L 320 51.84 
M 82.028488 86.854737 
L 121.6 95.000833 
L 132.750089 86.854737 
L 121.6 81.470443 
L 106.883679 76.465864 
" style="fill:#d0e11c;"/>
   </g>
   <g id="matplotlib.axis_1">
    <g id="xtick_1">
     <g id="line2d_1">
      <defs>
       <path d="M 0 0 
L 0 3.5 
" id="ma50ac34ee3" style="stroke:#000000;stroke-width:0.8;"/>
      </defs>
      <g>
       <use style="stroke:#000000;stroke-width:0.8;" x="72" xlink:href="#ma50ac34ee3" y="384.48"/>
      </g>
     </g>
     <g id="text_1">
      <!-- 0.5 -->
      <defs>
       <path d="M 31.78125 66.40625 
Q 24.171875 66.40625 20.328125 58.90625 
Q 16.5 51.421875 16.5 36.375 
Q 16.5 21.390625 20.328125 13.890625 
Q 24.171875 6.390625 31.78125 6.390625 
Q 39.453125 6.390625 43.28125 13.890625 
Q 47.125 21.390625 47.125 36.375 
Q 47.125 51.421875 43.28125 58.90625 
Q 39.453125 66.40625 31.78125 66.40625 
z
M 31.78125 74.21875 
Q 44.046875 74.21875 50.515625 64.515625 
Q 56.984375 54.828125 56.984375 36.375 
Q 56.984375 17.96875 50.515625 8.265625 
Q 44.046875 -1.421875 31.78125 -1.421875 
Q 19.53125 -1.421875 13.0625 8.265625 
Q 6.59375 17.96875 6.59375 36.375 
Q 6.59375 54.828125 13.0625 64.515625 
Q 19.53125 74.21875 31.78125 74.21875 
z
" id="DejaVuSans-48"/>
       <path d="M 10.6875 12.40625 
L 21 12.40625 
L 21 0 
L 10.6875 0 
z
" id="DejaVuSans-46"/>
       <path d="M 10.796875 72.90625 
L 49.515625 72.90625 
L 49.515625 64.59375 
L 19.828125 64.59375 
L 19.828125 46.734375 
Q 21.96875 47.46875 24.109375 47.828125 
Q 26.265625 48.1875 28.421875 48.1875 
Q 40.625 48.1875 47.75 41.5 
Q 54.890625 34.8125 54.890625 23.390625 
Q 54.890625 11.625 47.5625 5.09375 
Q 40.234375 -1.421875 26.90625 -1.421875 
Q 22.3125 -1.421875 17.546875 -0.640625 
Q 12.796875 0.140625 7.71875 1.703125 
L 7.71875 11.625 
Q 12.109375 9.234375 16.796875 8.0625 
Q 21.484375 6.890625 26.703125 6.890625 
Q 35.15625 6.890625 40.078125 11.328125 
Q 45.015625 15.765625 45.015625 23.390625 
Q 45.015625 31 40.078125 35.4375 
Q 35.15625 39.890625 26.703125 39.890625 
Q 22.75 39.890625 18.8125 39.015625 
Q 14.890625 38.140625 10.796875 36.28125 
z
" id="DejaVuSans-53"/>
      </defs>
      <g transform="translate(62.458125 400.598125)scale(0.12 -0.12)">
       <use xlink:href="#DejaVuSans-48"/>
       <use x="63.623047" xlink:href="#DejaVuSans-46"/>
       <use x="95.410156" xlink:href="#DejaVuSans-53"/>
      </g>
     </g>
    </g>
    <g id="xtick_2">
     <g id="line2d_2">
      <g>
       <use style="stroke:#000000;stroke-width:0.8;" x="161.28" xlink:href="#ma50ac34ee3" y="384.48"/>
      </g>
     </g>
     <g id="text_2">
      <!-- 0.6 -->
      <defs>
       <path d="M 33.015625 40.375 
Q 26.375 40.375 22.484375 35.828125 
Q 18.609375 31.296875 18.609375 23.390625 
Q 18.609375 15.53125 22.484375 10.953125 
Q 26.375 6.390625 33.015625 6.390625 
Q 39.65625 6.390625 43.53125 10.953125 
Q 47.40625 15.53125 47.40625 23.390625 
Q 47.40625 31.296875 43.53125 35.828125 
Q 39.65625 40.375 33.015625 40.375 
z
M 52.59375 71.296875 
L 52.59375 62.3125 
Q 48.875 64.0625 45.09375 64.984375 
Q 41.3125 65.921875 37.59375 65.921875 
Q 27.828125 65.921875 22.671875 59.328125 
Q 17.53125 52.734375 16.796875 39.40625 
Q 19.671875 43.65625 24.015625 45.921875 
Q 28.375 48.1875 33.59375 48.1875 
Q 44.578125 48.1875 50.953125 41.515625 
Q 57.328125 34.859375 57.328125 23.390625 
Q 57.328125 12.15625 50.6875 5.359375 
Q 44.046875 -1.421875 33.015625 -1.421875 
Q 20.359375 -1.421875 13.671875 8.265625 
Q 6.984375 17.96875 6.984375 36.375 
Q 6.984375 53.65625 15.1875 63.9375 
Q 23.390625 74.21875 37.203125 74.21875 
Q 40.921875 74.21875 44.703125 73.484375 
Q 48.484375 72.75 52.59375 71.296875 
z
" id="DejaVuSans-54"/>
      </defs>
      <g transform="translate(151.738125 400.598125)scale(0.12 -0.12)">
       <use xlink:href="#DejaVuSans-48"/>
       <use x="63.623047" xlink:href="#DejaVuSans-46"/>
       <use x="95.410156" xlink:href="#DejaVuSans-54"/>
      </g>
     </g>
    </g>
    <g id="xtick_3">
     <g id="line2d_3">
      <g>
       <use style="stroke:#000000;stroke-width:0.8;" x="250.56" xlink:href="#ma50ac34ee3" y="384.48"/>
      </g>
     </g>
     <g id="text_3">
      <!-- 0.7 -->
      <defs>
       <path d="M 8.203125 72.90625 
L 55.078125 72.90625 
L 55.078125 68.703125 
L 28.609375 0 
L 18.3125 0 
L 43.21875 64.59375 
L 8.203125 64.59375 
z
" id="DejaVuSans-55"/>
      </defs>
      <g transform="translate(241.018125 400.598125)scale(0.12 -0.12)">
       <use xlink:href="#DejaVuSans-48"/>
       <use x="63.623047" xlink:href="#DejaVuSans-46"/>
       <use x="95.410156" xlink:href="#DejaVuSans-55"/>
      </g>
     </g>
    </g>
    <g id="xtick_4">
     <g id="line2d_4">
      <g>
       <use style="stroke:#000000;stroke-width:0.8;" x="339.84" xlink:href="#ma50ac34ee3" y="384.48"/>
      </g>
     </g>
     <g id="text_4">
      <!-- 0.8 -->
      <defs>
       <path d="M 31.78125 34.625 
Q 24.75 34.625 20.71875 30.859375 
Q 16.703125 27.09375 16.703125 20.515625 
Q 16.703125 13.921875 20.71875 10.15625 
Q 24.75 6.390625 31.78125 6.390625 
Q 38.8125 6.390625 42.859375 10.171875 
Q 46.921875 13.96875 46.921875 20.515625 
Q 46.921875 27.09375 42.890625 30.859375 
Q 38.875 34.625 31.78125 34.625 
z
M 21.921875 38.8125 
Q 15.578125 40.375 12.03125 44.71875 
Q 8.5 49.078125 8.5 55.328125 
Q 8.5 64.0625 14.71875 69.140625 
Q 20.953125 74.21875 31.78125 74.21875 
Q 42.671875 74.21875 48.875 69.140625 
Q 55.078125 64.0625 55.078125 55.328125 
Q 55.078125 49.078125 51.53125 44.71875 
Q 48 40.375 41.703125 38.8125 
Q 48.828125 37.15625 52.796875 32.3125 
Q 56.78125 27.484375 56.78125 20.515625 
Q 56.78125 9.90625 50.3125 4.234375 
Q 43.84375 -1.421875 31.78125 -1.421875 
Q 19.734375 -1.421875 13.25 4.234375 
Q 6.78125 9.90625 6.78125 20.515625 
Q 6.78125 27.484375 10.78125 32.3125 
Q 14.796875 37.15625 21.921875 38.8125 
z
M 18.3125 54.390625 
Q 18.3125 48.734375 21.84375 45.5625 
Q 25.390625 42.390625 31.78125 42.390625 
Q 38.140625 42.390625 41.71875 45.5625 
Q 45.3125 48.734375 45.3125 54.390625 
Q 45.3125 60.0625 41.71875 63.234375 
Q 38.140625 66.40625 31.78125 66.40625 
Q 25.390625 66.40625 21.84375 63.234375 
Q 18.3125 60.0625 18.3125 54.390625 
z
" id="DejaVuSans-56"/>
      </defs>
      <g transform="translate(330.298125 400.598125)scale(0.12 -0.12)">
       <use xlink:href="#DejaVuSans-48"/>
       <use x="63.623047" xlink:href="#DejaVuSans-46"/>
       <use x="95.410156" xlink:href="#DejaVuSans-56"/>
      </g>
     </g>
    </g>
    <g id="xtick_5">
     <g id="line2d_5">
      <g>
       <use style="stroke:#000000;stroke-width:0.8;" x="429.12" xlink:href="#ma50ac34ee3" y="384.48"/>
      </g>
     </g>
     <g id="text_5">
      <!-- 0.9 -->
      <defs>
       <path d="M 10.984375 1.515625 
L 10.984375 10.5 
Q 14.703125 8.734375 18.5 7.8125 
Q 22.3125 6.890625 25.984375 6.890625 
Q 35.75 6.890625 40.890625 13.453125 
Q 46.046875 20.015625 46.78125 33.40625 
Q 43.953125 29.203125 39.59375 26.953125 
Q 35.25 24.703125 29.984375 24.703125 
Q 19.046875 24.703125 12.671875 31.3125 
Q 6.296875 37.9375 6.296875 49.421875 
Q 6.296875 60.640625 12.9375 67.421875 
Q 19.578125 74.21875 30.609375 74.21875 
Q 43.265625 74.21875 49.921875 64.515625 
Q 56.59375 54.828125 56.59375 36.375 
Q 56.59375 19.140625 48.40625 8.859375 
Q 40.234375 -1.421875 26.421875 -1.421875 
Q 22.703125 -1.421875 18.890625 -0.6875 
Q 15.09375 0.046875 10.984375 1.515625 
z
M 30.609375 32.421875 
Q 37.25 32.421875 41.125 36.953125 
Q 45.015625 41.5 45.015625 49.421875 
Q 45.015625 57.28125 41.125 61.84375 
Q 37.25 66.40625 30.609375 66.40625 
Q 23.96875 66.40625 20.09375 61.84375 
Q 16.21875 57.28125 16.21875 49.421875 
Q 16.21875 41.5 20.09375 36.953125 
Q 23.96875 32.421875 30.609375 32.421875 
z
" id="DejaVuSans-57"/>
      </defs>
      <g transform="translate(419.578125 400.598125)scale(0.12 -0.12)">
       <use xlink:href="#DejaVuSans-48"/>
       <use x="63.623047" xlink:href="#DejaVuSans-46"/>
       <use x="95.410156" xlink:href="#DejaVuSans-57"/>
      </g>
     </g>
    </g>
    <g id="xtick_6">
     <g id="line2d_6">
      <g>
       <use style="stroke:#000000;stroke-width:0.8;" x="518.4" xlink:href="#ma50ac34ee3" y="384.48"/>
      </g>
     </g>
     <g id="text_6">
      <!-- 1.0 -->
      <defs>
       <path d="M 12.40625 8.296875 
L 28.515625 8.296875 
L 28.515625 63.921875 
L 10.984375 60.40625 
L 10.984375 69.390625 
L 28.421875 72.90625 
L 38.28125 72.90625 
L 38.28125 8.296875 
L 54.390625 8.296875 
L 54.390625 0 
L 12.40625 0 
z
" id="DejaVuSans-49"/>
      </defs>
      <g transform="translate(508.858125 400.598125)scale(0.12 -0.12)">
       <use xlink:href="#DejaVuSans-49"/>
       <use x="63.623047" xlink:href="#DejaVuSans-46"/>
       <use x="95.410156" xlink:href="#DejaVuSans-48"/>
      </g>
     </g>
    </g>
    <g id="text_7">
     <!-- Bagging fraction -->
     <defs>
      <path d="M 19.671875 34.8125 
L 19.671875 8.109375 
L 35.5 8.109375 
Q 43.453125 8.109375 47.28125 11.40625 
Q 51.125 14.703125 51.125 21.484375 
Q 51.125 28.328125 47.28125 31.5625 
Q 43.453125 34.8125 35.5 34.8125 
z
M 19.671875 64.796875 
L 19.671875 42.828125 
L 34.28125 42.828125 
Q 41.5 42.828125 45.03125 45.53125 
Q 48.578125 48.25 48.578125 53.8125 
Q 48.578125 59.328125 45.03125 62.0625 
Q 41.5 64.796875 34.28125 64.796875 
z
M 9.8125 72.90625 
L 35.015625 72.90625 
Q 46.296875 72.90625 52.390625 68.21875 
Q 58.5 63.53125 58.5 54.890625 
Q 58.5 48.1875 55.375 44.234375 
Q 52.25 40.28125 46.1875 39.3125 
Q 53.46875 37.75 57.5 32.78125 
Q 61.53125 27.828125 61.53125 20.40625 
Q 61.53125 10.640625 54.890625 5.3125 
Q 48.25 0 35.984375 0 
L 9.8125 0 
z
" id="DejaVuSans-66"/>
      <path d="M 34.28125 27.484375 
Q 23.390625 27.484375 19.1875 25 
Q 14.984375 22.515625 14.984375 16.5 
Q 14.984375 11.71875 18.140625 8.90625 
Q 21.296875 6.109375 26.703125 6.109375 
Q 34.1875 6.109375 38.703125 11.40625 
Q 43.21875 16.703125 43.21875 25.484375 
L 43.21875 27.484375 
z
M 52.203125 31.203125 
L 52.203125 0 
L 43.21875 0 
L 43.21875 8.296875 
Q 40.140625 3.328125 35.546875 0.953125 
Q 30.953125 -1.421875 24.3125 -1.421875 
Q 15.921875 -1.421875 10.953125 3.296875 
Q 6 8.015625 6 15.921875 
Q 6 25.140625 12.171875 29.828125 
Q 18.359375 34.515625 30.609375 34.515625 
L 43.21875 34.515625 
L 43.21875 35.40625 
Q 43.21875 41.609375 39.140625 45 
Q 35.0625 48.390625 27.6875 48.390625 
Q 23 48.390625 18.546875 47.265625 
Q 14.109375 46.140625 10.015625 43.890625 
L 10.015625 52.203125 
Q 14.9375 54.109375 19.578125 55.046875 
Q 24.21875 56 28.609375 56 
Q 40.484375 56 46.34375 49.84375 
Q 52.203125 43.703125 52.203125 31.203125 
z
" id="DejaVuSans-97"/>
      <path d="M 45.40625 27.984375 
Q 45.40625 37.75 41.375 43.109375 
Q 37.359375 48.484375 30.078125 48.484375 
Q 22.859375 48.484375 18.828125 43.109375 
Q 14.796875 37.75 14.796875 27.984375 
Q 14.796875 18.265625 18.828125 12.890625 
Q 22.859375 7.515625 30.078125 7.515625 
Q 37.359375 7.515625 41.375 12.890625 
Q 45.40625 18.265625 45.40625 27.984375 
z
M 54.390625 6.78125 
Q 54.390625 -7.171875 48.1875 -13.984375 
Q 42 -20.796875 29.203125 -20.796875 
Q 24.46875 -20.796875 20.265625 -20.09375 
Q 16.0625 -19.390625 12.109375 -17.921875 
L 12.109375 -9.1875 
Q 16.0625 -11.328125 19.921875 -12.34375 
Q 23.78125 -13.375 27.78125 -13.375 
Q 36.625 -13.375 41.015625 -8.765625 
Q 45.40625 -4.15625 45.40625 5.171875 
L 45.40625 9.625 
Q 42.625 4.78125 38.28125 2.390625 
Q 33.9375 0 27.875 0 
Q 17.828125 0 11.671875 7.65625 
Q 5.515625 15.328125 5.515625 27.984375 
Q 5.515625 40.671875 11.671875 48.328125 
Q 17.828125 56 27.875 56 
Q 33.9375 56 38.28125 53.609375 
Q 42.625 51.21875 45.40625 46.390625 
L 45.40625 54.6875 
L 54.390625 54.6875 
z
" id="DejaVuSans-103"/>
      <path d="M 9.421875 54.6875 
L 18.40625 54.6875 
L 18.40625 0 
L 9.421875 0 
z
M 9.421875 75.984375 
L 18.40625 75.984375 
L 18.40625 64.59375 
L 9.421875 64.59375 
z
" id="DejaVuSans-105"/>
      <path d="M 54.890625 33.015625 
L 54.890625 0 
L 45.90625 0 
L 45.90625 32.71875 
Q 45.90625 40.484375 42.875 44.328125 
Q 39.84375 48.1875 33.796875 48.1875 
Q 26.515625 48.1875 22.3125 43.546875 
Q 18.109375 38.921875 18.109375 30.90625 
L 18.109375 0 
L 9.078125 0 
L 9.078125 54.6875 
L 18.109375 54.6875 
L 18.109375 46.1875 
Q 21.34375 51.125 25.703125 53.5625 
Q 30.078125 56 35.796875 56 
Q 45.21875 56 50.046875 50.171875 
Q 54.890625 44.34375 54.890625 33.015625 
z
" id="DejaVuSans-110"/>
      <path id="DejaVuSans-32"/>
      <path d="M 37.109375 75.984375 
L 37.109375 68.5 
L 28.515625 68.5 
Q 23.6875 68.5 21.796875 66.546875 
Q 19.921875 64.59375 19.921875 59.515625 
L 19.921875 54.6875 
L 34.71875 54.6875 
L 34.71875 47.703125 
L 19.921875 47.703125 
L 19.921875 0 
L 10.890625 0 
L 10.890625 47.703125 
L 2.296875 47.703125 
L 2.296875 54.6875 
L 10.890625 54.6875 
L 10.890625 58.5 
Q 10.890625 67.625 15.140625 71.796875 
Q 19.390625 75.984375 28.609375 75.984375 
z
" id="DejaVuSans-102"/>
      <path d="M 41.109375 46.296875 
Q 39.59375 47.171875 37.8125 47.578125 
Q 36.03125 48 33.890625 48 
Q 26.265625 48 22.1875 43.046875 
Q 18.109375 38.09375 18.109375 28.8125 
L 18.109375 0 
L 9.078125 0 
L 9.078125 54.6875 
L 18.109375 54.6875 
L 18.109375 46.1875 
Q 20.953125 51.171875 25.484375 53.578125 
Q 30.03125 56 36.53125 56 
Q 37.453125 56 38.578125 55.875 
Q 39.703125 55.765625 41.0625 55.515625 
z
" id="DejaVuSans-114"/>
      <path d="M 48.78125 52.59375 
L 48.78125 44.1875 
Q 44.96875 46.296875 41.140625 47.34375 
Q 37.3125 48.390625 33.40625 48.390625 
Q 24.65625 48.390625 19.8125 42.84375 
Q 14.984375 37.3125 14.984375 27.296875 
Q 14.984375 17.28125 19.8125 11.734375 
Q 24.65625 6.203125 33.40625 6.203125 
Q 37.3125 6.203125 41.140625 7.25 
Q 44.96875 8.296875 48.78125 10.40625 
L 48.78125 2.09375 
Q 45.015625 0.34375 40.984375 -0.53125 
Q 36.96875 -1.421875 32.421875 -1.421875 
Q 20.0625 -1.421875 12.78125 6.34375 
Q 5.515625 14.109375 5.515625 27.296875 
Q 5.515625 40.671875 12.859375 48.328125 
Q 20.21875 56 33.015625 56 
Q 37.15625 56 41.109375 55.140625 
Q 45.0625 54.296875 48.78125 52.59375 
z
" id="DejaVuSans-99"/>
      <path d="M 18.3125 70.21875 
L 18.3125 54.6875 
L 36.8125 54.6875 
L 36.8125 47.703125 
L 18.3125 47.703125 
L 18.3125 18.015625 
Q 18.3125 11.328125 20.140625 9.421875 
Q 21.96875 7.515625 27.59375 7.515625 
L 36.8125 7.515625 
L 36.8125 0 
L 27.59375 0 
Q 17.1875 0 13.234375 3.875 
Q 9.28125 7.765625 9.28125 18.015625 
L 9.28125 47.703125 
L 2.6875 47.703125 
L 2.6875 54.6875 
L 9.28125 54.6875 
L 9.28125 70.21875 
z
" id="DejaVuSans-116"/>
      <path d="M 30.609375 48.390625 
Q 23.390625 48.390625 19.1875 42.75 
Q 14.984375 37.109375 14.984375 27.296875 
Q 14.984375 17.484375 19.15625 11.84375 
Q 23.34375 6.203125 30.609375 6.203125 
Q 37.796875 6.203125 41.984375 11.859375 
Q 46.1875 17.53125 46.1875 27.296875 
Q 46.1875 37.015625 41.984375 42.703125 
Q 37.796875 48.390625 30.609375 48.390625 
z
M 30.609375 56 
Q 42.328125 56 49.015625 48.375 
Q 55.71875 40.765625 55.71875 27.296875 
Q 55.71875 13.875 49.015625 6.21875 
Q 42.328125 -1.421875 30.609375 -1.421875 
Q 18.84375 -1.421875 12.171875 6.21875 
Q 5.515625 13.875 5.515625 27.296875 
Q 5.515625 40.765625 12.171875 48.375 
Q 18.84375 56 30.609375 56 
z
" id="DejaVuSans-111"/>
     </defs>
     <g transform="translate(237.281562 417.731562)scale(0.14 -0.14)">
      <use xlink:href="#DejaVuSans-66"/>
      <use x="68.603516" xlink:href="#DejaVuSans-97"/>
      <use x="129.882812" xlink:href="#DejaVuSans-103"/>
      <use x="193.359375" xlink:href="#DejaVuSans-103"/>
      <use x="256.835938" xlink:href="#DejaVuSans-105"/>
      <use x="284.619141" xlink:href="#DejaVuSans-110"/>
      <use x="347.998047" xlink:href="#DejaVuSans-103"/>
      <use x="411.474609" xlink:href="#DejaVuSans-32"/>
      <use x="443.261719" xlink:href="#DejaVuSans-102"/>
      <use x="478.466797" xlink:href="#DejaVuSans-114"/>
      <use x="519.580078" xlink:href="#DejaVuSans-97"/>
      <use x="580.859375" xlink:href="#DejaVuSans-99"/>
      <use x="635.839844" xlink:href="#DejaVuSans-116"/>
      <use x="675.048828" xlink:href="#DejaVuSans-105"/>
      <use x="702.832031" xlink:href="#DejaVuSans-111"/>
      <use x="764.013672" xlink:href="#DejaVuSans-110"/>
     </g>
    </g>
   </g>
   <g id="matplotlib.axis_2">
    <g id="ytick_1">
     <g id="line2d_7">
      <defs>
       <path d="M 0 0 
L -3.5 0 
" id="m5211a873ba" style="stroke:#000000;stroke-width:0.8;"/>
      </defs>
      <g>
       <use style="stroke:#000000;stroke-width:0.8;" x="72" xlink:href="#m5211a873ba" y="384.48"/>
      </g>
     </g>
     <g id="text_8">
      <!-- 1 -->
      <g transform="translate(57.365 389.039062)scale(0.12 -0.12)">
       <use xlink:href="#DejaVuSans-49"/>
      </g>
     </g>
    </g>
    <g id="ytick_2">
     <g id="line2d_8">
      <g>
       <use style="stroke:#000000;stroke-width:0.8;" x="72" xlink:href="#m5211a873ba" y="314.450526"/>
      </g>
     </g>
     <g id="text_9">
      <!-- 5 -->
      <g transform="translate(57.365 319.009589)scale(0.12 -0.12)">
       <use xlink:href="#DejaVuSans-53"/>
      </g>
     </g>
    </g>
    <g id="ytick_3">
     <g id="line2d_9">
      <g>
       <use style="stroke:#000000;stroke-width:0.8;" x="72" xlink:href="#m5211a873ba" y="226.913684"/>
      </g>
     </g>
     <g id="text_10">
      <!-- 10 -->
      <g transform="translate(49.73 231.472747)scale(0.12 -0.12)">
       <use xlink:href="#DejaVuSans-49"/>
       <use x="63.623047" xlink:href="#DejaVuSans-48"/>
      </g>
     </g>
    </g>
    <g id="ytick_4">
     <g id="line2d_10">
      <g>
       <use style="stroke:#000000;stroke-width:0.8;" x="72" xlink:href="#m5211a873ba" y="139.376842"/>
      </g>
     </g>
     <g id="text_11">
      <!-- 15 -->
      <g transform="translate(49.73 143.935905)scale(0.12 -0.12)">
       <use xlink:href="#DejaVuSans-49"/>
       <use x="63.623047" xlink:href="#DejaVuSans-53"/>
      </g>
     </g>
    </g>
    <g id="ytick_5">
     <g id="line2d_11">
      <g>
       <use style="stroke:#000000;stroke-width:0.8;" x="72" xlink:href="#m5211a873ba" y="51.84"/>
      </g>
     </g>
     <g id="text_12">
      <!-- 20 -->
      <defs>
       <path d="M 19.1875 8.296875 
L 53.609375 8.296875 
L 53.609375 0 
L 7.328125 0 
L 7.328125 8.296875 
Q 12.9375 14.109375 22.625 23.890625 
Q 32.328125 33.6875 34.8125 36.53125 
Q 39.546875 41.84375 41.421875 45.53125 
Q 43.3125 49.21875 43.3125 52.78125 
Q 43.3125 58.59375 39.234375 62.25 
Q 35.15625 65.921875 28.609375 65.921875 
Q 23.96875 65.921875 18.8125 64.3125 
Q 13.671875 62.703125 7.8125 59.421875 
L 7.8125 69.390625 
Q 13.765625 71.78125 18.9375 73 
Q 24.125 74.21875 28.421875 74.21875 
Q 39.75 74.21875 46.484375 68.546875 
Q 53.21875 62.890625 53.21875 53.421875 
Q 53.21875 48.921875 51.53125 44.890625 
Q 49.859375 40.875 45.40625 35.40625 
Q 44.1875 33.984375 37.640625 27.21875 
Q 31.109375 20.453125 19.1875 8.296875 
z
" id="DejaVuSans-50"/>
      </defs>
      <g transform="translate(49.73 56.399062)scale(0.12 -0.12)">
       <use xlink:href="#DejaVuSans-50"/>
       <use x="63.623047" xlink:href="#DejaVuSans-48"/>
      </g>
     </g>
    </g>
    <g id="text_13">
     <!-- Number of neighbors - K -->
     <defs>
      <path d="M 9.8125 72.90625 
L 23.09375 72.90625 
L 55.421875 11.921875 
L 55.421875 72.90625 
L 64.984375 72.90625 
L 64.984375 0 
L 51.703125 0 
L 19.390625 60.984375 
L 19.390625 0 
L 9.8125 0 
z
" id="DejaVuSans-78"/>
      <path d="M 8.5 21.578125 
L 8.5 54.6875 
L 17.484375 54.6875 
L 17.484375 21.921875 
Q 17.484375 14.15625 20.5 10.265625 
Q 23.53125 6.390625 29.59375 6.390625 
Q 36.859375 6.390625 41.078125 11.03125 
Q 45.3125 15.671875 45.3125 23.6875 
L 45.3125 54.6875 
L 54.296875 54.6875 
L 54.296875 0 
L 45.3125 0 
L 45.3125 8.40625 
Q 42.046875 3.421875 37.71875 1 
Q 33.40625 -1.421875 27.6875 -1.421875 
Q 18.265625 -1.421875 13.375 4.4375 
Q 8.5 10.296875 8.5 21.578125 
z
M 31.109375 56 
z
" id="DejaVuSans-117"/>
      <path d="M 52 44.1875 
Q 55.375 50.25 60.0625 53.125 
Q 64.75 56 71.09375 56 
Q 79.640625 56 84.28125 50.015625 
Q 88.921875 44.046875 88.921875 33.015625 
L 88.921875 0 
L 79.890625 0 
L 79.890625 32.71875 
Q 79.890625 40.578125 77.09375 44.375 
Q 74.3125 48.1875 68.609375 48.1875 
Q 61.625 48.1875 57.5625 43.546875 
Q 53.515625 38.921875 53.515625 30.90625 
L 53.515625 0 
L 44.484375 0 
L 44.484375 32.71875 
Q 44.484375 40.625 41.703125 44.40625 
Q 38.921875 48.1875 33.109375 48.1875 
Q 26.21875 48.1875 22.15625 43.53125 
Q 18.109375 38.875 18.109375 30.90625 
L 18.109375 0 
L 9.078125 0 
L 9.078125 54.6875 
L 18.109375 54.6875 
L 18.109375 46.1875 
Q 21.1875 51.21875 25.484375 53.609375 
Q 29.78125 56 35.6875 56 
Q 41.65625 56 45.828125 52.96875 
Q 50 49.953125 52 44.1875 
z
" id="DejaVuSans-109"/>
      <path d="M 48.6875 27.296875 
Q 48.6875 37.203125 44.609375 42.84375 
Q 40.53125 48.484375 33.40625 48.484375 
Q 26.265625 48.484375 22.1875 42.84375 
Q 18.109375 37.203125 18.109375 27.296875 
Q 18.109375 17.390625 22.1875 11.75 
Q 26.265625 6.109375 33.40625 6.109375 
Q 40.53125 6.109375 44.609375 11.75 
Q 48.6875 17.390625 48.6875 27.296875 
z
M 18.109375 46.390625 
Q 20.953125 51.265625 25.265625 53.625 
Q 29.59375 56 35.59375 56 
Q 45.5625 56 51.78125 48.09375 
Q 58.015625 40.1875 58.015625 27.296875 
Q 58.015625 14.40625 51.78125 6.484375 
Q 45.5625 -1.421875 35.59375 -1.421875 
Q 29.59375 -1.421875 25.265625 0.953125 
Q 20.953125 3.328125 18.109375 8.203125 
L 18.109375 0 
L 9.078125 0 
L 9.078125 75.984375 
L 18.109375 75.984375 
z
" id="DejaVuSans-98"/>
      <path d="M 56.203125 29.59375 
L 56.203125 25.203125 
L 14.890625 25.203125 
Q 15.484375 15.921875 20.484375 11.0625 
Q 25.484375 6.203125 34.421875 6.203125 
Q 39.59375 6.203125 44.453125 7.46875 
Q 49.3125 8.734375 54.109375 11.28125 
L 54.109375 2.78125 
Q 49.265625 0.734375 44.1875 -0.34375 
Q 39.109375 -1.421875 33.890625 -1.421875 
Q 20.796875 -1.421875 13.15625 6.1875 
Q 5.515625 13.8125 5.515625 26.8125 
Q 5.515625 40.234375 12.765625 48.109375 
Q 20.015625 56 32.328125 56 
Q 43.359375 56 49.78125 48.890625 
Q 56.203125 41.796875 56.203125 29.59375 
z
M 47.21875 32.234375 
Q 47.125 39.59375 43.09375 43.984375 
Q 39.0625 48.390625 32.421875 48.390625 
Q 24.90625 48.390625 20.390625 44.140625 
Q 15.875 39.890625 15.1875 32.171875 
z
" id="DejaVuSans-101"/>
      <path d="M 54.890625 33.015625 
L 54.890625 0 
L 45.90625 0 
L 45.90625 32.71875 
Q 45.90625 40.484375 42.875 44.328125 
Q 39.84375 48.1875 33.796875 48.1875 
Q 26.515625 48.1875 22.3125 43.546875 
Q 18.109375 38.921875 18.109375 30.90625 
L 18.109375 0 
L 9.078125 0 
L 9.078125 75.984375 
L 18.109375 75.984375 
L 18.109375 46.1875 
Q 21.34375 51.125 25.703125 53.5625 
Q 30.078125 56 35.796875 56 
Q 45.21875 56 50.046875 50.171875 
Q 54.890625 44.34375 54.890625 33.015625 
z
" id="DejaVuSans-104"/>
      <path d="M 44.28125 53.078125 
L 44.28125 44.578125 
Q 40.484375 46.53125 36.375 47.5 
Q 32.28125 48.484375 27.875 48.484375 
Q 21.1875 48.484375 17.84375 46.4375 
Q 14.5 44.390625 14.5 40.28125 
Q 14.5 37.15625 16.890625 35.375 
Q 19.28125 33.59375 26.515625 31.984375 
L 29.59375 31.296875 
Q 39.15625 29.25 43.1875 25.515625 
Q 47.21875 21.78125 47.21875 15.09375 
Q 47.21875 7.46875 41.1875 3.015625 
Q 35.15625 -1.421875 24.609375 -1.421875 
Q 20.21875 -1.421875 15.453125 -0.5625 
Q 10.6875 0.296875 5.421875 2 
L 5.421875 11.28125 
Q 10.40625 8.6875 15.234375 7.390625 
Q 20.0625 6.109375 24.8125 6.109375 
Q 31.15625 6.109375 34.5625 8.28125 
Q 37.984375 10.453125 37.984375 14.40625 
Q 37.984375 18.0625 35.515625 20.015625 
Q 33.0625 21.96875 24.703125 23.78125 
L 21.578125 24.515625 
Q 13.234375 26.265625 9.515625 29.90625 
Q 5.8125 33.546875 5.8125 39.890625 
Q 5.8125 47.609375 11.28125 51.796875 
Q 16.75 56 26.8125 56 
Q 31.78125 56 36.171875 55.265625 
Q 40.578125 54.546875 44.28125 53.078125 
z
" id="DejaVuSans-115"/>
      <path d="M 4.890625 31.390625 
L 31.203125 31.390625 
L 31.203125 23.390625 
L 4.890625 23.390625 
z
" id="DejaVuSans-45"/>
      <path d="M 9.8125 72.90625 
L 19.671875 72.90625 
L 19.671875 42.09375 
L 52.390625 72.90625 
L 65.09375 72.90625 
L 28.90625 38.921875 
L 67.671875 0 
L 54.6875 0 
L 19.671875 35.109375 
L 19.671875 0 
L 9.8125 0 
z
" id="DejaVuSans-75"/>
     </defs>
     <g transform="translate(42.818438 303.861875)rotate(-90)scale(0.14 -0.14)">
      <use xlink:href="#DejaVuSans-78"/>
      <use x="74.804688" xlink:href="#DejaVuSans-117"/>
      <use x="138.183594" xlink:href="#DejaVuSans-109"/>
      <use x="235.595703" xlink:href="#DejaVuSans-98"/>
      <use x="299.072266" xlink:href="#DejaVuSans-101"/>
      <use x="360.595703" xlink:href="#DejaVuSans-114"/>
      <use x="401.708984" xlink:href="#DejaVuSans-32"/>
      <use x="433.496094" xlink:href="#DejaVuSans-111"/>
      <use x="494.677734" xlink:href="#DejaVuSans-102"/>
      <use x="529.882812" xlink:href="#DejaVuSans-32"/>
      <use x="561.669922" xlink:href="#DejaVuSans-110"/>
      <use x="625.048828" xlink:href="#DejaVuSans-101"/>
      <use x="686.572266" xlink:href="#DejaVuSans-105"/>
      <use x="714.355469" xlink:href="#DejaVuSans-103"/>
      <use x="777.832031" xlink:href="#DejaVuSans-104"/>
      <use x="841.210938" xlink:href="#DejaVuSans-98"/>
      <use x="904.6875" xlink:href="#DejaVuSans-111"/>
      <use x="965.869141" xlink:href="#DejaVuSans-114"/>
      <use x="1006.982422" xlink:href="#DejaVuSans-115"/>
      <use x="1059.082031" xlink:href="#DejaVuSans-32"/>
      <use x="1090.869141" xlink:href="#DejaVuSans-45"/>
      <use x="1126.953125" xlink:href="#DejaVuSans-32"/>
      <use x="1158.740234" xlink:href="#DejaVuSans-75"/>
     </g>
    </g>
   </g>
   <g id="patch_3">
    <path d="M 72 384.48 
L 72 51.84 
" style="fill:none;stroke:#000000;stroke-linecap:square;stroke-linejoin:miter;stroke-width:0.8;"/>
   </g>
   <g id="patch_4">
    <path d="M 518.4 384.48 
L 518.4 51.84 
" style="fill:none;stroke:#000000;stroke-linecap:square;stroke-linejoin:miter;stroke-width:0.8;"/>
   </g>
   <g id="patch_5">
    <path d="M 72 384.48 
L 518.4 384.48 
" style="fill:none;stroke:#000000;stroke-linecap:square;stroke-linejoin:miter;stroke-width:0.8;"/>
   </g>
   <g id="patch_6">
    <path d="M 72 51.84 
L 518.4 51.84 
" style="fill:none;stroke:#000000;stroke-linecap:square;stroke-linejoin:miter;stroke-width:0.8;"/>
   </g>
  </g>
 </g>
 <defs>
  <clipPath id="p7eae6b906d">
   <rect height="332.64" width="446.4" x="72" y="51.84"/>
  </clipPath>
 </defs>
</svg>
