<?xml version="1.0" encoding="utf-8" standalone="no"?>
<!DOCTYPE svg PUBLIC "-//W3C//DTD SVG 1.1//EN"
  "http://www.w3.org/Graphics/SVG/1.1/DTD/svg11.dtd">
<svg height="432pt" version="1.1" viewBox="0 0 576 432" width="576pt" xmlns="http://www.w3.org/2000/svg" xmlns:xlink="http://www.w3.org/1999/xlink">
 <metadata>
  <rdf:RDF xmlns:cc="http://creativecommons.org/ns#" xmlns:dc="http://purl.org/dc/elements/1.1/" xmlns:rdf="http://www.w3.org/1999/02/22-rdf-syntax-ns#">
   <cc:Work>
    <dc:type rdf:resource="http://purl.org/dc/dcmitype/StillImage"/>
    <dc:date>2022-01-13T09:41:28.029490</dc:date>
    <dc:format>image/svg+xml</dc:format>
    <dc:creator>
     <cc:Agent>
      <dc:title>Matplotlib v3.4.2, https://matplotlib.org/</dc:title>
     </cc:Agent>
    </dc:creator>
   </cc:Work>
  </rdf:RDF>
 </metadata>
 <defs>
  <style type="text/css">*{stroke-linecap:butt;stroke-linejoin:round;}</style>
 </defs>
 <g id="figure_1">
  <g id="patch_1">
   <path d="M 0 432 
L 576 432 
L 576 0 
L 0 0 
z
" style="fill:#ffffff;"/>
  </g>
  <g id="axes_1">
   <g id="patch_2">
    <path d="M 72 384.48 
L 518.4 384.48 
L 518.4 51.84 
L 72 51.84 
z
" style="fill:#ffffff;"/>
   </g>
   <g id="PathCollection_1">
    <path clip-path="url(#p35f587582d)" d="M 72 362.236665 
L 103.508717 362.236665 
L 121.6 360.244325 
L 134.088493 358.281418 
L 171.2 357.685296 
L 218.692208 349.465263 
L 171.2 329.806546 
L 150.570113 329.014036 
L 121.6 322.168812 
L 84.826852 323.505543 
L 72 323.505543 
L 72 349.465263 
M 419.2 350.354448 
L 420.388699 350.304416 
L 421.350861 349.465263 
L 422.572042 316.830993 
L 468.8 318.831096 
L 472.907315 317.350054 
L 494.915834 314.450526 
L 475.224118 309.91547 
L 468.8 306.988939 
L 425.220177 310.200629 
L 419.2 309.678997 
L 410.107092 308.031458 
L 369.6 303.463333 
L 329.382642 307.826923 
L 320 309.517903 
L 317.420836 312.629786 
L 310.503171 314.450526 
L 270.4 345.122226 
L 237.576923 349.465263 
L 270.4 350.528248 
L 271.914459 350.534384 
L 280.401703 349.465263 
L 320 324.848901 
L 339.365922 328.121749 
L 369.6 333.940917 
L 400.287119 327.801929 
L 405.464099 349.465263 
L 417.913051 350.373775 
" style="fill:#48186a;"/>
   </g>
   <g id="PathCollection_2">
    <path clip-path="url(#p35f587582d)" d="M 518.4 219.761764 
L 478.518986 191.898947 
L 483.202569 181.731565 
L 468.8 182.855778 
L 437.602981 191.898947 
L 425.722437 198.805644 
L 419.2 198.805644 
L 413.170294 198.283884 
L 369.6 211.505969 
L 344.328256 217.660464 
L 320 229.125872 
L 271.382558 244.421053 
L 270.4 246.099528 
L 270.034649 244.67897 
L 268.100328 244.421053 
L 229.207841 235.517877 
L 220.8 237.335607 
L 193.868669 215.903106 
L 206.484313 244.421053 
L 184.758473 253.992552 
L 171.2 269.579423 
L 126.443931 276.016254 
L 121.6 277.796755 
L 120.514967 278.669819 
L 112.721708 279.435789 
L 72 284.502125 
L 72 314.450526 
L 72 323.505543 
L 84.826852 323.505543 
L 121.6 322.168812 
L 150.570113 329.014036 
L 171.2 329.806546 
L 218.692208 349.465263 
L 171.2 357.685296 
L 134.088493 358.281418 
L 121.6 360.244325 
L 103.508717 362.236665 
L 72 362.236665 
L 72 384.48 
L 121.6 384.48 
L 154.740855 384.48 
L 168.20273 382.3641 
L 171.2 382.315955 
L 175.261185 381.613038 
L 182.657391 384.48 
L 220.8 384.48 
L 270.4 384.48 
L 320 384.48 
L 343.625958 384.48 
L 369.6 381.440688 
L 373.501951 381.725448 
L 419.2 381.039181 
L 461.409309 379.262599 
L 468.8 372.816777 
L 499.438457 371.094246 
L 516.739137 349.465263 
L 517.838473 349.068858 
L 518.4 348.994879 
L 518.4 314.450526 
L 518.4 279.435789 
L 518.4 244.421053 
M 417.913051 350.373775 
L 405.464099 349.465263 
L 400.287119 327.801929 
L 369.6 333.940917 
L 339.365922 328.121749 
L 320 324.848901 
L 280.401703 349.465263 
L 271.914459 350.534384 
L 270.4 350.528248 
L 237.576923 349.465263 
L 270.4 345.122226 
L 310.503171 314.450526 
L 317.420836 312.629786 
L 320 309.517903 
L 329.382642 307.826923 
L 369.6 303.463333 
L 410.107092 308.031458 
L 419.2 309.678997 
L 425.220177 310.200629 
L 468.8 306.988939 
L 475.224118 309.91547 
L 494.915834 314.450526 
L 472.907315 317.350054 
L 468.8 318.831096 
L 422.572042 316.830993 
L 421.350861 349.465263 
L 420.388699 350.304416 
L 419.2 350.354448 
" style="fill:#424086;"/>
   </g>
   <g id="PathCollection_3">
    <path clip-path="url(#p35f587582d)" d="M 518.4 348.994879 
L 517.838473 349.068858 
L 516.739137 349.465263 
L 499.438457 371.094246 
L 468.8 372.816777 
L 461.409309 379.262599 
L 419.2 381.039181 
L 373.501951 381.725448 
L 369.6 381.440688 
L 343.625958 384.48 
L 369.6 384.48 
L 419.2 384.48 
L 468.8 384.48 
L 518.4 384.48 
L 518.4 349.465263 
M 518.4 82.864161 
L 509.279149 86.854737 
L 491.511726 102.887905 
L 468.8 101.65817 
L 427.131271 116.270454 
L 419.2 117.144456 
L 416.213585 119.761237 
L 408.642724 121.869474 
L 369.6 134.750569 
L 355.450409 146.895416 
L 324.350589 156.884211 
L 320 161.245535 
L 288.973722 169.996186 
L 270.4 167.41213 
L 248.72311 172.186843 
L 220.8 178.506917 
L 213.706317 186.891216 
L 171.2 177.954856 
L 156.040628 181.197306 
L 143.208744 191.898947 
L 146.238003 217.988459 
L 121.6 226.979375 
L 99.766124 244.421053 
L 86.790173 254.862061 
L 72 256.315732 
L 72 279.435789 
L 72 284.502125 
L 112.721708 279.435789 
L 120.514967 278.669819 
L 121.6 277.796755 
L 126.443931 276.016254 
L 171.2 269.579423 
L 184.758473 253.992552 
L 206.484313 244.421053 
L 193.868669 215.903106 
L 220.8 237.335607 
L 229.207841 235.517877 
L 268.100328 244.421053 
L 270.034649 244.67897 
L 270.4 246.099528 
L 271.382558 244.421053 
L 320 229.125872 
L 344.328256 217.660464 
L 369.6 211.505969 
L 413.170294 198.283884 
L 419.2 198.805644 
L 425.722437 198.805644 
L 437.602981 191.898947 
L 468.8 182.855778 
L 483.202569 181.731565 
L 478.518986 191.898947 
L 518.4 219.761764 
L 518.4 191.898947 
L 518.4 156.884211 
L 518.4 121.869474 
L 518.4 86.854737 
M 182.657391 384.48 
L 175.261185 381.613038 
L 171.2 382.315955 
L 168.20273 382.3641 
L 154.740855 384.48 
L 171.2 384.48 
M 220.8 140.69851 
L 255.89499 146.644511 
L 232.856516 121.869474 
L 220.8 116.053349 
L 212.43289 121.869474 
L 208.962929 130.225763 
" style="fill:#33638d;"/>
   </g>
   <g id="PathCollection_4">
    <path clip-path="url(#p35f587582d)" d="M 433.596578 51.84 
L 423.080922 54.579707 
L 419.2 54.931867 
L 374.956483 86.854737 
L 372.566495 88.948911 
L 369.6 89.774983 
L 325.298253 121.869474 
L 322.90718 123.921775 
L 320 124.855517 
L 315.149205 125.293855 
L 270.4 131.777434 
L 261.186521 121.869474 
L 220.8 102.386812 
L 192.77213 121.869474 
L 181.14857 149.861095 
L 189.086612 156.884211 
L 182.398206 164.789497 
L 171.2 162.435231 
L 139.168409 169.286493 
L 121.6 183.938342 
L 101.096802 191.898947 
L 72 214.821834 
L 72 244.421053 
L 72 256.315732 
L 86.790173 254.862061 
L 99.766124 244.421053 
L 121.6 226.979375 
L 146.238003 217.988459 
L 143.208744 191.898947 
L 156.040628 181.197306 
L 171.2 177.954856 
L 213.706317 186.891216 
L 220.8 178.506917 
L 248.72311 172.186843 
L 270.4 167.41213 
L 288.973722 169.996186 
L 320 161.245535 
L 324.350589 156.884211 
L 355.450409 146.895416 
L 369.6 134.750569 
L 408.642724 121.869474 
L 416.213585 119.761237 
L 419.2 117.144456 
L 427.131271 116.270454 
L 468.8 101.65817 
L 491.511726 102.887905 
L 509.279149 86.854737 
L 518.4 82.864161 
L 518.4 51.84 
L 468.8 51.84 
M 208.962929 130.225763 
L 212.43289 121.869474 
L 220.8 116.053349 
L 232.856516 121.869474 
L 255.89499 146.644511 
L 220.8 140.69851 
" style="fill:#26818e;"/>
   </g>
   <g id="PathCollection_5">
    <path clip-path="url(#p35f587582d)" d="M 301.681773 51.84 
L 270.4 77.494471 
L 252.145036 86.854737 
L 229.145538 92.746205 
L 220.8 88.720275 
L 173.11137 121.869474 
L 171.2 126.472395 
L 124.593954 156.884211 
L 122.296191 157.375681 
L 121.6 157.956296 
L 118.225274 159.266573 
L 107.833507 156.884211 
L 72 153.619029 
L 72 156.884211 
L 72 191.898947 
L 72 214.821834 
L 101.096802 191.898947 
L 121.6 183.938342 
L 139.168409 169.286493 
L 171.2 162.435231 
L 182.398206 164.789497 
L 189.086612 156.884211 
L 181.14857 149.861095 
L 192.77213 121.869474 
L 220.8 102.386812 
L 261.186521 121.869474 
L 270.4 131.777434 
L 315.149205 125.293855 
L 320 124.855517 
L 322.90718 123.921775 
L 325.298253 121.869474 
L 369.6 89.774983 
L 372.566495 88.948911 
L 374.956483 86.854737 
L 419.2 54.931867 
L 423.080922 54.579707 
L 433.596578 51.84 
L 419.2 51.84 
L 369.6 51.84 
L 320 51.84 
" style="fill:#1fa088;"/>
   </g>
   <g id="PathCollection_6">
    <path clip-path="url(#p35f587582d)" d="M 206.710566 51.84 
L 193.567392 67.630088 
L 171.2 76.452658 
L 155.114164 86.854737 
L 141.881261 101.172136 
L 121.6 115.697888 
L 84.363096 121.869474 
L 74.193699 123.418098 
L 72 123.218206 
L 72 153.619029 
L 107.833507 156.884211 
L 118.225274 159.266573 
L 121.6 157.956296 
L 122.296191 157.375681 
L 124.593954 156.884211 
L 171.2 126.472395 
L 173.11137 121.869474 
L 220.8 88.720275 
L 229.145538 92.746205 
L 252.145036 86.854737 
L 270.4 77.494471 
L 301.681773 51.84 
L 270.4 51.84 
L 220.8 51.84 
" style="fill:#3dbc74;"/>
   </g>
   <g id="PathCollection_7">
    <path clip-path="url(#p35f587582d)" d="M 117.825528 51.84 
L 104.869726 75.044129 
L 94.323848 86.854737 
L 72 95.375083 
L 72 121.869474 
L 72 123.218206 
L 74.193699 123.418098 
L 84.363096 121.869474 
L 121.6 115.697888 
L 141.881261 101.172136 
L 155.114164 86.854737 
L 171.2 76.452658 
L 193.567392 67.630088 
L 206.710566 51.84 
L 171.2 51.84 
L 121.6 51.84 
" style="fill:#84d44b;"/>
   </g>
   <g id="PathCollection_8">
    <path clip-path="url(#p35f587582d)" d="M 72 95.375083 
L 94.323848 86.854737 
L 104.869726 75.044129 
L 117.825528 51.84 
L 72 51.84 
L 72 86.854737 
" style="fill:#d8e219;"/>
   </g>
   <g id="matplotlib.axis_1">
    <g id="xtick_1">
     <g id="line2d_1">
      <defs>
       <path d="M 0 0 
L 0 3.5 
" id="mf8694c50d1" style="stroke:#000000;stroke-width:0.8;"/>
      </defs>
      <g>
       <use style="stroke:#000000;stroke-width:0.8;" x="72" xlink:href="#mf8694c50d1" y="384.48"/>
      </g>
     </g>
     <g id="text_1">
      <!-- 0.5 -->
      <g transform="translate(62.458125 400.598125)scale(0.12 -0.12)">
       <defs>
        <path d="M 2034 4250 
Q 1547 4250 1301 3770 
Q 1056 3291 1056 2328 
Q 1056 1369 1301 889 
Q 1547 409 2034 409 
Q 2525 409 2770 889 
Q 3016 1369 3016 2328 
Q 3016 3291 2770 3770 
Q 2525 4250 2034 4250 
z
M 2034 4750 
Q 2819 4750 3233 4129 
Q 3647 3509 3647 2328 
Q 3647 1150 3233 529 
Q 2819 -91 2034 -91 
Q 1250 -91 836 529 
Q 422 1150 422 2328 
Q 422 3509 836 4129 
Q 1250 4750 2034 4750 
z
" id="DejaVuSans-30" transform="scale(0.015625)"/>
        <path d="M 684 794 
L 1344 794 
L 1344 0 
L 684 0 
L 684 794 
z
" id="DejaVuSans-2e" transform="scale(0.015625)"/>
        <path d="M 691 4666 
L 3169 4666 
L 3169 4134 
L 1269 4134 
L 1269 2991 
Q 1406 3038 1543 3061 
Q 1681 3084 1819 3084 
Q 2600 3084 3056 2656 
Q 3513 2228 3513 1497 
Q 3513 744 3044 326 
Q 2575 -91 1722 -91 
Q 1428 -91 1123 -41 
Q 819 9 494 109 
L 494 744 
Q 775 591 1075 516 
Q 1375 441 1709 441 
Q 2250 441 2565 725 
Q 2881 1009 2881 1497 
Q 2881 1984 2565 2268 
Q 2250 2553 1709 2553 
Q 1456 2553 1204 2497 
Q 953 2441 691 2322 
L 691 4666 
z
" id="DejaVuSans-35" transform="scale(0.015625)"/>
       </defs>
       <use xlink:href="#DejaVuSans-30"/>
       <use x="63.623047" xlink:href="#DejaVuSans-2e"/>
       <use x="95.410156" xlink:href="#DejaVuSans-35"/>
      </g>
     </g>
    </g>
    <g id="xtick_2">
     <g id="line2d_2">
      <g>
       <use style="stroke:#000000;stroke-width:0.8;" x="161.28" xlink:href="#mf8694c50d1" y="384.48"/>
      </g>
     </g>
     <g id="text_2">
      <!-- 0.6 -->
      <g transform="translate(151.738125 400.598125)scale(0.12 -0.12)">
       <defs>
        <path d="M 2113 2584 
Q 1688 2584 1439 2293 
Q 1191 2003 1191 1497 
Q 1191 994 1439 701 
Q 1688 409 2113 409 
Q 2538 409 2786 701 
Q 3034 994 3034 1497 
Q 3034 2003 2786 2293 
Q 2538 2584 2113 2584 
z
M 3366 4563 
L 3366 3988 
Q 3128 4100 2886 4159 
Q 2644 4219 2406 4219 
Q 1781 4219 1451 3797 
Q 1122 3375 1075 2522 
Q 1259 2794 1537 2939 
Q 1816 3084 2150 3084 
Q 2853 3084 3261 2657 
Q 3669 2231 3669 1497 
Q 3669 778 3244 343 
Q 2819 -91 2113 -91 
Q 1303 -91 875 529 
Q 447 1150 447 2328 
Q 447 3434 972 4092 
Q 1497 4750 2381 4750 
Q 2619 4750 2861 4703 
Q 3103 4656 3366 4563 
z
" id="DejaVuSans-36" transform="scale(0.015625)"/>
       </defs>
       <use xlink:href="#DejaVuSans-30"/>
       <use x="63.623047" xlink:href="#DejaVuSans-2e"/>
       <use x="95.410156" xlink:href="#DejaVuSans-36"/>
      </g>
     </g>
    </g>
    <g id="xtick_3">
     <g id="line2d_3">
      <g>
       <use style="stroke:#000000;stroke-width:0.8;" x="250.56" xlink:href="#mf8694c50d1" y="384.48"/>
      </g>
     </g>
     <g id="text_3">
      <!-- 0.7 -->
      <g transform="translate(241.018125 400.598125)scale(0.12 -0.12)">
       <defs>
        <path d="M 525 4666 
L 3525 4666 
L 3525 4397 
L 1831 0 
L 1172 0 
L 2766 4134 
L 525 4134 
L 525 4666 
z
" id="DejaVuSans-37" transform="scale(0.015625)"/>
       </defs>
       <use xlink:href="#DejaVuSans-30"/>
       <use x="63.623047" xlink:href="#DejaVuSans-2e"/>
       <use x="95.410156" xlink:href="#DejaVuSans-37"/>
      </g>
     </g>
    </g>
    <g id="xtick_4">
     <g id="line2d_4">
      <g>
       <use style="stroke:#000000;stroke-width:0.8;" x="339.84" xlink:href="#mf8694c50d1" y="384.48"/>
      </g>
     </g>
     <g id="text_4">
      <!-- 0.8 -->
      <g transform="translate(330.298125 400.598125)scale(0.12 -0.12)">
       <defs>
        <path d="M 2034 2216 
Q 1584 2216 1326 1975 
Q 1069 1734 1069 1313 
Q 1069 891 1326 650 
Q 1584 409 2034 409 
Q 2484 409 2743 651 
Q 3003 894 3003 1313 
Q 3003 1734 2745 1975 
Q 2488 2216 2034 2216 
z
M 1403 2484 
Q 997 2584 770 2862 
Q 544 3141 544 3541 
Q 544 4100 942 4425 
Q 1341 4750 2034 4750 
Q 2731 4750 3128 4425 
Q 3525 4100 3525 3541 
Q 3525 3141 3298 2862 
Q 3072 2584 2669 2484 
Q 3125 2378 3379 2068 
Q 3634 1759 3634 1313 
Q 3634 634 3220 271 
Q 2806 -91 2034 -91 
Q 1263 -91 848 271 
Q 434 634 434 1313 
Q 434 1759 690 2068 
Q 947 2378 1403 2484 
z
M 1172 3481 
Q 1172 3119 1398 2916 
Q 1625 2713 2034 2713 
Q 2441 2713 2670 2916 
Q 2900 3119 2900 3481 
Q 2900 3844 2670 4047 
Q 2441 4250 2034 4250 
Q 1625 4250 1398 4047 
Q 1172 3844 1172 3481 
z
" id="DejaVuSans-38" transform="scale(0.015625)"/>
       </defs>
       <use xlink:href="#DejaVuSans-30"/>
       <use x="63.623047" xlink:href="#DejaVuSans-2e"/>
       <use x="95.410156" xlink:href="#DejaVuSans-38"/>
      </g>
     </g>
    </g>
    <g id="xtick_5">
     <g id="line2d_5">
      <g>
       <use style="stroke:#000000;stroke-width:0.8;" x="429.12" xlink:href="#mf8694c50d1" y="384.48"/>
      </g>
     </g>
     <g id="text_5">
      <!-- 0.9 -->
      <g transform="translate(419.578125 400.598125)scale(0.12 -0.12)">
       <defs>
        <path d="M 703 97 
L 703 672 
Q 941 559 1184 500 
Q 1428 441 1663 441 
Q 2288 441 2617 861 
Q 2947 1281 2994 2138 
Q 2813 1869 2534 1725 
Q 2256 1581 1919 1581 
Q 1219 1581 811 2004 
Q 403 2428 403 3163 
Q 403 3881 828 4315 
Q 1253 4750 1959 4750 
Q 2769 4750 3195 4129 
Q 3622 3509 3622 2328 
Q 3622 1225 3098 567 
Q 2575 -91 1691 -91 
Q 1453 -91 1209 -44 
Q 966 3 703 97 
z
M 1959 2075 
Q 2384 2075 2632 2365 
Q 2881 2656 2881 3163 
Q 2881 3666 2632 3958 
Q 2384 4250 1959 4250 
Q 1534 4250 1286 3958 
Q 1038 3666 1038 3163 
Q 1038 2656 1286 2365 
Q 1534 2075 1959 2075 
z
" id="DejaVuSans-39" transform="scale(0.015625)"/>
       </defs>
       <use xlink:href="#DejaVuSans-30"/>
       <use x="63.623047" xlink:href="#DejaVuSans-2e"/>
       <use x="95.410156" xlink:href="#DejaVuSans-39"/>
      </g>
     </g>
    </g>
    <g id="xtick_6">
     <g id="line2d_6">
      <g>
       <use style="stroke:#000000;stroke-width:0.8;" x="518.4" xlink:href="#mf8694c50d1" y="384.48"/>
      </g>
     </g>
     <g id="text_6">
      <!-- 1.0 -->
      <g transform="translate(508.858125 400.598125)scale(0.12 -0.12)">
       <defs>
        <path d="M 794 531 
L 1825 531 
L 1825 4091 
L 703 3866 
L 703 4441 
L 1819 4666 
L 2450 4666 
L 2450 531 
L 3481 531 
L 3481 0 
L 794 0 
L 794 531 
z
" id="DejaVuSans-31" transform="scale(0.015625)"/>
       </defs>
       <use xlink:href="#DejaVuSans-31"/>
       <use x="63.623047" xlink:href="#DejaVuSans-2e"/>
       <use x="95.410156" xlink:href="#DejaVuSans-30"/>
      </g>
     </g>
    </g>
    <g id="text_7">
     <!-- Bagging fraction -->
     <g transform="translate(237.281562 417.731562)scale(0.14 -0.14)">
      <defs>
       <path d="M 1259 2228 
L 1259 519 
L 2272 519 
Q 2781 519 3026 730 
Q 3272 941 3272 1375 
Q 3272 1813 3026 2020 
Q 2781 2228 2272 2228 
L 1259 2228 
z
M 1259 4147 
L 1259 2741 
L 2194 2741 
Q 2656 2741 2882 2914 
Q 3109 3088 3109 3444 
Q 3109 3797 2882 3972 
Q 2656 4147 2194 4147 
L 1259 4147 
z
M 628 4666 
L 2241 4666 
Q 2963 4666 3353 4366 
Q 3744 4066 3744 3513 
Q 3744 3084 3544 2831 
Q 3344 2578 2956 2516 
Q 3422 2416 3680 2098 
Q 3938 1781 3938 1306 
Q 3938 681 3513 340 
Q 3088 0 2303 0 
L 628 0 
L 628 4666 
z
" id="DejaVuSans-42" transform="scale(0.015625)"/>
       <path d="M 2194 1759 
Q 1497 1759 1228 1600 
Q 959 1441 959 1056 
Q 959 750 1161 570 
Q 1363 391 1709 391 
Q 2188 391 2477 730 
Q 2766 1069 2766 1631 
L 2766 1759 
L 2194 1759 
z
M 3341 1997 
L 3341 0 
L 2766 0 
L 2766 531 
Q 2569 213 2275 61 
Q 1981 -91 1556 -91 
Q 1019 -91 701 211 
Q 384 513 384 1019 
Q 384 1609 779 1909 
Q 1175 2209 1959 2209 
L 2766 2209 
L 2766 2266 
Q 2766 2663 2505 2880 
Q 2244 3097 1772 3097 
Q 1472 3097 1187 3025 
Q 903 2953 641 2809 
L 641 3341 
Q 956 3463 1253 3523 
Q 1550 3584 1831 3584 
Q 2591 3584 2966 3190 
Q 3341 2797 3341 1997 
z
" id="DejaVuSans-61" transform="scale(0.015625)"/>
       <path d="M 2906 1791 
Q 2906 2416 2648 2759 
Q 2391 3103 1925 3103 
Q 1463 3103 1205 2759 
Q 947 2416 947 1791 
Q 947 1169 1205 825 
Q 1463 481 1925 481 
Q 2391 481 2648 825 
Q 2906 1169 2906 1791 
z
M 3481 434 
Q 3481 -459 3084 -895 
Q 2688 -1331 1869 -1331 
Q 1566 -1331 1297 -1286 
Q 1028 -1241 775 -1147 
L 775 -588 
Q 1028 -725 1275 -790 
Q 1522 -856 1778 -856 
Q 2344 -856 2625 -561 
Q 2906 -266 2906 331 
L 2906 616 
Q 2728 306 2450 153 
Q 2172 0 1784 0 
Q 1141 0 747 490 
Q 353 981 353 1791 
Q 353 2603 747 3093 
Q 1141 3584 1784 3584 
Q 2172 3584 2450 3431 
Q 2728 3278 2906 2969 
L 2906 3500 
L 3481 3500 
L 3481 434 
z
" id="DejaVuSans-67" transform="scale(0.015625)"/>
       <path d="M 603 3500 
L 1178 3500 
L 1178 0 
L 603 0 
L 603 3500 
z
M 603 4863 
L 1178 4863 
L 1178 4134 
L 603 4134 
L 603 4863 
z
" id="DejaVuSans-69" transform="scale(0.015625)"/>
       <path d="M 3513 2113 
L 3513 0 
L 2938 0 
L 2938 2094 
Q 2938 2591 2744 2837 
Q 2550 3084 2163 3084 
Q 1697 3084 1428 2787 
Q 1159 2491 1159 1978 
L 1159 0 
L 581 0 
L 581 3500 
L 1159 3500 
L 1159 2956 
Q 1366 3272 1645 3428 
Q 1925 3584 2291 3584 
Q 2894 3584 3203 3211 
Q 3513 2838 3513 2113 
z
" id="DejaVuSans-6e" transform="scale(0.015625)"/>
       <path id="DejaVuSans-20" transform="scale(0.015625)"/>
       <path d="M 2375 4863 
L 2375 4384 
L 1825 4384 
Q 1516 4384 1395 4259 
Q 1275 4134 1275 3809 
L 1275 3500 
L 2222 3500 
L 2222 3053 
L 1275 3053 
L 1275 0 
L 697 0 
L 697 3053 
L 147 3053 
L 147 3500 
L 697 3500 
L 697 3744 
Q 697 4328 969 4595 
Q 1241 4863 1831 4863 
L 2375 4863 
z
" id="DejaVuSans-66" transform="scale(0.015625)"/>
       <path d="M 2631 2963 
Q 2534 3019 2420 3045 
Q 2306 3072 2169 3072 
Q 1681 3072 1420 2755 
Q 1159 2438 1159 1844 
L 1159 0 
L 581 0 
L 581 3500 
L 1159 3500 
L 1159 2956 
Q 1341 3275 1631 3429 
Q 1922 3584 2338 3584 
Q 2397 3584 2469 3576 
Q 2541 3569 2628 3553 
L 2631 2963 
z
" id="DejaVuSans-72" transform="scale(0.015625)"/>
       <path d="M 3122 3366 
L 3122 2828 
Q 2878 2963 2633 3030 
Q 2388 3097 2138 3097 
Q 1578 3097 1268 2742 
Q 959 2388 959 1747 
Q 959 1106 1268 751 
Q 1578 397 2138 397 
Q 2388 397 2633 464 
Q 2878 531 3122 666 
L 3122 134 
Q 2881 22 2623 -34 
Q 2366 -91 2075 -91 
Q 1284 -91 818 406 
Q 353 903 353 1747 
Q 353 2603 823 3093 
Q 1294 3584 2113 3584 
Q 2378 3584 2631 3529 
Q 2884 3475 3122 3366 
z
" id="DejaVuSans-63" transform="scale(0.015625)"/>
       <path d="M 1172 4494 
L 1172 3500 
L 2356 3500 
L 2356 3053 
L 1172 3053 
L 1172 1153 
Q 1172 725 1289 603 
Q 1406 481 1766 481 
L 2356 481 
L 2356 0 
L 1766 0 
Q 1100 0 847 248 
Q 594 497 594 1153 
L 594 3053 
L 172 3053 
L 172 3500 
L 594 3500 
L 594 4494 
L 1172 4494 
z
" id="DejaVuSans-74" transform="scale(0.015625)"/>
       <path d="M 1959 3097 
Q 1497 3097 1228 2736 
Q 959 2375 959 1747 
Q 959 1119 1226 758 
Q 1494 397 1959 397 
Q 2419 397 2687 759 
Q 2956 1122 2956 1747 
Q 2956 2369 2687 2733 
Q 2419 3097 1959 3097 
z
M 1959 3584 
Q 2709 3584 3137 3096 
Q 3566 2609 3566 1747 
Q 3566 888 3137 398 
Q 2709 -91 1959 -91 
Q 1206 -91 779 398 
Q 353 888 353 1747 
Q 353 2609 779 3096 
Q 1206 3584 1959 3584 
z
" id="DejaVuSans-6f" transform="scale(0.015625)"/>
      </defs>
      <use xlink:href="#DejaVuSans-42"/>
      <use x="68.603516" xlink:href="#DejaVuSans-61"/>
      <use x="129.882812" xlink:href="#DejaVuSans-67"/>
      <use x="193.359375" xlink:href="#DejaVuSans-67"/>
      <use x="256.835938" xlink:href="#DejaVuSans-69"/>
      <use x="284.619141" xlink:href="#DejaVuSans-6e"/>
      <use x="347.998047" xlink:href="#DejaVuSans-67"/>
      <use x="411.474609" xlink:href="#DejaVuSans-20"/>
      <use x="443.261719" xlink:href="#DejaVuSans-66"/>
      <use x="478.466797" xlink:href="#DejaVuSans-72"/>
      <use x="519.580078" xlink:href="#DejaVuSans-61"/>
      <use x="580.859375" xlink:href="#DejaVuSans-63"/>
      <use x="635.839844" xlink:href="#DejaVuSans-74"/>
      <use x="675.048828" xlink:href="#DejaVuSans-69"/>
      <use x="702.832031" xlink:href="#DejaVuSans-6f"/>
      <use x="764.013672" xlink:href="#DejaVuSans-6e"/>
     </g>
    </g>
   </g>
   <g id="matplotlib.axis_2">
    <g id="ytick_1">
     <g id="line2d_7">
      <defs>
       <path d="M 0 0 
L -3.5 0 
" id="mb9322ee42d" style="stroke:#000000;stroke-width:0.8;"/>
      </defs>
      <g>
       <use style="stroke:#000000;stroke-width:0.8;" x="72" xlink:href="#mb9322ee42d" y="384.48"/>
      </g>
     </g>
     <g id="text_8">
      <!-- 1 -->
      <g transform="translate(57.365 389.039062)scale(0.12 -0.12)">
       <use xlink:href="#DejaVuSans-31"/>
      </g>
     </g>
    </g>
    <g id="ytick_2">
     <g id="line2d_8">
      <g>
       <use style="stroke:#000000;stroke-width:0.8;" x="72" xlink:href="#mb9322ee42d" y="314.450526"/>
      </g>
     </g>
     <g id="text_9">
      <!-- 5 -->
      <g transform="translate(57.365 319.009589)scale(0.12 -0.12)">
       <use xlink:href="#DejaVuSans-35"/>
      </g>
     </g>
    </g>
    <g id="ytick_3">
     <g id="line2d_9">
      <g>
       <use style="stroke:#000000;stroke-width:0.8;" x="72" xlink:href="#mb9322ee42d" y="226.913684"/>
      </g>
     </g>
     <g id="text_10">
      <!-- 10 -->
      <g transform="translate(49.73 231.472747)scale(0.12 -0.12)">
       <use xlink:href="#DejaVuSans-31"/>
       <use x="63.623047" xlink:href="#DejaVuSans-30"/>
      </g>
     </g>
    </g>
    <g id="ytick_4">
     <g id="line2d_10">
      <g>
       <use style="stroke:#000000;stroke-width:0.8;" x="72" xlink:href="#mb9322ee42d" y="139.376842"/>
      </g>
     </g>
     <g id="text_11">
      <!-- 15 -->
      <g transform="translate(49.73 143.935905)scale(0.12 -0.12)">
       <use xlink:href="#DejaVuSans-31"/>
       <use x="63.623047" xlink:href="#DejaVuSans-35"/>
      </g>
     </g>
    </g>
    <g id="ytick_5">
     <g id="line2d_11">
      <g>
       <use style="stroke:#000000;stroke-width:0.8;" x="72" xlink:href="#mb9322ee42d" y="51.84"/>
      </g>
     </g>
     <g id="text_12">
      <!-- 20 -->
      <g transform="translate(49.73 56.399062)scale(0.12 -0.12)">
       <defs>
        <path d="M 1228 531 
L 3431 531 
L 3431 0 
L 469 0 
L 469 531 
Q 828 903 1448 1529 
Q 2069 2156 2228 2338 
Q 2531 2678 2651 2914 
Q 2772 3150 2772 3378 
Q 2772 3750 2511 3984 
Q 2250 4219 1831 4219 
Q 1534 4219 1204 4116 
Q 875 4013 500 3803 
L 500 4441 
Q 881 4594 1212 4672 
Q 1544 4750 1819 4750 
Q 2544 4750 2975 4387 
Q 3406 4025 3406 3419 
Q 3406 3131 3298 2873 
Q 3191 2616 2906 2266 
Q 2828 2175 2409 1742 
Q 1991 1309 1228 531 
z
" id="DejaVuSans-32" transform="scale(0.015625)"/>
       </defs>
       <use xlink:href="#DejaVuSans-32"/>
       <use x="63.623047" xlink:href="#DejaVuSans-30"/>
      </g>
     </g>
    </g>
    <g id="text_13">
     <!-- Number of neighbors - K -->
     <g transform="translate(42.818438 303.861875)rotate(-90)scale(0.14 -0.14)">
      <defs>
       <path d="M 628 4666 
L 1478 4666 
L 3547 763 
L 3547 4666 
L 4159 4666 
L 4159 0 
L 3309 0 
L 1241 3903 
L 1241 0 
L 628 0 
L 628 4666 
z
" id="DejaVuSans-4e" transform="scale(0.015625)"/>
       <path d="M 544 1381 
L 544 3500 
L 1119 3500 
L 1119 1403 
Q 1119 906 1312 657 
Q 1506 409 1894 409 
Q 2359 409 2629 706 
Q 2900 1003 2900 1516 
L 2900 3500 
L 3475 3500 
L 3475 0 
L 2900 0 
L 2900 538 
Q 2691 219 2414 64 
Q 2138 -91 1772 -91 
Q 1169 -91 856 284 
Q 544 659 544 1381 
z
M 1991 3584 
L 1991 3584 
z
" id="DejaVuSans-75" transform="scale(0.015625)"/>
       <path d="M 3328 2828 
Q 3544 3216 3844 3400 
Q 4144 3584 4550 3584 
Q 5097 3584 5394 3201 
Q 5691 2819 5691 2113 
L 5691 0 
L 5113 0 
L 5113 2094 
Q 5113 2597 4934 2840 
Q 4756 3084 4391 3084 
Q 3944 3084 3684 2787 
Q 3425 2491 3425 1978 
L 3425 0 
L 2847 0 
L 2847 2094 
Q 2847 2600 2669 2842 
Q 2491 3084 2119 3084 
Q 1678 3084 1418 2786 
Q 1159 2488 1159 1978 
L 1159 0 
L 581 0 
L 581 3500 
L 1159 3500 
L 1159 2956 
Q 1356 3278 1631 3431 
Q 1906 3584 2284 3584 
Q 2666 3584 2933 3390 
Q 3200 3197 3328 2828 
z
" id="DejaVuSans-6d" transform="scale(0.015625)"/>
       <path d="M 3116 1747 
Q 3116 2381 2855 2742 
Q 2594 3103 2138 3103 
Q 1681 3103 1420 2742 
Q 1159 2381 1159 1747 
Q 1159 1113 1420 752 
Q 1681 391 2138 391 
Q 2594 391 2855 752 
Q 3116 1113 3116 1747 
z
M 1159 2969 
Q 1341 3281 1617 3432 
Q 1894 3584 2278 3584 
Q 2916 3584 3314 3078 
Q 3713 2572 3713 1747 
Q 3713 922 3314 415 
Q 2916 -91 2278 -91 
Q 1894 -91 1617 61 
Q 1341 213 1159 525 
L 1159 0 
L 581 0 
L 581 4863 
L 1159 4863 
L 1159 2969 
z
" id="DejaVuSans-62" transform="scale(0.015625)"/>
       <path d="M 3597 1894 
L 3597 1613 
L 953 1613 
Q 991 1019 1311 708 
Q 1631 397 2203 397 
Q 2534 397 2845 478 
Q 3156 559 3463 722 
L 3463 178 
Q 3153 47 2828 -22 
Q 2503 -91 2169 -91 
Q 1331 -91 842 396 
Q 353 884 353 1716 
Q 353 2575 817 3079 
Q 1281 3584 2069 3584 
Q 2775 3584 3186 3129 
Q 3597 2675 3597 1894 
z
M 3022 2063 
Q 3016 2534 2758 2815 
Q 2500 3097 2075 3097 
Q 1594 3097 1305 2825 
Q 1016 2553 972 2059 
L 3022 2063 
z
" id="DejaVuSans-65" transform="scale(0.015625)"/>
       <path d="M 3513 2113 
L 3513 0 
L 2938 0 
L 2938 2094 
Q 2938 2591 2744 2837 
Q 2550 3084 2163 3084 
Q 1697 3084 1428 2787 
Q 1159 2491 1159 1978 
L 1159 0 
L 581 0 
L 581 4863 
L 1159 4863 
L 1159 2956 
Q 1366 3272 1645 3428 
Q 1925 3584 2291 3584 
Q 2894 3584 3203 3211 
Q 3513 2838 3513 2113 
z
" id="DejaVuSans-68" transform="scale(0.015625)"/>
       <path d="M 2834 3397 
L 2834 2853 
Q 2591 2978 2328 3040 
Q 2066 3103 1784 3103 
Q 1356 3103 1142 2972 
Q 928 2841 928 2578 
Q 928 2378 1081 2264 
Q 1234 2150 1697 2047 
L 1894 2003 
Q 2506 1872 2764 1633 
Q 3022 1394 3022 966 
Q 3022 478 2636 193 
Q 2250 -91 1575 -91 
Q 1294 -91 989 -36 
Q 684 19 347 128 
L 347 722 
Q 666 556 975 473 
Q 1284 391 1588 391 
Q 1994 391 2212 530 
Q 2431 669 2431 922 
Q 2431 1156 2273 1281 
Q 2116 1406 1581 1522 
L 1381 1569 
Q 847 1681 609 1914 
Q 372 2147 372 2553 
Q 372 3047 722 3315 
Q 1072 3584 1716 3584 
Q 2034 3584 2315 3537 
Q 2597 3491 2834 3397 
z
" id="DejaVuSans-73" transform="scale(0.015625)"/>
       <path d="M 313 2009 
L 1997 2009 
L 1997 1497 
L 313 1497 
L 313 2009 
z
" id="DejaVuSans-2d" transform="scale(0.015625)"/>
       <path d="M 628 4666 
L 1259 4666 
L 1259 2694 
L 3353 4666 
L 4166 4666 
L 1850 2491 
L 4331 0 
L 3500 0 
L 1259 2247 
L 1259 0 
L 628 0 
L 628 4666 
z
" id="DejaVuSans-4b" transform="scale(0.015625)"/>
      </defs>
      <use xlink:href="#DejaVuSans-4e"/>
      <use x="74.804688" xlink:href="#DejaVuSans-75"/>
      <use x="138.183594" xlink:href="#DejaVuSans-6d"/>
      <use x="235.595703" xlink:href="#DejaVuSans-62"/>
      <use x="299.072266" xlink:href="#DejaVuSans-65"/>
      <use x="360.595703" xlink:href="#DejaVuSans-72"/>
      <use x="401.708984" xlink:href="#DejaVuSans-20"/>
      <use x="433.496094" xlink:href="#DejaVuSans-6f"/>
      <use x="494.677734" xlink:href="#DejaVuSans-66"/>
      <use x="529.882812" xlink:href="#DejaVuSans-20"/>
      <use x="561.669922" xlink:href="#DejaVuSans-6e"/>
      <use x="625.048828" xlink:href="#DejaVuSans-65"/>
      <use x="686.572266" xlink:href="#DejaVuSans-69"/>
      <use x="714.355469" xlink:href="#DejaVuSans-67"/>
      <use x="777.832031" xlink:href="#DejaVuSans-68"/>
      <use x="841.210938" xlink:href="#DejaVuSans-62"/>
      <use x="904.6875" xlink:href="#DejaVuSans-6f"/>
      <use x="965.869141" xlink:href="#DejaVuSans-72"/>
      <use x="1006.982422" xlink:href="#DejaVuSans-73"/>
      <use x="1059.082031" xlink:href="#DejaVuSans-20"/>
      <use x="1090.869141" xlink:href="#DejaVuSans-2d"/>
      <use x="1126.953125" xlink:href="#DejaVuSans-20"/>
      <use x="1158.740234" xlink:href="#DejaVuSans-4b"/>
     </g>
    </g>
   </g>
   <g id="patch_3">
    <path d="M 72 384.48 
L 72 51.84 
" style="fill:none;stroke:#000000;stroke-linecap:square;stroke-linejoin:miter;stroke-width:0.8;"/>
   </g>
   <g id="patch_4">
    <path d="M 518.4 384.48 
L 518.4 51.84 
" style="fill:none;stroke:#000000;stroke-linecap:square;stroke-linejoin:miter;stroke-width:0.8;"/>
   </g>
   <g id="patch_5">
    <path d="M 72 384.48 
L 518.4 384.48 
" style="fill:none;stroke:#000000;stroke-linecap:square;stroke-linejoin:miter;stroke-width:0.8;"/>
   </g>
   <g id="patch_6">
    <path d="M 72 51.84 
L 518.4 51.84 
" style="fill:none;stroke:#000000;stroke-linecap:square;stroke-linejoin:miter;stroke-width:0.8;"/>
   </g>
  </g>
 </g>
 <defs>
  <clipPath id="p35f587582d">
   <rect height="332.64" width="446.4" x="72" y="51.84"/>
  </clipPath>
 </defs>
</svg>
