<?xml version="1.0" encoding="utf-8"?>
<svg xmlns="http://www.w3.org/2000/svg" xmlns:xlink="http://www.w3.org/1999/xlink" width="275" height="250" viewBox="0 0 1100 1000">
<defs>
  <clipPath id="clip250">
    <rect x="0" y="0" width="1100" height="1000"/>
  </clipPath>
</defs>
<path clip-path="url(#clip250)" d="M0 1000 L1100 1000 L1100 3.33067e-14 L0 3.33067e-14  Z" fill="#ffffff" fill-rule="evenodd" fill-opacity="1"/>
<defs>
  <clipPath id="clip251">
    <rect x="220" y="9" width="771" height="771"/>
  </clipPath>
</defs>
<path clip-path="url(#clip250)" d="M308.805 817.005 L1052.76 817.005 L1052.76 47.2441 L308.805 47.2441  Z" fill="#ffffff" fill-rule="evenodd" fill-opacity="1"/>
<defs>
  <clipPath id="clip252">
    <rect x="308" y="47" width="745" height="771"/>
  </clipPath>
</defs>
<polyline clip-path="url(#clip252)" style="stroke:#000000; stroke-linecap:round; stroke-linejoin:round; stroke-width:2; stroke-opacity:0.1; fill:none" points="309.218,817.005 309.218,47.2441 "/>
<polyline clip-path="url(#clip252)" style="stroke:#000000; stroke-linecap:round; stroke-linejoin:round; stroke-width:2; stroke-opacity:0.1; fill:none" points="515.641,817.005 515.641,47.2441 "/>
<polyline clip-path="url(#clip252)" style="stroke:#000000; stroke-linecap:round; stroke-linejoin:round; stroke-width:2; stroke-opacity:0.1; fill:none" points="722.065,817.005 722.065,47.2441 "/>
<polyline clip-path="url(#clip252)" style="stroke:#000000; stroke-linecap:round; stroke-linejoin:round; stroke-width:2; stroke-opacity:0.1; fill:none" points="928.489,817.005 928.489,47.2441 "/>
<polyline clip-path="url(#clip252)" style="stroke:#000000; stroke-linecap:round; stroke-linejoin:round; stroke-width:2; stroke-opacity:0.1; fill:none" points="309.218,817.005 309.218,47.2441 "/>
<polyline clip-path="url(#clip252)" style="stroke:#000000; stroke-linecap:round; stroke-linejoin:round; stroke-width:2; stroke-opacity:0.1; fill:none" points="515.641,817.005 515.641,47.2441 "/>
<polyline clip-path="url(#clip252)" style="stroke:#000000; stroke-linecap:round; stroke-linejoin:round; stroke-width:2; stroke-opacity:0.1; fill:none" points="722.065,817.005 722.065,47.2441 "/>
<polyline clip-path="url(#clip252)" style="stroke:#000000; stroke-linecap:round; stroke-linejoin:round; stroke-width:2; stroke-opacity:0.1; fill:none" points="928.489,817.005 928.489,47.2441 "/>
<polyline clip-path="url(#clip250)" style="stroke:#000000; stroke-linecap:round; stroke-linejoin:round; stroke-width:4; stroke-opacity:1; fill:none" points="308.805,817.005 1052.76,817.005 "/>
<polyline clip-path="url(#clip250)" style="stroke:#000000; stroke-linecap:round; stroke-linejoin:round; stroke-width:4; stroke-opacity:1; fill:none" points="308.805,47.2441 1052.76,47.2441 "/>
<polyline clip-path="url(#clip250)" style="stroke:#000000; stroke-linecap:round; stroke-linejoin:round; stroke-width:4; stroke-opacity:1; fill:none" points="309.218,817.005 309.218,798.108 "/>
<polyline clip-path="url(#clip250)" style="stroke:#000000; stroke-linecap:round; stroke-linejoin:round; stroke-width:4; stroke-opacity:1; fill:none" points="515.641,817.005 515.641,798.108 "/>
<polyline clip-path="url(#clip250)" style="stroke:#000000; stroke-linecap:round; stroke-linejoin:round; stroke-width:4; stroke-opacity:1; fill:none" points="722.065,817.005 722.065,798.108 "/>
<polyline clip-path="url(#clip250)" style="stroke:#000000; stroke-linecap:round; stroke-linejoin:round; stroke-width:4; stroke-opacity:1; fill:none" points="928.489,817.005 928.489,798.108 "/>
<polyline clip-path="url(#clip250)" style="stroke:#000000; stroke-linecap:round; stroke-linejoin:round; stroke-width:4; stroke-opacity:1; fill:none" points="309.218,47.2441 309.218,66.1417 "/>
<polyline clip-path="url(#clip250)" style="stroke:#000000; stroke-linecap:round; stroke-linejoin:round; stroke-width:4; stroke-opacity:1; fill:none" points="515.641,47.2441 515.641,66.1417 "/>
<polyline clip-path="url(#clip250)" style="stroke:#000000; stroke-linecap:round; stroke-linejoin:round; stroke-width:4; stroke-opacity:1; fill:none" points="722.065,47.2441 722.065,66.1417 "/>
<polyline clip-path="url(#clip250)" style="stroke:#000000; stroke-linecap:round; stroke-linejoin:round; stroke-width:4; stroke-opacity:1; fill:none" points="928.489,47.2441 928.489,66.1417 "/>
<path clip-path="url(#clip250)" d="M309.218 836.059 Q306.058 836.059 304.458 839.178 Q302.878 842.277 302.878 848.516 Q302.878 854.734 304.458 857.853 Q306.058 860.952 309.218 860.952 Q312.398 860.952 313.978 857.853 Q315.578 854.734 315.578 848.516 Q315.578 842.277 313.978 839.178 Q312.398 836.059 309.218 836.059 M309.218 832.818 Q314.302 832.818 316.975 836.849 Q319.669 840.859 319.669 848.516 Q319.669 856.152 316.975 860.182 Q314.302 864.193 309.218 864.193 Q304.134 864.193 301.44 860.182 Q298.766 856.152 298.766 848.516 Q298.766 840.859 301.44 836.849 Q304.134 832.818 309.218 832.818 Z" fill="#000000" fill-rule="nonzero" fill-opacity="1" /><path clip-path="url(#clip250)" d="M507.226 860.162 L513.91 860.162 L513.91 837.092 L506.638 838.55 L506.638 834.824 L513.869 833.365 L517.961 833.365 L517.961 860.162 L524.645 860.162 L524.645 863.605 L507.226 863.605 L507.226 860.162 Z" fill="#000000" fill-rule="nonzero" fill-opacity="1" /><path clip-path="url(#clip250)" d="M717.386 860.162 L731.666 860.162 L731.666 863.605 L712.465 863.605 L712.465 860.162 Q714.794 857.752 718.804 853.701 Q722.835 849.63 723.868 848.455 Q725.832 846.247 726.602 844.728 Q727.392 843.189 727.392 841.71 Q727.392 839.3 725.691 837.781 Q724.01 836.262 721.295 836.262 Q719.371 836.262 717.224 836.93 Q715.098 837.598 712.667 838.956 L712.667 834.824 Q715.138 833.831 717.285 833.325 Q719.432 832.818 721.214 832.818 Q725.914 832.818 728.709 835.168 Q731.504 837.517 731.504 841.447 Q731.504 843.31 730.795 844.991 Q730.106 846.652 728.263 848.921 Q727.757 849.508 725.043 852.324 Q722.328 855.119 717.386 860.162 Z" fill="#000000" fill-rule="nonzero" fill-opacity="1" /><path clip-path="url(#clip250)" d="M932.206 847.3 Q935.142 847.928 936.783 849.913 Q938.444 851.898 938.444 854.815 Q938.444 859.291 935.365 861.742 Q932.287 864.193 926.615 864.193 Q924.711 864.193 922.686 863.808 Q920.681 863.443 918.534 862.694 L918.534 858.744 Q920.235 859.737 922.261 860.243 Q924.286 860.749 926.494 860.749 Q930.342 860.749 932.347 859.23 Q934.373 857.711 934.373 854.815 Q934.373 852.141 932.489 850.642 Q930.626 849.123 927.284 849.123 L923.759 849.123 L923.759 845.761 L927.446 845.761 Q930.464 845.761 932.064 844.566 Q933.664 843.351 933.664 841.082 Q933.664 838.753 932.003 837.517 Q930.362 836.262 927.284 836.262 Q925.603 836.262 923.678 836.626 Q921.754 836.991 919.445 837.761 L919.445 834.115 Q921.774 833.467 923.8 833.142 Q925.846 832.818 927.648 832.818 Q932.307 832.818 935.021 834.945 Q937.735 837.052 937.735 840.657 Q937.735 843.168 936.297 844.91 Q934.859 846.632 932.206 847.3 Z" fill="#000000" fill-rule="nonzero" fill-opacity="1" /><path clip-path="url(#clip250)" d="M595.455 897.214 L595.455 901.745 Q593.424 900.704 591.237 900.183 Q589.049 899.662 586.705 899.662 Q583.138 899.662 581.341 900.756 Q579.57 901.85 579.57 904.037 Q579.57 905.704 580.846 906.667 Q582.122 907.605 585.976 908.464 L587.617 908.829 Q592.721 909.922 594.856 911.928 Q597.018 913.907 597.018 917.474 Q597.018 921.537 593.789 923.907 Q590.586 926.277 584.961 926.277 Q582.617 926.277 580.065 925.808 Q577.539 925.365 574.726 924.454 L574.726 919.506 Q577.383 920.886 579.961 921.589 Q582.539 922.266 585.065 922.266 Q588.45 922.266 590.273 921.12 Q592.096 919.948 592.096 917.839 Q592.096 915.886 590.768 914.844 Q589.466 913.803 585.013 912.839 L583.346 912.448 Q578.893 911.511 576.914 909.584 Q574.935 907.631 574.935 904.245 Q574.935 900.131 577.851 897.891 Q580.768 895.652 586.132 895.652 Q588.789 895.652 591.132 896.042 Q593.476 896.433 595.455 897.214 Z" fill="#000000" fill-rule="nonzero" fill-opacity="1" /><path clip-path="url(#clip250)" d="M601.211 896.355 L606.289 896.355 L615.403 920.834 L624.518 896.355 L629.596 896.355 L618.658 925.521 L612.148 925.521 L601.211 896.355 Z" fill="#000000" fill-rule="nonzero" fill-opacity="1" /><path clip-path="url(#clip250)" d="M657.2 897.475 L657.2 901.954 Q655.169 900.834 653.111 900.287 Q651.08 899.714 648.997 899.714 Q644.335 899.714 641.757 902.683 Q639.179 905.626 639.179 910.964 Q639.179 916.303 641.757 919.271 Q644.335 922.214 648.997 922.214 Q651.08 922.214 653.111 921.667 Q655.169 921.094 657.2 919.974 L657.2 924.402 Q655.195 925.339 653.033 925.808 Q650.898 926.277 648.476 926.277 Q641.887 926.277 638.007 922.136 Q634.127 917.995 634.127 910.964 Q634.127 903.829 638.033 899.74 Q641.966 895.652 648.788 895.652 Q651.002 895.652 653.111 896.12 Q655.221 896.563 657.2 897.475 Z" fill="#000000" fill-rule="nonzero" fill-opacity="1" /><path clip-path="url(#clip250)" d="M666.21 918.907 L671.705 918.907 L671.705 925.521 L666.21 925.521 L666.21 918.907 Z" fill="#000000" fill-rule="nonzero" fill-opacity="1" /><path clip-path="url(#clip250)" d="M703.476 897.475 L703.476 901.954 Q701.444 900.834 699.387 900.287 Q697.356 899.714 695.273 899.714 Q690.611 899.714 688.033 902.683 Q685.455 905.626 685.455 910.964 Q685.455 916.303 688.033 919.271 Q690.611 922.214 695.273 922.214 Q697.356 922.214 699.387 921.667 Q701.444 921.094 703.476 919.974 L703.476 924.402 Q701.47 925.339 699.309 925.808 Q697.174 926.277 694.752 926.277 Q688.163 926.277 684.283 922.136 Q680.403 917.995 680.403 910.964 Q680.403 903.829 684.309 899.74 Q688.241 895.652 695.064 895.652 Q697.278 895.652 699.387 896.12 Q701.496 896.563 703.476 897.475 Z" fill="#000000" fill-rule="nonzero" fill-opacity="1" /><path clip-path="url(#clip250)" d="M723.111 899.714 Q719.257 899.714 717.017 902.735 Q714.778 905.73 714.778 910.964 Q714.778 916.198 716.991 919.219 Q719.231 922.214 723.111 922.214 Q726.939 922.214 729.179 919.193 Q731.418 916.172 731.418 910.964 Q731.418 905.782 729.179 902.761 Q726.939 899.714 723.111 899.714 M723.111 895.652 Q729.361 895.652 732.929 899.714 Q736.496 903.777 736.496 910.964 Q736.496 918.126 732.929 922.214 Q729.361 926.277 723.111 926.277 Q716.835 926.277 713.267 922.214 Q709.726 918.126 709.726 910.964 Q709.726 903.777 713.267 899.714 Q716.835 895.652 723.111 895.652 Z" fill="#000000" fill-rule="nonzero" fill-opacity="1" /><path clip-path="url(#clip250)" d="M763.033 897.214 L763.033 901.745 Q761.001 900.704 758.814 900.183 Q756.626 899.662 754.283 899.662 Q750.715 899.662 748.918 900.756 Q747.147 901.85 747.147 904.037 Q747.147 905.704 748.423 906.667 Q749.699 907.605 753.553 908.464 L755.194 908.829 Q760.298 909.922 762.434 911.928 Q764.595 913.907 764.595 917.474 Q764.595 921.537 761.366 923.907 Q758.163 926.277 752.538 926.277 Q750.194 926.277 747.642 925.808 Q745.116 925.365 742.304 924.454 L742.304 919.506 Q744.96 920.886 747.538 921.589 Q750.116 922.266 752.642 922.266 Q756.027 922.266 757.85 921.12 Q759.673 919.948 759.673 917.839 Q759.673 915.886 758.345 914.844 Q757.043 913.803 752.59 912.839 L750.923 912.448 Q746.47 911.511 744.491 909.584 Q742.512 907.631 742.512 904.245 Q742.512 900.131 745.428 897.891 Q748.345 895.652 753.71 895.652 Q756.366 895.652 758.71 896.042 Q761.053 896.433 763.033 897.214 Z" fill="#000000" fill-rule="nonzero" fill-opacity="1" /><path clip-path="url(#clip250)" d="M776.965 888.074 L776.965 896.355 L786.835 896.355 L786.835 900.079 L776.965 900.079 L776.965 915.912 Q776.965 919.48 777.928 920.495 Q778.918 921.511 781.913 921.511 L786.835 921.511 L786.835 925.521 L781.913 925.521 Q776.366 925.521 774.256 923.464 Q772.147 921.381 772.147 915.912 L772.147 900.079 L768.631 900.079 L768.631 896.355 L772.147 896.355 L772.147 888.074 L776.965 888.074 Z" fill="#000000" fill-rule="nonzero" fill-opacity="1" /><polyline clip-path="url(#clip252)" style="stroke:#000000; stroke-linecap:round; stroke-linejoin:round; stroke-width:2; stroke-opacity:0.1; fill:none" points="308.805,712.143 1052.76,712.143 "/>
<polyline clip-path="url(#clip252)" style="stroke:#000000; stroke-linecap:round; stroke-linejoin:round; stroke-width:2; stroke-opacity:0.1; fill:none" points="308.805,505.306 1052.76,505.306 "/>
<polyline clip-path="url(#clip252)" style="stroke:#000000; stroke-linecap:round; stroke-linejoin:round; stroke-width:2; stroke-opacity:0.1; fill:none" points="308.805,298.469 1052.76,298.469 "/>
<polyline clip-path="url(#clip252)" style="stroke:#000000; stroke-linecap:round; stroke-linejoin:round; stroke-width:2; stroke-opacity:0.1; fill:none" points="308.805,91.6324 1052.76,91.6324 "/>
<polyline clip-path="url(#clip252)" style="stroke:#000000; stroke-linecap:round; stroke-linejoin:round; stroke-width:2; stroke-opacity:0.1; fill:none" points="308.805,712.143 1052.76,712.143 "/>
<polyline clip-path="url(#clip252)" style="stroke:#000000; stroke-linecap:round; stroke-linejoin:round; stroke-width:2; stroke-opacity:0.1; fill:none" points="308.805,505.306 1052.76,505.306 "/>
<polyline clip-path="url(#clip252)" style="stroke:#000000; stroke-linecap:round; stroke-linejoin:round; stroke-width:2; stroke-opacity:0.1; fill:none" points="308.805,298.469 1052.76,298.469 "/>
<polyline clip-path="url(#clip252)" style="stroke:#000000; stroke-linecap:round; stroke-linejoin:round; stroke-width:2; stroke-opacity:0.1; fill:none" points="308.805,91.6324 1052.76,91.6324 "/>
<polyline clip-path="url(#clip250)" style="stroke:#000000; stroke-linecap:round; stroke-linejoin:round; stroke-width:4; stroke-opacity:1; fill:none" points="308.805,817.005 308.805,47.2441 "/>
<polyline clip-path="url(#clip250)" style="stroke:#000000; stroke-linecap:round; stroke-linejoin:round; stroke-width:4; stroke-opacity:1; fill:none" points="1052.76,817.005 1052.76,47.2441 "/>
<polyline clip-path="url(#clip250)" style="stroke:#000000; stroke-linecap:round; stroke-linejoin:round; stroke-width:4; stroke-opacity:1; fill:none" points="308.805,712.143 327.703,712.143 "/>
<polyline clip-path="url(#clip250)" style="stroke:#000000; stroke-linecap:round; stroke-linejoin:round; stroke-width:4; stroke-opacity:1; fill:none" points="308.805,505.306 327.703,505.306 "/>
<polyline clip-path="url(#clip250)" style="stroke:#000000; stroke-linecap:round; stroke-linejoin:round; stroke-width:4; stroke-opacity:1; fill:none" points="308.805,298.469 327.703,298.469 "/>
<polyline clip-path="url(#clip250)" style="stroke:#000000; stroke-linecap:round; stroke-linejoin:round; stroke-width:4; stroke-opacity:1; fill:none" points="308.805,91.6324 327.703,91.6324 "/>
<polyline clip-path="url(#clip250)" style="stroke:#000000; stroke-linecap:round; stroke-linejoin:round; stroke-width:4; stroke-opacity:1; fill:none" points="1052.76,712.143 1033.86,712.143 "/>
<polyline clip-path="url(#clip250)" style="stroke:#000000; stroke-linecap:round; stroke-linejoin:round; stroke-width:4; stroke-opacity:1; fill:none" points="1052.76,505.306 1033.86,505.306 "/>
<polyline clip-path="url(#clip250)" style="stroke:#000000; stroke-linecap:round; stroke-linejoin:round; stroke-width:4; stroke-opacity:1; fill:none" points="1052.76,298.469 1033.86,298.469 "/>
<polyline clip-path="url(#clip250)" style="stroke:#000000; stroke-linecap:round; stroke-linejoin:round; stroke-width:4; stroke-opacity:1; fill:none" points="1052.76,91.6324 1033.86,91.6324 "/>
<path clip-path="url(#clip250)" d="M136.71 699.717 Q133.55 699.717 131.95 702.837 Q130.37 705.935 130.37 712.174 Q130.37 718.392 131.95 721.511 Q133.55 724.61 136.71 724.61 Q139.89 724.61 141.469 721.511 Q143.07 718.392 143.07 712.174 Q143.07 705.935 141.469 702.837 Q139.89 699.717 136.71 699.717 M136.71 696.477 Q141.794 696.477 144.467 700.507 Q147.161 704.518 147.161 712.174 Q147.161 719.81 144.467 723.84 Q141.794 727.851 136.71 727.851 Q131.626 727.851 128.932 723.84 Q126.258 719.81 126.258 712.174 Q126.258 704.518 128.932 700.507 Q131.626 696.477 136.71 696.477 Z" fill="#000000" fill-rule="nonzero" fill-opacity="1" /><path clip-path="url(#clip250)" d="M154.351 722.119 L158.625 722.119 L158.625 727.263 L154.351 727.263 L154.351 722.119 Z" fill="#000000" fill-rule="nonzero" fill-opacity="1" /><path clip-path="url(#clip250)" d="M176.287 699.717 Q173.127 699.717 171.527 702.837 Q169.947 705.935 169.947 712.174 Q169.947 718.392 171.527 721.511 Q173.127 724.61 176.287 724.61 Q179.467 724.61 181.047 721.511 Q182.647 718.392 182.647 712.174 Q182.647 705.935 181.047 702.837 Q179.467 699.717 176.287 699.717 M176.287 696.477 Q181.371 696.477 184.044 700.507 Q186.738 704.518 186.738 712.174 Q186.738 719.81 184.044 723.84 Q181.371 727.851 176.287 727.851 Q171.203 727.851 168.509 723.84 Q165.836 719.81 165.836 712.174 Q165.836 704.518 168.509 700.507 Q171.203 696.477 176.287 696.477 Z" fill="#000000" fill-rule="nonzero" fill-opacity="1" /><path clip-path="url(#clip250)" d="M202.679 699.717 Q199.519 699.717 197.919 702.837 Q196.339 705.935 196.339 712.174 Q196.339 718.392 197.919 721.511 Q199.519 724.61 202.679 724.61 Q205.859 724.61 207.438 721.511 Q209.039 718.392 209.039 712.174 Q209.039 705.935 207.438 702.837 Q205.859 699.717 202.679 699.717 M202.679 696.477 Q207.763 696.477 210.436 700.507 Q213.13 704.518 213.13 712.174 Q213.13 719.81 210.436 723.84 Q207.763 727.851 202.679 727.851 Q197.595 727.851 194.901 723.84 Q192.227 719.81 192.227 712.174 Q192.227 704.518 194.901 700.507 Q197.595 696.477 202.679 696.477 Z" fill="#000000" fill-rule="nonzero" fill-opacity="1" /><path clip-path="url(#clip250)" d="M221.029 723.82 L227.713 723.82 L227.713 700.75 L220.442 702.209 L220.442 698.482 L227.673 697.023 L231.764 697.023 L231.764 723.82 L238.448 723.82 L238.448 727.263 L221.029 727.263 L221.029 723.82 Z" fill="#000000" fill-rule="nonzero" fill-opacity="1" /><path clip-path="url(#clip250)" d="M255.968 710.513 Q253.214 710.513 251.593 712.397 Q249.993 714.28 249.993 717.562 Q249.993 720.823 251.593 722.726 Q253.214 724.61 255.968 724.61 Q258.723 724.61 260.323 722.726 Q261.943 720.823 261.943 717.562 Q261.943 714.28 260.323 712.397 Q258.723 710.513 255.968 710.513 M264.09 697.692 L264.09 701.419 Q262.551 700.69 260.971 700.305 Q259.412 699.92 257.872 699.92 Q253.821 699.92 251.674 702.654 Q249.548 705.389 249.244 710.918 Q250.439 709.156 252.241 708.224 Q254.044 707.272 256.211 707.272 Q260.769 707.272 263.402 710.047 Q266.055 712.802 266.055 717.562 Q266.055 722.22 263.3 725.035 Q260.546 727.851 255.968 727.851 Q250.722 727.851 247.948 723.84 Q245.173 719.81 245.173 712.174 Q245.173 705.004 248.575 700.75 Q251.978 696.477 257.71 696.477 Q259.25 696.477 260.809 696.78 Q262.389 697.084 264.09 697.692 Z" fill="#000000" fill-rule="nonzero" fill-opacity="1" /><path clip-path="url(#clip250)" d="M281.854 699.717 Q278.694 699.717 277.094 702.837 Q275.514 705.935 275.514 712.174 Q275.514 718.392 277.094 721.511 Q278.694 724.61 281.854 724.61 Q285.034 724.61 286.613 721.511 Q288.213 718.392 288.213 712.174 Q288.213 705.935 286.613 702.837 Q285.034 699.717 281.854 699.717 M281.854 696.477 Q286.937 696.477 289.611 700.507 Q292.305 704.518 292.305 712.174 Q292.305 719.81 289.611 723.84 Q286.937 727.851 281.854 727.851 Q276.77 727.851 274.076 723.84 Q271.402 719.81 271.402 712.174 Q271.402 704.518 274.076 700.507 Q276.77 696.477 281.854 696.477 Z" fill="#000000" fill-rule="nonzero" fill-opacity="1" /><path clip-path="url(#clip250)" d="M137.581 492.88 Q134.421 492.88 132.821 496 Q131.241 499.098 131.241 505.337 Q131.241 511.555 132.821 514.674 Q134.421 517.773 137.581 517.773 Q140.761 517.773 142.34 514.674 Q143.941 511.555 143.941 505.337 Q143.941 499.098 142.34 496 Q140.761 492.88 137.581 492.88 M137.581 489.64 Q142.665 489.64 145.338 493.67 Q148.032 497.681 148.032 505.337 Q148.032 512.973 145.338 517.003 Q142.665 521.014 137.581 521.014 Q132.497 521.014 129.803 517.003 Q127.129 512.973 127.129 505.337 Q127.129 497.681 129.803 493.67 Q132.497 489.64 137.581 489.64 Z" fill="#000000" fill-rule="nonzero" fill-opacity="1" /><path clip-path="url(#clip250)" d="M155.222 515.282 L159.496 515.282 L159.496 520.426 L155.222 520.426 L155.222 515.282 Z" fill="#000000" fill-rule="nonzero" fill-opacity="1" /><path clip-path="url(#clip250)" d="M177.158 492.88 Q173.998 492.88 172.398 496 Q170.818 499.098 170.818 505.337 Q170.818 511.555 172.398 514.674 Q173.998 517.773 177.158 517.773 Q180.338 517.773 181.918 514.674 Q183.518 511.555 183.518 505.337 Q183.518 499.098 181.918 496 Q180.338 492.88 177.158 492.88 M177.158 489.64 Q182.242 489.64 184.915 493.67 Q187.609 497.681 187.609 505.337 Q187.609 512.973 184.915 517.003 Q182.242 521.014 177.158 521.014 Q172.074 521.014 169.38 517.003 Q166.707 512.973 166.707 505.337 Q166.707 497.681 169.38 493.67 Q172.074 489.64 177.158 489.64 Z" fill="#000000" fill-rule="nonzero" fill-opacity="1" /><path clip-path="url(#clip250)" d="M203.55 492.88 Q200.39 492.88 198.79 496 Q197.21 499.098 197.21 505.337 Q197.21 511.555 198.79 514.674 Q200.39 517.773 203.55 517.773 Q206.73 517.773 208.309 514.674 Q209.91 511.555 209.91 505.337 Q209.91 499.098 208.309 496 Q206.73 492.88 203.55 492.88 M203.55 489.64 Q208.633 489.64 211.307 493.67 Q214.001 497.681 214.001 505.337 Q214.001 512.973 211.307 517.003 Q208.633 521.014 203.55 521.014 Q198.466 521.014 195.772 517.003 Q193.098 512.973 193.098 505.337 Q193.098 497.681 195.772 493.67 Q198.466 489.64 203.55 489.64 Z" fill="#000000" fill-rule="nonzero" fill-opacity="1" /><path clip-path="url(#clip250)" d="M221.9 516.983 L228.584 516.983 L228.584 493.913 L221.313 495.372 L221.313 491.645 L228.544 490.186 L232.635 490.186 L232.635 516.983 L239.319 516.983 L239.319 520.426 L221.9 520.426 L221.9 516.983 Z" fill="#000000" fill-rule="nonzero" fill-opacity="1" /><path clip-path="url(#clip250)" d="M256.839 503.676 Q254.085 503.676 252.464 505.56 Q250.864 507.443 250.864 510.725 Q250.864 513.986 252.464 515.889 Q254.085 517.773 256.839 517.773 Q259.594 517.773 261.194 515.889 Q262.814 513.986 262.814 510.725 Q262.814 507.443 261.194 505.56 Q259.594 503.676 256.839 503.676 M264.961 490.855 L264.961 494.582 Q263.422 493.853 261.842 493.468 Q260.283 493.083 258.743 493.083 Q254.692 493.083 252.545 495.817 Q250.419 498.552 250.115 504.081 Q251.31 502.319 253.112 501.387 Q254.915 500.435 257.082 500.435 Q261.64 500.435 264.273 503.21 Q266.926 505.965 266.926 510.725 Q266.926 515.383 264.171 518.198 Q261.417 521.014 256.839 521.014 Q251.593 521.014 248.818 517.003 Q246.044 512.973 246.044 505.337 Q246.044 498.167 249.446 493.913 Q252.849 489.64 258.581 489.64 Q260.12 489.64 261.68 489.943 Q263.26 490.247 264.961 490.855 Z" fill="#000000" fill-rule="nonzero" fill-opacity="1" /><path clip-path="url(#clip250)" d="M274.015 490.186 L290.077 490.186 L290.077 493.63 L277.762 493.63 L277.762 501.043 Q278.653 500.739 279.545 500.597 Q280.436 500.435 281.327 500.435 Q286.391 500.435 289.348 503.21 Q292.305 505.985 292.305 510.725 Q292.305 515.606 289.267 518.32 Q286.229 521.014 280.699 521.014 Q278.795 521.014 276.81 520.69 Q274.846 520.366 272.739 519.718 L272.739 515.606 Q274.562 516.598 276.506 517.084 Q278.451 517.571 280.618 517.571 Q284.122 517.571 286.168 515.727 Q288.213 513.884 288.213 510.725 Q288.213 507.565 286.168 505.722 Q284.122 503.879 280.618 503.879 Q278.977 503.879 277.337 504.243 Q275.716 504.608 274.015 505.377 L274.015 490.186 Z" fill="#000000" fill-rule="nonzero" fill-opacity="1" /><path clip-path="url(#clip250)" d="M136.71 286.043 Q133.55 286.043 131.95 289.163 Q130.37 292.261 130.37 298.5 Q130.37 304.718 131.95 307.837 Q133.55 310.936 136.71 310.936 Q139.89 310.936 141.469 307.837 Q143.07 304.718 143.07 298.5 Q143.07 292.261 141.469 289.163 Q139.89 286.043 136.71 286.043 M136.71 282.803 Q141.794 282.803 144.467 286.833 Q147.161 290.844 147.161 298.5 Q147.161 306.136 144.467 310.166 Q141.794 314.177 136.71 314.177 Q131.626 314.177 128.932 310.166 Q126.258 306.136 126.258 298.5 Q126.258 290.844 128.932 286.833 Q131.626 282.803 136.71 282.803 Z" fill="#000000" fill-rule="nonzero" fill-opacity="1" /><path clip-path="url(#clip250)" d="M154.351 308.445 L158.625 308.445 L158.625 313.589 L154.351 313.589 L154.351 308.445 Z" fill="#000000" fill-rule="nonzero" fill-opacity="1" /><path clip-path="url(#clip250)" d="M176.287 286.043 Q173.127 286.043 171.527 289.163 Q169.947 292.261 169.947 298.5 Q169.947 304.718 171.527 307.837 Q173.127 310.936 176.287 310.936 Q179.467 310.936 181.047 307.837 Q182.647 304.718 182.647 298.5 Q182.647 292.261 181.047 289.163 Q179.467 286.043 176.287 286.043 M176.287 282.803 Q181.371 282.803 184.044 286.833 Q186.738 290.844 186.738 298.5 Q186.738 306.136 184.044 310.166 Q181.371 314.177 176.287 314.177 Q171.203 314.177 168.509 310.166 Q165.836 306.136 165.836 298.5 Q165.836 290.844 168.509 286.833 Q171.203 282.803 176.287 282.803 Z" fill="#000000" fill-rule="nonzero" fill-opacity="1" /><path clip-path="url(#clip250)" d="M202.679 286.043 Q199.519 286.043 197.919 289.163 Q196.339 292.261 196.339 298.5 Q196.339 304.718 197.919 307.837 Q199.519 310.936 202.679 310.936 Q205.859 310.936 207.438 307.837 Q209.039 304.718 209.039 298.5 Q209.039 292.261 207.438 289.163 Q205.859 286.043 202.679 286.043 M202.679 282.803 Q207.763 282.803 210.436 286.833 Q213.13 290.844 213.13 298.5 Q213.13 306.136 210.436 310.166 Q207.763 314.177 202.679 314.177 Q197.595 314.177 194.901 310.166 Q192.227 306.136 192.227 298.5 Q192.227 290.844 194.901 286.833 Q197.595 282.803 202.679 282.803 Z" fill="#000000" fill-rule="nonzero" fill-opacity="1" /><path clip-path="url(#clip250)" d="M221.029 310.146 L227.713 310.146 L227.713 287.076 L220.442 288.535 L220.442 284.808 L227.673 283.349 L231.764 283.349 L231.764 310.146 L238.448 310.146 L238.448 313.589 L221.029 313.589 L221.029 310.146 Z" fill="#000000" fill-rule="nonzero" fill-opacity="1" /><path clip-path="url(#clip250)" d="M245.679 283.349 L265.123 283.349 L265.123 285.091 L254.145 313.589 L249.872 313.589 L260.201 286.793 L245.679 286.793 L245.679 283.349 Z" fill="#000000" fill-rule="nonzero" fill-opacity="1" /><path clip-path="url(#clip250)" d="M281.854 286.043 Q278.694 286.043 277.094 289.163 Q275.514 292.261 275.514 298.5 Q275.514 304.718 277.094 307.837 Q278.694 310.936 281.854 310.936 Q285.034 310.936 286.613 307.837 Q288.213 304.718 288.213 298.5 Q288.213 292.261 286.613 289.163 Q285.034 286.043 281.854 286.043 M281.854 282.803 Q286.937 282.803 289.611 286.833 Q292.305 290.844 292.305 298.5 Q292.305 306.136 289.611 310.166 Q286.937 314.177 281.854 314.177 Q276.77 314.177 274.076 310.166 Q271.402 306.136 271.402 298.5 Q271.402 290.844 274.076 286.833 Q276.77 282.803 281.854 282.803 Z" fill="#000000" fill-rule="nonzero" fill-opacity="1" /><path clip-path="url(#clip250)" d="M137.581 79.2063 Q134.421 79.2063 132.821 82.3255 Q131.241 85.4244 131.241 91.6628 Q131.241 97.881 132.821 101 Q134.421 104.099 137.581 104.099 Q140.761 104.099 142.34 101 Q143.941 97.881 143.941 91.6628 Q143.941 85.4244 142.34 82.3255 Q140.761 79.2063 137.581 79.2063 M137.581 75.9656 Q142.665 75.9656 145.338 79.9962 Q148.032 84.0066 148.032 91.6628 Q148.032 99.2988 145.338 103.329 Q142.665 107.34 137.581 107.34 Q132.497 107.34 129.803 103.329 Q127.129 99.2988 127.129 91.6628 Q127.129 84.0066 129.803 79.9962 Q132.497 75.9656 137.581 75.9656 Z" fill="#000000" fill-rule="nonzero" fill-opacity="1" /><path clip-path="url(#clip250)" d="M155.222 101.608 L159.496 101.608 L159.496 106.752 L155.222 106.752 L155.222 101.608 Z" fill="#000000" fill-rule="nonzero" fill-opacity="1" /><path clip-path="url(#clip250)" d="M177.158 79.2063 Q173.998 79.2063 172.398 82.3255 Q170.818 85.4244 170.818 91.6628 Q170.818 97.881 172.398 101 Q173.998 104.099 177.158 104.099 Q180.338 104.099 181.918 101 Q183.518 97.881 183.518 91.6628 Q183.518 85.4244 181.918 82.3255 Q180.338 79.2063 177.158 79.2063 M177.158 75.9656 Q182.242 75.9656 184.915 79.9962 Q187.609 84.0066 187.609 91.6628 Q187.609 99.2988 184.915 103.329 Q182.242 107.34 177.158 107.34 Q172.074 107.34 169.38 103.329 Q166.707 99.2988 166.707 91.6628 Q166.707 84.0066 169.38 79.9962 Q172.074 75.9656 177.158 75.9656 Z" fill="#000000" fill-rule="nonzero" fill-opacity="1" /><path clip-path="url(#clip250)" d="M203.55 79.2063 Q200.39 79.2063 198.79 82.3255 Q197.21 85.4244 197.21 91.6628 Q197.21 97.881 198.79 101 Q200.39 104.099 203.55 104.099 Q206.73 104.099 208.309 101 Q209.91 97.881 209.91 91.6628 Q209.91 85.4244 208.309 82.3255 Q206.73 79.2063 203.55 79.2063 M203.55 75.9656 Q208.633 75.9656 211.307 79.9962 Q214.001 84.0066 214.001 91.6628 Q214.001 99.2988 211.307 103.329 Q208.633 107.34 203.55 107.34 Q198.466 107.34 195.772 103.329 Q193.098 99.2988 193.098 91.6628 Q193.098 84.0066 195.772 79.9962 Q198.466 75.9656 203.55 75.9656 Z" fill="#000000" fill-rule="nonzero" fill-opacity="1" /><path clip-path="url(#clip250)" d="M221.9 103.309 L228.584 103.309 L228.584 80.2393 L221.313 81.6976 L221.313 77.9708 L228.544 76.5124 L232.635 76.5124 L232.635 103.309 L239.319 103.309 L239.319 106.752 L221.9 106.752 L221.9 103.309 Z" fill="#000000" fill-rule="nonzero" fill-opacity="1" /><path clip-path="url(#clip250)" d="M246.55 76.5124 L265.994 76.5124 L265.994 78.2543 L255.016 106.752 L250.743 106.752 L261.072 79.9557 L246.55 79.9557 L246.55 76.5124 Z" fill="#000000" fill-rule="nonzero" fill-opacity="1" /><path clip-path="url(#clip250)" d="M274.015 76.5124 L290.077 76.5124 L290.077 79.9557 L277.762 79.9557 L277.762 87.3689 Q278.653 87.0651 279.545 86.9233 Q280.436 86.7612 281.327 86.7612 Q286.391 86.7612 289.348 89.5361 Q292.305 92.311 292.305 97.0505 Q292.305 101.932 289.267 104.646 Q286.229 107.34 280.699 107.34 Q278.795 107.34 276.81 107.016 Q274.846 106.692 272.739 106.044 L272.739 101.932 Q274.562 102.924 276.506 103.41 Q278.451 103.897 280.618 103.897 Q284.122 103.897 286.168 102.053 Q288.213 100.21 288.213 97.0505 Q288.213 93.8908 286.168 92.0477 Q284.122 90.2045 280.618 90.2045 Q278.977 90.2045 277.337 90.5691 Q275.716 90.9337 274.015 91.7033 L274.015 76.5124 Z" fill="#000000" fill-rule="nonzero" fill-opacity="1" /><path clip-path="url(#clip250)" d="M59.2143 725.964 L59.2143 718.126 L85.6725 708.204 L59.2143 698.23 L59.2143 690.392 L98.0943 690.392 L98.0943 695.522 L63.9539 695.522 L90.6204 705.548 L90.6204 710.834 L63.9539 720.86 L98.0943 720.86 L98.0943 725.964 L59.2143 725.964 Z" fill="#000000" fill-rule="nonzero" fill-opacity="1" /><path clip-path="url(#clip250)" d="M68.9278 680.157 L68.9278 675.366 L98.0943 675.366 L98.0943 680.157 L68.9278 680.157 M57.5737 680.157 L57.5737 675.366 L63.6414 675.366 L63.6414 680.157 L57.5737 680.157 Z" fill="#000000" fill-rule="nonzero" fill-opacity="1" /><path clip-path="url(#clip250)" d="M69.7872 646.746 L74.3184 646.746 Q73.2768 648.777 72.7559 650.965 Q72.2351 653.152 72.2351 655.496 Q72.2351 659.064 73.3288 660.86 Q74.4226 662.631 76.6101 662.631 Q78.2767 662.631 79.2403 661.355 Q80.1778 660.079 81.0371 656.225 L81.4017 654.584 Q82.4955 649.48 84.5007 647.345 Q86.4798 645.183 90.0475 645.183 Q94.11 645.183 96.4798 648.413 Q98.8495 651.616 98.8495 657.241 Q98.8495 659.584 98.3808 662.136 Q97.9381 664.663 97.0266 667.475 L92.0787 667.475 Q93.4589 664.819 94.1621 662.241 Q94.8391 659.663 94.8391 657.137 Q94.8391 653.751 93.6933 651.928 Q92.5215 650.105 90.4121 650.105 Q88.459 650.105 87.4173 651.433 Q86.3757 652.735 85.4121 657.189 L85.0215 658.855 Q84.084 663.308 82.1569 665.288 Q80.2038 667.267 76.8184 667.267 Q72.7039 667.267 70.4643 664.35 Q68.2247 661.433 68.2247 656.069 Q68.2247 653.413 68.6153 651.069 Q69.006 648.725 69.7872 646.746 Z" fill="#000000" fill-rule="nonzero" fill-opacity="1" /><path clip-path="url(#clip250)" d="M70.0476 616.564 L74.5268 616.564 Q73.407 618.595 72.8601 620.652 Q72.2872 622.684 72.2872 624.767 Q72.2872 629.428 75.2559 632.006 Q78.1986 634.585 83.5371 634.585 Q88.8756 634.585 91.8444 632.006 Q94.7871 629.428 94.7871 624.767 Q94.7871 622.684 94.2402 620.652 Q93.6673 618.595 92.5475 616.564 L96.9746 616.564 Q97.912 618.569 98.3808 620.73 Q98.8495 622.866 98.8495 625.288 Q98.8495 631.876 94.7089 635.756 Q90.5683 639.637 83.5371 639.637 Q76.4017 639.637 72.3132 635.73 Q68.2247 631.798 68.2247 624.975 Q68.2247 622.762 68.6935 620.652 Q69.1362 618.543 70.0476 616.564 Z" fill="#000000" fill-rule="nonzero" fill-opacity="1" /><path clip-path="url(#clip250)" d="M57.5737 608.231 L57.5737 603.439 L98.0943 603.439 L98.0943 608.231 L57.5737 608.231 Z" fill="#000000" fill-rule="nonzero" fill-opacity="1" /><path clip-path="url(#clip250)" d="M83.433 580.158 Q83.433 585.965 84.7611 588.205 Q86.0892 590.444 89.2923 590.444 Q91.8444 590.444 93.3548 588.778 Q94.8391 587.085 94.8391 584.194 Q94.8391 580.21 92.0267 577.814 Q89.1881 575.392 84.5007 575.392 L83.433 575.392 L83.433 580.158 M81.4538 570.601 L98.0943 570.601 L98.0943 575.392 L93.6673 575.392 Q96.3235 577.033 97.5996 579.481 Q98.8495 581.929 98.8495 585.47 Q98.8495 589.949 96.3496 592.606 Q93.8235 595.236 89.6048 595.236 Q84.683 595.236 82.183 591.955 Q79.683 588.647 79.683 582.111 L79.683 575.392 L79.2142 575.392 Q75.907 575.392 74.1101 577.58 Q72.2872 579.741 72.2872 583.673 Q72.2872 586.173 72.8861 588.543 Q73.4851 590.913 74.683 593.1 L70.2559 593.1 Q69.2403 590.47 68.7455 587.996 Q68.2247 585.522 68.2247 583.179 Q68.2247 576.85 71.5059 573.725 Q74.7872 570.601 81.4538 570.601 Z" fill="#000000" fill-rule="nonzero" fill-opacity="1" /><path clip-path="url(#clip250)" d="M69.7872 542.137 L74.3184 542.137 Q73.2768 544.168 72.7559 546.356 Q72.2351 548.543 72.2351 550.887 Q72.2351 554.455 73.3288 556.252 Q74.4226 558.022 76.6101 558.022 Q78.2767 558.022 79.2403 556.746 Q80.1778 555.47 81.0371 551.616 L81.4017 549.976 Q82.4955 544.871 84.5007 542.736 Q86.4798 540.575 90.0475 540.575 Q94.11 540.575 96.4798 543.804 Q98.8495 547.007 98.8495 552.632 Q98.8495 554.976 98.3808 557.528 Q97.9381 560.054 97.0266 562.866 L92.0787 562.866 Q93.4589 560.21 94.1621 557.632 Q94.8391 555.054 94.8391 552.528 Q94.8391 549.142 93.6933 547.319 Q92.5215 545.496 90.4121 545.496 Q88.459 545.496 87.4173 546.825 Q86.3757 548.127 85.4121 552.58 L85.0215 554.246 Q84.084 558.7 82.1569 560.679 Q80.2038 562.658 76.8184 562.658 Q72.7039 562.658 70.4643 559.741 Q68.2247 556.825 68.2247 551.46 Q68.2247 548.804 68.6153 546.46 Q69.006 544.116 69.7872 542.137 Z" fill="#000000" fill-rule="nonzero" fill-opacity="1" /><path clip-path="url(#clip250)" d="M69.7872 514.351 L74.3184 514.351 Q73.2768 516.382 72.7559 518.57 Q72.2351 520.757 72.2351 523.101 Q72.2351 526.668 73.3288 528.465 Q74.4226 530.236 76.6101 530.236 Q78.2767 530.236 79.2403 528.96 Q80.1778 527.684 81.0371 523.83 L81.4017 522.189 Q82.4955 517.085 84.5007 514.95 Q86.4798 512.788 90.0475 512.788 Q94.11 512.788 96.4798 516.017 Q98.8495 519.221 98.8495 524.846 Q98.8495 527.189 98.3808 529.741 Q97.9381 532.267 97.0266 535.08 L92.0787 535.08 Q93.4589 532.424 94.1621 529.846 Q94.8391 527.267 94.8391 524.741 Q94.8391 521.356 93.6933 519.533 Q92.5215 517.71 90.4121 517.71 Q88.459 517.71 87.4173 519.038 Q86.3757 520.34 85.4121 524.793 L85.0215 526.46 Q84.084 530.913 82.1569 532.892 Q80.2038 534.872 76.8184 534.872 Q72.7039 534.872 70.4643 531.955 Q68.2247 529.038 68.2247 523.674 Q68.2247 521.017 68.6153 518.674 Q69.006 516.33 69.7872 514.351 Z" fill="#000000" fill-rule="nonzero" fill-opacity="1" /><path clip-path="url(#clip250)" d="M68.9278 505.158 L68.9278 500.367 L98.0943 500.367 L98.0943 505.158 L68.9278 505.158 M57.5737 505.158 L57.5737 500.367 L63.6414 500.367 L63.6414 505.158 L57.5737 505.158 Z" fill="#000000" fill-rule="nonzero" fill-opacity="1" /><path clip-path="url(#clip250)" d="M57.5737 475.575 L61.5581 475.575 L61.5581 480.158 Q61.5581 482.736 62.5997 483.752 Q63.6414 484.742 66.3497 484.742 L68.9278 484.742 L68.9278 476.851 L72.6518 476.851 L72.6518 484.742 L98.0943 484.742 L98.0943 489.559 L72.6518 489.559 L72.6518 494.143 L68.9278 494.143 L68.9278 489.559 L66.8966 489.559 Q62.0268 489.559 59.8133 487.294 Q57.5737 485.028 57.5737 480.106 L57.5737 475.575 Z" fill="#000000" fill-rule="nonzero" fill-opacity="1" /><path clip-path="url(#clip250)" d="M68.9278 471.565 L68.9278 466.773 L98.0943 466.773 L98.0943 471.565 L68.9278 471.565 M57.5737 471.565 L57.5737 466.773 L63.6414 466.773 L63.6414 471.565 L57.5737 471.565 Z" fill="#000000" fill-rule="nonzero" fill-opacity="1" /><path clip-path="url(#clip250)" d="M70.0476 435.757 L74.5268 435.757 Q73.407 437.789 72.8601 439.846 Q72.2872 441.877 72.2872 443.961 Q72.2872 448.622 75.2559 451.2 Q78.1986 453.778 83.5371 453.778 Q88.8756 453.778 91.8444 451.2 Q94.7871 448.622 94.7871 443.961 Q94.7871 441.877 94.2402 439.846 Q93.6673 437.789 92.5475 435.757 L96.9746 435.757 Q97.912 437.763 98.3808 439.924 Q98.8495 442.06 98.8495 444.481 Q98.8495 451.07 94.7089 454.95 Q90.5683 458.83 83.5371 458.83 Q76.4017 458.83 72.3132 454.924 Q68.2247 450.992 68.2247 444.169 Q68.2247 441.955 68.6935 439.846 Q69.1362 437.737 70.0476 435.757 Z" fill="#000000" fill-rule="nonzero" fill-opacity="1" /><path clip-path="url(#clip250)" d="M83.433 414.169 Q83.433 419.976 84.7611 422.216 Q86.0892 424.455 89.2923 424.455 Q91.8444 424.455 93.3548 422.789 Q94.8391 421.096 94.8391 418.205 Q94.8391 414.221 92.0267 411.825 Q89.1881 409.403 84.5007 409.403 L83.433 409.403 L83.433 414.169 M81.4538 404.612 L98.0943 404.612 L98.0943 409.403 L93.6673 409.403 Q96.3235 411.044 97.5996 413.492 Q98.8495 415.94 98.8495 419.482 Q98.8495 423.961 96.3496 426.617 Q93.8235 429.247 89.6048 429.247 Q84.683 429.247 82.183 425.966 Q79.683 422.659 79.683 416.122 L79.683 409.403 L79.2142 409.403 Q75.907 409.403 74.1101 411.591 Q72.2872 413.752 72.2872 417.685 Q72.2872 420.185 72.8861 422.554 Q73.4851 424.924 74.683 427.112 L70.2559 427.112 Q69.2403 424.482 68.7455 422.008 Q68.2247 419.534 68.2247 417.19 Q68.2247 410.862 71.5059 407.737 Q74.7872 404.612 81.4538 404.612 Z" fill="#000000" fill-rule="nonzero" fill-opacity="1" /><path clip-path="url(#clip250)" d="M60.6466 390.003 L68.9278 390.003 L68.9278 380.133 L72.6518 380.133 L72.6518 390.003 L88.485 390.003 Q92.0527 390.003 93.0683 389.039 Q94.0839 388.049 94.0839 385.055 L94.0839 380.133 L98.0943 380.133 L98.0943 385.055 Q98.0943 390.601 96.0371 392.711 Q93.9537 394.82 88.485 394.82 L72.6518 394.82 L72.6518 398.336 L68.9278 398.336 L68.9278 394.82 L60.6466 394.82 L60.6466 390.003 Z" fill="#000000" fill-rule="nonzero" fill-opacity="1" /><path clip-path="url(#clip250)" d="M68.9278 373.831 L68.9278 369.039 L98.0943 369.039 L98.0943 373.831 L68.9278 373.831 M57.5737 373.831 L57.5737 369.039 L63.6414 369.039 L63.6414 373.831 L57.5737 373.831 Z" fill="#000000" fill-rule="nonzero" fill-opacity="1" /><path clip-path="url(#clip250)" d="M72.2872 347.711 Q72.2872 351.565 75.308 353.805 Q78.3028 356.044 83.5371 356.044 Q88.7715 356.044 91.7923 353.831 Q94.7871 351.591 94.7871 347.711 Q94.7871 343.883 91.7662 341.643 Q88.7454 339.404 83.5371 339.404 Q78.3549 339.404 75.334 341.643 Q72.2872 343.883 72.2872 347.711 M68.2247 347.711 Q68.2247 341.461 72.2872 337.893 Q76.3497 334.326 83.5371 334.326 Q90.6985 334.326 94.7871 337.893 Q98.8495 341.461 98.8495 347.711 Q98.8495 353.987 94.7871 357.555 Q90.6985 361.096 83.5371 361.096 Q76.3497 361.096 72.2872 357.555 Q68.2247 353.987 68.2247 347.711 Z" fill="#000000" fill-rule="nonzero" fill-opacity="1" /><path clip-path="url(#clip250)" d="M80.4903 302.138 L98.0943 302.138 L98.0943 306.93 L80.6465 306.93 Q76.5059 306.93 74.4486 308.545 Q72.3914 310.159 72.3914 313.388 Q72.3914 317.269 74.8653 319.508 Q77.3392 321.748 81.6101 321.748 L98.0943 321.748 L98.0943 326.565 L68.9278 326.565 L68.9278 321.748 L73.4591 321.748 Q70.8289 320.029 69.5268 317.711 Q68.2247 315.368 68.2247 312.321 Q68.2247 307.295 71.3497 304.717 Q74.4486 302.138 80.4903 302.138 Z" fill="#000000" fill-rule="nonzero" fill-opacity="1" /><path clip-path="url(#clip250)" d="M79.8653 273.935 Q80.4382 272.243 82.3132 270.654 Q84.1882 269.04 87.4694 267.425 L98.0943 262.087 L98.0943 267.738 L88.1204 272.711 Q84.2142 274.639 82.9382 276.461 Q81.6621 278.258 81.6621 281.383 L81.6621 287.112 L98.0943 287.112 L98.0943 292.373 L59.2143 292.373 L59.2143 280.498 Q59.2143 273.831 62.0008 270.55 Q64.7872 267.269 70.4122 267.269 Q74.0841 267.269 76.5059 268.988 Q78.9278 270.68 79.8653 273.935 M63.5372 287.112 L77.3392 287.112 L77.3392 280.498 Q77.3392 276.696 75.5945 274.769 Q73.8236 272.816 70.4122 272.816 Q67.0008 272.816 65.282 274.769 Q63.5372 276.696 63.5372 280.498 L63.5372 287.112 Z" fill="#000000" fill-rule="nonzero" fill-opacity="1" /><path clip-path="url(#clip250)" d="M83.433 243.441 Q83.433 249.248 84.7611 251.488 Q86.0892 253.727 89.2923 253.727 Q91.8444 253.727 93.3548 252.061 Q94.8391 250.368 94.8391 247.477 Q94.8391 243.493 92.0267 241.097 Q89.1881 238.675 84.5007 238.675 L83.433 238.675 L83.433 243.441 M81.4538 233.884 L98.0943 233.884 L98.0943 238.675 L93.6673 238.675 Q96.3235 240.316 97.5996 242.764 Q98.8495 245.212 98.8495 248.753 Q98.8495 253.232 96.3496 255.889 Q93.8235 258.519 89.6048 258.519 Q84.683 258.519 82.183 255.238 Q79.683 251.93 79.683 245.394 L79.683 238.675 L79.2142 238.675 Q75.907 238.675 74.1101 240.863 Q72.2872 243.024 72.2872 246.956 Q72.2872 249.456 72.8861 251.826 Q73.4851 254.196 74.683 256.383 L70.2559 256.383 Q69.2403 253.753 68.7455 251.279 Q68.2247 248.805 68.2247 246.462 Q68.2247 240.134 71.5059 237.009 Q74.7872 233.884 81.4538 233.884 Z" fill="#000000" fill-rule="nonzero" fill-opacity="1" /><path clip-path="url(#clip250)" d="M60.6466 219.274 L68.9278 219.274 L68.9278 209.405 L72.6518 209.405 L72.6518 219.274 L88.485 219.274 Q92.0527 219.274 93.0683 218.311 Q94.0839 217.321 94.0839 214.326 L94.0839 209.405 L98.0943 209.405 L98.0943 214.326 Q98.0943 219.873 96.0371 221.983 Q93.9537 224.092 88.485 224.092 L72.6518 224.092 L72.6518 227.608 L68.9278 227.608 L68.9278 224.092 L60.6466 224.092 L60.6466 219.274 Z" fill="#000000" fill-rule="nonzero" fill-opacity="1" /><path clip-path="url(#clip250)" d="M82.3132 178.155 L84.6569 178.155 L84.6569 200.186 Q89.6048 199.873 92.209 197.217 Q94.7871 194.535 94.7871 189.769 Q94.7871 187.009 94.11 184.431 Q93.4329 181.827 92.0787 179.274 L96.61 179.274 Q97.7037 181.853 98.2766 184.561 Q98.8495 187.269 98.8495 190.056 Q98.8495 197.035 94.7871 201.123 Q90.7246 205.186 83.7975 205.186 Q76.6361 205.186 72.4434 201.332 Q68.2247 197.451 68.2247 190.889 Q68.2247 185.004 72.0268 181.592 Q75.8028 178.155 82.3132 178.155 M80.9069 182.946 Q76.9747 182.998 74.6309 185.16 Q72.2872 187.295 72.2872 190.837 Q72.2872 194.847 74.5528 197.269 Q76.8184 199.665 80.933 200.03 L80.9069 182.946 Z" fill="#000000" fill-rule="nonzero" fill-opacity="1" /><path clip-path="url(#clip250)" d="M57.6258 158.78 Q63.6154 162.269 69.4747 163.962 Q75.334 165.655 81.3496 165.655 Q87.3652 165.655 93.2767 163.962 Q99.162 162.243 105.126 158.78 L105.126 162.946 Q99.0058 166.853 93.0944 168.806 Q87.1829 170.733 81.3496 170.733 Q75.5424 170.733 69.657 168.806 Q63.7716 166.879 57.6258 162.946 L57.6258 158.78 Z" fill="#000000" fill-rule="nonzero" fill-opacity="1" /><path clip-path="url(#clip250)" d="M57.6258 150.238 L57.6258 146.072 Q63.7716 142.165 69.657 140.238 Q75.5424 138.285 81.3496 138.285 Q87.1829 138.285 93.0944 140.238 Q99.0058 142.165 105.126 146.072 L105.126 150.238 Q99.162 146.775 93.2767 145.082 Q87.3652 143.363 81.3496 143.363 Q75.334 143.363 69.4747 145.082 Q63.6154 146.775 57.6258 150.238 Z" fill="#000000" fill-rule="nonzero" fill-opacity="1" /><circle clip-path="url(#clip252)" cx="470.228" cy="69.0298" r="14.4" fill="#009af9" fill-rule="evenodd" fill-opacity="1" stroke="#000000" stroke-opacity="1" stroke-width="2"/>
<circle clip-path="url(#clip252)" cx="329.86" cy="69.0298" r="14.4" fill="#009af9" fill-rule="evenodd" fill-opacity="1" stroke="#000000" stroke-opacity="1" stroke-width="2"/>
<circle clip-path="url(#clip252)" cx="1031.7" cy="795.22" r="14.4" fill="#009af9" fill-rule="evenodd" fill-opacity="1" stroke="#000000" stroke-opacity="1" stroke-width="2"/>
<circle clip-path="url(#clip252)" cx="610.596" cy="432.125" r="14.4" fill="#009af9" fill-rule="evenodd" fill-opacity="1" stroke="#000000" stroke-opacity="1" stroke-width="2"/>
<circle clip-path="url(#clip252)" cx="750.964" cy="795.22" r="14.4" fill="#009af9" fill-rule="evenodd" fill-opacity="1" stroke="#000000" stroke-opacity="1" stroke-width="2"/>
<circle clip-path="url(#clip252)" cx="891.333" cy="795.22" r="14.4" fill="#009af9" fill-rule="evenodd" fill-opacity="1" stroke="#000000" stroke-opacity="1" stroke-width="2"/>
</svg>
