<?xml version="1.0" encoding="utf-8"?>
<svg xmlns="http://www.w3.org/2000/svg" xmlns:xlink="http://www.w3.org/1999/xlink" width="800" height="600" viewBox="0 0 3200 2400">
<defs>
  <clipPath id="clip020">
    <rect x="0" y="0" width="3200" height="2400"/>
  </clipPath>
</defs>
<path clip-path="url(#clip020)" d="M0 2400 L3200 2400 L3200 0 L0 0  Z" fill="#ffffff" fill-rule="evenodd" fill-opacity="1"/>
<defs>
  <clipPath id="clip021">
    <rect x="640" y="0" width="2241" height="2241"/>
  </clipPath>
</defs>
<path clip-path="url(#clip020)" d="M256.797 2264.41 L3152.76 2264.41 L3152.76 47.2441 L256.797 47.2441  Z" fill="#ffffff" fill-rule="evenodd" fill-opacity="1"/>
<defs>
  <clipPath id="clip022">
    <rect x="256" y="47" width="2897" height="2218"/>
  </clipPath>
</defs>
<polyline clip-path="url(#clip022)" style="stroke:#000000; stroke-linecap:round; stroke-linejoin:round; stroke-width:2; stroke-opacity:0.1; fill:none" points="298.925,2264.41 298.925,47.2441 "/>
<polyline clip-path="url(#clip022)" style="stroke:#000000; stroke-linecap:round; stroke-linejoin:round; stroke-width:2; stroke-opacity:0.1; fill:none" points="884.697,2264.41 884.697,47.2441 "/>
<polyline clip-path="url(#clip022)" style="stroke:#000000; stroke-linecap:round; stroke-linejoin:round; stroke-width:2; stroke-opacity:0.1; fill:none" points="1470.47,2264.41 1470.47,47.2441 "/>
<polyline clip-path="url(#clip022)" style="stroke:#000000; stroke-linecap:round; stroke-linejoin:round; stroke-width:2; stroke-opacity:0.1; fill:none" points="2056.24,2264.41 2056.24,47.2441 "/>
<polyline clip-path="url(#clip022)" style="stroke:#000000; stroke-linecap:round; stroke-linejoin:round; stroke-width:2; stroke-opacity:0.1; fill:none" points="2642.01,2264.41 2642.01,47.2441 "/>
<polyline clip-path="url(#clip020)" style="stroke:#000000; stroke-linecap:round; stroke-linejoin:round; stroke-width:4; stroke-opacity:1; fill:none" points="256.797,2264.41 3152.76,2264.41 "/>
<polyline clip-path="url(#clip020)" style="stroke:#000000; stroke-linecap:round; stroke-linejoin:round; stroke-width:4; stroke-opacity:1; fill:none" points="298.925,2264.41 298.925,2245.51 "/>
<polyline clip-path="url(#clip020)" style="stroke:#000000; stroke-linecap:round; stroke-linejoin:round; stroke-width:4; stroke-opacity:1; fill:none" points="884.697,2264.41 884.697,2245.51 "/>
<polyline clip-path="url(#clip020)" style="stroke:#000000; stroke-linecap:round; stroke-linejoin:round; stroke-width:4; stroke-opacity:1; fill:none" points="1470.47,2264.41 1470.47,2245.51 "/>
<polyline clip-path="url(#clip020)" style="stroke:#000000; stroke-linecap:round; stroke-linejoin:round; stroke-width:4; stroke-opacity:1; fill:none" points="2056.24,2264.41 2056.24,2245.51 "/>
<polyline clip-path="url(#clip020)" style="stroke:#000000; stroke-linecap:round; stroke-linejoin:round; stroke-width:4; stroke-opacity:1; fill:none" points="2642.01,2264.41 2642.01,2245.51 "/>
<path clip-path="url(#clip020)" d="M241.504 2322.97 L278.599 2322.97 L278.599 2327.89 L241.504 2327.89 L241.504 2322.97 Z" fill="#000000" fill-rule="nonzero" fill-opacity="1" /><path clip-path="url(#clip020)" d="M308.923 2320.72 Q313.118 2321.61 315.462 2324.45 Q317.835 2327.28 317.835 2331.45 Q317.835 2337.84 313.436 2341.35 Q309.038 2344.85 300.936 2344.85 Q298.217 2344.85 295.323 2344.3 Q292.459 2343.78 289.391 2342.71 L289.391 2337.06 Q291.822 2338.48 294.715 2339.2 Q297.609 2339.93 300.763 2339.93 Q306.261 2339.93 309.125 2337.76 Q312.019 2335.59 312.019 2331.45 Q312.019 2327.63 309.328 2325.49 Q306.666 2323.32 301.891 2323.32 L296.857 2323.32 L296.857 2318.52 L302.123 2318.52 Q306.434 2318.52 308.72 2316.81 Q311.006 2315.07 311.006 2311.83 Q311.006 2308.5 308.633 2306.74 Q306.289 2304.95 301.891 2304.95 Q299.49 2304.95 296.741 2305.47 Q293.992 2305.99 290.693 2307.09 L290.693 2301.88 Q294.021 2300.95 296.914 2300.49 Q299.837 2300.03 302.412 2300.03 Q309.067 2300.03 312.945 2303.06 Q316.822 2306.07 316.822 2311.22 Q316.822 2314.81 314.767 2317.3 Q312.713 2319.76 308.923 2320.72 Z" fill="#000000" fill-rule="nonzero" fill-opacity="1" /><path clip-path="url(#clip020)" d="M341.417 2304.66 Q336.903 2304.66 334.617 2309.11 Q332.36 2313.54 332.36 2322.45 Q332.36 2331.33 334.617 2335.79 Q336.903 2340.22 341.417 2340.22 Q345.959 2340.22 348.216 2335.79 Q350.502 2331.33 350.502 2322.45 Q350.502 2313.54 348.216 2309.11 Q345.959 2304.66 341.417 2304.66 M341.417 2300.03 Q348.679 2300.03 352.499 2305.78 Q356.347 2311.51 356.347 2322.45 Q356.347 2333.36 352.499 2339.12 Q348.679 2344.85 341.417 2344.85 Q334.154 2344.85 330.306 2339.12 Q326.486 2333.36 326.486 2322.45 Q326.486 2311.51 330.306 2305.78 Q334.154 2300.03 341.417 2300.03 Z" fill="#000000" fill-rule="nonzero" fill-opacity="1" /><path clip-path="url(#clip020)" d="M827.275 2322.97 L864.37 2322.97 L864.37 2327.89 L827.275 2327.89 L827.275 2322.97 Z" fill="#000000" fill-rule="nonzero" fill-opacity="1" /><path clip-path="url(#clip020)" d="M882.02 2339.09 L902.419 2339.09 L902.419 2344.01 L874.989 2344.01 L874.989 2339.09 Q878.317 2335.65 884.046 2329.86 Q889.804 2324.04 891.279 2322.36 Q894.086 2319.21 895.186 2317.04 Q896.314 2314.84 896.314 2312.73 Q896.314 2309.29 893.884 2307.12 Q891.482 2304.95 887.605 2304.95 Q884.856 2304.95 881.789 2305.9 Q878.751 2306.86 875.278 2308.79 L875.278 2302.89 Q878.808 2301.47 881.876 2300.75 Q884.943 2300.03 887.489 2300.03 Q894.202 2300.03 898.195 2303.38 Q902.188 2306.74 902.188 2312.35 Q902.188 2315.01 901.175 2317.42 Q900.191 2319.79 897.558 2323.03 Q896.835 2323.87 892.958 2327.89 Q889.08 2331.88 882.02 2339.09 Z" fill="#000000" fill-rule="nonzero" fill-opacity="1" /><path clip-path="url(#clip020)" d="M927.188 2304.66 Q922.674 2304.66 920.388 2309.11 Q918.131 2313.54 918.131 2322.45 Q918.131 2331.33 920.388 2335.79 Q922.674 2340.22 927.188 2340.22 Q931.731 2340.22 933.988 2335.79 Q936.273 2331.33 936.273 2322.45 Q936.273 2313.54 933.988 2309.11 Q931.731 2304.66 927.188 2304.66 M927.188 2300.03 Q934.45 2300.03 938.27 2305.78 Q942.118 2311.51 942.118 2322.45 Q942.118 2333.36 938.27 2339.12 Q934.45 2344.85 927.188 2344.85 Q919.925 2344.85 916.077 2339.12 Q912.257 2333.36 912.257 2322.45 Q912.257 2311.51 916.077 2305.78 Q919.925 2300.03 927.188 2300.03 Z" fill="#000000" fill-rule="nonzero" fill-opacity="1" /><path clip-path="url(#clip020)" d="M1413.05 2322.97 L1450.14 2322.97 L1450.14 2327.89 L1413.05 2327.89 L1413.05 2322.97 Z" fill="#000000" fill-rule="nonzero" fill-opacity="1" /><path clip-path="url(#clip020)" d="M1463.77 2339.09 L1473.32 2339.09 L1473.32 2306.13 L1462.93 2308.22 L1462.93 2302.89 L1473.26 2300.81 L1479.1 2300.81 L1479.1 2339.09 L1488.65 2339.09 L1488.65 2344.01 L1463.77 2344.01 L1463.77 2339.09 Z" fill="#000000" fill-rule="nonzero" fill-opacity="1" /><path clip-path="url(#clip020)" d="M1512.96 2304.66 Q1508.45 2304.66 1506.16 2309.11 Q1503.9 2313.54 1503.9 2322.45 Q1503.9 2331.33 1506.16 2335.79 Q1508.45 2340.22 1512.96 2340.22 Q1517.5 2340.22 1519.76 2335.79 Q1522.04 2331.33 1522.04 2322.45 Q1522.04 2313.54 1519.76 2309.11 Q1517.5 2304.66 1512.96 2304.66 M1512.96 2300.03 Q1520.22 2300.03 1524.04 2305.78 Q1527.89 2311.51 1527.89 2322.45 Q1527.89 2333.36 1524.04 2339.12 Q1520.22 2344.85 1512.96 2344.85 Q1505.7 2344.85 1501.85 2339.12 Q1498.03 2333.36 1498.03 2322.45 Q1498.03 2311.51 1501.85 2305.78 Q1505.7 2300.03 1512.96 2300.03 Z" fill="#000000" fill-rule="nonzero" fill-opacity="1" /><path clip-path="url(#clip020)" d="M2056.24 2304.66 Q2051.73 2304.66 2049.44 2309.11 Q2047.18 2313.54 2047.18 2322.45 Q2047.18 2331.33 2049.44 2335.79 Q2051.73 2340.22 2056.24 2340.22 Q2060.78 2340.22 2063.04 2335.79 Q2065.32 2331.33 2065.32 2322.45 Q2065.32 2313.54 2063.04 2309.11 Q2060.78 2304.66 2056.24 2304.66 M2056.24 2300.03 Q2063.5 2300.03 2067.32 2305.78 Q2071.17 2311.51 2071.17 2322.45 Q2071.17 2333.36 2067.32 2339.12 Q2063.5 2344.85 2056.24 2344.85 Q2048.98 2344.85 2045.13 2339.12 Q2041.31 2333.36 2041.31 2322.45 Q2041.31 2311.51 2045.13 2305.78 Q2048.98 2300.03 2056.24 2300.03 Z" fill="#000000" fill-rule="nonzero" fill-opacity="1" /><path clip-path="url(#clip020)" d="M2610.37 2339.09 L2619.92 2339.09 L2619.92 2306.13 L2609.53 2308.22 L2609.53 2302.89 L2619.86 2300.81 L2625.71 2300.81 L2625.71 2339.09 L2635.25 2339.09 L2635.25 2344.01 L2610.37 2344.01 L2610.37 2339.09 Z" fill="#000000" fill-rule="nonzero" fill-opacity="1" /><path clip-path="url(#clip020)" d="M2659.56 2304.66 Q2655.05 2304.66 2652.76 2309.11 Q2650.5 2313.54 2650.5 2322.45 Q2650.5 2331.33 2652.76 2335.79 Q2655.05 2340.22 2659.56 2340.22 Q2664.1 2340.22 2666.36 2335.79 Q2668.64 2331.33 2668.64 2322.45 Q2668.64 2313.54 2666.36 2309.11 Q2664.1 2304.66 2659.56 2304.66 M2659.56 2300.03 Q2666.82 2300.03 2670.64 2305.78 Q2674.49 2311.51 2674.49 2322.45 Q2674.49 2333.36 2670.64 2339.12 Q2666.82 2344.85 2659.56 2344.85 Q2652.3 2344.85 2648.45 2339.12 Q2644.63 2333.36 2644.63 2322.45 Q2644.63 2311.51 2648.45 2305.78 Q2652.3 2300.03 2659.56 2300.03 Z" fill="#000000" fill-rule="nonzero" fill-opacity="1" /><polyline clip-path="url(#clip022)" style="stroke:#000000; stroke-linecap:round; stroke-linejoin:round; stroke-width:2; stroke-opacity:0.1; fill:none" points="256.797,2264.41 3152.76,2264.41 "/>
<polyline clip-path="url(#clip022)" style="stroke:#000000; stroke-linecap:round; stroke-linejoin:round; stroke-width:2; stroke-opacity:0.1; fill:none" points="256.797,1808.36 3152.76,1808.36 "/>
<polyline clip-path="url(#clip022)" style="stroke:#000000; stroke-linecap:round; stroke-linejoin:round; stroke-width:2; stroke-opacity:0.1; fill:none" points="256.797,1352.31 3152.76,1352.31 "/>
<polyline clip-path="url(#clip022)" style="stroke:#000000; stroke-linecap:round; stroke-linejoin:round; stroke-width:2; stroke-opacity:0.1; fill:none" points="256.797,896.256 3152.76,896.256 "/>
<polyline clip-path="url(#clip022)" style="stroke:#000000; stroke-linecap:round; stroke-linejoin:round; stroke-width:2; stroke-opacity:0.1; fill:none" points="256.797,440.205 3152.76,440.205 "/>
<polyline clip-path="url(#clip020)" style="stroke:#000000; stroke-linecap:round; stroke-linejoin:round; stroke-width:4; stroke-opacity:1; fill:none" points="256.797,2264.41 256.797,47.2441 "/>
<polyline clip-path="url(#clip020)" style="stroke:#000000; stroke-linecap:round; stroke-linejoin:round; stroke-width:4; stroke-opacity:1; fill:none" points="256.797,2264.41 275.694,2264.41 "/>
<polyline clip-path="url(#clip020)" style="stroke:#000000; stroke-linecap:round; stroke-linejoin:round; stroke-width:4; stroke-opacity:1; fill:none" points="256.797,1808.36 275.694,1808.36 "/>
<polyline clip-path="url(#clip020)" style="stroke:#000000; stroke-linecap:round; stroke-linejoin:round; stroke-width:4; stroke-opacity:1; fill:none" points="256.797,1352.31 275.694,1352.31 "/>
<polyline clip-path="url(#clip020)" style="stroke:#000000; stroke-linecap:round; stroke-linejoin:round; stroke-width:4; stroke-opacity:1; fill:none" points="256.797,896.256 275.694,896.256 "/>
<polyline clip-path="url(#clip020)" style="stroke:#000000; stroke-linecap:round; stroke-linejoin:round; stroke-width:4; stroke-opacity:1; fill:none" points="256.797,440.205 275.694,440.205 "/>
<path clip-path="url(#clip020)" d="M61.9226 2246.66 Q57.4087 2246.66 55.1229 2251.11 Q52.8659 2255.54 52.8659 2264.45 Q52.8659 2273.33 55.1229 2277.79 Q57.4087 2282.22 61.9226 2282.22 Q66.4654 2282.22 68.7223 2277.79 Q71.0082 2273.33 71.0082 2264.45 Q71.0082 2255.54 68.7223 2251.11 Q66.4654 2246.66 61.9226 2246.66 M61.9226 2242.03 Q69.1853 2242.03 73.0047 2247.78 Q76.8531 2253.51 76.8531 2264.45 Q76.8531 2275.36 73.0047 2281.12 Q69.1853 2286.85 61.9226 2286.85 Q54.6599 2286.85 50.8115 2281.12 Q46.9921 2275.36 46.9921 2264.45 Q46.9921 2253.51 50.8115 2247.78 Q54.6599 2242.03 61.9226 2242.03 Z" fill="#000000" fill-rule="nonzero" fill-opacity="1" /><path clip-path="url(#clip020)" d="M87.125 2278.66 L93.2303 2278.66 L93.2303 2286.01 L87.125 2286.01 L87.125 2278.66 Z" fill="#000000" fill-rule="nonzero" fill-opacity="1" /><path clip-path="url(#clip020)" d="M118.462 2246.66 Q113.948 2246.66 111.662 2251.11 Q109.405 2255.54 109.405 2264.45 Q109.405 2273.33 111.662 2277.79 Q113.948 2282.22 118.462 2282.22 Q123.004 2282.22 125.261 2277.79 Q127.547 2273.33 127.547 2264.45 Q127.547 2255.54 125.261 2251.11 Q123.004 2246.66 118.462 2246.66 M118.462 2242.03 Q125.724 2242.03 129.544 2247.78 Q133.392 2253.51 133.392 2264.45 Q133.392 2275.36 129.544 2281.12 Q125.724 2286.85 118.462 2286.85 Q111.199 2286.85 107.351 2281.12 Q103.531 2275.36 103.531 2264.45 Q103.531 2253.51 107.351 2247.78 Q111.199 2242.03 118.462 2242.03 Z" fill="#000000" fill-rule="nonzero" fill-opacity="1" /><path clip-path="url(#clip020)" d="M156.164 2246.66 Q151.65 2246.66 149.364 2251.11 Q147.107 2255.54 147.107 2264.45 Q147.107 2273.33 149.364 2277.79 Q151.65 2282.22 156.164 2282.22 Q160.707 2282.22 162.964 2277.79 Q165.25 2273.33 165.25 2264.45 Q165.25 2255.54 162.964 2251.11 Q160.707 2246.66 156.164 2246.66 M156.164 2242.03 Q163.427 2242.03 167.246 2247.78 Q171.094 2253.51 171.094 2264.45 Q171.094 2275.36 167.246 2281.12 Q163.427 2286.85 156.164 2286.85 Q148.901 2286.85 145.053 2281.12 Q141.234 2275.36 141.234 2264.45 Q141.234 2253.51 145.053 2247.78 Q148.901 2242.03 156.164 2242.03 Z" fill="#000000" fill-rule="nonzero" fill-opacity="1" /><path clip-path="url(#clip020)" d="M193.866 2246.66 Q189.352 2246.66 187.067 2251.11 Q184.81 2255.54 184.81 2264.45 Q184.81 2273.33 187.067 2277.79 Q189.352 2282.22 193.866 2282.22 Q198.409 2282.22 200.666 2277.79 Q202.952 2273.33 202.952 2264.45 Q202.952 2255.54 200.666 2251.11 Q198.409 2246.66 193.866 2246.66 M193.866 2242.03 Q201.129 2242.03 204.948 2247.78 Q208.797 2253.51 208.797 2264.45 Q208.797 2275.36 204.948 2281.12 Q201.129 2286.85 193.866 2286.85 Q186.604 2286.85 182.755 2281.12 Q178.936 2275.36 178.936 2264.45 Q178.936 2253.51 182.755 2247.78 Q186.604 2242.03 193.866 2242.03 Z" fill="#000000" fill-rule="nonzero" fill-opacity="1" /><path clip-path="url(#clip020)" d="M63.1668 1790.61 Q58.6529 1790.61 56.3671 1795.06 Q54.1101 1799.49 54.1101 1808.4 Q54.1101 1817.28 56.3671 1821.74 Q58.6529 1826.17 63.1668 1826.17 Q67.7096 1826.17 69.9665 1821.74 Q72.2524 1817.28 72.2524 1808.4 Q72.2524 1799.49 69.9665 1795.06 Q67.7096 1790.61 63.1668 1790.61 M63.1668 1785.98 Q70.4295 1785.98 74.2489 1791.73 Q78.0973 1797.46 78.0973 1808.4 Q78.0973 1819.31 74.2489 1825.07 Q70.4295 1830.8 63.1668 1830.8 Q55.9041 1830.8 52.0558 1825.07 Q48.2363 1819.31 48.2363 1808.4 Q48.2363 1797.46 52.0558 1791.73 Q55.9041 1785.98 63.1668 1785.98 Z" fill="#000000" fill-rule="nonzero" fill-opacity="1" /><path clip-path="url(#clip020)" d="M88.3692 1822.61 L94.4745 1822.61 L94.4745 1829.96 L88.3692 1829.96 L88.3692 1822.61 Z" fill="#000000" fill-rule="nonzero" fill-opacity="1" /><path clip-path="url(#clip020)" d="M119.706 1790.61 Q115.192 1790.61 112.906 1795.06 Q110.649 1799.49 110.649 1808.4 Q110.649 1817.28 112.906 1821.74 Q115.192 1826.17 119.706 1826.17 Q124.249 1826.17 126.506 1821.74 Q128.791 1817.28 128.791 1808.4 Q128.791 1799.49 126.506 1795.06 Q124.249 1790.61 119.706 1790.61 M119.706 1785.98 Q126.969 1785.98 130.788 1791.73 Q134.636 1797.46 134.636 1808.4 Q134.636 1819.31 130.788 1825.07 Q126.969 1830.8 119.706 1830.8 Q112.443 1830.8 108.595 1825.07 Q104.775 1819.31 104.775 1808.4 Q104.775 1797.46 108.595 1791.73 Q112.443 1785.98 119.706 1785.98 Z" fill="#000000" fill-rule="nonzero" fill-opacity="1" /><path clip-path="url(#clip020)" d="M149.943 1825.04 L170.342 1825.04 L170.342 1829.96 L142.912 1829.96 L142.912 1825.04 Q146.239 1821.59 151.968 1815.81 Q157.726 1809.99 159.202 1808.31 Q162.009 1805.16 163.108 1802.99 Q164.237 1800.79 164.237 1798.68 Q164.237 1795.24 161.806 1793.06 Q159.405 1790.89 155.527 1790.89 Q152.779 1790.89 149.711 1791.85 Q146.673 1792.8 143.201 1794.74 L143.201 1788.84 Q146.731 1787.42 149.798 1786.7 Q152.865 1785.98 155.412 1785.98 Q162.125 1785.98 166.118 1789.33 Q170.111 1792.69 170.111 1798.3 Q170.111 1800.96 169.098 1803.37 Q168.114 1805.74 165.481 1808.98 Q164.758 1809.82 160.88 1813.84 Q157.003 1817.83 149.943 1825.04 Z" fill="#000000" fill-rule="nonzero" fill-opacity="1" /><path clip-path="url(#clip020)" d="M182.668 1786.76 L205.614 1786.76 L205.614 1791.68 L188.021 1791.68 L188.021 1802.27 Q189.295 1801.83 190.568 1801.63 Q191.841 1801.4 193.114 1801.4 Q200.348 1801.4 204.572 1805.36 Q208.797 1809.33 208.797 1816.1 Q208.797 1823.07 204.457 1826.95 Q200.116 1830.8 192.217 1830.8 Q189.497 1830.8 186.662 1830.33 Q183.855 1829.87 180.846 1828.94 L180.846 1823.07 Q183.45 1824.49 186.227 1825.18 Q189.005 1825.88 192.101 1825.88 Q197.107 1825.88 200.03 1823.24 Q202.952 1820.61 202.952 1816.1 Q202.952 1811.58 200.03 1808.95 Q197.107 1806.32 192.101 1806.32 Q189.758 1806.32 187.414 1806.84 Q185.099 1807.36 182.668 1808.46 L182.668 1786.76 Z" fill="#000000" fill-rule="nonzero" fill-opacity="1" /><path clip-path="url(#clip020)" d="M61.9226 1334.55 Q57.4087 1334.55 55.1229 1339.01 Q52.8659 1343.44 52.8659 1352.35 Q52.8659 1361.23 55.1229 1365.69 Q57.4087 1370.12 61.9226 1370.12 Q66.4654 1370.12 68.7223 1365.69 Q71.0082 1361.23 71.0082 1352.35 Q71.0082 1343.44 68.7223 1339.01 Q66.4654 1334.55 61.9226 1334.55 M61.9226 1329.93 Q69.1853 1329.93 73.0047 1335.68 Q76.8531 1341.41 76.8531 1352.35 Q76.8531 1363.26 73.0047 1369.02 Q69.1853 1374.75 61.9226 1374.75 Q54.6599 1374.75 50.8115 1369.02 Q46.9921 1363.26 46.9921 1352.35 Q46.9921 1341.41 50.8115 1335.68 Q54.6599 1329.93 61.9226 1329.93 Z" fill="#000000" fill-rule="nonzero" fill-opacity="1" /><path clip-path="url(#clip020)" d="M87.125 1366.56 L93.2303 1366.56 L93.2303 1373.91 L87.125 1373.91 L87.125 1366.56 Z" fill="#000000" fill-rule="nonzero" fill-opacity="1" /><path clip-path="url(#clip020)" d="M118.462 1334.55 Q113.948 1334.55 111.662 1339.01 Q109.405 1343.44 109.405 1352.35 Q109.405 1361.23 111.662 1365.69 Q113.948 1370.12 118.462 1370.12 Q123.004 1370.12 125.261 1365.69 Q127.547 1361.23 127.547 1352.35 Q127.547 1343.44 125.261 1339.01 Q123.004 1334.55 118.462 1334.55 M118.462 1329.93 Q125.724 1329.93 129.544 1335.68 Q133.392 1341.41 133.392 1352.35 Q133.392 1363.26 129.544 1369.02 Q125.724 1374.75 118.462 1374.75 Q111.199 1374.75 107.351 1369.02 Q103.531 1363.26 103.531 1352.35 Q103.531 1341.41 107.351 1335.68 Q111.199 1329.93 118.462 1329.93 Z" fill="#000000" fill-rule="nonzero" fill-opacity="1" /><path clip-path="url(#clip020)" d="M143.722 1330.71 L166.667 1330.71 L166.667 1335.63 L149.075 1335.63 L149.075 1346.22 Q150.348 1345.78 151.621 1345.58 Q152.894 1345.35 154.167 1345.35 Q161.401 1345.35 165.626 1349.31 Q169.85 1353.28 169.85 1360.05 Q169.85 1367.02 165.51 1370.9 Q161.17 1374.75 153.27 1374.75 Q150.551 1374.75 147.715 1374.28 Q144.908 1373.82 141.899 1372.89 L141.899 1367.02 Q144.503 1368.44 147.281 1369.13 Q150.059 1369.83 153.155 1369.83 Q158.161 1369.83 161.083 1367.19 Q164.005 1364.56 164.005 1360.05 Q164.005 1355.53 161.083 1352.9 Q158.161 1350.27 153.155 1350.27 Q150.811 1350.27 148.467 1350.79 Q146.152 1351.31 143.722 1352.41 L143.722 1330.71 Z" fill="#000000" fill-rule="nonzero" fill-opacity="1" /><path clip-path="url(#clip020)" d="M193.866 1334.55 Q189.352 1334.55 187.067 1339.01 Q184.81 1343.44 184.81 1352.35 Q184.81 1361.23 187.067 1365.69 Q189.352 1370.12 193.866 1370.12 Q198.409 1370.12 200.666 1365.69 Q202.952 1361.23 202.952 1352.35 Q202.952 1343.44 200.666 1339.01 Q198.409 1334.55 193.866 1334.55 M193.866 1329.93 Q201.129 1329.93 204.948 1335.68 Q208.797 1341.41 208.797 1352.35 Q208.797 1363.26 204.948 1369.02 Q201.129 1374.75 193.866 1374.75 Q186.604 1374.75 182.755 1369.02 Q178.936 1363.26 178.936 1352.35 Q178.936 1341.41 182.755 1335.68 Q186.604 1329.93 193.866 1329.93 Z" fill="#000000" fill-rule="nonzero" fill-opacity="1" /><path clip-path="url(#clip020)" d="M63.1668 878.504 Q58.6529 878.504 56.3671 882.96 Q54.1101 887.387 54.1101 896.299 Q54.1101 905.182 56.3671 909.638 Q58.6529 914.065 63.1668 914.065 Q67.7096 914.065 69.9665 909.638 Q72.2524 905.182 72.2524 896.299 Q72.2524 887.387 69.9665 882.96 Q67.7096 878.504 63.1668 878.504 M63.1668 873.874 Q70.4295 873.874 74.2489 879.632 Q78.0973 885.362 78.0973 896.299 Q78.0973 907.207 74.2489 912.966 Q70.4295 918.695 63.1668 918.695 Q55.9041 918.695 52.0558 912.966 Q48.2363 907.207 48.2363 896.299 Q48.2363 885.362 52.0558 879.632 Q55.9041 873.874 63.1668 873.874 Z" fill="#000000" fill-rule="nonzero" fill-opacity="1" /><path clip-path="url(#clip020)" d="M88.3692 910.506 L94.4745 910.506 L94.4745 917.856 L88.3692 917.856 L88.3692 910.506 Z" fill="#000000" fill-rule="nonzero" fill-opacity="1" /><path clip-path="url(#clip020)" d="M119.706 878.504 Q115.192 878.504 112.906 882.96 Q110.649 887.387 110.649 896.299 Q110.649 905.182 112.906 909.638 Q115.192 914.065 119.706 914.065 Q124.249 914.065 126.506 909.638 Q128.791 905.182 128.791 896.299 Q128.791 887.387 126.506 882.96 Q124.249 878.504 119.706 878.504 M119.706 873.874 Q126.969 873.874 130.788 879.632 Q134.636 885.362 134.636 896.299 Q134.636 907.207 130.788 912.966 Q126.969 918.695 119.706 918.695 Q112.443 918.695 108.595 912.966 Q104.775 907.207 104.775 896.299 Q104.775 885.362 108.595 879.632 Q112.443 873.874 119.706 873.874 Z" fill="#000000" fill-rule="nonzero" fill-opacity="1" /><path clip-path="url(#clip020)" d="M143.433 874.656 L171.21 874.656 L171.21 877.144 L155.527 917.856 L149.422 917.856 L164.179 879.575 L143.433 879.575 L143.433 874.656 Z" fill="#000000" fill-rule="nonzero" fill-opacity="1" /><path clip-path="url(#clip020)" d="M182.668 874.656 L205.614 874.656 L205.614 879.575 L188.021 879.575 L188.021 890.165 Q189.295 889.731 190.568 889.528 Q191.841 889.297 193.114 889.297 Q200.348 889.297 204.572 893.261 Q208.797 897.225 208.797 903.996 Q208.797 910.969 204.457 914.846 Q200.116 918.695 192.217 918.695 Q189.497 918.695 186.662 918.232 Q183.855 917.769 180.846 916.843 L180.846 910.969 Q183.45 912.387 186.227 913.081 Q189.005 913.776 192.101 913.776 Q197.107 913.776 200.03 911.143 Q202.952 908.51 202.952 903.996 Q202.952 899.482 200.03 896.849 Q197.107 894.216 192.101 894.216 Q189.758 894.216 187.414 894.737 Q185.099 895.257 182.668 896.357 L182.668 874.656 Z" fill="#000000" fill-rule="nonzero" fill-opacity="1" /><path clip-path="url(#clip020)" d="M61.9226 422.453 Q57.4087 422.453 55.1229 426.909 Q52.8659 431.336 52.8659 440.248 Q52.8659 449.131 55.1229 453.587 Q57.4087 458.014 61.9226 458.014 Q66.4654 458.014 68.7223 453.587 Q71.0082 449.131 71.0082 440.248 Q71.0082 431.336 68.7223 426.909 Q66.4654 422.453 61.9226 422.453 M61.9226 417.824 Q69.1853 417.824 73.0047 423.582 Q76.8531 429.311 76.8531 440.248 Q76.8531 451.157 73.0047 456.915 Q69.1853 462.644 61.9226 462.644 Q54.6599 462.644 50.8115 456.915 Q46.9921 451.157 46.9921 440.248 Q46.9921 429.311 50.8115 423.582 Q54.6599 417.824 61.9226 417.824 Z" fill="#000000" fill-rule="nonzero" fill-opacity="1" /><path clip-path="url(#clip020)" d="M87.125 454.455 L93.2303 454.455 L93.2303 461.805 L87.125 461.805 L87.125 454.455 Z" fill="#000000" fill-rule="nonzero" fill-opacity="1" /><path clip-path="url(#clip020)" d="M106.974 456.886 L116.523 456.886 L116.523 423.929 L106.135 426.012 L106.135 420.688 L116.465 418.605 L122.31 418.605 L122.31 456.886 L131.859 456.886 L131.859 461.805 L106.974 461.805 L106.974 456.886 Z" fill="#000000" fill-rule="nonzero" fill-opacity="1" /><path clip-path="url(#clip020)" d="M156.164 422.453 Q151.65 422.453 149.364 426.909 Q147.107 431.336 147.107 440.248 Q147.107 449.131 149.364 453.587 Q151.65 458.014 156.164 458.014 Q160.707 458.014 162.964 453.587 Q165.25 449.131 165.25 440.248 Q165.25 431.336 162.964 426.909 Q160.707 422.453 156.164 422.453 M156.164 417.824 Q163.427 417.824 167.246 423.582 Q171.094 429.311 171.094 440.248 Q171.094 451.157 167.246 456.915 Q163.427 462.644 156.164 462.644 Q148.901 462.644 145.053 456.915 Q141.234 451.157 141.234 440.248 Q141.234 429.311 145.053 423.582 Q148.901 417.824 156.164 417.824 Z" fill="#000000" fill-rule="nonzero" fill-opacity="1" /><path clip-path="url(#clip020)" d="M193.866 422.453 Q189.352 422.453 187.067 426.909 Q184.81 431.336 184.81 440.248 Q184.81 449.131 187.067 453.587 Q189.352 458.014 193.866 458.014 Q198.409 458.014 200.666 453.587 Q202.952 449.131 202.952 440.248 Q202.952 431.336 200.666 426.909 Q198.409 422.453 193.866 422.453 M193.866 417.824 Q201.129 417.824 204.948 423.582 Q208.797 429.311 208.797 440.248 Q208.797 451.157 204.948 456.915 Q201.129 462.644 193.866 462.644 Q186.604 462.644 182.755 456.915 Q178.936 451.157 178.936 440.248 Q178.936 429.311 182.755 423.582 Q186.604 417.824 193.866 417.824 Z" fill="#000000" fill-rule="nonzero" fill-opacity="1" /><path clip-path="url(#clip022)" d="M416.08 2246.38 L416.08 2264.41 L533.234 2264.41 L533.234 2246.38 L416.08 2246.38 L416.08 2246.38  Z" fill="#009af9" fill-rule="evenodd" fill-opacity="1"/>
<polyline clip-path="url(#clip022)" style="stroke:#000000; stroke-linecap:round; stroke-linejoin:round; stroke-width:4; stroke-opacity:1; fill:none" points="416.08,2246.38 416.08,2264.41 533.234,2264.41 533.234,2246.38 416.08,2246.38 "/>
<path clip-path="url(#clip022)" d="M533.234 2228.36 L533.234 2264.41 L650.388 2264.41 L650.388 2228.36 L533.234 2228.36 L533.234 2228.36  Z" fill="#009af9" fill-rule="evenodd" fill-opacity="1"/>
<polyline clip-path="url(#clip022)" style="stroke:#000000; stroke-linecap:round; stroke-linejoin:round; stroke-width:4; stroke-opacity:1; fill:none" points="533.234,2228.36 533.234,2264.41 650.388,2264.41 650.388,2228.36 533.234,2228.36 "/>
<path clip-path="url(#clip022)" d="M650.388 2264.41 L650.388 2264.41 L767.542 2264.41 L767.542 2264.41 L650.388 2264.41 L650.388 2264.41  Z" fill="#009af9" fill-rule="evenodd" fill-opacity="1"/>
<polyline clip-path="url(#clip022)" style="stroke:#000000; stroke-linecap:round; stroke-linejoin:round; stroke-width:4; stroke-opacity:1; fill:none" points="650.388,2264.41 650.388,2264.41 767.542,2264.41 650.388,2264.41 "/>
<path clip-path="url(#clip022)" d="M767.542 2264.41 L767.542 2264.41 L884.697 2264.41 L884.697 2264.41 L767.542 2264.41 L767.542 2264.41  Z" fill="#009af9" fill-rule="evenodd" fill-opacity="1"/>
<polyline clip-path="url(#clip022)" style="stroke:#000000; stroke-linecap:round; stroke-linejoin:round; stroke-width:4; stroke-opacity:1; fill:none" points="767.542,2264.41 767.542,2264.41 884.697,2264.41 767.542,2264.41 "/>
<path clip-path="url(#clip022)" d="M884.697 2264.41 L884.697 2264.41 L1001.85 2264.41 L1001.85 2264.41 L884.697 2264.41 L884.697 2264.41  Z" fill="#009af9" fill-rule="evenodd" fill-opacity="1"/>
<polyline clip-path="url(#clip022)" style="stroke:#000000; stroke-linecap:round; stroke-linejoin:round; stroke-width:4; stroke-opacity:1; fill:none" points="884.697,2264.41 884.697,2264.41 1001.85,2264.41 884.697,2264.41 "/>
<path clip-path="url(#clip022)" d="M1001.85 2228.36 L1001.85 2264.41 L1119.01 2264.41 L1119.01 2228.36 L1001.85 2228.36 L1001.85 2228.36  Z" fill="#009af9" fill-rule="evenodd" fill-opacity="1"/>
<polyline clip-path="url(#clip022)" style="stroke:#000000; stroke-linecap:round; stroke-linejoin:round; stroke-width:4; stroke-opacity:1; fill:none" points="1001.85,2228.36 1001.85,2264.41 1119.01,2264.41 1119.01,2228.36 1001.85,2228.36 "/>
<path clip-path="url(#clip022)" d="M1119.01 2228.36 L1119.01 2264.41 L1236.16 2264.41 L1236.16 2228.36 L1119.01 2228.36 L1119.01 2228.36  Z" fill="#009af9" fill-rule="evenodd" fill-opacity="1"/>
<polyline clip-path="url(#clip022)" style="stroke:#000000; stroke-linecap:round; stroke-linejoin:round; stroke-width:4; stroke-opacity:1; fill:none" points="1119.01,2228.36 1119.01,2264.41 1236.16,2264.41 1236.16,2228.36 1119.01,2228.36 "/>
<path clip-path="url(#clip022)" d="M1236.16 2138.23 L1236.16 2264.41 L1353.31 2264.41 L1353.31 2138.23 L1236.16 2138.23 L1236.16 2138.23  Z" fill="#009af9" fill-rule="evenodd" fill-opacity="1"/>
<polyline clip-path="url(#clip022)" style="stroke:#000000; stroke-linecap:round; stroke-linejoin:round; stroke-width:4; stroke-opacity:1; fill:none" points="1236.16,2138.23 1236.16,2264.41 1353.31,2264.41 1353.31,2138.23 1236.16,2138.23 "/>
<path clip-path="url(#clip022)" d="M1353.31 2174.28 L1353.31 2264.41 L1470.47 2264.41 L1470.47 2174.28 L1353.31 2174.28 L1353.31 2174.28  Z" fill="#009af9" fill-rule="evenodd" fill-opacity="1"/>
<polyline clip-path="url(#clip022)" style="stroke:#000000; stroke-linecap:round; stroke-linejoin:round; stroke-width:4; stroke-opacity:1; fill:none" points="1353.31,2174.28 1353.31,2264.41 1470.47,2264.41 1470.47,2174.28 1353.31,2174.28 "/>
<path clip-path="url(#clip022)" d="M1470.47 2084.15 L1470.47 2264.41 L1587.62 2264.41 L1587.62 2084.15 L1470.47 2084.15 L1470.47 2084.15  Z" fill="#009af9" fill-rule="evenodd" fill-opacity="1"/>
<polyline clip-path="url(#clip022)" style="stroke:#000000; stroke-linecap:round; stroke-linejoin:round; stroke-width:4; stroke-opacity:1; fill:none" points="1470.47,2084.15 1470.47,2264.41 1587.62,2264.41 1587.62,2084.15 1470.47,2084.15 "/>
<path clip-path="url(#clip022)" d="M1587.62 1994.02 L1587.62 2264.41 L1704.78 2264.41 L1704.78 1994.02 L1587.62 1994.02 L1587.62 1994.02  Z" fill="#009af9" fill-rule="evenodd" fill-opacity="1"/>
<polyline clip-path="url(#clip022)" style="stroke:#000000; stroke-linecap:round; stroke-linejoin:round; stroke-width:4; stroke-opacity:1; fill:none" points="1587.62,1994.02 1587.62,2264.41 1704.78,2264.41 1704.78,1994.02 1587.62,1994.02 "/>
<path clip-path="url(#clip022)" d="M1704.78 1669.56 L1704.78 2264.41 L1821.93 2264.41 L1821.93 1669.56 L1704.78 1669.56 L1704.78 1669.56  Z" fill="#009af9" fill-rule="evenodd" fill-opacity="1"/>
<polyline clip-path="url(#clip022)" style="stroke:#000000; stroke-linecap:round; stroke-linejoin:round; stroke-width:4; stroke-opacity:1; fill:none" points="1704.78,1669.56 1704.78,2264.41 1821.93,2264.41 1821.93,1669.56 1704.78,1669.56 "/>
<path clip-path="url(#clip022)" d="M1821.93 1417.2 L1821.93 2264.41 L1939.08 2264.41 L1939.08 1417.2 L1821.93 1417.2 L1821.93 1417.2  Z" fill="#009af9" fill-rule="evenodd" fill-opacity="1"/>
<polyline clip-path="url(#clip022)" style="stroke:#000000; stroke-linecap:round; stroke-linejoin:round; stroke-width:4; stroke-opacity:1; fill:none" points="1821.93,1417.2 1821.93,2264.41 1939.08,2264.41 1939.08,1417.2 1821.93,1417.2 "/>
<path clip-path="url(#clip022)" d="M1939.08 750.247 L1939.08 2264.41 L2056.24 2264.41 L2056.24 750.247 L1939.08 750.247 L1939.08 750.247  Z" fill="#009af9" fill-rule="evenodd" fill-opacity="1"/>
<polyline clip-path="url(#clip022)" style="stroke:#000000; stroke-linecap:round; stroke-linejoin:round; stroke-width:4; stroke-opacity:1; fill:none" points="1939.08,750.247 1939.08,2264.41 2056.24,2264.41 2056.24,750.247 1939.08,750.247 "/>
<path clip-path="url(#clip022)" d="M2056.24 47.2441 L2056.24 2264.41 L2173.39 2264.41 L2173.39 47.2441 L2056.24 47.2441 L2056.24 47.2441  Z" fill="#009af9" fill-rule="evenodd" fill-opacity="1"/>
<polyline clip-path="url(#clip022)" style="stroke:#000000; stroke-linecap:round; stroke-linejoin:round; stroke-width:4; stroke-opacity:1; fill:none" points="2056.24,47.2441 2056.24,2264.41 2173.39,2264.41 2173.39,47.2441 2056.24,47.2441 "/>
<path clip-path="url(#clip022)" d="M2173.39 443.81 L2173.39 2264.41 L2290.55 2264.41 L2290.55 443.81 L2173.39 443.81 L2173.39 443.81  Z" fill="#009af9" fill-rule="evenodd" fill-opacity="1"/>
<polyline clip-path="url(#clip022)" style="stroke:#000000; stroke-linecap:round; stroke-linejoin:round; stroke-width:4; stroke-opacity:1; fill:none" points="2173.39,443.81 2173.39,2264.41 2290.55,2264.41 2290.55,443.81 2173.39,443.81 "/>
<path clip-path="url(#clip022)" d="M2290.55 1399.17 L2290.55 2264.41 L2407.7 2264.41 L2407.7 1399.17 L2290.55 1399.17 L2290.55 1399.17  Z" fill="#009af9" fill-rule="evenodd" fill-opacity="1"/>
<polyline clip-path="url(#clip022)" style="stroke:#000000; stroke-linecap:round; stroke-linejoin:round; stroke-width:4; stroke-opacity:1; fill:none" points="2290.55,1399.17 2290.55,2264.41 2407.7,2264.41 2407.7,1399.17 2290.55,1399.17 "/>
<path clip-path="url(#clip022)" d="M2407.7 1867.84 L2407.7 2264.41 L2524.86 2264.41 L2524.86 1867.84 L2407.7 1867.84 L2407.7 1867.84  Z" fill="#009af9" fill-rule="evenodd" fill-opacity="1"/>
<polyline clip-path="url(#clip022)" style="stroke:#000000; stroke-linecap:round; stroke-linejoin:round; stroke-width:4; stroke-opacity:1; fill:none" points="2407.7,1867.84 2407.7,2264.41 2524.86,2264.41 2524.86,1867.84 2407.7,1867.84 "/>
<path clip-path="url(#clip022)" d="M2524.86 2264.41 L2524.86 2264.41 L2642.01 2264.41 L2642.01 2264.41 L2524.86 2264.41 L2524.86 2264.41  Z" fill="#009af9" fill-rule="evenodd" fill-opacity="1"/>
<polyline clip-path="url(#clip022)" style="stroke:#000000; stroke-linecap:round; stroke-linejoin:round; stroke-width:4; stroke-opacity:1; fill:none" points="2524.86,2264.41 2524.86,2264.41 2642.01,2264.41 2524.86,2264.41 "/>
<path clip-path="url(#clip022)" d="M2642.01 2210.33 L2642.01 2264.41 L2759.16 2264.41 L2759.16 2210.33 L2642.01 2210.33 L2642.01 2210.33  Z" fill="#009af9" fill-rule="evenodd" fill-opacity="1"/>
<polyline clip-path="url(#clip022)" style="stroke:#000000; stroke-linecap:round; stroke-linejoin:round; stroke-width:4; stroke-opacity:1; fill:none" points="2642.01,2210.33 2642.01,2264.41 2759.16,2264.41 2759.16,2210.33 2642.01,2210.33 "/>
<path clip-path="url(#clip022)" d="M2759.16 2264.41 L2759.16 2264.41 L2876.32 2264.41 L2876.32 2264.41 L2759.16 2264.41 L2759.16 2264.41  Z" fill="#009af9" fill-rule="evenodd" fill-opacity="1"/>
<polyline clip-path="url(#clip022)" style="stroke:#000000; stroke-linecap:round; stroke-linejoin:round; stroke-width:4; stroke-opacity:1; fill:none" points="2759.16,2264.41 2759.16,2264.41 2876.32,2264.41 2759.16,2264.41 "/>
<path clip-path="url(#clip022)" d="M2876.32 2246.38 L2876.32 2264.41 L2993.47 2264.41 L2993.47 2246.38 L2876.32 2246.38 L2876.32 2246.38  Z" fill="#009af9" fill-rule="evenodd" fill-opacity="1"/>
<polyline clip-path="url(#clip022)" style="stroke:#000000; stroke-linecap:round; stroke-linejoin:round; stroke-width:4; stroke-opacity:1; fill:none" points="2876.32,2246.38 2876.32,2264.41 2993.47,2264.41 2993.47,2246.38 2876.32,2246.38 "/>
<circle clip-path="url(#clip022)" style="fill:#009af9; stroke:none; fill-opacity:0" cx="474.657" cy="2246.38" r="2"/>
<circle clip-path="url(#clip022)" style="fill:#009af9; stroke:none; fill-opacity:0" cx="591.811" cy="2228.36" r="2"/>
<circle clip-path="url(#clip022)" style="fill:#009af9; stroke:none; fill-opacity:0" cx="708.965" cy="2264.41" r="2"/>
<circle clip-path="url(#clip022)" style="fill:#009af9; stroke:none; fill-opacity:0" cx="826.12" cy="2264.41" r="2"/>
<circle clip-path="url(#clip022)" style="fill:#009af9; stroke:none; fill-opacity:0" cx="943.274" cy="2264.41" r="2"/>
<circle clip-path="url(#clip022)" style="fill:#009af9; stroke:none; fill-opacity:0" cx="1060.43" cy="2228.36" r="2"/>
<circle clip-path="url(#clip022)" style="fill:#009af9; stroke:none; fill-opacity:0" cx="1177.58" cy="2228.36" r="2"/>
<circle clip-path="url(#clip022)" style="fill:#009af9; stroke:none; fill-opacity:0" cx="1294.74" cy="2138.23" r="2"/>
<circle clip-path="url(#clip022)" style="fill:#009af9; stroke:none; fill-opacity:0" cx="1411.89" cy="2174.28" r="2"/>
<circle clip-path="url(#clip022)" style="fill:#009af9; stroke:none; fill-opacity:0" cx="1529.04" cy="2084.15" r="2"/>
<circle clip-path="url(#clip022)" style="fill:#009af9; stroke:none; fill-opacity:0" cx="1646.2" cy="1994.02" r="2"/>
<circle clip-path="url(#clip022)" style="fill:#009af9; stroke:none; fill-opacity:0" cx="1763.35" cy="1669.56" r="2"/>
<circle clip-path="url(#clip022)" style="fill:#009af9; stroke:none; fill-opacity:0" cx="1880.51" cy="1417.2" r="2"/>
<circle clip-path="url(#clip022)" style="fill:#009af9; stroke:none; fill-opacity:0" cx="1997.66" cy="750.247" r="2"/>
<circle clip-path="url(#clip022)" style="fill:#009af9; stroke:none; fill-opacity:0" cx="2114.82" cy="47.2441" r="2"/>
<circle clip-path="url(#clip022)" style="fill:#009af9; stroke:none; fill-opacity:0" cx="2231.97" cy="443.81" r="2"/>
<circle clip-path="url(#clip022)" style="fill:#009af9; stroke:none; fill-opacity:0" cx="2349.12" cy="1399.17" r="2"/>
<circle clip-path="url(#clip022)" style="fill:#009af9; stroke:none; fill-opacity:0" cx="2466.28" cy="1867.84" r="2"/>
<circle clip-path="url(#clip022)" style="fill:#009af9; stroke:none; fill-opacity:0" cx="2583.43" cy="2264.41" r="2"/>
<circle clip-path="url(#clip022)" style="fill:#009af9; stroke:none; fill-opacity:0" cx="2700.59" cy="2210.33" r="2"/>
<circle clip-path="url(#clip022)" style="fill:#009af9; stroke:none; fill-opacity:0" cx="2817.74" cy="2264.41" r="2"/>
<circle clip-path="url(#clip022)" style="fill:#009af9; stroke:none; fill-opacity:0" cx="2934.9" cy="2246.38" r="2"/>
<path clip-path="url(#clip020)" d="M2542.76 250.75 L3056.22 250.75 L3056.22 121.15 L2542.76 121.15  Z" fill="#ffffff" fill-rule="evenodd" fill-opacity="1"/>
<polyline clip-path="url(#clip020)" style="stroke:#000000; stroke-linecap:round; stroke-linejoin:round; stroke-width:4; stroke-opacity:1; fill:none" points="2542.76,250.75 3056.22,250.75 3056.22,121.15 2542.76,121.15 2542.76,250.75 "/>
<path clip-path="url(#clip020)" d="M2574.94 211.87 L2768 211.87 L2768 160.03 L2574.94 160.03 L2574.94 211.87  Z" fill="#009af9" fill-rule="evenodd" fill-opacity="1"/>
<polyline clip-path="url(#clip020)" style="stroke:#000000; stroke-linecap:round; stroke-linejoin:round; stroke-width:5; stroke-opacity:1; fill:none" points="2574.94,211.87 2768,211.87 2768,160.03 2574.94,160.03 2574.94,211.87 "/>
<path clip-path="url(#clip020)" d="M2819.16 180.119 Q2818.26 179.598 2817.19 179.367 Q2816.15 179.106 2814.88 179.106 Q2810.36 179.106 2807.93 182.058 Q2805.53 184.98 2805.53 190.478 L2805.53 207.55 L2800.18 207.55 L2800.18 175.142 L2805.53 175.142 L2805.53 180.177 Q2807.21 177.226 2809.9 175.808 Q2812.59 174.361 2816.44 174.361 Q2816.99 174.361 2817.65 174.448 Q2818.32 174.506 2819.13 174.65 L2819.16 180.119 Z" fill="#000000" fill-rule="nonzero" fill-opacity="1" /><path clip-path="url(#clip020)" d="M2851.16 190.015 L2851.16 192.619 L2826.68 192.619 Q2827.03 198.117 2829.98 201.01 Q2832.96 203.875 2838.25 203.875 Q2841.32 203.875 2844.19 203.122 Q2847.08 202.37 2849.92 200.866 L2849.92 205.9 Q2847.05 207.116 2844.04 207.752 Q2841.03 208.389 2837.94 208.389 Q2830.18 208.389 2825.64 203.875 Q2821.13 199.361 2821.13 191.664 Q2821.13 183.707 2825.41 179.049 Q2829.72 174.361 2837.01 174.361 Q2843.55 174.361 2847.34 178.586 Q2851.16 182.781 2851.16 190.015 M2845.84 188.452 Q2845.78 184.083 2843.38 181.479 Q2841 178.875 2837.07 178.875 Q2832.61 178.875 2829.92 181.392 Q2827.26 183.91 2826.85 188.481 L2845.84 188.452 Z" fill="#000000" fill-rule="nonzero" fill-opacity="1" /><path clip-path="url(#clip020)" d="M2880.56 176.097 L2880.56 181.132 Q2878.3 179.974 2875.87 179.396 Q2873.44 178.817 2870.84 178.817 Q2866.87 178.817 2864.88 180.032 Q2862.91 181.248 2862.91 183.678 Q2862.91 185.53 2864.33 186.601 Q2865.74 187.642 2870.03 188.597 L2871.85 189.002 Q2877.52 190.217 2879.89 192.445 Q2882.29 194.645 2882.29 198.609 Q2882.29 203.122 2878.71 205.756 Q2875.15 208.389 2868.9 208.389 Q2866.29 208.389 2863.46 207.868 Q2860.65 207.376 2857.53 206.363 L2857.53 200.866 Q2860.48 202.399 2863.34 203.18 Q2866.21 203.933 2869.01 203.933 Q2872.77 203.933 2874.8 202.66 Q2876.83 201.357 2876.83 199.014 Q2876.83 196.844 2875.35 195.686 Q2873.9 194.529 2868.95 193.458 L2867.1 193.024 Q2862.16 191.983 2859.96 189.841 Q2857.76 187.671 2857.76 183.91 Q2857.76 179.338 2861 176.849 Q2864.24 174.361 2870.2 174.361 Q2873.15 174.361 2875.75 174.795 Q2878.36 175.229 2880.56 176.097 Z" fill="#000000" fill-rule="nonzero" fill-opacity="1" /><path clip-path="url(#clip020)" d="M2890.77 175.142 L2896.1 175.142 L2896.1 207.55 L2890.77 207.55 L2890.77 175.142 M2890.77 162.527 L2896.1 162.527 L2896.1 169.269 L2890.77 169.269 L2890.77 162.527 Z" fill="#000000" fill-rule="nonzero" fill-opacity="1" /><path clip-path="url(#clip020)" d="M2928.56 180.061 L2928.56 162.527 L2933.89 162.527 L2933.89 207.55 L2928.56 207.55 L2928.56 202.688 Q2926.88 205.582 2924.31 207 Q2921.76 208.389 2918.17 208.389 Q2912.3 208.389 2908.6 203.701 Q2904.92 199.014 2904.92 191.375 Q2904.92 183.736 2908.6 179.049 Q2912.3 174.361 2918.17 174.361 Q2921.76 174.361 2924.31 175.779 Q2926.88 177.168 2928.56 180.061 M2910.42 191.375 Q2910.42 197.249 2912.82 200.605 Q2915.25 203.933 2919.48 203.933 Q2923.7 203.933 2926.13 200.605 Q2928.56 197.249 2928.56 191.375 Q2928.56 185.501 2926.13 182.174 Q2923.7 178.817 2919.48 178.817 Q2915.25 178.817 2912.82 182.174 Q2910.42 185.501 2910.42 191.375 Z" fill="#000000" fill-rule="nonzero" fill-opacity="1" /><path clip-path="url(#clip020)" d="M2944.3 194.76 L2944.3 175.142 L2949.63 175.142 L2949.63 194.558 Q2949.63 199.158 2951.42 201.473 Q2953.21 203.759 2956.8 203.759 Q2961.11 203.759 2963.6 201.01 Q2966.12 198.261 2966.12 193.516 L2966.12 175.142 L2971.44 175.142 L2971.44 207.55 L2966.12 207.55 L2966.12 202.573 Q2964.18 205.524 2961.6 206.971 Q2959.06 208.389 2955.67 208.389 Q2950.09 208.389 2947.2 204.916 Q2944.3 201.444 2944.3 194.76 M2957.7 174.361 L2957.7 174.361 Z" fill="#000000" fill-rule="nonzero" fill-opacity="1" /><path clip-path="url(#clip020)" d="M2997.14 191.259 Q2990.68 191.259 2988.2 192.735 Q2985.71 194.211 2985.71 197.77 Q2985.71 200.605 2987.56 202.283 Q2989.44 203.933 2992.65 203.933 Q2997.08 203.933 2999.74 200.808 Q3002.43 197.654 3002.43 192.445 L3002.43 191.259 L2997.14 191.259 M3007.76 189.06 L3007.76 207.55 L3002.43 207.55 L3002.43 202.631 Q3000.61 205.582 2997.89 207 Q2995.17 208.389 2991.23 208.389 Q2986.26 208.389 2983.31 205.611 Q2980.38 202.804 2980.38 198.117 Q2980.38 192.648 2984.03 189.87 Q2987.7 187.092 2994.97 187.092 L3002.43 187.092 L3002.43 186.572 Q3002.43 182.897 3000 180.9 Q2997.6 178.875 2993.23 178.875 Q2990.45 178.875 2987.82 179.54 Q2985.19 180.206 2982.76 181.537 L2982.76 176.618 Q2985.68 175.49 2988.43 174.94 Q2991.18 174.361 2993.78 174.361 Q3000.81 174.361 3004.28 178.007 Q3007.76 181.653 3007.76 189.06 Z" fill="#000000" fill-rule="nonzero" fill-opacity="1" /><path clip-path="url(#clip020)" d="M3018.72 162.527 L3024.05 162.527 L3024.05 207.55 L3018.72 207.55 L3018.72 162.527 Z" fill="#000000" fill-rule="nonzero" fill-opacity="1" /></svg>
