<?xml version="1.0" encoding="utf-8"?>
<svg xmlns="http://www.w3.org/2000/svg" xmlns:xlink="http://www.w3.org/1999/xlink" width="600" height="400" viewBox="0 0 2400 1600">
<defs>
  <clipPath id="clip570">
    <rect x="0" y="0" width="2400" height="1600"/>
  </clipPath>
</defs>
<path clip-path="url(#clip570)" d="M0 1600 L2400 1600 L2400 8.88178e-14 L0 8.88178e-14  Z" fill="#ffffff" fill-rule="evenodd" fill-opacity="1"/>
<defs>
  <clipPath id="clip571">
    <rect x="480" y="0" width="1681" height="1600"/>
  </clipPath>
</defs>
<path clip-path="url(#clip570)" d="M302.881 1477.81 L2352.76 1477.81 L2352.76 136.432 L302.881 136.432  Z" fill="#ffffff" fill-rule="evenodd" fill-opacity="1"/>
<defs>
  <clipPath id="clip572">
    <rect x="302" y="136" width="2051" height="1342"/>
  </clipPath>
</defs>
<polyline clip-path="url(#clip572)" style="stroke:#000000; stroke-linecap:round; stroke-linejoin:round; stroke-width:2; stroke-opacity:0.1; fill:none" points="821.046,1477.81 821.046,136.432 "/>
<polyline clip-path="url(#clip572)" style="stroke:#000000; stroke-linecap:round; stroke-linejoin:round; stroke-width:2; stroke-opacity:0.1; fill:none" points="1834.59,1477.81 1834.59,136.432 "/>
<polyline clip-path="url(#clip570)" style="stroke:#000000; stroke-linecap:round; stroke-linejoin:round; stroke-width:4; stroke-opacity:1; fill:none" points="302.881,1477.81 2352.76,1477.81 "/>
<polyline clip-path="url(#clip570)" style="stroke:#000000; stroke-linecap:round; stroke-linejoin:round; stroke-width:4; stroke-opacity:1; fill:none" points="821.046,1477.81 821.046,1458.91 "/>
<polyline clip-path="url(#clip570)" style="stroke:#000000; stroke-linecap:round; stroke-linejoin:round; stroke-width:4; stroke-opacity:1; fill:none" points="1834.59,1477.81 1834.59,1458.91 "/>
<path clip-path="url(#clip570)" d="M785.282 1507.81 L793.152 1507.81 L812.307 1543.95 L812.307 1507.81 L817.979 1507.81 L817.979 1551.01 L810.108 1551.01 L790.953 1514.87 L790.953 1551.01 L785.282 1551.01 L785.282 1507.81 Z" fill="#000000" fill-rule="nonzero" fill-opacity="1" /><path clip-path="url(#clip570)" d="M841.937 1522.33 Q837.654 1522.33 835.166 1525.69 Q832.678 1529.02 832.678 1534.83 Q832.678 1540.65 835.137 1544.01 Q837.626 1547.33 841.937 1547.33 Q846.19 1547.33 848.679 1543.98 Q851.167 1540.62 851.167 1534.83 Q851.167 1529.08 848.679 1525.72 Q846.19 1522.33 841.937 1522.33 M841.937 1517.82 Q848.881 1517.82 852.845 1522.33 Q856.809 1526.85 856.809 1534.83 Q856.809 1542.79 852.845 1547.33 Q848.881 1551.85 841.937 1551.85 Q834.964 1551.85 830.999 1547.33 Q827.064 1542.79 827.064 1534.83 Q827.064 1526.85 830.999 1522.33 Q834.964 1517.82 841.937 1517.82 Z" fill="#000000" fill-rule="nonzero" fill-opacity="1" /><path clip-path="url(#clip570)" d="M1788.15 1507.81 L1794.43 1507.81 L1806.41 1525.57 L1818.3 1507.81 L1824.58 1507.81 L1809.3 1530.44 L1809.3 1551.01 L1803.43 1551.01 L1803.43 1530.44 L1788.15 1507.81 Z" fill="#000000" fill-rule="nonzero" fill-opacity="1" /><path clip-path="url(#clip570)" d="M1849.9 1533.47 L1849.9 1536.08 L1825.42 1536.08 Q1825.77 1541.58 1828.72 1544.47 Q1831.7 1547.33 1836.99 1547.33 Q1840.06 1547.33 1842.92 1546.58 Q1845.82 1545.83 1848.65 1544.32 L1848.65 1549.36 Q1845.79 1550.57 1842.78 1551.21 Q1839.77 1551.85 1836.67 1551.85 Q1828.92 1551.85 1824.38 1547.33 Q1819.86 1542.82 1819.86 1535.12 Q1819.86 1527.17 1824.15 1522.51 Q1828.46 1517.82 1835.75 1517.82 Q1842.29 1517.82 1846.08 1522.04 Q1849.9 1526.24 1849.9 1533.47 M1844.57 1531.91 Q1844.52 1527.54 1842.11 1524.94 Q1839.74 1522.33 1835.81 1522.33 Q1831.35 1522.33 1828.66 1524.85 Q1826 1527.37 1825.59 1531.94 L1844.57 1531.91 Z" fill="#000000" fill-rule="nonzero" fill-opacity="1" /><path clip-path="url(#clip570)" d="M1879.3 1519.56 L1879.3 1524.59 Q1877.04 1523.43 1874.61 1522.85 Q1872.18 1522.28 1869.57 1522.28 Q1865.61 1522.28 1863.61 1523.49 Q1861.65 1524.71 1861.65 1527.14 Q1861.65 1528.99 1863.06 1530.06 Q1864.48 1531.1 1868.76 1532.06 L1870.59 1532.46 Q1876.26 1533.68 1878.63 1535.9 Q1881.03 1538.1 1881.03 1542.07 Q1881.03 1546.58 1877.44 1549.21 Q1873.88 1551.85 1867.63 1551.85 Q1865.03 1551.85 1862.2 1551.33 Q1859.39 1550.83 1856.26 1549.82 L1856.26 1544.32 Q1859.21 1545.86 1862.08 1546.64 Q1864.94 1547.39 1867.75 1547.39 Q1871.51 1547.39 1873.54 1546.12 Q1875.56 1544.82 1875.56 1542.47 Q1875.56 1540.3 1874.09 1539.14 Q1872.64 1537.99 1867.69 1536.92 L1865.84 1536.48 Q1860.89 1535.44 1858.69 1533.3 Q1856.49 1531.13 1856.49 1527.37 Q1856.49 1522.8 1859.74 1520.31 Q1862.98 1517.82 1868.94 1517.82 Q1871.89 1517.82 1874.49 1518.25 Q1877.1 1518.69 1879.3 1519.56 Z" fill="#000000" fill-rule="nonzero" fill-opacity="1" /><polyline clip-path="url(#clip572)" style="stroke:#000000; stroke-linecap:round; stroke-linejoin:round; stroke-width:2; stroke-opacity:0.1; fill:none" points="302.881,1477.81 2352.76,1477.81 "/>
<polyline clip-path="url(#clip572)" style="stroke:#000000; stroke-linecap:round; stroke-linejoin:round; stroke-width:2; stroke-opacity:0.1; fill:none" points="302.881,1232.76 2352.76,1232.76 "/>
<polyline clip-path="url(#clip572)" style="stroke:#000000; stroke-linecap:round; stroke-linejoin:round; stroke-width:2; stroke-opacity:0.1; fill:none" points="302.881,987.718 2352.76,987.718 "/>
<polyline clip-path="url(#clip572)" style="stroke:#000000; stroke-linecap:round; stroke-linejoin:round; stroke-width:2; stroke-opacity:0.1; fill:none" points="302.881,742.673 2352.76,742.673 "/>
<polyline clip-path="url(#clip572)" style="stroke:#000000; stroke-linecap:round; stroke-linejoin:round; stroke-width:2; stroke-opacity:0.1; fill:none" points="302.881,497.628 2352.76,497.628 "/>
<polyline clip-path="url(#clip572)" style="stroke:#000000; stroke-linecap:round; stroke-linejoin:round; stroke-width:2; stroke-opacity:0.1; fill:none" points="302.881,252.583 2352.76,252.583 "/>
<polyline clip-path="url(#clip570)" style="stroke:#000000; stroke-linecap:round; stroke-linejoin:round; stroke-width:4; stroke-opacity:1; fill:none" points="302.881,1477.81 302.881,136.432 "/>
<polyline clip-path="url(#clip570)" style="stroke:#000000; stroke-linecap:round; stroke-linejoin:round; stroke-width:4; stroke-opacity:1; fill:none" points="302.881,1477.81 321.779,1477.81 "/>
<polyline clip-path="url(#clip570)" style="stroke:#000000; stroke-linecap:round; stroke-linejoin:round; stroke-width:4; stroke-opacity:1; fill:none" points="302.881,1232.76 321.779,1232.76 "/>
<polyline clip-path="url(#clip570)" style="stroke:#000000; stroke-linecap:round; stroke-linejoin:round; stroke-width:4; stroke-opacity:1; fill:none" points="302.881,987.718 321.779,987.718 "/>
<polyline clip-path="url(#clip570)" style="stroke:#000000; stroke-linecap:round; stroke-linejoin:round; stroke-width:4; stroke-opacity:1; fill:none" points="302.881,742.673 321.779,742.673 "/>
<polyline clip-path="url(#clip570)" style="stroke:#000000; stroke-linecap:round; stroke-linejoin:round; stroke-width:4; stroke-opacity:1; fill:none" points="302.881,497.628 321.779,497.628 "/>
<polyline clip-path="url(#clip570)" style="stroke:#000000; stroke-linecap:round; stroke-linejoin:round; stroke-width:4; stroke-opacity:1; fill:none" points="302.881,252.583 321.779,252.583 "/>
<path clip-path="url(#clip570)" d="M251.95 1460.06 Q247.437 1460.06 245.151 1464.51 Q242.894 1468.94 242.894 1477.85 Q242.894 1486.73 245.151 1491.19 Q247.437 1495.62 251.95 1495.62 Q256.493 1495.62 258.75 1491.19 Q261.036 1486.73 261.036 1477.85 Q261.036 1468.94 258.75 1464.51 Q256.493 1460.06 251.95 1460.06 M251.95 1455.43 Q259.213 1455.43 263.033 1461.18 Q266.881 1466.91 266.881 1477.85 Q266.881 1488.76 263.033 1494.52 Q259.213 1500.25 251.95 1500.25 Q244.688 1500.25 240.839 1494.52 Q237.02 1488.76 237.02 1477.85 Q237.02 1466.91 240.839 1461.18 Q244.688 1455.43 251.95 1455.43 Z" fill="#000000" fill-rule="nonzero" fill-opacity="1" /><path clip-path="url(#clip570)" d="M127.356 1249.44 L136.905 1249.44 L136.905 1216.49 L126.517 1218.57 L126.517 1213.25 L136.847 1211.16 L142.692 1211.16 L142.692 1249.44 L152.24 1249.44 L152.24 1254.36 L127.356 1254.36 L127.356 1249.44 Z" fill="#000000" fill-rule="nonzero" fill-opacity="1" /><path clip-path="url(#clip570)" d="M176.546 1215.01 Q172.032 1215.01 169.746 1219.47 Q167.489 1223.89 167.489 1232.81 Q167.489 1241.69 169.746 1246.15 Q172.032 1250.57 176.546 1250.57 Q181.089 1250.57 183.345 1246.15 Q185.631 1241.69 185.631 1232.81 Q185.631 1223.89 183.345 1219.47 Q181.089 1215.01 176.546 1215.01 M176.546 1210.38 Q183.808 1210.38 187.628 1216.14 Q191.476 1221.87 191.476 1232.81 Q191.476 1243.71 187.628 1249.47 Q183.808 1255.2 176.546 1255.2 Q169.283 1255.2 165.435 1249.47 Q161.615 1243.71 161.615 1232.81 Q161.615 1221.87 165.435 1216.14 Q169.283 1210.38 176.546 1210.38 Z" fill="#000000" fill-rule="nonzero" fill-opacity="1" /><path clip-path="url(#clip570)" d="M214.248 1215.01 Q209.734 1215.01 207.448 1219.47 Q205.191 1223.89 205.191 1232.81 Q205.191 1241.69 207.448 1246.15 Q209.734 1250.57 214.248 1250.57 Q218.791 1250.57 221.048 1246.15 Q223.334 1241.69 223.334 1232.81 Q223.334 1223.89 221.048 1219.47 Q218.791 1215.01 214.248 1215.01 M214.248 1210.38 Q221.511 1210.38 225.33 1216.14 Q229.179 1221.87 229.179 1232.81 Q229.179 1243.71 225.33 1249.47 Q221.511 1255.2 214.248 1255.2 Q206.985 1255.2 203.137 1249.47 Q199.318 1243.71 199.318 1232.81 Q199.318 1221.87 203.137 1216.14 Q206.985 1210.38 214.248 1210.38 Z" fill="#000000" fill-rule="nonzero" fill-opacity="1" /><path clip-path="url(#clip570)" d="M251.95 1215.01 Q247.437 1215.01 245.151 1219.47 Q242.894 1223.89 242.894 1232.81 Q242.894 1241.69 245.151 1246.15 Q247.437 1250.57 251.95 1250.57 Q256.493 1250.57 258.75 1246.15 Q261.036 1241.69 261.036 1232.81 Q261.036 1223.89 258.75 1219.47 Q256.493 1215.01 251.95 1215.01 M251.95 1210.38 Q259.213 1210.38 263.033 1216.14 Q266.881 1221.87 266.881 1232.81 Q266.881 1243.71 263.033 1249.47 Q259.213 1255.2 251.95 1255.2 Q244.688 1255.2 240.839 1249.47 Q237.02 1243.71 237.02 1232.81 Q237.02 1221.87 240.839 1216.14 Q244.688 1210.38 251.95 1210.38 Z" fill="#000000" fill-rule="nonzero" fill-opacity="1" /><path clip-path="url(#clip570)" d="M131.378 1004.4 L151.777 1004.4 L151.777 1009.32 L124.347 1009.32 L124.347 1004.4 Q127.674 1000.96 133.404 995.169 Q139.162 989.353 140.637 987.675 Q143.444 984.521 144.544 982.351 Q145.672 980.152 145.672 978.039 Q145.672 974.596 143.241 972.426 Q140.84 970.256 136.963 970.256 Q134.214 970.256 131.147 971.211 Q128.108 972.166 124.636 974.104 L124.636 968.201 Q128.166 966.784 131.233 966.06 Q134.301 965.337 136.847 965.337 Q143.56 965.337 147.553 968.693 Q151.546 972.05 151.546 977.663 Q151.546 980.325 150.533 982.727 Q149.549 985.099 146.916 988.34 Q146.193 989.179 142.316 993.201 Q138.438 997.194 131.378 1004.4 Z" fill="#000000" fill-rule="nonzero" fill-opacity="1" /><path clip-path="url(#clip570)" d="M176.546 969.966 Q172.032 969.966 169.746 974.422 Q167.489 978.849 167.489 987.761 Q167.489 996.645 169.746 1001.1 Q172.032 1005.53 176.546 1005.53 Q181.089 1005.53 183.345 1001.1 Q185.631 996.645 185.631 987.761 Q185.631 978.849 183.345 974.422 Q181.089 969.966 176.546 969.966 M176.546 965.337 Q183.808 965.337 187.628 971.095 Q191.476 976.824 191.476 987.761 Q191.476 998.67 187.628 1004.43 Q183.808 1010.16 176.546 1010.16 Q169.283 1010.16 165.435 1004.43 Q161.615 998.67 161.615 987.761 Q161.615 976.824 165.435 971.095 Q169.283 965.337 176.546 965.337 Z" fill="#000000" fill-rule="nonzero" fill-opacity="1" /><path clip-path="url(#clip570)" d="M214.248 969.966 Q209.734 969.966 207.448 974.422 Q205.191 978.849 205.191 987.761 Q205.191 996.645 207.448 1001.1 Q209.734 1005.53 214.248 1005.53 Q218.791 1005.53 221.048 1001.1 Q223.334 996.645 223.334 987.761 Q223.334 978.849 221.048 974.422 Q218.791 969.966 214.248 969.966 M214.248 965.337 Q221.511 965.337 225.33 971.095 Q229.179 976.824 229.179 987.761 Q229.179 998.67 225.33 1004.43 Q221.511 1010.16 214.248 1010.16 Q206.985 1010.16 203.137 1004.43 Q199.318 998.67 199.318 987.761 Q199.318 976.824 203.137 971.095 Q206.985 965.337 214.248 965.337 Z" fill="#000000" fill-rule="nonzero" fill-opacity="1" /><path clip-path="url(#clip570)" d="M251.95 969.966 Q247.437 969.966 245.151 974.422 Q242.894 978.849 242.894 987.761 Q242.894 996.645 245.151 1001.1 Q247.437 1005.53 251.95 1005.53 Q256.493 1005.53 258.75 1001.1 Q261.036 996.645 261.036 987.761 Q261.036 978.849 258.75 974.422 Q256.493 969.966 251.95 969.966 M251.95 965.337 Q259.213 965.337 263.033 971.095 Q266.881 976.824 266.881 987.761 Q266.881 998.67 263.033 1004.43 Q259.213 1010.16 251.95 1010.16 Q244.688 1010.16 240.839 1004.43 Q237.02 998.67 237.02 987.761 Q237.02 976.824 240.839 971.095 Q244.688 965.337 251.95 965.337 Z" fill="#000000" fill-rule="nonzero" fill-opacity="1" /><path clip-path="url(#clip570)" d="M144.052 740.98 Q148.247 741.877 150.591 744.713 Q152.964 747.549 152.964 751.715 Q152.964 758.11 148.566 761.611 Q144.167 765.112 136.066 765.112 Q133.346 765.112 130.452 764.563 Q127.588 764.042 124.521 762.971 L124.521 757.329 Q126.951 758.747 129.845 759.47 Q132.738 760.193 135.892 760.193 Q141.39 760.193 144.254 758.023 Q147.148 755.853 147.148 751.715 Q147.148 747.896 144.457 745.755 Q141.795 743.585 137.02 743.585 L131.986 743.585 L131.986 738.781 L137.252 738.781 Q141.563 738.781 143.849 737.074 Q146.135 735.338 146.135 732.097 Q146.135 728.77 143.762 727.005 Q141.419 725.211 137.02 725.211 Q134.619 725.211 131.87 725.732 Q129.121 726.253 125.823 727.352 L125.823 722.144 Q129.15 721.218 132.044 720.755 Q134.966 720.292 137.541 720.292 Q144.196 720.292 148.074 723.33 Q151.951 726.339 151.951 731.49 Q151.951 735.078 149.897 737.566 Q147.842 740.026 144.052 740.98 Z" fill="#000000" fill-rule="nonzero" fill-opacity="1" /><path clip-path="url(#clip570)" d="M176.546 724.922 Q172.032 724.922 169.746 729.378 Q167.489 733.805 167.489 742.717 Q167.489 751.6 169.746 756.056 Q172.032 760.483 176.546 760.483 Q181.089 760.483 183.345 756.056 Q185.631 751.6 185.631 742.717 Q185.631 733.805 183.345 729.378 Q181.089 724.922 176.546 724.922 M176.546 720.292 Q183.808 720.292 187.628 726.05 Q191.476 731.779 191.476 742.717 Q191.476 753.625 187.628 759.383 Q183.808 765.112 176.546 765.112 Q169.283 765.112 165.435 759.383 Q161.615 753.625 161.615 742.717 Q161.615 731.779 165.435 726.05 Q169.283 720.292 176.546 720.292 Z" fill="#000000" fill-rule="nonzero" fill-opacity="1" /><path clip-path="url(#clip570)" d="M214.248 724.922 Q209.734 724.922 207.448 729.378 Q205.191 733.805 205.191 742.717 Q205.191 751.6 207.448 756.056 Q209.734 760.483 214.248 760.483 Q218.791 760.483 221.048 756.056 Q223.334 751.6 223.334 742.717 Q223.334 733.805 221.048 729.378 Q218.791 724.922 214.248 724.922 M214.248 720.292 Q221.511 720.292 225.33 726.05 Q229.179 731.779 229.179 742.717 Q229.179 753.625 225.33 759.383 Q221.511 765.112 214.248 765.112 Q206.985 765.112 203.137 759.383 Q199.318 753.625 199.318 742.717 Q199.318 731.779 203.137 726.05 Q206.985 720.292 214.248 720.292 Z" fill="#000000" fill-rule="nonzero" fill-opacity="1" /><path clip-path="url(#clip570)" d="M251.95 724.922 Q247.437 724.922 245.151 729.378 Q242.894 733.805 242.894 742.717 Q242.894 751.6 245.151 756.056 Q247.437 760.483 251.95 760.483 Q256.493 760.483 258.75 756.056 Q261.036 751.6 261.036 742.717 Q261.036 733.805 258.75 729.378 Q256.493 724.922 251.95 724.922 M251.95 720.292 Q259.213 720.292 263.033 726.05 Q266.881 731.779 266.881 742.717 Q266.881 753.625 263.033 759.383 Q259.213 765.112 251.95 765.112 Q244.688 765.112 240.839 759.383 Q237.02 753.625 237.02 742.717 Q237.02 731.779 240.839 726.05 Q244.688 720.292 251.95 720.292 Z" fill="#000000" fill-rule="nonzero" fill-opacity="1" /><path clip-path="url(#clip570)" d="M142.402 481.121 L127.646 504.182 L142.402 504.182 L142.402 481.121 M140.869 476.028 L148.218 476.028 L148.218 504.182 L154.381 504.182 L154.381 509.043 L148.218 509.043 L148.218 519.228 L142.402 519.228 L142.402 509.043 L122.9 509.043 L122.9 503.401 L140.869 476.028 Z" fill="#000000" fill-rule="nonzero" fill-opacity="1" /><path clip-path="url(#clip570)" d="M176.546 479.877 Q172.032 479.877 169.746 484.333 Q167.489 488.76 167.489 497.672 Q167.489 506.555 169.746 511.011 Q172.032 515.438 176.546 515.438 Q181.089 515.438 183.345 511.011 Q185.631 506.555 185.631 497.672 Q185.631 488.76 183.345 484.333 Q181.089 479.877 176.546 479.877 M176.546 475.247 Q183.808 475.247 187.628 481.005 Q191.476 486.734 191.476 497.672 Q191.476 508.58 187.628 514.338 Q183.808 520.067 176.546 520.067 Q169.283 520.067 165.435 514.338 Q161.615 508.58 161.615 497.672 Q161.615 486.734 165.435 481.005 Q169.283 475.247 176.546 475.247 Z" fill="#000000" fill-rule="nonzero" fill-opacity="1" /><path clip-path="url(#clip570)" d="M214.248 479.877 Q209.734 479.877 207.448 484.333 Q205.191 488.76 205.191 497.672 Q205.191 506.555 207.448 511.011 Q209.734 515.438 214.248 515.438 Q218.791 515.438 221.048 511.011 Q223.334 506.555 223.334 497.672 Q223.334 488.76 221.048 484.333 Q218.791 479.877 214.248 479.877 M214.248 475.247 Q221.511 475.247 225.33 481.005 Q229.179 486.734 229.179 497.672 Q229.179 508.58 225.33 514.338 Q221.511 520.067 214.248 520.067 Q206.985 520.067 203.137 514.338 Q199.318 508.58 199.318 497.672 Q199.318 486.734 203.137 481.005 Q206.985 475.247 214.248 475.247 Z" fill="#000000" fill-rule="nonzero" fill-opacity="1" /><path clip-path="url(#clip570)" d="M251.95 479.877 Q247.437 479.877 245.151 484.333 Q242.894 488.76 242.894 497.672 Q242.894 506.555 245.151 511.011 Q247.437 515.438 251.95 515.438 Q256.493 515.438 258.75 511.011 Q261.036 506.555 261.036 497.672 Q261.036 488.76 258.75 484.333 Q256.493 479.877 251.95 479.877 M251.95 475.247 Q259.213 475.247 263.033 481.005 Q266.881 486.734 266.881 497.672 Q266.881 508.58 263.033 514.338 Q259.213 520.067 251.95 520.067 Q244.688 520.067 240.839 514.338 Q237.02 508.58 237.02 497.672 Q237.02 486.734 240.839 481.005 Q244.688 475.247 251.95 475.247 Z" fill="#000000" fill-rule="nonzero" fill-opacity="1" /><path clip-path="url(#clip570)" d="M126.401 230.983 L149.347 230.983 L149.347 235.902 L131.754 235.902 L131.754 246.493 Q133.027 246.059 134.301 245.856 Q135.574 245.625 136.847 245.625 Q144.081 245.625 148.305 249.589 Q152.53 253.553 152.53 260.324 Q152.53 267.297 148.189 271.174 Q143.849 275.023 135.95 275.023 Q133.23 275.023 130.394 274.56 Q127.588 274.097 124.578 273.171 L124.578 267.297 Q127.183 268.715 129.96 269.409 Q132.738 270.104 135.834 270.104 Q140.84 270.104 143.762 267.47 Q146.685 264.837 146.685 260.324 Q146.685 255.81 143.762 253.177 Q140.84 250.543 135.834 250.543 Q133.49 250.543 131.147 251.064 Q128.832 251.585 126.401 252.685 L126.401 230.983 Z" fill="#000000" fill-rule="nonzero" fill-opacity="1" /><path clip-path="url(#clip570)" d="M176.546 234.832 Q172.032 234.832 169.746 239.288 Q167.489 243.715 167.489 252.627 Q167.489 261.51 169.746 265.966 Q172.032 270.393 176.546 270.393 Q181.089 270.393 183.345 265.966 Q185.631 261.51 185.631 252.627 Q185.631 243.715 183.345 239.288 Q181.089 234.832 176.546 234.832 M176.546 230.202 Q183.808 230.202 187.628 235.96 Q191.476 241.689 191.476 252.627 Q191.476 263.535 187.628 269.293 Q183.808 275.023 176.546 275.023 Q169.283 275.023 165.435 269.293 Q161.615 263.535 161.615 252.627 Q161.615 241.689 165.435 235.96 Q169.283 230.202 176.546 230.202 Z" fill="#000000" fill-rule="nonzero" fill-opacity="1" /><path clip-path="url(#clip570)" d="M214.248 234.832 Q209.734 234.832 207.448 239.288 Q205.191 243.715 205.191 252.627 Q205.191 261.51 207.448 265.966 Q209.734 270.393 214.248 270.393 Q218.791 270.393 221.048 265.966 Q223.334 261.51 223.334 252.627 Q223.334 243.715 221.048 239.288 Q218.791 234.832 214.248 234.832 M214.248 230.202 Q221.511 230.202 225.33 235.96 Q229.179 241.689 229.179 252.627 Q229.179 263.535 225.33 269.293 Q221.511 275.023 214.248 275.023 Q206.985 275.023 203.137 269.293 Q199.318 263.535 199.318 252.627 Q199.318 241.689 203.137 235.96 Q206.985 230.202 214.248 230.202 Z" fill="#000000" fill-rule="nonzero" fill-opacity="1" /><path clip-path="url(#clip570)" d="M251.95 234.832 Q247.437 234.832 245.151 239.288 Q242.894 243.715 242.894 252.627 Q242.894 261.51 245.151 265.966 Q247.437 270.393 251.95 270.393 Q256.493 270.393 258.75 265.966 Q261.036 261.51 261.036 252.627 Q261.036 243.715 258.75 239.288 Q256.493 234.832 251.95 234.832 M251.95 230.202 Q259.213 230.202 263.033 235.96 Q266.881 241.689 266.881 252.627 Q266.881 263.535 263.033 269.293 Q259.213 275.023 251.95 275.023 Q244.688 275.023 240.839 269.293 Q237.02 263.535 237.02 252.627 Q237.02 241.689 240.839 235.96 Q244.688 230.202 251.95 230.202 Z" fill="#000000" fill-rule="nonzero" fill-opacity="1" /><path clip-path="url(#clip570)" d="M13.8922 1251.34 L13.8922 1241.11 L60.874 1216.21 L13.8922 1216.21 L13.8922 1208.84 L70.0522 1208.84 L70.0522 1219.07 L23.0703 1243.97 L70.0522 1243.97 L70.0522 1251.34 L13.8922 1251.34 Z" fill="#000000" fill-rule="nonzero" fill-opacity="1" /><path clip-path="url(#clip570)" d="M53.4261 1194.73 L27.9228 1194.73 L27.9228 1187.81 L53.1628 1187.81 Q59.1437 1187.81 62.1529 1185.48 Q65.1245 1183.14 65.1245 1178.48 Q65.1245 1172.87 61.551 1169.64 Q57.9776 1166.37 51.8086 1166.37 L27.9228 1166.37 L27.9228 1159.45 L70.0522 1159.45 L70.0522 1166.37 L63.5823 1166.37 Q67.4191 1168.89 69.2998 1172.24 Q71.143 1175.55 71.143 1179.95 Q71.143 1187.21 66.6291 1190.97 Q62.1153 1194.73 53.4261 1194.73 M26.9071 1177.31 L26.9071 1177.31 Z" fill="#000000" fill-rule="nonzero" fill-opacity="1" /><path clip-path="url(#clip570)" d="M36.0101 1112.39 Q31.3458 1109.79 29.1265 1106.18 Q26.9071 1102.57 26.9071 1097.68 Q26.9071 1091.1 31.5338 1087.53 Q36.1229 1083.95 44.6241 1083.95 L70.0522 1083.95 L70.0522 1090.91 L44.8497 1090.91 Q38.7936 1090.91 35.8596 1093.05 Q32.9256 1095.2 32.9256 1099.6 Q32.9256 1104.98 36.4991 1108.1 Q40.0726 1111.22 46.2415 1111.22 L70.0522 1111.22 L70.0522 1118.18 L44.8497 1118.18 Q38.756 1118.18 35.8596 1120.33 Q32.9256 1122.47 32.9256 1126.95 Q32.9256 1132.25 36.5367 1135.37 Q40.1102 1138.49 46.2415 1138.49 L70.0522 1138.49 L70.0522 1145.45 L27.9228 1145.45 L27.9228 1138.49 L34.4679 1138.49 Q30.5935 1136.12 28.7503 1132.81 Q26.9071 1129.5 26.9071 1124.95 Q26.9071 1120.36 29.2393 1117.17 Q31.5715 1113.93 36.0101 1112.39 Z" fill="#000000" fill-rule="nonzero" fill-opacity="1" /><path clip-path="url(#clip570)" d="M49.0251 1039.9 Q41.3891 1039.9 37.0633 1043.06 Q32.6999 1046.19 32.6999 1051.68 Q32.6999 1057.17 37.0633 1060.33 Q41.3891 1063.45 49.0251 1063.45 Q56.661 1063.45 61.0244 1060.33 Q65.3502 1057.17 65.3502 1051.68 Q65.3502 1046.19 61.0244 1043.06 Q56.661 1039.9 49.0251 1039.9 M34.3174 1063.45 Q30.5558 1061.27 28.7503 1057.96 Q26.9071 1054.61 26.9071 1049.98 Q26.9071 1042.31 33.0009 1037.53 Q39.0946 1032.72 49.0251 1032.72 Q58.9556 1032.72 65.0493 1037.53 Q71.143 1042.31 71.143 1049.98 Q71.143 1054.61 69.3375 1057.96 Q67.4943 1061.27 63.7327 1063.45 L70.0522 1063.45 L70.0522 1070.41 L11.5224 1070.41 L11.5224 1063.45 L34.3174 1063.45 Z" fill="#000000" fill-rule="nonzero" fill-opacity="1" /><path clip-path="url(#clip570)" d="M47.2571 985.211 L50.6425 985.211 L50.6425 1017.03 Q57.7895 1016.58 61.551 1012.75 Q65.275 1008.87 65.275 1001.99 Q65.275 998 64.297 994.276 Q63.319 990.515 61.363 986.828 L67.9081 986.828 Q69.4879 990.552 70.3155 994.464 Q71.143 998.376 71.143 1002.4 Q71.143 1012.48 65.275 1018.39 Q59.407 1024.26 49.4012 1024.26 Q39.057 1024.26 33.0009 1018.69 Q26.9071 1013.08 26.9071 1003.6 Q26.9071 995.104 32.399 990.176 Q37.8533 985.211 47.2571 985.211 M45.2259 992.132 Q39.546 992.207 36.1606 995.329 Q32.7752 998.414 32.7752 1003.53 Q32.7752 1009.32 36.0477 1012.82 Q39.3203 1016.28 45.2635 1016.81 L45.2259 992.132 Z" fill="#000000" fill-rule="nonzero" fill-opacity="1" /><path clip-path="url(#clip570)" d="M34.3926 949.438 Q33.7155 950.604 33.4146 951.996 Q33.0761 953.35 33.0761 955.005 Q33.0761 960.874 36.9129 964.033 Q40.712 967.155 47.859 967.155 L70.0522 967.155 L70.0522 974.114 L27.9228 974.114 L27.9228 967.155 L34.4679 967.155 Q30.6311 964.974 28.7879 961.475 Q26.9071 957.977 26.9071 952.974 Q26.9071 952.26 27.02 951.394 Q27.0952 950.529 27.2833 949.476 L34.3926 949.438 Z" fill="#000000" fill-rule="nonzero" fill-opacity="1" /><path clip-path="url(#clip570)" d="M32.7752 901.366 Q32.7752 906.933 37.1386 910.168 Q41.4643 913.403 49.0251 913.403 Q56.5858 913.403 60.9492 910.205 Q65.275 906.97 65.275 901.366 Q65.275 895.836 60.9116 892.601 Q56.5482 889.366 49.0251 889.366 Q41.5396 889.366 37.1762 892.601 Q32.7752 895.836 32.7752 901.366 M26.9071 901.366 Q26.9071 892.338 32.7752 887.185 Q38.6432 882.031 49.0251 882.031 Q59.3693 882.031 65.275 887.185 Q71.143 892.338 71.143 901.366 Q71.143 910.431 65.275 915.584 Q59.3693 920.7 49.0251 920.7 Q38.6432 920.7 32.7752 915.584 Q26.9071 910.431 26.9071 901.366 Z" fill="#000000" fill-rule="nonzero" fill-opacity="1" /><path clip-path="url(#clip570)" d="M11.5224 849.231 L17.2776 849.231 L17.2776 855.851 Q17.2776 859.575 18.7822 861.042 Q20.2868 862.471 24.1988 862.471 L27.9228 862.471 L27.9228 851.074 L33.3018 851.074 L33.3018 862.471 L70.0522 862.471 L70.0522 869.43 L33.3018 869.43 L33.3018 876.05 L27.9228 876.05 L27.9228 869.43 L24.9887 869.43 Q17.9546 869.43 14.7573 866.158 Q11.5224 862.885 11.5224 855.776 L11.5224 849.231 Z" fill="#000000" fill-rule="nonzero" fill-opacity="1" /><path clip-path="url(#clip570)" d="M32.7752 802.625 Q32.7752 808.192 37.1386 811.427 Q41.4643 814.662 49.0251 814.662 Q56.5858 814.662 60.9492 811.465 Q65.275 808.23 65.275 802.625 Q65.275 797.095 60.9116 793.861 Q56.5482 790.626 49.0251 790.626 Q41.5396 790.626 37.1762 793.861 Q32.7752 797.095 32.7752 802.625 M26.9071 802.625 Q26.9071 793.597 32.7752 788.444 Q38.6432 783.291 49.0251 783.291 Q59.3693 783.291 65.275 788.444 Q71.143 793.597 71.143 802.625 Q71.143 811.69 65.275 816.844 Q59.3693 821.959 49.0251 821.959 Q38.6432 821.959 32.7752 816.844 Q26.9071 811.69 26.9071 802.625 Z" fill="#000000" fill-rule="nonzero" fill-opacity="1" /><path clip-path="url(#clip570)" d="M29.5402 741.5 L36.0101 741.5 Q34.3926 744.434 33.6027 747.405 Q32.7752 750.339 32.7752 753.349 Q32.7752 760.082 37.0633 763.806 Q41.3139 767.53 49.0251 767.53 Q56.7363 767.53 61.0244 763.806 Q65.275 760.082 65.275 753.349 Q65.275 750.339 64.4851 747.405 Q63.6575 744.434 62.04 741.5 L68.4347 741.5 Q69.7888 744.396 70.4659 747.518 Q71.143 750.603 71.143 754.101 Q71.143 763.618 65.1621 769.222 Q59.1813 774.827 49.0251 774.827 Q38.7184 774.827 32.8128 769.185 Q26.9071 763.505 26.9071 753.65 Q26.9071 750.452 27.5842 747.405 Q28.2237 744.358 29.5402 741.5 Z" fill="#000000" fill-rule="nonzero" fill-opacity="1" /><path clip-path="url(#clip570)" d="M29.5402 699.145 L36.0101 699.145 Q34.3926 702.079 33.6027 705.05 Q32.7752 707.984 32.7752 710.993 Q32.7752 717.727 37.0633 721.451 Q41.3139 725.175 49.0251 725.175 Q56.7363 725.175 61.0244 721.451 Q65.275 717.727 65.275 710.993 Q65.275 707.984 64.4851 705.05 Q63.6575 702.079 62.04 699.145 L68.4347 699.145 Q69.7888 702.041 70.4659 705.163 Q71.143 708.248 71.143 711.746 Q71.143 721.263 65.1621 726.867 Q59.1813 732.472 49.0251 732.472 Q38.7184 732.472 32.8128 726.83 Q26.9071 721.15 26.9071 711.294 Q26.9071 708.097 27.5842 705.05 Q28.2237 702.003 29.5402 699.145 Z" fill="#000000" fill-rule="nonzero" fill-opacity="1" /><path clip-path="url(#clip570)" d="M53.4261 687.822 L27.9228 687.822 L27.9228 680.901 L53.1628 680.901 Q59.1437 680.901 62.1529 678.569 Q65.1245 676.237 65.1245 671.572 Q65.1245 665.968 61.551 662.733 Q57.9776 659.46 51.8086 659.46 L27.9228 659.46 L27.9228 652.539 L70.0522 652.539 L70.0522 659.46 L63.5823 659.46 Q67.4191 661.98 69.2998 665.328 Q71.143 668.638 71.143 673.039 Q71.143 680.299 66.6291 684.061 Q62.1153 687.822 53.4261 687.822 M26.9071 670.406 L26.9071 670.406 Z" fill="#000000" fill-rule="nonzero" fill-opacity="1" /><path clip-path="url(#clip570)" d="M34.3926 613.87 Q33.7155 615.036 33.4146 616.428 Q33.0761 617.782 33.0761 619.437 Q33.0761 625.305 36.9129 628.465 Q40.712 631.587 47.859 631.587 L70.0522 631.587 L70.0522 638.546 L27.9228 638.546 L27.9228 631.587 L34.4679 631.587 Q30.6311 629.405 28.7879 625.907 Q26.9071 622.409 26.9071 617.406 Q26.9071 616.691 27.02 615.826 Q27.0952 614.961 27.2833 613.908 L34.3926 613.87 Z" fill="#000000" fill-rule="nonzero" fill-opacity="1" /><path clip-path="url(#clip570)" d="M34.3926 583.552 Q33.7155 584.718 33.4146 586.11 Q33.0761 587.464 33.0761 589.119 Q33.0761 594.987 36.9129 598.147 Q40.712 601.269 47.859 601.269 L70.0522 601.269 L70.0522 608.228 L27.9228 608.228 L27.9228 601.269 L34.4679 601.269 Q30.6311 599.087 28.7879 595.589 Q26.9071 592.091 26.9071 587.088 Q26.9071 586.373 27.02 585.508 Q27.0952 584.643 27.2833 583.59 L34.3926 583.552 Z" fill="#000000" fill-rule="nonzero" fill-opacity="1" /><path clip-path="url(#clip570)" d="M47.2571 541.949 L50.6425 541.949 L50.6425 573.772 Q57.7895 573.321 61.551 569.484 Q65.275 565.609 65.275 558.726 Q65.275 554.739 64.297 551.015 Q63.319 547.253 61.363 543.567 L67.9081 543.567 Q69.4879 547.291 70.3155 551.203 Q71.143 555.115 71.143 559.14 Q71.143 569.221 65.275 575.126 Q59.407 580.994 49.4012 580.994 Q39.057 580.994 33.0009 575.427 Q26.9071 569.822 26.9071 560.343 Q26.9071 551.842 32.399 546.915 Q37.8533 541.949 47.2571 541.949 M45.2259 548.871 Q39.546 548.946 36.1606 552.068 Q32.7752 555.152 32.7752 560.268 Q32.7752 566.061 36.0477 569.559 Q39.3203 573.02 45.2635 573.546 L45.2259 548.871 Z" fill="#000000" fill-rule="nonzero" fill-opacity="1" /><path clip-path="url(#clip570)" d="M44.6241 495.569 L70.0522 495.569 L70.0522 502.491 L44.8497 502.491 Q38.8689 502.491 35.8972 504.823 Q32.9256 507.155 32.9256 511.819 Q32.9256 517.424 36.4991 520.659 Q40.0726 523.894 46.2415 523.894 L70.0522 523.894 L70.0522 530.853 L27.9228 530.853 L27.9228 523.894 L34.4679 523.894 Q30.6687 521.411 28.7879 518.063 Q26.9071 514.678 26.9071 510.277 Q26.9071 503.017 31.421 499.293 Q35.8972 495.569 44.6241 495.569 Z" fill="#000000" fill-rule="nonzero" fill-opacity="1" /><path clip-path="url(#clip570)" d="M29.5402 451.446 L36.0101 451.446 Q34.3926 454.38 33.6027 457.352 Q32.7752 460.286 32.7752 463.295 Q32.7752 470.028 37.0633 473.752 Q41.3139 477.476 49.0251 477.476 Q56.7363 477.476 61.0244 473.752 Q65.275 470.028 65.275 463.295 Q65.275 460.286 64.4851 457.352 Q63.6575 454.38 62.04 451.446 L68.4347 451.446 Q69.7888 454.343 70.4659 457.465 Q71.143 460.549 71.143 464.047 Q71.143 473.564 65.1621 479.169 Q59.1813 484.774 49.0251 484.774 Q38.7184 484.774 32.8128 479.131 Q26.9071 473.451 26.9071 463.596 Q26.9071 460.399 27.5842 457.352 Q28.2237 454.305 29.5402 451.446 Z" fill="#000000" fill-rule="nonzero" fill-opacity="1" /><path clip-path="url(#clip570)" d="M47.2571 403.374 L50.6425 403.374 L50.6425 435.196 Q57.7895 434.745 61.551 430.908 Q65.275 427.034 65.275 420.15 Q65.275 416.163 64.297 412.439 Q63.319 408.677 61.363 404.991 L67.9081 404.991 Q69.4879 408.715 70.3155 412.627 Q71.143 416.539 71.143 420.564 Q71.143 430.645 65.275 436.551 Q59.407 442.419 49.4012 442.419 Q39.057 442.419 33.0009 436.851 Q26.9071 431.247 26.9071 421.768 Q26.9071 413.266 32.399 408.339 Q37.8533 403.374 47.2571 403.374 M45.2259 410.295 Q39.546 410.37 36.1606 413.492 Q32.7752 416.577 32.7752 421.692 Q32.7752 427.485 36.0477 430.983 Q39.3203 434.444 45.2635 434.971 L45.2259 410.295 Z" fill="#000000" fill-rule="nonzero" fill-opacity="1" /><path clip-path="url(#clip570)" d="M29.1641 365.156 L35.7092 365.156 Q34.2045 368.09 33.4522 371.25 Q32.6999 374.41 32.6999 377.795 Q32.6999 382.948 34.2798 385.544 Q35.8596 388.102 39.0193 388.102 Q41.4267 388.102 42.8185 386.259 Q44.1727 384.415 45.414 378.848 L45.9406 376.478 Q47.5204 369.106 50.4168 366.021 Q53.2756 362.899 58.429 362.899 Q64.297 362.899 67.72 367.564 Q71.143 372.19 71.143 380.315 Q71.143 383.701 70.4659 387.387 Q69.8265 391.036 68.5099 395.098 L61.363 395.098 Q63.3566 391.261 64.3722 387.537 Q65.3502 383.814 65.3502 380.165 Q65.3502 375.275 63.6951 372.642 Q62.0024 370.009 58.9556 370.009 Q56.1344 370.009 54.6298 371.927 Q53.1252 373.808 51.7334 380.24 L51.1692 382.647 Q49.815 389.08 47.0314 391.938 Q44.2103 394.797 39.3203 394.797 Q33.377 394.797 30.1421 390.584 Q26.9071 386.371 26.9071 378.623 Q26.9071 374.786 27.4714 371.4 Q28.0356 368.015 29.1641 365.156 Z" fill="#000000" fill-rule="nonzero" fill-opacity="1" /><path clip-path="url(#clip570)" d="M870.282 53.0558 L870.282 79.9625 L886.219 79.9625 Q894.237 79.9625 898.074 76.6668 Q901.96 73.3219 901.96 66.4846 Q901.96 59.5981 898.074 56.3515 Q894.237 53.0558 886.219 53.0558 L870.282 53.0558 M870.282 22.8535 L870.282 44.9888 L884.989 44.9888 Q892.27 44.9888 895.811 42.2833 Q899.402 39.5287 899.402 33.9211 Q899.402 28.3627 895.811 25.6081 Q892.27 22.8535 884.989 22.8535 L870.282 22.8535 M860.345 14.688 L885.727 14.688 Q897.09 14.688 903.239 19.4102 Q909.387 24.1324 909.387 32.8389 Q909.387 39.5779 906.239 43.5623 Q903.091 47.5466 896.992 48.5304 Q904.321 50.1045 908.354 55.1218 Q912.437 60.09 912.437 67.5668 Q912.437 77.4047 905.747 82.7663 Q899.058 88.128 886.711 88.128 L860.345 88.128 L860.345 14.688 Z" fill="#000000" fill-rule="nonzero" fill-opacity="1" /><path clip-path="url(#clip570)" d="M954.101 60.4343 Q943.132 60.4343 938.901 62.9429 Q934.671 65.4516 934.671 71.5019 Q934.671 76.3225 937.819 79.1755 Q941.016 81.9793 946.476 81.9793 Q954.002 81.9793 958.528 76.6668 Q963.102 71.3052 963.102 62.4511 L963.102 60.4343 L954.101 60.4343 M972.153 56.6959 L972.153 88.128 L963.102 88.128 L963.102 79.7658 Q960.004 84.7831 955.38 87.1934 Q950.756 89.5545 944.066 89.5545 Q935.605 89.5545 930.588 84.8323 Q925.62 80.0609 925.62 72.0922 Q925.62 62.7954 931.818 58.0732 Q938.065 53.351 950.412 53.351 L963.102 53.351 L963.102 52.4656 Q963.102 46.2185 958.971 42.8244 Q954.888 39.3812 947.46 39.3812 Q942.738 39.3812 938.262 40.5125 Q933.785 41.6439 929.654 43.9066 L929.654 35.5444 Q934.622 33.626 939.295 32.6914 Q943.968 31.7076 948.395 31.7076 Q960.348 31.7076 966.251 37.9055 Q972.153 44.1034 972.153 56.6959 Z" fill="#000000" fill-rule="nonzero" fill-opacity="1" /><path clip-path="url(#clip570)" d="M1022.72 41.4963 Q1021.2 40.6109 1019.38 40.2174 Q1017.6 39.7747 1015.44 39.7747 Q1007.77 39.7747 1003.63 44.792 Q999.552 49.7602 999.552 59.1062 L999.552 88.128 L990.452 88.128 L990.452 33.0357 L999.552 33.0357 L999.552 41.5947 Q1002.4 36.5774 1006.98 34.1671 Q1011.55 31.7076 1018.1 31.7076 Q1019.03 31.7076 1020.16 31.8552 Q1021.29 31.9535 1022.67 32.1995 L1022.72 41.4963 Z" fill="#000000" fill-rule="nonzero" fill-opacity="1" /><path clip-path="url(#clip570)" d="M1119.62 20.3448 L1119.62 30.8222 Q1114.61 26.1492 1108.9 23.8373 Q1103.24 21.5253 1096.85 21.5253 Q1084.26 21.5253 1077.57 29.2481 Q1070.88 36.9217 1070.88 51.4818 Q1070.88 65.9927 1077.57 73.7155 Q1084.26 81.389 1096.85 81.389 Q1103.24 81.389 1108.9 79.0771 Q1114.61 76.7652 1119.62 72.0922 L1119.62 82.4712 Q1114.41 86.0128 1108.56 87.7837 Q1102.75 89.5545 1096.26 89.5545 Q1079.58 89.5545 1069.99 79.3723 Q1060.4 69.1408 1060.4 51.4818 Q1060.4 33.7735 1069.99 23.5913 Q1079.58 13.3599 1096.26 13.3599 Q1102.85 13.3599 1108.65 15.1307 Q1114.51 16.8523 1119.62 20.3448 Z" fill="#000000" fill-rule="nonzero" fill-opacity="1" /><path clip-path="url(#clip570)" d="M1180.37 54.8759 L1180.37 88.128 L1171.32 88.128 L1171.32 55.171 Q1171.32 47.3499 1168.27 43.4639 Q1165.22 39.5779 1159.12 39.5779 Q1151.79 39.5779 1147.56 44.2509 Q1143.33 48.9239 1143.33 56.991 L1143.33 88.128 L1134.23 88.128 L1134.23 11.5891 L1143.33 11.5891 L1143.33 41.5947 Q1146.58 36.6265 1150.96 34.1671 Q1155.38 31.7076 1161.14 31.7076 Q1170.63 31.7076 1175.5 37.6103 Q1180.37 43.4639 1180.37 54.8759 Z" fill="#000000" fill-rule="nonzero" fill-opacity="1" /><path clip-path="url(#clip570)" d="M1223.46 60.4343 Q1212.49 60.4343 1208.26 62.9429 Q1204.03 65.4516 1204.03 71.5019 Q1204.03 76.3225 1207.18 79.1755 Q1210.38 81.9793 1215.84 81.9793 Q1223.36 81.9793 1227.89 76.6668 Q1232.46 71.3052 1232.46 62.4511 L1232.46 60.4343 L1223.46 60.4343 M1241.52 56.6959 L1241.52 88.128 L1232.46 88.128 L1232.46 79.7658 Q1229.37 84.7831 1224.74 87.1934 Q1220.12 89.5545 1213.43 89.5545 Q1204.97 89.5545 1199.95 84.8323 Q1194.98 80.0609 1194.98 72.0922 Q1194.98 62.7954 1201.18 58.0732 Q1207.43 53.351 1219.77 53.351 L1232.46 53.351 L1232.46 52.4656 Q1232.46 46.2185 1228.33 42.8244 Q1224.25 39.3812 1216.82 39.3812 Q1212.1 39.3812 1207.62 40.5125 Q1203.15 41.6439 1199.02 43.9066 L1199.02 35.5444 Q1203.98 33.626 1208.66 32.6914 Q1213.33 31.7076 1217.76 31.7076 Q1229.71 31.7076 1235.61 37.9055 Q1241.52 44.1034 1241.52 56.6959 Z" fill="#000000" fill-rule="nonzero" fill-opacity="1" /><path clip-path="url(#clip570)" d="M1292.08 41.4963 Q1290.56 40.6109 1288.74 40.2174 Q1286.97 39.7747 1284.8 39.7747 Q1277.13 39.7747 1273 44.792 Q1268.91 49.7602 1268.91 59.1062 L1268.91 88.128 L1259.81 88.128 L1259.81 33.0357 L1268.91 33.0357 L1268.91 41.5947 Q1271.77 36.5774 1276.34 34.1671 Q1280.92 31.7076 1287.46 31.7076 Q1288.39 31.7076 1289.52 31.8552 Q1290.66 31.9535 1292.03 32.1995 L1292.08 41.4963 Z" fill="#000000" fill-rule="nonzero" fill-opacity="1" /><path clip-path="url(#clip570)" d="M1310.53 17.3934 L1310.53 33.0357 L1329.17 33.0357 L1329.17 40.0698 L1310.53 40.0698 L1310.53 69.9771 Q1310.53 76.716 1312.35 78.6344 Q1314.22 80.5528 1319.87 80.5528 L1329.17 80.5528 L1329.17 88.128 L1319.87 88.128 Q1309.4 88.128 1305.41 84.242 Q1301.43 80.3069 1301.43 69.9771 L1301.43 40.0698 L1294.79 40.0698 L1294.79 33.0357 L1301.43 33.0357 L1301.43 17.3934 L1310.53 17.3934 Z" fill="#000000" fill-rule="nonzero" fill-opacity="1" /><path clip-path="url(#clip570)" d="M1373.49 14.688 L1419.93 14.688 L1419.93 23.0502 L1383.43 23.0502 L1383.43 44.792 L1418.4 44.792 L1418.4 53.1542 L1383.43 53.1542 L1383.43 79.7658 L1420.81 79.7658 L1420.81 88.128 L1373.49 88.128 L1373.49 14.688 Z" fill="#000000" fill-rule="nonzero" fill-opacity="1" /><path clip-path="url(#clip570)" d="M1482.54 33.0357 L1462.62 59.844 L1483.58 88.128 L1472.9 88.128 L1456.87 66.4846 L1440.83 88.128 L1430.16 88.128 L1451.55 59.3029 L1431.98 33.0357 L1442.65 33.0357 L1457.26 52.6623 L1471.87 33.0357 L1482.54 33.0357 Z" fill="#000000" fill-rule="nonzero" fill-opacity="1" /><path clip-path="url(#clip570)" d="M1521.4 60.4343 Q1510.43 60.4343 1506.2 62.9429 Q1501.97 65.4516 1501.97 71.5019 Q1501.97 76.3225 1505.12 79.1755 Q1508.32 81.9793 1513.78 81.9793 Q1521.31 81.9793 1525.83 76.6668 Q1530.41 71.3052 1530.41 62.4511 L1530.41 60.4343 L1521.4 60.4343 M1539.46 56.6959 L1539.46 88.128 L1530.41 88.128 L1530.41 79.7658 Q1527.31 84.7831 1522.68 87.1934 Q1518.06 89.5545 1511.37 89.5545 Q1502.91 89.5545 1497.89 84.8323 Q1492.92 80.0609 1492.92 72.0922 Q1492.92 62.7954 1499.12 58.0732 Q1505.37 53.351 1517.71 53.351 L1530.41 53.351 L1530.41 52.4656 Q1530.41 46.2185 1526.27 42.8244 Q1522.19 39.3812 1514.76 39.3812 Q1510.04 39.3812 1505.56 40.5125 Q1501.09 41.6439 1496.96 43.9066 L1496.96 35.5444 Q1501.92 33.626 1506.6 32.6914 Q1511.27 31.7076 1515.7 31.7076 Q1527.65 31.7076 1533.55 37.9055 Q1539.46 44.1034 1539.46 56.6959 Z" fill="#000000" fill-rule="nonzero" fill-opacity="1" /><path clip-path="url(#clip570)" d="M1600.99 43.6115 Q1604.39 37.512 1609.11 34.6098 Q1613.83 31.7076 1620.23 31.7076 Q1628.83 31.7076 1633.51 37.7579 Q1638.18 43.759 1638.18 54.8759 L1638.18 88.128 L1629.08 88.128 L1629.08 55.171 Q1629.08 47.2515 1626.28 43.4147 Q1623.47 39.5779 1617.72 39.5779 Q1610.68 39.5779 1606.6 44.2509 Q1602.52 48.9239 1602.52 56.991 L1602.52 88.128 L1593.42 88.128 L1593.42 55.171 Q1593.42 47.2023 1590.61 43.4147 Q1587.81 39.5779 1581.96 39.5779 Q1575.02 39.5779 1570.94 44.3001 Q1566.86 48.9731 1566.86 56.991 L1566.86 88.128 L1557.75 88.128 L1557.75 33.0357 L1566.86 33.0357 L1566.86 41.5947 Q1569.95 36.5282 1574.28 34.1179 Q1578.61 31.7076 1584.56 31.7076 Q1590.56 31.7076 1594.75 34.7573 Q1598.98 37.8071 1600.99 43.6115 Z" fill="#000000" fill-rule="nonzero" fill-opacity="1" /><path clip-path="url(#clip570)" d="M1664.99 79.8642 L1664.99 109.083 L1655.89 109.083 L1655.89 33.0357 L1664.99 33.0357 L1664.99 41.3979 Q1667.84 36.479 1672.17 34.1179 Q1676.55 31.7076 1682.6 31.7076 Q1692.63 31.7076 1698.88 39.6763 Q1705.18 47.645 1705.18 60.631 Q1705.18 73.6171 1698.88 81.5858 Q1692.63 89.5545 1682.6 89.5545 Q1676.55 89.5545 1672.17 87.1934 Q1667.84 84.7831 1664.99 79.8642 M1695.78 60.631 Q1695.78 50.6456 1691.65 44.9888 Q1687.57 39.2828 1680.38 39.2828 Q1673.2 39.2828 1669.07 44.9888 Q1664.99 50.6456 1664.99 60.631 Q1664.99 70.6165 1669.07 76.3225 Q1673.2 81.9793 1680.38 81.9793 Q1687.57 81.9793 1691.65 76.3225 Q1695.78 70.6165 1695.78 60.631 Z" fill="#000000" fill-rule="nonzero" fill-opacity="1" /><path clip-path="url(#clip570)" d="M1720.18 11.5891 L1729.23 11.5891 L1729.23 88.128 L1720.18 88.128 L1720.18 11.5891 Z" fill="#000000" fill-rule="nonzero" fill-opacity="1" /><path clip-path="url(#clip570)" d="M1795.29 58.3191 L1795.29 62.7462 L1753.68 62.7462 Q1754.27 72.0922 1759.28 77.0112 Q1764.35 81.8809 1773.35 81.8809 Q1778.57 81.8809 1783.44 80.602 Q1788.36 79.3231 1793.18 76.7652 L1793.18 85.3242 Q1788.31 87.3902 1783.19 88.4723 Q1778.07 89.5545 1772.81 89.5545 Q1759.63 89.5545 1751.91 81.8809 Q1744.23 74.2074 1744.23 61.1229 Q1744.23 47.5958 1751.51 39.6763 Q1758.84 31.7076 1771.24 31.7076 Q1782.35 31.7076 1788.8 38.8893 Q1795.29 46.0217 1795.29 58.3191 M1786.24 55.6629 Q1786.14 48.2353 1782.06 43.8082 Q1778.03 39.3812 1771.34 39.3812 Q1763.76 39.3812 1759.19 43.6606 Q1754.66 47.9401 1753.97 55.7121 L1786.24 55.6629 Z" fill="#000000" fill-rule="nonzero" fill-opacity="1" /><path clip-path="url(#clip572)" d="M1429.17 1392.53 L1429.17 1477.81 L2240.01 1477.81 L2240.01 1392.53 L1429.17 1392.53 L1429.17 1392.53  Z" fill="#009af9" fill-rule="evenodd" fill-opacity="1"/>
<polyline clip-path="url(#clip572)" style="stroke:#000000; stroke-linecap:round; stroke-linejoin:round; stroke-width:4; stroke-opacity:1; fill:none" points="1429.17,1392.53 1429.17,1477.81 2240.01,1477.81 2240.01,1392.53 1429.17,1392.53 "/>
<path clip-path="url(#clip572)" d="M415.628 136.432 L415.628 1477.81 L1226.46 1477.81 L1226.46 136.432 L415.628 136.432 L415.628 136.432  Z" fill="#009af9" fill-rule="evenodd" fill-opacity="1"/>
<polyline clip-path="url(#clip572)" style="stroke:#000000; stroke-linecap:round; stroke-linejoin:round; stroke-width:4; stroke-opacity:1; fill:none" points="415.628,136.432 415.628,1477.81 1226.46,1477.81 1226.46,136.432 415.628,136.432 "/>
<circle clip-path="url(#clip572)" style="fill:#009af9; stroke:none; fill-opacity:0" cx="1834.59" cy="1392.53" r="2"/>
<circle clip-path="url(#clip572)" style="fill:#009af9; stroke:none; fill-opacity:0" cx="821.046" cy="136.432" r="2"/>
</svg>
