<?xml version="1.0" encoding="utf-8"?>
<svg xmlns="http://www.w3.org/2000/svg" xmlns:xlink="http://www.w3.org/1999/xlink" width="800" height="600" viewBox="0 0 3200 2400">
<defs>
  <clipPath id="clip600">
    <rect x="0" y="0" width="3200" height="2400"/>
  </clipPath>
</defs>
<path clip-path="url(#clip600)" d="M0 2400 L3200 2400 L3200 0 L0 0  Z" fill="#ffffff" fill-rule="evenodd" fill-opacity="1"/>
<defs>
  <clipPath id="clip601">
    <rect x="640" y="0" width="2241" height="2241"/>
  </clipPath>
</defs>
<path clip-path="url(#clip600)" d="M298.023 2185.48 L3152.76 2185.48 L3152.76 47.2441 L298.023 47.2441  Z" fill="#ffffff" fill-rule="evenodd" fill-opacity="1"/>
<defs>
  <clipPath id="clip602">
    <rect x="298" y="47" width="2856" height="2139"/>
  </clipPath>
</defs>
<polyline clip-path="url(#clip602)" style="stroke:#000000; stroke-linecap:round; stroke-linejoin:round; stroke-width:2; stroke-opacity:0.1; fill:none" points="378.817,2185.48 378.817,47.2441 "/>
<polyline clip-path="url(#clip602)" style="stroke:#000000; stroke-linecap:round; stroke-linejoin:round; stroke-width:2; stroke-opacity:0.1; fill:none" points="1052.1,2185.48 1052.1,47.2441 "/>
<polyline clip-path="url(#clip602)" style="stroke:#000000; stroke-linecap:round; stroke-linejoin:round; stroke-width:2; stroke-opacity:0.1; fill:none" points="1725.39,2185.48 1725.39,47.2441 "/>
<polyline clip-path="url(#clip602)" style="stroke:#000000; stroke-linecap:round; stroke-linejoin:round; stroke-width:2; stroke-opacity:0.1; fill:none" points="2398.68,2185.48 2398.68,47.2441 "/>
<polyline clip-path="url(#clip602)" style="stroke:#000000; stroke-linecap:round; stroke-linejoin:round; stroke-width:2; stroke-opacity:0.1; fill:none" points="3071.96,2185.48 3071.96,47.2441 "/>
<polyline clip-path="url(#clip600)" style="stroke:#000000; stroke-linecap:round; stroke-linejoin:round; stroke-width:4; stroke-opacity:1; fill:none" points="298.023,2185.48 3152.76,2185.48 "/>
<polyline clip-path="url(#clip600)" style="stroke:#000000; stroke-linecap:round; stroke-linejoin:round; stroke-width:4; stroke-opacity:1; fill:none" points="378.817,2185.48 378.817,2166.58 "/>
<polyline clip-path="url(#clip600)" style="stroke:#000000; stroke-linecap:round; stroke-linejoin:round; stroke-width:4; stroke-opacity:1; fill:none" points="1052.1,2185.48 1052.1,2166.58 "/>
<polyline clip-path="url(#clip600)" style="stroke:#000000; stroke-linecap:round; stroke-linejoin:round; stroke-width:4; stroke-opacity:1; fill:none" points="1725.39,2185.48 1725.39,2166.58 "/>
<polyline clip-path="url(#clip600)" style="stroke:#000000; stroke-linecap:round; stroke-linejoin:round; stroke-width:4; stroke-opacity:1; fill:none" points="2398.68,2185.48 2398.68,2166.58 "/>
<polyline clip-path="url(#clip600)" style="stroke:#000000; stroke-linecap:round; stroke-linejoin:round; stroke-width:4; stroke-opacity:1; fill:none" points="3071.96,2185.48 3071.96,2166.58 "/>
<path clip-path="url(#clip600)" d="M331.696 2225.73 Q327.182 2225.73 324.896 2230.18 Q322.639 2234.61 322.639 2243.52 Q322.639 2252.41 324.896 2256.86 Q327.182 2261.29 331.696 2261.29 Q336.239 2261.29 338.496 2256.86 Q340.782 2252.41 340.782 2243.52 Q340.782 2234.61 338.496 2230.18 Q336.239 2225.73 331.696 2225.73 M331.696 2221.1 Q338.959 2221.1 342.778 2226.86 Q346.627 2232.59 346.627 2243.52 Q346.627 2254.43 342.778 2260.19 Q338.959 2265.92 331.696 2265.92 Q324.433 2265.92 320.585 2260.19 Q316.766 2254.43 316.766 2243.52 Q316.766 2232.59 320.585 2226.86 Q324.433 2221.1 331.696 2221.1 Z" fill="#000000" fill-rule="nonzero" fill-opacity="1" /><path clip-path="url(#clip600)" d="M356.899 2257.73 L363.004 2257.73 L363.004 2265.08 L356.899 2265.08 L356.899 2257.73 Z" fill="#000000" fill-rule="nonzero" fill-opacity="1" /><path clip-path="url(#clip600)" d="M388.235 2225.73 Q383.721 2225.73 381.435 2230.18 Q379.179 2234.61 379.179 2243.52 Q379.179 2252.41 381.435 2256.86 Q383.721 2261.29 388.235 2261.29 Q392.778 2261.29 395.035 2256.86 Q397.321 2252.41 397.321 2243.52 Q397.321 2234.61 395.035 2230.18 Q392.778 2225.73 388.235 2225.73 M388.235 2221.1 Q395.498 2221.1 399.317 2226.86 Q403.166 2232.59 403.166 2243.52 Q403.166 2254.43 399.317 2260.19 Q395.498 2265.92 388.235 2265.92 Q380.973 2265.92 377.124 2260.19 Q373.305 2254.43 373.305 2243.52 Q373.305 2232.59 377.124 2226.86 Q380.973 2221.1 388.235 2221.1 Z" fill="#000000" fill-rule="nonzero" fill-opacity="1" /><path clip-path="url(#clip600)" d="M425.938 2225.73 Q421.424 2225.73 419.138 2230.18 Q416.881 2234.61 416.881 2243.52 Q416.881 2252.41 419.138 2256.86 Q421.424 2261.29 425.938 2261.29 Q430.48 2261.29 432.737 2256.86 Q435.023 2252.41 435.023 2243.52 Q435.023 2234.61 432.737 2230.18 Q430.48 2225.73 425.938 2225.73 M425.938 2221.1 Q433.2 2221.1 437.02 2226.86 Q440.868 2232.59 440.868 2243.52 Q440.868 2254.43 437.02 2260.19 Q433.2 2265.92 425.938 2265.92 Q418.675 2265.92 414.826 2260.19 Q411.007 2254.43 411.007 2243.52 Q411.007 2232.59 414.826 2226.86 Q418.675 2221.1 425.938 2221.1 Z" fill="#000000" fill-rule="nonzero" fill-opacity="1" /><path clip-path="url(#clip600)" d="M1005.6 2225.73 Q1001.09 2225.73 998.805 2230.18 Q996.548 2234.61 996.548 2243.52 Q996.548 2252.41 998.805 2256.86 Q1001.09 2261.29 1005.6 2261.29 Q1010.15 2261.29 1012.4 2256.86 Q1014.69 2252.41 1014.69 2243.52 Q1014.69 2234.61 1012.4 2230.18 Q1010.15 2225.73 1005.6 2225.73 M1005.6 2221.1 Q1012.87 2221.1 1016.69 2226.86 Q1020.53 2232.59 1020.53 2243.52 Q1020.53 2254.43 1016.69 2260.19 Q1012.87 2265.92 1005.6 2265.92 Q998.342 2265.92 994.493 2260.19 Q990.674 2254.43 990.674 2243.52 Q990.674 2232.59 994.493 2226.86 Q998.342 2221.1 1005.6 2221.1 Z" fill="#000000" fill-rule="nonzero" fill-opacity="1" /><path clip-path="url(#clip600)" d="M1030.81 2257.73 L1036.91 2257.73 L1036.91 2265.08 L1030.81 2265.08 L1030.81 2257.73 Z" fill="#000000" fill-rule="nonzero" fill-opacity="1" /><path clip-path="url(#clip600)" d="M1054.68 2260.16 L1075.08 2260.16 L1075.08 2265.08 L1047.65 2265.08 L1047.65 2260.16 Q1050.97 2256.72 1056.7 2250.93 Q1062.46 2245.11 1063.94 2243.44 Q1066.74 2240.28 1067.84 2238.11 Q1068.97 2235.91 1068.97 2233.8 Q1068.97 2230.36 1066.54 2228.19 Q1064.14 2226.02 1060.26 2226.02 Q1057.51 2226.02 1054.45 2226.97 Q1051.41 2227.93 1047.94 2229.87 L1047.94 2223.96 Q1051.47 2222.55 1054.53 2221.82 Q1057.6 2221.1 1060.15 2221.1 Q1066.86 2221.1 1070.85 2224.46 Q1074.85 2227.81 1074.85 2233.42 Q1074.85 2236.09 1073.83 2238.49 Q1072.85 2240.86 1070.22 2244.1 Q1069.49 2244.94 1065.62 2248.96 Q1061.74 2252.96 1054.68 2260.16 Z" fill="#000000" fill-rule="nonzero" fill-opacity="1" /><path clip-path="url(#clip600)" d="M1087.4 2221.88 L1110.35 2221.88 L1110.35 2226.8 L1092.76 2226.8 L1092.76 2237.39 Q1094.03 2236.95 1095.3 2236.75 Q1096.58 2236.52 1097.85 2236.52 Q1105.08 2236.52 1109.31 2240.49 Q1113.53 2244.45 1113.53 2251.22 Q1113.53 2258.19 1109.19 2262.07 Q1104.85 2265.92 1096.95 2265.92 Q1094.23 2265.92 1091.4 2265.46 Q1088.59 2264.99 1085.58 2264.07 L1085.58 2258.19 Q1088.19 2259.61 1090.96 2260.31 Q1093.74 2261 1096.84 2261 Q1101.84 2261 1104.76 2258.37 Q1107.69 2255.73 1107.69 2251.22 Q1107.69 2246.71 1104.76 2244.07 Q1101.84 2241.44 1096.84 2241.44 Q1094.49 2241.44 1092.15 2241.96 Q1089.83 2242.48 1087.4 2243.58 L1087.4 2221.88 Z" fill="#000000" fill-rule="nonzero" fill-opacity="1" /><path clip-path="url(#clip600)" d="M1678.27 2225.73 Q1673.75 2225.73 1671.47 2230.18 Q1669.21 2234.61 1669.21 2243.52 Q1669.21 2252.41 1671.47 2256.86 Q1673.75 2261.29 1678.27 2261.29 Q1682.81 2261.29 1685.07 2256.86 Q1687.35 2252.41 1687.35 2243.52 Q1687.35 2234.61 1685.07 2230.18 Q1682.81 2225.73 1678.27 2225.73 M1678.27 2221.1 Q1685.53 2221.1 1689.35 2226.86 Q1693.2 2232.59 1693.2 2243.52 Q1693.2 2254.43 1689.35 2260.19 Q1685.53 2265.92 1678.27 2265.92 Q1671.01 2265.92 1667.16 2260.19 Q1663.34 2254.43 1663.34 2243.52 Q1663.34 2232.59 1667.16 2226.86 Q1671.01 2221.1 1678.27 2221.1 Z" fill="#000000" fill-rule="nonzero" fill-opacity="1" /><path clip-path="url(#clip600)" d="M1703.47 2257.73 L1709.58 2257.73 L1709.58 2265.08 L1703.47 2265.08 L1703.47 2257.73 Z" fill="#000000" fill-rule="nonzero" fill-opacity="1" /><path clip-path="url(#clip600)" d="M1722.37 2221.88 L1745.31 2221.88 L1745.31 2226.8 L1727.72 2226.8 L1727.72 2237.39 Q1728.99 2236.95 1730.26 2236.75 Q1731.54 2236.52 1732.81 2236.52 Q1740.04 2236.52 1744.27 2240.49 Q1748.49 2244.45 1748.49 2251.22 Q1748.49 2258.19 1744.15 2262.07 Q1739.81 2265.92 1731.91 2265.92 Q1729.19 2265.92 1726.36 2265.46 Q1723.55 2264.99 1720.54 2264.07 L1720.54 2258.19 Q1723.15 2259.61 1725.92 2260.31 Q1728.7 2261 1731.8 2261 Q1736.8 2261 1739.73 2258.37 Q1742.65 2255.73 1742.65 2251.22 Q1742.65 2246.71 1739.73 2244.07 Q1736.8 2241.44 1731.8 2241.44 Q1729.45 2241.44 1727.11 2241.96 Q1724.8 2242.48 1722.37 2243.58 L1722.37 2221.88 Z" fill="#000000" fill-rule="nonzero" fill-opacity="1" /><path clip-path="url(#clip600)" d="M1772.51 2225.73 Q1768 2225.73 1765.71 2230.18 Q1763.45 2234.61 1763.45 2243.52 Q1763.45 2252.41 1765.71 2256.86 Q1768 2261.29 1772.51 2261.29 Q1777.05 2261.29 1779.31 2256.86 Q1781.6 2252.41 1781.6 2243.52 Q1781.6 2234.61 1779.31 2230.18 Q1777.05 2225.73 1772.51 2225.73 M1772.51 2221.1 Q1779.77 2221.1 1783.59 2226.86 Q1787.44 2232.59 1787.44 2243.52 Q1787.44 2254.43 1783.59 2260.19 Q1779.77 2265.92 1772.51 2265.92 Q1765.25 2265.92 1761.4 2260.19 Q1757.58 2254.43 1757.58 2243.52 Q1757.58 2232.59 1761.4 2226.86 Q1765.25 2221.1 1772.51 2221.1 Z" fill="#000000" fill-rule="nonzero" fill-opacity="1" /><path clip-path="url(#clip600)" d="M2352.18 2225.73 Q2347.66 2225.73 2345.38 2230.18 Q2343.12 2234.61 2343.12 2243.52 Q2343.12 2252.41 2345.38 2256.86 Q2347.66 2261.29 2352.18 2261.29 Q2356.72 2261.29 2358.98 2256.86 Q2361.26 2252.41 2361.26 2243.52 Q2361.26 2234.61 2358.98 2230.18 Q2356.72 2225.73 2352.18 2225.73 M2352.18 2221.1 Q2359.44 2221.1 2363.26 2226.86 Q2367.11 2232.59 2367.11 2243.52 Q2367.11 2254.43 2363.26 2260.19 Q2359.44 2265.92 2352.18 2265.92 Q2344.91 2265.92 2341.07 2260.19 Q2337.25 2254.43 2337.25 2243.52 Q2337.25 2232.59 2341.07 2226.86 Q2344.91 2221.1 2352.18 2221.1 Z" fill="#000000" fill-rule="nonzero" fill-opacity="1" /><path clip-path="url(#clip600)" d="M2377.38 2257.73 L2383.48 2257.73 L2383.48 2265.08 L2377.38 2265.08 L2377.38 2257.73 Z" fill="#000000" fill-rule="nonzero" fill-opacity="1" /><path clip-path="url(#clip600)" d="M2394.74 2221.88 L2422.52 2221.88 L2422.52 2224.37 L2406.84 2265.08 L2400.73 2265.08 L2415.49 2226.8 L2394.74 2226.8 L2394.74 2221.88 Z" fill="#000000" fill-rule="nonzero" fill-opacity="1" /><path clip-path="url(#clip600)" d="M2433.98 2221.88 L2456.92 2221.88 L2456.92 2226.8 L2439.33 2226.8 L2439.33 2237.39 Q2440.6 2236.95 2441.88 2236.75 Q2443.15 2236.52 2444.42 2236.52 Q2451.66 2236.52 2455.88 2240.49 Q2460.1 2244.45 2460.1 2251.22 Q2460.1 2258.19 2455.76 2262.07 Q2451.42 2265.92 2443.52 2265.92 Q2440.8 2265.92 2437.97 2265.46 Q2435.16 2264.99 2432.15 2264.07 L2432.15 2258.19 Q2434.76 2259.61 2437.54 2260.31 Q2440.31 2261 2443.41 2261 Q2448.41 2261 2451.34 2258.37 Q2454.26 2255.73 2454.26 2251.22 Q2454.26 2246.71 2451.34 2244.07 Q2448.41 2241.44 2443.41 2241.44 Q2441.07 2241.44 2438.72 2241.96 Q2436.41 2242.48 2433.98 2243.58 L2433.98 2221.88 Z" fill="#000000" fill-rule="nonzero" fill-opacity="1" /><path clip-path="url(#clip600)" d="M3012.05 2260.16 L3021.6 2260.16 L3021.6 2227.2 L3011.21 2229.29 L3011.21 2223.96 L3021.54 2221.88 L3027.39 2221.88 L3027.39 2260.16 L3036.94 2260.16 L3036.94 2265.08 L3012.05 2265.08 L3012.05 2260.16 Z" fill="#000000" fill-rule="nonzero" fill-opacity="1" /><path clip-path="url(#clip600)" d="M3048.74 2257.73 L3054.85 2257.73 L3054.85 2265.08 L3048.74 2265.08 L3048.74 2257.73 Z" fill="#000000" fill-rule="nonzero" fill-opacity="1" /><path clip-path="url(#clip600)" d="M3080.08 2225.73 Q3075.56 2225.73 3073.28 2230.18 Q3071.02 2234.61 3071.02 2243.52 Q3071.02 2252.41 3073.28 2256.86 Q3075.56 2261.29 3080.08 2261.29 Q3084.62 2261.29 3086.88 2256.86 Q3089.16 2252.41 3089.16 2243.52 Q3089.16 2234.61 3086.88 2230.18 Q3084.62 2225.73 3080.08 2225.73 M3080.08 2221.1 Q3087.34 2221.1 3091.16 2226.86 Q3095.01 2232.59 3095.01 2243.52 Q3095.01 2254.43 3091.16 2260.19 Q3087.34 2265.92 3080.08 2265.92 Q3072.82 2265.92 3068.97 2260.19 Q3065.15 2254.43 3065.15 2243.52 Q3065.15 2232.59 3068.97 2226.86 Q3072.82 2221.1 3080.08 2221.1 Z" fill="#000000" fill-rule="nonzero" fill-opacity="1" /><path clip-path="url(#clip600)" d="M3117.78 2225.73 Q3113.27 2225.73 3110.98 2230.18 Q3108.72 2234.61 3108.72 2243.52 Q3108.72 2252.41 3110.98 2256.86 Q3113.27 2261.29 3117.78 2261.29 Q3122.32 2261.29 3124.58 2256.86 Q3126.87 2252.41 3126.87 2243.52 Q3126.87 2234.61 3124.58 2230.18 Q3122.32 2225.73 3117.78 2225.73 M3117.78 2221.1 Q3125.04 2221.1 3128.86 2226.86 Q3132.71 2232.59 3132.71 2243.52 Q3132.71 2254.43 3128.86 2260.19 Q3125.04 2265.92 3117.78 2265.92 Q3110.52 2265.92 3106.67 2260.19 Q3102.85 2254.43 3102.85 2243.52 Q3102.85 2232.59 3106.67 2226.86 Q3110.52 2221.1 3117.78 2221.1 Z" fill="#000000" fill-rule="nonzero" fill-opacity="1" /><path clip-path="url(#clip600)" d="M1373.23 2309.51 L1405.51 2309.51 L1405.51 2315.91 L1380.83 2315.91 L1380.83 2332.46 L1403.1 2332.46 L1403.1 2338.85 L1380.83 2338.85 L1380.83 2365.67 L1373.23 2365.67 L1373.23 2309.51 Z" fill="#000000" fill-rule="nonzero" fill-opacity="1" /><path clip-path="url(#clip600)" d="M1429.32 2344.49 Q1420.93 2344.49 1417.69 2346.41 Q1414.46 2348.33 1414.46 2352.96 Q1414.46 2356.64 1416.87 2358.83 Q1419.31 2360.97 1423.49 2360.97 Q1429.24 2360.97 1432.7 2356.91 Q1436.2 2352.81 1436.2 2346.04 L1436.2 2344.49 L1429.32 2344.49 M1443.12 2341.64 L1443.12 2365.67 L1436.2 2365.67 L1436.2 2359.28 Q1433.83 2363.11 1430.3 2364.96 Q1426.76 2366.76 1421.64 2366.76 Q1415.17 2366.76 1411.34 2363.15 Q1407.54 2359.5 1407.54 2353.41 Q1407.54 2346.3 1412.28 2342.69 Q1417.05 2339.08 1426.5 2339.08 L1436.2 2339.08 L1436.2 2338.4 Q1436.2 2333.62 1433.04 2331.03 Q1429.92 2328.39 1424.24 2328.39 Q1420.63 2328.39 1417.21 2329.26 Q1413.78 2330.13 1410.62 2331.86 L1410.62 2325.46 Q1414.42 2323.99 1418 2323.28 Q1421.57 2322.53 1424.95 2322.53 Q1434.09 2322.53 1438.61 2327.27 Q1443.12 2332.01 1443.12 2341.64 Z" fill="#000000" fill-rule="nonzero" fill-opacity="1" /><path clip-path="url(#clip600)" d="M1457.38 2307.14 L1464.3 2307.14 L1464.3 2365.67 L1457.38 2365.67 L1457.38 2307.14 Z" fill="#000000" fill-rule="nonzero" fill-opacity="1" /><path clip-path="url(#clip600)" d="M1505.64 2324.78 L1505.64 2331.33 Q1502.71 2329.82 1499.55 2329.07 Q1496.39 2328.32 1493 2328.32 Q1487.85 2328.32 1485.25 2329.9 Q1482.69 2331.48 1482.69 2334.64 Q1482.69 2337.05 1484.54 2338.44 Q1486.38 2339.79 1491.95 2341.03 L1494.32 2341.56 Q1501.69 2343.14 1504.77 2346.04 Q1507.9 2348.9 1507.9 2354.05 Q1507.9 2359.92 1503.23 2363.34 Q1498.61 2366.76 1490.48 2366.76 Q1487.09 2366.76 1483.41 2366.09 Q1479.76 2365.45 1475.7 2364.13 L1475.7 2356.98 Q1479.53 2358.98 1483.26 2359.99 Q1486.98 2360.97 1490.63 2360.97 Q1495.52 2360.97 1498.15 2359.31 Q1500.79 2357.62 1500.79 2354.58 Q1500.79 2351.75 1498.87 2350.25 Q1496.99 2348.74 1490.56 2347.35 L1488.15 2346.79 Q1481.72 2345.43 1478.86 2342.65 Q1476 2339.83 1476 2334.94 Q1476 2329 1480.21 2325.76 Q1484.42 2322.53 1492.17 2322.53 Q1496.01 2322.53 1499.4 2323.09 Q1502.78 2323.66 1505.64 2324.78 Z" fill="#000000" fill-rule="nonzero" fill-opacity="1" /><path clip-path="url(#clip600)" d="M1554.95 2342.88 L1554.95 2346.26 L1523.13 2346.26 Q1523.58 2353.41 1527.42 2357.17 Q1531.29 2360.89 1538.18 2360.89 Q1542.16 2360.89 1545.89 2359.92 Q1549.65 2358.94 1553.34 2356.98 L1553.34 2363.53 Q1549.61 2365.11 1545.7 2365.94 Q1541.79 2366.76 1537.76 2366.76 Q1527.68 2366.76 1521.78 2360.89 Q1515.91 2355.03 1515.91 2345.02 Q1515.91 2334.68 1521.48 2328.62 Q1527.08 2322.53 1536.56 2322.53 Q1545.06 2322.53 1549.99 2328.02 Q1554.95 2333.47 1554.95 2342.88 M1548.03 2340.85 Q1547.96 2335.17 1544.83 2331.78 Q1541.75 2328.39 1536.63 2328.39 Q1530.84 2328.39 1527.34 2331.67 Q1523.88 2334.94 1523.36 2340.88 L1548.03 2340.85 Z" fill="#000000" fill-rule="nonzero" fill-opacity="1" /><path clip-path="url(#clip600)" d="M1598.7 2315.76 L1598.7 2336.86 L1608.25 2336.86 Q1613.56 2336.86 1616.45 2334.11 Q1619.35 2331.37 1619.35 2326.29 Q1619.35 2321.25 1616.45 2318.5 Q1613.56 2315.76 1608.25 2315.76 L1598.7 2315.76 M1591.1 2309.51 L1608.25 2309.51 Q1617.7 2309.51 1622.51 2313.8 Q1627.36 2318.05 1627.36 2326.29 Q1627.36 2334.6 1622.51 2338.85 Q1617.7 2343.1 1608.25 2343.1 L1598.7 2343.1 L1598.7 2365.67 L1591.1 2365.67 L1591.1 2309.51 Z" fill="#000000" fill-rule="nonzero" fill-opacity="1" /><path clip-path="url(#clip600)" d="M1650.84 2328.39 Q1645.27 2328.39 1642.03 2332.76 Q1638.8 2337.08 1638.8 2344.64 Q1638.8 2352.21 1642 2356.57 Q1645.23 2360.89 1650.84 2360.89 Q1656.36 2360.89 1659.6 2356.53 Q1662.83 2352.17 1662.83 2344.64 Q1662.83 2337.16 1659.6 2332.8 Q1656.36 2328.39 1650.84 2328.39 M1650.84 2322.53 Q1659.86 2322.53 1665.02 2328.39 Q1670.17 2334.26 1670.17 2344.64 Q1670.17 2354.99 1665.02 2360.89 Q1659.86 2366.76 1650.84 2366.76 Q1641.77 2366.76 1636.62 2360.89 Q1631.5 2354.99 1631.5 2344.64 Q1631.5 2334.26 1636.62 2328.39 Q1641.77 2322.53 1650.84 2322.53 Z" fill="#000000" fill-rule="nonzero" fill-opacity="1" /><path clip-path="url(#clip600)" d="M1708.5 2324.78 L1708.5 2331.33 Q1705.57 2329.82 1702.41 2329.07 Q1699.25 2328.32 1695.86 2328.32 Q1690.71 2328.32 1688.11 2329.9 Q1685.55 2331.48 1685.55 2334.64 Q1685.55 2337.05 1687.4 2338.44 Q1689.24 2339.79 1694.81 2341.03 L1697.18 2341.56 Q1704.55 2343.14 1707.63 2346.04 Q1710.76 2348.9 1710.76 2354.05 Q1710.76 2359.92 1706.09 2363.34 Q1701.47 2366.76 1693.34 2366.76 Q1689.96 2366.76 1686.27 2366.09 Q1682.62 2365.45 1678.56 2364.13 L1678.56 2356.98 Q1682.39 2358.98 1686.12 2359.99 Q1689.84 2360.97 1693.49 2360.97 Q1698.38 2360.97 1701.01 2359.31 Q1703.65 2357.62 1703.65 2354.58 Q1703.65 2351.75 1701.73 2350.25 Q1699.85 2348.74 1693.42 2347.35 L1691.01 2346.79 Q1684.58 2345.43 1681.72 2342.65 Q1678.86 2339.83 1678.86 2334.94 Q1678.86 2329 1683.07 2325.76 Q1687.28 2322.53 1695.03 2322.53 Q1698.87 2322.53 1702.26 2323.09 Q1705.64 2323.66 1708.5 2324.78 Z" fill="#000000" fill-rule="nonzero" fill-opacity="1" /><path clip-path="url(#clip600)" d="M1721.78 2323.54 L1728.7 2323.54 L1728.7 2365.67 L1721.78 2365.67 L1721.78 2323.54 M1721.78 2307.14 L1728.7 2307.14 L1728.7 2315.91 L1721.78 2315.91 L1721.78 2307.14 Z" fill="#000000" fill-rule="nonzero" fill-opacity="1" /><path clip-path="url(#clip600)" d="M1750.03 2311.58 L1750.03 2323.54 L1764.28 2323.54 L1764.28 2328.92 L1750.03 2328.92 L1750.03 2351.79 Q1750.03 2356.95 1751.42 2358.41 Q1752.85 2359.88 1757.17 2359.88 L1764.28 2359.88 L1764.28 2365.67 L1757.17 2365.67 Q1749.16 2365.67 1746.12 2362.7 Q1743.07 2359.69 1743.07 2351.79 L1743.07 2328.92 L1737.99 2328.92 L1737.99 2323.54 L1743.07 2323.54 L1743.07 2311.58 L1750.03 2311.58 Z" fill="#000000" fill-rule="nonzero" fill-opacity="1" /><path clip-path="url(#clip600)" d="M1773.39 2323.54 L1780.31 2323.54 L1780.31 2365.67 L1773.39 2365.67 L1773.39 2323.54 M1773.39 2307.14 L1780.31 2307.14 L1780.31 2315.91 L1773.39 2315.91 L1773.39 2307.14 Z" fill="#000000" fill-rule="nonzero" fill-opacity="1" /><path clip-path="url(#clip600)" d="M1789.82 2323.54 L1797.16 2323.54 L1810.33 2358.9 L1823.49 2323.54 L1830.83 2323.54 L1815.03 2365.67 L1805.62 2365.67 L1789.82 2323.54 Z" fill="#000000" fill-rule="nonzero" fill-opacity="1" /><path clip-path="url(#clip600)" d="M1876.42 2342.88 L1876.42 2346.26 L1844.59 2346.26 Q1845.04 2353.41 1848.88 2357.17 Q1852.76 2360.89 1859.64 2360.89 Q1863.63 2360.89 1867.35 2359.92 Q1871.11 2358.94 1874.8 2356.98 L1874.8 2363.53 Q1871.07 2365.11 1867.16 2365.94 Q1863.25 2366.76 1859.23 2366.76 Q1849.14 2366.76 1843.24 2360.89 Q1837.37 2355.03 1837.37 2345.02 Q1837.37 2334.68 1842.94 2328.62 Q1848.54 2322.53 1858.02 2322.53 Q1866.52 2322.53 1871.45 2328.02 Q1876.42 2333.47 1876.42 2342.88 M1869.49 2340.85 Q1869.42 2335.17 1866.3 2331.78 Q1863.21 2328.39 1858.1 2328.39 Q1852.3 2328.39 1848.81 2331.67 Q1845.35 2334.94 1844.82 2340.88 L1869.49 2340.85 Z" fill="#000000" fill-rule="nonzero" fill-opacity="1" /><path clip-path="url(#clip600)" d="M1939.2 2339.34 Q1941.64 2340.17 1943.94 2342.88 Q1946.27 2345.59 1948.6 2350.32 L1956.31 2365.67 L1948.15 2365.67 L1940.96 2351.27 Q1938.18 2345.62 1935.55 2343.78 Q1932.95 2341.94 1928.44 2341.94 L1920.16 2341.94 L1920.16 2365.67 L1912.56 2365.67 L1912.56 2309.51 L1929.72 2309.51 Q1939.35 2309.51 1944.09 2313.54 Q1948.83 2317.56 1948.83 2325.69 Q1948.83 2330.99 1946.34 2334.49 Q1943.9 2337.99 1939.2 2339.34 M1920.16 2315.76 L1920.16 2335.69 L1929.72 2335.69 Q1935.21 2335.69 1937.99 2333.17 Q1940.81 2330.61 1940.81 2325.69 Q1940.81 2320.76 1937.99 2318.28 Q1935.21 2315.76 1929.72 2315.76 L1920.16 2315.76 Z" fill="#000000" fill-rule="nonzero" fill-opacity="1" /><path clip-path="url(#clip600)" d="M1983.24 2344.49 Q1974.86 2344.49 1971.62 2346.41 Q1968.39 2348.33 1968.39 2352.96 Q1968.39 2356.64 1970.79 2358.83 Q1973.24 2360.97 1977.41 2360.97 Q1983.17 2360.97 1986.63 2356.91 Q1990.13 2352.81 1990.13 2346.04 L1990.13 2344.49 L1983.24 2344.49 M1997.05 2341.64 L1997.05 2365.67 L1990.13 2365.67 L1990.13 2359.28 Q1987.76 2363.11 1984.22 2364.96 Q1980.69 2366.76 1975.57 2366.76 Q1969.1 2366.76 1965.26 2363.15 Q1961.46 2359.5 1961.46 2353.41 Q1961.46 2346.3 1966.2 2342.69 Q1970.98 2339.08 1980.42 2339.08 L1990.13 2339.08 L1990.13 2338.4 Q1990.13 2333.62 1986.97 2331.03 Q1983.85 2328.39 1978.17 2328.39 Q1974.55 2328.39 1971.13 2329.26 Q1967.71 2330.13 1964.55 2331.86 L1964.55 2325.46 Q1968.35 2323.99 1971.92 2323.28 Q1975.49 2322.53 1978.88 2322.53 Q1988.02 2322.53 1992.53 2327.27 Q1997.05 2332.01 1997.05 2341.64 Z" fill="#000000" fill-rule="nonzero" fill-opacity="1" /><path clip-path="url(#clip600)" d="M2018.15 2311.58 L2018.15 2323.54 L2032.41 2323.54 L2032.41 2328.92 L2018.15 2328.92 L2018.15 2351.79 Q2018.15 2356.95 2019.54 2358.41 Q2020.97 2359.88 2025.3 2359.88 L2032.41 2359.88 L2032.41 2365.67 L2025.3 2365.67 Q2017.29 2365.67 2014.24 2362.7 Q2011.19 2359.69 2011.19 2351.79 L2011.19 2328.92 L2006.11 2328.92 L2006.11 2323.54 L2011.19 2323.54 L2011.19 2311.58 L2018.15 2311.58 Z" fill="#000000" fill-rule="nonzero" fill-opacity="1" /><path clip-path="url(#clip600)" d="M2077.55 2342.88 L2077.55 2346.26 L2045.72 2346.26 Q2046.17 2353.41 2050.01 2357.17 Q2053.89 2360.89 2060.77 2360.89 Q2064.76 2360.89 2068.48 2359.92 Q2072.24 2358.94 2075.93 2356.98 L2075.93 2363.53 Q2072.2 2365.11 2068.29 2365.94 Q2064.38 2366.76 2060.36 2366.76 Q2050.27 2366.76 2044.37 2360.89 Q2038.5 2355.03 2038.5 2345.02 Q2038.5 2334.68 2044.07 2328.62 Q2049.67 2322.53 2059.15 2322.53 Q2067.65 2322.53 2072.58 2328.02 Q2077.55 2333.47 2077.55 2342.88 M2070.62 2340.85 Q2070.55 2335.17 2067.43 2331.78 Q2064.34 2328.39 2059.23 2328.39 Q2053.43 2328.39 2049.94 2331.67 Q2046.48 2334.94 2045.95 2340.88 L2070.62 2340.85 Z" fill="#000000" fill-rule="nonzero" fill-opacity="1" /><polyline clip-path="url(#clip602)" style="stroke:#000000; stroke-linecap:round; stroke-linejoin:round; stroke-width:2; stroke-opacity:0.1; fill:none" points="298.023,2124.96 3152.76,2124.96 "/>
<polyline clip-path="url(#clip602)" style="stroke:#000000; stroke-linecap:round; stroke-linejoin:round; stroke-width:2; stroke-opacity:0.1; fill:none" points="298.023,1620.66 3152.76,1620.66 "/>
<polyline clip-path="url(#clip602)" style="stroke:#000000; stroke-linecap:round; stroke-linejoin:round; stroke-width:2; stroke-opacity:0.1; fill:none" points="298.023,1116.36 3152.76,1116.36 "/>
<polyline clip-path="url(#clip602)" style="stroke:#000000; stroke-linecap:round; stroke-linejoin:round; stroke-width:2; stroke-opacity:0.1; fill:none" points="298.023,612.061 3152.76,612.061 "/>
<polyline clip-path="url(#clip602)" style="stroke:#000000; stroke-linecap:round; stroke-linejoin:round; stroke-width:2; stroke-opacity:0.1; fill:none" points="298.023,107.76 3152.76,107.76 "/>
<polyline clip-path="url(#clip600)" style="stroke:#000000; stroke-linecap:round; stroke-linejoin:round; stroke-width:4; stroke-opacity:1; fill:none" points="298.023,2185.48 298.023,47.2441 "/>
<polyline clip-path="url(#clip600)" style="stroke:#000000; stroke-linecap:round; stroke-linejoin:round; stroke-width:4; stroke-opacity:1; fill:none" points="298.023,2124.96 316.92,2124.96 "/>
<polyline clip-path="url(#clip600)" style="stroke:#000000; stroke-linecap:round; stroke-linejoin:round; stroke-width:4; stroke-opacity:1; fill:none" points="298.023,1620.66 316.92,1620.66 "/>
<polyline clip-path="url(#clip600)" style="stroke:#000000; stroke-linecap:round; stroke-linejoin:round; stroke-width:4; stroke-opacity:1; fill:none" points="298.023,1116.36 316.92,1116.36 "/>
<polyline clip-path="url(#clip600)" style="stroke:#000000; stroke-linecap:round; stroke-linejoin:round; stroke-width:4; stroke-opacity:1; fill:none" points="298.023,612.061 316.92,612.061 "/>
<polyline clip-path="url(#clip600)" style="stroke:#000000; stroke-linecap:round; stroke-linejoin:round; stroke-width:4; stroke-opacity:1; fill:none" points="298.023,107.76 316.92,107.76 "/>
<path clip-path="url(#clip600)" d="M140.851 2107.21 Q136.337 2107.21 134.051 2111.67 Q131.794 2116.1 131.794 2125.01 Q131.794 2133.89 134.051 2138.35 Q136.337 2142.77 140.851 2142.77 Q145.393 2142.77 147.65 2138.35 Q149.936 2133.89 149.936 2125.01 Q149.936 2116.1 147.65 2111.67 Q145.393 2107.21 140.851 2107.21 M140.851 2102.58 Q148.113 2102.58 151.933 2108.34 Q155.781 2114.07 155.781 2125.01 Q155.781 2135.92 151.933 2141.67 Q148.113 2147.4 140.851 2147.4 Q133.588 2147.4 129.74 2141.67 Q125.92 2135.92 125.92 2125.01 Q125.92 2114.07 129.74 2108.34 Q133.588 2102.58 140.851 2102.58 Z" fill="#000000" fill-rule="nonzero" fill-opacity="1" /><path clip-path="url(#clip600)" d="M166.053 2139.21 L172.158 2139.21 L172.158 2146.56 L166.053 2146.56 L166.053 2139.21 Z" fill="#000000" fill-rule="nonzero" fill-opacity="1" /><path clip-path="url(#clip600)" d="M197.39 2107.21 Q192.876 2107.21 190.59 2111.67 Q188.333 2116.1 188.333 2125.01 Q188.333 2133.89 190.59 2138.35 Q192.876 2142.77 197.39 2142.77 Q201.932 2142.77 204.189 2138.35 Q206.475 2133.89 206.475 2125.01 Q206.475 2116.1 204.189 2111.67 Q201.932 2107.21 197.39 2107.21 M197.39 2102.58 Q204.652 2102.58 208.472 2108.34 Q212.32 2114.07 212.32 2125.01 Q212.32 2135.92 208.472 2141.67 Q204.652 2147.4 197.39 2147.4 Q190.127 2147.4 186.279 2141.67 Q182.459 2135.92 182.459 2125.01 Q182.459 2114.07 186.279 2108.34 Q190.127 2102.58 197.39 2102.58 Z" fill="#000000" fill-rule="nonzero" fill-opacity="1" /><path clip-path="url(#clip600)" d="M235.092 2107.21 Q230.578 2107.21 228.292 2111.67 Q226.035 2116.1 226.035 2125.01 Q226.035 2133.89 228.292 2138.35 Q230.578 2142.77 235.092 2142.77 Q239.635 2142.77 241.892 2138.35 Q244.178 2133.89 244.178 2125.01 Q244.178 2116.1 241.892 2111.67 Q239.635 2107.21 235.092 2107.21 M235.092 2102.58 Q242.355 2102.58 246.174 2108.34 Q250.023 2114.07 250.023 2125.01 Q250.023 2135.92 246.174 2141.67 Q242.355 2147.4 235.092 2147.4 Q227.829 2147.4 223.981 2141.67 Q220.162 2135.92 220.162 2125.01 Q220.162 2114.07 223.981 2108.34 Q227.829 2102.58 235.092 2102.58 Z" fill="#000000" fill-rule="nonzero" fill-opacity="1" /><path clip-path="url(#clip600)" d="M142.095 1602.91 Q137.581 1602.91 135.295 1607.37 Q133.038 1611.79 133.038 1620.71 Q133.038 1629.59 135.295 1634.05 Q137.581 1638.47 142.095 1638.47 Q146.638 1638.47 148.895 1634.05 Q151.18 1629.59 151.18 1620.71 Q151.18 1611.79 148.895 1607.37 Q146.638 1602.91 142.095 1602.91 M142.095 1598.28 Q149.358 1598.28 153.177 1604.04 Q157.025 1609.77 157.025 1620.71 Q157.025 1631.61 153.177 1637.37 Q149.358 1643.1 142.095 1643.1 Q134.832 1643.1 130.984 1637.37 Q127.164 1631.61 127.164 1620.71 Q127.164 1609.77 130.984 1604.04 Q134.832 1598.28 142.095 1598.28 Z" fill="#000000" fill-rule="nonzero" fill-opacity="1" /><path clip-path="url(#clip600)" d="M167.297 1634.91 L173.403 1634.91 L173.403 1642.26 L167.297 1642.26 L167.297 1634.91 Z" fill="#000000" fill-rule="nonzero" fill-opacity="1" /><path clip-path="url(#clip600)" d="M191.169 1637.34 L211.568 1637.34 L211.568 1642.26 L184.137 1642.26 L184.137 1637.34 Q187.465 1633.9 193.194 1628.11 Q198.952 1622.3 200.428 1620.62 Q203.235 1617.47 204.334 1615.3 Q205.463 1613.1 205.463 1610.98 Q205.463 1607.54 203.032 1605.37 Q200.63 1603.2 196.753 1603.2 Q194.004 1603.2 190.937 1604.16 Q187.899 1605.11 184.427 1607.05 L184.427 1601.15 Q187.957 1599.73 191.024 1599 Q194.091 1598.28 196.637 1598.28 Q203.35 1598.28 207.343 1601.64 Q211.336 1604.99 211.336 1610.61 Q211.336 1613.27 210.324 1615.67 Q209.34 1618.04 206.707 1621.28 Q205.983 1622.12 202.106 1626.15 Q198.229 1630.14 191.169 1637.34 Z" fill="#000000" fill-rule="nonzero" fill-opacity="1" /><path clip-path="url(#clip600)" d="M223.894 1599.06 L246.84 1599.06 L246.84 1603.98 L229.247 1603.98 L229.247 1614.57 Q230.52 1614.14 231.793 1613.94 Q233.067 1613.7 234.34 1613.7 Q241.573 1613.7 245.798 1617.67 Q250.023 1621.63 250.023 1628.4 Q250.023 1635.38 245.682 1639.25 Q241.342 1643.1 233.443 1643.1 Q230.723 1643.1 227.887 1642.64 Q225.081 1642.18 222.071 1641.25 L222.071 1635.38 Q224.675 1636.79 227.453 1637.49 Q230.231 1638.18 233.327 1638.18 Q238.333 1638.18 241.255 1635.55 Q244.178 1632.92 244.178 1628.4 Q244.178 1623.89 241.255 1621.26 Q238.333 1618.62 233.327 1618.62 Q230.983 1618.62 228.64 1619.14 Q226.325 1619.66 223.894 1620.76 L223.894 1599.06 Z" fill="#000000" fill-rule="nonzero" fill-opacity="1" /><path clip-path="url(#clip600)" d="M140.851 1098.61 Q136.337 1098.61 134.051 1103.07 Q131.794 1107.49 131.794 1116.41 Q131.794 1125.29 134.051 1129.74 Q136.337 1134.17 140.851 1134.17 Q145.393 1134.17 147.65 1129.74 Q149.936 1125.29 149.936 1116.41 Q149.936 1107.49 147.65 1103.07 Q145.393 1098.61 140.851 1098.61 M140.851 1093.98 Q148.113 1093.98 151.933 1099.74 Q155.781 1105.47 155.781 1116.41 Q155.781 1127.31 151.933 1133.07 Q148.113 1138.8 140.851 1138.8 Q133.588 1138.8 129.74 1133.07 Q125.92 1127.31 125.92 1116.41 Q125.92 1105.47 129.74 1099.74 Q133.588 1093.98 140.851 1093.98 Z" fill="#000000" fill-rule="nonzero" fill-opacity="1" /><path clip-path="url(#clip600)" d="M166.053 1130.61 L172.158 1130.61 L172.158 1137.96 L166.053 1137.96 L166.053 1130.61 Z" fill="#000000" fill-rule="nonzero" fill-opacity="1" /><path clip-path="url(#clip600)" d="M184.948 1094.76 L207.893 1094.76 L207.893 1099.68 L190.301 1099.68 L190.301 1110.27 Q191.574 1109.84 192.847 1109.63 Q194.12 1109.4 195.393 1109.4 Q202.627 1109.4 206.851 1113.37 Q211.076 1117.33 211.076 1124.1 Q211.076 1131.08 206.736 1134.95 Q202.395 1138.8 194.496 1138.8 Q191.776 1138.8 188.941 1138.34 Q186.134 1137.88 183.125 1136.95 L183.125 1131.08 Q185.729 1132.49 188.507 1133.19 Q191.284 1133.88 194.38 1133.88 Q199.386 1133.88 202.309 1131.25 Q205.231 1128.62 205.231 1124.1 Q205.231 1119.59 202.309 1116.96 Q199.386 1114.32 194.38 1114.32 Q192.037 1114.32 189.693 1114.84 Q187.378 1115.36 184.948 1116.46 L184.948 1094.76 Z" fill="#000000" fill-rule="nonzero" fill-opacity="1" /><path clip-path="url(#clip600)" d="M235.092 1098.61 Q230.578 1098.61 228.292 1103.07 Q226.035 1107.49 226.035 1116.41 Q226.035 1125.29 228.292 1129.74 Q230.578 1134.17 235.092 1134.17 Q239.635 1134.17 241.892 1129.74 Q244.178 1125.29 244.178 1116.41 Q244.178 1107.49 241.892 1103.07 Q239.635 1098.61 235.092 1098.61 M235.092 1093.98 Q242.355 1093.98 246.174 1099.74 Q250.023 1105.47 250.023 1116.41 Q250.023 1127.31 246.174 1133.07 Q242.355 1138.8 235.092 1138.8 Q227.829 1138.8 223.981 1133.07 Q220.162 1127.31 220.162 1116.41 Q220.162 1105.47 223.981 1099.74 Q227.829 1093.98 235.092 1093.98 Z" fill="#000000" fill-rule="nonzero" fill-opacity="1" /><path clip-path="url(#clip600)" d="M142.095 594.309 Q137.581 594.309 135.295 598.765 Q133.038 603.192 133.038 612.104 Q133.038 620.988 135.295 625.444 Q137.581 629.871 142.095 629.871 Q146.638 629.871 148.895 625.444 Q151.18 620.988 151.18 612.104 Q151.18 603.192 148.895 598.765 Q146.638 594.309 142.095 594.309 M142.095 589.68 Q149.358 589.68 153.177 595.438 Q157.025 601.167 157.025 612.104 Q157.025 623.013 153.177 628.771 Q149.358 634.5 142.095 634.5 Q134.832 634.5 130.984 628.771 Q127.164 623.013 127.164 612.104 Q127.164 601.167 130.984 595.438 Q134.832 589.68 142.095 589.68 Z" fill="#000000" fill-rule="nonzero" fill-opacity="1" /><path clip-path="url(#clip600)" d="M167.297 626.312 L173.403 626.312 L173.403 633.661 L167.297 633.661 L167.297 626.312 Z" fill="#000000" fill-rule="nonzero" fill-opacity="1" /><path clip-path="url(#clip600)" d="M184.658 590.461 L212.436 590.461 L212.436 592.949 L196.753 633.661 L190.648 633.661 L205.405 595.38 L184.658 595.38 L184.658 590.461 Z" fill="#000000" fill-rule="nonzero" fill-opacity="1" /><path clip-path="url(#clip600)" d="M223.894 590.461 L246.84 590.461 L246.84 595.38 L229.247 595.38 L229.247 605.97 Q230.52 605.536 231.793 605.334 Q233.067 605.102 234.34 605.102 Q241.573 605.102 245.798 609.066 Q250.023 613.03 250.023 619.801 Q250.023 626.775 245.682 630.652 Q241.342 634.5 233.443 634.5 Q230.723 634.5 227.887 634.037 Q225.081 633.574 222.071 632.648 L222.071 626.775 Q224.675 628.192 227.453 628.887 Q230.231 629.581 233.327 629.581 Q238.333 629.581 241.255 626.948 Q244.178 624.315 244.178 619.801 Q244.178 615.287 241.255 612.654 Q238.333 610.021 233.327 610.021 Q230.983 610.021 228.64 610.542 Q226.325 611.063 223.894 612.162 L223.894 590.461 Z" fill="#000000" fill-rule="nonzero" fill-opacity="1" /><path clip-path="url(#clip600)" d="M129.363 124.441 L138.912 124.441 L138.912 91.4842 L128.524 93.5676 L128.524 88.2435 L138.854 86.1602 L144.699 86.1602 L144.699 124.441 L154.248 124.441 L154.248 129.36 L129.363 129.36 L129.363 124.441 Z" fill="#000000" fill-rule="nonzero" fill-opacity="1" /><path clip-path="url(#clip600)" d="M166.053 122.011 L172.158 122.011 L172.158 129.36 L166.053 129.36 L166.053 122.011 Z" fill="#000000" fill-rule="nonzero" fill-opacity="1" /><path clip-path="url(#clip600)" d="M197.39 90.0086 Q192.876 90.0086 190.59 94.4646 Q188.333 98.8916 188.333 107.804 Q188.333 116.687 190.59 121.143 Q192.876 125.57 197.39 125.57 Q201.932 125.57 204.189 121.143 Q206.475 116.687 206.475 107.804 Q206.475 98.8916 204.189 94.4646 Q201.932 90.0086 197.39 90.0086 M197.39 85.379 Q204.652 85.379 208.472 91.137 Q212.32 96.8662 212.32 107.804 Q212.32 118.712 208.472 124.47 Q204.652 130.199 197.39 130.199 Q190.127 130.199 186.279 124.47 Q182.459 118.712 182.459 107.804 Q182.459 96.8662 186.279 91.137 Q190.127 85.379 197.39 85.379 Z" fill="#000000" fill-rule="nonzero" fill-opacity="1" /><path clip-path="url(#clip600)" d="M235.092 90.0086 Q230.578 90.0086 228.292 94.4646 Q226.035 98.8916 226.035 107.804 Q226.035 116.687 228.292 121.143 Q230.578 125.57 235.092 125.57 Q239.635 125.57 241.892 121.143 Q244.178 116.687 244.178 107.804 Q244.178 98.8916 241.892 94.4646 Q239.635 90.0086 235.092 90.0086 M235.092 85.379 Q242.355 85.379 246.174 91.137 Q250.023 96.8662 250.023 107.804 Q250.023 118.712 246.174 124.47 Q242.355 130.199 235.092 130.199 Q227.829 130.199 223.981 124.47 Q220.162 118.712 220.162 107.804 Q220.162 96.8662 223.981 91.137 Q227.829 85.379 235.092 85.379 Z" fill="#000000" fill-rule="nonzero" fill-opacity="1" /><path clip-path="url(#clip600)" d="M4.91216 1457.53 L4.91216 1410.03 L11.3068 1410.03 L11.3068 1429.96 L61.0722 1429.96 L61.0722 1437.6 L11.3068 1437.6 L11.3068 1457.53 L4.91216 1457.53 Z" fill="#000000" fill-rule="nonzero" fill-opacity="1" /><path clip-path="url(#clip600)" d="M25.4126 1389.9 Q24.7355 1391.07 24.4346 1392.46 Q24.0961 1393.81 24.0961 1395.47 Q24.0961 1401.34 27.9329 1404.5 Q31.732 1407.62 38.879 1407.62 L61.0722 1407.62 L61.0722 1414.58 L18.9428 1414.58 L18.9428 1407.62 L25.4879 1407.62 Q21.6511 1405.44 19.8079 1401.94 Q17.9271 1398.44 17.9271 1393.44 Q17.9271 1392.72 18.04 1391.86 Q18.1152 1390.99 18.3033 1389.94 L25.4126 1389.9 Z" fill="#000000" fill-rule="nonzero" fill-opacity="1" /><path clip-path="url(#clip600)" d="M44.4461 1383.36 L18.9428 1383.36 L18.9428 1376.44 L44.1828 1376.44 Q50.1637 1376.44 53.1729 1374.1 Q56.1445 1371.77 56.1445 1367.11 Q56.1445 1361.5 52.571 1358.27 Q48.9976 1354.99 42.8286 1354.99 L18.9428 1354.99 L18.9428 1348.07 L61.0722 1348.07 L61.0722 1354.99 L54.6023 1354.99 Q58.4391 1357.52 60.3198 1360.86 Q62.163 1364.17 62.163 1368.57 Q62.163 1375.83 57.6491 1379.6 Q53.1353 1383.36 44.4461 1383.36 M17.9271 1365.94 L17.9271 1365.94 Z" fill="#000000" fill-rule="nonzero" fill-opacity="1" /><path clip-path="url(#clip600)" d="M38.2771 1297.78 L41.6625 1297.78 L41.6625 1329.6 Q48.8095 1329.15 52.571 1325.32 Q56.295 1321.44 56.295 1314.56 Q56.295 1310.57 55.317 1306.85 Q54.339 1303.09 52.383 1299.4 L58.9281 1299.4 Q60.5079 1303.12 61.3355 1307.04 Q62.163 1310.95 62.163 1314.97 Q62.163 1325.05 56.295 1330.96 Q50.427 1336.83 40.4212 1336.83 Q30.077 1336.83 24.0209 1331.26 Q17.9271 1325.65 17.9271 1316.18 Q17.9271 1307.67 23.419 1302.75 Q28.8733 1297.78 38.2771 1297.78 M36.2459 1304.7 Q30.566 1304.78 27.1806 1307.9 Q23.7952 1310.98 23.7952 1316.1 Q23.7952 1321.89 27.0677 1325.39 Q30.3403 1328.85 36.2835 1329.38 L36.2459 1304.7 Z" fill="#000000" fill-rule="nonzero" fill-opacity="1" /><path clip-path="url(#clip600)" d="M11.1563 1254.03 L32.2587 1254.03 L32.2587 1244.48 Q32.2587 1239.18 29.5127 1236.28 Q26.7668 1233.38 21.6887 1233.38 Q16.6482 1233.38 13.9023 1236.28 Q11.1563 1239.18 11.1563 1244.48 L11.1563 1254.03 M4.91216 1261.63 L4.91216 1244.48 Q4.91216 1235.04 9.20033 1230.22 Q13.4509 1225.37 21.6887 1225.37 Q30.0017 1225.37 34.2523 1230.22 Q38.5028 1235.04 38.5028 1244.48 L38.5028 1254.03 L61.0722 1254.03 L61.0722 1261.63 L4.91216 1261.63 Z" fill="#000000" fill-rule="nonzero" fill-opacity="1" /><path clip-path="url(#clip600)" d="M23.7952 1201.9 Q23.7952 1207.47 28.1586 1210.7 Q32.4843 1213.94 40.0451 1213.94 Q47.6058 1213.94 51.9692 1210.74 Q56.295 1207.5 56.295 1201.9 Q56.295 1196.37 51.9316 1193.14 Q47.5682 1189.9 40.0451 1189.9 Q32.5596 1189.9 28.1962 1193.14 Q23.7952 1196.37 23.7952 1201.9 M17.9271 1201.9 Q17.9271 1192.87 23.7952 1187.72 Q29.6632 1182.57 40.0451 1182.57 Q50.3893 1182.57 56.295 1187.72 Q62.163 1192.87 62.163 1201.9 Q62.163 1210.97 56.295 1216.12 Q50.3893 1221.23 40.0451 1221.23 Q29.6632 1221.23 23.7952 1216.12 Q17.9271 1210.97 17.9271 1201.9 Z" fill="#000000" fill-rule="nonzero" fill-opacity="1" /><path clip-path="url(#clip600)" d="M20.1841 1144.24 L26.7292 1144.24 Q25.2245 1147.17 24.4722 1150.33 Q23.7199 1153.49 23.7199 1156.87 Q23.7199 1162.03 25.2998 1164.62 Q26.8796 1167.18 30.0393 1167.18 Q32.4467 1167.18 33.8385 1165.34 Q35.1927 1163.49 36.434 1157.93 L36.9606 1155.56 Q38.5404 1148.18 41.4368 1145.1 Q44.2956 1141.98 49.449 1141.98 Q55.317 1141.98 58.74 1146.64 Q62.163 1151.27 62.163 1159.39 Q62.163 1162.78 61.4859 1166.47 Q60.8465 1170.11 59.5299 1174.18 L52.383 1174.18 Q54.3766 1170.34 55.3922 1166.62 Q56.3702 1162.89 56.3702 1159.24 Q56.3702 1154.35 54.7151 1151.72 Q53.0224 1149.09 49.9756 1149.09 Q47.1544 1149.09 45.6498 1151.01 Q44.1452 1152.89 42.7534 1159.32 L42.1892 1161.73 Q40.835 1168.16 38.0514 1171.02 Q35.2303 1173.88 30.3403 1173.88 Q24.397 1173.88 21.1621 1169.66 Q17.9271 1165.45 17.9271 1157.7 Q17.9271 1153.86 18.4914 1150.48 Q19.0556 1147.09 20.1841 1144.24 Z" fill="#000000" fill-rule="nonzero" fill-opacity="1" /><path clip-path="url(#clip600)" d="M18.9428 1130.96 L18.9428 1124.04 L61.0722 1124.04 L61.0722 1130.96 L18.9428 1130.96 M2.54238 1130.96 L2.54238 1124.04 L11.3068 1124.04 L11.3068 1130.96 L2.54238 1130.96 Z" fill="#000000" fill-rule="nonzero" fill-opacity="1" /><path clip-path="url(#clip600)" d="M6.98101 1102.71 L18.9428 1102.71 L18.9428 1088.45 L24.3218 1088.45 L24.3218 1102.71 L47.192 1102.71 Q52.3454 1102.71 53.8124 1101.32 Q55.2794 1099.89 55.2794 1095.56 L55.2794 1088.45 L61.0722 1088.45 L61.0722 1095.56 Q61.0722 1103.57 58.1005 1106.62 Q55.0913 1109.67 47.192 1109.67 L24.3218 1109.67 L24.3218 1114.74 L18.9428 1114.74 L18.9428 1109.67 L6.98101 1109.67 L6.98101 1102.71 Z" fill="#000000" fill-rule="nonzero" fill-opacity="1" /><path clip-path="url(#clip600)" d="M18.9428 1079.35 L18.9428 1072.43 L61.0722 1072.43 L61.0722 1079.35 L18.9428 1079.35 M2.54238 1079.35 L2.54238 1072.43 L11.3068 1072.43 L11.3068 1079.35 L2.54238 1079.35 Z" fill="#000000" fill-rule="nonzero" fill-opacity="1" /><path clip-path="url(#clip600)" d="M18.9428 1062.91 L18.9428 1055.58 L54.3014 1042.41 L18.9428 1029.24 L18.9428 1021.91 L61.0722 1037.71 L61.0722 1047.11 L18.9428 1062.91 Z" fill="#000000" fill-rule="nonzero" fill-opacity="1" /><path clip-path="url(#clip600)" d="M38.2771 976.319 L41.6625 976.319 L41.6625 1008.14 Q48.8095 1007.69 52.571 1003.85 Q56.295 999.979 56.295 993.096 Q56.295 989.109 55.317 985.385 Q54.339 981.623 52.383 977.937 L58.9281 977.937 Q60.5079 981.661 61.3355 985.573 Q62.163 989.485 62.163 993.51 Q62.163 1003.59 56.295 1009.5 Q50.427 1015.36 40.4212 1015.36 Q30.077 1015.36 24.0209 1009.8 Q17.9271 1004.19 17.9271 994.713 Q17.9271 986.212 23.419 981.285 Q28.8733 976.319 38.2771 976.319 M36.2459 983.241 Q30.566 983.316 27.1806 986.438 Q23.7952 989.522 23.7952 994.638 Q23.7952 1000.43 27.0677 1003.93 Q30.3403 1007.39 36.2835 1007.92 L36.2459 983.241 Z" fill="#000000" fill-rule="nonzero" fill-opacity="1" /><path clip-path="url(#clip600)" d="M34.7413 913.539 Q35.5688 911.094 38.2771 908.799 Q40.9855 906.467 45.725 904.135 L61.0722 896.424 L61.0722 904.586 L46.6654 911.771 Q41.0231 914.555 39.1799 917.188 Q37.3368 919.783 37.3368 924.297 L37.3368 932.572 L61.0722 932.572 L61.0722 940.171 L4.91216 940.171 L4.91216 923.018 Q4.91216 913.389 8.93702 908.649 Q12.9619 903.909 21.0868 903.909 Q26.3906 903.909 29.8889 906.392 Q33.3871 908.837 34.7413 913.539 M11.1563 932.572 L31.0926 932.572 L31.0926 923.018 Q31.0926 917.526 28.5723 914.743 Q26.0145 911.922 21.0868 911.922 Q16.1592 911.922 13.6766 914.743 Q11.1563 917.526 11.1563 923.018 L11.1563 932.572 Z" fill="#000000" fill-rule="nonzero" fill-opacity="1" /><path clip-path="url(#clip600)" d="M39.8946 869.491 Q39.8946 877.879 41.813 881.114 Q43.7314 884.349 48.3581 884.349 Q52.0444 884.349 54.2261 881.942 Q56.3702 879.497 56.3702 875.322 Q56.3702 869.566 52.3077 866.106 Q48.2076 862.608 41.4368 862.608 L39.8946 862.608 L39.8946 869.491 M37.0358 855.686 L61.0722 855.686 L61.0722 862.608 L54.6775 862.608 Q58.5143 864.977 60.3575 868.513 Q62.163 872.049 62.163 877.165 Q62.163 883.635 58.5519 887.471 Q54.9032 891.271 48.8095 891.271 Q41.7002 891.271 38.0891 886.531 Q34.478 881.754 34.478 872.312 L34.478 862.608 L33.8009 862.608 Q29.0237 862.608 26.4282 865.767 Q23.7952 868.889 23.7952 874.569 Q23.7952 878.18 24.6603 881.603 Q25.5255 885.026 27.2558 888.186 L20.8611 888.186 Q19.3941 884.387 18.6794 880.813 Q17.9271 877.24 17.9271 873.855 Q17.9271 864.714 22.6667 860.2 Q27.4062 855.686 37.0358 855.686 Z" fill="#000000" fill-rule="nonzero" fill-opacity="1" /><path clip-path="url(#clip600)" d="M6.98101 834.584 L18.9428 834.584 L18.9428 820.328 L24.3218 820.328 L24.3218 834.584 L47.192 834.584 Q52.3454 834.584 53.8124 833.192 Q55.2794 831.763 55.2794 827.437 L55.2794 820.328 L61.0722 820.328 L61.0722 827.437 Q61.0722 835.449 58.1005 838.496 Q55.0913 841.543 47.192 841.543 L24.3218 841.543 L24.3218 846.621 L18.9428 846.621 L18.9428 841.543 L6.98101 841.543 L6.98101 834.584 Z" fill="#000000" fill-rule="nonzero" fill-opacity="1" /><path clip-path="url(#clip600)" d="M38.2771 775.189 L41.6625 775.189 L41.6625 807.012 Q48.8095 806.56 52.571 802.724 Q56.295 798.849 56.295 791.966 Q56.295 787.978 55.317 784.254 Q54.339 780.493 52.383 776.806 L58.9281 776.806 Q60.5079 780.53 61.3355 784.442 Q62.163 788.354 62.163 792.379 Q62.163 802.46 56.295 808.366 Q50.427 814.234 40.4212 814.234 Q30.077 814.234 24.0209 808.667 Q17.9271 803.062 17.9271 793.583 Q17.9271 785.082 23.419 780.154 Q28.8733 775.189 38.2771 775.189 M36.2459 782.11 Q30.566 782.186 27.1806 785.308 Q23.7952 788.392 23.7952 793.508 Q23.7952 799.301 27.0677 802.799 Q30.3403 806.259 36.2835 806.786 L36.2459 782.11 Z" fill="#000000" fill-rule="nonzero" fill-opacity="1" /><polyline clip-path="url(#clip602)" style="stroke:#009af9; stroke-linecap:round; stroke-linejoin:round; stroke-width:8; stroke-opacity:1; fill:none" points="378.817,2124.96 381.679,2124.96 384.541,2124.96 387.403,2124.96 390.265,2124.96 393.127,2124.96 395.989,2124.96 398.851,2124.96 401.713,2124.96 404.575,2124.96 404.575,2090.77 404.575,2056.58 404.575,2022.39 404.575,1988.2 407.437,1988.2 407.437,1954.01 410.299,1954.01 413.161,1954.01 413.161,1919.82 416.023,1919.82 416.023,1885.63 418.885,1885.63 418.885,1851.44 418.885,1817.25 421.747,1817.25 421.747,1783.06 424.609,1783.06 427.471,1783.06 430.333,1783.06 430.333,1748.87 433.195,1748.87 436.057,1748.87 438.919,1748.87 441.781,1748.87 444.643,1748.87 447.505,1748.87 450.367,1748.87 453.229,1748.87 453.229,1714.69 453.229,1680.5 456.091,1680.5 458.953,1680.5 461.815,1680.5 464.677,1680.5 464.677,1646.31 467.539,1646.31 470.401,1646.31 473.263,1646.31 476.125,1646.31 478.987,1646.31 481.849,1646.31 484.711,1646.31 487.573,1646.31 490.435,1646.31 493.297,1646.31 496.159,1646.31 499.021,1646.31 501.883,1646.31 504.745,1646.31 504.745,1612.12 507.607,1612.12 510.469,1612.12 513.331,1612.12 516.193,1612.12 519.055,1612.12 521.917,1612.12 524.779,1612.12 527.641,1612.12 530.503,1612.12 533.365,1612.12 536.227,1612.12 539.089,1612.12 541.951,1612.12 541.951,1577.93 544.813,1577.93 544.813,1543.74 544.813,1509.55 547.675,1509.55 550.537,1509.55 553.399,1509.55 556.261,1509.55 559.123,1509.55 561.985,1509.55 564.847,1509.55 567.709,1509.55 570.571,1509.55 573.433,1509.55 573.433,1475.36 576.295,1475.36 579.157,1475.36 582.019,1475.36 584.881,1475.36 587.743,1475.36 587.743,1441.17 590.605,1441.17 593.467,1441.17 596.329,1441.17 599.191,1441.17 602.053,1441.17 604.915,1441.17 607.777,1441.17 610.639,1441.17 613.501,1441.17 616.363,1441.17 619.225,1441.17 622.087,1441.17 624.949,1441.17 627.811,1441.17 627.811,1406.98 630.673,1406.98 633.535,1406.98 636.397,1406.98 639.259,1406.98 639.259,1372.79 642.121,1372.79 644.983,1372.79 647.845,1372.79 650.707,1372.79 653.569,1372.79 656.431,1372.79 659.293,1372.79 662.155,1372.79 665.017,1372.79 667.879,1372.79 670.741,1372.79 673.603,1372.79 676.465,1372.79 679.327,1372.79 682.189,1372.79 685.051,1372.79 687.913,1372.79 690.775,1372.79 693.637,1372.79 696.499,1372.79 699.361,1372.79 702.223,1372.79 705.085,1372.79 707.947,1372.79 710.809,1372.79 713.671,1372.79 716.533,1372.79 716.533,1338.6 719.395,1338.6 722.257,1338.6 725.119,1338.6 727.981,1338.6 730.843,1338.6 733.705,1338.6 736.567,1338.6 739.429,1338.6 742.291,1338.6 745.153,1338.6 748.015,1338.6 750.877,1338.6 753.739,1338.6 753.739,1304.41 756.601,1304.41 759.463,1304.41 762.325,1304.41 765.187,1304.41 768.049,1304.41 770.911,1304.41 773.773,1304.41 776.635,1304.41 779.497,1304.41 782.359,1304.41 785.221,1304.41 788.083,1304.41 790.945,1304.41 793.807,1304.41 796.669,1304.41 799.531,1304.41 802.393,1304.41 805.255,1304.41 808.117,1304.41 810.979,1304.41 813.841,1304.41 816.703,1304.41 819.565,1304.41 822.427,1304.41 828.151,1304.41 831.013,1304.41 833.875,1304.41 836.737,1304.41 839.599,1304.41 842.461,1304.41 845.323,1304.41 848.185,1304.41 851.047,1304.41 853.909,1304.41 856.771,1304.41 859.633,1304.41 862.495,1304.41 865.357,1304.41 868.219,1304.41 871.081,1304.41 873.943,1304.41 876.805,1304.41 879.667,1304.41 882.529,1304.41 885.391,1304.41 888.253,1304.41 891.115,1304.41 893.977,1304.41 896.839,1304.41 899.701,1304.41 902.563,1304.41 905.425,1304.41 908.287,1304.41 911.149,1304.41 916.873,1304.41 919.735,1304.41 922.597,1304.41 925.459,1304.41 928.321,1304.41 931.183,1304.41 934.045,1304.41 934.045,1270.22 936.907,1270.22 939.769,1270.22 942.631,1270.22 942.631,1236.03 945.493,1236.03 948.355,1236.03 948.355,1201.84 951.217,1201.84 954.079,1201.84 956.941,1201.84 959.803,1201.84 962.665,1201.84 965.527,1201.84 968.389,1201.84 971.251,1201.84 971.251,1167.65 974.113,1167.65 976.975,1167.65 976.975,1133.46 979.837,1133.46 982.699,1133.46 982.699,1099.27 985.561,1099.27 988.423,1099.27 991.285,1099.27 994.147,1099.27 997.009,1099.27 999.871,1099.27 999.871,1065.08 999.871,1030.89 1002.73,1030.89 1005.6,1030.89 1008.46,1030.89 1008.46,996.697 1011.32,996.697 1011.32,962.507 1014.18,962.507 1017.04,962.507 1019.91,962.507 1022.77,962.507 1025.63,962.507 1025.63,928.318 1028.49,928.318 1031.35,928.318 1034.22,928.318 1037.08,928.318 1039.94,928.318 1039.94,894.128 1042.8,894.128 1045.66,894.128 1048.53,894.128 1051.39,894.128 1057.11,894.128 1059.97,894.128 1062.84,894.128 1065.7,894.128 1068.56,894.128 1071.42,894.128 1074.28,894.128 1077.15,894.128 1080.01,894.128 1080.01,859.938 1082.87,859.938 1085.73,859.938 1088.59,859.938 1091.46,859.938 1091.46,825.748 1094.32,825.748 1097.18,825.748 1100.04,825.748 1102.9,825.748 1105.77,825.748 1108.63,825.748 1111.49,825.748 1114.35,825.748 1117.21,825.748 1120.08,825.748 1122.94,825.748 1125.8,825.748 1125.8,791.558 1128.66,791.558 1131.52,791.558 1134.39,791.558 1137.25,791.558 1140.11,791.558 1142.97,791.558 1145.83,791.558 1148.7,791.558 1151.56,791.558 1154.42,791.558 1157.28,791.558 1160.14,791.558 1163.01,791.558 1165.87,791.558 1168.73,791.558 1171.59,791.558 1174.45,791.558 1177.32,791.558 1180.18,791.558 1183.04,791.558 1185.9,791.558 1188.76,791.558 1191.63,791.558 1194.49,791.558 1197.35,791.558 1200.21,791.558 1203.07,791.558 1205.94,791.558 1208.8,791.558 1211.66,791.558 1214.52,791.558 1217.38,791.558 1220.25,791.558 1223.11,791.558 1225.97,791.558 1228.83,791.558 1231.69,791.558 1234.56,791.558 1237.42,791.558 1240.28,791.558 1243.14,791.558 1246,791.558 1248.87,791.558 1251.73,791.558 1251.73,757.368 1254.59,757.368 1257.45,757.368 1260.31,757.368 1260.31,723.178 1263.18,723.178 1266.04,723.178 1268.9,723.178 1271.76,723.178 1274.62,723.178 1277.49,723.178 1280.35,723.178 1283.21,723.178 1283.21,688.988 1286.07,688.988 1286.07,654.798 1288.93,654.798 1291.8,654.798 1294.66,654.798 1297.52,654.798 1300.38,654.798 1303.24,654.798 1306.11,654.798 1308.97,654.798 1311.83,654.798 1314.69,654.798 1317.55,654.798 1317.55,620.609 1320.42,620.609 1323.28,620.609 1326.14,620.609 1329,620.609 1331.86,620.609 1334.73,620.609 1337.59,620.609 1340.45,620.609 1343.31,620.609 1346.17,620.609 1349.04,620.609 1351.9,620.609 1354.76,620.609 1357.62,620.609 1360.48,620.609 1363.35,620.609 1366.21,620.609 1369.07,620.609 1371.93,620.609 1374.79,620.609 1377.66,620.609 1380.52,620.609 1383.38,620.609 1386.24,620.609 1389.1,620.609 1391.97,620.609 1391.97,586.419 1394.83,586.419 1397.69,586.419 1400.55,586.419 1403.41,586.419 1406.28,586.419 1409.14,586.419 1412,586.419 1414.86,586.419 1417.72,586.419 1420.59,586.419 1423.45,586.419 1426.31,586.419 1429.17,586.419 1432.03,586.419 1434.9,586.419 1437.76,586.419 1440.62,586.419 1443.48,586.419 1446.34,586.419 1449.21,586.419 1452.07,586.419 1454.93,586.419 1457.79,586.419 1460.65,586.419 1463.52,586.419 1466.38,586.419 1469.24,586.419 1472.1,586.419 1474.96,586.419 1477.83,586.419 1480.69,586.419 1483.55,586.419 1486.41,586.419 1489.27,586.419 1492.14,586.419 1495,586.419 1497.86,586.419 1500.72,586.419 1503.58,586.419 1506.45,586.419 1509.31,586.419 1512.17,586.419 1515.03,586.419 1520.76,586.419 1523.62,586.419 1526.48,586.419 1526.48,552.229 1529.34,552.229 1532.2,552.229 1535.07,552.229 1537.93,552.229 1540.79,552.229 1543.65,552.229 1546.51,552.229 1549.38,552.229 1552.24,552.229 1555.1,552.229 1557.96,552.229 1560.82,552.229 1563.69,552.229 1566.55,552.229 1569.41,552.229 1569.41,518.039 1569.41,483.849 1578,483.849 1580.86,483.849 1583.72,483.849 1586.58,483.849 1589.44,483.849 1592.31,483.849 1595.17,483.849 1598.03,483.849 1600.89,483.849 1603.75,483.849 1606.62,483.849 1609.48,483.849 1612.34,483.849 1615.2,483.849 1618.06,483.849 1620.93,483.849 1623.79,483.849 1626.65,483.849 1629.51,483.849 1632.37,483.849 1635.24,483.849 1638.1,483.849 1640.96,483.849 1643.82,483.849 1646.68,483.849 1649.55,483.849 1652.41,483.849 1655.27,483.849 1658.13,483.849 1660.99,483.849 1663.86,483.849 1666.72,483.849 1669.58,483.849 1672.44,483.849 1675.3,483.849 1678.17,483.849 1681.03,483.849 1683.89,483.849 1686.75,483.849 1689.61,483.849 1692.48,483.849 1695.34,483.849 1698.2,483.849 1701.06,483.849 1703.92,483.849 1706.79,483.849 1706.79,449.659 1709.65,449.659 1712.51,449.659 1715.37,449.659 1718.23,449.659 1721.1,449.659 1723.96,449.659 1726.82,449.659 1729.68,449.659 1732.54,449.659 1735.41,449.659 1738.27,449.659 1741.13,449.659 1743.99,449.659 1746.85,449.659 1749.72,449.659 1749.72,415.469 1752.58,415.469 1755.44,415.469 1758.3,415.469 1761.16,415.469 1764.03,415.469 1766.89,415.469 1769.75,415.469 1772.61,415.469 1775.47,415.469 1778.34,415.469 1781.2,415.469 1784.06,415.469 1786.92,415.469 1789.78,415.469 1792.65,415.469 1795.51,415.469 1798.37,415.469 1798.37,381.279 1801.23,381.279 1804.09,381.279 1806.96,381.279 1809.82,381.279 1812.68,381.279 1815.54,381.279 1818.4,381.279 1821.27,381.279 1824.13,381.279 1826.99,381.279 1829.85,381.279 1832.71,381.279 1835.58,381.279 1838.44,381.279 1841.3,381.279 1844.16,381.279 1847.02,381.279 1849.89,381.279 1852.75,381.279 1855.61,381.279 1858.47,381.279 1861.33,381.279 1864.2,381.279 1867.06,381.279 1869.92,381.279 1872.78,381.279 1875.64,381.279 1878.51,381.279 1881.37,381.279 1884.23,381.279 1887.09,381.279 1889.95,381.279 1892.82,381.279 1895.68,381.279 1898.54,381.279 1901.4,381.279 1904.26,381.279 1907.13,381.279 1909.99,381.279 1912.85,381.279 1915.71,381.279 1918.57,381.279 1921.44,381.279 1924.3,381.279 1927.16,381.279 1930.02,381.279 1932.88,381.279 1932.88,347.089 1935.75,347.089 1941.47,347.089 1944.33,347.089 1947.19,347.089 1950.06,347.089 1950.06,312.9 1952.92,312.9 1955.78,312.9 1958.64,312.9 1961.5,312.9 1964.37,312.9 1967.23,312.9 1970.09,312.9 1972.95,312.9 1975.81,312.9 1978.68,312.9 1981.54,312.9 1984.4,312.9 1987.26,312.9 1990.12,312.9 1992.99,312.9 1995.85,312.9 1998.71,312.9 2001.57,312.9 2004.43,312.9 2007.3,312.9 2010.16,312.9 2013.02,312.9 2013.02,278.71 2015.88,278.71 2018.74,278.71 2021.61,278.71 2024.47,278.71 2027.33,278.71 2030.19,278.71 2033.05,278.71 2035.92,278.71 2038.78,278.71 2041.64,278.71 2044.5,278.71 2047.36,278.71 2050.23,278.71 2053.09,278.71 2055.95,278.71 2058.81,278.71 2061.67,278.71 2064.54,278.71 2067.4,278.71 2070.26,278.71 2073.12,278.71 2075.98,278.71 2078.85,278.71 2081.71,278.71 2084.57,278.71 2087.43,278.71 2090.29,278.71 2093.16,278.71 2096.02,278.71 2098.88,278.71 2101.74,278.71 2104.6,278.71 2107.47,278.71 2110.33,278.71 2113.19,278.71 2116.05,278.71 2118.91,278.71 2121.78,278.71 2124.64,278.71 2127.5,278.71 2130.36,278.71 2133.22,278.71 2136.09,278.71 2138.95,278.71 2141.81,278.71 2144.67,278.71 2147.53,278.71 2150.4,278.71 2153.26,278.71 2156.12,278.71 2158.98,278.71 2161.84,278.71 2164.71,278.71 2167.57,278.71 2170.43,278.71 2173.29,278.71 2176.15,278.71 2179.02,278.71 2181.88,278.71 2184.74,278.71 2187.6,278.71 2190.46,278.71 2193.33,278.71 2196.19,278.71 2199.05,278.71 2201.91,278.71 2204.77,278.71 2207.64,278.71 2210.5,278.71 2213.36,278.71 2219.08,278.71 2221.95,278.71 2224.81,278.71 2227.67,278.71 2230.53,278.71 2233.39,278.71 2236.26,278.71 2239.12,278.71 2241.98,278.71 2244.84,278.71 2247.7,278.71 2250.57,278.71 2253.43,278.71 2256.29,278.71 2259.15,278.71 2262.01,278.71 2264.88,278.71 2267.74,278.71 2270.6,278.71 2273.46,278.71 2276.32,278.71 2279.19,278.71 2282.05,278.71 2284.91,278.71 2287.77,278.71 2290.63,278.71 2293.5,278.71 2296.36,278.71 2299.22,278.71 2302.08,278.71 2304.94,278.71 2307.81,278.71 2310.67,278.71 2313.53,278.71 2316.39,278.71 2319.25,278.71 2322.12,278.71 2324.98,278.71 2327.84,278.71 2330.7,278.71 2333.56,278.71 2336.43,278.71 2339.29,278.71 2342.15,278.71 2345.01,278.71 2347.87,278.71 2350.74,278.71 2353.6,278.71 2356.46,278.71 2359.32,278.71 2362.18,278.71 2365.05,278.71 2367.91,278.71 2370.77,278.71 2373.63,278.71 2376.49,278.71 2379.36,278.71 2382.22,278.71 2385.08,278.71 2387.94,278.71 2390.8,278.71 2393.67,278.71 2396.53,278.71 2399.39,278.71 2399.39,244.52 2402.25,244.52 2405.11,244.52 2407.98,244.52 2410.84,244.52 2413.7,244.52 2416.56,244.52 2419.42,244.52 2422.29,244.52 2425.15,244.52 2428.01,244.52 2430.87,244.52 2433.73,244.52 2436.6,244.52 2439.46,244.52 2445.18,244.52 2448.04,244.52 2453.77,244.52 2456.63,244.52 2459.49,244.52 2462.35,244.52 2465.22,244.52 2468.08,244.52 2470.94,244.52 2473.8,244.52 2476.66,244.52 2479.53,244.52 2482.39,244.52 2485.25,244.52 2488.11,244.52 2490.97,244.52 2493.84,244.52 2496.7,244.52 2499.56,244.52 2502.42,244.52 2502.42,210.33 2505.28,210.33 2508.15,210.33 2511.01,210.33 2513.87,210.33 2516.73,210.33 2519.6,210.33 2522.46,176.14 2525.32,176.14 2528.18,176.14 2531.04,176.14 2533.91,176.14 2536.77,176.14 2539.63,176.14 2542.49,176.14 2545.35,176.14 2548.22,176.14 2551.08,176.14 2553.94,176.14 2556.8,176.14 2559.66,176.14 2562.53,176.14 2565.39,176.14 2568.25,176.14 2571.11,176.14 2573.97,176.14 2576.84,176.14 2579.7,176.14 2582.56,176.14 2585.42,176.14 2588.28,176.14 2591.15,176.14 2594.01,176.14 2596.87,176.14 2599.73,176.14 2602.59,176.14 2605.46,176.14 2608.32,176.14 2611.18,176.14 2614.04,176.14 2616.9,176.14 2619.77,176.14 2622.63,176.14 2625.49,176.14 2628.35,176.14 2631.21,176.14 2634.08,176.14 2636.94,176.14 2639.8,176.14 2642.66,176.14 2645.52,176.14 2651.25,176.14 2654.11,176.14 2656.97,176.14 2659.83,176.14 2662.7,176.14 2665.56,176.14 2668.42,176.14 2671.28,176.14 2674.14,176.14 2677.01,176.14 2679.87,176.14 2682.73,176.14 2685.59,176.14 2688.45,176.14 2691.32,176.14 2694.18,176.14 2697.04,176.14 2699.9,176.14 2702.76,176.14 2705.63,176.14 2708.49,176.14 2711.35,176.14 2714.21,176.14 2717.07,176.14 2719.94,176.14 2722.8,176.14 2725.66,176.14 2728.52,176.14 2731.38,176.14 2734.25,176.14 2737.11,176.14 2739.97,176.14 2742.83,176.14 2745.69,176.14 2748.56,176.14 2754.28,176.14 2757.14,176.14 2760,176.14 2762.87,176.14 2765.73,176.14 2768.59,176.14 2771.45,176.14 2774.31,176.14 2774.31,141.95 2777.18,141.95 2780.04,141.95 2782.9,141.95 2788.62,141.95 2791.49,141.95 2794.35,141.95 2797.21,141.95 2800.07,141.95 2802.93,141.95 2805.8,141.95 2808.66,141.95 2811.52,141.95 2814.38,141.95 2817.24,141.95 2820.11,141.95 2822.97,141.95 2825.83,141.95 2828.69,141.95 2831.55,141.95 2837.28,141.95 2840.14,141.95 2843,141.95 2845.86,141.95 2848.73,141.95 2851.59,141.95 2854.45,141.95 2857.31,141.95 2860.17,141.95 2863.04,141.95 2865.9,141.95 2868.76,141.95 2871.62,141.95 2874.48,141.95 2877.35,141.95 2880.21,141.95 2883.07,141.95 2885.93,141.95 2888.79,141.95 2891.66,141.95 2894.52,141.95 2897.38,141.95 2900.24,141.95 2903.1,141.95 2905.97,141.95 2908.83,141.95 2911.69,141.95 2914.55,141.95 2917.41,141.95 2920.28,141.95 2923.14,141.95 2926,141.95 2928.86,141.95 2931.72,141.95 2934.59,141.95 2937.45,141.95 2940.31,141.95 2943.17,141.95 2946.03,141.95 2948.9,141.95 2951.76,141.95 2951.76,107.76 2954.62,107.76 2957.48,107.76 2960.34,107.76 2963.21,107.76 2966.07,107.76 2968.93,107.76 2971.79,107.76 2974.65,107.76 2977.52,107.76 2980.38,107.76 2983.24,107.76 2986.1,107.76 2988.96,107.76 2991.83,107.76 2994.69,107.76 2997.55,107.76 3000.41,107.76 3003.27,107.76 3006.14,107.76 3009,107.76 3011.86,107.76 3014.72,107.76 3017.58,107.76 3020.45,107.76 3023.31,107.76 3026.17,107.76 3029.03,107.76 3031.89,107.76 3034.76,107.76 3037.62,107.76 3040.48,107.76 3043.34,107.76 3046.2,107.76 3049.07,107.76 3051.93,107.76 3054.79,107.76 3057.65,107.76 3060.51,107.76 3063.38,107.76 3066.24,107.76 3069.1,107.76 3071.96,107.76 "/>
<path clip-path="url(#clip600)" d="M393.18 248.119 L744.191 248.119 L744.191 118.519 L393.18 118.519  Z" fill="#ffffff" fill-rule="evenodd" fill-opacity="1"/>
<polyline clip-path="url(#clip600)" style="stroke:#000000; stroke-linecap:round; stroke-linejoin:round; stroke-width:4; stroke-opacity:1; fill:none" points="393.18,248.119 744.191,248.119 744.191,118.519 393.18,118.519 393.18,248.119 "/>
<polyline clip-path="url(#clip600)" style="stroke:#009af9; stroke-linecap:round; stroke-linejoin:round; stroke-width:10; stroke-opacity:1; fill:none" points="424.9,183.319 615.215,183.319 "/>
<path clip-path="url(#clip600)" d="M664.238 207.928 Q661.981 213.715 659.839 215.48 Q657.698 217.245 654.11 217.245 L649.857 217.245 L649.857 212.789 L652.982 212.789 Q655.181 212.789 656.396 211.747 Q657.611 210.706 659.087 206.828 L660.042 204.398 L646.934 172.511 L652.577 172.511 L662.704 197.858 L672.831 172.511 L678.474 172.511 L664.238 207.928 Z" fill="#000000" fill-rule="nonzero" fill-opacity="1" /><path clip-path="url(#clip600)" d="M687.588 200 L697.137 200 L697.137 167.043 L686.749 169.126 L686.749 163.802 L697.079 161.719 L702.924 161.719 L702.924 200 L712.472 200 L712.472 204.919 L687.588 204.919 L687.588 200 Z" fill="#000000" fill-rule="nonzero" fill-opacity="1" /></svg>
