<?xml version="1.0" encoding="utf-8"?>
<svg xmlns="http://www.w3.org/2000/svg" xmlns:xlink="http://www.w3.org/1999/xlink" width="800" height="600" viewBox="0 0 3200 2400">
<defs>
  <clipPath id="clip320">
    <rect x="0" y="0" width="3200" height="2400"/>
  </clipPath>
</defs>
<path clip-path="url(#clip320)" d="M0 2400 L3200 2400 L3200 0 L0 0  Z" fill="#ffffff" fill-rule="evenodd" fill-opacity="1"/>
<defs>
  <clipPath id="clip321">
    <rect x="640" y="0" width="2241" height="2241"/>
  </clipPath>
</defs>
<path clip-path="url(#clip320)" d="M259.886 2185.48 L3152.76 2185.48 L3152.76 47.2441 L259.886 47.2441  Z" fill="#ffffff" fill-rule="evenodd" fill-opacity="1"/>
<defs>
  <clipPath id="clip322">
    <rect x="259" y="47" width="2894" height="2139"/>
  </clipPath>
</defs>
<polyline clip-path="url(#clip322)" style="stroke:#000000; stroke-linecap:round; stroke-linejoin:round; stroke-width:2; stroke-opacity:0.1; fill:none" points="339.575,2185.48 339.575,47.2441 "/>
<polyline clip-path="url(#clip322)" style="stroke:#000000; stroke-linecap:round; stroke-linejoin:round; stroke-width:2; stroke-opacity:0.1; fill:none" points="776.584,2185.48 776.584,47.2441 "/>
<polyline clip-path="url(#clip322)" style="stroke:#000000; stroke-linecap:round; stroke-linejoin:round; stroke-width:2; stroke-opacity:0.1; fill:none" points="1213.59,2185.48 1213.59,47.2441 "/>
<polyline clip-path="url(#clip322)" style="stroke:#000000; stroke-linecap:round; stroke-linejoin:round; stroke-width:2; stroke-opacity:0.1; fill:none" points="1650.6,2185.48 1650.6,47.2441 "/>
<polyline clip-path="url(#clip322)" style="stroke:#000000; stroke-linecap:round; stroke-linejoin:round; stroke-width:2; stroke-opacity:0.1; fill:none" points="2087.61,2185.48 2087.61,47.2441 "/>
<polyline clip-path="url(#clip322)" style="stroke:#000000; stroke-linecap:round; stroke-linejoin:round; stroke-width:2; stroke-opacity:0.1; fill:none" points="2524.62,2185.48 2524.62,47.2441 "/>
<polyline clip-path="url(#clip322)" style="stroke:#000000; stroke-linecap:round; stroke-linejoin:round; stroke-width:2; stroke-opacity:0.1; fill:none" points="2961.63,2185.48 2961.63,47.2441 "/>
<polyline clip-path="url(#clip320)" style="stroke:#000000; stroke-linecap:round; stroke-linejoin:round; stroke-width:4; stroke-opacity:1; fill:none" points="259.886,2185.48 3152.76,2185.48 "/>
<polyline clip-path="url(#clip320)" style="stroke:#000000; stroke-linecap:round; stroke-linejoin:round; stroke-width:4; stroke-opacity:1; fill:none" points="339.575,2185.48 339.575,2166.58 "/>
<polyline clip-path="url(#clip320)" style="stroke:#000000; stroke-linecap:round; stroke-linejoin:round; stroke-width:4; stroke-opacity:1; fill:none" points="776.584,2185.48 776.584,2166.58 "/>
<polyline clip-path="url(#clip320)" style="stroke:#000000; stroke-linecap:round; stroke-linejoin:round; stroke-width:4; stroke-opacity:1; fill:none" points="1213.59,2185.48 1213.59,2166.58 "/>
<polyline clip-path="url(#clip320)" style="stroke:#000000; stroke-linecap:round; stroke-linejoin:round; stroke-width:4; stroke-opacity:1; fill:none" points="1650.6,2185.48 1650.6,2166.58 "/>
<polyline clip-path="url(#clip320)" style="stroke:#000000; stroke-linecap:round; stroke-linejoin:round; stroke-width:4; stroke-opacity:1; fill:none" points="2087.61,2185.48 2087.61,2166.58 "/>
<polyline clip-path="url(#clip320)" style="stroke:#000000; stroke-linecap:round; stroke-linejoin:round; stroke-width:4; stroke-opacity:1; fill:none" points="2524.62,2185.48 2524.62,2166.58 "/>
<polyline clip-path="url(#clip320)" style="stroke:#000000; stroke-linecap:round; stroke-linejoin:round; stroke-width:4; stroke-opacity:1; fill:none" points="2961.63,2185.48 2961.63,2166.58 "/>
<path clip-path="url(#clip320)" d="M339.575 2225.73 Q335.061 2225.73 332.775 2230.18 Q330.518 2234.61 330.518 2243.52 Q330.518 2252.41 332.775 2256.86 Q335.061 2261.29 339.575 2261.29 Q344.118 2261.29 346.374 2256.86 Q348.66 2252.41 348.66 2243.52 Q348.66 2234.61 346.374 2230.18 Q344.118 2225.73 339.575 2225.73 M339.575 2221.1 Q346.837 2221.1 350.657 2226.86 Q354.505 2232.59 354.505 2243.52 Q354.505 2254.43 350.657 2260.19 Q346.837 2265.92 339.575 2265.92 Q332.312 2265.92 328.464 2260.19 Q324.644 2254.43 324.644 2243.52 Q324.644 2232.59 328.464 2226.86 Q332.312 2221.1 339.575 2221.1 Z" fill="#000000" fill-rule="nonzero" fill-opacity="1" /><path clip-path="url(#clip320)" d="M731.199 2260.16 L751.599 2260.16 L751.599 2265.08 L724.168 2265.08 L724.168 2260.16 Q727.496 2256.72 733.225 2250.93 Q738.983 2245.11 740.459 2243.44 Q743.265 2240.28 744.365 2238.11 Q745.493 2235.91 745.493 2233.8 Q745.493 2230.36 743.063 2228.19 Q740.661 2226.02 736.784 2226.02 Q734.035 2226.02 730.968 2226.97 Q727.93 2227.93 724.457 2229.87 L724.457 2223.96 Q727.988 2222.55 731.055 2221.82 Q734.122 2221.1 736.668 2221.1 Q743.381 2221.1 747.374 2224.46 Q751.367 2227.81 751.367 2233.42 Q751.367 2236.09 750.354 2238.49 Q749.371 2240.86 746.737 2244.1 Q746.014 2244.94 742.137 2248.96 Q738.26 2252.96 731.199 2260.16 Z" fill="#000000" fill-rule="nonzero" fill-opacity="1" /><path clip-path="url(#clip320)" d="M776.367 2225.73 Q771.853 2225.73 769.567 2230.18 Q767.31 2234.61 767.31 2243.52 Q767.31 2252.41 769.567 2256.86 Q771.853 2261.29 776.367 2261.29 Q780.91 2261.29 783.167 2256.86 Q785.453 2252.41 785.453 2243.52 Q785.453 2234.61 783.167 2230.18 Q780.91 2225.73 776.367 2225.73 M776.367 2221.1 Q783.63 2221.1 787.449 2226.86 Q791.297 2232.59 791.297 2243.52 Q791.297 2254.43 787.449 2260.19 Q783.63 2265.92 776.367 2265.92 Q769.104 2265.92 765.256 2260.19 Q761.436 2254.43 761.436 2243.52 Q761.436 2232.59 765.256 2226.86 Q769.104 2221.1 776.367 2221.1 Z" fill="#000000" fill-rule="nonzero" fill-opacity="1" /><path clip-path="url(#clip320)" d="M814.069 2225.73 Q809.555 2225.73 807.27 2230.18 Q805.013 2234.61 805.013 2243.52 Q805.013 2252.41 807.27 2256.86 Q809.555 2261.29 814.069 2261.29 Q818.612 2261.29 820.869 2256.86 Q823.155 2252.41 823.155 2243.52 Q823.155 2234.61 820.869 2230.18 Q818.612 2225.73 814.069 2225.73 M814.069 2221.1 Q821.332 2221.1 825.151 2226.86 Q829 2232.59 829 2243.52 Q829 2254.43 825.151 2260.19 Q821.332 2265.92 814.069 2265.92 Q806.807 2265.92 802.958 2260.19 Q799.139 2254.43 799.139 2243.52 Q799.139 2232.59 802.958 2226.86 Q806.807 2221.1 814.069 2221.1 Z" fill="#000000" fill-rule="nonzero" fill-opacity="1" /><path clip-path="url(#clip320)" d="M1179.96 2226.97 L1165.2 2250.03 L1179.96 2250.03 L1179.96 2226.97 M1178.42 2221.88 L1185.77 2221.88 L1185.77 2250.03 L1191.94 2250.03 L1191.94 2254.89 L1185.77 2254.89 L1185.77 2265.08 L1179.96 2265.08 L1179.96 2254.89 L1160.45 2254.89 L1160.45 2249.25 L1178.42 2221.88 Z" fill="#000000" fill-rule="nonzero" fill-opacity="1" /><path clip-path="url(#clip320)" d="M1214.1 2225.73 Q1209.59 2225.73 1207.3 2230.18 Q1205.04 2234.61 1205.04 2243.52 Q1205.04 2252.41 1207.3 2256.86 Q1209.59 2261.29 1214.1 2261.29 Q1218.64 2261.29 1220.9 2256.86 Q1223.19 2252.41 1223.19 2243.52 Q1223.19 2234.61 1220.9 2230.18 Q1218.64 2225.73 1214.1 2225.73 M1214.1 2221.1 Q1221.36 2221.1 1225.18 2226.86 Q1229.03 2232.59 1229.03 2243.52 Q1229.03 2254.43 1225.18 2260.19 Q1221.36 2265.92 1214.1 2265.92 Q1206.84 2265.92 1202.99 2260.19 Q1199.17 2254.43 1199.17 2243.52 Q1199.17 2232.59 1202.99 2226.86 Q1206.84 2221.1 1214.1 2221.1 Z" fill="#000000" fill-rule="nonzero" fill-opacity="1" /><path clip-path="url(#clip320)" d="M1251.8 2225.73 Q1247.29 2225.73 1245 2230.18 Q1242.75 2234.61 1242.75 2243.52 Q1242.75 2252.41 1245 2256.86 Q1247.29 2261.29 1251.8 2261.29 Q1256.34 2261.29 1258.6 2256.86 Q1260.89 2252.41 1260.89 2243.52 Q1260.89 2234.61 1258.6 2230.18 Q1256.34 2225.73 1251.8 2225.73 M1251.8 2221.1 Q1259.06 2221.1 1262.88 2226.86 Q1266.73 2232.59 1266.73 2243.52 Q1266.73 2254.43 1262.88 2260.19 Q1259.06 2265.92 1251.8 2265.92 Q1244.54 2265.92 1240.69 2260.19 Q1236.87 2254.43 1236.87 2243.52 Q1236.87 2232.59 1240.69 2226.86 Q1244.54 2221.1 1251.8 2221.1 Z" fill="#000000" fill-rule="nonzero" fill-opacity="1" /><path clip-path="url(#clip320)" d="M1613.51 2241.15 Q1609.57 2241.15 1607.26 2243.84 Q1604.97 2246.53 1604.97 2251.22 Q1604.97 2255.88 1607.26 2258.6 Q1609.57 2261.29 1613.51 2261.29 Q1617.44 2261.29 1619.73 2258.6 Q1622.04 2255.88 1622.04 2251.22 Q1622.04 2246.53 1619.73 2243.84 Q1617.44 2241.15 1613.51 2241.15 M1625.11 2222.83 L1625.11 2228.16 Q1622.91 2227.12 1620.65 2226.57 Q1618.43 2226.02 1616.23 2226.02 Q1610.44 2226.02 1607.37 2229.92 Q1604.34 2233.83 1603.9 2241.73 Q1605.61 2239.21 1608.18 2237.88 Q1610.76 2236.52 1613.85 2236.52 Q1620.37 2236.52 1624.13 2240.49 Q1627.92 2244.42 1627.92 2251.22 Q1627.92 2257.88 1623.98 2261.9 Q1620.05 2265.92 1613.51 2265.92 Q1606.01 2265.92 1602.05 2260.19 Q1598.09 2254.43 1598.09 2243.52 Q1598.09 2233.28 1602.95 2227.2 Q1607.81 2221.1 1616 2221.1 Q1618.2 2221.1 1620.42 2221.53 Q1622.68 2221.97 1625.11 2222.83 Z" fill="#000000" fill-rule="nonzero" fill-opacity="1" /><path clip-path="url(#clip320)" d="M1650.49 2225.73 Q1645.97 2225.73 1643.69 2230.18 Q1641.43 2234.61 1641.43 2243.52 Q1641.43 2252.41 1643.69 2256.86 Q1645.97 2261.29 1650.49 2261.29 Q1655.03 2261.29 1657.29 2256.86 Q1659.57 2252.41 1659.57 2243.52 Q1659.57 2234.61 1657.29 2230.18 Q1655.03 2225.73 1650.49 2225.73 M1650.49 2221.1 Q1657.75 2221.1 1661.57 2226.86 Q1665.42 2232.59 1665.42 2243.52 Q1665.42 2254.43 1661.57 2260.19 Q1657.75 2265.92 1650.49 2265.92 Q1643.22 2265.92 1639.38 2260.19 Q1635.56 2254.43 1635.56 2243.52 Q1635.56 2232.59 1639.38 2226.86 Q1643.22 2221.1 1650.49 2221.1 Z" fill="#000000" fill-rule="nonzero" fill-opacity="1" /><path clip-path="url(#clip320)" d="M1688.19 2225.73 Q1683.68 2225.73 1681.39 2230.18 Q1679.13 2234.61 1679.13 2243.52 Q1679.13 2252.41 1681.39 2256.86 Q1683.68 2261.29 1688.19 2261.29 Q1692.73 2261.29 1694.99 2256.86 Q1697.27 2252.41 1697.27 2243.52 Q1697.27 2234.61 1694.99 2230.18 Q1692.73 2225.73 1688.19 2225.73 M1688.19 2221.1 Q1695.45 2221.1 1699.27 2226.86 Q1703.12 2232.59 1703.12 2243.52 Q1703.12 2254.43 1699.27 2260.19 Q1695.45 2265.92 1688.19 2265.92 Q1680.93 2265.92 1677.08 2260.19 Q1673.26 2254.43 1673.26 2243.52 Q1673.26 2232.59 1677.08 2226.86 Q1680.93 2221.1 1688.19 2221.1 Z" fill="#000000" fill-rule="nonzero" fill-opacity="1" /><path clip-path="url(#clip320)" d="M2049.85 2244.56 Q2045.68 2244.56 2043.28 2246.79 Q2040.91 2249.02 2040.91 2252.93 Q2040.91 2256.83 2043.28 2259.06 Q2045.68 2261.29 2049.85 2261.29 Q2054.02 2261.29 2056.42 2259.06 Q2058.82 2256.8 2058.82 2252.93 Q2058.82 2249.02 2056.42 2246.79 Q2054.05 2244.56 2049.85 2244.56 M2044.01 2242.08 Q2040.24 2241.15 2038.13 2238.58 Q2036.05 2236 2036.05 2232.3 Q2036.05 2227.12 2039.72 2224.11 Q2043.43 2221.1 2049.85 2221.1 Q2056.3 2221.1 2059.98 2224.11 Q2063.65 2227.12 2063.65 2232.3 Q2063.65 2236 2061.54 2238.58 Q2059.46 2241.15 2055.73 2242.08 Q2059.95 2243.06 2062.29 2245.92 Q2064.67 2248.79 2064.67 2252.93 Q2064.67 2259.21 2060.82 2262.56 Q2057 2265.92 2049.85 2265.92 Q2042.7 2265.92 2038.86 2262.56 Q2035.04 2259.21 2035.04 2252.93 Q2035.04 2248.79 2037.41 2245.92 Q2039.78 2243.06 2044.01 2242.08 M2041.87 2232.85 Q2041.87 2236.2 2043.95 2238.08 Q2046.06 2239.96 2049.85 2239.96 Q2053.61 2239.96 2055.73 2238.08 Q2057.87 2236.2 2057.87 2232.85 Q2057.87 2229.49 2055.73 2227.61 Q2053.61 2225.73 2049.85 2225.73 Q2046.06 2225.73 2043.95 2227.61 Q2041.87 2229.49 2041.87 2232.85 Z" fill="#000000" fill-rule="nonzero" fill-opacity="1" /><path clip-path="url(#clip320)" d="M2087.55 2225.73 Q2083.04 2225.73 2080.75 2230.18 Q2078.5 2234.61 2078.5 2243.52 Q2078.5 2252.41 2080.75 2256.86 Q2083.04 2261.29 2087.55 2261.29 Q2092.1 2261.29 2094.35 2256.86 Q2096.64 2252.41 2096.64 2243.52 Q2096.64 2234.61 2094.35 2230.18 Q2092.1 2225.73 2087.55 2225.73 M2087.55 2221.1 Q2094.82 2221.1 2098.64 2226.86 Q2102.48 2232.59 2102.48 2243.52 Q2102.48 2254.43 2098.64 2260.19 Q2094.82 2265.92 2087.55 2265.92 Q2080.29 2265.92 2076.44 2260.19 Q2072.62 2254.43 2072.62 2243.52 Q2072.62 2232.59 2076.44 2226.86 Q2080.29 2221.1 2087.55 2221.1 Z" fill="#000000" fill-rule="nonzero" fill-opacity="1" /><path clip-path="url(#clip320)" d="M2125.26 2225.73 Q2120.74 2225.73 2118.46 2230.18 Q2116.2 2234.61 2116.2 2243.52 Q2116.2 2252.41 2118.46 2256.86 Q2120.74 2261.29 2125.26 2261.29 Q2129.8 2261.29 2132.06 2256.86 Q2134.34 2252.41 2134.34 2243.52 Q2134.34 2234.61 2132.06 2230.18 Q2129.8 2225.73 2125.26 2225.73 M2125.26 2221.1 Q2132.52 2221.1 2136.34 2226.86 Q2140.19 2232.59 2140.19 2243.52 Q2140.19 2254.43 2136.34 2260.19 Q2132.52 2265.92 2125.26 2265.92 Q2117.99 2265.92 2114.14 2260.19 Q2110.33 2254.43 2110.33 2243.52 Q2110.33 2232.59 2114.14 2226.86 Q2117.99 2221.1 2125.26 2221.1 Z" fill="#000000" fill-rule="nonzero" fill-opacity="1" /><path clip-path="url(#clip320)" d="M2455.28 2260.16 L2464.83 2260.16 L2464.83 2227.2 L2454.44 2229.29 L2454.44 2223.96 L2464.77 2221.88 L2470.61 2221.88 L2470.61 2260.16 L2480.16 2260.16 L2480.16 2265.08 L2455.28 2265.08 L2455.28 2260.16 Z" fill="#000000" fill-rule="nonzero" fill-opacity="1" /><path clip-path="url(#clip320)" d="M2504.47 2225.73 Q2499.95 2225.73 2497.67 2230.18 Q2495.41 2234.61 2495.41 2243.52 Q2495.41 2252.41 2497.67 2256.86 Q2499.95 2261.29 2504.47 2261.29 Q2509.01 2261.29 2511.27 2256.86 Q2513.55 2252.41 2513.55 2243.52 Q2513.55 2234.61 2511.27 2230.18 Q2509.01 2225.73 2504.47 2225.73 M2504.47 2221.1 Q2511.73 2221.1 2515.55 2226.86 Q2519.4 2232.59 2519.4 2243.52 Q2519.4 2254.43 2515.55 2260.19 Q2511.73 2265.92 2504.47 2265.92 Q2497.2 2265.92 2493.36 2260.19 Q2489.54 2254.43 2489.54 2243.52 Q2489.54 2232.59 2493.36 2226.86 Q2497.2 2221.1 2504.47 2221.1 Z" fill="#000000" fill-rule="nonzero" fill-opacity="1" /><path clip-path="url(#clip320)" d="M2542.17 2225.73 Q2537.66 2225.73 2535.37 2230.18 Q2533.11 2234.61 2533.11 2243.52 Q2533.11 2252.41 2535.37 2256.86 Q2537.66 2261.29 2542.17 2261.29 Q2546.71 2261.29 2548.97 2256.86 Q2551.26 2252.41 2551.26 2243.52 Q2551.26 2234.61 2548.97 2230.18 Q2546.71 2225.73 2542.17 2225.73 M2542.17 2221.1 Q2549.43 2221.1 2553.25 2226.86 Q2557.1 2232.59 2557.1 2243.52 Q2557.1 2254.43 2553.25 2260.19 Q2549.43 2265.92 2542.17 2265.92 Q2534.91 2265.92 2531.06 2260.19 Q2527.24 2254.43 2527.24 2243.52 Q2527.24 2232.59 2531.06 2226.86 Q2534.91 2221.1 2542.17 2221.1 Z" fill="#000000" fill-rule="nonzero" fill-opacity="1" /><path clip-path="url(#clip320)" d="M2579.87 2225.73 Q2575.36 2225.73 2573.07 2230.18 Q2570.82 2234.61 2570.82 2243.52 Q2570.82 2252.41 2573.07 2256.86 Q2575.36 2261.29 2579.87 2261.29 Q2584.41 2261.29 2586.67 2256.86 Q2588.96 2252.41 2588.96 2243.52 Q2588.96 2234.61 2586.67 2230.18 Q2584.41 2225.73 2579.87 2225.73 M2579.87 2221.1 Q2587.13 2221.1 2590.95 2226.86 Q2594.8 2232.59 2594.8 2243.52 Q2594.8 2254.43 2590.95 2260.19 Q2587.13 2265.92 2579.87 2265.92 Q2572.61 2265.92 2568.76 2260.19 Q2564.94 2254.43 2564.94 2243.52 Q2564.94 2232.59 2568.76 2226.86 Q2572.61 2221.1 2579.87 2221.1 Z" fill="#000000" fill-rule="nonzero" fill-opacity="1" /><path clip-path="url(#clip320)" d="M2892.29 2260.16 L2901.84 2260.16 L2901.84 2227.2 L2891.45 2229.29 L2891.45 2223.96 L2901.78 2221.88 L2907.62 2221.88 L2907.62 2260.16 L2917.17 2260.16 L2917.17 2265.08 L2892.29 2265.08 L2892.29 2260.16 Z" fill="#000000" fill-rule="nonzero" fill-opacity="1" /><path clip-path="url(#clip320)" d="M2934.01 2260.16 L2954.41 2260.16 L2954.41 2265.08 L2926.98 2265.08 L2926.98 2260.16 Q2930.31 2256.72 2936.04 2250.93 Q2941.79 2245.11 2943.27 2243.44 Q2946.08 2240.28 2947.18 2238.11 Q2948.31 2235.91 2948.31 2233.8 Q2948.31 2230.36 2945.87 2228.19 Q2943.47 2226.02 2939.6 2226.02 Q2936.85 2226.02 2933.78 2226.97 Q2930.74 2227.93 2927.27 2229.87 L2927.27 2223.96 Q2930.8 2222.55 2933.87 2221.82 Q2936.93 2221.1 2939.48 2221.1 Q2946.19 2221.1 2950.19 2224.46 Q2954.18 2227.81 2954.18 2233.42 Q2954.18 2236.09 2953.17 2238.49 Q2952.18 2240.86 2949.55 2244.1 Q2948.83 2244.94 2944.95 2248.96 Q2941.07 2252.96 2934.01 2260.16 Z" fill="#000000" fill-rule="nonzero" fill-opacity="1" /><path clip-path="url(#clip320)" d="M2979.18 2225.73 Q2974.67 2225.73 2972.38 2230.18 Q2970.12 2234.61 2970.12 2243.52 Q2970.12 2252.41 2972.38 2256.86 Q2974.67 2261.29 2979.18 2261.29 Q2983.72 2261.29 2985.98 2256.86 Q2988.26 2252.41 2988.26 2243.52 Q2988.26 2234.61 2985.98 2230.18 Q2983.72 2225.73 2979.18 2225.73 M2979.18 2221.1 Q2986.44 2221.1 2990.26 2226.86 Q2994.11 2232.59 2994.11 2243.52 Q2994.11 2254.43 2990.26 2260.19 Q2986.44 2265.92 2979.18 2265.92 Q2971.92 2265.92 2968.07 2260.19 Q2964.25 2254.43 2964.25 2243.52 Q2964.25 2232.59 2968.07 2226.86 Q2971.92 2221.1 2979.18 2221.1 Z" fill="#000000" fill-rule="nonzero" fill-opacity="1" /><path clip-path="url(#clip320)" d="M3016.88 2225.73 Q3012.37 2225.73 3010.08 2230.18 Q3007.82 2234.61 3007.82 2243.52 Q3007.82 2252.41 3010.08 2256.86 Q3012.37 2261.29 3016.88 2261.29 Q3021.42 2261.29 3023.68 2256.86 Q3025.97 2252.41 3025.97 2243.52 Q3025.97 2234.61 3023.68 2230.18 Q3021.42 2225.73 3016.88 2225.73 M3016.88 2221.1 Q3024.14 2221.1 3027.96 2226.86 Q3031.81 2232.59 3031.81 2243.52 Q3031.81 2254.43 3027.96 2260.19 Q3024.14 2265.92 3016.88 2265.92 Q3009.62 2265.92 3005.77 2260.19 Q3001.95 2254.43 3001.95 2243.52 Q3001.95 2232.59 3005.77 2226.86 Q3009.62 2221.1 3016.88 2221.1 Z" fill="#000000" fill-rule="nonzero" fill-opacity="1" /><path clip-path="url(#clip320)" d="M1467.1 2309.51 L1514.61 2309.51 L1514.61 2315.91 L1494.68 2315.91 L1494.68 2365.67 L1487.04 2365.67 L1487.04 2315.91 L1467.1 2315.91 L1467.1 2309.51 Z" fill="#000000" fill-rule="nonzero" fill-opacity="1" /><path clip-path="url(#clip320)" d="M1519.28 2323.54 L1526.2 2323.54 L1526.2 2365.67 L1519.28 2365.67 L1519.28 2323.54 M1519.28 2307.14 L1526.2 2307.14 L1526.2 2315.91 L1519.28 2315.91 L1519.28 2307.14 Z" fill="#000000" fill-rule="nonzero" fill-opacity="1" /><path clip-path="url(#clip320)" d="M1571 2325.16 L1571 2331.63 Q1568.07 2330.01 1565.09 2329.22 Q1562.16 2328.39 1559.15 2328.39 Q1552.42 2328.39 1548.69 2332.68 Q1544.97 2336.93 1544.97 2344.64 Q1544.97 2352.36 1548.69 2356.64 Q1552.42 2360.89 1559.15 2360.89 Q1562.16 2360.89 1565.09 2360.1 Q1568.07 2359.28 1571 2357.66 L1571 2364.05 Q1568.1 2365.41 1564.98 2366.09 Q1561.9 2366.76 1558.4 2366.76 Q1548.88 2366.76 1543.28 2360.78 Q1537.67 2354.8 1537.67 2344.64 Q1537.67 2334.34 1543.31 2328.43 Q1548.99 2322.53 1558.85 2322.53 Q1562.05 2322.53 1565.09 2323.2 Q1568.14 2323.84 1571 2325.16 Z" fill="#000000" fill-rule="nonzero" fill-opacity="1" /><path clip-path="url(#clip320)" d="M1582.77 2307.14 L1589.73 2307.14 L1589.73 2341.71 L1610.38 2323.54 L1619.22 2323.54 L1596.88 2343.25 L1620.16 2365.67 L1611.13 2365.67 L1589.73 2345.1 L1589.73 2365.67 L1582.77 2365.67 L1582.77 2307.14 Z" fill="#000000" fill-rule="nonzero" fill-opacity="1" /><path clip-path="url(#clip320)" d="M1687.16 2340.24 L1687.16 2365.67 L1680.23 2365.67 L1680.23 2340.47 Q1680.23 2334.49 1677.9 2331.52 Q1675.57 2328.55 1670.91 2328.55 Q1665.3 2328.55 1662.07 2332.12 Q1658.83 2335.69 1658.83 2341.86 L1658.83 2365.67 L1651.87 2365.67 L1651.87 2323.54 L1658.83 2323.54 L1658.83 2330.09 Q1661.31 2326.29 1664.66 2324.41 Q1668.05 2322.53 1672.45 2322.53 Q1679.71 2322.53 1683.43 2327.04 Q1687.16 2331.52 1687.16 2340.24 Z" fill="#000000" fill-rule="nonzero" fill-opacity="1" /><path clip-path="url(#clip320)" d="M1700.25 2349.05 L1700.25 2323.54 L1707.17 2323.54 L1707.17 2348.78 Q1707.17 2354.76 1709.5 2357.77 Q1711.83 2360.74 1716.5 2360.74 Q1722.1 2360.74 1725.34 2357.17 Q1728.61 2353.6 1728.61 2347.43 L1728.61 2323.54 L1735.53 2323.54 L1735.53 2365.67 L1728.61 2365.67 L1728.61 2359.2 Q1726.09 2363.04 1722.74 2364.92 Q1719.43 2366.76 1715.03 2366.76 Q1707.77 2366.76 1704.01 2362.25 Q1700.25 2357.73 1700.25 2349.05 M1717.66 2322.53 L1717.66 2322.53 Z" fill="#000000" fill-rule="nonzero" fill-opacity="1" /><path clip-path="url(#clip320)" d="M1782.59 2331.63 Q1785.18 2326.97 1788.79 2324.75 Q1792.4 2322.53 1797.29 2322.53 Q1803.88 2322.53 1807.45 2327.15 Q1811.02 2331.74 1811.02 2340.24 L1811.02 2365.67 L1804.06 2365.67 L1804.06 2340.47 Q1804.06 2334.41 1801.92 2331.48 Q1799.78 2328.55 1795.38 2328.55 Q1790 2328.55 1786.87 2332.12 Q1783.75 2335.69 1783.75 2341.86 L1783.75 2365.67 L1776.79 2365.67 L1776.79 2340.47 Q1776.79 2334.38 1774.65 2331.48 Q1772.51 2328.55 1768.03 2328.55 Q1762.73 2328.55 1759.6 2332.16 Q1756.48 2335.73 1756.48 2341.86 L1756.48 2365.67 L1749.52 2365.67 L1749.52 2323.54 L1756.48 2323.54 L1756.48 2330.09 Q1758.85 2326.21 1762.16 2324.37 Q1765.47 2322.53 1770.02 2322.53 Q1774.61 2322.53 1777.81 2324.86 Q1781.04 2327.19 1782.59 2331.63 Z" fill="#000000" fill-rule="nonzero" fill-opacity="1" /><path clip-path="url(#clip320)" d="M1855.07 2344.64 Q1855.07 2337.01 1851.91 2332.68 Q1848.79 2328.32 1843.3 2328.32 Q1837.81 2328.32 1834.65 2332.68 Q1831.52 2337.01 1831.52 2344.64 Q1831.52 2352.28 1834.65 2356.64 Q1837.81 2360.97 1843.3 2360.97 Q1848.79 2360.97 1851.91 2356.64 Q1855.07 2352.28 1855.07 2344.64 M1831.52 2329.94 Q1833.71 2326.18 1837.02 2324.37 Q1840.36 2322.53 1844.99 2322.53 Q1852.66 2322.53 1857.44 2328.62 Q1862.26 2334.71 1862.26 2344.64 Q1862.26 2354.58 1857.44 2360.67 Q1852.66 2366.76 1844.99 2366.76 Q1840.36 2366.76 1837.02 2364.96 Q1833.71 2363.11 1831.52 2359.35 L1831.52 2365.67 L1824.57 2365.67 L1824.57 2307.14 L1831.52 2307.14 L1831.52 2329.94 Z" fill="#000000" fill-rule="nonzero" fill-opacity="1" /><path clip-path="url(#clip320)" d="M1909.76 2342.88 L1909.76 2346.26 L1877.94 2346.26 Q1878.39 2353.41 1882.23 2357.17 Q1886.1 2360.89 1892.99 2360.89 Q1896.98 2360.89 1900.7 2359.92 Q1904.46 2358.94 1908.15 2356.98 L1908.15 2363.53 Q1904.42 2365.11 1900.51 2365.94 Q1896.6 2366.76 1892.57 2366.76 Q1882.49 2366.76 1876.59 2360.89 Q1870.72 2355.03 1870.72 2345.02 Q1870.72 2334.68 1876.29 2328.62 Q1881.89 2322.53 1891.37 2322.53 Q1899.87 2322.53 1904.8 2328.02 Q1909.76 2333.47 1909.76 2342.88 M1902.84 2340.85 Q1902.77 2335.17 1899.65 2331.78 Q1896.56 2328.39 1891.45 2328.39 Q1885.65 2328.39 1882.15 2331.67 Q1878.69 2334.94 1878.17 2340.88 L1902.84 2340.85 Z" fill="#000000" fill-rule="nonzero" fill-opacity="1" /><path clip-path="url(#clip320)" d="M1945.54 2330.01 Q1944.37 2329.34 1942.98 2329.03 Q1941.63 2328.7 1939.97 2328.7 Q1934.1 2328.7 1930.94 2332.53 Q1927.82 2336.33 1927.82 2343.48 L1927.82 2365.67 L1920.86 2365.67 L1920.86 2323.54 L1927.82 2323.54 L1927.82 2330.09 Q1930 2326.25 1933.5 2324.41 Q1937 2322.53 1942 2322.53 Q1942.72 2322.53 1943.58 2322.64 Q1944.45 2322.71 1945.5 2322.9 L1945.54 2330.01 Z" fill="#000000" fill-rule="nonzero" fill-opacity="1" /><polyline clip-path="url(#clip322)" style="stroke:#000000; stroke-linecap:round; stroke-linejoin:round; stroke-width:2; stroke-opacity:0.1; fill:none" points="259.886,2021.14 3152.76,2021.14 "/>
<polyline clip-path="url(#clip322)" style="stroke:#000000; stroke-linecap:round; stroke-linejoin:round; stroke-width:2; stroke-opacity:0.1; fill:none" points="259.886,1660.46 3152.76,1660.46 "/>
<polyline clip-path="url(#clip322)" style="stroke:#000000; stroke-linecap:round; stroke-linejoin:round; stroke-width:2; stroke-opacity:0.1; fill:none" points="259.886,1299.78 3152.76,1299.78 "/>
<polyline clip-path="url(#clip322)" style="stroke:#000000; stroke-linecap:round; stroke-linejoin:round; stroke-width:2; stroke-opacity:0.1; fill:none" points="259.886,939.103 3152.76,939.103 "/>
<polyline clip-path="url(#clip322)" style="stroke:#000000; stroke-linecap:round; stroke-linejoin:round; stroke-width:2; stroke-opacity:0.1; fill:none" points="259.886,578.424 3152.76,578.424 "/>
<polyline clip-path="url(#clip322)" style="stroke:#000000; stroke-linecap:round; stroke-linejoin:round; stroke-width:2; stroke-opacity:0.1; fill:none" points="259.886,217.746 3152.76,217.746 "/>
<polyline clip-path="url(#clip320)" style="stroke:#000000; stroke-linecap:round; stroke-linejoin:round; stroke-width:4; stroke-opacity:1; fill:none" points="259.886,2185.48 259.886,47.2441 "/>
<polyline clip-path="url(#clip320)" style="stroke:#000000; stroke-linecap:round; stroke-linejoin:round; stroke-width:4; stroke-opacity:1; fill:none" points="259.886,2021.14 278.784,2021.14 "/>
<polyline clip-path="url(#clip320)" style="stroke:#000000; stroke-linecap:round; stroke-linejoin:round; stroke-width:4; stroke-opacity:1; fill:none" points="259.886,1660.46 278.784,1660.46 "/>
<polyline clip-path="url(#clip320)" style="stroke:#000000; stroke-linecap:round; stroke-linejoin:round; stroke-width:4; stroke-opacity:1; fill:none" points="259.886,1299.78 278.784,1299.78 "/>
<polyline clip-path="url(#clip320)" style="stroke:#000000; stroke-linecap:round; stroke-linejoin:round; stroke-width:4; stroke-opacity:1; fill:none" points="259.886,939.103 278.784,939.103 "/>
<polyline clip-path="url(#clip320)" style="stroke:#000000; stroke-linecap:round; stroke-linejoin:round; stroke-width:4; stroke-opacity:1; fill:none" points="259.886,578.424 278.784,578.424 "/>
<polyline clip-path="url(#clip320)" style="stroke:#000000; stroke-linecap:round; stroke-linejoin:round; stroke-width:4; stroke-opacity:1; fill:none" points="259.886,217.746 278.784,217.746 "/>
<path clip-path="url(#clip320)" d="M141.661 2003.39 Q137.147 2003.39 134.861 2007.84 Q132.604 2012.27 132.604 2021.18 Q132.604 2030.07 134.861 2034.52 Q137.147 2038.95 141.661 2038.95 Q146.204 2038.95 148.461 2034.52 Q150.746 2030.07 150.746 2021.18 Q150.746 2012.27 148.461 2007.84 Q146.204 2003.39 141.661 2003.39 M141.661 1998.76 Q148.924 1998.76 152.743 2004.52 Q156.591 2010.24 156.591 2021.18 Q156.591 2032.09 152.743 2037.85 Q148.924 2043.58 141.661 2043.58 Q134.398 2043.58 130.55 2037.85 Q126.73 2032.09 126.73 2021.18 Q126.73 2010.24 130.55 2004.52 Q134.398 1998.76 141.661 1998.76 Z" fill="#000000" fill-rule="nonzero" fill-opacity="1" /><path clip-path="url(#clip320)" d="M166.863 2035.39 L172.969 2035.39 L172.969 2042.74 L166.863 2042.74 L166.863 2035.39 Z" fill="#000000" fill-rule="nonzero" fill-opacity="1" /><path clip-path="url(#clip320)" d="M185.758 1999.54 L208.703 1999.54 L208.703 2004.46 L191.111 2004.46 L191.111 2015.05 Q192.384 2014.61 193.657 2014.41 Q194.93 2014.18 196.203 2014.18 Q203.437 2014.18 207.662 2018.14 Q211.886 2022.11 211.886 2028.88 Q211.886 2035.85 207.546 2039.73 Q203.206 2043.58 195.306 2043.58 Q192.586 2043.58 189.751 2043.11 Q186.944 2042.65 183.935 2041.73 L183.935 2035.85 Q186.539 2037.27 189.317 2037.96 Q192.095 2038.66 195.191 2038.66 Q200.196 2038.66 203.119 2036.03 Q206.041 2033.39 206.041 2028.88 Q206.041 2024.37 203.119 2021.73 Q200.196 2019.1 195.191 2019.1 Q192.847 2019.1 190.503 2019.62 Q188.188 2020.14 185.758 2021.24 L185.758 1999.54 Z" fill="#000000" fill-rule="nonzero" fill-opacity="1" /><path clip-path="url(#clip320)" d="M128.929 1677.14 L138.478 1677.14 L138.478 1644.18 L128.09 1646.27 L128.09 1640.94 L138.42 1638.86 L144.265 1638.86 L144.265 1677.14 L153.814 1677.14 L153.814 1682.06 L128.929 1682.06 L128.929 1677.14 Z" fill="#000000" fill-rule="nonzero" fill-opacity="1" /><path clip-path="url(#clip320)" d="M165.619 1674.71 L171.724 1674.71 L171.724 1682.06 L165.619 1682.06 L165.619 1674.71 Z" fill="#000000" fill-rule="nonzero" fill-opacity="1" /><path clip-path="url(#clip320)" d="M196.956 1642.71 Q192.442 1642.71 190.156 1647.16 Q187.899 1651.59 187.899 1660.5 Q187.899 1669.39 190.156 1673.84 Q192.442 1678.27 196.956 1678.27 Q201.498 1678.27 203.755 1673.84 Q206.041 1669.39 206.041 1660.5 Q206.041 1651.59 203.755 1647.16 Q201.498 1642.71 196.956 1642.71 M196.956 1638.08 Q204.218 1638.08 208.038 1643.84 Q211.886 1649.57 211.886 1660.5 Q211.886 1671.41 208.038 1677.17 Q204.218 1682.9 196.956 1682.9 Q189.693 1682.9 185.845 1677.17 Q182.025 1671.41 182.025 1660.5 Q182.025 1649.57 185.845 1643.84 Q189.693 1638.08 196.956 1638.08 Z" fill="#000000" fill-rule="nonzero" fill-opacity="1" /><path clip-path="url(#clip320)" d="M130.174 1316.46 L139.722 1316.46 L139.722 1283.51 L129.334 1285.59 L129.334 1280.26 L139.664 1278.18 L145.509 1278.18 L145.509 1316.46 L155.058 1316.46 L155.058 1321.38 L130.174 1321.38 L130.174 1316.46 Z" fill="#000000" fill-rule="nonzero" fill-opacity="1" /><path clip-path="url(#clip320)" d="M166.863 1314.03 L172.969 1314.03 L172.969 1321.38 L166.863 1321.38 L166.863 1314.03 Z" fill="#000000" fill-rule="nonzero" fill-opacity="1" /><path clip-path="url(#clip320)" d="M185.758 1278.18 L208.703 1278.18 L208.703 1283.1 L191.111 1283.1 L191.111 1293.69 Q192.384 1293.26 193.657 1293.05 Q194.93 1292.82 196.203 1292.82 Q203.437 1292.82 207.662 1296.79 Q211.886 1300.75 211.886 1307.52 Q211.886 1314.49 207.546 1318.37 Q203.206 1322.22 195.306 1322.22 Q192.586 1322.22 189.751 1321.76 Q186.944 1321.29 183.935 1320.37 L183.935 1314.49 Q186.539 1315.91 189.317 1316.61 Q192.095 1317.3 195.191 1317.3 Q200.196 1317.3 203.119 1314.67 Q206.041 1312.04 206.041 1307.52 Q206.041 1303.01 203.119 1300.37 Q200.196 1297.74 195.191 1297.74 Q192.847 1297.74 190.503 1298.26 Q188.188 1298.78 185.758 1299.88 L185.758 1278.18 Z" fill="#000000" fill-rule="nonzero" fill-opacity="1" /><path clip-path="url(#clip320)" d="M132.951 955.784 L153.351 955.784 L153.351 960.703 L125.92 960.703 L125.92 955.784 Q129.248 952.341 134.977 946.554 Q140.735 940.738 142.211 939.059 Q145.017 935.906 146.117 933.735 Q147.245 931.536 147.245 929.424 Q147.245 925.981 144.815 923.811 Q142.413 921.641 138.536 921.641 Q135.787 921.641 132.72 922.595 Q129.682 923.55 126.21 925.489 L126.21 919.586 Q129.74 918.168 132.807 917.445 Q135.874 916.722 138.42 916.722 Q145.133 916.722 149.126 920.078 Q153.119 923.435 153.119 929.048 Q153.119 931.71 152.106 934.112 Q151.123 936.484 148.489 939.725 Q147.766 940.564 143.889 944.586 Q140.012 948.579 132.951 955.784 Z" fill="#000000" fill-rule="nonzero" fill-opacity="1" /><path clip-path="url(#clip320)" d="M165.619 953.353 L171.724 953.353 L171.724 960.703 L165.619 960.703 L165.619 953.353 Z" fill="#000000" fill-rule="nonzero" fill-opacity="1" /><path clip-path="url(#clip320)" d="M196.956 921.351 Q192.442 921.351 190.156 925.807 Q187.899 930.234 187.899 939.146 Q187.899 948.029 190.156 952.485 Q192.442 956.912 196.956 956.912 Q201.498 956.912 203.755 952.485 Q206.041 948.029 206.041 939.146 Q206.041 930.234 203.755 925.807 Q201.498 921.351 196.956 921.351 M196.956 916.722 Q204.218 916.722 208.038 922.48 Q211.886 928.209 211.886 939.146 Q211.886 950.055 208.038 955.813 Q204.218 961.542 196.956 961.542 Q189.693 961.542 185.845 955.813 Q182.025 950.055 182.025 939.146 Q182.025 928.209 185.845 922.48 Q189.693 916.722 196.956 916.722 Z" fill="#000000" fill-rule="nonzero" fill-opacity="1" /><path clip-path="url(#clip320)" d="M134.196 595.105 L154.595 595.105 L154.595 600.024 L127.164 600.024 L127.164 595.105 Q130.492 591.662 136.221 585.875 Q141.979 580.059 143.455 578.381 Q146.261 575.227 147.361 573.057 Q148.489 570.858 148.489 568.745 Q148.489 565.302 146.059 563.132 Q143.657 560.962 139.78 560.962 Q137.031 560.962 133.964 561.917 Q130.926 562.872 127.454 564.81 L127.454 558.908 Q130.984 557.49 134.051 556.766 Q137.118 556.043 139.664 556.043 Q146.377 556.043 150.37 559.399 Q154.363 562.756 154.363 568.369 Q154.363 571.031 153.351 573.433 Q152.367 575.806 149.734 579.046 Q149.01 579.885 145.133 583.907 Q141.256 587.9 134.196 595.105 Z" fill="#000000" fill-rule="nonzero" fill-opacity="1" /><path clip-path="url(#clip320)" d="M166.863 592.675 L172.969 592.675 L172.969 600.024 L166.863 600.024 L166.863 592.675 Z" fill="#000000" fill-rule="nonzero" fill-opacity="1" /><path clip-path="url(#clip320)" d="M185.758 556.824 L208.703 556.824 L208.703 561.743 L191.111 561.743 L191.111 572.333 Q192.384 571.899 193.657 571.697 Q194.93 571.465 196.203 571.465 Q203.437 571.465 207.662 575.429 Q211.886 579.394 211.886 586.164 Q211.886 593.138 207.546 597.015 Q203.206 600.863 195.306 600.863 Q192.586 600.863 189.751 600.4 Q186.944 599.937 183.935 599.011 L183.935 593.138 Q186.539 594.555 189.317 595.25 Q192.095 595.944 195.191 595.944 Q200.196 595.944 203.119 593.311 Q206.041 590.678 206.041 586.164 Q206.041 581.65 203.119 579.017 Q200.196 576.384 195.191 576.384 Q192.847 576.384 190.503 576.905 Q188.188 577.426 185.758 578.525 L185.758 556.824 Z" fill="#000000" fill-rule="nonzero" fill-opacity="1" /><path clip-path="url(#clip320)" d="M145.625 216.053 Q149.82 216.95 152.164 219.785 Q154.537 222.621 154.537 226.788 Q154.537 233.182 150.139 236.684 Q145.741 240.185 137.639 240.185 Q134.919 240.185 132.025 239.635 Q129.161 239.114 126.094 238.043 L126.094 232.401 Q128.524 233.819 131.418 234.542 Q134.311 235.266 137.465 235.266 Q142.963 235.266 145.827 233.096 Q148.721 230.925 148.721 226.788 Q148.721 222.968 146.03 220.827 Q143.368 218.657 138.594 218.657 L133.559 218.657 L133.559 213.854 L138.825 213.854 Q143.137 213.854 145.422 212.147 Q147.708 210.411 147.708 207.17 Q147.708 203.842 145.336 202.077 Q142.992 200.283 138.594 200.283 Q136.192 200.283 133.443 200.804 Q130.694 201.325 127.396 202.424 L127.396 197.216 Q130.723 196.29 133.617 195.827 Q136.539 195.364 139.115 195.364 Q145.77 195.364 149.647 198.402 Q153.524 201.412 153.524 206.562 Q153.524 210.15 151.47 212.639 Q149.415 215.098 145.625 216.053 Z" fill="#000000" fill-rule="nonzero" fill-opacity="1" /><path clip-path="url(#clip320)" d="M165.619 231.996 L171.724 231.996 L171.724 239.346 L165.619 239.346 L165.619 231.996 Z" fill="#000000" fill-rule="nonzero" fill-opacity="1" /><path clip-path="url(#clip320)" d="M196.956 199.994 Q192.442 199.994 190.156 204.45 Q187.899 208.877 187.899 217.789 Q187.899 226.672 190.156 231.128 Q192.442 235.555 196.956 235.555 Q201.498 235.555 203.755 231.128 Q206.041 226.672 206.041 217.789 Q206.041 208.877 203.755 204.45 Q201.498 199.994 196.956 199.994 M196.956 195.364 Q204.218 195.364 208.038 201.122 Q211.886 206.852 211.886 217.789 Q211.886 228.697 208.038 234.456 Q204.218 240.185 196.956 240.185 Q189.693 240.185 185.845 234.456 Q182.025 228.697 182.025 217.789 Q182.025 206.852 185.845 201.122 Q189.693 195.364 196.956 195.364 Z" fill="#000000" fill-rule="nonzero" fill-opacity="1" /><path clip-path="url(#clip320)" d="M61.0722 1235.83 L4.91216 1257.27 L4.91216 1249.33 L52.1949 1231.54 L4.91216 1213.71 L4.91216 1205.81 L61.0722 1227.21 L61.0722 1235.83 Z" fill="#000000" fill-rule="nonzero" fill-opacity="1" /><path clip-path="url(#clip320)" d="M23.7952 1187.57 Q23.7952 1193.14 28.1586 1196.37 Q32.4843 1199.61 40.0451 1199.61 Q47.6058 1199.61 51.9692 1196.41 Q56.295 1193.17 56.295 1187.57 Q56.295 1182.04 51.9316 1178.8 Q47.5682 1175.57 40.0451 1175.57 Q32.5596 1175.57 28.1962 1178.8 Q23.7952 1182.04 23.7952 1187.57 M17.9271 1187.57 Q17.9271 1178.54 23.7952 1173.39 Q29.6632 1168.23 40.0451 1168.23 Q50.3893 1168.23 56.295 1173.39 Q62.163 1178.54 62.163 1187.57 Q62.163 1196.63 56.295 1201.79 Q50.3893 1206.9 40.0451 1206.9 Q29.6632 1206.9 23.7952 1201.79 Q17.9271 1196.63 17.9271 1187.57 Z" fill="#000000" fill-rule="nonzero" fill-opacity="1" /><path clip-path="url(#clip320)" d="M2.54238 1156.76 L2.54238 1149.84 L61.0722 1149.84 L61.0722 1156.76 L2.54238 1156.76 Z" fill="#000000" fill-rule="nonzero" fill-opacity="1" /><path clip-path="url(#clip320)" d="M44.4461 1136.07 L18.9428 1136.07 L18.9428 1129.15 L44.1828 1129.15 Q50.1637 1129.15 53.1729 1126.82 Q56.1445 1124.49 56.1445 1119.82 Q56.1445 1114.22 52.571 1110.98 Q48.9976 1107.71 42.8286 1107.71 L18.9428 1107.71 L18.9428 1100.79 L61.0722 1100.79 L61.0722 1107.71 L54.6023 1107.71 Q58.4391 1110.23 60.3198 1113.58 Q62.163 1116.89 62.163 1121.29 Q62.163 1128.55 57.6491 1132.31 Q53.1353 1136.07 44.4461 1136.07 M17.9271 1118.66 L17.9271 1118.66 Z" fill="#000000" fill-rule="nonzero" fill-opacity="1" /><path clip-path="url(#clip320)" d="M27.0301 1053.73 Q22.3658 1051.14 20.1465 1047.53 Q17.9271 1043.91 17.9271 1039.02 Q17.9271 1032.44 22.5538 1028.87 Q27.1429 1025.29 35.6441 1025.29 L61.0722 1025.29 L61.0722 1032.25 L35.8697 1032.25 Q29.8136 1032.25 26.8796 1034.4 Q23.9456 1036.54 23.9456 1040.94 Q23.9456 1046.32 27.5191 1049.44 Q31.0926 1052.57 37.2615 1052.57 L61.0722 1052.57 L61.0722 1059.52 L35.8697 1059.52 Q29.776 1059.52 26.8796 1061.67 Q23.9456 1063.81 23.9456 1068.29 Q23.9456 1073.59 27.5567 1076.72 Q31.1302 1079.84 37.2615 1079.84 L61.0722 1079.84 L61.0722 1086.8 L18.9428 1086.8 L18.9428 1079.84 L25.4879 1079.84 Q21.6135 1077.47 19.7703 1074.16 Q17.9271 1070.85 17.9271 1066.3 Q17.9271 1061.71 20.2593 1058.51 Q22.5915 1055.27 27.0301 1053.73 Z" fill="#000000" fill-rule="nonzero" fill-opacity="1" /><path clip-path="url(#clip320)" d="M38.2771 975.454 L41.6625 975.454 L41.6625 1007.28 Q48.8095 1006.83 52.571 1002.99 Q56.295 999.114 56.295 992.231 Q56.295 988.243 55.317 984.52 Q54.339 980.758 52.383 977.072 L58.9281 977.072 Q60.5079 980.796 61.3355 984.708 Q62.163 988.62 62.163 992.644 Q62.163 1002.73 56.295 1008.63 Q50.427 1014.5 40.4212 1014.5 Q30.077 1014.5 24.0209 1008.93 Q17.9271 1003.33 17.9271 993.848 Q17.9271 985.347 23.419 980.419 Q28.8733 975.454 38.2771 975.454 M36.2459 982.375 Q30.566 982.451 27.1806 985.573 Q23.7952 988.657 23.7952 993.773 Q23.7952 999.566 27.0677 1003.06 Q30.3403 1006.52 36.2835 1007.05 L36.2459 982.375 Z" fill="#000000" fill-rule="nonzero" fill-opacity="1" /><polyline clip-path="url(#clip322)" style="stroke:#009af9; stroke-linecap:round; stroke-linejoin:round; stroke-width:8; stroke-opacity:1; fill:none" points="341.76,1522.46 343.945,1446.58 346.13,1363.84 348.315,1461.37 350.5,1512.08 352.685,1408.63 354.87,1339.46 357.055,1366.29 359.24,1542.16 361.425,1492.67 363.61,1437.56 365.795,1474.35 367.98,1589.77 370.165,1622.16 372.35,1552.4 374.535,1447.44 376.721,1574.76 378.906,1625.55 381.091,1651.08 383.276,1617.47 385.461,1546.27 387.646,1583.13 389.831,1606 392.016,1632.26 394.201,1606.21 396.386,1552.04 398.571,1549.59 400.756,1474.93 402.941,1579.52 405.126,1510.06 407.311,1396.52 409.496,1493.61 411.681,1566.11 413.866,1578.15 416.051,1497.94 418.236,1447.73 420.421,1448.38 422.607,1711.53 424.792,1594.24 426.977,1565.1 429.162,1578.15 431.347,1598.5 433.532,1495.27 435.717,1400.12 437.902,1373.79 440.087,1473.27 442.272,1268.36 444.457,1569.42 446.642,1490.29 448.827,1410.65 451.012,1138.23 453.197,1397.24 455.382,1578.23 457.567,1433.81 459.752,1419.96 461.937,1491.3 464.122,1457.9 466.307,1476.59 468.492,1381.94 470.678,1353.46 472.863,1395 475.048,1468 477.233,1615.16 479.418,1408.27 481.603,1451.05 483.788,1586.88 485.973,1722.57 488.158,1581.4 490.343,997.605 492.528,1309.3 494.713,1416.14 496.898,1651.37 499.083,1504.29 501.268,1513.59 503.453,1411.45 505.638,1594.6 507.823,1468 510.008,1529.68 512.193,1413.61 514.378,1560.98 516.563,1601.24 518.749,1697.25 520.934,1655.92 523.119,1564.95 525.304,1619.56 527.489,1728.12 529.674,1762.75 531.859,1608.67 534.044,1368.09 536.229,1403.95 538.414,1566.11 540.599,1534.29 542.784,1472.62 544.969,1563.22 547.154,1587.82 549.339,1784.46 551.524,1641.7 553.709,1546.05 555.894,1497 558.079,1649.64 560.264,1778.4 562.449,1576.21 564.634,1615.81 566.82,1595.83 569.005,1857.97 571.19,1754.16 573.375,1561.99 575.56,1614.58 577.745,1485.24 579.93,1202 582.115,1579.96 584.3,1527.08 586.485,1407.91 588.67,1266.01 590.855,1523.98 593.04,1624.32 595.225,1516.98 597.41,1543.53 599.595,1424.36 601.78,1060.03 603.965,1567.91 606.15,1933.05 608.335,1707.42 610.52,1619.56 612.706,1627.49 614.891,1470.17 617.076,1383.39 619.261,1376.25 621.446,1572.67 623.631,1631.75 625.816,1488.7 628.001,1432.29 630.186,1412.67 632.371,1537.18 634.556,1669.91 636.741,1517.13 638.926,1457.98 641.111,1506.16 643.296,1649.42 645.481,1726.03 647.666,1567.26 649.851,1414.98 652.036,1502.99 654.221,1703.81 656.406,1796.29 658.591,1651.8 660.777,1570.58 662.962,1585.29 665.147,1688.67 667.332,1777.61 669.517,1686 671.702,1613.14 673.887,1620.5 676.072,1679 678.257,1734.69 680.442,1630.45 682.627,1580.53 684.812,1670.41 686.997,1629.01 689.182,1774 691.367,1669.77 693.552,1686.65 695.737,1547.21 697.922,1718.1 700.107,1531.84 702.292,1383.1 704.477,1400.99 706.662,1354.39 708.848,1460.93 711.033,700.456 713.218,1191.28 715.403,852.143 717.588,935.64 719.773,710.216 721.958,1121.89 724.143,1217.69 726.328,1286 728.513,1323.59 730.698,1204.92 732.883,1533.79 735.068,1451.41 737.253,1191.15 739.438,1221.08 741.623,1442.83 743.808,1675.61 745.993,1496.13 748.178,1435.11 750.363,1152.21 752.548,1421.4 754.733,1642.64 756.919,1508.61 759.104,1334.26 761.289,1470.82 763.474,1447.73 765.659,1584.21 767.844,1431.57 770.029,1417.94 772.214,1397.6 774.399,1484.09 776.584,1583.92 778.769,1445.93 780.954,1406.18 783.139,1431.5 785.324,1572.53 787.509,1467.35 789.694,1403.66 791.879,1363.77 794.064,1287.16 796.249,1592.8 798.434,1666.52 800.619,1393.49 802.805,1340.61 804.99,1332.6 807.175,1417.07 809.36,1431.93 811.545,1422.27 813.73,1639.32 815.915,2085.84 818.1,1566.83 820.285,1452.71 822.47,1354.82 824.655,1389.45 826.84,1412.6 829.025,1514.1 831.21,1430.71 833.395,1108.41 835.58,1308.51 837.765,1481.42 839.95,1502.7 842.135,1395.58 844.32,1336.07 846.505,1291.49 848.69,1439.15 850.876,1472.62 853.061,1405.1 855.246,1310.67 857.431,1306.63 859.616,1159.84 861.801,2064.66 863.986,1811.15 866.171,1749.69 868.356,1720.04 870.541,1701.14 872.726,1537.11 874.911,1372.71 877.096,1290.4 879.281,1438.07 881.466,1473.77 883.651,1334.41 885.836,1444.77 888.021,1507.6 890.206,1453.86 892.391,1381.37 894.576,1312.41 896.761,1386.27 898.947,1420.03 901.132,1435.69 903.317,1314.79 905.502,1261.69 907.687,1411.52 909.872,1525.71 912.057,1074.72 914.242,924.964 916.427,1258.66 918.612,1395.58 920.797,1344.79 922.982,1099.03 925.167,1180.18 927.352,1341.91 929.537,1392.19 931.722,1545.48 933.907,1592.51 936.092,1504.72 938.277,1463.89 940.462,1401.35 942.647,1523.47 944.832,1343.86 947.018,1385.19 949.203,1363.98 951.388,1395.43 953.573,1437.42 955.758,1376.39 957.943,1377.54 960.128,1331.16 962.313,1231.76 964.498,1264.22 966.683,1269.99 968.868,1287.23 971.053,1363.26 973.238,1508.83 975.423,1440.88 977.608,1405.1 979.793,1509.84 981.978,1304.18 984.163,1538.19 986.348,1476.51 988.533,1440.52 990.718,1415.78 992.904,1484.95 995.089,1618.69 997.274,1499.16 999.459,1530.54 1001.64,1553.99 1003.83,1623.74 1006.01,1533 1008.2,1501.98 1010.38,1455.74 1012.57,1580.97 1014.75,1591.71 1016.94,1490.65 1019.12,1337.36 1021.31,1295.74 1023.49,1456.97 1025.68,1573.61 1027.86,1414.26 1030.05,1388.58 1032.23,1401.28 1034.42,1527.01 1036.6,1529.32 1038.79,1380.21 1040.97,1391.25 1043.16,1287.23 1045.34,1390.53 1047.53,1433.45 1049.71,1207.01 1051.9,1334.84 1054.08,1397.89 1056.27,1455.23 1058.45,1572.02 1060.64,1404.59 1062.82,1298.34 1065.01,1550.09 1067.2,1536.46 1069.38,1596.55 1071.57,1361.46 1073.75,1357.35 1075.94,1475.36 1078.12,1462.52 1080.31,1667.82 1082.49,1515.83 1084.68,1562.14 1086.86,1521.31 1089.05,1743.13 1091.23,1662.98 1093.42,1601.45 1095.6,1453.72 1097.79,1460.43 1099.97,1426.52 1102.16,1323.87 1104.34,1443.98 1106.53,1226.56 1108.71,1414.26 1110.9,1497.29 1113.08,1507.24 1115.27,1086.46 1117.45,1367.95 1119.64,1264.43 1121.82,1489.79 1124.01,1521.17 1126.19,1418.01 1128.38,1379.35 1130.56,1301.8 1132.75,1261.84 1134.93,1289.9 1137.12,928.795 1139.3,1005.03 1141.49,854.704 1143.67,1353.52 1145.86,1066.78 1148.04,1279.73 1150.23,1877.3 1152.41,1527.44 1154.6,1408.78 1156.78,1071.18 1158.97,881.048 1161.15,1222.31 1163.34,524.467 1165.52,1051.85 1167.71,530.454 1169.89,1129.32 1172.08,467.263 1174.26,760.163 1176.45,620.97 1178.63,379.647 1180.82,632.742 1183,1086.19 1185.19,1098.78 1187.37,1064.55 1189.56,903.497 1191.74,1175.56 1193.93,1272.3 1196.11,1353.52 1198.3,1289.61 1200.48,1306.71 1202.67,1193.96 1204.85,1447.73 1207.04,1634.13 1209.22,1445.71 1211.41,1275.4 1213.59,1296.1 1215.78,1469.08 1217.96,1444.2 1220.15,1437.92 1222.33,1405.75 1224.52,1391.39 1226.7,1608.88 1228.89,1648.27 1231.07,1438.5 1233.26,1554.71 1235.44,1464.9 1237.63,1711.03 1239.81,1451.41 1242,1392.04 1244.18,1370.98 1246.37,1527.37 1248.55,1566.25 1250.74,1526 1252.92,1771.12 1255.11,1522.25 1257.29,1464.97 1259.48,1659.45 1261.66,1336.86 1263.85,1299.06 1266.03,1282.47 1268.22,1088.57 1270.4,1385.55 1272.59,1176.98 1274.77,1190.5 1276.96,1191.58 1279.14,1294.52 1281.33,1139.73 1283.51,1097.15 1285.7,1177.94 1287.88,1173.9 1290.07,1057.46 1292.25,1244.6 1294.44,983.517 1296.62,1022.04 1298.81,874.015 1300.99,1044.33 1303.18,1515.97 1305.37,970.843 1307.55,1238.47 1309.74,1097.52 1311.92,1355.25 1314.11,1338.01 1316.29,1264.29 1318.48,1232.05 1320.66,1155.1 1322.85,1414.91 1325.03,1384.47 1327.22,1278.36 1329.4,1355.83 1331.59,1197.85 1333.77,1335.56 1335.96,1194.54 1338.14,1405.03 1340.33,1174.27 1342.51,1323.66 1344.7,1338.37 1346.88,1578.95 1349.07,1388.44 1351.25,1326.18 1353.44,1286.08 1355.62,1371.85 1357.81,1456.6 1359.99,1417.07 1362.18,1287.3 1364.36,639.667 1366.55,1208.31 1368.73,1246.4 1370.92,1268.33 1373.1,1407.77 1375.29,1917.65 1377.47,1218.99 1379.66,1308.15 1381.84,1235.65 1384.03,1479.98 1386.21,1486.54 1388.4,1429.05 1390.58,1453.72 1392.77,1454.8 1394.95,1476.3 1397.14,1421.84 1399.32,1464.54 1401.51,1478.82 1403.69,1338.59 1405.88,1382.09 1408.06,1095.83 1410.25,1579.6 1412.43,2051.21 1414.62,1861.65 1416.8,1834.74 1418.99,1618.77 1421.17,1596.62 1423.36,1495.13 1425.54,1566.11 1427.73,1346.02 1429.91,1267.18 1432.1,1323.15 1434.28,1256.28 1436.47,1310.31 1438.65,1374.59 1440.84,1386.78 1443.02,1348.76 1445.21,1274.82 1447.39,1402.07 1449.58,1418.66 1451.76,1255.92 1453.95,1123.37 1456.13,1245.82 1458.32,1346.02 1460.5,1329.29 1462.69,1230.96 1464.87,1292.35 1467.06,1243.13 1469.24,1473.99 1471.43,1334.7 1473.61,1335.27 1475.8,1349.63 1477.98,1460.79 1480.17,1488.63 1482.35,1439 1484.54,1472.55 1486.72,1307.5 1488.91,1368.6 1491.09,1479.54 1493.28,1605.93 1495.46,1520.44 1497.65,1373.22 1499.83,1495.13 1502.02,1311.54 1504.2,1390.38 1506.39,1452.85 1508.57,1391.18 1510.76,1509.77 1512.94,1475.36 1515.13,1420.46 1517.31,1444.63 1519.5,1394.64 1521.68,1476.51 1523.87,1351.94 1526.05,1213.22 1528.24,1071.62 1530.42,1269.56 1532.61,1155.21 1534.79,1260.03 1536.98,1318.97 1539.17,1343.71 1541.35,1022.99 1543.54,1449.1 1545.72,1419.96 1547.91,1429.84 1550.09,1492.46 1552.28,1496.71 1554.46,1303.03 1556.65,1327.48 1558.83,1235 1561.02,1415.56 1563.2,1486.47 1565.39,1304.11 1567.57,1490.65 1569.76,1448.6 1571.94,1461.87 1574.13,1558.32 1576.31,1565.96 1578.5,1328.49 1580.68,1236.59 1582.87,1349.84 1585.05,1574.84 1587.24,1205.14 1589.42,1179.17 1591.61,1192.95 1593.79,1418.23 1595.98,1463.53 1598.16,1281.31 1600.35,1091.66 1602.53,1373.72 1604.72,1260.61 1606.9,1338.52 1609.09,1191.87 1611.27,1276.77 1613.46,1386.63 1615.64,1425.23 1617.83,1387.21 1620.01,1358.86 1622.2,1370.62 1624.38,1293.51 1626.57,1295.81 1628.75,1389.45 1630.94,1295.96 1633.12,1330.22 1635.31,1336.93 1637.49,1515.47 1639.68,1276.7 1641.86,1257.22 1644.05,1165.75 1646.23,1163.59 1648.42,1182.56 1650.6,1335.71 1652.79,1214.16 1654.97,1160.49 1657.16,1056.54 1659.34,1439 1661.53,1461.8 1663.71,1285.35 1665.9,1261.48 1668.08,1464.54 1670.27,1410.94 1672.45,1314.43 1674.64,1307.79 1676.82,1278.07 1679.01,1156.95 1681.19,1373.29 1683.38,1380.36 1685.56,1329.21 1687.75,1381.01 1689.93,1467.28 1692.12,1236.88 1694.3,1328.49 1696.49,1285.86 1698.67,1822.12 1700.86,1350.93 1703.04,1252.39 1705.23,1214.66 1707.41,1324.52 1709.6,1507.03 1711.78,1336.64 1713.97,1286.36 1716.15,1182.92 1718.34,1183.35 1720.52,1397.02 1722.71,1477.09 1724.89,1343.28 1727.08,1398.82 1729.26,1257.22 1731.45,1373.72 1733.63,1423.42 1735.82,1293.36 1738,1377.76 1740.19,1221.87 1742.37,1378.7 1744.56,1430.56 1746.74,1406.76 1748.93,1306.27 1751.11,1379.64 1753.3,1597.99 1755.48,1644.45 1757.67,1565.02 1759.85,1509.84 1762.04,1525.71 1764.22,1922.77 1766.41,1568.41 1768.59,1443.62 1770.78,1508.4 1772.96,1366.8 1775.15,1437.63 1777.34,1680.87 1779.52,1531.55 1781.71,1623.38 1783.89,1541.29 1786.08,1700.06 1788.26,1321.06 1790.45,1173.11 1792.63,1333.04 1794.82,1324.88 1797,1444.56 1799.19,1361.24 1801.37,1240.56 1803.56,1418.16 1805.74,1489.71 1807.93,1551.32 1810.11,1369.61 1812.3,1416.49 1814.48,1300.65 1816.67,1286.36 1818.85,1459.35 1821.04,1442.83 1823.22,1259.39 1825.41,1278.14 1827.59,1319.62 1829.78,1396.08 1831.96,1234.5 1834.15,1251.96 1836.33,1466.2 1838.52,1248.93 1840.7,1641.85 1842.89,1458.84 1845.07,1471.1 1847.26,1243.01 1849.44,1582.48 1851.63,1631.25 1853.81,1464.32 1856,1284.56 1858.18,1359.15 1860.37,1406.54 1862.55,1535.95 1864.74,1301.22 1866.92,1193.6 1869.11,1224.54 1871.29,1357.27 1873.48,1392.26 1875.66,1206.58 1877.85,1254.62 1880.03,1206.22 1882.22,1300.57 1884.4,1387.64 1886.59,1359.22 1888.77,1370.62 1890.96,1333.04 1893.14,1342.7 1895.33,1484.74 1897.51,1543.24 1899.7,1408.49 1901.88,1384.18 1904.07,1403.58 1906.25,1390.46 1908.44,1404.88 1910.62,1425.15 1912.81,1424.79 1914.99,1462.95 1917.18,1442.03 1919.36,1419.74 1921.55,1589.98 1923.73,2030.36 1925.92,1389.95 1928.1,1384.04 1930.29,1341.84 1932.47,1326.4 1934.66,1468.65 1936.84,1502.56 1939.03,1324.67 1941.21,1340.18 1943.4,1342.27 1945.58,1499.53 1947.77,1284.78 1949.95,1265.23 1952.14,1341.84 1954.32,1242.15 1956.51,1186.31 1958.69,1478.89 1960.88,1555.65 1963.06,2008.11 1965.25,2124.96 1967.43,1618.04 1969.62,1651.37 1971.8,1640.62 1973.99,1549.95 1976.17,1243.37 1978.36,1303.75 1980.54,1151.98 1982.73,1034.03 1984.91,1140.58 1987.1,1292.42 1989.28,1230.6 1991.47,1289.25 1993.65,1159.12 1995.84,1140.29 1998.02,1156.81 2000.21,1113.96 2002.39,1160.05 2004.58,1255.63 2006.76,1313.78 2008.95,1174.91 2011.13,1053.08 2013.32,995.441 2015.51,1202.4 2017.69,1228.22 2019.88,1316.44 2022.06,1202.54 2024.25,1251.74 2026.43,1315.94 2028.62,1441.53 2030.8,1369.1 2032.99,1156.01 2035.17,1325.53 2037.36,1422.99 2039.54,1374.44 2041.73,1384.61 2043.91,1254.48 2046.1,1314.5 2048.28,1386.06 2050.47,1268.33 2052.65,1400.27 2054.84,1383.53 2057.02,1270.64 2059.21,1301.87 2061.39,1317.09 2063.58,1419.17 2065.76,1468.72 2067.95,1373.22 2070.13,1476.95 2072.32,1300.21 2074.5,1192.73 2076.69,1018.52 2078.87,1380.21 2081.06,1227.21 2083.24,1299.28 2085.43,1306.92 2087.61,1394.14 2089.8,1330.51 2091.98,1334.19 2094.17,1329.93 2096.35,1279.73 2098.54,1320.2 2100.72,1430.28 2102.91,1367.95 2105.09,1420.68 2107.28,1256 2109.46,1256 2111.65,1206.58 2113.83,1362.03 2116.02,1373.58 2118.2,1329.5 2120.39,1516.33 2122.57,1586.59 2124.76,1355.18 2126.94,1265.37 2129.13,1250.22 2131.31,1308.58 2133.5,1519.87 2135.68,1293.65 2137.87,1128.03 2140.05,1064.11 2142.24,1374.73 2144.42,1450.83 2146.61,1286.8 2148.79,1043.27 2150.98,1040.81 2153.16,1202.61 2155.35,1248.13 2157.53,1182.85 2159.72,1322.14 2161.9,1293.07 2164.09,1188.98 2166.27,997.966 2168.46,1275.4 2170.64,1157.24 2172.83,1363.91 2175.01,1418.16 2177.2,1350.2 2179.38,1405.82 2181.57,1264.72 2183.75,1508.25 2185.94,1473.92 2188.12,1496.35 2190.31,1266.82 2192.49,1393.99 2194.68,1337.65 2196.86,1535.95 2199.05,1488.78 2201.23,1478.89 2203.42,1492.82 2205.6,1577.29 2207.79,1507.68 2209.97,1523.19 2212.16,1460.79 2214.34,1544.61 2216.53,1531.05 2218.71,1410.94 2220.9,1538.98 2223.08,1446.43 2225.27,1299.35 2227.45,1571.08 2229.64,1384.69 2231.82,1340.03 2234.01,1375.6 2236.19,1074.07 2238.38,1404.67 2240.56,1389.95 2242.75,1318.68 2244.93,1302.88 2247.12,1599.14 2249.3,1456.1 2251.49,1423.42 2253.68,1371.12 2255.86,1526.07 2258.05,1577.79 2260.23,1516.41 2262.42,1327.19 2264.6,1365.64 2266.79,1335.63 2268.97,1429.7 2271.16,1338.88 2273.34,1170.3 2275.53,1169.36 2277.71,1417 2279.9,1362.25 2282.08,1219.86 2284.27,1260.61 2286.45,1278.07 2288.64,1445.35 2290.82,1461.37 2293.01,1416.42 2295.19,1394.14 2297.38,1373.79 2299.56,1284.63 2301.75,1598.42 2303.93,1483.29 2306.12,1364.42 2308.3,1368.24 2310.49,1534.15 2312.67,1511.72 2314.86,1467.28 2317.04,1456.68 2319.23,1480.55 2321.41,1516.26 2323.6,1644.66 2325.78,1593.73 2327.97,1521.82 2330.15,1643.44 2332.34,1771.98 2334.52,1773.64 2336.71,1560.77 2338.89,1557.96 2341.08,1575.05 2343.26,1715.16 2345.45,1505.8 2347.63,1482.79 2349.82,1392.62 2352,1472.04 2354.19,1444.2 2356.37,1512.94 2358.56,1475.79 2360.74,1578.3 2362.93,1355.61 2365.11,1517.92 2367.3,1426.02 2369.48,1386.42 2371.67,1453.94 2373.85,1476.23 2376.04,1470.38 2378.22,1374.37 2380.41,1369.83 2382.59,1120.88 2384.78,1240.49 2386.96,1275.26 2389.15,1358.64 2391.33,1359.87 2393.52,1337.65 2395.7,1450.11 2397.89,1701 2400.07,1429.55 2402.26,1266.45 2404.44,1307.36 2406.63,1195.11 2408.81,1391.18 2411,1128.46 2413.18,1165.83 2415.37,1174.99 2417.55,1321.71 2419.74,1385.98 2421.92,1166.04 2424.11,1125.29 2426.29,1207.3 2428.48,1299.2 2430.66,1374.87 2432.85,1185.09 2435.03,1106.82 2437.22,1095.85 2439.4,1137.91 2441.59,1401.71 2443.77,1335.27 2445.96,1296.68 2448.14,1376.97 2450.33,1276.99 2452.51,1333.47 2454.7,1397.6 2456.88,1166.91 2459.07,1331.02 2461.25,1280.59 2463.44,1377.18 2465.62,1351.5 2467.81,1552.55 2469.99,2017.83 2472.18,1387.43 2474.36,1261.19 2476.55,1103 2478.73,1101.48 2480.92,1251.67 2483.1,1404.81 2485.29,1275.33 2487.47,1281.6 2489.66,1209.83 2491.85,1340.39 2494.03,1345.88 2496.22,1267.75 2498.4,1158.54 2500.59,1087.77 2502.77,697.448 2504.96,1355.47 2507.14,1311.54 2509.33,1378.55 2511.51,1692.13 2513.7,1716.73 2515.88,1672.72 2518.07,1713.91 2520.25,1783.24 2522.44,1814.18 2524.62,1291.99 2526.81,1140.36 2528.99,1127.45 2531.18,1249.94 2533.36,1315.72 2535.55,1306.71 2537.73,1307.86 2539.92,1254.99 2542.1,1292.35 2544.29,1418.52 2546.47,1229.95 2548.66,1300.72 2550.84,1161.28 2553.03,1196.27 2555.21,1303.68 2557.4,1220.14 2559.58,1201.75 2561.77,1227.21 2563.95,1197.49 2566.14,1170.08 2568.32,1168.51 2570.51,1255.24 2572.69,1260.5 2574.88,1192.91 2577.06,1409.95 2579.25,1360.25 2581.43,1291.82 2583.62,1305.79 2585.8,1254.84 2587.99,1451.14 2590.17,1280.25 2592.36,1306.92 2594.54,1241.99 2596.73,1262.85 2598.91,1123.09 2601.1,1299 2603.28,1286.26 2605.47,1282.7 2607.65,1086.63 2609.84,1149.7 2612.02,1250.34 2614.21,1215.93 2616.39,1201.09 2618.58,1307.84 2620.76,1283.13 2622.95,1151.92 2625.13,1224.75 2627.32,1335.98 2629.5,1344.92 2631.69,1290.02 2633.87,1189.28 2636.06,1240.68 2638.24,690.689 2640.43,1069.35 2642.61,856.529 2644.8,761.021 2646.98,1139.84 2649.17,1122.17 2651.35,778.06 2653.54,869.052 2655.72,784.566 2657.91,817.417 2660.09,881.56 2662.28,1032.3 2664.46,1085.25 2666.65,1010.79 2668.83,1183.4 2671.02,1281.52 2673.2,953.653 2675.39,903.223 2677.57,682.992 2679.76,441.395 2681.94,808.775 2684.13,836.165 2686.31,782.532 2688.5,716.521 2690.68,906.007 2692.87,1086.96 2695.05,968.145 2697.24,829.803 2699.42,807.621 2701.61,677.712 2703.79,953.501 2705.98,818.622 2708.16,718.021 2710.35,941.195 2712.53,1150.32 2714.72,1042.24 2716.9,1018.7 2719.09,1058.15 2721.27,942.5 2723.46,803.062 2725.64,1042.36 2727.83,1020.43 2730.02,746.991 2732.2,1100.79 2734.39,1204.74 2736.57,1169.09 2738.76,1169.22 2740.94,1125.08 2743.13,1188.61 2745.31,1385.31 2747.5,1054.03 2749.68,1076.09 2751.87,1073.43 2754.05,1207.79 2756.24,1265.79 2758.42,1046.32 2760.61,1144.34 2762.79,1065.98 2764.98,1181.35 2767.16,1183.39 2769.35,1156.84 2771.53,1054.2 2773.72,1100.66 2775.9,645.244 2778.09,1145.03 2780.27,1140.58 2782.46,1066.6 2784.64,917.52 2786.83,636.998 2789.01,1127.65 2791.2,1103.28 2793.38,1105.53 2795.57,860.121 2797.75,1232.1 2799.94,1079.18 2802.12,1023.16 2804.31,973.411 2806.49,1010.65 2808.68,1049.98 2810.86,988.148 2813.05,1074.36 2815.23,903.966 2817.42,1143.68 2819.6,1240.56 2821.79,909.325 2823.97,893.412 2826.16,845.442 2828.34,1107.19 2830.53,1142.83 2832.71,986.583 2834.9,978.2 2837.08,937.891 2839.27,1090.88 2841.45,1143.34 2843.64,907.998 2845.82,939.117 2848.01,952.65 2850.19,989.396 2852.38,1080.39 2854.56,1013.03 2856.75,814.799 2858.93,981.259 2861.12,1148.8 2863.3,1254.42 2865.49,1068.65 2867.67,1040.71 2869.86,1077.48 2872.04,1257.37 2874.23,1212.26 2876.41,1170.93 2878.6,989.021 2880.78,1248.49 2882.97,1270.14 2885.15,1228.04 2887.34,999.358 2889.52,675.44 2891.71,773.292 2893.89,1198.68 2896.08,988.09 2898.26,890.267 2900.45,971.29 2902.63,944.47 2904.82,983.791 2907,879.692 2909.19,948.661 2911.37,881.87 2913.56,107.76 2915.74,883.89 2917.93,708.81 2920.11,543.691 2922.3,632.728 2924.48,958.565 2926.67,923.074 2928.85,956.221 2931.04,861.932 2933.22,812.057 2935.41,868.756 2937.59,868.778 2939.78,692.817 2941.96,544.679 2944.15,367.766 2946.33,848.154 2948.52,797.724 2950.7,723.388 2952.89,584.714 2955.07,685.798 2957.26,802.81 2959.44,899.738 2961.63,796.988 2963.81,431.563 2966,493.845 2968.19,599.401 2970.37,796.426 2972.56,713.7 2974.74,601.688 2976.93,653.9 2979.11,665.42 2981.3,529.754 2983.48,608.829 2985.67,471.598 2987.85,422.157 2990.04,902.667 2992.22,948.062 2994.41,964.314 2996.59,784.401 2998.78,666.098 3000.96,1102.75 3003.15,1011.4 3005.33,679.869 3007.52,851.4 3009.7,724.11 3011.89,612.119 3014.07,854.452 3016.26,728.885 3018.44,949.635 3020.63,1858.88 3022.81,926.912 3025,745.534 3027.18,668.817 3029.37,495.591 3031.55,848.515 3033.74,704.056 3035.92,859.22 3038.11,871.418 3040.29,810.485 3042.48,1013.91 3044.66,1028.15 3046.85,657.759 3049.03,834.131 3051.22,808.833 3053.4,517.693 3055.59,788.476 3057.77,941.491 3059.96,892.092 3062.14,1019.53 3064.33,1454.29 3066.51,1270.59 3068.7,1355.79 3070.88,1384.51 "/>
</svg>
