<?xml version="1.0" encoding="utf-8" standalone="no"?>
<!DOCTYPE svg PUBLIC "-//W3C//DTD SVG 1.1//EN"
  "http://www.w3.org/Graphics/SVG/1.1/DTD/svg11.dtd">
<!-- Created with matplotlib (https://matplotlib.org/) -->
<svg height="432pt" version="1.1" viewBox="0 0 576 432" width="576pt" xmlns="http://www.w3.org/2000/svg" xmlns:xlink="http://www.w3.org/1999/xlink">
 <metadata>
  <rdf:RDF xmlns:cc="http://creativecommons.org/ns#" xmlns:dc="http://purl.org/dc/elements/1.1/" xmlns:rdf="http://www.w3.org/1999/02/22-rdf-syntax-ns#">
   <cc:Work>
    <dc:type rdf:resource="http://purl.org/dc/dcmitype/StillImage"/>
    <dc:date>2021-04-20T12:28:22.492028</dc:date>
    <dc:format>image/svg+xml</dc:format>
    <dc:creator>
     <cc:Agent>
      <dc:title>Matplotlib v3.3.4, https://matplotlib.org/</dc:title>
     </cc:Agent>
    </dc:creator>
   </cc:Work>
  </rdf:RDF>
 </metadata>
 <defs>
  <style type="text/css">*{stroke-linecap:butt;stroke-linejoin:round;}</style>
 </defs>
 <g id="figure_1">
  <g id="patch_1">
   <path d="M 0 432 
L 576 432 
L 576 0 
L 0 0 
z
" style="fill:#ffffff;"/>
  </g>
  <g id="axes_1">
   <g id="patch_2">
    <path d="M 72 384.48 
L 518.4 384.48 
L 518.4 51.84 
L 72 51.84 
z
" style="fill:#ffffff;"/>
   </g>
   <g id="matplotlib.axis_1">
    <g id="xtick_1">
     <g id="line2d_1">
      <defs>
       <path d="M 0 0 
L 0 3.5 
" id="m7cfb160bff" style="stroke:#000000;stroke-width:0.8;"/>
      </defs>
      <g>
       <use style="stroke:#000000;stroke-width:0.8;" x="92.290909" xlink:href="#m7cfb160bff" y="384.48"/>
      </g>
     </g>
     <g id="text_1">
      <!-- 0 -->
      <g transform="translate(88.473409 400.598125)scale(0.12 -0.12)">
       <defs>
        <path d="M 31.78125 66.40625 
Q 24.171875 66.40625 20.328125 58.90625 
Q 16.5 51.421875 16.5 36.375 
Q 16.5 21.390625 20.328125 13.890625 
Q 24.171875 6.390625 31.78125 6.390625 
Q 39.453125 6.390625 43.28125 13.890625 
Q 47.125 21.390625 47.125 36.375 
Q 47.125 51.421875 43.28125 58.90625 
Q 39.453125 66.40625 31.78125 66.40625 
z
M 31.78125 74.21875 
Q 44.046875 74.21875 50.515625 64.515625 
Q 56.984375 54.828125 56.984375 36.375 
Q 56.984375 17.96875 50.515625 8.265625 
Q 44.046875 -1.421875 31.78125 -1.421875 
Q 19.53125 -1.421875 13.0625 8.265625 
Q 6.59375 17.96875 6.59375 36.375 
Q 6.59375 54.828125 13.0625 64.515625 
Q 19.53125 74.21875 31.78125 74.21875 
z
" id="DejaVuSans-48"/>
       </defs>
       <use xlink:href="#DejaVuSans-48"/>
      </g>
     </g>
    </g>
    <g id="xtick_2">
     <g id="line2d_2">
      <g>
       <use style="stroke:#000000;stroke-width:0.8;" x="157.273804" xlink:href="#m7cfb160bff" y="384.48"/>
      </g>
     </g>
     <g id="text_2">
      <!-- 200 -->
      <g transform="translate(145.821304 400.598125)scale(0.12 -0.12)">
       <defs>
        <path d="M 19.1875 8.296875 
L 53.609375 8.296875 
L 53.609375 0 
L 7.328125 0 
L 7.328125 8.296875 
Q 12.9375 14.109375 22.625 23.890625 
Q 32.328125 33.6875 34.8125 36.53125 
Q 39.546875 41.84375 41.421875 45.53125 
Q 43.3125 49.21875 43.3125 52.78125 
Q 43.3125 58.59375 39.234375 62.25 
Q 35.15625 65.921875 28.609375 65.921875 
Q 23.96875 65.921875 18.8125 64.3125 
Q 13.671875 62.703125 7.8125 59.421875 
L 7.8125 69.390625 
Q 13.765625 71.78125 18.9375 73 
Q 24.125 74.21875 28.421875 74.21875 
Q 39.75 74.21875 46.484375 68.546875 
Q 53.21875 62.890625 53.21875 53.421875 
Q 53.21875 48.921875 51.53125 44.890625 
Q 49.859375 40.875 45.40625 35.40625 
Q 44.1875 33.984375 37.640625 27.21875 
Q 31.109375 20.453125 19.1875 8.296875 
z
" id="DejaVuSans-50"/>
       </defs>
       <use xlink:href="#DejaVuSans-50"/>
       <use x="63.623047" xlink:href="#DejaVuSans-48"/>
       <use x="127.246094" xlink:href="#DejaVuSans-48"/>
      </g>
     </g>
    </g>
    <g id="xtick_3">
     <g id="line2d_3">
      <g>
       <use style="stroke:#000000;stroke-width:0.8;" x="222.2567" xlink:href="#m7cfb160bff" y="384.48"/>
      </g>
     </g>
     <g id="text_3">
      <!-- 400 -->
      <g transform="translate(210.8042 400.598125)scale(0.12 -0.12)">
       <defs>
        <path d="M 37.796875 64.3125 
L 12.890625 25.390625 
L 37.796875 25.390625 
z
M 35.203125 72.90625 
L 47.609375 72.90625 
L 47.609375 25.390625 
L 58.015625 25.390625 
L 58.015625 17.1875 
L 47.609375 17.1875 
L 47.609375 0 
L 37.796875 0 
L 37.796875 17.1875 
L 4.890625 17.1875 
L 4.890625 26.703125 
z
" id="DejaVuSans-52"/>
       </defs>
       <use xlink:href="#DejaVuSans-52"/>
       <use x="63.623047" xlink:href="#DejaVuSans-48"/>
       <use x="127.246094" xlink:href="#DejaVuSans-48"/>
      </g>
     </g>
    </g>
    <g id="xtick_4">
     <g id="line2d_4">
      <g>
       <use style="stroke:#000000;stroke-width:0.8;" x="287.239595" xlink:href="#m7cfb160bff" y="384.48"/>
      </g>
     </g>
     <g id="text_4">
      <!-- 600 -->
      <g transform="translate(275.787095 400.598125)scale(0.12 -0.12)">
       <defs>
        <path d="M 33.015625 40.375 
Q 26.375 40.375 22.484375 35.828125 
Q 18.609375 31.296875 18.609375 23.390625 
Q 18.609375 15.53125 22.484375 10.953125 
Q 26.375 6.390625 33.015625 6.390625 
Q 39.65625 6.390625 43.53125 10.953125 
Q 47.40625 15.53125 47.40625 23.390625 
Q 47.40625 31.296875 43.53125 35.828125 
Q 39.65625 40.375 33.015625 40.375 
z
M 52.59375 71.296875 
L 52.59375 62.3125 
Q 48.875 64.0625 45.09375 64.984375 
Q 41.3125 65.921875 37.59375 65.921875 
Q 27.828125 65.921875 22.671875 59.328125 
Q 17.53125 52.734375 16.796875 39.40625 
Q 19.671875 43.65625 24.015625 45.921875 
Q 28.375 48.1875 33.59375 48.1875 
Q 44.578125 48.1875 50.953125 41.515625 
Q 57.328125 34.859375 57.328125 23.390625 
Q 57.328125 12.15625 50.6875 5.359375 
Q 44.046875 -1.421875 33.015625 -1.421875 
Q 20.359375 -1.421875 13.671875 8.265625 
Q 6.984375 17.96875 6.984375 36.375 
Q 6.984375 53.65625 15.1875 63.9375 
Q 23.390625 74.21875 37.203125 74.21875 
Q 40.921875 74.21875 44.703125 73.484375 
Q 48.484375 72.75 52.59375 71.296875 
z
" id="DejaVuSans-54"/>
       </defs>
       <use xlink:href="#DejaVuSans-54"/>
       <use x="63.623047" xlink:href="#DejaVuSans-48"/>
       <use x="127.246094" xlink:href="#DejaVuSans-48"/>
      </g>
     </g>
    </g>
    <g id="xtick_5">
     <g id="line2d_5">
      <g>
       <use style="stroke:#000000;stroke-width:0.8;" x="352.222491" xlink:href="#m7cfb160bff" y="384.48"/>
      </g>
     </g>
     <g id="text_5">
      <!-- 800 -->
      <g transform="translate(340.769991 400.598125)scale(0.12 -0.12)">
       <defs>
        <path d="M 31.78125 34.625 
Q 24.75 34.625 20.71875 30.859375 
Q 16.703125 27.09375 16.703125 20.515625 
Q 16.703125 13.921875 20.71875 10.15625 
Q 24.75 6.390625 31.78125 6.390625 
Q 38.8125 6.390625 42.859375 10.171875 
Q 46.921875 13.96875 46.921875 20.515625 
Q 46.921875 27.09375 42.890625 30.859375 
Q 38.875 34.625 31.78125 34.625 
z
M 21.921875 38.8125 
Q 15.578125 40.375 12.03125 44.71875 
Q 8.5 49.078125 8.5 55.328125 
Q 8.5 64.0625 14.71875 69.140625 
Q 20.953125 74.21875 31.78125 74.21875 
Q 42.671875 74.21875 48.875 69.140625 
Q 55.078125 64.0625 55.078125 55.328125 
Q 55.078125 49.078125 51.53125 44.71875 
Q 48 40.375 41.703125 38.8125 
Q 48.828125 37.15625 52.796875 32.3125 
Q 56.78125 27.484375 56.78125 20.515625 
Q 56.78125 9.90625 50.3125 4.234375 
Q 43.84375 -1.421875 31.78125 -1.421875 
Q 19.734375 -1.421875 13.25 4.234375 
Q 6.78125 9.90625 6.78125 20.515625 
Q 6.78125 27.484375 10.78125 32.3125 
Q 14.796875 37.15625 21.921875 38.8125 
z
M 18.3125 54.390625 
Q 18.3125 48.734375 21.84375 45.5625 
Q 25.390625 42.390625 31.78125 42.390625 
Q 38.140625 42.390625 41.71875 45.5625 
Q 45.3125 48.734375 45.3125 54.390625 
Q 45.3125 60.0625 41.71875 63.234375 
Q 38.140625 66.40625 31.78125 66.40625 
Q 25.390625 66.40625 21.84375 63.234375 
Q 18.3125 60.0625 18.3125 54.390625 
z
" id="DejaVuSans-56"/>
       </defs>
       <use xlink:href="#DejaVuSans-56"/>
       <use x="63.623047" xlink:href="#DejaVuSans-48"/>
       <use x="127.246094" xlink:href="#DejaVuSans-48"/>
      </g>
     </g>
    </g>
    <g id="xtick_6">
     <g id="line2d_6">
      <g>
       <use style="stroke:#000000;stroke-width:0.8;" x="417.205386" xlink:href="#m7cfb160bff" y="384.48"/>
      </g>
     </g>
     <g id="text_6">
      <!-- 1000 -->
      <g transform="translate(401.935386 400.598125)scale(0.12 -0.12)">
       <defs>
        <path d="M 12.40625 8.296875 
L 28.515625 8.296875 
L 28.515625 63.921875 
L 10.984375 60.40625 
L 10.984375 69.390625 
L 28.421875 72.90625 
L 38.28125 72.90625 
L 38.28125 8.296875 
L 54.390625 8.296875 
L 54.390625 0 
L 12.40625 0 
z
" id="DejaVuSans-49"/>
       </defs>
       <use xlink:href="#DejaVuSans-49"/>
       <use x="63.623047" xlink:href="#DejaVuSans-48"/>
       <use x="127.246094" xlink:href="#DejaVuSans-48"/>
       <use x="190.869141" xlink:href="#DejaVuSans-48"/>
      </g>
     </g>
    </g>
    <g id="xtick_7">
     <g id="line2d_7">
      <g>
       <use style="stroke:#000000;stroke-width:0.8;" x="482.188282" xlink:href="#m7cfb160bff" y="384.48"/>
      </g>
     </g>
     <g id="text_7">
      <!-- 1200 -->
      <g transform="translate(466.918282 400.598125)scale(0.12 -0.12)">
       <use xlink:href="#DejaVuSans-49"/>
       <use x="63.623047" xlink:href="#DejaVuSans-50"/>
       <use x="127.246094" xlink:href="#DejaVuSans-48"/>
       <use x="190.869141" xlink:href="#DejaVuSans-48"/>
      </g>
     </g>
    </g>
    <g id="text_8">
     <!-- Tick number -->
     <g transform="translate(251.751875 417.731562)scale(0.14 -0.14)">
      <defs>
       <path d="M -0.296875 72.90625 
L 61.375 72.90625 
L 61.375 64.59375 
L 35.5 64.59375 
L 35.5 0 
L 25.59375 0 
L 25.59375 64.59375 
L -0.296875 64.59375 
z
" id="DejaVuSans-84"/>
       <path d="M 9.421875 54.6875 
L 18.40625 54.6875 
L 18.40625 0 
L 9.421875 0 
z
M 9.421875 75.984375 
L 18.40625 75.984375 
L 18.40625 64.59375 
L 9.421875 64.59375 
z
" id="DejaVuSans-105"/>
       <path d="M 48.78125 52.59375 
L 48.78125 44.1875 
Q 44.96875 46.296875 41.140625 47.34375 
Q 37.3125 48.390625 33.40625 48.390625 
Q 24.65625 48.390625 19.8125 42.84375 
Q 14.984375 37.3125 14.984375 27.296875 
Q 14.984375 17.28125 19.8125 11.734375 
Q 24.65625 6.203125 33.40625 6.203125 
Q 37.3125 6.203125 41.140625 7.25 
Q 44.96875 8.296875 48.78125 10.40625 
L 48.78125 2.09375 
Q 45.015625 0.34375 40.984375 -0.53125 
Q 36.96875 -1.421875 32.421875 -1.421875 
Q 20.0625 -1.421875 12.78125 6.34375 
Q 5.515625 14.109375 5.515625 27.296875 
Q 5.515625 40.671875 12.859375 48.328125 
Q 20.21875 56 33.015625 56 
Q 37.15625 56 41.109375 55.140625 
Q 45.0625 54.296875 48.78125 52.59375 
z
" id="DejaVuSans-99"/>
       <path d="M 9.078125 75.984375 
L 18.109375 75.984375 
L 18.109375 31.109375 
L 44.921875 54.6875 
L 56.390625 54.6875 
L 27.390625 29.109375 
L 57.625 0 
L 45.90625 0 
L 18.109375 26.703125 
L 18.109375 0 
L 9.078125 0 
z
" id="DejaVuSans-107"/>
       <path id="DejaVuSans-32"/>
       <path d="M 54.890625 33.015625 
L 54.890625 0 
L 45.90625 0 
L 45.90625 32.71875 
Q 45.90625 40.484375 42.875 44.328125 
Q 39.84375 48.1875 33.796875 48.1875 
Q 26.515625 48.1875 22.3125 43.546875 
Q 18.109375 38.921875 18.109375 30.90625 
L 18.109375 0 
L 9.078125 0 
L 9.078125 54.6875 
L 18.109375 54.6875 
L 18.109375 46.1875 
Q 21.34375 51.125 25.703125 53.5625 
Q 30.078125 56 35.796875 56 
Q 45.21875 56 50.046875 50.171875 
Q 54.890625 44.34375 54.890625 33.015625 
z
" id="DejaVuSans-110"/>
       <path d="M 8.5 21.578125 
L 8.5 54.6875 
L 17.484375 54.6875 
L 17.484375 21.921875 
Q 17.484375 14.15625 20.5 10.265625 
Q 23.53125 6.390625 29.59375 6.390625 
Q 36.859375 6.390625 41.078125 11.03125 
Q 45.3125 15.671875 45.3125 23.6875 
L 45.3125 54.6875 
L 54.296875 54.6875 
L 54.296875 0 
L 45.3125 0 
L 45.3125 8.40625 
Q 42.046875 3.421875 37.71875 1 
Q 33.40625 -1.421875 27.6875 -1.421875 
Q 18.265625 -1.421875 13.375 4.4375 
Q 8.5 10.296875 8.5 21.578125 
z
M 31.109375 56 
z
" id="DejaVuSans-117"/>
       <path d="M 52 44.1875 
Q 55.375 50.25 60.0625 53.125 
Q 64.75 56 71.09375 56 
Q 79.640625 56 84.28125 50.015625 
Q 88.921875 44.046875 88.921875 33.015625 
L 88.921875 0 
L 79.890625 0 
L 79.890625 32.71875 
Q 79.890625 40.578125 77.09375 44.375 
Q 74.3125 48.1875 68.609375 48.1875 
Q 61.625 48.1875 57.5625 43.546875 
Q 53.515625 38.921875 53.515625 30.90625 
L 53.515625 0 
L 44.484375 0 
L 44.484375 32.71875 
Q 44.484375 40.625 41.703125 44.40625 
Q 38.921875 48.1875 33.109375 48.1875 
Q 26.21875 48.1875 22.15625 43.53125 
Q 18.109375 38.875 18.109375 30.90625 
L 18.109375 0 
L 9.078125 0 
L 9.078125 54.6875 
L 18.109375 54.6875 
L 18.109375 46.1875 
Q 21.1875 51.21875 25.484375 53.609375 
Q 29.78125 56 35.6875 56 
Q 41.65625 56 45.828125 52.96875 
Q 50 49.953125 52 44.1875 
z
" id="DejaVuSans-109"/>
       <path d="M 48.6875 27.296875 
Q 48.6875 37.203125 44.609375 42.84375 
Q 40.53125 48.484375 33.40625 48.484375 
Q 26.265625 48.484375 22.1875 42.84375 
Q 18.109375 37.203125 18.109375 27.296875 
Q 18.109375 17.390625 22.1875 11.75 
Q 26.265625 6.109375 33.40625 6.109375 
Q 40.53125 6.109375 44.609375 11.75 
Q 48.6875 17.390625 48.6875 27.296875 
z
M 18.109375 46.390625 
Q 20.953125 51.265625 25.265625 53.625 
Q 29.59375 56 35.59375 56 
Q 45.5625 56 51.78125 48.09375 
Q 58.015625 40.1875 58.015625 27.296875 
Q 58.015625 14.40625 51.78125 6.484375 
Q 45.5625 -1.421875 35.59375 -1.421875 
Q 29.59375 -1.421875 25.265625 0.953125 
Q 20.953125 3.328125 18.109375 8.203125 
L 18.109375 0 
L 9.078125 0 
L 9.078125 75.984375 
L 18.109375 75.984375 
z
" id="DejaVuSans-98"/>
       <path d="M 56.203125 29.59375 
L 56.203125 25.203125 
L 14.890625 25.203125 
Q 15.484375 15.921875 20.484375 11.0625 
Q 25.484375 6.203125 34.421875 6.203125 
Q 39.59375 6.203125 44.453125 7.46875 
Q 49.3125 8.734375 54.109375 11.28125 
L 54.109375 2.78125 
Q 49.265625 0.734375 44.1875 -0.34375 
Q 39.109375 -1.421875 33.890625 -1.421875 
Q 20.796875 -1.421875 13.15625 6.1875 
Q 5.515625 13.8125 5.515625 26.8125 
Q 5.515625 40.234375 12.765625 48.109375 
Q 20.015625 56 32.328125 56 
Q 43.359375 56 49.78125 48.890625 
Q 56.203125 41.796875 56.203125 29.59375 
z
M 47.21875 32.234375 
Q 47.125 39.59375 43.09375 43.984375 
Q 39.0625 48.390625 32.421875 48.390625 
Q 24.90625 48.390625 20.390625 44.140625 
Q 15.875 39.890625 15.1875 32.171875 
z
" id="DejaVuSans-101"/>
       <path d="M 41.109375 46.296875 
Q 39.59375 47.171875 37.8125 47.578125 
Q 36.03125 48 33.890625 48 
Q 26.265625 48 22.1875 43.046875 
Q 18.109375 38.09375 18.109375 28.8125 
L 18.109375 0 
L 9.078125 0 
L 9.078125 54.6875 
L 18.109375 54.6875 
L 18.109375 46.1875 
Q 20.953125 51.171875 25.484375 53.578125 
Q 30.03125 56 36.53125 56 
Q 37.453125 56 38.578125 55.875 
Q 39.703125 55.765625 41.0625 55.515625 
z
" id="DejaVuSans-114"/>
      </defs>
      <use xlink:href="#DejaVuSans-84"/>
      <use x="57.958984" xlink:href="#DejaVuSans-105"/>
      <use x="85.742188" xlink:href="#DejaVuSans-99"/>
      <use x="140.722656" xlink:href="#DejaVuSans-107"/>
      <use x="198.632812" xlink:href="#DejaVuSans-32"/>
      <use x="230.419922" xlink:href="#DejaVuSans-110"/>
      <use x="293.798828" xlink:href="#DejaVuSans-117"/>
      <use x="357.177734" xlink:href="#DejaVuSans-109"/>
      <use x="454.589844" xlink:href="#DejaVuSans-98"/>
      <use x="518.066406" xlink:href="#DejaVuSans-101"/>
      <use x="579.589844" xlink:href="#DejaVuSans-114"/>
     </g>
    </g>
   </g>
   <g id="matplotlib.axis_2">
    <g id="ytick_1">
     <g id="line2d_8">
      <defs>
       <path d="M 0 0 
L -3.5 0 
" id="mab6926f471" style="stroke:#000000;stroke-width:0.8;"/>
      </defs>
      <g>
       <use style="stroke:#000000;stroke-width:0.8;" x="72" xlink:href="#mab6926f471" y="353.795549"/>
      </g>
     </g>
     <g id="text_9">
      <!-- 0.5 -->
      <g transform="translate(45.91625 358.354611)scale(0.12 -0.12)">
       <defs>
        <path d="M 10.6875 12.40625 
L 21 12.40625 
L 21 0 
L 10.6875 0 
z
" id="DejaVuSans-46"/>
        <path d="M 10.796875 72.90625 
L 49.515625 72.90625 
L 49.515625 64.59375 
L 19.828125 64.59375 
L 19.828125 46.734375 
Q 21.96875 47.46875 24.109375 47.828125 
Q 26.265625 48.1875 28.421875 48.1875 
Q 40.625 48.1875 47.75 41.5 
Q 54.890625 34.8125 54.890625 23.390625 
Q 54.890625 11.625 47.5625 5.09375 
Q 40.234375 -1.421875 26.90625 -1.421875 
Q 22.3125 -1.421875 17.546875 -0.640625 
Q 12.796875 0.140625 7.71875 1.703125 
L 7.71875 11.625 
Q 12.109375 9.234375 16.796875 8.0625 
Q 21.484375 6.890625 26.703125 6.890625 
Q 35.15625 6.890625 40.078125 11.328125 
Q 45.015625 15.765625 45.015625 23.390625 
Q 45.015625 31 40.078125 35.4375 
Q 35.15625 39.890625 26.703125 39.890625 
Q 22.75 39.890625 18.8125 39.015625 
Q 14.890625 38.140625 10.796875 36.28125 
z
" id="DejaVuSans-53"/>
       </defs>
       <use xlink:href="#DejaVuSans-48"/>
       <use x="63.623047" xlink:href="#DejaVuSans-46"/>
       <use x="95.410156" xlink:href="#DejaVuSans-53"/>
      </g>
     </g>
    </g>
    <g id="ytick_2">
     <g id="line2d_9">
      <g>
       <use style="stroke:#000000;stroke-width:0.8;" x="72" xlink:href="#mab6926f471" y="299.726031"/>
      </g>
     </g>
     <g id="text_10">
      <!-- 1.0 -->
      <g transform="translate(45.91625 304.285093)scale(0.12 -0.12)">
       <use xlink:href="#DejaVuSans-49"/>
       <use x="63.623047" xlink:href="#DejaVuSans-46"/>
       <use x="95.410156" xlink:href="#DejaVuSans-48"/>
      </g>
     </g>
    </g>
    <g id="ytick_3">
     <g id="line2d_10">
      <g>
       <use style="stroke:#000000;stroke-width:0.8;" x="72" xlink:href="#mab6926f471" y="245.656513"/>
      </g>
     </g>
     <g id="text_11">
      <!-- 1.5 -->
      <g transform="translate(45.91625 250.215575)scale(0.12 -0.12)">
       <use xlink:href="#DejaVuSans-49"/>
       <use x="63.623047" xlink:href="#DejaVuSans-46"/>
       <use x="95.410156" xlink:href="#DejaVuSans-53"/>
      </g>
     </g>
    </g>
    <g id="ytick_4">
     <g id="line2d_11">
      <g>
       <use style="stroke:#000000;stroke-width:0.8;" x="72" xlink:href="#mab6926f471" y="191.586995"/>
      </g>
     </g>
     <g id="text_12">
      <!-- 2.0 -->
      <g transform="translate(45.91625 196.146057)scale(0.12 -0.12)">
       <use xlink:href="#DejaVuSans-50"/>
       <use x="63.623047" xlink:href="#DejaVuSans-46"/>
       <use x="95.410156" xlink:href="#DejaVuSans-48"/>
      </g>
     </g>
    </g>
    <g id="ytick_5">
     <g id="line2d_12">
      <g>
       <use style="stroke:#000000;stroke-width:0.8;" x="72" xlink:href="#mab6926f471" y="137.517477"/>
      </g>
     </g>
     <g id="text_13">
      <!-- 2.5 -->
      <g transform="translate(45.91625 142.076539)scale(0.12 -0.12)">
       <use xlink:href="#DejaVuSans-50"/>
       <use x="63.623047" xlink:href="#DejaVuSans-46"/>
       <use x="95.410156" xlink:href="#DejaVuSans-53"/>
      </g>
     </g>
    </g>
    <g id="ytick_6">
     <g id="line2d_13">
      <g>
       <use style="stroke:#000000;stroke-width:0.8;" x="72" xlink:href="#mab6926f471" y="83.447959"/>
      </g>
     </g>
     <g id="text_14">
      <!-- 3.0 -->
      <g transform="translate(45.91625 88.007021)scale(0.12 -0.12)">
       <defs>
        <path d="M 40.578125 39.3125 
Q 47.65625 37.796875 51.625 33 
Q 55.609375 28.21875 55.609375 21.1875 
Q 55.609375 10.40625 48.1875 4.484375 
Q 40.765625 -1.421875 27.09375 -1.421875 
Q 22.515625 -1.421875 17.65625 -0.515625 
Q 12.796875 0.390625 7.625 2.203125 
L 7.625 11.71875 
Q 11.71875 9.328125 16.59375 8.109375 
Q 21.484375 6.890625 26.8125 6.890625 
Q 36.078125 6.890625 40.9375 10.546875 
Q 45.796875 14.203125 45.796875 21.1875 
Q 45.796875 27.640625 41.28125 31.265625 
Q 36.765625 34.90625 28.71875 34.90625 
L 20.21875 34.90625 
L 20.21875 43.015625 
L 29.109375 43.015625 
Q 36.375 43.015625 40.234375 45.921875 
Q 44.09375 48.828125 44.09375 54.296875 
Q 44.09375 59.90625 40.109375 62.90625 
Q 36.140625 65.921875 28.71875 65.921875 
Q 24.65625 65.921875 20.015625 65.03125 
Q 15.375 64.15625 9.8125 62.3125 
L 9.8125 71.09375 
Q 15.4375 72.65625 20.34375 73.4375 
Q 25.25 74.21875 29.59375 74.21875 
Q 40.828125 74.21875 47.359375 69.109375 
Q 53.90625 64.015625 53.90625 55.328125 
Q 53.90625 49.265625 50.4375 45.09375 
Q 46.96875 40.921875 40.578125 39.3125 
z
" id="DejaVuSans-51"/>
       </defs>
       <use xlink:href="#DejaVuSans-51"/>
       <use x="63.623047" xlink:href="#DejaVuSans-46"/>
       <use x="95.410156" xlink:href="#DejaVuSans-48"/>
      </g>
     </g>
    </g>
    <g id="text_15">
     <!-- Volume -->
     <g transform="translate(39.004688 244.195625)rotate(-90)scale(0.14 -0.14)">
      <defs>
       <path d="M 28.609375 0 
L 0.78125 72.90625 
L 11.078125 72.90625 
L 34.1875 11.53125 
L 57.328125 72.90625 
L 67.578125 72.90625 
L 39.796875 0 
z
" id="DejaVuSans-86"/>
       <path d="M 30.609375 48.390625 
Q 23.390625 48.390625 19.1875 42.75 
Q 14.984375 37.109375 14.984375 27.296875 
Q 14.984375 17.484375 19.15625 11.84375 
Q 23.34375 6.203125 30.609375 6.203125 
Q 37.796875 6.203125 41.984375 11.859375 
Q 46.1875 17.53125 46.1875 27.296875 
Q 46.1875 37.015625 41.984375 42.703125 
Q 37.796875 48.390625 30.609375 48.390625 
z
M 30.609375 56 
Q 42.328125 56 49.015625 48.375 
Q 55.71875 40.765625 55.71875 27.296875 
Q 55.71875 13.875 49.015625 6.21875 
Q 42.328125 -1.421875 30.609375 -1.421875 
Q 18.84375 -1.421875 12.171875 6.21875 
Q 5.515625 13.875 5.515625 27.296875 
Q 5.515625 40.765625 12.171875 48.375 
Q 18.84375 56 30.609375 56 
z
" id="DejaVuSans-111"/>
       <path d="M 9.421875 75.984375 
L 18.40625 75.984375 
L 18.40625 0 
L 9.421875 0 
z
" id="DejaVuSans-108"/>
      </defs>
      <use xlink:href="#DejaVuSans-86"/>
      <use x="60.658203" xlink:href="#DejaVuSans-111"/>
      <use x="121.839844" xlink:href="#DejaVuSans-108"/>
      <use x="149.623047" xlink:href="#DejaVuSans-117"/>
      <use x="213.001953" xlink:href="#DejaVuSans-109"/>
      <use x="310.414062" xlink:href="#DejaVuSans-101"/>
     </g>
    </g>
   </g>
   <g id="line2d_14">
    <path clip-path="url(#pea98e33771)" d="M 92.290909 279.039033 
L 92.940738 255.259259 
L 93.265653 269.879657 
L 93.590567 277.481831 
L 94.240396 251.60416 
L 94.56531 255.626932 
L 94.890225 281.991229 
L 95.540054 266.311069 
L 95.864968 271.826159 
L 96.189883 289.128405 
L 96.514797 293.983848 
L 96.839712 283.526803 
L 97.164626 267.792573 
L 97.489541 286.879113 
L 97.814455 294.492101 
L 98.13937 298.320223 
L 98.464284 293.280944 
L 98.789199 282.607621 
L 99.114113 288.133526 
L 99.763942 295.497794 
L 100.088857 291.593975 
L 100.413771 283.472734 
L 100.738685 283.105061 
L 101.0636 271.912671 
L 101.388514 287.592831 
L 101.713429 277.179042 
L 102.038343 260.157957 
L 102.688172 285.581445 
L 103.013087 287.387367 
L 103.338001 275.362306 
L 103.662916 267.835829 
L 103.98783 267.933154 
L 104.312745 307.382274 
L 104.637659 289.798867 
L 104.962574 285.43005 
L 105.287488 287.387367 
L 105.612403 290.436887 
L 106.262232 260.698653 
L 106.587146 256.751578 
L 106.912061 271.663951 
L 107.236975 240.945976 
L 107.56189 286.078884 
L 108.211718 262.277482 
L 108.536633 221.438776 
L 109.186462 287.398181 
L 109.511376 265.748746 
L 109.836291 263.672476 
L 110.161205 274.367427 
L 110.48612 269.360589 
L 110.811034 272.16139 
L 111.135949 257.973549 
L 111.460863 253.703138 
L 111.785778 259.930865 
L 112.110692 270.874536 
L 112.435607 292.934899 
L 112.760521 261.920624 
L 113.085436 268.333268 
L 113.735265 309.036802 
L 114.060179 287.873992 
L 114.385094 200.357071 
L 114.710008 247.083948 
L 115.034922 263.099339 
L 115.359837 298.363479 
L 115.684751 276.313929 
L 116.009666 277.708923 
L 116.33458 262.396435 
L 116.659495 289.852937 
L 116.984409 270.874536 
L 117.309324 280.120423 
L 117.634238 262.720853 
L 117.959153 284.813658 
L 118.284067 290.847816 
L 118.608982 305.241121 
L 118.933896 299.044755 
L 119.258811 285.408422 
L 119.583725 293.594547 
L 119.90864 309.869472 
L 120.233554 315.060146 
L 120.558469 291.961648 
L 120.883383 255.897279 
L 121.208298 261.271789 
L 121.533212 285.581445 
L 121.858127 280.812513 
L 122.183041 271.566626 
L 122.507955 285.148889 
L 122.83287 288.83643 
L 123.157784 318.315131 
L 123.807613 282.57518 
L 124.132528 275.221725 
L 124.782357 317.406763 
L 125.107271 287.095391 
L 125.432186 293.032224 
L 125.7571 290.036773 
L 126.082015 329.334499 
L 126.406929 313.773291 
L 126.731844 284.965052 
L 127.056758 292.848388 
L 127.381673 273.459059 
L 127.706587 230.998266 
L 128.031502 287.657714 
L 128.356416 279.731123 
L 129.006245 240.593443 
L 129.331159 279.266125 
L 129.656074 294.308265 
L 129.980988 278.217176 
L 130.305903 282.196693 
L 130.630817 264.332124 
L 130.955732 209.715423 
L 131.605561 340.590691 
L 131.930475 306.765882 
L 132.25539 293.594547 
L 132.580304 294.784077 
L 132.905219 271.198953 
L 133.230133 258.189827 
L 133.555048 257.11925 
L 133.879962 286.56551 
L 134.204877 295.422097 
L 134.529791 273.978126 
L 134.854706 265.521654 
L 135.17962 262.580272 
L 135.829449 301.142652 
L 136.154363 278.238804 
L 136.479278 269.371403 
L 136.804192 276.595091 
L 137.129107 298.071503 
L 137.454021 309.555869 
L 138.10385 262.926317 
L 138.428765 276.119279 
L 138.753679 306.225187 
L 139.078594 320.088611 
L 139.403508 298.428362 
L 139.728423 286.251907 
L 140.053337 288.457943 
L 140.703166 317.28781 
L 141.352995 292.63211 
L 141.67791 293.735128 
L 142.327739 310.853537 
L 142.652653 295.227447 
L 142.977568 287.744225 
L 143.302482 301.218349 
L 143.627396 295.011169 
L 143.952311 316.747115 
L 144.277225 301.121024 
L 144.60214 303.651478 
L 144.927054 282.748202 
L 145.251969 308.36634 
L 145.901798 258.146571 
L 146.226712 260.828419 
L 146.551627 253.842638 
L 146.876541 269.814773 
L 147.201456 155.811357 
L 147.52637 229.39132 
L 147.851285 178.550834 
L 148.176199 191.067927 
L 148.501114 157.274479 
L 148.826028 218.989426 
L 149.475857 243.591057 
L 149.800772 249.225101 
L 150.125686 231.436229 
L 150.4506 280.736816 
L 150.775515 268.387338 
L 151.100429 229.370774 
L 151.425344 233.858544 
L 152.075173 301.99695 
L 152.400087 275.091958 
L 152.725002 265.943396 
L 153.049916 223.533429 
L 153.699745 297.054996 
L 154.349574 250.825559 
L 154.674489 271.296278 
L 154.999403 267.835829 
L 155.324318 288.295735 
L 155.649232 265.413515 
L 155.974147 263.369687 
L 156.299061 260.320166 
L 156.94889 288.252479 
L 157.273804 267.565481 
L 157.598719 261.60702 
L 157.923633 265.402701 
L 158.248548 286.543882 
L 158.573462 270.777211 
L 158.898377 261.228534 
L 159.223291 255.248445 
L 159.548206 243.76408 
L 159.87312 289.582589 
L 160.198035 300.634399 
L 160.522949 259.703773 
L 160.847864 251.777182 
L 161.172778 250.576839 
L 161.497693 263.23992 
L 161.822607 265.467584 
L 162.147522 264.018521 
L 162.472436 296.557557 
L 162.797351 363.49562 
L 163.122265 285.689584 
L 163.772094 253.907521 
L 164.421923 262.569458 
L 164.746837 277.78462 
L 165.071752 265.283748 
L 165.396666 216.967226 
L 166.046495 272.885922 
L 166.37141 276.076023 
L 166.696324 260.017377 
L 167.346153 244.412914 
L 167.671068 266.548974 
L 167.995982 271.566626 
L 168.320897 261.444812 
L 168.645811 247.289412 
L 168.970726 246.683834 
L 169.29564 224.67754 
L 169.620555 360.319577 
L 169.945469 322.316275 
L 170.270384 313.102829 
L 170.595298 308.658315 
L 170.920213 305.825072 
L 171.570041 256.589369 
L 171.894956 244.250705 
L 172.21987 266.386766 
L 172.544785 271.739648 
L 172.869699 250.847186 
L 173.194614 267.392459 
L 173.519528 276.811369 
L 173.844443 268.755011 
L 174.494272 247.548946 
L 174.819186 258.622383 
L 175.144101 263.68329 
L 175.469015 266.029907 
L 175.79393 247.905805 
L 176.118844 239.946772 
L 176.768673 279.525659 
L 177.093588 211.917133 
L 177.418502 189.46747 
L 177.743417 239.492588 
L 178.068331 260.017377 
L 178.393246 252.404388 
L 178.71816 215.561419 
L 179.043074 227.727061 
L 179.367989 251.971832 
L 179.692903 259.509123 
L 180.017818 282.488668 
L 180.342732 289.539333 
L 180.667647 276.378813 
L 180.992561 270.258143 
L 181.317476 260.882489 
L 181.64239 279.190428 
L 181.967305 252.263808 
L 182.292219 258.460175 
L 182.617134 255.280887 
L 183.266963 266.289441 
L 183.591877 257.140878 
L 183.916792 257.313901 
L 184.241706 250.360561 
L 184.566621 235.459002 
L 184.891535 240.325258 
L 185.21645 241.19037 
L 185.541364 243.774893 
L 185.866278 255.172748 
L 186.191193 276.995205 
L 186.516107 266.808508 
L 186.841022 261.444812 
L 187.165936 277.1466 
L 187.490851 246.316161 
L 187.815765 281.396464 
L 188.14068 272.150576 
L 188.790509 263.04527 
L 189.115423 273.415803 
L 189.440338 293.46478 
L 189.765252 275.546142 
L 190.415081 283.764709 
L 190.739996 294.221754 
L 191.06491 280.617863 
L 191.389825 275.967884 
L 191.714739 269.036172 
L 192.039654 287.809109 
L 192.364568 289.42038 
L 192.689482 274.270102 
L 193.014397 251.290556 
L 193.339311 245.050934 
L 193.98914 286.706091 
L 194.314055 262.818178 
L 194.638969 258.968428 
L 194.963884 260.871675 
L 195.288798 279.720309 
L 195.613713 280.066354 
L 195.938627 257.714015 
L 196.263542 259.368542 
L 196.588456 243.774893 
L 196.913371 259.260403 
L 197.238285 265.694676 
L 197.5632 231.749833 
L 197.888114 250.91207 
L 198.537943 268.960475 
L 198.862858 286.468185 
L 199.187772 261.369115 
L 199.512687 245.440235 
L 199.837601 283.180758 
L 200.162515 281.13693 
L 200.48743 290.144912 
L 200.812344 254.9024 
L 201.137259 254.286008 
L 201.462173 271.977554 
L 201.787088 270.052679 
L 202.112002 300.829049 
L 202.436917 278.044154 
L 202.761831 284.98668 
L 203.086746 278.866011 
L 203.41166 312.118764 
L 204.061489 290.880257 
L 204.386404 268.733383 
L 204.711318 269.739076 
L 205.036233 264.656541 
L 205.361147 249.268356 
L 205.686062 267.273506 
L 206.010976 234.680401 
L 206.335891 262.818178 
L 206.660805 275.264981 
L 206.985719 276.757299 
L 207.310634 213.677637 
L 207.635548 255.875652 
L 207.960463 240.3577 
L 208.285377 274.140335 
L 208.610292 278.844383 
L 208.935206 263.380501 
L 209.260121 257.584248 
L 209.585035 245.959302 
L 209.90995 239.968399 
L 210.234864 244.175008 
L 210.559779 190.041688 
L 210.884693 201.470903 
L 211.209608 178.934728 
L 211.534522 253.712871 
L 211.859437 210.727604 
L 212.184351 242.650247 
L 212.509266 332.232625 
L 212.83418 279.785192 
L 213.159095 261.996321 
L 213.484009 211.387252 
L 213.808924 182.883965 
L 214.133838 234.04238 
L 214.458752 129.428677 
L 214.783667 208.489126 
L 215.108581 130.326231 
L 215.433496 220.103258 
L 215.75841 120.853251 
L 216.083325 164.762025 
L 216.408239 143.895517 
L 216.733154 107.718684 
L 217.058068 145.660346 
L 217.382983 213.636544 
L 217.707897 215.52357 
L 218.032812 210.393454 
L 218.357726 186.249252 
L 218.682641 227.034971 
L 219.33247 253.712871 
L 219.657384 244.131752 
L 219.982299 246.694647 
L 220.307213 229.792516 
L 220.957042 295.778956 
L 221.606871 242.001413 
L 221.931785 245.105004 
L 222.2567 271.036744 
L 222.581614 267.305948 
L 222.906529 266.365138 
L 223.231443 261.542137 
L 223.556358 259.39017 
L 223.881272 291.99409 
L 224.206187 297.898481 
L 224.531101 266.451649 
L 224.856016 283.872848 
L 225.18093 270.409538 
L 225.505845 307.306577 
L 225.830759 268.387338 
L 226.155674 259.487495 
L 226.480588 256.329836 
L 226.805503 279.774378 
L 227.130417 285.603073 
L 227.455332 279.568914 
L 227.780246 316.314559 
L 228.10516 279.006591 
L 228.430075 270.420352 
L 228.754989 299.574636 
L 229.079904 251.214859 
L 229.404818 245.548374 
L 229.729733 243.061176 
L 230.054647 213.993403 
L 230.379562 258.514244 
L 230.704476 227.246923 
L 231.029391 229.273449 
L 231.354305 229.435657 
L 231.67922 244.867098 
L 232.004134 221.663705 
L 232.329049 215.280257 
L 232.653963 227.391829 
L 232.978878 226.786251 
L 233.303792 209.329366 
L 233.628707 237.383876 
L 233.953621 198.245115 
L 234.278536 204.01974 
L 234.60345 181.829609 
L 234.928365 207.361236 
L 235.253279 278.065782 
L 235.578193 196.345112 
L 235.903108 236.464695 
L 236.228022 215.335408 
L 236.552937 253.972405 
L 236.877851 251.387882 
L 237.202766 240.336072 
L 237.52768 235.502257 
L 237.852595 223.967066 
L 238.177509 262.915503 
L 238.502424 258.352035 
L 238.827338 242.444783 
L 239.152253 254.058916 
L 239.477167 230.376467 
L 239.802082 251.020209 
L 240.126996 229.879027 
L 240.451911 261.433998 
L 240.776825 226.84032 
L 241.10174 249.235915 
L 241.426654 251.441951 
L 241.751569 287.50632 
L 242.076483 258.9468 
L 242.401397 249.614401 
L 242.726312 243.601871 
L 243.376141 269.165939 
L 243.701055 263.23992 
L 244.02597 243.785707 
L 244.350884 146.698481 
L 244.675799 231.944483 
L 245.000713 237.654224 
L 245.325628 240.941651 
L 245.650542 261.844926 
L 245.975457 338.281922 
L 246.300371 233.544941 
L 246.625286 246.910925 
L 246.9502 236.042952 
L 247.275115 272.669644 
L 247.600029 273.653709 
L 247.924944 265.035028 
L 248.249858 268.733383 
L 248.574773 268.895591 
L 248.899687 272.118135 
L 249.224601 263.953638 
L 249.549516 270.355468 
L 249.87443 272.496621 
L 250.199345 251.474393 
L 250.524259 257.995177 
L 250.849174 215.082363 
L 251.499003 358.303865 
L 251.823917 329.886008 
L 252.148832 325.852422 
L 252.473746 293.475594 
L 252.798661 290.155726 
L 253.123575 274.940564 
L 253.44849 285.581445 
L 253.773404 252.588225 
L 254.098319 240.768628 
L 254.423233 249.160217 
L 254.748148 239.135729 
L 255.397977 256.870531 
L 255.722891 258.69808 
L 256.047806 252.999153 
L 256.37272 241.914902 
L 256.697634 260.990628 
L 257.022549 263.477826 
L 257.672378 219.211111 
L 258.322207 252.588225 
L 258.647121 250.079399 
L 258.972036 235.340049 
L 259.29695 244.542681 
L 259.621865 237.164354 
L 259.946779 271.77209 
L 260.271694 250.890442 
L 260.596608 250.976953 
L 260.921523 253.12892 
L 261.246437 269.793145 
L 261.571352 273.967312 
L 261.896266 266.527347 
L 262.221181 271.555812 
L 262.546095 246.8136 
L 262.87101 255.972977 
L 263.520838 291.550719 
L 263.845753 278.736244 
L 264.170667 256.665067 
L 264.495582 274.940564 
L 264.820496 247.419179 
L 265.470325 268.603616 
L 265.79524 259.357729 
L 266.120154 277.135786 
L 266.445069 271.977554 
L 266.769983 263.748173 
L 267.094898 267.370831 
L 267.419812 259.876796 
L 267.744727 272.150576 
L 268.71947 211.452136 
L 269.044385 241.125487 
L 269.369299 223.983287 
L 269.694214 239.698052 
L 270.019128 248.533011 
L 270.344043 252.24218 
L 270.668957 204.162483 
L 270.993871 268.041293 
L 271.318786 263.672476 
L 271.6437 265.153981 
L 271.968615 274.540449 
L 272.293529 275.178469 
L 272.618444 246.143138 
L 272.943358 249.809052 
L 273.268273 235.945627 
L 273.593187 263.012828 
L 273.918102 273.642895 
L 274.243016 246.305347 
L 274.567931 274.270102 
L 274.892845 267.965596 
L 275.21776 269.955354 
L 275.542674 284.413543 
L 275.867589 285.559817 
L 276.192503 249.960446 
L 276.517418 236.183533 
L 276.842332 253.161362 
L 277.167247 286.889927 
L 277.492161 231.468671 
L 277.817075 227.575666 
L 278.14199 229.641121 
L 278.466904 263.412942 
L 278.791819 270.204074 
L 279.441648 214.457319 
L 279.766562 256.740764 
L 280.091477 239.784563 
L 280.416391 251.463579 
L 280.741306 229.478913 
L 281.716049 264.461891 
L 282.365878 254.5131 
L 282.690793 256.275766 
L 283.015707 244.715703 
L 283.340622 245.061748 
L 283.665536 259.098195 
L 283.990451 245.083376 
L 284.315365 250.21998 
L 284.640279 251.225673 
L 284.965194 277.990084 
L 285.290108 242.196064 
L 285.615023 239.27631 
L 285.939937 225.56428 
L 286.264852 225.239863 
L 286.589766 228.083919 
L 286.914681 251.041837 
L 287.239595 232.820409 
L 287.56451 224.774865 
L 287.889424 209.19203 
L 288.214339 266.527347 
L 288.539253 269.94454 
L 288.864168 243.493732 
L 289.189082 239.91433 
L 289.513997 270.355468 
L 289.838911 262.320738 
L 290.163826 247.851735 
L 290.48874 246.856856 
L 290.813655 242.401528 
L 291.138569 224.244984 
L 291.463484 256.67588 
L 291.788398 257.735643 
L 292.113312 250.068585 
L 292.438227 257.832968 
L 292.763141 270.766397 
L 293.088056 236.226789 
L 293.41297 249.960446 
L 293.737885 243.569429 
L 294.062799 323.959989 
L 294.387714 253.32357 
L 294.712628 238.551778 
L 295.037543 232.896106 
L 295.362457 249.365682 
L 295.687372 276.724858 
L 296.012286 251.182417 
L 296.337201 243.645127 
L 296.662115 228.137989 
L 296.98703 228.202872 
L 297.311944 260.233655 
L 297.636859 272.237088 
L 297.961773 252.177297 
L 298.286688 260.504002 
L 298.611602 239.27631 
L 298.936516 256.740764 
L 299.261431 264.191543 
L 299.586345 244.694075 
L 299.91126 257.346342 
L 300.236174 233.977497 
L 300.561089 257.486923 
L 300.886003 265.26212 
L 301.210918 261.693532 
L 301.535832 246.629764 
L 301.860747 257.627504 
L 302.185661 290.36119 
L 302.510576 297.325344 
L 303.160405 277.1466 
L 303.485319 279.525659 
L 303.810234 339.048628 
L 304.135148 285.92749 
L 304.460063 267.219436 
L 304.784977 276.930322 
L 305.109892 255.702629 
L 305.434806 266.321882 
L 305.759721 302.786365 
L 306.084635 280.401585 
L 306.409549 294.167684 
L 306.734464 281.861462 
L 307.059378 305.662864 
L 307.384293 248.846614 
L 307.709207 226.667298 
L 308.034122 250.641722 
L 308.359036 249.419751 
L 308.683951 267.360017 
L 309.008865 254.869959 
L 309.33378 236.778298 
L 309.658694 263.402128 
L 310.308523 283.364594 
L 310.633438 256.124371 
L 310.958352 263.152327 
L 311.283267 245.78628 
L 311.608181 243.645127 
L 311.933096 269.576867 
L 312.25801 267.100483 
L 312.582925 239.600727 
L 312.907839 242.412342 
L 313.232753 248.630336 
L 313.557668 260.093074 
L 313.882582 235.86993 
L 314.207497 238.486895 
L 314.532411 270.604188 
L 314.857326 238.032711 
L 315.18224 296.936043 
L 315.507155 269.50117 
L 315.832069 271.339534 
L 316.156984 237.145971 
L 316.481898 288.036201 
L 316.806813 295.3464 
L 317.456642 243.374779 
L 317.781556 254.556355 
L 318.106471 261.66109 
L 318.431385 281.061233 
L 318.7563 245.872791 
L 319.081214 229.738447 
L 319.406129 234.377611 
L 319.731043 254.275194 
L 320.055957 259.519937 
L 320.380872 231.684949 
L 320.705786 238.887009 
L 321.030701 231.63088 
L 321.68053 258.827847 
L 322.005444 254.567169 
L 322.330359 256.275766 
L 322.655273 250.641722 
L 322.980188 252.090785 
L 323.305102 273.383361 
L 323.630017 282.153437 
L 323.954931 261.953065 
L 324.279846 258.30878 
L 324.60476 261.21772 
L 324.929675 259.249589 
L 325.254589 261.41237 
L 325.579504 264.451077 
L 325.904418 264.397008 
L 326.229333 270.117563 
L 326.879162 263.640034 
L 327.204076 289.160847 
L 327.52899 355.177565 
L 327.853905 259.173892 
L 328.178819 258.287152 
L 328.503734 251.961018 
L 328.828648 249.646843 
L 329.153563 270.971861 
L 329.478477 276.054396 
L 329.803392 249.387309 
L 330.128306 251.712299 
L 330.453221 252.025902 
L 330.778135 275.600212 
L 331.10305 243.407221 
L 331.427964 240.476653 
L 331.752879 251.961018 
L 332.077793 237.016204 
L 332.402708 228.646242 
L 332.727622 272.507435 
L 333.052537 284.013429 
L 333.377451 351.842558 
L 333.702366 369.36 
L 334.02728 293.367455 
L 334.352194 298.363479 
L 334.677109 296.752207 
L 335.002023 283.15913 
L 335.326938 237.20004 
L 335.651852 246.251277 
L 336.301681 205.818092 
L 336.626596 221.790227 
L 336.95151 244.553494 
L 337.276425 235.285979 
L 337.601339 244.077683 
L 337.926254 224.569401 
L 338.251168 221.746972 
L 338.576083 224.223356 
L 338.900997 217.799897 
L 339.225912 224.709981 
L 339.550826 239.038404 
L 339.875741 247.75441 
L 340.52557 208.672962 
L 340.850484 200.032653 
L 341.175399 231.057743 
L 341.500313 234.92912 
L 341.825227 248.154524 
L 342.150142 231.079371 
L 342.799971 248.078827 
L 343.124885 266.905833 
L 343.4498 256.048674 
L 343.774714 224.104403 
L 344.099629 249.517076 
L 344.424543 264.12666 
L 344.749458 256.848903 
L 345.074372 258.373663 
L 345.399287 238.865381 
L 346.049116 258.589941 
L 346.37403 240.941651 
L 346.698945 260.72028 
L 347.023859 258.211455 
L 347.348774 241.287696 
L 347.673688 245.970116 
L 347.998603 248.25185 
L 348.323517 263.553523 
L 348.648431 270.982675 
L 348.973346 256.665067 
L 349.29826 272.21546 
L 349.623175 245.721396 
L 349.948089 229.60868 
L 350.273004 203.493103 
L 350.597918 257.714015 
L 350.922833 234.777726 
L 351.247747 245.580815 
L 351.572662 246.727089 
L 351.897576 259.801099 
L 352.222491 250.263236 
L 352.547405 250.814745 
L 352.87232 250.176724 
L 353.197234 242.650247 
L 353.522149 248.716847 
L 353.847063 265.218864 
L 354.171978 255.875652 
L 354.496892 263.780615 
L 354.821807 239.092473 
L 355.146721 239.092473 
L 355.471635 231.684949 
L 355.79655 254.988911 
L 356.121464 256.719136 
L 356.446379 250.111841 
L 356.771293 278.119851 
L 357.096208 288.652593 
L 357.421122 253.961591 
L 357.746037 240.498281 
L 358.070951 238.227361 
L 358.395866 246.975809 
L 358.72078 278.649733 
L 359.370609 219.908608 
L 359.695524 210.32749 
L 360.020438 256.892158 
L 360.345353 268.300827 
L 360.670267 243.71001 
L 360.995182 207.202271 
L 361.320096 206.834599 
L 361.645011 231.090185 
L 361.969925 237.913758 
L 362.29484 228.127175 
L 362.619754 249.008823 
L 362.944668 244.65082 
L 363.269583 229.046357 
L 363.594497 200.41114 
L 363.919412 242.001413 
L 364.244326 224.288239 
L 364.569241 255.270073 
L 364.894155 263.402128 
L 365.21907 253.215431 
L 365.543984 261.552951 
L 365.868899 240.400956 
L 366.193813 276.908694 
L 366.518728 271.761276 
L 366.843642 275.1244 
L 367.168557 240.714559 
L 367.493471 259.779471 
L 367.818386 251.333812 
L 368.1433 281.061233 
L 368.468215 273.98894 
L 368.793129 272.507435 
L 369.118044 274.594519 
L 369.442958 287.2576 
L 369.767872 276.822183 
L 370.092787 279.147172 
L 370.417701 269.793145 
L 370.742616 282.358901 
L 371.06753 280.325888 
L 371.392445 262.320738 
L 371.717359 281.515417 
L 372.042274 267.641179 
L 372.367188 245.591629 
L 372.692103 286.327604 
L 373.017017 258.384477 
L 373.341932 251.690671 
L 373.666846 257.021925 
L 373.991761 211.819808 
L 374.316675 261.379928 
L 374.64159 259.173892 
L 374.966504 248.489755 
L 375.291419 246.121511 
L 375.616333 290.534213 
L 375.941248 269.090242 
L 376.266162 264.191543 
L 376.591076 256.351463 
L 376.915991 279.579728 
L 377.240905 287.333297 
L 377.56582 278.130665 
L 377.890734 249.765796 
L 378.215649 255.529607 
L 378.540563 251.031023 
L 378.865478 265.132353 
L 379.190392 251.517648 
L 379.515307 226.245556 
L 379.840221 226.104975 
L 380.165136 263.229106 
L 380.49005 255.021353 
L 380.814965 233.674707 
L 381.139879 239.784563 
L 381.464794 242.401528 
L 381.789708 267.47897 
L 382.114623 269.879657 
L 382.439537 263.142595 
L 383.089366 256.751578 
L 383.414281 243.385593 
L 383.739195 290.426074 
L 384.389024 255.34577 
L 384.713938 255.918907 
L 385.038853 280.790885 
L 385.363767 277.427761 
L 385.688682 270.766397 
L 386.013596 269.176753 
L 386.338511 272.756155 
L 386.663425 278.109037 
L 386.98834 297.357786 
L 387.313254 289.72317 
L 387.638169 278.941708 
L 388.287998 316.444326 
L 388.612912 316.693045 
L 388.937827 284.781216 
L 389.262741 284.359474 
L 389.587656 286.922369 
L 389.91257 307.926214 
L 390.237485 276.541021 
L 390.562399 273.091386 
L 390.887313 259.574007 
L 391.212228 271.480114 
L 391.537142 267.305948 
L 391.862057 277.611598 
L 392.186971 272.042437 
L 392.511886 287.408994 
L 392.8368 254.026474 
L 393.161715 278.357757 
L 393.486629 264.580844 
L 393.811544 258.644011 
L 394.136458 268.765825 
L 394.461373 272.107321 
L 394.786287 271.231395 
L 395.111202 256.838089 
L 395.436116 256.156813 
L 395.761031 218.838032 
L 396.085945 236.767484 
L 396.41086 241.979785 
L 396.735774 254.480658 
L 397.060689 254.664494 
L 397.385603 251.333812 
L 397.710518 268.192688 
L 398.035432 305.803444 
L 398.360346 265.110725 
L 398.685261 240.660489 
L 399.010175 246.791973 
L 399.33509 229.965539 
L 399.660004 259.357729 
L 399.984919 219.973492 
L 400.309833 225.575094 
L 400.634748 226.948459 
L 400.959662 248.943939 
L 401.284577 258.579127 
L 401.609491 225.607535 
L 401.934406 219.49768 
L 402.909149 256.913786 
L 403.234064 228.462406 
L 403.558978 216.729321 
L 403.883893 215.085607 
L 404.208807 221.390113 
L 404.533722 260.936558 
L 404.858636 250.976953 
L 405.18355 245.191515 
L 405.508465 257.22739 
L 405.833379 242.239319 
L 406.483208 260.320166 
L 406.808123 225.737302 
L 407.133037 250.338933 
L 407.457952 242.780014 
L 407.782866 257.259831 
L 408.107781 253.410082 
L 408.432695 283.548431 
L 408.75761 353.300272 
L 409.082524 258.795406 
L 409.732353 216.156184 
L 410.057268 215.929092 
L 410.707097 261.401556 
L 411.032011 241.990599 
L 411.356926 242.931409 
L 411.68184 232.171575 
L 412.006754 251.74474 
L 412.331669 252.566597 
L 412.656583 240.855139 
L 412.981498 224.482889 
L 413.306412 213.87445 
L 413.631327 155.360418 
L 413.956241 254.004846 
L 414.281156 247.419179 
L 414.60607 257.465295 
L 414.930985 304.473334 
L 415.255899 308.160875 
L 415.580814 301.564394 
L 415.905728 307.739133 
L 416.230643 318.131295 
L 416.555557 322.770459 
L 416.880472 244.488611 
L 417.205386 221.757786 
L 417.530301 219.822097 
L 417.855215 238.184105 
L 418.18013 248.046385 
L 418.505044 246.694647 
L 418.829959 246.86767 
L 419.154873 238.941079 
L 419.479787 244.542681 
L 419.804702 263.456198 
L 420.129616 235.188654 
L 420.454531 245.797093 
L 420.779445 224.893818 
L 421.10436 230.138561 
L 421.429274 246.240463 
L 421.754189 233.717963 
L 422.079103 230.960418 
L 422.404018 234.777726 
L 423.053847 226.213114 
L 423.378761 225.977371 
L 423.703676 238.980009 
L 424.02859 239.767261 
L 424.353505 229.634633 
L 424.678419 262.172588 
L 425.003334 254.721808 
L 425.328248 244.462658 
L 425.653163 246.557311 
L 425.978077 238.919451 
L 426.302991 268.346245 
L 426.627906 242.728108 
L 426.95282 246.727089 
L 427.277735 236.992413 
L 427.602649 240.119794 
L 427.927564 219.168937 
L 428.252478 245.538641 
L 428.577393 243.628906 
L 428.902307 243.09578 
L 429.227222 213.70359 
L 429.552136 223.157105 
L 429.877051 238.244663 
L 430.201965 233.086431 
L 430.52688 230.86093 
L 430.851794 246.864426 
L 431.176709 243.159582 
L 431.501623 223.491254 
L 431.826538 234.40789 
L 432.151452 251.082929 
L 432.476367 252.422772 
L 432.801281 244.193392 
L 433.126196 229.090694 
L 433.45111 236.796681 
L 433.776024 154.347155 
L 434.100939 211.112579 
L 434.425853 179.208319 
L 434.750768 164.890711 
L 435.075682 221.679926 
L 435.400597 219.030519 
L 435.725511 167.444955 
L 436.050426 181.085613 
L 436.37534 168.420369 
L 436.700255 173.345021 
L 437.025169 182.960744 
L 437.350084 205.558558 
L 437.674998 213.495963 
L 437.999913 202.333852 
L 438.324827 228.210442 
L 438.649742 242.919514 
L 438.974656 193.768159 
L 439.299571 186.208159 
L 439.9494 116.975385 
L 440.274314 172.049515 
L 440.599228 176.155554 
L 441.249057 158.219614 
L 441.898886 213.752253 
L 442.548715 175.201768 
L 442.87363 171.876493 
L 443.198544 152.401734 
L 443.523459 193.74545 
L 444.173288 158.444543 
L 444.823117 223.250104 
L 445.148031 207.048714 
L 445.472946 203.519056 
L 445.79786 209.43318 
L 446.447689 171.193054 
L 446.772604 207.066016 
L 447.097518 203.77859 
L 447.422432 162.787407 
L 447.747347 215.825278 
L 448.072261 231.409195 
L 448.397176 226.064964 
L 448.72209 226.083347 
L 449.047005 219.467401 
L 449.371919 228.991206 
L 449.696834 258.478558 
L 450.021748 208.815706 
L 450.346663 212.122598 
L 450.671577 211.723565 
L 450.996492 231.866623 
L 451.321406 240.561001 
L 451.646321 207.6597 
L 451.971235 222.353632 
L 452.29615 210.606488 
L 452.621064 227.902246 
L 452.945979 228.208279 
L 453.270893 224.228763 
L 453.595808 208.841659 
L 453.920722 215.805813 
L 454.245637 147.534396 
L 454.570551 222.457445 
L 454.895465 221.790227 
L 455.22038 210.700569 
L 455.545294 188.351475 
L 455.870209 146.298366 
L 456.195123 219.852376 
L 456.520038 216.198358 
L 456.844952 216.536833 
L 457.169867 179.746852 
L 457.494781 235.510908 
L 457.819696 212.585433 
L 458.469525 196.730087 
L 459.119354 208.207965 
L 459.444268 198.939368 
L 459.769183 211.863064 
L 460.094097 186.319542 
L 460.419012 222.255225 
L 460.743926 236.778298 
L 461.068841 187.123015 
L 461.393755 184.737468 
L 461.718669 177.546222 
L 462.043584 216.784471 
L 462.368498 222.127621 
L 462.693413 198.704706 
L 463.018327 197.44813 
L 463.343242 191.405321 
L 463.668156 214.339448 
L 463.993071 222.2044 
L 464.317985 186.924039 
L 464.6429 191.589157 
L 464.967814 193.617846 
L 465.292729 199.126448 
L 465.617643 212.767106 
L 465.942558 202.669083 
L 466.267472 172.952476 
L 466.917301 223.023012 
L 467.242216 238.85673 
L 467.56713 211.007684 
L 467.892045 206.818378 
L 468.216959 212.331306 
L 468.541873 239.299019 
L 469.191702 226.340718 
L 469.516617 199.070216 
L 469.841531 237.966746 
L 470.166446 241.21308 
L 470.49136 234.902086 
L 470.816275 200.619848 
L 471.141189 152.061096 
L 471.466104 166.730156 
L 471.791018 230.499745 
L 472.115933 198.930717 
L 472.440847 184.265982 
L 472.765762 196.412158 
L 473.090676 192.391549 
L 473.415591 198.286208 
L 473.740505 182.680664 
L 474.06542 193.019837 
L 474.390334 183.007244 
L 474.715249 66.96 
L 475.040163 183.310033 
L 475.689992 132.310582 
L 476.014906 145.658183 
L 476.339821 194.504586 
L 476.664735 189.184145 
L 476.98965 194.153134 
L 477.314564 180.018281 
L 477.639479 172.541548 
L 477.964393 181.041276 
L 478.289308 181.04452 
L 479.264051 105.937634 
L 479.588966 177.952825 
L 479.91388 170.392825 
L 480.238795 159.249097 
L 480.563709 138.460449 
L 481.538453 185.685848 
L 481.863367 170.282523 
L 482.188282 115.50145 
L 482.513196 124.838175 
L 482.83811 140.66216 
L 483.163025 170.198175 
L 483.487939 157.79679 
L 483.812854 141.004961 
L 484.137768 148.832064 
L 484.462683 150.559044 
L 484.787597 130.221336 
L 485.112512 142.075537 
L 485.437426 121.503167 
L 485.762341 114.091317 
L 486.087255 186.124892 
L 486.41217 192.930082 
L 486.737084 195.366454 
L 487.061999 168.395497 
L 487.386913 150.660695 
L 487.711828 216.119416 
L 488.036742 202.424689 
L 488.361657 152.725069 
L 488.686571 178.439451 
L 489.3364 142.568651 
L 489.661315 178.896879 
L 489.986229 160.073117 
L 490.311143 193.165825 
L 490.636058 329.470754 
L 490.960972 189.759445 
L 491.285887 162.568966 
L 491.610801 151.068379 
L 491.935716 125.099871 
L 492.26063 178.006895 
L 492.585545 156.350971 
L 492.910459 179.611678 
L 493.235374 181.440309 
L 493.560288 172.305805 
L 493.885203 202.802094 
L 494.210117 204.936759 
L 494.535032 149.410608 
L 494.859946 175.850602 
L 495.184861 172.058166 
L 495.509775 128.413251 
L 495.83469 169.006483 
L 496.159604 191.944935 
L 496.484519 184.539574 
L 496.809433 203.644497 
L 497.134347 268.818813 
L 497.459262 241.280126 
L 497.784176 254.052427 
L 498.109091 258.358524 
L 498.109091 258.358524 
" style="fill:none;stroke:#1f77b4;stroke-linecap:square;stroke-width:1.5;"/>
   </g>
   <g id="patch_3">
    <path d="M 72 384.48 
L 72 51.84 
" style="fill:none;stroke:#000000;stroke-linecap:square;stroke-linejoin:miter;stroke-width:0.8;"/>
   </g>
   <g id="patch_4">
    <path d="M 518.4 384.48 
L 518.4 51.84 
" style="fill:none;stroke:#000000;stroke-linecap:square;stroke-linejoin:miter;stroke-width:0.8;"/>
   </g>
   <g id="patch_5">
    <path d="M 72 384.48 
L 518.4 384.48 
" style="fill:none;stroke:#000000;stroke-linecap:square;stroke-linejoin:miter;stroke-width:0.8;"/>
   </g>
   <g id="patch_6">
    <path d="M 72 51.84 
L 518.4 51.84 
" style="fill:none;stroke:#000000;stroke-linecap:square;stroke-linejoin:miter;stroke-width:0.8;"/>
   </g>
  </g>
 </g>
 <defs>
  <clipPath id="pea98e33771">
   <rect height="332.64" width="446.4" x="72" y="51.84"/>
  </clipPath>
 </defs>
</svg>
