<?xml version="1.0" encoding="utf-8" standalone="no"?>
<!DOCTYPE svg PUBLIC "-//W3C//DTD SVG 1.1//EN"
  "http://www.w3.org/Graphics/SVG/1.1/DTD/svg11.dtd">
<!-- Created with matplotlib (https://matplotlib.org/) -->
<svg height="432pt" version="1.1" viewBox="0 0 576 432" width="576pt" xmlns="http://www.w3.org/2000/svg" xmlns:xlink="http://www.w3.org/1999/xlink">
 <defs>
  <style type="text/css">
*{stroke-linecap:butt;stroke-linejoin:round;}
  </style>
 </defs>
 <g id="figure_1">
  <g id="patch_1">
   <path d="M 0 432 
L 576 432 
L 576 0 
L 0 0 
z
" style="fill:#ffffff;"/>
  </g>
  <g id="axes_1">
   <g id="patch_2">
    <path d="M 72 384.48 
L 518.4 384.48 
L 518.4 51.84 
L 72 51.84 
z
" style="fill:#ffffff;"/>
   </g>
   <g id="matplotlib.axis_1">
    <g id="xtick_1">
     <g id="line2d_1">
      <defs>
       <path d="M 0 0 
L 0 3.5 
" id="m3442a7c177" style="stroke:#000000;stroke-width:0.8;"/>
      </defs>
      <g>
       <use style="stroke:#000000;stroke-width:0.8;" x="101.107343" xlink:href="#m3442a7c177" y="384.48"/>
      </g>
     </g>
     <g id="text_1">
      <!-- −4 -->
      <defs>
       <path d="M 10.59375 35.5 
L 73.1875 35.5 
L 73.1875 27.203125 
L 10.59375 27.203125 
z
" id="DejaVuSans-8722"/>
       <path d="M 37.796875 64.3125 
L 12.890625 25.390625 
L 37.796875 25.390625 
z
M 35.203125 72.90625 
L 47.609375 72.90625 
L 47.609375 25.390625 
L 58.015625 25.390625 
L 58.015625 17.1875 
L 47.609375 17.1875 
L 47.609375 0 
L 37.796875 0 
L 37.796875 17.1875 
L 4.890625 17.1875 
L 4.890625 26.703125 
z
" id="DejaVuSans-52"/>
      </defs>
      <g transform="translate(92.262031 400.598125)scale(0.12 -0.12)">
       <use xlink:href="#DejaVuSans-8722"/>
       <use x="83.789062" xlink:href="#DejaVuSans-52"/>
      </g>
     </g>
    </g>
    <g id="xtick_2">
     <g id="line2d_2">
      <g>
       <use style="stroke:#000000;stroke-width:0.8;" x="197.200524" xlink:href="#m3442a7c177" y="384.48"/>
      </g>
     </g>
     <g id="text_2">
      <!-- −2 -->
      <defs>
       <path d="M 19.1875 8.296875 
L 53.609375 8.296875 
L 53.609375 0 
L 7.328125 0 
L 7.328125 8.296875 
Q 12.9375 14.109375 22.625 23.890625 
Q 32.328125 33.6875 34.8125 36.53125 
Q 39.546875 41.84375 41.421875 45.53125 
Q 43.3125 49.21875 43.3125 52.78125 
Q 43.3125 58.59375 39.234375 62.25 
Q 35.15625 65.921875 28.609375 65.921875 
Q 23.96875 65.921875 18.8125 64.3125 
Q 13.671875 62.703125 7.8125 59.421875 
L 7.8125 69.390625 
Q 13.765625 71.78125 18.9375 73 
Q 24.125 74.21875 28.421875 74.21875 
Q 39.75 74.21875 46.484375 68.546875 
Q 53.21875 62.890625 53.21875 53.421875 
Q 53.21875 48.921875 51.53125 44.890625 
Q 49.859375 40.875 45.40625 35.40625 
Q 44.1875 33.984375 37.640625 27.21875 
Q 31.109375 20.453125 19.1875 8.296875 
z
" id="DejaVuSans-50"/>
      </defs>
      <g transform="translate(188.355211 400.598125)scale(0.12 -0.12)">
       <use xlink:href="#DejaVuSans-8722"/>
       <use x="83.789062" xlink:href="#DejaVuSans-50"/>
      </g>
     </g>
    </g>
    <g id="xtick_3">
     <g id="line2d_3">
      <g>
       <use style="stroke:#000000;stroke-width:0.8;" x="293.293704" xlink:href="#m3442a7c177" y="384.48"/>
      </g>
     </g>
     <g id="text_3">
      <!-- 0 -->
      <defs>
       <path d="M 31.78125 66.40625 
Q 24.171875 66.40625 20.328125 58.90625 
Q 16.5 51.421875 16.5 36.375 
Q 16.5 21.390625 20.328125 13.890625 
Q 24.171875 6.390625 31.78125 6.390625 
Q 39.453125 6.390625 43.28125 13.890625 
Q 47.125 21.390625 47.125 36.375 
Q 47.125 51.421875 43.28125 58.90625 
Q 39.453125 66.40625 31.78125 66.40625 
z
M 31.78125 74.21875 
Q 44.046875 74.21875 50.515625 64.515625 
Q 56.984375 54.828125 56.984375 36.375 
Q 56.984375 17.96875 50.515625 8.265625 
Q 44.046875 -1.421875 31.78125 -1.421875 
Q 19.53125 -1.421875 13.0625 8.265625 
Q 6.59375 17.96875 6.59375 36.375 
Q 6.59375 54.828125 13.0625 64.515625 
Q 19.53125 74.21875 31.78125 74.21875 
z
" id="DejaVuSans-48"/>
      </defs>
      <g transform="translate(289.476204 400.598125)scale(0.12 -0.12)">
       <use xlink:href="#DejaVuSans-48"/>
      </g>
     </g>
    </g>
    <g id="xtick_4">
     <g id="line2d_4">
      <g>
       <use style="stroke:#000000;stroke-width:0.8;" x="389.386885" xlink:href="#m3442a7c177" y="384.48"/>
      </g>
     </g>
     <g id="text_4">
      <!-- 2 -->
      <g transform="translate(385.569385 400.598125)scale(0.12 -0.12)">
       <use xlink:href="#DejaVuSans-50"/>
      </g>
     </g>
    </g>
    <g id="xtick_5">
     <g id="line2d_5">
      <g>
       <use style="stroke:#000000;stroke-width:0.8;" x="485.480066" xlink:href="#m3442a7c177" y="384.48"/>
      </g>
     </g>
     <g id="text_5">
      <!-- 4 -->
      <g transform="translate(481.662566 400.598125)scale(0.12 -0.12)">
       <use xlink:href="#DejaVuSans-52"/>
      </g>
     </g>
    </g>
    <g id="text_6">
     <!-- PCA dimension 1 -->
     <defs>
      <path d="M 19.671875 64.796875 
L 19.671875 37.40625 
L 32.078125 37.40625 
Q 38.96875 37.40625 42.71875 40.96875 
Q 46.484375 44.53125 46.484375 51.125 
Q 46.484375 57.671875 42.71875 61.234375 
Q 38.96875 64.796875 32.078125 64.796875 
z
M 9.8125 72.90625 
L 32.078125 72.90625 
Q 44.34375 72.90625 50.609375 67.359375 
Q 56.890625 61.8125 56.890625 51.125 
Q 56.890625 40.328125 50.609375 34.8125 
Q 44.34375 29.296875 32.078125 29.296875 
L 19.671875 29.296875 
L 19.671875 0 
L 9.8125 0 
z
" id="DejaVuSans-80"/>
      <path d="M 64.40625 67.28125 
L 64.40625 56.890625 
Q 59.421875 61.53125 53.78125 63.8125 
Q 48.140625 66.109375 41.796875 66.109375 
Q 29.296875 66.109375 22.65625 58.46875 
Q 16.015625 50.828125 16.015625 36.375 
Q 16.015625 21.96875 22.65625 14.328125 
Q 29.296875 6.6875 41.796875 6.6875 
Q 48.140625 6.6875 53.78125 8.984375 
Q 59.421875 11.28125 64.40625 15.921875 
L 64.40625 5.609375 
Q 59.234375 2.09375 53.4375 0.328125 
Q 47.65625 -1.421875 41.21875 -1.421875 
Q 24.65625 -1.421875 15.125 8.703125 
Q 5.609375 18.84375 5.609375 36.375 
Q 5.609375 53.953125 15.125 64.078125 
Q 24.65625 74.21875 41.21875 74.21875 
Q 47.75 74.21875 53.53125 72.484375 
Q 59.328125 70.75 64.40625 67.28125 
z
" id="DejaVuSans-67"/>
      <path d="M 34.1875 63.1875 
L 20.796875 26.90625 
L 47.609375 26.90625 
z
M 28.609375 72.90625 
L 39.796875 72.90625 
L 67.578125 0 
L 57.328125 0 
L 50.6875 18.703125 
L 17.828125 18.703125 
L 11.1875 0 
L 0.78125 0 
z
" id="DejaVuSans-65"/>
      <path id="DejaVuSans-32"/>
      <path d="M 45.40625 46.390625 
L 45.40625 75.984375 
L 54.390625 75.984375 
L 54.390625 0 
L 45.40625 0 
L 45.40625 8.203125 
Q 42.578125 3.328125 38.25 0.953125 
Q 33.9375 -1.421875 27.875 -1.421875 
Q 17.96875 -1.421875 11.734375 6.484375 
Q 5.515625 14.40625 5.515625 27.296875 
Q 5.515625 40.1875 11.734375 48.09375 
Q 17.96875 56 27.875 56 
Q 33.9375 56 38.25 53.625 
Q 42.578125 51.265625 45.40625 46.390625 
z
M 14.796875 27.296875 
Q 14.796875 17.390625 18.875 11.75 
Q 22.953125 6.109375 30.078125 6.109375 
Q 37.203125 6.109375 41.296875 11.75 
Q 45.40625 17.390625 45.40625 27.296875 
Q 45.40625 37.203125 41.296875 42.84375 
Q 37.203125 48.484375 30.078125 48.484375 
Q 22.953125 48.484375 18.875 42.84375 
Q 14.796875 37.203125 14.796875 27.296875 
z
" id="DejaVuSans-100"/>
      <path d="M 9.421875 54.6875 
L 18.40625 54.6875 
L 18.40625 0 
L 9.421875 0 
z
M 9.421875 75.984375 
L 18.40625 75.984375 
L 18.40625 64.59375 
L 9.421875 64.59375 
z
" id="DejaVuSans-105"/>
      <path d="M 52 44.1875 
Q 55.375 50.25 60.0625 53.125 
Q 64.75 56 71.09375 56 
Q 79.640625 56 84.28125 50.015625 
Q 88.921875 44.046875 88.921875 33.015625 
L 88.921875 0 
L 79.890625 0 
L 79.890625 32.71875 
Q 79.890625 40.578125 77.09375 44.375 
Q 74.3125 48.1875 68.609375 48.1875 
Q 61.625 48.1875 57.5625 43.546875 
Q 53.515625 38.921875 53.515625 30.90625 
L 53.515625 0 
L 44.484375 0 
L 44.484375 32.71875 
Q 44.484375 40.625 41.703125 44.40625 
Q 38.921875 48.1875 33.109375 48.1875 
Q 26.21875 48.1875 22.15625 43.53125 
Q 18.109375 38.875 18.109375 30.90625 
L 18.109375 0 
L 9.078125 0 
L 9.078125 54.6875 
L 18.109375 54.6875 
L 18.109375 46.1875 
Q 21.1875 51.21875 25.484375 53.609375 
Q 29.78125 56 35.6875 56 
Q 41.65625 56 45.828125 52.96875 
Q 50 49.953125 52 44.1875 
z
" id="DejaVuSans-109"/>
      <path d="M 56.203125 29.59375 
L 56.203125 25.203125 
L 14.890625 25.203125 
Q 15.484375 15.921875 20.484375 11.0625 
Q 25.484375 6.203125 34.421875 6.203125 
Q 39.59375 6.203125 44.453125 7.46875 
Q 49.3125 8.734375 54.109375 11.28125 
L 54.109375 2.78125 
Q 49.265625 0.734375 44.1875 -0.34375 
Q 39.109375 -1.421875 33.890625 -1.421875 
Q 20.796875 -1.421875 13.15625 6.1875 
Q 5.515625 13.8125 5.515625 26.8125 
Q 5.515625 40.234375 12.765625 48.109375 
Q 20.015625 56 32.328125 56 
Q 43.359375 56 49.78125 48.890625 
Q 56.203125 41.796875 56.203125 29.59375 
z
M 47.21875 32.234375 
Q 47.125 39.59375 43.09375 43.984375 
Q 39.0625 48.390625 32.421875 48.390625 
Q 24.90625 48.390625 20.390625 44.140625 
Q 15.875 39.890625 15.1875 32.171875 
z
" id="DejaVuSans-101"/>
      <path d="M 54.890625 33.015625 
L 54.890625 0 
L 45.90625 0 
L 45.90625 32.71875 
Q 45.90625 40.484375 42.875 44.328125 
Q 39.84375 48.1875 33.796875 48.1875 
Q 26.515625 48.1875 22.3125 43.546875 
Q 18.109375 38.921875 18.109375 30.90625 
L 18.109375 0 
L 9.078125 0 
L 9.078125 54.6875 
L 18.109375 54.6875 
L 18.109375 46.1875 
Q 21.34375 51.125 25.703125 53.5625 
Q 30.078125 56 35.796875 56 
Q 45.21875 56 50.046875 50.171875 
Q 54.890625 44.34375 54.890625 33.015625 
z
" id="DejaVuSans-110"/>
      <path d="M 44.28125 53.078125 
L 44.28125 44.578125 
Q 40.484375 46.53125 36.375 47.5 
Q 32.28125 48.484375 27.875 48.484375 
Q 21.1875 48.484375 17.84375 46.4375 
Q 14.5 44.390625 14.5 40.28125 
Q 14.5 37.15625 16.890625 35.375 
Q 19.28125 33.59375 26.515625 31.984375 
L 29.59375 31.296875 
Q 39.15625 29.25 43.1875 25.515625 
Q 47.21875 21.78125 47.21875 15.09375 
Q 47.21875 7.46875 41.1875 3.015625 
Q 35.15625 -1.421875 24.609375 -1.421875 
Q 20.21875 -1.421875 15.453125 -0.5625 
Q 10.6875 0.296875 5.421875 2 
L 5.421875 11.28125 
Q 10.40625 8.6875 15.234375 7.390625 
Q 20.0625 6.109375 24.8125 6.109375 
Q 31.15625 6.109375 34.5625 8.28125 
Q 37.984375 10.453125 37.984375 14.40625 
Q 37.984375 18.0625 35.515625 20.015625 
Q 33.0625 21.96875 24.703125 23.78125 
L 21.578125 24.515625 
Q 13.234375 26.265625 9.515625 29.90625 
Q 5.8125 33.546875 5.8125 39.890625 
Q 5.8125 47.609375 11.28125 51.796875 
Q 16.75 56 26.8125 56 
Q 31.78125 56 36.171875 55.265625 
Q 40.578125 54.546875 44.28125 53.078125 
z
" id="DejaVuSans-115"/>
      <path d="M 30.609375 48.390625 
Q 23.390625 48.390625 19.1875 42.75 
Q 14.984375 37.109375 14.984375 27.296875 
Q 14.984375 17.484375 19.15625 11.84375 
Q 23.34375 6.203125 30.609375 6.203125 
Q 37.796875 6.203125 41.984375 11.859375 
Q 46.1875 17.53125 46.1875 27.296875 
Q 46.1875 37.015625 41.984375 42.703125 
Q 37.796875 48.390625 30.609375 48.390625 
z
M 30.609375 56 
Q 42.328125 56 49.015625 48.375 
Q 55.71875 40.765625 55.71875 27.296875 
Q 55.71875 13.875 49.015625 6.21875 
Q 42.328125 -1.421875 30.609375 -1.421875 
Q 18.84375 -1.421875 12.171875 6.21875 
Q 5.515625 13.875 5.515625 27.296875 
Q 5.515625 40.765625 12.171875 48.375 
Q 18.84375 56 30.609375 56 
z
" id="DejaVuSans-111"/>
      <path d="M 12.40625 8.296875 
L 28.515625 8.296875 
L 28.515625 63.921875 
L 10.984375 60.40625 
L 10.984375 69.390625 
L 28.421875 72.90625 
L 38.28125 72.90625 
L 38.28125 8.296875 
L 54.390625 8.296875 
L 54.390625 0 
L 12.40625 0 
z
" id="DejaVuSans-49"/>
     </defs>
     <g transform="translate(236.138594 417.731562)scale(0.14 -0.14)">
      <use xlink:href="#DejaVuSans-80"/>
      <use x="60.302734" xlink:href="#DejaVuSans-67"/>
      <use x="130.126953" xlink:href="#DejaVuSans-65"/>
      <use x="198.535156" xlink:href="#DejaVuSans-32"/>
      <use x="230.322266" xlink:href="#DejaVuSans-100"/>
      <use x="293.798828" xlink:href="#DejaVuSans-105"/>
      <use x="321.582031" xlink:href="#DejaVuSans-109"/>
      <use x="418.994141" xlink:href="#DejaVuSans-101"/>
      <use x="480.517578" xlink:href="#DejaVuSans-110"/>
      <use x="543.896484" xlink:href="#DejaVuSans-115"/>
      <use x="595.996094" xlink:href="#DejaVuSans-105"/>
      <use x="623.779297" xlink:href="#DejaVuSans-111"/>
      <use x="684.960938" xlink:href="#DejaVuSans-110"/>
      <use x="748.339844" xlink:href="#DejaVuSans-32"/>
      <use x="780.126953" xlink:href="#DejaVuSans-49"/>
     </g>
    </g>
   </g>
   <g id="matplotlib.axis_2">
    <g id="ytick_1">
     <g id="line2d_6">
      <defs>
       <path d="M 0 0 
L -3.5 0 
" id="m0046f8b08f" style="stroke:#000000;stroke-width:0.8;"/>
      </defs>
      <g>
       <use style="stroke:#000000;stroke-width:0.8;" x="72" xlink:href="#m0046f8b08f" y="377.092599"/>
      </g>
     </g>
     <g id="text_7">
      <!-- −4 -->
      <g transform="translate(47.309375 381.651661)scale(0.12 -0.12)">
       <use xlink:href="#DejaVuSans-8722"/>
       <use x="83.789062" xlink:href="#DejaVuSans-52"/>
      </g>
     </g>
    </g>
    <g id="ytick_2">
     <g id="line2d_7">
      <g>
       <use style="stroke:#000000;stroke-width:0.8;" x="72" xlink:href="#m0046f8b08f" y="335.029415"/>
      </g>
     </g>
     <g id="text_8">
      <!-- −3 -->
      <defs>
       <path d="M 40.578125 39.3125 
Q 47.65625 37.796875 51.625 33 
Q 55.609375 28.21875 55.609375 21.1875 
Q 55.609375 10.40625 48.1875 4.484375 
Q 40.765625 -1.421875 27.09375 -1.421875 
Q 22.515625 -1.421875 17.65625 -0.515625 
Q 12.796875 0.390625 7.625 2.203125 
L 7.625 11.71875 
Q 11.71875 9.328125 16.59375 8.109375 
Q 21.484375 6.890625 26.8125 6.890625 
Q 36.078125 6.890625 40.9375 10.546875 
Q 45.796875 14.203125 45.796875 21.1875 
Q 45.796875 27.640625 41.28125 31.265625 
Q 36.765625 34.90625 28.71875 34.90625 
L 20.21875 34.90625 
L 20.21875 43.015625 
L 29.109375 43.015625 
Q 36.375 43.015625 40.234375 45.921875 
Q 44.09375 48.828125 44.09375 54.296875 
Q 44.09375 59.90625 40.109375 62.90625 
Q 36.140625 65.921875 28.71875 65.921875 
Q 24.65625 65.921875 20.015625 65.03125 
Q 15.375 64.15625 9.8125 62.3125 
L 9.8125 71.09375 
Q 15.4375 72.65625 20.34375 73.4375 
Q 25.25 74.21875 29.59375 74.21875 
Q 40.828125 74.21875 47.359375 69.109375 
Q 53.90625 64.015625 53.90625 55.328125 
Q 53.90625 49.265625 50.4375 45.09375 
Q 46.96875 40.921875 40.578125 39.3125 
z
" id="DejaVuSans-51"/>
      </defs>
      <g transform="translate(47.309375 339.588478)scale(0.12 -0.12)">
       <use xlink:href="#DejaVuSans-8722"/>
       <use x="83.789062" xlink:href="#DejaVuSans-51"/>
      </g>
     </g>
    </g>
    <g id="ytick_3">
     <g id="line2d_8">
      <g>
       <use style="stroke:#000000;stroke-width:0.8;" x="72" xlink:href="#m0046f8b08f" y="292.966231"/>
      </g>
     </g>
     <g id="text_9">
      <!-- −2 -->
      <g transform="translate(47.309375 297.525294)scale(0.12 -0.12)">
       <use xlink:href="#DejaVuSans-8722"/>
       <use x="83.789062" xlink:href="#DejaVuSans-50"/>
      </g>
     </g>
    </g>
    <g id="ytick_4">
     <g id="line2d_9">
      <g>
       <use style="stroke:#000000;stroke-width:0.8;" x="72" xlink:href="#m0046f8b08f" y="250.903047"/>
      </g>
     </g>
     <g id="text_10">
      <!-- −1 -->
      <g transform="translate(47.309375 255.46211)scale(0.12 -0.12)">
       <use xlink:href="#DejaVuSans-8722"/>
       <use x="83.789062" xlink:href="#DejaVuSans-49"/>
      </g>
     </g>
    </g>
    <g id="ytick_5">
     <g id="line2d_10">
      <g>
       <use style="stroke:#000000;stroke-width:0.8;" x="72" xlink:href="#m0046f8b08f" y="208.839864"/>
      </g>
     </g>
     <g id="text_11">
      <!-- 0 -->
      <g transform="translate(57.365 213.398926)scale(0.12 -0.12)">
       <use xlink:href="#DejaVuSans-48"/>
      </g>
     </g>
    </g>
    <g id="ytick_6">
     <g id="line2d_11">
      <g>
       <use style="stroke:#000000;stroke-width:0.8;" x="72" xlink:href="#m0046f8b08f" y="166.77668"/>
      </g>
     </g>
     <g id="text_12">
      <!-- 1 -->
      <g transform="translate(57.365 171.335742)scale(0.12 -0.12)">
       <use xlink:href="#DejaVuSans-49"/>
      </g>
     </g>
    </g>
    <g id="ytick_7">
     <g id="line2d_12">
      <g>
       <use style="stroke:#000000;stroke-width:0.8;" x="72" xlink:href="#m0046f8b08f" y="124.713496"/>
      </g>
     </g>
     <g id="text_13">
      <!-- 2 -->
      <g transform="translate(57.365 129.272559)scale(0.12 -0.12)">
       <use xlink:href="#DejaVuSans-50"/>
      </g>
     </g>
    </g>
    <g id="ytick_8">
     <g id="line2d_13">
      <g>
       <use style="stroke:#000000;stroke-width:0.8;" x="72" xlink:href="#m0046f8b08f" y="82.650312"/>
      </g>
     </g>
     <g id="text_14">
      <!-- 3 -->
      <g transform="translate(57.365 87.209375)scale(0.12 -0.12)">
       <use xlink:href="#DejaVuSans-51"/>
      </g>
     </g>
    </g>
    <g id="text_15">
     <!-- PCA dimension 2 -->
     <g transform="translate(40.397813 277.221406)rotate(-90)scale(0.14 -0.14)">
      <use xlink:href="#DejaVuSans-80"/>
      <use x="60.302734" xlink:href="#DejaVuSans-67"/>
      <use x="130.126953" xlink:href="#DejaVuSans-65"/>
      <use x="198.535156" xlink:href="#DejaVuSans-32"/>
      <use x="230.322266" xlink:href="#DejaVuSans-100"/>
      <use x="293.798828" xlink:href="#DejaVuSans-105"/>
      <use x="321.582031" xlink:href="#DejaVuSans-109"/>
      <use x="418.994141" xlink:href="#DejaVuSans-101"/>
      <use x="480.517578" xlink:href="#DejaVuSans-110"/>
      <use x="543.896484" xlink:href="#DejaVuSans-115"/>
      <use x="595.996094" xlink:href="#DejaVuSans-105"/>
      <use x="623.779297" xlink:href="#DejaVuSans-111"/>
      <use x="684.960938" xlink:href="#DejaVuSans-110"/>
      <use x="748.339844" xlink:href="#DejaVuSans-32"/>
      <use x="780.126953" xlink:href="#DejaVuSans-50"/>
     </g>
    </g>
   </g>
   <g id="line2d_14">
    <defs>
     <path d="M 0 3 
C 0.795609 3 1.55874 2.683901 2.12132 2.12132 
C 2.683901 1.55874 3 0.795609 3 0 
C 3 -0.795609 2.683901 -1.55874 2.12132 -2.12132 
C 1.55874 -2.683901 0.795609 -3 0 -3 
C -0.795609 -3 -1.55874 -2.683901 -2.12132 -2.12132 
C -2.683901 -1.55874 -3 -0.795609 -3 0 
C -3 0.795609 -2.683901 1.55874 -2.12132 2.12132 
C -1.55874 2.683901 -0.795609 3 0 3 
z
" id="m53d59ba7f4" style="stroke:#ff0000;"/>
    </defs>
    <g clip-path="url(#p6d326809fc)">
     <use style="fill:#ff0000;stroke:#ff0000;" x="215.676982" xlink:href="#m53d59ba7f4" y="231.193051"/>
     <use style="fill:#ff0000;stroke:#ff0000;" x="132.885742" xlink:href="#m53d59ba7f4" y="154.841099"/>
     <use style="fill:#ff0000;stroke:#ff0000;" x="130.273041" xlink:href="#m53d59ba7f4" y="143.258811"/>
     <use style="fill:#ff0000;stroke:#ff0000;" x="174.038375" xlink:href="#m53d59ba7f4" y="177.787837"/>
     <use style="fill:#ff0000;stroke:#ff0000;" x="174.706976" xlink:href="#m53d59ba7f4" y="212.988685"/>
     <use style="fill:#ff0000;stroke:#ff0000;" x="187.631621" xlink:href="#m53d59ba7f4" y="139.002243"/>
     <use style="fill:#ff0000;stroke:#ff0000;" x="218.929112" xlink:href="#m53d59ba7f4" y="206.298198"/>
     <use style="fill:#ff0000;stroke:#ff0000;" x="251.980303" xlink:href="#m53d59ba7f4" y="169.174631"/>
     <use style="fill:#ff0000;stroke:#ff0000;" x="229.003633" xlink:href="#m53d59ba7f4" y="182.063976"/>
     <use style="fill:#ff0000;stroke:#ff0000;" x="208.708221" xlink:href="#m53d59ba7f4" y="140.680602"/>
     <use style="fill:#ff0000;stroke:#ff0000;" x="152.71014" xlink:href="#m53d59ba7f4" y="120.771629"/>
     <use style="fill:#ff0000;stroke:#ff0000;" x="167.945505" xlink:href="#m53d59ba7f4" y="163.568682"/>
     <use style="fill:#ff0000;stroke:#ff0000;" x="187.750943" xlink:href="#m53d59ba7f4" y="201.902788"/>
     <use style="fill:#ff0000;stroke:#ff0000;" x="169.81497" xlink:href="#m53d59ba7f4" y="136.126199"/>
     <use style="fill:#ff0000;stroke:#ff0000;" x="147.893203" xlink:href="#m53d59ba7f4" y="138.869773"/>
     <use style="fill:#ff0000;stroke:#ff0000;" x="193.330513" xlink:href="#m53d59ba7f4" y="179.997494"/>
     <use style="fill:#ff0000;stroke:#ff0000;" x="119.903189" xlink:href="#m53d59ba7f4" y="96.06905"/>
     <use style="fill:#ff0000;stroke:#ff0000;" x="210.279309" xlink:href="#m53d59ba7f4" y="182.219028"/>
     <use style="fill:#ff0000;stroke:#ff0000;" x="164.966567" xlink:href="#m53d59ba7f4" y="177.238019"/>
     <use style="fill:#ff0000;stroke:#ff0000;" x="206.315986" xlink:href="#m53d59ba7f4" y="203.083757"/>
     <use style="fill:#ff0000;stroke:#ff0000;" x="167.040581" xlink:href="#m53d59ba7f4" y="150.292528"/>
     <use style="fill:#ff0000;stroke:#ff0000;" x="208.324704" xlink:href="#m53d59ba7f4" y="137.841716"/>
     <use style="fill:#ff0000;stroke:#ff0000;" x="229.264172" xlink:href="#m53d59ba7f4" y="180.047527"/>
     <use style="fill:#ff0000;stroke:#ff0000;" x="199.06933" xlink:href="#m53d59ba7f4" y="141.263847"/>
     <use style="fill:#ff0000;stroke:#ff0000;" x="130.588607" xlink:href="#m53d59ba7f4" y="103.132476"/>
     <use style="fill:#ff0000;stroke:#ff0000;" x="264.340632" xlink:href="#m53d59ba7f4" y="207.730839"/>
     <use style="fill:#ff0000;stroke:#ff0000;" x="92.290909" xlink:href="#m53d59ba7f4" y="121.876444"/>
     <use style="fill:#ff0000;stroke:#ff0000;" x="194.286144" xlink:href="#m53d59ba7f4" y="167.507519"/>
     <use style="fill:#ff0000;stroke:#ff0000;" x="160.263725" xlink:href="#m53d59ba7f4" y="177.747275"/>
     <use style="fill:#ff0000;stroke:#ff0000;" x="222.694496" xlink:href="#m53d59ba7f4" y="241.508263"/>
     <use style="fill:#ff0000;stroke:#ff0000;" x="178.86191" xlink:href="#m53d59ba7f4" y="160.426512"/>
     <use style="fill:#ff0000;stroke:#ff0000;" x="249.831806" xlink:href="#m53d59ba7f4" y="174.752445"/>
     <use style="fill:#ff0000;stroke:#ff0000;" x="195.774243" xlink:href="#m53d59ba7f4" y="214.315049"/>
     <use style="fill:#ff0000;stroke:#ff0000;" x="196.201413" xlink:href="#m53d59ba7f4" y="111.925706"/>
     <use style="fill:#ff0000;stroke:#ff0000;" x="132.136389" xlink:href="#m53d59ba7f4" y="162.121242"/>
     <use style="fill:#ff0000;stroke:#ff0000;" x="196.925226" xlink:href="#m53d59ba7f4" y="168.448264"/>
     <use style="fill:#ff0000;stroke:#ff0000;" x="274.088891" xlink:href="#m53d59ba7f4" y="201.693857"/>
     <use style="fill:#ff0000;stroke:#ff0000;" x="162.217658" xlink:href="#m53d59ba7f4" y="184.516773"/>
     <use style="fill:#ff0000;stroke:#ff0000;" x="187.685798" xlink:href="#m53d59ba7f4" y="224.036533"/>
     <use style="fill:#ff0000;stroke:#ff0000;" x="243.969448" xlink:href="#m53d59ba7f4" y="139.754108"/>
     <use style="fill:#ff0000;stroke:#ff0000;" x="211.809128" xlink:href="#m53d59ba7f4" y="222.929118"/>
     <use style="fill:#ff0000;stroke:#ff0000;" x="177.619956" xlink:href="#m53d59ba7f4" y="168.233701"/>
     <use style="fill:#ff0000;stroke:#ff0000;" x="194.877551" xlink:href="#m53d59ba7f4" y="181.610549"/>
     <use style="fill:#ff0000;stroke:#ff0000;" x="180.115101" xlink:href="#m53d59ba7f4" y="157.476404"/>
     <use style="fill:#ff0000;stroke:#ff0000;" x="176.775092" xlink:href="#m53d59ba7f4" y="171.703096"/>
     <use style="fill:#ff0000;stroke:#ff0000;" x="202.49128" xlink:href="#m53d59ba7f4" y="158.497644"/>
     <use style="fill:#ff0000;stroke:#ff0000;" x="192.920911" xlink:href="#m53d59ba7f4" y="159.944135"/>
     <use style="fill:#ff0000;stroke:#ff0000;" x="235.625473" xlink:href="#m53d59ba7f4" y="213.960943"/>
     <use style="fill:#ff0000;stroke:#ff0000;" x="176.817469" xlink:href="#m53d59ba7f4" y="138.692672"/>
     <use style="fill:#ff0000;stroke:#ff0000;" x="149.507872" xlink:href="#m53d59ba7f4" y="163.624338"/>
    </g>
   </g>
   <g id="line2d_15">
    <defs>
     <path d="M 0 3 
C 0.795609 3 1.55874 2.683901 2.12132 2.12132 
C 2.683901 1.55874 3 0.795609 3 0 
C 3 -0.795609 2.683901 -1.55874 2.12132 -2.12132 
C 1.55874 -2.683901 0.795609 -3 0 -3 
C -0.795609 -3 -1.55874 -2.683901 -2.12132 -2.12132 
C -2.683901 -1.55874 -3 -0.795609 -3 0 
C -3 0.795609 -2.683901 1.55874 -2.12132 2.12132 
C -1.55874 2.683901 -0.795609 3 0 3 
z
" id="m9ee5e0b1ce" style="stroke:#0000ff;"/>
    </defs>
    <g clip-path="url(#p6d326809fc)">
     <use style="fill:#0000ff;stroke:#0000ff;" x="201.228147" xlink:href="#m9ee5e0b1ce" y="264.609"/>
     <use style="fill:#0000ff;stroke:#0000ff;" x="356.648647" xlink:href="#m9ee5e0b1ce" y="299.381166"/>
     <use style="fill:#0000ff;stroke:#0000ff;" x="252.520987" xlink:href="#m9ee5e0b1ce" y="273.190973"/>
     <use style="fill:#0000ff;stroke:#0000ff;" x="206.892389" xlink:href="#m9ee5e0b1ce" y="265.105865"/>
     <use style="fill:#0000ff;stroke:#0000ff;" x="248.639124" xlink:href="#m9ee5e0b1ce" y="279.024818"/>
     <use style="fill:#0000ff;stroke:#0000ff;" x="417.343101" xlink:href="#m9ee5e0b1ce" y="218.658502"/>
     <use style="fill:#0000ff;stroke:#0000ff;" x="293.238725" xlink:href="#m9ee5e0b1ce" y="266.687573"/>
     <use style="fill:#0000ff;stroke:#0000ff;" x="379.013687" xlink:href="#m9ee5e0b1ce" y="283.256898"/>
     <use style="fill:#0000ff;stroke:#0000ff;" x="320.445465" xlink:href="#m9ee5e0b1ce" y="226.226291"/>
     <use style="fill:#0000ff;stroke:#0000ff;" x="186.892932" xlink:href="#m9ee5e0b1ce" y="290.044643"/>
     <use style="fill:#0000ff;stroke:#0000ff;" x="318.292438" xlink:href="#m9ee5e0b1ce" y="293.121764"/>
     <use style="fill:#0000ff;stroke:#0000ff;" x="332.547636" xlink:href="#m9ee5e0b1ce" y="339.117234"/>
     <use style="fill:#0000ff;stroke:#0000ff;" x="243.600968" xlink:href="#m9ee5e0b1ce" y="318.117935"/>
     <use style="fill:#0000ff;stroke:#0000ff;" x="289.405494" xlink:href="#m9ee5e0b1ce" y="307.956441"/>
     <use style="fill:#0000ff;stroke:#0000ff;" x="245.039804" xlink:href="#m9ee5e0b1ce" y="271.425193"/>
     <use style="fill:#0000ff;stroke:#0000ff;" x="271.038127" xlink:href="#m9ee5e0b1ce" y="369.36"/>
     <use style="fill:#0000ff;stroke:#0000ff;" x="353.634179" xlink:href="#m9ee5e0b1ce" y="243.058662"/>
     <use style="fill:#0000ff;stroke:#0000ff;" x="197.001492" xlink:href="#m9ee5e0b1ce" y="292.291157"/>
     <use style="fill:#0000ff;stroke:#0000ff;" x="380.835939" xlink:href="#m9ee5e0b1ce" y="245.323155"/>
     <use style="fill:#0000ff;stroke:#0000ff;" x="323.900441" xlink:href="#m9ee5e0b1ce" y="324.700636"/>
     <use style="fill:#0000ff;stroke:#0000ff;" x="275.246162" xlink:href="#m9ee5e0b1ce" y="300.035232"/>
     <use style="fill:#0000ff;stroke:#0000ff;" x="333.078935" xlink:href="#m9ee5e0b1ce" y="302.618098"/>
     <use style="fill:#0000ff;stroke:#0000ff;" x="322.843199" xlink:href="#m9ee5e0b1ce" y="287.681787"/>
     <use style="fill:#0000ff;stroke:#0000ff;" x="317.189773" xlink:href="#m9ee5e0b1ce" y="292.581713"/>
     <use style="fill:#0000ff;stroke:#0000ff;" x="319.365193" xlink:href="#m9ee5e0b1ce" y="307.049052"/>
     <use style="fill:#0000ff;stroke:#0000ff;" x="379.631836" xlink:href="#m9ee5e0b1ce" y="265.13679"/>
     <use style="fill:#0000ff;stroke:#0000ff;" x="310.191566" xlink:href="#m9ee5e0b1ce" y="301.805268"/>
     <use style="fill:#0000ff;stroke:#0000ff;" x="218.708859" xlink:href="#m9ee5e0b1ce" y="250.433129"/>
     <use style="fill:#0000ff;stroke:#0000ff;" x="177.654719" xlink:href="#m9ee5e0b1ce" y="199.327762"/>
     <use style="fill:#0000ff;stroke:#0000ff;" x="330.002693" xlink:href="#m9ee5e0b1ce" y="255.949857"/>
     <use style="fill:#0000ff;stroke:#0000ff;" x="318.868966" xlink:href="#m9ee5e0b1ce" y="246.175167"/>
     <use style="fill:#0000ff;stroke:#0000ff;" x="365.809897" xlink:href="#m9ee5e0b1ce" y="265.410051"/>
     <use style="fill:#0000ff;stroke:#0000ff;" x="255.650293" xlink:href="#m9ee5e0b1ce" y="309.640393"/>
     <use style="fill:#0000ff;stroke:#0000ff;" x="187.961865" xlink:href="#m9ee5e0b1ce" y="271.998107"/>
     <use style="fill:#0000ff;stroke:#0000ff;" x="228.616563" xlink:href="#m9ee5e0b1ce" y="302.765514"/>
     <use style="fill:#0000ff;stroke:#0000ff;" x="298.505663" xlink:href="#m9ee5e0b1ce" y="301.583905"/>
     <use style="fill:#0000ff;stroke:#0000ff;" x="301.883023" xlink:href="#m9ee5e0b1ce" y="262.004131"/>
     <use style="fill:#0000ff;stroke:#0000ff;" x="274.953013" xlink:href="#m9ee5e0b1ce" y="298.376596"/>
     <use style="fill:#0000ff;stroke:#0000ff;" x="300.414358" xlink:href="#m9ee5e0b1ce" y="290.555718"/>
     <use style="fill:#0000ff;stroke:#0000ff;" x="218.920747" xlink:href="#m9ee5e0b1ce" y="272.415487"/>
     <use style="fill:#0000ff;stroke:#0000ff;" x="319.434309" xlink:href="#m9ee5e0b1ce" y="321.637444"/>
     <use style="fill:#0000ff;stroke:#0000ff;" x="247.240277" xlink:href="#m9ee5e0b1ce" y="305.616802"/>
     <use style="fill:#0000ff;stroke:#0000ff;" x="407.684526" xlink:href="#m9ee5e0b1ce" y="268.677772"/>
     <use style="fill:#0000ff;stroke:#0000ff;" x="356.666077" xlink:href="#m9ee5e0b1ce" y="241.782484"/>
     <use style="fill:#0000ff;stroke:#0000ff;" x="237.087634" xlink:href="#m9ee5e0b1ce" y="200.697934"/>
     <use style="fill:#0000ff;stroke:#0000ff;" x="228.478059" xlink:href="#m9ee5e0b1ce" y="276.280234"/>
     <use style="fill:#0000ff;stroke:#0000ff;" x="333.30335" xlink:href="#m9ee5e0b1ce" y="312.674894"/>
     <use style="fill:#0000ff;stroke:#0000ff;" x="279.690593" xlink:href="#m9ee5e0b1ce" y="256.368864"/>
     <use style="fill:#0000ff;stroke:#0000ff;" x="314.659095" xlink:href="#m9ee5e0b1ce" y="305.059405"/>
     <use style="fill:#0000ff;stroke:#0000ff;" x="258.829422" xlink:href="#m9ee5e0b1ce" y="272.680598"/>
     <use style="fill:#0000ff;stroke:#0000ff;" x="346.330998" xlink:href="#m9ee5e0b1ce" y="286.72376"/>
     <use style="fill:#0000ff;stroke:#0000ff;" x="256.471241" xlink:href="#m9ee5e0b1ce" y="350.05433"/>
    </g>
   </g>
   <g id="line2d_16">
    <defs>
     <path d="M 0 3 
C 0.795609 3 1.55874 2.683901 2.12132 2.12132 
C 2.683901 1.55874 3 0.795609 3 0 
C 3 -0.795609 2.683901 -1.55874 2.12132 -2.12132 
C 1.55874 -2.683901 0.795609 -3 0 -3 
C -0.795609 -3 -1.55874 -2.683901 -2.12132 -2.12132 
C -2.683901 -1.55874 -3 -0.795609 -3 0 
C -3 0.795609 -2.683901 1.55874 -2.12132 2.12132 
C -1.55874 2.683901 -0.795609 3 0 3 
z
" id="m4c1e15bd1d" style="stroke:#ff00ff;"/>
    </defs>
    <g clip-path="url(#p6d326809fc)">
     <use style="fill:#ff00ff;stroke:#ff00ff;" x="451.406986" xlink:href="#m4c1e15bd1d" y="101.254787"/>
     <use style="fill:#ff00ff;stroke:#ff00ff;" x="498.109091" xlink:href="#m4c1e15bd1d" y="192.171581"/>
     <use style="fill:#ff00ff;stroke:#ff00ff;" x="408.022325" xlink:href="#m4c1e15bd1d" y="199.316456"/>
     <use style="fill:#ff00ff;stroke:#ff00ff;" x="402.556796" xlink:href="#m4c1e15bd1d" y="163.469907"/>
     <use style="fill:#ff00ff;stroke:#ff00ff;" x="436.556931" xlink:href="#m4c1e15bd1d" y="149.511892"/>
     <use style="fill:#ff00ff;stroke:#ff00ff;" x="408.876912" xlink:href="#m4c1e15bd1d" y="200.939376"/>
     <use style="fill:#ff00ff;stroke:#ff00ff;" x="484.448593" xlink:href="#m4c1e15bd1d" y="190.079896"/>
     <use style="fill:#ff00ff;stroke:#ff00ff;" x="464.458602" xlink:href="#m4c1e15bd1d" y="179.24685"/>
     <use style="fill:#ff00ff;stroke:#ff00ff;" x="402.288662" xlink:href="#m4c1e15bd1d" y="197.668461"/>
     <use style="fill:#ff00ff;stroke:#ff00ff;" x="425.120145" xlink:href="#m4c1e15bd1d" y="100.695688"/>
     <use style="fill:#ff00ff;stroke:#ff00ff;" x="417.961509" xlink:href="#m4c1e15bd1d" y="130.651094"/>
     <use style="fill:#ff00ff;stroke:#ff00ff;" x="434.094397" xlink:href="#m4c1e15bd1d" y="162.558752"/>
     <use style="fill:#ff00ff;stroke:#ff00ff;" x="468.854437" xlink:href="#m4c1e15bd1d" y="143.059269"/>
     <use style="fill:#ff00ff;stroke:#ff00ff;" x="421.14487" xlink:href="#m4c1e15bd1d" y="142.505096"/>
     <use style="fill:#ff00ff;stroke:#ff00ff;" x="417.903723" xlink:href="#m4c1e15bd1d" y="185.518735"/>
     <use style="fill:#ff00ff;stroke:#ff00ff;" x="426.217125" xlink:href="#m4c1e15bd1d" y="200.836501"/>
     <use style="fill:#ff00ff;stroke:#ff00ff;" x="444.439869" xlink:href="#m4c1e15bd1d" y="187.277623"/>
     <use style="fill:#ff00ff;stroke:#ff00ff;" x="401.569471" xlink:href="#m4c1e15bd1d" y="126.377549"/>
     <use style="fill:#ff00ff;stroke:#ff00ff;" x="408.800494" xlink:href="#m4c1e15bd1d" y="196.545062"/>
     <use style="fill:#ff00ff;stroke:#ff00ff;" x="445.458368" xlink:href="#m4c1e15bd1d" y="225.402469"/>
     <use style="fill:#ff00ff;stroke:#ff00ff;" x="399.902647" xlink:href="#m4c1e15bd1d" y="167.165163"/>
     <use style="fill:#ff00ff;stroke:#ff00ff;" x="383.886785" xlink:href="#m4c1e15bd1d" y="150.585225"/>
     <use style="fill:#ff00ff;stroke:#ff00ff;" x="420.207896" xlink:href="#m4c1e15bd1d" y="191.574254"/>
     <use style="fill:#ff00ff;stroke:#ff00ff;" x="431.284259" xlink:href="#m4c1e15bd1d" y="189.409163"/>
     <use style="fill:#ff00ff;stroke:#ff00ff;" x="410.463558" xlink:href="#m4c1e15bd1d" y="116.718307"/>
     <use style="fill:#ff00ff;stroke:#ff00ff;" x="357.098237" xlink:href="#m4c1e15bd1d" y="204.261056"/>
     <use style="fill:#ff00ff;stroke:#ff00ff;" x="468.628544" xlink:href="#m4c1e15bd1d" y="179.635665"/>
     <use style="fill:#ff00ff;stroke:#ff00ff;" x="350.103583" xlink:href="#m4c1e15bd1d" y="66.96"/>
     <use style="fill:#ff00ff;stroke:#ff00ff;" x="433.786679" xlink:href="#m4c1e15bd1d" y="137.433281"/>
     <use style="fill:#ff00ff;stroke:#ff00ff;" x="424.594547" xlink:href="#m4c1e15bd1d" y="194.686396"/>
     <use style="fill:#ff00ff;stroke:#ff00ff;" x="411.726898" xlink:href="#m4c1e15bd1d" y="109.466379"/>
     <use style="fill:#ff00ff;stroke:#ff00ff;" x="434.995521" xlink:href="#m4c1e15bd1d" y="203.293273"/>
     <use style="fill:#ff00ff;stroke:#ff00ff;" x="427.721307" xlink:href="#m4c1e15bd1d" y="126.182412"/>
     <use style="fill:#ff00ff;stroke:#ff00ff;" x="435.401858" xlink:href="#m4c1e15bd1d" y="131.586332"/>
     <use style="fill:#ff00ff;stroke:#ff00ff;" x="429.501351" xlink:href="#m4c1e15bd1d" y="150.778568"/>
     <use style="fill:#ff00ff;stroke:#ff00ff;" x="437.673911" xlink:href="#m4c1e15bd1d" y="192.601038"/>
     <use style="fill:#ff00ff;stroke:#ff00ff;" x="442.005923" xlink:href="#m4c1e15bd1d" y="199.97157"/>
     <use style="fill:#ff00ff;stroke:#ff00ff;" x="373.95714" xlink:href="#m4c1e15bd1d" y="113.900079"/>
     <use style="fill:#ff00ff;stroke:#ff00ff;" x="457.348594" xlink:href="#m4c1e15bd1d" y="126.131251"/>
     <use style="fill:#ff00ff;stroke:#ff00ff;" x="480.434617" xlink:href="#m4c1e15bd1d" y="210.630929"/>
    </g>
   </g>
   <g id="patch_3">
    <path d="M 72 384.48 
L 72 51.84 
" style="fill:none;stroke:#000000;stroke-linecap:square;stroke-linejoin:miter;stroke-width:0.8;"/>
   </g>
   <g id="patch_4">
    <path d="M 518.4 384.48 
L 518.4 51.84 
" style="fill:none;stroke:#000000;stroke-linecap:square;stroke-linejoin:miter;stroke-width:0.8;"/>
   </g>
   <g id="patch_5">
    <path d="M 72 384.48 
L 518.4 384.48 
" style="fill:none;stroke:#000000;stroke-linecap:square;stroke-linejoin:miter;stroke-width:0.8;"/>
   </g>
   <g id="patch_6">
    <path d="M 72 51.84 
L 518.4 51.84 
" style="fill:none;stroke:#000000;stroke-linecap:square;stroke-linejoin:miter;stroke-width:0.8;"/>
   </g>
   <g id="legend_1">
    <g id="patch_7">
     <path d="M 80.4 378.48 
L 161.818125 378.48 
Q 164.218125 378.48 164.218125 376.08 
L 164.218125 324.43875 
Q 164.218125 322.03875 161.818125 322.03875 
L 80.4 322.03875 
Q 78 322.03875 78 324.43875 
L 78 376.08 
Q 78 378.48 80.4 378.48 
z
" style="fill:#ffffff;opacity:0.8;stroke:#cccccc;stroke-linejoin:miter;"/>
    </g>
    <g id="line2d_17"/>
    <g id="line2d_18">
     <g>
      <use style="fill:#ff0000;stroke:#ff0000;" x="94.8" xlink:href="#m53d59ba7f4" y="331.756875"/>
     </g>
    </g>
    <g id="text_16">
     <!-- Class 1 -->
     <defs>
      <path d="M 9.421875 75.984375 
L 18.40625 75.984375 
L 18.40625 0 
L 9.421875 0 
z
" id="DejaVuSans-108"/>
      <path d="M 34.28125 27.484375 
Q 23.390625 27.484375 19.1875 25 
Q 14.984375 22.515625 14.984375 16.5 
Q 14.984375 11.71875 18.140625 8.90625 
Q 21.296875 6.109375 26.703125 6.109375 
Q 34.1875 6.109375 38.703125 11.40625 
Q 43.21875 16.703125 43.21875 25.484375 
L 43.21875 27.484375 
z
M 52.203125 31.203125 
L 52.203125 0 
L 43.21875 0 
L 43.21875 8.296875 
Q 40.140625 3.328125 35.546875 0.953125 
Q 30.953125 -1.421875 24.3125 -1.421875 
Q 15.921875 -1.421875 10.953125 3.296875 
Q 6 8.015625 6 15.921875 
Q 6 25.140625 12.171875 29.828125 
Q 18.359375 34.515625 30.609375 34.515625 
L 43.21875 34.515625 
L 43.21875 35.40625 
Q 43.21875 41.609375 39.140625 45 
Q 35.0625 48.390625 27.6875 48.390625 
Q 23 48.390625 18.546875 47.265625 
Q 14.109375 46.140625 10.015625 43.890625 
L 10.015625 52.203125 
Q 14.9375 54.109375 19.578125 55.046875 
Q 24.21875 56 28.609375 56 
Q 40.484375 56 46.34375 49.84375 
Q 52.203125 43.703125 52.203125 31.203125 
z
" id="DejaVuSans-97"/>
     </defs>
     <g transform="translate(116.4 335.956875)scale(0.12 -0.12)">
      <use xlink:href="#DejaVuSans-67"/>
      <use x="69.824219" xlink:href="#DejaVuSans-108"/>
      <use x="97.607422" xlink:href="#DejaVuSans-97"/>
      <use x="158.886719" xlink:href="#DejaVuSans-115"/>
      <use x="210.986328" xlink:href="#DejaVuSans-115"/>
      <use x="263.085938" xlink:href="#DejaVuSans-32"/>
      <use x="294.873047" xlink:href="#DejaVuSans-49"/>
     </g>
    </g>
    <g id="line2d_19"/>
    <g id="line2d_20">
     <g>
      <use style="fill:#0000ff;stroke:#0000ff;" x="94.8" xlink:href="#m9ee5e0b1ce" y="349.370625"/>
     </g>
    </g>
    <g id="text_17">
     <!-- Class 2 -->
     <g transform="translate(116.4 353.570625)scale(0.12 -0.12)">
      <use xlink:href="#DejaVuSans-67"/>
      <use x="69.824219" xlink:href="#DejaVuSans-108"/>
      <use x="97.607422" xlink:href="#DejaVuSans-97"/>
      <use x="158.886719" xlink:href="#DejaVuSans-115"/>
      <use x="210.986328" xlink:href="#DejaVuSans-115"/>
      <use x="263.085938" xlink:href="#DejaVuSans-32"/>
      <use x="294.873047" xlink:href="#DejaVuSans-50"/>
     </g>
    </g>
    <g id="line2d_21"/>
    <g id="line2d_22">
     <g>
      <use style="fill:#ff00ff;stroke:#ff00ff;" x="94.8" xlink:href="#m4c1e15bd1d" y="366.984375"/>
     </g>
    </g>
    <g id="text_18">
     <!-- Class 3 -->
     <g transform="translate(116.4 371.184375)scale(0.12 -0.12)">
      <use xlink:href="#DejaVuSans-67"/>
      <use x="69.824219" xlink:href="#DejaVuSans-108"/>
      <use x="97.607422" xlink:href="#DejaVuSans-97"/>
      <use x="158.886719" xlink:href="#DejaVuSans-115"/>
      <use x="210.986328" xlink:href="#DejaVuSans-115"/>
      <use x="263.085938" xlink:href="#DejaVuSans-32"/>
      <use x="294.873047" xlink:href="#DejaVuSans-51"/>
     </g>
    </g>
   </g>
  </g>
 </g>
 <defs>
  <clipPath id="p6d326809fc">
   <rect height="332.64" width="446.4" x="72" y="51.84"/>
  </clipPath>
 </defs>
</svg>
