<?xml version="1.0" encoding="utf-8"?>
<svg xmlns="http://www.w3.org/2000/svg" xmlns:xlink="http://www.w3.org/1999/xlink" width="600" height="400" viewBox="0 0 2400 1600">
<defs>
  <clipPath id="clip760">
    <rect x="0" y="0" width="2400" height="1600"/>
  </clipPath>
</defs>
<path clip-path="url(#clip760)" d="M0 1600 L2400 1600 L2400 8.88178e-14 L0 8.88178e-14  Z" fill="#ffffff" fill-rule="evenodd" fill-opacity="1"/>
<defs>
  <clipPath id="clip761">
    <rect x="480" y="0" width="1681" height="1600"/>
  </clipPath>
</defs>
<path clip-path="url(#clip760)" d="M266.272 1414.54 L2352.76 1414.54 L2352.76 47.2441 L266.272 47.2441  Z" fill="#ffffff" fill-rule="evenodd" fill-opacity="1"/>
<defs>
  <clipPath id="clip762">
    <rect x="266" y="47" width="2087" height="1368"/>
  </clipPath>
</defs>
<polyline clip-path="url(#clip762)" style="stroke:#000000; stroke-linecap:round; stroke-linejoin:round; stroke-width:2; stroke-opacity:0.1; fill:none" points="325.324,1414.54 325.324,47.2441 "/>
<polyline clip-path="url(#clip762)" style="stroke:#000000; stroke-linecap:round; stroke-linejoin:round; stroke-width:2; stroke-opacity:0.1; fill:none" points="817.419,1414.54 817.419,47.2441 "/>
<polyline clip-path="url(#clip762)" style="stroke:#000000; stroke-linecap:round; stroke-linejoin:round; stroke-width:2; stroke-opacity:0.1; fill:none" points="1309.51,1414.54 1309.51,47.2441 "/>
<polyline clip-path="url(#clip762)" style="stroke:#000000; stroke-linecap:round; stroke-linejoin:round; stroke-width:2; stroke-opacity:0.1; fill:none" points="1801.61,1414.54 1801.61,47.2441 "/>
<polyline clip-path="url(#clip762)" style="stroke:#000000; stroke-linecap:round; stroke-linejoin:round; stroke-width:2; stroke-opacity:0.1; fill:none" points="2293.7,1414.54 2293.7,47.2441 "/>
<polyline clip-path="url(#clip760)" style="stroke:#000000; stroke-linecap:round; stroke-linejoin:round; stroke-width:4; stroke-opacity:1; fill:none" points="266.272,1414.54 2352.76,1414.54 "/>
<polyline clip-path="url(#clip760)" style="stroke:#000000; stroke-linecap:round; stroke-linejoin:round; stroke-width:4; stroke-opacity:1; fill:none" points="325.324,1414.54 325.324,1395.64 "/>
<polyline clip-path="url(#clip760)" style="stroke:#000000; stroke-linecap:round; stroke-linejoin:round; stroke-width:4; stroke-opacity:1; fill:none" points="817.419,1414.54 817.419,1395.64 "/>
<polyline clip-path="url(#clip760)" style="stroke:#000000; stroke-linecap:round; stroke-linejoin:round; stroke-width:4; stroke-opacity:1; fill:none" points="1309.51,1414.54 1309.51,1395.64 "/>
<polyline clip-path="url(#clip760)" style="stroke:#000000; stroke-linecap:round; stroke-linejoin:round; stroke-width:4; stroke-opacity:1; fill:none" points="1801.61,1414.54 1801.61,1395.64 "/>
<polyline clip-path="url(#clip760)" style="stroke:#000000; stroke-linecap:round; stroke-linejoin:round; stroke-width:4; stroke-opacity:1; fill:none" points="2293.7,1414.54 2293.7,1395.64 "/>
<path clip-path="url(#clip760)" d="M299.881 1446.92 Q295.819 1446.92 293.761 1450.93 Q291.73 1454.92 291.73 1462.94 Q291.73 1470.93 293.761 1474.94 Q295.819 1478.93 299.881 1478.93 Q303.97 1478.93 306.001 1474.94 Q308.058 1470.93 308.058 1462.94 Q308.058 1454.92 306.001 1450.93 Q303.97 1446.92 299.881 1446.92 M299.881 1442.76 Q306.418 1442.76 309.855 1447.94 Q313.319 1453.1 313.319 1462.94 Q313.319 1472.76 309.855 1477.94 Q306.418 1483.1 299.881 1483.1 Q293.345 1483.1 289.881 1477.94 Q286.444 1472.76 286.444 1462.94 Q286.444 1453.1 289.881 1447.94 Q293.345 1442.76 299.881 1442.76 Z" fill="#000000" fill-rule="nonzero" fill-opacity="1" /><path clip-path="url(#clip760)" d="M322.563 1475.73 L328.058 1475.73 L328.058 1482.34 L322.563 1482.34 L322.563 1475.73 Z" fill="#000000" fill-rule="nonzero" fill-opacity="1" /><path clip-path="url(#clip760)" d="M350.766 1446.92 Q346.704 1446.92 344.647 1450.93 Q342.615 1454.92 342.615 1462.94 Q342.615 1470.93 344.647 1474.94 Q346.704 1478.93 350.766 1478.93 Q354.855 1478.93 356.886 1474.94 Q358.943 1470.93 358.943 1462.94 Q358.943 1454.92 356.886 1450.93 Q354.855 1446.92 350.766 1446.92 M350.766 1442.76 Q357.303 1442.76 360.74 1447.94 Q364.204 1453.1 364.204 1462.94 Q364.204 1472.76 360.74 1477.94 Q357.303 1483.1 350.766 1483.1 Q344.23 1483.1 340.766 1477.94 Q337.329 1472.76 337.329 1462.94 Q337.329 1453.1 340.766 1447.94 Q344.23 1442.76 350.766 1442.76 Z" fill="#000000" fill-rule="nonzero" fill-opacity="1" /><path clip-path="url(#clip760)" d="M785.622 1477.91 L803.981 1477.91 L803.981 1482.34 L779.294 1482.34 L779.294 1477.91 Q782.289 1474.81 787.445 1469.61 Q792.627 1464.37 793.955 1462.86 Q796.482 1460.02 797.471 1458.07 Q798.487 1456.09 798.487 1454.19 Q798.487 1451.09 796.299 1449.14 Q794.138 1447.18 790.648 1447.18 Q788.174 1447.18 785.414 1448.04 Q782.679 1448.9 779.555 1450.65 L779.555 1445.33 Q782.732 1444.06 785.492 1443.41 Q788.252 1442.76 790.544 1442.76 Q796.586 1442.76 800.179 1445.78 Q803.773 1448.8 803.773 1453.85 Q803.773 1456.25 802.862 1458.41 Q801.976 1460.54 799.606 1463.46 Q798.955 1464.21 795.466 1467.83 Q791.976 1471.43 785.622 1477.91 Z" fill="#000000" fill-rule="nonzero" fill-opacity="1" /><path clip-path="url(#clip760)" d="M815.023 1475.73 L820.518 1475.73 L820.518 1482.34 L815.023 1482.34 L815.023 1475.73 Z" fill="#000000" fill-rule="nonzero" fill-opacity="1" /><path clip-path="url(#clip760)" d="M832.028 1443.46 L852.679 1443.46 L852.679 1447.89 L836.846 1447.89 L836.846 1457.42 Q837.992 1457.03 839.138 1456.85 Q840.283 1456.64 841.429 1456.64 Q847.94 1456.64 851.742 1460.2 Q855.544 1463.77 855.544 1469.87 Q855.544 1476.14 851.637 1479.63 Q847.731 1483.1 840.622 1483.1 Q838.174 1483.1 835.622 1482.68 Q833.096 1482.26 830.388 1481.43 L830.388 1476.14 Q832.731 1477.42 835.231 1478.04 Q837.731 1478.67 840.518 1478.67 Q845.023 1478.67 847.653 1476.3 Q850.283 1473.93 850.283 1469.87 Q850.283 1465.8 847.653 1463.43 Q845.023 1461.06 840.518 1461.06 Q838.408 1461.06 836.299 1461.53 Q834.216 1462 832.028 1462.99 L832.028 1443.46 Z" fill="#000000" fill-rule="nonzero" fill-opacity="1" /><path clip-path="url(#clip760)" d="M1272.57 1443.46 L1293.23 1443.46 L1293.23 1447.89 L1277.39 1447.89 L1277.39 1457.42 Q1278.54 1457.03 1279.68 1456.85 Q1280.83 1456.64 1281.98 1456.64 Q1288.49 1456.64 1292.29 1460.2 Q1296.09 1463.77 1296.09 1469.87 Q1296.09 1476.14 1292.18 1479.63 Q1288.28 1483.1 1281.17 1483.1 Q1278.72 1483.1 1276.17 1482.68 Q1273.64 1482.26 1270.93 1481.43 L1270.93 1476.14 Q1273.28 1477.42 1275.78 1478.04 Q1278.28 1478.67 1281.06 1478.67 Q1285.57 1478.67 1288.2 1476.3 Q1290.83 1473.93 1290.83 1469.87 Q1290.83 1465.8 1288.2 1463.43 Q1285.57 1461.06 1281.06 1461.06 Q1278.95 1461.06 1276.84 1461.53 Q1274.76 1462 1272.57 1462.99 L1272.57 1443.46 Z" fill="#000000" fill-rule="nonzero" fill-opacity="1" /><path clip-path="url(#clip760)" d="M1306.45 1475.73 L1311.95 1475.73 L1311.95 1482.34 L1306.45 1482.34 L1306.45 1475.73 Z" fill="#000000" fill-rule="nonzero" fill-opacity="1" /><path clip-path="url(#clip760)" d="M1334.66 1446.92 Q1330.59 1446.92 1328.54 1450.93 Q1326.51 1454.92 1326.51 1462.94 Q1326.51 1470.93 1328.54 1474.94 Q1330.59 1478.93 1334.66 1478.93 Q1338.75 1478.93 1340.78 1474.94 Q1342.83 1470.93 1342.83 1462.94 Q1342.83 1454.92 1340.78 1450.93 Q1338.75 1446.92 1334.66 1446.92 M1334.66 1442.76 Q1341.19 1442.76 1344.63 1447.94 Q1348.09 1453.1 1348.09 1462.94 Q1348.09 1472.76 1344.63 1477.94 Q1341.19 1483.1 1334.66 1483.1 Q1328.12 1483.1 1324.66 1477.94 Q1321.22 1472.76 1321.22 1462.94 Q1321.22 1453.1 1324.66 1447.94 Q1328.12 1442.76 1334.66 1442.76 Z" fill="#000000" fill-rule="nonzero" fill-opacity="1" /><path clip-path="url(#clip760)" d="M1763.72 1443.46 L1788.72 1443.46 L1788.72 1445.7 L1774.6 1482.34 L1769.11 1482.34 L1782.39 1447.89 L1763.72 1447.89 L1763.72 1443.46 Z" fill="#000000" fill-rule="nonzero" fill-opacity="1" /><path clip-path="url(#clip760)" d="M1798.98 1475.73 L1804.47 1475.73 L1804.47 1482.34 L1798.98 1482.34 L1798.98 1475.73 Z" fill="#000000" fill-rule="nonzero" fill-opacity="1" /><path clip-path="url(#clip760)" d="M1815.98 1443.46 L1836.64 1443.46 L1836.64 1447.89 L1820.8 1447.89 L1820.8 1457.42 Q1821.95 1457.03 1823.09 1456.85 Q1824.24 1456.64 1825.39 1456.64 Q1831.9 1456.64 1835.7 1460.2 Q1839.5 1463.77 1839.5 1469.87 Q1839.5 1476.14 1835.59 1479.63 Q1831.69 1483.1 1824.58 1483.1 Q1822.13 1483.1 1819.58 1482.68 Q1817.05 1482.26 1814.34 1481.43 L1814.34 1476.14 Q1816.69 1477.42 1819.19 1478.04 Q1821.69 1478.67 1824.47 1478.67 Q1828.98 1478.67 1831.61 1476.3 Q1834.24 1473.93 1834.24 1469.87 Q1834.24 1465.8 1831.61 1463.43 Q1828.98 1461.06 1824.47 1461.06 Q1822.36 1461.06 1820.26 1461.53 Q1818.17 1462 1815.98 1462.99 L1815.98 1443.46 Z" fill="#000000" fill-rule="nonzero" fill-opacity="1" /><path clip-path="url(#clip760)" d="M2239.79 1477.91 L2248.38 1477.91 L2248.38 1448.25 L2239.03 1450.13 L2239.03 1445.33 L2248.33 1443.46 L2253.59 1443.46 L2253.59 1477.91 L2262.18 1477.91 L2262.18 1482.34 L2239.79 1482.34 L2239.79 1477.91 Z" fill="#000000" fill-rule="nonzero" fill-opacity="1" /><path clip-path="url(#clip760)" d="M2284.06 1446.92 Q2279.99 1446.92 2277.94 1450.93 Q2275.91 1454.92 2275.91 1462.94 Q2275.91 1470.93 2277.94 1474.94 Q2279.99 1478.93 2284.06 1478.93 Q2288.14 1478.93 2290.18 1474.94 Q2292.23 1470.93 2292.23 1462.94 Q2292.23 1454.92 2290.18 1450.93 Q2288.14 1446.92 2284.06 1446.92 M2284.06 1442.76 Q2290.59 1442.76 2294.03 1447.94 Q2297.49 1453.1 2297.49 1462.94 Q2297.49 1472.76 2294.03 1477.94 Q2290.59 1483.1 2284.06 1483.1 Q2277.52 1483.1 2274.06 1477.94 Q2270.62 1472.76 2270.62 1462.94 Q2270.62 1453.1 2274.06 1447.94 Q2277.52 1442.76 2284.06 1442.76 Z" fill="#000000" fill-rule="nonzero" fill-opacity="1" /><path clip-path="url(#clip760)" d="M2306.74 1475.73 L2312.23 1475.73 L2312.23 1482.34 L2306.74 1482.34 L2306.74 1475.73 Z" fill="#000000" fill-rule="nonzero" fill-opacity="1" /><path clip-path="url(#clip760)" d="M2334.94 1446.92 Q2330.88 1446.92 2328.82 1450.93 Q2326.79 1454.92 2326.79 1462.94 Q2326.79 1470.93 2328.82 1474.94 Q2330.88 1478.93 2334.94 1478.93 Q2339.03 1478.93 2341.06 1474.94 Q2343.12 1470.93 2343.12 1462.94 Q2343.12 1454.92 2341.06 1450.93 Q2339.03 1446.92 2334.94 1446.92 M2334.94 1442.76 Q2341.48 1442.76 2344.92 1447.94 Q2348.38 1453.1 2348.38 1462.94 Q2348.38 1472.76 2344.92 1477.94 Q2341.48 1483.1 2334.94 1483.1 Q2328.4 1483.1 2324.94 1477.94 Q2321.5 1472.76 2321.5 1462.94 Q2321.5 1453.1 2324.94 1447.94 Q2328.4 1442.76 2334.94 1442.76 Z" fill="#000000" fill-rule="nonzero" fill-opacity="1" /><path clip-path="url(#clip760)" d="M1207.66 1551.17 Q1207.66 1544.23 1204.78 1540.41 Q1201.93 1536.59 1196.75 1536.59 Q1191.62 1536.59 1188.73 1540.41 Q1185.89 1544.23 1185.89 1551.17 Q1185.89 1558.08 1188.73 1561.9 Q1191.62 1565.72 1196.75 1565.72 Q1201.93 1565.72 1204.78 1561.9 Q1207.66 1558.08 1207.66 1551.17 M1214.05 1566.24 Q1214.05 1576.17 1209.64 1581 Q1205.23 1585.86 1196.13 1585.86 Q1192.76 1585.86 1189.78 1585.34 Q1186.79 1584.85 1183.98 1583.81 L1183.98 1577.6 Q1186.79 1579.12 1189.53 1579.85 Q1192.28 1580.58 1195.12 1580.58 Q1201.41 1580.58 1204.53 1577.28 Q1207.66 1574.02 1207.66 1567.39 L1207.66 1564.23 Q1205.68 1567.67 1202.59 1569.37 Q1199.5 1571.07 1195.19 1571.07 Q1188.04 1571.07 1183.66 1565.62 Q1179.29 1560.17 1179.29 1551.17 Q1179.29 1542.14 1183.66 1536.69 Q1188.04 1531.24 1195.19 1531.24 Q1199.5 1531.24 1202.59 1532.94 Q1205.68 1534.64 1207.66 1538.08 L1207.66 1532.18 L1214.05 1532.18 L1214.05 1566.24 Z" fill="#000000" fill-rule="nonzero" fill-opacity="1" /><path clip-path="url(#clip760)" d="M1244.88 1551.52 Q1237.14 1551.52 1234.15 1553.29 Q1231.16 1555.06 1231.16 1559.33 Q1231.16 1562.73 1233.39 1564.75 Q1235.64 1566.73 1239.5 1566.73 Q1244.81 1566.73 1248 1562.98 Q1251.23 1559.19 1251.23 1552.94 L1251.23 1551.52 L1244.88 1551.52 M1257.62 1548.88 L1257.62 1571.07 L1251.23 1571.07 L1251.23 1565.17 Q1249.05 1568.71 1245.78 1570.41 Q1242.52 1572.07 1237.8 1572.07 Q1231.82 1572.07 1228.28 1568.74 Q1224.77 1565.37 1224.77 1559.75 Q1224.77 1553.19 1229.15 1549.85 Q1233.56 1546.52 1242.27 1546.52 L1251.23 1546.52 L1251.23 1545.89 Q1251.23 1541.48 1248.32 1539.09 Q1245.43 1536.66 1240.19 1536.66 Q1236.86 1536.66 1233.7 1537.46 Q1230.54 1538.26 1227.62 1539.85 L1227.62 1533.95 Q1231.13 1532.6 1234.43 1531.94 Q1237.73 1531.24 1240.85 1531.24 Q1249.29 1531.24 1253.46 1535.62 Q1257.62 1539.99 1257.62 1548.88 Z" fill="#000000" fill-rule="nonzero" fill-opacity="1" /><path clip-path="url(#clip760)" d="M1301.06 1539.64 Q1303.46 1535.34 1306.79 1533.29 Q1310.12 1531.24 1314.64 1531.24 Q1320.71 1531.24 1324.01 1535.51 Q1327.31 1539.75 1327.31 1547.6 L1327.31 1571.07 L1320.89 1571.07 L1320.89 1547.8 Q1320.89 1542.21 1318.91 1539.51 Q1316.93 1536.8 1312.86 1536.8 Q1307.9 1536.8 1305.02 1540.1 Q1302.14 1543.39 1302.14 1549.09 L1302.14 1571.07 L1295.71 1571.07 L1295.71 1547.8 Q1295.71 1542.18 1293.73 1539.51 Q1291.75 1536.8 1287.62 1536.8 Q1282.73 1536.8 1279.84 1540.13 Q1276.96 1543.43 1276.96 1549.09 L1276.96 1571.07 L1270.54 1571.07 L1270.54 1532.18 L1276.96 1532.18 L1276.96 1538.22 Q1279.15 1534.64 1282.21 1532.94 Q1285.26 1531.24 1289.46 1531.24 Q1293.7 1531.24 1296.65 1533.39 Q1299.64 1535.55 1301.06 1539.64 Z" fill="#000000" fill-rule="nonzero" fill-opacity="1" /><path clip-path="url(#clip760)" d="M1370.33 1539.64 Q1372.73 1535.34 1376.06 1533.29 Q1379.39 1531.24 1383.91 1531.24 Q1389.98 1531.24 1393.28 1535.51 Q1396.58 1539.75 1396.58 1547.6 L1396.58 1571.07 L1390.16 1571.07 L1390.16 1547.8 Q1390.16 1542.21 1388.18 1539.51 Q1386.2 1536.8 1382.14 1536.8 Q1377.17 1536.8 1374.29 1540.1 Q1371.41 1543.39 1371.41 1549.09 L1371.41 1571.07 L1364.98 1571.07 L1364.98 1547.8 Q1364.98 1542.18 1363 1539.51 Q1361.02 1536.8 1356.89 1536.8 Q1352 1536.8 1349.11 1540.13 Q1346.23 1543.43 1346.23 1549.09 L1346.23 1571.07 L1339.81 1571.07 L1339.81 1532.18 L1346.23 1532.18 L1346.23 1538.22 Q1348.42 1534.64 1351.48 1532.94 Q1354.53 1531.24 1358.73 1531.24 Q1362.97 1531.24 1365.92 1533.39 Q1368.91 1535.55 1370.33 1539.64 Z" fill="#000000" fill-rule="nonzero" fill-opacity="1" /><path clip-path="url(#clip760)" d="M1427 1551.52 Q1419.25 1551.52 1416.27 1553.29 Q1413.28 1555.06 1413.28 1559.33 Q1413.28 1562.73 1415.5 1564.75 Q1417.76 1566.73 1421.61 1566.73 Q1426.93 1566.73 1430.12 1562.98 Q1433.35 1559.19 1433.35 1552.94 L1433.35 1551.52 L1427 1551.52 M1439.74 1548.88 L1439.74 1571.07 L1433.35 1571.07 L1433.35 1565.17 Q1431.16 1568.71 1427.9 1570.41 Q1424.63 1572.07 1419.91 1572.07 Q1413.94 1572.07 1410.4 1568.74 Q1406.89 1565.37 1406.89 1559.75 Q1406.89 1553.19 1411.27 1549.85 Q1415.68 1546.52 1424.39 1546.52 L1433.35 1546.52 L1433.35 1545.89 Q1433.35 1541.48 1430.43 1539.09 Q1427.55 1536.66 1422.31 1536.66 Q1418.98 1536.66 1415.82 1537.46 Q1412.66 1538.26 1409.74 1539.85 L1409.74 1533.95 Q1413.25 1532.6 1416.54 1531.94 Q1419.84 1531.24 1422.97 1531.24 Q1431.41 1531.24 1435.57 1535.62 Q1439.74 1539.99 1439.74 1548.88 Z" fill="#000000" fill-rule="nonzero" fill-opacity="1" /><polyline clip-path="url(#clip762)" style="stroke:#000000; stroke-linecap:round; stroke-linejoin:round; stroke-width:2; stroke-opacity:0.1; fill:none" points="266.272,1312.73 2352.76,1312.73 "/>
<polyline clip-path="url(#clip762)" style="stroke:#000000; stroke-linecap:round; stroke-linejoin:round; stroke-width:2; stroke-opacity:0.1; fill:none" points="266.272,1005.62 2352.76,1005.62 "/>
<polyline clip-path="url(#clip762)" style="stroke:#000000; stroke-linecap:round; stroke-linejoin:round; stroke-width:2; stroke-opacity:0.1; fill:none" points="266.272,698.512 2352.76,698.512 "/>
<polyline clip-path="url(#clip762)" style="stroke:#000000; stroke-linecap:round; stroke-linejoin:round; stroke-width:2; stroke-opacity:0.1; fill:none" points="266.272,391.405 2352.76,391.405 "/>
<polyline clip-path="url(#clip762)" style="stroke:#000000; stroke-linecap:round; stroke-linejoin:round; stroke-width:2; stroke-opacity:0.1; fill:none" points="266.272,84.2977 2352.76,84.2977 "/>
<polyline clip-path="url(#clip760)" style="stroke:#000000; stroke-linecap:round; stroke-linejoin:round; stroke-width:4; stroke-opacity:1; fill:none" points="266.272,1414.54 266.272,47.2441 "/>
<polyline clip-path="url(#clip760)" style="stroke:#000000; stroke-linecap:round; stroke-linejoin:round; stroke-width:4; stroke-opacity:1; fill:none" points="266.272,1312.73 285.17,1312.73 "/>
<polyline clip-path="url(#clip760)" style="stroke:#000000; stroke-linecap:round; stroke-linejoin:round; stroke-width:4; stroke-opacity:1; fill:none" points="266.272,1005.62 285.17,1005.62 "/>
<polyline clip-path="url(#clip760)" style="stroke:#000000; stroke-linecap:round; stroke-linejoin:round; stroke-width:4; stroke-opacity:1; fill:none" points="266.272,698.512 285.17,698.512 "/>
<polyline clip-path="url(#clip760)" style="stroke:#000000; stroke-linecap:round; stroke-linejoin:round; stroke-width:4; stroke-opacity:1; fill:none" points="266.272,391.405 285.17,391.405 "/>
<polyline clip-path="url(#clip760)" style="stroke:#000000; stroke-linecap:round; stroke-linejoin:round; stroke-width:4; stroke-opacity:1; fill:none" points="266.272,84.2977 285.17,84.2977 "/>
<path clip-path="url(#clip760)" d="M132.018 1296.75 Q127.955 1296.75 125.898 1300.76 Q123.867 1304.74 123.867 1312.77 Q123.867 1320.76 125.898 1324.77 Q127.955 1328.75 132.018 1328.75 Q136.106 1328.75 138.137 1324.77 Q140.195 1320.76 140.195 1312.77 Q140.195 1304.74 138.137 1300.76 Q136.106 1296.75 132.018 1296.75 M132.018 1292.58 Q138.554 1292.58 141.991 1297.77 Q145.455 1302.92 145.455 1312.77 Q145.455 1322.58 141.991 1327.77 Q138.554 1332.92 132.018 1332.92 Q125.481 1332.92 122.018 1327.77 Q118.58 1322.58 118.58 1312.77 Q118.58 1302.92 122.018 1297.77 Q125.481 1292.58 132.018 1292.58 Z" fill="#000000" fill-rule="nonzero" fill-opacity="1" /><path clip-path="url(#clip760)" d="M154.7 1325.55 L160.195 1325.55 L160.195 1332.17 L154.7 1332.17 L154.7 1325.55 Z" fill="#000000" fill-rule="nonzero" fill-opacity="1" /><path clip-path="url(#clip760)" d="M182.903 1313.7 Q179.153 1313.7 176.991 1315.71 Q174.856 1317.71 174.856 1321.23 Q174.856 1324.74 176.991 1326.75 Q179.153 1328.75 182.903 1328.75 Q186.653 1328.75 188.814 1326.75 Q190.976 1324.72 190.976 1321.23 Q190.976 1317.71 188.814 1315.71 Q186.679 1313.7 182.903 1313.7 M177.642 1311.46 Q174.257 1310.63 172.356 1308.31 Q170.481 1305.99 170.481 1302.66 Q170.481 1298 173.788 1295.29 Q177.122 1292.58 182.903 1292.58 Q188.71 1292.58 192.017 1295.29 Q195.325 1298 195.325 1302.66 Q195.325 1305.99 193.424 1308.31 Q191.549 1310.63 188.189 1311.46 Q191.991 1312.35 194.101 1314.93 Q196.236 1317.5 196.236 1321.23 Q196.236 1326.88 192.772 1329.9 Q189.335 1332.92 182.903 1332.92 Q176.47 1332.92 173.007 1329.9 Q169.569 1326.88 169.569 1321.23 Q169.569 1317.5 171.705 1314.93 Q173.84 1312.35 177.642 1311.46 M175.715 1303.16 Q175.715 1306.18 177.59 1307.87 Q179.491 1309.56 182.903 1309.56 Q186.288 1309.56 188.189 1307.87 Q190.116 1306.18 190.116 1303.16 Q190.116 1300.14 188.189 1298.44 Q186.288 1296.75 182.903 1296.75 Q179.491 1296.75 177.59 1298.44 Q175.715 1300.14 175.715 1303.16 Z" fill="#000000" fill-rule="nonzero" fill-opacity="1" /><path clip-path="url(#clip760)" d="M216.835 1296.75 Q212.772 1296.75 210.715 1300.76 Q208.684 1304.74 208.684 1312.77 Q208.684 1320.76 210.715 1324.77 Q212.772 1328.75 216.835 1328.75 Q220.923 1328.75 222.955 1324.77 Q225.012 1320.76 225.012 1312.77 Q225.012 1304.74 222.955 1300.76 Q220.923 1296.75 216.835 1296.75 M216.835 1292.58 Q223.371 1292.58 226.809 1297.77 Q230.272 1302.92 230.272 1312.77 Q230.272 1322.58 226.809 1327.77 Q223.371 1332.92 216.835 1332.92 Q210.298 1332.92 206.835 1327.77 Q203.397 1322.58 203.397 1312.77 Q203.397 1302.92 206.835 1297.77 Q210.298 1292.58 216.835 1292.58 Z" fill="#000000" fill-rule="nonzero" fill-opacity="1" /><path clip-path="url(#clip760)" d="M133.137 989.643 Q129.075 989.643 127.018 993.653 Q124.986 997.637 124.986 1005.66 Q124.986 1013.65 127.018 1017.66 Q129.075 1021.65 133.137 1021.65 Q137.226 1021.65 139.257 1017.66 Q141.314 1013.65 141.314 1005.66 Q141.314 997.637 139.257 993.653 Q137.226 989.643 133.137 989.643 M133.137 985.476 Q139.674 985.476 143.111 990.658 Q146.575 995.814 146.575 1005.66 Q146.575 1015.48 143.111 1020.66 Q139.674 1025.81 133.137 1025.81 Q126.601 1025.81 123.137 1020.66 Q119.7 1015.48 119.7 1005.66 Q119.7 995.814 123.137 990.658 Q126.601 985.476 133.137 985.476 Z" fill="#000000" fill-rule="nonzero" fill-opacity="1" /><path clip-path="url(#clip760)" d="M155.82 1018.44 L161.314 1018.44 L161.314 1025.06 L155.82 1025.06 L155.82 1018.44 Z" fill="#000000" fill-rule="nonzero" fill-opacity="1" /><path clip-path="url(#clip760)" d="M184.023 1006.6 Q180.273 1006.6 178.111 1008.6 Q175.976 1010.61 175.976 1014.12 Q175.976 1017.64 178.111 1019.64 Q180.273 1021.65 184.023 1021.65 Q187.772 1021.65 189.934 1019.64 Q192.095 1017.61 192.095 1014.12 Q192.095 1010.61 189.934 1008.6 Q187.799 1006.6 184.023 1006.6 M178.762 1004.36 Q175.377 1003.52 173.476 1001.2 Q171.601 998.887 171.601 995.554 Q171.601 990.893 174.908 988.184 Q178.241 985.476 184.023 985.476 Q189.83 985.476 193.137 988.184 Q196.444 990.893 196.444 995.554 Q196.444 998.887 194.543 1001.2 Q192.668 1003.52 189.309 1004.36 Q193.111 1005.24 195.22 1007.82 Q197.356 1010.4 197.356 1014.12 Q197.356 1019.77 193.892 1022.79 Q190.455 1025.81 184.023 1025.81 Q177.59 1025.81 174.127 1022.79 Q170.689 1019.77 170.689 1014.12 Q170.689 1010.4 172.825 1007.82 Q174.96 1005.24 178.762 1004.36 M176.835 996.049 Q176.835 999.07 178.71 1000.76 Q180.611 1002.45 184.023 1002.45 Q187.408 1002.45 189.309 1000.76 Q191.236 999.07 191.236 996.049 Q191.236 993.028 189.309 991.335 Q187.408 989.643 184.023 989.643 Q180.611 989.643 178.71 991.335 Q176.835 993.028 176.835 996.049 Z" fill="#000000" fill-rule="nonzero" fill-opacity="1" /><path clip-path="url(#clip760)" d="M206.757 986.179 L227.408 986.179 L227.408 990.606 L211.574 990.606 L211.574 1000.14 Q212.72 999.747 213.866 999.564 Q215.012 999.356 216.158 999.356 Q222.668 999.356 226.47 1002.92 Q230.272 1006.49 230.272 1012.59 Q230.272 1018.86 226.366 1022.35 Q222.46 1025.81 215.35 1025.81 Q212.903 1025.81 210.35 1025.4 Q207.824 1024.98 205.116 1024.15 L205.116 1018.86 Q207.46 1020.14 209.96 1020.76 Q212.46 1021.39 215.246 1021.39 Q219.751 1021.39 222.382 1019.02 Q225.012 1016.65 225.012 1012.59 Q225.012 1008.52 222.382 1006.15 Q219.751 1003.78 215.246 1003.78 Q213.137 1003.78 211.028 1004.25 Q208.944 1004.72 206.757 1005.71 L206.757 986.179 Z" fill="#000000" fill-rule="nonzero" fill-opacity="1" /><path clip-path="url(#clip760)" d="M132.018 682.535 Q127.955 682.535 125.898 686.546 Q123.867 690.53 123.867 698.551 Q123.867 706.546 125.898 710.556 Q127.955 714.54 132.018 714.54 Q136.106 714.54 138.137 710.556 Q140.195 706.546 140.195 698.551 Q140.195 690.53 138.137 686.546 Q136.106 682.535 132.018 682.535 M132.018 678.369 Q138.554 678.369 141.991 683.551 Q145.455 688.707 145.455 698.551 Q145.455 708.369 141.991 713.551 Q138.554 718.707 132.018 718.707 Q125.481 718.707 122.018 713.551 Q118.58 708.369 118.58 698.551 Q118.58 688.707 122.018 683.551 Q125.481 678.369 132.018 678.369 Z" fill="#000000" fill-rule="nonzero" fill-opacity="1" /><path clip-path="url(#clip760)" d="M154.7 711.337 L160.195 711.337 L160.195 717.952 L154.7 717.952 L154.7 711.337 Z" fill="#000000" fill-rule="nonzero" fill-opacity="1" /><path clip-path="url(#clip760)" d="M171.809 717.145 L171.809 712.353 Q173.788 713.29 175.819 713.785 Q177.851 714.28 179.804 714.28 Q185.012 714.28 187.746 710.79 Q190.507 707.275 190.897 700.14 Q189.387 702.379 187.069 703.577 Q184.752 704.775 181.939 704.775 Q176.106 704.775 172.694 701.259 Q169.309 697.718 169.309 691.598 Q169.309 685.608 172.851 681.989 Q176.392 678.369 182.278 678.369 Q189.022 678.369 192.564 683.551 Q196.132 688.707 196.132 698.551 Q196.132 707.744 191.757 713.238 Q187.408 718.707 180.038 718.707 Q178.059 718.707 176.028 718.316 Q173.997 717.926 171.809 717.145 M182.278 700.66 Q185.819 700.66 187.877 698.238 Q189.96 695.817 189.96 691.598 Q189.96 687.405 187.877 684.983 Q185.819 682.535 182.278 682.535 Q178.736 682.535 176.653 684.983 Q174.595 687.405 174.595 691.598 Q174.595 695.817 176.653 698.238 Q178.736 700.66 182.278 700.66 Z" fill="#000000" fill-rule="nonzero" fill-opacity="1" /><path clip-path="url(#clip760)" d="M216.835 682.535 Q212.772 682.535 210.715 686.546 Q208.684 690.53 208.684 698.551 Q208.684 706.546 210.715 710.556 Q212.772 714.54 216.835 714.54 Q220.923 714.54 222.955 710.556 Q225.012 706.546 225.012 698.551 Q225.012 690.53 222.955 686.546 Q220.923 682.535 216.835 682.535 M216.835 678.369 Q223.371 678.369 226.809 683.551 Q230.272 688.707 230.272 698.551 Q230.272 708.369 226.809 713.551 Q223.371 718.707 216.835 718.707 Q210.298 718.707 206.835 713.551 Q203.397 708.369 203.397 698.551 Q203.397 688.707 206.835 683.551 Q210.298 678.369 216.835 678.369 Z" fill="#000000" fill-rule="nonzero" fill-opacity="1" /><path clip-path="url(#clip760)" d="M133.137 375.428 Q129.075 375.428 127.018 379.439 Q124.986 383.423 124.986 391.444 Q124.986 399.439 127.018 403.449 Q129.075 407.433 133.137 407.433 Q137.226 407.433 139.257 403.449 Q141.314 399.439 141.314 391.444 Q141.314 383.423 139.257 379.439 Q137.226 375.428 133.137 375.428 M133.137 371.262 Q139.674 371.262 143.111 376.444 Q146.575 381.6 146.575 391.444 Q146.575 401.262 143.111 406.444 Q139.674 411.6 133.137 411.6 Q126.601 411.6 123.137 406.444 Q119.7 401.262 119.7 391.444 Q119.7 381.6 123.137 376.444 Q126.601 371.262 133.137 371.262 Z" fill="#000000" fill-rule="nonzero" fill-opacity="1" /><path clip-path="url(#clip760)" d="M155.82 404.23 L161.314 404.23 L161.314 410.845 L155.82 410.845 L155.82 404.23 Z" fill="#000000" fill-rule="nonzero" fill-opacity="1" /><path clip-path="url(#clip760)" d="M172.929 410.038 L172.929 405.246 Q174.908 406.183 176.939 406.678 Q178.97 407.173 180.924 407.173 Q186.132 407.173 188.866 403.683 Q191.627 400.168 192.017 393.032 Q190.507 395.272 188.189 396.47 Q185.871 397.668 183.059 397.668 Q177.226 397.668 173.814 394.152 Q170.429 390.611 170.429 384.491 Q170.429 378.501 173.97 374.881 Q177.512 371.262 183.398 371.262 Q190.142 371.262 193.684 376.444 Q197.252 381.6 197.252 391.444 Q197.252 400.637 192.877 406.131 Q188.528 411.6 181.158 411.6 Q179.179 411.6 177.148 411.209 Q175.116 410.819 172.929 410.038 M183.398 393.553 Q186.939 393.553 188.996 391.131 Q191.08 388.71 191.08 384.491 Q191.08 380.298 188.996 377.876 Q186.939 375.428 183.398 375.428 Q179.856 375.428 177.773 377.876 Q175.715 380.298 175.715 384.491 Q175.715 388.71 177.773 391.131 Q179.856 393.553 183.398 393.553 Z" fill="#000000" fill-rule="nonzero" fill-opacity="1" /><path clip-path="url(#clip760)" d="M206.757 371.965 L227.408 371.965 L227.408 376.392 L211.574 376.392 L211.574 385.923 Q212.72 385.532 213.866 385.35 Q215.012 385.142 216.158 385.142 Q222.668 385.142 226.47 388.71 Q230.272 392.277 230.272 398.371 Q230.272 404.647 226.366 408.136 Q222.46 411.6 215.35 411.6 Q212.903 411.6 210.35 411.183 Q207.824 410.767 205.116 409.933 L205.116 404.647 Q207.46 405.923 209.96 406.548 Q212.46 407.173 215.246 407.173 Q219.751 407.173 222.382 404.803 Q225.012 402.433 225.012 398.371 Q225.012 394.308 222.382 391.939 Q219.751 389.569 215.246 389.569 Q213.137 389.569 211.028 390.038 Q208.944 390.506 206.757 391.496 L206.757 371.965 Z" fill="#000000" fill-rule="nonzero" fill-opacity="1" /><path clip-path="url(#clip760)" d="M121.679 99.3107 L130.273 99.3107 L130.273 69.6494 L120.924 71.5244 L120.924 66.7327 L130.221 64.8577 L135.481 64.8577 L135.481 99.3107 L144.075 99.3107 L144.075 103.738 L121.679 103.738 L121.679 99.3107 Z" fill="#000000" fill-rule="nonzero" fill-opacity="1" /><path clip-path="url(#clip760)" d="M154.7 97.1232 L160.195 97.1232 L160.195 103.738 L154.7 103.738 L154.7 97.1232 Z" fill="#000000" fill-rule="nonzero" fill-opacity="1" /><path clip-path="url(#clip760)" d="M182.903 68.3212 Q178.84 68.3212 176.783 72.3316 Q174.752 76.316 174.752 84.3368 Q174.752 92.3315 176.783 96.3419 Q178.84 100.326 182.903 100.326 Q186.991 100.326 189.022 96.3419 Q191.08 92.3315 191.08 84.3368 Q191.08 76.316 189.022 72.3316 Q186.991 68.3212 182.903 68.3212 M182.903 64.1546 Q189.439 64.1546 192.877 69.3369 Q196.34 74.4931 196.34 84.3368 Q196.34 94.1544 192.877 99.3367 Q189.439 104.493 182.903 104.493 Q176.366 104.493 172.903 99.3367 Q169.465 94.1544 169.465 84.3368 Q169.465 74.4931 172.903 69.3369 Q176.366 64.1546 182.903 64.1546 Z" fill="#000000" fill-rule="nonzero" fill-opacity="1" /><path clip-path="url(#clip760)" d="M216.835 68.3212 Q212.772 68.3212 210.715 72.3316 Q208.684 76.316 208.684 84.3368 Q208.684 92.3315 210.715 96.3419 Q212.772 100.326 216.835 100.326 Q220.923 100.326 222.955 96.3419 Q225.012 92.3315 225.012 84.3368 Q225.012 76.316 222.955 72.3316 Q220.923 68.3212 216.835 68.3212 M216.835 64.1546 Q223.371 64.1546 226.809 69.3369 Q230.272 74.4931 230.272 84.3368 Q230.272 94.1544 226.809 99.3367 Q223.371 104.493 216.835 104.493 Q210.298 104.493 206.835 99.3367 Q203.397 94.1544 203.397 84.3368 Q203.397 74.4931 206.835 69.3369 Q210.298 64.1546 216.835 64.1546 Z" fill="#000000" fill-rule="nonzero" fill-opacity="1" /><path clip-path="url(#clip760)" d="M42.2713 884.016 L61.2643 884.016 L61.2643 872.766 Q61.2643 867.107 58.9379 864.398 Q56.5768 861.655 51.7505 861.655 Q46.8894 861.655 44.5977 864.398 Q42.2713 867.107 42.2713 872.766 L42.2713 884.016 M20.952 884.016 L36.5769 884.016 L36.5769 873.634 Q36.5769 868.495 34.6672 865.995 Q32.7228 863.461 28.7645 863.461 Q24.8409 863.461 22.8964 865.995 Q20.952 868.495 20.952 873.634 L20.952 884.016 M15.1882 891.03 L15.1882 873.113 Q15.1882 865.093 18.5215 860.752 Q21.8548 856.412 28.0006 856.412 Q32.7575 856.412 35.57 858.634 Q38.3825 860.857 39.0769 865.162 Q40.188 859.988 43.7297 857.141 Q47.2366 854.259 52.5143 854.259 Q59.4588 854.259 63.2435 858.982 Q67.0282 863.704 67.0282 872.419 L67.0282 891.03 L15.1882 891.03 Z" fill="#000000" fill-rule="nonzero" fill-opacity="1" /><path clip-path="url(#clip760)" d="M34.1117 819.989 Q33.4867 821.065 33.2089 822.35 Q32.8964 823.6 32.8964 825.128 Q32.8964 830.544 36.438 833.461 Q39.945 836.343 46.5422 836.343 L67.0282 836.343 L67.0282 842.766 L28.1395 842.766 L28.1395 836.343 L34.1811 836.343 Q30.6395 834.329 28.9381 831.1 Q27.202 827.871 27.202 823.253 Q27.202 822.593 27.3061 821.794 Q27.3756 820.996 27.5492 820.023 L34.1117 819.989 Z" fill="#000000" fill-rule="nonzero" fill-opacity="1" /><path clip-path="url(#clip760)" d="M28.1395 813.287 L28.1395 806.899 L67.0282 806.899 L67.0282 813.287 L28.1395 813.287 M13.0007 813.287 L13.0007 806.899 L21.0909 806.899 L21.0909 813.287 L13.0007 813.287 Z" fill="#000000" fill-rule="nonzero" fill-opacity="1" /><path clip-path="url(#clip760)" d="M45.9866 760.267 L49.1116 760.267 L49.1116 789.642 Q55.7088 789.225 59.181 785.683 Q62.6185 782.107 62.6185 775.753 Q62.6185 772.072 61.7157 768.635 Q60.8129 765.163 59.0074 761.76 L65.049 761.76 Q66.5073 765.197 67.2712 768.808 Q68.0351 772.42 68.0351 776.135 Q68.0351 785.44 62.6185 790.892 Q57.2018 796.308 47.9658 796.308 Q38.4172 796.308 32.827 791.169 Q27.202 785.996 27.202 777.246 Q27.202 769.399 32.2714 764.85 Q37.3061 760.267 45.9866 760.267 M44.1116 766.656 Q38.8686 766.725 35.7436 769.607 Q32.6186 772.454 32.6186 777.176 Q32.6186 782.524 35.6394 785.753 Q38.6603 788.947 44.1463 789.433 L44.1116 766.656 Z" fill="#000000" fill-rule="nonzero" fill-opacity="1" /><path clip-path="url(#clip760)" d="M34.1117 727.246 Q33.4867 728.323 33.2089 729.607 Q32.8964 730.857 32.8964 732.385 Q32.8964 737.802 36.438 740.718 Q39.945 743.6 46.5422 743.6 L67.0282 743.6 L67.0282 750.024 L28.1395 750.024 L28.1395 743.6 L34.1811 743.6 Q30.6395 741.586 28.9381 738.357 Q27.202 735.128 27.202 730.51 Q27.202 729.85 27.3061 729.052 Q27.3756 728.253 27.5492 727.281 L34.1117 727.246 Z" fill="#000000" fill-rule="nonzero" fill-opacity="1" /><path clip-path="url(#clip760)" d="M13.0007 697.941 L13.0007 691.552 L67.0282 691.552 L67.0282 697.941 L13.0007 697.941 Z" fill="#000000" fill-rule="nonzero" fill-opacity="1" /><path clip-path="url(#clip760)" d="M32.6186 663.115 Q32.6186 668.253 36.6464 671.24 Q40.6394 674.226 47.6185 674.226 Q54.5977 674.226 58.6254 671.274 Q62.6185 668.288 62.6185 663.115 Q62.6185 658.01 58.5907 655.024 Q54.5629 652.038 47.6185 652.038 Q40.7089 652.038 36.6811 655.024 Q32.6186 658.01 32.6186 663.115 M27.202 663.115 Q27.202 654.781 32.6186 650.024 Q38.0353 645.267 47.6185 645.267 Q57.1671 645.267 62.6185 650.024 Q68.0351 654.781 68.0351 663.115 Q68.0351 671.483 62.6185 676.239 Q57.1671 680.962 47.6185 680.962 Q38.0353 680.962 32.6186 676.239 Q27.202 671.483 27.202 663.115 Z" fill="#000000" fill-rule="nonzero" fill-opacity="1" /><path clip-path="url(#clip760)" d="M29.2853 609.886 L35.3269 609.886 Q33.9381 612.594 33.2436 615.511 Q32.5492 618.427 32.5492 621.552 Q32.5492 626.309 34.0075 628.705 Q35.4658 631.066 38.3825 631.066 Q40.6047 631.066 41.8894 629.365 Q43.1394 627.663 44.2852 622.524 L44.7713 620.337 Q46.2297 613.531 48.9033 610.684 Q51.5421 607.802 56.299 607.802 Q61.7157 607.802 64.8754 612.108 Q68.0351 616.379 68.0351 623.879 Q68.0351 627.004 67.4101 630.406 Q66.8198 633.774 65.6046 637.524 L59.0074 637.524 Q60.8476 633.983 61.7851 630.545 Q62.6879 627.108 62.6879 623.74 Q62.6879 619.226 61.1601 616.795 Q59.5976 614.365 56.7852 614.365 Q54.181 614.365 52.7921 616.136 Q51.4032 617.872 50.1185 623.809 L49.5977 626.031 Q48.3477 631.969 45.7783 634.608 Q43.1741 637.247 38.6603 637.247 Q33.1742 637.247 30.1881 633.358 Q27.202 629.469 27.202 622.316 Q27.202 618.775 27.7228 615.65 Q28.2436 612.525 29.2853 609.886 Z" fill="#000000" fill-rule="nonzero" fill-opacity="1" /><path clip-path="url(#clip760)" d="M29.2853 572.837 L35.3269 572.837 Q33.9381 575.546 33.2436 578.462 Q32.5492 581.379 32.5492 584.504 Q32.5492 589.261 34.0075 591.657 Q35.4658 594.018 38.3825 594.018 Q40.6047 594.018 41.8894 592.316 Q43.1394 590.615 44.2852 585.476 L44.7713 583.289 Q46.2297 576.483 48.9033 573.636 Q51.5421 570.754 56.299 570.754 Q61.7157 570.754 64.8754 575.059 Q68.0351 579.33 68.0351 586.83 Q68.0351 589.955 67.4101 593.358 Q66.8198 596.726 65.6046 600.476 L59.0074 600.476 Q60.8476 596.934 61.7851 593.497 Q62.6879 590.059 62.6879 586.691 Q62.6879 582.177 61.1601 579.747 Q59.5976 577.316 56.7852 577.316 Q54.181 577.316 52.7921 579.087 Q51.4032 580.823 50.1185 586.761 L49.5977 588.983 Q48.3477 594.92 45.7783 597.559 Q43.1741 600.198 38.6603 600.198 Q33.1742 600.198 30.1881 596.309 Q27.202 592.42 27.202 585.268 Q27.202 581.726 27.7228 578.601 Q28.2436 575.476 29.2853 572.837 Z" fill="#000000" fill-rule="nonzero" fill-opacity="1" /><polyline clip-path="url(#clip762)" style="stroke:#009af9; stroke-linecap:round; stroke-linejoin:round; stroke-width:4; stroke-opacity:1; fill:none" points="325.324,85.9411 393.199,137.559 461.074,343.276 528.949,524.233 596.824,550.805 664.7,744.353 732.575,857.026 800.45,1045.05 868.325,1184.12 936.2,1182.64 1004.08,1177.63 1071.95,1375.84 1139.83,1375.2 1207.7,1186.3 1275.58,1196.58 1343.45,1192.55 1411.33,1198.83 1479.2,1205.26 1547.08,1073.51 1614.95,1082.73 1682.83,1098.69 1750.7,633.813 1818.58,633.813 1886.45,633.813 1954.33,633.813 2022.2,637.445 2090.08,637.445 2157.95,650.745 2225.83,666.184 2293.7,680.63 "/>
<path clip-path="url(#clip760)" d="M2015.57 209.461 L2283.21 209.461 L2283.21 92.8206 L2015.57 92.8206  Z" fill="#ffffff" fill-rule="evenodd" fill-opacity="1"/>
<polyline clip-path="url(#clip760)" style="stroke:#000000; stroke-linecap:round; stroke-linejoin:round; stroke-width:4; stroke-opacity:1; fill:none" points="2015.57,209.461 2283.21,209.461 2283.21,92.8206 2015.57,92.8206 2015.57,209.461 "/>
<polyline clip-path="url(#clip760)" style="stroke:#009af9; stroke-linecap:round; stroke-linejoin:round; stroke-width:4.5; stroke-opacity:1; fill:none" points="2038.76,151.141 2177.86,151.141 "/>
<path clip-path="url(#clip760)" d="M2216.61 173.289 Q2214.58 178.497 2212.65 180.086 Q2210.73 181.674 2207.5 181.674 L2203.67 181.674 L2203.67 177.664 L2206.48 177.664 Q2208.46 177.664 2209.55 176.726 Q2210.65 175.789 2211.98 172.299 L2212.84 170.112 L2201.04 141.414 L2206.12 141.414 L2215.23 164.226 L2224.35 141.414 L2229.42 141.414 L2216.61 173.289 Z" fill="#000000" fill-rule="nonzero" fill-opacity="1" /><path clip-path="url(#clip760)" d="M2237.63 166.154 L2246.22 166.154 L2246.22 136.492 L2236.87 138.367 L2236.87 133.576 L2246.17 131.701 L2251.43 131.701 L2251.43 166.154 L2260.02 166.154 L2260.02 170.581 L2237.63 170.581 L2237.63 166.154 Z" fill="#000000" fill-rule="nonzero" fill-opacity="1" /></svg>
