<?xml version="1.0" encoding="utf-8" standalone="no"?>
<!DOCTYPE svg PUBLIC "-//W3C//DTD SVG 1.1//EN"
  "http://www.w3.org/Graphics/SVG/1.1/DTD/svg11.dtd">
<svg height="432pt" version="1.1" viewBox="0 0 576 432" width="576pt" xmlns="http://www.w3.org/2000/svg" xmlns:xlink="http://www.w3.org/1999/xlink">
 <metadata>
  <rdf:RDF xmlns:cc="http://creativecommons.org/ns#" xmlns:dc="http://purl.org/dc/elements/1.1/" xmlns:rdf="http://www.w3.org/1999/02/22-rdf-syntax-ns#">
   <cc:Work>
    <dc:type rdf:resource="http://purl.org/dc/dcmitype/StillImage"/>
    <dc:date>2022-01-13T09:42:04.649349</dc:date>
    <dc:format>image/svg+xml</dc:format>
    <dc:creator>
     <cc:Agent>
      <dc:title>Matplotlib v3.4.2, https://matplotlib.org/</dc:title>
     </cc:Agent>
    </dc:creator>
   </cc:Work>
  </rdf:RDF>
 </metadata>
 <defs>
  <style type="text/css">*{stroke-linecap:butt;stroke-linejoin:round;}</style>
 </defs>
 <g id="figure_1">
  <g id="patch_1">
   <path d="M 0 432 
L 576 432 
L 576 0 
L 0 0 
z
" style="fill:#ffffff;"/>
  </g>
  <g id="axes_1">
   <g id="patch_2">
    <path d="M 72 384.48 
L 518.4 384.48 
L 518.4 51.84 
L 72 51.84 
z
" style="fill:#ffffff;"/>
   </g>
   <g id="PathCollection_1">
    <path clip-path="url(#p57e5891c49)" d="M 327.528389 289.110136 
L 327.085714 289.110136 
L 263.392208 289.381936 
L 263.314286 289.383734 
L 263.229234 289.376623 
L 262.616789 289.44 
L 263.063719 289.626713 
L 263.314286 289.579393 
L 263.508239 289.584527 
L 327.085714 290.254116 
L 368.918479 289.44 
" style="fill:#481668;"/>
   </g>
   <g id="PathCollection_2">
    <path clip-path="url(#p57e5891c49)" d="M 72 345.983228 
L 127.963861 342.777897 
L 135.771429 341.13818 
L 140.580501 340.543535 
L 199.542857 342.03111 
L 257.921888 340.978206 
L 263.314286 340.721058 
L 268.022578 340.468437 
L 327.085714 340.601632 
L 331.883244 340.534933 
L 390.857143 340.143472 
L 449.519946 340.76675 
L 454.628571 340.705002 
L 459.441354 340.546299 
L 518.4 340.467135 
L 518.4 336.96 
L 518.4 289.44 
L 518.4 252.595538 
L 504.07352 252.595538 
L 454.628571 252.595538 
L 405.183623 252.595538 
L 390.857143 252.595538 
L 376.682266 252.48257 
L 327.085714 252.48257 
L 312.829194 252.543407 
L 263.314286 253.686331 
L 209.26897 249.167523 
L 199.542857 250.174 
L 187.116287 251.179799 
L 135.771429 253.254846 
L 81.175931 248.757549 
L 72 250.404823 
L 72 289.44 
L 72 336.96 
M 368.918479 289.44 
L 327.085714 290.254116 
L 263.508239 289.584527 
L 263.314286 289.579393 
L 263.063719 289.626713 
L 262.616789 289.44 
L 263.229234 289.376623 
L 263.314286 289.383734 
L 263.392208 289.381936 
L 327.085714 289.110136 
L 327.528389 289.110136 
" style="fill:#443983;"/>
   </g>
   <g id="PathCollection_3">
    <path clip-path="url(#p57e5891c49)" d="M 72 250.404823 
L 81.175931 248.757549 
L 135.771429 253.254846 
L 187.116287 251.179799 
L 199.542857 250.174 
L 209.26897 249.167523 
L 263.314286 253.686331 
L 312.829194 252.543407 
L 327.085714 252.48257 
L 376.682266 252.48257 
L 390.857143 252.595538 
L 405.183623 252.595538 
L 454.628571 252.595538 
L 504.07352 252.595538 
L 518.4 252.595538 
L 518.4 241.92 
L 518.4 194.4 
L 518.4 175.544282 
L 493.09579 175.544282 
L 454.628571 175.544282 
L 416.161353 175.544282 
L 390.857143 175.544282 
L 365.552933 175.544282 
L 327.085714 175.544282 
L 288.618496 175.544282 
L 263.314286 175.544282 
L 238.010075 175.544282 
L 199.542857 168.535473 
L 166.121461 169.495669 
L 135.771429 167.654908 
L 97.441654 194.4 
L 84.403322 203.642475 
L 72 202.699716 
L 72 241.92 
M 72 359.084856 
L 108.917648 356.970398 
L 135.771429 351.330663 
L 152.31202 349.285408 
L 199.542857 350.477006 
L 246.306432 349.633594 
L 263.314286 348.822538 
L 278.16444 348.02576 
L 327.085714 348.136084 
L 341.809221 347.931387 
L 390.857143 347.605813 
L 439.646329 348.124187 
L 454.628571 347.943097 
L 468.743184 347.477663 
L 518.4 347.410989 
L 518.4 340.467135 
L 459.441354 340.546299 
L 454.628571 340.705002 
L 449.519946 340.76675 
L 390.857143 340.143472 
L 331.883244 340.534933 
L 327.085714 340.601632 
L 268.022578 340.468437 
L 263.314286 340.721058 
L 257.921888 340.978206 
L 199.542857 342.03111 
L 140.580501 340.543535 
L 135.771429 341.13818 
L 127.963861 342.777897 
L 72 345.983228 
" style="fill:#375a8c;"/>
   </g>
   <g id="PathCollection_4">
    <path clip-path="url(#p57e5891c49)" d="M 72 202.699716 
L 84.403322 203.642475 
L 97.441654 194.4 
L 135.771429 167.654908 
L 166.121461 169.495669 
L 199.542857 168.535473 
L 238.010075 175.544282 
L 263.314286 175.544282 
L 288.618496 175.544282 
L 327.085714 175.544282 
L 365.552933 175.544282 
L 390.857143 175.544282 
L 416.161353 175.544282 
L 454.628571 175.544282 
L 493.09579 175.544282 
L 518.4 175.544282 
L 518.4 146.88 
L 518.4 112.839798 
L 500.310228 112.839798 
L 454.628571 112.839798 
L 408.946914 112.839798 
L 390.857143 112.839798 
L 372.767371 112.839798 
L 327.085714 112.839798 
L 281.404057 112.839798 
L 263.314286 112.839798 
L 245.224514 112.839798 
L 199.542857 112.839798 
L 181.175224 113.046849 
L 135.771429 113.046849 
L 95.662947 116.992712 
L 72 115.337934 
L 72 146.88 
L 72 194.4 
M 72 372.186485 
L 89.871436 371.162898 
L 135.771429 361.523146 
L 164.043538 358.027281 
L 199.542857 358.922902 
L 234.690976 358.288983 
L 263.314286 356.924018 
L 288.306303 355.583084 
L 327.085714 355.670537 
L 351.735198 355.327841 
L 390.857143 355.068155 
L 429.772713 355.481623 
L 454.628571 355.181191 
L 478.045014 354.409027 
L 518.4 354.354842 
L 518.4 347.410989 
L 468.743184 347.477663 
L 454.628571 347.943097 
L 439.646329 348.124187 
L 390.857143 347.605813 
L 341.809221 347.931387 
L 327.085714 348.136084 
L 278.16444 348.02576 
L 263.314286 348.822538 
L 246.306432 349.633594 
L 199.542857 350.477006 
L 152.31202 349.285408 
L 135.771429 351.330663 
L 108.917648 356.970398 
L 72 359.084856 
" style="fill:#2b758e;"/>
   </g>
   <g id="PathCollection_5">
    <path clip-path="url(#p57e5891c49)" d="M 72 115.337934 
L 95.662947 116.992712 
L 135.771429 113.046849 
L 181.175224 113.046849 
L 199.542857 112.839798 
L 245.224514 112.839798 
L 263.314286 112.839798 
L 281.404057 112.839798 
L 327.085714 112.839798 
L 372.767371 112.839798 
L 390.857143 112.839798 
L 408.946914 112.839798 
L 454.628571 112.839798 
L 500.310228 112.839798 
L 518.4 112.839798 
L 518.4 99.36 
L 518.4 58.199523 
L 509.865575 58.199523 
L 454.628571 58.199523 
L 399.391568 58.199523 
L 390.857143 58.199523 
L 382.322718 58.199523 
L 327.085714 58.199523 
L 271.848711 58.199523 
L 263.314286 58.199523 
L 254.77986 58.199523 
L 199.542857 58.199523 
L 191.008432 58.199523 
L 135.771429 58.199523 
L 85.109031 61.608342 
L 72 63.593991 
L 72 99.36 
M 74.993461 384.48 
L 135.771429 371.715629 
L 175.775056 366.769155 
L 199.542857 367.368798 
L 223.075519 366.944371 
L 263.314286 365.025499 
L 298.448166 363.140408 
L 327.085714 363.204989 
L 361.661176 362.724295 
L 390.857143 362.530496 
L 419.899097 362.83906 
L 454.628571 362.419286 
L 487.346844 361.34039 
L 518.4 361.298695 
L 518.4 354.354842 
L 478.045014 354.409027 
L 454.628571 355.181191 
L 429.772713 355.481623 
L 390.857143 355.068155 
L 351.735198 355.327841 
L 327.085714 355.670537 
L 288.306303 355.583084 
L 263.314286 356.924018 
L 234.690976 358.288983 
L 199.542857 358.922902 
L 164.043538 358.027281 
L 135.771429 361.523146 
L 89.871436 371.162898 
L 72 372.186485 
L 72 384.48 
" style="fill:#21918c;"/>
   </g>
   <g id="PathCollection_6">
    <path clip-path="url(#p57e5891c49)" d="M 72 63.593991 
L 85.109031 61.608342 
L 135.771429 58.199523 
L 191.008432 58.199523 
L 199.542857 58.199523 
L 254.77986 58.199523 
L 263.314286 58.199523 
L 271.848711 58.199523 
L 327.085714 58.199523 
L 382.322718 58.199523 
L 390.857143 58.199523 
L 399.391568 58.199523 
L 454.628571 58.199523 
L 509.865575 58.199523 
L 518.4 58.199523 
L 518.4 51.84 
L 454.628571 51.84 
L 390.857143 51.84 
L 327.085714 51.84 
L 263.314286 51.84 
L 199.542857 51.84 
L 135.771429 51.84 
L 72 51.84 
M 123.5253 384.48 
L 135.771429 381.908112 
L 187.506574 375.511028 
L 199.542857 375.814694 
L 211.460063 375.599759 
L 263.314286 373.126979 
L 308.590029 370.697731 
L 327.085714 370.739441 
L 371.587153 370.120749 
L 390.857143 369.992838 
L 410.025481 370.196497 
L 454.628571 369.65738 
L 496.648674 368.271754 
L 518.4 368.242548 
L 518.4 361.298695 
L 487.346844 361.34039 
L 454.628571 362.419286 
L 419.899097 362.83906 
L 390.857143 362.530496 
L 361.661176 362.724295 
L 327.085714 363.204989 
L 298.448166 363.140408 
L 263.314286 365.025499 
L 223.075519 366.944371 
L 199.542857 367.368798 
L 175.775056 366.769155 
L 135.771429 371.715629 
L 74.993461 384.48 
" style="fill:#25ab82;"/>
   </g>
   <g id="PathCollection_7">
    <path clip-path="url(#p57e5891c49)" d="M 197.401475 384.48 
L 199.238092 384.252901 
L 199.542857 384.26059 
L 199.844607 384.255148 
L 263.314286 381.228459 
L 318.731892 378.255055 
L 327.085714 378.273894 
L 381.51313 377.517203 
L 390.857143 377.455179 
L 400.151864 377.553933 
L 454.628571 376.895475 
L 505.950504 375.203118 
L 518.4 375.186402 
L 518.4 368.242548 
L 496.648674 368.271754 
L 454.628571 369.65738 
L 410.025481 370.196497 
L 390.857143 369.992838 
L 371.587153 370.120749 
L 327.085714 370.739441 
L 308.590029 370.697731 
L 263.314286 373.126979 
L 211.460063 375.599759 
L 199.542857 375.814694 
L 187.506574 375.511028 
L 135.771429 381.908112 
L 123.5253 384.48 
L 135.771429 384.48 
" style="fill:#4ec36b;"/>
   </g>
   <g id="PathCollection_8">
    <path clip-path="url(#p57e5891c49)" d="M 425.967068 384.48 
L 454.628571 384.133569 
L 515.252334 382.134481 
L 518.4 382.130255 
L 518.4 375.186402 
L 505.950504 375.203118 
L 454.628571 376.895475 
L 400.151864 377.553933 
L 390.857143 377.455179 
L 381.51313 377.517203 
L 327.085714 378.273894 
L 318.731892 378.255055 
L 263.314286 381.228459 
L 199.844607 384.255148 
L 199.542857 384.26059 
L 199.238092 384.252901 
L 197.401475 384.48 
L 199.542857 384.48 
L 263.314286 384.48 
L 327.085714 384.48 
L 390.857143 384.48 
" style="fill:#90d743;"/>
   </g>
   <g id="PathCollection_9">
    <path clip-path="url(#p57e5891c49)" d="M 518.4 382.130255 
L 515.252334 382.134481 
L 454.628571 384.133569 
L 425.967068 384.48 
L 454.628571 384.48 
L 518.4 384.48 
" style="fill:#dae319;"/>
   </g>
   <g id="matplotlib.axis_1">
    <g id="xtick_1">
     <g id="line2d_1">
      <defs>
       <path d="M 0 0 
L 0 3.5 
" id="m0bd87a7462" style="stroke:#000000;stroke-width:0.8;"/>
      </defs>
      <g>
       <use style="stroke:#000000;stroke-width:0.8;" x="72" xlink:href="#m0bd87a7462" y="384.48"/>
      </g>
     </g>
     <g id="text_1">
      <!-- 3 -->
      <g transform="translate(68.1825 400.598125)scale(0.12 -0.12)">
       <defs>
        <path d="M 2597 2516 
Q 3050 2419 3304 2112 
Q 3559 1806 3559 1356 
Q 3559 666 3084 287 
Q 2609 -91 1734 -91 
Q 1441 -91 1130 -33 
Q 819 25 488 141 
L 488 750 
Q 750 597 1062 519 
Q 1375 441 1716 441 
Q 2309 441 2620 675 
Q 2931 909 2931 1356 
Q 2931 1769 2642 2001 
Q 2353 2234 1838 2234 
L 1294 2234 
L 1294 2753 
L 1863 2753 
Q 2328 2753 2575 2939 
Q 2822 3125 2822 3475 
Q 2822 3834 2567 4026 
Q 2313 4219 1838 4219 
Q 1578 4219 1281 4162 
Q 984 4106 628 3988 
L 628 4550 
Q 988 4650 1302 4700 
Q 1616 4750 1894 4750 
Q 2613 4750 3031 4423 
Q 3450 4097 3450 3541 
Q 3450 3153 3228 2886 
Q 3006 2619 2597 2516 
z
" id="DejaVuSans-33" transform="scale(0.015625)"/>
       </defs>
       <use xlink:href="#DejaVuSans-33"/>
      </g>
     </g>
    </g>
    <g id="xtick_2">
     <g id="line2d_2">
      <g>
       <use style="stroke:#000000;stroke-width:0.8;" x="199.542857" xlink:href="#m0bd87a7462" y="384.48"/>
      </g>
     </g>
     <g id="text_2">
      <!-- 5 -->
      <g transform="translate(195.725357 400.598125)scale(0.12 -0.12)">
       <defs>
        <path d="M 691 4666 
L 3169 4666 
L 3169 4134 
L 1269 4134 
L 1269 2991 
Q 1406 3038 1543 3061 
Q 1681 3084 1819 3084 
Q 2600 3084 3056 2656 
Q 3513 2228 3513 1497 
Q 3513 744 3044 326 
Q 2575 -91 1722 -91 
Q 1428 -91 1123 -41 
Q 819 9 494 109 
L 494 744 
Q 775 591 1075 516 
Q 1375 441 1709 441 
Q 2250 441 2565 725 
Q 2881 1009 2881 1497 
Q 2881 1984 2565 2268 
Q 2250 2553 1709 2553 
Q 1456 2553 1204 2497 
Q 953 2441 691 2322 
L 691 4666 
z
" id="DejaVuSans-35" transform="scale(0.015625)"/>
       </defs>
       <use xlink:href="#DejaVuSans-35"/>
      </g>
     </g>
    </g>
    <g id="xtick_3">
     <g id="line2d_3">
      <g>
       <use style="stroke:#000000;stroke-width:0.8;" x="327.085714" xlink:href="#m0bd87a7462" y="384.48"/>
      </g>
     </g>
     <g id="text_3">
      <!-- 7 -->
      <g transform="translate(323.268214 400.598125)scale(0.12 -0.12)">
       <defs>
        <path d="M 525 4666 
L 3525 4666 
L 3525 4397 
L 1831 0 
L 1172 0 
L 2766 4134 
L 525 4134 
L 525 4666 
z
" id="DejaVuSans-37" transform="scale(0.015625)"/>
       </defs>
       <use xlink:href="#DejaVuSans-37"/>
      </g>
     </g>
    </g>
    <g id="xtick_4">
     <g id="line2d_4">
      <g>
       <use style="stroke:#000000;stroke-width:0.8;" x="454.628571" xlink:href="#m0bd87a7462" y="384.48"/>
      </g>
     </g>
     <g id="text_4">
      <!-- 9 -->
      <g transform="translate(450.811071 400.598125)scale(0.12 -0.12)">
       <defs>
        <path d="M 703 97 
L 703 672 
Q 941 559 1184 500 
Q 1428 441 1663 441 
Q 2288 441 2617 861 
Q 2947 1281 2994 2138 
Q 2813 1869 2534 1725 
Q 2256 1581 1919 1581 
Q 1219 1581 811 2004 
Q 403 2428 403 3163 
Q 403 3881 828 4315 
Q 1253 4750 1959 4750 
Q 2769 4750 3195 4129 
Q 3622 3509 3622 2328 
Q 3622 1225 3098 567 
Q 2575 -91 1691 -91 
Q 1453 -91 1209 -44 
Q 966 3 703 97 
z
M 1959 2075 
Q 2384 2075 2632 2365 
Q 2881 2656 2881 3163 
Q 2881 3666 2632 3958 
Q 2384 4250 1959 4250 
Q 1534 4250 1286 3958 
Q 1038 3666 1038 3163 
Q 1038 2656 1286 2365 
Q 1534 2075 1959 2075 
z
" id="DejaVuSans-39" transform="scale(0.015625)"/>
       </defs>
       <use xlink:href="#DejaVuSans-39"/>
      </g>
     </g>
    </g>
    <g id="text_5">
     <!-- Maximum tree depth -->
     <g transform="translate(221.806094 417.731562)scale(0.14 -0.14)">
      <defs>
       <path d="M 628 4666 
L 1569 4666 
L 2759 1491 
L 3956 4666 
L 4897 4666 
L 4897 0 
L 4281 0 
L 4281 4097 
L 3078 897 
L 2444 897 
L 1241 4097 
L 1241 0 
L 628 0 
L 628 4666 
z
" id="DejaVuSans-4d" transform="scale(0.015625)"/>
       <path d="M 2194 1759 
Q 1497 1759 1228 1600 
Q 959 1441 959 1056 
Q 959 750 1161 570 
Q 1363 391 1709 391 
Q 2188 391 2477 730 
Q 2766 1069 2766 1631 
L 2766 1759 
L 2194 1759 
z
M 3341 1997 
L 3341 0 
L 2766 0 
L 2766 531 
Q 2569 213 2275 61 
Q 1981 -91 1556 -91 
Q 1019 -91 701 211 
Q 384 513 384 1019 
Q 384 1609 779 1909 
Q 1175 2209 1959 2209 
L 2766 2209 
L 2766 2266 
Q 2766 2663 2505 2880 
Q 2244 3097 1772 3097 
Q 1472 3097 1187 3025 
Q 903 2953 641 2809 
L 641 3341 
Q 956 3463 1253 3523 
Q 1550 3584 1831 3584 
Q 2591 3584 2966 3190 
Q 3341 2797 3341 1997 
z
" id="DejaVuSans-61" transform="scale(0.015625)"/>
       <path d="M 3513 3500 
L 2247 1797 
L 3578 0 
L 2900 0 
L 1881 1375 
L 863 0 
L 184 0 
L 1544 1831 
L 300 3500 
L 978 3500 
L 1906 2253 
L 2834 3500 
L 3513 3500 
z
" id="DejaVuSans-78" transform="scale(0.015625)"/>
       <path d="M 603 3500 
L 1178 3500 
L 1178 0 
L 603 0 
L 603 3500 
z
M 603 4863 
L 1178 4863 
L 1178 4134 
L 603 4134 
L 603 4863 
z
" id="DejaVuSans-69" transform="scale(0.015625)"/>
       <path d="M 3328 2828 
Q 3544 3216 3844 3400 
Q 4144 3584 4550 3584 
Q 5097 3584 5394 3201 
Q 5691 2819 5691 2113 
L 5691 0 
L 5113 0 
L 5113 2094 
Q 5113 2597 4934 2840 
Q 4756 3084 4391 3084 
Q 3944 3084 3684 2787 
Q 3425 2491 3425 1978 
L 3425 0 
L 2847 0 
L 2847 2094 
Q 2847 2600 2669 2842 
Q 2491 3084 2119 3084 
Q 1678 3084 1418 2786 
Q 1159 2488 1159 1978 
L 1159 0 
L 581 0 
L 581 3500 
L 1159 3500 
L 1159 2956 
Q 1356 3278 1631 3431 
Q 1906 3584 2284 3584 
Q 2666 3584 2933 3390 
Q 3200 3197 3328 2828 
z
" id="DejaVuSans-6d" transform="scale(0.015625)"/>
       <path d="M 544 1381 
L 544 3500 
L 1119 3500 
L 1119 1403 
Q 1119 906 1312 657 
Q 1506 409 1894 409 
Q 2359 409 2629 706 
Q 2900 1003 2900 1516 
L 2900 3500 
L 3475 3500 
L 3475 0 
L 2900 0 
L 2900 538 
Q 2691 219 2414 64 
Q 2138 -91 1772 -91 
Q 1169 -91 856 284 
Q 544 659 544 1381 
z
M 1991 3584 
L 1991 3584 
z
" id="DejaVuSans-75" transform="scale(0.015625)"/>
       <path id="DejaVuSans-20" transform="scale(0.015625)"/>
       <path d="M 1172 4494 
L 1172 3500 
L 2356 3500 
L 2356 3053 
L 1172 3053 
L 1172 1153 
Q 1172 725 1289 603 
Q 1406 481 1766 481 
L 2356 481 
L 2356 0 
L 1766 0 
Q 1100 0 847 248 
Q 594 497 594 1153 
L 594 3053 
L 172 3053 
L 172 3500 
L 594 3500 
L 594 4494 
L 1172 4494 
z
" id="DejaVuSans-74" transform="scale(0.015625)"/>
       <path d="M 2631 2963 
Q 2534 3019 2420 3045 
Q 2306 3072 2169 3072 
Q 1681 3072 1420 2755 
Q 1159 2438 1159 1844 
L 1159 0 
L 581 0 
L 581 3500 
L 1159 3500 
L 1159 2956 
Q 1341 3275 1631 3429 
Q 1922 3584 2338 3584 
Q 2397 3584 2469 3576 
Q 2541 3569 2628 3553 
L 2631 2963 
z
" id="DejaVuSans-72" transform="scale(0.015625)"/>
       <path d="M 3597 1894 
L 3597 1613 
L 953 1613 
Q 991 1019 1311 708 
Q 1631 397 2203 397 
Q 2534 397 2845 478 
Q 3156 559 3463 722 
L 3463 178 
Q 3153 47 2828 -22 
Q 2503 -91 2169 -91 
Q 1331 -91 842 396 
Q 353 884 353 1716 
Q 353 2575 817 3079 
Q 1281 3584 2069 3584 
Q 2775 3584 3186 3129 
Q 3597 2675 3597 1894 
z
M 3022 2063 
Q 3016 2534 2758 2815 
Q 2500 3097 2075 3097 
Q 1594 3097 1305 2825 
Q 1016 2553 972 2059 
L 3022 2063 
z
" id="DejaVuSans-65" transform="scale(0.015625)"/>
       <path d="M 2906 2969 
L 2906 4863 
L 3481 4863 
L 3481 0 
L 2906 0 
L 2906 525 
Q 2725 213 2448 61 
Q 2172 -91 1784 -91 
Q 1150 -91 751 415 
Q 353 922 353 1747 
Q 353 2572 751 3078 
Q 1150 3584 1784 3584 
Q 2172 3584 2448 3432 
Q 2725 3281 2906 2969 
z
M 947 1747 
Q 947 1113 1208 752 
Q 1469 391 1925 391 
Q 2381 391 2643 752 
Q 2906 1113 2906 1747 
Q 2906 2381 2643 2742 
Q 2381 3103 1925 3103 
Q 1469 3103 1208 2742 
Q 947 2381 947 1747 
z
" id="DejaVuSans-64" transform="scale(0.015625)"/>
       <path d="M 1159 525 
L 1159 -1331 
L 581 -1331 
L 581 3500 
L 1159 3500 
L 1159 2969 
Q 1341 3281 1617 3432 
Q 1894 3584 2278 3584 
Q 2916 3584 3314 3078 
Q 3713 2572 3713 1747 
Q 3713 922 3314 415 
Q 2916 -91 2278 -91 
Q 1894 -91 1617 61 
Q 1341 213 1159 525 
z
M 3116 1747 
Q 3116 2381 2855 2742 
Q 2594 3103 2138 3103 
Q 1681 3103 1420 2742 
Q 1159 2381 1159 1747 
Q 1159 1113 1420 752 
Q 1681 391 2138 391 
Q 2594 391 2855 752 
Q 3116 1113 3116 1747 
z
" id="DejaVuSans-70" transform="scale(0.015625)"/>
       <path d="M 3513 2113 
L 3513 0 
L 2938 0 
L 2938 2094 
Q 2938 2591 2744 2837 
Q 2550 3084 2163 3084 
Q 1697 3084 1428 2787 
Q 1159 2491 1159 1978 
L 1159 0 
L 581 0 
L 581 4863 
L 1159 4863 
L 1159 2956 
Q 1366 3272 1645 3428 
Q 1925 3584 2291 3584 
Q 2894 3584 3203 3211 
Q 3513 2838 3513 2113 
z
" id="DejaVuSans-68" transform="scale(0.015625)"/>
      </defs>
      <use xlink:href="#DejaVuSans-4d"/>
      <use x="86.279297" xlink:href="#DejaVuSans-61"/>
      <use x="147.558594" xlink:href="#DejaVuSans-78"/>
      <use x="206.738281" xlink:href="#DejaVuSans-69"/>
      <use x="234.521484" xlink:href="#DejaVuSans-6d"/>
      <use x="331.933594" xlink:href="#DejaVuSans-75"/>
      <use x="395.3125" xlink:href="#DejaVuSans-6d"/>
      <use x="492.724609" xlink:href="#DejaVuSans-20"/>
      <use x="524.511719" xlink:href="#DejaVuSans-74"/>
      <use x="563.720703" xlink:href="#DejaVuSans-72"/>
      <use x="602.583984" xlink:href="#DejaVuSans-65"/>
      <use x="664.107422" xlink:href="#DejaVuSans-65"/>
      <use x="725.630859" xlink:href="#DejaVuSans-20"/>
      <use x="757.417969" xlink:href="#DejaVuSans-64"/>
      <use x="820.894531" xlink:href="#DejaVuSans-65"/>
      <use x="882.417969" xlink:href="#DejaVuSans-70"/>
      <use x="945.894531" xlink:href="#DejaVuSans-74"/>
      <use x="985.103516" xlink:href="#DejaVuSans-68"/>
     </g>
    </g>
   </g>
   <g id="matplotlib.axis_2">
    <g id="ytick_1">
     <g id="line2d_5">
      <defs>
       <path d="M 0 0 
L -3.5 0 
" id="ma633fef847" style="stroke:#000000;stroke-width:0.8;"/>
      </defs>
      <g>
       <use style="stroke:#000000;stroke-width:0.8;" x="72" xlink:href="#ma633fef847" y="384.48"/>
      </g>
     </g>
     <g id="text_6">
      <!-- 0 -->
      <g transform="translate(57.365 389.039062)scale(0.12 -0.12)">
       <defs>
        <path d="M 2034 4250 
Q 1547 4250 1301 3770 
Q 1056 3291 1056 2328 
Q 1056 1369 1301 889 
Q 1547 409 2034 409 
Q 2525 409 2770 889 
Q 3016 1369 3016 2328 
Q 3016 3291 2770 3770 
Q 2525 4250 2034 4250 
z
M 2034 4750 
Q 2819 4750 3233 4129 
Q 3647 3509 3647 2328 
Q 3647 1150 3233 529 
Q 2819 -91 2034 -91 
Q 1250 -91 836 529 
Q 422 1150 422 2328 
Q 422 3509 836 4129 
Q 1250 4750 2034 4750 
z
" id="DejaVuSans-30" transform="scale(0.015625)"/>
       </defs>
       <use xlink:href="#DejaVuSans-30"/>
      </g>
     </g>
    </g>
    <g id="ytick_2">
     <g id="line2d_6">
      <g>
       <use style="stroke:#000000;stroke-width:0.8;" x="72" xlink:href="#ma633fef847" y="317.952"/>
      </g>
     </g>
     <g id="text_7">
      <!-- 1 -->
      <g transform="translate(57.365 322.511062)scale(0.12 -0.12)">
       <defs>
        <path d="M 794 531 
L 1825 531 
L 1825 4091 
L 703 3866 
L 703 4441 
L 1819 4666 
L 2450 4666 
L 2450 531 
L 3481 531 
L 3481 0 
L 794 0 
L 794 531 
z
" id="DejaVuSans-31" transform="scale(0.015625)"/>
       </defs>
       <use xlink:href="#DejaVuSans-31"/>
      </g>
     </g>
    </g>
    <g id="ytick_3">
     <g id="line2d_7">
      <g>
       <use style="stroke:#000000;stroke-width:0.8;" x="72" xlink:href="#ma633fef847" y="251.424"/>
      </g>
     </g>
     <g id="text_8">
      <!-- 2 -->
      <g transform="translate(57.365 255.983062)scale(0.12 -0.12)">
       <defs>
        <path d="M 1228 531 
L 3431 531 
L 3431 0 
L 469 0 
L 469 531 
Q 828 903 1448 1529 
Q 2069 2156 2228 2338 
Q 2531 2678 2651 2914 
Q 2772 3150 2772 3378 
Q 2772 3750 2511 3984 
Q 2250 4219 1831 4219 
Q 1534 4219 1204 4116 
Q 875 4013 500 3803 
L 500 4441 
Q 881 4594 1212 4672 
Q 1544 4750 1819 4750 
Q 2544 4750 2975 4387 
Q 3406 4025 3406 3419 
Q 3406 3131 3298 2873 
Q 3191 2616 2906 2266 
Q 2828 2175 2409 1742 
Q 1991 1309 1228 531 
z
" id="DejaVuSans-32" transform="scale(0.015625)"/>
       </defs>
       <use xlink:href="#DejaVuSans-32"/>
      </g>
     </g>
    </g>
    <g id="ytick_4">
     <g id="line2d_8">
      <g>
       <use style="stroke:#000000;stroke-width:0.8;" x="72" xlink:href="#ma633fef847" y="184.896"/>
      </g>
     </g>
     <g id="text_9">
      <!-- 3 -->
      <g transform="translate(57.365 189.455063)scale(0.12 -0.12)">
       <use xlink:href="#DejaVuSans-33"/>
      </g>
     </g>
    </g>
    <g id="ytick_5">
     <g id="line2d_9">
      <g>
       <use style="stroke:#000000;stroke-width:0.8;" x="72" xlink:href="#ma633fef847" y="118.368"/>
      </g>
     </g>
     <g id="text_10">
      <!-- 4 -->
      <g transform="translate(57.365 122.927062)scale(0.12 -0.12)">
       <defs>
        <path d="M 2419 4116 
L 825 1625 
L 2419 1625 
L 2419 4116 
z
M 2253 4666 
L 3047 4666 
L 3047 1625 
L 3713 1625 
L 3713 1100 
L 3047 1100 
L 3047 0 
L 2419 0 
L 2419 1100 
L 313 1100 
L 313 1709 
L 2253 4666 
z
" id="DejaVuSans-34" transform="scale(0.015625)"/>
       </defs>
       <use xlink:href="#DejaVuSans-34"/>
      </g>
     </g>
    </g>
    <g id="ytick_6">
     <g id="line2d_10">
      <g>
       <use style="stroke:#000000;stroke-width:0.8;" x="72" xlink:href="#ma633fef847" y="51.84"/>
      </g>
     </g>
     <g id="text_11">
      <!-- 5 -->
      <g transform="translate(57.365 56.399062)scale(0.12 -0.12)">
       <use xlink:href="#DejaVuSans-35"/>
      </g>
     </g>
    </g>
    <g id="text_12">
     <!-- Minimum child weight -->
     <g transform="translate(50.453437 295.267187)rotate(-90)scale(0.14 -0.14)">
      <defs>
       <path d="M 3513 2113 
L 3513 0 
L 2938 0 
L 2938 2094 
Q 2938 2591 2744 2837 
Q 2550 3084 2163 3084 
Q 1697 3084 1428 2787 
Q 1159 2491 1159 1978 
L 1159 0 
L 581 0 
L 581 3500 
L 1159 3500 
L 1159 2956 
Q 1366 3272 1645 3428 
Q 1925 3584 2291 3584 
Q 2894 3584 3203 3211 
Q 3513 2838 3513 2113 
z
" id="DejaVuSans-6e" transform="scale(0.015625)"/>
       <path d="M 3122 3366 
L 3122 2828 
Q 2878 2963 2633 3030 
Q 2388 3097 2138 3097 
Q 1578 3097 1268 2742 
Q 959 2388 959 1747 
Q 959 1106 1268 751 
Q 1578 397 2138 397 
Q 2388 397 2633 464 
Q 2878 531 3122 666 
L 3122 134 
Q 2881 22 2623 -34 
Q 2366 -91 2075 -91 
Q 1284 -91 818 406 
Q 353 903 353 1747 
Q 353 2603 823 3093 
Q 1294 3584 2113 3584 
Q 2378 3584 2631 3529 
Q 2884 3475 3122 3366 
z
" id="DejaVuSans-63" transform="scale(0.015625)"/>
       <path d="M 603 4863 
L 1178 4863 
L 1178 0 
L 603 0 
L 603 4863 
z
" id="DejaVuSans-6c" transform="scale(0.015625)"/>
       <path d="M 269 3500 
L 844 3500 
L 1563 769 
L 2278 3500 
L 2956 3500 
L 3675 769 
L 4391 3500 
L 4966 3500 
L 4050 0 
L 3372 0 
L 2619 2869 
L 1863 0 
L 1184 0 
L 269 3500 
z
" id="DejaVuSans-77" transform="scale(0.015625)"/>
       <path d="M 2906 1791 
Q 2906 2416 2648 2759 
Q 2391 3103 1925 3103 
Q 1463 3103 1205 2759 
Q 947 2416 947 1791 
Q 947 1169 1205 825 
Q 1463 481 1925 481 
Q 2391 481 2648 825 
Q 2906 1169 2906 1791 
z
M 3481 434 
Q 3481 -459 3084 -895 
Q 2688 -1331 1869 -1331 
Q 1566 -1331 1297 -1286 
Q 1028 -1241 775 -1147 
L 775 -588 
Q 1028 -725 1275 -790 
Q 1522 -856 1778 -856 
Q 2344 -856 2625 -561 
Q 2906 -266 2906 331 
L 2906 616 
Q 2728 306 2450 153 
Q 2172 0 1784 0 
Q 1141 0 747 490 
Q 353 981 353 1791 
Q 353 2603 747 3093 
Q 1141 3584 1784 3584 
Q 2172 3584 2450 3431 
Q 2728 3278 2906 2969 
L 2906 3500 
L 3481 3500 
L 3481 434 
z
" id="DejaVuSans-67" transform="scale(0.015625)"/>
      </defs>
      <use xlink:href="#DejaVuSans-4d"/>
      <use x="86.279297" xlink:href="#DejaVuSans-69"/>
      <use x="114.0625" xlink:href="#DejaVuSans-6e"/>
      <use x="177.441406" xlink:href="#DejaVuSans-69"/>
      <use x="205.224609" xlink:href="#DejaVuSans-6d"/>
      <use x="302.636719" xlink:href="#DejaVuSans-75"/>
      <use x="366.015625" xlink:href="#DejaVuSans-6d"/>
      <use x="463.427734" xlink:href="#DejaVuSans-20"/>
      <use x="495.214844" xlink:href="#DejaVuSans-63"/>
      <use x="550.195312" xlink:href="#DejaVuSans-68"/>
      <use x="613.574219" xlink:href="#DejaVuSans-69"/>
      <use x="641.357422" xlink:href="#DejaVuSans-6c"/>
      <use x="669.140625" xlink:href="#DejaVuSans-64"/>
      <use x="732.617188" xlink:href="#DejaVuSans-20"/>
      <use x="764.404297" xlink:href="#DejaVuSans-77"/>
      <use x="846.191406" xlink:href="#DejaVuSans-65"/>
      <use x="907.714844" xlink:href="#DejaVuSans-69"/>
      <use x="935.498047" xlink:href="#DejaVuSans-67"/>
      <use x="998.974609" xlink:href="#DejaVuSans-68"/>
      <use x="1062.353516" xlink:href="#DejaVuSans-74"/>
     </g>
    </g>
   </g>
   <g id="patch_3">
    <path d="M 72 384.48 
L 72 51.84 
" style="fill:none;stroke:#000000;stroke-linecap:square;stroke-linejoin:miter;stroke-width:0.8;"/>
   </g>
   <g id="patch_4">
    <path d="M 518.4 384.48 
L 518.4 51.84 
" style="fill:none;stroke:#000000;stroke-linecap:square;stroke-linejoin:miter;stroke-width:0.8;"/>
   </g>
   <g id="patch_5">
    <path d="M 72 384.48 
L 518.4 384.48 
" style="fill:none;stroke:#000000;stroke-linecap:square;stroke-linejoin:miter;stroke-width:0.8;"/>
   </g>
   <g id="patch_6">
    <path d="M 72 51.84 
L 518.4 51.84 
" style="fill:none;stroke:#000000;stroke-linecap:square;stroke-linejoin:miter;stroke-width:0.8;"/>
   </g>
  </g>
 </g>
 <defs>
  <clipPath id="p57e5891c49">
   <rect height="332.64" width="446.4" x="72" y="51.84"/>
  </clipPath>
 </defs>
</svg>
