<?xml version="1.0" encoding="utf-8" standalone="no"?>
<!DOCTYPE svg PUBLIC "-//W3C//DTD SVG 1.1//EN"
  "http://www.w3.org/Graphics/SVG/1.1/DTD/svg11.dtd">
<!-- Created with matplotlib (https://matplotlib.org/) -->
<svg height="432pt" version="1.1" viewBox="0 0 576 432" width="576pt" xmlns="http://www.w3.org/2000/svg" xmlns:xlink="http://www.w3.org/1999/xlink">
 <defs>
  <style type="text/css">
*{stroke-linecap:butt;stroke-linejoin:round;}
  </style>
 </defs>
 <g id="figure_1">
  <g id="patch_1">
   <path d="M 0 432 
L 576 432 
L 576 0 
L 0 0 
z
" style="fill:#ffffff;"/>
  </g>
  <g id="axes_1">
   <g id="patch_2">
    <path d="M 72 384.48 
L 518.4 384.48 
L 518.4 51.84 
L 72 51.84 
z
" style="fill:#ffffff;"/>
   </g>
   <g id="PathCollection_1">
    <path clip-path="url(#p0b8b6df20d)" d="M 404.42727 89.248066 
L 390.857143 93.447373 
L 383.207171 93.659537 
L 359.453288 99.36 
L 384.161136 104.349605 
L 390.857143 109.555486 
L 399.018616 99.36 
" style="fill:#481769;"/>
   </g>
   <g id="PathCollection_2">
    <path clip-path="url(#p0b8b6df20d)" d="M 72 122.712482 
L 81.766494 99.36 
L 72 93.313694 
L 72 99.36 
M 83.945637 384.48 
L 90.583866 370.632022 
L 72 370.458275 
L 72 384.48 
M 399.018616 99.36 
L 390.857143 109.555486 
L 384.161136 104.349605 
L 359.453288 99.36 
L 383.207171 93.659537 
L 390.857143 93.447373 
L 404.42727 89.248066 
M 427.863863 71.784025 
L 390.857143 83.235837 
L 369.995117 83.814426 
L 327.085714 94.111834 
L 304.171587 99.36 
L 327.085714 103.776348 
L 372.596648 112.967014 
L 390.857143 127.163829 
L 413.11407 99.36 
M 259.319915 289.44 
L 233.682633 311.52036 
L 263.314286 297.396673 
L 268.250353 293.118166 
L 268.531214 289.44 
L 276.187659 279.84726 
L 263.314286 281.424501 
" style="fill:#424086;"/>
   </g>
   <g id="PathCollection_3">
    <path clip-path="url(#p0b8b6df20d)" d="M 259.707302 51.84 
L 260.222757 54.143688 
L 258.509197 99.36 
L 254.041062 106.270047 
L 263.314286 113.045874 
L 268.886372 103.512103 
L 327.085714 114.729138 
L 361.032159 121.584423 
L 390.857143 144.772172 
L 427.209525 99.36 
L 451.300456 54.319983 
L 390.857143 73.024301 
L 356.783062 73.969314 
L 327.085714 81.096091 
L 270.4016 94.078807 
L 267.937987 51.84 
L 263.314286 51.84 
M 72 93.313694 
L 81.766494 99.36 
L 72 122.712482 
L 72 146.88 
L 72 158.859801 
L 129.475757 151.571291 
L 135.771429 156.460258 
L 143.485064 146.88 
L 135.771429 133.922885 
L 106.160445 121.424958 
L 115.388471 99.36 
L 72 72.49878 
M 72 309.500442 
L 108.435502 309.809674 
L 135.771429 309.22712 
L 163.489647 336.96 
L 181.103283 350.700457 
L 199.542857 345.777999 
L 259.596896 384.48 
L 263.314286 384.48 
L 272.003492 384.48 
L 269.339787 379.99003 
L 263.314286 361.01746 
L 249.420015 336.96 
L 263.314286 330.337409 
L 288.685739 308.345825 
L 290.129368 289.44 
L 327.085714 243.137494 
L 330.348696 244.351447 
L 327.870695 241.92 
L 331.848992 238.37059 
L 327.085714 238.771005 
L 325.649067 240.849466 
L 314.899711 241.92 
L 263.314286 248.240227 
L 242.783168 289.44 
L 199.542857 326.681141 
L 144.156952 289.44 
L 199.542857 253.663917 
L 251.733586 241.92 
L 219.018953 227.407167 
L 199.542857 232.327635 
L 168.413242 218.723416 
L 179.335999 241.92 
L 135.771429 281.065515 
L 90.982575 256.06508 
L 72 256.330982 
L 72 289.44 
M 72 370.458275 
L 90.583866 370.632022 
L 83.945637 384.48 
L 102.62669 384.48 
L 119.646042 348.976014 
L 72 348.530552 
M 471.513985 384.48 
L 476.266651 368.356141 
L 454.628571 361.802521 
L 446.049948 378.087542 
L 414.90429 384.48 
L 454.628571 384.48 
M 518.4 188.01706 
L 490.791252 194.4 
L 518.4 240.934265 
L 518.4 194.4 
M 413.11407 99.36 
L 390.857143 127.163829 
L 372.596648 112.967014 
L 327.085714 103.776348 
L 304.171587 99.36 
L 327.085714 94.111834 
L 369.995117 83.814426 
L 390.857143 83.235837 
L 427.863863 71.784025 
M 263.314286 281.424501 
L 276.187659 279.84726 
L 268.531214 289.44 
L 268.250353 293.118166 
L 263.314286 297.396673 
L 233.682633 311.52036 
L 259.319915 289.44 
M 454.628571 139.836454 
L 407.517307 146.88 
L 454.628571 164.483822 
L 461.440477 146.88 
L 461.789337 141.544075 
" style="fill:#33638d;"/>
   </g>
   <g id="PathCollection_4">
    <path clip-path="url(#p0b8b6df20d)" d="M 426.315816 51.84 
L 390.857143 62.812765 
L 343.571008 64.124203 
L 327.085714 68.080347 
L 295.619798 75.287183 
L 294.252222 51.84 
L 267.937987 51.84 
L 270.4016 94.078807 
L 327.085714 81.096091 
L 356.783062 73.969314 
L 390.857143 73.024301 
L 451.300456 54.319983 
L 427.209525 99.36 
L 390.857143 144.772172 
L 361.032159 121.584423 
L 327.085714 114.729138 
L 268.886372 103.512103 
L 263.314286 113.045874 
L 254.041062 106.270047 
L 258.509197 99.36 
L 260.222757 54.143688 
L 259.707302 51.84 
L 239.179371 51.84 
L 242.62836 67.254351 
L 241.411654 99.36 
L 221.044929 130.857489 
L 242.972928 146.88 
L 263.314286 158.41503 
L 272.001183 146.88 
L 288.713062 118.286185 
L 327.085714 125.681928 
L 349.467671 130.201832 
L 370.919778 146.88 
L 378.987109 185.554911 
L 327.085714 186.842039 
L 309.377528 194.4 
L 293.717851 217.05556 
L 263.314286 220.083466 
L 241.709397 210.499127 
L 199.542857 221.15214 
L 138.327744 194.4 
L 144.252991 188.079868 
L 177.425456 146.88 
L 159.791258 117.258647 
L 144.605196 99.36 
L 146.573499 91.310715 
L 138.977111 51.84 
L 135.771429 51.84 
L 72 51.84 
L 72 72.49878 
L 115.388471 99.36 
L 106.160445 121.424958 
L 135.771429 133.922885 
L 143.485064 146.88 
L 135.771429 156.460258 
L 129.475757 151.571291 
L 72 158.859801 
L 72 175.988915 
L 101.774482 172.213208 
L 130.345084 194.4 
L 135.771429 199.397805 
L 155.794186 241.92 
L 135.771429 259.911711 
L 103.538865 241.92 
L 72 221.182891 
L 72 241.92 
L 72 256.330982 
L 90.982575 256.06508 
L 135.771429 281.065515 
L 179.335999 241.92 
L 168.413242 218.723416 
L 199.542857 232.327635 
L 219.018953 227.407167 
L 251.733586 241.92 
L 199.542857 253.663917 
L 144.156952 289.44 
L 199.542857 326.681141 
L 242.783168 289.44 
L 263.314286 248.240227 
L 314.899711 241.92 
L 325.649067 240.849466 
L 327.085714 238.771005 
L 331.848992 238.37059 
L 327.870695 241.92 
L 330.348696 244.351447 
L 327.085714 243.137494 
L 290.129368 289.44 
L 288.685739 308.345825 
L 263.314286 330.337409 
L 249.420015 336.96 
L 263.314286 361.01746 
L 269.339787 379.99003 
L 272.003492 384.48 
L 316.319454 384.48 
L 300.070544 357.090659 
L 293.677245 336.96 
L 309.121125 323.573483 
L 311.727522 289.44 
L 327.085714 270.197762 
L 378.806845 289.44 
L 380.744599 296.975477 
L 390.857143 292.67858 
L 444.17711 336.96 
L 429.146971 365.492098 
L 390.857143 373.350854 
L 362.751006 363.536395 
L 343.642939 384.48 
L 390.857143 384.48 
L 414.90429 384.48 
L 446.049948 378.087542 
L 454.628571 361.802521 
L 476.266651 368.356141 
L 471.513985 384.48 
L 504.784327 384.48 
L 518.4 338.287571 
L 518.4 336.96 
L 518.4 289.44 
L 518.4 241.92 
L 518.4 240.934265 
L 490.791252 194.4 
L 518.4 188.01706 
L 518.4 173.483455 
L 466.639145 185.450185 
L 481.564112 146.88 
L 482.943569 125.78076 
L 454.628571 119.028509 
L 421.608467 123.965303 
L 441.304979 99.36 
L 454.628571 74.450426 
L 476.220399 67.929394 
L 494.412604 51.84 
L 454.628571 51.84 
M 72 348.530552 
L 119.646042 348.976014 
L 102.62669 384.48 
L 121.307744 384.48 
L 135.771429 354.307378 
L 155.553321 369.7393 
L 199.542857 357.99626 
L 240.637775 384.48 
L 259.596896 384.48 
L 199.542857 345.777999 
L 181.103283 350.700457 
L 163.489647 336.96 
L 135.771429 309.22712 
L 108.435502 309.809674 
L 72 309.500442 
L 72 336.96 
M 461.789337 141.544075 
L 461.440477 146.88 
L 454.628571 164.483822 
L 407.517307 146.88 
L 454.628571 139.836454 
M 504.910487 251.971863 
L 513.119807 289.44 
L 518.197531 336.809128 
L 454.628571 331.859459 
L 393.595332 289.44 
L 394.829383 286.48004 
L 390.857143 286.603772 
L 345.317844 241.92 
L 390.857143 201.290139 
L 445.703478 201.050634 
L 454.628571 201.315018 
L 500.270324 241.92 
M 242.019601 257.787975 
L 226.24642 289.44 
L 199.542857 312.438705 
L 165.338639 289.44 
L 199.542857 267.346059 
" style="fill:#26828e;"/>
   </g>
   <g id="PathCollection_5">
    <path clip-path="url(#p0b8b6df20d)" d="M 494.412604 51.84 
L 476.220399 67.929394 
L 454.628571 74.450426 
L 441.304979 99.36 
L 421.608467 123.965303 
L 454.628571 119.028509 
L 482.943569 125.78076 
L 481.564112 146.88 
L 466.639145 185.450185 
L 518.4 173.483455 
L 518.4 158.949851 
L 494.916367 164.379094 
L 501.687748 146.88 
L 504.0978 110.017446 
L 459.406701 99.36 
L 501.385849 86.681713 
L 518.4 71.634204 
L 518.4 51.84 
M 393.317069 51.84 
L 390.857143 52.60123 
L 330.358953 54.279091 
L 327.085714 55.064604 
L 320.837996 56.495558 
L 320.566457 51.84 
L 294.252222 51.84 
L 295.619798 75.287183 
L 327.085714 68.080347 
L 343.571008 64.124203 
L 390.857143 62.812765 
L 426.315816 51.84 
M 218.65144 51.84 
L 225.033963 80.365015 
L 224.314111 99.36 
L 199.542857 137.669167 
L 167.03954 99.36 
L 174.006571 70.868652 
L 170.344387 51.84 
L 138.977111 51.84 
L 146.573499 91.310715 
L 144.605196 99.36 
L 159.791258 117.258647 
L 177.425456 146.88 
L 144.252991 188.079868 
L 138.327744 194.4 
L 199.542857 221.15214 
L 241.709397 210.499127 
L 263.314286 220.083466 
L 293.717851 217.05556 
L 309.377528 194.4 
L 327.085714 186.842039 
L 378.987109 185.554911 
L 370.919778 146.88 
L 349.467671 130.201832 
L 327.085714 125.681928 
L 288.713062 118.286185 
L 272.001183 146.88 
L 263.314286 158.41503 
L 242.972928 146.88 
L 221.044929 130.857489 
L 241.411654 99.36 
L 242.62836 67.254351 
L 239.179371 51.84 
M 72 193.11803 
L 74.073207 192.855126 
L 76.062588 194.4 
L 93.276295 210.254271 
L 72 196.264902 
L 72 221.182891 
L 103.538865 241.92 
L 135.771429 259.911711 
L 155.794186 241.92 
L 135.771429 199.397805 
L 130.345084 194.4 
L 101.774482 172.213208 
L 72 175.988915 
M 146.104239 384.48 
L 199.542857 370.214521 
L 221.678654 384.48 
L 240.637775 384.48 
L 199.542857 357.99626 
L 155.553321 369.7393 
L 135.771429 354.307378 
L 121.307744 384.48 
L 135.771429 384.48 
M 343.642939 384.48 
L 362.751006 363.536395 
L 390.857143 373.350854 
L 429.146971 365.492098 
L 444.17711 336.96 
L 390.857143 292.67858 
L 380.744599 296.975477 
L 378.806845 289.44 
L 327.085714 270.197762 
L 311.727522 289.44 
L 309.121125 323.573483 
L 293.677245 336.96 
L 300.070544 357.090659 
L 316.319454 384.48 
L 327.085714 384.48 
M 518.4 338.287571 
L 504.784327 384.48 
L 518.4 384.48 
M 500.270324 241.92 
L 454.628571 201.315018 
L 445.703478 201.050634 
L 390.857143 201.290139 
L 345.317844 241.92 
L 390.857143 286.603772 
L 394.829383 286.48004 
L 393.595332 289.44 
L 454.628571 331.859459 
L 518.197531 336.809128 
L 513.119807 289.44 
L 504.910487 251.971863 
M 199.542857 267.346059 
L 165.338639 289.44 
L 199.542857 312.438705 
L 226.24642 289.44 
L 242.019601 257.787975 
M 491.294298 262.11812 
L 497.28056 289.44 
L 500.983252 323.981714 
L 454.628571 320.3724 
L 410.122946 289.44 
L 418.80569 268.613825 
L 390.857143 269.484395 
L 362.764993 241.92 
L 390.857143 216.85637 
L 424.69059 216.708625 
L 454.628571 217.595465 
L 481.970399 241.92 
M 412.243994 352.896654 
L 390.857143 357.286176 
L 332.648098 336.96 
L 390.857143 312.226534 
L 420.639105 336.96 
M 199.542857 209.976645 
L 163.899875 194.4 
L 199.542857 156.381608 
L 261.198016 194.4 
M 215.714977 277.389163 
L 209.709673 289.44 
L 199.542857 298.196269 
L 186.520326 289.44 
L 199.542857 281.0282 
M 327.085714 136.634717 
L 337.903182 138.819242 
L 348.271243 146.88 
L 352.170281 165.572048 
L 327.085714 166.194133 
L 266.417221 192.087813 
L 300.4627 146.88 
L 308.539751 133.060266 
" style="fill:#1fa088;"/>
   </g>
   <g id="PathCollection_6">
    <path clip-path="url(#p0b8b6df20d)" d="M 320.566457 51.84 
L 320.837996 56.495558 
L 327.085714 55.064604 
L 330.358953 54.279091 
L 390.857143 52.60123 
L 393.317069 51.84 
L 390.857143 51.84 
L 327.085714 51.84 
M 170.344387 51.84 
L 174.006571 70.868652 
L 167.03954 99.36 
L 199.542857 137.669167 
L 224.314111 99.36 
L 225.033963 80.365015 
L 218.65144 51.84 
L 199.542857 51.84 
M 72 196.264902 
L 93.276295 210.254271 
L 76.062588 194.4 
L 74.073207 192.855126 
L 72 193.11803 
L 72 194.4 
M 191.873958 384.48 
L 199.542857 382.432782 
L 202.719534 384.48 
L 221.678654 384.48 
L 199.542857 370.214521 
L 146.104239 384.48 
M 518.4 71.634204 
L 501.385849 86.681713 
L 459.406701 99.36 
L 504.0978 110.017446 
L 501.687748 146.88 
L 494.916367 164.379094 
L 518.4 158.949851 
L 518.4 146.88 
L 518.4 99.36 
M 481.970399 241.92 
L 454.628571 217.595465 
L 424.69059 216.708625 
L 390.857143 216.85637 
L 362.764993 241.92 
L 390.857143 269.484395 
L 418.80569 268.613825 
L 410.122946 289.44 
L 454.628571 320.3724 
L 500.983252 323.981714 
L 497.28056 289.44 
L 491.294298 262.11812 
M 420.639105 336.96 
L 390.857143 312.226534 
L 332.648098 336.96 
L 390.857143 357.286176 
L 412.243994 352.896654 
M 261.198016 194.4 
L 199.542857 156.381608 
L 163.899875 194.4 
L 199.542857 209.976645 
M 199.542857 281.0282 
L 186.520326 289.44 
L 199.542857 298.196269 
L 209.709673 289.44 
L 215.714977 277.389163 
M 308.539751 133.060266 
L 300.4627 146.88 
L 266.417221 192.087813 
L 327.085714 166.194133 
L 352.170281 165.572048 
L 348.271243 146.88 
L 337.903182 138.819242 
L 327.085714 136.634717 
M 477.67811 272.264376 
L 481.441313 289.44 
L 483.768973 311.154299 
L 454.628571 308.885341 
L 426.650559 289.44 
L 442.781996 250.747609 
L 390.857143 252.365018 
L 380.212141 241.92 
L 390.857143 232.4226 
L 403.677703 232.366615 
L 454.628571 233.875911 
L 463.670475 241.92 
M 395.341018 340.30121 
L 390.857143 341.221498 
L 378.653286 336.96 
L 390.857143 331.774488 
L 397.101101 336.96 
M 199.542857 198.801149 
L 189.472005 194.4 
L 199.542857 183.657981 
L 216.963397 194.4 
M 207.216568 99.36 
L 199.542857 111.227525 
L 189.473885 99.36 
L 199.542857 58.183407 
L 207.439566 93.475678 
" style="fill:#3dbc74;"/>
   </g>
   <g id="PathCollection_7">
    <path clip-path="url(#p0b8b6df20d)" d="M 202.719534 384.48 
L 199.542857 382.432782 
L 191.873958 384.48 
L 199.542857 384.48 
M 463.670475 241.92 
L 454.628571 233.875911 
L 403.677703 232.366615 
L 390.857143 232.4226 
L 380.212141 241.92 
L 390.857143 252.365018 
L 442.781996 250.747609 
L 426.650559 289.44 
L 454.628571 308.885341 
L 483.768973 311.154299 
L 481.441313 289.44 
L 477.67811 272.264376 
M 397.101101 336.96 
L 390.857143 331.774488 
L 378.653286 336.96 
L 390.857143 341.221498 
L 395.341018 340.30121 
M 216.963397 194.4 
L 199.542857 183.657981 
L 189.472005 194.4 
L 199.542857 198.801149 
M 207.439566 93.475678 
L 199.542857 58.183407 
L 189.473885 99.36 
L 199.542857 111.227525 
L 207.216568 99.36 
M 464.061922 282.410632 
L 465.602066 289.44 
L 466.554694 298.326885 
L 454.628571 297.398281 
L 443.178173 289.44 
L 454.628571 261.975411 
" style="fill:#81d34d;"/>
   </g>
   <g id="PathCollection_8">
    <path clip-path="url(#p0b8b6df20d)" d="M 454.628571 261.975411 
L 443.178173 289.44 
L 454.628571 297.398281 
L 466.554694 298.326885 
L 465.602066 289.44 
L 464.061922 282.410632 
" style="fill:#d8e219;"/>
   </g>
   <g id="matplotlib.axis_1">
    <g id="xtick_1">
     <g id="line2d_1">
      <defs>
       <path d="M 0 0 
L 0 3.5 
" id="m0140fc8a8d" style="stroke:#000000;stroke-width:0.8;"/>
      </defs>
      <g>
       <use style="stroke:#000000;stroke-width:0.8;" x="72" xlink:href="#m0140fc8a8d" y="384.48"/>
      </g>
     </g>
     <g id="text_1">
      <!-- 0.60 -->
      <defs>
       <path d="M 31.78125 66.40625 
Q 24.171875 66.40625 20.328125 58.90625 
Q 16.5 51.421875 16.5 36.375 
Q 16.5 21.390625 20.328125 13.890625 
Q 24.171875 6.390625 31.78125 6.390625 
Q 39.453125 6.390625 43.28125 13.890625 
Q 47.125 21.390625 47.125 36.375 
Q 47.125 51.421875 43.28125 58.90625 
Q 39.453125 66.40625 31.78125 66.40625 
z
M 31.78125 74.21875 
Q 44.046875 74.21875 50.515625 64.515625 
Q 56.984375 54.828125 56.984375 36.375 
Q 56.984375 17.96875 50.515625 8.265625 
Q 44.046875 -1.421875 31.78125 -1.421875 
Q 19.53125 -1.421875 13.0625 8.265625 
Q 6.59375 17.96875 6.59375 36.375 
Q 6.59375 54.828125 13.0625 64.515625 
Q 19.53125 74.21875 31.78125 74.21875 
z
" id="DejaVuSans-48"/>
       <path d="M 10.6875 12.40625 
L 21 12.40625 
L 21 0 
L 10.6875 0 
z
" id="DejaVuSans-46"/>
       <path d="M 33.015625 40.375 
Q 26.375 40.375 22.484375 35.828125 
Q 18.609375 31.296875 18.609375 23.390625 
Q 18.609375 15.53125 22.484375 10.953125 
Q 26.375 6.390625 33.015625 6.390625 
Q 39.65625 6.390625 43.53125 10.953125 
Q 47.40625 15.53125 47.40625 23.390625 
Q 47.40625 31.296875 43.53125 35.828125 
Q 39.65625 40.375 33.015625 40.375 
z
M 52.59375 71.296875 
L 52.59375 62.3125 
Q 48.875 64.0625 45.09375 64.984375 
Q 41.3125 65.921875 37.59375 65.921875 
Q 27.828125 65.921875 22.671875 59.328125 
Q 17.53125 52.734375 16.796875 39.40625 
Q 19.671875 43.65625 24.015625 45.921875 
Q 28.375 48.1875 33.59375 48.1875 
Q 44.578125 48.1875 50.953125 41.515625 
Q 57.328125 34.859375 57.328125 23.390625 
Q 57.328125 12.15625 50.6875 5.359375 
Q 44.046875 -1.421875 33.015625 -1.421875 
Q 20.359375 -1.421875 13.671875 8.265625 
Q 6.984375 17.96875 6.984375 36.375 
Q 6.984375 53.65625 15.1875 63.9375 
Q 23.390625 74.21875 37.203125 74.21875 
Q 40.921875 74.21875 44.703125 73.484375 
Q 48.484375 72.75 52.59375 71.296875 
z
" id="DejaVuSans-54"/>
      </defs>
      <g transform="translate(58.640625 400.598125)scale(0.12 -0.12)">
       <use xlink:href="#DejaVuSans-48"/>
       <use x="63.623047" xlink:href="#DejaVuSans-46"/>
       <use x="95.410156" xlink:href="#DejaVuSans-54"/>
       <use x="159.033203" xlink:href="#DejaVuSans-48"/>
      </g>
     </g>
    </g>
    <g id="xtick_2">
     <g id="line2d_2">
      <g>
       <use style="stroke:#000000;stroke-width:0.8;" x="127.8" xlink:href="#m0140fc8a8d" y="384.48"/>
      </g>
     </g>
     <g id="text_2">
      <!-- 0.65 -->
      <defs>
       <path d="M 10.796875 72.90625 
L 49.515625 72.90625 
L 49.515625 64.59375 
L 19.828125 64.59375 
L 19.828125 46.734375 
Q 21.96875 47.46875 24.109375 47.828125 
Q 26.265625 48.1875 28.421875 48.1875 
Q 40.625 48.1875 47.75 41.5 
Q 54.890625 34.8125 54.890625 23.390625 
Q 54.890625 11.625 47.5625 5.09375 
Q 40.234375 -1.421875 26.90625 -1.421875 
Q 22.3125 -1.421875 17.546875 -0.640625 
Q 12.796875 0.140625 7.71875 1.703125 
L 7.71875 11.625 
Q 12.109375 9.234375 16.796875 8.0625 
Q 21.484375 6.890625 26.703125 6.890625 
Q 35.15625 6.890625 40.078125 11.328125 
Q 45.015625 15.765625 45.015625 23.390625 
Q 45.015625 31 40.078125 35.4375 
Q 35.15625 39.890625 26.703125 39.890625 
Q 22.75 39.890625 18.8125 39.015625 
Q 14.890625 38.140625 10.796875 36.28125 
z
" id="DejaVuSans-53"/>
      </defs>
      <g transform="translate(114.440625 400.598125)scale(0.12 -0.12)">
       <use xlink:href="#DejaVuSans-48"/>
       <use x="63.623047" xlink:href="#DejaVuSans-46"/>
       <use x="95.410156" xlink:href="#DejaVuSans-54"/>
       <use x="159.033203" xlink:href="#DejaVuSans-53"/>
      </g>
     </g>
    </g>
    <g id="xtick_3">
     <g id="line2d_3">
      <g>
       <use style="stroke:#000000;stroke-width:0.8;" x="183.6" xlink:href="#m0140fc8a8d" y="384.48"/>
      </g>
     </g>
     <g id="text_3">
      <!-- 0.70 -->
      <defs>
       <path d="M 8.203125 72.90625 
L 55.078125 72.90625 
L 55.078125 68.703125 
L 28.609375 0 
L 18.3125 0 
L 43.21875 64.59375 
L 8.203125 64.59375 
z
" id="DejaVuSans-55"/>
      </defs>
      <g transform="translate(170.240625 400.598125)scale(0.12 -0.12)">
       <use xlink:href="#DejaVuSans-48"/>
       <use x="63.623047" xlink:href="#DejaVuSans-46"/>
       <use x="95.410156" xlink:href="#DejaVuSans-55"/>
       <use x="159.033203" xlink:href="#DejaVuSans-48"/>
      </g>
     </g>
    </g>
    <g id="xtick_4">
     <g id="line2d_4">
      <g>
       <use style="stroke:#000000;stroke-width:0.8;" x="239.4" xlink:href="#m0140fc8a8d" y="384.48"/>
      </g>
     </g>
     <g id="text_4">
      <!-- 0.75 -->
      <g transform="translate(226.040625 400.598125)scale(0.12 -0.12)">
       <use xlink:href="#DejaVuSans-48"/>
       <use x="63.623047" xlink:href="#DejaVuSans-46"/>
       <use x="95.410156" xlink:href="#DejaVuSans-55"/>
       <use x="159.033203" xlink:href="#DejaVuSans-53"/>
      </g>
     </g>
    </g>
    <g id="xtick_5">
     <g id="line2d_5">
      <g>
       <use style="stroke:#000000;stroke-width:0.8;" x="295.2" xlink:href="#m0140fc8a8d" y="384.48"/>
      </g>
     </g>
     <g id="text_5">
      <!-- 0.80 -->
      <defs>
       <path d="M 31.78125 34.625 
Q 24.75 34.625 20.71875 30.859375 
Q 16.703125 27.09375 16.703125 20.515625 
Q 16.703125 13.921875 20.71875 10.15625 
Q 24.75 6.390625 31.78125 6.390625 
Q 38.8125 6.390625 42.859375 10.171875 
Q 46.921875 13.96875 46.921875 20.515625 
Q 46.921875 27.09375 42.890625 30.859375 
Q 38.875 34.625 31.78125 34.625 
z
M 21.921875 38.8125 
Q 15.578125 40.375 12.03125 44.71875 
Q 8.5 49.078125 8.5 55.328125 
Q 8.5 64.0625 14.71875 69.140625 
Q 20.953125 74.21875 31.78125 74.21875 
Q 42.671875 74.21875 48.875 69.140625 
Q 55.078125 64.0625 55.078125 55.328125 
Q 55.078125 49.078125 51.53125 44.71875 
Q 48 40.375 41.703125 38.8125 
Q 48.828125 37.15625 52.796875 32.3125 
Q 56.78125 27.484375 56.78125 20.515625 
Q 56.78125 9.90625 50.3125 4.234375 
Q 43.84375 -1.421875 31.78125 -1.421875 
Q 19.734375 -1.421875 13.25 4.234375 
Q 6.78125 9.90625 6.78125 20.515625 
Q 6.78125 27.484375 10.78125 32.3125 
Q 14.796875 37.15625 21.921875 38.8125 
z
M 18.3125 54.390625 
Q 18.3125 48.734375 21.84375 45.5625 
Q 25.390625 42.390625 31.78125 42.390625 
Q 38.140625 42.390625 41.71875 45.5625 
Q 45.3125 48.734375 45.3125 54.390625 
Q 45.3125 60.0625 41.71875 63.234375 
Q 38.140625 66.40625 31.78125 66.40625 
Q 25.390625 66.40625 21.84375 63.234375 
Q 18.3125 60.0625 18.3125 54.390625 
z
" id="DejaVuSans-56"/>
      </defs>
      <g transform="translate(281.840625 400.598125)scale(0.12 -0.12)">
       <use xlink:href="#DejaVuSans-48"/>
       <use x="63.623047" xlink:href="#DejaVuSans-46"/>
       <use x="95.410156" xlink:href="#DejaVuSans-56"/>
       <use x="159.033203" xlink:href="#DejaVuSans-48"/>
      </g>
     </g>
    </g>
    <g id="xtick_6">
     <g id="line2d_6">
      <g>
       <use style="stroke:#000000;stroke-width:0.8;" x="351" xlink:href="#m0140fc8a8d" y="384.48"/>
      </g>
     </g>
     <g id="text_6">
      <!-- 0.85 -->
      <g transform="translate(337.640625 400.598125)scale(0.12 -0.12)">
       <use xlink:href="#DejaVuSans-48"/>
       <use x="63.623047" xlink:href="#DejaVuSans-46"/>
       <use x="95.410156" xlink:href="#DejaVuSans-56"/>
       <use x="159.033203" xlink:href="#DejaVuSans-53"/>
      </g>
     </g>
    </g>
    <g id="xtick_7">
     <g id="line2d_7">
      <g>
       <use style="stroke:#000000;stroke-width:0.8;" x="406.8" xlink:href="#m0140fc8a8d" y="384.48"/>
      </g>
     </g>
     <g id="text_7">
      <!-- 0.90 -->
      <defs>
       <path d="M 10.984375 1.515625 
L 10.984375 10.5 
Q 14.703125 8.734375 18.5 7.8125 
Q 22.3125 6.890625 25.984375 6.890625 
Q 35.75 6.890625 40.890625 13.453125 
Q 46.046875 20.015625 46.78125 33.40625 
Q 43.953125 29.203125 39.59375 26.953125 
Q 35.25 24.703125 29.984375 24.703125 
Q 19.046875 24.703125 12.671875 31.3125 
Q 6.296875 37.9375 6.296875 49.421875 
Q 6.296875 60.640625 12.9375 67.421875 
Q 19.578125 74.21875 30.609375 74.21875 
Q 43.265625 74.21875 49.921875 64.515625 
Q 56.59375 54.828125 56.59375 36.375 
Q 56.59375 19.140625 48.40625 8.859375 
Q 40.234375 -1.421875 26.421875 -1.421875 
Q 22.703125 -1.421875 18.890625 -0.6875 
Q 15.09375 0.046875 10.984375 1.515625 
z
M 30.609375 32.421875 
Q 37.25 32.421875 41.125 36.953125 
Q 45.015625 41.5 45.015625 49.421875 
Q 45.015625 57.28125 41.125 61.84375 
Q 37.25 66.40625 30.609375 66.40625 
Q 23.96875 66.40625 20.09375 61.84375 
Q 16.21875 57.28125 16.21875 49.421875 
Q 16.21875 41.5 20.09375 36.953125 
Q 23.96875 32.421875 30.609375 32.421875 
z
" id="DejaVuSans-57"/>
      </defs>
      <g transform="translate(393.440625 400.598125)scale(0.12 -0.12)">
       <use xlink:href="#DejaVuSans-48"/>
       <use x="63.623047" xlink:href="#DejaVuSans-46"/>
       <use x="95.410156" xlink:href="#DejaVuSans-57"/>
       <use x="159.033203" xlink:href="#DejaVuSans-48"/>
      </g>
     </g>
    </g>
    <g id="xtick_8">
     <g id="line2d_8">
      <g>
       <use style="stroke:#000000;stroke-width:0.8;" x="462.6" xlink:href="#m0140fc8a8d" y="384.48"/>
      </g>
     </g>
     <g id="text_8">
      <!-- 0.95 -->
      <g transform="translate(449.240625 400.598125)scale(0.12 -0.12)">
       <use xlink:href="#DejaVuSans-48"/>
       <use x="63.623047" xlink:href="#DejaVuSans-46"/>
       <use x="95.410156" xlink:href="#DejaVuSans-57"/>
       <use x="159.033203" xlink:href="#DejaVuSans-53"/>
      </g>
     </g>
    </g>
    <g id="xtick_9">
     <g id="line2d_9">
      <g>
       <use style="stroke:#000000;stroke-width:0.8;" x="518.4" xlink:href="#m0140fc8a8d" y="384.48"/>
      </g>
     </g>
     <g id="text_9">
      <!-- 1.00 -->
      <defs>
       <path d="M 12.40625 8.296875 
L 28.515625 8.296875 
L 28.515625 63.921875 
L 10.984375 60.40625 
L 10.984375 69.390625 
L 28.421875 72.90625 
L 38.28125 72.90625 
L 38.28125 8.296875 
L 54.390625 8.296875 
L 54.390625 0 
L 12.40625 0 
z
" id="DejaVuSans-49"/>
      </defs>
      <g transform="translate(505.040625 400.598125)scale(0.12 -0.12)">
       <use xlink:href="#DejaVuSans-49"/>
       <use x="63.623047" xlink:href="#DejaVuSans-46"/>
       <use x="95.410156" xlink:href="#DejaVuSans-48"/>
       <use x="159.033203" xlink:href="#DejaVuSans-48"/>
      </g>
     </g>
    </g>
    <g id="text_10">
     <!-- Sub sample -->
     <defs>
      <path d="M 53.515625 70.515625 
L 53.515625 60.890625 
Q 47.90625 63.578125 42.921875 64.890625 
Q 37.9375 66.21875 33.296875 66.21875 
Q 25.25 66.21875 20.875 63.09375 
Q 16.5 59.96875 16.5 54.203125 
Q 16.5 49.359375 19.40625 46.890625 
Q 22.3125 44.4375 30.421875 42.921875 
L 36.375 41.703125 
Q 47.40625 39.59375 52.65625 34.296875 
Q 57.90625 29 57.90625 20.125 
Q 57.90625 9.515625 50.796875 4.046875 
Q 43.703125 -1.421875 29.984375 -1.421875 
Q 24.8125 -1.421875 18.96875 -0.25 
Q 13.140625 0.921875 6.890625 3.21875 
L 6.890625 13.375 
Q 12.890625 10.015625 18.65625 8.296875 
Q 24.421875 6.59375 29.984375 6.59375 
Q 38.421875 6.59375 43.015625 9.90625 
Q 47.609375 13.234375 47.609375 19.390625 
Q 47.609375 24.75 44.3125 27.78125 
Q 41.015625 30.8125 33.5 32.328125 
L 27.484375 33.5 
Q 16.453125 35.6875 11.515625 40.375 
Q 6.59375 45.0625 6.59375 53.421875 
Q 6.59375 63.09375 13.40625 68.65625 
Q 20.21875 74.21875 32.171875 74.21875 
Q 37.3125 74.21875 42.625 73.28125 
Q 47.953125 72.359375 53.515625 70.515625 
z
" id="DejaVuSans-83"/>
      <path d="M 8.5 21.578125 
L 8.5 54.6875 
L 17.484375 54.6875 
L 17.484375 21.921875 
Q 17.484375 14.15625 20.5 10.265625 
Q 23.53125 6.390625 29.59375 6.390625 
Q 36.859375 6.390625 41.078125 11.03125 
Q 45.3125 15.671875 45.3125 23.6875 
L 45.3125 54.6875 
L 54.296875 54.6875 
L 54.296875 0 
L 45.3125 0 
L 45.3125 8.40625 
Q 42.046875 3.421875 37.71875 1 
Q 33.40625 -1.421875 27.6875 -1.421875 
Q 18.265625 -1.421875 13.375 4.4375 
Q 8.5 10.296875 8.5 21.578125 
z
M 31.109375 56 
z
" id="DejaVuSans-117"/>
      <path d="M 48.6875 27.296875 
Q 48.6875 37.203125 44.609375 42.84375 
Q 40.53125 48.484375 33.40625 48.484375 
Q 26.265625 48.484375 22.1875 42.84375 
Q 18.109375 37.203125 18.109375 27.296875 
Q 18.109375 17.390625 22.1875 11.75 
Q 26.265625 6.109375 33.40625 6.109375 
Q 40.53125 6.109375 44.609375 11.75 
Q 48.6875 17.390625 48.6875 27.296875 
z
M 18.109375 46.390625 
Q 20.953125 51.265625 25.265625 53.625 
Q 29.59375 56 35.59375 56 
Q 45.5625 56 51.78125 48.09375 
Q 58.015625 40.1875 58.015625 27.296875 
Q 58.015625 14.40625 51.78125 6.484375 
Q 45.5625 -1.421875 35.59375 -1.421875 
Q 29.59375 -1.421875 25.265625 0.953125 
Q 20.953125 3.328125 18.109375 8.203125 
L 18.109375 0 
L 9.078125 0 
L 9.078125 75.984375 
L 18.109375 75.984375 
z
" id="DejaVuSans-98"/>
      <path id="DejaVuSans-32"/>
      <path d="M 44.28125 53.078125 
L 44.28125 44.578125 
Q 40.484375 46.53125 36.375 47.5 
Q 32.28125 48.484375 27.875 48.484375 
Q 21.1875 48.484375 17.84375 46.4375 
Q 14.5 44.390625 14.5 40.28125 
Q 14.5 37.15625 16.890625 35.375 
Q 19.28125 33.59375 26.515625 31.984375 
L 29.59375 31.296875 
Q 39.15625 29.25 43.1875 25.515625 
Q 47.21875 21.78125 47.21875 15.09375 
Q 47.21875 7.46875 41.1875 3.015625 
Q 35.15625 -1.421875 24.609375 -1.421875 
Q 20.21875 -1.421875 15.453125 -0.5625 
Q 10.6875 0.296875 5.421875 2 
L 5.421875 11.28125 
Q 10.40625 8.6875 15.234375 7.390625 
Q 20.0625 6.109375 24.8125 6.109375 
Q 31.15625 6.109375 34.5625 8.28125 
Q 37.984375 10.453125 37.984375 14.40625 
Q 37.984375 18.0625 35.515625 20.015625 
Q 33.0625 21.96875 24.703125 23.78125 
L 21.578125 24.515625 
Q 13.234375 26.265625 9.515625 29.90625 
Q 5.8125 33.546875 5.8125 39.890625 
Q 5.8125 47.609375 11.28125 51.796875 
Q 16.75 56 26.8125 56 
Q 31.78125 56 36.171875 55.265625 
Q 40.578125 54.546875 44.28125 53.078125 
z
" id="DejaVuSans-115"/>
      <path d="M 34.28125 27.484375 
Q 23.390625 27.484375 19.1875 25 
Q 14.984375 22.515625 14.984375 16.5 
Q 14.984375 11.71875 18.140625 8.90625 
Q 21.296875 6.109375 26.703125 6.109375 
Q 34.1875 6.109375 38.703125 11.40625 
Q 43.21875 16.703125 43.21875 25.484375 
L 43.21875 27.484375 
z
M 52.203125 31.203125 
L 52.203125 0 
L 43.21875 0 
L 43.21875 8.296875 
Q 40.140625 3.328125 35.546875 0.953125 
Q 30.953125 -1.421875 24.3125 -1.421875 
Q 15.921875 -1.421875 10.953125 3.296875 
Q 6 8.015625 6 15.921875 
Q 6 25.140625 12.171875 29.828125 
Q 18.359375 34.515625 30.609375 34.515625 
L 43.21875 34.515625 
L 43.21875 35.40625 
Q 43.21875 41.609375 39.140625 45 
Q 35.0625 48.390625 27.6875 48.390625 
Q 23 48.390625 18.546875 47.265625 
Q 14.109375 46.140625 10.015625 43.890625 
L 10.015625 52.203125 
Q 14.9375 54.109375 19.578125 55.046875 
Q 24.21875 56 28.609375 56 
Q 40.484375 56 46.34375 49.84375 
Q 52.203125 43.703125 52.203125 31.203125 
z
" id="DejaVuSans-97"/>
      <path d="M 52 44.1875 
Q 55.375 50.25 60.0625 53.125 
Q 64.75 56 71.09375 56 
Q 79.640625 56 84.28125 50.015625 
Q 88.921875 44.046875 88.921875 33.015625 
L 88.921875 0 
L 79.890625 0 
L 79.890625 32.71875 
Q 79.890625 40.578125 77.09375 44.375 
Q 74.3125 48.1875 68.609375 48.1875 
Q 61.625 48.1875 57.5625 43.546875 
Q 53.515625 38.921875 53.515625 30.90625 
L 53.515625 0 
L 44.484375 0 
L 44.484375 32.71875 
Q 44.484375 40.625 41.703125 44.40625 
Q 38.921875 48.1875 33.109375 48.1875 
Q 26.21875 48.1875 22.15625 43.53125 
Q 18.109375 38.875 18.109375 30.90625 
L 18.109375 0 
L 9.078125 0 
L 9.078125 54.6875 
L 18.109375 54.6875 
L 18.109375 46.1875 
Q 21.1875 51.21875 25.484375 53.609375 
Q 29.78125 56 35.6875 56 
Q 41.65625 56 45.828125 52.96875 
Q 50 49.953125 52 44.1875 
z
" id="DejaVuSans-109"/>
      <path d="M 18.109375 8.203125 
L 18.109375 -20.796875 
L 9.078125 -20.796875 
L 9.078125 54.6875 
L 18.109375 54.6875 
L 18.109375 46.390625 
Q 20.953125 51.265625 25.265625 53.625 
Q 29.59375 56 35.59375 56 
Q 45.5625 56 51.78125 48.09375 
Q 58.015625 40.1875 58.015625 27.296875 
Q 58.015625 14.40625 51.78125 6.484375 
Q 45.5625 -1.421875 35.59375 -1.421875 
Q 29.59375 -1.421875 25.265625 0.953125 
Q 20.953125 3.328125 18.109375 8.203125 
z
M 48.6875 27.296875 
Q 48.6875 37.203125 44.609375 42.84375 
Q 40.53125 48.484375 33.40625 48.484375 
Q 26.265625 48.484375 22.1875 42.84375 
Q 18.109375 37.203125 18.109375 27.296875 
Q 18.109375 17.390625 22.1875 11.75 
Q 26.265625 6.109375 33.40625 6.109375 
Q 40.53125 6.109375 44.609375 11.75 
Q 48.6875 17.390625 48.6875 27.296875 
z
" id="DejaVuSans-112"/>
      <path d="M 9.421875 75.984375 
L 18.40625 75.984375 
L 18.40625 0 
L 9.421875 0 
z
" id="DejaVuSans-108"/>
      <path d="M 56.203125 29.59375 
L 56.203125 25.203125 
L 14.890625 25.203125 
Q 15.484375 15.921875 20.484375 11.0625 
Q 25.484375 6.203125 34.421875 6.203125 
Q 39.59375 6.203125 44.453125 7.46875 
Q 49.3125 8.734375 54.109375 11.28125 
L 54.109375 2.78125 
Q 49.265625 0.734375 44.1875 -0.34375 
Q 39.109375 -1.421875 33.890625 -1.421875 
Q 20.796875 -1.421875 13.15625 6.1875 
Q 5.515625 13.8125 5.515625 26.8125 
Q 5.515625 40.234375 12.765625 48.109375 
Q 20.015625 56 32.328125 56 
Q 43.359375 56 49.78125 48.890625 
Q 56.203125 41.796875 56.203125 29.59375 
z
M 47.21875 32.234375 
Q 47.125 39.59375 43.09375 43.984375 
Q 39.0625 48.390625 32.421875 48.390625 
Q 24.90625 48.390625 20.390625 44.140625 
Q 15.875 39.890625 15.1875 32.171875 
z
" id="DejaVuSans-101"/>
     </defs>
     <g transform="translate(254.200781 417.731562)scale(0.14 -0.14)">
      <use xlink:href="#DejaVuSans-83"/>
      <use x="63.476562" xlink:href="#DejaVuSans-117"/>
      <use x="126.855469" xlink:href="#DejaVuSans-98"/>
      <use x="190.332031" xlink:href="#DejaVuSans-32"/>
      <use x="222.119141" xlink:href="#DejaVuSans-115"/>
      <use x="274.21875" xlink:href="#DejaVuSans-97"/>
      <use x="335.498047" xlink:href="#DejaVuSans-109"/>
      <use x="432.910156" xlink:href="#DejaVuSans-112"/>
      <use x="496.386719" xlink:href="#DejaVuSans-108"/>
      <use x="524.169922" xlink:href="#DejaVuSans-101"/>
     </g>
    </g>
   </g>
   <g id="matplotlib.axis_2">
    <g id="ytick_1">
     <g id="line2d_10">
      <defs>
       <path d="M 0 0 
L -3.5 0 
" id="m3204ff0011" style="stroke:#000000;stroke-width:0.8;"/>
      </defs>
      <g>
       <use style="stroke:#000000;stroke-width:0.8;" x="72" xlink:href="#m3204ff0011" y="384.48"/>
      </g>
     </g>
     <g id="text_11">
      <!-- 0.60 -->
      <g transform="translate(38.28125 389.039062)scale(0.12 -0.12)">
       <use xlink:href="#DejaVuSans-48"/>
       <use x="63.623047" xlink:href="#DejaVuSans-46"/>
       <use x="95.410156" xlink:href="#DejaVuSans-54"/>
       <use x="159.033203" xlink:href="#DejaVuSans-48"/>
      </g>
     </g>
    </g>
    <g id="ytick_2">
     <g id="line2d_11">
      <g>
       <use style="stroke:#000000;stroke-width:0.8;" x="72" xlink:href="#m3204ff0011" y="342.9"/>
      </g>
     </g>
     <g id="text_12">
      <!-- 0.65 -->
      <g transform="translate(38.28125 347.459062)scale(0.12 -0.12)">
       <use xlink:href="#DejaVuSans-48"/>
       <use x="63.623047" xlink:href="#DejaVuSans-46"/>
       <use x="95.410156" xlink:href="#DejaVuSans-54"/>
       <use x="159.033203" xlink:href="#DejaVuSans-53"/>
      </g>
     </g>
    </g>
    <g id="ytick_3">
     <g id="line2d_12">
      <g>
       <use style="stroke:#000000;stroke-width:0.8;" x="72" xlink:href="#m3204ff0011" y="301.32"/>
      </g>
     </g>
     <g id="text_13">
      <!-- 0.70 -->
      <g transform="translate(38.28125 305.879062)scale(0.12 -0.12)">
       <use xlink:href="#DejaVuSans-48"/>
       <use x="63.623047" xlink:href="#DejaVuSans-46"/>
       <use x="95.410156" xlink:href="#DejaVuSans-55"/>
       <use x="159.033203" xlink:href="#DejaVuSans-48"/>
      </g>
     </g>
    </g>
    <g id="ytick_4">
     <g id="line2d_13">
      <g>
       <use style="stroke:#000000;stroke-width:0.8;" x="72" xlink:href="#m3204ff0011" y="259.74"/>
      </g>
     </g>
     <g id="text_14">
      <!-- 0.75 -->
      <g transform="translate(38.28125 264.299062)scale(0.12 -0.12)">
       <use xlink:href="#DejaVuSans-48"/>
       <use x="63.623047" xlink:href="#DejaVuSans-46"/>
       <use x="95.410156" xlink:href="#DejaVuSans-55"/>
       <use x="159.033203" xlink:href="#DejaVuSans-53"/>
      </g>
     </g>
    </g>
    <g id="ytick_5">
     <g id="line2d_14">
      <g>
       <use style="stroke:#000000;stroke-width:0.8;" x="72" xlink:href="#m3204ff0011" y="218.16"/>
      </g>
     </g>
     <g id="text_15">
      <!-- 0.80 -->
      <g transform="translate(38.28125 222.719062)scale(0.12 -0.12)">
       <use xlink:href="#DejaVuSans-48"/>
       <use x="63.623047" xlink:href="#DejaVuSans-46"/>
       <use x="95.410156" xlink:href="#DejaVuSans-56"/>
       <use x="159.033203" xlink:href="#DejaVuSans-48"/>
      </g>
     </g>
    </g>
    <g id="ytick_6">
     <g id="line2d_15">
      <g>
       <use style="stroke:#000000;stroke-width:0.8;" x="72" xlink:href="#m3204ff0011" y="176.58"/>
      </g>
     </g>
     <g id="text_16">
      <!-- 0.85 -->
      <g transform="translate(38.28125 181.139062)scale(0.12 -0.12)">
       <use xlink:href="#DejaVuSans-48"/>
       <use x="63.623047" xlink:href="#DejaVuSans-46"/>
       <use x="95.410156" xlink:href="#DejaVuSans-56"/>
       <use x="159.033203" xlink:href="#DejaVuSans-53"/>
      </g>
     </g>
    </g>
    <g id="ytick_7">
     <g id="line2d_16">
      <g>
       <use style="stroke:#000000;stroke-width:0.8;" x="72" xlink:href="#m3204ff0011" y="135"/>
      </g>
     </g>
     <g id="text_17">
      <!-- 0.90 -->
      <g transform="translate(38.28125 139.559062)scale(0.12 -0.12)">
       <use xlink:href="#DejaVuSans-48"/>
       <use x="63.623047" xlink:href="#DejaVuSans-46"/>
       <use x="95.410156" xlink:href="#DejaVuSans-57"/>
       <use x="159.033203" xlink:href="#DejaVuSans-48"/>
      </g>
     </g>
    </g>
    <g id="ytick_8">
     <g id="line2d_17">
      <g>
       <use style="stroke:#000000;stroke-width:0.8;" x="72" xlink:href="#m3204ff0011" y="93.42"/>
      </g>
     </g>
     <g id="text_18">
      <!-- 0.95 -->
      <g transform="translate(38.28125 97.979062)scale(0.12 -0.12)">
       <use xlink:href="#DejaVuSans-48"/>
       <use x="63.623047" xlink:href="#DejaVuSans-46"/>
       <use x="95.410156" xlink:href="#DejaVuSans-57"/>
       <use x="159.033203" xlink:href="#DejaVuSans-53"/>
      </g>
     </g>
    </g>
    <g id="ytick_9">
     <g id="line2d_18">
      <g>
       <use style="stroke:#000000;stroke-width:0.8;" x="72" xlink:href="#m3204ff0011" y="51.84"/>
      </g>
     </g>
     <g id="text_19">
      <!-- 1.00 -->
      <g transform="translate(38.28125 56.399062)scale(0.12 -0.12)">
       <use xlink:href="#DejaVuSans-49"/>
       <use x="63.623047" xlink:href="#DejaVuSans-46"/>
       <use x="95.410156" xlink:href="#DejaVuSans-48"/>
       <use x="159.033203" xlink:href="#DejaVuSans-48"/>
      </g>
     </g>
    </g>
    <g id="text_20">
     <!-- Col sample by tree -->
     <defs>
      <path d="M 64.40625 67.28125 
L 64.40625 56.890625 
Q 59.421875 61.53125 53.78125 63.8125 
Q 48.140625 66.109375 41.796875 66.109375 
Q 29.296875 66.109375 22.65625 58.46875 
Q 16.015625 50.828125 16.015625 36.375 
Q 16.015625 21.96875 22.65625 14.328125 
Q 29.296875 6.6875 41.796875 6.6875 
Q 48.140625 6.6875 53.78125 8.984375 
Q 59.421875 11.28125 64.40625 15.921875 
L 64.40625 5.609375 
Q 59.234375 2.09375 53.4375 0.328125 
Q 47.65625 -1.421875 41.21875 -1.421875 
Q 24.65625 -1.421875 15.125 8.703125 
Q 5.609375 18.84375 5.609375 36.375 
Q 5.609375 53.953125 15.125 64.078125 
Q 24.65625 74.21875 41.21875 74.21875 
Q 47.75 74.21875 53.53125 72.484375 
Q 59.328125 70.75 64.40625 67.28125 
z
" id="DejaVuSans-67"/>
      <path d="M 30.609375 48.390625 
Q 23.390625 48.390625 19.1875 42.75 
Q 14.984375 37.109375 14.984375 27.296875 
Q 14.984375 17.484375 19.15625 11.84375 
Q 23.34375 6.203125 30.609375 6.203125 
Q 37.796875 6.203125 41.984375 11.859375 
Q 46.1875 17.53125 46.1875 27.296875 
Q 46.1875 37.015625 41.984375 42.703125 
Q 37.796875 48.390625 30.609375 48.390625 
z
M 30.609375 56 
Q 42.328125 56 49.015625 48.375 
Q 55.71875 40.765625 55.71875 27.296875 
Q 55.71875 13.875 49.015625 6.21875 
Q 42.328125 -1.421875 30.609375 -1.421875 
Q 18.84375 -1.421875 12.171875 6.21875 
Q 5.515625 13.875 5.515625 27.296875 
Q 5.515625 40.765625 12.171875 48.375 
Q 18.84375 56 30.609375 56 
z
" id="DejaVuSans-111"/>
      <path d="M 32.171875 -5.078125 
Q 28.375 -14.84375 24.75 -17.8125 
Q 21.140625 -20.796875 15.09375 -20.796875 
L 7.90625 -20.796875 
L 7.90625 -13.28125 
L 13.1875 -13.28125 
Q 16.890625 -13.28125 18.9375 -11.515625 
Q 21 -9.765625 23.484375 -3.21875 
L 25.09375 0.875 
L 2.984375 54.6875 
L 12.5 54.6875 
L 29.59375 11.921875 
L 46.6875 54.6875 
L 56.203125 54.6875 
z
" id="DejaVuSans-121"/>
      <path d="M 18.3125 70.21875 
L 18.3125 54.6875 
L 36.8125 54.6875 
L 36.8125 47.703125 
L 18.3125 47.703125 
L 18.3125 18.015625 
Q 18.3125 11.328125 20.140625 9.421875 
Q 21.96875 7.515625 27.59375 7.515625 
L 36.8125 7.515625 
L 36.8125 0 
L 27.59375 0 
Q 17.1875 0 13.234375 3.875 
Q 9.28125 7.765625 9.28125 18.015625 
L 9.28125 47.703125 
L 2.6875 47.703125 
L 2.6875 54.6875 
L 9.28125 54.6875 
L 9.28125 70.21875 
z
" id="DejaVuSans-116"/>
      <path d="M 41.109375 46.296875 
Q 39.59375 47.171875 37.8125 47.578125 
Q 36.03125 48 33.890625 48 
Q 26.265625 48 22.1875 43.046875 
Q 18.109375 38.09375 18.109375 28.8125 
L 18.109375 0 
L 9.078125 0 
L 9.078125 54.6875 
L 18.109375 54.6875 
L 18.109375 46.1875 
Q 20.953125 51.171875 25.484375 53.578125 
Q 30.03125 56 36.53125 56 
Q 37.453125 56 38.578125 55.875 
Q 39.703125 55.765625 41.0625 55.515625 
z
" id="DejaVuSans-114"/>
     </defs>
     <g transform="translate(31.369687 284.221406)rotate(-90)scale(0.14 -0.14)">
      <use xlink:href="#DejaVuSans-67"/>
      <use x="69.824219" xlink:href="#DejaVuSans-111"/>
      <use x="131.005859" xlink:href="#DejaVuSans-108"/>
      <use x="158.789062" xlink:href="#DejaVuSans-32"/>
      <use x="190.576172" xlink:href="#DejaVuSans-115"/>
      <use x="242.675781" xlink:href="#DejaVuSans-97"/>
      <use x="303.955078" xlink:href="#DejaVuSans-109"/>
      <use x="401.367188" xlink:href="#DejaVuSans-112"/>
      <use x="464.84375" xlink:href="#DejaVuSans-108"/>
      <use x="492.626953" xlink:href="#DejaVuSans-101"/>
      <use x="554.150391" xlink:href="#DejaVuSans-32"/>
      <use x="585.9375" xlink:href="#DejaVuSans-98"/>
      <use x="649.414062" xlink:href="#DejaVuSans-121"/>
      <use x="708.59375" xlink:href="#DejaVuSans-32"/>
      <use x="740.380859" xlink:href="#DejaVuSans-116"/>
      <use x="779.589844" xlink:href="#DejaVuSans-114"/>
      <use x="820.671875" xlink:href="#DejaVuSans-101"/>
      <use x="882.195312" xlink:href="#DejaVuSans-101"/>
     </g>
    </g>
   </g>
   <g id="patch_3">
    <path d="M 72 384.48 
L 72 51.84 
" style="fill:none;stroke:#000000;stroke-linecap:square;stroke-linejoin:miter;stroke-width:0.8;"/>
   </g>
   <g id="patch_4">
    <path d="M 518.4 384.48 
L 518.4 51.84 
" style="fill:none;stroke:#000000;stroke-linecap:square;stroke-linejoin:miter;stroke-width:0.8;"/>
   </g>
   <g id="patch_5">
    <path d="M 72 384.48 
L 518.4 384.48 
" style="fill:none;stroke:#000000;stroke-linecap:square;stroke-linejoin:miter;stroke-width:0.8;"/>
   </g>
   <g id="patch_6">
    <path d="M 72 51.84 
L 518.4 51.84 
" style="fill:none;stroke:#000000;stroke-linecap:square;stroke-linejoin:miter;stroke-width:0.8;"/>
   </g>
  </g>
 </g>
 <defs>
  <clipPath id="p0b8b6df20d">
   <rect height="332.64" width="446.4" x="72" y="51.84"/>
  </clipPath>
 </defs>
</svg>
