<?xml version="1.0" encoding="utf-8" standalone="no"?>
<!DOCTYPE svg PUBLIC "-//W3C//DTD SVG 1.1//EN"
  "http://www.w3.org/Graphics/SVG/1.1/DTD/svg11.dtd">
<!-- Created with matplotlib (https://matplotlib.org/) -->
<svg height="432pt" version="1.1" viewBox="0 0 576 432" width="576pt" xmlns="http://www.w3.org/2000/svg" xmlns:xlink="http://www.w3.org/1999/xlink">
 <defs>
  <style type="text/css">
*{stroke-linecap:butt;stroke-linejoin:round;}
  </style>
 </defs>
 <g id="figure_1">
  <g id="patch_1">
   <path d="M 0 432 
L 576 432 
L 576 0 
L 0 0 
z
" style="fill:#ffffff;"/>
  </g>
  <g id="axes_1">
   <g id="patch_2">
    <path d="M 72 384.48 
L 518.4 384.48 
L 518.4 51.84 
L 72 51.84 
z
" style="fill:#ffffff;"/>
   </g>
   <g id="PathCollection_1">
    <path clip-path="url(#peabef313d6)" d="M 72 121.116805 
L 94.897365 116.42223 
L 105.375348 99.36 
L 94.126021 82.872545 
L 72 75.430078 
L 72 99.36 
M 135.771429 340.476017 
L 138.986488 339.355738 
L 137.951033 336.96 
L 135.771429 328.119827 
L 113.927258 336.96 
L 132.507527 339.392133 
" style="fill:#48186a;"/>
   </g>
   <g id="PathCollection_2">
    <path clip-path="url(#peabef313d6)" d="M 72 75.430078 
L 94.126021 82.872545 
L 105.375348 99.36 
L 94.897365 116.42223 
L 72 121.116805 
L 72 146.88 
L 72 147.637334 
L 73.886954 146.88 
L 122.418306 136.92977 
L 135.771429 115.185693 
L 141.95299 103.96626 
L 141.35879 99.36 
L 145.54904 92.074103 
L 135.771429 85.116008 
L 120.719863 63.055844 
L 87.375815 51.84 
L 72 51.84 
M 72 353.12994 
L 107.785289 357.814188 
L 135.771429 367.107888 
L 163.338778 357.502122 
L 154.460326 336.96 
L 144.313299 295.805071 
L 199.542857 295.722936 
L 255.725322 336.96 
L 261.565012 383.176509 
L 260.173315 384.48 
L 263.314286 384.48 
L 271.791862 384.48 
L 290.314728 357.079685 
L 279.424573 336.96 
L 273.420816 329.429005 
L 263.314286 327.893393 
L 212.940001 289.44 
L 263.314286 254.444534 
L 277.491286 252.484152 
L 276.723678 241.92 
L 280.352587 207.096283 
L 287.550107 194.4 
L 291.779949 173.18849 
L 263.314286 171.48106 
L 247.145457 182.351615 
L 232.347771 194.4 
L 211.639636 232.905949 
L 215.022504 241.92 
L 199.542857 256.240677 
L 180.525186 256.091232 
L 135.771429 274.22544 
L 103.188326 265.160333 
L 93.853737 289.44 
L 72 300.262724 
L 72 336.96 
M 132.507527 339.392133 
L 113.927258 336.96 
L 135.771429 328.119827 
L 137.951033 336.96 
L 138.986488 339.355738 
L 135.771429 340.476017 
M 459.003148 336.96 
L 454.628571 314.029589 
L 427.531768 316.768511 
L 435.69617 336.96 
L 454.628571 342.28822 
M 327.085714 92.869255 
L 311.504372 99.36 
L 327.085714 117.463703 
L 335.668601 99.36 
" style="fill:#423f85;"/>
   </g>
   <g id="PathCollection_3">
    <path clip-path="url(#peabef313d6)" d="M 504.703272 51.84 
L 518.4 98.405957 
L 518.4 51.84 
M 390.843226 51.84 
L 390.857143 51.850131 
L 390.871189 51.84 
L 390.857143 51.84 
M 218.819265 51.84 
L 263.314286 75.151433 
L 277.609771 51.84 
L 263.314286 51.84 
M 87.375815 51.84 
L 120.719863 63.055844 
L 135.771429 85.116008 
L 145.54904 92.074103 
L 141.35879 99.36 
L 141.95299 103.96626 
L 135.771429 115.185693 
L 122.418306 136.92977 
L 73.886954 146.88 
L 72 147.637334 
L 72 194.4 
L 72 241.92 
L 72 289.44 
L 72 300.262724 
L 93.853737 289.44 
L 103.188326 265.160333 
L 135.771429 274.22544 
L 180.525186 256.091232 
L 199.542857 256.240677 
L 215.022504 241.92 
L 211.639636 232.905949 
L 232.347771 194.4 
L 247.145457 182.351615 
L 263.314286 171.48106 
L 291.779949 173.18849 
L 287.550107 194.4 
L 280.352587 207.096283 
L 276.723678 241.92 
L 277.491286 252.484152 
L 263.314286 254.444534 
L 212.940001 289.44 
L 263.314286 327.893393 
L 273.420816 329.429005 
L 279.424573 336.96 
L 290.314728 357.079685 
L 271.791862 384.48 
L 327.085714 384.48 
L 390.857143 384.48 
L 403.49498 384.48 
L 392.769388 338.384931 
L 454.628571 355.794204 
L 470.091834 336.96 
L 462.086338 294.997239 
L 475.442182 289.44 
L 467.621049 279.758509 
L 454.628571 262.604769 
L 423.489701 265.123481 
L 430.333182 241.92 
L 418.513007 221.31192 
L 390.857143 202.427253 
L 365.612771 241.92 
L 363.447974 262.344252 
L 369.995777 289.44 
L 386.769342 333.913929 
L 364.171637 336.96 
L 327.085714 344.322792 
L 323.100465 336.96 
L 300.820188 309.012054 
L 263.314286 303.313313 
L 245.140123 289.44 
L 263.314286 276.814247 
L 302.812422 271.352482 
L 300.67381 241.92 
L 302.576958 223.657024 
L 319.162757 194.4 
L 327.085714 154.668518 
L 343.070665 158.791366 
L 329.747613 146.88 
L 328.19991 146.049745 
L 350.335315 99.36 
L 327.085714 81.777661 
L 284.878473 99.36 
L 323.438455 144.162203 
L 263.314286 138.353999 
L 255.440185 146.88 
L 226.055208 166.635977 
L 199.542857 188.222528 
L 171.30862 194.4 
L 150.03597 205.029384 
L 135.771429 227.476568 
L 89.08147 194.4 
L 135.771429 179.44471 
L 154.299433 146.88 
L 167.468081 122.979119 
L 164.421255 99.36 
L 185.907231 62.000741 
L 171.629216 51.84 
L 135.771429 51.84 
M 72 374.788104 
L 83.063051 376.236243 
L 107.887496 384.48 
L 135.771429 384.48 
L 162.34578 384.48 
L 187.691068 375.648505 
L 170.969619 336.96 
L 164.538449 310.87607 
L 199.542857 310.824013 
L 235.151216 336.96 
L 238.852403 366.251952 
L 219.390881 384.48 
L 260.173315 384.48 
L 261.565012 383.176509 
L 255.725322 336.96 
L 199.542857 295.722936 
L 144.313299 295.805071 
L 154.460326 336.96 
L 163.338778 357.502122 
L 135.771429 367.107888 
L 107.785289 357.814188 
L 72 353.12994 
M 454.628571 342.28822 
L 435.69617 336.96 
L 427.531768 316.768511 
L 454.628571 314.029589 
L 459.003148 336.96 
M 335.668601 99.36 
L 327.085714 117.463703 
L 311.504372 99.36 
L 327.085714 92.869255 
M 454.628571 98.755957 
L 453.84361 99.36 
L 452.739449 100.767701 
L 454.628571 100.64682 
L 499.060487 99.36 
" style="fill:#33638d;"/>
   </g>
   <g id="PathCollection_4">
    <path clip-path="url(#peabef313d6)" d="M 485.978862 51.84 
L 494.778981 81.758531 
L 454.628571 81.212694 
L 431.04591 99.36 
L 397.873529 141.651661 
L 454.628571 138.020036 
L 466.999373 137.661757 
L 518.4 116.003681 
L 518.4 99.36 
L 518.4 98.405957 
L 504.703272 51.84 
M 390.871189 51.84 
L 390.857143 51.850131 
L 390.843226 51.84 
L 367.221726 51.84 
L 390.857143 69.046138 
L 414.711958 51.84 
M 277.609771 51.84 
L 263.314286 75.151433 
L 218.819265 51.84 
L 199.542857 51.84 
L 171.629216 51.84 
L 185.907231 62.000741 
L 164.421255 99.36 
L 167.468081 122.979119 
L 154.299433 146.88 
L 135.771429 179.44471 
L 89.08147 194.4 
L 135.771429 227.476568 
L 150.03597 205.029384 
L 171.30862 194.4 
L 199.542857 188.222528 
L 226.055208 166.635977 
L 255.440185 146.88 
L 263.314286 138.353999 
L 323.438455 144.162203 
L 284.878473 99.36 
L 327.085714 81.777661 
L 350.335315 99.36 
L 328.19991 146.049745 
L 329.747613 146.88 
L 343.070665 158.791366 
L 327.085714 154.668518 
L 319.162757 194.4 
L 302.576958 223.657024 
L 300.67381 241.92 
L 302.812422 271.352482 
L 263.314286 276.814247 
L 245.140123 289.44 
L 263.314286 303.313313 
L 300.820188 309.012054 
L 323.100465 336.96 
L 327.085714 344.322792 
L 364.171637 336.96 
L 386.769342 333.913929 
L 369.995777 289.44 
L 363.447974 262.344252 
L 365.612771 241.92 
L 390.857143 202.427253 
L 418.513007 221.31192 
L 430.333182 241.92 
L 423.489701 265.123481 
L 454.628571 262.604769 
L 467.621049 279.758509 
L 475.442182 289.44 
L 462.086338 294.997239 
L 470.091834 336.96 
L 454.628571 355.794204 
L 392.769388 338.384931 
L 403.49498 384.48 
L 427.569942 384.48 
L 421.894224 360.087631 
L 454.628571 369.300187 
L 481.180521 336.96 
L 475.012611 304.629397 
L 511.517647 289.44 
L 490.140432 262.977936 
L 474.190862 241.92 
L 457.370442 196.443136 
L 470.033056 194.4 
L 456.537225 192.977746 
L 454.628571 185.270141 
L 435.11629 179.860203 
L 390.857143 153.074608 
L 383.928376 146.88 
L 350.878445 129.150578 
L 365.002029 99.36 
L 327.085714 70.686066 
L 269.731303 94.578287 
L 295.940097 51.84 
M 107.887496 384.48 
L 83.063051 376.236243 
L 72 374.788104 
L 72 384.48 
M 219.390881 384.48 
L 238.852403 366.251952 
L 235.151216 336.96 
L 199.542857 310.824013 
L 164.538449 310.87607 
L 170.969619 336.96 
L 187.691068 375.648505 
L 162.34578 384.48 
L 199.542857 384.48 
M 499.060487 99.36 
L 454.628571 100.64682 
L 452.739449 100.767701 
L 453.84361 99.36 
L 454.628571 98.755957 
M 199.542857 364.872415 
L 187.478912 336.96 
L 184.763599 325.947069 
L 199.542857 325.92509 
L 214.57711 336.96 
L 216.139793 349.327394 
M 246.311004 99.36 
L 236.204749 119.560977 
L 210.974546 146.88 
L 204.964958 150.92034 
L 199.542857 155.335054 
L 183.479837 158.849541 
L 190.290022 146.88 
L 192.983172 141.991977 
L 187.48372 99.36 
L 199.542857 78.391884 
M 324.801329 240.217765 
L 327.085714 236.188154 
L 333.942913 236.810281 
L 330.676702 241.92 
L 327.085714 275.799953 
L 324.623943 241.92 
" style="fill:#26828e;"/>
   </g>
   <g id="PathCollection_5">
    <path clip-path="url(#peabef313d6)" d="M 467.254451 51.84 
L 470.798573 63.889259 
L 454.628571 63.669431 
L 408.24821 99.36 
L 390.857143 121.531972 
L 373.55698 112.251412 
L 379.668742 99.36 
L 327.085714 59.594472 
L 303.486456 69.425254 
L 314.270423 51.84 
L 295.940097 51.84 
L 269.731303 94.578287 
L 327.085714 70.686066 
L 365.002029 99.36 
L 350.878445 129.150578 
L 383.928376 146.88 
L 390.857143 153.074608 
L 435.11629 179.860203 
L 454.628571 185.270141 
L 456.537225 192.977746 
L 470.033056 194.4 
L 457.370442 196.443136 
L 474.190862 241.92 
L 490.140432 262.977936 
L 511.517647 289.44 
L 475.012611 304.629397 
L 481.180521 336.96 
L 454.628571 369.300187 
L 421.894224 360.087631 
L 427.569942 384.48 
L 451.644903 384.48 
L 451.01906 381.790332 
L 454.628571 382.806171 
L 492.269207 336.96 
L 487.938884 314.261555 
L 518.4 301.586975 
L 518.4 289.44 
L 518.4 253.302927 
L 512.659814 246.197364 
L 509.42008 241.92 
L 506.003456 232.682575 
L 518.4 230.68237 
L 518.4 194.4 
L 518.4 170.702673 
L 490.391317 167.750986 
L 485.222983 146.88 
L 518.4 132.900591 
L 518.4 116.003681 
L 466.999373 137.661757 
L 454.628571 138.020036 
L 397.873529 141.651661 
L 431.04591 99.36 
L 454.628571 81.212694 
L 494.778981 81.758531 
L 485.978862 51.84 
M 414.711958 51.84 
L 390.857143 69.046138 
L 367.221726 51.84 
L 343.600226 51.84 
L 390.857143 86.242145 
L 438.552728 51.84 
M 216.139793 349.327394 
L 214.57711 336.96 
L 199.542857 325.92509 
L 184.763599 325.947069 
L 187.478912 336.96 
L 199.542857 364.872415 
M 199.542857 78.391884 
L 187.48372 99.36 
L 192.983172 141.991977 
L 190.290022 146.88 
L 183.479837 158.849541 
L 199.542857 155.335054 
L 204.964958 150.92034 
L 210.974546 146.88 
L 236.204749 119.560977 
L 246.311004 99.36 
M 324.623943 241.92 
L 327.085714 275.799953 
L 330.676702 241.92 
L 333.942913 236.810281 
L 327.085714 236.188154 
L 324.801329 240.217765 
" style="fill:#1f9f88;"/>
   </g>
   <g id="PathCollection_6">
    <path clip-path="url(#peabef313d6)" d="M 438.552728 51.84 
L 390.857143 86.242145 
L 343.600226 51.84 
L 327.085714 51.84 
L 314.270423 51.84 
L 303.486456 69.425254 
L 327.085714 59.594472 
L 379.668742 99.36 
L 373.55698 112.251412 
L 390.857143 121.531972 
L 408.24821 99.36 
L 454.628571 63.669431 
L 470.798573 63.889259 
L 467.254451 51.84 
L 454.628571 51.84 
M 490.59936 384.48 
L 479.652403 365.833209 
L 503.357893 336.96 
L 500.865156 323.893713 
L 518.4 316.597632 
L 518.4 301.586975 
L 487.938884 314.261555 
L 492.269207 336.96 
L 454.628571 382.806171 
L 451.01906 381.790332 
L 451.644903 384.48 
L 454.628571 384.48 
M 518.4 230.68237 
L 506.003456 232.682575 
L 509.42008 241.92 
L 512.659814 246.197364 
L 518.4 253.302927 
L 518.4 241.92 
M 518.4 132.900591 
L 485.222983 146.88 
L 490.391317 167.750986 
L 518.4 170.702673 
L 518.4 146.88 
" style="fill:#3fbc73;"/>
   </g>
   <g id="PathCollection_7">
    <path clip-path="url(#peabef313d6)" d="M 518.4 361.89538 
L 508.216217 344.548561 
L 514.446579 336.96 
L 513.791429 333.525871 
L 518.4 331.608289 
L 518.4 316.597632 
L 500.865156 323.893713 
L 503.357893 336.96 
L 479.652403 365.833209 
L 490.59936 384.48 
L 518.4 384.48 
" style="fill:#84d44b;"/>
   </g>
   <g id="PathCollection_8">
    <path clip-path="url(#peabef313d6)" d="M 518.4 331.608289 
L 513.791429 333.525871 
L 514.446579 336.96 
L 508.216217 344.548561 
L 518.4 361.89538 
L 518.4 336.96 
" style="fill:#d8e219;"/>
   </g>
   <g id="matplotlib.axis_1">
    <g id="xtick_1">
     <g id="line2d_1">
      <defs>
       <path d="M 0 0 
L 0 3.5 
" id="mda760e3fef" style="stroke:#000000;stroke-width:0.8;"/>
      </defs>
      <g>
       <use style="stroke:#000000;stroke-width:0.8;" x="72" xlink:href="#mda760e3fef" y="384.48"/>
      </g>
     </g>
     <g id="text_1">
      <!-- 0.60 -->
      <defs>
       <path d="M 31.78125 66.40625 
Q 24.171875 66.40625 20.328125 58.90625 
Q 16.5 51.421875 16.5 36.375 
Q 16.5 21.390625 20.328125 13.890625 
Q 24.171875 6.390625 31.78125 6.390625 
Q 39.453125 6.390625 43.28125 13.890625 
Q 47.125 21.390625 47.125 36.375 
Q 47.125 51.421875 43.28125 58.90625 
Q 39.453125 66.40625 31.78125 66.40625 
z
M 31.78125 74.21875 
Q 44.046875 74.21875 50.515625 64.515625 
Q 56.984375 54.828125 56.984375 36.375 
Q 56.984375 17.96875 50.515625 8.265625 
Q 44.046875 -1.421875 31.78125 -1.421875 
Q 19.53125 -1.421875 13.0625 8.265625 
Q 6.59375 17.96875 6.59375 36.375 
Q 6.59375 54.828125 13.0625 64.515625 
Q 19.53125 74.21875 31.78125 74.21875 
z
" id="DejaVuSans-48"/>
       <path d="M 10.6875 12.40625 
L 21 12.40625 
L 21 0 
L 10.6875 0 
z
" id="DejaVuSans-46"/>
       <path d="M 33.015625 40.375 
Q 26.375 40.375 22.484375 35.828125 
Q 18.609375 31.296875 18.609375 23.390625 
Q 18.609375 15.53125 22.484375 10.953125 
Q 26.375 6.390625 33.015625 6.390625 
Q 39.65625 6.390625 43.53125 10.953125 
Q 47.40625 15.53125 47.40625 23.390625 
Q 47.40625 31.296875 43.53125 35.828125 
Q 39.65625 40.375 33.015625 40.375 
z
M 52.59375 71.296875 
L 52.59375 62.3125 
Q 48.875 64.0625 45.09375 64.984375 
Q 41.3125 65.921875 37.59375 65.921875 
Q 27.828125 65.921875 22.671875 59.328125 
Q 17.53125 52.734375 16.796875 39.40625 
Q 19.671875 43.65625 24.015625 45.921875 
Q 28.375 48.1875 33.59375 48.1875 
Q 44.578125 48.1875 50.953125 41.515625 
Q 57.328125 34.859375 57.328125 23.390625 
Q 57.328125 12.15625 50.6875 5.359375 
Q 44.046875 -1.421875 33.015625 -1.421875 
Q 20.359375 -1.421875 13.671875 8.265625 
Q 6.984375 17.96875 6.984375 36.375 
Q 6.984375 53.65625 15.1875 63.9375 
Q 23.390625 74.21875 37.203125 74.21875 
Q 40.921875 74.21875 44.703125 73.484375 
Q 48.484375 72.75 52.59375 71.296875 
z
" id="DejaVuSans-54"/>
      </defs>
      <g transform="translate(58.640625 400.598125)scale(0.12 -0.12)">
       <use xlink:href="#DejaVuSans-48"/>
       <use x="63.623047" xlink:href="#DejaVuSans-46"/>
       <use x="95.410156" xlink:href="#DejaVuSans-54"/>
       <use x="159.033203" xlink:href="#DejaVuSans-48"/>
      </g>
     </g>
    </g>
    <g id="xtick_2">
     <g id="line2d_2">
      <g>
       <use style="stroke:#000000;stroke-width:0.8;" x="127.8" xlink:href="#mda760e3fef" y="384.48"/>
      </g>
     </g>
     <g id="text_2">
      <!-- 0.65 -->
      <defs>
       <path d="M 10.796875 72.90625 
L 49.515625 72.90625 
L 49.515625 64.59375 
L 19.828125 64.59375 
L 19.828125 46.734375 
Q 21.96875 47.46875 24.109375 47.828125 
Q 26.265625 48.1875 28.421875 48.1875 
Q 40.625 48.1875 47.75 41.5 
Q 54.890625 34.8125 54.890625 23.390625 
Q 54.890625 11.625 47.5625 5.09375 
Q 40.234375 -1.421875 26.90625 -1.421875 
Q 22.3125 -1.421875 17.546875 -0.640625 
Q 12.796875 0.140625 7.71875 1.703125 
L 7.71875 11.625 
Q 12.109375 9.234375 16.796875 8.0625 
Q 21.484375 6.890625 26.703125 6.890625 
Q 35.15625 6.890625 40.078125 11.328125 
Q 45.015625 15.765625 45.015625 23.390625 
Q 45.015625 31 40.078125 35.4375 
Q 35.15625 39.890625 26.703125 39.890625 
Q 22.75 39.890625 18.8125 39.015625 
Q 14.890625 38.140625 10.796875 36.28125 
z
" id="DejaVuSans-53"/>
      </defs>
      <g transform="translate(114.440625 400.598125)scale(0.12 -0.12)">
       <use xlink:href="#DejaVuSans-48"/>
       <use x="63.623047" xlink:href="#DejaVuSans-46"/>
       <use x="95.410156" xlink:href="#DejaVuSans-54"/>
       <use x="159.033203" xlink:href="#DejaVuSans-53"/>
      </g>
     </g>
    </g>
    <g id="xtick_3">
     <g id="line2d_3">
      <g>
       <use style="stroke:#000000;stroke-width:0.8;" x="183.6" xlink:href="#mda760e3fef" y="384.48"/>
      </g>
     </g>
     <g id="text_3">
      <!-- 0.70 -->
      <defs>
       <path d="M 8.203125 72.90625 
L 55.078125 72.90625 
L 55.078125 68.703125 
L 28.609375 0 
L 18.3125 0 
L 43.21875 64.59375 
L 8.203125 64.59375 
z
" id="DejaVuSans-55"/>
      </defs>
      <g transform="translate(170.240625 400.598125)scale(0.12 -0.12)">
       <use xlink:href="#DejaVuSans-48"/>
       <use x="63.623047" xlink:href="#DejaVuSans-46"/>
       <use x="95.410156" xlink:href="#DejaVuSans-55"/>
       <use x="159.033203" xlink:href="#DejaVuSans-48"/>
      </g>
     </g>
    </g>
    <g id="xtick_4">
     <g id="line2d_4">
      <g>
       <use style="stroke:#000000;stroke-width:0.8;" x="239.4" xlink:href="#mda760e3fef" y="384.48"/>
      </g>
     </g>
     <g id="text_4">
      <!-- 0.75 -->
      <g transform="translate(226.040625 400.598125)scale(0.12 -0.12)">
       <use xlink:href="#DejaVuSans-48"/>
       <use x="63.623047" xlink:href="#DejaVuSans-46"/>
       <use x="95.410156" xlink:href="#DejaVuSans-55"/>
       <use x="159.033203" xlink:href="#DejaVuSans-53"/>
      </g>
     </g>
    </g>
    <g id="xtick_5">
     <g id="line2d_5">
      <g>
       <use style="stroke:#000000;stroke-width:0.8;" x="295.2" xlink:href="#mda760e3fef" y="384.48"/>
      </g>
     </g>
     <g id="text_5">
      <!-- 0.80 -->
      <defs>
       <path d="M 31.78125 34.625 
Q 24.75 34.625 20.71875 30.859375 
Q 16.703125 27.09375 16.703125 20.515625 
Q 16.703125 13.921875 20.71875 10.15625 
Q 24.75 6.390625 31.78125 6.390625 
Q 38.8125 6.390625 42.859375 10.171875 
Q 46.921875 13.96875 46.921875 20.515625 
Q 46.921875 27.09375 42.890625 30.859375 
Q 38.875 34.625 31.78125 34.625 
z
M 21.921875 38.8125 
Q 15.578125 40.375 12.03125 44.71875 
Q 8.5 49.078125 8.5 55.328125 
Q 8.5 64.0625 14.71875 69.140625 
Q 20.953125 74.21875 31.78125 74.21875 
Q 42.671875 74.21875 48.875 69.140625 
Q 55.078125 64.0625 55.078125 55.328125 
Q 55.078125 49.078125 51.53125 44.71875 
Q 48 40.375 41.703125 38.8125 
Q 48.828125 37.15625 52.796875 32.3125 
Q 56.78125 27.484375 56.78125 20.515625 
Q 56.78125 9.90625 50.3125 4.234375 
Q 43.84375 -1.421875 31.78125 -1.421875 
Q 19.734375 -1.421875 13.25 4.234375 
Q 6.78125 9.90625 6.78125 20.515625 
Q 6.78125 27.484375 10.78125 32.3125 
Q 14.796875 37.15625 21.921875 38.8125 
z
M 18.3125 54.390625 
Q 18.3125 48.734375 21.84375 45.5625 
Q 25.390625 42.390625 31.78125 42.390625 
Q 38.140625 42.390625 41.71875 45.5625 
Q 45.3125 48.734375 45.3125 54.390625 
Q 45.3125 60.0625 41.71875 63.234375 
Q 38.140625 66.40625 31.78125 66.40625 
Q 25.390625 66.40625 21.84375 63.234375 
Q 18.3125 60.0625 18.3125 54.390625 
z
" id="DejaVuSans-56"/>
      </defs>
      <g transform="translate(281.840625 400.598125)scale(0.12 -0.12)">
       <use xlink:href="#DejaVuSans-48"/>
       <use x="63.623047" xlink:href="#DejaVuSans-46"/>
       <use x="95.410156" xlink:href="#DejaVuSans-56"/>
       <use x="159.033203" xlink:href="#DejaVuSans-48"/>
      </g>
     </g>
    </g>
    <g id="xtick_6">
     <g id="line2d_6">
      <g>
       <use style="stroke:#000000;stroke-width:0.8;" x="351" xlink:href="#mda760e3fef" y="384.48"/>
      </g>
     </g>
     <g id="text_6">
      <!-- 0.85 -->
      <g transform="translate(337.640625 400.598125)scale(0.12 -0.12)">
       <use xlink:href="#DejaVuSans-48"/>
       <use x="63.623047" xlink:href="#DejaVuSans-46"/>
       <use x="95.410156" xlink:href="#DejaVuSans-56"/>
       <use x="159.033203" xlink:href="#DejaVuSans-53"/>
      </g>
     </g>
    </g>
    <g id="xtick_7">
     <g id="line2d_7">
      <g>
       <use style="stroke:#000000;stroke-width:0.8;" x="406.8" xlink:href="#mda760e3fef" y="384.48"/>
      </g>
     </g>
     <g id="text_7">
      <!-- 0.90 -->
      <defs>
       <path d="M 10.984375 1.515625 
L 10.984375 10.5 
Q 14.703125 8.734375 18.5 7.8125 
Q 22.3125 6.890625 25.984375 6.890625 
Q 35.75 6.890625 40.890625 13.453125 
Q 46.046875 20.015625 46.78125 33.40625 
Q 43.953125 29.203125 39.59375 26.953125 
Q 35.25 24.703125 29.984375 24.703125 
Q 19.046875 24.703125 12.671875 31.3125 
Q 6.296875 37.9375 6.296875 49.421875 
Q 6.296875 60.640625 12.9375 67.421875 
Q 19.578125 74.21875 30.609375 74.21875 
Q 43.265625 74.21875 49.921875 64.515625 
Q 56.59375 54.828125 56.59375 36.375 
Q 56.59375 19.140625 48.40625 8.859375 
Q 40.234375 -1.421875 26.421875 -1.421875 
Q 22.703125 -1.421875 18.890625 -0.6875 
Q 15.09375 0.046875 10.984375 1.515625 
z
M 30.609375 32.421875 
Q 37.25 32.421875 41.125 36.953125 
Q 45.015625 41.5 45.015625 49.421875 
Q 45.015625 57.28125 41.125 61.84375 
Q 37.25 66.40625 30.609375 66.40625 
Q 23.96875 66.40625 20.09375 61.84375 
Q 16.21875 57.28125 16.21875 49.421875 
Q 16.21875 41.5 20.09375 36.953125 
Q 23.96875 32.421875 30.609375 32.421875 
z
" id="DejaVuSans-57"/>
      </defs>
      <g transform="translate(393.440625 400.598125)scale(0.12 -0.12)">
       <use xlink:href="#DejaVuSans-48"/>
       <use x="63.623047" xlink:href="#DejaVuSans-46"/>
       <use x="95.410156" xlink:href="#DejaVuSans-57"/>
       <use x="159.033203" xlink:href="#DejaVuSans-48"/>
      </g>
     </g>
    </g>
    <g id="xtick_8">
     <g id="line2d_8">
      <g>
       <use style="stroke:#000000;stroke-width:0.8;" x="462.6" xlink:href="#mda760e3fef" y="384.48"/>
      </g>
     </g>
     <g id="text_8">
      <!-- 0.95 -->
      <g transform="translate(449.240625 400.598125)scale(0.12 -0.12)">
       <use xlink:href="#DejaVuSans-48"/>
       <use x="63.623047" xlink:href="#DejaVuSans-46"/>
       <use x="95.410156" xlink:href="#DejaVuSans-57"/>
       <use x="159.033203" xlink:href="#DejaVuSans-53"/>
      </g>
     </g>
    </g>
    <g id="xtick_9">
     <g id="line2d_9">
      <g>
       <use style="stroke:#000000;stroke-width:0.8;" x="518.4" xlink:href="#mda760e3fef" y="384.48"/>
      </g>
     </g>
     <g id="text_9">
      <!-- 1.00 -->
      <defs>
       <path d="M 12.40625 8.296875 
L 28.515625 8.296875 
L 28.515625 63.921875 
L 10.984375 60.40625 
L 10.984375 69.390625 
L 28.421875 72.90625 
L 38.28125 72.90625 
L 38.28125 8.296875 
L 54.390625 8.296875 
L 54.390625 0 
L 12.40625 0 
z
" id="DejaVuSans-49"/>
      </defs>
      <g transform="translate(505.040625 400.598125)scale(0.12 -0.12)">
       <use xlink:href="#DejaVuSans-49"/>
       <use x="63.623047" xlink:href="#DejaVuSans-46"/>
       <use x="95.410156" xlink:href="#DejaVuSans-48"/>
       <use x="159.033203" xlink:href="#DejaVuSans-48"/>
      </g>
     </g>
    </g>
    <g id="text_10">
     <!-- Sub sample -->
     <defs>
      <path d="M 53.515625 70.515625 
L 53.515625 60.890625 
Q 47.90625 63.578125 42.921875 64.890625 
Q 37.9375 66.21875 33.296875 66.21875 
Q 25.25 66.21875 20.875 63.09375 
Q 16.5 59.96875 16.5 54.203125 
Q 16.5 49.359375 19.40625 46.890625 
Q 22.3125 44.4375 30.421875 42.921875 
L 36.375 41.703125 
Q 47.40625 39.59375 52.65625 34.296875 
Q 57.90625 29 57.90625 20.125 
Q 57.90625 9.515625 50.796875 4.046875 
Q 43.703125 -1.421875 29.984375 -1.421875 
Q 24.8125 -1.421875 18.96875 -0.25 
Q 13.140625 0.921875 6.890625 3.21875 
L 6.890625 13.375 
Q 12.890625 10.015625 18.65625 8.296875 
Q 24.421875 6.59375 29.984375 6.59375 
Q 38.421875 6.59375 43.015625 9.90625 
Q 47.609375 13.234375 47.609375 19.390625 
Q 47.609375 24.75 44.3125 27.78125 
Q 41.015625 30.8125 33.5 32.328125 
L 27.484375 33.5 
Q 16.453125 35.6875 11.515625 40.375 
Q 6.59375 45.0625 6.59375 53.421875 
Q 6.59375 63.09375 13.40625 68.65625 
Q 20.21875 74.21875 32.171875 74.21875 
Q 37.3125 74.21875 42.625 73.28125 
Q 47.953125 72.359375 53.515625 70.515625 
z
" id="DejaVuSans-83"/>
      <path d="M 8.5 21.578125 
L 8.5 54.6875 
L 17.484375 54.6875 
L 17.484375 21.921875 
Q 17.484375 14.15625 20.5 10.265625 
Q 23.53125 6.390625 29.59375 6.390625 
Q 36.859375 6.390625 41.078125 11.03125 
Q 45.3125 15.671875 45.3125 23.6875 
L 45.3125 54.6875 
L 54.296875 54.6875 
L 54.296875 0 
L 45.3125 0 
L 45.3125 8.40625 
Q 42.046875 3.421875 37.71875 1 
Q 33.40625 -1.421875 27.6875 -1.421875 
Q 18.265625 -1.421875 13.375 4.4375 
Q 8.5 10.296875 8.5 21.578125 
z
M 31.109375 56 
z
" id="DejaVuSans-117"/>
      <path d="M 48.6875 27.296875 
Q 48.6875 37.203125 44.609375 42.84375 
Q 40.53125 48.484375 33.40625 48.484375 
Q 26.265625 48.484375 22.1875 42.84375 
Q 18.109375 37.203125 18.109375 27.296875 
Q 18.109375 17.390625 22.1875 11.75 
Q 26.265625 6.109375 33.40625 6.109375 
Q 40.53125 6.109375 44.609375 11.75 
Q 48.6875 17.390625 48.6875 27.296875 
z
M 18.109375 46.390625 
Q 20.953125 51.265625 25.265625 53.625 
Q 29.59375 56 35.59375 56 
Q 45.5625 56 51.78125 48.09375 
Q 58.015625 40.1875 58.015625 27.296875 
Q 58.015625 14.40625 51.78125 6.484375 
Q 45.5625 -1.421875 35.59375 -1.421875 
Q 29.59375 -1.421875 25.265625 0.953125 
Q 20.953125 3.328125 18.109375 8.203125 
L 18.109375 0 
L 9.078125 0 
L 9.078125 75.984375 
L 18.109375 75.984375 
z
" id="DejaVuSans-98"/>
      <path id="DejaVuSans-32"/>
      <path d="M 44.28125 53.078125 
L 44.28125 44.578125 
Q 40.484375 46.53125 36.375 47.5 
Q 32.28125 48.484375 27.875 48.484375 
Q 21.1875 48.484375 17.84375 46.4375 
Q 14.5 44.390625 14.5 40.28125 
Q 14.5 37.15625 16.890625 35.375 
Q 19.28125 33.59375 26.515625 31.984375 
L 29.59375 31.296875 
Q 39.15625 29.25 43.1875 25.515625 
Q 47.21875 21.78125 47.21875 15.09375 
Q 47.21875 7.46875 41.1875 3.015625 
Q 35.15625 -1.421875 24.609375 -1.421875 
Q 20.21875 -1.421875 15.453125 -0.5625 
Q 10.6875 0.296875 5.421875 2 
L 5.421875 11.28125 
Q 10.40625 8.6875 15.234375 7.390625 
Q 20.0625 6.109375 24.8125 6.109375 
Q 31.15625 6.109375 34.5625 8.28125 
Q 37.984375 10.453125 37.984375 14.40625 
Q 37.984375 18.0625 35.515625 20.015625 
Q 33.0625 21.96875 24.703125 23.78125 
L 21.578125 24.515625 
Q 13.234375 26.265625 9.515625 29.90625 
Q 5.8125 33.546875 5.8125 39.890625 
Q 5.8125 47.609375 11.28125 51.796875 
Q 16.75 56 26.8125 56 
Q 31.78125 56 36.171875 55.265625 
Q 40.578125 54.546875 44.28125 53.078125 
z
" id="DejaVuSans-115"/>
      <path d="M 34.28125 27.484375 
Q 23.390625 27.484375 19.1875 25 
Q 14.984375 22.515625 14.984375 16.5 
Q 14.984375 11.71875 18.140625 8.90625 
Q 21.296875 6.109375 26.703125 6.109375 
Q 34.1875 6.109375 38.703125 11.40625 
Q 43.21875 16.703125 43.21875 25.484375 
L 43.21875 27.484375 
z
M 52.203125 31.203125 
L 52.203125 0 
L 43.21875 0 
L 43.21875 8.296875 
Q 40.140625 3.328125 35.546875 0.953125 
Q 30.953125 -1.421875 24.3125 -1.421875 
Q 15.921875 -1.421875 10.953125 3.296875 
Q 6 8.015625 6 15.921875 
Q 6 25.140625 12.171875 29.828125 
Q 18.359375 34.515625 30.609375 34.515625 
L 43.21875 34.515625 
L 43.21875 35.40625 
Q 43.21875 41.609375 39.140625 45 
Q 35.0625 48.390625 27.6875 48.390625 
Q 23 48.390625 18.546875 47.265625 
Q 14.109375 46.140625 10.015625 43.890625 
L 10.015625 52.203125 
Q 14.9375 54.109375 19.578125 55.046875 
Q 24.21875 56 28.609375 56 
Q 40.484375 56 46.34375 49.84375 
Q 52.203125 43.703125 52.203125 31.203125 
z
" id="DejaVuSans-97"/>
      <path d="M 52 44.1875 
Q 55.375 50.25 60.0625 53.125 
Q 64.75 56 71.09375 56 
Q 79.640625 56 84.28125 50.015625 
Q 88.921875 44.046875 88.921875 33.015625 
L 88.921875 0 
L 79.890625 0 
L 79.890625 32.71875 
Q 79.890625 40.578125 77.09375 44.375 
Q 74.3125 48.1875 68.609375 48.1875 
Q 61.625 48.1875 57.5625 43.546875 
Q 53.515625 38.921875 53.515625 30.90625 
L 53.515625 0 
L 44.484375 0 
L 44.484375 32.71875 
Q 44.484375 40.625 41.703125 44.40625 
Q 38.921875 48.1875 33.109375 48.1875 
Q 26.21875 48.1875 22.15625 43.53125 
Q 18.109375 38.875 18.109375 30.90625 
L 18.109375 0 
L 9.078125 0 
L 9.078125 54.6875 
L 18.109375 54.6875 
L 18.109375 46.1875 
Q 21.1875 51.21875 25.484375 53.609375 
Q 29.78125 56 35.6875 56 
Q 41.65625 56 45.828125 52.96875 
Q 50 49.953125 52 44.1875 
z
" id="DejaVuSans-109"/>
      <path d="M 18.109375 8.203125 
L 18.109375 -20.796875 
L 9.078125 -20.796875 
L 9.078125 54.6875 
L 18.109375 54.6875 
L 18.109375 46.390625 
Q 20.953125 51.265625 25.265625 53.625 
Q 29.59375 56 35.59375 56 
Q 45.5625 56 51.78125 48.09375 
Q 58.015625 40.1875 58.015625 27.296875 
Q 58.015625 14.40625 51.78125 6.484375 
Q 45.5625 -1.421875 35.59375 -1.421875 
Q 29.59375 -1.421875 25.265625 0.953125 
Q 20.953125 3.328125 18.109375 8.203125 
z
M 48.6875 27.296875 
Q 48.6875 37.203125 44.609375 42.84375 
Q 40.53125 48.484375 33.40625 48.484375 
Q 26.265625 48.484375 22.1875 42.84375 
Q 18.109375 37.203125 18.109375 27.296875 
Q 18.109375 17.390625 22.1875 11.75 
Q 26.265625 6.109375 33.40625 6.109375 
Q 40.53125 6.109375 44.609375 11.75 
Q 48.6875 17.390625 48.6875 27.296875 
z
" id="DejaVuSans-112"/>
      <path d="M 9.421875 75.984375 
L 18.40625 75.984375 
L 18.40625 0 
L 9.421875 0 
z
" id="DejaVuSans-108"/>
      <path d="M 56.203125 29.59375 
L 56.203125 25.203125 
L 14.890625 25.203125 
Q 15.484375 15.921875 20.484375 11.0625 
Q 25.484375 6.203125 34.421875 6.203125 
Q 39.59375 6.203125 44.453125 7.46875 
Q 49.3125 8.734375 54.109375 11.28125 
L 54.109375 2.78125 
Q 49.265625 0.734375 44.1875 -0.34375 
Q 39.109375 -1.421875 33.890625 -1.421875 
Q 20.796875 -1.421875 13.15625 6.1875 
Q 5.515625 13.8125 5.515625 26.8125 
Q 5.515625 40.234375 12.765625 48.109375 
Q 20.015625 56 32.328125 56 
Q 43.359375 56 49.78125 48.890625 
Q 56.203125 41.796875 56.203125 29.59375 
z
M 47.21875 32.234375 
Q 47.125 39.59375 43.09375 43.984375 
Q 39.0625 48.390625 32.421875 48.390625 
Q 24.90625 48.390625 20.390625 44.140625 
Q 15.875 39.890625 15.1875 32.171875 
z
" id="DejaVuSans-101"/>
     </defs>
     <g transform="translate(254.200781 417.731562)scale(0.14 -0.14)">
      <use xlink:href="#DejaVuSans-83"/>
      <use x="63.476562" xlink:href="#DejaVuSans-117"/>
      <use x="126.855469" xlink:href="#DejaVuSans-98"/>
      <use x="190.332031" xlink:href="#DejaVuSans-32"/>
      <use x="222.119141" xlink:href="#DejaVuSans-115"/>
      <use x="274.21875" xlink:href="#DejaVuSans-97"/>
      <use x="335.498047" xlink:href="#DejaVuSans-109"/>
      <use x="432.910156" xlink:href="#DejaVuSans-112"/>
      <use x="496.386719" xlink:href="#DejaVuSans-108"/>
      <use x="524.169922" xlink:href="#DejaVuSans-101"/>
     </g>
    </g>
   </g>
   <g id="matplotlib.axis_2">
    <g id="ytick_1">
     <g id="line2d_10">
      <defs>
       <path d="M 0 0 
L -3.5 0 
" id="m84b70b5b77" style="stroke:#000000;stroke-width:0.8;"/>
      </defs>
      <g>
       <use style="stroke:#000000;stroke-width:0.8;" x="72" xlink:href="#m84b70b5b77" y="384.48"/>
      </g>
     </g>
     <g id="text_11">
      <!-- 0.60 -->
      <g transform="translate(38.28125 389.039062)scale(0.12 -0.12)">
       <use xlink:href="#DejaVuSans-48"/>
       <use x="63.623047" xlink:href="#DejaVuSans-46"/>
       <use x="95.410156" xlink:href="#DejaVuSans-54"/>
       <use x="159.033203" xlink:href="#DejaVuSans-48"/>
      </g>
     </g>
    </g>
    <g id="ytick_2">
     <g id="line2d_11">
      <g>
       <use style="stroke:#000000;stroke-width:0.8;" x="72" xlink:href="#m84b70b5b77" y="342.9"/>
      </g>
     </g>
     <g id="text_12">
      <!-- 0.65 -->
      <g transform="translate(38.28125 347.459062)scale(0.12 -0.12)">
       <use xlink:href="#DejaVuSans-48"/>
       <use x="63.623047" xlink:href="#DejaVuSans-46"/>
       <use x="95.410156" xlink:href="#DejaVuSans-54"/>
       <use x="159.033203" xlink:href="#DejaVuSans-53"/>
      </g>
     </g>
    </g>
    <g id="ytick_3">
     <g id="line2d_12">
      <g>
       <use style="stroke:#000000;stroke-width:0.8;" x="72" xlink:href="#m84b70b5b77" y="301.32"/>
      </g>
     </g>
     <g id="text_13">
      <!-- 0.70 -->
      <g transform="translate(38.28125 305.879062)scale(0.12 -0.12)">
       <use xlink:href="#DejaVuSans-48"/>
       <use x="63.623047" xlink:href="#DejaVuSans-46"/>
       <use x="95.410156" xlink:href="#DejaVuSans-55"/>
       <use x="159.033203" xlink:href="#DejaVuSans-48"/>
      </g>
     </g>
    </g>
    <g id="ytick_4">
     <g id="line2d_13">
      <g>
       <use style="stroke:#000000;stroke-width:0.8;" x="72" xlink:href="#m84b70b5b77" y="259.74"/>
      </g>
     </g>
     <g id="text_14">
      <!-- 0.75 -->
      <g transform="translate(38.28125 264.299062)scale(0.12 -0.12)">
       <use xlink:href="#DejaVuSans-48"/>
       <use x="63.623047" xlink:href="#DejaVuSans-46"/>
       <use x="95.410156" xlink:href="#DejaVuSans-55"/>
       <use x="159.033203" xlink:href="#DejaVuSans-53"/>
      </g>
     </g>
    </g>
    <g id="ytick_5">
     <g id="line2d_14">
      <g>
       <use style="stroke:#000000;stroke-width:0.8;" x="72" xlink:href="#m84b70b5b77" y="218.16"/>
      </g>
     </g>
     <g id="text_15">
      <!-- 0.80 -->
      <g transform="translate(38.28125 222.719062)scale(0.12 -0.12)">
       <use xlink:href="#DejaVuSans-48"/>
       <use x="63.623047" xlink:href="#DejaVuSans-46"/>
       <use x="95.410156" xlink:href="#DejaVuSans-56"/>
       <use x="159.033203" xlink:href="#DejaVuSans-48"/>
      </g>
     </g>
    </g>
    <g id="ytick_6">
     <g id="line2d_15">
      <g>
       <use style="stroke:#000000;stroke-width:0.8;" x="72" xlink:href="#m84b70b5b77" y="176.58"/>
      </g>
     </g>
     <g id="text_16">
      <!-- 0.85 -->
      <g transform="translate(38.28125 181.139062)scale(0.12 -0.12)">
       <use xlink:href="#DejaVuSans-48"/>
       <use x="63.623047" xlink:href="#DejaVuSans-46"/>
       <use x="95.410156" xlink:href="#DejaVuSans-56"/>
       <use x="159.033203" xlink:href="#DejaVuSans-53"/>
      </g>
     </g>
    </g>
    <g id="ytick_7">
     <g id="line2d_16">
      <g>
       <use style="stroke:#000000;stroke-width:0.8;" x="72" xlink:href="#m84b70b5b77" y="135"/>
      </g>
     </g>
     <g id="text_17">
      <!-- 0.90 -->
      <g transform="translate(38.28125 139.559062)scale(0.12 -0.12)">
       <use xlink:href="#DejaVuSans-48"/>
       <use x="63.623047" xlink:href="#DejaVuSans-46"/>
       <use x="95.410156" xlink:href="#DejaVuSans-57"/>
       <use x="159.033203" xlink:href="#DejaVuSans-48"/>
      </g>
     </g>
    </g>
    <g id="ytick_8">
     <g id="line2d_17">
      <g>
       <use style="stroke:#000000;stroke-width:0.8;" x="72" xlink:href="#m84b70b5b77" y="93.42"/>
      </g>
     </g>
     <g id="text_18">
      <!-- 0.95 -->
      <g transform="translate(38.28125 97.979062)scale(0.12 -0.12)">
       <use xlink:href="#DejaVuSans-48"/>
       <use x="63.623047" xlink:href="#DejaVuSans-46"/>
       <use x="95.410156" xlink:href="#DejaVuSans-57"/>
       <use x="159.033203" xlink:href="#DejaVuSans-53"/>
      </g>
     </g>
    </g>
    <g id="ytick_9">
     <g id="line2d_18">
      <g>
       <use style="stroke:#000000;stroke-width:0.8;" x="72" xlink:href="#m84b70b5b77" y="51.84"/>
      </g>
     </g>
     <g id="text_19">
      <!-- 1.00 -->
      <g transform="translate(38.28125 56.399062)scale(0.12 -0.12)">
       <use xlink:href="#DejaVuSans-49"/>
       <use x="63.623047" xlink:href="#DejaVuSans-46"/>
       <use x="95.410156" xlink:href="#DejaVuSans-48"/>
       <use x="159.033203" xlink:href="#DejaVuSans-48"/>
      </g>
     </g>
    </g>
    <g id="text_20">
     <!-- Col sample by tree -->
     <defs>
      <path d="M 64.40625 67.28125 
L 64.40625 56.890625 
Q 59.421875 61.53125 53.78125 63.8125 
Q 48.140625 66.109375 41.796875 66.109375 
Q 29.296875 66.109375 22.65625 58.46875 
Q 16.015625 50.828125 16.015625 36.375 
Q 16.015625 21.96875 22.65625 14.328125 
Q 29.296875 6.6875 41.796875 6.6875 
Q 48.140625 6.6875 53.78125 8.984375 
Q 59.421875 11.28125 64.40625 15.921875 
L 64.40625 5.609375 
Q 59.234375 2.09375 53.4375 0.328125 
Q 47.65625 -1.421875 41.21875 -1.421875 
Q 24.65625 -1.421875 15.125 8.703125 
Q 5.609375 18.84375 5.609375 36.375 
Q 5.609375 53.953125 15.125 64.078125 
Q 24.65625 74.21875 41.21875 74.21875 
Q 47.75 74.21875 53.53125 72.484375 
Q 59.328125 70.75 64.40625 67.28125 
z
" id="DejaVuSans-67"/>
      <path d="M 30.609375 48.390625 
Q 23.390625 48.390625 19.1875 42.75 
Q 14.984375 37.109375 14.984375 27.296875 
Q 14.984375 17.484375 19.15625 11.84375 
Q 23.34375 6.203125 30.609375 6.203125 
Q 37.796875 6.203125 41.984375 11.859375 
Q 46.1875 17.53125 46.1875 27.296875 
Q 46.1875 37.015625 41.984375 42.703125 
Q 37.796875 48.390625 30.609375 48.390625 
z
M 30.609375 56 
Q 42.328125 56 49.015625 48.375 
Q 55.71875 40.765625 55.71875 27.296875 
Q 55.71875 13.875 49.015625 6.21875 
Q 42.328125 -1.421875 30.609375 -1.421875 
Q 18.84375 -1.421875 12.171875 6.21875 
Q 5.515625 13.875 5.515625 27.296875 
Q 5.515625 40.765625 12.171875 48.375 
Q 18.84375 56 30.609375 56 
z
" id="DejaVuSans-111"/>
      <path d="M 32.171875 -5.078125 
Q 28.375 -14.84375 24.75 -17.8125 
Q 21.140625 -20.796875 15.09375 -20.796875 
L 7.90625 -20.796875 
L 7.90625 -13.28125 
L 13.1875 -13.28125 
Q 16.890625 -13.28125 18.9375 -11.515625 
Q 21 -9.765625 23.484375 -3.21875 
L 25.09375 0.875 
L 2.984375 54.6875 
L 12.5 54.6875 
L 29.59375 11.921875 
L 46.6875 54.6875 
L 56.203125 54.6875 
z
" id="DejaVuSans-121"/>
      <path d="M 18.3125 70.21875 
L 18.3125 54.6875 
L 36.8125 54.6875 
L 36.8125 47.703125 
L 18.3125 47.703125 
L 18.3125 18.015625 
Q 18.3125 11.328125 20.140625 9.421875 
Q 21.96875 7.515625 27.59375 7.515625 
L 36.8125 7.515625 
L 36.8125 0 
L 27.59375 0 
Q 17.1875 0 13.234375 3.875 
Q 9.28125 7.765625 9.28125 18.015625 
L 9.28125 47.703125 
L 2.6875 47.703125 
L 2.6875 54.6875 
L 9.28125 54.6875 
L 9.28125 70.21875 
z
" id="DejaVuSans-116"/>
      <path d="M 41.109375 46.296875 
Q 39.59375 47.171875 37.8125 47.578125 
Q 36.03125 48 33.890625 48 
Q 26.265625 48 22.1875 43.046875 
Q 18.109375 38.09375 18.109375 28.8125 
L 18.109375 0 
L 9.078125 0 
L 9.078125 54.6875 
L 18.109375 54.6875 
L 18.109375 46.1875 
Q 20.953125 51.171875 25.484375 53.578125 
Q 30.03125 56 36.53125 56 
Q 37.453125 56 38.578125 55.875 
Q 39.703125 55.765625 41.0625 55.515625 
z
" id="DejaVuSans-114"/>
     </defs>
     <g transform="translate(31.369687 284.221406)rotate(-90)scale(0.14 -0.14)">
      <use xlink:href="#DejaVuSans-67"/>
      <use x="69.824219" xlink:href="#DejaVuSans-111"/>
      <use x="131.005859" xlink:href="#DejaVuSans-108"/>
      <use x="158.789062" xlink:href="#DejaVuSans-32"/>
      <use x="190.576172" xlink:href="#DejaVuSans-115"/>
      <use x="242.675781" xlink:href="#DejaVuSans-97"/>
      <use x="303.955078" xlink:href="#DejaVuSans-109"/>
      <use x="401.367188" xlink:href="#DejaVuSans-112"/>
      <use x="464.84375" xlink:href="#DejaVuSans-108"/>
      <use x="492.626953" xlink:href="#DejaVuSans-101"/>
      <use x="554.150391" xlink:href="#DejaVuSans-32"/>
      <use x="585.9375" xlink:href="#DejaVuSans-98"/>
      <use x="649.414062" xlink:href="#DejaVuSans-121"/>
      <use x="708.59375" xlink:href="#DejaVuSans-32"/>
      <use x="740.380859" xlink:href="#DejaVuSans-116"/>
      <use x="779.589844" xlink:href="#DejaVuSans-114"/>
      <use x="820.671875" xlink:href="#DejaVuSans-101"/>
      <use x="882.195312" xlink:href="#DejaVuSans-101"/>
     </g>
    </g>
   </g>
   <g id="patch_3">
    <path d="M 72 384.48 
L 72 51.84 
" style="fill:none;stroke:#000000;stroke-linecap:square;stroke-linejoin:miter;stroke-width:0.8;"/>
   </g>
   <g id="patch_4">
    <path d="M 518.4 384.48 
L 518.4 51.84 
" style="fill:none;stroke:#000000;stroke-linecap:square;stroke-linejoin:miter;stroke-width:0.8;"/>
   </g>
   <g id="patch_5">
    <path d="M 72 384.48 
L 518.4 384.48 
" style="fill:none;stroke:#000000;stroke-linecap:square;stroke-linejoin:miter;stroke-width:0.8;"/>
   </g>
   <g id="patch_6">
    <path d="M 72 51.84 
L 518.4 51.84 
" style="fill:none;stroke:#000000;stroke-linecap:square;stroke-linejoin:miter;stroke-width:0.8;"/>
   </g>
  </g>
 </g>
 <defs>
  <clipPath id="peabef313d6">
   <rect height="332.64" width="446.4" x="72" y="51.84"/>
  </clipPath>
 </defs>
</svg>
