<?xml version="1.0" encoding="utf-8"?>
<svg xmlns="http://www.w3.org/2000/svg" xmlns:xlink="http://www.w3.org/1999/xlink" width="600" height="370" viewBox="0 0 2400 1480">
<defs>
  <clipPath id="clip550">
    <rect x="0" y="0" width="2400" height="1480"/>
  </clipPath>
</defs>
<path clip-path="url(#clip550)" d="M0 1480 L2400 1480 L2400 0 L0 0  Z" fill="#ffffff" fill-rule="evenodd" fill-opacity="1"/>
<defs>
  <clipPath id="clip551">
    <rect x="480" y="0" width="1681" height="1480"/>
  </clipPath>
</defs>
<path clip-path="url(#clip550)" d="M282.555 1290.56 L2352.76 1290.56 L2352.76 47.2441 L282.555 47.2441  Z" fill="#ffffff" fill-rule="evenodd" fill-opacity="1"/>
<defs>
  <clipPath id="clip552">
    <rect x="282" y="47" width="2071" height="1244"/>
  </clipPath>
</defs>
<polyline clip-path="url(#clip552)" style="stroke:#000000; stroke-linecap:round; stroke-linejoin:round; stroke-width:2; stroke-opacity:0.1; fill:none" points="301.288,1290.56 301.288,47.2441 "/>
<polyline clip-path="url(#clip552)" style="stroke:#000000; stroke-linecap:round; stroke-linejoin:round; stroke-width:2; stroke-opacity:0.1; fill:none" points="699.864,1290.56 699.864,47.2441 "/>
<polyline clip-path="url(#clip552)" style="stroke:#000000; stroke-linecap:round; stroke-linejoin:round; stroke-width:2; stroke-opacity:0.1; fill:none" points="1098.44,1290.56 1098.44,47.2441 "/>
<polyline clip-path="url(#clip552)" style="stroke:#000000; stroke-linecap:round; stroke-linejoin:round; stroke-width:2; stroke-opacity:0.1; fill:none" points="1497.01,1290.56 1497.01,47.2441 "/>
<polyline clip-path="url(#clip552)" style="stroke:#000000; stroke-linecap:round; stroke-linejoin:round; stroke-width:2; stroke-opacity:0.1; fill:none" points="1895.59,1290.56 1895.59,47.2441 "/>
<polyline clip-path="url(#clip552)" style="stroke:#000000; stroke-linecap:round; stroke-linejoin:round; stroke-width:2; stroke-opacity:0.1; fill:none" points="2294.17,1290.56 2294.17,47.2441 "/>
<polyline clip-path="url(#clip550)" style="stroke:#000000; stroke-linecap:round; stroke-linejoin:round; stroke-width:4; stroke-opacity:1; fill:none" points="282.555,1290.56 2352.76,1290.56 "/>
<polyline clip-path="url(#clip550)" style="stroke:#000000; stroke-linecap:round; stroke-linejoin:round; stroke-width:4; stroke-opacity:1; fill:none" points="301.288,1290.56 301.288,1271.66 "/>
<polyline clip-path="url(#clip550)" style="stroke:#000000; stroke-linecap:round; stroke-linejoin:round; stroke-width:4; stroke-opacity:1; fill:none" points="699.864,1290.56 699.864,1271.66 "/>
<polyline clip-path="url(#clip550)" style="stroke:#000000; stroke-linecap:round; stroke-linejoin:round; stroke-width:4; stroke-opacity:1; fill:none" points="1098.44,1290.56 1098.44,1271.66 "/>
<polyline clip-path="url(#clip550)" style="stroke:#000000; stroke-linecap:round; stroke-linejoin:round; stroke-width:4; stroke-opacity:1; fill:none" points="1497.01,1290.56 1497.01,1271.66 "/>
<polyline clip-path="url(#clip550)" style="stroke:#000000; stroke-linecap:round; stroke-linejoin:round; stroke-width:4; stroke-opacity:1; fill:none" points="1895.59,1290.56 1895.59,1271.66 "/>
<polyline clip-path="url(#clip550)" style="stroke:#000000; stroke-linecap:round; stroke-linejoin:round; stroke-width:4; stroke-opacity:1; fill:none" points="2294.17,1290.56 2294.17,1271.66 "/>
<path clip-path="url(#clip550)" d="M301.288 1324.4 Q296.774 1324.4 294.488 1328.86 Q292.231 1333.29 292.231 1342.2 Q292.231 1351.08 294.488 1355.54 Q296.774 1359.97 301.288 1359.97 Q305.831 1359.97 308.088 1355.54 Q310.374 1351.08 310.374 1342.2 Q310.374 1333.29 308.088 1328.86 Q305.831 1324.4 301.288 1324.4 M301.288 1319.77 Q308.551 1319.77 312.37 1325.53 Q316.219 1331.26 316.219 1342.2 Q316.219 1353.11 312.37 1358.87 Q308.551 1364.59 301.288 1364.59 Q294.025 1364.59 290.177 1358.87 Q286.358 1353.11 286.358 1342.2 Q286.358 1331.26 290.177 1325.53 Q294.025 1319.77 301.288 1319.77 Z" fill="#000000" fill-rule="nonzero" fill-opacity="1" /><path clip-path="url(#clip550)" d="M668.223 1358.84 L677.772 1358.84 L677.772 1325.88 L667.384 1327.96 L667.384 1322.64 L677.714 1320.56 L683.559 1320.56 L683.559 1358.84 L693.107 1358.84 L693.107 1363.76 L668.223 1363.76 L668.223 1358.84 Z" fill="#000000" fill-rule="nonzero" fill-opacity="1" /><path clip-path="url(#clip550)" d="M717.413 1324.4 Q712.899 1324.4 710.613 1328.86 Q708.356 1333.29 708.356 1342.2 Q708.356 1351.08 710.613 1355.54 Q712.899 1359.97 717.413 1359.97 Q721.955 1359.97 724.212 1355.54 Q726.498 1351.08 726.498 1342.2 Q726.498 1333.29 724.212 1328.86 Q721.955 1324.4 717.413 1324.4 M717.413 1319.77 Q724.675 1319.77 728.495 1325.53 Q732.343 1331.26 732.343 1342.2 Q732.343 1353.11 728.495 1358.87 Q724.675 1364.59 717.413 1364.59 Q710.15 1364.59 706.302 1358.87 Q702.482 1353.11 702.482 1342.2 Q702.482 1331.26 706.302 1325.53 Q710.15 1319.77 717.413 1319.77 Z" fill="#000000" fill-rule="nonzero" fill-opacity="1" /><path clip-path="url(#clip550)" d="M1071.91 1358.84 L1092.3 1358.84 L1092.3 1363.76 L1064.87 1363.76 L1064.87 1358.84 Q1068.2 1355.39 1073.93 1349.61 Q1079.69 1343.79 1081.16 1342.11 Q1083.97 1338.96 1085.07 1336.79 Q1086.2 1334.59 1086.2 1332.48 Q1086.2 1329.03 1083.77 1326.86 Q1081.37 1324.69 1077.49 1324.69 Q1074.74 1324.69 1071.67 1325.65 Q1068.64 1326.6 1065.16 1328.54 L1065.16 1322.64 Q1068.69 1321.22 1071.76 1320.5 Q1074.83 1319.77 1077.37 1319.77 Q1084.09 1319.77 1088.08 1323.13 Q1092.07 1326.49 1092.07 1332.1 Q1092.07 1334.76 1091.06 1337.16 Q1090.08 1339.54 1087.44 1342.78 Q1086.72 1343.62 1082.84 1347.64 Q1078.97 1351.63 1071.91 1358.84 Z" fill="#000000" fill-rule="nonzero" fill-opacity="1" /><path clip-path="url(#clip550)" d="M1117.07 1324.4 Q1112.56 1324.4 1110.27 1328.86 Q1108.02 1333.29 1108.02 1342.2 Q1108.02 1351.08 1110.27 1355.54 Q1112.56 1359.97 1117.07 1359.97 Q1121.62 1359.97 1123.87 1355.54 Q1126.16 1351.08 1126.16 1342.2 Q1126.16 1333.29 1123.87 1328.86 Q1121.62 1324.4 1117.07 1324.4 M1117.07 1319.77 Q1124.34 1319.77 1128.16 1325.53 Q1132 1331.26 1132 1342.2 Q1132 1353.11 1128.16 1358.87 Q1124.34 1364.59 1117.07 1364.59 Q1109.81 1364.59 1105.96 1358.87 Q1102.14 1353.11 1102.14 1342.2 Q1102.14 1331.26 1105.96 1325.53 Q1109.81 1319.77 1117.07 1319.77 Z" fill="#000000" fill-rule="nonzero" fill-opacity="1" /><path clip-path="url(#clip550)" d="M1483.07 1340.46 Q1487.26 1341.36 1489.61 1344.2 Q1491.98 1347.03 1491.98 1351.2 Q1491.98 1357.59 1487.58 1361.09 Q1483.18 1364.59 1475.08 1364.59 Q1472.36 1364.59 1469.47 1364.05 Q1466.6 1363.52 1463.54 1362.45 L1463.54 1356.81 Q1465.97 1358.23 1468.86 1358.95 Q1471.75 1359.68 1474.91 1359.68 Q1480.41 1359.68 1483.27 1357.51 Q1486.16 1355.34 1486.16 1351.2 Q1486.16 1347.38 1483.47 1345.24 Q1480.81 1343.07 1476.04 1343.07 L1471 1343.07 L1471 1338.26 L1476.27 1338.26 Q1480.58 1338.26 1482.87 1336.56 Q1485.15 1334.82 1485.15 1331.58 Q1485.15 1328.25 1482.78 1326.49 Q1480.43 1324.69 1476.04 1324.69 Q1473.63 1324.69 1470.89 1325.21 Q1468.14 1325.74 1464.84 1326.83 L1464.84 1321.63 Q1468.17 1320.7 1471.06 1320.24 Q1473.98 1319.77 1476.56 1319.77 Q1483.21 1319.77 1487.09 1322.81 Q1490.97 1325.82 1490.97 1330.97 Q1490.97 1334.56 1488.91 1337.05 Q1486.86 1339.51 1483.07 1340.46 Z" fill="#000000" fill-rule="nonzero" fill-opacity="1" /><path clip-path="url(#clip550)" d="M1515.56 1324.4 Q1511.05 1324.4 1508.76 1328.86 Q1506.51 1333.29 1506.51 1342.2 Q1506.51 1351.08 1508.76 1355.54 Q1511.05 1359.97 1515.56 1359.97 Q1520.1 1359.97 1522.36 1355.54 Q1524.65 1351.08 1524.65 1342.2 Q1524.65 1333.29 1522.36 1328.86 Q1520.1 1324.4 1515.56 1324.4 M1515.56 1319.77 Q1522.82 1319.77 1526.64 1325.53 Q1530.49 1331.26 1530.49 1342.2 Q1530.49 1353.11 1526.64 1358.87 Q1522.82 1364.59 1515.56 1364.59 Q1508.3 1364.59 1504.45 1358.87 Q1500.63 1353.11 1500.63 1342.2 Q1500.63 1331.26 1504.45 1325.53 Q1508.3 1319.77 1515.56 1319.77 Z" fill="#000000" fill-rule="nonzero" fill-opacity="1" /><path clip-path="url(#clip550)" d="M1880.8 1325.65 L1866.05 1348.71 L1880.8 1348.71 L1880.8 1325.65 M1879.27 1320.56 L1886.62 1320.56 L1886.62 1348.71 L1892.78 1348.71 L1892.78 1353.57 L1886.62 1353.57 L1886.62 1363.76 L1880.8 1363.76 L1880.8 1353.57 L1861.3 1353.57 L1861.3 1347.93 L1879.27 1320.56 Z" fill="#000000" fill-rule="nonzero" fill-opacity="1" /><path clip-path="url(#clip550)" d="M1914.95 1324.4 Q1910.43 1324.4 1908.15 1328.86 Q1905.89 1333.29 1905.89 1342.2 Q1905.89 1351.08 1908.15 1355.54 Q1910.43 1359.97 1914.95 1359.97 Q1919.49 1359.97 1921.75 1355.54 Q1924.03 1351.08 1924.03 1342.2 Q1924.03 1333.29 1921.75 1328.86 Q1919.49 1324.4 1914.95 1324.4 M1914.95 1319.77 Q1922.21 1319.77 1926.03 1325.53 Q1929.88 1331.26 1929.88 1342.2 Q1929.88 1353.11 1926.03 1358.87 Q1922.21 1364.59 1914.95 1364.59 Q1907.68 1364.59 1903.84 1358.87 Q1900.02 1353.11 1900.02 1342.2 Q1900.02 1331.26 1903.84 1325.53 Q1907.68 1319.77 1914.95 1319.77 Z" fill="#000000" fill-rule="nonzero" fill-opacity="1" /><path clip-path="url(#clip550)" d="M2262.54 1320.56 L2285.48 1320.56 L2285.48 1325.47 L2267.89 1325.47 L2267.89 1336.07 Q2269.17 1335.63 2270.44 1335.43 Q2271.71 1335.2 2272.98 1335.2 Q2280.22 1335.2 2284.44 1339.16 Q2288.67 1343.13 2288.67 1349.9 Q2288.67 1356.87 2284.33 1360.75 Q2279.99 1364.59 2272.09 1364.59 Q2269.37 1364.59 2266.53 1364.13 Q2263.73 1363.67 2260.72 1362.74 L2260.72 1356.87 Q2263.32 1358.29 2266.1 1358.98 Q2268.88 1359.68 2271.97 1359.68 Q2276.98 1359.68 2279.9 1357.04 Q2282.82 1354.41 2282.82 1349.9 Q2282.82 1345.38 2279.9 1342.75 Q2276.98 1340.12 2271.97 1340.12 Q2269.63 1340.12 2267.28 1340.64 Q2264.97 1341.16 2262.54 1342.26 L2262.54 1320.56 Z" fill="#000000" fill-rule="nonzero" fill-opacity="1" /><path clip-path="url(#clip550)" d="M2312.68 1324.4 Q2308.17 1324.4 2305.88 1328.86 Q2303.63 1333.29 2303.63 1342.2 Q2303.63 1351.08 2305.88 1355.54 Q2308.17 1359.97 2312.68 1359.97 Q2317.23 1359.97 2319.48 1355.54 Q2321.77 1351.08 2321.77 1342.2 Q2321.77 1333.29 2319.48 1328.86 Q2317.23 1324.4 2312.68 1324.4 M2312.68 1319.77 Q2319.95 1319.77 2323.77 1325.53 Q2327.61 1331.26 2327.61 1342.2 Q2327.61 1353.11 2323.77 1358.87 Q2319.95 1364.59 2312.68 1364.59 Q2305.42 1364.59 2301.57 1358.87 Q2297.75 1353.11 2297.75 1342.2 Q2297.75 1331.26 2301.57 1325.53 Q2305.42 1319.77 2312.68 1319.77 Z" fill="#000000" fill-rule="nonzero" fill-opacity="1" /><path clip-path="url(#clip550)" d="M999.457 1403.45 L1011.65 1403.45 L1027.08 1444.61 L1042.6 1403.45 L1054.79 1403.45 L1054.79 1463.93 L1046.81 1463.93 L1046.81 1410.82 L1031.22 1452.31 L1022.99 1452.31 L1007.4 1410.82 L1007.4 1463.93 L999.457 1463.93 L999.457 1403.45 Z" fill="#000000" fill-rule="nonzero" fill-opacity="1" /><path clip-path="url(#clip550)" d="M1070.71 1418.56 L1078.17 1418.56 L1078.17 1463.93 L1070.71 1463.93 L1070.71 1418.56 M1070.71 1400.9 L1078.17 1400.9 L1078.17 1410.34 L1070.71 1410.34 L1070.71 1400.9 Z" fill="#000000" fill-rule="nonzero" fill-opacity="1" /><path clip-path="url(#clip550)" d="M1131.48 1436.55 L1131.48 1463.93 L1124.02 1463.93 L1124.02 1436.79 Q1124.02 1430.35 1121.51 1427.15 Q1119 1423.95 1113.98 1423.95 Q1107.94 1423.95 1104.46 1427.8 Q1100.97 1431.65 1100.97 1438.29 L1100.97 1463.93 L1093.48 1463.93 L1093.48 1418.56 L1100.97 1418.56 L1100.97 1425.61 Q1103.65 1421.52 1107.25 1419.49 Q1110.9 1417.47 1115.64 1417.47 Q1123.46 1417.47 1127.47 1422.33 Q1131.48 1427.15 1131.48 1436.55 Z" fill="#000000" fill-rule="nonzero" fill-opacity="1" /><path clip-path="url(#clip550)" d="M1202.57 1425.45 L1202.57 1400.9 L1210.02 1400.9 L1210.02 1463.93 L1202.57 1463.93 L1202.57 1457.13 Q1200.22 1461.18 1196.61 1463.16 Q1193.05 1465.11 1188.03 1465.11 Q1179.8 1465.11 1174.62 1458.54 Q1169.47 1451.98 1169.47 1441.29 Q1169.47 1430.59 1174.62 1424.03 Q1179.8 1417.47 1188.03 1417.47 Q1193.05 1417.47 1196.61 1419.45 Q1200.22 1421.4 1202.57 1425.45 M1177.17 1441.29 Q1177.17 1449.51 1180.53 1454.21 Q1183.94 1458.87 1189.85 1458.87 Q1195.76 1458.87 1199.17 1454.21 Q1202.57 1449.51 1202.57 1441.29 Q1202.57 1433.06 1199.17 1428.41 Q1195.76 1423.71 1189.85 1423.71 Q1183.94 1423.71 1180.53 1428.41 Q1177.17 1433.06 1177.17 1441.29 Z" fill="#000000" fill-rule="nonzero" fill-opacity="1" /><path clip-path="url(#clip550)" d="M1245.99 1441.13 Q1236.96 1441.13 1233.48 1443.19 Q1229.99 1445.26 1229.99 1450.24 Q1229.99 1454.21 1232.59 1456.56 Q1235.22 1458.87 1239.72 1458.87 Q1245.91 1458.87 1249.64 1454.49 Q1253.41 1450.08 1253.41 1442.79 L1253.41 1441.13 L1245.99 1441.13 M1260.86 1438.05 L1260.86 1463.93 L1253.41 1463.93 L1253.41 1457.05 Q1250.86 1461.18 1247.05 1463.16 Q1243.24 1465.11 1237.73 1465.11 Q1230.76 1465.11 1226.63 1461.22 Q1222.54 1457.29 1222.54 1450.73 Q1222.54 1443.07 1227.64 1439.18 Q1232.79 1435.29 1242.96 1435.29 L1253.41 1435.29 L1253.41 1434.56 Q1253.41 1429.42 1250.01 1426.62 Q1246.64 1423.79 1240.53 1423.79 Q1236.64 1423.79 1232.95 1424.72 Q1229.26 1425.65 1225.86 1427.51 L1225.86 1420.63 Q1229.95 1419.05 1233.8 1418.28 Q1237.65 1417.47 1241.3 1417.47 Q1251.14 1417.47 1256 1422.57 Q1260.86 1427.68 1260.86 1438.05 Z" fill="#000000" fill-rule="nonzero" fill-opacity="1" /><path clip-path="url(#clip550)" d="M1283.59 1405.68 L1283.59 1418.56 L1298.94 1418.56 L1298.94 1424.35 L1283.59 1424.35 L1283.59 1448.98 Q1283.59 1454.53 1285.09 1456.11 Q1286.63 1457.69 1291.28 1457.69 L1298.94 1457.69 L1298.94 1463.93 L1291.28 1463.93 Q1282.66 1463.93 1279.37 1460.73 Q1276.09 1457.49 1276.09 1448.98 L1276.09 1424.35 L1270.62 1424.35 L1270.62 1418.56 L1276.09 1418.56 L1276.09 1405.68 L1283.59 1405.68 Z" fill="#000000" fill-rule="nonzero" fill-opacity="1" /><path clip-path="url(#clip550)" d="M1329.36 1441.13 Q1320.33 1441.13 1316.85 1443.19 Q1313.36 1445.26 1313.36 1450.24 Q1313.36 1454.21 1315.95 1456.56 Q1318.59 1458.87 1323.08 1458.87 Q1329.28 1458.87 1333.01 1454.49 Q1336.78 1450.08 1336.78 1442.79 L1336.78 1441.13 L1329.36 1441.13 M1344.23 1438.05 L1344.23 1463.93 L1336.78 1463.93 L1336.78 1457.05 Q1334.22 1461.18 1330.42 1463.16 Q1326.61 1465.11 1321.1 1465.11 Q1314.13 1465.11 1310 1461.22 Q1305.91 1457.29 1305.91 1450.73 Q1305.91 1443.07 1311.01 1439.18 Q1316.16 1435.29 1326.32 1435.29 L1336.78 1435.29 L1336.78 1434.56 Q1336.78 1429.42 1333.37 1426.62 Q1330.01 1423.79 1323.89 1423.79 Q1320 1423.79 1316.32 1424.72 Q1312.63 1425.65 1309.23 1427.51 L1309.23 1420.63 Q1313.32 1419.05 1317.17 1418.28 Q1321.02 1417.47 1324.66 1417.47 Q1334.51 1417.47 1339.37 1422.57 Q1344.23 1427.68 1344.23 1438.05 Z" fill="#000000" fill-rule="nonzero" fill-opacity="1" /><path clip-path="url(#clip550)" d="M1385.95 1418.56 L1393.41 1418.56 L1393.41 1463.93 L1385.95 1463.93 L1385.95 1418.56 M1385.95 1400.9 L1393.41 1400.9 L1393.41 1410.34 L1385.95 1410.34 L1385.95 1400.9 Z" fill="#000000" fill-rule="nonzero" fill-opacity="1" /><path clip-path="url(#clip550)" d="M1446.72 1436.55 L1446.72 1463.93 L1439.26 1463.93 L1439.26 1436.79 Q1439.26 1430.35 1436.75 1427.15 Q1434.24 1423.95 1429.22 1423.95 Q1423.18 1423.95 1419.7 1427.8 Q1416.21 1431.65 1416.21 1438.29 L1416.21 1463.93 L1408.72 1463.93 L1408.72 1418.56 L1416.21 1418.56 L1416.21 1425.61 Q1418.89 1421.52 1422.49 1419.49 Q1426.14 1417.47 1430.88 1417.47 Q1438.7 1417.47 1442.71 1422.33 Q1446.72 1427.15 1446.72 1436.55 Z" fill="#000000" fill-rule="nonzero" fill-opacity="1" /><path clip-path="url(#clip550)" d="M1487.96 1400.9 L1495.41 1400.9 L1495.41 1463.93 L1487.96 1463.93 L1487.96 1400.9 Z" fill="#000000" fill-rule="nonzero" fill-opacity="1" /><path clip-path="url(#clip550)" d="M1549.81 1439.38 L1549.81 1443.03 L1515.54 1443.03 Q1516.03 1450.73 1520.16 1454.78 Q1524.33 1458.79 1531.75 1458.79 Q1536.04 1458.79 1540.05 1457.73 Q1544.1 1456.68 1548.07 1454.57 L1548.07 1461.62 Q1544.06 1463.32 1539.85 1464.22 Q1535.63 1465.11 1531.3 1465.11 Q1520.44 1465.11 1514.08 1458.79 Q1507.76 1452.47 1507.76 1441.69 Q1507.76 1430.55 1513.76 1424.03 Q1519.8 1417.47 1530 1417.47 Q1539.16 1417.47 1544.47 1423.38 Q1549.81 1429.26 1549.81 1439.38 M1542.36 1437.2 Q1542.28 1431.08 1538.92 1427.43 Q1535.59 1423.79 1530.08 1423.79 Q1523.85 1423.79 1520.08 1427.31 Q1516.35 1430.84 1515.79 1437.24 L1542.36 1437.2 Z" fill="#000000" fill-rule="nonzero" fill-opacity="1" /><path clip-path="url(#clip550)" d="M1582.67 1441.13 Q1573.63 1441.13 1570.15 1443.19 Q1566.66 1445.26 1566.66 1450.24 Q1566.66 1454.21 1569.26 1456.56 Q1571.89 1458.87 1576.39 1458.87 Q1582.58 1458.87 1586.31 1454.49 Q1590.08 1450.08 1590.08 1442.79 L1590.08 1441.13 L1582.67 1441.13 M1597.53 1438.05 L1597.53 1463.93 L1590.08 1463.93 L1590.08 1457.05 Q1587.53 1461.18 1583.72 1463.16 Q1579.91 1465.11 1574.4 1465.11 Q1567.43 1465.11 1563.3 1461.22 Q1559.21 1457.29 1559.21 1450.73 Q1559.21 1443.07 1564.32 1439.18 Q1569.46 1435.29 1579.63 1435.29 L1590.08 1435.29 L1590.08 1434.56 Q1590.08 1429.42 1586.68 1426.62 Q1583.31 1423.79 1577.2 1423.79 Q1573.31 1423.79 1569.62 1424.72 Q1565.94 1425.65 1562.53 1427.51 L1562.53 1420.63 Q1566.62 1419.05 1570.47 1418.28 Q1574.32 1417.47 1577.97 1417.47 Q1587.81 1417.47 1592.67 1422.57 Q1597.53 1427.68 1597.53 1438.05 Z" fill="#000000" fill-rule="nonzero" fill-opacity="1" /><path clip-path="url(#clip550)" d="M1635.85 1400.9 L1635.85 1407.1 L1628.72 1407.1 Q1624.71 1407.1 1623.13 1408.72 Q1621.59 1410.34 1621.59 1414.55 L1621.59 1418.56 L1633.87 1418.56 L1633.87 1424.35 L1621.59 1424.35 L1621.59 1463.93 L1614.1 1463.93 L1614.1 1424.35 L1606.97 1424.35 L1606.97 1418.56 L1614.1 1418.56 L1614.1 1415.4 Q1614.1 1407.83 1617.62 1404.38 Q1621.15 1400.9 1628.81 1400.9 L1635.85 1400.9 Z" fill="#000000" fill-rule="nonzero" fill-opacity="1" /><polyline clip-path="url(#clip552)" style="stroke:#000000; stroke-linecap:round; stroke-linejoin:round; stroke-width:2; stroke-opacity:0.1; fill:none" points="282.555,1171.29 2352.76,1171.29 "/>
<polyline clip-path="url(#clip552)" style="stroke:#000000; stroke-linecap:round; stroke-linejoin:round; stroke-width:2; stroke-opacity:0.1; fill:none" points="282.555,919.248 2352.76,919.248 "/>
<polyline clip-path="url(#clip552)" style="stroke:#000000; stroke-linecap:round; stroke-linejoin:round; stroke-width:2; stroke-opacity:0.1; fill:none" points="282.555,667.204 2352.76,667.204 "/>
<polyline clip-path="url(#clip552)" style="stroke:#000000; stroke-linecap:round; stroke-linejoin:round; stroke-width:2; stroke-opacity:0.1; fill:none" points="282.555,415.16 2352.76,415.16 "/>
<polyline clip-path="url(#clip552)" style="stroke:#000000; stroke-linecap:round; stroke-linejoin:round; stroke-width:2; stroke-opacity:0.1; fill:none" points="282.555,163.116 2352.76,163.116 "/>
<polyline clip-path="url(#clip550)" style="stroke:#000000; stroke-linecap:round; stroke-linejoin:round; stroke-width:4; stroke-opacity:1; fill:none" points="282.555,1290.56 282.555,47.2441 "/>
<polyline clip-path="url(#clip550)" style="stroke:#000000; stroke-linecap:round; stroke-linejoin:round; stroke-width:4; stroke-opacity:1; fill:none" points="282.555,1171.29 301.453,1171.29 "/>
<polyline clip-path="url(#clip550)" style="stroke:#000000; stroke-linecap:round; stroke-linejoin:round; stroke-width:4; stroke-opacity:1; fill:none" points="282.555,919.248 301.453,919.248 "/>
<polyline clip-path="url(#clip550)" style="stroke:#000000; stroke-linecap:round; stroke-linejoin:round; stroke-width:4; stroke-opacity:1; fill:none" points="282.555,667.204 301.453,667.204 "/>
<polyline clip-path="url(#clip550)" style="stroke:#000000; stroke-linecap:round; stroke-linejoin:round; stroke-width:4; stroke-opacity:1; fill:none" points="282.555,415.16 301.453,415.16 "/>
<polyline clip-path="url(#clip550)" style="stroke:#000000; stroke-linecap:round; stroke-linejoin:round; stroke-width:4; stroke-opacity:1; fill:none" points="282.555,163.116 301.453,163.116 "/>
<path clip-path="url(#clip550)" d="M124.941 1149.69 L147.887 1149.69 L147.887 1154.61 L130.294 1154.61 L130.294 1165.2 Q131.567 1164.77 132.84 1164.57 Q134.113 1164.33 135.387 1164.33 Q142.62 1164.33 146.845 1168.3 Q151.069 1172.26 151.069 1179.03 Q151.069 1186.01 146.729 1189.88 Q142.389 1193.73 134.49 1193.73 Q131.77 1193.73 128.934 1193.27 Q126.127 1192.81 123.118 1191.88 L123.118 1186.01 Q125.722 1187.42 128.5 1188.12 Q131.278 1188.81 134.374 1188.81 Q139.38 1188.81 142.302 1186.18 Q145.225 1183.55 145.225 1179.03 Q145.225 1174.52 142.302 1171.89 Q139.38 1169.25 134.374 1169.25 Q132.03 1169.25 129.686 1169.77 Q127.372 1170.29 124.941 1171.39 L124.941 1149.69 Z" fill="#000000" fill-rule="nonzero" fill-opacity="1" /><path clip-path="url(#clip550)" d="M162.586 1185.54 L168.691 1185.54 L168.691 1192.89 L162.586 1192.89 L162.586 1185.54 Z" fill="#000000" fill-rule="nonzero" fill-opacity="1" /><path clip-path="url(#clip550)" d="M193.922 1153.54 Q189.408 1153.54 187.122 1158 Q184.866 1162.42 184.866 1171.34 Q184.866 1180.22 187.122 1184.67 Q189.408 1189.1 193.922 1189.1 Q198.465 1189.1 200.722 1184.67 Q203.008 1180.22 203.008 1171.34 Q203.008 1162.42 200.722 1158 Q198.465 1153.54 193.922 1153.54 M193.922 1148.91 Q201.185 1148.91 205.004 1154.67 Q208.853 1160.4 208.853 1171.34 Q208.853 1182.24 205.004 1188 Q201.185 1193.73 193.922 1193.73 Q186.66 1193.73 182.811 1188 Q178.992 1182.24 178.992 1171.34 Q178.992 1160.4 182.811 1154.67 Q186.66 1148.91 193.922 1148.91 Z" fill="#000000" fill-rule="nonzero" fill-opacity="1" /><path clip-path="url(#clip550)" d="M231.625 1153.54 Q227.111 1153.54 224.825 1158 Q222.568 1162.42 222.568 1171.34 Q222.568 1180.22 224.825 1184.67 Q227.111 1189.1 231.625 1189.1 Q236.167 1189.1 238.424 1184.67 Q240.71 1180.22 240.71 1171.34 Q240.71 1162.42 238.424 1158 Q236.167 1153.54 231.625 1153.54 M231.625 1148.91 Q238.887 1148.91 242.707 1154.67 Q246.555 1160.4 246.555 1171.34 Q246.555 1182.24 242.707 1188 Q238.887 1193.73 231.625 1193.73 Q224.362 1193.73 220.513 1188 Q216.694 1182.24 216.694 1171.34 Q216.694 1160.4 220.513 1154.67 Q224.362 1148.91 231.625 1148.91 Z" fill="#000000" fill-rule="nonzero" fill-opacity="1" /><path clip-path="url(#clip550)" d="M126.185 897.648 L149.131 897.648 L149.131 902.567 L131.538 902.567 L131.538 913.157 Q132.811 912.723 134.085 912.521 Q135.358 912.289 136.631 912.289 Q143.865 912.289 148.089 916.254 Q152.314 920.218 152.314 926.988 Q152.314 933.962 147.973 937.839 Q143.633 941.687 135.734 941.687 Q133.014 941.687 130.178 941.224 Q127.372 940.761 124.362 939.836 L124.362 933.962 Q126.967 935.38 129.744 936.074 Q132.522 936.768 135.618 936.768 Q140.624 936.768 143.546 934.135 Q146.469 931.502 146.469 926.988 Q146.469 922.475 143.546 919.841 Q140.624 917.208 135.618 917.208 Q133.274 917.208 130.931 917.729 Q128.616 918.25 126.185 919.35 L126.185 897.648 Z" fill="#000000" fill-rule="nonzero" fill-opacity="1" /><path clip-path="url(#clip550)" d="M163.83 933.499 L169.935 933.499 L169.935 940.848 L163.83 940.848 L163.83 933.499 Z" fill="#000000" fill-rule="nonzero" fill-opacity="1" /><path clip-path="url(#clip550)" d="M187.701 935.929 L208.1 935.929 L208.1 940.848 L180.67 940.848 L180.67 935.929 Q183.997 932.486 189.727 926.699 Q195.485 920.883 196.96 919.205 Q199.767 916.051 200.867 913.881 Q201.995 911.682 201.995 909.57 Q201.995 906.126 199.565 903.956 Q197.163 901.786 193.286 901.786 Q190.537 901.786 187.47 902.741 Q184.432 903.696 180.959 905.634 L180.959 899.732 Q184.489 898.314 187.556 897.59 Q190.624 896.867 193.17 896.867 Q199.883 896.867 203.876 900.224 Q207.869 903.58 207.869 909.193 Q207.869 911.855 206.856 914.257 Q205.872 916.63 203.239 919.87 Q202.516 920.71 198.639 924.731 Q194.761 928.725 187.701 935.929 Z" fill="#000000" fill-rule="nonzero" fill-opacity="1" /><path clip-path="url(#clip550)" d="M220.427 897.648 L243.372 897.648 L243.372 902.567 L225.78 902.567 L225.78 913.157 Q227.053 912.723 228.326 912.521 Q229.599 912.289 230.872 912.289 Q238.106 912.289 242.331 916.254 Q246.555 920.218 246.555 926.988 Q246.555 933.962 242.215 937.839 Q237.875 941.687 229.975 941.687 Q227.255 941.687 224.42 941.224 Q221.613 940.761 218.604 939.836 L218.604 933.962 Q221.208 935.38 223.986 936.074 Q226.763 936.768 229.86 936.768 Q234.865 936.768 237.788 934.135 Q240.71 931.502 240.71 926.988 Q240.71 922.475 237.788 919.841 Q234.865 917.208 229.86 917.208 Q227.516 917.208 225.172 917.729 Q222.857 918.25 220.427 919.35 L220.427 897.648 Z" fill="#000000" fill-rule="nonzero" fill-opacity="1" /><path clip-path="url(#clip550)" d="M124.941 645.604 L147.887 645.604 L147.887 650.523 L130.294 650.523 L130.294 661.113 Q131.567 660.679 132.84 660.477 Q134.113 660.245 135.387 660.245 Q142.62 660.245 146.845 664.209 Q151.069 668.173 151.069 674.944 Q151.069 681.918 146.729 685.795 Q142.389 689.643 134.49 689.643 Q131.77 689.643 128.934 689.18 Q126.127 688.717 123.118 687.791 L123.118 681.918 Q125.722 683.335 128.5 684.03 Q131.278 684.724 134.374 684.724 Q139.38 684.724 142.302 682.091 Q145.225 679.458 145.225 674.944 Q145.225 670.43 142.302 667.797 Q139.38 665.164 134.374 665.164 Q132.03 665.164 129.686 665.685 Q127.372 666.206 124.941 667.305 L124.941 645.604 Z" fill="#000000" fill-rule="nonzero" fill-opacity="1" /><path clip-path="url(#clip550)" d="M162.586 681.455 L168.691 681.455 L168.691 688.804 L162.586 688.804 L162.586 681.455 Z" fill="#000000" fill-rule="nonzero" fill-opacity="1" /><path clip-path="url(#clip550)" d="M181.48 645.604 L204.426 645.604 L204.426 650.523 L186.833 650.523 L186.833 661.113 Q188.106 660.679 189.379 660.477 Q190.653 660.245 191.926 660.245 Q199.159 660.245 203.384 664.209 Q207.608 668.173 207.608 674.944 Q207.608 681.918 203.268 685.795 Q198.928 689.643 191.029 689.643 Q188.309 689.643 185.473 689.18 Q182.666 688.717 179.657 687.791 L179.657 681.918 Q182.261 683.335 185.039 684.03 Q187.817 684.724 190.913 684.724 Q195.919 684.724 198.841 682.091 Q201.764 679.458 201.764 674.944 Q201.764 670.43 198.841 667.797 Q195.919 665.164 190.913 665.164 Q188.569 665.164 186.225 665.685 Q183.911 666.206 181.48 667.305 L181.48 645.604 Z" fill="#000000" fill-rule="nonzero" fill-opacity="1" /><path clip-path="url(#clip550)" d="M231.625 649.452 Q227.111 649.452 224.825 653.908 Q222.568 658.336 222.568 667.248 Q222.568 676.131 224.825 680.587 Q227.111 685.014 231.625 685.014 Q236.167 685.014 238.424 680.587 Q240.71 676.131 240.71 667.248 Q240.71 658.336 238.424 653.908 Q236.167 649.452 231.625 649.452 M231.625 644.823 Q238.887 644.823 242.707 650.581 Q246.555 656.31 246.555 667.248 Q246.555 678.156 242.707 683.914 Q238.887 689.643 231.625 689.643 Q224.362 689.643 220.513 683.914 Q216.694 678.156 216.694 667.248 Q216.694 656.31 220.513 650.581 Q224.362 644.823 231.625 644.823 Z" fill="#000000" fill-rule="nonzero" fill-opacity="1" /><path clip-path="url(#clip550)" d="M126.185 393.56 L149.131 393.56 L149.131 398.479 L131.538 398.479 L131.538 409.069 Q132.811 408.635 134.085 408.433 Q135.358 408.201 136.631 408.201 Q143.865 408.201 148.089 412.165 Q152.314 416.129 152.314 422.9 Q152.314 429.873 147.973 433.751 Q143.633 437.599 135.734 437.599 Q133.014 437.599 130.178 437.136 Q127.372 436.673 124.362 435.747 L124.362 429.873 Q126.967 431.291 129.744 431.986 Q132.522 432.68 135.618 432.68 Q140.624 432.68 143.546 430.047 Q146.469 427.414 146.469 422.9 Q146.469 418.386 143.546 415.753 Q140.624 413.12 135.618 413.12 Q133.274 413.12 130.931 413.641 Q128.616 414.162 126.185 415.261 L126.185 393.56 Z" fill="#000000" fill-rule="nonzero" fill-opacity="1" /><path clip-path="url(#clip550)" d="M163.83 429.41 L169.935 429.41 L169.935 436.76 L163.83 436.76 L163.83 429.41 Z" fill="#000000" fill-rule="nonzero" fill-opacity="1" /><path clip-path="url(#clip550)" d="M181.191 393.56 L208.968 393.56 L208.968 396.048 L193.286 436.76 L187.18 436.76 L201.937 398.479 L181.191 398.479 L181.191 393.56 Z" fill="#000000" fill-rule="nonzero" fill-opacity="1" /><path clip-path="url(#clip550)" d="M220.427 393.56 L243.372 393.56 L243.372 398.479 L225.78 398.479 L225.78 409.069 Q227.053 408.635 228.326 408.433 Q229.599 408.201 230.872 408.201 Q238.106 408.201 242.331 412.165 Q246.555 416.129 246.555 422.9 Q246.555 429.873 242.215 433.751 Q237.875 437.599 229.975 437.599 Q227.255 437.599 224.42 437.136 Q221.613 436.673 218.604 435.747 L218.604 429.873 Q221.208 431.291 223.986 431.986 Q226.763 432.68 229.86 432.68 Q234.865 432.68 237.788 430.047 Q240.71 427.414 240.71 422.9 Q240.71 418.386 237.788 415.753 Q234.865 413.12 229.86 413.12 Q227.516 413.12 225.172 413.641 Q222.857 414.162 220.427 415.261 L220.427 393.56 Z" fill="#000000" fill-rule="nonzero" fill-opacity="1" /><path clip-path="url(#clip550)" d="M138.107 160.787 Q134.171 160.787 131.857 163.477 Q129.571 166.168 129.571 170.856 Q129.571 175.514 131.857 178.234 Q134.171 180.925 138.107 180.925 Q142.042 180.925 144.328 178.234 Q146.642 175.514 146.642 170.856 Q146.642 166.168 144.328 163.477 Q142.042 160.787 138.107 160.787 M149.709 142.471 L149.709 147.795 Q147.51 146.753 145.253 146.203 Q143.025 145.653 140.826 145.653 Q135.039 145.653 131.972 149.56 Q128.934 153.466 128.5 161.365 Q130.207 158.848 132.782 157.517 Q135.358 156.157 138.454 156.157 Q144.964 156.157 148.726 160.121 Q152.516 164.056 152.516 170.856 Q152.516 177.511 148.581 181.533 Q144.646 185.555 138.107 185.555 Q130.612 185.555 126.648 179.826 Q122.684 174.068 122.684 163.159 Q122.684 152.916 127.545 146.84 Q132.406 140.735 140.595 140.735 Q142.794 140.735 145.022 141.169 Q147.279 141.603 149.709 142.471 Z" fill="#000000" fill-rule="nonzero" fill-opacity="1" /><path clip-path="url(#clip550)" d="M162.586 177.366 L168.691 177.366 L168.691 184.716 L162.586 184.716 L162.586 177.366 Z" fill="#000000" fill-rule="nonzero" fill-opacity="1" /><path clip-path="url(#clip550)" d="M193.922 145.364 Q189.408 145.364 187.122 149.82 Q184.866 154.247 184.866 163.159 Q184.866 172.042 187.122 176.498 Q189.408 180.925 193.922 180.925 Q198.465 180.925 200.722 176.498 Q203.008 172.042 203.008 163.159 Q203.008 154.247 200.722 149.82 Q198.465 145.364 193.922 145.364 M193.922 140.735 Q201.185 140.735 205.004 146.493 Q208.853 152.222 208.853 163.159 Q208.853 174.068 205.004 179.826 Q201.185 185.555 193.922 185.555 Q186.66 185.555 182.811 179.826 Q178.992 174.068 178.992 163.159 Q178.992 152.222 182.811 146.493 Q186.66 140.735 193.922 140.735 Z" fill="#000000" fill-rule="nonzero" fill-opacity="1" /><path clip-path="url(#clip550)" d="M231.625 145.364 Q227.111 145.364 224.825 149.82 Q222.568 154.247 222.568 163.159 Q222.568 172.042 224.825 176.498 Q227.111 180.925 231.625 180.925 Q236.167 180.925 238.424 176.498 Q240.71 172.042 240.71 163.159 Q240.71 154.247 238.424 149.82 Q236.167 145.364 231.625 145.364 M231.625 140.735 Q238.887 140.735 242.707 146.493 Q246.555 152.222 246.555 163.159 Q246.555 174.068 242.707 179.826 Q238.887 185.555 231.625 185.555 Q224.362 185.555 220.513 179.826 Q216.694 174.068 216.694 163.159 Q216.694 152.222 220.513 146.493 Q224.362 140.735 231.625 140.735 Z" fill="#000000" fill-rule="nonzero" fill-opacity="1" /><path clip-path="url(#clip550)" d="M40.1838 750.647 Q41.075 748.014 43.9917 745.543 Q46.9083 743.032 52.0125 740.52 L68.5402 732.216 L68.5402 741.006 L53.0252 748.743 Q46.9488 751.741 44.9639 754.577 Q42.979 757.372 42.979 762.233 L42.979 771.145 L68.5402 771.145 L68.5402 779.328 L8.06016 779.328 L8.06016 760.855 Q8.06016 750.485 12.3946 745.381 Q16.7291 740.277 25.479 740.277 Q31.1908 740.277 34.9582 742.95 Q38.7255 745.584 40.1838 750.647 M14.7847 771.145 L36.2545 771.145 L36.2545 760.855 Q36.2545 754.941 33.5403 751.944 Q30.7857 748.905 25.479 748.905 Q20.1724 748.905 17.4988 751.944 Q14.7847 754.941 14.7847 760.855 L14.7847 771.145 Z" fill="#000000" fill-rule="nonzero" fill-opacity="1" /><path clip-path="url(#clip550)" d="M8.06016 721.683 L8.06016 709.49 L49.2173 694.056 L8.06016 678.541 L8.06016 666.348 L68.5402 666.348 L68.5402 674.328 L15.4328 674.328 L56.9141 689.924 L56.9141 698.147 L15.4328 713.743 L68.5402 713.743 L68.5402 721.683 L8.06016 721.683 Z" fill="#000000" fill-rule="nonzero" fill-opacity="1" /><path clip-path="url(#clip550)" d="M10.0451 613.848 L18.0254 613.848 Q15.7974 618.507 14.7036 622.639 Q13.6099 626.771 13.6099 630.619 Q13.6099 637.303 16.2025 640.949 Q18.7951 644.554 23.5751 644.554 Q27.5855 644.554 29.6515 642.164 Q31.6769 639.733 32.9327 633.009 L33.9454 628.067 Q35.6873 618.912 40.1028 614.577 Q44.4778 610.202 51.8504 610.202 Q60.6409 610.202 65.1779 616.117 Q69.7149 621.99 69.7149 633.374 Q69.7149 637.667 68.7427 642.529 Q67.7705 647.349 65.8666 652.534 L57.4407 652.534 Q60.2358 647.552 61.6536 642.772 Q63.0714 637.992 63.0714 633.374 Q63.0714 626.365 60.3168 622.558 Q57.5622 618.75 52.4581 618.75 Q48.0021 618.75 45.4905 621.504 Q42.979 624.218 41.7232 630.457 L40.751 635.439 Q38.928 644.595 35.0392 648.686 Q31.1503 652.777 24.2233 652.777 Q16.2025 652.777 11.5844 647.147 Q6.96641 641.475 6.96641 631.551 Q6.96641 627.297 7.73609 622.882 Q8.50576 618.466 10.0451 613.848 Z" fill="#000000" fill-rule="nonzero" fill-opacity="1" /><path clip-path="url(#clip550)" d="M8.06016 597.442 L8.06016 559.201 L14.9467 559.201 L14.9467 589.259 L32.8517 589.259 L32.8517 560.457 L39.7382 560.457 L39.7382 589.259 L61.6536 589.259 L61.6536 558.472 L68.5402 558.472 L68.5402 597.442 L8.06016 597.442 Z" fill="#000000" fill-rule="nonzero" fill-opacity="1" /><polyline clip-path="url(#clip552)" style="stroke:#009af9; stroke-linecap:round; stroke-linejoin:round; stroke-width:4; stroke-opacity:1; fill:none" points="341.146,1129.77 420.861,1136.1 460.718,1255.37 540.433,1252.23 620.148,1125.69 660.006,1107.11 739.721,990.248 819.436,953.679 899.151,913.001 939.009,893.593 1018.72,870.878 1098.44,780.403 1138.3,794.248 1218.01,593.905 1297.73,569.934 1337.58,570.232 1417.3,570.701 1497.01,520.453 1536.87,512.29 1616.59,479.284 1696.3,460.529 1736.16,469.085 1815.87,429.603 1895.59,413.904 1975.3,318.821 2015.16,303.472 2094.88,218.52 2174.59,152.74 2214.45,127.329 2294.17,82.4322 "/>
<path clip-path="url(#clip550)" d="M351.562 218.288 L624.12 218.288 L624.12 88.6878 L351.562 88.6878  Z" fill="#ffffff" fill-rule="evenodd" fill-opacity="1"/>
<polyline clip-path="url(#clip550)" style="stroke:#000000; stroke-linecap:round; stroke-linejoin:round; stroke-width:4; stroke-opacity:1; fill:none" points="351.562,218.288 624.12,218.288 624.12,88.6878 351.562,88.6878 351.562,218.288 "/>
<polyline clip-path="url(#clip550)" style="stroke:#009af9; stroke-linecap:round; stroke-linejoin:round; stroke-width:5; stroke-opacity:1; fill:none" points="374.564,153.488 512.577,153.488 "/>
<path clip-path="url(#clip550)" d="M552.883 178.097 Q550.626 183.884 548.485 185.649 Q546.343 187.414 542.755 187.414 L538.502 187.414 L538.502 182.958 L541.627 182.958 Q543.826 182.958 545.041 181.916 Q546.257 180.875 547.732 176.998 L548.687 174.567 L535.58 142.681 L541.222 142.681 L551.349 168.028 L561.476 142.681 L567.119 142.681 L552.883 178.097 Z" fill="#000000" fill-rule="nonzero" fill-opacity="1" /><path clip-path="url(#clip550)" d="M576.233 170.169 L585.782 170.169 L585.782 137.212 L575.394 139.295 L575.394 133.971 L585.724 131.888 L591.569 131.888 L591.569 170.169 L601.117 170.169 L601.117 175.088 L576.233 175.088 L576.233 170.169 Z" fill="#000000" fill-rule="nonzero" fill-opacity="1" /></svg>
