<?xml version="1.0" encoding="utf-8"?>
<svg xmlns="http://www.w3.org/2000/svg" xmlns:xlink="http://www.w3.org/1999/xlink" width="600" height="370" viewBox="0 0 2400 1480">
<defs>
  <clipPath id="clip480">
    <rect x="0" y="0" width="2400" height="1480"/>
  </clipPath>
</defs>
<path clip-path="url(#clip480)" d="M0 1480 L2400 1480 L2400 0 L0 0  Z" fill="#ffffff" fill-rule="evenodd" fill-opacity="1"/>
<defs>
  <clipPath id="clip481">
    <rect x="480" y="0" width="1681" height="1480"/>
  </clipPath>
</defs>
<path clip-path="url(#clip480)" d="M190.165 1290.56 L2352.76 1290.56 L2352.76 47.2441 L190.165 47.2441  Z" fill="#ffffff" fill-rule="evenodd" fill-opacity="1"/>
<defs>
  <clipPath id="clip482">
    <rect x="190" y="47" width="2164" height="1244"/>
  </clipPath>
</defs>
<polyline clip-path="url(#clip482)" style="stroke:#000000; stroke-linecap:round; stroke-linejoin:round; stroke-width:2; stroke-opacity:0.1; fill:none" points="243.177,1290.56 243.177,47.2441 "/>
<polyline clip-path="url(#clip482)" style="stroke:#000000; stroke-linecap:round; stroke-linejoin:round; stroke-width:2; stroke-opacity:0.1; fill:none" points="652.852,1290.56 652.852,47.2441 "/>
<polyline clip-path="url(#clip482)" style="stroke:#000000; stroke-linecap:round; stroke-linejoin:round; stroke-width:2; stroke-opacity:0.1; fill:none" points="1062.53,1290.56 1062.53,47.2441 "/>
<polyline clip-path="url(#clip482)" style="stroke:#000000; stroke-linecap:round; stroke-linejoin:round; stroke-width:2; stroke-opacity:0.1; fill:none" points="1472.2,1290.56 1472.2,47.2441 "/>
<polyline clip-path="url(#clip482)" style="stroke:#000000; stroke-linecap:round; stroke-linejoin:round; stroke-width:2; stroke-opacity:0.1; fill:none" points="1881.88,1290.56 1881.88,47.2441 "/>
<polyline clip-path="url(#clip482)" style="stroke:#000000; stroke-linecap:round; stroke-linejoin:round; stroke-width:2; stroke-opacity:0.1; fill:none" points="2291.55,1290.56 2291.55,47.2441 "/>
<polyline clip-path="url(#clip480)" style="stroke:#000000; stroke-linecap:round; stroke-linejoin:round; stroke-width:4; stroke-opacity:1; fill:none" points="190.165,1290.56 2352.76,1290.56 "/>
<polyline clip-path="url(#clip480)" style="stroke:#000000; stroke-linecap:round; stroke-linejoin:round; stroke-width:4; stroke-opacity:1; fill:none" points="243.177,1290.56 243.177,1271.66 "/>
<polyline clip-path="url(#clip480)" style="stroke:#000000; stroke-linecap:round; stroke-linejoin:round; stroke-width:4; stroke-opacity:1; fill:none" points="652.852,1290.56 652.852,1271.66 "/>
<polyline clip-path="url(#clip480)" style="stroke:#000000; stroke-linecap:round; stroke-linejoin:round; stroke-width:4; stroke-opacity:1; fill:none" points="1062.53,1290.56 1062.53,1271.66 "/>
<polyline clip-path="url(#clip480)" style="stroke:#000000; stroke-linecap:round; stroke-linejoin:round; stroke-width:4; stroke-opacity:1; fill:none" points="1472.2,1290.56 1472.2,1271.66 "/>
<polyline clip-path="url(#clip480)" style="stroke:#000000; stroke-linecap:round; stroke-linejoin:round; stroke-width:4; stroke-opacity:1; fill:none" points="1881.88,1290.56 1881.88,1271.66 "/>
<polyline clip-path="url(#clip480)" style="stroke:#000000; stroke-linecap:round; stroke-linejoin:round; stroke-width:4; stroke-opacity:1; fill:none" points="2291.55,1290.56 2291.55,1271.66 "/>
<path clip-path="url(#clip480)" d="M243.177 1324.4 Q238.664 1324.4 236.378 1328.86 Q234.121 1333.29 234.121 1342.2 Q234.121 1351.08 236.378 1355.54 Q238.664 1359.97 243.177 1359.97 Q247.72 1359.97 249.977 1355.54 Q252.263 1351.08 252.263 1342.2 Q252.263 1333.29 249.977 1328.86 Q247.72 1324.4 243.177 1324.4 M243.177 1319.77 Q250.44 1319.77 254.259 1325.53 Q258.108 1331.26 258.108 1342.2 Q258.108 1353.11 254.259 1358.87 Q250.44 1364.59 243.177 1364.59 Q235.915 1364.59 232.066 1358.87 Q228.247 1353.11 228.247 1342.2 Q228.247 1331.26 232.066 1325.53 Q235.915 1319.77 243.177 1319.77 Z" fill="#000000" fill-rule="nonzero" fill-opacity="1" /><path clip-path="url(#clip480)" d="M602.36 1358.84 L611.909 1358.84 L611.909 1325.88 L601.521 1327.96 L601.521 1322.64 L611.851 1320.56 L617.696 1320.56 L617.696 1358.84 L627.244 1358.84 L627.244 1363.76 L602.36 1363.76 L602.36 1358.84 Z" fill="#000000" fill-rule="nonzero" fill-opacity="1" /><path clip-path="url(#clip480)" d="M651.55 1324.4 Q647.036 1324.4 644.75 1328.86 Q642.493 1333.29 642.493 1342.2 Q642.493 1351.08 644.75 1355.54 Q647.036 1359.97 651.55 1359.97 Q656.093 1359.97 658.35 1355.54 Q660.636 1351.08 660.636 1342.2 Q660.636 1333.29 658.35 1328.86 Q656.093 1324.4 651.55 1324.4 M651.55 1319.77 Q658.813 1319.77 662.632 1325.53 Q666.48 1331.26 666.48 1342.2 Q666.48 1353.11 662.632 1358.87 Q658.813 1364.59 651.55 1364.59 Q644.287 1364.59 640.439 1358.87 Q636.619 1353.11 636.619 1342.2 Q636.619 1331.26 640.439 1325.53 Q644.287 1319.77 651.55 1319.77 Z" fill="#000000" fill-rule="nonzero" fill-opacity="1" /><path clip-path="url(#clip480)" d="M689.252 1324.4 Q684.738 1324.4 682.453 1328.86 Q680.196 1333.29 680.196 1342.2 Q680.196 1351.08 682.453 1355.54 Q684.738 1359.97 689.252 1359.97 Q693.795 1359.97 696.052 1355.54 Q698.338 1351.08 698.338 1342.2 Q698.338 1333.29 696.052 1328.86 Q693.795 1324.4 689.252 1324.4 M689.252 1319.77 Q696.515 1319.77 700.334 1325.53 Q704.183 1331.26 704.183 1342.2 Q704.183 1353.11 700.334 1358.87 Q696.515 1364.59 689.252 1364.59 Q681.99 1364.59 678.141 1358.87 Q674.322 1353.11 674.322 1342.2 Q674.322 1331.26 678.141 1325.53 Q681.99 1319.77 689.252 1319.77 Z" fill="#000000" fill-rule="nonzero" fill-opacity="1" /><path clip-path="url(#clip480)" d="M1017.14 1358.84 L1037.54 1358.84 L1037.54 1363.76 L1010.11 1363.76 L1010.11 1358.84 Q1013.44 1355.39 1019.17 1349.61 Q1024.93 1343.79 1026.4 1342.11 Q1029.21 1338.96 1030.31 1336.79 Q1031.44 1334.59 1031.44 1332.48 Q1031.44 1329.03 1029.01 1326.86 Q1026.6 1324.69 1022.73 1324.69 Q1019.98 1324.69 1016.91 1325.65 Q1013.87 1326.6 1010.4 1328.54 L1010.4 1322.64 Q1013.93 1321.22 1017 1320.5 Q1020.06 1319.77 1022.61 1319.77 Q1029.32 1319.77 1033.32 1323.13 Q1037.31 1326.49 1037.31 1332.1 Q1037.31 1334.76 1036.3 1337.16 Q1035.31 1339.54 1032.68 1342.78 Q1031.96 1343.62 1028.08 1347.64 Q1024.2 1351.63 1017.14 1358.84 Z" fill="#000000" fill-rule="nonzero" fill-opacity="1" /><path clip-path="url(#clip480)" d="M1062.31 1324.4 Q1057.8 1324.4 1055.51 1328.86 Q1053.25 1333.29 1053.25 1342.2 Q1053.25 1351.08 1055.51 1355.54 Q1057.8 1359.97 1062.31 1359.97 Q1066.85 1359.97 1069.11 1355.54 Q1071.4 1351.08 1071.4 1342.2 Q1071.4 1333.29 1069.11 1328.86 Q1066.85 1324.4 1062.31 1324.4 M1062.31 1319.77 Q1069.57 1319.77 1073.39 1325.53 Q1077.24 1331.26 1077.24 1342.2 Q1077.24 1353.11 1073.39 1358.87 Q1069.57 1364.59 1062.31 1364.59 Q1055.05 1364.59 1051.2 1358.87 Q1047.38 1353.11 1047.38 1342.2 Q1047.38 1331.26 1051.2 1325.53 Q1055.05 1319.77 1062.31 1319.77 Z" fill="#000000" fill-rule="nonzero" fill-opacity="1" /><path clip-path="url(#clip480)" d="M1100.01 1324.4 Q1095.5 1324.4 1093.21 1328.86 Q1090.96 1333.29 1090.96 1342.2 Q1090.96 1351.08 1093.21 1355.54 Q1095.5 1359.97 1100.01 1359.97 Q1104.55 1359.97 1106.81 1355.54 Q1109.1 1351.08 1109.1 1342.2 Q1109.1 1333.29 1106.81 1328.86 Q1104.55 1324.4 1100.01 1324.4 M1100.01 1319.77 Q1107.27 1319.77 1111.09 1325.53 Q1114.94 1331.26 1114.94 1342.2 Q1114.94 1353.11 1111.09 1358.87 Q1107.27 1364.59 1100.01 1364.59 Q1092.75 1364.59 1088.9 1358.87 Q1085.08 1353.11 1085.08 1342.2 Q1085.08 1331.26 1088.9 1325.53 Q1092.75 1319.77 1100.01 1319.77 Z" fill="#000000" fill-rule="nonzero" fill-opacity="1" /><path clip-path="url(#clip480)" d="M1439.4 1340.46 Q1443.6 1341.36 1445.94 1344.2 Q1448.32 1347.03 1448.32 1351.2 Q1448.32 1357.59 1443.92 1361.09 Q1439.52 1364.59 1431.42 1364.59 Q1428.7 1364.59 1425.8 1364.05 Q1422.94 1363.52 1419.87 1362.45 L1419.87 1356.81 Q1422.3 1358.23 1425.2 1358.95 Q1428.09 1359.68 1431.24 1359.68 Q1436.74 1359.68 1439.61 1357.51 Q1442.5 1355.34 1442.5 1351.2 Q1442.5 1347.38 1439.81 1345.24 Q1437.15 1343.07 1432.37 1343.07 L1427.34 1343.07 L1427.34 1338.26 L1432.6 1338.26 Q1436.91 1338.26 1439.2 1336.56 Q1441.49 1334.82 1441.49 1331.58 Q1441.49 1328.25 1439.11 1326.49 Q1436.77 1324.69 1432.37 1324.69 Q1429.97 1324.69 1427.22 1325.21 Q1424.47 1325.74 1421.17 1326.83 L1421.17 1321.63 Q1424.5 1320.7 1427.4 1320.24 Q1430.32 1319.77 1432.89 1319.77 Q1439.55 1319.77 1443.43 1322.81 Q1447.3 1325.82 1447.3 1330.97 Q1447.3 1334.56 1445.25 1337.05 Q1443.19 1339.51 1439.4 1340.46 Z" fill="#000000" fill-rule="nonzero" fill-opacity="1" /><path clip-path="url(#clip480)" d="M1471.9 1324.4 Q1467.38 1324.4 1465.1 1328.86 Q1462.84 1333.29 1462.84 1342.2 Q1462.84 1351.08 1465.1 1355.54 Q1467.38 1359.97 1471.9 1359.97 Q1476.44 1359.97 1478.7 1355.54 Q1480.98 1351.08 1480.98 1342.2 Q1480.98 1333.29 1478.7 1328.86 Q1476.44 1324.4 1471.9 1324.4 M1471.9 1319.77 Q1479.16 1319.77 1482.98 1325.53 Q1486.83 1331.26 1486.83 1342.2 Q1486.83 1353.11 1482.98 1358.87 Q1479.16 1364.59 1471.9 1364.59 Q1464.63 1364.59 1460.79 1358.87 Q1456.97 1353.11 1456.97 1342.2 Q1456.97 1331.26 1460.79 1325.53 Q1464.63 1319.77 1471.9 1319.77 Z" fill="#000000" fill-rule="nonzero" fill-opacity="1" /><path clip-path="url(#clip480)" d="M1509.6 1324.4 Q1505.09 1324.4 1502.8 1328.86 Q1500.54 1333.29 1500.54 1342.2 Q1500.54 1351.08 1502.8 1355.54 Q1505.09 1359.97 1509.6 1359.97 Q1514.14 1359.97 1516.4 1355.54 Q1518.69 1351.08 1518.69 1342.2 Q1518.69 1333.29 1516.4 1328.86 Q1514.14 1324.4 1509.6 1324.4 M1509.6 1319.77 Q1516.86 1319.77 1520.68 1325.53 Q1524.53 1331.26 1524.53 1342.2 Q1524.53 1353.11 1520.68 1358.87 Q1516.86 1364.59 1509.6 1364.59 Q1502.34 1364.59 1498.49 1358.87 Q1494.67 1353.11 1494.67 1342.2 Q1494.67 1331.26 1498.49 1325.53 Q1502.34 1319.77 1509.6 1319.77 Z" fill="#000000" fill-rule="nonzero" fill-opacity="1" /><path clip-path="url(#clip480)" d="M1848.24 1325.65 L1833.48 1348.71 L1848.24 1348.71 L1848.24 1325.65 M1846.71 1320.56 L1854.05 1320.56 L1854.05 1348.71 L1860.22 1348.71 L1860.22 1353.57 L1854.05 1353.57 L1854.05 1363.76 L1848.24 1363.76 L1848.24 1353.57 L1828.74 1353.57 L1828.74 1347.93 L1846.71 1320.56 Z" fill="#000000" fill-rule="nonzero" fill-opacity="1" /><path clip-path="url(#clip480)" d="M1882.38 1324.4 Q1877.87 1324.4 1875.58 1328.86 Q1873.33 1333.29 1873.33 1342.2 Q1873.33 1351.08 1875.58 1355.54 Q1877.87 1359.97 1882.38 1359.97 Q1886.93 1359.97 1889.18 1355.54 Q1891.47 1351.08 1891.47 1342.2 Q1891.47 1333.29 1889.18 1328.86 Q1886.93 1324.4 1882.38 1324.4 M1882.38 1319.77 Q1889.64 1319.77 1893.46 1325.53 Q1897.31 1331.26 1897.31 1342.2 Q1897.31 1353.11 1893.46 1358.87 Q1889.64 1364.59 1882.38 1364.59 Q1875.12 1364.59 1871.27 1358.87 Q1867.45 1353.11 1867.45 1342.2 Q1867.45 1331.26 1871.27 1325.53 Q1875.12 1319.77 1882.38 1319.77 Z" fill="#000000" fill-rule="nonzero" fill-opacity="1" /><path clip-path="url(#clip480)" d="M1920.08 1324.4 Q1915.57 1324.4 1913.28 1328.86 Q1911.03 1333.29 1911.03 1342.2 Q1911.03 1351.08 1913.28 1355.54 Q1915.57 1359.97 1920.08 1359.97 Q1924.63 1359.97 1926.88 1355.54 Q1929.17 1351.08 1929.17 1342.2 Q1929.17 1333.29 1926.88 1328.86 Q1924.63 1324.4 1920.08 1324.4 M1920.08 1319.77 Q1927.35 1319.77 1931.17 1325.53 Q1935.02 1331.26 1935.02 1342.2 Q1935.02 1353.11 1931.17 1358.87 Q1927.35 1364.59 1920.08 1364.59 Q1912.82 1364.59 1908.97 1358.87 Q1905.15 1353.11 1905.15 1342.2 Q1905.15 1331.26 1908.97 1325.53 Q1912.82 1319.77 1920.08 1319.77 Z" fill="#000000" fill-rule="nonzero" fill-opacity="1" /><path clip-path="url(#clip480)" d="M2241.07 1320.56 L2264.02 1320.56 L2264.02 1325.47 L2246.43 1325.47 L2246.43 1336.07 Q2247.7 1335.63 2248.97 1335.43 Q2250.25 1335.2 2251.52 1335.2 Q2258.75 1335.2 2262.98 1339.16 Q2267.2 1343.13 2267.2 1349.9 Q2267.2 1356.87 2262.86 1360.75 Q2258.52 1364.59 2250.62 1364.59 Q2247.9 1364.59 2245.07 1364.13 Q2242.26 1363.67 2239.25 1362.74 L2239.25 1356.87 Q2241.85 1358.29 2244.63 1358.98 Q2247.41 1359.68 2250.51 1359.68 Q2255.51 1359.68 2258.43 1357.04 Q2261.36 1354.41 2261.36 1349.9 Q2261.36 1345.38 2258.43 1342.75 Q2255.51 1340.12 2250.51 1340.12 Q2248.16 1340.12 2245.82 1340.64 Q2243.5 1341.16 2241.07 1342.26 L2241.07 1320.56 Z" fill="#000000" fill-rule="nonzero" fill-opacity="1" /><path clip-path="url(#clip480)" d="M2291.22 1324.4 Q2286.7 1324.4 2284.42 1328.86 Q2282.16 1333.29 2282.16 1342.2 Q2282.16 1351.08 2284.42 1355.54 Q2286.7 1359.97 2291.22 1359.97 Q2295.76 1359.97 2298.02 1355.54 Q2300.3 1351.08 2300.3 1342.2 Q2300.3 1333.29 2298.02 1328.86 Q2295.76 1324.4 2291.22 1324.4 M2291.22 1319.77 Q2298.48 1319.77 2302.3 1325.53 Q2306.15 1331.26 2306.15 1342.2 Q2306.15 1353.11 2302.3 1358.87 Q2298.48 1364.59 2291.22 1364.59 Q2283.96 1364.59 2280.11 1358.87 Q2276.29 1353.11 2276.29 1342.2 Q2276.29 1331.26 2280.11 1325.53 Q2283.96 1319.77 2291.22 1319.77 Z" fill="#000000" fill-rule="nonzero" fill-opacity="1" /><path clip-path="url(#clip480)" d="M2328.92 1324.4 Q2324.41 1324.4 2322.12 1328.86 Q2319.86 1333.29 2319.86 1342.2 Q2319.86 1351.08 2322.12 1355.54 Q2324.41 1359.97 2328.92 1359.97 Q2333.46 1359.97 2335.72 1355.54 Q2338.01 1351.08 2338.01 1342.2 Q2338.01 1333.29 2335.72 1328.86 Q2333.46 1324.4 2328.92 1324.4 M2328.92 1319.77 Q2336.18 1319.77 2340 1325.53 Q2343.85 1331.26 2343.85 1342.2 Q2343.85 1353.11 2340 1358.87 Q2336.18 1364.59 2328.92 1364.59 Q2321.66 1364.59 2317.81 1358.87 Q2313.99 1353.11 2313.99 1342.2 Q2313.99 1331.26 2317.81 1325.53 Q2321.66 1319.77 2328.92 1319.77 Z" fill="#000000" fill-rule="nonzero" fill-opacity="1" /><path clip-path="url(#clip480)" d="M902.525 1403.45 L913.543 1403.45 L940.36 1454.05 L940.36 1403.45 L948.3 1403.45 L948.3 1463.93 L937.281 1463.93 L910.464 1413.34 L910.464 1463.93 L902.525 1463.93 L902.525 1403.45 Z" fill="#000000" fill-rule="nonzero" fill-opacity="1" /><path clip-path="url(#clip480)" d="M963.491 1446.03 L963.491 1418.56 L970.944 1418.56 L970.944 1445.74 Q970.944 1452.18 973.456 1455.42 Q975.967 1458.63 980.991 1458.63 Q987.026 1458.63 990.51 1454.78 Q994.035 1450.93 994.035 1444.28 L994.035 1418.56 L1001.49 1418.56 L1001.49 1463.93 L994.035 1463.93 L994.035 1456.96 Q991.32 1461.1 987.715 1463.12 Q984.15 1465.11 979.411 1465.11 Q971.593 1465.11 967.542 1460.25 Q963.491 1455.38 963.491 1446.03 M982.246 1417.47 L982.246 1417.47 Z" fill="#000000" fill-rule="nonzero" fill-opacity="1" /><path clip-path="url(#clip480)" d="M1052.16 1427.27 Q1054.96 1422.25 1058.85 1419.86 Q1062.74 1417.47 1068 1417.47 Q1075.09 1417.47 1078.94 1422.45 Q1082.79 1427.39 1082.79 1436.55 L1082.79 1463.93 L1075.3 1463.93 L1075.3 1436.79 Q1075.3 1430.27 1072.99 1427.11 Q1070.68 1423.95 1065.94 1423.95 Q1060.15 1423.95 1056.78 1427.8 Q1053.42 1431.65 1053.42 1438.29 L1053.42 1463.93 L1045.93 1463.93 L1045.93 1436.79 Q1045.93 1430.23 1043.62 1427.11 Q1041.31 1423.95 1036.49 1423.95 Q1030.78 1423.95 1027.41 1427.84 Q1024.05 1431.69 1024.05 1438.29 L1024.05 1463.93 L1016.56 1463.93 L1016.56 1418.56 L1024.05 1418.56 L1024.05 1425.61 Q1026.6 1421.44 1030.17 1419.45 Q1033.73 1417.47 1038.63 1417.47 Q1043.58 1417.47 1047.02 1419.98 Q1050.5 1422.49 1052.16 1427.27 Z" fill="#000000" fill-rule="nonzero" fill-opacity="1" /><path clip-path="url(#clip480)" d="M1130.23 1441.29 Q1130.23 1433.06 1126.82 1428.41 Q1123.46 1423.71 1117.55 1423.71 Q1111.63 1423.71 1108.23 1428.41 Q1104.87 1433.06 1104.87 1441.29 Q1104.87 1449.51 1108.23 1454.21 Q1111.63 1458.87 1117.55 1458.87 Q1123.46 1458.87 1126.82 1454.21 Q1130.23 1449.51 1130.23 1441.29 M1104.87 1425.45 Q1107.22 1421.4 1110.78 1419.45 Q1114.39 1417.47 1119.37 1417.47 Q1127.63 1417.47 1132.78 1424.03 Q1137.96 1430.59 1137.96 1441.29 Q1137.96 1451.98 1132.78 1458.54 Q1127.63 1465.11 1119.37 1465.11 Q1114.39 1465.11 1110.78 1463.16 Q1107.22 1461.18 1104.87 1457.13 L1104.87 1463.93 L1097.37 1463.93 L1097.37 1400.9 L1104.87 1400.9 L1104.87 1425.45 Z" fill="#000000" fill-rule="nonzero" fill-opacity="1" /><path clip-path="url(#clip480)" d="M1189.13 1439.38 L1189.13 1443.03 L1154.86 1443.03 Q1155.34 1450.73 1159.47 1454.78 Q1163.65 1458.79 1171.06 1458.79 Q1175.35 1458.79 1179.36 1457.73 Q1183.41 1456.68 1187.38 1454.57 L1187.38 1461.62 Q1183.37 1463.32 1179.16 1464.22 Q1174.95 1465.11 1170.61 1465.11 Q1159.76 1465.11 1153.4 1458.79 Q1147.08 1452.47 1147.08 1441.69 Q1147.08 1430.55 1153.07 1424.03 Q1159.11 1417.47 1169.32 1417.47 Q1178.47 1417.47 1183.78 1423.38 Q1189.13 1429.26 1189.13 1439.38 M1181.67 1437.2 Q1181.59 1431.08 1178.23 1427.43 Q1174.91 1423.79 1169.4 1423.79 Q1163.16 1423.79 1159.39 1427.31 Q1155.67 1430.84 1155.1 1437.24 L1181.67 1437.2 Z" fill="#000000" fill-rule="nonzero" fill-opacity="1" /><path clip-path="url(#clip480)" d="M1227.65 1425.53 Q1226.39 1424.8 1224.9 1424.48 Q1223.44 1424.11 1221.65 1424.11 Q1215.34 1424.11 1211.93 1428.24 Q1208.57 1432.33 1208.57 1440.03 L1208.57 1463.93 L1201.08 1463.93 L1201.08 1418.56 L1208.57 1418.56 L1208.57 1425.61 Q1210.92 1421.48 1214.69 1419.49 Q1218.45 1417.47 1223.84 1417.47 Q1224.61 1417.47 1225.54 1417.59 Q1226.48 1417.67 1227.61 1417.87 L1227.65 1425.53 Z" fill="#000000" fill-rule="nonzero" fill-opacity="1" /><path clip-path="url(#clip480)" d="M1279.42 1423.79 Q1273.43 1423.79 1269.94 1428.49 Q1266.46 1433.14 1266.46 1441.29 Q1266.46 1449.43 1269.9 1454.13 Q1273.38 1458.79 1279.42 1458.79 Q1285.38 1458.79 1288.86 1454.09 Q1292.34 1449.39 1292.34 1441.29 Q1292.34 1433.23 1288.86 1428.53 Q1285.38 1423.79 1279.42 1423.79 M1279.42 1417.47 Q1289.14 1417.47 1294.69 1423.79 Q1300.24 1430.11 1300.24 1441.29 Q1300.24 1452.43 1294.69 1458.79 Q1289.14 1465.11 1279.42 1465.11 Q1269.66 1465.11 1264.11 1458.79 Q1258.6 1452.43 1258.6 1441.29 Q1258.6 1430.11 1264.11 1423.79 Q1269.66 1417.47 1279.42 1417.47 Z" fill="#000000" fill-rule="nonzero" fill-opacity="1" /><path clip-path="url(#clip480)" d="M1335.57 1400.9 L1335.57 1407.1 L1328.44 1407.1 Q1324.43 1407.1 1322.85 1408.72 Q1321.31 1410.34 1321.31 1414.55 L1321.31 1418.56 L1333.58 1418.56 L1333.58 1424.35 L1321.31 1424.35 L1321.31 1463.93 L1313.81 1463.93 L1313.81 1424.35 L1306.68 1424.35 L1306.68 1418.56 L1313.81 1418.56 L1313.81 1415.4 Q1313.81 1407.83 1317.34 1404.38 Q1320.86 1400.9 1328.52 1400.9 L1335.57 1400.9 Z" fill="#000000" fill-rule="nonzero" fill-opacity="1" /><path clip-path="url(#clip480)" d="M1394.47 1425.53 Q1393.21 1424.8 1391.71 1424.48 Q1390.25 1424.11 1388.47 1424.11 Q1382.15 1424.11 1378.75 1428.24 Q1375.39 1432.33 1375.39 1440.03 L1375.39 1463.93 L1367.89 1463.93 L1367.89 1418.56 L1375.39 1418.56 L1375.39 1425.61 Q1377.74 1421.48 1381.5 1419.49 Q1385.27 1417.47 1390.66 1417.47 Q1391.43 1417.47 1392.36 1417.59 Q1393.29 1417.67 1394.43 1417.87 L1394.47 1425.53 Z" fill="#000000" fill-rule="nonzero" fill-opacity="1" /><path clip-path="url(#clip480)" d="M1418.04 1423.79 Q1412.05 1423.79 1408.56 1428.49 Q1405.08 1433.14 1405.08 1441.29 Q1405.08 1449.43 1408.52 1454.13 Q1412.01 1458.79 1418.04 1458.79 Q1424 1458.79 1427.48 1454.09 Q1430.97 1449.39 1430.97 1441.29 Q1430.97 1433.23 1427.48 1428.53 Q1424 1423.79 1418.04 1423.79 M1418.04 1417.47 Q1427.76 1417.47 1433.31 1423.79 Q1438.86 1430.11 1438.86 1441.29 Q1438.86 1452.43 1433.31 1458.79 Q1427.76 1465.11 1418.04 1465.11 Q1408.28 1465.11 1402.73 1458.79 Q1397.22 1452.43 1397.22 1441.29 Q1397.22 1430.11 1402.73 1423.79 Q1408.28 1417.47 1418.04 1417.47 Z" fill="#000000" fill-rule="nonzero" fill-opacity="1" /><path clip-path="url(#clip480)" d="M1450.45 1446.03 L1450.45 1418.56 L1457.9 1418.56 L1457.9 1445.74 Q1457.9 1452.18 1460.42 1455.42 Q1462.93 1458.63 1467.95 1458.63 Q1473.99 1458.63 1477.47 1454.78 Q1480.99 1450.93 1480.99 1444.28 L1480.99 1418.56 L1488.45 1418.56 L1488.45 1463.93 L1480.99 1463.93 L1480.99 1456.96 Q1478.28 1461.1 1474.67 1463.12 Q1471.11 1465.11 1466.37 1465.11 Q1458.55 1465.11 1454.5 1460.25 Q1450.45 1455.38 1450.45 1446.03 M1469.21 1417.47 L1469.21 1417.47 Z" fill="#000000" fill-rule="nonzero" fill-opacity="1" /><path clip-path="url(#clip480)" d="M1541.51 1436.55 L1541.51 1463.93 L1534.06 1463.93 L1534.06 1436.79 Q1534.06 1430.35 1531.55 1427.15 Q1529.04 1423.95 1524.01 1423.95 Q1517.98 1423.95 1514.49 1427.8 Q1511.01 1431.65 1511.01 1438.29 L1511.01 1463.93 L1503.52 1463.93 L1503.52 1418.56 L1511.01 1418.56 L1511.01 1425.61 Q1513.68 1421.52 1517.29 1419.49 Q1520.94 1417.47 1525.68 1417.47 Q1533.49 1417.47 1537.5 1422.33 Q1541.51 1427.15 1541.51 1436.55 Z" fill="#000000" fill-rule="nonzero" fill-opacity="1" /><path clip-path="url(#clip480)" d="M1586.24 1425.45 L1586.24 1400.9 L1593.69 1400.9 L1593.69 1463.93 L1586.24 1463.93 L1586.24 1457.13 Q1583.89 1461.18 1580.28 1463.16 Q1576.72 1465.11 1571.69 1465.11 Q1563.47 1465.11 1558.28 1458.54 Q1553.14 1451.98 1553.14 1441.29 Q1553.14 1430.59 1558.28 1424.03 Q1563.47 1417.47 1571.69 1417.47 Q1576.72 1417.47 1580.28 1419.45 Q1583.89 1421.4 1586.24 1425.45 M1560.84 1441.29 Q1560.84 1449.51 1564.2 1454.21 Q1567.6 1458.87 1573.52 1458.87 Q1579.43 1458.87 1582.83 1454.21 Q1586.24 1449.51 1586.24 1441.29 Q1586.24 1433.06 1582.83 1428.41 Q1579.43 1423.71 1573.52 1423.71 Q1567.6 1423.71 1564.2 1428.41 Q1560.84 1433.06 1560.84 1441.29 Z" fill="#000000" fill-rule="nonzero" fill-opacity="1" /><path clip-path="url(#clip480)" d="M1637.97 1419.9 L1637.97 1426.95 Q1634.81 1425.33 1631.4 1424.52 Q1628 1423.71 1624.36 1423.71 Q1618.81 1423.71 1616.01 1425.41 Q1613.26 1427.11 1613.26 1430.51 Q1613.26 1433.1 1615.24 1434.6 Q1617.23 1436.06 1623.22 1437.4 L1625.77 1437.97 Q1633.71 1439.67 1637.03 1442.79 Q1640.4 1445.86 1640.4 1451.41 Q1640.4 1457.73 1635.37 1461.42 Q1630.39 1465.11 1621.64 1465.11 Q1618 1465.11 1614.03 1464.38 Q1610.1 1463.69 1605.72 1462.27 L1605.72 1454.57 Q1609.85 1456.72 1613.86 1457.81 Q1617.87 1458.87 1621.8 1458.87 Q1627.07 1458.87 1629.9 1457.09 Q1632.74 1455.26 1632.74 1451.98 Q1632.74 1448.94 1630.67 1447.32 Q1628.65 1445.7 1621.72 1444.2 L1619.13 1443.6 Q1612.2 1442.14 1609.12 1439.14 Q1606.05 1436.1 1606.05 1430.84 Q1606.05 1424.44 1610.58 1420.95 Q1615.12 1417.47 1623.46 1417.47 Q1627.6 1417.47 1631.24 1418.08 Q1634.89 1418.68 1637.97 1419.9 Z" fill="#000000" fill-rule="nonzero" fill-opacity="1" /><polyline clip-path="url(#clip482)" style="stroke:#000000; stroke-linecap:round; stroke-linejoin:round; stroke-width:2; stroke-opacity:0.1; fill:none" points="190.165,1104.85 2352.76,1104.85 "/>
<polyline clip-path="url(#clip482)" style="stroke:#000000; stroke-linecap:round; stroke-linejoin:round; stroke-width:2; stroke-opacity:0.1; fill:none" points="190.165,863.806 2352.76,863.806 "/>
<polyline clip-path="url(#clip482)" style="stroke:#000000; stroke-linecap:round; stroke-linejoin:round; stroke-width:2; stroke-opacity:0.1; fill:none" points="190.165,622.763 2352.76,622.763 "/>
<polyline clip-path="url(#clip482)" style="stroke:#000000; stroke-linecap:round; stroke-linejoin:round; stroke-width:2; stroke-opacity:0.1; fill:none" points="190.165,381.719 2352.76,381.719 "/>
<polyline clip-path="url(#clip482)" style="stroke:#000000; stroke-linecap:round; stroke-linejoin:round; stroke-width:2; stroke-opacity:0.1; fill:none" points="190.165,140.676 2352.76,140.676 "/>
<polyline clip-path="url(#clip480)" style="stroke:#000000; stroke-linecap:round; stroke-linejoin:round; stroke-width:4; stroke-opacity:1; fill:none" points="190.165,1290.56 190.165,47.2441 "/>
<polyline clip-path="url(#clip480)" style="stroke:#000000; stroke-linecap:round; stroke-linejoin:round; stroke-width:4; stroke-opacity:1; fill:none" points="190.165,1104.85 209.063,1104.85 "/>
<polyline clip-path="url(#clip480)" style="stroke:#000000; stroke-linecap:round; stroke-linejoin:round; stroke-width:4; stroke-opacity:1; fill:none" points="190.165,863.806 209.063,863.806 "/>
<polyline clip-path="url(#clip480)" style="stroke:#000000; stroke-linecap:round; stroke-linejoin:round; stroke-width:4; stroke-opacity:1; fill:none" points="190.165,622.763 209.063,622.763 "/>
<polyline clip-path="url(#clip480)" style="stroke:#000000; stroke-linecap:round; stroke-linejoin:round; stroke-width:4; stroke-opacity:1; fill:none" points="190.165,381.719 209.063,381.719 "/>
<polyline clip-path="url(#clip480)" style="stroke:#000000; stroke-linecap:round; stroke-linejoin:round; stroke-width:4; stroke-opacity:1; fill:none" points="190.165,140.676 209.063,140.676 "/>
<path clip-path="url(#clip480)" d="M142.186 1088.34 L127.43 1111.4 L142.186 1111.4 L142.186 1088.34 M140.653 1083.25 L148.002 1083.25 L148.002 1111.4 L154.165 1111.4 L154.165 1116.26 L148.002 1116.26 L148.002 1126.45 L142.186 1126.45 L142.186 1116.26 L122.684 1116.26 L122.684 1110.62 L140.653 1083.25 Z" fill="#000000" fill-rule="nonzero" fill-opacity="1" /><path clip-path="url(#clip480)" d="M128.037 842.206 L150.983 842.206 L150.983 847.125 L133.39 847.125 L133.39 857.715 Q134.663 857.281 135.936 857.078 Q137.21 856.847 138.483 856.847 Q145.716 856.847 149.941 860.811 Q154.165 864.775 154.165 871.546 Q154.165 878.519 149.825 882.397 Q145.485 886.245 137.586 886.245 Q134.866 886.245 132.03 885.782 Q129.223 885.319 126.214 884.393 L126.214 878.519 Q128.818 879.937 131.596 880.632 Q134.374 881.326 137.47 881.326 Q142.476 881.326 145.398 878.693 Q148.321 876.06 148.321 871.546 Q148.321 867.032 145.398 864.399 Q142.476 861.766 137.47 861.766 Q135.126 861.766 132.782 862.287 Q130.468 862.808 128.037 863.907 L128.037 842.206 Z" fill="#000000" fill-rule="nonzero" fill-opacity="1" /><path clip-path="url(#clip480)" d="M139.756 620.433 Q135.821 620.433 133.506 623.124 Q131.22 625.815 131.22 630.503 Q131.22 635.161 133.506 637.881 Q135.821 640.572 139.756 640.572 Q143.691 640.572 145.977 637.881 Q148.292 635.161 148.292 630.503 Q148.292 625.815 145.977 623.124 Q143.691 620.433 139.756 620.433 M151.359 602.117 L151.359 607.442 Q149.16 606.4 146.903 605.85 Q144.675 605.3 142.476 605.3 Q136.689 605.3 133.622 609.207 Q130.583 613.113 130.149 621.012 Q131.857 618.495 134.432 617.164 Q137.007 615.804 140.103 615.804 Q146.613 615.804 150.375 619.768 Q154.165 623.703 154.165 630.503 Q154.165 637.158 150.23 641.18 Q146.295 645.202 139.756 645.202 Q132.262 645.202 128.298 639.473 Q124.333 633.715 124.333 622.806 Q124.333 612.563 129.195 606.487 Q134.056 600.381 142.244 600.381 Q144.443 600.381 146.671 600.815 Q148.928 601.249 151.359 602.117 Z" fill="#000000" fill-rule="nonzero" fill-opacity="1" /><path clip-path="url(#clip480)" d="M126.388 360.119 L154.165 360.119 L154.165 362.608 L138.483 403.319 L132.377 403.319 L147.134 365.038 L126.388 365.038 L126.388 360.119 Z" fill="#000000" fill-rule="nonzero" fill-opacity="1" /><path clip-path="url(#clip480)" d="M139.351 141.761 Q135.184 141.761 132.782 143.989 Q130.41 146.217 130.41 150.124 Q130.41 154.03 132.782 156.258 Q135.184 158.486 139.351 158.486 Q143.517 158.486 145.919 156.258 Q148.321 154.001 148.321 150.124 Q148.321 146.217 145.919 143.989 Q143.546 141.761 139.351 141.761 M133.506 139.273 Q129.744 138.347 127.632 135.772 Q125.549 133.197 125.549 129.493 Q125.549 124.314 129.223 121.304 Q132.927 118.295 139.351 118.295 Q145.803 118.295 149.478 121.304 Q153.153 124.314 153.153 129.493 Q153.153 133.197 151.04 135.772 Q148.957 138.347 145.225 139.273 Q149.449 140.257 151.793 143.121 Q154.165 145.986 154.165 150.124 Q154.165 156.403 150.317 159.759 Q146.498 163.115 139.351 163.115 Q132.204 163.115 128.355 159.759 Q124.536 156.403 124.536 150.124 Q124.536 145.986 126.909 143.121 Q129.281 140.257 133.506 139.273 M131.365 130.043 Q131.365 133.399 133.448 135.28 Q135.56 137.161 139.351 137.161 Q143.112 137.161 145.225 135.28 Q147.366 133.399 147.366 130.043 Q147.366 126.686 145.225 124.805 Q143.112 122.925 139.351 122.925 Q135.56 122.925 133.448 124.805 Q131.365 126.686 131.365 130.043 Z" fill="#000000" fill-rule="nonzero" fill-opacity="1" /><path clip-path="url(#clip480)" d="M40.1838 750.647 Q41.075 748.014 43.9917 745.543 Q46.9083 743.032 52.0125 740.52 L68.5402 732.216 L68.5402 741.006 L53.0252 748.743 Q46.9488 751.741 44.9639 754.577 Q42.979 757.372 42.979 762.233 L42.979 771.145 L68.5402 771.145 L68.5402 779.328 L8.06016 779.328 L8.06016 760.855 Q8.06016 750.485 12.3946 745.381 Q16.7291 740.277 25.479 740.277 Q31.1908 740.277 34.9582 742.95 Q38.7255 745.584 40.1838 750.647 M14.7847 771.145 L36.2545 771.145 L36.2545 760.855 Q36.2545 754.941 33.5403 751.944 Q30.7857 748.905 25.479 748.905 Q20.1724 748.905 17.4988 751.944 Q14.7847 754.941 14.7847 760.855 L14.7847 771.145 Z" fill="#000000" fill-rule="nonzero" fill-opacity="1" /><path clip-path="url(#clip480)" d="M8.06016 721.683 L8.06016 709.49 L49.2173 694.056 L8.06016 678.541 L8.06016 666.348 L68.5402 666.348 L68.5402 674.328 L15.4328 674.328 L56.9141 689.924 L56.9141 698.147 L15.4328 713.743 L68.5402 713.743 L68.5402 721.683 L8.06016 721.683 Z" fill="#000000" fill-rule="nonzero" fill-opacity="1" /><path clip-path="url(#clip480)" d="M10.0451 613.848 L18.0254 613.848 Q15.7974 618.507 14.7036 622.639 Q13.6099 626.771 13.6099 630.619 Q13.6099 637.303 16.2025 640.949 Q18.7951 644.554 23.5751 644.554 Q27.5855 644.554 29.6515 642.164 Q31.6769 639.733 32.9327 633.009 L33.9454 628.067 Q35.6873 618.912 40.1028 614.577 Q44.4778 610.202 51.8504 610.202 Q60.6409 610.202 65.1779 616.117 Q69.7149 621.99 69.7149 633.374 Q69.7149 637.667 68.7427 642.529 Q67.7705 647.349 65.8666 652.534 L57.4407 652.534 Q60.2358 647.552 61.6536 642.772 Q63.0714 637.992 63.0714 633.374 Q63.0714 626.365 60.3168 622.558 Q57.5622 618.75 52.4581 618.75 Q48.0021 618.75 45.4905 621.504 Q42.979 624.218 41.7232 630.457 L40.751 635.439 Q38.928 644.595 35.0392 648.686 Q31.1503 652.777 24.2233 652.777 Q16.2025 652.777 11.5844 647.147 Q6.96641 641.475 6.96641 631.551 Q6.96641 627.297 7.73609 622.882 Q8.50576 618.466 10.0451 613.848 Z" fill="#000000" fill-rule="nonzero" fill-opacity="1" /><path clip-path="url(#clip480)" d="M8.06016 597.442 L8.06016 559.201 L14.9467 559.201 L14.9467 589.259 L32.8517 589.259 L32.8517 560.457 L39.7382 560.457 L39.7382 589.259 L61.6536 589.259 L61.6536 558.472 L68.5402 558.472 L68.5402 597.442 L8.06016 597.442 Z" fill="#000000" fill-rule="nonzero" fill-opacity="1" /><polyline clip-path="url(#clip482)" style="stroke:#009af9; stroke-linecap:round; stroke-linejoin:round; stroke-width:4; stroke-opacity:1; fill:none" points="251.371,82.4322 284.145,770.349 321.016,1039.14 353.79,1115.46 390.66,1147.73 423.434,1170.02 460.305,1181.57 493.079,1191.1 529.95,1201.83 562.724,1206.29 595.498,1213.43 632.368,1221.85 665.142,1227.96 702.013,1230.49 734.787,1234.85 771.658,1236.37 804.432,1238.13 837.206,1240.86 874.076,1243.1 906.85,1243.73 943.721,1246.83 976.495,1249.47 1013.37,1249.53 1046.14,1250.25 1083.01,1251.07 1115.78,1252.42 1148.56,1252.17 1185.43,1252.79 1218.2,1252.46 1255.07,1253.28 1287.85,1253.35 1324.72,1253.49 1357.49,1253.16 1394.36,1254.32 1427.14,1254.6 1459.91,1255.22 1496.78,1255.37 1529.56,1254.45 1566.43,1254.57 1599.2,1254.81 1636.07,1254.53 1668.85,1254.75 1705.72,1254.71 1738.49,1254.78 1771.26,1254.51 1808.13,1254.19 1840.91,1254.18 1877.78,1254.84 1910.55,1254.53 1947.42,1255.01 1980.2,1254.51 2012.97,1254.21 2049.84,1253.86 2082.62,1253.85 2119.49,1253.55 2152.26,1254.07 2189.13,1253.6 2221.91,1253.56 2258.78,1253.4 2291.55,1253.52 "/>
<path clip-path="url(#clip480)" d="M1998.87 218.288 L2280.67 218.288 L2280.67 88.6878 L1998.87 88.6878  Z" fill="#ffffff" fill-rule="evenodd" fill-opacity="1"/>
<polyline clip-path="url(#clip480)" style="stroke:#000000; stroke-linecap:round; stroke-linejoin:round; stroke-width:4; stroke-opacity:1; fill:none" points="1998.87,218.288 2280.67,218.288 2280.67,88.6878 1998.87,88.6878 1998.87,218.288 "/>
<polyline clip-path="url(#clip480)" style="stroke:#009af9; stroke-linecap:round; stroke-linejoin:round; stroke-width:5; stroke-opacity:1; fill:none" points="2022.9,153.488 2167.07,153.488 "/>
<path clip-path="url(#clip480)" d="M2208.41 178.097 Q2206.15 183.884 2204.01 185.649 Q2201.87 187.414 2198.28 187.414 L2194.03 187.414 L2194.03 182.958 L2197.15 182.958 Q2199.35 182.958 2200.56 181.916 Q2201.78 180.875 2203.26 176.998 L2204.21 174.567 L2191.1 142.681 L2196.75 142.681 L2206.87 168.028 L2217 142.681 L2222.64 142.681 L2208.41 178.097 Z" fill="#000000" fill-rule="nonzero" fill-opacity="1" /><path clip-path="url(#clip480)" d="M2231.76 170.169 L2241.31 170.169 L2241.31 137.212 L2230.92 139.295 L2230.92 133.971 L2241.25 131.888 L2247.09 131.888 L2247.09 170.169 L2256.64 170.169 L2256.64 175.088 L2231.76 175.088 L2231.76 170.169 Z" fill="#000000" fill-rule="nonzero" fill-opacity="1" /></svg>
