<?xml version="1.0" encoding="utf-8"?>
<svg xmlns="http://www.w3.org/2000/svg" xmlns:xlink="http://www.w3.org/1999/xlink" width="600" height="370" viewBox="0 0 2400 1480">
<defs>
  <clipPath id="clip520">
    <rect x="0" y="0" width="2400" height="1480"/>
  </clipPath>
</defs>
<path clip-path="url(#clip520)" d="M0 1480 L2400 1480 L2400 0 L0 0  Z" fill="#ffffff" fill-rule="evenodd" fill-opacity="1"/>
<defs>
  <clipPath id="clip521">
    <rect x="480" y="0" width="1681" height="1480"/>
  </clipPath>
</defs>
<path clip-path="url(#clip520)" d="M190.165 1276.35 L2352.76 1276.35 L2352.76 47.2441 L190.165 47.2441  Z" fill="#ffffff" fill-rule="evenodd" fill-opacity="1"/>
<defs>
  <clipPath id="clip522">
    <rect x="190" y="47" width="2164" height="1230"/>
  </clipPath>
</defs>
<polyline clip-path="url(#clip522)" style="stroke:#000000; stroke-linecap:round; stroke-linejoin:round; stroke-width:2; stroke-opacity:0.1; fill:none" points="931.431,1276.35 931.431,47.2441 "/>
<polyline clip-path="url(#clip522)" style="stroke:#000000; stroke-linecap:round; stroke-linejoin:round; stroke-width:2; stroke-opacity:0.1; fill:none" points="2291.55,1276.35 2291.55,47.2441 "/>
<polyline clip-path="url(#clip520)" style="stroke:#000000; stroke-linecap:round; stroke-linejoin:round; stroke-width:4; stroke-opacity:1; fill:none" points="190.165,1276.35 2352.76,1276.35 "/>
<polyline clip-path="url(#clip520)" style="stroke:#000000; stroke-linecap:round; stroke-linejoin:round; stroke-width:4; stroke-opacity:1; fill:none" points="931.431,1276.35 931.431,1257.46 "/>
<polyline clip-path="url(#clip520)" style="stroke:#000000; stroke-linecap:round; stroke-linejoin:round; stroke-width:4; stroke-opacity:1; fill:none" points="2291.55,1276.35 2291.55,1257.46 "/>
<path clip-path="url(#clip520)" d="M869.263 1364.21 L878.811 1364.21 L878.811 1331.25 L868.424 1333.34 L868.424 1328.01 L878.754 1325.93 L884.598 1325.93 L884.598 1364.21 L894.147 1364.21 L894.147 1369.13 L869.263 1369.13 L869.263 1364.21 Z" fill="#000000" fill-rule="nonzero" fill-opacity="1" /><path clip-path="url(#clip520)" d="M918.452 1329.78 Q913.939 1329.78 911.653 1334.23 Q909.396 1338.66 909.396 1347.57 Q909.396 1356.45 911.653 1360.91 Q913.939 1365.34 918.452 1365.34 Q922.995 1365.34 925.252 1360.91 Q927.538 1356.45 927.538 1347.57 Q927.538 1338.66 925.252 1334.23 Q922.995 1329.78 918.452 1329.78 M918.452 1325.15 Q925.715 1325.15 929.535 1330.91 Q933.383 1336.63 933.383 1347.57 Q933.383 1358.48 929.535 1364.24 Q925.715 1369.97 918.452 1369.97 Q911.19 1369.97 907.341 1364.24 Q903.522 1358.48 903.522 1347.57 Q903.522 1336.63 907.341 1330.91 Q911.19 1325.15 918.452 1325.15 Z" fill="#000000" fill-rule="nonzero" fill-opacity="1" /><path clip-path="url(#clip520)" d="M933.383 1317.77 L963.522 1317.77 L963.522 1321.77 L933.383 1321.77 L933.383 1317.77 Z" fill="#000000" fill-rule="nonzero" fill-opacity="1" /><path clip-path="url(#clip520)" d="M977.863 1330.87 L994.438 1330.87 L994.438 1334.87 L972.15 1334.87 L972.15 1330.87 Q974.854 1328.07 979.509 1323.37 Q984.187 1318.64 985.386 1317.28 Q987.667 1314.72 988.56 1312.95 Q989.477 1311.17 989.477 1309.45 Q989.477 1306.65 987.502 1304.89 Q985.551 1303.13 982.401 1303.13 Q980.167 1303.13 977.675 1303.9 Q975.207 1304.68 972.386 1306.25 L972.386 1301.46 Q975.254 1300.31 977.746 1299.72 Q980.238 1299.13 982.307 1299.13 Q987.761 1299.13 991.005 1301.86 Q994.25 1304.58 994.25 1309.15 Q994.25 1311.31 993.427 1313.26 Q992.627 1315.19 990.488 1317.82 Q989.9 1318.5 986.75 1321.77 Q983.6 1325.01 977.863 1330.87 Z" fill="#000000" fill-rule="nonzero" fill-opacity="1" /><path clip-path="url(#clip520)" d="M2247.78 1364.21 L2257.33 1364.21 L2257.33 1331.25 L2246.94 1333.34 L2246.94 1328.01 L2257.27 1325.93 L2263.11 1325.93 L2263.11 1364.21 L2272.66 1364.21 L2272.66 1369.13 L2247.78 1369.13 L2247.78 1364.21 Z" fill="#000000" fill-rule="nonzero" fill-opacity="1" /><path clip-path="url(#clip520)" d="M2296.97 1329.78 Q2292.45 1329.78 2290.17 1334.23 Q2287.91 1338.66 2287.91 1347.57 Q2287.91 1356.45 2290.17 1360.91 Q2292.45 1365.34 2296.97 1365.34 Q2301.51 1365.34 2303.77 1360.91 Q2306.05 1356.45 2306.05 1347.57 Q2306.05 1338.66 2303.77 1334.23 Q2301.51 1329.78 2296.97 1329.78 M2296.97 1325.15 Q2304.23 1325.15 2308.05 1330.91 Q2311.9 1336.63 2311.9 1347.57 Q2311.9 1358.48 2308.05 1364.24 Q2304.23 1369.97 2296.97 1369.97 Q2289.71 1369.97 2285.86 1364.24 Q2282.04 1358.48 2282.04 1347.57 Q2282.04 1336.63 2285.86 1330.91 Q2289.71 1325.15 2296.97 1325.15 Z" fill="#000000" fill-rule="nonzero" fill-opacity="1" /><path clip-path="url(#clip520)" d="M2324.03 1302.89 Q2320.36 1302.89 2318.51 1306.51 Q2316.67 1310.11 2316.67 1317.35 Q2316.67 1324.57 2318.51 1328.19 Q2320.36 1331.79 2324.03 1331.79 Q2327.72 1331.79 2329.55 1328.19 Q2331.41 1324.57 2331.41 1317.35 Q2331.41 1310.11 2329.55 1306.51 Q2327.72 1302.89 2324.03 1302.89 M2324.03 1299.13 Q2329.93 1299.13 2333.03 1303.81 Q2336.16 1308.46 2336.16 1317.35 Q2336.16 1326.21 2333.03 1330.89 Q2329.93 1335.55 2324.03 1335.55 Q2318.13 1335.55 2315 1330.89 Q2311.9 1326.21 2311.9 1317.35 Q2311.9 1308.46 2315 1303.81 Q2318.13 1299.13 2324.03 1299.13 Z" fill="#000000" fill-rule="nonzero" fill-opacity="1" /><path clip-path="url(#clip520)" d="M772.713 1412.28 L780.896 1412.28 L780.896 1465.87 L810.346 1465.87 L810.346 1472.76 L772.713 1472.76 L772.713 1412.28 Z" fill="#000000" fill-rule="nonzero" fill-opacity="1" /><path clip-path="url(#clip520)" d="M855.959 1448.21 L855.959 1451.86 L821.689 1451.86 Q822.175 1459.55 826.307 1463.61 Q830.479 1467.62 837.892 1467.62 Q842.186 1467.62 846.197 1466.56 Q850.248 1465.51 854.218 1463.4 L854.218 1470.45 Q850.207 1472.15 845.994 1473.04 Q841.781 1473.94 837.447 1473.94 Q826.59 1473.94 820.23 1467.62 Q813.911 1461.3 813.911 1450.52 Q813.911 1439.38 819.906 1432.86 Q825.942 1426.3 836.151 1426.3 Q845.306 1426.3 850.612 1432.21 Q855.959 1438.08 855.959 1448.21 M848.506 1446.02 Q848.425 1439.91 845.063 1436.26 Q841.741 1432.62 836.232 1432.62 Q829.993 1432.62 826.226 1436.14 Q822.499 1439.66 821.932 1446.06 L848.506 1446.02 Z" fill="#000000" fill-rule="nonzero" fill-opacity="1" /><path clip-path="url(#clip520)" d="M888.812 1449.95 Q879.779 1449.95 876.295 1452.02 Q872.811 1454.09 872.811 1459.07 Q872.811 1463.04 875.404 1465.39 Q878.037 1467.7 882.533 1467.7 Q888.731 1467.7 892.458 1463.32 Q896.225 1458.91 896.225 1451.61 L896.225 1449.95 L888.812 1449.95 M903.679 1446.88 L903.679 1472.76 L896.225 1472.76 L896.225 1465.87 Q893.673 1470.01 889.866 1471.99 Q886.058 1473.94 880.548 1473.94 Q873.581 1473.94 869.449 1470.05 Q865.358 1466.12 865.358 1459.55 Q865.358 1451.9 870.462 1448.01 Q875.606 1444.12 885.774 1444.12 L896.225 1444.12 L896.225 1443.39 Q896.225 1438.25 892.823 1435.45 Q889.46 1432.62 883.344 1432.62 Q879.455 1432.62 875.768 1433.55 Q872.082 1434.48 868.679 1436.34 L868.679 1429.46 Q872.771 1427.88 876.619 1427.11 Q880.467 1426.3 884.113 1426.3 Q893.957 1426.3 898.818 1431.4 Q903.679 1436.5 903.679 1446.88 Z" fill="#000000" fill-rule="nonzero" fill-opacity="1" /><path clip-path="url(#clip520)" d="M945.322 1434.36 Q944.067 1433.63 942.568 1433.3 Q941.109 1432.94 939.327 1432.94 Q933.008 1432.94 929.605 1437.07 Q926.243 1441.16 926.243 1448.86 L926.243 1472.76 L918.748 1472.76 L918.748 1427.39 L926.243 1427.39 L926.243 1434.44 Q928.592 1430.31 932.359 1428.32 Q936.127 1426.3 941.515 1426.3 Q942.284 1426.3 943.216 1426.42 Q944.148 1426.5 945.282 1426.7 L945.322 1434.36 Z" fill="#000000" fill-rule="nonzero" fill-opacity="1" /><path clip-path="url(#clip520)" d="M989.396 1445.38 L989.396 1472.76 L981.943 1472.76 L981.943 1445.62 Q981.943 1439.18 979.431 1435.98 Q976.919 1432.78 971.896 1432.78 Q965.86 1432.78 962.377 1436.63 Q958.893 1440.47 958.893 1447.12 L958.893 1472.76 L951.399 1472.76 L951.399 1427.39 L958.893 1427.39 L958.893 1434.44 Q961.567 1430.35 965.172 1428.32 Q968.818 1426.3 973.557 1426.3 Q981.375 1426.3 985.386 1431.16 Q989.396 1435.98 989.396 1445.38 Z" fill="#000000" fill-rule="nonzero" fill-opacity="1" /><path clip-path="url(#clip520)" d="M1004.26 1427.39 L1011.72 1427.39 L1011.72 1472.76 L1004.26 1472.76 L1004.26 1427.39 M1004.26 1409.73 L1011.72 1409.73 L1011.72 1419.17 L1004.26 1419.17 L1004.26 1409.73 Z" fill="#000000" fill-rule="nonzero" fill-opacity="1" /><path clip-path="url(#clip520)" d="M1065.03 1445.38 L1065.03 1472.76 L1057.57 1472.76 L1057.57 1445.62 Q1057.57 1439.18 1055.06 1435.98 Q1052.55 1432.78 1047.53 1432.78 Q1041.49 1432.78 1038.01 1436.63 Q1034.52 1440.47 1034.52 1447.12 L1034.52 1472.76 L1027.03 1472.76 L1027.03 1427.39 L1034.52 1427.39 L1034.52 1434.44 Q1037.2 1430.35 1040.8 1428.32 Q1044.45 1426.3 1049.19 1426.3 Q1057.01 1426.3 1061.02 1431.16 Q1065.03 1435.98 1065.03 1445.38 Z" fill="#000000" fill-rule="nonzero" fill-opacity="1" /><path clip-path="url(#clip520)" d="M1109.75 1449.55 Q1109.75 1441.45 1106.39 1436.99 Q1103.06 1432.53 1097.03 1432.53 Q1091.03 1432.53 1087.67 1436.99 Q1084.35 1441.45 1084.35 1449.55 Q1084.35 1457.61 1087.67 1462.07 Q1091.03 1466.52 1097.03 1466.52 Q1103.06 1466.52 1106.39 1462.07 Q1109.75 1457.61 1109.75 1449.55 M1117.2 1467.13 Q1117.2 1478.72 1112.06 1484.35 Q1106.91 1490.02 1096.3 1490.02 Q1092.37 1490.02 1088.89 1489.41 Q1085.4 1488.84 1082.12 1487.63 L1082.12 1480.38 Q1085.4 1482.16 1088.6 1483.01 Q1091.8 1483.86 1095.12 1483.86 Q1102.46 1483.86 1106.1 1480.01 Q1109.75 1476.2 1109.75 1468.47 L1109.75 1464.78 Q1107.44 1468.79 1103.83 1470.78 Q1100.23 1472.76 1095.21 1472.76 Q1086.86 1472.76 1081.76 1466.4 Q1076.65 1460.04 1076.65 1449.55 Q1076.65 1439.02 1081.76 1432.66 Q1086.86 1426.3 1095.21 1426.3 Q1100.23 1426.3 1103.83 1428.28 Q1107.44 1430.27 1109.75 1434.28 L1109.75 1427.39 L1117.2 1427.39 L1117.2 1467.13 Z" fill="#000000" fill-rule="nonzero" fill-opacity="1" /><path clip-path="url(#clip520)" d="M1185.22 1434.36 Q1183.96 1433.63 1182.46 1433.3 Q1181 1432.94 1179.22 1432.94 Q1172.9 1432.94 1169.5 1437.07 Q1166.14 1441.16 1166.14 1448.86 L1166.14 1472.76 L1158.64 1472.76 L1158.64 1427.39 L1166.14 1427.39 L1166.14 1434.44 Q1168.49 1430.31 1172.25 1428.32 Q1176.02 1426.3 1181.41 1426.3 Q1182.18 1426.3 1183.11 1426.42 Q1184.04 1426.5 1185.18 1426.7 L1185.22 1434.36 Z" fill="#000000" fill-rule="nonzero" fill-opacity="1" /><path clip-path="url(#clip520)" d="M1213.65 1449.95 Q1204.62 1449.95 1201.14 1452.02 Q1197.65 1454.09 1197.65 1459.07 Q1197.65 1463.04 1200.25 1465.39 Q1202.88 1467.7 1207.38 1467.7 Q1213.57 1467.7 1217.3 1463.32 Q1221.07 1458.91 1221.07 1451.61 L1221.07 1449.95 L1213.65 1449.95 M1228.52 1446.88 L1228.52 1472.76 L1221.07 1472.76 L1221.07 1465.87 Q1218.52 1470.01 1214.71 1471.99 Q1210.9 1473.94 1205.39 1473.94 Q1198.42 1473.94 1194.29 1470.05 Q1190.2 1466.12 1190.2 1459.55 Q1190.2 1451.9 1195.3 1448.01 Q1200.45 1444.12 1210.62 1444.12 L1221.07 1444.12 L1221.07 1443.39 Q1221.07 1438.25 1217.66 1435.45 Q1214.3 1432.62 1208.19 1432.62 Q1204.3 1432.62 1200.61 1433.55 Q1196.92 1434.48 1193.52 1436.34 L1193.52 1429.46 Q1197.61 1427.88 1201.46 1427.11 Q1205.31 1426.3 1208.96 1426.3 Q1218.8 1426.3 1223.66 1431.4 Q1228.52 1436.5 1228.52 1446.88 Z" fill="#000000" fill-rule="nonzero" fill-opacity="1" /><path clip-path="url(#clip520)" d="M1251.25 1414.51 L1251.25 1427.39 L1266.6 1427.39 L1266.6 1433.18 L1251.25 1433.18 L1251.25 1457.81 Q1251.25 1463.36 1252.75 1464.94 Q1254.28 1466.52 1258.94 1466.52 L1266.6 1466.52 L1266.6 1472.76 L1258.94 1472.76 Q1250.31 1472.76 1247.03 1469.56 Q1243.75 1466.32 1243.75 1457.81 L1243.75 1433.18 L1238.28 1433.18 L1238.28 1427.39 L1243.75 1427.39 L1243.75 1414.51 L1251.25 1414.51 Z" fill="#000000" fill-rule="nonzero" fill-opacity="1" /><path clip-path="url(#clip520)" d="M1315.21 1448.21 L1315.21 1451.86 L1280.94 1451.86 Q1281.43 1459.55 1285.56 1463.61 Q1289.73 1467.62 1297.14 1467.62 Q1301.44 1467.62 1305.45 1466.56 Q1309.5 1465.51 1313.47 1463.4 L1313.47 1470.45 Q1309.46 1472.15 1305.25 1473.04 Q1301.03 1473.94 1296.7 1473.94 Q1285.84 1473.94 1279.48 1467.62 Q1273.16 1461.3 1273.16 1450.52 Q1273.16 1439.38 1279.16 1432.86 Q1285.19 1426.3 1295.4 1426.3 Q1304.56 1426.3 1309.86 1432.21 Q1315.21 1438.08 1315.21 1448.21 M1307.76 1446.02 Q1307.68 1439.91 1304.31 1436.26 Q1300.99 1432.62 1295.48 1432.62 Q1289.24 1432.62 1285.48 1436.14 Q1281.75 1439.66 1281.18 1446.06 L1307.76 1446.02 Z" fill="#000000" fill-rule="nonzero" fill-opacity="1" /><path clip-path="url(#clip520)" d="M1371.72 1409.81 Q1366.29 1419.13 1363.66 1428.24 Q1361.03 1437.36 1361.03 1446.71 Q1361.03 1456.07 1363.66 1465.27 Q1366.33 1474.42 1371.72 1483.7 L1365.24 1483.7 Q1359.16 1474.18 1356.12 1464.98 Q1353.13 1455.79 1353.13 1446.71 Q1353.13 1437.68 1356.12 1428.52 Q1359.12 1419.37 1365.24 1409.81 L1371.72 1409.81 Z" fill="#000000" fill-rule="nonzero" fill-opacity="1" /><path clip-path="url(#clip520)" d="M1386.18 1409.73 L1393.64 1409.73 L1393.64 1472.76 L1386.18 1472.76 L1386.18 1409.73 Z" fill="#000000" fill-rule="nonzero" fill-opacity="1" /><path clip-path="url(#clip520)" d="M1426.81 1432.62 Q1420.82 1432.62 1417.33 1437.31 Q1413.85 1441.97 1413.85 1450.12 Q1413.85 1458.26 1417.29 1462.96 Q1420.78 1467.62 1426.81 1467.62 Q1432.77 1467.62 1436.25 1462.92 Q1439.74 1458.22 1439.74 1450.12 Q1439.74 1442.05 1436.25 1437.36 Q1432.77 1432.62 1426.81 1432.62 M1426.81 1426.3 Q1436.54 1426.3 1442.08 1432.62 Q1447.63 1438.94 1447.63 1450.12 Q1447.63 1461.26 1442.08 1467.62 Q1436.54 1473.94 1426.81 1473.94 Q1417.05 1473.94 1411.5 1467.62 Q1405.99 1461.26 1405.99 1450.12 Q1405.99 1438.94 1411.5 1432.62 Q1417.05 1426.3 1426.81 1426.3 Z" fill="#000000" fill-rule="nonzero" fill-opacity="1" /><path clip-path="url(#clip520)" d="M1489.84 1449.55 Q1489.84 1441.45 1486.48 1436.99 Q1483.16 1432.53 1477.13 1432.53 Q1471.13 1432.53 1467.77 1436.99 Q1464.45 1441.45 1464.45 1449.55 Q1464.45 1457.61 1467.77 1462.07 Q1471.13 1466.52 1477.13 1466.52 Q1483.16 1466.52 1486.48 1462.07 Q1489.84 1457.61 1489.84 1449.55 M1497.3 1467.13 Q1497.3 1478.72 1492.15 1484.35 Q1487.01 1490.02 1476.4 1490.02 Q1472.47 1490.02 1468.98 1489.41 Q1465.5 1488.84 1462.22 1487.63 L1462.22 1480.38 Q1465.5 1482.16 1468.7 1483.01 Q1471.9 1483.86 1475.22 1483.86 Q1482.55 1483.86 1486.2 1480.01 Q1489.84 1476.2 1489.84 1468.47 L1489.84 1464.78 Q1487.54 1468.79 1483.93 1470.78 Q1480.33 1472.76 1475.3 1472.76 Q1466.96 1472.76 1461.85 1466.4 Q1456.75 1460.04 1456.75 1449.55 Q1456.75 1439.02 1461.85 1432.66 Q1466.96 1426.3 1475.3 1426.3 Q1480.33 1426.3 1483.93 1428.28 Q1487.54 1430.27 1489.84 1434.28 L1489.84 1427.39 L1497.3 1427.39 L1497.3 1467.13 Z" fill="#000000" fill-rule="nonzero" fill-opacity="1" /><path clip-path="url(#clip520)" d="M1567.95 1428.73 L1567.95 1435.78 Q1564.79 1434.16 1561.38 1433.35 Q1557.98 1432.53 1554.34 1432.53 Q1548.79 1432.53 1545.99 1434.24 Q1543.24 1435.94 1543.24 1439.34 Q1543.24 1441.93 1545.22 1443.43 Q1547.21 1444.89 1553.2 1446.23 L1555.75 1446.79 Q1563.69 1448.5 1567.01 1451.61 Q1570.38 1454.69 1570.38 1460.24 Q1570.38 1466.56 1565.35 1470.25 Q1560.37 1473.94 1551.62 1473.94 Q1547.98 1473.94 1544.01 1473.21 Q1540.08 1472.52 1535.7 1471.1 L1535.7 1463.4 Q1539.83 1465.55 1543.84 1466.64 Q1547.85 1467.7 1551.78 1467.7 Q1557.05 1467.7 1559.89 1465.91 Q1562.72 1464.09 1562.72 1460.81 Q1562.72 1457.77 1560.65 1456.15 Q1558.63 1454.53 1551.7 1453.03 L1549.11 1452.42 Q1542.18 1450.97 1539.1 1447.97 Q1536.03 1444.93 1536.03 1439.66 Q1536.03 1433.26 1540.56 1429.78 Q1545.1 1426.3 1553.44 1426.3 Q1557.58 1426.3 1561.22 1426.9 Q1564.87 1427.51 1567.95 1428.73 Z" fill="#000000" fill-rule="nonzero" fill-opacity="1" /><path clip-path="url(#clip520)" d="M1614.9 1429.13 L1614.9 1436.1 Q1611.74 1434.36 1608.54 1433.51 Q1605.38 1432.62 1602.14 1432.62 Q1594.88 1432.62 1590.87 1437.23 Q1586.86 1441.81 1586.86 1450.12 Q1586.86 1458.42 1590.87 1463.04 Q1594.88 1467.62 1602.14 1467.62 Q1605.38 1467.62 1608.54 1466.77 Q1611.74 1465.87 1614.9 1464.13 L1614.9 1471.02 Q1611.78 1472.48 1608.41 1473.21 Q1605.09 1473.94 1601.33 1473.94 Q1591.08 1473.94 1585.04 1467.49 Q1579.01 1461.05 1579.01 1450.12 Q1579.01 1439.02 1585.08 1432.66 Q1591.2 1426.3 1601.81 1426.3 Q1605.26 1426.3 1608.54 1427.03 Q1611.82 1427.71 1614.9 1429.13 Z" fill="#000000" fill-rule="nonzero" fill-opacity="1" /><path clip-path="url(#clip520)" d="M1648.48 1449.95 Q1639.44 1449.95 1635.96 1452.02 Q1632.48 1454.09 1632.48 1459.07 Q1632.48 1463.04 1635.07 1465.39 Q1637.7 1467.7 1642.2 1467.7 Q1648.4 1467.7 1652.12 1463.32 Q1655.89 1458.91 1655.89 1451.61 L1655.89 1449.95 L1648.48 1449.95 M1663.35 1446.88 L1663.35 1472.76 L1655.89 1472.76 L1655.89 1465.87 Q1653.34 1470.01 1649.53 1471.99 Q1645.72 1473.94 1640.21 1473.94 Q1633.25 1473.94 1629.12 1470.05 Q1625.02 1466.12 1625.02 1459.55 Q1625.02 1451.9 1630.13 1448.01 Q1635.27 1444.12 1645.44 1444.12 L1655.89 1444.12 L1655.89 1443.39 Q1655.89 1438.25 1652.49 1435.45 Q1649.13 1432.62 1643.01 1432.62 Q1639.12 1432.62 1635.43 1433.55 Q1631.75 1434.48 1628.35 1436.34 L1628.35 1429.46 Q1632.44 1427.88 1636.29 1427.11 Q1640.13 1426.3 1643.78 1426.3 Q1653.62 1426.3 1658.48 1431.4 Q1663.35 1436.5 1663.35 1446.88 Z" fill="#000000" fill-rule="nonzero" fill-opacity="1" /><path clip-path="url(#clip520)" d="M1678.7 1409.73 L1686.15 1409.73 L1686.15 1472.76 L1678.7 1472.76 L1678.7 1409.73 Z" fill="#000000" fill-rule="nonzero" fill-opacity="1" /><path clip-path="url(#clip520)" d="M1740.56 1448.21 L1740.56 1451.86 L1706.28 1451.86 Q1706.77 1459.55 1710.9 1463.61 Q1715.08 1467.62 1722.49 1467.62 Q1726.78 1467.62 1730.79 1466.56 Q1734.84 1465.51 1738.81 1463.4 L1738.81 1470.45 Q1734.8 1472.15 1730.59 1473.04 Q1726.38 1473.94 1722.04 1473.94 Q1711.19 1473.94 1704.83 1467.62 Q1698.51 1461.3 1698.51 1450.52 Q1698.51 1439.38 1704.5 1432.86 Q1710.54 1426.3 1720.75 1426.3 Q1729.9 1426.3 1735.21 1432.21 Q1740.56 1438.08 1740.56 1448.21 M1733.1 1446.02 Q1733.02 1439.91 1729.66 1436.26 Q1726.34 1432.62 1720.83 1432.62 Q1714.59 1432.62 1710.82 1436.14 Q1707.09 1439.66 1706.53 1446.06 L1733.1 1446.02 Z" fill="#000000" fill-rule="nonzero" fill-opacity="1" /><path clip-path="url(#clip520)" d="M1751.61 1409.81 L1758.1 1409.81 Q1764.17 1419.37 1767.17 1428.52 Q1770.21 1437.68 1770.21 1446.71 Q1770.21 1455.79 1767.17 1464.98 Q1764.17 1474.18 1758.1 1483.7 L1751.61 1483.7 Q1757 1474.42 1759.64 1465.27 Q1762.31 1456.07 1762.31 1446.71 Q1762.31 1437.36 1759.64 1428.24 Q1757 1419.13 1751.61 1409.81 Z" fill="#000000" fill-rule="nonzero" fill-opacity="1" /><polyline clip-path="url(#clip522)" style="stroke:#000000; stroke-linecap:round; stroke-linejoin:round; stroke-width:2; stroke-opacity:0.1; fill:none" points="190.165,1192.91 2352.76,1192.91 "/>
<polyline clip-path="url(#clip522)" style="stroke:#000000; stroke-linecap:round; stroke-linejoin:round; stroke-width:2; stroke-opacity:0.1; fill:none" points="190.165,988.738 2352.76,988.738 "/>
<polyline clip-path="url(#clip522)" style="stroke:#000000; stroke-linecap:round; stroke-linejoin:round; stroke-width:2; stroke-opacity:0.1; fill:none" points="190.165,784.565 2352.76,784.565 "/>
<polyline clip-path="url(#clip522)" style="stroke:#000000; stroke-linecap:round; stroke-linejoin:round; stroke-width:2; stroke-opacity:0.1; fill:none" points="190.165,580.392 2352.76,580.392 "/>
<polyline clip-path="url(#clip522)" style="stroke:#000000; stroke-linecap:round; stroke-linejoin:round; stroke-width:2; stroke-opacity:0.1; fill:none" points="190.165,376.22 2352.76,376.22 "/>
<polyline clip-path="url(#clip522)" style="stroke:#000000; stroke-linecap:round; stroke-linejoin:round; stroke-width:2; stroke-opacity:0.1; fill:none" points="190.165,172.047 2352.76,172.047 "/>
<polyline clip-path="url(#clip520)" style="stroke:#000000; stroke-linecap:round; stroke-linejoin:round; stroke-width:4; stroke-opacity:1; fill:none" points="190.165,1276.35 190.165,47.2441 "/>
<polyline clip-path="url(#clip520)" style="stroke:#000000; stroke-linecap:round; stroke-linejoin:round; stroke-width:4; stroke-opacity:1; fill:none" points="190.165,1192.91 209.063,1192.91 "/>
<polyline clip-path="url(#clip520)" style="stroke:#000000; stroke-linecap:round; stroke-linejoin:round; stroke-width:4; stroke-opacity:1; fill:none" points="190.165,988.738 209.063,988.738 "/>
<polyline clip-path="url(#clip520)" style="stroke:#000000; stroke-linecap:round; stroke-linejoin:round; stroke-width:4; stroke-opacity:1; fill:none" points="190.165,784.565 209.063,784.565 "/>
<polyline clip-path="url(#clip520)" style="stroke:#000000; stroke-linecap:round; stroke-linejoin:round; stroke-width:4; stroke-opacity:1; fill:none" points="190.165,580.392 209.063,580.392 "/>
<polyline clip-path="url(#clip520)" style="stroke:#000000; stroke-linecap:round; stroke-linejoin:round; stroke-width:4; stroke-opacity:1; fill:none" points="190.165,376.22 209.063,376.22 "/>
<polyline clip-path="url(#clip520)" style="stroke:#000000; stroke-linecap:round; stroke-linejoin:round; stroke-width:4; stroke-opacity:1; fill:none" points="190.165,172.047 209.063,172.047 "/>
<path clip-path="url(#clip520)" d="M142.186 1176.4 L127.43 1199.46 L142.186 1199.46 L142.186 1176.4 M140.653 1171.31 L148.002 1171.31 L148.002 1199.46 L154.165 1199.46 L154.165 1204.33 L148.002 1204.33 L148.002 1214.51 L142.186 1214.51 L142.186 1204.33 L122.684 1204.33 L122.684 1198.68 L140.653 1171.31 Z" fill="#000000" fill-rule="nonzero" fill-opacity="1" /><path clip-path="url(#clip520)" d="M128.037 967.138 L150.983 967.138 L150.983 972.057 L133.39 972.057 L133.39 982.647 Q134.663 982.213 135.936 982.01 Q137.21 981.779 138.483 981.779 Q145.716 981.779 149.941 985.743 Q154.165 989.707 154.165 996.478 Q154.165 1003.45 149.825 1007.33 Q145.485 1011.18 137.586 1011.18 Q134.866 1011.18 132.03 1010.71 Q129.223 1010.25 126.214 1009.33 L126.214 1003.45 Q128.818 1004.87 131.596 1005.56 Q134.374 1006.26 137.47 1006.26 Q142.476 1006.26 145.398 1003.62 Q148.321 1000.99 148.321 996.478 Q148.321 991.964 145.398 989.331 Q142.476 986.698 137.47 986.698 Q135.126 986.698 132.782 987.219 Q130.468 987.739 128.037 988.839 L128.037 967.138 Z" fill="#000000" fill-rule="nonzero" fill-opacity="1" /><path clip-path="url(#clip520)" d="M139.756 782.236 Q135.821 782.236 133.506 784.927 Q131.22 787.618 131.22 792.305 Q131.22 796.964 133.506 799.684 Q135.821 802.375 139.756 802.375 Q143.691 802.375 145.977 799.684 Q148.292 796.964 148.292 792.305 Q148.292 787.618 145.977 784.927 Q143.691 782.236 139.756 782.236 M151.359 763.92 L151.359 769.244 Q149.16 768.202 146.903 767.653 Q144.675 767.103 142.476 767.103 Q136.689 767.103 133.622 771.009 Q130.583 774.915 130.149 782.814 Q131.857 780.297 134.432 778.966 Q137.007 777.606 140.103 777.606 Q146.613 777.606 150.375 781.57 Q154.165 785.505 154.165 792.305 Q154.165 798.96 150.23 802.982 Q146.295 807.004 139.756 807.004 Q132.262 807.004 128.298 801.275 Q124.333 795.517 124.333 784.608 Q124.333 774.365 129.195 768.289 Q134.056 762.184 142.244 762.184 Q144.443 762.184 146.671 762.618 Q148.928 763.052 151.359 763.92 Z" fill="#000000" fill-rule="nonzero" fill-opacity="1" /><path clip-path="url(#clip520)" d="M126.388 558.792 L154.165 558.792 L154.165 561.281 L138.483 601.992 L132.377 601.992 L147.134 563.711 L126.388 563.711 L126.388 558.792 Z" fill="#000000" fill-rule="nonzero" fill-opacity="1" /><path clip-path="url(#clip520)" d="M139.351 377.305 Q135.184 377.305 132.782 379.533 Q130.41 381.761 130.41 385.667 Q130.41 389.573 132.782 391.801 Q135.184 394.029 139.351 394.029 Q143.517 394.029 145.919 391.801 Q148.321 389.544 148.321 385.667 Q148.321 381.761 145.919 379.533 Q143.546 377.305 139.351 377.305 M133.506 374.816 Q129.744 373.89 127.632 371.315 Q125.549 368.74 125.549 365.036 Q125.549 359.857 129.223 356.848 Q132.927 353.838 139.351 353.838 Q145.803 353.838 149.478 356.848 Q153.153 359.857 153.153 365.036 Q153.153 368.74 151.04 371.315 Q148.957 373.89 145.225 374.816 Q149.449 375.8 151.793 378.665 Q154.165 381.529 154.165 385.667 Q154.165 391.946 150.317 395.302 Q146.498 398.659 139.351 398.659 Q132.204 398.659 128.355 395.302 Q124.536 391.946 124.536 385.667 Q124.536 381.529 126.909 378.665 Q129.281 375.8 133.506 374.816 M131.365 365.586 Q131.365 368.943 133.448 370.823 Q135.56 372.704 139.351 372.704 Q143.112 372.704 145.225 370.823 Q147.366 368.943 147.366 365.586 Q147.366 362.23 145.225 360.349 Q143.112 358.468 139.351 358.468 Q135.56 358.468 133.448 360.349 Q131.365 362.23 131.365 365.586 Z" fill="#000000" fill-rule="nonzero" fill-opacity="1" /><path clip-path="url(#clip520)" d="M127.14 192.75 L127.14 187.426 Q129.339 188.468 131.596 189.017 Q133.853 189.567 136.023 189.567 Q141.81 189.567 144.848 185.69 Q147.916 181.784 148.35 173.855 Q146.671 176.344 144.096 177.675 Q141.521 179.006 138.396 179.006 Q131.914 179.006 128.124 175.1 Q124.362 171.165 124.362 164.365 Q124.362 157.71 128.298 153.688 Q132.233 149.666 138.772 149.666 Q146.266 149.666 150.201 155.424 Q154.165 161.153 154.165 172.09 Q154.165 182.304 149.304 188.41 Q144.472 194.486 136.284 194.486 Q134.085 194.486 131.828 194.052 Q129.571 193.618 127.14 192.75 M138.772 174.434 Q142.707 174.434 144.993 171.743 Q147.308 169.052 147.308 164.365 Q147.308 159.706 144.993 157.015 Q142.707 154.295 138.772 154.295 Q134.837 154.295 132.522 157.015 Q130.236 159.706 130.236 164.365 Q130.236 169.052 132.522 171.743 Q134.837 174.434 138.772 174.434 Z" fill="#000000" fill-rule="nonzero" fill-opacity="1" /><path clip-path="url(#clip520)" d="M40.1838 743.546 Q41.075 740.913 43.9917 738.442 Q46.9083 735.93 52.0125 733.419 L68.5402 725.114 L68.5402 733.905 L53.0252 741.642 Q46.9488 744.64 44.9639 747.475 Q42.979 750.27 42.979 755.132 L42.979 764.044 L68.5402 764.044 L68.5402 772.226 L8.06016 772.226 L8.06016 753.754 Q8.06016 743.384 12.3946 738.28 Q16.7291 733.176 25.479 733.176 Q31.1908 733.176 34.9582 735.849 Q38.7255 738.482 40.1838 743.546 M14.7847 764.044 L36.2545 764.044 L36.2545 753.754 Q36.2545 747.84 33.5403 744.842 Q30.7857 741.804 25.479 741.804 Q20.1724 741.804 17.4988 744.842 Q14.7847 747.84 14.7847 753.754 L14.7847 764.044 Z" fill="#000000" fill-rule="nonzero" fill-opacity="1" /><path clip-path="url(#clip520)" d="M8.06016 714.582 L8.06016 702.389 L49.2173 686.955 L8.06016 671.44 L8.06016 659.247 L68.5402 659.247 L68.5402 667.227 L15.4328 667.227 L56.9141 682.823 L56.9141 691.046 L15.4328 706.642 L68.5402 706.642 L68.5402 714.582 L8.06016 714.582 Z" fill="#000000" fill-rule="nonzero" fill-opacity="1" /><path clip-path="url(#clip520)" d="M10.0451 606.747 L18.0254 606.747 Q15.7974 611.405 14.7036 615.537 Q13.6099 619.669 13.6099 623.518 Q13.6099 630.202 16.2025 633.848 Q18.7951 637.453 23.5751 637.453 Q27.5855 637.453 29.6515 635.063 Q31.6769 632.632 32.9327 625.908 L33.9454 620.966 Q35.6873 611.811 40.1028 607.476 Q44.4778 603.101 51.8504 603.101 Q60.6409 603.101 65.1779 609.015 Q69.7149 614.889 69.7149 626.272 Q69.7149 630.566 68.7427 635.427 Q67.7705 640.248 65.8666 645.433 L57.4407 645.433 Q60.2358 640.45 61.6536 635.67 Q63.0714 630.89 63.0714 626.272 Q63.0714 619.264 60.3168 615.456 Q57.5622 611.649 52.4581 611.649 Q48.0021 611.649 45.4905 614.403 Q42.979 617.117 41.7232 623.356 L40.751 628.338 Q38.928 637.493 35.0392 641.585 Q31.1503 645.676 24.2233 645.676 Q16.2025 645.676 11.5844 640.045 Q6.96641 634.374 6.96641 624.449 Q6.96641 620.196 7.73609 615.78 Q8.50576 611.365 10.0451 606.747 Z" fill="#000000" fill-rule="nonzero" fill-opacity="1" /><path clip-path="url(#clip520)" d="M8.06016 590.341 L8.06016 552.1 L14.9467 552.1 L14.9467 582.158 L32.8517 582.158 L32.8517 553.356 L39.7382 553.356 L39.7382 582.158 L61.6536 582.158 L61.6536 551.371 L68.5402 551.371 L68.5402 590.341 L8.06016 590.341 Z" fill="#000000" fill-rule="nonzero" fill-opacity="1" /><polyline clip-path="url(#clip522)" style="stroke:#009af9; stroke-linecap:round; stroke-linejoin:round; stroke-width:4; stroke-opacity:1; fill:none" points="251.371,82.0302 285.95,83.765 320.529,85.715 355.109,87.8994 389.688,90.3548 424.267,93.1035 458.847,96.191 493.426,99.6413 528.005,103.518 562.585,107.85 597.164,112.692 631.743,118.132 666.323,124.168 700.902,130.942 735.481,138.493 770.061,146.926 804.64,156.252 839.219,166.775 873.799,178.496 908.378,191.218 942.957,205.785 977.537,221.873 1012.12,239.55 1046.7,259.419 1081.27,281.102 1115.85,305.577 1150.43,330.94 1185.01,359.51 1219.59,389.374 1254.17,421.965 1288.75,460.663 1323.33,498.979 1357.91,541.287 1392.49,588.313 1427.07,634.576 1461.65,686.045 1496.23,739.334 1530.81,791.7 1565.38,840.258 1599.96,896.346 1634.54,940.516 1669.12,993.541 1703.7,1034.28 1738.28,1081.14 1772.86,1114.25 1807.44,1139.45 1842.02,1176.13 1876.6,1186.26 1911.18,1203.16 1945.76,1203.59 1980.34,1229.87 2014.92,1241.07 2049.5,1241.57 2084.07,1224.89 2118.65,1219.86 2153.23,1201.22 2187.81,1215.44 2222.39,1161.09 2256.97,1144.83 2291.55,1132.68 "/>
<path clip-path="url(#clip520)" d="M1998.87 217.814 L2280.67 217.814 L2280.67 88.2144 L1998.87 88.2144  Z" fill="#ffffff" fill-rule="evenodd" fill-opacity="1"/>
<polyline clip-path="url(#clip520)" style="stroke:#000000; stroke-linecap:round; stroke-linejoin:round; stroke-width:4; stroke-opacity:1; fill:none" points="1998.87,217.814 2280.67,217.814 2280.67,88.2144 1998.87,88.2144 1998.87,217.814 "/>
<polyline clip-path="url(#clip520)" style="stroke:#009af9; stroke-linecap:round; stroke-linejoin:round; stroke-width:5; stroke-opacity:1; fill:none" points="2022.9,153.014 2167.07,153.014 "/>
<path clip-path="url(#clip520)" d="M2208.41 177.624 Q2206.15 183.411 2204.01 185.176 Q2201.87 186.941 2198.28 186.941 L2194.03 186.941 L2194.03 182.485 L2197.15 182.485 Q2199.35 182.485 2200.56 181.443 Q2201.78 180.401 2203.26 176.524 L2204.21 174.094 L2191.1 142.207 L2196.75 142.207 L2206.87 167.554 L2217 142.207 L2222.64 142.207 L2208.41 177.624 Z" fill="#000000" fill-rule="nonzero" fill-opacity="1" /><path clip-path="url(#clip520)" d="M2231.76 169.695 L2241.31 169.695 L2241.31 136.738 L2230.92 138.822 L2230.92 133.498 L2241.25 131.414 L2247.09 131.414 L2247.09 169.695 L2256.64 169.695 L2256.64 174.614 L2231.76 174.614 L2231.76 169.695 Z" fill="#000000" fill-rule="nonzero" fill-opacity="1" /></svg>
