<?xml version="1.0" encoding="utf-8" standalone="no"?>
<!DOCTYPE svg PUBLIC "-//W3C//DTD SVG 1.1//EN"
  "http://www.w3.org/Graphics/SVG/1.1/DTD/svg11.dtd">
<!-- Created with matplotlib (https://matplotlib.org/) -->
<svg height="432pt" version="1.1" viewBox="0 0 576 432" width="576pt" xmlns="http://www.w3.org/2000/svg" xmlns:xlink="http://www.w3.org/1999/xlink">
 <defs>
  <style type="text/css">
*{stroke-linecap:butt;stroke-linejoin:round;}
  </style>
 </defs>
 <g id="figure_1">
  <g id="patch_1">
   <path d="M 0 432 
L 576 432 
L 576 0 
L 0 0 
z
" style="fill:#ffffff;"/>
  </g>
  <g id="axes_1">
   <g id="patch_2">
    <path d="M 72 384.48 
L 518.4 384.48 
L 518.4 51.84 
L 72 51.84 
z
" style="fill:#ffffff;"/>
   </g>
   <g id="PathCollection_1">
    <path clip-path="url(#p267dcb0366)" d="M 220.361062 51.84 
L 220.188686 52.271552 
L 220.8 52.747849 
L 221.196863 51.84 
L 220.8 51.84 
M 284.956766 349.465263 
L 270.4 338.002865 
L 256.371743 349.465263 
L 270.4 373.240392 
L 284.549522 359.454009 
M 419.2 330.965824 
L 445.103385 314.450526 
L 419.2 307.493533 
L 414.457446 311.102557 
L 410.702352 314.450526 
M 350.64544 170.265035 
L 320 176.284379 
L 314.275571 187.857831 
L 284.494856 191.898947 
L 308.187882 204.406958 
L 314.391505 244.421053 
L 320 277.791935 
L 322.961652 246.511808 
L 342.275753 244.421053 
L 353.06037 226.907017 
L 333.285694 191.898947 
M 468.8 180.254151 
L 435.446638 191.898947 
L 468.8 199.271073 
L 474.550437 191.898947 
M 420.975486 244.421053 
L 419.2 227.706824 
L 410.080887 244.421053 
L 418.344665 245.02487 
L 419.2 245.805054 
" style="fill:#481769;"/>
   </g>
   <g id="PathCollection_2">
    <path clip-path="url(#p267dcb0366)" d="M 329.485828 384.48 
L 330.763078 357.063375 
L 369.6 362.760365 
L 397.3558 364.886008 
L 406.213802 384.48 
L 419.2 384.48 
L 468.8 384.48 
L 483.855662 384.48 
L 470.521436 350.680498 
L 480.621457 349.465263 
L 510.209276 343.683085 
L 488.578952 314.450526 
L 518.4 291.052285 
L 518.4 279.435789 
L 518.4 265.648874 
L 493.927151 262.15937 
L 468.8 259.850578 
L 437.101203 279.435789 
L 436.8189 291.873716 
L 419.2 287.141725 
L 400.5837 301.308493 
L 385.843551 314.450526 
L 395.109284 332.458609 
L 369.6 334.637427 
L 332.378212 340.72696 
L 320 320.355973 
L 314.185047 314.450526 
L 320 312.957644 
L 335.233043 279.435789 
L 337.386204 256.694709 
L 369.6 253.20756 
L 403.26866 255.667659 
L 419.2 270.199256 
L 452.269935 244.421053 
L 450.174906 224.698691 
L 468.8 228.815413 
L 497.595742 191.898947 
L 486.461815 169.352432 
L 479.766646 156.884211 
L 518.4 133.76255 
L 518.4 121.869474 
L 518.4 110.457406 
L 484.269627 97.775401 
L 501.74217 121.869474 
L 468.8 149.244775 
L 432.276546 131.10076 
L 419.2 132.550329 
L 408.97897 129.084931 
L 369.6 147.833538 
L 348.943661 142.302027 
L 320 147.093442 
L 316.321414 154.287341 
L 314.254086 156.884211 
L 302.904462 179.830485 
L 270.4 184.241202 
L 231.614032 184.264865 
L 222.918802 156.884211 
L 222.117277 155.954289 
L 220.8 155.687569 
L 219.63612 156.062578 
L 218.463527 156.884211 
L 217.370502 159.305238 
L 205.0775 191.898947 
L 185.769102 228.993635 
L 220.8 222.057591 
L 248.886453 221.640069 
L 270.4 221.691132 
L 284.72408 229.253093 
L 287.075659 244.421053 
L 289.32047 257.777812 
L 270.4 264.17586 
L 248.216789 260.081119 
L 220.8 259.800827 
L 186.339118 255.108396 
L 181.745486 279.435789 
L 171.2 287.718686 
L 161.250134 307.426495 
L 153.938368 314.450526 
L 153.652368 326.838142 
L 151.202738 349.465263 
L 171.2 368.627194 
L 210.516131 356.725081 
L 211.106464 384.48 
L 220.8 384.48 
L 270.4 384.48 
L 320 384.48 
M 460.023994 51.84 
L 461.978781 56.655387 
L 468.8 69.488668 
L 473.532499 51.84 
L 468.8 51.84 
M 221.196863 51.84 
L 220.8 52.747849 
L 220.188686 52.271552 
L 220.361062 51.84 
L 207.561699 51.84 
L 202.362877 64.855545 
L 220.8 79.220572 
L 232.769326 51.84 
M 72 96.267903 
L 95.328105 103.323032 
L 77.985123 86.854737 
L 111.987887 58.625597 
L 72 82.120371 
L 72 86.854737 
M 72 293.788788 
L 79.058373 279.435789 
L 91.6699 265.549976 
L 90.626873 244.421053 
L 72 231.510061 
L 72 244.421053 
L 72 279.435789 
M 103.910408 384.48 
L 85.87814 374.682835 
L 92.17619 349.465263 
L 72 329.569472 
L 72 349.465263 
L 72 384.48 
M 284.549522 359.454009 
L 270.4 373.240392 
L 256.371743 349.465263 
L 270.4 338.002865 
L 284.956766 349.465263 
M 410.702352 314.450526 
L 414.457446 311.102557 
L 419.2 307.493533 
L 445.103385 314.450526 
L 419.2 330.965824 
M 333.285694 191.898947 
L 353.06037 226.907017 
L 342.275753 244.421053 
L 322.961652 246.511808 
L 320 277.791935 
L 314.391505 244.421053 
L 308.187882 204.406958 
L 284.494856 191.898947 
L 314.275571 187.857831 
L 320 176.284379 
L 350.64544 170.265035 
M 474.550437 191.898947 
L 468.8 199.271073 
L 435.446638 191.898947 
L 468.8 180.254151 
M 419.2 245.805054 
L 418.344665 245.02487 
L 410.080887 244.421053 
L 419.2 227.706824 
L 420.975486 244.421053 
M 104.831101 191.898947 
L 121.6 217.381138 
L 153.982057 226.188742 
L 134.80987 191.898947 
L 131.251308 185.085681 
L 130.253451 156.884211 
L 126.220518 153.622391 
L 121.6 135.381055 
L 105.217417 156.884211 
L 103.717532 179.274957 
M 369.6 179.532335 
L 384.467105 191.898947 
L 369.6 209.466766 
L 359.676633 191.898947 
M 273.534501 86.854737 
L 270.4 85.644893 
L 256.138827 86.854737 
L 270.4 87.705122 
" style="fill:#423f85;"/>
   </g>
   <g id="PathCollection_3">
    <path clip-path="url(#p267dcb0366)" d="M 406.213802 384.48 
L 397.3558 364.886008 
L 369.6 362.760365 
L 330.763078 357.063375 
L 329.485828 384.48 
L 369.6 384.48 
M 513.052722 384.48 
L 510.988655 379.248018 
L 518.4 378.356286 
L 518.4 349.465263 
L 518.4 315.859658 
L 517.357328 314.450526 
L 518.4 313.632423 
L 518.4 291.052285 
L 488.578952 314.450526 
L 510.209276 343.683085 
L 480.621457 349.465263 
L 470.521436 350.680498 
L 483.855662 384.48 
M 518.4 187.920713 
L 501.73406 156.884211 
L 518.4 146.909819 
L 518.4 133.76255 
L 479.766646 156.884211 
L 486.461815 169.352432 
L 497.595742 191.898947 
L 468.8 228.815413 
L 450.174906 224.698691 
L 452.269935 244.421053 
L 419.2 270.199256 
L 403.26866 255.667659 
L 369.6 253.20756 
L 337.386204 256.694709 
L 335.233043 279.435789 
L 320 312.957644 
L 314.185047 314.450526 
L 320 320.355973 
L 332.378212 340.72696 
L 369.6 334.637427 
L 395.109284 332.458609 
L 385.843551 314.450526 
L 400.5837 301.308493 
L 419.2 287.141725 
L 436.8189 291.873716 
L 437.101203 279.435789 
L 468.8 259.850578 
L 493.927151 262.15937 
L 518.4 265.648874 
L 518.4 244.421053 
L 518.4 191.898947 
M 518.4 97.841871 
L 488.830939 86.854737 
L 477.06541 81.019835 
L 484.889997 51.84 
L 473.532499 51.84 
L 468.8 69.488668 
L 461.978781 56.655387 
L 460.023994 51.84 
L 438.962509 51.84 
L 445.608578 68.211805 
L 455.517775 86.854737 
L 468.8 101.836274 
L 483.327679 121.869474 
L 468.8 133.942132 
L 444.498036 121.869474 
L 419.2 110.057352 
L 396.528912 121.869474 
L 369.6 134.69052 
L 321.722324 121.869474 
L 320 120.253233 
L 319.530912 121.869474 
L 306.4996 147.353708 
L 298.912514 156.884211 
L 291.533354 171.803139 
L 270.4 174.670845 
L 245.182614 174.68623 
L 239.529255 156.884211 
L 232.444135 148.664123 
L 220.8 146.306441 
L 210.511826 149.621353 
L 200.146634 156.884211 
L 190.484785 178.285003 
L 185.350167 191.898947 
L 171.2 219.083803 
L 156.000342 191.898947 
L 146.73335 174.156253 
L 146.122211 156.884211 
L 134.693658 147.640844 
L 128.165787 121.869474 
L 121.6 109.590659 
L 97.656496 86.854737 
L 121.6 66.976808 
L 149.045384 71.214857 
L 138.209971 51.84 
L 121.6 51.84 
L 97.053091 51.84 
L 72 66.559875 
L 72 82.120371 
L 111.987887 58.625597 
L 77.985123 86.854737 
L 95.328105 103.323032 
L 72 96.267903 
L 72 121.869474 
L 72 143.581994 
L 78.869674 152.034617 
L 75.17492 156.884211 
L 75.031561 159.024318 
L 77.931451 191.898947 
L 91.564912 212.616496 
L 72 199.055313 
L 72 231.510061 
L 90.626873 244.421053 
L 91.6699 265.549976 
L 79.058373 279.435789 
L 72 293.788788 
L 72 314.450526 
L 72 329.569472 
L 92.17619 349.465263 
L 85.87814 374.682835 
L 103.910408 384.48 
L 121.6 384.48 
L 171.2 384.48 
L 211.106464 384.48 
L 210.516131 356.725081 
L 171.2 368.627194 
L 151.202738 349.465263 
L 153.652368 326.838142 
L 153.938368 314.450526 
L 161.250134 307.426495 
L 171.2 287.718686 
L 181.745486 279.435789 
L 186.339118 255.108396 
L 220.8 259.800827 
L 248.216789 260.081119 
L 270.4 264.17586 
L 289.32047 257.777812 
L 287.075659 244.421053 
L 284.72408 229.253093 
L 270.4 221.691132 
L 248.886453 221.640069 
L 220.8 222.057591 
L 185.769102 228.993635 
L 205.0775 191.898947 
L 217.370502 159.305238 
L 218.463527 156.884211 
L 219.63612 156.062578 
L 220.8 155.687569 
L 222.117277 155.954289 
L 222.918802 156.884211 
L 231.614032 184.264865 
L 270.4 184.241202 
L 302.904462 179.830485 
L 314.254086 156.884211 
L 316.321414 154.287341 
L 320 147.093442 
L 348.943661 142.302027 
L 369.6 147.833538 
L 408.97897 129.084931 
L 419.2 132.550329 
L 432.276546 131.10076 
L 468.8 149.244775 
L 501.74217 121.869474 
L 484.269627 97.775401 
L 518.4 110.457406 
M 232.769326 51.84 
L 220.8 79.220572 
L 202.362877 64.855545 
L 207.561699 51.84 
L 194.762337 51.84 
L 184.537068 77.439537 
L 196.621222 86.854737 
L 213.76898 91.818231 
L 220.8 94.367785 
L 228.845552 92.534432 
L 270.4 95.012299 
L 300.468593 86.854737 
L 270.4 75.248962 
L 232.71093 78.446308 
L 244.341789 51.84 
M 103.717532 179.274957 
L 105.217417 156.884211 
L 121.6 135.381055 
L 126.220518 153.622391 
L 130.253451 156.884211 
L 131.251308 185.085681 
L 134.80987 191.898947 
L 153.982057 226.188742 
L 121.6 217.381138 
L 104.831101 191.898947 
M 359.676633 191.898947 
L 369.6 209.466766 
L 384.467105 191.898947 
L 369.6 179.532335 
M 270.4 87.705122 
L 256.138827 86.854737 
L 270.4 85.644893 
L 273.534501 86.854737 
M 104.267027 337.229185 
L 102.627385 314.450526 
L 81.30608 307.880971 
L 95.294565 279.435789 
L 121.6 250.472415 
L 156.71173 254.648935 
L 154.855736 279.435789 
L 146.117492 296.743724 
L 127.685344 314.450526 
L 126.964369 345.678328 
L 126.554393 349.465263 
L 140.417718 362.749486 
L 121.6 356.933943 
L 115.621495 353.685743 
L 116.675553 349.465263 
M 402.582282 279.435789 
L 386.709954 291.51443 
L 369.6 306.769336 
L 341.658103 299.161156 
L 350.621729 279.435789 
L 351.810757 266.877611 
L 369.6 264.951922 
L 388.192654 266.310449 
" style="fill:#33628d;"/>
   </g>
   <g id="PathCollection_4">
    <path clip-path="url(#p267dcb0366)" d="M 518.4 378.356286 
L 510.988655 379.248018 
L 513.052722 384.48 
L 518.4 384.48 
M 518.4 313.632423 
L 517.357328 314.450526 
L 518.4 315.859658 
L 518.4 314.450526 
M 518.4 146.909819 
L 501.73406 156.884211 
L 518.4 187.920713 
L 518.4 156.884211 
M 518.4 84.681353 
L 491.074884 71.129954 
L 496.247496 51.84 
L 484.889997 51.84 
L 477.06541 81.019835 
L 488.830939 86.854737 
L 518.4 97.841871 
L 518.4 86.854737 
M 416.653556 51.84 
L 419.2 55.039875 
L 429.238374 79.768224 
L 433.005038 86.854737 
L 456.098972 112.903281 
L 419.2 95.674467 
L 371.505389 120.524379 
L 369.6 121.004537 
L 330.975457 86.854737 
L 320 72.804203 
L 311.070092 80.550738 
L 270.4 64.853032 
L 249.448662 66.630435 
L 255.914252 51.84 
L 244.341789 51.84 
L 232.71093 78.446308 
L 270.4 75.248962 
L 300.468593 86.854737 
L 270.4 95.012299 
L 228.845552 92.534432 
L 220.8 94.367785 
L 213.76898 91.818231 
L 196.621222 86.854737 
L 184.537068 77.439537 
L 194.762337 51.84 
L 181.962974 51.84 
L 171.2 78.785712 
L 156.130577 51.84 
L 138.209971 51.84 
L 149.045384 71.214857 
L 121.6 66.976808 
L 97.656496 86.854737 
L 121.6 109.590659 
L 128.165787 121.869474 
L 134.693658 147.640844 
L 146.122211 156.884211 
L 146.73335 174.156253 
L 156.000342 191.898947 
L 171.2 219.083803 
L 185.350167 191.898947 
L 190.484785 178.285003 
L 200.146634 156.884211 
L 210.511826 149.621353 
L 220.8 146.306441 
L 232.444135 148.664123 
L 239.529255 156.884211 
L 245.182614 174.68623 
L 270.4 174.670845 
L 291.533354 171.803139 
L 298.912514 156.884211 
L 306.4996 147.353708 
L 319.530912 121.869474 
L 320 120.253233 
L 321.722324 121.869474 
L 369.6 134.69052 
L 396.528912 121.869474 
L 419.2 110.057352 
L 444.498036 121.869474 
L 468.8 133.942132 
L 483.327679 121.869474 
L 468.8 101.836274 
L 455.517775 86.854737 
L 445.608578 68.211805 
L 438.962509 51.84 
L 419.2 51.84 
M 72 66.559875 
L 97.053091 51.84 
L 72 51.84 
M 72 199.055313 
L 91.564912 212.616496 
L 77.931451 191.898947 
L 75.031561 159.024318 
L 75.17492 156.884211 
L 78.869674 152.034617 
L 72 143.581994 
L 72 156.884211 
L 72 191.898947 
M 116.675553 349.465263 
L 115.621495 353.685743 
L 121.6 356.933943 
L 140.417718 362.749486 
L 126.554393 349.465263 
L 126.964369 345.678328 
L 127.685344 314.450526 
L 146.117492 296.743724 
L 154.855736 279.435789 
L 156.71173 254.648935 
L 121.6 250.472415 
L 95.294565 279.435789 
L 81.30608 307.880971 
L 102.627385 314.450526 
L 104.267027 337.229185 
M 388.192654 266.310449 
L 369.6 264.951922 
L 351.810757 266.877611 
L 350.621729 279.435789 
L 341.658103 299.161156 
L 369.6 306.769336 
L 386.709954 291.51443 
L 402.582282 279.435789 
M 121.6 83.308008 
L 144.56843 86.854737 
L 171.2 89.331251 
L 203.888699 98.793139 
L 220.8 104.925432 
L 240.151496 100.515776 
L 270.4 102.319476 
L 315.37935 90.116649 
L 306.163599 121.869474 
L 296.677787 140.420074 
L 283.570941 156.884211 
L 280.162246 163.775792 
L 270.4 165.100488 
L 258.751195 165.107594 
L 256.139708 156.884211 
L 242.770993 141.373958 
L 220.8 136.925312 
L 201.387532 143.180128 
L 181.829741 156.884211 
L 171.2 180.428863 
L 162.215392 163.226825 
L 161.99097 156.884211 
L 143.166798 141.659296 
L 138.154049 121.869474 
L 121.6 90.911404 
L 117.327869 86.854737 
M 111.530757 279.435789 
L 121.6 268.349135 
L 135.040133 269.947831 
L 134.329692 279.435789 
L 130.984851 286.060953 
L 121.6 295.07649 
L 106.176218 290.324089 
M 375.83833 279.435789 
L 372.836208 281.720366 
L 369.6 284.605707 
L 364.315018 283.166682 
L 366.010415 279.435789 
L 366.23531 277.060512 
L 369.6 276.696284 
L 373.116649 276.953238 
" style="fill:#26828e;"/>
   </g>
   <g id="PathCollection_5">
    <path clip-path="url(#p267dcb0366)" d="M 518.4 67.843726 
L 505.084359 61.240074 
L 507.604994 51.84 
L 496.247496 51.84 
L 491.074884 71.129954 
L 518.4 84.681353 
M 375.365757 51.84 
L 382.757371 61.128345 
L 369.6 80.199027 
L 360.105925 51.84 
L 320 51.84 
L 285.235515 51.84 
L 278.579321 57.614129 
L 270.4 54.457102 
L 266.186394 54.814562 
L 267.486714 51.84 
L 255.914252 51.84 
L 249.448662 66.630435 
L 270.4 64.853032 
L 311.070092 80.550738 
L 320 72.804203 
L 330.975457 86.854737 
L 369.6 121.004537 
L 371.505389 120.524379 
L 419.2 95.674467 
L 456.098972 112.903281 
L 433.005038 86.854737 
L 429.238374 79.768224 
L 419.2 55.039875 
L 416.653556 51.84 
M 156.130577 51.84 
L 171.2 78.785712 
L 181.962974 51.84 
L 171.2 51.84 
M 117.327869 86.854737 
L 121.6 90.911404 
L 138.154049 121.869474 
L 143.166798 141.659296 
L 161.99097 156.884211 
L 162.215392 163.226825 
L 171.2 180.428863 
L 181.829741 156.884211 
L 201.387532 143.180128 
L 220.8 136.925312 
L 242.770993 141.373958 
L 256.139708 156.884211 
L 258.751195 165.107594 
L 270.4 165.100488 
L 280.162246 163.775792 
L 283.570941 156.884211 
L 296.677787 140.420074 
L 306.163599 121.869474 
L 315.37935 90.116649 
L 270.4 102.319476 
L 240.151496 100.515776 
L 220.8 104.925432 
L 203.888699 98.793139 
L 171.2 89.331251 
L 144.56843 86.854737 
L 121.6 83.308008 
M 106.176218 290.324089 
L 121.6 295.07649 
L 130.984851 286.060953 
L 134.329692 279.435789 
L 135.040133 269.947831 
L 121.6 268.349135 
L 111.530757 279.435789 
M 373.116649 276.953238 
L 369.6 276.696284 
L 366.23531 277.060512 
L 366.010415 279.435789 
L 364.315018 283.166682 
L 369.6 284.605707 
L 372.836208 281.720366 
L 375.83833 279.435789 
M 194.008418 105.768048 
L 220.8 115.483079 
L 251.457439 108.497119 
L 270.4 109.626653 
L 298.567478 101.98486 
L 292.796285 121.869474 
L 286.855973 133.486441 
L 270.4 154.157577 
L 253.09785 134.083792 
L 220.8 127.544184 
L 192.263237 136.738903 
L 171.2 151.497847 
L 151.639938 135.677748 
L 148.142311 121.869474 
L 134.160436 95.721679 
L 171.2 99.16605 
" style="fill:#1f9f88;"/>
   </g>
   <g id="PathCollection_6">
    <path clip-path="url(#p267dcb0366)" d="M 507.604994 51.84 
L 505.084359 61.240074 
L 518.4 67.843726 
L 518.4 51.84 
M 360.105925 51.84 
L 369.6 80.199027 
L 382.757371 61.128345 
L 375.365757 51.84 
L 369.6 51.84 
M 267.486714 51.84 
L 266.186394 54.814562 
L 270.4 54.457102 
L 278.579321 57.614129 
L 285.235515 51.84 
L 270.4 51.84 
M 171.2 99.16605 
L 134.160436 95.721679 
L 148.142311 121.869474 
L 151.639938 135.677748 
L 171.2 151.497847 
L 192.263237 136.738903 
L 220.8 127.544184 
L 253.09785 134.083792 
L 270.4 154.157577 
L 286.855973 133.486441 
L 292.796285 121.869474 
L 298.567478 101.98486 
L 270.4 109.626653 
L 251.457439 108.497119 
L 220.8 115.483079 
L 194.008418 105.768048 
M 184.128136 112.742956 
L 209.296748 121.869474 
L 183.138943 130.297679 
L 171.2 138.663258 
L 160.113078 129.696201 
L 158.130573 121.869474 
L 150.205447 107.048531 
L 171.2 109.00085 
M 279.428972 121.869474 
L 277.034159 126.552807 
L 270.4 134.886292 
L 263.424708 126.793627 
L 239.105277 121.869474 
L 262.763383 116.478463 
L 270.4 116.93383 
L 281.755605 113.853072 
" style="fill:#3fbc73;"/>
   </g>
   <g id="PathCollection_7">
    <path clip-path="url(#p267dcb0366)" d="M 171.2 109.00085 
L 150.205447 107.048531 
L 158.130573 121.869474 
L 160.113078 129.696201 
L 171.2 138.663258 
L 183.138943 130.297679 
L 209.296748 121.869474 
L 184.128136 112.742956 
M 281.755605 113.853072 
L 270.4 116.93383 
L 262.763383 116.478463 
L 239.105277 121.869474 
L 263.424708 126.793627 
L 270.4 134.886292 
L 277.034159 126.552807 
L 279.428972 121.869474 
M 174.247855 119.717864 
L 180.181447 121.869474 
L 174.014649 123.856454 
L 171.2 125.828669 
L 168.586218 123.714653 
L 168.118835 121.869474 
L 166.250458 118.375383 
L 171.2 118.835649 
" style="fill:#81d34d;"/>
   </g>
   <g id="PathCollection_8">
    <path clip-path="url(#p267dcb0366)" d="M 171.2 118.835649 
L 166.250458 118.375383 
L 168.118835 121.869474 
L 168.586218 123.714653 
L 171.2 125.828669 
L 174.014649 123.856454 
L 180.181447 121.869474 
L 174.247855 119.717864 
" style="fill:#d8e219;"/>
   </g>
   <g id="matplotlib.axis_1">
    <g id="xtick_1">
     <g id="line2d_1">
      <defs>
       <path d="M 0 0 
L 0 3.5 
" id="m5181a59d61" style="stroke:#000000;stroke-width:0.8;"/>
      </defs>
      <g>
       <use style="stroke:#000000;stroke-width:0.8;" x="72" xlink:href="#m5181a59d61" y="384.48"/>
      </g>
     </g>
     <g id="text_1">
      <!-- 0.5 -->
      <defs>
       <path d="M 31.78125 66.40625 
Q 24.171875 66.40625 20.328125 58.90625 
Q 16.5 51.421875 16.5 36.375 
Q 16.5 21.390625 20.328125 13.890625 
Q 24.171875 6.390625 31.78125 6.390625 
Q 39.453125 6.390625 43.28125 13.890625 
Q 47.125 21.390625 47.125 36.375 
Q 47.125 51.421875 43.28125 58.90625 
Q 39.453125 66.40625 31.78125 66.40625 
z
M 31.78125 74.21875 
Q 44.046875 74.21875 50.515625 64.515625 
Q 56.984375 54.828125 56.984375 36.375 
Q 56.984375 17.96875 50.515625 8.265625 
Q 44.046875 -1.421875 31.78125 -1.421875 
Q 19.53125 -1.421875 13.0625 8.265625 
Q 6.59375 17.96875 6.59375 36.375 
Q 6.59375 54.828125 13.0625 64.515625 
Q 19.53125 74.21875 31.78125 74.21875 
z
" id="DejaVuSans-48"/>
       <path d="M 10.6875 12.40625 
L 21 12.40625 
L 21 0 
L 10.6875 0 
z
" id="DejaVuSans-46"/>
       <path d="M 10.796875 72.90625 
L 49.515625 72.90625 
L 49.515625 64.59375 
L 19.828125 64.59375 
L 19.828125 46.734375 
Q 21.96875 47.46875 24.109375 47.828125 
Q 26.265625 48.1875 28.421875 48.1875 
Q 40.625 48.1875 47.75 41.5 
Q 54.890625 34.8125 54.890625 23.390625 
Q 54.890625 11.625 47.5625 5.09375 
Q 40.234375 -1.421875 26.90625 -1.421875 
Q 22.3125 -1.421875 17.546875 -0.640625 
Q 12.796875 0.140625 7.71875 1.703125 
L 7.71875 11.625 
Q 12.109375 9.234375 16.796875 8.0625 
Q 21.484375 6.890625 26.703125 6.890625 
Q 35.15625 6.890625 40.078125 11.328125 
Q 45.015625 15.765625 45.015625 23.390625 
Q 45.015625 31 40.078125 35.4375 
Q 35.15625 39.890625 26.703125 39.890625 
Q 22.75 39.890625 18.8125 39.015625 
Q 14.890625 38.140625 10.796875 36.28125 
z
" id="DejaVuSans-53"/>
      </defs>
      <g transform="translate(62.458125 400.598125)scale(0.12 -0.12)">
       <use xlink:href="#DejaVuSans-48"/>
       <use x="63.623047" xlink:href="#DejaVuSans-46"/>
       <use x="95.410156" xlink:href="#DejaVuSans-53"/>
      </g>
     </g>
    </g>
    <g id="xtick_2">
     <g id="line2d_2">
      <g>
       <use style="stroke:#000000;stroke-width:0.8;" x="161.28" xlink:href="#m5181a59d61" y="384.48"/>
      </g>
     </g>
     <g id="text_2">
      <!-- 0.6 -->
      <defs>
       <path d="M 33.015625 40.375 
Q 26.375 40.375 22.484375 35.828125 
Q 18.609375 31.296875 18.609375 23.390625 
Q 18.609375 15.53125 22.484375 10.953125 
Q 26.375 6.390625 33.015625 6.390625 
Q 39.65625 6.390625 43.53125 10.953125 
Q 47.40625 15.53125 47.40625 23.390625 
Q 47.40625 31.296875 43.53125 35.828125 
Q 39.65625 40.375 33.015625 40.375 
z
M 52.59375 71.296875 
L 52.59375 62.3125 
Q 48.875 64.0625 45.09375 64.984375 
Q 41.3125 65.921875 37.59375 65.921875 
Q 27.828125 65.921875 22.671875 59.328125 
Q 17.53125 52.734375 16.796875 39.40625 
Q 19.671875 43.65625 24.015625 45.921875 
Q 28.375 48.1875 33.59375 48.1875 
Q 44.578125 48.1875 50.953125 41.515625 
Q 57.328125 34.859375 57.328125 23.390625 
Q 57.328125 12.15625 50.6875 5.359375 
Q 44.046875 -1.421875 33.015625 -1.421875 
Q 20.359375 -1.421875 13.671875 8.265625 
Q 6.984375 17.96875 6.984375 36.375 
Q 6.984375 53.65625 15.1875 63.9375 
Q 23.390625 74.21875 37.203125 74.21875 
Q 40.921875 74.21875 44.703125 73.484375 
Q 48.484375 72.75 52.59375 71.296875 
z
" id="DejaVuSans-54"/>
      </defs>
      <g transform="translate(151.738125 400.598125)scale(0.12 -0.12)">
       <use xlink:href="#DejaVuSans-48"/>
       <use x="63.623047" xlink:href="#DejaVuSans-46"/>
       <use x="95.410156" xlink:href="#DejaVuSans-54"/>
      </g>
     </g>
    </g>
    <g id="xtick_3">
     <g id="line2d_3">
      <g>
       <use style="stroke:#000000;stroke-width:0.8;" x="250.56" xlink:href="#m5181a59d61" y="384.48"/>
      </g>
     </g>
     <g id="text_3">
      <!-- 0.7 -->
      <defs>
       <path d="M 8.203125 72.90625 
L 55.078125 72.90625 
L 55.078125 68.703125 
L 28.609375 0 
L 18.3125 0 
L 43.21875 64.59375 
L 8.203125 64.59375 
z
" id="DejaVuSans-55"/>
      </defs>
      <g transform="translate(241.018125 400.598125)scale(0.12 -0.12)">
       <use xlink:href="#DejaVuSans-48"/>
       <use x="63.623047" xlink:href="#DejaVuSans-46"/>
       <use x="95.410156" xlink:href="#DejaVuSans-55"/>
      </g>
     </g>
    </g>
    <g id="xtick_4">
     <g id="line2d_4">
      <g>
       <use style="stroke:#000000;stroke-width:0.8;" x="339.84" xlink:href="#m5181a59d61" y="384.48"/>
      </g>
     </g>
     <g id="text_4">
      <!-- 0.8 -->
      <defs>
       <path d="M 31.78125 34.625 
Q 24.75 34.625 20.71875 30.859375 
Q 16.703125 27.09375 16.703125 20.515625 
Q 16.703125 13.921875 20.71875 10.15625 
Q 24.75 6.390625 31.78125 6.390625 
Q 38.8125 6.390625 42.859375 10.171875 
Q 46.921875 13.96875 46.921875 20.515625 
Q 46.921875 27.09375 42.890625 30.859375 
Q 38.875 34.625 31.78125 34.625 
z
M 21.921875 38.8125 
Q 15.578125 40.375 12.03125 44.71875 
Q 8.5 49.078125 8.5 55.328125 
Q 8.5 64.0625 14.71875 69.140625 
Q 20.953125 74.21875 31.78125 74.21875 
Q 42.671875 74.21875 48.875 69.140625 
Q 55.078125 64.0625 55.078125 55.328125 
Q 55.078125 49.078125 51.53125 44.71875 
Q 48 40.375 41.703125 38.8125 
Q 48.828125 37.15625 52.796875 32.3125 
Q 56.78125 27.484375 56.78125 20.515625 
Q 56.78125 9.90625 50.3125 4.234375 
Q 43.84375 -1.421875 31.78125 -1.421875 
Q 19.734375 -1.421875 13.25 4.234375 
Q 6.78125 9.90625 6.78125 20.515625 
Q 6.78125 27.484375 10.78125 32.3125 
Q 14.796875 37.15625 21.921875 38.8125 
z
M 18.3125 54.390625 
Q 18.3125 48.734375 21.84375 45.5625 
Q 25.390625 42.390625 31.78125 42.390625 
Q 38.140625 42.390625 41.71875 45.5625 
Q 45.3125 48.734375 45.3125 54.390625 
Q 45.3125 60.0625 41.71875 63.234375 
Q 38.140625 66.40625 31.78125 66.40625 
Q 25.390625 66.40625 21.84375 63.234375 
Q 18.3125 60.0625 18.3125 54.390625 
z
" id="DejaVuSans-56"/>
      </defs>
      <g transform="translate(330.298125 400.598125)scale(0.12 -0.12)">
       <use xlink:href="#DejaVuSans-48"/>
       <use x="63.623047" xlink:href="#DejaVuSans-46"/>
       <use x="95.410156" xlink:href="#DejaVuSans-56"/>
      </g>
     </g>
    </g>
    <g id="xtick_5">
     <g id="line2d_5">
      <g>
       <use style="stroke:#000000;stroke-width:0.8;" x="429.12" xlink:href="#m5181a59d61" y="384.48"/>
      </g>
     </g>
     <g id="text_5">
      <!-- 0.9 -->
      <defs>
       <path d="M 10.984375 1.515625 
L 10.984375 10.5 
Q 14.703125 8.734375 18.5 7.8125 
Q 22.3125 6.890625 25.984375 6.890625 
Q 35.75 6.890625 40.890625 13.453125 
Q 46.046875 20.015625 46.78125 33.40625 
Q 43.953125 29.203125 39.59375 26.953125 
Q 35.25 24.703125 29.984375 24.703125 
Q 19.046875 24.703125 12.671875 31.3125 
Q 6.296875 37.9375 6.296875 49.421875 
Q 6.296875 60.640625 12.9375 67.421875 
Q 19.578125 74.21875 30.609375 74.21875 
Q 43.265625 74.21875 49.921875 64.515625 
Q 56.59375 54.828125 56.59375 36.375 
Q 56.59375 19.140625 48.40625 8.859375 
Q 40.234375 -1.421875 26.421875 -1.421875 
Q 22.703125 -1.421875 18.890625 -0.6875 
Q 15.09375 0.046875 10.984375 1.515625 
z
M 30.609375 32.421875 
Q 37.25 32.421875 41.125 36.953125 
Q 45.015625 41.5 45.015625 49.421875 
Q 45.015625 57.28125 41.125 61.84375 
Q 37.25 66.40625 30.609375 66.40625 
Q 23.96875 66.40625 20.09375 61.84375 
Q 16.21875 57.28125 16.21875 49.421875 
Q 16.21875 41.5 20.09375 36.953125 
Q 23.96875 32.421875 30.609375 32.421875 
z
" id="DejaVuSans-57"/>
      </defs>
      <g transform="translate(419.578125 400.598125)scale(0.12 -0.12)">
       <use xlink:href="#DejaVuSans-48"/>
       <use x="63.623047" xlink:href="#DejaVuSans-46"/>
       <use x="95.410156" xlink:href="#DejaVuSans-57"/>
      </g>
     </g>
    </g>
    <g id="xtick_6">
     <g id="line2d_6">
      <g>
       <use style="stroke:#000000;stroke-width:0.8;" x="518.4" xlink:href="#m5181a59d61" y="384.48"/>
      </g>
     </g>
     <g id="text_6">
      <!-- 1.0 -->
      <defs>
       <path d="M 12.40625 8.296875 
L 28.515625 8.296875 
L 28.515625 63.921875 
L 10.984375 60.40625 
L 10.984375 69.390625 
L 28.421875 72.90625 
L 38.28125 72.90625 
L 38.28125 8.296875 
L 54.390625 8.296875 
L 54.390625 0 
L 12.40625 0 
z
" id="DejaVuSans-49"/>
      </defs>
      <g transform="translate(508.858125 400.598125)scale(0.12 -0.12)">
       <use xlink:href="#DejaVuSans-49"/>
       <use x="63.623047" xlink:href="#DejaVuSans-46"/>
       <use x="95.410156" xlink:href="#DejaVuSans-48"/>
      </g>
     </g>
    </g>
    <g id="text_7">
     <!-- Bagging fraction -->
     <defs>
      <path d="M 19.671875 34.8125 
L 19.671875 8.109375 
L 35.5 8.109375 
Q 43.453125 8.109375 47.28125 11.40625 
Q 51.125 14.703125 51.125 21.484375 
Q 51.125 28.328125 47.28125 31.5625 
Q 43.453125 34.8125 35.5 34.8125 
z
M 19.671875 64.796875 
L 19.671875 42.828125 
L 34.28125 42.828125 
Q 41.5 42.828125 45.03125 45.53125 
Q 48.578125 48.25 48.578125 53.8125 
Q 48.578125 59.328125 45.03125 62.0625 
Q 41.5 64.796875 34.28125 64.796875 
z
M 9.8125 72.90625 
L 35.015625 72.90625 
Q 46.296875 72.90625 52.390625 68.21875 
Q 58.5 63.53125 58.5 54.890625 
Q 58.5 48.1875 55.375 44.234375 
Q 52.25 40.28125 46.1875 39.3125 
Q 53.46875 37.75 57.5 32.78125 
Q 61.53125 27.828125 61.53125 20.40625 
Q 61.53125 10.640625 54.890625 5.3125 
Q 48.25 0 35.984375 0 
L 9.8125 0 
z
" id="DejaVuSans-66"/>
      <path d="M 34.28125 27.484375 
Q 23.390625 27.484375 19.1875 25 
Q 14.984375 22.515625 14.984375 16.5 
Q 14.984375 11.71875 18.140625 8.90625 
Q 21.296875 6.109375 26.703125 6.109375 
Q 34.1875 6.109375 38.703125 11.40625 
Q 43.21875 16.703125 43.21875 25.484375 
L 43.21875 27.484375 
z
M 52.203125 31.203125 
L 52.203125 0 
L 43.21875 0 
L 43.21875 8.296875 
Q 40.140625 3.328125 35.546875 0.953125 
Q 30.953125 -1.421875 24.3125 -1.421875 
Q 15.921875 -1.421875 10.953125 3.296875 
Q 6 8.015625 6 15.921875 
Q 6 25.140625 12.171875 29.828125 
Q 18.359375 34.515625 30.609375 34.515625 
L 43.21875 34.515625 
L 43.21875 35.40625 
Q 43.21875 41.609375 39.140625 45 
Q 35.0625 48.390625 27.6875 48.390625 
Q 23 48.390625 18.546875 47.265625 
Q 14.109375 46.140625 10.015625 43.890625 
L 10.015625 52.203125 
Q 14.9375 54.109375 19.578125 55.046875 
Q 24.21875 56 28.609375 56 
Q 40.484375 56 46.34375 49.84375 
Q 52.203125 43.703125 52.203125 31.203125 
z
" id="DejaVuSans-97"/>
      <path d="M 45.40625 27.984375 
Q 45.40625 37.75 41.375 43.109375 
Q 37.359375 48.484375 30.078125 48.484375 
Q 22.859375 48.484375 18.828125 43.109375 
Q 14.796875 37.75 14.796875 27.984375 
Q 14.796875 18.265625 18.828125 12.890625 
Q 22.859375 7.515625 30.078125 7.515625 
Q 37.359375 7.515625 41.375 12.890625 
Q 45.40625 18.265625 45.40625 27.984375 
z
M 54.390625 6.78125 
Q 54.390625 -7.171875 48.1875 -13.984375 
Q 42 -20.796875 29.203125 -20.796875 
Q 24.46875 -20.796875 20.265625 -20.09375 
Q 16.0625 -19.390625 12.109375 -17.921875 
L 12.109375 -9.1875 
Q 16.0625 -11.328125 19.921875 -12.34375 
Q 23.78125 -13.375 27.78125 -13.375 
Q 36.625 -13.375 41.015625 -8.765625 
Q 45.40625 -4.15625 45.40625 5.171875 
L 45.40625 9.625 
Q 42.625 4.78125 38.28125 2.390625 
Q 33.9375 0 27.875 0 
Q 17.828125 0 11.671875 7.65625 
Q 5.515625 15.328125 5.515625 27.984375 
Q 5.515625 40.671875 11.671875 48.328125 
Q 17.828125 56 27.875 56 
Q 33.9375 56 38.28125 53.609375 
Q 42.625 51.21875 45.40625 46.390625 
L 45.40625 54.6875 
L 54.390625 54.6875 
z
" id="DejaVuSans-103"/>
      <path d="M 9.421875 54.6875 
L 18.40625 54.6875 
L 18.40625 0 
L 9.421875 0 
z
M 9.421875 75.984375 
L 18.40625 75.984375 
L 18.40625 64.59375 
L 9.421875 64.59375 
z
" id="DejaVuSans-105"/>
      <path d="M 54.890625 33.015625 
L 54.890625 0 
L 45.90625 0 
L 45.90625 32.71875 
Q 45.90625 40.484375 42.875 44.328125 
Q 39.84375 48.1875 33.796875 48.1875 
Q 26.515625 48.1875 22.3125 43.546875 
Q 18.109375 38.921875 18.109375 30.90625 
L 18.109375 0 
L 9.078125 0 
L 9.078125 54.6875 
L 18.109375 54.6875 
L 18.109375 46.1875 
Q 21.34375 51.125 25.703125 53.5625 
Q 30.078125 56 35.796875 56 
Q 45.21875 56 50.046875 50.171875 
Q 54.890625 44.34375 54.890625 33.015625 
z
" id="DejaVuSans-110"/>
      <path id="DejaVuSans-32"/>
      <path d="M 37.109375 75.984375 
L 37.109375 68.5 
L 28.515625 68.5 
Q 23.6875 68.5 21.796875 66.546875 
Q 19.921875 64.59375 19.921875 59.515625 
L 19.921875 54.6875 
L 34.71875 54.6875 
L 34.71875 47.703125 
L 19.921875 47.703125 
L 19.921875 0 
L 10.890625 0 
L 10.890625 47.703125 
L 2.296875 47.703125 
L 2.296875 54.6875 
L 10.890625 54.6875 
L 10.890625 58.5 
Q 10.890625 67.625 15.140625 71.796875 
Q 19.390625 75.984375 28.609375 75.984375 
z
" id="DejaVuSans-102"/>
      <path d="M 41.109375 46.296875 
Q 39.59375 47.171875 37.8125 47.578125 
Q 36.03125 48 33.890625 48 
Q 26.265625 48 22.1875 43.046875 
Q 18.109375 38.09375 18.109375 28.8125 
L 18.109375 0 
L 9.078125 0 
L 9.078125 54.6875 
L 18.109375 54.6875 
L 18.109375 46.1875 
Q 20.953125 51.171875 25.484375 53.578125 
Q 30.03125 56 36.53125 56 
Q 37.453125 56 38.578125 55.875 
Q 39.703125 55.765625 41.0625 55.515625 
z
" id="DejaVuSans-114"/>
      <path d="M 48.78125 52.59375 
L 48.78125 44.1875 
Q 44.96875 46.296875 41.140625 47.34375 
Q 37.3125 48.390625 33.40625 48.390625 
Q 24.65625 48.390625 19.8125 42.84375 
Q 14.984375 37.3125 14.984375 27.296875 
Q 14.984375 17.28125 19.8125 11.734375 
Q 24.65625 6.203125 33.40625 6.203125 
Q 37.3125 6.203125 41.140625 7.25 
Q 44.96875 8.296875 48.78125 10.40625 
L 48.78125 2.09375 
Q 45.015625 0.34375 40.984375 -0.53125 
Q 36.96875 -1.421875 32.421875 -1.421875 
Q 20.0625 -1.421875 12.78125 6.34375 
Q 5.515625 14.109375 5.515625 27.296875 
Q 5.515625 40.671875 12.859375 48.328125 
Q 20.21875 56 33.015625 56 
Q 37.15625 56 41.109375 55.140625 
Q 45.0625 54.296875 48.78125 52.59375 
z
" id="DejaVuSans-99"/>
      <path d="M 18.3125 70.21875 
L 18.3125 54.6875 
L 36.8125 54.6875 
L 36.8125 47.703125 
L 18.3125 47.703125 
L 18.3125 18.015625 
Q 18.3125 11.328125 20.140625 9.421875 
Q 21.96875 7.515625 27.59375 7.515625 
L 36.8125 7.515625 
L 36.8125 0 
L 27.59375 0 
Q 17.1875 0 13.234375 3.875 
Q 9.28125 7.765625 9.28125 18.015625 
L 9.28125 47.703125 
L 2.6875 47.703125 
L 2.6875 54.6875 
L 9.28125 54.6875 
L 9.28125 70.21875 
z
" id="DejaVuSans-116"/>
      <path d="M 30.609375 48.390625 
Q 23.390625 48.390625 19.1875 42.75 
Q 14.984375 37.109375 14.984375 27.296875 
Q 14.984375 17.484375 19.15625 11.84375 
Q 23.34375 6.203125 30.609375 6.203125 
Q 37.796875 6.203125 41.984375 11.859375 
Q 46.1875 17.53125 46.1875 27.296875 
Q 46.1875 37.015625 41.984375 42.703125 
Q 37.796875 48.390625 30.609375 48.390625 
z
M 30.609375 56 
Q 42.328125 56 49.015625 48.375 
Q 55.71875 40.765625 55.71875 27.296875 
Q 55.71875 13.875 49.015625 6.21875 
Q 42.328125 -1.421875 30.609375 -1.421875 
Q 18.84375 -1.421875 12.171875 6.21875 
Q 5.515625 13.875 5.515625 27.296875 
Q 5.515625 40.765625 12.171875 48.375 
Q 18.84375 56 30.609375 56 
z
" id="DejaVuSans-111"/>
     </defs>
     <g transform="translate(237.281562 417.731562)scale(0.14 -0.14)">
      <use xlink:href="#DejaVuSans-66"/>
      <use x="68.603516" xlink:href="#DejaVuSans-97"/>
      <use x="129.882812" xlink:href="#DejaVuSans-103"/>
      <use x="193.359375" xlink:href="#DejaVuSans-103"/>
      <use x="256.835938" xlink:href="#DejaVuSans-105"/>
      <use x="284.619141" xlink:href="#DejaVuSans-110"/>
      <use x="347.998047" xlink:href="#DejaVuSans-103"/>
      <use x="411.474609" xlink:href="#DejaVuSans-32"/>
      <use x="443.261719" xlink:href="#DejaVuSans-102"/>
      <use x="478.466797" xlink:href="#DejaVuSans-114"/>
      <use x="519.580078" xlink:href="#DejaVuSans-97"/>
      <use x="580.859375" xlink:href="#DejaVuSans-99"/>
      <use x="635.839844" xlink:href="#DejaVuSans-116"/>
      <use x="675.048828" xlink:href="#DejaVuSans-105"/>
      <use x="702.832031" xlink:href="#DejaVuSans-111"/>
      <use x="764.013672" xlink:href="#DejaVuSans-110"/>
     </g>
    </g>
   </g>
   <g id="matplotlib.axis_2">
    <g id="ytick_1">
     <g id="line2d_7">
      <defs>
       <path d="M 0 0 
L -3.5 0 
" id="m1d0195fa3d" style="stroke:#000000;stroke-width:0.8;"/>
      </defs>
      <g>
       <use style="stroke:#000000;stroke-width:0.8;" x="72" xlink:href="#m1d0195fa3d" y="384.48"/>
      </g>
     </g>
     <g id="text_8">
      <!-- 1 -->
      <g transform="translate(57.365 389.039062)scale(0.12 -0.12)">
       <use xlink:href="#DejaVuSans-49"/>
      </g>
     </g>
    </g>
    <g id="ytick_2">
     <g id="line2d_8">
      <g>
       <use style="stroke:#000000;stroke-width:0.8;" x="72" xlink:href="#m1d0195fa3d" y="314.450526"/>
      </g>
     </g>
     <g id="text_9">
      <!-- 5 -->
      <g transform="translate(57.365 319.009589)scale(0.12 -0.12)">
       <use xlink:href="#DejaVuSans-53"/>
      </g>
     </g>
    </g>
    <g id="ytick_3">
     <g id="line2d_9">
      <g>
       <use style="stroke:#000000;stroke-width:0.8;" x="72" xlink:href="#m1d0195fa3d" y="226.913684"/>
      </g>
     </g>
     <g id="text_10">
      <!-- 10 -->
      <g transform="translate(49.73 231.472747)scale(0.12 -0.12)">
       <use xlink:href="#DejaVuSans-49"/>
       <use x="63.623047" xlink:href="#DejaVuSans-48"/>
      </g>
     </g>
    </g>
    <g id="ytick_4">
     <g id="line2d_10">
      <g>
       <use style="stroke:#000000;stroke-width:0.8;" x="72" xlink:href="#m1d0195fa3d" y="139.376842"/>
      </g>
     </g>
     <g id="text_11">
      <!-- 15 -->
      <g transform="translate(49.73 143.935905)scale(0.12 -0.12)">
       <use xlink:href="#DejaVuSans-49"/>
       <use x="63.623047" xlink:href="#DejaVuSans-53"/>
      </g>
     </g>
    </g>
    <g id="ytick_5">
     <g id="line2d_11">
      <g>
       <use style="stroke:#000000;stroke-width:0.8;" x="72" xlink:href="#m1d0195fa3d" y="51.84"/>
      </g>
     </g>
     <g id="text_12">
      <!-- 20 -->
      <defs>
       <path d="M 19.1875 8.296875 
L 53.609375 8.296875 
L 53.609375 0 
L 7.328125 0 
L 7.328125 8.296875 
Q 12.9375 14.109375 22.625 23.890625 
Q 32.328125 33.6875 34.8125 36.53125 
Q 39.546875 41.84375 41.421875 45.53125 
Q 43.3125 49.21875 43.3125 52.78125 
Q 43.3125 58.59375 39.234375 62.25 
Q 35.15625 65.921875 28.609375 65.921875 
Q 23.96875 65.921875 18.8125 64.3125 
Q 13.671875 62.703125 7.8125 59.421875 
L 7.8125 69.390625 
Q 13.765625 71.78125 18.9375 73 
Q 24.125 74.21875 28.421875 74.21875 
Q 39.75 74.21875 46.484375 68.546875 
Q 53.21875 62.890625 53.21875 53.421875 
Q 53.21875 48.921875 51.53125 44.890625 
Q 49.859375 40.875 45.40625 35.40625 
Q 44.1875 33.984375 37.640625 27.21875 
Q 31.109375 20.453125 19.1875 8.296875 
z
" id="DejaVuSans-50"/>
      </defs>
      <g transform="translate(49.73 56.399062)scale(0.12 -0.12)">
       <use xlink:href="#DejaVuSans-50"/>
       <use x="63.623047" xlink:href="#DejaVuSans-48"/>
      </g>
     </g>
    </g>
    <g id="text_13">
     <!-- Number of neighbors - K -->
     <defs>
      <path d="M 9.8125 72.90625 
L 23.09375 72.90625 
L 55.421875 11.921875 
L 55.421875 72.90625 
L 64.984375 72.90625 
L 64.984375 0 
L 51.703125 0 
L 19.390625 60.984375 
L 19.390625 0 
L 9.8125 0 
z
" id="DejaVuSans-78"/>
      <path d="M 8.5 21.578125 
L 8.5 54.6875 
L 17.484375 54.6875 
L 17.484375 21.921875 
Q 17.484375 14.15625 20.5 10.265625 
Q 23.53125 6.390625 29.59375 6.390625 
Q 36.859375 6.390625 41.078125 11.03125 
Q 45.3125 15.671875 45.3125 23.6875 
L 45.3125 54.6875 
L 54.296875 54.6875 
L 54.296875 0 
L 45.3125 0 
L 45.3125 8.40625 
Q 42.046875 3.421875 37.71875 1 
Q 33.40625 -1.421875 27.6875 -1.421875 
Q 18.265625 -1.421875 13.375 4.4375 
Q 8.5 10.296875 8.5 21.578125 
z
M 31.109375 56 
z
" id="DejaVuSans-117"/>
      <path d="M 52 44.1875 
Q 55.375 50.25 60.0625 53.125 
Q 64.75 56 71.09375 56 
Q 79.640625 56 84.28125 50.015625 
Q 88.921875 44.046875 88.921875 33.015625 
L 88.921875 0 
L 79.890625 0 
L 79.890625 32.71875 
Q 79.890625 40.578125 77.09375 44.375 
Q 74.3125 48.1875 68.609375 48.1875 
Q 61.625 48.1875 57.5625 43.546875 
Q 53.515625 38.921875 53.515625 30.90625 
L 53.515625 0 
L 44.484375 0 
L 44.484375 32.71875 
Q 44.484375 40.625 41.703125 44.40625 
Q 38.921875 48.1875 33.109375 48.1875 
Q 26.21875 48.1875 22.15625 43.53125 
Q 18.109375 38.875 18.109375 30.90625 
L 18.109375 0 
L 9.078125 0 
L 9.078125 54.6875 
L 18.109375 54.6875 
L 18.109375 46.1875 
Q 21.1875 51.21875 25.484375 53.609375 
Q 29.78125 56 35.6875 56 
Q 41.65625 56 45.828125 52.96875 
Q 50 49.953125 52 44.1875 
z
" id="DejaVuSans-109"/>
      <path d="M 48.6875 27.296875 
Q 48.6875 37.203125 44.609375 42.84375 
Q 40.53125 48.484375 33.40625 48.484375 
Q 26.265625 48.484375 22.1875 42.84375 
Q 18.109375 37.203125 18.109375 27.296875 
Q 18.109375 17.390625 22.1875 11.75 
Q 26.265625 6.109375 33.40625 6.109375 
Q 40.53125 6.109375 44.609375 11.75 
Q 48.6875 17.390625 48.6875 27.296875 
z
M 18.109375 46.390625 
Q 20.953125 51.265625 25.265625 53.625 
Q 29.59375 56 35.59375 56 
Q 45.5625 56 51.78125 48.09375 
Q 58.015625 40.1875 58.015625 27.296875 
Q 58.015625 14.40625 51.78125 6.484375 
Q 45.5625 -1.421875 35.59375 -1.421875 
Q 29.59375 -1.421875 25.265625 0.953125 
Q 20.953125 3.328125 18.109375 8.203125 
L 18.109375 0 
L 9.078125 0 
L 9.078125 75.984375 
L 18.109375 75.984375 
z
" id="DejaVuSans-98"/>
      <path d="M 56.203125 29.59375 
L 56.203125 25.203125 
L 14.890625 25.203125 
Q 15.484375 15.921875 20.484375 11.0625 
Q 25.484375 6.203125 34.421875 6.203125 
Q 39.59375 6.203125 44.453125 7.46875 
Q 49.3125 8.734375 54.109375 11.28125 
L 54.109375 2.78125 
Q 49.265625 0.734375 44.1875 -0.34375 
Q 39.109375 -1.421875 33.890625 -1.421875 
Q 20.796875 -1.421875 13.15625 6.1875 
Q 5.515625 13.8125 5.515625 26.8125 
Q 5.515625 40.234375 12.765625 48.109375 
Q 20.015625 56 32.328125 56 
Q 43.359375 56 49.78125 48.890625 
Q 56.203125 41.796875 56.203125 29.59375 
z
M 47.21875 32.234375 
Q 47.125 39.59375 43.09375 43.984375 
Q 39.0625 48.390625 32.421875 48.390625 
Q 24.90625 48.390625 20.390625 44.140625 
Q 15.875 39.890625 15.1875 32.171875 
z
" id="DejaVuSans-101"/>
      <path d="M 54.890625 33.015625 
L 54.890625 0 
L 45.90625 0 
L 45.90625 32.71875 
Q 45.90625 40.484375 42.875 44.328125 
Q 39.84375 48.1875 33.796875 48.1875 
Q 26.515625 48.1875 22.3125 43.546875 
Q 18.109375 38.921875 18.109375 30.90625 
L 18.109375 0 
L 9.078125 0 
L 9.078125 75.984375 
L 18.109375 75.984375 
L 18.109375 46.1875 
Q 21.34375 51.125 25.703125 53.5625 
Q 30.078125 56 35.796875 56 
Q 45.21875 56 50.046875 50.171875 
Q 54.890625 44.34375 54.890625 33.015625 
z
" id="DejaVuSans-104"/>
      <path d="M 44.28125 53.078125 
L 44.28125 44.578125 
Q 40.484375 46.53125 36.375 47.5 
Q 32.28125 48.484375 27.875 48.484375 
Q 21.1875 48.484375 17.84375 46.4375 
Q 14.5 44.390625 14.5 40.28125 
Q 14.5 37.15625 16.890625 35.375 
Q 19.28125 33.59375 26.515625 31.984375 
L 29.59375 31.296875 
Q 39.15625 29.25 43.1875 25.515625 
Q 47.21875 21.78125 47.21875 15.09375 
Q 47.21875 7.46875 41.1875 3.015625 
Q 35.15625 -1.421875 24.609375 -1.421875 
Q 20.21875 -1.421875 15.453125 -0.5625 
Q 10.6875 0.296875 5.421875 2 
L 5.421875 11.28125 
Q 10.40625 8.6875 15.234375 7.390625 
Q 20.0625 6.109375 24.8125 6.109375 
Q 31.15625 6.109375 34.5625 8.28125 
Q 37.984375 10.453125 37.984375 14.40625 
Q 37.984375 18.0625 35.515625 20.015625 
Q 33.0625 21.96875 24.703125 23.78125 
L 21.578125 24.515625 
Q 13.234375 26.265625 9.515625 29.90625 
Q 5.8125 33.546875 5.8125 39.890625 
Q 5.8125 47.609375 11.28125 51.796875 
Q 16.75 56 26.8125 56 
Q 31.78125 56 36.171875 55.265625 
Q 40.578125 54.546875 44.28125 53.078125 
z
" id="DejaVuSans-115"/>
      <path d="M 4.890625 31.390625 
L 31.203125 31.390625 
L 31.203125 23.390625 
L 4.890625 23.390625 
z
" id="DejaVuSans-45"/>
      <path d="M 9.8125 72.90625 
L 19.671875 72.90625 
L 19.671875 42.09375 
L 52.390625 72.90625 
L 65.09375 72.90625 
L 28.90625 38.921875 
L 67.671875 0 
L 54.6875 0 
L 19.671875 35.109375 
L 19.671875 0 
L 9.8125 0 
z
" id="DejaVuSans-75"/>
     </defs>
     <g transform="translate(42.818438 303.861875)rotate(-90)scale(0.14 -0.14)">
      <use xlink:href="#DejaVuSans-78"/>
      <use x="74.804688" xlink:href="#DejaVuSans-117"/>
      <use x="138.183594" xlink:href="#DejaVuSans-109"/>
      <use x="235.595703" xlink:href="#DejaVuSans-98"/>
      <use x="299.072266" xlink:href="#DejaVuSans-101"/>
      <use x="360.595703" xlink:href="#DejaVuSans-114"/>
      <use x="401.708984" xlink:href="#DejaVuSans-32"/>
      <use x="433.496094" xlink:href="#DejaVuSans-111"/>
      <use x="494.677734" xlink:href="#DejaVuSans-102"/>
      <use x="529.882812" xlink:href="#DejaVuSans-32"/>
      <use x="561.669922" xlink:href="#DejaVuSans-110"/>
      <use x="625.048828" xlink:href="#DejaVuSans-101"/>
      <use x="686.572266" xlink:href="#DejaVuSans-105"/>
      <use x="714.355469" xlink:href="#DejaVuSans-103"/>
      <use x="777.832031" xlink:href="#DejaVuSans-104"/>
      <use x="841.210938" xlink:href="#DejaVuSans-98"/>
      <use x="904.6875" xlink:href="#DejaVuSans-111"/>
      <use x="965.869141" xlink:href="#DejaVuSans-114"/>
      <use x="1006.982422" xlink:href="#DejaVuSans-115"/>
      <use x="1059.082031" xlink:href="#DejaVuSans-32"/>
      <use x="1090.869141" xlink:href="#DejaVuSans-45"/>
      <use x="1126.953125" xlink:href="#DejaVuSans-32"/>
      <use x="1158.740234" xlink:href="#DejaVuSans-75"/>
     </g>
    </g>
   </g>
   <g id="patch_3">
    <path d="M 72 384.48 
L 72 51.84 
" style="fill:none;stroke:#000000;stroke-linecap:square;stroke-linejoin:miter;stroke-width:0.8;"/>
   </g>
   <g id="patch_4">
    <path d="M 518.4 384.48 
L 518.4 51.84 
" style="fill:none;stroke:#000000;stroke-linecap:square;stroke-linejoin:miter;stroke-width:0.8;"/>
   </g>
   <g id="patch_5">
    <path d="M 72 384.48 
L 518.4 384.48 
" style="fill:none;stroke:#000000;stroke-linecap:square;stroke-linejoin:miter;stroke-width:0.8;"/>
   </g>
   <g id="patch_6">
    <path d="M 72 51.84 
L 518.4 51.84 
" style="fill:none;stroke:#000000;stroke-linecap:square;stroke-linejoin:miter;stroke-width:0.8;"/>
   </g>
  </g>
 </g>
 <defs>
  <clipPath id="p267dcb0366">
   <rect height="332.64" width="446.4" x="72" y="51.84"/>
  </clipPath>
 </defs>
</svg>
