<?xml version="1.0" encoding="utf-8" standalone="no"?>
<!DOCTYPE svg PUBLIC "-//W3C//DTD SVG 1.1//EN"
  "http://www.w3.org/Graphics/SVG/1.1/DTD/svg11.dtd">
<!-- Created with matplotlib (https://matplotlib.org/) -->
<svg height="432pt" version="1.1" viewBox="0 0 576 432" width="576pt" xmlns="http://www.w3.org/2000/svg" xmlns:xlink="http://www.w3.org/1999/xlink">
 <defs>
  <style type="text/css">
*{stroke-linecap:butt;stroke-linejoin:round;}
  </style>
 </defs>
 <g id="figure_1">
  <g id="patch_1">
   <path d="M 0 432 
L 576 432 
L 576 0 
L 0 0 
z
" style="fill:#ffffff;"/>
  </g>
  <g id="axes_1">
   <g id="patch_2">
    <path d="M 72 384.48 
L 518.4 384.48 
L 518.4 51.84 
L 72 51.84 
z
" style="fill:#ffffff;"/>
   </g>
   <g id="PathCollection_1">
    <path clip-path="url(#pd8d126e6f6)" d="M 72 372.276485 
L 104.888454 361.26265 
L 103.882423 384.48 
L 121.6 384.48 
L 171.2 384.48 
L 181.346151 384.48 
L 171.2 382.711585 
L 126.890712 349.465263 
L 130.99768 342.831043 
L 121.6 347.248007 
L 113.363652 343.650877 
L 72 334.66108 
L 72 349.465263 
M 518.4 227.884707 
L 472.255522 240.761954 
L 469.53768 191.898947 
L 469.104357 191.684089 
L 470.78691 156.884211 
L 470.436608 155.72886 
L 468.8 155.850573 
L 466.213329 155.05817 
L 462.079095 156.884211 
L 466.363804 158.604025 
L 468.423815 191.898947 
L 466.988457 242.502785 
L 465.471859 244.421053 
L 459.882662 250.716178 
L 468.8 246.789587 
L 470.701532 245.763425 
L 518.4 251.3032 
L 518.4 244.421053 
M 120.321094 280.338623 
L 121.6 279.747626 
L 123.094681 280.490948 
L 122.366198 279.435789 
L 122.084902 279.093476 
L 121.6 278.656654 
L 121.194422 279.435789 
M 115.715598 191.898947 
L 121.6 205.748627 
L 128.269701 198.961583 
L 136.012481 191.898947 
L 129.89926 186.040149 
L 121.6 189.075058 
L 111.773923 184.962304 
M 369.6 332.296635 
L 379.847682 314.450526 
L 394.627109 296.782832 
L 369.6 299.842435 
L 342.053778 295.004484 
L 353.570198 314.450526 
M 369.6 252.51078 
L 384.453329 254.906645 
L 375.701588 244.421053 
L 373.014419 240.805479 
L 369.6 242.37425 
L 320.74872 191.898947 
L 321.331112 190.959259 
L 320 191.5147 
L 319.492246 191.540502 
L 317.472488 191.898947 
L 318.101496 193.909299 
L 320 196.202826 
L 360.124323 244.421053 
L 352.540677 256.46395 
" style="fill:#481769;"/>
   </g>
   <g id="PathCollection_2">
    <path clip-path="url(#pd8d126e6f6)" d="M 509.533294 51.84 
L 507.428932 79.109796 
L 506.893835 86.854737 
L 503.372269 97.463447 
L 518.4 98.771301 
L 518.4 86.854737 
L 518.4 51.84 
M 365.788788 51.84 
L 363.899996 55.863874 
L 366.964911 86.854737 
L 369.6 88.509675 
L 375.624105 86.854737 
L 381.621833 60.32672 
L 411.311411 51.84 
L 369.6 51.84 
M 72 334.66108 
L 113.363652 343.650877 
L 121.6 347.248007 
L 130.99768 342.831043 
L 126.890712 349.465263 
L 171.2 382.711585 
L 181.346151 384.48 
L 220.8 384.48 
L 270.4 384.48 
L 320 384.48 
L 369.6 384.48 
L 397.568347 384.48 
L 394.382247 366.960099 
L 419.2 352.308037 
L 429.085879 356.444123 
L 468.8 373.410802 
L 496.723314 384.48 
L 518.4 384.48 
L 518.4 376.063881 
L 492.041268 349.465263 
L 494.176302 332.364731 
L 518.4 335.285138 
L 518.4 314.450526 
L 518.4 296.243014 
L 469.372234 279.435789 
L 497.158826 264.440747 
L 518.4 266.90773 
L 518.4 251.3032 
L 470.701532 245.763425 
L 468.8 246.789587 
L 459.882662 250.716178 
L 465.471859 244.421053 
L 466.988457 242.502785 
L 468.423815 191.898947 
L 466.363804 158.604025 
L 462.079095 156.884211 
L 466.213329 155.05817 
L 468.8 155.850573 
L 470.436608 155.72886 
L 470.78691 156.884211 
L 469.104357 191.684089 
L 469.53768 191.898947 
L 472.255522 240.761954 
L 518.4 227.884707 
L 518.4 191.898947 
L 518.4 190.883247 
L 490.109435 176.855716 
L 491.075046 156.884211 
L 487.147844 143.931692 
L 468.8 145.296202 
L 439.801101 136.412661 
L 419.2 145.511912 
L 404.843924 156.884211 
L 419.2 167.218798 
L 441.488054 176.164868 
L 442.461547 191.898947 
L 441.783244 215.812647 
L 419.2 244.377042 
L 397.374222 215.010556 
L 369.6 227.771553 
L 334.88158 191.898947 
L 346.457232 173.221668 
L 320 184.26163 
L 309.907867 184.774484 
L 270.4 191.785915 
L 228.608793 186.38639 
L 220.8 185.210603 
L 197.644738 175.552669 
L 171.2 189.05248 
L 151.87187 170.528755 
L 121.6 181.598704 
L 85.759008 166.597276 
L 100.136419 191.898947 
L 121.6 242.416184 
L 145.92799 217.660182 
L 171.2 194.608125 
L 203.445903 210.275433 
L 203.579663 244.421053 
L 210.675085 272.288184 
L 200.499432 279.435789 
L 171.2 303.931785 
L 154.287926 279.435789 
L 142.287151 264.831855 
L 121.6 246.195906 
L 104.297032 279.435789 
L 72 312.823993 
L 72 314.450526 
M 103.882423 384.48 
L 104.888454 361.26265 
L 72 372.276485 
L 72 384.48 
M 121.194422 279.435789 
L 121.6 278.656654 
L 122.084902 279.093476 
L 122.366198 279.435789 
L 123.094681 280.490948 
L 121.6 279.747626 
L 120.321094 280.338623 
M 111.773923 184.962304 
L 121.6 189.075058 
L 129.89926 186.040149 
L 136.012481 191.898947 
L 128.269701 198.961583 
L 121.6 205.748627 
L 115.715598 191.898947 
M 353.570198 314.450526 
L 342.053778 295.004484 
L 369.6 299.842435 
L 394.627109 296.782832 
L 379.847682 314.450526 
L 369.6 332.296635 
M 352.540677 256.46395 
L 360.124323 244.421053 
L 320 196.202826 
L 318.101496 193.909299 
L 317.472488 191.898947 
L 319.492246 191.540502 
L 320 191.5147 
L 321.331112 190.959259 
L 320.74872 191.898947 
L 369.6 242.37425 
L 373.014419 240.805479 
L 375.701588 244.421053 
L 384.453329 254.906645 
L 369.6 252.51078 
M 171.2 86.100826 
L 170.704634 86.854737 
L 171.2 87.121769 
L 171.737186 86.854737 
M 263.502465 117.000212 
L 251.398782 121.869474 
L 270.4 124.813556 
L 278.243049 121.869474 
L 275.434945 118.315093 
L 270.4 107.900236 
M 261.176817 355.976298 
L 260.203375 349.465263 
L 220.8 328.277166 
L 193.910791 349.465263 
L 192.384976 364.420633 
L 171.2 360.728215 
L 156.189215 349.465263 
L 171.2 325.217487 
L 189.302189 314.450526 
L 220.8 296.282976 
L 245.383855 296.790572 
L 270.4 303.582229 
L 287.149079 302.626643 
L 297.882228 314.450526 
L 287.414825 337.453779 
L 279.647692 349.465263 
L 287.713237 361.687409 
L 270.4 358.435708 
M 121.6 292.739521 
L 165.256761 314.450526 
L 121.6 334.969453 
L 74.617814 314.450526 
M 410.533579 314.450526 
L 419.2 304.09047 
L 434.720948 314.450526 
L 436.615348 326.744757 
L 419.2 343.324934 
L 404.62553 324.739261 
M 270.4 254.406745 
L 246.878115 261.026146 
L 255.364324 244.421053 
L 255.488478 228.631041 
L 270.4 193.934568 
L 282.26527 231.856759 
L 292.665567 244.421053 
L 285.838518 255.319755 
" style="fill:#423f85;"/>
   </g>
   <g id="PathCollection_3">
    <path clip-path="url(#pd8d126e6f6)" d="M 497.542694 51.84 
L 496.05779 71.082426 
L 494.968084 86.854737 
L 487.796534 108.459018 
L 518.4 111.122417 
L 518.4 98.771301 
L 503.372269 97.463447 
L 506.893835 86.854737 
L 507.428932 79.109796 
L 509.533294 51.84 
M 411.311411 51.84 
L 381.621833 60.32672 
L 375.624105 86.854737 
L 369.6 88.509675 
L 366.964911 86.854737 
L 363.899996 55.863874 
L 365.788788 51.84 
L 357.025018 51.84 
L 350.793003 65.116654 
L 352.942842 86.854737 
L 369.6 97.316081 
L 407.680102 86.854737 
L 409.265686 79.841684 
L 419.2 77.001976 
L 432.932296 51.84 
L 419.2 51.84 
M 213.810815 51.84 
L 220.8 52.534518 
L 270.273243 51.929483 
L 258.370827 86.854737 
L 245.274753 104.1325 
L 220.8 113.978591 
L 213.698748 121.869474 
L 220.8 127.025633 
L 226.315648 125.763203 
L 270.4 132.59371 
L 298.969417 121.869474 
L 288.740501 108.922138 
L 278.072265 86.854737 
L 270.472524 51.891198 
L 270.440356 51.84 
L 270.4 51.84 
L 220.8 51.84 
M 72 117.679734 
L 83.325121 86.854737 
L 72 63.904829 
L 72 86.854737 
M 72 169.800451 
L 84.55724 191.898947 
L 94.827499 216.071292 
L 98.151248 244.421053 
L 96.346379 262.248651 
L 87.399642 279.435789 
L 72 295.355716 
L 72 312.823993 
L 104.297032 279.435789 
L 121.6 246.195906 
L 142.287151 264.831855 
L 154.287926 279.435789 
L 171.2 303.931785 
L 200.499432 279.435789 
L 210.675085 272.288184 
L 203.579663 244.421053 
L 203.445903 210.275433 
L 171.2 194.608125 
L 145.92799 217.660182 
L 121.6 242.416184 
L 100.136419 191.898947 
L 85.759008 166.597276 
L 121.6 181.598704 
L 151.87187 170.528755 
L 171.2 189.05248 
L 197.644738 175.552669 
L 220.8 185.210603 
L 228.608793 186.38639 
L 270.4 191.785915 
L 309.907867 184.774484 
L 320 184.26163 
L 346.457232 173.221668 
L 334.88158 191.898947 
L 369.6 227.771553 
L 397.374222 215.010556 
L 419.2 244.377042 
L 441.783244 215.812647 
L 442.461547 191.898947 
L 441.488054 176.164868 
L 419.2 167.218798 
L 404.843924 156.884211 
L 419.2 145.511912 
L 439.801101 136.412661 
L 468.8 145.296202 
L 487.147844 143.931692 
L 491.075046 156.884211 
L 490.109435 176.855716 
L 518.4 190.883247 
L 518.4 165.639762 
L 511.114514 162.027343 
L 511.363182 156.884211 
L 503.85908 132.134524 
L 468.8 134.741832 
L 426.780243 121.869474 
L 419.2 108.572911 
L 415.572242 121.869474 
L 369.6 155.920186 
L 366.019924 154.356883 
L 368.22794 156.884211 
L 320 177.00856 
L 300.323489 178.008466 
L 270.4 183.318964 
L 238.747097 179.229333 
L 220.8 176.526999 
L 173.705671 156.884211 
L 171.2 155.169835 
L 168.739394 156.884211 
L 121.6 174.122349 
L 80.415121 156.884211 
L 72 125.944071 
L 72 156.884211 
M 496.723314 384.48 
L 468.8 373.410802 
L 429.085879 356.444123 
L 419.2 352.308037 
L 394.382247 366.960099 
L 397.568347 384.48 
L 419.2 384.48 
L 468.8 384.48 
M 518.4 335.285138 
L 494.176302 332.364731 
L 492.041268 349.465263 
L 518.4 376.063881 
L 518.4 349.465263 
M 518.4 266.90773 
L 497.158826 264.440747 
L 469.372234 279.435789 
L 518.4 296.243014 
L 518.4 279.435789 
M 171.737186 86.854737 
L 171.2 87.121769 
L 170.704634 86.854737 
L 171.2 86.100826 
M 270.4 107.900236 
L 275.434945 118.315093 
L 278.243049 121.869474 
L 270.4 124.813556 
L 251.398782 121.869474 
L 263.502465 117.000212 
M 270.4 358.435708 
L 287.713237 361.687409 
L 279.647692 349.465263 
L 287.414825 337.453779 
L 297.882228 314.450526 
L 287.149079 302.626643 
L 270.4 303.582229 
L 245.383855 296.790572 
L 220.8 296.282976 
L 189.302189 314.450526 
L 171.2 325.217487 
L 156.189215 349.465263 
L 171.2 360.728215 
L 192.384976 364.420633 
L 193.910791 349.465263 
L 220.8 328.277166 
L 260.203375 349.465263 
L 261.176817 355.976298 
M 74.617814 314.450526 
L 121.6 334.969453 
L 165.256761 314.450526 
L 121.6 292.739521 
M 404.62553 324.739261 
L 419.2 343.324934 
L 436.615348 326.744757 
L 434.720948 314.450526 
L 419.2 304.09047 
L 410.533579 314.450526 
M 285.838518 255.319755 
L 292.665567 244.421053 
L 282.26527 231.856759 
L 270.4 193.934568 
L 255.488478 228.631041 
L 255.364324 244.421053 
L 246.878115 261.026146 
L 270.4 254.406745 
M 171.2 56.708996 
L 151.392387 86.854737 
L 171.2 97.532227 
L 192.679838 86.854737 
M 121.6 305.731416 
L 139.132497 314.450526 
L 121.6 322.6909 
L 102.732017 314.450526 
M 369.6 213.168857 
L 349.014441 191.898947 
L 369.6 158.684211 
L 415.893812 191.898947 
M 162.4894 250.570233 
L 155.663397 244.421053 
L 163.586279 236.358781 
L 171.2 229.413867 
L 180.914752 234.133971 
L 180.95505 244.421053 
L 183.092695 252.816609 
L 171.2 261.170302 
" style="fill:#33628d;"/>
   </g>
   <g id="PathCollection_4">
    <path clip-path="url(#pd8d126e6f6)" d="M 485.552094 51.84 
L 484.686648 63.055056 
L 483.042332 86.854737 
L 472.220798 119.454588 
L 499.968745 121.869474 
L 468.8 124.187462 
L 461.233299 121.869474 
L 456.137104 112.9302 
L 436.517377 86.854737 
L 434.793471 75.846646 
L 447.895239 51.84 
L 432.932296 51.84 
L 419.2 77.001976 
L 409.265686 79.841684 
L 407.680102 86.854737 
L 369.6 97.316081 
L 352.942842 86.854737 
L 350.793003 65.116654 
L 357.025018 51.84 
L 348.261248 51.84 
L 337.68601 74.369435 
L 338.920774 86.854737 
L 369.6 106.122486 
L 406.117053 96.090542 
L 399.083678 121.869474 
L 369.6 143.707439 
L 320.665694 122.339415 
L 350.845981 156.884211 
L 320 169.75549 
L 290.73911 171.242448 
L 270.4 174.852014 
L 248.8854 172.072276 
L 220.8 167.843395 
L 194.52494 156.884211 
L 171.2 140.92533 
L 148.294564 156.884211 
L 121.6 166.645995 
L 98.277418 156.884211 
L 92.735323 136.507415 
L 96.38942 121.869474 
L 103.420978 99.688077 
L 108.135954 86.854737 
L 100.938143 72.268658 
L 108.689824 51.84 
L 72 51.84 
L 72 63.904829 
L 83.325121 86.854737 
L 72 117.679734 
L 72 121.869474 
L 72 125.944071 
L 80.415121 156.884211 
L 121.6 174.122349 
L 168.739394 156.884211 
L 171.2 155.169835 
L 173.705671 156.884211 
L 220.8 176.526999 
L 238.747097 179.229333 
L 270.4 183.318964 
L 300.323489 178.008466 
L 320 177.00856 
L 368.22794 156.884211 
L 366.019924 154.356883 
L 369.6 155.920186 
L 415.572242 121.869474 
L 419.2 108.572911 
L 426.780243 121.869474 
L 468.8 134.741832 
L 503.85908 132.134524 
L 511.363182 156.884211 
L 511.114514 162.027343 
L 518.4 165.639762 
L 518.4 156.884211 
L 518.4 121.869474 
L 518.4 111.122417 
L 487.796534 108.459018 
L 494.968084 86.854737 
L 496.05779 71.082426 
L 497.542694 51.84 
M 270.440356 51.84 
L 270.472524 51.891198 
L 278.072265 86.854737 
L 288.740501 108.922138 
L 298.969417 121.869474 
L 270.4 132.59371 
L 226.315648 125.763203 
L 220.8 127.025633 
L 213.698748 121.869474 
L 220.8 113.978591 
L 245.274753 104.1325 
L 258.370827 86.854737 
L 270.273243 51.929483 
L 220.8 52.534518 
L 213.810815 51.84 
L 171.2 51.84 
L 133.63952 51.84 
L 141.146943 73.055723 
L 132.080139 86.854737 
L 171.2 107.942686 
L 213.62249 86.854737 
L 206.358119 76.659603 
L 220.8 78.094698 
L 233.427762 77.940266 
L 230.389738 86.854737 
L 227.04704 91.264787 
L 220.8 93.777945 
L 195.519557 121.869474 
L 220.8 140.225391 
L 240.435697 135.731142 
L 270.4 140.373864 
L 319.695785 121.869474 
L 302.046057 99.529184 
L 295.918739 86.854737 
L 291.553816 66.773373 
L 282.171055 51.84 
M 72 232.938411 
L 73.346234 244.421053 
L 72 257.718487 
L 72 279.435789 
L 72 295.355716 
L 87.399642 279.435789 
L 96.346379 262.248651 
L 98.151248 244.421053 
L 94.827499 216.071292 
L 84.55724 191.898947 
L 72 169.800451 
L 72 191.898947 
M 192.679838 86.854737 
L 171.2 97.532227 
L 151.392387 86.854737 
L 171.2 56.708996 
M 102.732017 314.450526 
L 121.6 322.6909 
L 139.132497 314.450526 
L 121.6 305.731416 
M 415.893812 191.898947 
L 369.6 158.684211 
L 349.014441 191.898947 
L 369.6 213.168857 
M 171.2 261.170302 
L 183.092695 252.816609 
L 180.95505 244.421053 
L 180.914752 234.133971 
L 171.2 229.413867 
L 163.586279 236.358781 
L 155.663397 244.421053 
L 162.4894 250.570233 
M 369.6 198.566161 
L 363.147301 191.898947 
L 369.6 181.487538 
L 384.111144 191.898947 
" style="fill:#26828e;"/>
   </g>
   <g id="PathCollection_5">
    <path clip-path="url(#pd8d126e6f6)" d="M 473.561494 51.84 
L 473.315506 55.027686 
L 471.116581 86.854737 
L 468.8 93.833432 
L 463.549083 86.854737 
L 459.134231 58.663475 
L 462.858182 51.84 
L 447.895239 51.84 
L 434.793471 75.846646 
L 436.517377 86.854737 
L 456.137104 112.9302 
L 461.233299 121.869474 
L 468.8 124.187462 
L 499.968745 121.869474 
L 472.220798 119.454588 
L 483.042332 86.854737 
L 484.686648 63.055056 
L 485.552094 51.84 
M 339.497478 51.84 
L 324.579017 83.622215 
L 324.898705 86.854737 
L 369.6 114.928892 
L 385.695116 110.507251 
L 382.595113 121.869474 
L 369.6 131.494692 
L 347.557561 121.869474 
L 320 96.019963 
L 315.351613 90.136229 
L 313.765213 86.854737 
L 312.635107 81.655548 
L 293.901753 51.84 
L 282.171055 51.84 
L 291.553816 66.773373 
L 295.918739 86.854737 
L 302.046057 99.529184 
L 319.695785 121.869474 
L 270.4 140.373864 
L 240.435697 135.731142 
L 220.8 140.225391 
L 195.519557 121.869474 
L 220.8 93.777945 
L 227.04704 91.264787 
L 230.389738 86.854737 
L 233.427762 77.940266 
L 220.8 78.094698 
L 206.358119 76.659603 
L 213.62249 86.854737 
L 171.2 107.942686 
L 132.080139 86.854737 
L 141.146943 73.055723 
L 133.63952 51.84 
L 121.6 51.84 
L 108.689824 51.84 
L 100.938143 72.268658 
L 108.135954 86.854737 
L 103.420978 99.688077 
L 96.38942 121.869474 
L 92.735323 136.507415 
L 98.277418 156.884211 
L 121.6 166.645995 
L 148.294564 156.884211 
L 171.2 140.92533 
L 194.52494 156.884211 
L 220.8 167.843395 
L 248.8854 172.072276 
L 270.4 174.852014 
L 290.73911 171.242448 
L 320 169.75549 
L 350.845981 156.884211 
L 320.665694 122.339415 
L 369.6 143.707439 
L 399.083678 121.869474 
L 406.117053 96.090542 
L 369.6 106.122486 
L 338.920774 86.854737 
L 337.68601 74.369435 
L 348.261248 51.84 
M 72 257.718487 
L 73.346234 244.421053 
L 72 232.938411 
L 72 244.421053 
M 384.111144 191.898947 
L 369.6 181.487538 
L 363.147301 191.898947 
L 369.6 198.566161 
M 333.464023 156.884211 
L 320 162.502421 
L 281.154731 164.47643 
L 270.4 166.385064 
L 259.023704 164.915219 
L 220.8 159.159791 
L 215.344209 156.884211 
L 171.2 126.680825 
L 127.849734 156.884211 
L 121.6 159.16964 
L 116.139715 156.884211 
L 114.842199 152.113593 
L 121.6 125.042533 
L 125.703189 121.869474 
L 150.129293 106.994771 
L 171.2 118.353145 
L 188.036734 109.983712 
L 177.340365 121.869474 
L 220.8 153.42515 
L 254.555746 145.699082 
L 270.4 148.154018 
L 296.809705 138.240483 
L 320 141.473095 
" style="fill:#1f9f88;"/>
   </g>
   <g id="PathCollection_6">
    <path clip-path="url(#pd8d126e6f6)" d="M 462.858182 51.84 
L 459.134231 58.663475 
L 463.549083 86.854737 
L 468.8 93.833432 
L 471.116581 86.854737 
L 473.315506 55.027686 
L 473.561494 51.84 
L 468.8 51.84 
M 330.733708 51.84 
L 320 74.707038 
L 305.632451 51.84 
L 293.901753 51.84 
L 312.635107 81.655548 
L 313.765213 86.854737 
L 315.351613 90.136229 
L 320 96.019963 
L 347.557561 121.869474 
L 369.6 131.494692 
L 382.595113 121.869474 
L 385.695116 110.507251 
L 369.6 114.928892 
L 324.898705 86.854737 
L 324.579017 83.622215 
L 339.497478 51.84 
M 320 141.473095 
L 296.809705 138.240483 
L 270.4 148.154018 
L 254.555746 145.699082 
L 220.8 153.42515 
L 177.340365 121.869474 
L 188.036734 109.983712 
L 171.2 118.353145 
L 150.129293 106.994771 
L 125.703189 121.869474 
L 121.6 125.042533 
L 114.842199 152.113593 
L 116.139715 156.884211 
L 121.6 159.16964 
L 127.849734 156.884211 
L 171.2 126.680825 
L 215.344209 156.884211 
L 220.8 159.159791 
L 259.023704 164.915219 
L 270.4 166.385064 
L 281.154731 164.47643 
L 320 162.502421 
L 333.464023 156.884211 
M 287.828641 156.884211 
L 271.570353 157.710412 
L 270.4 157.918113 
L 269.162007 157.758162 
L 263.357807 156.884211 
L 268.675795 155.667021 
L 270.4 155.934173 
L 273.27396 154.855361 
" style="fill:#3fbc73;"/>
   </g>
   <g id="PathCollection_7">
    <path clip-path="url(#pd8d126e6f6)" d="M 321.969938 51.84 
L 320 56.036746 
L 317.36315 51.84 
L 305.632451 51.84 
L 320 74.707038 
L 330.733708 51.84 
M 273.27396 154.855361 
L 270.4 155.934173 
L 268.675795 155.667021 
L 263.357807 156.884211 
L 269.162007 157.758162 
L 270.4 157.918113 
L 271.570353 157.710412 
L 287.828641 156.884211 
" style="fill:#81d34d;"/>
   </g>
   <g id="PathCollection_8">
    <path clip-path="url(#pd8d126e6f6)" d="M 317.36315 51.84 
L 320 56.036746 
L 321.969938 51.84 
L 320 51.84 
" style="fill:#d8e219;"/>
   </g>
   <g id="matplotlib.axis_1">
    <g id="xtick_1">
     <g id="line2d_1">
      <defs>
       <path d="M 0 0 
L 0 3.5 
" id="md4cb57d387" style="stroke:#000000;stroke-width:0.8;"/>
      </defs>
      <g>
       <use style="stroke:#000000;stroke-width:0.8;" x="72" xlink:href="#md4cb57d387" y="384.48"/>
      </g>
     </g>
     <g id="text_1">
      <!-- 0.5 -->
      <defs>
       <path d="M 31.78125 66.40625 
Q 24.171875 66.40625 20.328125 58.90625 
Q 16.5 51.421875 16.5 36.375 
Q 16.5 21.390625 20.328125 13.890625 
Q 24.171875 6.390625 31.78125 6.390625 
Q 39.453125 6.390625 43.28125 13.890625 
Q 47.125 21.390625 47.125 36.375 
Q 47.125 51.421875 43.28125 58.90625 
Q 39.453125 66.40625 31.78125 66.40625 
z
M 31.78125 74.21875 
Q 44.046875 74.21875 50.515625 64.515625 
Q 56.984375 54.828125 56.984375 36.375 
Q 56.984375 17.96875 50.515625 8.265625 
Q 44.046875 -1.421875 31.78125 -1.421875 
Q 19.53125 -1.421875 13.0625 8.265625 
Q 6.59375 17.96875 6.59375 36.375 
Q 6.59375 54.828125 13.0625 64.515625 
Q 19.53125 74.21875 31.78125 74.21875 
z
" id="DejaVuSans-48"/>
       <path d="M 10.6875 12.40625 
L 21 12.40625 
L 21 0 
L 10.6875 0 
z
" id="DejaVuSans-46"/>
       <path d="M 10.796875 72.90625 
L 49.515625 72.90625 
L 49.515625 64.59375 
L 19.828125 64.59375 
L 19.828125 46.734375 
Q 21.96875 47.46875 24.109375 47.828125 
Q 26.265625 48.1875 28.421875 48.1875 
Q 40.625 48.1875 47.75 41.5 
Q 54.890625 34.8125 54.890625 23.390625 
Q 54.890625 11.625 47.5625 5.09375 
Q 40.234375 -1.421875 26.90625 -1.421875 
Q 22.3125 -1.421875 17.546875 -0.640625 
Q 12.796875 0.140625 7.71875 1.703125 
L 7.71875 11.625 
Q 12.109375 9.234375 16.796875 8.0625 
Q 21.484375 6.890625 26.703125 6.890625 
Q 35.15625 6.890625 40.078125 11.328125 
Q 45.015625 15.765625 45.015625 23.390625 
Q 45.015625 31 40.078125 35.4375 
Q 35.15625 39.890625 26.703125 39.890625 
Q 22.75 39.890625 18.8125 39.015625 
Q 14.890625 38.140625 10.796875 36.28125 
z
" id="DejaVuSans-53"/>
      </defs>
      <g transform="translate(62.458125 400.598125)scale(0.12 -0.12)">
       <use xlink:href="#DejaVuSans-48"/>
       <use x="63.623047" xlink:href="#DejaVuSans-46"/>
       <use x="95.410156" xlink:href="#DejaVuSans-53"/>
      </g>
     </g>
    </g>
    <g id="xtick_2">
     <g id="line2d_2">
      <g>
       <use style="stroke:#000000;stroke-width:0.8;" x="161.28" xlink:href="#md4cb57d387" y="384.48"/>
      </g>
     </g>
     <g id="text_2">
      <!-- 0.6 -->
      <defs>
       <path d="M 33.015625 40.375 
Q 26.375 40.375 22.484375 35.828125 
Q 18.609375 31.296875 18.609375 23.390625 
Q 18.609375 15.53125 22.484375 10.953125 
Q 26.375 6.390625 33.015625 6.390625 
Q 39.65625 6.390625 43.53125 10.953125 
Q 47.40625 15.53125 47.40625 23.390625 
Q 47.40625 31.296875 43.53125 35.828125 
Q 39.65625 40.375 33.015625 40.375 
z
M 52.59375 71.296875 
L 52.59375 62.3125 
Q 48.875 64.0625 45.09375 64.984375 
Q 41.3125 65.921875 37.59375 65.921875 
Q 27.828125 65.921875 22.671875 59.328125 
Q 17.53125 52.734375 16.796875 39.40625 
Q 19.671875 43.65625 24.015625 45.921875 
Q 28.375 48.1875 33.59375 48.1875 
Q 44.578125 48.1875 50.953125 41.515625 
Q 57.328125 34.859375 57.328125 23.390625 
Q 57.328125 12.15625 50.6875 5.359375 
Q 44.046875 -1.421875 33.015625 -1.421875 
Q 20.359375 -1.421875 13.671875 8.265625 
Q 6.984375 17.96875 6.984375 36.375 
Q 6.984375 53.65625 15.1875 63.9375 
Q 23.390625 74.21875 37.203125 74.21875 
Q 40.921875 74.21875 44.703125 73.484375 
Q 48.484375 72.75 52.59375 71.296875 
z
" id="DejaVuSans-54"/>
      </defs>
      <g transform="translate(151.738125 400.598125)scale(0.12 -0.12)">
       <use xlink:href="#DejaVuSans-48"/>
       <use x="63.623047" xlink:href="#DejaVuSans-46"/>
       <use x="95.410156" xlink:href="#DejaVuSans-54"/>
      </g>
     </g>
    </g>
    <g id="xtick_3">
     <g id="line2d_3">
      <g>
       <use style="stroke:#000000;stroke-width:0.8;" x="250.56" xlink:href="#md4cb57d387" y="384.48"/>
      </g>
     </g>
     <g id="text_3">
      <!-- 0.7 -->
      <defs>
       <path d="M 8.203125 72.90625 
L 55.078125 72.90625 
L 55.078125 68.703125 
L 28.609375 0 
L 18.3125 0 
L 43.21875 64.59375 
L 8.203125 64.59375 
z
" id="DejaVuSans-55"/>
      </defs>
      <g transform="translate(241.018125 400.598125)scale(0.12 -0.12)">
       <use xlink:href="#DejaVuSans-48"/>
       <use x="63.623047" xlink:href="#DejaVuSans-46"/>
       <use x="95.410156" xlink:href="#DejaVuSans-55"/>
      </g>
     </g>
    </g>
    <g id="xtick_4">
     <g id="line2d_4">
      <g>
       <use style="stroke:#000000;stroke-width:0.8;" x="339.84" xlink:href="#md4cb57d387" y="384.48"/>
      </g>
     </g>
     <g id="text_4">
      <!-- 0.8 -->
      <defs>
       <path d="M 31.78125 34.625 
Q 24.75 34.625 20.71875 30.859375 
Q 16.703125 27.09375 16.703125 20.515625 
Q 16.703125 13.921875 20.71875 10.15625 
Q 24.75 6.390625 31.78125 6.390625 
Q 38.8125 6.390625 42.859375 10.171875 
Q 46.921875 13.96875 46.921875 20.515625 
Q 46.921875 27.09375 42.890625 30.859375 
Q 38.875 34.625 31.78125 34.625 
z
M 21.921875 38.8125 
Q 15.578125 40.375 12.03125 44.71875 
Q 8.5 49.078125 8.5 55.328125 
Q 8.5 64.0625 14.71875 69.140625 
Q 20.953125 74.21875 31.78125 74.21875 
Q 42.671875 74.21875 48.875 69.140625 
Q 55.078125 64.0625 55.078125 55.328125 
Q 55.078125 49.078125 51.53125 44.71875 
Q 48 40.375 41.703125 38.8125 
Q 48.828125 37.15625 52.796875 32.3125 
Q 56.78125 27.484375 56.78125 20.515625 
Q 56.78125 9.90625 50.3125 4.234375 
Q 43.84375 -1.421875 31.78125 -1.421875 
Q 19.734375 -1.421875 13.25 4.234375 
Q 6.78125 9.90625 6.78125 20.515625 
Q 6.78125 27.484375 10.78125 32.3125 
Q 14.796875 37.15625 21.921875 38.8125 
z
M 18.3125 54.390625 
Q 18.3125 48.734375 21.84375 45.5625 
Q 25.390625 42.390625 31.78125 42.390625 
Q 38.140625 42.390625 41.71875 45.5625 
Q 45.3125 48.734375 45.3125 54.390625 
Q 45.3125 60.0625 41.71875 63.234375 
Q 38.140625 66.40625 31.78125 66.40625 
Q 25.390625 66.40625 21.84375 63.234375 
Q 18.3125 60.0625 18.3125 54.390625 
z
" id="DejaVuSans-56"/>
      </defs>
      <g transform="translate(330.298125 400.598125)scale(0.12 -0.12)">
       <use xlink:href="#DejaVuSans-48"/>
       <use x="63.623047" xlink:href="#DejaVuSans-46"/>
       <use x="95.410156" xlink:href="#DejaVuSans-56"/>
      </g>
     </g>
    </g>
    <g id="xtick_5">
     <g id="line2d_5">
      <g>
       <use style="stroke:#000000;stroke-width:0.8;" x="429.12" xlink:href="#md4cb57d387" y="384.48"/>
      </g>
     </g>
     <g id="text_5">
      <!-- 0.9 -->
      <defs>
       <path d="M 10.984375 1.515625 
L 10.984375 10.5 
Q 14.703125 8.734375 18.5 7.8125 
Q 22.3125 6.890625 25.984375 6.890625 
Q 35.75 6.890625 40.890625 13.453125 
Q 46.046875 20.015625 46.78125 33.40625 
Q 43.953125 29.203125 39.59375 26.953125 
Q 35.25 24.703125 29.984375 24.703125 
Q 19.046875 24.703125 12.671875 31.3125 
Q 6.296875 37.9375 6.296875 49.421875 
Q 6.296875 60.640625 12.9375 67.421875 
Q 19.578125 74.21875 30.609375 74.21875 
Q 43.265625 74.21875 49.921875 64.515625 
Q 56.59375 54.828125 56.59375 36.375 
Q 56.59375 19.140625 48.40625 8.859375 
Q 40.234375 -1.421875 26.421875 -1.421875 
Q 22.703125 -1.421875 18.890625 -0.6875 
Q 15.09375 0.046875 10.984375 1.515625 
z
M 30.609375 32.421875 
Q 37.25 32.421875 41.125 36.953125 
Q 45.015625 41.5 45.015625 49.421875 
Q 45.015625 57.28125 41.125 61.84375 
Q 37.25 66.40625 30.609375 66.40625 
Q 23.96875 66.40625 20.09375 61.84375 
Q 16.21875 57.28125 16.21875 49.421875 
Q 16.21875 41.5 20.09375 36.953125 
Q 23.96875 32.421875 30.609375 32.421875 
z
" id="DejaVuSans-57"/>
      </defs>
      <g transform="translate(419.578125 400.598125)scale(0.12 -0.12)">
       <use xlink:href="#DejaVuSans-48"/>
       <use x="63.623047" xlink:href="#DejaVuSans-46"/>
       <use x="95.410156" xlink:href="#DejaVuSans-57"/>
      </g>
     </g>
    </g>
    <g id="xtick_6">
     <g id="line2d_6">
      <g>
       <use style="stroke:#000000;stroke-width:0.8;" x="518.4" xlink:href="#md4cb57d387" y="384.48"/>
      </g>
     </g>
     <g id="text_6">
      <!-- 1.0 -->
      <defs>
       <path d="M 12.40625 8.296875 
L 28.515625 8.296875 
L 28.515625 63.921875 
L 10.984375 60.40625 
L 10.984375 69.390625 
L 28.421875 72.90625 
L 38.28125 72.90625 
L 38.28125 8.296875 
L 54.390625 8.296875 
L 54.390625 0 
L 12.40625 0 
z
" id="DejaVuSans-49"/>
      </defs>
      <g transform="translate(508.858125 400.598125)scale(0.12 -0.12)">
       <use xlink:href="#DejaVuSans-49"/>
       <use x="63.623047" xlink:href="#DejaVuSans-46"/>
       <use x="95.410156" xlink:href="#DejaVuSans-48"/>
      </g>
     </g>
    </g>
    <g id="text_7">
     <!-- Bagging fraction -->
     <defs>
      <path d="M 19.671875 34.8125 
L 19.671875 8.109375 
L 35.5 8.109375 
Q 43.453125 8.109375 47.28125 11.40625 
Q 51.125 14.703125 51.125 21.484375 
Q 51.125 28.328125 47.28125 31.5625 
Q 43.453125 34.8125 35.5 34.8125 
z
M 19.671875 64.796875 
L 19.671875 42.828125 
L 34.28125 42.828125 
Q 41.5 42.828125 45.03125 45.53125 
Q 48.578125 48.25 48.578125 53.8125 
Q 48.578125 59.328125 45.03125 62.0625 
Q 41.5 64.796875 34.28125 64.796875 
z
M 9.8125 72.90625 
L 35.015625 72.90625 
Q 46.296875 72.90625 52.390625 68.21875 
Q 58.5 63.53125 58.5 54.890625 
Q 58.5 48.1875 55.375 44.234375 
Q 52.25 40.28125 46.1875 39.3125 
Q 53.46875 37.75 57.5 32.78125 
Q 61.53125 27.828125 61.53125 20.40625 
Q 61.53125 10.640625 54.890625 5.3125 
Q 48.25 0 35.984375 0 
L 9.8125 0 
z
" id="DejaVuSans-66"/>
      <path d="M 34.28125 27.484375 
Q 23.390625 27.484375 19.1875 25 
Q 14.984375 22.515625 14.984375 16.5 
Q 14.984375 11.71875 18.140625 8.90625 
Q 21.296875 6.109375 26.703125 6.109375 
Q 34.1875 6.109375 38.703125 11.40625 
Q 43.21875 16.703125 43.21875 25.484375 
L 43.21875 27.484375 
z
M 52.203125 31.203125 
L 52.203125 0 
L 43.21875 0 
L 43.21875 8.296875 
Q 40.140625 3.328125 35.546875 0.953125 
Q 30.953125 -1.421875 24.3125 -1.421875 
Q 15.921875 -1.421875 10.953125 3.296875 
Q 6 8.015625 6 15.921875 
Q 6 25.140625 12.171875 29.828125 
Q 18.359375 34.515625 30.609375 34.515625 
L 43.21875 34.515625 
L 43.21875 35.40625 
Q 43.21875 41.609375 39.140625 45 
Q 35.0625 48.390625 27.6875 48.390625 
Q 23 48.390625 18.546875 47.265625 
Q 14.109375 46.140625 10.015625 43.890625 
L 10.015625 52.203125 
Q 14.9375 54.109375 19.578125 55.046875 
Q 24.21875 56 28.609375 56 
Q 40.484375 56 46.34375 49.84375 
Q 52.203125 43.703125 52.203125 31.203125 
z
" id="DejaVuSans-97"/>
      <path d="M 45.40625 27.984375 
Q 45.40625 37.75 41.375 43.109375 
Q 37.359375 48.484375 30.078125 48.484375 
Q 22.859375 48.484375 18.828125 43.109375 
Q 14.796875 37.75 14.796875 27.984375 
Q 14.796875 18.265625 18.828125 12.890625 
Q 22.859375 7.515625 30.078125 7.515625 
Q 37.359375 7.515625 41.375 12.890625 
Q 45.40625 18.265625 45.40625 27.984375 
z
M 54.390625 6.78125 
Q 54.390625 -7.171875 48.1875 -13.984375 
Q 42 -20.796875 29.203125 -20.796875 
Q 24.46875 -20.796875 20.265625 -20.09375 
Q 16.0625 -19.390625 12.109375 -17.921875 
L 12.109375 -9.1875 
Q 16.0625 -11.328125 19.921875 -12.34375 
Q 23.78125 -13.375 27.78125 -13.375 
Q 36.625 -13.375 41.015625 -8.765625 
Q 45.40625 -4.15625 45.40625 5.171875 
L 45.40625 9.625 
Q 42.625 4.78125 38.28125 2.390625 
Q 33.9375 0 27.875 0 
Q 17.828125 0 11.671875 7.65625 
Q 5.515625 15.328125 5.515625 27.984375 
Q 5.515625 40.671875 11.671875 48.328125 
Q 17.828125 56 27.875 56 
Q 33.9375 56 38.28125 53.609375 
Q 42.625 51.21875 45.40625 46.390625 
L 45.40625 54.6875 
L 54.390625 54.6875 
z
" id="DejaVuSans-103"/>
      <path d="M 9.421875 54.6875 
L 18.40625 54.6875 
L 18.40625 0 
L 9.421875 0 
z
M 9.421875 75.984375 
L 18.40625 75.984375 
L 18.40625 64.59375 
L 9.421875 64.59375 
z
" id="DejaVuSans-105"/>
      <path d="M 54.890625 33.015625 
L 54.890625 0 
L 45.90625 0 
L 45.90625 32.71875 
Q 45.90625 40.484375 42.875 44.328125 
Q 39.84375 48.1875 33.796875 48.1875 
Q 26.515625 48.1875 22.3125 43.546875 
Q 18.109375 38.921875 18.109375 30.90625 
L 18.109375 0 
L 9.078125 0 
L 9.078125 54.6875 
L 18.109375 54.6875 
L 18.109375 46.1875 
Q 21.34375 51.125 25.703125 53.5625 
Q 30.078125 56 35.796875 56 
Q 45.21875 56 50.046875 50.171875 
Q 54.890625 44.34375 54.890625 33.015625 
z
" id="DejaVuSans-110"/>
      <path id="DejaVuSans-32"/>
      <path d="M 37.109375 75.984375 
L 37.109375 68.5 
L 28.515625 68.5 
Q 23.6875 68.5 21.796875 66.546875 
Q 19.921875 64.59375 19.921875 59.515625 
L 19.921875 54.6875 
L 34.71875 54.6875 
L 34.71875 47.703125 
L 19.921875 47.703125 
L 19.921875 0 
L 10.890625 0 
L 10.890625 47.703125 
L 2.296875 47.703125 
L 2.296875 54.6875 
L 10.890625 54.6875 
L 10.890625 58.5 
Q 10.890625 67.625 15.140625 71.796875 
Q 19.390625 75.984375 28.609375 75.984375 
z
" id="DejaVuSans-102"/>
      <path d="M 41.109375 46.296875 
Q 39.59375 47.171875 37.8125 47.578125 
Q 36.03125 48 33.890625 48 
Q 26.265625 48 22.1875 43.046875 
Q 18.109375 38.09375 18.109375 28.8125 
L 18.109375 0 
L 9.078125 0 
L 9.078125 54.6875 
L 18.109375 54.6875 
L 18.109375 46.1875 
Q 20.953125 51.171875 25.484375 53.578125 
Q 30.03125 56 36.53125 56 
Q 37.453125 56 38.578125 55.875 
Q 39.703125 55.765625 41.0625 55.515625 
z
" id="DejaVuSans-114"/>
      <path d="M 48.78125 52.59375 
L 48.78125 44.1875 
Q 44.96875 46.296875 41.140625 47.34375 
Q 37.3125 48.390625 33.40625 48.390625 
Q 24.65625 48.390625 19.8125 42.84375 
Q 14.984375 37.3125 14.984375 27.296875 
Q 14.984375 17.28125 19.8125 11.734375 
Q 24.65625 6.203125 33.40625 6.203125 
Q 37.3125 6.203125 41.140625 7.25 
Q 44.96875 8.296875 48.78125 10.40625 
L 48.78125 2.09375 
Q 45.015625 0.34375 40.984375 -0.53125 
Q 36.96875 -1.421875 32.421875 -1.421875 
Q 20.0625 -1.421875 12.78125 6.34375 
Q 5.515625 14.109375 5.515625 27.296875 
Q 5.515625 40.671875 12.859375 48.328125 
Q 20.21875 56 33.015625 56 
Q 37.15625 56 41.109375 55.140625 
Q 45.0625 54.296875 48.78125 52.59375 
z
" id="DejaVuSans-99"/>
      <path d="M 18.3125 70.21875 
L 18.3125 54.6875 
L 36.8125 54.6875 
L 36.8125 47.703125 
L 18.3125 47.703125 
L 18.3125 18.015625 
Q 18.3125 11.328125 20.140625 9.421875 
Q 21.96875 7.515625 27.59375 7.515625 
L 36.8125 7.515625 
L 36.8125 0 
L 27.59375 0 
Q 17.1875 0 13.234375 3.875 
Q 9.28125 7.765625 9.28125 18.015625 
L 9.28125 47.703125 
L 2.6875 47.703125 
L 2.6875 54.6875 
L 9.28125 54.6875 
L 9.28125 70.21875 
z
" id="DejaVuSans-116"/>
      <path d="M 30.609375 48.390625 
Q 23.390625 48.390625 19.1875 42.75 
Q 14.984375 37.109375 14.984375 27.296875 
Q 14.984375 17.484375 19.15625 11.84375 
Q 23.34375 6.203125 30.609375 6.203125 
Q 37.796875 6.203125 41.984375 11.859375 
Q 46.1875 17.53125 46.1875 27.296875 
Q 46.1875 37.015625 41.984375 42.703125 
Q 37.796875 48.390625 30.609375 48.390625 
z
M 30.609375 56 
Q 42.328125 56 49.015625 48.375 
Q 55.71875 40.765625 55.71875 27.296875 
Q 55.71875 13.875 49.015625 6.21875 
Q 42.328125 -1.421875 30.609375 -1.421875 
Q 18.84375 -1.421875 12.171875 6.21875 
Q 5.515625 13.875 5.515625 27.296875 
Q 5.515625 40.765625 12.171875 48.375 
Q 18.84375 56 30.609375 56 
z
" id="DejaVuSans-111"/>
     </defs>
     <g transform="translate(237.281562 417.731562)scale(0.14 -0.14)">
      <use xlink:href="#DejaVuSans-66"/>
      <use x="68.603516" xlink:href="#DejaVuSans-97"/>
      <use x="129.882812" xlink:href="#DejaVuSans-103"/>
      <use x="193.359375" xlink:href="#DejaVuSans-103"/>
      <use x="256.835938" xlink:href="#DejaVuSans-105"/>
      <use x="284.619141" xlink:href="#DejaVuSans-110"/>
      <use x="347.998047" xlink:href="#DejaVuSans-103"/>
      <use x="411.474609" xlink:href="#DejaVuSans-32"/>
      <use x="443.261719" xlink:href="#DejaVuSans-102"/>
      <use x="478.466797" xlink:href="#DejaVuSans-114"/>
      <use x="519.580078" xlink:href="#DejaVuSans-97"/>
      <use x="580.859375" xlink:href="#DejaVuSans-99"/>
      <use x="635.839844" xlink:href="#DejaVuSans-116"/>
      <use x="675.048828" xlink:href="#DejaVuSans-105"/>
      <use x="702.832031" xlink:href="#DejaVuSans-111"/>
      <use x="764.013672" xlink:href="#DejaVuSans-110"/>
     </g>
    </g>
   </g>
   <g id="matplotlib.axis_2">
    <g id="ytick_1">
     <g id="line2d_7">
      <defs>
       <path d="M 0 0 
L -3.5 0 
" id="ma08b4b28fb" style="stroke:#000000;stroke-width:0.8;"/>
      </defs>
      <g>
       <use style="stroke:#000000;stroke-width:0.8;" x="72" xlink:href="#ma08b4b28fb" y="384.48"/>
      </g>
     </g>
     <g id="text_8">
      <!-- 1 -->
      <g transform="translate(57.365 389.039062)scale(0.12 -0.12)">
       <use xlink:href="#DejaVuSans-49"/>
      </g>
     </g>
    </g>
    <g id="ytick_2">
     <g id="line2d_8">
      <g>
       <use style="stroke:#000000;stroke-width:0.8;" x="72" xlink:href="#ma08b4b28fb" y="314.450526"/>
      </g>
     </g>
     <g id="text_9">
      <!-- 5 -->
      <g transform="translate(57.365 319.009589)scale(0.12 -0.12)">
       <use xlink:href="#DejaVuSans-53"/>
      </g>
     </g>
    </g>
    <g id="ytick_3">
     <g id="line2d_9">
      <g>
       <use style="stroke:#000000;stroke-width:0.8;" x="72" xlink:href="#ma08b4b28fb" y="226.913684"/>
      </g>
     </g>
     <g id="text_10">
      <!-- 10 -->
      <g transform="translate(49.73 231.472747)scale(0.12 -0.12)">
       <use xlink:href="#DejaVuSans-49"/>
       <use x="63.623047" xlink:href="#DejaVuSans-48"/>
      </g>
     </g>
    </g>
    <g id="ytick_4">
     <g id="line2d_10">
      <g>
       <use style="stroke:#000000;stroke-width:0.8;" x="72" xlink:href="#ma08b4b28fb" y="139.376842"/>
      </g>
     </g>
     <g id="text_11">
      <!-- 15 -->
      <g transform="translate(49.73 143.935905)scale(0.12 -0.12)">
       <use xlink:href="#DejaVuSans-49"/>
       <use x="63.623047" xlink:href="#DejaVuSans-53"/>
      </g>
     </g>
    </g>
    <g id="ytick_5">
     <g id="line2d_11">
      <g>
       <use style="stroke:#000000;stroke-width:0.8;" x="72" xlink:href="#ma08b4b28fb" y="51.84"/>
      </g>
     </g>
     <g id="text_12">
      <!-- 20 -->
      <defs>
       <path d="M 19.1875 8.296875 
L 53.609375 8.296875 
L 53.609375 0 
L 7.328125 0 
L 7.328125 8.296875 
Q 12.9375 14.109375 22.625 23.890625 
Q 32.328125 33.6875 34.8125 36.53125 
Q 39.546875 41.84375 41.421875 45.53125 
Q 43.3125 49.21875 43.3125 52.78125 
Q 43.3125 58.59375 39.234375 62.25 
Q 35.15625 65.921875 28.609375 65.921875 
Q 23.96875 65.921875 18.8125 64.3125 
Q 13.671875 62.703125 7.8125 59.421875 
L 7.8125 69.390625 
Q 13.765625 71.78125 18.9375 73 
Q 24.125 74.21875 28.421875 74.21875 
Q 39.75 74.21875 46.484375 68.546875 
Q 53.21875 62.890625 53.21875 53.421875 
Q 53.21875 48.921875 51.53125 44.890625 
Q 49.859375 40.875 45.40625 35.40625 
Q 44.1875 33.984375 37.640625 27.21875 
Q 31.109375 20.453125 19.1875 8.296875 
z
" id="DejaVuSans-50"/>
      </defs>
      <g transform="translate(49.73 56.399062)scale(0.12 -0.12)">
       <use xlink:href="#DejaVuSans-50"/>
       <use x="63.623047" xlink:href="#DejaVuSans-48"/>
      </g>
     </g>
    </g>
    <g id="text_13">
     <!-- Number of neighbors - K -->
     <defs>
      <path d="M 9.8125 72.90625 
L 23.09375 72.90625 
L 55.421875 11.921875 
L 55.421875 72.90625 
L 64.984375 72.90625 
L 64.984375 0 
L 51.703125 0 
L 19.390625 60.984375 
L 19.390625 0 
L 9.8125 0 
z
" id="DejaVuSans-78"/>
      <path d="M 8.5 21.578125 
L 8.5 54.6875 
L 17.484375 54.6875 
L 17.484375 21.921875 
Q 17.484375 14.15625 20.5 10.265625 
Q 23.53125 6.390625 29.59375 6.390625 
Q 36.859375 6.390625 41.078125 11.03125 
Q 45.3125 15.671875 45.3125 23.6875 
L 45.3125 54.6875 
L 54.296875 54.6875 
L 54.296875 0 
L 45.3125 0 
L 45.3125 8.40625 
Q 42.046875 3.421875 37.71875 1 
Q 33.40625 -1.421875 27.6875 -1.421875 
Q 18.265625 -1.421875 13.375 4.4375 
Q 8.5 10.296875 8.5 21.578125 
z
M 31.109375 56 
z
" id="DejaVuSans-117"/>
      <path d="M 52 44.1875 
Q 55.375 50.25 60.0625 53.125 
Q 64.75 56 71.09375 56 
Q 79.640625 56 84.28125 50.015625 
Q 88.921875 44.046875 88.921875 33.015625 
L 88.921875 0 
L 79.890625 0 
L 79.890625 32.71875 
Q 79.890625 40.578125 77.09375 44.375 
Q 74.3125 48.1875 68.609375 48.1875 
Q 61.625 48.1875 57.5625 43.546875 
Q 53.515625 38.921875 53.515625 30.90625 
L 53.515625 0 
L 44.484375 0 
L 44.484375 32.71875 
Q 44.484375 40.625 41.703125 44.40625 
Q 38.921875 48.1875 33.109375 48.1875 
Q 26.21875 48.1875 22.15625 43.53125 
Q 18.109375 38.875 18.109375 30.90625 
L 18.109375 0 
L 9.078125 0 
L 9.078125 54.6875 
L 18.109375 54.6875 
L 18.109375 46.1875 
Q 21.1875 51.21875 25.484375 53.609375 
Q 29.78125 56 35.6875 56 
Q 41.65625 56 45.828125 52.96875 
Q 50 49.953125 52 44.1875 
z
" id="DejaVuSans-109"/>
      <path d="M 48.6875 27.296875 
Q 48.6875 37.203125 44.609375 42.84375 
Q 40.53125 48.484375 33.40625 48.484375 
Q 26.265625 48.484375 22.1875 42.84375 
Q 18.109375 37.203125 18.109375 27.296875 
Q 18.109375 17.390625 22.1875 11.75 
Q 26.265625 6.109375 33.40625 6.109375 
Q 40.53125 6.109375 44.609375 11.75 
Q 48.6875 17.390625 48.6875 27.296875 
z
M 18.109375 46.390625 
Q 20.953125 51.265625 25.265625 53.625 
Q 29.59375 56 35.59375 56 
Q 45.5625 56 51.78125 48.09375 
Q 58.015625 40.1875 58.015625 27.296875 
Q 58.015625 14.40625 51.78125 6.484375 
Q 45.5625 -1.421875 35.59375 -1.421875 
Q 29.59375 -1.421875 25.265625 0.953125 
Q 20.953125 3.328125 18.109375 8.203125 
L 18.109375 0 
L 9.078125 0 
L 9.078125 75.984375 
L 18.109375 75.984375 
z
" id="DejaVuSans-98"/>
      <path d="M 56.203125 29.59375 
L 56.203125 25.203125 
L 14.890625 25.203125 
Q 15.484375 15.921875 20.484375 11.0625 
Q 25.484375 6.203125 34.421875 6.203125 
Q 39.59375 6.203125 44.453125 7.46875 
Q 49.3125 8.734375 54.109375 11.28125 
L 54.109375 2.78125 
Q 49.265625 0.734375 44.1875 -0.34375 
Q 39.109375 -1.421875 33.890625 -1.421875 
Q 20.796875 -1.421875 13.15625 6.1875 
Q 5.515625 13.8125 5.515625 26.8125 
Q 5.515625 40.234375 12.765625 48.109375 
Q 20.015625 56 32.328125 56 
Q 43.359375 56 49.78125 48.890625 
Q 56.203125 41.796875 56.203125 29.59375 
z
M 47.21875 32.234375 
Q 47.125 39.59375 43.09375 43.984375 
Q 39.0625 48.390625 32.421875 48.390625 
Q 24.90625 48.390625 20.390625 44.140625 
Q 15.875 39.890625 15.1875 32.171875 
z
" id="DejaVuSans-101"/>
      <path d="M 54.890625 33.015625 
L 54.890625 0 
L 45.90625 0 
L 45.90625 32.71875 
Q 45.90625 40.484375 42.875 44.328125 
Q 39.84375 48.1875 33.796875 48.1875 
Q 26.515625 48.1875 22.3125 43.546875 
Q 18.109375 38.921875 18.109375 30.90625 
L 18.109375 0 
L 9.078125 0 
L 9.078125 75.984375 
L 18.109375 75.984375 
L 18.109375 46.1875 
Q 21.34375 51.125 25.703125 53.5625 
Q 30.078125 56 35.796875 56 
Q 45.21875 56 50.046875 50.171875 
Q 54.890625 44.34375 54.890625 33.015625 
z
" id="DejaVuSans-104"/>
      <path d="M 44.28125 53.078125 
L 44.28125 44.578125 
Q 40.484375 46.53125 36.375 47.5 
Q 32.28125 48.484375 27.875 48.484375 
Q 21.1875 48.484375 17.84375 46.4375 
Q 14.5 44.390625 14.5 40.28125 
Q 14.5 37.15625 16.890625 35.375 
Q 19.28125 33.59375 26.515625 31.984375 
L 29.59375 31.296875 
Q 39.15625 29.25 43.1875 25.515625 
Q 47.21875 21.78125 47.21875 15.09375 
Q 47.21875 7.46875 41.1875 3.015625 
Q 35.15625 -1.421875 24.609375 -1.421875 
Q 20.21875 -1.421875 15.453125 -0.5625 
Q 10.6875 0.296875 5.421875 2 
L 5.421875 11.28125 
Q 10.40625 8.6875 15.234375 7.390625 
Q 20.0625 6.109375 24.8125 6.109375 
Q 31.15625 6.109375 34.5625 8.28125 
Q 37.984375 10.453125 37.984375 14.40625 
Q 37.984375 18.0625 35.515625 20.015625 
Q 33.0625 21.96875 24.703125 23.78125 
L 21.578125 24.515625 
Q 13.234375 26.265625 9.515625 29.90625 
Q 5.8125 33.546875 5.8125 39.890625 
Q 5.8125 47.609375 11.28125 51.796875 
Q 16.75 56 26.8125 56 
Q 31.78125 56 36.171875 55.265625 
Q 40.578125 54.546875 44.28125 53.078125 
z
" id="DejaVuSans-115"/>
      <path d="M 4.890625 31.390625 
L 31.203125 31.390625 
L 31.203125 23.390625 
L 4.890625 23.390625 
z
" id="DejaVuSans-45"/>
      <path d="M 9.8125 72.90625 
L 19.671875 72.90625 
L 19.671875 42.09375 
L 52.390625 72.90625 
L 65.09375 72.90625 
L 28.90625 38.921875 
L 67.671875 0 
L 54.6875 0 
L 19.671875 35.109375 
L 19.671875 0 
L 9.8125 0 
z
" id="DejaVuSans-75"/>
     </defs>
     <g transform="translate(42.818438 303.861875)rotate(-90)scale(0.14 -0.14)">
      <use xlink:href="#DejaVuSans-78"/>
      <use x="74.804688" xlink:href="#DejaVuSans-117"/>
      <use x="138.183594" xlink:href="#DejaVuSans-109"/>
      <use x="235.595703" xlink:href="#DejaVuSans-98"/>
      <use x="299.072266" xlink:href="#DejaVuSans-101"/>
      <use x="360.595703" xlink:href="#DejaVuSans-114"/>
      <use x="401.708984" xlink:href="#DejaVuSans-32"/>
      <use x="433.496094" xlink:href="#DejaVuSans-111"/>
      <use x="494.677734" xlink:href="#DejaVuSans-102"/>
      <use x="529.882812" xlink:href="#DejaVuSans-32"/>
      <use x="561.669922" xlink:href="#DejaVuSans-110"/>
      <use x="625.048828" xlink:href="#DejaVuSans-101"/>
      <use x="686.572266" xlink:href="#DejaVuSans-105"/>
      <use x="714.355469" xlink:href="#DejaVuSans-103"/>
      <use x="777.832031" xlink:href="#DejaVuSans-104"/>
      <use x="841.210938" xlink:href="#DejaVuSans-98"/>
      <use x="904.6875" xlink:href="#DejaVuSans-111"/>
      <use x="965.869141" xlink:href="#DejaVuSans-114"/>
      <use x="1006.982422" xlink:href="#DejaVuSans-115"/>
      <use x="1059.082031" xlink:href="#DejaVuSans-32"/>
      <use x="1090.869141" xlink:href="#DejaVuSans-45"/>
      <use x="1126.953125" xlink:href="#DejaVuSans-32"/>
      <use x="1158.740234" xlink:href="#DejaVuSans-75"/>
     </g>
    </g>
   </g>
   <g id="patch_3">
    <path d="M 72 384.48 
L 72 51.84 
" style="fill:none;stroke:#000000;stroke-linecap:square;stroke-linejoin:miter;stroke-width:0.8;"/>
   </g>
   <g id="patch_4">
    <path d="M 518.4 384.48 
L 518.4 51.84 
" style="fill:none;stroke:#000000;stroke-linecap:square;stroke-linejoin:miter;stroke-width:0.8;"/>
   </g>
   <g id="patch_5">
    <path d="M 72 384.48 
L 518.4 384.48 
" style="fill:none;stroke:#000000;stroke-linecap:square;stroke-linejoin:miter;stroke-width:0.8;"/>
   </g>
   <g id="patch_6">
    <path d="M 72 51.84 
L 518.4 51.84 
" style="fill:none;stroke:#000000;stroke-linecap:square;stroke-linejoin:miter;stroke-width:0.8;"/>
   </g>
  </g>
 </g>
 <defs>
  <clipPath id="pd8d126e6f6">
   <rect height="332.64" width="446.4" x="72" y="51.84"/>
  </clipPath>
 </defs>
</svg>
