<?xml version="1.0" encoding="utf-8" standalone="no"?>
<!DOCTYPE svg PUBLIC "-//W3C//DTD SVG 1.1//EN"
  "http://www.w3.org/Graphics/SVG/1.1/DTD/svg11.dtd">
<svg height="432pt" version="1.1" viewBox="0 0 576 432" width="576pt" xmlns="http://www.w3.org/2000/svg" xmlns:xlink="http://www.w3.org/1999/xlink">
 <metadata>
  <rdf:RDF xmlns:cc="http://creativecommons.org/ns#" xmlns:dc="http://purl.org/dc/elements/1.1/" xmlns:rdf="http://www.w3.org/1999/02/22-rdf-syntax-ns#">
   <cc:Work>
    <dc:type rdf:resource="http://purl.org/dc/dcmitype/StillImage"/>
    <dc:date>2022-01-13T10:25:37.065670</dc:date>
    <dc:format>image/svg+xml</dc:format>
    <dc:creator>
     <cc:Agent>
      <dc:title>Matplotlib v3.4.2, https://matplotlib.org/</dc:title>
     </cc:Agent>
    </dc:creator>
   </cc:Work>
  </rdf:RDF>
 </metadata>
 <defs>
  <style type="text/css">*{stroke-linecap:butt;stroke-linejoin:round;}</style>
 </defs>
 <g id="figure_1">
  <g id="patch_1">
   <path d="M 0 432 
L 576 432 
L 576 0 
L 0 0 
z
" style="fill:#ffffff;"/>
  </g>
  <g id="axes_1">
   <g id="patch_2">
    <path d="M 72 384.48 
L 518.4 384.48 
L 518.4 51.84 
L 72 51.84 
z
" style="fill:#ffffff;"/>
   </g>
   <g id="PathCollection_1">
    <path clip-path="url(#pbcd05db863)" d="M 469.356553 314.450526 
L 468.875195 314.397443 
L 468.8 314.23163 
L 435.423527 302.997652 
L 419.2 310.774001 
L 406.951042 305.803469 
L 369.6 304.591588 
L 353.395183 303.010861 
L 353.871631 314.450526 
L 329.990853 342.412298 
L 369.6 323.01323 
L 408.628472 321.913415 
L 419.2 318.141422 
L 423.949608 317.803475 
L 468.8 314.49845 
L 468.845656 314.482757 
M 220.8 343.711472 
L 253.571525 314.450526 
L 220.8 307.425325 
L 214.46695 309.979759 
L 209.850431 314.450526 
L 171.716098 349.100928 
" style="fill:#48186a;"/>
   </g>
   <g id="PathCollection_2">
    <path clip-path="url(#pbcd05db863)" d="M 518.4 210.503332 
L 473.480912 191.898947 
L 468.8 189.917008 
L 459.882792 191.898947 
L 419.2 202.417438 
L 386.712195 210.01928 
L 369.6 214.74069 
L 342.953761 220.115007 
L 320 223.104915 
L 285.811757 228.101336 
L 270.4 232.371185 
L 261.119561 234.593871 
L 220.8 237.357702 
L 192.756468 221.594619 
L 171.2 225.834324 
L 158.196197 230.651152 
L 138.972641 244.421053 
L 121.6 261.051765 
L 90.041827 279.435789 
L 84.056483 287.946971 
L 72 287.789192 
L 72 314.450526 
L 72 349.465263 
L 72 384.48 
L 121.6 384.48 
L 171.2 384.48 
L 220.8 384.48 
L 270.4 384.48 
L 320 384.48 
L 369.6 384.48 
L 419.2 384.48 
L 459.806416 384.48 
L 453.501108 373.679866 
L 468.8 372.16869 
L 516.532169 349.465263 
L 517.788339 349.033466 
L 518.4 348.994879 
L 518.4 314.450526 
L 518.4 279.435789 
L 518.4 244.421053 
M 518.4 351.643726 
L 492.557971 384.48 
L 518.4 384.48 
M 468.845656 314.482757 
L 468.8 314.49845 
L 423.949608 317.803475 
L 419.2 318.141422 
L 408.628472 321.913415 
L 369.6 323.01323 
L 329.990853 342.412298 
L 353.871631 314.450526 
L 353.395183 303.010861 
L 369.6 304.591588 
L 406.951042 305.803469 
L 419.2 310.774001 
L 435.423527 302.997652 
L 468.8 314.23163 
L 468.875195 314.397443 
L 469.356553 314.450526 
M 171.716098 349.100928 
L 209.850431 314.450526 
L 214.46695 309.979759 
L 220.8 307.425325 
L 253.571525 314.450526 
L 220.8 343.711472 
" style="fill:#424086;"/>
   </g>
   <g id="PathCollection_3">
    <path clip-path="url(#pbcd05db863)" d="M 518.4 82.864161 
L 517.254185 86.045857 
L 509.045685 86.854737 
L 491.129858 102.618328 
L 468.8 104.136557 
L 436.451527 109.690891 
L 419.2 113.490914 
L 412.185366 116.917547 
L 403.429933 121.869474 
L 369.6 142.611482 
L 357.348225 148.235164 
L 320 154.706022 
L 317.240459 154.936134 
L 310.976529 156.884211 
L 270.4 171.566912 
L 239.679338 178.571225 
L 220.8 187.412024 
L 216.151957 188.617697 
L 198.540911 191.898947 
L 171.2 197.27633 
L 138.216215 209.49408 
L 121.6 221.396334 
L 108.385641 230.428191 
L 72 239.635465 
L 72 244.421053 
L 72 279.435789 
L 72 287.789192 
L 84.056483 287.946971 
L 90.041827 279.435789 
L 121.6 261.051765 
L 138.972641 244.421053 
L 158.196197 230.651152 
L 171.2 225.834324 
L 192.756468 221.594619 
L 220.8 237.357702 
L 261.119561 234.593871 
L 270.4 232.371185 
L 285.811757 228.101336 
L 320 223.104915 
L 342.953761 220.115007 
L 369.6 214.74069 
L 386.712195 210.01928 
L 419.2 202.417438 
L 459.882792 191.898947 
L 468.8 189.917008 
L 473.480912 191.898947 
L 518.4 210.503332 
L 518.4 191.898947 
L 518.4 156.884211 
L 518.4 121.869474 
L 518.4 86.854737 
M 492.557971 384.48 
L 518.4 351.643726 
L 518.4 349.465263 
L 518.4 348.994879 
L 517.788339 349.033466 
L 516.532169 349.465263 
L 468.8 372.16869 
L 453.501108 373.679866 
L 459.806416 384.48 
L 468.8 384.48 
M 270.4 85.547276 
L 268.96683 85.843002 
L 268.59224 86.854737 
L 268.043004 88.51864 
L 270.4 89.628151 
L 274.779822 89.946638 
L 273.853664 86.854737 
L 272.300878 85.512827 
" style="fill:#33638d;"/>
   </g>
   <g id="PathCollection_4">
    <path clip-path="url(#pbcd05db863)" d="M 511.829727 51.84 
L 503.107712 76.059264 
L 468.8 79.440004 
L 426.360572 81.799786 
L 419.2 66.573952 
L 381.435733 86.854737 
L 374.440535 90.271875 
L 369.6 93.009601 
L 347.814794 102.233835 
L 320 98.561518 
L 316.493313 86.854737 
L 295.769511 68.945327 
L 270.4 69.405086 
L 251.272621 73.351911 
L 246.273258 86.854737 
L 238.943044 109.061532 
L 266.151658 121.869474 
L 241.832929 142.036176 
L 223.487722 156.884211 
L 220.8 158.142815 
L 185.831724 167.213363 
L 171.2 169.939513 
L 134.428573 182.842716 
L 121.6 188.201162 
L 116.080966 188.002828 
L 112.863321 191.898947 
L 88.029368 208.87266 
L 72 212.928842 
L 72 239.635465 
L 108.385641 230.428191 
L 121.6 221.396334 
L 138.216215 209.49408 
L 171.2 197.27633 
L 198.540911 191.898947 
L 216.151957 188.617697 
L 220.8 187.412024 
L 239.679338 178.571225 
L 270.4 171.566912 
L 310.976529 156.884211 
L 317.240459 154.936134 
L 320 154.706022 
L 357.348225 148.235164 
L 369.6 142.611482 
L 403.429933 121.869474 
L 412.185366 116.917547 
L 419.2 113.490914 
L 436.451527 109.690891 
L 468.8 104.136557 
L 491.129858 102.618328 
L 509.045685 86.854737 
L 517.254185 86.045857 
L 518.4 82.864161 
L 518.4 51.84 
M 272.300878 85.512827 
L 273.853664 86.854737 
L 274.779822 89.946638 
L 270.4 89.628151 
L 268.043004 88.51864 
L 268.59224 86.854737 
L 268.96683 85.843002 
L 270.4 85.547276 
" style="fill:#26818e;"/>
   </g>
   <g id="PathCollection_5">
    <path clip-path="url(#pbcd05db863)" d="M 494.086811 51.84 
L 488.96124 66.072671 
L 468.8 68.059394 
L 443.860084 69.446141 
L 435.580075 51.84 
L 419.2 51.84 
L 369.6 51.84 
L 323.336872 51.84 
L 321.780709 53.097078 
L 320 53.036218 
L 319.238144 52.377826 
L 270.4 53.262897 
L 233.578411 60.86082 
L 223.954277 86.854737 
L 220.8 96.41058 
L 214.181258 86.854737 
L 198.957653 67.259436 
L 171.2 73.138998 
L 155.886046 76.04397 
L 148.093017 86.854737 
L 137.864155 110.387919 
L 171.2 105.474201 
L 205.035307 121.869474 
L 171.2 143.216305 
L 144.610049 138.11324 
L 143.991827 156.884211 
L 121.6 166.237193 
L 83.299208 164.860799 
L 72 178.542565 
L 72 191.898947 
L 72 212.928842 
L 88.029368 208.87266 
L 112.863321 191.898947 
L 116.080966 188.002828 
L 121.6 188.201162 
L 134.428573 182.842716 
L 171.2 169.939513 
L 185.831724 167.213363 
L 220.8 158.142815 
L 223.487722 156.884211 
L 241.832929 142.036176 
L 266.151658 121.869474 
L 238.943044 109.061532 
L 246.273258 86.854737 
L 251.272621 73.351911 
L 270.4 69.405086 
L 295.769511 68.945327 
L 316.493313 86.854737 
L 320 98.561518 
L 347.814794 102.233835 
L 369.6 93.009601 
L 374.440535 90.271875 
L 381.435733 86.854737 
L 419.2 66.573952 
L 426.360572 81.799786 
L 468.8 79.440004 
L 503.107712 76.059264 
L 511.829727 51.84 
M 72 100.175391 
L 94.473525 86.854737 
L 72 77.901531 
L 72 86.854737 
" style="fill:#1fa088;"/>
   </g>
   <g id="PathCollection_6">
    <path clip-path="url(#pbcd05db863)" d="M 476.343895 51.84 
L 474.814767 56.086078 
L 468.8 56.678784 
L 461.359595 57.092496 
L 458.889394 51.84 
L 435.580075 51.84 
L 443.860084 69.446141 
L 468.8 68.059394 
L 488.96124 66.072671 
L 494.086811 51.84 
M 201.19843 51.84 
L 171.2 58.194198 
L 139.199816 64.264454 
L 122.915427 86.854737 
L 121.6 89.881094 
L 93.419551 121.869474 
L 72 135.540547 
L 72 156.884211 
L 72 178.542565 
L 83.299208 164.860799 
L 121.6 166.237193 
L 143.991827 156.884211 
L 144.610049 138.11324 
L 171.2 143.216305 
L 205.035307 121.869474 
L 171.2 105.474201 
L 137.864155 110.387919 
L 148.093017 86.854737 
L 155.886046 76.04397 
L 171.2 73.138998 
L 198.957653 67.259436 
L 214.181258 86.854737 
L 220.8 96.41058 
L 223.954277 86.854737 
L 233.578411 60.86082 
L 270.4 53.262897 
L 319.238144 52.377826 
L 320 53.036218 
L 321.780709 53.097078 
L 323.336872 51.84 
L 320 51.84 
L 270.4 51.84 
L 220.8 51.84 
M 72 77.901531 
L 94.473525 86.854737 
L 72 100.175391 
L 72 115.455641 
L 120.25312 86.854737 
L 72 67.631222 
" style="fill:#3dbc74;"/>
   </g>
   <g id="PathCollection_7">
    <path clip-path="url(#pbcd05db863)" d="M 458.889394 51.84 
L 461.359595 57.092496 
L 468.8 56.678784 
L 474.814767 56.086078 
L 476.343895 51.84 
L 468.8 51.84 
M 125.913471 51.84 
L 122.513586 52.484939 
L 121.6 53.752299 
L 89.951086 64.51243 
L 72 57.360914 
L 72 67.631222 
L 120.25312 86.854737 
L 72 115.455641 
L 72 121.869474 
L 72 135.540547 
L 93.419551 121.869474 
L 121.6 89.881094 
L 122.915427 86.854737 
L 139.199816 64.264454 
L 171.2 58.194198 
L 201.19843 51.84 
L 171.2 51.84 
" style="fill:#84d44b;"/>
   </g>
   <g id="PathCollection_8">
    <path clip-path="url(#pbcd05db863)" d="M 72 57.360914 
L 89.951086 64.51243 
L 121.6 53.752299 
L 122.513586 52.484939 
L 125.913471 51.84 
L 121.6 51.84 
L 72 51.84 
" style="fill:#d8e219;"/>
   </g>
   <g id="matplotlib.axis_1">
    <g id="xtick_1">
     <g id="line2d_1">
      <defs>
       <path d="M 0 0 
L 0 3.5 
" id="m39db070b32" style="stroke:#000000;stroke-width:0.8;"/>
      </defs>
      <g>
       <use style="stroke:#000000;stroke-width:0.8;" x="72" xlink:href="#m39db070b32" y="384.48"/>
      </g>
     </g>
     <g id="text_1">
      <!-- 0.5 -->
      <g transform="translate(62.458125 400.598125)scale(0.12 -0.12)">
       <defs>
        <path d="M 2034 4250 
Q 1547 4250 1301 3770 
Q 1056 3291 1056 2328 
Q 1056 1369 1301 889 
Q 1547 409 2034 409 
Q 2525 409 2770 889 
Q 3016 1369 3016 2328 
Q 3016 3291 2770 3770 
Q 2525 4250 2034 4250 
z
M 2034 4750 
Q 2819 4750 3233 4129 
Q 3647 3509 3647 2328 
Q 3647 1150 3233 529 
Q 2819 -91 2034 -91 
Q 1250 -91 836 529 
Q 422 1150 422 2328 
Q 422 3509 836 4129 
Q 1250 4750 2034 4750 
z
" id="DejaVuSans-30" transform="scale(0.015625)"/>
        <path d="M 684 794 
L 1344 794 
L 1344 0 
L 684 0 
L 684 794 
z
" id="DejaVuSans-2e" transform="scale(0.015625)"/>
        <path d="M 691 4666 
L 3169 4666 
L 3169 4134 
L 1269 4134 
L 1269 2991 
Q 1406 3038 1543 3061 
Q 1681 3084 1819 3084 
Q 2600 3084 3056 2656 
Q 3513 2228 3513 1497 
Q 3513 744 3044 326 
Q 2575 -91 1722 -91 
Q 1428 -91 1123 -41 
Q 819 9 494 109 
L 494 744 
Q 775 591 1075 516 
Q 1375 441 1709 441 
Q 2250 441 2565 725 
Q 2881 1009 2881 1497 
Q 2881 1984 2565 2268 
Q 2250 2553 1709 2553 
Q 1456 2553 1204 2497 
Q 953 2441 691 2322 
L 691 4666 
z
" id="DejaVuSans-35" transform="scale(0.015625)"/>
       </defs>
       <use xlink:href="#DejaVuSans-30"/>
       <use x="63.623047" xlink:href="#DejaVuSans-2e"/>
       <use x="95.410156" xlink:href="#DejaVuSans-35"/>
      </g>
     </g>
    </g>
    <g id="xtick_2">
     <g id="line2d_2">
      <g>
       <use style="stroke:#000000;stroke-width:0.8;" x="161.28" xlink:href="#m39db070b32" y="384.48"/>
      </g>
     </g>
     <g id="text_2">
      <!-- 0.6 -->
      <g transform="translate(151.738125 400.598125)scale(0.12 -0.12)">
       <defs>
        <path d="M 2113 2584 
Q 1688 2584 1439 2293 
Q 1191 2003 1191 1497 
Q 1191 994 1439 701 
Q 1688 409 2113 409 
Q 2538 409 2786 701 
Q 3034 994 3034 1497 
Q 3034 2003 2786 2293 
Q 2538 2584 2113 2584 
z
M 3366 4563 
L 3366 3988 
Q 3128 4100 2886 4159 
Q 2644 4219 2406 4219 
Q 1781 4219 1451 3797 
Q 1122 3375 1075 2522 
Q 1259 2794 1537 2939 
Q 1816 3084 2150 3084 
Q 2853 3084 3261 2657 
Q 3669 2231 3669 1497 
Q 3669 778 3244 343 
Q 2819 -91 2113 -91 
Q 1303 -91 875 529 
Q 447 1150 447 2328 
Q 447 3434 972 4092 
Q 1497 4750 2381 4750 
Q 2619 4750 2861 4703 
Q 3103 4656 3366 4563 
z
" id="DejaVuSans-36" transform="scale(0.015625)"/>
       </defs>
       <use xlink:href="#DejaVuSans-30"/>
       <use x="63.623047" xlink:href="#DejaVuSans-2e"/>
       <use x="95.410156" xlink:href="#DejaVuSans-36"/>
      </g>
     </g>
    </g>
    <g id="xtick_3">
     <g id="line2d_3">
      <g>
       <use style="stroke:#000000;stroke-width:0.8;" x="250.56" xlink:href="#m39db070b32" y="384.48"/>
      </g>
     </g>
     <g id="text_3">
      <!-- 0.7 -->
      <g transform="translate(241.018125 400.598125)scale(0.12 -0.12)">
       <defs>
        <path d="M 525 4666 
L 3525 4666 
L 3525 4397 
L 1831 0 
L 1172 0 
L 2766 4134 
L 525 4134 
L 525 4666 
z
" id="DejaVuSans-37" transform="scale(0.015625)"/>
       </defs>
       <use xlink:href="#DejaVuSans-30"/>
       <use x="63.623047" xlink:href="#DejaVuSans-2e"/>
       <use x="95.410156" xlink:href="#DejaVuSans-37"/>
      </g>
     </g>
    </g>
    <g id="xtick_4">
     <g id="line2d_4">
      <g>
       <use style="stroke:#000000;stroke-width:0.8;" x="339.84" xlink:href="#m39db070b32" y="384.48"/>
      </g>
     </g>
     <g id="text_4">
      <!-- 0.8 -->
      <g transform="translate(330.298125 400.598125)scale(0.12 -0.12)">
       <defs>
        <path d="M 2034 2216 
Q 1584 2216 1326 1975 
Q 1069 1734 1069 1313 
Q 1069 891 1326 650 
Q 1584 409 2034 409 
Q 2484 409 2743 651 
Q 3003 894 3003 1313 
Q 3003 1734 2745 1975 
Q 2488 2216 2034 2216 
z
M 1403 2484 
Q 997 2584 770 2862 
Q 544 3141 544 3541 
Q 544 4100 942 4425 
Q 1341 4750 2034 4750 
Q 2731 4750 3128 4425 
Q 3525 4100 3525 3541 
Q 3525 3141 3298 2862 
Q 3072 2584 2669 2484 
Q 3125 2378 3379 2068 
Q 3634 1759 3634 1313 
Q 3634 634 3220 271 
Q 2806 -91 2034 -91 
Q 1263 -91 848 271 
Q 434 634 434 1313 
Q 434 1759 690 2068 
Q 947 2378 1403 2484 
z
M 1172 3481 
Q 1172 3119 1398 2916 
Q 1625 2713 2034 2713 
Q 2441 2713 2670 2916 
Q 2900 3119 2900 3481 
Q 2900 3844 2670 4047 
Q 2441 4250 2034 4250 
Q 1625 4250 1398 4047 
Q 1172 3844 1172 3481 
z
" id="DejaVuSans-38" transform="scale(0.015625)"/>
       </defs>
       <use xlink:href="#DejaVuSans-30"/>
       <use x="63.623047" xlink:href="#DejaVuSans-2e"/>
       <use x="95.410156" xlink:href="#DejaVuSans-38"/>
      </g>
     </g>
    </g>
    <g id="xtick_5">
     <g id="line2d_5">
      <g>
       <use style="stroke:#000000;stroke-width:0.8;" x="429.12" xlink:href="#m39db070b32" y="384.48"/>
      </g>
     </g>
     <g id="text_5">
      <!-- 0.9 -->
      <g transform="translate(419.578125 400.598125)scale(0.12 -0.12)">
       <defs>
        <path d="M 703 97 
L 703 672 
Q 941 559 1184 500 
Q 1428 441 1663 441 
Q 2288 441 2617 861 
Q 2947 1281 2994 2138 
Q 2813 1869 2534 1725 
Q 2256 1581 1919 1581 
Q 1219 1581 811 2004 
Q 403 2428 403 3163 
Q 403 3881 828 4315 
Q 1253 4750 1959 4750 
Q 2769 4750 3195 4129 
Q 3622 3509 3622 2328 
Q 3622 1225 3098 567 
Q 2575 -91 1691 -91 
Q 1453 -91 1209 -44 
Q 966 3 703 97 
z
M 1959 2075 
Q 2384 2075 2632 2365 
Q 2881 2656 2881 3163 
Q 2881 3666 2632 3958 
Q 2384 4250 1959 4250 
Q 1534 4250 1286 3958 
Q 1038 3666 1038 3163 
Q 1038 2656 1286 2365 
Q 1534 2075 1959 2075 
z
" id="DejaVuSans-39" transform="scale(0.015625)"/>
       </defs>
       <use xlink:href="#DejaVuSans-30"/>
       <use x="63.623047" xlink:href="#DejaVuSans-2e"/>
       <use x="95.410156" xlink:href="#DejaVuSans-39"/>
      </g>
     </g>
    </g>
    <g id="xtick_6">
     <g id="line2d_6">
      <g>
       <use style="stroke:#000000;stroke-width:0.8;" x="518.4" xlink:href="#m39db070b32" y="384.48"/>
      </g>
     </g>
     <g id="text_6">
      <!-- 1.0 -->
      <g transform="translate(508.858125 400.598125)scale(0.12 -0.12)">
       <defs>
        <path d="M 794 531 
L 1825 531 
L 1825 4091 
L 703 3866 
L 703 4441 
L 1819 4666 
L 2450 4666 
L 2450 531 
L 3481 531 
L 3481 0 
L 794 0 
L 794 531 
z
" id="DejaVuSans-31" transform="scale(0.015625)"/>
       </defs>
       <use xlink:href="#DejaVuSans-31"/>
       <use x="63.623047" xlink:href="#DejaVuSans-2e"/>
       <use x="95.410156" xlink:href="#DejaVuSans-30"/>
      </g>
     </g>
    </g>
    <g id="text_7">
     <!-- Bagging fraction -->
     <g transform="translate(237.281562 417.731562)scale(0.14 -0.14)">
      <defs>
       <path d="M 1259 2228 
L 1259 519 
L 2272 519 
Q 2781 519 3026 730 
Q 3272 941 3272 1375 
Q 3272 1813 3026 2020 
Q 2781 2228 2272 2228 
L 1259 2228 
z
M 1259 4147 
L 1259 2741 
L 2194 2741 
Q 2656 2741 2882 2914 
Q 3109 3088 3109 3444 
Q 3109 3797 2882 3972 
Q 2656 4147 2194 4147 
L 1259 4147 
z
M 628 4666 
L 2241 4666 
Q 2963 4666 3353 4366 
Q 3744 4066 3744 3513 
Q 3744 3084 3544 2831 
Q 3344 2578 2956 2516 
Q 3422 2416 3680 2098 
Q 3938 1781 3938 1306 
Q 3938 681 3513 340 
Q 3088 0 2303 0 
L 628 0 
L 628 4666 
z
" id="DejaVuSans-42" transform="scale(0.015625)"/>
       <path d="M 2194 1759 
Q 1497 1759 1228 1600 
Q 959 1441 959 1056 
Q 959 750 1161 570 
Q 1363 391 1709 391 
Q 2188 391 2477 730 
Q 2766 1069 2766 1631 
L 2766 1759 
L 2194 1759 
z
M 3341 1997 
L 3341 0 
L 2766 0 
L 2766 531 
Q 2569 213 2275 61 
Q 1981 -91 1556 -91 
Q 1019 -91 701 211 
Q 384 513 384 1019 
Q 384 1609 779 1909 
Q 1175 2209 1959 2209 
L 2766 2209 
L 2766 2266 
Q 2766 2663 2505 2880 
Q 2244 3097 1772 3097 
Q 1472 3097 1187 3025 
Q 903 2953 641 2809 
L 641 3341 
Q 956 3463 1253 3523 
Q 1550 3584 1831 3584 
Q 2591 3584 2966 3190 
Q 3341 2797 3341 1997 
z
" id="DejaVuSans-61" transform="scale(0.015625)"/>
       <path d="M 2906 1791 
Q 2906 2416 2648 2759 
Q 2391 3103 1925 3103 
Q 1463 3103 1205 2759 
Q 947 2416 947 1791 
Q 947 1169 1205 825 
Q 1463 481 1925 481 
Q 2391 481 2648 825 
Q 2906 1169 2906 1791 
z
M 3481 434 
Q 3481 -459 3084 -895 
Q 2688 -1331 1869 -1331 
Q 1566 -1331 1297 -1286 
Q 1028 -1241 775 -1147 
L 775 -588 
Q 1028 -725 1275 -790 
Q 1522 -856 1778 -856 
Q 2344 -856 2625 -561 
Q 2906 -266 2906 331 
L 2906 616 
Q 2728 306 2450 153 
Q 2172 0 1784 0 
Q 1141 0 747 490 
Q 353 981 353 1791 
Q 353 2603 747 3093 
Q 1141 3584 1784 3584 
Q 2172 3584 2450 3431 
Q 2728 3278 2906 2969 
L 2906 3500 
L 3481 3500 
L 3481 434 
z
" id="DejaVuSans-67" transform="scale(0.015625)"/>
       <path d="M 603 3500 
L 1178 3500 
L 1178 0 
L 603 0 
L 603 3500 
z
M 603 4863 
L 1178 4863 
L 1178 4134 
L 603 4134 
L 603 4863 
z
" id="DejaVuSans-69" transform="scale(0.015625)"/>
       <path d="M 3513 2113 
L 3513 0 
L 2938 0 
L 2938 2094 
Q 2938 2591 2744 2837 
Q 2550 3084 2163 3084 
Q 1697 3084 1428 2787 
Q 1159 2491 1159 1978 
L 1159 0 
L 581 0 
L 581 3500 
L 1159 3500 
L 1159 2956 
Q 1366 3272 1645 3428 
Q 1925 3584 2291 3584 
Q 2894 3584 3203 3211 
Q 3513 2838 3513 2113 
z
" id="DejaVuSans-6e" transform="scale(0.015625)"/>
       <path id="DejaVuSans-20" transform="scale(0.015625)"/>
       <path d="M 2375 4863 
L 2375 4384 
L 1825 4384 
Q 1516 4384 1395 4259 
Q 1275 4134 1275 3809 
L 1275 3500 
L 2222 3500 
L 2222 3053 
L 1275 3053 
L 1275 0 
L 697 0 
L 697 3053 
L 147 3053 
L 147 3500 
L 697 3500 
L 697 3744 
Q 697 4328 969 4595 
Q 1241 4863 1831 4863 
L 2375 4863 
z
" id="DejaVuSans-66" transform="scale(0.015625)"/>
       <path d="M 2631 2963 
Q 2534 3019 2420 3045 
Q 2306 3072 2169 3072 
Q 1681 3072 1420 2755 
Q 1159 2438 1159 1844 
L 1159 0 
L 581 0 
L 581 3500 
L 1159 3500 
L 1159 2956 
Q 1341 3275 1631 3429 
Q 1922 3584 2338 3584 
Q 2397 3584 2469 3576 
Q 2541 3569 2628 3553 
L 2631 2963 
z
" id="DejaVuSans-72" transform="scale(0.015625)"/>
       <path d="M 3122 3366 
L 3122 2828 
Q 2878 2963 2633 3030 
Q 2388 3097 2138 3097 
Q 1578 3097 1268 2742 
Q 959 2388 959 1747 
Q 959 1106 1268 751 
Q 1578 397 2138 397 
Q 2388 397 2633 464 
Q 2878 531 3122 666 
L 3122 134 
Q 2881 22 2623 -34 
Q 2366 -91 2075 -91 
Q 1284 -91 818 406 
Q 353 903 353 1747 
Q 353 2603 823 3093 
Q 1294 3584 2113 3584 
Q 2378 3584 2631 3529 
Q 2884 3475 3122 3366 
z
" id="DejaVuSans-63" transform="scale(0.015625)"/>
       <path d="M 1172 4494 
L 1172 3500 
L 2356 3500 
L 2356 3053 
L 1172 3053 
L 1172 1153 
Q 1172 725 1289 603 
Q 1406 481 1766 481 
L 2356 481 
L 2356 0 
L 1766 0 
Q 1100 0 847 248 
Q 594 497 594 1153 
L 594 3053 
L 172 3053 
L 172 3500 
L 594 3500 
L 594 4494 
L 1172 4494 
z
" id="DejaVuSans-74" transform="scale(0.015625)"/>
       <path d="M 1959 3097 
Q 1497 3097 1228 2736 
Q 959 2375 959 1747 
Q 959 1119 1226 758 
Q 1494 397 1959 397 
Q 2419 397 2687 759 
Q 2956 1122 2956 1747 
Q 2956 2369 2687 2733 
Q 2419 3097 1959 3097 
z
M 1959 3584 
Q 2709 3584 3137 3096 
Q 3566 2609 3566 1747 
Q 3566 888 3137 398 
Q 2709 -91 1959 -91 
Q 1206 -91 779 398 
Q 353 888 353 1747 
Q 353 2609 779 3096 
Q 1206 3584 1959 3584 
z
" id="DejaVuSans-6f" transform="scale(0.015625)"/>
      </defs>
      <use xlink:href="#DejaVuSans-42"/>
      <use x="68.603516" xlink:href="#DejaVuSans-61"/>
      <use x="129.882812" xlink:href="#DejaVuSans-67"/>
      <use x="193.359375" xlink:href="#DejaVuSans-67"/>
      <use x="256.835938" xlink:href="#DejaVuSans-69"/>
      <use x="284.619141" xlink:href="#DejaVuSans-6e"/>
      <use x="347.998047" xlink:href="#DejaVuSans-67"/>
      <use x="411.474609" xlink:href="#DejaVuSans-20"/>
      <use x="443.261719" xlink:href="#DejaVuSans-66"/>
      <use x="478.466797" xlink:href="#DejaVuSans-72"/>
      <use x="519.580078" xlink:href="#DejaVuSans-61"/>
      <use x="580.859375" xlink:href="#DejaVuSans-63"/>
      <use x="635.839844" xlink:href="#DejaVuSans-74"/>
      <use x="675.048828" xlink:href="#DejaVuSans-69"/>
      <use x="702.832031" xlink:href="#DejaVuSans-6f"/>
      <use x="764.013672" xlink:href="#DejaVuSans-6e"/>
     </g>
    </g>
   </g>
   <g id="matplotlib.axis_2">
    <g id="ytick_1">
     <g id="line2d_7">
      <defs>
       <path d="M 0 0 
L -3.5 0 
" id="m7cf24abd81" style="stroke:#000000;stroke-width:0.8;"/>
      </defs>
      <g>
       <use style="stroke:#000000;stroke-width:0.8;" x="72" xlink:href="#m7cf24abd81" y="384.48"/>
      </g>
     </g>
     <g id="text_8">
      <!-- 1 -->
      <g transform="translate(57.365 389.039062)scale(0.12 -0.12)">
       <use xlink:href="#DejaVuSans-31"/>
      </g>
     </g>
    </g>
    <g id="ytick_2">
     <g id="line2d_8">
      <g>
       <use style="stroke:#000000;stroke-width:0.8;" x="72" xlink:href="#m7cf24abd81" y="314.450526"/>
      </g>
     </g>
     <g id="text_9">
      <!-- 5 -->
      <g transform="translate(57.365 319.009589)scale(0.12 -0.12)">
       <use xlink:href="#DejaVuSans-35"/>
      </g>
     </g>
    </g>
    <g id="ytick_3">
     <g id="line2d_9">
      <g>
       <use style="stroke:#000000;stroke-width:0.8;" x="72" xlink:href="#m7cf24abd81" y="226.913684"/>
      </g>
     </g>
     <g id="text_10">
      <!-- 10 -->
      <g transform="translate(49.73 231.472747)scale(0.12 -0.12)">
       <use xlink:href="#DejaVuSans-31"/>
       <use x="63.623047" xlink:href="#DejaVuSans-30"/>
      </g>
     </g>
    </g>
    <g id="ytick_4">
     <g id="line2d_10">
      <g>
       <use style="stroke:#000000;stroke-width:0.8;" x="72" xlink:href="#m7cf24abd81" y="139.376842"/>
      </g>
     </g>
     <g id="text_11">
      <!-- 15 -->
      <g transform="translate(49.73 143.935905)scale(0.12 -0.12)">
       <use xlink:href="#DejaVuSans-31"/>
       <use x="63.623047" xlink:href="#DejaVuSans-35"/>
      </g>
     </g>
    </g>
    <g id="ytick_5">
     <g id="line2d_11">
      <g>
       <use style="stroke:#000000;stroke-width:0.8;" x="72" xlink:href="#m7cf24abd81" y="51.84"/>
      </g>
     </g>
     <g id="text_12">
      <!-- 20 -->
      <g transform="translate(49.73 56.399062)scale(0.12 -0.12)">
       <defs>
        <path d="M 1228 531 
L 3431 531 
L 3431 0 
L 469 0 
L 469 531 
Q 828 903 1448 1529 
Q 2069 2156 2228 2338 
Q 2531 2678 2651 2914 
Q 2772 3150 2772 3378 
Q 2772 3750 2511 3984 
Q 2250 4219 1831 4219 
Q 1534 4219 1204 4116 
Q 875 4013 500 3803 
L 500 4441 
Q 881 4594 1212 4672 
Q 1544 4750 1819 4750 
Q 2544 4750 2975 4387 
Q 3406 4025 3406 3419 
Q 3406 3131 3298 2873 
Q 3191 2616 2906 2266 
Q 2828 2175 2409 1742 
Q 1991 1309 1228 531 
z
" id="DejaVuSans-32" transform="scale(0.015625)"/>
       </defs>
       <use xlink:href="#DejaVuSans-32"/>
       <use x="63.623047" xlink:href="#DejaVuSans-30"/>
      </g>
     </g>
    </g>
    <g id="text_13">
     <!-- Number of neighbors - K -->
     <g transform="translate(42.818438 303.861875)rotate(-90)scale(0.14 -0.14)">
      <defs>
       <path d="M 628 4666 
L 1478 4666 
L 3547 763 
L 3547 4666 
L 4159 4666 
L 4159 0 
L 3309 0 
L 1241 3903 
L 1241 0 
L 628 0 
L 628 4666 
z
" id="DejaVuSans-4e" transform="scale(0.015625)"/>
       <path d="M 544 1381 
L 544 3500 
L 1119 3500 
L 1119 1403 
Q 1119 906 1312 657 
Q 1506 409 1894 409 
Q 2359 409 2629 706 
Q 2900 1003 2900 1516 
L 2900 3500 
L 3475 3500 
L 3475 0 
L 2900 0 
L 2900 538 
Q 2691 219 2414 64 
Q 2138 -91 1772 -91 
Q 1169 -91 856 284 
Q 544 659 544 1381 
z
M 1991 3584 
L 1991 3584 
z
" id="DejaVuSans-75" transform="scale(0.015625)"/>
       <path d="M 3328 2828 
Q 3544 3216 3844 3400 
Q 4144 3584 4550 3584 
Q 5097 3584 5394 3201 
Q 5691 2819 5691 2113 
L 5691 0 
L 5113 0 
L 5113 2094 
Q 5113 2597 4934 2840 
Q 4756 3084 4391 3084 
Q 3944 3084 3684 2787 
Q 3425 2491 3425 1978 
L 3425 0 
L 2847 0 
L 2847 2094 
Q 2847 2600 2669 2842 
Q 2491 3084 2119 3084 
Q 1678 3084 1418 2786 
Q 1159 2488 1159 1978 
L 1159 0 
L 581 0 
L 581 3500 
L 1159 3500 
L 1159 2956 
Q 1356 3278 1631 3431 
Q 1906 3584 2284 3584 
Q 2666 3584 2933 3390 
Q 3200 3197 3328 2828 
z
" id="DejaVuSans-6d" transform="scale(0.015625)"/>
       <path d="M 3116 1747 
Q 3116 2381 2855 2742 
Q 2594 3103 2138 3103 
Q 1681 3103 1420 2742 
Q 1159 2381 1159 1747 
Q 1159 1113 1420 752 
Q 1681 391 2138 391 
Q 2594 391 2855 752 
Q 3116 1113 3116 1747 
z
M 1159 2969 
Q 1341 3281 1617 3432 
Q 1894 3584 2278 3584 
Q 2916 3584 3314 3078 
Q 3713 2572 3713 1747 
Q 3713 922 3314 415 
Q 2916 -91 2278 -91 
Q 1894 -91 1617 61 
Q 1341 213 1159 525 
L 1159 0 
L 581 0 
L 581 4863 
L 1159 4863 
L 1159 2969 
z
" id="DejaVuSans-62" transform="scale(0.015625)"/>
       <path d="M 3597 1894 
L 3597 1613 
L 953 1613 
Q 991 1019 1311 708 
Q 1631 397 2203 397 
Q 2534 397 2845 478 
Q 3156 559 3463 722 
L 3463 178 
Q 3153 47 2828 -22 
Q 2503 -91 2169 -91 
Q 1331 -91 842 396 
Q 353 884 353 1716 
Q 353 2575 817 3079 
Q 1281 3584 2069 3584 
Q 2775 3584 3186 3129 
Q 3597 2675 3597 1894 
z
M 3022 2063 
Q 3016 2534 2758 2815 
Q 2500 3097 2075 3097 
Q 1594 3097 1305 2825 
Q 1016 2553 972 2059 
L 3022 2063 
z
" id="DejaVuSans-65" transform="scale(0.015625)"/>
       <path d="M 3513 2113 
L 3513 0 
L 2938 0 
L 2938 2094 
Q 2938 2591 2744 2837 
Q 2550 3084 2163 3084 
Q 1697 3084 1428 2787 
Q 1159 2491 1159 1978 
L 1159 0 
L 581 0 
L 581 4863 
L 1159 4863 
L 1159 2956 
Q 1366 3272 1645 3428 
Q 1925 3584 2291 3584 
Q 2894 3584 3203 3211 
Q 3513 2838 3513 2113 
z
" id="DejaVuSans-68" transform="scale(0.015625)"/>
       <path d="M 2834 3397 
L 2834 2853 
Q 2591 2978 2328 3040 
Q 2066 3103 1784 3103 
Q 1356 3103 1142 2972 
Q 928 2841 928 2578 
Q 928 2378 1081 2264 
Q 1234 2150 1697 2047 
L 1894 2003 
Q 2506 1872 2764 1633 
Q 3022 1394 3022 966 
Q 3022 478 2636 193 
Q 2250 -91 1575 -91 
Q 1294 -91 989 -36 
Q 684 19 347 128 
L 347 722 
Q 666 556 975 473 
Q 1284 391 1588 391 
Q 1994 391 2212 530 
Q 2431 669 2431 922 
Q 2431 1156 2273 1281 
Q 2116 1406 1581 1522 
L 1381 1569 
Q 847 1681 609 1914 
Q 372 2147 372 2553 
Q 372 3047 722 3315 
Q 1072 3584 1716 3584 
Q 2034 3584 2315 3537 
Q 2597 3491 2834 3397 
z
" id="DejaVuSans-73" transform="scale(0.015625)"/>
       <path d="M 313 2009 
L 1997 2009 
L 1997 1497 
L 313 1497 
L 313 2009 
z
" id="DejaVuSans-2d" transform="scale(0.015625)"/>
       <path d="M 628 4666 
L 1259 4666 
L 1259 2694 
L 3353 4666 
L 4166 4666 
L 1850 2491 
L 4331 0 
L 3500 0 
L 1259 2247 
L 1259 0 
L 628 0 
L 628 4666 
z
" id="DejaVuSans-4b" transform="scale(0.015625)"/>
      </defs>
      <use xlink:href="#DejaVuSans-4e"/>
      <use x="74.804688" xlink:href="#DejaVuSans-75"/>
      <use x="138.183594" xlink:href="#DejaVuSans-6d"/>
      <use x="235.595703" xlink:href="#DejaVuSans-62"/>
      <use x="299.072266" xlink:href="#DejaVuSans-65"/>
      <use x="360.595703" xlink:href="#DejaVuSans-72"/>
      <use x="401.708984" xlink:href="#DejaVuSans-20"/>
      <use x="433.496094" xlink:href="#DejaVuSans-6f"/>
      <use x="494.677734" xlink:href="#DejaVuSans-66"/>
      <use x="529.882812" xlink:href="#DejaVuSans-20"/>
      <use x="561.669922" xlink:href="#DejaVuSans-6e"/>
      <use x="625.048828" xlink:href="#DejaVuSans-65"/>
      <use x="686.572266" xlink:href="#DejaVuSans-69"/>
      <use x="714.355469" xlink:href="#DejaVuSans-67"/>
      <use x="777.832031" xlink:href="#DejaVuSans-68"/>
      <use x="841.210938" xlink:href="#DejaVuSans-62"/>
      <use x="904.6875" xlink:href="#DejaVuSans-6f"/>
      <use x="965.869141" xlink:href="#DejaVuSans-72"/>
      <use x="1006.982422" xlink:href="#DejaVuSans-73"/>
      <use x="1059.082031" xlink:href="#DejaVuSans-20"/>
      <use x="1090.869141" xlink:href="#DejaVuSans-2d"/>
      <use x="1126.953125" xlink:href="#DejaVuSans-20"/>
      <use x="1158.740234" xlink:href="#DejaVuSans-4b"/>
     </g>
    </g>
   </g>
   <g id="patch_3">
    <path d="M 72 384.48 
L 72 51.84 
" style="fill:none;stroke:#000000;stroke-linecap:square;stroke-linejoin:miter;stroke-width:0.8;"/>
   </g>
   <g id="patch_4">
    <path d="M 518.4 384.48 
L 518.4 51.84 
" style="fill:none;stroke:#000000;stroke-linecap:square;stroke-linejoin:miter;stroke-width:0.8;"/>
   </g>
   <g id="patch_5">
    <path d="M 72 384.48 
L 518.4 384.48 
" style="fill:none;stroke:#000000;stroke-linecap:square;stroke-linejoin:miter;stroke-width:0.8;"/>
   </g>
   <g id="patch_6">
    <path d="M 72 51.84 
L 518.4 51.84 
" style="fill:none;stroke:#000000;stroke-linecap:square;stroke-linejoin:miter;stroke-width:0.8;"/>
   </g>
  </g>
 </g>
 <defs>
  <clipPath id="pbcd05db863">
   <rect height="332.64" width="446.4" x="72" y="51.84"/>
  </clipPath>
 </defs>
</svg>
