<?xml version="1.0" encoding="utf-8" standalone="no"?>
<!DOCTYPE svg PUBLIC "-//W3C//DTD SVG 1.1//EN"
  "http://www.w3.org/Graphics/SVG/1.1/DTD/svg11.dtd">
<!-- Created with matplotlib (https://matplotlib.org/) -->
<svg height="432pt" version="1.1" viewBox="0 0 576 432" width="576pt" xmlns="http://www.w3.org/2000/svg" xmlns:xlink="http://www.w3.org/1999/xlink">
 <defs>
  <style type="text/css">
*{stroke-linecap:butt;stroke-linejoin:round;}
  </style>
 </defs>
 <g id="figure_1">
  <g id="patch_1">
   <path d="M 0 432 
L 576 432 
L 576 0 
L 0 0 
z
" style="fill:#ffffff;"/>
  </g>
  <g id="axes_1">
   <g id="patch_2">
    <path d="M 72 384.48 
L 518.4 384.48 
L 518.4 51.84 
L 72 51.84 
z
" style="fill:#ffffff;"/>
   </g>
   <g id="PathCollection_1">
    <path clip-path="url(#p853b1121d7)" d="M 72 369.737676 
L 100.67138 349.465263 
L 72 344.139104 
L 72 349.465263 
M 229.676087 384.48 
L 237.18033 372.916433 
L 220.8 378.701377 
L 171.710072 349.465263 
L 220.8 320.794689 
L 238.441798 326.904617 
L 270.4 329.857264 
L 279.421984 320.819526 
L 320 321.788176 
L 329.711604 314.450526 
L 320 307.3385 
L 280.450988 279.435789 
L 320 246.741947 
L 326.024927 248.674303 
L 321.819814 244.421053 
L 323.342294 240.881852 
L 320 236.2639 
L 317.451151 241.722042 
L 300.121761 244.421053 
L 270.4 254.736656 
L 240.840404 279.435789 
L 242.93668 295.063008 
L 220.8 298.144112 
L 195.999877 314.450526 
L 171.2 347.894802 
L 169.820912 349.465263 
L 162.594188 378.404794 
L 144.149945 384.48 
L 171.2 384.48 
L 220.8 384.48 
M 432.019571 279.435789 
L 419.2 275.582328 
L 409.769369 279.435789 
L 414.078797 283.051063 
L 419.2 283.619282 
M 320 169.086817 
L 328.615303 162.966117 
L 333.114552 156.884211 
L 325.337563 153.116199 
L 320 141.745289 
L 314.47272 152.98227 
L 314.735422 156.884211 
L 313.247192 161.651303 
" style="fill:#481668;"/>
   </g>
   <g id="PathCollection_2">
    <path clip-path="url(#p853b1121d7)" d="M 254.574356 51.84 
L 220.8 67.823891 
L 182.026066 79.212159 
L 171.2 81.839347 
L 166.881295 83.80598 
L 154.897594 86.854737 
L 171.2 103.300381 
L 181.583879 114.539054 
L 220.8 92.453383 
L 239.497515 100.054103 
L 270.4 89.012035 
L 283.548542 86.854737 
L 298.511428 71.685045 
L 305.497136 51.84 
L 270.4 51.84 
M 72 163.712421 
L 85.074473 166.114034 
L 85.70611 156.884211 
L 98.94047 137.865794 
L 72 152.254419 
L 72 156.884211 
M 72 285.695719 
L 88.50982 279.435789 
L 92.743742 264.791905 
L 72 258.480732 
L 72 279.435789 
M 72 344.139104 
L 100.67138 349.465263 
L 72 369.737676 
L 72 384.48 
L 121.6 384.48 
L 144.149945 384.48 
L 162.594188 378.404794 
L 169.820912 349.465263 
L 171.2 347.894802 
L 195.999877 314.450526 
L 220.8 298.144112 
L 242.93668 295.063008 
L 240.840404 279.435789 
L 270.4 254.736656 
L 300.121761 244.421053 
L 317.451151 241.722042 
L 320 236.2639 
L 323.342294 240.881852 
L 321.819814 244.421053 
L 326.024927 248.674303 
L 320 246.741947 
L 280.450988 279.435789 
L 320 307.3385 
L 329.711604 314.450526 
L 320 321.788176 
L 279.421984 320.819526 
L 270.4 329.857264 
L 238.441798 326.904617 
L 220.8 320.794689 
L 171.710072 349.465263 
L 220.8 378.701377 
L 237.18033 372.916433 
L 229.676087 384.48 
L 270.4 384.48 
L 320 384.48 
L 369.6 384.48 
L 372.044157 384.48 
L 419.2 350.844812 
L 420.332364 350.264647 
L 468.8 362.074315 
L 510.441348 384.48 
L 518.4 384.48 
L 518.4 349.465263 
L 518.4 328.265237 
L 495.650092 330.510648 
L 485.674883 314.450526 
L 492.495327 296.163322 
L 518.4 293.238753 
L 518.4 279.435789 
L 518.4 266.564621 
L 494.300172 244.421053 
L 518.4 221.876015 
L 518.4 191.898947 
L 518.4 179.095202 
L 480.940299 191.898947 
L 468.8 207.098864 
L 439.215438 244.421053 
L 442.362628 260.772531 
L 419.2 253.810028 
L 387.622488 266.712953 
L 369.6 275.089622 
L 339.278535 244.421053 
L 355.407209 206.927884 
L 344.529848 191.898947 
L 357.025074 183.021775 
L 369.6 166.023487 
L 393.14863 175.274974 
L 390.06894 191.898947 
L 419.2 223.077369 
L 454.325304 191.898947 
L 451.615469 179.76766 
L 425.572512 156.884211 
L 419.2 151.250894 
L 407.082991 148.330302 
L 369.6 153.608445 
L 342.938679 140.690827 
L 334.103839 121.869474 
L 320 97.363862 
L 305.220783 121.869474 
L 296.245994 140.115253 
L 297.374981 156.884211 
L 290.979172 177.37124 
L 304.172992 191.898947 
L 292.998301 215.828591 
L 270.4 219.348222 
L 244.943736 218.854927 
L 220.8 227.139842 
L 210.535259 233.551581 
L 204.791342 244.421053 
L 206.473376 269.32202 
L 205.720201 279.435789 
L 171.2 303.48709 
L 131.470439 307.482566 
L 121.6 302.000803 
L 111.976293 314.450526 
L 108.43065 340.168463 
L 72 333.400897 
M 419.2 283.619282 
L 414.078797 283.051063 
L 409.769369 279.435789 
L 419.2 275.582328 
L 432.019571 279.435789 
M 313.247192 161.651303 
L 314.735422 156.884211 
L 314.47272 152.98227 
L 320 141.745289 
L 325.337563 153.116199 
L 333.114552 156.884211 
L 328.615303 162.966117 
L 320 169.086817 
M 468.8 53.810032 
L 461.40657 86.854737 
L 458.191557 94.343686 
L 468.8 105.254563 
L 510.250436 86.854737 
M 445.146231 314.450526 
L 419.2 346.673915 
L 416.879507 347.827129 
L 417.703449 349.465263 
L 369.6 383.155447 
L 365.886259 381.858313 
L 320 370.755714 
L 279.802851 377.84213 
L 299.827315 349.465263 
L 308.166513 341.111504 
L 320 341.393985 
L 355.660494 314.450526 
L 320 288.335544 
L 307.38558 279.435789 
L 320 269.007872 
L 352.513385 279.435789 
L 369.6 290.437653 
L 385.14368 303.477585 
L 419.2 307.256276 
L 438.151892 301.071584 
M 160.260049 164.607184 
L 171.2 163.084611 
L 211.532035 163.426859 
L 220.8 167.444119 
L 243.372622 172.819179 
L 237.261182 156.884211 
L 238.281927 144.542979 
L 220.8 151.765497 
L 182.479239 129.831965 
L 171.2 130.243211 
L 159.699062 156.884211 
" style="fill:#443983;"/>
   </g>
   <g id="PathCollection_3">
    <path clip-path="url(#p853b1121d7)" d="M 518.4 73.902862 
L 488.371548 51.84 
L 468.8 51.84 
L 430.818226 51.84 
L 456.687313 60.390858 
L 450.766278 86.854737 
L 442.924361 105.121444 
L 459.208159 121.869474 
L 468.8 126.711325 
L 493.048979 138.987853 
L 480.784303 121.869474 
L 518.4 101.726908 
L 518.4 86.854737 
M 305.497136 51.84 
L 298.511428 71.685045 
L 283.548542 86.854737 
L 270.4 89.012035 
L 239.497515 100.054103 
L 220.8 92.453383 
L 181.583879 114.539054 
L 171.2 103.300381 
L 154.897594 86.854737 
L 166.881295 83.80598 
L 171.2 81.839347 
L 182.026066 79.212159 
L 220.8 67.823891 
L 254.574356 51.84 
L 220.8 51.84 
L 192.100992 51.84 
L 171.2 56.912095 
L 145.416671 68.653195 
L 121.6 74.71236 
L 90.402027 86.854737 
L 101.79209 107.886233 
L 119.409725 121.869474 
L 72 147.190515 
L 72 152.254419 
L 98.94047 137.865794 
L 85.70611 156.884211 
L 85.074473 166.114034 
L 72 163.712421 
L 72 171.180878 
L 99.374874 176.209292 
L 100.697374 156.884211 
L 121.6 126.846123 
L 153.512235 134.356015 
L 143.786797 156.884211 
L 145.123944 175.292401 
L 171.2 171.663251 
L 199.524331 171.903605 
L 220.8 181.125682 
L 266.042441 191.898947 
L 220.8 207.423877 
L 198.824316 221.150706 
L 186.527221 244.421053 
L 187.294707 255.782987 
L 185.533276 279.435789 
L 171.2 289.42223 
L 154.703723 291.081209 
L 133.735033 279.435789 
L 141.242784 258.287724 
L 139.298158 244.421053 
L 121.6 232.314308 
L 88.031514 227.445067 
L 72 233.33456 
L 72 244.421053 
L 72 258.480732 
L 92.743742 264.791905 
L 88.50982 279.435789 
L 72 285.695719 
L 72 301.989599 
L 110.132671 287.531062 
L 89.323771 314.450526 
L 87.787263 325.595422 
L 72 322.66269 
L 72 333.400897 
L 108.43065 340.168463 
L 111.976293 314.450526 
L 121.6 302.000803 
L 131.470439 307.482566 
L 171.2 303.48709 
L 205.720201 279.435789 
L 206.473376 269.32202 
L 204.791342 244.421053 
L 210.535259 233.551581 
L 220.8 227.139842 
L 244.943736 218.854927 
L 270.4 219.348222 
L 292.998301 215.828591 
L 304.172992 191.898947 
L 290.979172 177.37124 
L 297.374981 156.884211 
L 296.245994 140.115253 
L 305.220783 121.869474 
L 320 97.363862 
L 334.103839 121.869474 
L 342.938679 140.690827 
L 369.6 153.608445 
L 407.082991 148.330302 
L 419.2 151.250894 
L 425.572512 156.884211 
L 451.615469 179.76766 
L 454.325304 191.898947 
L 419.2 223.077369 
L 390.06894 191.898947 
L 393.14863 175.274974 
L 369.6 166.023487 
L 357.025074 183.021775 
L 344.529848 191.898947 
L 355.407209 206.927884 
L 339.278535 244.421053 
L 369.6 275.089622 
L 387.622488 266.712953 
L 419.2 253.810028 
L 442.362628 260.772531 
L 439.215438 244.421053 
L 468.8 207.098864 
L 480.940299 191.898947 
L 518.4 179.095202 
L 518.4 163.110148 
L 501.302433 168.954106 
L 468.8 183.4323 
L 438.586428 156.884211 
L 419.2 139.74656 
L 382.337688 130.861546 
L 369.6 132.655196 
L 360.539795 128.265456 
L 357.537488 121.869474 
L 349.282666 107.526609 
L 335.580109 86.854737 
L 329.979514 79.809776 
L 331.213956 51.84 
L 320 51.84 
M 455.676791 384.48 
L 463.281077 380.583959 
L 468.8 381.928705 
L 473.541626 384.48 
L 510.441348 384.48 
L 468.8 362.074315 
L 420.332364 350.264647 
L 419.2 350.844812 
L 372.044157 384.48 
L 419.2 384.48 
M 518.4 293.238753 
L 492.495327 296.163322 
L 485.674883 314.450526 
L 495.650092 330.510648 
L 518.4 328.265237 
L 518.4 314.450526 
M 518.4 221.876015 
L 494.300172 244.421053 
L 518.4 266.564621 
L 518.4 244.421053 
M 510.250436 86.854737 
L 468.8 105.254563 
L 458.191557 94.343686 
L 461.40657 86.854737 
L 468.8 53.810032 
M 438.151892 301.071584 
L 419.2 307.256276 
L 385.14368 303.477585 
L 369.6 290.437653 
L 352.513385 279.435789 
L 320 269.007872 
L 307.38558 279.435789 
L 320 288.335544 
L 355.660494 314.450526 
L 320 341.393985 
L 308.166513 341.111504 
L 299.827315 349.465263 
L 279.802851 377.84213 
L 320 370.755714 
L 365.886259 381.858313 
L 369.6 383.155447 
L 417.703449 349.465263 
L 416.879507 347.827129 
L 419.2 346.673915 
L 445.146231 314.450526 
M 159.699062 156.884211 
L 171.2 130.243211 
L 182.479239 129.831965 
L 220.8 151.765497 
L 238.281927 144.542979 
L 237.261182 156.884211 
L 243.372622 172.819179 
L 220.8 167.444119 
L 211.532035 163.426859 
L 171.2 163.084611 
L 160.260049 164.607184 
M 270.4 187.681467 
L 258.588519 156.884211 
L 260.931755 128.553508 
L 220.8 145.13362 
L 180.15448 121.869474 
L 220.8 98.978796 
L 261.290104 115.438413 
L 270.4 112.183268 
L 288.275485 109.250413 
L 280.66499 121.869474 
L 278.019268 127.248237 
L 280.01454 156.884211 
M 356.737255 244.421053 
L 369.6 214.519956 
L 397.591127 244.421053 
L 369.6 257.431043 
" style="fill:#375a8c;"/>
   </g>
   <g id="PathCollection_4">
    <path clip-path="url(#p853b1121d7)" d="M 518.4 58.901591 
L 508.788888 51.84 
L 488.371548 51.84 
L 518.4 73.902862 
M 405.982324 51.84 
L 419.2 61.096851 
L 444.051171 69.311244 
L 440.125987 86.854737 
L 427.657166 115.899203 
L 433.461949 121.869474 
L 468.8 139.707717 
L 502.727544 156.884211 
L 468.8 171.99722 
L 451.600345 156.884211 
L 419.2 128.242226 
L 392.760605 121.869474 
L 379.416099 114.939874 
L 369.6 106.496038 
L 356.580567 86.854737 
L 343.430919 70.31386 
L 344.24626 51.84 
L 331.213956 51.84 
L 329.979514 79.809776 
L 335.580109 86.854737 
L 349.282666 107.526609 
L 357.537488 121.869474 
L 360.539795 128.265456 
L 369.6 132.655196 
L 382.337688 130.861546 
L 419.2 139.74656 
L 438.586428 156.884211 
L 468.8 183.4323 
L 501.302433 168.954106 
L 518.4 163.110148 
L 518.4 156.884211 
L 518.4 129.473073 
L 512.952306 121.869474 
L 518.4 118.952327 
L 518.4 101.726908 
L 480.784303 121.869474 
L 493.048979 138.987853 
L 468.8 126.711325 
L 459.208159 121.869474 
L 442.924361 105.121444 
L 450.766278 86.854737 
L 456.687313 60.390858 
L 430.818226 51.84 
L 419.2 51.84 
M 127.598287 51.84 
L 123.952047 53.500409 
L 121.6 54.09879 
L 114.468591 56.874363 
L 72 79.327374 
L 72 86.854737 
L 72 91.765474 
L 109.92835 121.869474 
L 72 142.126612 
L 72 147.190515 
L 119.409725 121.869474 
L 101.79209 107.886233 
L 90.402027 86.854737 
L 121.6 74.71236 
L 145.416671 68.653195 
L 171.2 56.912095 
L 192.100992 51.84 
L 171.2 51.84 
M 72 178.649335 
L 113.675275 186.304549 
L 115.688638 156.884211 
L 121.6 148.389296 
L 130.624932 150.513129 
L 127.874532 156.884211 
L 129.987839 185.977617 
L 171.2 180.241892 
L 187.516626 180.380351 
L 214.090449 191.898947 
L 187.113373 208.749832 
L 171.2 238.863422 
L 160.044504 232.608349 
L 121.6 206.309692 
L 109.630619 204.573486 
L 72 218.397836 
L 72 233.33456 
L 88.031514 227.445067 
L 121.6 232.314308 
L 139.298158 244.421053 
L 141.242784 258.287724 
L 133.735033 279.435789 
L 154.703723 291.081209 
L 171.2 289.42223 
L 185.533276 279.435789 
L 187.294707 255.782987 
L 186.527221 244.421053 
L 198.824316 221.150706 
L 220.8 207.423877 
L 266.042441 191.898947 
L 220.8 181.125682 
L 199.524331 171.903605 
L 171.2 171.663251 
L 145.123944 175.292401 
L 143.786797 156.884211 
L 153.512235 134.356015 
L 121.6 126.846123 
L 100.697374 156.884211 
L 99.374874 176.209292 
L 72 171.180878 
M 72 322.66269 
L 87.787263 325.595422 
L 89.323771 314.450526 
L 110.132671 287.531062 
L 72 301.989599 
L 72 314.450526 
M 473.541626 384.48 
L 468.8 381.928705 
L 463.281077 380.583959 
L 455.676791 384.48 
L 468.8 384.48 
M 280.01454 156.884211 
L 278.019268 127.248237 
L 280.66499 121.869474 
L 288.275485 109.250413 
L 270.4 112.183268 
L 261.290104 115.438413 
L 220.8 98.978796 
L 180.15448 121.869474 
L 220.8 145.13362 
L 260.931755 128.553508 
L 258.588519 156.884211 
L 270.4 187.681467 
M 369.6 257.431043 
L 397.591127 244.421053 
L 369.6 214.519956 
L 356.737255 244.421053 
M 261.058001 121.869474 
L 220.8 138.501743 
L 191.74124 121.869474 
L 220.8 105.504208 
" style="fill:#2b758e;"/>
   </g>
   <g id="PathCollection_5">
    <path clip-path="url(#p853b1121d7)" d="M 508.788888 51.84 
L 518.4 58.901591 
L 518.4 51.84 
M 387.281118 51.84 
L 419.2 74.194032 
L 431.41503 78.231631 
L 429.485695 86.854737 
L 419.2 110.8139 
L 399.645125 100.65935 
L 383.597034 86.854737 
L 369.6 76.815445 
L 356.882324 60.817945 
L 357.278565 51.84 
L 344.24626 51.84 
L 343.430919 70.31386 
L 356.580567 86.854737 
L 369.6 106.496038 
L 379.416099 114.939874 
L 392.760605 121.869474 
L 419.2 128.242226 
L 451.600345 156.884211 
L 468.8 171.99722 
L 502.727544 156.884211 
L 468.8 139.707717 
L 433.461949 121.869474 
L 427.657166 115.899203 
L 440.125987 86.854737 
L 444.051171 69.311244 
L 419.2 61.096851 
L 405.982324 51.84 
M 102.172498 51.84 
L 72 67.792105 
L 72 79.327374 
L 114.468591 56.874363 
L 121.6 54.09879 
L 123.952047 53.500409 
L 127.598287 51.84 
L 121.6 51.84 
M 72 99.290908 
L 100.446975 121.869474 
L 72 137.062708 
L 72 142.126612 
L 109.92835 121.869474 
L 72 91.765474 
M 72 186.117792 
L 103.472827 191.898947 
L 72 203.461111 
L 72 218.397836 
L 109.630619 204.573486 
L 121.6 206.309692 
L 160.044504 232.608349 
L 171.2 238.863422 
L 187.113373 208.749832 
L 214.090449 191.898947 
L 187.516626 180.380351 
L 171.2 180.241892 
L 129.987839 185.977617 
L 127.874532 156.884211 
L 130.624932 150.513129 
L 121.6 148.389296 
L 115.688638 156.884211 
L 113.675275 186.304549 
L 72 178.649335 
M 518.4 118.952327 
L 512.952306 121.869474 
L 518.4 129.473073 
L 518.4 121.869474 
M 220.8 105.504208 
L 191.74124 121.869474 
L 220.8 138.501743 
L 261.058001 121.869474 
M 468.8 160.562139 
L 464.614261 156.884211 
L 448.019367 142.214283 
L 468.8 152.704109 
L 477.056667 156.884211 
M 245.005706 121.869474 
L 220.8 131.869867 
L 203.328 121.869474 
L 220.8 112.029621 
M 149.081067 191.898947 
L 171.2 188.820533 
L 175.508922 188.857097 
L 182.526581 191.898947 
L 175.40243 196.348957 
L 171.2 204.301404 
" style="fill:#21908d;"/>
   </g>
   <g id="PathCollection_6">
    <path clip-path="url(#p853b1121d7)" d="M 357.278565 51.84 
L 356.882324 60.817945 
L 369.6 76.815445 
L 383.597034 86.854737 
L 399.645125 100.65935 
L 419.2 110.8139 
L 429.485695 86.854737 
L 431.41503 78.231631 
L 419.2 74.194032 
L 387.281118 51.84 
L 369.6 51.84 
M 80.354194 51.84 
L 72 56.256836 
L 72 67.792105 
L 102.172498 51.84 
M 72 106.816342 
L 90.965601 121.869474 
L 72 131.998804 
L 72 137.062708 
L 100.446975 121.869474 
L 72 99.290908 
M 72 203.461111 
L 103.472827 191.898947 
L 72 186.117792 
L 72 191.898947 
M 477.056667 156.884211 
L 468.8 152.704109 
L 448.019367 142.214283 
L 464.614261 156.884211 
L 468.8 160.562139 
M 220.8 112.029621 
L 203.328 121.869474 
L 220.8 131.869867 
L 245.005706 121.869474 
M 171.2 204.301404 
L 175.40243 196.348957 
L 182.526581 191.898947 
L 175.508922 188.857097 
L 171.2 188.820533 
L 149.081067 191.898947 
M 228.953411 121.869474 
L 220.8 125.23799 
L 214.91476 121.869474 
L 220.8 118.555034 
" style="fill:#25ab82;"/>
   </g>
   <g id="PathCollection_7">
    <path clip-path="url(#p853b1121d7)" d="M 72 56.256836 
L 80.354194 51.84 
L 72 51.84 
M 72 114.341777 
L 81.484226 121.869474 
L 72 126.9349 
L 72 131.998804 
L 90.965601 121.869474 
L 72 106.816342 
M 220.8 118.555034 
L 214.91476 121.869474 
L 220.8 125.23799 
L 228.953411 121.869474 
" style="fill:#4ec36b;"/>
   </g>
   <g id="PathCollection_8">
    <path clip-path="url(#p853b1121d7)" d="M 72 121.867211 
L 72.002851 121.869474 
L 72 121.870997 
L 72 126.9349 
L 81.484226 121.869474 
L 72 114.341777 
" style="fill:#90d743;"/>
   </g>
   <g id="PathCollection_9">
    <path clip-path="url(#p853b1121d7)" d="M 72 121.870997 
L 72.002851 121.869474 
L 72 121.867211 
L 72 121.869474 
" style="fill:#dae319;"/>
   </g>
   <g id="matplotlib.axis_1">
    <g id="xtick_1">
     <g id="line2d_1">
      <defs>
       <path d="M 0 0 
L 0 3.5 
" id="m1b4ed3124d" style="stroke:#000000;stroke-width:0.8;"/>
      </defs>
      <g>
       <use style="stroke:#000000;stroke-width:0.8;" x="72" xlink:href="#m1b4ed3124d" y="384.48"/>
      </g>
     </g>
     <g id="text_1">
      <!-- 0.5 -->
      <defs>
       <path d="M 31.78125 66.40625 
Q 24.171875 66.40625 20.328125 58.90625 
Q 16.5 51.421875 16.5 36.375 
Q 16.5 21.390625 20.328125 13.890625 
Q 24.171875 6.390625 31.78125 6.390625 
Q 39.453125 6.390625 43.28125 13.890625 
Q 47.125 21.390625 47.125 36.375 
Q 47.125 51.421875 43.28125 58.90625 
Q 39.453125 66.40625 31.78125 66.40625 
z
M 31.78125 74.21875 
Q 44.046875 74.21875 50.515625 64.515625 
Q 56.984375 54.828125 56.984375 36.375 
Q 56.984375 17.96875 50.515625 8.265625 
Q 44.046875 -1.421875 31.78125 -1.421875 
Q 19.53125 -1.421875 13.0625 8.265625 
Q 6.59375 17.96875 6.59375 36.375 
Q 6.59375 54.828125 13.0625 64.515625 
Q 19.53125 74.21875 31.78125 74.21875 
z
" id="DejaVuSans-48"/>
       <path d="M 10.6875 12.40625 
L 21 12.40625 
L 21 0 
L 10.6875 0 
z
" id="DejaVuSans-46"/>
       <path d="M 10.796875 72.90625 
L 49.515625 72.90625 
L 49.515625 64.59375 
L 19.828125 64.59375 
L 19.828125 46.734375 
Q 21.96875 47.46875 24.109375 47.828125 
Q 26.265625 48.1875 28.421875 48.1875 
Q 40.625 48.1875 47.75 41.5 
Q 54.890625 34.8125 54.890625 23.390625 
Q 54.890625 11.625 47.5625 5.09375 
Q 40.234375 -1.421875 26.90625 -1.421875 
Q 22.3125 -1.421875 17.546875 -0.640625 
Q 12.796875 0.140625 7.71875 1.703125 
L 7.71875 11.625 
Q 12.109375 9.234375 16.796875 8.0625 
Q 21.484375 6.890625 26.703125 6.890625 
Q 35.15625 6.890625 40.078125 11.328125 
Q 45.015625 15.765625 45.015625 23.390625 
Q 45.015625 31 40.078125 35.4375 
Q 35.15625 39.890625 26.703125 39.890625 
Q 22.75 39.890625 18.8125 39.015625 
Q 14.890625 38.140625 10.796875 36.28125 
z
" id="DejaVuSans-53"/>
      </defs>
      <g transform="translate(62.458125 400.598125)scale(0.12 -0.12)">
       <use xlink:href="#DejaVuSans-48"/>
       <use x="63.623047" xlink:href="#DejaVuSans-46"/>
       <use x="95.410156" xlink:href="#DejaVuSans-53"/>
      </g>
     </g>
    </g>
    <g id="xtick_2">
     <g id="line2d_2">
      <g>
       <use style="stroke:#000000;stroke-width:0.8;" x="161.28" xlink:href="#m1b4ed3124d" y="384.48"/>
      </g>
     </g>
     <g id="text_2">
      <!-- 0.6 -->
      <defs>
       <path d="M 33.015625 40.375 
Q 26.375 40.375 22.484375 35.828125 
Q 18.609375 31.296875 18.609375 23.390625 
Q 18.609375 15.53125 22.484375 10.953125 
Q 26.375 6.390625 33.015625 6.390625 
Q 39.65625 6.390625 43.53125 10.953125 
Q 47.40625 15.53125 47.40625 23.390625 
Q 47.40625 31.296875 43.53125 35.828125 
Q 39.65625 40.375 33.015625 40.375 
z
M 52.59375 71.296875 
L 52.59375 62.3125 
Q 48.875 64.0625 45.09375 64.984375 
Q 41.3125 65.921875 37.59375 65.921875 
Q 27.828125 65.921875 22.671875 59.328125 
Q 17.53125 52.734375 16.796875 39.40625 
Q 19.671875 43.65625 24.015625 45.921875 
Q 28.375 48.1875 33.59375 48.1875 
Q 44.578125 48.1875 50.953125 41.515625 
Q 57.328125 34.859375 57.328125 23.390625 
Q 57.328125 12.15625 50.6875 5.359375 
Q 44.046875 -1.421875 33.015625 -1.421875 
Q 20.359375 -1.421875 13.671875 8.265625 
Q 6.984375 17.96875 6.984375 36.375 
Q 6.984375 53.65625 15.1875 63.9375 
Q 23.390625 74.21875 37.203125 74.21875 
Q 40.921875 74.21875 44.703125 73.484375 
Q 48.484375 72.75 52.59375 71.296875 
z
" id="DejaVuSans-54"/>
      </defs>
      <g transform="translate(151.738125 400.598125)scale(0.12 -0.12)">
       <use xlink:href="#DejaVuSans-48"/>
       <use x="63.623047" xlink:href="#DejaVuSans-46"/>
       <use x="95.410156" xlink:href="#DejaVuSans-54"/>
      </g>
     </g>
    </g>
    <g id="xtick_3">
     <g id="line2d_3">
      <g>
       <use style="stroke:#000000;stroke-width:0.8;" x="250.56" xlink:href="#m1b4ed3124d" y="384.48"/>
      </g>
     </g>
     <g id="text_3">
      <!-- 0.7 -->
      <defs>
       <path d="M 8.203125 72.90625 
L 55.078125 72.90625 
L 55.078125 68.703125 
L 28.609375 0 
L 18.3125 0 
L 43.21875 64.59375 
L 8.203125 64.59375 
z
" id="DejaVuSans-55"/>
      </defs>
      <g transform="translate(241.018125 400.598125)scale(0.12 -0.12)">
       <use xlink:href="#DejaVuSans-48"/>
       <use x="63.623047" xlink:href="#DejaVuSans-46"/>
       <use x="95.410156" xlink:href="#DejaVuSans-55"/>
      </g>
     </g>
    </g>
    <g id="xtick_4">
     <g id="line2d_4">
      <g>
       <use style="stroke:#000000;stroke-width:0.8;" x="339.84" xlink:href="#m1b4ed3124d" y="384.48"/>
      </g>
     </g>
     <g id="text_4">
      <!-- 0.8 -->
      <defs>
       <path d="M 31.78125 34.625 
Q 24.75 34.625 20.71875 30.859375 
Q 16.703125 27.09375 16.703125 20.515625 
Q 16.703125 13.921875 20.71875 10.15625 
Q 24.75 6.390625 31.78125 6.390625 
Q 38.8125 6.390625 42.859375 10.171875 
Q 46.921875 13.96875 46.921875 20.515625 
Q 46.921875 27.09375 42.890625 30.859375 
Q 38.875 34.625 31.78125 34.625 
z
M 21.921875 38.8125 
Q 15.578125 40.375 12.03125 44.71875 
Q 8.5 49.078125 8.5 55.328125 
Q 8.5 64.0625 14.71875 69.140625 
Q 20.953125 74.21875 31.78125 74.21875 
Q 42.671875 74.21875 48.875 69.140625 
Q 55.078125 64.0625 55.078125 55.328125 
Q 55.078125 49.078125 51.53125 44.71875 
Q 48 40.375 41.703125 38.8125 
Q 48.828125 37.15625 52.796875 32.3125 
Q 56.78125 27.484375 56.78125 20.515625 
Q 56.78125 9.90625 50.3125 4.234375 
Q 43.84375 -1.421875 31.78125 -1.421875 
Q 19.734375 -1.421875 13.25 4.234375 
Q 6.78125 9.90625 6.78125 20.515625 
Q 6.78125 27.484375 10.78125 32.3125 
Q 14.796875 37.15625 21.921875 38.8125 
z
M 18.3125 54.390625 
Q 18.3125 48.734375 21.84375 45.5625 
Q 25.390625 42.390625 31.78125 42.390625 
Q 38.140625 42.390625 41.71875 45.5625 
Q 45.3125 48.734375 45.3125 54.390625 
Q 45.3125 60.0625 41.71875 63.234375 
Q 38.140625 66.40625 31.78125 66.40625 
Q 25.390625 66.40625 21.84375 63.234375 
Q 18.3125 60.0625 18.3125 54.390625 
z
" id="DejaVuSans-56"/>
      </defs>
      <g transform="translate(330.298125 400.598125)scale(0.12 -0.12)">
       <use xlink:href="#DejaVuSans-48"/>
       <use x="63.623047" xlink:href="#DejaVuSans-46"/>
       <use x="95.410156" xlink:href="#DejaVuSans-56"/>
      </g>
     </g>
    </g>
    <g id="xtick_5">
     <g id="line2d_5">
      <g>
       <use style="stroke:#000000;stroke-width:0.8;" x="429.12" xlink:href="#m1b4ed3124d" y="384.48"/>
      </g>
     </g>
     <g id="text_5">
      <!-- 0.9 -->
      <defs>
       <path d="M 10.984375 1.515625 
L 10.984375 10.5 
Q 14.703125 8.734375 18.5 7.8125 
Q 22.3125 6.890625 25.984375 6.890625 
Q 35.75 6.890625 40.890625 13.453125 
Q 46.046875 20.015625 46.78125 33.40625 
Q 43.953125 29.203125 39.59375 26.953125 
Q 35.25 24.703125 29.984375 24.703125 
Q 19.046875 24.703125 12.671875 31.3125 
Q 6.296875 37.9375 6.296875 49.421875 
Q 6.296875 60.640625 12.9375 67.421875 
Q 19.578125 74.21875 30.609375 74.21875 
Q 43.265625 74.21875 49.921875 64.515625 
Q 56.59375 54.828125 56.59375 36.375 
Q 56.59375 19.140625 48.40625 8.859375 
Q 40.234375 -1.421875 26.421875 -1.421875 
Q 22.703125 -1.421875 18.890625 -0.6875 
Q 15.09375 0.046875 10.984375 1.515625 
z
M 30.609375 32.421875 
Q 37.25 32.421875 41.125 36.953125 
Q 45.015625 41.5 45.015625 49.421875 
Q 45.015625 57.28125 41.125 61.84375 
Q 37.25 66.40625 30.609375 66.40625 
Q 23.96875 66.40625 20.09375 61.84375 
Q 16.21875 57.28125 16.21875 49.421875 
Q 16.21875 41.5 20.09375 36.953125 
Q 23.96875 32.421875 30.609375 32.421875 
z
" id="DejaVuSans-57"/>
      </defs>
      <g transform="translate(419.578125 400.598125)scale(0.12 -0.12)">
       <use xlink:href="#DejaVuSans-48"/>
       <use x="63.623047" xlink:href="#DejaVuSans-46"/>
       <use x="95.410156" xlink:href="#DejaVuSans-57"/>
      </g>
     </g>
    </g>
    <g id="xtick_6">
     <g id="line2d_6">
      <g>
       <use style="stroke:#000000;stroke-width:0.8;" x="518.4" xlink:href="#m1b4ed3124d" y="384.48"/>
      </g>
     </g>
     <g id="text_6">
      <!-- 1.0 -->
      <defs>
       <path d="M 12.40625 8.296875 
L 28.515625 8.296875 
L 28.515625 63.921875 
L 10.984375 60.40625 
L 10.984375 69.390625 
L 28.421875 72.90625 
L 38.28125 72.90625 
L 38.28125 8.296875 
L 54.390625 8.296875 
L 54.390625 0 
L 12.40625 0 
z
" id="DejaVuSans-49"/>
      </defs>
      <g transform="translate(508.858125 400.598125)scale(0.12 -0.12)">
       <use xlink:href="#DejaVuSans-49"/>
       <use x="63.623047" xlink:href="#DejaVuSans-46"/>
       <use x="95.410156" xlink:href="#DejaVuSans-48"/>
      </g>
     </g>
    </g>
    <g id="text_7">
     <!-- Bagging fraction -->
     <defs>
      <path d="M 19.671875 34.8125 
L 19.671875 8.109375 
L 35.5 8.109375 
Q 43.453125 8.109375 47.28125 11.40625 
Q 51.125 14.703125 51.125 21.484375 
Q 51.125 28.328125 47.28125 31.5625 
Q 43.453125 34.8125 35.5 34.8125 
z
M 19.671875 64.796875 
L 19.671875 42.828125 
L 34.28125 42.828125 
Q 41.5 42.828125 45.03125 45.53125 
Q 48.578125 48.25 48.578125 53.8125 
Q 48.578125 59.328125 45.03125 62.0625 
Q 41.5 64.796875 34.28125 64.796875 
z
M 9.8125 72.90625 
L 35.015625 72.90625 
Q 46.296875 72.90625 52.390625 68.21875 
Q 58.5 63.53125 58.5 54.890625 
Q 58.5 48.1875 55.375 44.234375 
Q 52.25 40.28125 46.1875 39.3125 
Q 53.46875 37.75 57.5 32.78125 
Q 61.53125 27.828125 61.53125 20.40625 
Q 61.53125 10.640625 54.890625 5.3125 
Q 48.25 0 35.984375 0 
L 9.8125 0 
z
" id="DejaVuSans-66"/>
      <path d="M 34.28125 27.484375 
Q 23.390625 27.484375 19.1875 25 
Q 14.984375 22.515625 14.984375 16.5 
Q 14.984375 11.71875 18.140625 8.90625 
Q 21.296875 6.109375 26.703125 6.109375 
Q 34.1875 6.109375 38.703125 11.40625 
Q 43.21875 16.703125 43.21875 25.484375 
L 43.21875 27.484375 
z
M 52.203125 31.203125 
L 52.203125 0 
L 43.21875 0 
L 43.21875 8.296875 
Q 40.140625 3.328125 35.546875 0.953125 
Q 30.953125 -1.421875 24.3125 -1.421875 
Q 15.921875 -1.421875 10.953125 3.296875 
Q 6 8.015625 6 15.921875 
Q 6 25.140625 12.171875 29.828125 
Q 18.359375 34.515625 30.609375 34.515625 
L 43.21875 34.515625 
L 43.21875 35.40625 
Q 43.21875 41.609375 39.140625 45 
Q 35.0625 48.390625 27.6875 48.390625 
Q 23 48.390625 18.546875 47.265625 
Q 14.109375 46.140625 10.015625 43.890625 
L 10.015625 52.203125 
Q 14.9375 54.109375 19.578125 55.046875 
Q 24.21875 56 28.609375 56 
Q 40.484375 56 46.34375 49.84375 
Q 52.203125 43.703125 52.203125 31.203125 
z
" id="DejaVuSans-97"/>
      <path d="M 45.40625 27.984375 
Q 45.40625 37.75 41.375 43.109375 
Q 37.359375 48.484375 30.078125 48.484375 
Q 22.859375 48.484375 18.828125 43.109375 
Q 14.796875 37.75 14.796875 27.984375 
Q 14.796875 18.265625 18.828125 12.890625 
Q 22.859375 7.515625 30.078125 7.515625 
Q 37.359375 7.515625 41.375 12.890625 
Q 45.40625 18.265625 45.40625 27.984375 
z
M 54.390625 6.78125 
Q 54.390625 -7.171875 48.1875 -13.984375 
Q 42 -20.796875 29.203125 -20.796875 
Q 24.46875 -20.796875 20.265625 -20.09375 
Q 16.0625 -19.390625 12.109375 -17.921875 
L 12.109375 -9.1875 
Q 16.0625 -11.328125 19.921875 -12.34375 
Q 23.78125 -13.375 27.78125 -13.375 
Q 36.625 -13.375 41.015625 -8.765625 
Q 45.40625 -4.15625 45.40625 5.171875 
L 45.40625 9.625 
Q 42.625 4.78125 38.28125 2.390625 
Q 33.9375 0 27.875 0 
Q 17.828125 0 11.671875 7.65625 
Q 5.515625 15.328125 5.515625 27.984375 
Q 5.515625 40.671875 11.671875 48.328125 
Q 17.828125 56 27.875 56 
Q 33.9375 56 38.28125 53.609375 
Q 42.625 51.21875 45.40625 46.390625 
L 45.40625 54.6875 
L 54.390625 54.6875 
z
" id="DejaVuSans-103"/>
      <path d="M 9.421875 54.6875 
L 18.40625 54.6875 
L 18.40625 0 
L 9.421875 0 
z
M 9.421875 75.984375 
L 18.40625 75.984375 
L 18.40625 64.59375 
L 9.421875 64.59375 
z
" id="DejaVuSans-105"/>
      <path d="M 54.890625 33.015625 
L 54.890625 0 
L 45.90625 0 
L 45.90625 32.71875 
Q 45.90625 40.484375 42.875 44.328125 
Q 39.84375 48.1875 33.796875 48.1875 
Q 26.515625 48.1875 22.3125 43.546875 
Q 18.109375 38.921875 18.109375 30.90625 
L 18.109375 0 
L 9.078125 0 
L 9.078125 54.6875 
L 18.109375 54.6875 
L 18.109375 46.1875 
Q 21.34375 51.125 25.703125 53.5625 
Q 30.078125 56 35.796875 56 
Q 45.21875 56 50.046875 50.171875 
Q 54.890625 44.34375 54.890625 33.015625 
z
" id="DejaVuSans-110"/>
      <path id="DejaVuSans-32"/>
      <path d="M 37.109375 75.984375 
L 37.109375 68.5 
L 28.515625 68.5 
Q 23.6875 68.5 21.796875 66.546875 
Q 19.921875 64.59375 19.921875 59.515625 
L 19.921875 54.6875 
L 34.71875 54.6875 
L 34.71875 47.703125 
L 19.921875 47.703125 
L 19.921875 0 
L 10.890625 0 
L 10.890625 47.703125 
L 2.296875 47.703125 
L 2.296875 54.6875 
L 10.890625 54.6875 
L 10.890625 58.5 
Q 10.890625 67.625 15.140625 71.796875 
Q 19.390625 75.984375 28.609375 75.984375 
z
" id="DejaVuSans-102"/>
      <path d="M 41.109375 46.296875 
Q 39.59375 47.171875 37.8125 47.578125 
Q 36.03125 48 33.890625 48 
Q 26.265625 48 22.1875 43.046875 
Q 18.109375 38.09375 18.109375 28.8125 
L 18.109375 0 
L 9.078125 0 
L 9.078125 54.6875 
L 18.109375 54.6875 
L 18.109375 46.1875 
Q 20.953125 51.171875 25.484375 53.578125 
Q 30.03125 56 36.53125 56 
Q 37.453125 56 38.578125 55.875 
Q 39.703125 55.765625 41.0625 55.515625 
z
" id="DejaVuSans-114"/>
      <path d="M 48.78125 52.59375 
L 48.78125 44.1875 
Q 44.96875 46.296875 41.140625 47.34375 
Q 37.3125 48.390625 33.40625 48.390625 
Q 24.65625 48.390625 19.8125 42.84375 
Q 14.984375 37.3125 14.984375 27.296875 
Q 14.984375 17.28125 19.8125 11.734375 
Q 24.65625 6.203125 33.40625 6.203125 
Q 37.3125 6.203125 41.140625 7.25 
Q 44.96875 8.296875 48.78125 10.40625 
L 48.78125 2.09375 
Q 45.015625 0.34375 40.984375 -0.53125 
Q 36.96875 -1.421875 32.421875 -1.421875 
Q 20.0625 -1.421875 12.78125 6.34375 
Q 5.515625 14.109375 5.515625 27.296875 
Q 5.515625 40.671875 12.859375 48.328125 
Q 20.21875 56 33.015625 56 
Q 37.15625 56 41.109375 55.140625 
Q 45.0625 54.296875 48.78125 52.59375 
z
" id="DejaVuSans-99"/>
      <path d="M 18.3125 70.21875 
L 18.3125 54.6875 
L 36.8125 54.6875 
L 36.8125 47.703125 
L 18.3125 47.703125 
L 18.3125 18.015625 
Q 18.3125 11.328125 20.140625 9.421875 
Q 21.96875 7.515625 27.59375 7.515625 
L 36.8125 7.515625 
L 36.8125 0 
L 27.59375 0 
Q 17.1875 0 13.234375 3.875 
Q 9.28125 7.765625 9.28125 18.015625 
L 9.28125 47.703125 
L 2.6875 47.703125 
L 2.6875 54.6875 
L 9.28125 54.6875 
L 9.28125 70.21875 
z
" id="DejaVuSans-116"/>
      <path d="M 30.609375 48.390625 
Q 23.390625 48.390625 19.1875 42.75 
Q 14.984375 37.109375 14.984375 27.296875 
Q 14.984375 17.484375 19.15625 11.84375 
Q 23.34375 6.203125 30.609375 6.203125 
Q 37.796875 6.203125 41.984375 11.859375 
Q 46.1875 17.53125 46.1875 27.296875 
Q 46.1875 37.015625 41.984375 42.703125 
Q 37.796875 48.390625 30.609375 48.390625 
z
M 30.609375 56 
Q 42.328125 56 49.015625 48.375 
Q 55.71875 40.765625 55.71875 27.296875 
Q 55.71875 13.875 49.015625 6.21875 
Q 42.328125 -1.421875 30.609375 -1.421875 
Q 18.84375 -1.421875 12.171875 6.21875 
Q 5.515625 13.875 5.515625 27.296875 
Q 5.515625 40.765625 12.171875 48.375 
Q 18.84375 56 30.609375 56 
z
" id="DejaVuSans-111"/>
     </defs>
     <g transform="translate(237.281562 417.731562)scale(0.14 -0.14)">
      <use xlink:href="#DejaVuSans-66"/>
      <use x="68.603516" xlink:href="#DejaVuSans-97"/>
      <use x="129.882812" xlink:href="#DejaVuSans-103"/>
      <use x="193.359375" xlink:href="#DejaVuSans-103"/>
      <use x="256.835938" xlink:href="#DejaVuSans-105"/>
      <use x="284.619141" xlink:href="#DejaVuSans-110"/>
      <use x="347.998047" xlink:href="#DejaVuSans-103"/>
      <use x="411.474609" xlink:href="#DejaVuSans-32"/>
      <use x="443.261719" xlink:href="#DejaVuSans-102"/>
      <use x="478.466797" xlink:href="#DejaVuSans-114"/>
      <use x="519.580078" xlink:href="#DejaVuSans-97"/>
      <use x="580.859375" xlink:href="#DejaVuSans-99"/>
      <use x="635.839844" xlink:href="#DejaVuSans-116"/>
      <use x="675.048828" xlink:href="#DejaVuSans-105"/>
      <use x="702.832031" xlink:href="#DejaVuSans-111"/>
      <use x="764.013672" xlink:href="#DejaVuSans-110"/>
     </g>
    </g>
   </g>
   <g id="matplotlib.axis_2">
    <g id="ytick_1">
     <g id="line2d_7">
      <defs>
       <path d="M 0 0 
L -3.5 0 
" id="m1d9d7de5e1" style="stroke:#000000;stroke-width:0.8;"/>
      </defs>
      <g>
       <use style="stroke:#000000;stroke-width:0.8;" x="72" xlink:href="#m1d9d7de5e1" y="384.48"/>
      </g>
     </g>
     <g id="text_8">
      <!-- 1 -->
      <g transform="translate(57.365 389.039062)scale(0.12 -0.12)">
       <use xlink:href="#DejaVuSans-49"/>
      </g>
     </g>
    </g>
    <g id="ytick_2">
     <g id="line2d_8">
      <g>
       <use style="stroke:#000000;stroke-width:0.8;" x="72" xlink:href="#m1d9d7de5e1" y="314.450526"/>
      </g>
     </g>
     <g id="text_9">
      <!-- 5 -->
      <g transform="translate(57.365 319.009589)scale(0.12 -0.12)">
       <use xlink:href="#DejaVuSans-53"/>
      </g>
     </g>
    </g>
    <g id="ytick_3">
     <g id="line2d_9">
      <g>
       <use style="stroke:#000000;stroke-width:0.8;" x="72" xlink:href="#m1d9d7de5e1" y="226.913684"/>
      </g>
     </g>
     <g id="text_10">
      <!-- 10 -->
      <g transform="translate(49.73 231.472747)scale(0.12 -0.12)">
       <use xlink:href="#DejaVuSans-49"/>
       <use x="63.623047" xlink:href="#DejaVuSans-48"/>
      </g>
     </g>
    </g>
    <g id="ytick_4">
     <g id="line2d_10">
      <g>
       <use style="stroke:#000000;stroke-width:0.8;" x="72" xlink:href="#m1d9d7de5e1" y="139.376842"/>
      </g>
     </g>
     <g id="text_11">
      <!-- 15 -->
      <g transform="translate(49.73 143.935905)scale(0.12 -0.12)">
       <use xlink:href="#DejaVuSans-49"/>
       <use x="63.623047" xlink:href="#DejaVuSans-53"/>
      </g>
     </g>
    </g>
    <g id="ytick_5">
     <g id="line2d_11">
      <g>
       <use style="stroke:#000000;stroke-width:0.8;" x="72" xlink:href="#m1d9d7de5e1" y="51.84"/>
      </g>
     </g>
     <g id="text_12">
      <!-- 20 -->
      <defs>
       <path d="M 19.1875 8.296875 
L 53.609375 8.296875 
L 53.609375 0 
L 7.328125 0 
L 7.328125 8.296875 
Q 12.9375 14.109375 22.625 23.890625 
Q 32.328125 33.6875 34.8125 36.53125 
Q 39.546875 41.84375 41.421875 45.53125 
Q 43.3125 49.21875 43.3125 52.78125 
Q 43.3125 58.59375 39.234375 62.25 
Q 35.15625 65.921875 28.609375 65.921875 
Q 23.96875 65.921875 18.8125 64.3125 
Q 13.671875 62.703125 7.8125 59.421875 
L 7.8125 69.390625 
Q 13.765625 71.78125 18.9375 73 
Q 24.125 74.21875 28.421875 74.21875 
Q 39.75 74.21875 46.484375 68.546875 
Q 53.21875 62.890625 53.21875 53.421875 
Q 53.21875 48.921875 51.53125 44.890625 
Q 49.859375 40.875 45.40625 35.40625 
Q 44.1875 33.984375 37.640625 27.21875 
Q 31.109375 20.453125 19.1875 8.296875 
z
" id="DejaVuSans-50"/>
      </defs>
      <g transform="translate(49.73 56.399062)scale(0.12 -0.12)">
       <use xlink:href="#DejaVuSans-50"/>
       <use x="63.623047" xlink:href="#DejaVuSans-48"/>
      </g>
     </g>
    </g>
    <g id="text_13">
     <!-- Number of neighbors - K -->
     <defs>
      <path d="M 9.8125 72.90625 
L 23.09375 72.90625 
L 55.421875 11.921875 
L 55.421875 72.90625 
L 64.984375 72.90625 
L 64.984375 0 
L 51.703125 0 
L 19.390625 60.984375 
L 19.390625 0 
L 9.8125 0 
z
" id="DejaVuSans-78"/>
      <path d="M 8.5 21.578125 
L 8.5 54.6875 
L 17.484375 54.6875 
L 17.484375 21.921875 
Q 17.484375 14.15625 20.5 10.265625 
Q 23.53125 6.390625 29.59375 6.390625 
Q 36.859375 6.390625 41.078125 11.03125 
Q 45.3125 15.671875 45.3125 23.6875 
L 45.3125 54.6875 
L 54.296875 54.6875 
L 54.296875 0 
L 45.3125 0 
L 45.3125 8.40625 
Q 42.046875 3.421875 37.71875 1 
Q 33.40625 -1.421875 27.6875 -1.421875 
Q 18.265625 -1.421875 13.375 4.4375 
Q 8.5 10.296875 8.5 21.578125 
z
M 31.109375 56 
z
" id="DejaVuSans-117"/>
      <path d="M 52 44.1875 
Q 55.375 50.25 60.0625 53.125 
Q 64.75 56 71.09375 56 
Q 79.640625 56 84.28125 50.015625 
Q 88.921875 44.046875 88.921875 33.015625 
L 88.921875 0 
L 79.890625 0 
L 79.890625 32.71875 
Q 79.890625 40.578125 77.09375 44.375 
Q 74.3125 48.1875 68.609375 48.1875 
Q 61.625 48.1875 57.5625 43.546875 
Q 53.515625 38.921875 53.515625 30.90625 
L 53.515625 0 
L 44.484375 0 
L 44.484375 32.71875 
Q 44.484375 40.625 41.703125 44.40625 
Q 38.921875 48.1875 33.109375 48.1875 
Q 26.21875 48.1875 22.15625 43.53125 
Q 18.109375 38.875 18.109375 30.90625 
L 18.109375 0 
L 9.078125 0 
L 9.078125 54.6875 
L 18.109375 54.6875 
L 18.109375 46.1875 
Q 21.1875 51.21875 25.484375 53.609375 
Q 29.78125 56 35.6875 56 
Q 41.65625 56 45.828125 52.96875 
Q 50 49.953125 52 44.1875 
z
" id="DejaVuSans-109"/>
      <path d="M 48.6875 27.296875 
Q 48.6875 37.203125 44.609375 42.84375 
Q 40.53125 48.484375 33.40625 48.484375 
Q 26.265625 48.484375 22.1875 42.84375 
Q 18.109375 37.203125 18.109375 27.296875 
Q 18.109375 17.390625 22.1875 11.75 
Q 26.265625 6.109375 33.40625 6.109375 
Q 40.53125 6.109375 44.609375 11.75 
Q 48.6875 17.390625 48.6875 27.296875 
z
M 18.109375 46.390625 
Q 20.953125 51.265625 25.265625 53.625 
Q 29.59375 56 35.59375 56 
Q 45.5625 56 51.78125 48.09375 
Q 58.015625 40.1875 58.015625 27.296875 
Q 58.015625 14.40625 51.78125 6.484375 
Q 45.5625 -1.421875 35.59375 -1.421875 
Q 29.59375 -1.421875 25.265625 0.953125 
Q 20.953125 3.328125 18.109375 8.203125 
L 18.109375 0 
L 9.078125 0 
L 9.078125 75.984375 
L 18.109375 75.984375 
z
" id="DejaVuSans-98"/>
      <path d="M 56.203125 29.59375 
L 56.203125 25.203125 
L 14.890625 25.203125 
Q 15.484375 15.921875 20.484375 11.0625 
Q 25.484375 6.203125 34.421875 6.203125 
Q 39.59375 6.203125 44.453125 7.46875 
Q 49.3125 8.734375 54.109375 11.28125 
L 54.109375 2.78125 
Q 49.265625 0.734375 44.1875 -0.34375 
Q 39.109375 -1.421875 33.890625 -1.421875 
Q 20.796875 -1.421875 13.15625 6.1875 
Q 5.515625 13.8125 5.515625 26.8125 
Q 5.515625 40.234375 12.765625 48.109375 
Q 20.015625 56 32.328125 56 
Q 43.359375 56 49.78125 48.890625 
Q 56.203125 41.796875 56.203125 29.59375 
z
M 47.21875 32.234375 
Q 47.125 39.59375 43.09375 43.984375 
Q 39.0625 48.390625 32.421875 48.390625 
Q 24.90625 48.390625 20.390625 44.140625 
Q 15.875 39.890625 15.1875 32.171875 
z
" id="DejaVuSans-101"/>
      <path d="M 54.890625 33.015625 
L 54.890625 0 
L 45.90625 0 
L 45.90625 32.71875 
Q 45.90625 40.484375 42.875 44.328125 
Q 39.84375 48.1875 33.796875 48.1875 
Q 26.515625 48.1875 22.3125 43.546875 
Q 18.109375 38.921875 18.109375 30.90625 
L 18.109375 0 
L 9.078125 0 
L 9.078125 75.984375 
L 18.109375 75.984375 
L 18.109375 46.1875 
Q 21.34375 51.125 25.703125 53.5625 
Q 30.078125 56 35.796875 56 
Q 45.21875 56 50.046875 50.171875 
Q 54.890625 44.34375 54.890625 33.015625 
z
" id="DejaVuSans-104"/>
      <path d="M 44.28125 53.078125 
L 44.28125 44.578125 
Q 40.484375 46.53125 36.375 47.5 
Q 32.28125 48.484375 27.875 48.484375 
Q 21.1875 48.484375 17.84375 46.4375 
Q 14.5 44.390625 14.5 40.28125 
Q 14.5 37.15625 16.890625 35.375 
Q 19.28125 33.59375 26.515625 31.984375 
L 29.59375 31.296875 
Q 39.15625 29.25 43.1875 25.515625 
Q 47.21875 21.78125 47.21875 15.09375 
Q 47.21875 7.46875 41.1875 3.015625 
Q 35.15625 -1.421875 24.609375 -1.421875 
Q 20.21875 -1.421875 15.453125 -0.5625 
Q 10.6875 0.296875 5.421875 2 
L 5.421875 11.28125 
Q 10.40625 8.6875 15.234375 7.390625 
Q 20.0625 6.109375 24.8125 6.109375 
Q 31.15625 6.109375 34.5625 8.28125 
Q 37.984375 10.453125 37.984375 14.40625 
Q 37.984375 18.0625 35.515625 20.015625 
Q 33.0625 21.96875 24.703125 23.78125 
L 21.578125 24.515625 
Q 13.234375 26.265625 9.515625 29.90625 
Q 5.8125 33.546875 5.8125 39.890625 
Q 5.8125 47.609375 11.28125 51.796875 
Q 16.75 56 26.8125 56 
Q 31.78125 56 36.171875 55.265625 
Q 40.578125 54.546875 44.28125 53.078125 
z
" id="DejaVuSans-115"/>
      <path d="M 4.890625 31.390625 
L 31.203125 31.390625 
L 31.203125 23.390625 
L 4.890625 23.390625 
z
" id="DejaVuSans-45"/>
      <path d="M 9.8125 72.90625 
L 19.671875 72.90625 
L 19.671875 42.09375 
L 52.390625 72.90625 
L 65.09375 72.90625 
L 28.90625 38.921875 
L 67.671875 0 
L 54.6875 0 
L 19.671875 35.109375 
L 19.671875 0 
L 9.8125 0 
z
" id="DejaVuSans-75"/>
     </defs>
     <g transform="translate(42.818438 303.861875)rotate(-90)scale(0.14 -0.14)">
      <use xlink:href="#DejaVuSans-78"/>
      <use x="74.804688" xlink:href="#DejaVuSans-117"/>
      <use x="138.183594" xlink:href="#DejaVuSans-109"/>
      <use x="235.595703" xlink:href="#DejaVuSans-98"/>
      <use x="299.072266" xlink:href="#DejaVuSans-101"/>
      <use x="360.595703" xlink:href="#DejaVuSans-114"/>
      <use x="401.708984" xlink:href="#DejaVuSans-32"/>
      <use x="433.496094" xlink:href="#DejaVuSans-111"/>
      <use x="494.677734" xlink:href="#DejaVuSans-102"/>
      <use x="529.882812" xlink:href="#DejaVuSans-32"/>
      <use x="561.669922" xlink:href="#DejaVuSans-110"/>
      <use x="625.048828" xlink:href="#DejaVuSans-101"/>
      <use x="686.572266" xlink:href="#DejaVuSans-105"/>
      <use x="714.355469" xlink:href="#DejaVuSans-103"/>
      <use x="777.832031" xlink:href="#DejaVuSans-104"/>
      <use x="841.210938" xlink:href="#DejaVuSans-98"/>
      <use x="904.6875" xlink:href="#DejaVuSans-111"/>
      <use x="965.869141" xlink:href="#DejaVuSans-114"/>
      <use x="1006.982422" xlink:href="#DejaVuSans-115"/>
      <use x="1059.082031" xlink:href="#DejaVuSans-32"/>
      <use x="1090.869141" xlink:href="#DejaVuSans-45"/>
      <use x="1126.953125" xlink:href="#DejaVuSans-32"/>
      <use x="1158.740234" xlink:href="#DejaVuSans-75"/>
     </g>
    </g>
   </g>
   <g id="patch_3">
    <path d="M 72 384.48 
L 72 51.84 
" style="fill:none;stroke:#000000;stroke-linecap:square;stroke-linejoin:miter;stroke-width:0.8;"/>
   </g>
   <g id="patch_4">
    <path d="M 518.4 384.48 
L 518.4 51.84 
" style="fill:none;stroke:#000000;stroke-linecap:square;stroke-linejoin:miter;stroke-width:0.8;"/>
   </g>
   <g id="patch_5">
    <path d="M 72 384.48 
L 518.4 384.48 
" style="fill:none;stroke:#000000;stroke-linecap:square;stroke-linejoin:miter;stroke-width:0.8;"/>
   </g>
   <g id="patch_6">
    <path d="M 72 51.84 
L 518.4 51.84 
" style="fill:none;stroke:#000000;stroke-linecap:square;stroke-linejoin:miter;stroke-width:0.8;"/>
   </g>
  </g>
 </g>
 <defs>
  <clipPath id="p853b1121d7">
   <rect height="332.64" width="446.4" x="72" y="51.84"/>
  </clipPath>
 </defs>
</svg>
