<?xml version="1.0" encoding="utf-8"?>
<svg xmlns="http://www.w3.org/2000/svg" xmlns:xlink="http://www.w3.org/1999/xlink" width="600" height="400" viewBox="0 0 2400 1600">
<defs>
  <clipPath id="clip370">
    <rect x="0" y="0" width="2400" height="1600"/>
  </clipPath>
</defs>
<path clip-path="url(#clip370)" d="M0 1600 L2400 1600 L2400 8.88178e-14 L0 8.88178e-14  Z" fill="#ffffff" fill-rule="evenodd" fill-opacity="1"/>
<defs>
  <clipPath id="clip371">
    <rect x="480" y="0" width="1681" height="1600"/>
  </clipPath>
</defs>
<path clip-path="url(#clip370)" d="M148.181 1436.14 L2352.76 1436.14 L2352.76 47.2441 L148.181 47.2441  Z" fill="#ffffff" fill-rule="evenodd" fill-opacity="1"/>
<defs>
  <clipPath id="clip372">
    <rect x="148" y="47" width="2206" height="1390"/>
  </clipPath>
</defs>
<polyline clip-path="url(#clip372)" style="stroke:#000000; stroke-linecap:round; stroke-linejoin:round; stroke-width:2; stroke-opacity:0.1; fill:none" points="168.13,1436.14 168.13,47.2441 "/>
<polyline clip-path="url(#clip372)" style="stroke:#000000; stroke-linecap:round; stroke-linejoin:round; stroke-width:2; stroke-opacity:0.1; fill:none" points="698.688,1436.14 698.688,47.2441 "/>
<polyline clip-path="url(#clip372)" style="stroke:#000000; stroke-linecap:round; stroke-linejoin:round; stroke-width:2; stroke-opacity:0.1; fill:none" points="1229.25,1436.14 1229.25,47.2441 "/>
<polyline clip-path="url(#clip372)" style="stroke:#000000; stroke-linecap:round; stroke-linejoin:round; stroke-width:2; stroke-opacity:0.1; fill:none" points="1759.8,1436.14 1759.8,47.2441 "/>
<polyline clip-path="url(#clip372)" style="stroke:#000000; stroke-linecap:round; stroke-linejoin:round; stroke-width:2; stroke-opacity:0.1; fill:none" points="2290.36,1436.14 2290.36,47.2441 "/>
<polyline clip-path="url(#clip370)" style="stroke:#000000; stroke-linecap:round; stroke-linejoin:round; stroke-width:4; stroke-opacity:1; fill:none" points="148.181,1436.14 2352.76,1436.14 "/>
<polyline clip-path="url(#clip370)" style="stroke:#000000; stroke-linecap:round; stroke-linejoin:round; stroke-width:4; stroke-opacity:1; fill:none" points="168.13,1436.14 168.13,1417.24 "/>
<polyline clip-path="url(#clip370)" style="stroke:#000000; stroke-linecap:round; stroke-linejoin:round; stroke-width:4; stroke-opacity:1; fill:none" points="698.688,1436.14 698.688,1417.24 "/>
<polyline clip-path="url(#clip370)" style="stroke:#000000; stroke-linecap:round; stroke-linejoin:round; stroke-width:4; stroke-opacity:1; fill:none" points="1229.25,1436.14 1229.25,1417.24 "/>
<polyline clip-path="url(#clip370)" style="stroke:#000000; stroke-linecap:round; stroke-linejoin:round; stroke-width:4; stroke-opacity:1; fill:none" points="1759.8,1436.14 1759.8,1417.24 "/>
<polyline clip-path="url(#clip370)" style="stroke:#000000; stroke-linecap:round; stroke-linejoin:round; stroke-width:4; stroke-opacity:1; fill:none" points="2290.36,1436.14 2290.36,1417.24 "/>
<path clip-path="url(#clip370)" d="M168.13 1465.59 Q164.97 1465.59 163.37 1468.71 Q161.79 1471.81 161.79 1478.05 Q161.79 1484.27 163.37 1487.39 Q164.97 1490.49 168.13 1490.49 Q171.31 1490.49 172.89 1487.39 Q174.49 1484.27 174.49 1478.05 Q174.49 1471.81 172.89 1468.71 Q171.31 1465.59 168.13 1465.59 M168.13 1462.35 Q173.214 1462.35 175.887 1466.38 Q178.581 1470.39 178.581 1478.05 Q178.581 1485.69 175.887 1489.72 Q173.214 1493.73 168.13 1493.73 Q163.046 1493.73 160.352 1489.72 Q157.679 1485.69 157.679 1478.05 Q157.679 1470.39 160.352 1466.38 Q163.046 1462.35 168.13 1462.35 Z" fill="#000000" fill-rule="nonzero" fill-opacity="1" /><path clip-path="url(#clip370)" d="M680.55 1489.7 L694.83 1489.7 L694.83 1493.14 L675.628 1493.14 L675.628 1489.7 Q677.958 1487.29 681.968 1483.24 Q685.999 1479.16 687.032 1477.99 Q688.996 1475.78 689.766 1474.26 Q690.556 1472.72 690.556 1471.24 Q690.556 1468.83 688.855 1467.32 Q687.173 1465.8 684.459 1465.8 Q682.535 1465.8 680.388 1466.46 Q678.261 1467.13 675.831 1468.49 L675.831 1464.36 Q678.302 1463.37 680.449 1462.86 Q682.596 1462.35 684.378 1462.35 Q689.077 1462.35 691.872 1464.7 Q694.668 1467.05 694.668 1470.98 Q694.668 1472.84 693.959 1474.53 Q693.27 1476.19 691.427 1478.46 Q690.92 1479.04 688.206 1481.86 Q685.492 1484.65 680.55 1489.7 Z" fill="#000000" fill-rule="nonzero" fill-opacity="1" /><path clip-path="url(#clip370)" d="M703.458 1462.9 L719.52 1462.9 L719.52 1466.34 L707.205 1466.34 L707.205 1473.76 Q708.096 1473.45 708.988 1473.31 Q709.879 1473.15 710.77 1473.15 Q715.834 1473.15 718.791 1475.92 Q721.748 1478.7 721.748 1483.44 Q721.748 1488.32 718.71 1491.03 Q715.671 1493.73 710.142 1493.73 Q708.238 1493.73 706.253 1493.4 Q704.288 1493.08 702.182 1492.43 L702.182 1488.32 Q704.005 1489.31 705.949 1489.8 Q707.894 1490.28 710.061 1490.28 Q713.565 1490.28 715.611 1488.44 Q717.656 1486.6 717.656 1483.44 Q717.656 1480.28 715.611 1478.44 Q713.565 1476.59 710.061 1476.59 Q708.42 1476.59 706.78 1476.96 Q705.159 1477.32 703.458 1478.09 L703.458 1462.9 Z" fill="#000000" fill-rule="nonzero" fill-opacity="1" /><path clip-path="url(#clip370)" d="M1207.11 1462.9 L1223.17 1462.9 L1223.17 1466.34 L1210.86 1466.34 L1210.86 1473.76 Q1211.75 1473.45 1212.64 1473.31 Q1213.53 1473.15 1214.42 1473.15 Q1219.48 1473.15 1222.44 1475.92 Q1225.4 1478.7 1225.4 1483.44 Q1225.4 1488.32 1222.36 1491.03 Q1219.32 1493.73 1213.79 1493.73 Q1211.89 1493.73 1209.9 1493.4 Q1207.94 1493.08 1205.83 1492.43 L1205.83 1488.32 Q1207.65 1489.31 1209.6 1489.8 Q1211.54 1490.28 1213.71 1490.28 Q1217.21 1490.28 1219.26 1488.44 Q1221.31 1486.6 1221.31 1483.44 Q1221.31 1480.28 1219.26 1478.44 Q1217.21 1476.59 1213.71 1476.59 Q1212.07 1476.59 1210.43 1476.96 Q1208.81 1477.32 1207.11 1478.09 L1207.11 1462.9 Z" fill="#000000" fill-rule="nonzero" fill-opacity="1" /><path clip-path="url(#clip370)" d="M1242.21 1465.59 Q1239.05 1465.59 1237.45 1468.71 Q1235.87 1471.81 1235.87 1478.05 Q1235.87 1484.27 1237.45 1487.39 Q1239.05 1490.49 1242.21 1490.49 Q1245.39 1490.49 1246.97 1487.39 Q1248.57 1484.27 1248.57 1478.05 Q1248.57 1471.81 1246.97 1468.71 Q1245.39 1465.59 1242.21 1465.59 M1242.21 1462.35 Q1247.29 1462.35 1249.97 1466.38 Q1252.66 1470.39 1252.66 1478.05 Q1252.66 1485.69 1249.97 1489.72 Q1247.29 1493.73 1242.21 1493.73 Q1237.13 1493.73 1234.43 1489.72 Q1231.76 1485.69 1231.76 1478.05 Q1231.76 1470.39 1234.43 1466.38 Q1237.13 1462.35 1242.21 1462.35 Z" fill="#000000" fill-rule="nonzero" fill-opacity="1" /><path clip-path="url(#clip370)" d="M1736.93 1462.9 L1756.37 1462.9 L1756.37 1464.64 L1745.39 1493.14 L1741.12 1493.14 L1751.45 1466.34 L1736.93 1466.34 L1736.93 1462.9 Z" fill="#000000" fill-rule="nonzero" fill-opacity="1" /><path clip-path="url(#clip370)" d="M1764.39 1462.9 L1780.45 1462.9 L1780.45 1466.34 L1768.14 1466.34 L1768.14 1473.76 Q1769.03 1473.45 1769.92 1473.31 Q1770.81 1473.15 1771.7 1473.15 Q1776.77 1473.15 1779.72 1475.92 Q1782.68 1478.7 1782.68 1483.44 Q1782.68 1488.32 1779.64 1491.03 Q1776.61 1493.73 1771.08 1493.73 Q1769.17 1493.73 1767.19 1493.4 Q1765.22 1493.08 1763.12 1492.43 L1763.12 1488.32 Q1764.94 1489.31 1766.88 1489.8 Q1768.83 1490.28 1770.99 1490.28 Q1774.5 1490.28 1776.54 1488.44 Q1778.59 1486.6 1778.59 1483.44 Q1778.59 1480.28 1776.54 1478.44 Q1774.5 1476.59 1770.99 1476.59 Q1769.35 1476.59 1767.71 1476.96 Q1766.09 1477.32 1764.39 1478.09 L1764.39 1462.9 Z" fill="#000000" fill-rule="nonzero" fill-opacity="1" /><path clip-path="url(#clip370)" d="M2255.02 1489.7 L2261.7 1489.7 L2261.7 1466.63 L2254.43 1468.08 L2254.43 1464.36 L2261.66 1462.9 L2265.75 1462.9 L2265.75 1489.7 L2272.44 1489.7 L2272.44 1493.14 L2255.02 1493.14 L2255.02 1489.7 Z" fill="#000000" fill-rule="nonzero" fill-opacity="1" /><path clip-path="url(#clip370)" d="M2289.45 1465.59 Q2286.29 1465.59 2284.69 1468.71 Q2283.11 1471.81 2283.11 1478.05 Q2283.11 1484.27 2284.69 1487.39 Q2286.29 1490.49 2289.45 1490.49 Q2292.63 1490.49 2294.21 1487.39 Q2295.81 1484.27 2295.81 1478.05 Q2295.81 1471.81 2294.21 1468.71 Q2292.63 1465.59 2289.45 1465.59 M2289.45 1462.35 Q2294.53 1462.35 2297.21 1466.38 Q2299.9 1470.39 2299.9 1478.05 Q2299.9 1485.69 2297.21 1489.72 Q2294.53 1493.73 2289.45 1493.73 Q2284.37 1493.73 2281.67 1489.72 Q2279 1485.69 2279 1478.05 Q2279 1470.39 2281.67 1466.38 Q2284.37 1462.35 2289.45 1462.35 Z" fill="#000000" fill-rule="nonzero" fill-opacity="1" /><path clip-path="url(#clip370)" d="M2315.84 1465.59 Q2312.68 1465.59 2311.08 1468.71 Q2309.5 1471.81 2309.5 1478.05 Q2309.5 1484.27 2311.08 1487.39 Q2312.68 1490.49 2315.84 1490.49 Q2319.02 1490.49 2320.6 1487.39 Q2322.2 1484.27 2322.2 1478.05 Q2322.2 1471.81 2320.6 1468.71 Q2319.02 1465.59 2315.84 1465.59 M2315.84 1462.35 Q2320.93 1462.35 2323.6 1466.38 Q2326.29 1470.39 2326.29 1478.05 Q2326.29 1485.69 2323.6 1489.72 Q2320.93 1493.73 2315.84 1493.73 Q2310.76 1493.73 2308.06 1489.72 Q2305.39 1485.69 2305.39 1478.05 Q2305.39 1470.39 2308.06 1466.38 Q2310.76 1462.35 2315.84 1462.35 Z" fill="#000000" fill-rule="nonzero" fill-opacity="1" /><path clip-path="url(#clip370)" d="M1032.53 1540.59 Q1034.32 1537.36 1036.82 1535.82 Q1039.32 1534.29 1042.71 1534.29 Q1047.27 1534.29 1049.74 1537.49 Q1052.21 1540.67 1052.21 1546.55 L1052.21 1564.16 L1047.4 1564.16 L1047.4 1546.71 Q1047.4 1542.52 1045.91 1540.48 Q1044.43 1538.45 1041.38 1538.45 Q1037.66 1538.45 1035.5 1540.93 Q1033.33 1543.4 1033.33 1547.67 L1033.33 1564.16 L1028.52 1564.16 L1028.52 1546.71 Q1028.52 1542.49 1027.03 1540.48 Q1025.55 1538.45 1022.45 1538.45 Q1018.78 1538.45 1016.62 1540.95 Q1014.45 1543.43 1014.45 1547.67 L1014.45 1564.16 L1009.64 1564.16 L1009.64 1534.99 L1014.45 1534.99 L1014.45 1539.52 Q1016.09 1536.84 1018.39 1535.56 Q1020.68 1534.29 1023.83 1534.29 Q1027.01 1534.29 1029.22 1535.9 Q1031.46 1537.52 1032.53 1540.59 Z" fill="#000000" fill-rule="nonzero" fill-opacity="1" /><path clip-path="url(#clip370)" d="M1061.77 1534.99 L1066.56 1534.99 L1066.56 1564.16 L1061.77 1564.16 L1061.77 1534.99 M1061.77 1523.64 L1066.56 1523.64 L1066.56 1529.7 L1061.77 1529.7 L1061.77 1523.64 Z" fill="#000000" fill-rule="nonzero" fill-opacity="1" /><path clip-path="url(#clip370)" d="M1100.83 1546.55 L1100.83 1564.16 L1096.04 1564.16 L1096.04 1546.71 Q1096.04 1542.57 1094.43 1540.51 Q1092.81 1538.45 1089.58 1538.45 Q1085.7 1538.45 1083.46 1540.93 Q1081.22 1543.4 1081.22 1547.67 L1081.22 1564.16 L1076.41 1564.16 L1076.41 1534.99 L1081.22 1534.99 L1081.22 1539.52 Q1082.94 1536.89 1085.26 1535.59 Q1087.6 1534.29 1090.65 1534.29 Q1095.68 1534.29 1098.26 1537.41 Q1100.83 1540.51 1100.83 1546.55 Z" fill="#000000" fill-rule="nonzero" fill-opacity="1" /><path clip-path="url(#clip370)" d="M1132.55 1573.01 L1132.55 1576.73 L1104.84 1576.73 L1104.84 1573.01 L1132.55 1573.01 Z" fill="#000000" fill-rule="nonzero" fill-opacity="1" /><path clip-path="url(#clip370)" d="M1155.65 1535.85 L1155.65 1540.38 Q1153.62 1539.34 1151.43 1538.82 Q1149.25 1538.3 1146.9 1538.3 Q1143.33 1538.3 1141.54 1539.39 Q1139.77 1540.48 1139.77 1542.67 Q1139.77 1544.34 1141.04 1545.3 Q1142.32 1546.24 1146.17 1547.1 L1147.81 1547.46 Q1152.92 1548.56 1155.05 1550.56 Q1157.21 1552.54 1157.21 1556.11 Q1157.21 1560.17 1153.98 1562.54 Q1150.78 1564.91 1145.16 1564.91 Q1142.81 1564.91 1140.26 1564.44 Q1137.73 1564 1134.92 1563.09 L1134.92 1558.14 Q1137.58 1559.52 1140.16 1560.22 Q1142.73 1560.9 1145.26 1560.9 Q1148.65 1560.9 1150.47 1559.75 Q1152.29 1558.58 1152.29 1556.47 Q1152.29 1554.52 1150.96 1553.48 Q1149.66 1552.44 1145.21 1551.47 L1143.54 1551.08 Q1139.09 1550.15 1137.11 1548.22 Q1135.13 1546.27 1135.13 1542.88 Q1135.13 1538.77 1138.05 1536.53 Q1140.96 1534.29 1146.33 1534.29 Q1148.98 1534.29 1151.33 1534.68 Q1153.67 1535.07 1155.65 1535.85 Z" fill="#000000" fill-rule="nonzero" fill-opacity="1" /><path clip-path="url(#clip370)" d="M1178.1 1549.49 Q1172.29 1549.49 1170.05 1550.82 Q1167.81 1552.15 1167.81 1555.35 Q1167.81 1557.91 1169.48 1559.42 Q1171.17 1560.9 1174.06 1560.9 Q1178.05 1560.9 1180.44 1558.09 Q1182.86 1555.25 1182.86 1550.56 L1182.86 1549.49 L1178.1 1549.49 M1187.66 1547.52 L1187.66 1564.16 L1182.86 1564.16 L1182.86 1559.73 Q1181.22 1562.39 1178.78 1563.66 Q1176.33 1564.91 1172.79 1564.91 Q1168.31 1564.91 1165.65 1562.41 Q1163.02 1559.89 1163.02 1555.67 Q1163.02 1550.74 1166.3 1548.24 Q1169.61 1545.74 1176.15 1545.74 L1182.86 1545.74 L1182.86 1545.28 Q1182.86 1541.97 1180.68 1540.17 Q1178.52 1538.35 1174.58 1538.35 Q1172.08 1538.35 1169.71 1538.95 Q1167.34 1539.55 1165.16 1540.74 L1165.16 1536.32 Q1167.79 1535.3 1170.26 1534.81 Q1172.73 1534.29 1175.08 1534.29 Q1181.41 1534.29 1184.53 1537.57 Q1187.66 1540.85 1187.66 1547.52 Z" fill="#000000" fill-rule="nonzero" fill-opacity="1" /><path clip-path="url(#clip370)" d="M1220.23 1540.59 Q1222.03 1537.36 1224.53 1535.82 Q1227.03 1534.29 1230.42 1534.29 Q1234.97 1534.29 1237.45 1537.49 Q1239.92 1540.67 1239.92 1546.55 L1239.92 1564.16 L1235.1 1564.16 L1235.1 1546.71 Q1235.1 1542.52 1233.62 1540.48 Q1232.14 1538.45 1229.09 1538.45 Q1225.36 1538.45 1223.2 1540.93 Q1221.04 1543.4 1221.04 1547.67 L1221.04 1564.16 L1216.22 1564.16 L1216.22 1546.71 Q1216.22 1542.49 1214.74 1540.48 Q1213.26 1538.45 1210.16 1538.45 Q1206.48 1538.45 1204.32 1540.95 Q1202.16 1543.43 1202.16 1547.67 L1202.16 1564.16 L1197.34 1564.16 L1197.34 1534.99 L1202.16 1534.99 L1202.16 1539.52 Q1203.8 1536.84 1206.09 1535.56 Q1208.39 1534.29 1211.54 1534.29 Q1214.71 1534.29 1216.93 1535.9 Q1219.17 1537.52 1220.23 1540.59 Z" fill="#000000" fill-rule="nonzero" fill-opacity="1" /><path clip-path="url(#clip370)" d="M1254.11 1559.78 L1254.11 1575.25 L1249.3 1575.25 L1249.3 1534.99 L1254.11 1534.99 L1254.11 1539.42 Q1255.62 1536.81 1257.92 1535.56 Q1260.23 1534.29 1263.44 1534.29 Q1268.75 1534.29 1272.06 1538.5 Q1275.39 1542.72 1275.39 1549.6 Q1275.39 1556.47 1272.06 1560.69 Q1268.75 1564.91 1263.44 1564.91 Q1260.23 1564.91 1257.92 1563.66 Q1255.62 1562.39 1254.11 1559.78 M1270.42 1549.6 Q1270.42 1544.31 1268.23 1541.32 Q1266.07 1538.3 1262.27 1538.3 Q1258.46 1538.3 1256.28 1541.32 Q1254.11 1544.31 1254.11 1549.6 Q1254.11 1554.89 1256.28 1557.91 Q1258.46 1560.9 1262.27 1560.9 Q1266.07 1560.9 1268.23 1557.91 Q1270.42 1554.89 1270.42 1549.6 Z" fill="#000000" fill-rule="nonzero" fill-opacity="1" /><path clip-path="url(#clip370)" d="M1283.33 1523.64 L1288.12 1523.64 L1288.12 1564.16 L1283.33 1564.16 L1283.33 1523.64 Z" fill="#000000" fill-rule="nonzero" fill-opacity="1" /><path clip-path="url(#clip370)" d="M1323.1 1548.37 L1323.1 1550.72 L1301.07 1550.72 Q1301.38 1555.67 1304.04 1558.27 Q1306.72 1560.85 1311.48 1560.85 Q1314.24 1560.85 1316.82 1560.17 Q1319.43 1559.49 1321.98 1558.14 L1321.98 1562.67 Q1319.4 1563.77 1316.69 1564.34 Q1313.98 1564.91 1311.2 1564.91 Q1304.22 1564.91 1300.13 1560.85 Q1296.07 1556.79 1296.07 1549.86 Q1296.07 1542.7 1299.92 1538.5 Q1303.8 1534.29 1310.36 1534.29 Q1316.25 1534.29 1319.66 1538.09 Q1323.1 1541.86 1323.1 1548.37 M1318.31 1546.97 Q1318.25 1543.04 1316.09 1540.69 Q1313.96 1538.35 1310.42 1538.35 Q1306.41 1538.35 1303.98 1540.61 Q1301.59 1542.88 1301.22 1546.99 L1318.31 1546.97 Z" fill="#000000" fill-rule="nonzero" fill-opacity="1" /><path clip-path="url(#clip370)" d="M1349.56 1535.85 L1349.56 1540.38 Q1347.53 1539.34 1345.34 1538.82 Q1343.15 1538.3 1340.81 1538.3 Q1337.24 1538.3 1335.44 1539.39 Q1333.67 1540.48 1333.67 1542.67 Q1333.67 1544.34 1334.95 1545.3 Q1336.22 1546.24 1340.08 1547.1 L1341.72 1547.46 Q1346.82 1548.56 1348.96 1550.56 Q1351.12 1552.54 1351.12 1556.11 Q1351.12 1560.17 1347.89 1562.54 Q1344.69 1564.91 1339.06 1564.91 Q1336.72 1564.91 1334.17 1564.44 Q1331.64 1564 1328.83 1563.09 L1328.83 1558.14 Q1331.48 1559.52 1334.06 1560.22 Q1336.64 1560.9 1339.17 1560.9 Q1342.55 1560.9 1344.37 1559.75 Q1346.2 1558.58 1346.2 1556.47 Q1346.2 1554.52 1344.87 1553.48 Q1343.57 1552.44 1339.11 1551.47 L1337.45 1551.08 Q1332.99 1550.15 1331.01 1548.22 Q1329.04 1546.27 1329.04 1542.88 Q1329.04 1538.77 1331.95 1536.53 Q1334.87 1534.29 1340.23 1534.29 Q1342.89 1534.29 1345.23 1534.68 Q1347.58 1535.07 1349.56 1535.85 Z" fill="#000000" fill-rule="nonzero" fill-opacity="1" /><path clip-path="url(#clip370)" d="M1380.91 1573.01 L1380.91 1576.73 L1353.2 1576.73 L1353.2 1573.01 L1380.91 1573.01 Z" fill="#000000" fill-rule="nonzero" fill-opacity="1" /><path clip-path="url(#clip370)" d="M1404.01 1535.85 L1404.01 1540.38 Q1401.98 1539.34 1399.79 1538.82 Q1397.6 1538.3 1395.26 1538.3 Q1391.69 1538.3 1389.89 1539.39 Q1388.12 1540.48 1388.12 1542.67 Q1388.12 1544.34 1389.4 1545.3 Q1390.68 1546.24 1394.53 1547.1 L1396.17 1547.46 Q1401.27 1548.56 1403.41 1550.56 Q1405.57 1552.54 1405.57 1556.11 Q1405.57 1560.17 1402.34 1562.54 Q1399.14 1564.91 1393.51 1564.91 Q1391.17 1564.91 1388.62 1564.44 Q1386.09 1564 1383.28 1563.09 L1383.28 1558.14 Q1385.94 1559.52 1388.51 1560.22 Q1391.09 1560.9 1393.62 1560.9 Q1397 1560.9 1398.83 1559.75 Q1400.65 1558.58 1400.65 1556.47 Q1400.65 1554.52 1399.32 1553.48 Q1398.02 1552.44 1393.57 1551.47 L1391.9 1551.08 Q1387.45 1550.15 1385.47 1548.22 Q1383.49 1546.27 1383.49 1542.88 Q1383.49 1538.77 1386.41 1536.53 Q1389.32 1534.29 1394.69 1534.29 Q1397.34 1534.29 1399.69 1534.68 Q1402.03 1535.07 1404.01 1535.85 Z" fill="#000000" fill-rule="nonzero" fill-opacity="1" /><path clip-path="url(#clip370)" d="M1417.84 1559.78 L1417.84 1575.25 L1413.02 1575.25 L1413.02 1534.99 L1417.84 1534.99 L1417.84 1539.42 Q1419.35 1536.81 1421.64 1535.56 Q1423.96 1534.29 1427.16 1534.29 Q1432.47 1534.29 1435.78 1538.5 Q1439.11 1542.72 1439.11 1549.6 Q1439.11 1556.47 1435.78 1560.69 Q1432.47 1564.91 1427.16 1564.91 Q1423.96 1564.91 1421.64 1563.66 Q1419.35 1562.39 1417.84 1559.78 M1434.14 1549.6 Q1434.14 1544.31 1431.95 1541.32 Q1429.79 1538.3 1425.99 1538.3 Q1422.19 1538.3 1420 1541.32 Q1417.84 1544.31 1417.84 1549.6 Q1417.84 1554.89 1420 1557.91 Q1422.19 1560.9 1425.99 1560.9 Q1429.79 1560.9 1431.95 1557.91 Q1434.14 1554.89 1434.14 1549.6 Z" fill="#000000" fill-rule="nonzero" fill-opacity="1" /><path clip-path="url(#clip370)" d="M1447.06 1523.64 L1451.85 1523.64 L1451.85 1564.16 L1447.06 1564.16 L1447.06 1523.64 Z" fill="#000000" fill-rule="nonzero" fill-opacity="1" /><path clip-path="url(#clip370)" d="M1461.87 1534.99 L1466.67 1534.99 L1466.67 1564.16 L1461.87 1564.16 L1461.87 1534.99 M1461.87 1523.64 L1466.67 1523.64 L1466.67 1529.7 L1461.87 1529.7 L1461.87 1523.64 Z" fill="#000000" fill-rule="nonzero" fill-opacity="1" /><path clip-path="url(#clip370)" d="M1481.43 1526.71 L1481.43 1534.99 L1491.3 1534.99 L1491.3 1538.71 L1481.43 1538.71 L1481.43 1554.55 Q1481.43 1558.11 1482.39 1559.13 Q1483.38 1560.15 1486.38 1560.15 L1491.3 1560.15 L1491.3 1564.16 L1486.38 1564.16 Q1480.83 1564.16 1478.72 1562.1 Q1476.61 1560.02 1476.61 1554.55 L1476.61 1538.71 L1473.1 1538.71 L1473.1 1534.99 L1476.61 1534.99 L1476.61 1526.71 L1481.43 1526.71 Z" fill="#000000" fill-rule="nonzero" fill-opacity="1" /><polyline clip-path="url(#clip372)" style="stroke:#000000; stroke-linecap:round; stroke-linejoin:round; stroke-width:2; stroke-opacity:0.1; fill:none" points="148.181,1156.15 2352.76,1156.15 "/>
<polyline clip-path="url(#clip372)" style="stroke:#000000; stroke-linecap:round; stroke-linejoin:round; stroke-width:2; stroke-opacity:0.1; fill:none" points="148.181,855.507 2352.76,855.507 "/>
<polyline clip-path="url(#clip372)" style="stroke:#000000; stroke-linecap:round; stroke-linejoin:round; stroke-width:2; stroke-opacity:0.1; fill:none" points="148.181,554.865 2352.76,554.865 "/>
<polyline clip-path="url(#clip372)" style="stroke:#000000; stroke-linecap:round; stroke-linejoin:round; stroke-width:2; stroke-opacity:0.1; fill:none" points="148.181,254.223 2352.76,254.223 "/>
<polyline clip-path="url(#clip370)" style="stroke:#000000; stroke-linecap:round; stroke-linejoin:round; stroke-width:4; stroke-opacity:1; fill:none" points="148.181,1436.14 148.181,47.2441 "/>
<polyline clip-path="url(#clip370)" style="stroke:#000000; stroke-linecap:round; stroke-linejoin:round; stroke-width:4; stroke-opacity:1; fill:none" points="148.181,1156.15 167.079,1156.15 "/>
<polyline clip-path="url(#clip370)" style="stroke:#000000; stroke-linecap:round; stroke-linejoin:round; stroke-width:4; stroke-opacity:1; fill:none" points="148.181,855.507 167.079,855.507 "/>
<polyline clip-path="url(#clip370)" style="stroke:#000000; stroke-linecap:round; stroke-linejoin:round; stroke-width:4; stroke-opacity:1; fill:none" points="148.181,554.865 167.079,554.865 "/>
<polyline clip-path="url(#clip370)" style="stroke:#000000; stroke-linecap:round; stroke-linejoin:round; stroke-width:4; stroke-opacity:1; fill:none" points="148.181,254.223 167.079,254.223 "/>
<path clip-path="url(#clip370)" d="M65.6564 1154.96 Q68.5933 1155.59 70.2339 1157.58 Q71.8948 1159.56 71.8948 1162.48 Q71.8948 1166.96 68.8161 1169.41 Q65.7374 1171.86 60.0662 1171.86 Q58.1622 1171.86 56.1368 1171.47 Q54.1316 1171.11 51.9846 1170.36 L51.9846 1166.41 Q53.686 1167.4 55.7114 1167.91 Q57.7369 1168.41 59.9446 1168.41 Q63.793 1168.41 65.7982 1166.89 Q67.8236 1165.38 67.8236 1162.48 Q67.8236 1159.81 65.94 1158.31 Q64.0765 1156.79 60.7346 1156.79 L57.2103 1156.79 L57.2103 1153.43 L60.8966 1153.43 Q63.9145 1153.43 65.5146 1152.23 Q67.1147 1151.02 67.1147 1148.75 Q67.1147 1146.42 65.4539 1145.18 Q63.8132 1143.93 60.7346 1143.93 Q59.0534 1143.93 57.1292 1144.29 Q55.2051 1144.66 52.8961 1145.42 L52.8961 1141.78 Q55.2253 1141.13 57.2508 1140.81 Q59.2965 1140.48 61.0991 1140.48 Q65.7577 1140.48 68.4718 1142.61 Q71.1859 1144.72 71.1859 1148.32 Q71.1859 1150.83 69.7478 1152.57 Q68.3097 1154.3 65.6564 1154.96 Z" fill="#000000" fill-rule="nonzero" fill-opacity="1" /><path clip-path="url(#clip370)" d="M79.6523 1166.13 L83.926 1166.13 L83.926 1171.27 L79.6523 1171.27 L79.6523 1166.13 Z" fill="#000000" fill-rule="nonzero" fill-opacity="1" /><path clip-path="url(#clip370)" d="M102.094 1154.52 Q99.3397 1154.52 97.7193 1156.4 Q96.1192 1158.29 96.1192 1161.57 Q96.1192 1164.83 97.7193 1166.73 Q99.3397 1168.62 102.094 1168.62 Q104.849 1168.62 106.449 1166.73 Q108.069 1164.83 108.069 1161.57 Q108.069 1158.29 106.449 1156.4 Q104.849 1154.52 102.094 1154.52 M110.216 1141.7 L110.216 1145.42 Q108.677 1144.7 107.097 1144.31 Q105.538 1143.93 103.998 1143.93 Q99.9473 1143.93 97.8003 1146.66 Q95.6736 1149.39 95.3698 1154.92 Q96.5648 1153.16 98.3675 1152.23 Q100.17 1151.28 102.337 1151.28 Q106.895 1151.28 109.528 1154.05 Q112.181 1156.81 112.181 1161.57 Q112.181 1166.23 109.426 1169.04 Q106.672 1171.86 102.094 1171.86 Q96.8484 1171.86 94.0735 1167.85 Q91.2986 1163.82 91.2986 1156.18 Q91.2986 1149.01 94.7014 1144.76 Q98.1041 1140.48 103.836 1140.48 Q105.376 1140.48 106.935 1140.79 Q108.515 1141.09 110.216 1141.7 Z" fill="#000000" fill-rule="nonzero" fill-opacity="1" /><path clip-path="url(#clip370)" d="M65.8792 854.323 Q68.8161 854.95 70.4567 856.935 Q72.1176 858.92 72.1176 861.837 Q72.1176 866.313 69.0389 868.764 Q65.9602 871.215 60.289 871.215 Q58.385 871.215 56.3596 870.83 Q54.3544 870.465 52.2074 869.716 L52.2074 865.766 Q53.9088 866.759 55.9342 867.265 Q57.9597 867.772 60.1674 867.772 Q64.0158 867.772 66.021 866.253 Q68.0464 864.733 68.0464 861.837 Q68.0464 859.163 66.1628 857.665 Q64.2993 856.146 60.9574 856.146 L57.4331 856.146 L57.4331 852.783 L61.1194 852.783 Q64.1373 852.783 65.7374 851.588 Q67.3375 850.373 67.3375 848.104 Q67.3375 845.775 65.6767 844.54 Q64.036 843.284 60.9574 843.284 Q59.2762 843.284 57.352 843.648 Q55.4279 844.013 53.1189 844.783 L53.1189 841.137 Q55.4481 840.489 57.4736 840.165 Q59.5193 839.841 61.3219 839.841 Q65.9805 839.841 68.6946 841.967 Q71.4087 844.074 71.4087 847.679 Q71.4087 850.191 69.9706 851.933 Q68.5325 853.654 65.8792 854.323 Z" fill="#000000" fill-rule="nonzero" fill-opacity="1" /><path clip-path="url(#clip370)" d="M79.8751 865.483 L84.1488 865.483 L84.1488 870.627 L79.8751 870.627 L79.8751 865.483 Z" fill="#000000" fill-rule="nonzero" fill-opacity="1" /><path clip-path="url(#clip370)" d="M101.811 856.267 Q98.8941 856.267 97.2129 857.827 Q95.5521 859.386 95.5521 862.121 Q95.5521 864.855 97.2129 866.415 Q98.8941 867.974 101.811 867.974 Q104.727 867.974 106.408 866.415 Q108.09 864.835 108.09 862.121 Q108.09 859.386 106.408 857.827 Q104.748 856.267 101.811 856.267 M97.7193 854.525 Q95.0862 853.877 93.6076 852.074 Q92.1493 850.272 92.1493 847.679 Q92.1493 844.054 94.7216 841.947 Q97.3142 839.841 101.811 839.841 Q106.327 839.841 108.9 841.947 Q111.472 844.054 111.472 847.679 Q111.472 850.272 109.994 852.074 Q108.535 853.877 105.922 854.525 Q108.88 855.214 110.52 857.219 Q112.181 859.224 112.181 862.121 Q112.181 866.516 109.487 868.865 Q106.814 871.215 101.811 871.215 Q96.8079 871.215 94.114 868.865 Q91.4404 866.516 91.4404 862.121 Q91.4404 859.224 93.1013 857.219 Q94.7621 855.214 97.7193 854.525 M96.2205 848.064 Q96.2205 850.413 97.6788 851.73 Q99.1574 853.047 101.811 853.047 Q104.444 853.047 105.922 851.73 Q107.421 850.413 107.421 848.064 Q107.421 845.714 105.922 844.398 Q104.444 843.081 101.811 843.081 Q99.1574 843.081 97.6788 844.398 Q96.2205 845.714 96.2205 848.064 Z" fill="#000000" fill-rule="nonzero" fill-opacity="1" /><path clip-path="url(#clip370)" d="M64.6437 543.31 L54.3139 559.453 L64.6437 559.453 L64.6437 543.31 M63.5702 539.745 L68.7148 539.745 L68.7148 559.453 L73.029 559.453 L73.029 562.856 L68.7148 562.856 L68.7148 569.985 L64.6437 569.985 L64.6437 562.856 L50.9921 562.856 L50.9921 558.906 L63.5702 539.745 Z" fill="#000000" fill-rule="nonzero" fill-opacity="1" /><path clip-path="url(#clip370)" d="M79.7941 564.841 L84.0678 564.841 L84.0678 569.985 L79.7941 569.985 L79.7941 564.841 Z" fill="#000000" fill-rule="nonzero" fill-opacity="1" /><path clip-path="url(#clip370)" d="M101.73 542.439 Q98.57 542.439 96.9699 545.558 Q95.39 548.657 95.39 554.896 Q95.39 561.114 96.9699 564.233 Q98.57 567.332 101.73 567.332 Q104.91 567.332 106.49 564.233 Q108.09 561.114 108.09 554.896 Q108.09 548.657 106.49 545.558 Q104.91 542.439 101.73 542.439 M101.73 539.198 Q106.814 539.198 109.487 543.229 Q112.181 547.239 112.181 554.896 Q112.181 562.532 109.487 566.562 Q106.814 570.573 101.73 570.573 Q96.6458 570.573 93.952 566.562 Q91.2784 562.532 91.2784 554.896 Q91.2784 547.239 93.952 543.229 Q96.6458 539.198 101.73 539.198 Z" fill="#000000" fill-rule="nonzero" fill-opacity="1" /><path clip-path="url(#clip370)" d="M66.0412 242.668 L55.7114 258.811 L66.0412 258.811 L66.0412 242.668 M64.9677 239.103 L70.1124 239.103 L70.1124 258.811 L74.4266 258.811 L74.4266 262.213 L70.1124 262.213 L70.1124 269.343 L66.0412 269.343 L66.0412 262.213 L52.3897 262.213 L52.3897 258.264 L64.9677 239.103 Z" fill="#000000" fill-rule="nonzero" fill-opacity="1" /><path clip-path="url(#clip370)" d="M81.1916 264.198 L85.4653 264.198 L85.4653 269.343 L81.1916 269.343 L81.1916 264.198 Z" fill="#000000" fill-rule="nonzero" fill-opacity="1" /><path clip-path="url(#clip370)" d="M97.9016 265.9 L112.181 265.9 L112.181 269.343 L92.9797 269.343 L92.9797 265.9 Q95.309 263.49 99.3194 259.439 Q103.35 255.367 104.383 254.193 Q106.348 251.985 107.117 250.466 Q107.907 248.927 107.907 247.448 Q107.907 245.038 106.206 243.519 Q104.525 241.999 101.811 241.999 Q99.8865 241.999 97.7396 242.668 Q95.6128 243.336 93.1823 244.693 L93.1823 240.561 Q95.6533 239.569 97.8003 239.063 Q99.9473 238.556 101.73 238.556 Q106.429 238.556 109.224 240.906 Q112.019 243.255 112.019 247.185 Q112.019 249.048 111.31 250.729 Q110.621 252.39 108.778 254.659 Q108.272 255.246 105.558 258.061 Q102.844 260.856 97.9016 265.9 Z" fill="#000000" fill-rule="nonzero" fill-opacity="1" /><polyline clip-path="url(#clip372)" style="stroke:#009af9; stroke-linecap:round; stroke-linejoin:round; stroke-width:4; stroke-opacity:1; fill:none" points="210.575,1005.88 231.797,952.497 253.019,1037.52 274.242,1029.62 295.464,962.902 316.686,1055.05 337.909,954.14 359.131,1018.41 380.353,965.291 422.798,1103.4 444.02,1141.39 486.465,1255.14 528.91,1187.75 592.576,1293.17 656.243,1297.71 719.91,1286.38 804.8,1396.83 889.689,1217.42 995.801,968.655 1123.13,1020.81 1250.47,1026.69 1399.02,733.693 1590.03,450.962 1781.03,379.192 2014.47,319.79 2290.36,86.5525 "/>
<path clip-path="url(#clip370)" d="M221.667 184.261 L488.001 184.261 L488.001 93.5406 L221.667 93.5406  Z" fill="#ffffff" fill-rule="evenodd" fill-opacity="1"/>
<polyline clip-path="url(#clip370)" style="stroke:#000000; stroke-linecap:round; stroke-linejoin:round; stroke-width:4; stroke-opacity:1; fill:none" points="221.667,184.261 488.001,184.261 488.001,93.5406 221.667,93.5406 221.667,184.261 "/>
<polyline clip-path="url(#clip370)" style="stroke:#009af9; stroke-linecap:round; stroke-linejoin:round; stroke-width:3.5; stroke-opacity:1; fill:none" points="246.162,138.901 393.134,138.901 "/>
<path clip-path="url(#clip370)" d="M429.741 156.127 Q428.161 160.178 426.663 161.414 Q425.164 162.649 422.652 162.649 L419.675 162.649 L419.675 159.53 L421.862 159.53 Q423.402 159.53 424.252 158.801 Q425.103 158.072 426.136 155.357 L426.804 153.656 L417.629 131.336 L421.579 131.336 L428.668 149.079 L435.757 131.336 L439.707 131.336 L429.741 156.127 Z" fill="#000000" fill-rule="nonzero" fill-opacity="1" /><path clip-path="url(#clip370)" d="M446.087 150.577 L452.771 150.577 L452.771 127.507 L445.499 128.966 L445.499 125.239 L452.73 123.781 L456.822 123.781 L456.822 150.577 L463.506 150.577 L463.506 154.021 L446.087 154.021 L446.087 150.577 Z" fill="#000000" fill-rule="nonzero" fill-opacity="1" /></svg>
