<?xml version="1.0" encoding="utf-8"?>
<svg xmlns="http://www.w3.org/2000/svg" xmlns:xlink="http://www.w3.org/1999/xlink" width="600" height="400" viewBox="0 0 2400 1600">
<defs>
  <clipPath id="clip400">
    <rect x="0" y="0" width="2400" height="1600"/>
  </clipPath>
</defs>
<path clip-path="url(#clip400)" d="M0 1600 L2400 1600 L2400 8.88178e-14 L0 8.88178e-14  Z" fill="#ffffff" fill-rule="evenodd" fill-opacity="1"/>
<defs>
  <clipPath id="clip401">
    <rect x="480" y="0" width="1681" height="1600"/>
  </clipPath>
</defs>
<path clip-path="url(#clip400)" d="M147.472 1436.14 L2352.76 1436.14 L2352.76 47.2441 L147.472 47.2441  Z" fill="#ffffff" fill-rule="evenodd" fill-opacity="1"/>
<defs>
  <clipPath id="clip402">
    <rect x="147" y="47" width="2206" height="1390"/>
  </clipPath>
</defs>
<polyline clip-path="url(#clip402)" style="stroke:#000000; stroke-linecap:round; stroke-linejoin:round; stroke-width:2; stroke-opacity:0.1; fill:none" points="167.428,1436.14 167.428,47.2441 "/>
<polyline clip-path="url(#clip402)" style="stroke:#000000; stroke-linecap:round; stroke-linejoin:round; stroke-width:2; stroke-opacity:0.1; fill:none" points="698.156,1436.14 698.156,47.2441 "/>
<polyline clip-path="url(#clip402)" style="stroke:#000000; stroke-linecap:round; stroke-linejoin:round; stroke-width:2; stroke-opacity:0.1; fill:none" points="1228.88,1436.14 1228.88,47.2441 "/>
<polyline clip-path="url(#clip402)" style="stroke:#000000; stroke-linecap:round; stroke-linejoin:round; stroke-width:2; stroke-opacity:0.1; fill:none" points="1759.61,1436.14 1759.61,47.2441 "/>
<polyline clip-path="url(#clip402)" style="stroke:#000000; stroke-linecap:round; stroke-linejoin:round; stroke-width:2; stroke-opacity:0.1; fill:none" points="2290.34,1436.14 2290.34,47.2441 "/>
<polyline clip-path="url(#clip400)" style="stroke:#000000; stroke-linecap:round; stroke-linejoin:round; stroke-width:4; stroke-opacity:1; fill:none" points="147.472,1436.14 2352.76,1436.14 "/>
<polyline clip-path="url(#clip400)" style="stroke:#000000; stroke-linecap:round; stroke-linejoin:round; stroke-width:4; stroke-opacity:1; fill:none" points="167.428,1436.14 167.428,1417.24 "/>
<polyline clip-path="url(#clip400)" style="stroke:#000000; stroke-linecap:round; stroke-linejoin:round; stroke-width:4; stroke-opacity:1; fill:none" points="698.156,1436.14 698.156,1417.24 "/>
<polyline clip-path="url(#clip400)" style="stroke:#000000; stroke-linecap:round; stroke-linejoin:round; stroke-width:4; stroke-opacity:1; fill:none" points="1228.88,1436.14 1228.88,1417.24 "/>
<polyline clip-path="url(#clip400)" style="stroke:#000000; stroke-linecap:round; stroke-linejoin:round; stroke-width:4; stroke-opacity:1; fill:none" points="1759.61,1436.14 1759.61,1417.24 "/>
<polyline clip-path="url(#clip400)" style="stroke:#000000; stroke-linecap:round; stroke-linejoin:round; stroke-width:4; stroke-opacity:1; fill:none" points="2290.34,1436.14 2290.34,1417.24 "/>
<path clip-path="url(#clip400)" d="M167.428 1465.59 Q164.268 1465.59 162.668 1468.71 Q161.088 1471.81 161.088 1478.05 Q161.088 1484.27 162.668 1487.39 Q164.268 1490.49 167.428 1490.49 Q170.607 1490.49 172.187 1487.39 Q173.787 1484.27 173.787 1478.05 Q173.787 1471.81 172.187 1468.71 Q170.607 1465.59 167.428 1465.59 M167.428 1462.35 Q172.511 1462.35 175.185 1466.38 Q177.879 1470.39 177.879 1478.05 Q177.879 1485.69 175.185 1489.72 Q172.511 1493.73 167.428 1493.73 Q162.344 1493.73 159.65 1489.72 Q156.976 1485.69 156.976 1478.05 Q156.976 1470.39 159.65 1466.38 Q162.344 1462.35 167.428 1462.35 Z" fill="#000000" fill-rule="nonzero" fill-opacity="1" /><path clip-path="url(#clip400)" d="M680.018 1489.7 L694.298 1489.7 L694.298 1493.14 L675.096 1493.14 L675.096 1489.7 Q677.426 1487.29 681.436 1483.24 Q685.467 1479.16 686.5 1477.99 Q688.464 1475.78 689.234 1474.26 Q690.024 1472.72 690.024 1471.24 Q690.024 1468.83 688.323 1467.32 Q686.642 1465.8 683.927 1465.8 Q682.003 1465.8 679.856 1466.46 Q677.73 1467.13 675.299 1468.49 L675.299 1464.36 Q677.77 1463.37 679.917 1462.86 Q682.064 1462.35 683.846 1462.35 Q688.545 1462.35 691.341 1464.7 Q694.136 1467.05 694.136 1470.98 Q694.136 1472.84 693.427 1474.53 Q692.738 1476.19 690.895 1478.46 Q690.389 1479.04 687.674 1481.86 Q684.96 1484.65 680.018 1489.7 Z" fill="#000000" fill-rule="nonzero" fill-opacity="1" /><path clip-path="url(#clip400)" d="M702.926 1462.9 L718.988 1462.9 L718.988 1466.34 L706.673 1466.34 L706.673 1473.76 Q707.564 1473.45 708.456 1473.31 Q709.347 1473.15 710.238 1473.15 Q715.302 1473.15 718.259 1475.92 Q721.216 1478.7 721.216 1483.44 Q721.216 1488.32 718.178 1491.03 Q715.14 1493.73 709.61 1493.73 Q707.706 1493.73 705.721 1493.4 Q703.757 1493.08 701.65 1492.43 L701.65 1488.32 Q703.473 1489.31 705.417 1489.8 Q707.362 1490.28 709.529 1490.28 Q713.033 1490.28 715.079 1488.44 Q717.125 1486.6 717.125 1483.44 Q717.125 1480.28 715.079 1478.44 Q713.033 1476.59 709.529 1476.59 Q707.888 1476.59 706.248 1476.96 Q704.628 1477.32 702.926 1478.09 L702.926 1462.9 Z" fill="#000000" fill-rule="nonzero" fill-opacity="1" /><path clip-path="url(#clip400)" d="M1206.75 1462.9 L1222.81 1462.9 L1222.81 1466.34 L1210.49 1466.34 L1210.49 1473.76 Q1211.38 1473.45 1212.28 1473.31 Q1213.17 1473.15 1214.06 1473.15 Q1219.12 1473.15 1222.08 1475.92 Q1225.04 1478.7 1225.04 1483.44 Q1225.04 1488.32 1222 1491.03 Q1218.96 1493.73 1213.43 1493.73 Q1211.53 1493.73 1209.54 1493.4 Q1207.58 1493.08 1205.47 1492.43 L1205.47 1488.32 Q1207.29 1489.31 1209.24 1489.8 Q1211.18 1490.28 1213.35 1490.28 Q1216.85 1490.28 1218.9 1488.44 Q1220.95 1486.6 1220.95 1483.44 Q1220.95 1480.28 1218.9 1478.44 Q1216.85 1476.59 1213.35 1476.59 Q1211.71 1476.59 1210.07 1476.96 Q1208.45 1477.32 1206.75 1478.09 L1206.75 1462.9 Z" fill="#000000" fill-rule="nonzero" fill-opacity="1" /><path clip-path="url(#clip400)" d="M1241.85 1465.59 Q1238.69 1465.59 1237.09 1468.71 Q1235.51 1471.81 1235.51 1478.05 Q1235.51 1484.27 1237.09 1487.39 Q1238.69 1490.49 1241.85 1490.49 Q1245.03 1490.49 1246.61 1487.39 Q1248.21 1484.27 1248.21 1478.05 Q1248.21 1471.81 1246.61 1468.71 Q1245.03 1465.59 1241.85 1465.59 M1241.85 1462.35 Q1246.93 1462.35 1249.61 1466.38 Q1252.3 1470.39 1252.3 1478.05 Q1252.3 1485.69 1249.61 1489.72 Q1246.93 1493.73 1241.85 1493.73 Q1236.76 1493.73 1234.07 1489.72 Q1231.4 1485.69 1231.4 1478.05 Q1231.4 1470.39 1234.07 1466.38 Q1236.76 1462.35 1241.85 1462.35 Z" fill="#000000" fill-rule="nonzero" fill-opacity="1" /><path clip-path="url(#clip400)" d="M1736.74 1462.9 L1756.18 1462.9 L1756.18 1464.64 L1745.2 1493.14 L1740.93 1493.14 L1751.26 1466.34 L1736.74 1466.34 L1736.74 1462.9 Z" fill="#000000" fill-rule="nonzero" fill-opacity="1" /><path clip-path="url(#clip400)" d="M1764.2 1462.9 L1780.26 1462.9 L1780.26 1466.34 L1767.95 1466.34 L1767.95 1473.76 Q1768.84 1473.45 1769.73 1473.31 Q1770.62 1473.15 1771.51 1473.15 Q1776.58 1473.15 1779.53 1475.92 Q1782.49 1478.7 1782.49 1483.44 Q1782.49 1488.32 1779.45 1491.03 Q1776.41 1493.73 1770.89 1493.73 Q1768.98 1493.73 1767 1493.4 Q1765.03 1493.08 1762.93 1492.43 L1762.93 1488.32 Q1764.75 1489.31 1766.69 1489.8 Q1768.64 1490.28 1770.8 1490.28 Q1774.31 1490.28 1776.35 1488.44 Q1778.4 1486.6 1778.4 1483.44 Q1778.4 1480.28 1776.35 1478.44 Q1774.31 1476.59 1770.8 1476.59 Q1769.16 1476.59 1767.52 1476.96 Q1765.9 1477.32 1764.2 1478.09 L1764.2 1462.9 Z" fill="#000000" fill-rule="nonzero" fill-opacity="1" /><path clip-path="url(#clip400)" d="M2255 1489.7 L2261.68 1489.7 L2261.68 1466.63 L2254.41 1468.08 L2254.41 1464.36 L2261.64 1462.9 L2265.73 1462.9 L2265.73 1489.7 L2272.42 1489.7 L2272.42 1493.14 L2255 1493.14 L2255 1489.7 Z" fill="#000000" fill-rule="nonzero" fill-opacity="1" /><path clip-path="url(#clip400)" d="M2289.43 1465.59 Q2286.27 1465.59 2284.67 1468.71 Q2283.09 1471.81 2283.09 1478.05 Q2283.09 1484.27 2284.67 1487.39 Q2286.27 1490.49 2289.43 1490.49 Q2292.61 1490.49 2294.19 1487.39 Q2295.79 1484.27 2295.79 1478.05 Q2295.79 1471.81 2294.19 1468.71 Q2292.61 1465.59 2289.43 1465.59 M2289.43 1462.35 Q2294.51 1462.35 2297.19 1466.38 Q2299.88 1470.39 2299.88 1478.05 Q2299.88 1485.69 2297.19 1489.72 Q2294.51 1493.73 2289.43 1493.73 Q2284.35 1493.73 2281.65 1489.72 Q2278.98 1485.69 2278.98 1478.05 Q2278.98 1470.39 2281.65 1466.38 Q2284.35 1462.35 2289.43 1462.35 Z" fill="#000000" fill-rule="nonzero" fill-opacity="1" /><path clip-path="url(#clip400)" d="M2315.82 1465.59 Q2312.66 1465.59 2311.06 1468.71 Q2309.48 1471.81 2309.48 1478.05 Q2309.48 1484.27 2311.06 1487.39 Q2312.66 1490.49 2315.82 1490.49 Q2319 1490.49 2320.58 1487.39 Q2322.18 1484.27 2322.18 1478.05 Q2322.18 1471.81 2320.58 1468.71 Q2319 1465.59 2315.82 1465.59 M2315.82 1462.35 Q2320.91 1462.35 2323.58 1466.38 Q2326.27 1470.39 2326.27 1478.05 Q2326.27 1485.69 2323.58 1489.72 Q2320.91 1493.73 2315.82 1493.73 Q2310.74 1493.73 2308.04 1489.72 Q2305.37 1485.69 2305.37 1478.05 Q2305.37 1470.39 2308.04 1466.38 Q2310.74 1462.35 2315.82 1462.35 Z" fill="#000000" fill-rule="nonzero" fill-opacity="1" /><path clip-path="url(#clip400)" d="M945.975 1549.49 Q940.168 1549.49 937.928 1550.82 Q935.689 1552.15 935.689 1555.35 Q935.689 1557.91 937.355 1559.42 Q939.048 1560.9 941.939 1560.9 Q945.923 1560.9 948.319 1558.09 Q950.741 1555.25 950.741 1550.56 L950.741 1549.49 L945.975 1549.49 M955.532 1547.52 L955.532 1564.16 L950.741 1564.16 L950.741 1559.73 Q949.1 1562.39 946.652 1563.66 Q944.204 1564.91 940.663 1564.91 Q936.183 1564.91 933.527 1562.41 Q930.897 1559.89 930.897 1555.67 Q930.897 1550.74 934.178 1548.24 Q937.485 1545.74 944.022 1545.74 L950.741 1545.74 L950.741 1545.28 Q950.741 1541.97 948.553 1540.17 Q946.392 1538.35 942.459 1538.35 Q939.959 1538.35 937.59 1538.95 Q935.22 1539.55 933.032 1540.74 L933.032 1536.32 Q935.663 1535.3 938.137 1534.81 Q940.61 1534.29 942.954 1534.29 Q949.282 1534.29 952.407 1537.57 Q955.532 1540.85 955.532 1547.52 Z" fill="#000000" fill-rule="nonzero" fill-opacity="1" /><path clip-path="url(#clip400)" d="M970.142 1526.71 L970.142 1534.99 L980.011 1534.99 L980.011 1538.71 L970.142 1538.71 L970.142 1554.55 Q970.142 1558.11 971.105 1559.13 Q972.095 1560.15 975.089 1560.15 L980.011 1560.15 L980.011 1564.16 L975.089 1564.16 Q969.543 1564.16 967.433 1562.1 Q965.324 1560.02 965.324 1554.55 L965.324 1538.71 L961.808 1538.71 L961.808 1534.99 L965.324 1534.99 L965.324 1526.71 L970.142 1526.71 Z" fill="#000000" fill-rule="nonzero" fill-opacity="1" /><path clip-path="url(#clip400)" d="M997.615 1538.35 Q993.761 1538.35 991.522 1541.37 Q989.282 1544.36 989.282 1549.6 Q989.282 1554.83 991.496 1557.85 Q993.735 1560.85 997.615 1560.85 Q1001.44 1560.85 1003.68 1557.83 Q1005.92 1554.81 1005.92 1549.6 Q1005.92 1544.42 1003.68 1541.4 Q1001.44 1538.35 997.615 1538.35 M997.615 1534.29 Q1003.87 1534.29 1007.43 1538.35 Q1011 1542.41 1011 1549.6 Q1011 1556.76 1007.43 1560.85 Q1003.87 1564.91 997.615 1564.91 Q991.339 1564.91 987.772 1560.85 Q984.23 1556.76 984.23 1549.6 Q984.23 1542.41 987.772 1538.35 Q991.339 1534.29 997.615 1534.29 Z" fill="#000000" fill-rule="nonzero" fill-opacity="1" /><path clip-path="url(#clip400)" d="M1041.65 1540.59 Q1043.45 1537.36 1045.95 1535.82 Q1048.45 1534.29 1051.83 1534.29 Q1056.39 1534.29 1058.87 1537.49 Q1061.34 1540.67 1061.34 1546.55 L1061.34 1564.16 L1056.52 1564.16 L1056.52 1546.71 Q1056.52 1542.52 1055.04 1540.48 Q1053.55 1538.45 1050.51 1538.45 Q1046.78 1538.45 1044.62 1540.93 Q1042.46 1543.4 1042.46 1547.67 L1042.46 1564.16 L1037.64 1564.16 L1037.64 1546.71 Q1037.64 1542.49 1036.16 1540.48 Q1034.67 1538.45 1031.57 1538.45 Q1027.9 1538.45 1025.74 1540.95 Q1023.58 1543.43 1023.58 1547.67 L1023.58 1564.16 L1018.76 1564.16 L1018.76 1534.99 L1023.58 1534.99 L1023.58 1539.52 Q1025.22 1536.84 1027.51 1535.56 Q1029.8 1534.29 1032.95 1534.29 Q1036.13 1534.29 1038.34 1535.9 Q1040.58 1537.52 1041.65 1540.59 Z" fill="#000000" fill-rule="nonzero" fill-opacity="1" /><path clip-path="url(#clip400)" d="M1071.57 1557.54 L1077.07 1557.54 L1077.07 1564.16 L1071.57 1564.16 L1071.57 1557.54 Z" fill="#000000" fill-rule="nonzero" fill-opacity="1" /><path clip-path="url(#clip400)" d="M1110.56 1540.59 Q1112.35 1537.36 1114.85 1535.82 Q1117.35 1534.29 1120.74 1534.29 Q1125.3 1534.29 1127.77 1537.49 Q1130.24 1540.67 1130.24 1546.55 L1130.24 1564.16 L1125.43 1564.16 L1125.43 1546.71 Q1125.43 1542.52 1123.94 1540.48 Q1122.46 1538.45 1119.41 1538.45 Q1115.69 1538.45 1113.53 1540.93 Q1111.36 1543.4 1111.36 1547.67 L1111.36 1564.16 L1106.55 1564.16 L1106.55 1546.71 Q1106.55 1542.49 1105.06 1540.48 Q1103.58 1538.45 1100.48 1538.45 Q1096.81 1538.45 1094.65 1540.95 Q1092.48 1543.43 1092.48 1547.67 L1092.48 1564.16 L1087.67 1564.16 L1087.67 1534.99 L1092.48 1534.99 L1092.48 1539.52 Q1094.13 1536.84 1096.42 1535.56 Q1098.71 1534.29 1101.86 1534.29 Q1105.04 1534.29 1107.25 1535.9 Q1109.49 1537.52 1110.56 1540.59 Z" fill="#000000" fill-rule="nonzero" fill-opacity="1" /><path clip-path="url(#clip400)" d="M1139.8 1534.99 L1144.59 1534.99 L1144.59 1564.16 L1139.8 1564.16 L1139.8 1534.99 M1139.8 1523.64 L1144.59 1523.64 L1144.59 1529.7 L1139.8 1529.7 L1139.8 1523.64 Z" fill="#000000" fill-rule="nonzero" fill-opacity="1" /><path clip-path="url(#clip400)" d="M1178.86 1546.55 L1178.86 1564.16 L1174.07 1564.16 L1174.07 1546.71 Q1174.07 1542.57 1172.46 1540.51 Q1170.84 1538.45 1167.61 1538.45 Q1163.73 1538.45 1161.49 1540.93 Q1159.26 1543.4 1159.26 1547.67 L1159.26 1564.16 L1154.44 1564.16 L1154.44 1534.99 L1159.26 1534.99 L1159.26 1539.52 Q1160.97 1536.89 1163.29 1535.59 Q1165.64 1534.29 1168.68 1534.29 Q1173.71 1534.29 1176.29 1537.41 Q1178.86 1540.51 1178.86 1546.55 Z" fill="#000000" fill-rule="nonzero" fill-opacity="1" /><path clip-path="url(#clip400)" d="M1210.58 1573.01 L1210.58 1576.73 L1182.87 1576.73 L1182.87 1573.01 L1210.58 1573.01 Z" fill="#000000" fill-rule="nonzero" fill-opacity="1" /><path clip-path="url(#clip400)" d="M1233.68 1535.85 L1233.68 1540.38 Q1231.65 1539.34 1229.46 1538.82 Q1227.28 1538.3 1224.93 1538.3 Q1221.36 1538.3 1219.57 1539.39 Q1217.8 1540.48 1217.8 1542.67 Q1217.8 1544.34 1219.07 1545.3 Q1220.35 1546.24 1224.2 1547.1 L1225.84 1547.46 Q1230.95 1548.56 1233.08 1550.56 Q1235.24 1552.54 1235.24 1556.11 Q1235.24 1560.17 1232.02 1562.54 Q1228.81 1564.91 1223.19 1564.91 Q1220.84 1564.91 1218.29 1564.44 Q1215.77 1564 1212.95 1563.09 L1212.95 1558.14 Q1215.61 1559.52 1218.19 1560.22 Q1220.77 1560.9 1223.29 1560.9 Q1226.68 1560.9 1228.5 1559.75 Q1230.32 1558.58 1230.32 1556.47 Q1230.32 1554.52 1228.99 1553.48 Q1227.69 1552.44 1223.24 1551.47 L1221.57 1551.08 Q1217.12 1550.15 1215.14 1548.22 Q1213.16 1546.27 1213.16 1542.88 Q1213.16 1538.77 1216.08 1536.53 Q1218.99 1534.29 1224.36 1534.29 Q1227.02 1534.29 1229.36 1534.68 Q1231.7 1535.07 1233.68 1535.85 Z" fill="#000000" fill-rule="nonzero" fill-opacity="1" /><path clip-path="url(#clip400)" d="M1256.13 1549.49 Q1250.32 1549.49 1248.08 1550.82 Q1245.84 1552.15 1245.84 1555.35 Q1245.84 1557.91 1247.51 1559.42 Q1249.2 1560.9 1252.09 1560.9 Q1256.08 1560.9 1258.47 1558.09 Q1260.9 1555.25 1260.9 1550.56 L1260.9 1549.49 L1256.13 1549.49 M1265.69 1547.52 L1265.69 1564.16 L1260.9 1564.16 L1260.9 1559.73 Q1259.25 1562.39 1256.81 1563.66 Q1254.36 1564.91 1250.82 1564.91 Q1246.34 1564.91 1243.68 1562.41 Q1241.05 1559.89 1241.05 1555.67 Q1241.05 1550.74 1244.33 1548.24 Q1247.64 1545.74 1254.18 1545.74 L1260.9 1545.74 L1260.9 1545.28 Q1260.9 1541.97 1258.71 1540.17 Q1256.55 1538.35 1252.61 1538.35 Q1250.11 1538.35 1247.74 1538.95 Q1245.37 1539.55 1243.19 1540.74 L1243.19 1536.32 Q1245.82 1535.3 1248.29 1534.81 Q1250.77 1534.29 1253.11 1534.29 Q1259.44 1534.29 1262.56 1537.57 Q1265.69 1540.85 1265.69 1547.52 Z" fill="#000000" fill-rule="nonzero" fill-opacity="1" /><path clip-path="url(#clip400)" d="M1298.26 1540.59 Q1300.06 1537.36 1302.56 1535.82 Q1305.06 1534.29 1308.45 1534.29 Q1313 1534.29 1315.48 1537.49 Q1317.95 1540.67 1317.95 1546.55 L1317.95 1564.16 L1313.13 1564.16 L1313.13 1546.71 Q1313.13 1542.52 1311.65 1540.48 Q1310.17 1538.45 1307.12 1538.45 Q1303.39 1538.45 1301.23 1540.93 Q1299.07 1543.4 1299.07 1547.67 L1299.07 1564.16 L1294.25 1564.16 L1294.25 1546.71 Q1294.25 1542.49 1292.77 1540.48 Q1291.29 1538.45 1288.19 1538.45 Q1284.51 1538.45 1282.35 1540.95 Q1280.19 1543.43 1280.19 1547.67 L1280.19 1564.16 L1275.37 1564.16 L1275.37 1534.99 L1280.19 1534.99 L1280.19 1539.52 Q1281.83 1536.84 1284.12 1535.56 Q1286.42 1534.29 1289.57 1534.29 Q1292.74 1534.29 1294.96 1535.9 Q1297.2 1537.52 1298.26 1540.59 Z" fill="#000000" fill-rule="nonzero" fill-opacity="1" /><path clip-path="url(#clip400)" d="M1332.14 1559.78 L1332.14 1575.25 L1327.33 1575.25 L1327.33 1534.99 L1332.14 1534.99 L1332.14 1539.42 Q1333.66 1536.81 1335.95 1535.56 Q1338.26 1534.29 1341.47 1534.29 Q1346.78 1534.29 1350.09 1538.5 Q1353.42 1542.72 1353.42 1549.6 Q1353.42 1556.47 1350.09 1560.69 Q1346.78 1564.91 1341.47 1564.91 Q1338.26 1564.91 1335.95 1563.66 Q1333.66 1562.39 1332.14 1559.78 M1348.45 1549.6 Q1348.45 1544.31 1346.26 1541.32 Q1344.1 1538.3 1340.3 1538.3 Q1336.49 1538.3 1334.31 1541.32 Q1332.14 1544.31 1332.14 1549.6 Q1332.14 1554.89 1334.31 1557.91 Q1336.49 1560.9 1340.3 1560.9 Q1344.1 1560.9 1346.26 1557.91 Q1348.45 1554.89 1348.45 1549.6 Z" fill="#000000" fill-rule="nonzero" fill-opacity="1" /><path clip-path="url(#clip400)" d="M1361.36 1523.64 L1366.16 1523.64 L1366.16 1564.16 L1361.36 1564.16 L1361.36 1523.64 Z" fill="#000000" fill-rule="nonzero" fill-opacity="1" /><path clip-path="url(#clip400)" d="M1401.13 1548.37 L1401.13 1550.72 L1379.1 1550.72 Q1379.41 1555.67 1382.07 1558.27 Q1384.75 1560.85 1389.51 1560.85 Q1392.27 1560.85 1394.85 1560.17 Q1397.46 1559.49 1400.01 1558.14 L1400.01 1562.67 Q1397.43 1563.77 1394.72 1564.34 Q1392.01 1564.91 1389.23 1564.91 Q1382.25 1564.91 1378.16 1560.85 Q1374.1 1556.79 1374.1 1549.86 Q1374.1 1542.7 1377.95 1538.5 Q1381.83 1534.29 1388.39 1534.29 Q1394.28 1534.29 1397.69 1538.09 Q1401.13 1541.86 1401.13 1548.37 M1396.34 1546.97 Q1396.29 1543.04 1394.12 1540.69 Q1391.99 1538.35 1388.45 1538.35 Q1384.44 1538.35 1382.01 1540.61 Q1379.62 1542.88 1379.25 1546.99 L1396.34 1546.97 Z" fill="#000000" fill-rule="nonzero" fill-opacity="1" /><path clip-path="url(#clip400)" d="M1427.59 1535.85 L1427.59 1540.38 Q1425.56 1539.34 1423.37 1538.82 Q1421.18 1538.3 1418.84 1538.3 Q1415.27 1538.3 1413.47 1539.39 Q1411.7 1540.48 1411.7 1542.67 Q1411.7 1544.34 1412.98 1545.3 Q1414.25 1546.24 1418.11 1547.1 L1419.75 1547.46 Q1424.85 1548.56 1426.99 1550.56 Q1429.15 1552.54 1429.15 1556.11 Q1429.15 1560.17 1425.92 1562.54 Q1422.72 1564.91 1417.09 1564.91 Q1414.75 1564.91 1412.2 1564.44 Q1409.67 1564 1406.86 1563.09 L1406.86 1558.14 Q1409.51 1559.52 1412.09 1560.22 Q1414.67 1560.9 1417.2 1560.9 Q1420.58 1560.9 1422.4 1559.75 Q1424.23 1558.58 1424.23 1556.47 Q1424.23 1554.52 1422.9 1553.48 Q1421.6 1552.44 1417.14 1551.47 L1415.48 1551.08 Q1411.02 1550.15 1409.05 1548.22 Q1407.07 1546.27 1407.07 1542.88 Q1407.07 1538.77 1409.98 1536.53 Q1412.9 1534.29 1418.26 1534.29 Q1420.92 1534.29 1423.26 1534.68 Q1425.61 1535.07 1427.59 1535.85 Z" fill="#000000" fill-rule="nonzero" fill-opacity="1" /><path clip-path="url(#clip400)" d="M1458.94 1573.01 L1458.94 1576.73 L1431.23 1576.73 L1431.23 1573.01 L1458.94 1573.01 Z" fill="#000000" fill-rule="nonzero" fill-opacity="1" /><path clip-path="url(#clip400)" d="M1482.04 1535.85 L1482.04 1540.38 Q1480.01 1539.34 1477.82 1538.82 Q1475.63 1538.3 1473.29 1538.3 Q1469.72 1538.3 1467.93 1539.39 Q1466.15 1540.48 1466.15 1542.67 Q1466.15 1544.34 1467.43 1545.3 Q1468.71 1546.24 1472.56 1547.1 L1474.2 1547.46 Q1479.31 1548.56 1481.44 1550.56 Q1483.6 1552.54 1483.6 1556.11 Q1483.6 1560.17 1480.37 1562.54 Q1477.17 1564.91 1471.55 1564.91 Q1469.2 1564.91 1466.65 1564.44 Q1464.12 1564 1461.31 1563.09 L1461.31 1558.14 Q1463.97 1559.52 1466.55 1560.22 Q1469.12 1560.9 1471.65 1560.9 Q1475.03 1560.9 1476.86 1559.75 Q1478.68 1558.58 1478.68 1556.47 Q1478.68 1554.52 1477.35 1553.48 Q1476.05 1552.44 1471.6 1551.47 L1469.93 1551.08 Q1465.48 1550.15 1463.5 1548.22 Q1461.52 1546.27 1461.52 1542.88 Q1461.52 1538.77 1464.44 1536.53 Q1467.35 1534.29 1472.72 1534.29 Q1475.37 1534.29 1477.72 1534.68 Q1480.06 1535.07 1482.04 1535.85 Z" fill="#000000" fill-rule="nonzero" fill-opacity="1" /><path clip-path="url(#clip400)" d="M1495.87 1559.78 L1495.87 1575.25 L1491.05 1575.25 L1491.05 1534.99 L1495.87 1534.99 L1495.87 1539.42 Q1497.38 1536.81 1499.67 1535.56 Q1501.99 1534.29 1505.19 1534.29 Q1510.5 1534.29 1513.81 1538.5 Q1517.14 1542.72 1517.14 1549.6 Q1517.14 1556.47 1513.81 1560.69 Q1510.5 1564.91 1505.19 1564.91 Q1501.99 1564.91 1499.67 1563.66 Q1497.38 1562.39 1495.87 1559.78 M1512.17 1549.6 Q1512.17 1544.31 1509.98 1541.32 Q1507.82 1538.3 1504.02 1538.3 Q1500.22 1538.3 1498.03 1541.32 Q1495.87 1544.31 1495.87 1549.6 Q1495.87 1554.89 1498.03 1557.91 Q1500.22 1560.9 1504.02 1560.9 Q1507.82 1560.9 1509.98 1557.91 Q1512.17 1554.89 1512.17 1549.6 Z" fill="#000000" fill-rule="nonzero" fill-opacity="1" /><path clip-path="url(#clip400)" d="M1525.09 1523.64 L1529.88 1523.64 L1529.88 1564.16 L1525.09 1564.16 L1525.09 1523.64 Z" fill="#000000" fill-rule="nonzero" fill-opacity="1" /><path clip-path="url(#clip400)" d="M1539.9 1534.99 L1544.7 1534.99 L1544.7 1564.16 L1539.9 1564.16 L1539.9 1534.99 M1539.9 1523.64 L1544.7 1523.64 L1544.7 1529.7 L1539.9 1529.7 L1539.9 1523.64 Z" fill="#000000" fill-rule="nonzero" fill-opacity="1" /><path clip-path="url(#clip400)" d="M1559.46 1526.71 L1559.46 1534.99 L1569.33 1534.99 L1569.33 1538.71 L1559.46 1538.71 L1559.46 1554.55 Q1559.46 1558.11 1560.42 1559.13 Q1561.41 1560.15 1564.41 1560.15 L1569.33 1560.15 L1569.33 1564.16 L1564.41 1564.16 Q1558.86 1564.16 1556.75 1562.1 Q1554.64 1560.02 1554.64 1554.55 L1554.64 1538.71 L1551.13 1538.71 L1551.13 1534.99 L1554.64 1534.99 L1554.64 1526.71 L1559.46 1526.71 Z" fill="#000000" fill-rule="nonzero" fill-opacity="1" /><polyline clip-path="url(#clip402)" style="stroke:#000000; stroke-linecap:round; stroke-linejoin:round; stroke-width:2; stroke-opacity:0.1; fill:none" points="147.472,1273.57 2352.76,1273.57 "/>
<polyline clip-path="url(#clip402)" style="stroke:#000000; stroke-linecap:round; stroke-linejoin:round; stroke-width:2; stroke-opacity:0.1; fill:none" points="147.472,1027.51 2352.76,1027.51 "/>
<polyline clip-path="url(#clip402)" style="stroke:#000000; stroke-linecap:round; stroke-linejoin:round; stroke-width:2; stroke-opacity:0.1; fill:none" points="147.472,781.448 2352.76,781.448 "/>
<polyline clip-path="url(#clip402)" style="stroke:#000000; stroke-linecap:round; stroke-linejoin:round; stroke-width:2; stroke-opacity:0.1; fill:none" points="147.472,535.385 2352.76,535.385 "/>
<polyline clip-path="url(#clip402)" style="stroke:#000000; stroke-linecap:round; stroke-linejoin:round; stroke-width:2; stroke-opacity:0.1; fill:none" points="147.472,289.323 2352.76,289.323 "/>
<polyline clip-path="url(#clip400)" style="stroke:#000000; stroke-linecap:round; stroke-linejoin:round; stroke-width:4; stroke-opacity:1; fill:none" points="147.472,1436.14 147.472,47.2441 "/>
<polyline clip-path="url(#clip400)" style="stroke:#000000; stroke-linecap:round; stroke-linejoin:round; stroke-width:4; stroke-opacity:1; fill:none" points="147.472,1273.57 166.37,1273.57 "/>
<polyline clip-path="url(#clip400)" style="stroke:#000000; stroke-linecap:round; stroke-linejoin:round; stroke-width:4; stroke-opacity:1; fill:none" points="147.472,1027.51 166.37,1027.51 "/>
<polyline clip-path="url(#clip400)" style="stroke:#000000; stroke-linecap:round; stroke-linejoin:round; stroke-width:4; stroke-opacity:1; fill:none" points="147.472,781.448 166.37,781.448 "/>
<polyline clip-path="url(#clip400)" style="stroke:#000000; stroke-linecap:round; stroke-linejoin:round; stroke-width:4; stroke-opacity:1; fill:none" points="147.472,535.385 166.37,535.385 "/>
<polyline clip-path="url(#clip400)" style="stroke:#000000; stroke-linecap:round; stroke-linejoin:round; stroke-width:4; stroke-opacity:1; fill:none" points="147.472,289.323 166.37,289.323 "/>
<path clip-path="url(#clip400)" d="M66.1628 1272.39 Q69.0997 1273.02 70.7403 1275 Q72.4012 1276.99 72.4012 1279.9 Q72.4012 1284.38 69.3225 1286.83 Q66.2438 1289.28 60.5725 1289.28 Q58.6686 1289.28 56.6431 1288.9 Q54.6379 1288.53 52.491 1287.78 L52.491 1283.83 Q54.1923 1284.82 56.2178 1285.33 Q58.2432 1285.84 60.451 1285.84 Q64.2993 1285.84 66.3045 1284.32 Q68.33 1282.8 68.33 1279.9 Q68.33 1277.23 66.4463 1275.73 Q64.5829 1274.21 61.2409 1274.21 L57.7166 1274.21 L57.7166 1270.85 L61.4029 1270.85 Q64.4209 1270.85 66.021 1269.65 Q67.6211 1268.44 67.6211 1266.17 Q67.6211 1263.84 65.9602 1262.6 Q64.3196 1261.35 61.2409 1261.35 Q59.5598 1261.35 57.6356 1261.71 Q55.7114 1262.08 53.4024 1262.85 L53.4024 1259.2 Q55.7317 1258.55 57.7571 1258.23 Q59.8028 1257.91 61.6055 1257.91 Q66.264 1257.91 68.9781 1260.03 Q71.6922 1262.14 71.6922 1265.74 Q71.6922 1268.26 70.2542 1270 Q68.8161 1271.72 66.1628 1272.39 Z" fill="#000000" fill-rule="nonzero" fill-opacity="1" /><path clip-path="url(#clip400)" d="M80.1586 1283.55 L84.4323 1283.55 L84.4323 1288.69 L80.1586 1288.69 L80.1586 1283.55 Z" fill="#000000" fill-rule="nonzero" fill-opacity="1" /><path clip-path="url(#clip400)" d="M94.0532 1285.25 L100.737 1285.25 L100.737 1262.18 L93.4659 1263.64 L93.4659 1259.91 L100.697 1258.45 L104.788 1258.45 L104.788 1285.25 L111.472 1285.25 L111.472 1288.69 L94.0532 1288.69 L94.0532 1285.25 Z" fill="#000000" fill-rule="nonzero" fill-opacity="1" /><path clip-path="url(#clip400)" d="M66.4868 1026.33 Q69.4237 1026.95 71.0644 1028.94 Q72.7252 1030.92 72.7252 1033.84 Q72.7252 1038.32 69.6465 1040.77 Q66.5679 1043.22 60.8966 1043.22 Q58.9927 1043.22 56.9672 1042.83 Q54.962 1042.47 52.815 1041.72 L52.815 1037.77 Q54.5164 1038.76 56.5419 1039.27 Q58.5673 1039.77 60.7751 1039.77 Q64.6234 1039.77 66.6286 1038.26 Q68.6541 1036.74 68.6541 1033.84 Q68.6541 1031.17 66.7704 1029.67 Q64.907 1028.15 61.565 1028.15 L58.0407 1028.15 L58.0407 1024.79 L61.727 1024.79 Q64.7449 1024.79 66.3451 1023.59 Q67.9452 1022.38 67.9452 1020.11 Q67.9452 1017.78 66.2843 1016.54 Q64.6437 1015.29 61.565 1015.29 Q59.8839 1015.29 57.9597 1015.65 Q56.0355 1016.02 53.7265 1016.79 L53.7265 1013.14 Q56.0558 1012.49 58.0812 1012.17 Q60.1269 1011.84 61.9296 1011.84 Q66.5881 1011.84 69.3022 1013.97 Q72.0163 1016.08 72.0163 1019.68 Q72.0163 1022.19 70.5782 1023.94 Q69.1402 1025.66 66.4868 1026.33 Z" fill="#000000" fill-rule="nonzero" fill-opacity="1" /><path clip-path="url(#clip400)" d="M80.4827 1037.49 L84.7564 1037.49 L84.7564 1042.63 L80.4827 1042.63 L80.4827 1037.49 Z" fill="#000000" fill-rule="nonzero" fill-opacity="1" /><path clip-path="url(#clip400)" d="M97.1927 1039.19 L111.472 1039.19 L111.472 1042.63 L92.2708 1042.63 L92.2708 1039.19 Q94.6001 1036.78 98.6105 1032.73 Q102.641 1028.65 103.674 1027.48 Q105.639 1025.27 106.408 1023.75 Q107.198 1022.21 107.198 1020.74 Q107.198 1018.32 105.497 1016.81 Q103.816 1015.29 101.102 1015.29 Q99.1776 1015.29 97.0307 1015.95 Q94.9039 1016.62 92.4734 1017.98 L92.4734 1013.85 Q94.9444 1012.86 97.0914 1012.35 Q99.2384 1011.84 101.021 1011.84 Q105.72 1011.84 108.515 1014.19 Q111.31 1016.54 111.31 1020.47 Q111.31 1022.34 110.601 1024.02 Q109.913 1025.68 108.069 1027.95 Q107.563 1028.53 104.849 1031.35 Q102.135 1034.14 97.1927 1039.19 Z" fill="#000000" fill-rule="nonzero" fill-opacity="1" /><path clip-path="url(#clip400)" d="M65.6564 780.263 Q68.5933 780.891 70.2339 782.876 Q71.8948 784.861 71.8948 787.777 Q71.8948 792.253 68.8161 794.704 Q65.7374 797.155 60.0662 797.155 Q58.1622 797.155 56.1368 796.77 Q54.1316 796.406 51.9846 795.656 L51.9846 791.707 Q53.686 792.699 55.7114 793.205 Q57.7369 793.712 59.9446 793.712 Q63.793 793.712 65.7982 792.193 Q67.8236 790.674 67.8236 787.777 Q67.8236 785.104 65.94 783.605 Q64.0765 782.086 60.7346 782.086 L57.2103 782.086 L57.2103 778.723 L60.8966 778.723 Q63.9145 778.723 65.5146 777.528 Q67.1147 776.313 67.1147 774.045 Q67.1147 771.715 65.4539 770.48 Q63.8132 769.224 60.7346 769.224 Q59.0534 769.224 57.1292 769.589 Q55.2051 769.953 52.8961 770.723 L52.8961 767.077 Q55.2253 766.429 57.2508 766.105 Q59.2965 765.781 61.0991 765.781 Q65.7577 765.781 68.4718 767.907 Q71.1859 770.014 71.1859 773.619 Q71.1859 776.131 69.7478 777.873 Q68.3097 779.594 65.6564 780.263 Z" fill="#000000" fill-rule="nonzero" fill-opacity="1" /><path clip-path="url(#clip400)" d="M79.6523 791.423 L83.926 791.423 L83.926 796.568 L79.6523 796.568 L79.6523 791.423 Z" fill="#000000" fill-rule="nonzero" fill-opacity="1" /><path clip-path="url(#clip400)" d="M105.234 780.263 Q108.171 780.891 109.811 782.876 Q111.472 784.861 111.472 787.777 Q111.472 792.253 108.393 794.704 Q105.315 797.155 99.6435 797.155 Q97.7396 797.155 95.7141 796.77 Q93.7089 796.406 91.5619 795.656 L91.5619 791.707 Q93.2633 792.699 95.2888 793.205 Q97.3142 793.712 99.522 793.712 Q103.37 793.712 105.376 792.193 Q107.401 790.674 107.401 787.777 Q107.401 785.104 105.517 783.605 Q103.654 782.086 100.312 782.086 L96.7876 782.086 L96.7876 778.723 L100.474 778.723 Q103.492 778.723 105.092 777.528 Q106.692 776.313 106.692 774.045 Q106.692 771.715 105.031 770.48 Q103.391 769.224 100.312 769.224 Q98.6308 769.224 96.7066 769.589 Q94.7824 769.953 92.4734 770.723 L92.4734 767.077 Q94.8027 766.429 96.8281 766.105 Q98.8738 765.781 100.676 765.781 Q105.335 765.781 108.049 767.907 Q110.763 770.014 110.763 773.619 Q110.763 776.131 109.325 777.873 Q107.887 779.594 105.234 780.263 Z" fill="#000000" fill-rule="nonzero" fill-opacity="1" /><path clip-path="url(#clip400)" d="M64.6639 534.2 Q67.6008 534.828 69.2414 536.813 Q70.9023 538.798 70.9023 541.715 Q70.9023 546.191 67.8236 548.642 Q64.7449 551.092 59.0737 551.092 Q57.1698 551.092 55.1443 550.708 Q53.1391 550.343 50.9921 549.594 L50.9921 545.644 Q52.6935 546.636 54.719 547.143 Q56.7444 547.649 58.9522 547.649 Q62.8005 547.649 64.8057 546.13 Q66.8312 544.611 66.8312 541.715 Q66.8312 539.041 64.9475 537.542 Q63.0841 536.023 59.7421 536.023 L56.2178 536.023 L56.2178 532.661 L59.9041 532.661 Q62.922 532.661 64.5221 531.466 Q66.1223 530.251 66.1223 527.982 Q66.1223 525.653 64.4614 524.417 Q62.8208 523.161 59.7421 523.161 Q58.061 523.161 56.1368 523.526 Q54.2126 523.891 51.9036 524.66 L51.9036 521.014 Q54.2328 520.366 56.2583 520.042 Q58.304 519.718 60.1067 519.718 Q64.7652 519.718 67.4793 521.845 Q70.1934 523.951 70.1934 527.557 Q70.1934 530.068 68.7553 531.81 Q67.3173 533.532 64.6639 534.2 Z" fill="#000000" fill-rule="nonzero" fill-opacity="1" /><path clip-path="url(#clip400)" d="M78.6598 545.36 L82.9335 545.36 L82.9335 550.505 L78.6598 550.505 L78.6598 545.36 Z" fill="#000000" fill-rule="nonzero" fill-opacity="1" /><path clip-path="url(#clip400)" d="M103.087 523.83 L92.7569 539.973 L103.087 539.973 L103.087 523.83 M102.013 520.265 L107.158 520.265 L107.158 539.973 L111.472 539.973 L111.472 543.375 L107.158 543.375 L107.158 550.505 L103.087 550.505 L103.087 543.375 L89.4352 543.375 L89.4352 539.426 L102.013 520.265 Z" fill="#000000" fill-rule="nonzero" fill-opacity="1" /><path clip-path="url(#clip400)" d="M65.9602 288.138 Q68.8971 288.766 70.5377 290.75 Q72.1986 292.735 72.1986 295.652 Q72.1986 300.128 69.1199 302.579 Q66.0412 305.03 60.37 305.03 Q58.466 305.03 56.4406 304.645 Q54.4354 304.28 52.2884 303.531 L52.2884 299.581 Q53.9898 300.574 56.0152 301.08 Q58.0407 301.587 60.2484 301.587 Q64.0968 301.587 66.102 300.068 Q68.1275 298.548 68.1275 295.652 Q68.1275 292.978 66.2438 291.48 Q64.3804 289.961 61.0384 289.961 L57.5141 289.961 L57.5141 286.598 L61.2004 286.598 Q64.2183 286.598 65.8184 285.403 Q67.4185 284.188 67.4185 281.919 Q67.4185 279.59 65.7577 278.355 Q64.1171 277.099 61.0384 277.099 Q59.3572 277.099 57.4331 277.464 Q55.5089 277.828 53.1999 278.598 L53.1999 274.952 Q55.5291 274.304 57.5546 273.98 Q59.6003 273.656 61.4029 273.656 Q66.0615 273.656 68.7756 275.782 Q71.4897 277.889 71.4897 281.494 Q71.4897 284.006 70.0516 285.748 Q68.6136 287.469 65.9602 288.138 Z" fill="#000000" fill-rule="nonzero" fill-opacity="1" /><path clip-path="url(#clip400)" d="M79.9561 299.298 L84.2298 299.298 L84.2298 304.443 L79.9561 304.443 L79.9561 299.298 Z" fill="#000000" fill-rule="nonzero" fill-opacity="1" /><path clip-path="url(#clip400)" d="M93.1823 274.203 L109.244 274.203 L109.244 277.646 L96.9294 277.646 L96.9294 285.059 Q97.8206 284.755 98.7118 284.613 Q99.603 284.451 100.494 284.451 Q105.558 284.451 108.515 287.226 Q111.472 290.001 111.472 294.741 Q111.472 299.622 108.434 302.336 Q105.396 305.03 99.8663 305.03 Q97.9624 305.03 95.9774 304.706 Q94.0127 304.382 91.9063 303.734 L91.9063 299.622 Q93.7292 300.614 95.6736 301.101 Q97.618 301.587 99.7853 301.587 Q103.289 301.587 105.335 299.743 Q107.381 297.9 107.381 294.741 Q107.381 291.581 105.335 289.738 Q103.289 287.895 99.7853 287.895 Q98.1447 287.895 96.504 288.259 Q94.8837 288.624 93.1823 289.393 L93.1823 274.203 Z" fill="#000000" fill-rule="nonzero" fill-opacity="1" /><polyline clip-path="url(#clip402)" style="stroke:#009af9; stroke-linecap:round; stroke-linejoin:round; stroke-width:4; stroke-opacity:1; fill:none" points="209.886,1240.85 231.115,1313.41 252.344,1368.98 273.573,1323.61 294.802,1221.29 316.032,1371.91 337.261,1396.83 358.49,1298.04 379.719,1309.26 422.177,1240.31 443.406,1224.89 485.865,1228.41 528.323,1118.93 592.01,1154.07 655.698,1037.92 719.385,1197.3 804.302,1073.22 889.219,973.991 995.364,982.522 1122.74,752.202 1250.11,732.689 1398.72,467.217 1589.78,530.731 1780.84,216.734 2014.36,121.962 2290.34,86.5525 "/>
<path clip-path="url(#clip400)" d="M220.982 184.261 L487.386 184.261 L487.386 93.5406 L220.982 93.5406  Z" fill="#ffffff" fill-rule="evenodd" fill-opacity="1"/>
<polyline clip-path="url(#clip400)" style="stroke:#000000; stroke-linecap:round; stroke-linejoin:round; stroke-width:4; stroke-opacity:1; fill:none" points="220.982,184.261 487.386,184.261 487.386,93.5406 220.982,93.5406 220.982,184.261 "/>
<polyline clip-path="url(#clip400)" style="stroke:#009af9; stroke-linecap:round; stroke-linejoin:round; stroke-width:3.5; stroke-opacity:1; fill:none" points="245.485,138.901 392.504,138.901 "/>
<path clip-path="url(#clip400)" d="M429.119 156.127 Q427.539 160.178 426.04 161.414 Q424.541 162.649 422.03 162.649 L419.053 162.649 L419.053 159.53 L421.24 159.53 Q422.779 159.53 423.63 158.801 Q424.481 158.072 425.514 155.357 L426.182 153.656 L417.007 131.336 L420.956 131.336 L428.046 149.079 L435.135 131.336 L439.084 131.336 L429.119 156.127 Z" fill="#000000" fill-rule="nonzero" fill-opacity="1" /><path clip-path="url(#clip400)" d="M445.464 150.577 L452.148 150.577 L452.148 127.507 L444.877 128.966 L444.877 125.239 L452.108 123.781 L456.199 123.781 L456.199 150.577 L462.883 150.577 L462.883 154.021 L445.464 154.021 L445.464 150.577 Z" fill="#000000" fill-rule="nonzero" fill-opacity="1" /></svg>
