<?xml version="1.0" encoding="utf-8"?>
<svg xmlns="http://www.w3.org/2000/svg" xmlns:xlink="http://www.w3.org/1999/xlink" width="600" height="400" viewBox="0 0 2400 1600">
<defs>
  <clipPath id="clip650">
    <rect x="0" y="0" width="2400" height="1600"/>
  </clipPath>
</defs>
<path clip-path="url(#clip650)" d="M0 1600 L2400 1600 L2400 0 L0 0  Z" fill="#ffffff" fill-rule="evenodd" fill-opacity="1"/>
<defs>
  <clipPath id="clip651">
    <rect x="480" y="0" width="1681" height="1600"/>
  </clipPath>
</defs>
<path clip-path="url(#clip650)" d="M147.472 1436.14 L2352.76 1436.14 L2352.76 47.2441 L147.472 47.2441  Z" fill="#ffffff" fill-rule="evenodd" fill-opacity="1"/>
<defs>
  <clipPath id="clip652">
    <rect x="147" y="47" width="2206" height="1390"/>
  </clipPath>
</defs>
<polyline clip-path="url(#clip652)" style="stroke:#000000; stroke-linecap:round; stroke-linejoin:round; stroke-width:2; stroke-opacity:0.1; fill:none" points="167.428,1436.14 167.428,47.2441 "/>
<polyline clip-path="url(#clip652)" style="stroke:#000000; stroke-linecap:round; stroke-linejoin:round; stroke-width:2; stroke-opacity:0.1; fill:none" points="698.156,1436.14 698.156,47.2441 "/>
<polyline clip-path="url(#clip652)" style="stroke:#000000; stroke-linecap:round; stroke-linejoin:round; stroke-width:2; stroke-opacity:0.1; fill:none" points="1228.88,1436.14 1228.88,47.2441 "/>
<polyline clip-path="url(#clip652)" style="stroke:#000000; stroke-linecap:round; stroke-linejoin:round; stroke-width:2; stroke-opacity:0.1; fill:none" points="1759.61,1436.14 1759.61,47.2441 "/>
<polyline clip-path="url(#clip652)" style="stroke:#000000; stroke-linecap:round; stroke-linejoin:round; stroke-width:2; stroke-opacity:0.1; fill:none" points="2290.34,1436.14 2290.34,47.2441 "/>
<polyline clip-path="url(#clip650)" style="stroke:#000000; stroke-linecap:round; stroke-linejoin:round; stroke-width:4; stroke-opacity:1; fill:none" points="147.472,1436.14 2352.76,1436.14 "/>
<polyline clip-path="url(#clip650)" style="stroke:#000000; stroke-linecap:round; stroke-linejoin:round; stroke-width:4; stroke-opacity:1; fill:none" points="167.428,1436.14 167.428,1417.24 "/>
<polyline clip-path="url(#clip650)" style="stroke:#000000; stroke-linecap:round; stroke-linejoin:round; stroke-width:4; stroke-opacity:1; fill:none" points="698.156,1436.14 698.156,1417.24 "/>
<polyline clip-path="url(#clip650)" style="stroke:#000000; stroke-linecap:round; stroke-linejoin:round; stroke-width:4; stroke-opacity:1; fill:none" points="1228.88,1436.14 1228.88,1417.24 "/>
<polyline clip-path="url(#clip650)" style="stroke:#000000; stroke-linecap:round; stroke-linejoin:round; stroke-width:4; stroke-opacity:1; fill:none" points="1759.61,1436.14 1759.61,1417.24 "/>
<polyline clip-path="url(#clip650)" style="stroke:#000000; stroke-linecap:round; stroke-linejoin:round; stroke-width:4; stroke-opacity:1; fill:none" points="2290.34,1436.14 2290.34,1417.24 "/>
<path clip-path="url(#clip650)" d="M167.428 1465.59 Q164.268 1465.59 162.668 1468.71 Q161.088 1471.81 161.088 1478.05 Q161.088 1484.27 162.668 1487.39 Q164.268 1490.49 167.428 1490.49 Q170.607 1490.49 172.187 1487.39 Q173.787 1484.27 173.787 1478.05 Q173.787 1471.81 172.187 1468.71 Q170.607 1465.59 167.428 1465.59 M167.428 1462.35 Q172.511 1462.35 175.185 1466.38 Q177.879 1470.39 177.879 1478.05 Q177.879 1485.69 175.185 1489.72 Q172.511 1493.73 167.428 1493.73 Q162.344 1493.73 159.65 1489.72 Q156.976 1485.69 156.976 1478.05 Q156.976 1470.39 159.65 1466.38 Q162.344 1462.35 167.428 1462.35 Z" fill="#000000" fill-rule="nonzero" fill-opacity="1" /><path clip-path="url(#clip650)" d="M680.018 1489.7 L694.298 1489.7 L694.298 1493.14 L675.096 1493.14 L675.096 1489.7 Q677.426 1487.29 681.436 1483.24 Q685.467 1479.16 686.5 1477.99 Q688.464 1475.78 689.234 1474.26 Q690.024 1472.72 690.024 1471.24 Q690.024 1468.83 688.323 1467.32 Q686.642 1465.8 683.927 1465.8 Q682.003 1465.8 679.856 1466.46 Q677.73 1467.13 675.299 1468.49 L675.299 1464.36 Q677.77 1463.37 679.917 1462.86 Q682.064 1462.35 683.846 1462.35 Q688.545 1462.35 691.341 1464.7 Q694.136 1467.05 694.136 1470.98 Q694.136 1472.84 693.427 1474.53 Q692.738 1476.19 690.895 1478.46 Q690.389 1479.04 687.674 1481.86 Q684.96 1484.65 680.018 1489.7 Z" fill="#000000" fill-rule="nonzero" fill-opacity="1" /><path clip-path="url(#clip650)" d="M702.926 1462.9 L718.988 1462.9 L718.988 1466.34 L706.673 1466.34 L706.673 1473.76 Q707.564 1473.45 708.456 1473.31 Q709.347 1473.15 710.238 1473.15 Q715.302 1473.15 718.259 1475.92 Q721.216 1478.7 721.216 1483.44 Q721.216 1488.32 718.178 1491.03 Q715.14 1493.73 709.61 1493.73 Q707.706 1493.73 705.721 1493.4 Q703.757 1493.08 701.65 1492.43 L701.65 1488.32 Q703.473 1489.31 705.417 1489.8 Q707.362 1490.28 709.529 1490.28 Q713.033 1490.28 715.079 1488.44 Q717.125 1486.6 717.125 1483.44 Q717.125 1480.28 715.079 1478.44 Q713.033 1476.59 709.529 1476.59 Q707.888 1476.59 706.248 1476.96 Q704.628 1477.32 702.926 1478.09 L702.926 1462.9 Z" fill="#000000" fill-rule="nonzero" fill-opacity="1" /><path clip-path="url(#clip650)" d="M1206.75 1462.9 L1222.81 1462.9 L1222.81 1466.34 L1210.49 1466.34 L1210.49 1473.76 Q1211.38 1473.45 1212.28 1473.31 Q1213.17 1473.15 1214.06 1473.15 Q1219.12 1473.15 1222.08 1475.92 Q1225.04 1478.7 1225.04 1483.44 Q1225.04 1488.32 1222 1491.03 Q1218.96 1493.73 1213.43 1493.73 Q1211.53 1493.73 1209.54 1493.4 Q1207.58 1493.08 1205.47 1492.43 L1205.47 1488.32 Q1207.29 1489.31 1209.24 1489.8 Q1211.18 1490.28 1213.35 1490.28 Q1216.85 1490.28 1218.9 1488.44 Q1220.95 1486.6 1220.95 1483.44 Q1220.95 1480.28 1218.9 1478.44 Q1216.85 1476.59 1213.35 1476.59 Q1211.71 1476.59 1210.07 1476.96 Q1208.45 1477.32 1206.75 1478.09 L1206.75 1462.9 Z" fill="#000000" fill-rule="nonzero" fill-opacity="1" /><path clip-path="url(#clip650)" d="M1241.85 1465.59 Q1238.69 1465.59 1237.09 1468.71 Q1235.51 1471.81 1235.51 1478.05 Q1235.51 1484.27 1237.09 1487.39 Q1238.69 1490.49 1241.85 1490.49 Q1245.03 1490.49 1246.61 1487.39 Q1248.21 1484.27 1248.21 1478.05 Q1248.21 1471.81 1246.61 1468.71 Q1245.03 1465.59 1241.85 1465.59 M1241.85 1462.35 Q1246.93 1462.35 1249.61 1466.38 Q1252.3 1470.39 1252.3 1478.05 Q1252.3 1485.69 1249.61 1489.72 Q1246.93 1493.73 1241.85 1493.73 Q1236.76 1493.73 1234.07 1489.72 Q1231.4 1485.69 1231.4 1478.05 Q1231.4 1470.39 1234.07 1466.38 Q1236.76 1462.35 1241.85 1462.35 Z" fill="#000000" fill-rule="nonzero" fill-opacity="1" /><path clip-path="url(#clip650)" d="M1736.74 1462.9 L1756.18 1462.9 L1756.18 1464.64 L1745.2 1493.14 L1740.93 1493.14 L1751.26 1466.34 L1736.74 1466.34 L1736.74 1462.9 Z" fill="#000000" fill-rule="nonzero" fill-opacity="1" /><path clip-path="url(#clip650)" d="M1764.2 1462.9 L1780.26 1462.9 L1780.26 1466.34 L1767.95 1466.34 L1767.95 1473.76 Q1768.84 1473.45 1769.73 1473.31 Q1770.62 1473.15 1771.51 1473.15 Q1776.58 1473.15 1779.53 1475.92 Q1782.49 1478.7 1782.49 1483.44 Q1782.49 1488.32 1779.45 1491.03 Q1776.41 1493.73 1770.89 1493.73 Q1768.98 1493.73 1767 1493.4 Q1765.03 1493.08 1762.93 1492.43 L1762.93 1488.32 Q1764.75 1489.31 1766.69 1489.8 Q1768.64 1490.28 1770.8 1490.28 Q1774.31 1490.28 1776.35 1488.44 Q1778.4 1486.6 1778.4 1483.44 Q1778.4 1480.28 1776.35 1478.44 Q1774.31 1476.59 1770.8 1476.59 Q1769.16 1476.59 1767.52 1476.96 Q1765.9 1477.32 1764.2 1478.09 L1764.2 1462.9 Z" fill="#000000" fill-rule="nonzero" fill-opacity="1" /><path clip-path="url(#clip650)" d="M2255 1489.7 L2261.68 1489.7 L2261.68 1466.63 L2254.41 1468.08 L2254.41 1464.36 L2261.64 1462.9 L2265.73 1462.9 L2265.73 1489.7 L2272.42 1489.7 L2272.42 1493.14 L2255 1493.14 L2255 1489.7 Z" fill="#000000" fill-rule="nonzero" fill-opacity="1" /><path clip-path="url(#clip650)" d="M2289.43 1465.59 Q2286.27 1465.59 2284.67 1468.71 Q2283.09 1471.81 2283.09 1478.05 Q2283.09 1484.27 2284.67 1487.39 Q2286.27 1490.49 2289.43 1490.49 Q2292.61 1490.49 2294.19 1487.39 Q2295.79 1484.27 2295.79 1478.05 Q2295.79 1471.81 2294.19 1468.71 Q2292.61 1465.59 2289.43 1465.59 M2289.43 1462.35 Q2294.51 1462.35 2297.19 1466.38 Q2299.88 1470.39 2299.88 1478.05 Q2299.88 1485.69 2297.19 1489.72 Q2294.51 1493.73 2289.43 1493.73 Q2284.35 1493.73 2281.65 1489.72 Q2278.98 1485.69 2278.98 1478.05 Q2278.98 1470.39 2281.65 1466.38 Q2284.35 1462.35 2289.43 1462.35 Z" fill="#000000" fill-rule="nonzero" fill-opacity="1" /><path clip-path="url(#clip650)" d="M2315.82 1465.59 Q2312.66 1465.59 2311.06 1468.71 Q2309.48 1471.81 2309.48 1478.05 Q2309.48 1484.27 2311.06 1487.39 Q2312.66 1490.49 2315.82 1490.49 Q2319 1490.49 2320.58 1487.39 Q2322.18 1484.27 2322.18 1478.05 Q2322.18 1471.81 2320.58 1468.71 Q2319 1465.59 2315.82 1465.59 M2315.82 1462.35 Q2320.91 1462.35 2323.58 1466.38 Q2326.27 1470.39 2326.27 1478.05 Q2326.27 1485.69 2323.58 1489.72 Q2320.91 1493.73 2315.82 1493.73 Q2310.74 1493.73 2308.04 1489.72 Q2305.37 1485.69 2305.37 1478.05 Q2305.37 1470.39 2308.04 1466.38 Q2310.74 1462.35 2315.82 1462.35 Z" fill="#000000" fill-rule="nonzero" fill-opacity="1" /><path clip-path="url(#clip650)" d="M945.975 1549.49 Q940.168 1549.49 937.928 1550.82 Q935.689 1552.15 935.689 1555.35 Q935.689 1557.91 937.355 1559.42 Q939.048 1560.9 941.939 1560.9 Q945.923 1560.9 948.319 1558.09 Q950.741 1555.25 950.741 1550.56 L950.741 1549.49 L945.975 1549.49 M955.532 1547.52 L955.532 1564.16 L950.741 1564.16 L950.741 1559.73 Q949.1 1562.39 946.652 1563.66 Q944.204 1564.91 940.663 1564.91 Q936.183 1564.91 933.527 1562.41 Q930.897 1559.89 930.897 1555.67 Q930.897 1550.74 934.178 1548.24 Q937.485 1545.74 944.022 1545.74 L950.741 1545.74 L950.741 1545.28 Q950.741 1541.97 948.553 1540.17 Q946.392 1538.35 942.459 1538.35 Q939.959 1538.35 937.59 1538.95 Q935.22 1539.55 933.032 1540.74 L933.032 1536.32 Q935.663 1535.3 938.137 1534.81 Q940.61 1534.29 942.954 1534.29 Q949.282 1534.29 952.407 1537.57 Q955.532 1540.85 955.532 1547.52 Z" fill="#000000" fill-rule="nonzero" fill-opacity="1" /><path clip-path="url(#clip650)" d="M970.142 1526.71 L970.142 1534.99 L980.011 1534.99 L980.011 1538.71 L970.142 1538.71 L970.142 1554.55 Q970.142 1558.11 971.105 1559.13 Q972.095 1560.15 975.089 1560.15 L980.011 1560.15 L980.011 1564.16 L975.089 1564.16 Q969.543 1564.16 967.433 1562.1 Q965.324 1560.02 965.324 1554.55 L965.324 1538.71 L961.808 1538.71 L961.808 1534.99 L965.324 1534.99 L965.324 1526.71 L970.142 1526.71 Z" fill="#000000" fill-rule="nonzero" fill-opacity="1" /><path clip-path="url(#clip650)" d="M997.615 1538.35 Q993.761 1538.35 991.522 1541.37 Q989.282 1544.36 989.282 1549.6 Q989.282 1554.83 991.496 1557.85 Q993.735 1560.85 997.615 1560.85 Q1001.44 1560.85 1003.68 1557.83 Q1005.92 1554.81 1005.92 1549.6 Q1005.92 1544.42 1003.68 1541.4 Q1001.44 1538.35 997.615 1538.35 M997.615 1534.29 Q1003.87 1534.29 1007.43 1538.35 Q1011 1542.41 1011 1549.6 Q1011 1556.76 1007.43 1560.85 Q1003.87 1564.91 997.615 1564.91 Q991.339 1564.91 987.772 1560.85 Q984.23 1556.76 984.23 1549.6 Q984.23 1542.41 987.772 1538.35 Q991.339 1534.29 997.615 1534.29 Z" fill="#000000" fill-rule="nonzero" fill-opacity="1" /><path clip-path="url(#clip650)" d="M1041.65 1540.59 Q1043.45 1537.36 1045.95 1535.82 Q1048.45 1534.29 1051.83 1534.29 Q1056.39 1534.29 1058.87 1537.49 Q1061.34 1540.67 1061.34 1546.55 L1061.34 1564.16 L1056.52 1564.16 L1056.52 1546.71 Q1056.52 1542.52 1055.04 1540.48 Q1053.55 1538.45 1050.51 1538.45 Q1046.78 1538.45 1044.62 1540.93 Q1042.46 1543.4 1042.46 1547.67 L1042.46 1564.16 L1037.64 1564.16 L1037.64 1546.71 Q1037.64 1542.49 1036.16 1540.48 Q1034.67 1538.45 1031.57 1538.45 Q1027.9 1538.45 1025.74 1540.95 Q1023.58 1543.43 1023.58 1547.67 L1023.58 1564.16 L1018.76 1564.16 L1018.76 1534.99 L1023.58 1534.99 L1023.58 1539.52 Q1025.22 1536.84 1027.51 1535.56 Q1029.8 1534.29 1032.95 1534.29 Q1036.13 1534.29 1038.34 1535.9 Q1040.58 1537.52 1041.65 1540.59 Z" fill="#000000" fill-rule="nonzero" fill-opacity="1" /><path clip-path="url(#clip650)" d="M1071.57 1557.54 L1077.07 1557.54 L1077.07 1564.16 L1071.57 1564.16 L1071.57 1557.54 Z" fill="#000000" fill-rule="nonzero" fill-opacity="1" /><path clip-path="url(#clip650)" d="M1110.56 1540.59 Q1112.35 1537.36 1114.85 1535.82 Q1117.35 1534.29 1120.74 1534.29 Q1125.3 1534.29 1127.77 1537.49 Q1130.24 1540.67 1130.24 1546.55 L1130.24 1564.16 L1125.43 1564.16 L1125.43 1546.71 Q1125.43 1542.52 1123.94 1540.48 Q1122.46 1538.45 1119.41 1538.45 Q1115.69 1538.45 1113.53 1540.93 Q1111.36 1543.4 1111.36 1547.67 L1111.36 1564.16 L1106.55 1564.16 L1106.55 1546.71 Q1106.55 1542.49 1105.06 1540.48 Q1103.58 1538.45 1100.48 1538.45 Q1096.81 1538.45 1094.65 1540.95 Q1092.48 1543.43 1092.48 1547.67 L1092.48 1564.16 L1087.67 1564.16 L1087.67 1534.99 L1092.48 1534.99 L1092.48 1539.52 Q1094.13 1536.84 1096.42 1535.56 Q1098.71 1534.29 1101.86 1534.29 Q1105.04 1534.29 1107.25 1535.9 Q1109.49 1537.52 1110.56 1540.59 Z" fill="#000000" fill-rule="nonzero" fill-opacity="1" /><path clip-path="url(#clip650)" d="M1139.8 1534.99 L1144.59 1534.99 L1144.59 1564.16 L1139.8 1564.16 L1139.8 1534.99 M1139.8 1523.64 L1144.59 1523.64 L1144.59 1529.7 L1139.8 1529.7 L1139.8 1523.64 Z" fill="#000000" fill-rule="nonzero" fill-opacity="1" /><path clip-path="url(#clip650)" d="M1178.86 1546.55 L1178.86 1564.16 L1174.07 1564.16 L1174.07 1546.71 Q1174.07 1542.57 1172.46 1540.51 Q1170.84 1538.45 1167.61 1538.45 Q1163.73 1538.45 1161.49 1540.93 Q1159.26 1543.4 1159.26 1547.67 L1159.26 1564.16 L1154.44 1564.16 L1154.44 1534.99 L1159.26 1534.99 L1159.26 1539.52 Q1160.97 1536.89 1163.29 1535.59 Q1165.64 1534.29 1168.68 1534.29 Q1173.71 1534.29 1176.29 1537.41 Q1178.86 1540.51 1178.86 1546.55 Z" fill="#000000" fill-rule="nonzero" fill-opacity="1" /><path clip-path="url(#clip650)" d="M1210.58 1573.01 L1210.58 1576.73 L1182.87 1576.73 L1182.87 1573.01 L1210.58 1573.01 Z" fill="#000000" fill-rule="nonzero" fill-opacity="1" /><path clip-path="url(#clip650)" d="M1233.68 1535.85 L1233.68 1540.38 Q1231.65 1539.34 1229.46 1538.82 Q1227.28 1538.3 1224.93 1538.3 Q1221.36 1538.3 1219.57 1539.39 Q1217.8 1540.48 1217.8 1542.67 Q1217.8 1544.34 1219.07 1545.3 Q1220.35 1546.24 1224.2 1547.1 L1225.84 1547.46 Q1230.95 1548.56 1233.08 1550.56 Q1235.24 1552.54 1235.24 1556.11 Q1235.24 1560.17 1232.02 1562.54 Q1228.81 1564.91 1223.19 1564.91 Q1220.84 1564.91 1218.29 1564.44 Q1215.77 1564 1212.95 1563.09 L1212.95 1558.14 Q1215.61 1559.52 1218.19 1560.22 Q1220.77 1560.9 1223.29 1560.9 Q1226.68 1560.9 1228.5 1559.75 Q1230.32 1558.58 1230.32 1556.47 Q1230.32 1554.52 1228.99 1553.48 Q1227.69 1552.44 1223.24 1551.47 L1221.57 1551.08 Q1217.12 1550.15 1215.14 1548.22 Q1213.16 1546.27 1213.16 1542.88 Q1213.16 1538.77 1216.08 1536.53 Q1218.99 1534.29 1224.36 1534.29 Q1227.02 1534.29 1229.36 1534.68 Q1231.7 1535.07 1233.68 1535.85 Z" fill="#000000" fill-rule="nonzero" fill-opacity="1" /><path clip-path="url(#clip650)" d="M1256.13 1549.49 Q1250.32 1549.49 1248.08 1550.82 Q1245.84 1552.15 1245.84 1555.35 Q1245.84 1557.91 1247.51 1559.42 Q1249.2 1560.9 1252.09 1560.9 Q1256.08 1560.9 1258.47 1558.09 Q1260.9 1555.25 1260.9 1550.56 L1260.9 1549.49 L1256.13 1549.49 M1265.69 1547.52 L1265.69 1564.16 L1260.9 1564.16 L1260.9 1559.73 Q1259.25 1562.39 1256.81 1563.66 Q1254.36 1564.91 1250.82 1564.91 Q1246.34 1564.91 1243.68 1562.41 Q1241.05 1559.89 1241.05 1555.67 Q1241.05 1550.74 1244.33 1548.24 Q1247.64 1545.74 1254.18 1545.74 L1260.9 1545.74 L1260.9 1545.28 Q1260.9 1541.97 1258.71 1540.17 Q1256.55 1538.35 1252.61 1538.35 Q1250.11 1538.35 1247.74 1538.95 Q1245.37 1539.55 1243.19 1540.74 L1243.19 1536.32 Q1245.82 1535.3 1248.29 1534.81 Q1250.77 1534.29 1253.11 1534.29 Q1259.44 1534.29 1262.56 1537.57 Q1265.69 1540.85 1265.69 1547.52 Z" fill="#000000" fill-rule="nonzero" fill-opacity="1" /><path clip-path="url(#clip650)" d="M1298.26 1540.59 Q1300.06 1537.36 1302.56 1535.82 Q1305.06 1534.29 1308.45 1534.29 Q1313 1534.29 1315.48 1537.49 Q1317.95 1540.67 1317.95 1546.55 L1317.95 1564.16 L1313.13 1564.16 L1313.13 1546.71 Q1313.13 1542.52 1311.65 1540.48 Q1310.17 1538.45 1307.12 1538.45 Q1303.39 1538.45 1301.23 1540.93 Q1299.07 1543.4 1299.07 1547.67 L1299.07 1564.16 L1294.25 1564.16 L1294.25 1546.71 Q1294.25 1542.49 1292.77 1540.48 Q1291.29 1538.45 1288.19 1538.45 Q1284.51 1538.45 1282.35 1540.95 Q1280.19 1543.43 1280.19 1547.67 L1280.19 1564.16 L1275.37 1564.16 L1275.37 1534.99 L1280.19 1534.99 L1280.19 1539.52 Q1281.83 1536.84 1284.12 1535.56 Q1286.42 1534.29 1289.57 1534.29 Q1292.74 1534.29 1294.96 1535.9 Q1297.2 1537.52 1298.26 1540.59 Z" fill="#000000" fill-rule="nonzero" fill-opacity="1" /><path clip-path="url(#clip650)" d="M1332.14 1559.78 L1332.14 1575.25 L1327.33 1575.25 L1327.33 1534.99 L1332.14 1534.99 L1332.14 1539.42 Q1333.66 1536.81 1335.95 1535.56 Q1338.26 1534.29 1341.47 1534.29 Q1346.78 1534.29 1350.09 1538.5 Q1353.42 1542.72 1353.42 1549.6 Q1353.42 1556.47 1350.09 1560.69 Q1346.78 1564.91 1341.47 1564.91 Q1338.26 1564.91 1335.95 1563.66 Q1333.66 1562.39 1332.14 1559.78 M1348.45 1549.6 Q1348.45 1544.31 1346.26 1541.32 Q1344.1 1538.3 1340.3 1538.3 Q1336.49 1538.3 1334.31 1541.32 Q1332.14 1544.31 1332.14 1549.6 Q1332.14 1554.89 1334.31 1557.91 Q1336.49 1560.9 1340.3 1560.9 Q1344.1 1560.9 1346.26 1557.91 Q1348.45 1554.89 1348.45 1549.6 Z" fill="#000000" fill-rule="nonzero" fill-opacity="1" /><path clip-path="url(#clip650)" d="M1361.36 1523.64 L1366.16 1523.64 L1366.16 1564.16 L1361.36 1564.16 L1361.36 1523.64 Z" fill="#000000" fill-rule="nonzero" fill-opacity="1" /><path clip-path="url(#clip650)" d="M1401.13 1548.37 L1401.13 1550.72 L1379.1 1550.72 Q1379.41 1555.67 1382.07 1558.27 Q1384.75 1560.85 1389.51 1560.85 Q1392.27 1560.85 1394.85 1560.17 Q1397.46 1559.49 1400.01 1558.14 L1400.01 1562.67 Q1397.43 1563.77 1394.72 1564.34 Q1392.01 1564.91 1389.23 1564.91 Q1382.25 1564.91 1378.16 1560.85 Q1374.1 1556.79 1374.1 1549.86 Q1374.1 1542.7 1377.95 1538.5 Q1381.83 1534.29 1388.39 1534.29 Q1394.28 1534.29 1397.69 1538.09 Q1401.13 1541.86 1401.13 1548.37 M1396.34 1546.97 Q1396.29 1543.04 1394.12 1540.69 Q1391.99 1538.35 1388.45 1538.35 Q1384.44 1538.35 1382.01 1540.61 Q1379.62 1542.88 1379.25 1546.99 L1396.34 1546.97 Z" fill="#000000" fill-rule="nonzero" fill-opacity="1" /><path clip-path="url(#clip650)" d="M1427.59 1535.85 L1427.59 1540.38 Q1425.56 1539.34 1423.37 1538.82 Q1421.18 1538.3 1418.84 1538.3 Q1415.27 1538.3 1413.47 1539.39 Q1411.7 1540.48 1411.7 1542.67 Q1411.7 1544.34 1412.98 1545.3 Q1414.25 1546.24 1418.11 1547.1 L1419.75 1547.46 Q1424.85 1548.56 1426.99 1550.56 Q1429.15 1552.54 1429.15 1556.11 Q1429.15 1560.17 1425.92 1562.54 Q1422.72 1564.91 1417.09 1564.91 Q1414.75 1564.91 1412.2 1564.44 Q1409.67 1564 1406.86 1563.09 L1406.86 1558.14 Q1409.51 1559.52 1412.09 1560.22 Q1414.67 1560.9 1417.2 1560.9 Q1420.58 1560.9 1422.4 1559.75 Q1424.23 1558.58 1424.23 1556.47 Q1424.23 1554.52 1422.9 1553.48 Q1421.6 1552.44 1417.14 1551.47 L1415.48 1551.08 Q1411.02 1550.15 1409.05 1548.22 Q1407.07 1546.27 1407.07 1542.88 Q1407.07 1538.77 1409.98 1536.53 Q1412.9 1534.29 1418.26 1534.29 Q1420.92 1534.29 1423.26 1534.68 Q1425.61 1535.07 1427.59 1535.85 Z" fill="#000000" fill-rule="nonzero" fill-opacity="1" /><path clip-path="url(#clip650)" d="M1458.94 1573.01 L1458.94 1576.73 L1431.23 1576.73 L1431.23 1573.01 L1458.94 1573.01 Z" fill="#000000" fill-rule="nonzero" fill-opacity="1" /><path clip-path="url(#clip650)" d="M1482.04 1535.85 L1482.04 1540.38 Q1480.01 1539.34 1477.82 1538.82 Q1475.63 1538.3 1473.29 1538.3 Q1469.72 1538.3 1467.93 1539.39 Q1466.15 1540.48 1466.15 1542.67 Q1466.15 1544.34 1467.43 1545.3 Q1468.71 1546.24 1472.56 1547.1 L1474.2 1547.46 Q1479.31 1548.56 1481.44 1550.56 Q1483.6 1552.54 1483.6 1556.11 Q1483.6 1560.17 1480.37 1562.54 Q1477.17 1564.91 1471.55 1564.91 Q1469.2 1564.91 1466.65 1564.44 Q1464.12 1564 1461.31 1563.09 L1461.31 1558.14 Q1463.97 1559.52 1466.55 1560.22 Q1469.12 1560.9 1471.65 1560.9 Q1475.03 1560.9 1476.86 1559.75 Q1478.68 1558.58 1478.68 1556.47 Q1478.68 1554.52 1477.35 1553.48 Q1476.05 1552.44 1471.6 1551.47 L1469.93 1551.08 Q1465.48 1550.15 1463.5 1548.22 Q1461.52 1546.27 1461.52 1542.88 Q1461.52 1538.77 1464.44 1536.53 Q1467.35 1534.29 1472.72 1534.29 Q1475.37 1534.29 1477.72 1534.68 Q1480.06 1535.07 1482.04 1535.85 Z" fill="#000000" fill-rule="nonzero" fill-opacity="1" /><path clip-path="url(#clip650)" d="M1495.87 1559.78 L1495.87 1575.25 L1491.05 1575.25 L1491.05 1534.99 L1495.87 1534.99 L1495.87 1539.42 Q1497.38 1536.81 1499.67 1535.56 Q1501.99 1534.29 1505.19 1534.29 Q1510.5 1534.29 1513.81 1538.5 Q1517.14 1542.72 1517.14 1549.6 Q1517.14 1556.47 1513.81 1560.69 Q1510.5 1564.91 1505.19 1564.91 Q1501.99 1564.91 1499.67 1563.66 Q1497.38 1562.39 1495.87 1559.78 M1512.17 1549.6 Q1512.17 1544.31 1509.98 1541.32 Q1507.82 1538.3 1504.02 1538.3 Q1500.22 1538.3 1498.03 1541.32 Q1495.87 1544.31 1495.87 1549.6 Q1495.87 1554.89 1498.03 1557.91 Q1500.22 1560.9 1504.02 1560.9 Q1507.82 1560.9 1509.98 1557.91 Q1512.17 1554.89 1512.17 1549.6 Z" fill="#000000" fill-rule="nonzero" fill-opacity="1" /><path clip-path="url(#clip650)" d="M1525.09 1523.64 L1529.88 1523.64 L1529.88 1564.16 L1525.09 1564.16 L1525.09 1523.64 Z" fill="#000000" fill-rule="nonzero" fill-opacity="1" /><path clip-path="url(#clip650)" d="M1539.9 1534.99 L1544.7 1534.99 L1544.7 1564.16 L1539.9 1564.16 L1539.9 1534.99 M1539.9 1523.64 L1544.7 1523.64 L1544.7 1529.7 L1539.9 1529.7 L1539.9 1523.64 Z" fill="#000000" fill-rule="nonzero" fill-opacity="1" /><path clip-path="url(#clip650)" d="M1559.46 1526.71 L1559.46 1534.99 L1569.33 1534.99 L1569.33 1538.71 L1559.46 1538.71 L1559.46 1554.55 Q1559.46 1558.11 1560.42 1559.13 Q1561.41 1560.15 1564.41 1560.15 L1569.33 1560.15 L1569.33 1564.16 L1564.41 1564.16 Q1558.86 1564.16 1556.75 1562.1 Q1554.64 1560.02 1554.64 1554.55 L1554.64 1538.71 L1551.13 1538.71 L1551.13 1534.99 L1554.64 1534.99 L1554.64 1526.71 L1559.46 1526.71 Z" fill="#000000" fill-rule="nonzero" fill-opacity="1" /><polyline clip-path="url(#clip652)" style="stroke:#000000; stroke-linecap:round; stroke-linejoin:round; stroke-width:2; stroke-opacity:0.1; fill:none" points="147.472,1258.46 2352.76,1258.46 "/>
<polyline clip-path="url(#clip652)" style="stroke:#000000; stroke-linecap:round; stroke-linejoin:round; stroke-width:2; stroke-opacity:0.1; fill:none" points="147.472,1042.86 2352.76,1042.86 "/>
<polyline clip-path="url(#clip652)" style="stroke:#000000; stroke-linecap:round; stroke-linejoin:round; stroke-width:2; stroke-opacity:0.1; fill:none" points="147.472,827.258 2352.76,827.258 "/>
<polyline clip-path="url(#clip652)" style="stroke:#000000; stroke-linecap:round; stroke-linejoin:round; stroke-width:2; stroke-opacity:0.1; fill:none" points="147.472,611.656 2352.76,611.656 "/>
<polyline clip-path="url(#clip652)" style="stroke:#000000; stroke-linecap:round; stroke-linejoin:round; stroke-width:2; stroke-opacity:0.1; fill:none" points="147.472,396.054 2352.76,396.054 "/>
<polyline clip-path="url(#clip652)" style="stroke:#000000; stroke-linecap:round; stroke-linejoin:round; stroke-width:2; stroke-opacity:0.1; fill:none" points="147.472,180.452 2352.76,180.452 "/>
<polyline clip-path="url(#clip650)" style="stroke:#000000; stroke-linecap:round; stroke-linejoin:round; stroke-width:4; stroke-opacity:1; fill:none" points="147.472,1436.14 147.472,47.2441 "/>
<polyline clip-path="url(#clip650)" style="stroke:#000000; stroke-linecap:round; stroke-linejoin:round; stroke-width:4; stroke-opacity:1; fill:none" points="147.472,1258.46 166.37,1258.46 "/>
<polyline clip-path="url(#clip650)" style="stroke:#000000; stroke-linecap:round; stroke-linejoin:round; stroke-width:4; stroke-opacity:1; fill:none" points="147.472,1042.86 166.37,1042.86 "/>
<polyline clip-path="url(#clip650)" style="stroke:#000000; stroke-linecap:round; stroke-linejoin:round; stroke-width:4; stroke-opacity:1; fill:none" points="147.472,827.258 166.37,827.258 "/>
<polyline clip-path="url(#clip650)" style="stroke:#000000; stroke-linecap:round; stroke-linejoin:round; stroke-width:4; stroke-opacity:1; fill:none" points="147.472,611.656 166.37,611.656 "/>
<polyline clip-path="url(#clip650)" style="stroke:#000000; stroke-linecap:round; stroke-linejoin:round; stroke-width:4; stroke-opacity:1; fill:none" points="147.472,396.054 166.37,396.054 "/>
<polyline clip-path="url(#clip650)" style="stroke:#000000; stroke-linecap:round; stroke-linejoin:round; stroke-width:4; stroke-opacity:1; fill:none" points="147.472,180.452 166.37,180.452 "/>
<path clip-path="url(#clip650)" d="M66.1628 1257.28 Q69.0997 1257.91 70.7403 1259.89 Q72.4012 1261.88 72.4012 1264.79 Q72.4012 1269.27 69.3225 1271.72 Q66.2438 1274.17 60.5725 1274.17 Q58.6686 1274.17 56.6431 1273.79 Q54.6379 1273.42 52.491 1272.67 L52.491 1268.72 Q54.1923 1269.71 56.2178 1270.22 Q58.2432 1270.73 60.451 1270.73 Q64.2993 1270.73 66.3045 1269.21 Q68.33 1267.69 68.33 1264.79 Q68.33 1262.12 66.4463 1260.62 Q64.5829 1259.1 61.2409 1259.1 L57.7166 1259.1 L57.7166 1255.74 L61.4029 1255.74 Q64.4209 1255.74 66.021 1254.54 Q67.6211 1253.33 67.6211 1251.06 Q67.6211 1248.73 65.9602 1247.49 Q64.3196 1246.24 61.2409 1246.24 Q59.5598 1246.24 57.6356 1246.6 Q55.7114 1246.97 53.4024 1247.74 L53.4024 1244.09 Q55.7317 1243.44 57.7571 1243.12 Q59.8028 1242.8 61.6055 1242.8 Q66.264 1242.8 68.9781 1244.92 Q71.6922 1247.03 71.6922 1250.63 Q71.6922 1253.15 70.2542 1254.89 Q68.8161 1256.61 66.1628 1257.28 Z" fill="#000000" fill-rule="nonzero" fill-opacity="1" /><path clip-path="url(#clip650)" d="M80.1586 1268.44 L84.4323 1268.44 L84.4323 1273.58 L80.1586 1273.58 L80.1586 1268.44 Z" fill="#000000" fill-rule="nonzero" fill-opacity="1" /><path clip-path="url(#clip650)" d="M94.0532 1270.14 L100.737 1270.14 L100.737 1247.07 L93.4659 1248.53 L93.4659 1244.8 L100.697 1243.34 L104.788 1243.34 L104.788 1270.14 L111.472 1270.14 L111.472 1273.58 L94.0532 1273.58 L94.0532 1270.14 Z" fill="#000000" fill-rule="nonzero" fill-opacity="1" /><path clip-path="url(#clip650)" d="M66.4868 1041.68 Q69.4237 1042.3 71.0644 1044.29 Q72.7252 1046.27 72.7252 1049.19 Q72.7252 1053.67 69.6465 1056.12 Q66.5679 1058.57 60.8966 1058.57 Q58.9927 1058.57 56.9672 1058.18 Q54.962 1057.82 52.815 1057.07 L52.815 1053.12 Q54.5164 1054.11 56.5419 1054.62 Q58.5673 1055.12 60.7751 1055.12 Q64.6234 1055.12 66.6286 1053.61 Q68.6541 1052.09 68.6541 1049.19 Q68.6541 1046.52 66.7704 1045.02 Q64.907 1043.5 61.565 1043.5 L58.0407 1043.5 L58.0407 1040.14 L61.727 1040.14 Q64.7449 1040.14 66.3451 1038.94 Q67.9452 1037.73 67.9452 1035.46 Q67.9452 1033.13 66.2843 1031.89 Q64.6437 1030.64 61.565 1030.64 Q59.8839 1030.64 57.9597 1031 Q56.0355 1031.37 53.7265 1032.14 L53.7265 1028.49 Q56.0558 1027.84 58.0812 1027.52 Q60.1269 1027.19 61.9296 1027.19 Q66.5881 1027.19 69.3022 1029.32 Q72.0163 1031.43 72.0163 1035.03 Q72.0163 1037.54 70.5782 1039.29 Q69.1402 1041.01 66.4868 1041.68 Z" fill="#000000" fill-rule="nonzero" fill-opacity="1" /><path clip-path="url(#clip650)" d="M80.4827 1052.84 L84.7564 1052.84 L84.7564 1057.98 L80.4827 1057.98 L80.4827 1052.84 Z" fill="#000000" fill-rule="nonzero" fill-opacity="1" /><path clip-path="url(#clip650)" d="M97.1927 1054.54 L111.472 1054.54 L111.472 1057.98 L92.2708 1057.98 L92.2708 1054.54 Q94.6001 1052.13 98.6105 1048.08 Q102.641 1044 103.674 1042.83 Q105.639 1040.62 106.408 1039.1 Q107.198 1037.56 107.198 1036.09 Q107.198 1033.68 105.497 1032.16 Q103.816 1030.64 101.102 1030.64 Q99.1776 1030.64 97.0307 1031.31 Q94.9039 1031.97 92.4734 1033.33 L92.4734 1029.2 Q94.9444 1028.21 97.0914 1027.7 Q99.2384 1027.19 101.021 1027.19 Q105.72 1027.19 108.515 1029.54 Q111.31 1031.89 111.31 1035.82 Q111.31 1037.69 110.601 1039.37 Q109.913 1041.03 108.069 1043.3 Q107.563 1043.88 104.849 1046.7 Q102.135 1049.49 97.1927 1054.54 Z" fill="#000000" fill-rule="nonzero" fill-opacity="1" /><path clip-path="url(#clip650)" d="M65.6564 826.074 Q68.5933 826.701 70.2339 828.686 Q71.8948 830.671 71.8948 833.588 Q71.8948 838.064 68.8161 840.515 Q65.7374 842.966 60.0662 842.966 Q58.1622 842.966 56.1368 842.581 Q54.1316 842.216 51.9846 841.467 L51.9846 837.517 Q53.686 838.51 55.7114 839.016 Q57.7369 839.523 59.9446 839.523 Q63.793 839.523 65.7982 838.004 Q67.8236 836.484 67.8236 833.588 Q67.8236 830.914 65.94 829.416 Q64.0765 827.896 60.7346 827.896 L57.2103 827.896 L57.2103 824.534 L60.8966 824.534 Q63.9145 824.534 65.5146 823.339 Q67.1147 822.124 67.1147 819.855 Q67.1147 817.526 65.4539 816.291 Q63.8132 815.035 60.7346 815.035 Q59.0534 815.035 57.1292 815.399 Q55.2051 815.764 52.8961 816.534 L52.8961 812.888 Q55.2253 812.24 57.2508 811.916 Q59.2965 811.592 61.0991 811.592 Q65.7577 811.592 68.4718 813.718 Q71.1859 815.825 71.1859 819.43 Q71.1859 821.942 69.7478 823.684 Q68.3097 825.405 65.6564 826.074 Z" fill="#000000" fill-rule="nonzero" fill-opacity="1" /><path clip-path="url(#clip650)" d="M79.6523 837.234 L83.926 837.234 L83.926 842.378 L79.6523 842.378 L79.6523 837.234 Z" fill="#000000" fill-rule="nonzero" fill-opacity="1" /><path clip-path="url(#clip650)" d="M105.234 826.074 Q108.171 826.701 109.811 828.686 Q111.472 830.671 111.472 833.588 Q111.472 838.064 108.393 840.515 Q105.315 842.966 99.6435 842.966 Q97.7396 842.966 95.7141 842.581 Q93.7089 842.216 91.5619 841.467 L91.5619 837.517 Q93.2633 838.51 95.2888 839.016 Q97.3142 839.523 99.522 839.523 Q103.37 839.523 105.376 838.004 Q107.401 836.484 107.401 833.588 Q107.401 830.914 105.517 829.416 Q103.654 827.896 100.312 827.896 L96.7876 827.896 L96.7876 824.534 L100.474 824.534 Q103.492 824.534 105.092 823.339 Q106.692 822.124 106.692 819.855 Q106.692 817.526 105.031 816.291 Q103.391 815.035 100.312 815.035 Q98.6308 815.035 96.7066 815.399 Q94.7824 815.764 92.4734 816.534 L92.4734 812.888 Q94.8027 812.24 96.8281 811.916 Q98.8738 811.592 100.676 811.592 Q105.335 811.592 108.049 813.718 Q110.763 815.825 110.763 819.43 Q110.763 821.942 109.325 823.684 Q107.887 825.405 105.234 826.074 Z" fill="#000000" fill-rule="nonzero" fill-opacity="1" /><path clip-path="url(#clip650)" d="M64.6639 610.471 Q67.6008 611.099 69.2414 613.084 Q70.9023 615.069 70.9023 617.986 Q70.9023 622.462 67.8236 624.913 Q64.7449 627.364 59.0737 627.364 Q57.1698 627.364 55.1443 626.979 Q53.1391 626.614 50.9921 625.865 L50.9921 621.915 Q52.6935 622.908 54.719 623.414 Q56.7444 623.92 58.9522 623.92 Q62.8005 623.92 64.8057 622.401 Q66.8312 620.882 66.8312 617.986 Q66.8312 615.312 64.9475 613.813 Q63.0841 612.294 59.7421 612.294 L56.2178 612.294 L56.2178 608.932 L59.9041 608.932 Q62.922 608.932 64.5221 607.737 Q66.1223 606.522 66.1223 604.253 Q66.1223 601.924 64.4614 600.689 Q62.8208 599.433 59.7421 599.433 Q58.061 599.433 56.1368 599.797 Q54.2126 600.162 51.9036 600.932 L51.9036 597.286 Q54.2328 596.638 56.2583 596.314 Q58.304 595.989 60.1067 595.989 Q64.7652 595.989 67.4793 598.116 Q70.1934 600.223 70.1934 603.828 Q70.1934 606.34 68.7553 608.081 Q67.3173 609.803 64.6639 610.471 Z" fill="#000000" fill-rule="nonzero" fill-opacity="1" /><path clip-path="url(#clip650)" d="M78.6598 621.632 L82.9335 621.632 L82.9335 626.776 L78.6598 626.776 L78.6598 621.632 Z" fill="#000000" fill-rule="nonzero" fill-opacity="1" /><path clip-path="url(#clip650)" d="M103.087 600.101 L92.7569 616.244 L103.087 616.244 L103.087 600.101 M102.013 596.536 L107.158 596.536 L107.158 616.244 L111.472 616.244 L111.472 619.647 L107.158 619.647 L107.158 626.776 L103.087 626.776 L103.087 619.647 L89.4352 619.647 L89.4352 615.697 L102.013 596.536 Z" fill="#000000" fill-rule="nonzero" fill-opacity="1" /><path clip-path="url(#clip650)" d="M65.9602 394.869 Q68.8971 395.497 70.5377 397.482 Q72.1986 399.467 72.1986 402.384 Q72.1986 406.86 69.1199 409.311 Q66.0412 411.762 60.37 411.762 Q58.466 411.762 56.4406 411.377 Q54.4354 411.012 52.2884 410.263 L52.2884 406.313 Q53.9898 407.306 56.0152 407.812 Q58.0407 408.318 60.2484 408.318 Q64.0968 408.318 66.102 406.799 Q68.1275 405.28 68.1275 402.384 Q68.1275 399.71 66.2438 398.211 Q64.3804 396.692 61.0384 396.692 L57.5141 396.692 L57.5141 393.33 L61.2004 393.33 Q64.2183 393.33 65.8184 392.135 Q67.4185 390.92 67.4185 388.651 Q67.4185 386.322 65.7577 385.086 Q64.1171 383.831 61.0384 383.831 Q59.3572 383.831 57.4331 384.195 Q55.5089 384.56 53.1999 385.329 L53.1999 381.684 Q55.5291 381.036 57.5546 380.711 Q59.6003 380.387 61.4029 380.387 Q66.0615 380.387 68.7756 382.514 Q71.4897 384.621 71.4897 388.226 Q71.4897 390.737 70.0516 392.479 Q68.6136 394.201 65.9602 394.869 Z" fill="#000000" fill-rule="nonzero" fill-opacity="1" /><path clip-path="url(#clip650)" d="M79.9561 406.03 L84.2298 406.03 L84.2298 411.174 L79.9561 411.174 L79.9561 406.03 Z" fill="#000000" fill-rule="nonzero" fill-opacity="1" /><path clip-path="url(#clip650)" d="M93.1823 380.934 L109.244 380.934 L109.244 384.378 L96.9294 384.378 L96.9294 391.791 Q97.8206 391.487 98.7118 391.345 Q99.603 391.183 100.494 391.183 Q105.558 391.183 108.515 393.958 Q111.472 396.733 111.472 401.472 Q111.472 406.354 108.434 409.068 Q105.396 411.762 99.8663 411.762 Q97.9624 411.762 95.9774 411.438 Q94.0127 411.113 91.9063 410.465 L91.9063 406.354 Q93.7292 407.346 95.6736 407.832 Q97.618 408.318 99.7853 408.318 Q103.289 408.318 105.335 406.475 Q107.381 404.632 107.381 401.472 Q107.381 398.313 105.335 396.469 Q103.289 394.626 99.7853 394.626 Q98.1447 394.626 96.504 394.991 Q94.8837 395.355 93.1823 396.125 L93.1823 380.934 Z" fill="#000000" fill-rule="nonzero" fill-opacity="1" /><path clip-path="url(#clip650)" d="M64.9475 179.267 Q67.8844 179.895 69.525 181.88 Q71.1859 183.865 71.1859 186.782 Q71.1859 191.258 68.1072 193.709 Q65.0285 196.159 59.3572 196.159 Q57.4533 196.159 55.4279 195.775 Q53.4227 195.41 51.2757 194.661 L51.2757 190.711 Q52.9771 191.703 55.0025 192.21 Q57.028 192.716 59.2357 192.716 Q63.0841 192.716 65.0893 191.197 Q67.1147 189.678 67.1147 186.782 Q67.1147 184.108 65.2311 182.609 Q63.3676 181.09 60.0256 181.09 L56.5014 181.09 L56.5014 177.728 L60.1877 177.728 Q63.2056 177.728 64.8057 176.533 Q66.4058 175.318 66.4058 173.049 Q66.4058 170.72 64.7449 169.484 Q63.1043 168.229 60.0256 168.229 Q58.3445 168.229 56.4203 168.593 Q54.4962 168.958 52.1871 169.727 L52.1871 166.082 Q54.5164 165.433 56.5419 165.109 Q58.5876 164.785 60.3902 164.785 Q65.0488 164.785 67.7629 166.912 Q70.477 169.018 70.477 172.624 Q70.477 175.135 69.0389 176.877 Q67.6008 178.599 64.9475 179.267 Z" fill="#000000" fill-rule="nonzero" fill-opacity="1" /><path clip-path="url(#clip650)" d="M78.9434 190.427 L83.2171 190.427 L83.2171 195.572 L78.9434 195.572 L78.9434 190.427 Z" fill="#000000" fill-rule="nonzero" fill-opacity="1" /><path clip-path="url(#clip650)" d="M101.385 178.822 Q98.6308 178.822 97.0104 180.705 Q95.4103 182.589 95.4103 185.87 Q95.4103 189.131 97.0104 191.035 Q98.6308 192.919 101.385 192.919 Q104.14 192.919 105.74 191.035 Q107.36 189.131 107.36 185.87 Q107.36 182.589 105.74 180.705 Q104.14 178.822 101.385 178.822 M109.507 166.001 L109.507 169.727 Q107.968 168.998 106.388 168.613 Q104.829 168.229 103.289 168.229 Q99.2384 168.229 97.0914 170.963 Q94.9647 173.697 94.6609 179.227 Q95.8559 177.465 97.6585 176.533 Q99.4612 175.581 101.628 175.581 Q106.186 175.581 108.819 178.356 Q111.472 181.11 111.472 185.87 Q111.472 190.529 108.718 193.344 Q105.963 196.159 101.385 196.159 Q96.1395 196.159 93.3646 192.149 Q90.5897 188.118 90.5897 180.482 Q90.5897 173.312 93.9925 169.059 Q97.3952 164.785 103.127 164.785 Q104.667 164.785 106.226 165.089 Q107.806 165.393 109.507 166.001 Z" fill="#000000" fill-rule="nonzero" fill-opacity="1" /><polyline clip-path="url(#clip652)" style="stroke:#009af9; stroke-linecap:round; stroke-linejoin:round; stroke-width:4; stroke-opacity:1; fill:none" points="209.886,1235.04 231.115,1210.47 252.344,1247.94 273.573,1396.83 294.802,1289.65 316.032,1362.24 337.261,1289.26 358.49,1364.38 379.719,1280.63 422.177,1211.91 443.406,1270.6 485.865,1268.49 528.323,1111.27 592.01,1242.91 655.698,1068.65 719.385,1111.25 804.302,1029.08 889.219,1017.29 995.364,838.804 1122.74,807.324 1250.11,697.496 1398.72,579.674 1589.78,555.874 1780.84,411.63 2014.36,402.101 2290.34,86.5525 "/>
<path clip-path="url(#clip650)" d="M220.982 184.261 L487.386 184.261 L487.386 93.5406 L220.982 93.5406  Z" fill="#ffffff" fill-rule="evenodd" fill-opacity="1"/>
<polyline clip-path="url(#clip650)" style="stroke:#000000; stroke-linecap:round; stroke-linejoin:round; stroke-width:4; stroke-opacity:1; fill:none" points="220.982,184.261 487.386,184.261 487.386,93.5406 220.982,93.5406 220.982,184.261 "/>
<polyline clip-path="url(#clip650)" style="stroke:#009af9; stroke-linecap:round; stroke-linejoin:round; stroke-width:3.5; stroke-opacity:1; fill:none" points="245.485,138.901 392.504,138.901 "/>
<path clip-path="url(#clip650)" d="M429.119 156.127 Q427.539 160.178 426.04 161.414 Q424.541 162.649 422.03 162.649 L419.053 162.649 L419.053 159.53 L421.24 159.53 Q422.779 159.53 423.63 158.801 Q424.481 158.072 425.514 155.357 L426.182 153.656 L417.007 131.336 L420.956 131.336 L428.046 149.079 L435.135 131.336 L439.084 131.336 L429.119 156.127 Z" fill="#000000" fill-rule="nonzero" fill-opacity="1" /><path clip-path="url(#clip650)" d="M445.464 150.577 L452.148 150.577 L452.148 127.507 L444.877 128.966 L444.877 125.239 L452.108 123.781 L456.199 123.781 L456.199 150.577 L462.883 150.577 L462.883 154.021 L445.464 154.021 L445.464 150.577 Z" fill="#000000" fill-rule="nonzero" fill-opacity="1" /></svg>
