<?xml version="1.0" encoding="utf-8"?>
<svg xmlns="http://www.w3.org/2000/svg" xmlns:xlink="http://www.w3.org/1999/xlink" width="600" height="400" viewBox="0 0 2400 1600">
<defs>
  <clipPath id="clip640">
    <rect x="0" y="0" width="2400" height="1600"/>
  </clipPath>
</defs>
<path clip-path="url(#clip640)" d="M0 1600 L2400 1600 L2400 0 L0 0  Z" fill="#ffffff" fill-rule="evenodd" fill-opacity="1"/>
<defs>
  <clipPath id="clip641">
    <rect x="480" y="0" width="1681" height="1600"/>
  </clipPath>
</defs>
<path clip-path="url(#clip640)" d="M147.472 1436.14 L2352.76 1436.14 L2352.76 47.2441 L147.472 47.2441  Z" fill="#ffffff" fill-rule="evenodd" fill-opacity="1"/>
<defs>
  <clipPath id="clip642">
    <rect x="147" y="47" width="2206" height="1390"/>
  </clipPath>
</defs>
<polyline clip-path="url(#clip642)" style="stroke:#000000; stroke-linecap:round; stroke-linejoin:round; stroke-width:2; stroke-opacity:0.1; fill:none" points="167.428,1436.14 167.428,47.2441 "/>
<polyline clip-path="url(#clip642)" style="stroke:#000000; stroke-linecap:round; stroke-linejoin:round; stroke-width:2; stroke-opacity:0.1; fill:none" points="698.156,1436.14 698.156,47.2441 "/>
<polyline clip-path="url(#clip642)" style="stroke:#000000; stroke-linecap:round; stroke-linejoin:round; stroke-width:2; stroke-opacity:0.1; fill:none" points="1228.88,1436.14 1228.88,47.2441 "/>
<polyline clip-path="url(#clip642)" style="stroke:#000000; stroke-linecap:round; stroke-linejoin:round; stroke-width:2; stroke-opacity:0.1; fill:none" points="1759.61,1436.14 1759.61,47.2441 "/>
<polyline clip-path="url(#clip642)" style="stroke:#000000; stroke-linecap:round; stroke-linejoin:round; stroke-width:2; stroke-opacity:0.1; fill:none" points="2290.34,1436.14 2290.34,47.2441 "/>
<polyline clip-path="url(#clip640)" style="stroke:#000000; stroke-linecap:round; stroke-linejoin:round; stroke-width:4; stroke-opacity:1; fill:none" points="147.472,1436.14 2352.76,1436.14 "/>
<polyline clip-path="url(#clip640)" style="stroke:#000000; stroke-linecap:round; stroke-linejoin:round; stroke-width:4; stroke-opacity:1; fill:none" points="167.428,1436.14 167.428,1417.24 "/>
<polyline clip-path="url(#clip640)" style="stroke:#000000; stroke-linecap:round; stroke-linejoin:round; stroke-width:4; stroke-opacity:1; fill:none" points="698.156,1436.14 698.156,1417.24 "/>
<polyline clip-path="url(#clip640)" style="stroke:#000000; stroke-linecap:round; stroke-linejoin:round; stroke-width:4; stroke-opacity:1; fill:none" points="1228.88,1436.14 1228.88,1417.24 "/>
<polyline clip-path="url(#clip640)" style="stroke:#000000; stroke-linecap:round; stroke-linejoin:round; stroke-width:4; stroke-opacity:1; fill:none" points="1759.61,1436.14 1759.61,1417.24 "/>
<polyline clip-path="url(#clip640)" style="stroke:#000000; stroke-linecap:round; stroke-linejoin:round; stroke-width:4; stroke-opacity:1; fill:none" points="2290.34,1436.14 2290.34,1417.24 "/>
<path clip-path="url(#clip640)" d="M167.428 1465.59 Q164.268 1465.59 162.668 1468.71 Q161.088 1471.81 161.088 1478.05 Q161.088 1484.27 162.668 1487.39 Q164.268 1490.49 167.428 1490.49 Q170.607 1490.49 172.187 1487.39 Q173.787 1484.27 173.787 1478.05 Q173.787 1471.81 172.187 1468.71 Q170.607 1465.59 167.428 1465.59 M167.428 1462.35 Q172.511 1462.35 175.185 1466.38 Q177.879 1470.39 177.879 1478.05 Q177.879 1485.69 175.185 1489.72 Q172.511 1493.73 167.428 1493.73 Q162.344 1493.73 159.65 1489.72 Q156.976 1485.69 156.976 1478.05 Q156.976 1470.39 159.65 1466.38 Q162.344 1462.35 167.428 1462.35 Z" fill="#000000" fill-rule="nonzero" fill-opacity="1" /><path clip-path="url(#clip640)" d="M680.018 1489.7 L694.298 1489.7 L694.298 1493.14 L675.096 1493.14 L675.096 1489.7 Q677.426 1487.29 681.436 1483.24 Q685.467 1479.16 686.5 1477.99 Q688.464 1475.78 689.234 1474.26 Q690.024 1472.72 690.024 1471.24 Q690.024 1468.83 688.323 1467.32 Q686.642 1465.8 683.927 1465.8 Q682.003 1465.8 679.856 1466.46 Q677.73 1467.13 675.299 1468.49 L675.299 1464.36 Q677.77 1463.37 679.917 1462.86 Q682.064 1462.35 683.846 1462.35 Q688.545 1462.35 691.341 1464.7 Q694.136 1467.05 694.136 1470.98 Q694.136 1472.84 693.427 1474.53 Q692.738 1476.19 690.895 1478.46 Q690.389 1479.04 687.674 1481.86 Q684.96 1484.65 680.018 1489.7 Z" fill="#000000" fill-rule="nonzero" fill-opacity="1" /><path clip-path="url(#clip640)" d="M702.926 1462.9 L718.988 1462.9 L718.988 1466.34 L706.673 1466.34 L706.673 1473.76 Q707.564 1473.45 708.456 1473.31 Q709.347 1473.15 710.238 1473.15 Q715.302 1473.15 718.259 1475.92 Q721.216 1478.7 721.216 1483.44 Q721.216 1488.32 718.178 1491.03 Q715.14 1493.73 709.61 1493.73 Q707.706 1493.73 705.721 1493.4 Q703.757 1493.08 701.65 1492.43 L701.65 1488.32 Q703.473 1489.31 705.417 1489.8 Q707.362 1490.28 709.529 1490.28 Q713.033 1490.28 715.079 1488.44 Q717.125 1486.6 717.125 1483.44 Q717.125 1480.28 715.079 1478.44 Q713.033 1476.59 709.529 1476.59 Q707.888 1476.59 706.248 1476.96 Q704.628 1477.32 702.926 1478.09 L702.926 1462.9 Z" fill="#000000" fill-rule="nonzero" fill-opacity="1" /><path clip-path="url(#clip640)" d="M1206.75 1462.9 L1222.81 1462.9 L1222.81 1466.34 L1210.49 1466.34 L1210.49 1473.76 Q1211.38 1473.45 1212.28 1473.31 Q1213.17 1473.15 1214.06 1473.15 Q1219.12 1473.15 1222.08 1475.92 Q1225.04 1478.7 1225.04 1483.44 Q1225.04 1488.32 1222 1491.03 Q1218.96 1493.73 1213.43 1493.73 Q1211.53 1493.73 1209.54 1493.4 Q1207.58 1493.08 1205.47 1492.43 L1205.47 1488.32 Q1207.29 1489.31 1209.24 1489.8 Q1211.18 1490.28 1213.35 1490.28 Q1216.85 1490.28 1218.9 1488.44 Q1220.95 1486.6 1220.95 1483.44 Q1220.95 1480.28 1218.9 1478.44 Q1216.85 1476.59 1213.35 1476.59 Q1211.71 1476.59 1210.07 1476.96 Q1208.45 1477.32 1206.75 1478.09 L1206.75 1462.9 Z" fill="#000000" fill-rule="nonzero" fill-opacity="1" /><path clip-path="url(#clip640)" d="M1241.85 1465.59 Q1238.69 1465.59 1237.09 1468.71 Q1235.51 1471.81 1235.51 1478.05 Q1235.51 1484.27 1237.09 1487.39 Q1238.69 1490.49 1241.85 1490.49 Q1245.03 1490.49 1246.61 1487.39 Q1248.21 1484.27 1248.21 1478.05 Q1248.21 1471.81 1246.61 1468.71 Q1245.03 1465.59 1241.85 1465.59 M1241.85 1462.35 Q1246.93 1462.35 1249.61 1466.38 Q1252.3 1470.39 1252.3 1478.05 Q1252.3 1485.69 1249.61 1489.72 Q1246.93 1493.73 1241.85 1493.73 Q1236.76 1493.73 1234.07 1489.72 Q1231.4 1485.69 1231.4 1478.05 Q1231.4 1470.39 1234.07 1466.38 Q1236.76 1462.35 1241.85 1462.35 Z" fill="#000000" fill-rule="nonzero" fill-opacity="1" /><path clip-path="url(#clip640)" d="M1736.74 1462.9 L1756.18 1462.9 L1756.18 1464.64 L1745.2 1493.14 L1740.93 1493.14 L1751.26 1466.34 L1736.74 1466.34 L1736.74 1462.9 Z" fill="#000000" fill-rule="nonzero" fill-opacity="1" /><path clip-path="url(#clip640)" d="M1764.2 1462.9 L1780.26 1462.9 L1780.26 1466.34 L1767.95 1466.34 L1767.95 1473.76 Q1768.84 1473.45 1769.73 1473.31 Q1770.62 1473.15 1771.51 1473.15 Q1776.58 1473.15 1779.53 1475.92 Q1782.49 1478.7 1782.49 1483.44 Q1782.49 1488.32 1779.45 1491.03 Q1776.41 1493.73 1770.89 1493.73 Q1768.98 1493.73 1767 1493.4 Q1765.03 1493.08 1762.93 1492.43 L1762.93 1488.32 Q1764.75 1489.31 1766.69 1489.8 Q1768.64 1490.28 1770.8 1490.28 Q1774.31 1490.28 1776.35 1488.44 Q1778.4 1486.6 1778.4 1483.44 Q1778.4 1480.28 1776.35 1478.44 Q1774.31 1476.59 1770.8 1476.59 Q1769.16 1476.59 1767.52 1476.96 Q1765.9 1477.32 1764.2 1478.09 L1764.2 1462.9 Z" fill="#000000" fill-rule="nonzero" fill-opacity="1" /><path clip-path="url(#clip640)" d="M2255 1489.7 L2261.68 1489.7 L2261.68 1466.63 L2254.41 1468.08 L2254.41 1464.36 L2261.64 1462.9 L2265.73 1462.9 L2265.73 1489.7 L2272.42 1489.7 L2272.42 1493.14 L2255 1493.14 L2255 1489.7 Z" fill="#000000" fill-rule="nonzero" fill-opacity="1" /><path clip-path="url(#clip640)" d="M2289.43 1465.59 Q2286.27 1465.59 2284.67 1468.71 Q2283.09 1471.81 2283.09 1478.05 Q2283.09 1484.27 2284.67 1487.39 Q2286.27 1490.49 2289.43 1490.49 Q2292.61 1490.49 2294.19 1487.39 Q2295.79 1484.27 2295.79 1478.05 Q2295.79 1471.81 2294.19 1468.71 Q2292.61 1465.59 2289.43 1465.59 M2289.43 1462.35 Q2294.51 1462.35 2297.19 1466.38 Q2299.88 1470.39 2299.88 1478.05 Q2299.88 1485.69 2297.19 1489.72 Q2294.51 1493.73 2289.43 1493.73 Q2284.35 1493.73 2281.65 1489.72 Q2278.98 1485.69 2278.98 1478.05 Q2278.98 1470.39 2281.65 1466.38 Q2284.35 1462.35 2289.43 1462.35 Z" fill="#000000" fill-rule="nonzero" fill-opacity="1" /><path clip-path="url(#clip640)" d="M2315.82 1465.59 Q2312.66 1465.59 2311.06 1468.71 Q2309.48 1471.81 2309.48 1478.05 Q2309.48 1484.27 2311.06 1487.39 Q2312.66 1490.49 2315.82 1490.49 Q2319 1490.49 2320.58 1487.39 Q2322.18 1484.27 2322.18 1478.05 Q2322.18 1471.81 2320.58 1468.71 Q2319 1465.59 2315.82 1465.59 M2315.82 1462.35 Q2320.91 1462.35 2323.58 1466.38 Q2326.27 1470.39 2326.27 1478.05 Q2326.27 1485.69 2323.58 1489.72 Q2320.91 1493.73 2315.82 1493.73 Q2310.74 1493.73 2308.04 1489.72 Q2305.37 1485.69 2305.37 1478.05 Q2305.37 1470.39 2308.04 1466.38 Q2310.74 1462.35 2315.82 1462.35 Z" fill="#000000" fill-rule="nonzero" fill-opacity="1" /><path clip-path="url(#clip640)" d="M945.975 1549.49 Q940.168 1549.49 937.928 1550.82 Q935.689 1552.15 935.689 1555.35 Q935.689 1557.91 937.355 1559.42 Q939.048 1560.9 941.939 1560.9 Q945.923 1560.9 948.319 1558.09 Q950.741 1555.25 950.741 1550.56 L950.741 1549.49 L945.975 1549.49 M955.532 1547.52 L955.532 1564.16 L950.741 1564.16 L950.741 1559.73 Q949.1 1562.39 946.652 1563.66 Q944.204 1564.91 940.663 1564.91 Q936.183 1564.91 933.527 1562.41 Q930.897 1559.89 930.897 1555.67 Q930.897 1550.74 934.178 1548.24 Q937.485 1545.74 944.022 1545.74 L950.741 1545.74 L950.741 1545.28 Q950.741 1541.97 948.553 1540.17 Q946.392 1538.35 942.459 1538.35 Q939.959 1538.35 937.59 1538.95 Q935.22 1539.55 933.032 1540.74 L933.032 1536.32 Q935.663 1535.3 938.137 1534.81 Q940.61 1534.29 942.954 1534.29 Q949.282 1534.29 952.407 1537.57 Q955.532 1540.85 955.532 1547.52 Z" fill="#000000" fill-rule="nonzero" fill-opacity="1" /><path clip-path="url(#clip640)" d="M970.142 1526.71 L970.142 1534.99 L980.011 1534.99 L980.011 1538.71 L970.142 1538.71 L970.142 1554.55 Q970.142 1558.11 971.105 1559.13 Q972.095 1560.15 975.089 1560.15 L980.011 1560.15 L980.011 1564.16 L975.089 1564.16 Q969.543 1564.16 967.433 1562.1 Q965.324 1560.02 965.324 1554.55 L965.324 1538.71 L961.808 1538.71 L961.808 1534.99 L965.324 1534.99 L965.324 1526.71 L970.142 1526.71 Z" fill="#000000" fill-rule="nonzero" fill-opacity="1" /><path clip-path="url(#clip640)" d="M997.615 1538.35 Q993.761 1538.35 991.522 1541.37 Q989.282 1544.36 989.282 1549.6 Q989.282 1554.83 991.496 1557.85 Q993.735 1560.85 997.615 1560.85 Q1001.44 1560.85 1003.68 1557.83 Q1005.92 1554.81 1005.92 1549.6 Q1005.92 1544.42 1003.68 1541.4 Q1001.44 1538.35 997.615 1538.35 M997.615 1534.29 Q1003.87 1534.29 1007.43 1538.35 Q1011 1542.41 1011 1549.6 Q1011 1556.76 1007.43 1560.85 Q1003.87 1564.91 997.615 1564.91 Q991.339 1564.91 987.772 1560.85 Q984.23 1556.76 984.23 1549.6 Q984.23 1542.41 987.772 1538.35 Q991.339 1534.29 997.615 1534.29 Z" fill="#000000" fill-rule="nonzero" fill-opacity="1" /><path clip-path="url(#clip640)" d="M1041.65 1540.59 Q1043.45 1537.36 1045.95 1535.82 Q1048.45 1534.29 1051.83 1534.29 Q1056.39 1534.29 1058.87 1537.49 Q1061.34 1540.67 1061.34 1546.55 L1061.34 1564.16 L1056.52 1564.16 L1056.52 1546.71 Q1056.52 1542.52 1055.04 1540.48 Q1053.55 1538.45 1050.51 1538.45 Q1046.78 1538.45 1044.62 1540.93 Q1042.46 1543.4 1042.46 1547.67 L1042.46 1564.16 L1037.64 1564.16 L1037.64 1546.71 Q1037.64 1542.49 1036.16 1540.48 Q1034.67 1538.45 1031.57 1538.45 Q1027.9 1538.45 1025.74 1540.95 Q1023.58 1543.43 1023.58 1547.67 L1023.58 1564.16 L1018.76 1564.16 L1018.76 1534.99 L1023.58 1534.99 L1023.58 1539.52 Q1025.22 1536.84 1027.51 1535.56 Q1029.8 1534.29 1032.95 1534.29 Q1036.13 1534.29 1038.34 1535.9 Q1040.58 1537.52 1041.65 1540.59 Z" fill="#000000" fill-rule="nonzero" fill-opacity="1" /><path clip-path="url(#clip640)" d="M1071.57 1557.54 L1077.07 1557.54 L1077.07 1564.16 L1071.57 1564.16 L1071.57 1557.54 Z" fill="#000000" fill-rule="nonzero" fill-opacity="1" /><path clip-path="url(#clip640)" d="M1110.56 1540.59 Q1112.35 1537.36 1114.85 1535.82 Q1117.35 1534.29 1120.74 1534.29 Q1125.3 1534.29 1127.77 1537.49 Q1130.24 1540.67 1130.24 1546.55 L1130.24 1564.16 L1125.43 1564.16 L1125.43 1546.71 Q1125.43 1542.52 1123.94 1540.48 Q1122.46 1538.45 1119.41 1538.45 Q1115.69 1538.45 1113.53 1540.93 Q1111.36 1543.4 1111.36 1547.67 L1111.36 1564.16 L1106.55 1564.16 L1106.55 1546.71 Q1106.55 1542.49 1105.06 1540.48 Q1103.58 1538.45 1100.48 1538.45 Q1096.81 1538.45 1094.65 1540.95 Q1092.48 1543.43 1092.48 1547.67 L1092.48 1564.16 L1087.67 1564.16 L1087.67 1534.99 L1092.48 1534.99 L1092.48 1539.52 Q1094.13 1536.84 1096.42 1535.56 Q1098.71 1534.29 1101.86 1534.29 Q1105.04 1534.29 1107.25 1535.9 Q1109.49 1537.52 1110.56 1540.59 Z" fill="#000000" fill-rule="nonzero" fill-opacity="1" /><path clip-path="url(#clip640)" d="M1139.8 1534.99 L1144.59 1534.99 L1144.59 1564.16 L1139.8 1564.16 L1139.8 1534.99 M1139.8 1523.64 L1144.59 1523.64 L1144.59 1529.7 L1139.8 1529.7 L1139.8 1523.64 Z" fill="#000000" fill-rule="nonzero" fill-opacity="1" /><path clip-path="url(#clip640)" d="M1178.86 1546.55 L1178.86 1564.16 L1174.07 1564.16 L1174.07 1546.71 Q1174.07 1542.57 1172.46 1540.51 Q1170.84 1538.45 1167.61 1538.45 Q1163.73 1538.45 1161.49 1540.93 Q1159.26 1543.4 1159.26 1547.67 L1159.26 1564.16 L1154.44 1564.16 L1154.44 1534.99 L1159.26 1534.99 L1159.26 1539.52 Q1160.97 1536.89 1163.29 1535.59 Q1165.64 1534.29 1168.68 1534.29 Q1173.71 1534.29 1176.29 1537.41 Q1178.86 1540.51 1178.86 1546.55 Z" fill="#000000" fill-rule="nonzero" fill-opacity="1" /><path clip-path="url(#clip640)" d="M1210.58 1573.01 L1210.58 1576.73 L1182.87 1576.73 L1182.87 1573.01 L1210.58 1573.01 Z" fill="#000000" fill-rule="nonzero" fill-opacity="1" /><path clip-path="url(#clip640)" d="M1233.68 1535.85 L1233.68 1540.38 Q1231.65 1539.34 1229.46 1538.82 Q1227.28 1538.3 1224.93 1538.3 Q1221.36 1538.3 1219.57 1539.39 Q1217.8 1540.48 1217.8 1542.67 Q1217.8 1544.34 1219.07 1545.3 Q1220.35 1546.24 1224.2 1547.1 L1225.84 1547.46 Q1230.95 1548.56 1233.08 1550.56 Q1235.24 1552.54 1235.24 1556.11 Q1235.24 1560.17 1232.02 1562.54 Q1228.81 1564.91 1223.19 1564.91 Q1220.84 1564.91 1218.29 1564.44 Q1215.77 1564 1212.95 1563.09 L1212.95 1558.14 Q1215.61 1559.52 1218.19 1560.22 Q1220.77 1560.9 1223.29 1560.9 Q1226.68 1560.9 1228.5 1559.75 Q1230.32 1558.58 1230.32 1556.47 Q1230.32 1554.52 1228.99 1553.48 Q1227.69 1552.44 1223.24 1551.47 L1221.57 1551.08 Q1217.12 1550.15 1215.14 1548.22 Q1213.16 1546.27 1213.16 1542.88 Q1213.16 1538.77 1216.08 1536.53 Q1218.99 1534.29 1224.36 1534.29 Q1227.02 1534.29 1229.36 1534.68 Q1231.7 1535.07 1233.68 1535.85 Z" fill="#000000" fill-rule="nonzero" fill-opacity="1" /><path clip-path="url(#clip640)" d="M1256.13 1549.49 Q1250.32 1549.49 1248.08 1550.82 Q1245.84 1552.15 1245.84 1555.35 Q1245.84 1557.91 1247.51 1559.42 Q1249.2 1560.9 1252.09 1560.9 Q1256.08 1560.9 1258.47 1558.09 Q1260.9 1555.25 1260.9 1550.56 L1260.9 1549.49 L1256.13 1549.49 M1265.69 1547.52 L1265.69 1564.16 L1260.9 1564.16 L1260.9 1559.73 Q1259.25 1562.39 1256.81 1563.66 Q1254.36 1564.91 1250.82 1564.91 Q1246.34 1564.91 1243.68 1562.41 Q1241.05 1559.89 1241.05 1555.67 Q1241.05 1550.74 1244.33 1548.24 Q1247.64 1545.74 1254.18 1545.74 L1260.9 1545.74 L1260.9 1545.28 Q1260.9 1541.97 1258.71 1540.17 Q1256.55 1538.35 1252.61 1538.35 Q1250.11 1538.35 1247.74 1538.95 Q1245.37 1539.55 1243.19 1540.74 L1243.19 1536.32 Q1245.82 1535.3 1248.29 1534.81 Q1250.77 1534.29 1253.11 1534.29 Q1259.44 1534.29 1262.56 1537.57 Q1265.69 1540.85 1265.69 1547.52 Z" fill="#000000" fill-rule="nonzero" fill-opacity="1" /><path clip-path="url(#clip640)" d="M1298.26 1540.59 Q1300.06 1537.36 1302.56 1535.82 Q1305.06 1534.29 1308.45 1534.29 Q1313 1534.29 1315.48 1537.49 Q1317.95 1540.67 1317.95 1546.55 L1317.95 1564.16 L1313.13 1564.16 L1313.13 1546.71 Q1313.13 1542.52 1311.65 1540.48 Q1310.17 1538.45 1307.12 1538.45 Q1303.39 1538.45 1301.23 1540.93 Q1299.07 1543.4 1299.07 1547.67 L1299.07 1564.16 L1294.25 1564.16 L1294.25 1546.71 Q1294.25 1542.49 1292.77 1540.48 Q1291.29 1538.45 1288.19 1538.45 Q1284.51 1538.45 1282.35 1540.95 Q1280.19 1543.43 1280.19 1547.67 L1280.19 1564.16 L1275.37 1564.16 L1275.37 1534.99 L1280.19 1534.99 L1280.19 1539.52 Q1281.83 1536.84 1284.12 1535.56 Q1286.42 1534.29 1289.57 1534.29 Q1292.74 1534.29 1294.96 1535.9 Q1297.2 1537.52 1298.26 1540.59 Z" fill="#000000" fill-rule="nonzero" fill-opacity="1" /><path clip-path="url(#clip640)" d="M1332.14 1559.78 L1332.14 1575.25 L1327.33 1575.25 L1327.33 1534.99 L1332.14 1534.99 L1332.14 1539.42 Q1333.66 1536.81 1335.95 1535.56 Q1338.26 1534.29 1341.47 1534.29 Q1346.78 1534.29 1350.09 1538.5 Q1353.42 1542.72 1353.42 1549.6 Q1353.42 1556.47 1350.09 1560.69 Q1346.78 1564.91 1341.47 1564.91 Q1338.26 1564.91 1335.95 1563.66 Q1333.66 1562.39 1332.14 1559.78 M1348.45 1549.6 Q1348.45 1544.31 1346.26 1541.32 Q1344.1 1538.3 1340.3 1538.3 Q1336.49 1538.3 1334.31 1541.32 Q1332.14 1544.31 1332.14 1549.6 Q1332.14 1554.89 1334.31 1557.91 Q1336.49 1560.9 1340.3 1560.9 Q1344.1 1560.9 1346.26 1557.91 Q1348.45 1554.89 1348.45 1549.6 Z" fill="#000000" fill-rule="nonzero" fill-opacity="1" /><path clip-path="url(#clip640)" d="M1361.36 1523.64 L1366.16 1523.64 L1366.16 1564.16 L1361.36 1564.16 L1361.36 1523.64 Z" fill="#000000" fill-rule="nonzero" fill-opacity="1" /><path clip-path="url(#clip640)" d="M1401.13 1548.37 L1401.13 1550.72 L1379.1 1550.72 Q1379.41 1555.67 1382.07 1558.27 Q1384.75 1560.85 1389.51 1560.85 Q1392.27 1560.85 1394.85 1560.17 Q1397.46 1559.49 1400.01 1558.14 L1400.01 1562.67 Q1397.43 1563.77 1394.72 1564.34 Q1392.01 1564.91 1389.23 1564.91 Q1382.25 1564.91 1378.16 1560.85 Q1374.1 1556.79 1374.1 1549.86 Q1374.1 1542.7 1377.95 1538.5 Q1381.83 1534.29 1388.39 1534.29 Q1394.28 1534.29 1397.69 1538.09 Q1401.13 1541.86 1401.13 1548.37 M1396.34 1546.97 Q1396.29 1543.04 1394.12 1540.69 Q1391.99 1538.35 1388.45 1538.35 Q1384.44 1538.35 1382.01 1540.61 Q1379.62 1542.88 1379.25 1546.99 L1396.34 1546.97 Z" fill="#000000" fill-rule="nonzero" fill-opacity="1" /><path clip-path="url(#clip640)" d="M1427.59 1535.85 L1427.59 1540.38 Q1425.56 1539.34 1423.37 1538.82 Q1421.18 1538.3 1418.84 1538.3 Q1415.27 1538.3 1413.47 1539.39 Q1411.7 1540.48 1411.7 1542.67 Q1411.7 1544.34 1412.98 1545.3 Q1414.25 1546.24 1418.11 1547.1 L1419.75 1547.46 Q1424.85 1548.56 1426.99 1550.56 Q1429.15 1552.54 1429.15 1556.11 Q1429.15 1560.17 1425.92 1562.54 Q1422.72 1564.91 1417.09 1564.91 Q1414.75 1564.91 1412.2 1564.44 Q1409.67 1564 1406.86 1563.09 L1406.86 1558.14 Q1409.51 1559.52 1412.09 1560.22 Q1414.67 1560.9 1417.2 1560.9 Q1420.58 1560.9 1422.4 1559.75 Q1424.23 1558.58 1424.23 1556.47 Q1424.23 1554.52 1422.9 1553.48 Q1421.6 1552.44 1417.14 1551.47 L1415.48 1551.08 Q1411.02 1550.15 1409.05 1548.22 Q1407.07 1546.27 1407.07 1542.88 Q1407.07 1538.77 1409.98 1536.53 Q1412.9 1534.29 1418.26 1534.29 Q1420.92 1534.29 1423.26 1534.68 Q1425.61 1535.07 1427.59 1535.85 Z" fill="#000000" fill-rule="nonzero" fill-opacity="1" /><path clip-path="url(#clip640)" d="M1458.94 1573.01 L1458.94 1576.73 L1431.23 1576.73 L1431.23 1573.01 L1458.94 1573.01 Z" fill="#000000" fill-rule="nonzero" fill-opacity="1" /><path clip-path="url(#clip640)" d="M1482.04 1535.85 L1482.04 1540.38 Q1480.01 1539.34 1477.82 1538.82 Q1475.63 1538.3 1473.29 1538.3 Q1469.72 1538.3 1467.93 1539.39 Q1466.15 1540.48 1466.15 1542.67 Q1466.15 1544.34 1467.43 1545.3 Q1468.71 1546.24 1472.56 1547.1 L1474.2 1547.46 Q1479.31 1548.56 1481.44 1550.56 Q1483.6 1552.54 1483.6 1556.11 Q1483.6 1560.17 1480.37 1562.54 Q1477.17 1564.91 1471.55 1564.91 Q1469.2 1564.91 1466.65 1564.44 Q1464.12 1564 1461.31 1563.09 L1461.31 1558.14 Q1463.97 1559.52 1466.55 1560.22 Q1469.12 1560.9 1471.65 1560.9 Q1475.03 1560.9 1476.86 1559.75 Q1478.68 1558.58 1478.68 1556.47 Q1478.68 1554.52 1477.35 1553.48 Q1476.05 1552.44 1471.6 1551.47 L1469.93 1551.08 Q1465.48 1550.15 1463.5 1548.22 Q1461.52 1546.27 1461.52 1542.88 Q1461.52 1538.77 1464.44 1536.53 Q1467.35 1534.29 1472.72 1534.29 Q1475.37 1534.29 1477.72 1534.68 Q1480.06 1535.07 1482.04 1535.85 Z" fill="#000000" fill-rule="nonzero" fill-opacity="1" /><path clip-path="url(#clip640)" d="M1495.87 1559.78 L1495.87 1575.25 L1491.05 1575.25 L1491.05 1534.99 L1495.87 1534.99 L1495.87 1539.42 Q1497.38 1536.81 1499.67 1535.56 Q1501.99 1534.29 1505.19 1534.29 Q1510.5 1534.29 1513.81 1538.5 Q1517.14 1542.72 1517.14 1549.6 Q1517.14 1556.47 1513.81 1560.69 Q1510.5 1564.91 1505.19 1564.91 Q1501.99 1564.91 1499.67 1563.66 Q1497.38 1562.39 1495.87 1559.78 M1512.17 1549.6 Q1512.17 1544.31 1509.98 1541.32 Q1507.82 1538.3 1504.02 1538.3 Q1500.22 1538.3 1498.03 1541.32 Q1495.87 1544.31 1495.87 1549.6 Q1495.87 1554.89 1498.03 1557.91 Q1500.22 1560.9 1504.02 1560.9 Q1507.82 1560.9 1509.98 1557.91 Q1512.17 1554.89 1512.17 1549.6 Z" fill="#000000" fill-rule="nonzero" fill-opacity="1" /><path clip-path="url(#clip640)" d="M1525.09 1523.64 L1529.88 1523.64 L1529.88 1564.16 L1525.09 1564.16 L1525.09 1523.64 Z" fill="#000000" fill-rule="nonzero" fill-opacity="1" /><path clip-path="url(#clip640)" d="M1539.9 1534.99 L1544.7 1534.99 L1544.7 1564.16 L1539.9 1564.16 L1539.9 1534.99 M1539.9 1523.64 L1544.7 1523.64 L1544.7 1529.7 L1539.9 1529.7 L1539.9 1523.64 Z" fill="#000000" fill-rule="nonzero" fill-opacity="1" /><path clip-path="url(#clip640)" d="M1559.46 1526.71 L1559.46 1534.99 L1569.33 1534.99 L1569.33 1538.71 L1559.46 1538.71 L1559.46 1554.55 Q1559.46 1558.11 1560.42 1559.13 Q1561.41 1560.15 1564.41 1560.15 L1569.33 1560.15 L1569.33 1564.16 L1564.41 1564.16 Q1558.86 1564.16 1556.75 1562.1 Q1554.64 1560.02 1554.64 1554.55 L1554.64 1538.71 L1551.13 1538.71 L1551.13 1534.99 L1554.64 1534.99 L1554.64 1526.71 L1559.46 1526.71 Z" fill="#000000" fill-rule="nonzero" fill-opacity="1" /><polyline clip-path="url(#clip642)" style="stroke:#000000; stroke-linecap:round; stroke-linejoin:round; stroke-width:2; stroke-opacity:0.1; fill:none" points="147.472,1259.29 2352.76,1259.29 "/>
<polyline clip-path="url(#clip642)" style="stroke:#000000; stroke-linecap:round; stroke-linejoin:round; stroke-width:2; stroke-opacity:0.1; fill:none" points="147.472,1030.41 2352.76,1030.41 "/>
<polyline clip-path="url(#clip642)" style="stroke:#000000; stroke-linecap:round; stroke-linejoin:round; stroke-width:2; stroke-opacity:0.1; fill:none" points="147.472,801.529 2352.76,801.529 "/>
<polyline clip-path="url(#clip642)" style="stroke:#000000; stroke-linecap:round; stroke-linejoin:round; stroke-width:2; stroke-opacity:0.1; fill:none" points="147.472,572.65 2352.76,572.65 "/>
<polyline clip-path="url(#clip642)" style="stroke:#000000; stroke-linecap:round; stroke-linejoin:round; stroke-width:2; stroke-opacity:0.1; fill:none" points="147.472,343.771 2352.76,343.771 "/>
<polyline clip-path="url(#clip642)" style="stroke:#000000; stroke-linecap:round; stroke-linejoin:round; stroke-width:2; stroke-opacity:0.1; fill:none" points="147.472,114.892 2352.76,114.892 "/>
<polyline clip-path="url(#clip640)" style="stroke:#000000; stroke-linecap:round; stroke-linejoin:round; stroke-width:4; stroke-opacity:1; fill:none" points="147.472,1436.14 147.472,47.2441 "/>
<polyline clip-path="url(#clip640)" style="stroke:#000000; stroke-linecap:round; stroke-linejoin:round; stroke-width:4; stroke-opacity:1; fill:none" points="147.472,1259.29 166.37,1259.29 "/>
<polyline clip-path="url(#clip640)" style="stroke:#000000; stroke-linecap:round; stroke-linejoin:round; stroke-width:4; stroke-opacity:1; fill:none" points="147.472,1030.41 166.37,1030.41 "/>
<polyline clip-path="url(#clip640)" style="stroke:#000000; stroke-linecap:round; stroke-linejoin:round; stroke-width:4; stroke-opacity:1; fill:none" points="147.472,801.529 166.37,801.529 "/>
<polyline clip-path="url(#clip640)" style="stroke:#000000; stroke-linecap:round; stroke-linejoin:round; stroke-width:4; stroke-opacity:1; fill:none" points="147.472,572.65 166.37,572.65 "/>
<polyline clip-path="url(#clip640)" style="stroke:#000000; stroke-linecap:round; stroke-linejoin:round; stroke-width:4; stroke-opacity:1; fill:none" points="147.472,343.771 166.37,343.771 "/>
<polyline clip-path="url(#clip640)" style="stroke:#000000; stroke-linecap:round; stroke-linejoin:round; stroke-width:4; stroke-opacity:1; fill:none" points="147.472,114.892 166.37,114.892 "/>
<path clip-path="url(#clip640)" d="M66.1628 1258.1 Q69.0997 1258.73 70.7403 1260.72 Q72.4012 1262.7 72.4012 1265.62 Q72.4012 1270.09 69.3225 1272.54 Q66.2438 1274.99 60.5725 1274.99 Q58.6686 1274.99 56.6431 1274.61 Q54.6379 1274.25 52.491 1273.5 L52.491 1269.55 Q54.1923 1270.54 56.2178 1271.05 Q58.2432 1271.55 60.451 1271.55 Q64.2993 1271.55 66.3045 1270.03 Q68.33 1268.51 68.33 1265.62 Q68.33 1262.94 66.4463 1261.44 Q64.5829 1259.93 61.2409 1259.93 L57.7166 1259.93 L57.7166 1256.56 L61.4029 1256.56 Q64.4209 1256.56 66.021 1255.37 Q67.6211 1254.15 67.6211 1251.88 Q67.6211 1249.56 65.9602 1248.32 Q64.3196 1247.06 61.2409 1247.06 Q59.5598 1247.06 57.6356 1247.43 Q55.7114 1247.79 53.4024 1248.56 L53.4024 1244.92 Q55.7317 1244.27 57.7571 1243.94 Q59.8028 1243.62 61.6055 1243.62 Q66.264 1243.62 68.9781 1245.75 Q71.6922 1247.85 71.6922 1251.46 Q71.6922 1253.97 70.2542 1255.71 Q68.8161 1257.43 66.1628 1258.1 Z" fill="#000000" fill-rule="nonzero" fill-opacity="1" /><path clip-path="url(#clip640)" d="M80.1586 1269.26 L84.4323 1269.26 L84.4323 1274.41 L80.1586 1274.41 L80.1586 1269.26 Z" fill="#000000" fill-rule="nonzero" fill-opacity="1" /><path clip-path="url(#clip640)" d="M94.0532 1270.96 L100.737 1270.96 L100.737 1247.89 L93.4659 1249.35 L93.4659 1245.63 L100.697 1244.17 L104.788 1244.17 L104.788 1270.96 L111.472 1270.96 L111.472 1274.41 L94.0532 1274.41 L94.0532 1270.96 Z" fill="#000000" fill-rule="nonzero" fill-opacity="1" /><path clip-path="url(#clip640)" d="M66.4868 1029.22 Q69.4237 1029.85 71.0644 1031.84 Q72.7252 1033.82 72.7252 1036.74 Q72.7252 1041.21 69.6465 1043.66 Q66.5679 1046.12 60.8966 1046.12 Q58.9927 1046.12 56.9672 1045.73 Q54.962 1045.37 52.815 1044.62 L52.815 1040.67 Q54.5164 1041.66 56.5419 1042.17 Q58.5673 1042.67 60.7751 1042.67 Q64.6234 1042.67 66.6286 1041.15 Q68.6541 1039.63 68.6541 1036.74 Q68.6541 1034.06 66.7704 1032.57 Q64.907 1031.05 61.565 1031.05 L58.0407 1031.05 L58.0407 1027.68 L61.727 1027.68 Q64.7449 1027.68 66.3451 1026.49 Q67.9452 1025.27 67.9452 1023.01 Q67.9452 1020.68 66.2843 1019.44 Q64.6437 1018.18 61.565 1018.18 Q59.8839 1018.18 57.9597 1018.55 Q56.0355 1018.91 53.7265 1019.68 L53.7265 1016.04 Q56.0558 1015.39 58.0812 1015.07 Q60.1269 1014.74 61.9296 1014.74 Q66.5881 1014.74 69.3022 1016.87 Q72.0163 1018.97 72.0163 1022.58 Q72.0163 1025.09 70.5782 1026.83 Q69.1402 1028.56 66.4868 1029.22 Z" fill="#000000" fill-rule="nonzero" fill-opacity="1" /><path clip-path="url(#clip640)" d="M80.4827 1040.38 L84.7564 1040.38 L84.7564 1045.53 L80.4827 1045.53 L80.4827 1040.38 Z" fill="#000000" fill-rule="nonzero" fill-opacity="1" /><path clip-path="url(#clip640)" d="M97.1927 1042.09 L111.472 1042.09 L111.472 1045.53 L92.2708 1045.53 L92.2708 1042.09 Q94.6001 1039.67 98.6105 1035.62 Q102.641 1031.55 103.674 1030.38 Q105.639 1028.17 106.408 1026.65 Q107.198 1025.11 107.198 1023.63 Q107.198 1021.22 105.497 1019.7 Q103.816 1018.18 101.102 1018.18 Q99.1776 1018.18 97.0307 1018.85 Q94.9039 1019.52 92.4734 1020.88 L92.4734 1016.75 Q94.9444 1015.75 97.0914 1015.25 Q99.2384 1014.74 101.021 1014.74 Q105.72 1014.74 108.515 1017.09 Q111.31 1019.44 111.31 1023.37 Q111.31 1025.23 110.601 1026.91 Q109.913 1028.58 108.069 1030.84 Q107.563 1031.43 104.849 1034.25 Q102.135 1037.04 97.1927 1042.09 Z" fill="#000000" fill-rule="nonzero" fill-opacity="1" /><path clip-path="url(#clip640)" d="M65.6564 800.345 Q68.5933 800.972 70.2339 802.957 Q71.8948 804.942 71.8948 807.859 Q71.8948 812.335 68.8161 814.786 Q65.7374 817.237 60.0662 817.237 Q58.1622 817.237 56.1368 816.852 Q54.1316 816.487 51.9846 815.738 L51.9846 811.788 Q53.686 812.781 55.7114 813.287 Q57.7369 813.794 59.9446 813.794 Q63.793 813.794 65.7982 812.274 Q67.8236 810.755 67.8236 807.859 Q67.8236 805.185 65.94 803.686 Q64.0765 802.167 60.7346 802.167 L57.2103 802.167 L57.2103 798.805 L60.8966 798.805 Q63.9145 798.805 65.5146 797.61 Q67.1147 796.395 67.1147 794.126 Q67.1147 791.797 65.4539 790.562 Q63.8132 789.306 60.7346 789.306 Q59.0534 789.306 57.1292 789.67 Q55.2051 790.035 52.8961 790.805 L52.8961 787.159 Q55.2253 786.511 57.2508 786.187 Q59.2965 785.863 61.0991 785.863 Q65.7577 785.863 68.4718 787.989 Q71.1859 790.096 71.1859 793.701 Q71.1859 796.213 69.7478 797.954 Q68.3097 799.676 65.6564 800.345 Z" fill="#000000" fill-rule="nonzero" fill-opacity="1" /><path clip-path="url(#clip640)" d="M79.6523 811.505 L83.926 811.505 L83.926 816.649 L79.6523 816.649 L79.6523 811.505 Z" fill="#000000" fill-rule="nonzero" fill-opacity="1" /><path clip-path="url(#clip640)" d="M105.234 800.345 Q108.171 800.972 109.811 802.957 Q111.472 804.942 111.472 807.859 Q111.472 812.335 108.393 814.786 Q105.315 817.237 99.6435 817.237 Q97.7396 817.237 95.7141 816.852 Q93.7089 816.487 91.5619 815.738 L91.5619 811.788 Q93.2633 812.781 95.2888 813.287 Q97.3142 813.794 99.522 813.794 Q103.37 813.794 105.376 812.274 Q107.401 810.755 107.401 807.859 Q107.401 805.185 105.517 803.686 Q103.654 802.167 100.312 802.167 L96.7876 802.167 L96.7876 798.805 L100.474 798.805 Q103.492 798.805 105.092 797.61 Q106.692 796.395 106.692 794.126 Q106.692 791.797 105.031 790.562 Q103.391 789.306 100.312 789.306 Q98.6308 789.306 96.7066 789.67 Q94.7824 790.035 92.4734 790.805 L92.4734 787.159 Q94.8027 786.511 96.8281 786.187 Q98.8738 785.863 100.676 785.863 Q105.335 785.863 108.049 787.989 Q110.763 790.096 110.763 793.701 Q110.763 796.213 109.325 797.954 Q107.887 799.676 105.234 800.345 Z" fill="#000000" fill-rule="nonzero" fill-opacity="1" /><path clip-path="url(#clip640)" d="M64.6639 571.465 Q67.6008 572.093 69.2414 574.078 Q70.9023 576.063 70.9023 578.98 Q70.9023 583.456 67.8236 585.907 Q64.7449 588.358 59.0737 588.358 Q57.1698 588.358 55.1443 587.973 Q53.1391 587.608 50.9921 586.859 L50.9921 582.909 Q52.6935 583.902 54.719 584.408 Q56.7444 584.914 58.9522 584.914 Q62.8005 584.914 64.8057 583.395 Q66.8312 581.876 66.8312 578.98 Q66.8312 576.306 64.9475 574.807 Q63.0841 573.288 59.7421 573.288 L56.2178 573.288 L56.2178 569.926 L59.9041 569.926 Q62.922 569.926 64.5221 568.731 Q66.1223 567.516 66.1223 565.247 Q66.1223 562.918 64.4614 561.683 Q62.8208 560.427 59.7421 560.427 Q58.061 560.427 56.1368 560.791 Q54.2126 561.156 51.9036 561.926 L51.9036 558.28 Q54.2328 557.632 56.2583 557.308 Q58.304 556.984 60.1067 556.984 Q64.7652 556.984 67.4793 559.11 Q70.1934 561.217 70.1934 564.822 Q70.1934 567.334 68.7553 569.075 Q67.3173 570.797 64.6639 571.465 Z" fill="#000000" fill-rule="nonzero" fill-opacity="1" /><path clip-path="url(#clip640)" d="M78.6598 582.626 L82.9335 582.626 L82.9335 587.77 L78.6598 587.77 L78.6598 582.626 Z" fill="#000000" fill-rule="nonzero" fill-opacity="1" /><path clip-path="url(#clip640)" d="M103.087 561.095 L92.7569 577.238 L103.087 577.238 L103.087 561.095 M102.013 557.53 L107.158 557.53 L107.158 577.238 L111.472 577.238 L111.472 580.641 L107.158 580.641 L107.158 587.77 L103.087 587.77 L103.087 580.641 L89.4352 580.641 L89.4352 576.691 L102.013 557.53 Z" fill="#000000" fill-rule="nonzero" fill-opacity="1" /><path clip-path="url(#clip640)" d="M65.9602 342.586 Q68.8971 343.214 70.5377 345.199 Q72.1986 347.184 72.1986 350.101 Q72.1986 354.577 69.1199 357.028 Q66.0412 359.479 60.37 359.479 Q58.466 359.479 56.4406 359.094 Q54.4354 358.729 52.2884 357.98 L52.2884 354.03 Q53.9898 355.023 56.0152 355.529 Q58.0407 356.035 60.2484 356.035 Q64.0968 356.035 66.102 354.516 Q68.1275 352.997 68.1275 350.101 Q68.1275 347.427 66.2438 345.928 Q64.3804 344.409 61.0384 344.409 L57.5141 344.409 L57.5141 341.047 L61.2004 341.047 Q64.2183 341.047 65.8184 339.852 Q67.4185 338.637 67.4185 336.368 Q67.4185 334.039 65.7577 332.804 Q64.1171 331.548 61.0384 331.548 Q59.3572 331.548 57.4331 331.912 Q55.5089 332.277 53.1999 333.047 L53.1999 329.401 Q55.5291 328.753 57.5546 328.429 Q59.6003 328.104 61.4029 328.104 Q66.0615 328.104 68.7756 330.231 Q71.4897 332.338 71.4897 335.943 Q71.4897 338.455 70.0516 340.196 Q68.6136 341.918 65.9602 342.586 Z" fill="#000000" fill-rule="nonzero" fill-opacity="1" /><path clip-path="url(#clip640)" d="M79.9561 353.747 L84.2298 353.747 L84.2298 358.891 L79.9561 358.891 L79.9561 353.747 Z" fill="#000000" fill-rule="nonzero" fill-opacity="1" /><path clip-path="url(#clip640)" d="M93.1823 328.651 L109.244 328.651 L109.244 332.095 L96.9294 332.095 L96.9294 339.508 Q97.8206 339.204 98.7118 339.062 Q99.603 338.9 100.494 338.9 Q105.558 338.9 108.515 341.675 Q111.472 344.45 111.472 349.189 Q111.472 354.071 108.434 356.785 Q105.396 359.479 99.8663 359.479 Q97.9624 359.479 95.9774 359.155 Q94.0127 358.831 91.9063 358.182 L91.9063 354.071 Q93.7292 355.063 95.6736 355.549 Q97.618 356.035 99.7853 356.035 Q103.289 356.035 105.335 354.192 Q107.381 352.349 107.381 349.189 Q107.381 346.03 105.335 344.187 Q103.289 342.343 99.7853 342.343 Q98.1447 342.343 96.504 342.708 Q94.8837 343.073 93.1823 343.842 L93.1823 328.651 Z" fill="#000000" fill-rule="nonzero" fill-opacity="1" /><path clip-path="url(#clip640)" d="M64.9475 113.707 Q67.8844 114.335 69.525 116.32 Q71.1859 118.305 71.1859 121.222 Q71.1859 125.698 68.1072 128.149 Q65.0285 130.6 59.3572 130.6 Q57.4533 130.6 55.4279 130.215 Q53.4227 129.85 51.2757 129.101 L51.2757 125.151 Q52.9771 126.144 55.0025 126.65 Q57.028 127.156 59.2357 127.156 Q63.0841 127.156 65.0893 125.637 Q67.1147 124.118 67.1147 121.222 Q67.1147 118.548 65.2311 117.049 Q63.3676 115.53 60.0256 115.53 L56.5014 115.53 L56.5014 112.168 L60.1877 112.168 Q63.2056 112.168 64.8057 110.973 Q66.4058 109.758 66.4058 107.489 Q66.4058 105.16 64.7449 103.925 Q63.1043 102.669 60.0256 102.669 Q58.3445 102.669 56.4203 103.033 Q54.4962 103.398 52.1871 104.168 L52.1871 100.522 Q54.5164 99.8736 56.5419 99.5496 Q58.5876 99.2255 60.3902 99.2255 Q65.0488 99.2255 67.7629 101.352 Q70.477 103.459 70.477 107.064 Q70.477 109.576 69.0389 111.317 Q67.6008 113.039 64.9475 113.707 Z" fill="#000000" fill-rule="nonzero" fill-opacity="1" /><path clip-path="url(#clip640)" d="M78.9434 124.868 L83.2171 124.868 L83.2171 130.012 L78.9434 130.012 L78.9434 124.868 Z" fill="#000000" fill-rule="nonzero" fill-opacity="1" /><path clip-path="url(#clip640)" d="M101.385 113.262 Q98.6308 113.262 97.0104 115.146 Q95.4103 117.029 95.4103 120.31 Q95.4103 123.571 97.0104 125.475 Q98.6308 127.359 101.385 127.359 Q104.14 127.359 105.74 125.475 Q107.36 123.571 107.36 120.31 Q107.36 117.029 105.74 115.146 Q104.14 113.262 101.385 113.262 M109.507 100.441 L109.507 104.168 Q107.968 103.438 106.388 103.054 Q104.829 102.669 103.289 102.669 Q99.2384 102.669 97.0914 105.403 Q94.9647 108.137 94.6609 113.667 Q95.8559 111.905 97.6585 110.973 Q99.4612 110.021 101.628 110.021 Q106.186 110.021 108.819 112.796 Q111.472 115.551 111.472 120.31 Q111.472 124.969 108.718 127.784 Q105.963 130.6 101.385 130.6 Q96.1395 130.6 93.3646 126.589 Q90.5897 122.559 90.5897 114.923 Q90.5897 107.753 93.9925 103.499 Q97.3952 99.2255 103.127 99.2255 Q104.667 99.2255 106.226 99.5293 Q107.806 99.8331 109.507 100.441 Z" fill="#000000" fill-rule="nonzero" fill-opacity="1" /><polyline clip-path="url(#clip642)" style="stroke:#009af9; stroke-linecap:round; stroke-linejoin:round; stroke-width:4; stroke-opacity:1; fill:none" points="209.886,1307.08 231.115,1359.05 252.344,1325.43 273.573,1253.98 294.802,1362.84 316.032,1263.86 337.261,1396.83 358.49,1232.71 379.719,1293.82 422.177,1239.83 443.406,1221.36 485.865,1162.36 528.323,1260.33 592.01,1287.76 655.698,1217.3 719.385,1182.75 804.302,1114.52 889.219,1012.66 995.364,791.408 1122.74,845.849 1250.11,740.402 1398.72,536.843 1589.78,526.021 1780.84,401.228 2014.36,250.045 2290.34,86.5525 "/>
<path clip-path="url(#clip640)" d="M220.982 184.261 L487.386 184.261 L487.386 93.5406 L220.982 93.5406  Z" fill="#ffffff" fill-rule="evenodd" fill-opacity="1"/>
<polyline clip-path="url(#clip640)" style="stroke:#000000; stroke-linecap:round; stroke-linejoin:round; stroke-width:4; stroke-opacity:1; fill:none" points="220.982,184.261 487.386,184.261 487.386,93.5406 220.982,93.5406 220.982,184.261 "/>
<polyline clip-path="url(#clip640)" style="stroke:#009af9; stroke-linecap:round; stroke-linejoin:round; stroke-width:3.5; stroke-opacity:1; fill:none" points="245.485,138.901 392.504,138.901 "/>
<path clip-path="url(#clip640)" d="M429.119 156.127 Q427.539 160.178 426.04 161.414 Q424.541 162.649 422.03 162.649 L419.053 162.649 L419.053 159.53 L421.24 159.53 Q422.779 159.53 423.63 158.801 Q424.481 158.072 425.514 155.357 L426.182 153.656 L417.007 131.336 L420.956 131.336 L428.046 149.079 L435.135 131.336 L439.084 131.336 L429.119 156.127 Z" fill="#000000" fill-rule="nonzero" fill-opacity="1" /><path clip-path="url(#clip640)" d="M445.464 150.577 L452.148 150.577 L452.148 127.507 L444.877 128.966 L444.877 125.239 L452.108 123.781 L456.199 123.781 L456.199 150.577 L462.883 150.577 L462.883 154.021 L445.464 154.021 L445.464 150.577 Z" fill="#000000" fill-rule="nonzero" fill-opacity="1" /></svg>
