<?xml version="1.0" encoding="utf-8"?>
<svg xmlns="http://www.w3.org/2000/svg" xmlns:xlink="http://www.w3.org/1999/xlink" width="600" height="400" viewBox="0 0 2400 1600">
<defs>
  <clipPath id="clip730">
    <rect x="0" y="0" width="2400" height="1600"/>
  </clipPath>
</defs>
<path clip-path="url(#clip730)" d="M0 1600 L2400 1600 L2400 8.88178e-14 L0 8.88178e-14  Z" fill="#ffffff" fill-rule="evenodd" fill-opacity="1"/>
<defs>
  <clipPath id="clip731">
    <rect x="480" y="0" width="1681" height="1600"/>
  </clipPath>
</defs>
<path clip-path="url(#clip730)" d="M437.356 1386.23 L2352.76 1386.23 L2352.76 47.2441 L437.356 47.2441  Z" fill="#ffffff" fill-rule="evenodd" fill-opacity="1"/>
<defs>
  <clipPath id="clip732">
    <rect x="437" y="47" width="1916" height="1340"/>
  </clipPath>
</defs>
<polyline clip-path="url(#clip732)" style="stroke:#000000; stroke-linecap:round; stroke-linejoin:round; stroke-width:2; stroke-opacity:0.1; fill:none" points="542.706,1386.23 542.706,47.2441 "/>
<polyline clip-path="url(#clip732)" style="stroke:#000000; stroke-linecap:round; stroke-linejoin:round; stroke-width:2; stroke-opacity:0.1; fill:none" points="1044.09,1386.23 1044.09,47.2441 "/>
<polyline clip-path="url(#clip732)" style="stroke:#000000; stroke-linecap:round; stroke-linejoin:round; stroke-width:2; stroke-opacity:0.1; fill:none" points="1545.47,1386.23 1545.47,47.2441 "/>
<polyline clip-path="url(#clip732)" style="stroke:#000000; stroke-linecap:round; stroke-linejoin:round; stroke-width:2; stroke-opacity:0.1; fill:none" points="2046.85,1386.23 2046.85,47.2441 "/>
<polyline clip-path="url(#clip730)" style="stroke:#000000; stroke-linecap:round; stroke-linejoin:round; stroke-width:4; stroke-opacity:1; fill:none" points="437.356,1386.23 2352.76,1386.23 "/>
<polyline clip-path="url(#clip730)" style="stroke:#000000; stroke-linecap:round; stroke-linejoin:round; stroke-width:4; stroke-opacity:1; fill:none" points="542.706,1386.23 542.706,1367.33 "/>
<polyline clip-path="url(#clip730)" style="stroke:#000000; stroke-linecap:round; stroke-linejoin:round; stroke-width:4; stroke-opacity:1; fill:none" points="1044.09,1386.23 1044.09,1367.33 "/>
<polyline clip-path="url(#clip730)" style="stroke:#000000; stroke-linecap:round; stroke-linejoin:round; stroke-width:4; stroke-opacity:1; fill:none" points="1545.47,1386.23 1545.47,1367.33 "/>
<polyline clip-path="url(#clip730)" style="stroke:#000000; stroke-linecap:round; stroke-linejoin:round; stroke-width:4; stroke-opacity:1; fill:none" points="2046.85,1386.23 2046.85,1367.33 "/>
<path clip-path="url(#clip730)" d="M542.706 1420.07 Q538.193 1420.07 535.907 1424.53 Q533.65 1428.96 533.65 1437.87 Q533.65 1446.75 535.907 1451.21 Q538.193 1455.64 542.706 1455.64 Q547.249 1455.64 549.506 1451.21 Q551.792 1446.75 551.792 1437.87 Q551.792 1428.96 549.506 1424.53 Q547.249 1420.07 542.706 1420.07 M542.706 1415.44 Q549.969 1415.44 553.789 1421.2 Q557.637 1426.93 557.637 1437.87 Q557.637 1448.78 553.789 1454.54 Q549.969 1460.26 542.706 1460.26 Q535.444 1460.26 531.595 1454.54 Q527.776 1448.78 527.776 1437.87 Q527.776 1426.93 531.595 1421.2 Q535.444 1415.44 542.706 1415.44 Z" fill="#000000" fill-rule="nonzero" fill-opacity="1" /><path clip-path="url(#clip730)" d="M927.712 1474.08 L937.26 1474.08 L937.26 1441.12 L926.873 1443.21 L926.873 1437.88 L937.203 1435.8 L943.047 1435.8 L943.047 1474.08 L952.596 1474.08 L952.596 1479 L927.712 1479 L927.712 1474.08 Z" fill="#000000" fill-rule="nonzero" fill-opacity="1" /><path clip-path="url(#clip730)" d="M964.401 1471.65 L970.507 1471.65 L970.507 1479 L964.401 1479 L964.401 1471.65 Z" fill="#000000" fill-rule="nonzero" fill-opacity="1" /><path clip-path="url(#clip730)" d="M995.738 1439.65 Q991.224 1439.65 988.938 1444.11 Q986.681 1448.53 986.681 1457.44 Q986.681 1466.33 988.938 1470.78 Q991.224 1475.21 995.738 1475.21 Q1000.28 1475.21 1002.54 1470.78 Q1004.82 1466.33 1004.82 1457.44 Q1004.82 1448.53 1002.54 1444.11 Q1000.28 1439.65 995.738 1439.65 M995.738 1435.02 Q1003 1435.02 1006.82 1440.78 Q1010.67 1446.51 1010.67 1457.44 Q1010.67 1468.35 1006.82 1474.11 Q1003 1479.84 995.738 1479.84 Q988.475 1479.84 984.627 1474.11 Q980.808 1468.35 980.808 1457.44 Q980.808 1446.51 984.627 1440.78 Q988.475 1435.02 995.738 1435.02 Z" fill="#000000" fill-rule="nonzero" fill-opacity="1" /><path clip-path="url(#clip730)" d="M1056.15 1447.17 L1042.93 1460.45 L1056.15 1473.68 L1052.71 1477.18 L1039.43 1463.9 L1026.15 1477.18 L1022.73 1473.68 L1035.93 1460.45 L1022.73 1447.17 L1026.15 1443.67 L1039.43 1456.95 L1052.71 1443.67 L1056.15 1447.17 Z" fill="#000000" fill-rule="nonzero" fill-opacity="1" /><path clip-path="url(#clip730)" d="M1071.61 1474.08 L1081.15 1474.08 L1081.15 1441.12 L1070.77 1443.21 L1070.77 1437.88 L1081.1 1435.8 L1086.94 1435.8 L1086.94 1474.08 L1096.49 1474.08 L1096.49 1479 L1071.61 1479 L1071.61 1474.08 Z" fill="#000000" fill-rule="nonzero" fill-opacity="1" /><path clip-path="url(#clip730)" d="M1120.8 1439.65 Q1116.28 1439.65 1114 1444.11 Q1111.74 1448.53 1111.74 1457.44 Q1111.74 1466.33 1114 1470.78 Q1116.28 1475.21 1120.8 1475.21 Q1125.34 1475.21 1127.6 1470.78 Q1129.88 1466.33 1129.88 1457.44 Q1129.88 1448.53 1127.6 1444.11 Q1125.34 1439.65 1120.8 1439.65 M1120.8 1435.02 Q1128.06 1435.02 1131.88 1440.78 Q1135.73 1446.51 1135.73 1457.44 Q1135.73 1468.35 1131.88 1474.11 Q1128.06 1479.84 1120.8 1479.84 Q1113.53 1479.84 1109.68 1474.11 Q1105.86 1468.35 1105.86 1457.44 Q1105.86 1446.51 1109.68 1440.78 Q1113.53 1435.02 1120.8 1435.02 Z" fill="#000000" fill-rule="nonzero" fill-opacity="1" /><path clip-path="url(#clip730)" d="M1151.57 1413.78 L1139.58 1432.51 L1151.57 1432.51 L1151.57 1413.78 M1150.33 1409.64 L1156.3 1409.64 L1156.3 1432.51 L1161.3 1432.51 L1161.3 1436.46 L1156.3 1436.46 L1156.3 1444.74 L1151.57 1444.74 L1151.57 1436.46 L1135.73 1436.46 L1135.73 1431.88 L1150.33 1409.64 Z" fill="#000000" fill-rule="nonzero" fill-opacity="1" /><path clip-path="url(#clip730)" d="M1434.2 1474.08 L1454.6 1474.08 L1454.6 1479 L1427.17 1479 L1427.17 1474.08 Q1430.5 1470.64 1436.23 1464.85 Q1441.98 1459.04 1443.46 1457.36 Q1446.27 1454.2 1447.37 1452.03 Q1448.49 1449.83 1448.49 1447.72 Q1448.49 1444.28 1446.06 1442.11 Q1443.66 1439.94 1439.79 1439.94 Q1437.04 1439.94 1433.97 1440.89 Q1430.93 1441.85 1427.46 1443.79 L1427.46 1437.88 Q1430.99 1436.47 1434.06 1435.74 Q1437.12 1435.02 1439.67 1435.02 Q1446.38 1435.02 1450.38 1438.38 Q1454.37 1441.73 1454.37 1447.35 Q1454.37 1450.01 1453.36 1452.41 Q1452.37 1454.78 1449.74 1458.02 Q1449.02 1458.86 1445.14 1462.88 Q1441.26 1466.88 1434.2 1474.08 Z" fill="#000000" fill-rule="nonzero" fill-opacity="1" /><path clip-path="url(#clip730)" d="M1466.87 1471.65 L1472.97 1471.65 L1472.97 1479 L1466.87 1479 L1466.87 1471.65 Z" fill="#000000" fill-rule="nonzero" fill-opacity="1" /><path clip-path="url(#clip730)" d="M1498.21 1439.65 Q1493.69 1439.65 1491.41 1444.11 Q1489.15 1448.53 1489.15 1457.44 Q1489.15 1466.33 1491.41 1470.78 Q1493.69 1475.21 1498.21 1475.21 Q1502.75 1475.21 1505 1470.78 Q1507.29 1466.33 1507.29 1457.44 Q1507.29 1448.53 1505 1444.11 Q1502.75 1439.65 1498.21 1439.65 M1498.21 1435.02 Q1505.47 1435.02 1509.29 1440.78 Q1513.14 1446.51 1513.14 1457.44 Q1513.14 1468.35 1509.29 1474.11 Q1505.47 1479.84 1498.21 1479.84 Q1490.94 1479.84 1487.09 1474.11 Q1483.27 1468.35 1483.27 1457.44 Q1483.27 1446.51 1487.09 1440.78 Q1490.94 1435.02 1498.21 1435.02 Z" fill="#000000" fill-rule="nonzero" fill-opacity="1" /><path clip-path="url(#clip730)" d="M1558.62 1447.17 L1545.4 1460.45 L1558.62 1473.68 L1555.18 1477.18 L1541.9 1463.9 L1528.62 1477.18 L1525.2 1473.68 L1538.4 1460.45 L1525.2 1447.17 L1528.62 1443.67 L1541.9 1456.95 L1555.18 1443.67 L1558.62 1447.17 Z" fill="#000000" fill-rule="nonzero" fill-opacity="1" /><path clip-path="url(#clip730)" d="M1574.07 1474.08 L1583.62 1474.08 L1583.62 1441.12 L1573.23 1443.21 L1573.23 1437.88 L1583.56 1435.8 L1589.41 1435.8 L1589.41 1474.08 L1598.96 1474.08 L1598.96 1479 L1574.07 1479 L1574.07 1474.08 Z" fill="#000000" fill-rule="nonzero" fill-opacity="1" /><path clip-path="url(#clip730)" d="M1623.26 1439.65 Q1618.75 1439.65 1616.46 1444.11 Q1614.21 1448.53 1614.21 1457.44 Q1614.21 1466.33 1616.46 1470.78 Q1618.75 1475.21 1623.26 1475.21 Q1627.81 1475.21 1630.06 1470.78 Q1632.35 1466.33 1632.35 1457.44 Q1632.35 1448.53 1630.06 1444.11 Q1627.81 1439.65 1623.26 1439.65 M1623.26 1435.02 Q1630.53 1435.02 1634.34 1440.78 Q1638.19 1446.51 1638.19 1457.44 Q1638.19 1468.35 1634.34 1474.11 Q1630.53 1479.84 1623.26 1479.84 Q1616 1479.84 1612.15 1474.11 Q1608.33 1468.35 1608.33 1457.44 Q1608.33 1446.51 1612.15 1440.78 Q1616 1435.02 1623.26 1435.02 Z" fill="#000000" fill-rule="nonzero" fill-opacity="1" /><path clip-path="url(#clip730)" d="M1654.04 1413.78 L1642.05 1432.51 L1654.04 1432.51 L1654.04 1413.78 M1652.79 1409.64 L1658.76 1409.64 L1658.76 1432.51 L1663.77 1432.51 L1663.77 1436.46 L1658.76 1436.46 L1658.76 1444.74 L1654.04 1444.74 L1654.04 1436.46 L1638.19 1436.46 L1638.19 1431.88 L1652.79 1409.64 Z" fill="#000000" fill-rule="nonzero" fill-opacity="1" /><path clip-path="url(#clip730)" d="M1948.17 1455.71 Q1952.37 1456.61 1954.71 1459.44 Q1957.08 1462.28 1957.08 1466.44 Q1957.08 1472.84 1952.68 1476.34 Q1948.29 1479.84 1940.18 1479.84 Q1937.46 1479.84 1934.57 1479.29 Q1931.71 1478.77 1928.64 1477.7 L1928.64 1472.06 Q1931.07 1473.47 1933.96 1474.2 Q1936.86 1474.92 1940.01 1474.92 Q1945.51 1474.92 1948.37 1472.75 Q1951.27 1470.58 1951.27 1466.44 Q1951.27 1462.62 1948.57 1460.48 Q1945.91 1458.31 1941.14 1458.31 L1936.1 1458.31 L1936.1 1453.51 L1941.37 1453.51 Q1945.68 1453.51 1947.97 1451.8 Q1950.25 1450.07 1950.25 1446.83 Q1950.25 1443.5 1947.88 1441.73 Q1945.54 1439.94 1941.14 1439.94 Q1938.74 1439.94 1935.99 1440.46 Q1933.24 1440.98 1929.94 1442.08 L1929.94 1436.87 Q1933.27 1435.95 1936.16 1435.48 Q1939.08 1435.02 1941.66 1435.02 Q1948.31 1435.02 1952.19 1438.06 Q1956.07 1441.07 1956.07 1446.22 Q1956.07 1449.81 1954.01 1452.29 Q1951.96 1454.75 1948.17 1455.71 Z" fill="#000000" fill-rule="nonzero" fill-opacity="1" /><path clip-path="url(#clip730)" d="M1968.16 1471.65 L1974.27 1471.65 L1974.27 1479 L1968.16 1479 L1968.16 1471.65 Z" fill="#000000" fill-rule="nonzero" fill-opacity="1" /><path clip-path="url(#clip730)" d="M1999.5 1439.65 Q1994.99 1439.65 1992.7 1444.11 Q1990.44 1448.53 1990.44 1457.44 Q1990.44 1466.33 1992.7 1470.78 Q1994.99 1475.21 1999.5 1475.21 Q2004.04 1475.21 2006.3 1470.78 Q2008.59 1466.33 2008.59 1457.44 Q2008.59 1448.53 2006.3 1444.11 Q2004.04 1439.65 1999.5 1439.65 M1999.5 1435.02 Q2006.76 1435.02 2010.58 1440.78 Q2014.43 1446.51 2014.43 1457.44 Q2014.43 1468.35 2010.58 1474.11 Q2006.76 1479.84 1999.5 1479.84 Q1992.24 1479.84 1988.39 1474.11 Q1984.57 1468.35 1984.57 1457.44 Q1984.57 1446.51 1988.39 1440.78 Q1992.24 1435.02 1999.5 1435.02 Z" fill="#000000" fill-rule="nonzero" fill-opacity="1" /><path clip-path="url(#clip730)" d="M2059.92 1447.17 L2046.69 1460.45 L2059.92 1473.68 L2056.47 1477.18 L2043.19 1463.9 L2029.91 1477.18 L2026.5 1473.68 L2039.69 1460.45 L2026.5 1447.17 L2029.91 1443.67 L2043.19 1456.95 L2056.47 1443.67 L2059.92 1447.17 Z" fill="#000000" fill-rule="nonzero" fill-opacity="1" /><path clip-path="url(#clip730)" d="M2075.37 1474.08 L2084.92 1474.08 L2084.92 1441.12 L2074.53 1443.21 L2074.53 1437.88 L2084.86 1435.8 L2090.7 1435.8 L2090.7 1474.08 L2100.25 1474.08 L2100.25 1479 L2075.37 1479 L2075.37 1474.08 Z" fill="#000000" fill-rule="nonzero" fill-opacity="1" /><path clip-path="url(#clip730)" d="M2124.56 1439.65 Q2120.04 1439.65 2117.76 1444.11 Q2115.5 1448.53 2115.5 1457.44 Q2115.5 1466.33 2117.76 1470.78 Q2120.04 1475.21 2124.56 1475.21 Q2129.1 1475.21 2131.36 1470.78 Q2133.64 1466.33 2133.64 1457.44 Q2133.64 1448.53 2131.36 1444.11 Q2129.1 1439.65 2124.56 1439.65 M2124.56 1435.02 Q2131.82 1435.02 2135.64 1440.78 Q2139.49 1446.51 2139.49 1457.44 Q2139.49 1468.35 2135.64 1474.11 Q2131.82 1479.84 2124.56 1479.84 Q2117.3 1479.84 2113.45 1474.11 Q2109.63 1468.35 2109.63 1457.44 Q2109.63 1446.51 2113.45 1440.78 Q2117.3 1435.02 2124.56 1435.02 Z" fill="#000000" fill-rule="nonzero" fill-opacity="1" /><path clip-path="url(#clip730)" d="M2155.33 1413.78 L2143.34 1432.51 L2155.33 1432.51 L2155.33 1413.78 M2154.09 1409.64 L2160.06 1409.64 L2160.06 1432.51 L2165.07 1432.51 L2165.07 1436.46 L2160.06 1436.46 L2160.06 1444.74 L2155.33 1444.74 L2155.33 1436.46 L2139.49 1436.46 L2139.49 1431.88 L2154.09 1409.64 Z" fill="#000000" fill-rule="nonzero" fill-opacity="1" /><path clip-path="url(#clip730)" d="M766.923 1522.15 L775.187 1522.15 L787.906 1573.28 L800.586 1522.15 L809.781 1522.15 L822.501 1573.28 L835.181 1522.15 L843.485 1522.15 L828.294 1582.63 L818.005 1582.63 L805.244 1530.13 L792.362 1582.63 L782.073 1582.63 L766.923 1522.15 Z" fill="#000000" fill-rule="nonzero" fill-opacity="1" /><path clip-path="url(#clip730)" d="M852.194 1537.26 L859.648 1537.26 L859.648 1582.63 L852.194 1582.63 L852.194 1537.26 M852.194 1519.6 L859.648 1519.6 L859.648 1529.04 L852.194 1529.04 L852.194 1519.6 Z" fill="#000000" fill-rule="nonzero" fill-opacity="1" /><path clip-path="url(#clip730)" d="M912.958 1555.25 L912.958 1582.63 L905.504 1582.63 L905.504 1555.49 Q905.504 1549.05 902.993 1545.85 Q900.481 1542.65 895.458 1542.65 Q889.422 1542.65 885.938 1546.5 Q882.455 1550.35 882.455 1556.99 L882.455 1582.63 L874.96 1582.63 L874.96 1537.26 L882.455 1537.26 L882.455 1544.31 Q885.128 1540.22 888.733 1538.19 Q892.379 1536.17 897.119 1536.17 Q904.937 1536.17 908.947 1541.03 Q912.958 1545.85 912.958 1555.25 Z" fill="#000000" fill-rule="nonzero" fill-opacity="1" /><path clip-path="url(#clip730)" d="M957.68 1544.15 L957.68 1519.6 L965.134 1519.6 L965.134 1582.63 L957.68 1582.63 L957.68 1575.83 Q955.33 1579.88 951.725 1581.86 Q948.16 1583.81 943.137 1583.81 Q934.914 1583.81 929.729 1577.25 Q924.584 1570.68 924.584 1559.99 Q924.584 1549.29 929.729 1542.73 Q934.914 1536.17 943.137 1536.17 Q948.16 1536.17 951.725 1538.15 Q955.33 1540.1 957.68 1544.15 M932.281 1559.99 Q932.281 1568.21 935.643 1572.91 Q939.046 1577.57 944.96 1577.57 Q950.874 1577.57 954.277 1572.91 Q957.68 1568.21 957.68 1559.99 Q957.68 1551.76 954.277 1547.11 Q950.874 1542.41 944.96 1542.41 Q939.046 1542.41 935.643 1547.11 Q932.281 1551.76 932.281 1559.99 Z" fill="#000000" fill-rule="nonzero" fill-opacity="1" /><path clip-path="url(#clip730)" d="M1014.07 1575.83 L1014.07 1599.89 L1006.57 1599.89 L1006.57 1537.26 L1014.07 1537.26 L1014.07 1544.15 Q1016.42 1540.1 1019.98 1538.15 Q1023.59 1536.17 1028.57 1536.17 Q1036.83 1536.17 1041.98 1542.73 Q1047.16 1549.29 1047.16 1559.99 Q1047.16 1570.68 1041.98 1577.25 Q1036.83 1583.81 1028.57 1583.81 Q1023.59 1583.81 1019.98 1581.86 Q1016.42 1579.88 1014.07 1575.83 M1039.43 1559.99 Q1039.43 1551.76 1036.02 1547.11 Q1032.66 1542.41 1026.75 1542.41 Q1020.83 1542.41 1017.43 1547.11 Q1014.07 1551.76 1014.07 1559.99 Q1014.07 1568.21 1017.43 1572.91 Q1020.83 1577.57 1026.75 1577.57 Q1032.66 1577.57 1036.02 1572.91 Q1039.43 1568.21 1039.43 1559.99 Z" fill="#000000" fill-rule="nonzero" fill-opacity="1" /><path clip-path="url(#clip730)" d="M1077.1 1542.49 Q1071.11 1542.49 1067.62 1547.19 Q1064.14 1551.85 1064.14 1559.99 Q1064.14 1568.13 1067.58 1572.83 Q1071.06 1577.49 1077.1 1577.49 Q1083.06 1577.49 1086.54 1572.79 Q1090.02 1568.09 1090.02 1559.99 Q1090.02 1551.93 1086.54 1547.23 Q1083.06 1542.49 1077.1 1542.49 M1077.1 1536.17 Q1086.82 1536.17 1092.37 1542.49 Q1097.92 1548.81 1097.92 1559.99 Q1097.92 1571.13 1092.37 1577.49 Q1086.82 1583.81 1077.1 1583.81 Q1067.34 1583.81 1061.79 1577.49 Q1056.28 1571.13 1056.28 1559.99 Q1056.28 1548.81 1061.79 1542.49 Q1067.34 1536.17 1077.1 1536.17 Z" fill="#000000" fill-rule="nonzero" fill-opacity="1" /><path clip-path="url(#clip730)" d="M1105.94 1537.26 L1113.4 1537.26 L1122.71 1572.67 L1131.99 1537.26 L1140.78 1537.26 L1150.1 1572.67 L1159.37 1537.26 L1166.83 1537.26 L1154.96 1582.63 L1146.17 1582.63 L1136.41 1545.45 L1126.6 1582.63 L1117.81 1582.63 L1105.94 1537.26 Z" fill="#000000" fill-rule="nonzero" fill-opacity="1" /><path clip-path="url(#clip730)" d="M1216.94 1558.08 L1216.94 1561.73 L1182.67 1561.73 Q1183.15 1569.43 1187.29 1573.48 Q1191.46 1577.49 1198.87 1577.49 Q1203.16 1577.49 1207.18 1576.43 Q1211.23 1575.38 1215.2 1573.28 L1215.2 1580.32 Q1211.19 1582.03 1206.97 1582.92 Q1202.76 1583.81 1198.43 1583.81 Q1187.57 1583.81 1181.21 1577.49 Q1174.89 1571.17 1174.89 1560.39 Q1174.89 1549.25 1180.88 1542.73 Q1186.92 1536.17 1197.13 1536.17 Q1206.28 1536.17 1211.59 1542.08 Q1216.94 1547.96 1216.94 1558.08 M1209.48 1555.9 Q1209.4 1549.78 1206.04 1546.13 Q1202.72 1542.49 1197.21 1542.49 Q1190.97 1542.49 1187.2 1546.01 Q1183.48 1549.54 1182.91 1555.94 L1209.48 1555.9 Z" fill="#000000" fill-rule="nonzero" fill-opacity="1" /><path clip-path="url(#clip730)" d="M1255.46 1544.23 Q1254.21 1543.5 1252.71 1543.18 Q1251.25 1542.81 1249.47 1542.81 Q1243.15 1542.81 1239.74 1546.94 Q1236.38 1551.04 1236.38 1558.73 L1236.38 1582.63 L1228.89 1582.63 L1228.89 1537.26 L1236.38 1537.26 L1236.38 1544.31 Q1238.73 1540.18 1242.5 1538.19 Q1246.27 1536.17 1251.65 1536.17 Q1252.42 1536.17 1253.36 1536.29 Q1254.29 1536.37 1255.42 1536.57 L1255.46 1544.23 Z" fill="#000000" fill-rule="nonzero" fill-opacity="1" /><path clip-path="url(#clip730)" d="M1319.51 1559.42 Q1319.51 1551.32 1316.14 1546.86 Q1312.82 1542.41 1306.79 1542.41 Q1300.79 1542.41 1297.43 1546.86 Q1294.11 1551.32 1294.11 1559.42 Q1294.11 1567.48 1297.43 1571.94 Q1300.79 1576.39 1306.79 1576.39 Q1312.82 1576.39 1316.14 1571.94 Q1319.51 1567.48 1319.51 1559.42 M1326.96 1577 Q1326.96 1588.59 1321.82 1594.22 Q1316.67 1599.89 1306.06 1599.89 Q1302.13 1599.89 1298.64 1599.28 Q1295.16 1598.71 1291.88 1597.5 L1291.88 1590.25 Q1295.16 1592.03 1298.36 1592.88 Q1301.56 1593.73 1304.88 1593.73 Q1312.21 1593.73 1315.86 1589.88 Q1319.51 1586.08 1319.51 1578.34 L1319.51 1574.65 Q1317.2 1578.66 1313.59 1580.65 Q1309.99 1582.63 1304.96 1582.63 Q1296.62 1582.63 1291.51 1576.27 Q1286.41 1569.91 1286.41 1559.42 Q1286.41 1548.89 1291.51 1542.53 Q1296.62 1536.17 1304.96 1536.17 Q1309.99 1536.17 1313.59 1538.15 Q1317.2 1540.14 1319.51 1544.15 L1319.51 1537.26 L1326.96 1537.26 L1326.96 1577 Z" fill="#000000" fill-rule="nonzero" fill-opacity="1" /><path clip-path="url(#clip730)" d="M1381.12 1558.08 L1381.12 1561.73 L1346.85 1561.73 Q1347.34 1569.43 1351.47 1573.48 Q1355.64 1577.49 1363.05 1577.49 Q1367.35 1577.49 1371.36 1576.43 Q1375.41 1575.38 1379.38 1573.28 L1379.38 1580.32 Q1375.37 1582.03 1371.16 1582.92 Q1366.94 1583.81 1362.61 1583.81 Q1351.75 1583.81 1345.39 1577.49 Q1339.07 1571.17 1339.07 1560.39 Q1339.07 1549.25 1345.07 1542.73 Q1351.1 1536.17 1361.31 1536.17 Q1370.47 1536.17 1375.77 1542.08 Q1381.12 1547.96 1381.12 1558.08 M1373.67 1555.9 Q1373.59 1549.78 1370.22 1546.13 Q1366.9 1542.49 1361.39 1542.49 Q1355.15 1542.49 1351.39 1546.01 Q1347.66 1549.54 1347.09 1555.94 L1373.67 1555.9 Z" fill="#000000" fill-rule="nonzero" fill-opacity="1" /><path clip-path="url(#clip730)" d="M1431.07 1555.25 L1431.07 1582.63 L1423.61 1582.63 L1423.61 1555.49 Q1423.61 1549.05 1421.1 1545.85 Q1418.59 1542.65 1413.57 1542.65 Q1407.53 1542.65 1404.05 1546.5 Q1400.57 1550.35 1400.57 1556.99 L1400.57 1582.63 L1393.07 1582.63 L1393.07 1537.26 L1400.57 1537.26 L1400.57 1544.31 Q1403.24 1540.22 1406.84 1538.19 Q1410.49 1536.17 1415.23 1536.17 Q1423.05 1536.17 1427.06 1541.03 Q1431.07 1545.85 1431.07 1555.25 Z" fill="#000000" fill-rule="nonzero" fill-opacity="1" /><path clip-path="url(#clip730)" d="M1484.74 1558.08 L1484.74 1561.73 L1450.47 1561.73 Q1450.96 1569.43 1455.09 1573.48 Q1459.26 1577.49 1466.68 1577.49 Q1470.97 1577.49 1474.98 1576.43 Q1479.03 1575.38 1483 1573.28 L1483 1580.32 Q1478.99 1582.03 1474.78 1582.92 Q1470.56 1583.81 1466.23 1583.81 Q1455.37 1583.81 1449.01 1577.49 Q1442.69 1571.17 1442.69 1560.39 Q1442.69 1549.25 1448.69 1542.73 Q1454.73 1536.17 1464.93 1536.17 Q1474.09 1536.17 1479.4 1542.08 Q1484.74 1547.96 1484.74 1558.08 M1477.29 1555.9 Q1477.21 1549.78 1473.85 1546.13 Q1470.52 1542.49 1465.02 1542.49 Q1458.78 1542.49 1455.01 1546.01 Q1451.28 1549.54 1450.72 1555.94 L1477.29 1555.9 Z" fill="#000000" fill-rule="nonzero" fill-opacity="1" /><path clip-path="url(#clip730)" d="M1523.27 1544.23 Q1522.01 1543.5 1520.51 1543.18 Q1519.05 1542.81 1517.27 1542.81 Q1510.95 1542.81 1507.55 1546.94 Q1504.19 1551.04 1504.19 1558.73 L1504.19 1582.63 L1496.69 1582.63 L1496.69 1537.26 L1504.19 1537.26 L1504.19 1544.31 Q1506.54 1540.18 1510.3 1538.19 Q1514.07 1536.17 1519.46 1536.17 Q1520.23 1536.17 1521.16 1536.29 Q1522.09 1536.37 1523.23 1536.57 L1523.27 1544.23 Z" fill="#000000" fill-rule="nonzero" fill-opacity="1" /><path clip-path="url(#clip730)" d="M1551.7 1559.83 Q1542.67 1559.83 1539.19 1561.89 Q1535.7 1563.96 1535.7 1568.94 Q1535.7 1572.91 1538.3 1575.26 Q1540.93 1577.57 1545.43 1577.57 Q1551.62 1577.57 1555.35 1573.19 Q1559.12 1568.78 1559.12 1561.49 L1559.12 1559.83 L1551.7 1559.83 M1566.57 1556.75 L1566.57 1582.63 L1559.12 1582.63 L1559.12 1575.75 Q1556.57 1579.88 1552.76 1581.86 Q1548.95 1583.81 1543.44 1583.81 Q1536.47 1583.81 1532.34 1579.92 Q1528.25 1575.99 1528.25 1569.43 Q1528.25 1561.77 1533.35 1557.88 Q1538.5 1553.99 1548.67 1553.99 L1559.12 1553.99 L1559.12 1553.26 Q1559.12 1548.12 1555.71 1545.32 Q1552.35 1542.49 1546.24 1542.49 Q1542.35 1542.49 1538.66 1543.42 Q1534.97 1544.35 1531.57 1546.22 L1531.57 1539.33 Q1535.66 1537.75 1539.51 1536.98 Q1543.36 1536.17 1547.01 1536.17 Q1556.85 1536.17 1561.71 1541.27 Q1566.57 1546.38 1566.57 1556.75 Z" fill="#000000" fill-rule="nonzero" fill-opacity="1" /><path clip-path="url(#clip730)" d="M1589.3 1524.38 L1589.3 1537.26 L1604.65 1537.26 L1604.65 1543.06 L1589.3 1543.06 L1589.3 1567.69 Q1589.3 1573.23 1590.8 1574.81 Q1592.34 1576.39 1596.99 1576.39 L1604.65 1576.39 L1604.65 1582.63 L1596.99 1582.63 Q1588.37 1582.63 1585.08 1579.43 Q1581.8 1576.19 1581.8 1567.69 L1581.8 1543.06 L1576.33 1543.06 L1576.33 1537.26 L1581.8 1537.26 L1581.8 1524.38 L1589.3 1524.38 Z" fill="#000000" fill-rule="nonzero" fill-opacity="1" /><path clip-path="url(#clip730)" d="M1614.45 1537.26 L1621.91 1537.26 L1621.91 1582.63 L1614.45 1582.63 L1614.45 1537.26 M1614.45 1519.6 L1621.91 1519.6 L1621.91 1529.04 L1614.45 1529.04 L1614.45 1519.6 Z" fill="#000000" fill-rule="nonzero" fill-opacity="1" /><path clip-path="url(#clip730)" d="M1655.08 1542.49 Q1649.09 1542.49 1645.6 1547.19 Q1642.12 1551.85 1642.12 1559.99 Q1642.12 1568.13 1645.56 1572.83 Q1649.05 1577.49 1655.08 1577.49 Q1661.04 1577.49 1664.52 1572.79 Q1668.01 1568.09 1668.01 1559.99 Q1668.01 1551.93 1664.52 1547.23 Q1661.04 1542.49 1655.08 1542.49 M1655.08 1536.17 Q1664.81 1536.17 1670.36 1542.49 Q1675.91 1548.81 1675.91 1559.99 Q1675.91 1571.13 1670.36 1577.49 Q1664.81 1583.81 1655.08 1583.81 Q1645.32 1583.81 1639.77 1577.49 Q1634.26 1571.13 1634.26 1559.99 Q1634.26 1548.81 1639.77 1542.49 Q1645.32 1536.17 1655.08 1536.17 Z" fill="#000000" fill-rule="nonzero" fill-opacity="1" /><path clip-path="url(#clip730)" d="M1725.97 1555.25 L1725.97 1582.63 L1718.52 1582.63 L1718.52 1555.49 Q1718.52 1549.05 1716.01 1545.85 Q1713.5 1542.65 1708.47 1542.65 Q1702.44 1542.65 1698.95 1546.5 Q1695.47 1550.35 1695.47 1556.99 L1695.47 1582.63 L1687.98 1582.63 L1687.98 1537.26 L1695.47 1537.26 L1695.47 1544.31 Q1698.14 1540.22 1701.75 1538.19 Q1705.4 1536.17 1710.14 1536.17 Q1717.95 1536.17 1721.96 1541.03 Q1725.97 1545.85 1725.97 1555.25 Z" fill="#000000" fill-rule="nonzero" fill-opacity="1" /><path clip-path="url(#clip730)" d="M1785.12 1519.68 Q1779.69 1529 1777.06 1538.11 Q1774.42 1547.23 1774.42 1556.59 Q1774.42 1565.94 1777.06 1575.14 Q1779.73 1584.29 1785.12 1593.57 L1778.64 1593.57 Q1772.56 1584.05 1769.52 1574.86 Q1766.52 1565.66 1766.52 1556.59 Q1766.52 1547.55 1769.52 1538.4 Q1772.52 1529.24 1778.64 1519.68 L1785.12 1519.68 Z" fill="#000000" fill-rule="nonzero" fill-opacity="1" /><path clip-path="url(#clip730)" d="M1799.9 1522.15 L1812.1 1522.15 L1827.53 1563.31 L1843.05 1522.15 L1855.24 1522.15 L1855.24 1582.63 L1847.26 1582.63 L1847.26 1529.53 L1831.66 1571.01 L1823.44 1571.01 L1807.84 1529.53 L1807.84 1582.63 L1799.9 1582.63 L1799.9 1522.15 Z" fill="#000000" fill-rule="nonzero" fill-opacity="1" /><path clip-path="url(#clip730)" d="M1866.1 1522.15 L1874.36 1522.15 L1887.08 1573.28 L1899.76 1522.15 L1908.95 1522.15 L1921.67 1573.28 L1934.35 1522.15 L1942.66 1522.15 L1927.47 1582.63 L1917.18 1582.63 L1904.42 1530.13 L1891.53 1582.63 L1881.25 1582.63 L1866.1 1522.15 Z" fill="#000000" fill-rule="nonzero" fill-opacity="1" /><path clip-path="url(#clip730)" d="M1990.9 1555.25 L1990.9 1582.63 L1983.45 1582.63 L1983.45 1555.49 Q1983.45 1549.05 1980.94 1545.85 Q1978.43 1542.65 1973.4 1542.65 Q1967.37 1542.65 1963.88 1546.5 Q1960.4 1550.35 1960.4 1556.99 L1960.4 1582.63 L1952.91 1582.63 L1952.91 1519.6 L1960.4 1519.6 L1960.4 1544.31 Q1963.07 1540.22 1966.68 1538.19 Q1970.32 1536.17 1975.06 1536.17 Q1982.88 1536.17 1986.89 1541.03 Q1990.9 1545.85 1990.9 1555.25 Z" fill="#000000" fill-rule="nonzero" fill-opacity="1" /><path clip-path="url(#clip730)" d="M2004.6 1519.68 L2011.08 1519.68 Q2017.15 1529.24 2020.15 1538.4 Q2023.19 1547.55 2023.19 1556.59 Q2023.19 1565.66 2020.15 1574.86 Q2017.15 1584.05 2011.08 1593.57 L2004.6 1593.57 Q2009.98 1584.29 2012.62 1575.14 Q2015.29 1565.94 2015.29 1556.59 Q2015.29 1547.23 2012.62 1538.11 Q2009.98 1529 2004.6 1519.68 Z" fill="#000000" fill-rule="nonzero" fill-opacity="1" /><polyline clip-path="url(#clip732)" style="stroke:#000000; stroke-linecap:round; stroke-linejoin:round; stroke-width:2; stroke-opacity:0.1; fill:none" points="437.356,1386.23 2352.76,1386.23 "/>
<polyline clip-path="url(#clip732)" style="stroke:#000000; stroke-linecap:round; stroke-linejoin:round; stroke-width:2; stroke-opacity:0.1; fill:none" points="437.356,1067.14 2352.76,1067.14 "/>
<polyline clip-path="url(#clip732)" style="stroke:#000000; stroke-linecap:round; stroke-linejoin:round; stroke-width:2; stroke-opacity:0.1; fill:none" points="437.356,748.061 2352.76,748.061 "/>
<polyline clip-path="url(#clip732)" style="stroke:#000000; stroke-linecap:round; stroke-linejoin:round; stroke-width:2; stroke-opacity:0.1; fill:none" points="437.356,428.978 2352.76,428.978 "/>
<polyline clip-path="url(#clip732)" style="stroke:#000000; stroke-linecap:round; stroke-linejoin:round; stroke-width:2; stroke-opacity:0.1; fill:none" points="437.356,109.896 2352.76,109.896 "/>
<polyline clip-path="url(#clip730)" style="stroke:#000000; stroke-linecap:round; stroke-linejoin:round; stroke-width:4; stroke-opacity:1; fill:none" points="437.356,1386.23 437.356,47.2441 "/>
<polyline clip-path="url(#clip730)" style="stroke:#000000; stroke-linecap:round; stroke-linejoin:round; stroke-width:4; stroke-opacity:1; fill:none" points="437.356,1386.23 456.254,1386.23 "/>
<polyline clip-path="url(#clip730)" style="stroke:#000000; stroke-linecap:round; stroke-linejoin:round; stroke-width:4; stroke-opacity:1; fill:none" points="437.356,1067.14 456.254,1067.14 "/>
<polyline clip-path="url(#clip730)" style="stroke:#000000; stroke-linecap:round; stroke-linejoin:round; stroke-width:4; stroke-opacity:1; fill:none" points="437.356,748.061 456.254,748.061 "/>
<polyline clip-path="url(#clip730)" style="stroke:#000000; stroke-linecap:round; stroke-linejoin:round; stroke-width:4; stroke-opacity:1; fill:none" points="437.356,428.978 456.254,428.978 "/>
<polyline clip-path="url(#clip730)" style="stroke:#000000; stroke-linecap:round; stroke-linejoin:round; stroke-width:4; stroke-opacity:1; fill:none" points="437.356,109.896 456.254,109.896 "/>
<path clip-path="url(#clip730)" d="M386.426 1368.47 Q381.912 1368.47 379.626 1372.93 Q377.369 1377.36 377.369 1386.27 Q377.369 1395.15 379.626 1399.61 Q381.912 1404.04 386.426 1404.04 Q390.968 1404.04 393.225 1399.61 Q395.511 1395.15 395.511 1386.27 Q395.511 1377.36 393.225 1372.93 Q390.968 1368.47 386.426 1368.47 M386.426 1363.84 Q393.688 1363.84 397.508 1369.6 Q401.356 1375.33 401.356 1386.27 Q401.356 1397.18 397.508 1402.94 Q393.688 1408.66 386.426 1408.66 Q379.163 1408.66 375.315 1402.94 Q371.495 1397.18 371.495 1386.27 Q371.495 1375.33 375.315 1369.6 Q379.163 1363.84 386.426 1363.84 Z" fill="#000000" fill-rule="nonzero" fill-opacity="1" /><path clip-path="url(#clip730)" d="M135.698 1091.88 L156.097 1091.88 L156.097 1096.8 L128.667 1096.8 L128.667 1091.88 Q131.994 1088.44 137.724 1082.65 Q143.482 1076.84 144.957 1075.16 Q147.764 1072.01 148.864 1069.84 Q149.992 1067.64 149.992 1065.52 Q149.992 1062.08 147.561 1059.91 Q145.16 1057.74 141.283 1057.74 Q138.534 1057.74 135.467 1058.7 Q132.428 1059.65 128.956 1061.59 L128.956 1055.69 Q132.486 1054.27 135.553 1053.55 Q138.621 1052.82 141.167 1052.82 Q147.88 1052.82 151.873 1056.18 Q155.866 1059.53 155.866 1065.15 Q155.866 1067.81 154.853 1070.21 Q153.869 1072.58 151.236 1075.82 Q150.513 1076.66 146.636 1080.69 Q142.758 1084.68 135.698 1091.88 Z" fill="#000000" fill-rule="nonzero" fill-opacity="1" /><path clip-path="url(#clip730)" d="M168.366 1089.45 L174.471 1089.45 L174.471 1096.8 L168.366 1096.8 L168.366 1089.45 Z" fill="#000000" fill-rule="nonzero" fill-opacity="1" /><path clip-path="url(#clip730)" d="M199.702 1057.45 Q195.189 1057.45 192.903 1061.91 Q190.646 1066.33 190.646 1075.25 Q190.646 1084.13 192.903 1088.59 Q195.189 1093.01 199.702 1093.01 Q204.245 1093.01 206.502 1088.59 Q208.788 1084.13 208.788 1075.25 Q208.788 1066.33 206.502 1061.91 Q204.245 1057.45 199.702 1057.45 M199.702 1052.82 Q206.965 1052.82 210.785 1058.58 Q214.633 1064.31 214.633 1075.25 Q214.633 1086.15 210.785 1091.91 Q206.965 1097.64 199.702 1097.64 Q192.44 1097.64 188.591 1091.91 Q184.772 1086.15 184.772 1075.25 Q184.772 1064.31 188.591 1058.58 Q192.44 1052.82 199.702 1052.82 Z" fill="#000000" fill-rule="nonzero" fill-opacity="1" /><path clip-path="url(#clip730)" d="M260.119 1064.97 L246.895 1078.26 L260.119 1091.48 L256.675 1094.98 L243.394 1081.7 L230.113 1094.98 L226.699 1091.48 L239.893 1078.26 L226.699 1064.97 L230.113 1061.47 L243.394 1074.75 L256.675 1061.47 L260.119 1064.97 Z" fill="#000000" fill-rule="nonzero" fill-opacity="1" /><path clip-path="url(#clip730)" d="M275.57 1091.88 L285.119 1091.88 L285.119 1058.93 L274.731 1061.01 L274.731 1055.69 L285.061 1053.6 L290.906 1053.6 L290.906 1091.88 L300.454 1091.88 L300.454 1096.8 L275.57 1096.8 L275.57 1091.88 Z" fill="#000000" fill-rule="nonzero" fill-opacity="1" /><path clip-path="url(#clip730)" d="M324.76 1057.45 Q320.246 1057.45 317.96 1061.91 Q315.703 1066.33 315.703 1075.25 Q315.703 1084.13 317.96 1088.59 Q320.246 1093.01 324.76 1093.01 Q329.302 1093.01 331.559 1088.59 Q333.845 1084.13 333.845 1075.25 Q333.845 1066.33 331.559 1061.91 Q329.302 1057.45 324.76 1057.45 M324.76 1052.82 Q332.022 1052.82 335.842 1058.58 Q339.69 1064.31 339.69 1075.25 Q339.69 1086.15 335.842 1091.91 Q332.022 1097.64 324.76 1097.64 Q317.497 1097.64 313.649 1091.91 Q309.829 1086.15 309.829 1075.25 Q309.829 1064.31 313.649 1058.58 Q317.497 1052.82 324.76 1052.82 Z" fill="#000000" fill-rule="nonzero" fill-opacity="1" /><path clip-path="url(#clip730)" d="M339.69 1045.45 L369.83 1045.45 L369.83 1049.44 L339.69 1049.44 L339.69 1045.45 Z" fill="#000000" fill-rule="nonzero" fill-opacity="1" /><path clip-path="url(#clip730)" d="M380.127 1027.44 L398.77 1027.44 L398.77 1031.44 L384.476 1031.44 L384.476 1040.04 Q385.511 1039.69 386.545 1039.52 Q387.579 1039.34 388.614 1039.34 Q394.491 1039.34 397.924 1042.56 Q401.356 1045.78 401.356 1051.28 Q401.356 1056.94 397.83 1060.09 Q394.303 1063.22 387.885 1063.22 Q385.675 1063.22 383.371 1062.85 Q381.091 1062.47 378.646 1061.72 L378.646 1056.94 Q380.762 1058.1 383.018 1058.66 Q385.275 1059.23 387.791 1059.23 Q391.858 1059.23 394.233 1057.09 Q396.607 1054.95 396.607 1051.28 Q396.607 1047.61 394.233 1045.47 Q391.858 1043.33 387.791 1043.33 Q385.887 1043.33 383.982 1043.76 Q382.102 1044.18 380.127 1045.07 L380.127 1027.44 Z" fill="#000000" fill-rule="nonzero" fill-opacity="1" /><path clip-path="url(#clip730)" d="M146.722 739.613 L131.966 762.674 L146.722 762.674 L146.722 739.613 M145.189 734.52 L152.538 734.52 L152.538 762.674 L158.701 762.674 L158.701 767.535 L152.538 767.535 L152.538 777.72 L146.722 777.72 L146.722 767.535 L127.22 767.535 L127.22 761.893 L145.189 734.52 Z" fill="#000000" fill-rule="nonzero" fill-opacity="1" /><path clip-path="url(#clip730)" d="M168.366 770.371 L174.471 770.371 L174.471 777.72 L168.366 777.72 L168.366 770.371 Z" fill="#000000" fill-rule="nonzero" fill-opacity="1" /><path clip-path="url(#clip730)" d="M199.702 738.369 Q195.189 738.369 192.903 742.825 Q190.646 747.252 190.646 756.164 Q190.646 765.047 192.903 769.503 Q195.189 773.93 199.702 773.93 Q204.245 773.93 206.502 769.503 Q208.788 765.047 208.788 756.164 Q208.788 747.252 206.502 742.825 Q204.245 738.369 199.702 738.369 M199.702 733.739 Q206.965 733.739 210.785 739.497 Q214.633 745.226 214.633 756.164 Q214.633 767.072 210.785 772.83 Q206.965 778.56 199.702 778.56 Q192.44 778.56 188.591 772.83 Q184.772 767.072 184.772 756.164 Q184.772 745.226 188.591 739.497 Q192.44 733.739 199.702 733.739 Z" fill="#000000" fill-rule="nonzero" fill-opacity="1" /><path clip-path="url(#clip730)" d="M260.119 745.892 L246.895 759.173 L260.119 772.396 L256.675 775.898 L243.394 762.616 L230.113 775.898 L226.699 772.396 L239.893 759.173 L226.699 745.892 L230.113 742.391 L243.394 755.672 L256.675 742.391 L260.119 745.892 Z" fill="#000000" fill-rule="nonzero" fill-opacity="1" /><path clip-path="url(#clip730)" d="M275.57 772.801 L285.119 772.801 L285.119 739.844 L274.731 741.928 L274.731 736.604 L285.061 734.52 L290.906 734.52 L290.906 772.801 L300.454 772.801 L300.454 777.72 L275.57 777.72 L275.57 772.801 Z" fill="#000000" fill-rule="nonzero" fill-opacity="1" /><path clip-path="url(#clip730)" d="M324.76 738.369 Q320.246 738.369 317.96 742.825 Q315.703 747.252 315.703 756.164 Q315.703 765.047 317.96 769.503 Q320.246 773.93 324.76 773.93 Q329.302 773.93 331.559 769.503 Q333.845 765.047 333.845 756.164 Q333.845 747.252 331.559 742.825 Q329.302 738.369 324.76 738.369 M324.76 733.739 Q332.022 733.739 335.842 739.497 Q339.69 745.226 339.69 756.164 Q339.69 767.072 335.842 772.83 Q332.022 778.56 324.76 778.56 Q317.497 778.56 313.649 772.83 Q309.829 767.072 309.829 756.164 Q309.829 745.226 313.649 739.497 Q317.497 733.739 324.76 733.739 Z" fill="#000000" fill-rule="nonzero" fill-opacity="1" /><path clip-path="url(#clip730)" d="M339.69 726.366 L369.83 726.366 L369.83 730.363 L339.69 730.363 L339.69 726.366 Z" fill="#000000" fill-rule="nonzero" fill-opacity="1" /><path clip-path="url(#clip730)" d="M380.127 708.357 L398.77 708.357 L398.77 712.354 L384.476 712.354 L384.476 720.959 Q385.511 720.606 386.545 720.441 Q387.579 720.253 388.614 720.253 Q394.491 720.253 397.924 723.474 Q401.356 726.695 401.356 732.196 Q401.356 737.862 397.83 741.012 Q394.303 744.139 387.885 744.139 Q385.675 744.139 383.371 743.763 Q381.091 743.387 378.646 742.635 L378.646 737.862 Q380.762 739.014 383.018 739.578 Q385.275 740.143 387.791 740.143 Q391.858 740.143 394.233 738.003 Q396.607 735.864 396.607 732.196 Q396.607 728.529 394.233 726.389 Q391.858 724.25 387.791 724.25 Q385.887 724.25 383.982 724.673 Q382.102 725.096 380.127 725.99 L380.127 708.357 Z" fill="#000000" fill-rule="nonzero" fill-opacity="1" /><path clip-path="url(#clip730)" d="M143.887 434.709 Q139.952 434.709 137.637 437.4 Q135.351 440.091 135.351 444.778 Q135.351 449.437 137.637 452.157 Q139.952 454.847 143.887 454.847 Q147.822 454.847 150.108 452.157 Q152.423 449.437 152.423 444.778 Q152.423 440.091 150.108 437.4 Q147.822 434.709 143.887 434.709 M155.49 416.393 L155.49 421.717 Q153.291 420.675 151.034 420.125 Q148.806 419.576 146.607 419.576 Q140.82 419.576 137.753 423.482 Q134.714 427.388 134.28 435.287 Q135.987 432.77 138.563 431.439 Q141.138 430.079 144.234 430.079 Q150.744 430.079 154.506 434.043 Q158.296 437.978 158.296 444.778 Q158.296 451.433 154.361 455.455 Q150.426 459.477 143.887 459.477 Q136.393 459.477 132.428 453.748 Q128.464 447.99 128.464 437.081 Q128.464 426.838 133.325 420.762 Q138.187 414.657 146.375 414.657 Q148.574 414.657 150.802 415.091 Q153.059 415.525 155.49 416.393 Z" fill="#000000" fill-rule="nonzero" fill-opacity="1" /><path clip-path="url(#clip730)" d="M168.366 451.288 L174.471 451.288 L174.471 458.638 L168.366 458.638 L168.366 451.288 Z" fill="#000000" fill-rule="nonzero" fill-opacity="1" /><path clip-path="url(#clip730)" d="M199.702 419.286 Q195.189 419.286 192.903 423.742 Q190.646 428.169 190.646 437.081 Q190.646 445.964 192.903 450.42 Q195.189 454.847 199.702 454.847 Q204.245 454.847 206.502 450.42 Q208.788 445.964 208.788 437.081 Q208.788 428.169 206.502 423.742 Q204.245 419.286 199.702 419.286 M199.702 414.657 Q206.965 414.657 210.785 420.415 Q214.633 426.144 214.633 437.081 Q214.633 447.99 210.785 453.748 Q206.965 459.477 199.702 459.477 Q192.44 459.477 188.591 453.748 Q184.772 447.99 184.772 437.081 Q184.772 426.144 188.591 420.415 Q192.44 414.657 199.702 414.657 Z" fill="#000000" fill-rule="nonzero" fill-opacity="1" /><path clip-path="url(#clip730)" d="M260.119 426.809 L246.895 440.091 L260.119 453.314 L256.675 456.815 L243.394 443.534 L230.113 456.815 L226.699 453.314 L239.893 440.091 L226.699 426.809 L230.113 423.308 L243.394 436.589 L256.675 423.308 L260.119 426.809 Z" fill="#000000" fill-rule="nonzero" fill-opacity="1" /><path clip-path="url(#clip730)" d="M275.57 453.719 L285.119 453.719 L285.119 420.762 L274.731 422.845 L274.731 417.521 L285.061 415.438 L290.906 415.438 L290.906 453.719 L300.454 453.719 L300.454 458.638 L275.57 458.638 L275.57 453.719 Z" fill="#000000" fill-rule="nonzero" fill-opacity="1" /><path clip-path="url(#clip730)" d="M324.76 419.286 Q320.246 419.286 317.96 423.742 Q315.703 428.169 315.703 437.081 Q315.703 445.964 317.96 450.42 Q320.246 454.847 324.76 454.847 Q329.302 454.847 331.559 450.42 Q333.845 445.964 333.845 437.081 Q333.845 428.169 331.559 423.742 Q329.302 419.286 324.76 419.286 M324.76 414.657 Q332.022 414.657 335.842 420.415 Q339.69 426.144 339.69 437.081 Q339.69 447.99 335.842 453.748 Q332.022 459.477 324.76 459.477 Q317.497 459.477 313.649 453.748 Q309.829 447.99 309.829 437.081 Q309.829 426.144 313.649 420.415 Q317.497 414.657 324.76 414.657 Z" fill="#000000" fill-rule="nonzero" fill-opacity="1" /><path clip-path="url(#clip730)" d="M339.69 407.283 L369.83 407.283 L369.83 411.28 L339.69 411.28 L339.69 407.283 Z" fill="#000000" fill-rule="nonzero" fill-opacity="1" /><path clip-path="url(#clip730)" d="M380.127 389.275 L398.77 389.275 L398.77 393.272 L384.476 393.272 L384.476 401.876 Q385.511 401.524 386.545 401.359 Q387.579 401.171 388.614 401.171 Q394.491 401.171 397.924 404.392 Q401.356 407.613 401.356 413.114 Q401.356 418.78 397.83 421.93 Q394.303 425.057 387.885 425.057 Q385.675 425.057 383.371 424.681 Q381.091 424.304 378.646 423.552 L378.646 418.78 Q380.762 419.932 383.018 420.496 Q385.275 421.06 387.791 421.06 Q391.858 421.06 394.233 418.921 Q396.607 416.781 396.607 413.114 Q396.607 409.446 394.233 407.307 Q391.858 405.168 387.791 405.168 Q385.887 405.168 383.982 405.591 Q382.102 406.014 380.127 406.907 L380.127 389.275 Z" fill="#000000" fill-rule="nonzero" fill-opacity="1" /><path clip-path="url(#clip730)" d="M143.163 119.041 Q138.997 119.041 136.595 121.269 Q134.222 123.497 134.222 127.403 Q134.222 131.309 136.595 133.537 Q138.997 135.765 143.163 135.765 Q147.33 135.765 149.732 133.537 Q152.133 131.28 152.133 127.403 Q152.133 123.497 149.732 121.269 Q147.359 119.041 143.163 119.041 M137.318 116.552 Q133.557 115.626 131.445 113.051 Q129.361 110.476 129.361 106.772 Q129.361 101.593 133.036 98.5835 Q136.74 95.5742 143.163 95.5742 Q149.616 95.5742 153.291 98.5835 Q156.965 101.593 156.965 106.772 Q156.965 110.476 154.853 113.051 Q152.77 115.626 149.037 116.552 Q153.262 117.536 155.605 120.4 Q157.978 123.265 157.978 127.403 Q157.978 133.682 154.13 137.038 Q150.31 140.395 143.163 140.395 Q136.016 140.395 132.168 137.038 Q128.349 133.682 128.349 127.403 Q128.349 123.265 130.721 120.4 Q133.094 117.536 137.318 116.552 M135.177 107.322 Q135.177 110.678 137.261 112.559 Q139.373 114.44 143.163 114.44 Q146.925 114.44 149.037 112.559 Q151.178 110.678 151.178 107.322 Q151.178 103.965 149.037 102.085 Q146.925 100.204 143.163 100.204 Q139.373 100.204 137.261 102.085 Q135.177 103.965 135.177 107.322 Z" fill="#000000" fill-rule="nonzero" fill-opacity="1" /><path clip-path="url(#clip730)" d="M168.366 132.206 L174.471 132.206 L174.471 139.555 L168.366 139.555 L168.366 132.206 Z" fill="#000000" fill-rule="nonzero" fill-opacity="1" /><path clip-path="url(#clip730)" d="M199.702 100.204 Q195.189 100.204 192.903 104.66 Q190.646 109.087 190.646 117.999 Q190.646 126.882 192.903 131.338 Q195.189 135.765 199.702 135.765 Q204.245 135.765 206.502 131.338 Q208.788 126.882 208.788 117.999 Q208.788 109.087 206.502 104.66 Q204.245 100.204 199.702 100.204 M199.702 95.5742 Q206.965 95.5742 210.785 101.332 Q214.633 107.061 214.633 117.999 Q214.633 128.907 210.785 134.665 Q206.965 140.395 199.702 140.395 Q192.44 140.395 188.591 134.665 Q184.772 128.907 184.772 117.999 Q184.772 107.061 188.591 101.332 Q192.44 95.5742 199.702 95.5742 Z" fill="#000000" fill-rule="nonzero" fill-opacity="1" /><path clip-path="url(#clip730)" d="M260.119 107.727 L246.895 121.008 L260.119 134.231 L256.675 137.733 L243.394 124.451 L230.113 137.733 L226.699 134.231 L239.893 121.008 L226.699 107.727 L230.113 104.226 L243.394 117.507 L256.675 104.226 L260.119 107.727 Z" fill="#000000" fill-rule="nonzero" fill-opacity="1" /><path clip-path="url(#clip730)" d="M275.57 134.637 L285.119 134.637 L285.119 101.68 L274.731 103.763 L274.731 98.4388 L285.061 96.3555 L290.906 96.3555 L290.906 134.637 L300.454 134.637 L300.454 139.555 L275.57 139.555 L275.57 134.637 Z" fill="#000000" fill-rule="nonzero" fill-opacity="1" /><path clip-path="url(#clip730)" d="M324.76 100.204 Q320.246 100.204 317.96 104.66 Q315.703 109.087 315.703 117.999 Q315.703 126.882 317.96 131.338 Q320.246 135.765 324.76 135.765 Q329.302 135.765 331.559 131.338 Q333.845 126.882 333.845 117.999 Q333.845 109.087 331.559 104.66 Q329.302 100.204 324.76 100.204 M324.76 95.5742 Q332.022 95.5742 335.842 101.332 Q339.69 107.061 339.69 117.999 Q339.69 128.907 335.842 134.665 Q332.022 140.395 324.76 140.395 Q317.497 140.395 313.649 134.665 Q309.829 128.907 309.829 117.999 Q309.829 107.061 313.649 101.332 Q317.497 95.5742 324.76 95.5742 Z" fill="#000000" fill-rule="nonzero" fill-opacity="1" /><path clip-path="url(#clip730)" d="M339.69 88.2009 L369.83 88.2009 L369.83 92.1976 L339.69 92.1976 L339.69 88.2009 Z" fill="#000000" fill-rule="nonzero" fill-opacity="1" /><path clip-path="url(#clip730)" d="M380.127 70.1925 L398.77 70.1925 L398.77 74.1891 L384.476 74.1891 L384.476 82.7937 Q385.511 82.441 386.545 82.2765 Q387.579 82.0884 388.614 82.0884 Q394.491 82.0884 397.924 85.3092 Q401.356 88.5301 401.356 94.0313 Q401.356 99.6972 397.83 102.847 Q394.303 105.974 387.885 105.974 Q385.675 105.974 383.371 105.598 Q381.091 105.222 378.646 104.47 L378.646 99.6972 Q380.762 100.849 383.018 101.413 Q385.275 101.978 387.791 101.978 Q391.858 101.978 394.233 99.8382 Q396.607 97.6988 396.607 94.0313 Q396.607 90.3638 394.233 88.2244 Q391.858 86.085 387.791 86.085 Q385.887 86.085 383.982 86.5082 Q382.102 86.9314 380.127 87.8248 L380.127 70.1925 Z" fill="#000000" fill-rule="nonzero" fill-opacity="1" /><path clip-path="url(#clip730)" d="M12.5962 925.721 L12.5962 890.964 L19.4827 890.964 L19.4827 917.538 L37.3067 917.538 L37.3067 893.557 L44.1932 893.557 L44.1932 917.538 L73.0762 917.538 L73.0762 925.721 L12.5962 925.721 Z" fill="#000000" fill-rule="nonzero" fill-opacity="1" /><path clip-path="url(#clip730)" d="M34.6736 858.071 Q33.9444 859.327 33.6204 860.826 Q33.2558 862.284 33.2558 864.066 Q33.2558 870.386 37.3877 873.789 Q41.4791 877.151 49.1758 877.151 L73.0762 877.151 L73.0762 884.645 L27.706 884.645 L27.706 877.151 L34.7546 877.151 Q30.6227 874.801 28.6377 871.034 Q26.6123 867.267 26.6123 861.879 Q26.6123 861.109 26.7338 860.177 Q26.8148 859.246 27.0174 858.112 L34.6736 858.071 Z" fill="#000000" fill-rule="nonzero" fill-opacity="1" /><path clip-path="url(#clip730)" d="M48.5277 813.268 L52.1735 813.268 L52.1735 847.539 Q59.8702 847.053 63.9211 842.921 Q67.9315 838.748 67.9315 831.335 Q67.9315 827.041 66.8783 823.031 Q65.825 818.98 63.7186 815.01 L70.7671 815.01 Q72.4685 819.02 73.3597 823.233 Q74.2509 827.446 74.2509 831.781 Q74.2509 842.637 67.9315 848.997 Q61.6121 855.316 50.8367 855.316 Q39.6967 855.316 33.1748 849.321 Q26.6123 843.285 26.6123 833.077 Q26.6123 823.922 32.5266 818.615 Q38.4004 813.268 48.5277 813.268 M46.3402 820.722 Q40.2233 820.803 36.5775 824.165 Q32.9317 827.487 32.9317 832.996 Q32.9317 839.234 36.456 843.002 Q39.9803 846.728 46.3807 847.296 L46.3402 820.722 Z" fill="#000000" fill-rule="nonzero" fill-opacity="1" /><path clip-path="url(#clip730)" d="M50.4316 796.578 Q58.6549 796.578 63.354 793.216 Q68.0125 789.813 68.0125 783.899 Q68.0125 777.985 63.354 774.582 Q58.6549 771.179 50.4316 771.179 Q42.2083 771.179 37.5497 774.582 Q32.8507 777.985 32.8507 783.899 Q32.8507 789.813 37.5497 793.216 Q42.2083 796.578 50.4316 796.578 M66.2706 771.179 Q70.3215 773.529 72.3065 777.134 Q74.2509 780.699 74.2509 785.722 Q74.2509 793.945 67.6885 799.13 Q61.126 804.275 50.4316 804.275 Q39.7372 804.275 33.1748 799.13 Q26.6123 793.945 26.6123 785.722 Q26.6123 780.699 28.5972 777.134 Q30.5417 773.529 34.5926 771.179 L27.706 771.179 L27.706 763.725 L90.333 763.725 L90.333 771.179 L66.2706 771.179 Z" fill="#000000" fill-rule="nonzero" fill-opacity="1" /><path clip-path="url(#clip730)" d="M55.1712 749.142 L27.706 749.142 L27.706 741.689 L54.8876 741.689 Q61.3285 741.689 64.5693 739.177 Q67.7695 736.665 67.7695 731.642 Q67.7695 725.606 63.9211 722.123 Q60.0728 718.598 53.4293 718.598 L27.706 718.598 L27.706 711.145 L73.0762 711.145 L73.0762 718.598 L66.1086 718.598 Q70.2405 721.312 72.266 724.918 Q74.2509 728.483 74.2509 733.222 Q74.2509 741.04 69.3898 745.091 Q64.5287 749.142 55.1712 749.142 M26.6123 730.387 L26.6123 730.387 Z" fill="#000000" fill-rule="nonzero" fill-opacity="1" /><path clip-path="url(#clip730)" d="M48.5277 656.984 L52.1735 656.984 L52.1735 691.255 Q59.8702 690.769 63.9211 686.637 Q67.9315 682.464 67.9315 675.051 Q67.9315 670.757 66.8783 666.747 Q65.825 662.696 63.7186 658.726 L70.7671 658.726 Q72.4685 662.736 73.3597 666.949 Q74.2509 671.162 74.2509 675.497 Q74.2509 686.353 67.9315 692.713 Q61.6121 699.033 50.8367 699.033 Q39.6967 699.033 33.1748 693.037 Q26.6123 687.001 26.6123 676.793 Q26.6123 667.638 32.5266 662.331 Q38.4004 656.984 48.5277 656.984 M46.3402 664.438 Q40.2233 664.519 36.5775 667.881 Q32.9317 671.203 32.9317 676.712 Q32.9317 682.95 36.456 686.718 Q39.9803 690.445 46.3807 691.012 L46.3402 664.438 Z" fill="#000000" fill-rule="nonzero" fill-opacity="1" /><path clip-path="url(#clip730)" d="M45.692 607.036 L73.0762 607.036 L73.0762 614.49 L45.9351 614.49 Q39.4942 614.49 36.2939 617.002 Q33.0937 619.513 33.0937 624.536 Q33.0937 630.572 36.9421 634.056 Q40.7905 637.54 47.4339 637.54 L73.0762 637.54 L73.0762 645.034 L27.706 645.034 L27.706 637.54 L34.7546 637.54 Q30.6632 634.866 28.6377 631.261 Q26.6123 627.615 26.6123 622.876 Q26.6123 615.057 31.4734 611.047 Q36.2939 607.036 45.692 607.036 Z" fill="#000000" fill-rule="nonzero" fill-opacity="1" /><path clip-path="url(#clip730)" d="M29.4479 559.519 L36.4155 559.519 Q34.6736 562.679 33.8229 565.879 Q32.9317 569.039 32.9317 572.28 Q32.9317 579.531 37.5497 583.541 Q42.1272 587.552 50.4316 587.552 Q58.736 587.552 63.354 583.541 Q67.9315 579.531 67.9315 572.28 Q67.9315 569.039 67.0808 565.879 Q66.1896 562.679 64.4477 559.519 L71.3343 559.519 Q72.7926 562.639 73.5218 566.001 Q74.2509 569.323 74.2509 573.09 Q74.2509 583.339 67.81 589.375 Q61.369 595.41 50.4316 595.41 Q39.3321 595.41 32.9722 589.334 Q26.6123 583.217 26.6123 572.604 Q26.6123 569.161 27.3414 565.879 Q28.0301 562.598 29.4479 559.519 Z" fill="#000000" fill-rule="nonzero" fill-opacity="1" /><path clip-path="url(#clip730)" d="M77.2891 527.679 Q85.3909 530.839 87.862 533.837 Q90.333 536.834 90.333 541.857 L90.333 547.812 L84.0946 547.812 L84.0946 543.437 Q84.0946 540.359 82.6363 538.657 Q81.178 536.956 75.7498 534.89 L72.347 533.553 L27.706 551.904 L27.706 544.004 L63.192 529.826 L27.706 515.648 L27.706 507.749 L77.2891 527.679 Z" fill="#000000" fill-rule="nonzero" fill-opacity="1" /><path clip-path="url(#clip732)" d="M542.706 906.684 L542.706 1386.23 L592.845 1386.23 L592.845 906.684 L542.706 906.684 L542.706 906.684  Z" fill="#0000ff" fill-rule="evenodd" fill-opacity="0.5"/>
<polyline clip-path="url(#clip732)" style="stroke:#000000; stroke-linecap:round; stroke-linejoin:round; stroke-width:4; stroke-opacity:0.5; fill:none" points="542.706,906.684 542.706,1386.23 592.845,1386.23 592.845,906.684 542.706,906.684 "/>
<path clip-path="url(#clip732)" d="M592.845 319.711 L592.845 1386.23 L642.983 1386.23 L642.983 319.711 L592.845 319.711 L592.845 319.711  Z" fill="#0000ff" fill-rule="evenodd" fill-opacity="0.5"/>
<polyline clip-path="url(#clip732)" style="stroke:#000000; stroke-linecap:round; stroke-linejoin:round; stroke-width:4; stroke-opacity:0.5; fill:none" points="592.845,319.711 592.845,1386.23 642.983,1386.23 642.983,319.711 592.845,319.711 "/>
<path clip-path="url(#clip732)" d="M642.983 47.2441 L642.983 1386.23 L693.121 1386.23 L693.121 47.2441 L642.983 47.2441 L642.983 47.2441  Z" fill="#0000ff" fill-rule="evenodd" fill-opacity="0.5"/>
<polyline clip-path="url(#clip732)" style="stroke:#000000; stroke-linecap:round; stroke-linejoin:round; stroke-width:4; stroke-opacity:0.5; fill:none" points="642.983,47.2441 642.983,1386.23 693.121,1386.23 693.121,47.2441 642.983,47.2441 "/>
<path clip-path="url(#clip732)" d="M693.121 160.902 L693.121 1386.23 L743.259 1386.23 L743.259 160.902 L693.121 160.902 L693.121 160.902  Z" fill="#0000ff" fill-rule="evenodd" fill-opacity="0.5"/>
<polyline clip-path="url(#clip732)" style="stroke:#000000; stroke-linecap:round; stroke-linejoin:round; stroke-width:4; stroke-opacity:0.5; fill:none" points="693.121,160.902 693.121,1386.23 743.259,1386.23 743.259,160.902 693.121,160.902 "/>
<path clip-path="url(#clip732)" d="M743.259 216.952 L743.259 1386.23 L793.397 1386.23 L793.397 216.952 L743.259 216.952 L743.259 216.952  Z" fill="#0000ff" fill-rule="evenodd" fill-opacity="0.5"/>
<polyline clip-path="url(#clip732)" style="stroke:#000000; stroke-linecap:round; stroke-linejoin:round; stroke-width:4; stroke-opacity:0.5; fill:none" points="743.259,216.952 743.259,1386.23 793.397,1386.23 793.397,216.952 743.259,216.952 "/>
<path clip-path="url(#clip732)" d="M793.397 287.015 L793.397 1386.23 L843.536 1386.23 L843.536 287.015 L793.397 287.015 L793.397 287.015  Z" fill="#0000ff" fill-rule="evenodd" fill-opacity="0.5"/>
<polyline clip-path="url(#clip732)" style="stroke:#000000; stroke-linecap:round; stroke-linejoin:round; stroke-width:4; stroke-opacity:0.5; fill:none" points="793.397,287.015 793.397,1386.23 843.536,1386.23 843.536,287.015 793.397,287.015 "/>
<path clip-path="url(#clip732)" d="M843.536 453.609 L843.536 1386.23 L893.674 1386.23 L893.674 453.609 L843.536 453.609 L843.536 453.609  Z" fill="#0000ff" fill-rule="evenodd" fill-opacity="0.5"/>
<polyline clip-path="url(#clip732)" style="stroke:#000000; stroke-linecap:round; stroke-linejoin:round; stroke-width:4; stroke-opacity:0.5; fill:none" points="843.536,453.609 843.536,1386.23 893.674,1386.23 893.674,453.609 843.536,453.609 "/>
<path clip-path="url(#clip732)" d="M893.674 489.419 L893.674 1386.23 L943.812 1386.23 L943.812 489.419 L893.674 489.419 L893.674 489.419  Z" fill="#0000ff" fill-rule="evenodd" fill-opacity="0.5"/>
<polyline clip-path="url(#clip732)" style="stroke:#000000; stroke-linecap:round; stroke-linejoin:round; stroke-width:4; stroke-opacity:0.5; fill:none" points="893.674,489.419 893.674,1386.23 943.812,1386.23 943.812,489.419 893.674,489.419 "/>
<path clip-path="url(#clip732)" d="M943.812 582.837 L943.812 1386.23 L993.95 1386.23 L993.95 582.837 L943.812 582.837 L943.812 582.837  Z" fill="#0000ff" fill-rule="evenodd" fill-opacity="0.5"/>
<polyline clip-path="url(#clip732)" style="stroke:#000000; stroke-linecap:round; stroke-linejoin:round; stroke-width:4; stroke-opacity:0.5; fill:none" points="943.812,582.837 943.812,1386.23 993.95,1386.23 993.95,582.837 943.812,582.837 "/>
<path clip-path="url(#clip732)" d="M993.95 543.913 L993.95 1386.23 L1044.09 1386.23 L1044.09 543.913 L993.95 543.913 L993.95 543.913  Z" fill="#0000ff" fill-rule="evenodd" fill-opacity="0.5"/>
<polyline clip-path="url(#clip732)" style="stroke:#000000; stroke-linecap:round; stroke-linejoin:round; stroke-width:4; stroke-opacity:0.5; fill:none" points="993.95,543.913 993.95,1386.23 1044.09,1386.23 1044.09,543.913 993.95,543.913 "/>
<path clip-path="url(#clip732)" d="M1044.09 654.457 L1044.09 1386.23 L1094.23 1386.23 L1094.23 654.457 L1044.09 654.457 L1044.09 654.457  Z" fill="#0000ff" fill-rule="evenodd" fill-opacity="0.5"/>
<polyline clip-path="url(#clip732)" style="stroke:#000000; stroke-linecap:round; stroke-linejoin:round; stroke-width:4; stroke-opacity:0.5; fill:none" points="1044.09,654.457 1044.09,1386.23 1094.23,1386.23 1094.23,654.457 1044.09,654.457 "/>
<path clip-path="url(#clip732)" d="M1094.23 805.481 L1094.23 1386.23 L1144.36 1386.23 L1144.36 805.481 L1094.23 805.481 L1094.23 805.481  Z" fill="#0000ff" fill-rule="evenodd" fill-opacity="0.5"/>
<polyline clip-path="url(#clip732)" style="stroke:#000000; stroke-linecap:round; stroke-linejoin:round; stroke-width:4; stroke-opacity:0.5; fill:none" points="1094.23,805.481 1094.23,1386.23 1144.36,1386.23 1144.36,805.481 1094.23,805.481 "/>
<path clip-path="url(#clip732)" d="M1144.36 883.329 L1144.36 1386.23 L1194.5 1386.23 L1194.5 883.329 L1144.36 883.329 L1144.36 883.329  Z" fill="#0000ff" fill-rule="evenodd" fill-opacity="0.5"/>
<polyline clip-path="url(#clip732)" style="stroke:#000000; stroke-linecap:round; stroke-linejoin:round; stroke-width:4; stroke-opacity:0.5; fill:none" points="1144.36,883.329 1144.36,1386.23 1194.5,1386.23 1194.5,883.329 1144.36,883.329 "/>
<path clip-path="url(#clip732)" d="M1194.5 914.468 L1194.5 1386.23 L1244.64 1386.23 L1244.64 914.468 L1194.5 914.468 L1194.5 914.468  Z" fill="#0000ff" fill-rule="evenodd" fill-opacity="0.5"/>
<polyline clip-path="url(#clip732)" style="stroke:#000000; stroke-linecap:round; stroke-linejoin:round; stroke-width:4; stroke-opacity:0.5; fill:none" points="1194.5,914.468 1194.5,1386.23 1244.64,1386.23 1244.64,914.468 1194.5,914.468 "/>
<path clip-path="url(#clip732)" d="M1244.64 978.303 L1244.64 1386.23 L1294.78 1386.23 L1294.78 978.303 L1244.64 978.303 L1244.64 978.303  Z" fill="#0000ff" fill-rule="evenodd" fill-opacity="0.5"/>
<polyline clip-path="url(#clip732)" style="stroke:#000000; stroke-linecap:round; stroke-linejoin:round; stroke-width:4; stroke-opacity:0.5; fill:none" points="1244.64,978.303 1244.64,1386.23 1294.78,1386.23 1294.78,978.303 1244.64,978.303 "/>
<path clip-path="url(#clip732)" d="M1294.78 962.734 L1294.78 1386.23 L1344.92 1386.23 L1344.92 962.734 L1294.78 962.734 L1294.78 962.734  Z" fill="#0000ff" fill-rule="evenodd" fill-opacity="0.5"/>
<polyline clip-path="url(#clip732)" style="stroke:#000000; stroke-linecap:round; stroke-linejoin:round; stroke-width:4; stroke-opacity:0.5; fill:none" points="1294.78,962.734 1294.78,1386.23 1344.92,1386.23 1344.92,962.734 1294.78,962.734 "/>
<path clip-path="url(#clip732)" d="M1344.92 1020.34 L1344.92 1386.23 L1395.06 1386.23 L1395.06 1020.34 L1344.92 1020.34 L1344.92 1020.34  Z" fill="#0000ff" fill-rule="evenodd" fill-opacity="0.5"/>
<polyline clip-path="url(#clip732)" style="stroke:#000000; stroke-linecap:round; stroke-linejoin:round; stroke-width:4; stroke-opacity:0.5; fill:none" points="1344.92,1020.34 1344.92,1386.23 1395.06,1386.23 1395.06,1020.34 1344.92,1020.34 "/>
<path clip-path="url(#clip732)" d="M1395.06 1067.05 L1395.06 1386.23 L1445.19 1386.23 L1445.19 1067.05 L1395.06 1067.05 L1395.06 1067.05  Z" fill="#0000ff" fill-rule="evenodd" fill-opacity="0.5"/>
<polyline clip-path="url(#clip732)" style="stroke:#000000; stroke-linecap:round; stroke-linejoin:round; stroke-width:4; stroke-opacity:0.5; fill:none" points="1395.06,1067.05 1395.06,1386.23 1445.19,1386.23 1445.19,1067.05 1395.06,1067.05 "/>
<path clip-path="url(#clip732)" d="M1445.19 1085.73 L1445.19 1386.23 L1495.33 1386.23 L1495.33 1085.73 L1445.19 1085.73 L1445.19 1085.73  Z" fill="#0000ff" fill-rule="evenodd" fill-opacity="0.5"/>
<polyline clip-path="url(#clip732)" style="stroke:#000000; stroke-linecap:round; stroke-linejoin:round; stroke-width:4; stroke-opacity:0.5; fill:none" points="1445.19,1085.73 1445.19,1386.23 1495.33,1386.23 1495.33,1085.73 1445.19,1085.73 "/>
<path clip-path="url(#clip732)" d="M1495.33 1126.21 L1495.33 1386.23 L1545.47 1386.23 L1545.47 1126.21 L1495.33 1126.21 L1495.33 1126.21  Z" fill="#0000ff" fill-rule="evenodd" fill-opacity="0.5"/>
<polyline clip-path="url(#clip732)" style="stroke:#000000; stroke-linecap:round; stroke-linejoin:round; stroke-width:4; stroke-opacity:0.5; fill:none" points="1495.33,1126.21 1495.33,1386.23 1545.47,1386.23 1545.47,1126.21 1495.33,1126.21 "/>
<path clip-path="url(#clip732)" d="M1545.47 1172.92 L1545.47 1386.23 L1595.61 1386.23 L1595.61 1172.92 L1545.47 1172.92 L1545.47 1172.92  Z" fill="#0000ff" fill-rule="evenodd" fill-opacity="0.5"/>
<polyline clip-path="url(#clip732)" style="stroke:#000000; stroke-linecap:round; stroke-linejoin:round; stroke-width:4; stroke-opacity:0.5; fill:none" points="1545.47,1172.92 1545.47,1386.23 1595.61,1386.23 1595.61,1172.92 1545.47,1172.92 "/>
<path clip-path="url(#clip732)" d="M1595.61 1190.05 L1595.61 1386.23 L1645.75 1386.23 L1645.75 1190.05 L1595.61 1190.05 L1595.61 1190.05  Z" fill="#0000ff" fill-rule="evenodd" fill-opacity="0.5"/>
<polyline clip-path="url(#clip732)" style="stroke:#000000; stroke-linecap:round; stroke-linejoin:round; stroke-width:4; stroke-opacity:0.5; fill:none" points="1595.61,1190.05 1595.61,1386.23 1645.75,1386.23 1645.75,1190.05 1595.61,1190.05 "/>
<path clip-path="url(#clip732)" d="M1645.75 1236.76 L1645.75 1386.23 L1695.89 1386.23 L1695.89 1236.76 L1645.75 1236.76 L1645.75 1236.76  Z" fill="#0000ff" fill-rule="evenodd" fill-opacity="0.5"/>
<polyline clip-path="url(#clip732)" style="stroke:#000000; stroke-linecap:round; stroke-linejoin:round; stroke-width:4; stroke-opacity:0.5; fill:none" points="1645.75,1236.76 1645.75,1386.23 1695.89,1386.23 1695.89,1236.76 1645.75,1236.76 "/>
<path clip-path="url(#clip732)" d="M1695.89 1277.24 L1695.89 1386.23 L1746.02 1386.23 L1746.02 1277.24 L1695.89 1277.24 L1695.89 1277.24  Z" fill="#0000ff" fill-rule="evenodd" fill-opacity="0.5"/>
<polyline clip-path="url(#clip732)" style="stroke:#000000; stroke-linecap:round; stroke-linejoin:round; stroke-width:4; stroke-opacity:0.5; fill:none" points="1695.89,1277.24 1695.89,1386.23 1746.02,1386.23 1746.02,1277.24 1695.89,1277.24 "/>
<path clip-path="url(#clip732)" d="M1746.02 1249.21 L1746.02 1386.23 L1796.16 1386.23 L1796.16 1249.21 L1746.02 1249.21 L1746.02 1249.21  Z" fill="#0000ff" fill-rule="evenodd" fill-opacity="0.5"/>
<polyline clip-path="url(#clip732)" style="stroke:#000000; stroke-linecap:round; stroke-linejoin:round; stroke-width:4; stroke-opacity:0.5; fill:none" points="1746.02,1249.21 1746.02,1386.23 1796.16,1386.23 1796.16,1249.21 1746.02,1249.21 "/>
<path clip-path="url(#clip732)" d="M1796.16 1246.1 L1796.16 1386.23 L1846.3 1386.23 L1846.3 1246.1 L1796.16 1246.1 L1796.16 1246.1  Z" fill="#0000ff" fill-rule="evenodd" fill-opacity="0.5"/>
<polyline clip-path="url(#clip732)" style="stroke:#000000; stroke-linecap:round; stroke-linejoin:round; stroke-width:4; stroke-opacity:0.5; fill:none" points="1796.16,1246.1 1796.16,1386.23 1846.3,1386.23 1846.3,1246.1 1796.16,1246.1 "/>
<path clip-path="url(#clip732)" d="M1846.3 1230.53 L1846.3 1386.23 L1896.44 1386.23 L1896.44 1230.53 L1846.3 1230.53 L1846.3 1230.53  Z" fill="#0000ff" fill-rule="evenodd" fill-opacity="0.5"/>
<polyline clip-path="url(#clip732)" style="stroke:#000000; stroke-linecap:round; stroke-linejoin:round; stroke-width:4; stroke-opacity:0.5; fill:none" points="1846.3,1230.53 1846.3,1386.23 1896.44,1386.23 1896.44,1230.53 1846.3,1230.53 "/>
<path clip-path="url(#clip732)" d="M1896.44 1230.53 L1896.44 1386.23 L1946.58 1386.23 L1946.58 1230.53 L1896.44 1230.53 L1896.44 1230.53  Z" fill="#0000ff" fill-rule="evenodd" fill-opacity="0.5"/>
<polyline clip-path="url(#clip732)" style="stroke:#000000; stroke-linecap:round; stroke-linejoin:round; stroke-width:4; stroke-opacity:0.5; fill:none" points="1896.44,1230.53 1896.44,1386.23 1946.58,1386.23 1946.58,1230.53 1896.44,1230.53 "/>
<path clip-path="url(#clip732)" d="M1946.58 1249.21 L1946.58 1386.23 L1996.71 1386.23 L1996.71 1249.21 L1946.58 1249.21 L1946.58 1249.21  Z" fill="#0000ff" fill-rule="evenodd" fill-opacity="0.5"/>
<polyline clip-path="url(#clip732)" style="stroke:#000000; stroke-linecap:round; stroke-linejoin:round; stroke-width:4; stroke-opacity:0.5; fill:none" points="1946.58,1249.21 1946.58,1386.23 1996.71,1386.23 1996.71,1249.21 1946.58,1249.21 "/>
<path clip-path="url(#clip732)" d="M1996.71 1294.37 L1996.71 1386.23 L2046.85 1386.23 L2046.85 1294.37 L1996.71 1294.37 L1996.71 1294.37  Z" fill="#0000ff" fill-rule="evenodd" fill-opacity="0.5"/>
<polyline clip-path="url(#clip732)" style="stroke:#000000; stroke-linecap:round; stroke-linejoin:round; stroke-width:4; stroke-opacity:0.5; fill:none" points="1996.71,1294.37 1996.71,1386.23 2046.85,1386.23 2046.85,1294.37 1996.71,1294.37 "/>
<path clip-path="url(#clip732)" d="M2046.85 1281.91 L2046.85 1386.23 L2096.99 1386.23 L2096.99 1281.91 L2046.85 1281.91 L2046.85 1281.91  Z" fill="#0000ff" fill-rule="evenodd" fill-opacity="0.5"/>
<polyline clip-path="url(#clip732)" style="stroke:#000000; stroke-linecap:round; stroke-linejoin:round; stroke-width:4; stroke-opacity:0.5; fill:none" points="2046.85,1281.91 2046.85,1386.23 2096.99,1386.23 2096.99,1281.91 2046.85,1281.91 "/>
<path clip-path="url(#clip732)" d="M2096.99 1302.15 L2096.99 1386.23 L2147.13 1386.23 L2147.13 1302.15 L2096.99 1302.15 L2096.99 1302.15  Z" fill="#0000ff" fill-rule="evenodd" fill-opacity="0.5"/>
<polyline clip-path="url(#clip732)" style="stroke:#000000; stroke-linecap:round; stroke-linejoin:round; stroke-width:4; stroke-opacity:0.5; fill:none" points="2096.99,1302.15 2096.99,1386.23 2147.13,1386.23 2147.13,1302.15 2096.99,1302.15 "/>
<path clip-path="url(#clip732)" d="M2147.13 1330.18 L2147.13 1386.23 L2197.27 1386.23 L2197.27 1330.18 L2147.13 1330.18 L2147.13 1330.18  Z" fill="#0000ff" fill-rule="evenodd" fill-opacity="0.5"/>
<polyline clip-path="url(#clip732)" style="stroke:#000000; stroke-linecap:round; stroke-linejoin:round; stroke-width:4; stroke-opacity:0.5; fill:none" points="2147.13,1330.18 2147.13,1386.23 2197.27,1386.23 2197.27,1330.18 2147.13,1330.18 "/>
<path clip-path="url(#clip732)" d="M2197.27 1380 L2197.27 1386.23 L2247.41 1386.23 L2247.41 1380 L2197.27 1380 L2197.27 1380  Z" fill="#0000ff" fill-rule="evenodd" fill-opacity="0.5"/>
<polyline clip-path="url(#clip732)" style="stroke:#000000; stroke-linecap:round; stroke-linejoin:round; stroke-width:4; stroke-opacity:0.5; fill:none" points="2197.27,1380 2197.27,1386.23 2247.41,1386.23 2247.41,1380 2197.27,1380 "/>
<circle clip-path="url(#clip732)" style="fill:#0000ff; stroke:none; fill-opacity:0" cx="567.776" cy="906.684" r="2"/>
<circle clip-path="url(#clip732)" style="fill:#0000ff; stroke:none; fill-opacity:0" cx="617.914" cy="319.711" r="2"/>
<circle clip-path="url(#clip732)" style="fill:#0000ff; stroke:none; fill-opacity:0" cx="668.052" cy="47.2441" r="2"/>
<circle clip-path="url(#clip732)" style="fill:#0000ff; stroke:none; fill-opacity:0" cx="718.19" cy="160.902" r="2"/>
<circle clip-path="url(#clip732)" style="fill:#0000ff; stroke:none; fill-opacity:0" cx="768.328" cy="216.952" r="2"/>
<circle clip-path="url(#clip732)" style="fill:#0000ff; stroke:none; fill-opacity:0" cx="818.467" cy="287.015" r="2"/>
<circle clip-path="url(#clip732)" style="fill:#0000ff; stroke:none; fill-opacity:0" cx="868.605" cy="453.609" r="2"/>
<circle clip-path="url(#clip732)" style="fill:#0000ff; stroke:none; fill-opacity:0" cx="918.743" cy="489.419" r="2"/>
<circle clip-path="url(#clip732)" style="fill:#0000ff; stroke:none; fill-opacity:0" cx="968.881" cy="582.837" r="2"/>
<circle clip-path="url(#clip732)" style="fill:#0000ff; stroke:none; fill-opacity:0" cx="1019.02" cy="543.913" r="2"/>
<circle clip-path="url(#clip732)" style="fill:#0000ff; stroke:none; fill-opacity:0" cx="1069.16" cy="654.457" r="2"/>
<circle clip-path="url(#clip732)" style="fill:#0000ff; stroke:none; fill-opacity:0" cx="1119.3" cy="805.481" r="2"/>
<circle clip-path="url(#clip732)" style="fill:#0000ff; stroke:none; fill-opacity:0" cx="1169.43" cy="883.329" r="2"/>
<circle clip-path="url(#clip732)" style="fill:#0000ff; stroke:none; fill-opacity:0" cx="1219.57" cy="914.468" r="2"/>
<circle clip-path="url(#clip732)" style="fill:#0000ff; stroke:none; fill-opacity:0" cx="1269.71" cy="978.303" r="2"/>
<circle clip-path="url(#clip732)" style="fill:#0000ff; stroke:none; fill-opacity:0" cx="1319.85" cy="962.734" r="2"/>
<circle clip-path="url(#clip732)" style="fill:#0000ff; stroke:none; fill-opacity:0" cx="1369.99" cy="1020.34" r="2"/>
<circle clip-path="url(#clip732)" style="fill:#0000ff; stroke:none; fill-opacity:0" cx="1420.13" cy="1067.05" r="2"/>
<circle clip-path="url(#clip732)" style="fill:#0000ff; stroke:none; fill-opacity:0" cx="1470.26" cy="1085.73" r="2"/>
<circle clip-path="url(#clip732)" style="fill:#0000ff; stroke:none; fill-opacity:0" cx="1520.4" cy="1126.21" r="2"/>
<circle clip-path="url(#clip732)" style="fill:#0000ff; stroke:none; fill-opacity:0" cx="1570.54" cy="1172.92" r="2"/>
<circle clip-path="url(#clip732)" style="fill:#0000ff; stroke:none; fill-opacity:0" cx="1620.68" cy="1190.05" r="2"/>
<circle clip-path="url(#clip732)" style="fill:#0000ff; stroke:none; fill-opacity:0" cx="1670.82" cy="1236.76" r="2"/>
<circle clip-path="url(#clip732)" style="fill:#0000ff; stroke:none; fill-opacity:0" cx="1720.95" cy="1277.24" r="2"/>
<circle clip-path="url(#clip732)" style="fill:#0000ff; stroke:none; fill-opacity:0" cx="1771.09" cy="1249.21" r="2"/>
<circle clip-path="url(#clip732)" style="fill:#0000ff; stroke:none; fill-opacity:0" cx="1821.23" cy="1246.1" r="2"/>
<circle clip-path="url(#clip732)" style="fill:#0000ff; stroke:none; fill-opacity:0" cx="1871.37" cy="1230.53" r="2"/>
<circle clip-path="url(#clip732)" style="fill:#0000ff; stroke:none; fill-opacity:0" cx="1921.51" cy="1230.53" r="2"/>
<circle clip-path="url(#clip732)" style="fill:#0000ff; stroke:none; fill-opacity:0" cx="1971.65" cy="1249.21" r="2"/>
<circle clip-path="url(#clip732)" style="fill:#0000ff; stroke:none; fill-opacity:0" cx="2021.78" cy="1294.37" r="2"/>
<circle clip-path="url(#clip732)" style="fill:#0000ff; stroke:none; fill-opacity:0" cx="2071.92" cy="1281.91" r="2"/>
<circle clip-path="url(#clip732)" style="fill:#0000ff; stroke:none; fill-opacity:0" cx="2122.06" cy="1302.15" r="2"/>
<circle clip-path="url(#clip732)" style="fill:#0000ff; stroke:none; fill-opacity:0" cx="2172.2" cy="1330.18" r="2"/>
<circle clip-path="url(#clip732)" style="fill:#0000ff; stroke:none; fill-opacity:0" cx="2222.34" cy="1380" r="2"/>
<path clip-path="url(#clip730)" d="M2031.83 221.477 L2288.91 221.477 L2288.91 91.8768 L2031.83 91.8768  Z" fill="#ffffff" fill-rule="evenodd" fill-opacity="1"/>
<polyline clip-path="url(#clip730)" style="stroke:#000000; stroke-linecap:round; stroke-linejoin:round; stroke-width:4; stroke-opacity:1; fill:none" points="2031.83,221.477 2288.91,221.477 2288.91,91.8768 2031.83,91.8768 2031.83,221.477 "/>
<path clip-path="url(#clip730)" d="M2053.11 182.597 L2180.81 182.597 L2180.81 130.757 L2053.11 130.757 L2053.11 182.597  Z" fill="#0000ff" fill-rule="evenodd" fill-opacity="0.5"/>
<polyline clip-path="url(#clip730)" style="stroke:#000000; stroke-linecap:round; stroke-linejoin:round; stroke-width:5; stroke-opacity:1; fill:none" points="2053.11,182.597 2180.81,182.597 2180.81,130.757 2053.11,130.757 2053.11,182.597 "/>
<path clip-path="url(#clip730)" d="M2219.39 181.286 Q2217.14 187.073 2214.99 188.838 Q2212.85 190.603 2209.27 190.603 L2205.01 190.603 L2205.01 186.147 L2208.14 186.147 Q2210.34 186.147 2211.55 185.105 Q2212.77 184.064 2214.24 180.187 L2215.2 177.756 L2202.09 145.87 L2207.73 145.87 L2217.86 171.217 L2227.99 145.87 L2233.63 145.87 L2219.39 181.286 Z" fill="#000000" fill-rule="nonzero" fill-opacity="1" /><path clip-path="url(#clip730)" d="M2242.74 173.358 L2252.29 173.358 L2252.29 140.401 L2241.9 142.484 L2241.9 137.16 L2252.23 135.077 L2258.08 135.077 L2258.08 173.358 L2267.63 173.358 L2267.63 178.277 L2242.74 178.277 L2242.74 173.358 Z" fill="#000000" fill-rule="nonzero" fill-opacity="1" /></svg>
