<?xml version="1.0" encoding="utf-8"?>
<svg xmlns="http://www.w3.org/2000/svg" xmlns:xlink="http://www.w3.org/1999/xlink" width="600" height="400" viewBox="0 0 2400 1600">
<defs>
  <clipPath id="clip230">
    <rect x="0" y="0" width="2400" height="1600"/>
  </clipPath>
</defs>
<path clip-path="url(#clip230)" d="M0 1600 L2400 1600 L2400 0 L0 0  Z" fill="#ffffff" fill-rule="evenodd" fill-opacity="1"/>
<defs>
  <clipPath id="clip231">
    <rect x="480" y="0" width="1681" height="1600"/>
  </clipPath>
</defs>
<path clip-path="url(#clip230)" d="M325.025 1386.23 L2352.76 1386.23 L2352.76 47.2441 L325.025 47.2441  Z" fill="#ffffff" fill-rule="evenodd" fill-opacity="1"/>
<defs>
  <clipPath id="clip232">
    <rect x="325" y="47" width="2029" height="1340"/>
  </clipPath>
</defs>
<polyline clip-path="url(#clip232)" style="stroke:#000000; stroke-linecap:round; stroke-linejoin:round; stroke-width:2; stroke-opacity:0.1; fill:none" points="436.554,1386.23 436.554,47.2441 "/>
<polyline clip-path="url(#clip232)" style="stroke:#000000; stroke-linecap:round; stroke-linejoin:round; stroke-width:2; stroke-opacity:0.1; fill:none" points="777.058,1386.23 777.058,47.2441 "/>
<polyline clip-path="url(#clip232)" style="stroke:#000000; stroke-linecap:round; stroke-linejoin:round; stroke-width:2; stroke-opacity:0.1; fill:none" points="1117.56,1386.23 1117.56,47.2441 "/>
<polyline clip-path="url(#clip232)" style="stroke:#000000; stroke-linecap:round; stroke-linejoin:round; stroke-width:2; stroke-opacity:0.1; fill:none" points="1458.07,1386.23 1458.07,47.2441 "/>
<polyline clip-path="url(#clip232)" style="stroke:#000000; stroke-linecap:round; stroke-linejoin:round; stroke-width:2; stroke-opacity:0.1; fill:none" points="1798.57,1386.23 1798.57,47.2441 "/>
<polyline clip-path="url(#clip232)" style="stroke:#000000; stroke-linecap:round; stroke-linejoin:round; stroke-width:2; stroke-opacity:0.1; fill:none" points="2139.08,1386.23 2139.08,47.2441 "/>
<polyline clip-path="url(#clip230)" style="stroke:#000000; stroke-linecap:round; stroke-linejoin:round; stroke-width:4; stroke-opacity:1; fill:none" points="325.025,1386.23 2352.76,1386.23 "/>
<polyline clip-path="url(#clip230)" style="stroke:#000000; stroke-linecap:round; stroke-linejoin:round; stroke-width:4; stroke-opacity:1; fill:none" points="436.554,1386.23 436.554,1367.33 "/>
<polyline clip-path="url(#clip230)" style="stroke:#000000; stroke-linecap:round; stroke-linejoin:round; stroke-width:4; stroke-opacity:1; fill:none" points="777.058,1386.23 777.058,1367.33 "/>
<polyline clip-path="url(#clip230)" style="stroke:#000000; stroke-linecap:round; stroke-linejoin:round; stroke-width:4; stroke-opacity:1; fill:none" points="1117.56,1386.23 1117.56,1367.33 "/>
<polyline clip-path="url(#clip230)" style="stroke:#000000; stroke-linecap:round; stroke-linejoin:round; stroke-width:4; stroke-opacity:1; fill:none" points="1458.07,1386.23 1458.07,1367.33 "/>
<polyline clip-path="url(#clip230)" style="stroke:#000000; stroke-linecap:round; stroke-linejoin:round; stroke-width:4; stroke-opacity:1; fill:none" points="1798.57,1386.23 1798.57,1367.33 "/>
<polyline clip-path="url(#clip230)" style="stroke:#000000; stroke-linecap:round; stroke-linejoin:round; stroke-width:4; stroke-opacity:1; fill:none" points="2139.08,1386.23 2139.08,1367.33 "/>
<path clip-path="url(#clip230)" d="M436.554 1420.07 Q432.04 1420.07 429.754 1424.53 Q427.497 1428.96 427.497 1437.87 Q427.497 1446.75 429.754 1451.21 Q432.04 1455.64 436.554 1455.64 Q441.096 1455.64 443.353 1451.21 Q445.639 1446.75 445.639 1437.87 Q445.639 1428.96 443.353 1424.53 Q441.096 1420.07 436.554 1420.07 M436.554 1415.44 Q443.816 1415.44 447.636 1421.2 Q451.484 1426.93 451.484 1437.87 Q451.484 1448.78 447.636 1454.54 Q443.816 1460.26 436.554 1460.26 Q429.291 1460.26 425.443 1454.54 Q421.623 1448.78 421.623 1437.87 Q421.623 1426.93 425.443 1421.2 Q429.291 1415.44 436.554 1415.44 Z" fill="#000000" fill-rule="nonzero" fill-opacity="1" /><path clip-path="url(#clip230)" d="M643.079 1435.8 L666.024 1435.8 L666.024 1440.72 L648.432 1440.72 L648.432 1451.31 Q649.705 1450.88 650.978 1450.67 Q652.251 1450.44 653.524 1450.44 Q660.758 1450.44 664.983 1454.41 Q669.207 1458.37 669.207 1465.14 Q669.207 1472.11 664.867 1475.99 Q660.527 1479.84 652.628 1479.84 Q649.908 1479.84 647.072 1479.38 Q644.265 1478.91 641.256 1477.99 L641.256 1472.11 Q643.86 1473.53 646.638 1474.23 Q649.416 1474.92 652.512 1474.92 Q657.518 1474.92 660.44 1472.29 Q663.362 1469.65 663.362 1465.14 Q663.362 1460.63 660.44 1457.99 Q657.518 1455.36 652.512 1455.36 Q650.168 1455.36 647.824 1455.88 Q645.509 1456.4 643.079 1457.5 L643.079 1435.8 Z" fill="#000000" fill-rule="nonzero" fill-opacity="1" /><path clip-path="url(#clip230)" d="M680.723 1471.65 L686.829 1471.65 L686.829 1479 L680.723 1479 L680.723 1471.65 Z" fill="#000000" fill-rule="nonzero" fill-opacity="1" /><path clip-path="url(#clip230)" d="M712.06 1439.65 Q707.546 1439.65 705.26 1444.11 Q703.003 1448.53 703.003 1457.44 Q703.003 1466.33 705.26 1470.78 Q707.546 1475.21 712.06 1475.21 Q716.603 1475.21 718.86 1470.78 Q721.146 1466.33 721.146 1457.44 Q721.146 1448.53 718.86 1444.11 Q716.603 1439.65 712.06 1439.65 M712.06 1435.02 Q719.323 1435.02 723.142 1440.78 Q726.991 1446.51 726.991 1457.44 Q726.991 1468.35 723.142 1474.11 Q719.323 1479.84 712.06 1479.84 Q704.797 1479.84 700.949 1474.11 Q697.13 1468.35 697.13 1457.44 Q697.13 1446.51 700.949 1440.78 Q704.797 1435.02 712.06 1435.02 Z" fill="#000000" fill-rule="nonzero" fill-opacity="1" /><path clip-path="url(#clip230)" d="M749.762 1439.65 Q745.249 1439.65 742.963 1444.11 Q740.706 1448.53 740.706 1457.44 Q740.706 1466.33 742.963 1470.78 Q745.249 1475.21 749.762 1475.21 Q754.305 1475.21 756.562 1470.78 Q758.848 1466.33 758.848 1457.44 Q758.848 1448.53 756.562 1444.11 Q754.305 1439.65 749.762 1439.65 M749.762 1435.02 Q757.025 1435.02 760.845 1440.78 Q764.693 1446.51 764.693 1457.44 Q764.693 1468.35 760.845 1474.11 Q757.025 1479.84 749.762 1479.84 Q742.5 1479.84 738.651 1474.11 Q734.832 1468.35 734.832 1457.44 Q734.832 1446.51 738.651 1440.78 Q742.5 1435.02 749.762 1435.02 Z" fill="#000000" fill-rule="nonzero" fill-opacity="1" /><path clip-path="url(#clip230)" d="M810.179 1447.17 L796.955 1460.45 L810.179 1473.68 L806.735 1477.18 L793.454 1463.9 L780.173 1477.18 L776.759 1473.68 L789.953 1460.45 L776.759 1447.17 L780.173 1443.67 L793.454 1456.95 L806.735 1443.67 L810.179 1447.17 Z" fill="#000000" fill-rule="nonzero" fill-opacity="1" /><path clip-path="url(#clip230)" d="M825.63 1474.08 L835.179 1474.08 L835.179 1441.12 L824.791 1443.21 L824.791 1437.88 L835.121 1435.8 L840.966 1435.8 L840.966 1474.08 L850.514 1474.08 L850.514 1479 L825.63 1479 L825.63 1474.08 Z" fill="#000000" fill-rule="nonzero" fill-opacity="1" /><path clip-path="url(#clip230)" d="M874.82 1439.65 Q870.306 1439.65 868.02 1444.11 Q865.763 1448.53 865.763 1457.44 Q865.763 1466.33 868.02 1470.78 Q870.306 1475.21 874.82 1475.21 Q879.362 1475.21 881.619 1470.78 Q883.905 1466.33 883.905 1457.44 Q883.905 1448.53 881.619 1444.11 Q879.362 1439.65 874.82 1439.65 M874.82 1435.02 Q882.082 1435.02 885.902 1440.78 Q889.75 1446.51 889.75 1457.44 Q889.75 1468.35 885.902 1474.11 Q882.082 1479.84 874.82 1479.84 Q867.557 1479.84 863.709 1474.11 Q859.889 1468.35 859.889 1457.44 Q859.889 1446.51 863.709 1440.78 Q867.557 1435.02 874.82 1435.02 Z" fill="#000000" fill-rule="nonzero" fill-opacity="1" /><path clip-path="url(#clip230)" d="M905.619 1425.81 Q909.028 1426.54 910.932 1428.85 Q912.86 1431.15 912.86 1434.53 Q912.86 1439.73 909.287 1442.57 Q905.713 1445.42 899.13 1445.42 Q896.921 1445.42 894.57 1444.97 Q892.242 1444.55 889.75 1443.68 L889.75 1439.1 Q891.725 1440.25 894.076 1440.84 Q896.427 1441.42 898.989 1441.42 Q903.456 1441.42 905.784 1439.66 Q908.135 1437.9 908.135 1434.53 Q908.135 1431.43 905.948 1429.69 Q903.785 1427.93 899.906 1427.93 L895.816 1427.93 L895.816 1424.03 L900.094 1424.03 Q903.597 1424.03 905.455 1422.64 Q907.312 1421.23 907.312 1418.6 Q907.312 1415.89 905.384 1414.46 Q903.48 1413 899.906 1413 Q897.955 1413 895.722 1413.42 Q893.488 1413.85 890.808 1414.74 L890.808 1410.51 Q893.512 1409.76 895.863 1409.38 Q898.237 1409 900.329 1409 Q905.737 1409 908.887 1411.47 Q912.037 1413.92 912.037 1418.1 Q912.037 1421.02 910.368 1423.04 Q908.699 1425.04 905.619 1425.81 Z" fill="#000000" fill-rule="nonzero" fill-opacity="1" /><path clip-path="url(#clip230)" d="M982.335 1474.08 L991.883 1474.08 L991.883 1441.12 L981.496 1443.21 L981.496 1437.88 L991.825 1435.8 L997.67 1435.8 L997.67 1474.08 L1007.22 1474.08 L1007.22 1479 L982.335 1479 L982.335 1474.08 Z" fill="#000000" fill-rule="nonzero" fill-opacity="1" /><path clip-path="url(#clip230)" d="M1019.02 1471.65 L1025.13 1471.65 L1025.13 1479 L1019.02 1479 L1019.02 1471.65 Z" fill="#000000" fill-rule="nonzero" fill-opacity="1" /><path clip-path="url(#clip230)" d="M1050.36 1439.65 Q1045.85 1439.65 1043.56 1444.11 Q1041.3 1448.53 1041.3 1457.44 Q1041.3 1466.33 1043.56 1470.78 Q1045.85 1475.21 1050.36 1475.21 Q1054.9 1475.21 1057.16 1470.78 Q1059.45 1466.33 1059.45 1457.44 Q1059.45 1448.53 1057.16 1444.11 Q1054.9 1439.65 1050.36 1439.65 M1050.36 1435.02 Q1057.62 1435.02 1061.44 1440.78 Q1065.29 1446.51 1065.29 1457.44 Q1065.29 1468.35 1061.44 1474.11 Q1057.62 1479.84 1050.36 1479.84 Q1043.1 1479.84 1039.25 1474.11 Q1035.43 1468.35 1035.43 1457.44 Q1035.43 1446.51 1039.25 1440.78 Q1043.1 1435.02 1050.36 1435.02 Z" fill="#000000" fill-rule="nonzero" fill-opacity="1" /><path clip-path="url(#clip230)" d="M1088.06 1439.65 Q1083.55 1439.65 1081.26 1444.11 Q1079.01 1448.53 1079.01 1457.44 Q1079.01 1466.33 1081.26 1470.78 Q1083.55 1475.21 1088.06 1475.21 Q1092.61 1475.21 1094.86 1470.78 Q1097.15 1466.33 1097.15 1457.44 Q1097.15 1448.53 1094.86 1444.11 Q1092.61 1439.65 1088.06 1439.65 M1088.06 1435.02 Q1095.33 1435.02 1099.15 1440.78 Q1102.99 1446.51 1102.99 1457.44 Q1102.99 1468.35 1099.15 1474.11 Q1095.33 1479.84 1088.06 1479.84 Q1080.8 1479.84 1076.95 1474.11 Q1073.13 1468.35 1073.13 1457.44 Q1073.13 1446.51 1076.95 1440.78 Q1080.8 1435.02 1088.06 1435.02 Z" fill="#000000" fill-rule="nonzero" fill-opacity="1" /><path clip-path="url(#clip230)" d="M1148.48 1447.17 L1135.26 1460.45 L1148.48 1473.68 L1145.04 1477.18 L1131.76 1463.9 L1118.47 1477.18 L1115.06 1473.68 L1128.25 1460.45 L1115.06 1447.17 L1118.47 1443.67 L1131.76 1456.95 L1145.04 1443.67 L1148.48 1447.17 Z" fill="#000000" fill-rule="nonzero" fill-opacity="1" /><path clip-path="url(#clip230)" d="M1163.93 1474.08 L1173.48 1474.08 L1173.48 1441.12 L1163.09 1443.21 L1163.09 1437.88 L1173.42 1435.8 L1179.27 1435.8 L1179.27 1474.08 L1188.82 1474.08 L1188.82 1479 L1163.93 1479 L1163.93 1474.08 Z" fill="#000000" fill-rule="nonzero" fill-opacity="1" /><path clip-path="url(#clip230)" d="M1213.12 1439.65 Q1208.61 1439.65 1206.32 1444.11 Q1204.06 1448.53 1204.06 1457.44 Q1204.06 1466.33 1206.32 1470.78 Q1208.61 1475.21 1213.12 1475.21 Q1217.66 1475.21 1219.92 1470.78 Q1222.21 1466.33 1222.21 1457.44 Q1222.21 1448.53 1219.92 1444.11 Q1217.66 1439.65 1213.12 1439.65 M1213.12 1435.02 Q1220.38 1435.02 1224.2 1440.78 Q1228.05 1446.51 1228.05 1457.44 Q1228.05 1468.35 1224.2 1474.11 Q1220.38 1479.84 1213.12 1479.84 Q1205.86 1479.84 1202.01 1474.11 Q1198.19 1468.35 1198.19 1457.44 Q1198.19 1446.51 1202.01 1440.78 Q1205.86 1435.02 1213.12 1435.02 Z" fill="#000000" fill-rule="nonzero" fill-opacity="1" /><path clip-path="url(#clip230)" d="M1243.9 1413.78 L1231.91 1432.51 L1243.9 1432.51 L1243.9 1413.78 M1242.65 1409.64 L1248.62 1409.64 L1248.62 1432.51 L1253.63 1432.51 L1253.63 1436.46 L1248.62 1436.46 L1248.62 1444.74 L1243.9 1444.74 L1243.9 1436.46 L1228.05 1436.46 L1228.05 1431.88 L1242.65 1409.64 Z" fill="#000000" fill-rule="nonzero" fill-opacity="1" /><path clip-path="url(#clip230)" d="M1322.84 1474.08 L1332.39 1474.08 L1332.39 1441.12 L1322 1443.21 L1322 1437.88 L1332.33 1435.8 L1338.17 1435.8 L1338.17 1474.08 L1347.72 1474.08 L1347.72 1479 L1322.84 1479 L1322.84 1474.08 Z" fill="#000000" fill-rule="nonzero" fill-opacity="1" /><path clip-path="url(#clip230)" d="M1359.53 1471.65 L1365.63 1471.65 L1365.63 1479 L1359.53 1479 L1359.53 1471.65 Z" fill="#000000" fill-rule="nonzero" fill-opacity="1" /><path clip-path="url(#clip230)" d="M1378.42 1435.8 L1401.37 1435.8 L1401.37 1440.72 L1383.78 1440.72 L1383.78 1451.31 Q1385.05 1450.88 1386.32 1450.67 Q1387.6 1450.44 1388.87 1450.44 Q1396.1 1450.44 1400.33 1454.41 Q1404.55 1458.37 1404.55 1465.14 Q1404.55 1472.11 1400.21 1475.99 Q1395.87 1479.84 1387.97 1479.84 Q1385.25 1479.84 1382.42 1479.38 Q1379.61 1478.91 1376.6 1477.99 L1376.6 1472.11 Q1379.2 1473.53 1381.98 1474.23 Q1384.76 1474.92 1387.86 1474.92 Q1392.86 1474.92 1395.78 1472.29 Q1398.71 1469.65 1398.71 1465.14 Q1398.71 1460.63 1395.78 1457.99 Q1392.86 1455.36 1387.86 1455.36 Q1385.51 1455.36 1383.17 1455.88 Q1380.85 1456.4 1378.42 1457.5 L1378.42 1435.8 Z" fill="#000000" fill-rule="nonzero" fill-opacity="1" /><path clip-path="url(#clip230)" d="M1428.57 1439.65 Q1424.05 1439.65 1421.77 1444.11 Q1419.51 1448.53 1419.51 1457.44 Q1419.51 1466.33 1421.77 1470.78 Q1424.05 1475.21 1428.57 1475.21 Q1433.11 1475.21 1435.37 1470.78 Q1437.65 1466.33 1437.65 1457.44 Q1437.65 1448.53 1435.37 1444.11 Q1433.11 1439.65 1428.57 1439.65 M1428.57 1435.02 Q1435.83 1435.02 1439.65 1440.78 Q1443.5 1446.51 1443.5 1457.44 Q1443.5 1468.35 1439.65 1474.11 Q1435.83 1479.84 1428.57 1479.84 Q1421.3 1479.84 1417.46 1474.11 Q1413.64 1468.35 1413.64 1457.44 Q1413.64 1446.51 1417.46 1440.78 Q1421.3 1435.02 1428.57 1435.02 Z" fill="#000000" fill-rule="nonzero" fill-opacity="1" /><path clip-path="url(#clip230)" d="M1488.98 1447.17 L1475.76 1460.45 L1488.98 1473.68 L1485.54 1477.18 L1472.26 1463.9 L1458.98 1477.18 L1455.56 1473.68 L1468.76 1460.45 L1455.56 1447.17 L1458.98 1443.67 L1472.26 1456.95 L1485.54 1443.67 L1488.98 1447.17 Z" fill="#000000" fill-rule="nonzero" fill-opacity="1" /><path clip-path="url(#clip230)" d="M1504.44 1474.08 L1513.98 1474.08 L1513.98 1441.12 L1503.6 1443.21 L1503.6 1437.88 L1513.93 1435.8 L1519.77 1435.8 L1519.77 1474.08 L1529.32 1474.08 L1529.32 1479 L1504.44 1479 L1504.44 1474.08 Z" fill="#000000" fill-rule="nonzero" fill-opacity="1" /><path clip-path="url(#clip230)" d="M1553.62 1439.65 Q1549.11 1439.65 1546.83 1444.11 Q1544.57 1448.53 1544.57 1457.44 Q1544.57 1466.33 1546.83 1470.78 Q1549.11 1475.21 1553.62 1475.21 Q1558.17 1475.21 1560.42 1470.78 Q1562.71 1466.33 1562.71 1457.44 Q1562.71 1448.53 1560.42 1444.11 Q1558.17 1439.65 1553.62 1439.65 M1553.62 1435.02 Q1560.89 1435.02 1564.71 1440.78 Q1568.56 1446.51 1568.56 1457.44 Q1568.56 1468.35 1564.71 1474.11 Q1560.89 1479.84 1553.62 1479.84 Q1546.36 1479.84 1542.51 1474.11 Q1538.69 1468.35 1538.69 1457.44 Q1538.69 1446.51 1542.51 1440.78 Q1546.36 1435.02 1553.62 1435.02 Z" fill="#000000" fill-rule="nonzero" fill-opacity="1" /><path clip-path="url(#clip230)" d="M1584.4 1413.78 L1572.41 1432.51 L1584.4 1432.51 L1584.4 1413.78 M1583.15 1409.64 L1589.13 1409.64 L1589.13 1432.51 L1594.13 1432.51 L1594.13 1436.46 L1589.13 1436.46 L1589.13 1444.74 L1584.4 1444.74 L1584.4 1436.46 L1568.56 1436.46 L1568.56 1431.88 L1583.15 1409.64 Z" fill="#000000" fill-rule="nonzero" fill-opacity="1" /><path clip-path="url(#clip230)" d="M1668.45 1474.08 L1688.85 1474.08 L1688.85 1479 L1661.42 1479 L1661.42 1474.08 Q1664.75 1470.64 1670.48 1464.85 Q1676.23 1459.04 1677.71 1457.36 Q1680.52 1454.2 1681.62 1452.03 Q1682.74 1449.83 1682.74 1447.72 Q1682.74 1444.28 1680.31 1442.11 Q1677.91 1439.94 1674.03 1439.94 Q1671.29 1439.94 1668.22 1440.89 Q1665.18 1441.85 1661.71 1443.79 L1661.71 1437.88 Q1665.24 1436.47 1668.31 1435.74 Q1671.37 1435.02 1673.92 1435.02 Q1680.63 1435.02 1684.63 1438.38 Q1688.62 1441.73 1688.62 1447.35 Q1688.62 1450.01 1687.61 1452.41 Q1686.62 1454.78 1683.99 1458.02 Q1683.27 1458.86 1679.39 1462.88 Q1675.51 1466.88 1668.45 1474.08 Z" fill="#000000" fill-rule="nonzero" fill-opacity="1" /><path clip-path="url(#clip230)" d="M1701.12 1471.65 L1707.22 1471.65 L1707.22 1479 L1701.12 1479 L1701.12 1471.65 Z" fill="#000000" fill-rule="nonzero" fill-opacity="1" /><path clip-path="url(#clip230)" d="M1732.45 1439.65 Q1727.94 1439.65 1725.66 1444.11 Q1723.4 1448.53 1723.4 1457.44 Q1723.4 1466.33 1725.66 1470.78 Q1727.94 1475.21 1732.45 1475.21 Q1737 1475.21 1739.25 1470.78 Q1741.54 1466.33 1741.54 1457.44 Q1741.54 1448.53 1739.25 1444.11 Q1737 1439.65 1732.45 1439.65 M1732.45 1435.02 Q1739.72 1435.02 1743.54 1440.78 Q1747.39 1446.51 1747.39 1457.44 Q1747.39 1468.35 1743.54 1474.11 Q1739.72 1479.84 1732.45 1479.84 Q1725.19 1479.84 1721.34 1474.11 Q1717.52 1468.35 1717.52 1457.44 Q1717.52 1446.51 1721.34 1440.78 Q1725.19 1435.02 1732.45 1435.02 Z" fill="#000000" fill-rule="nonzero" fill-opacity="1" /><path clip-path="url(#clip230)" d="M1770.16 1439.65 Q1765.64 1439.65 1763.36 1444.11 Q1761.1 1448.53 1761.1 1457.44 Q1761.1 1466.33 1763.36 1470.78 Q1765.64 1475.21 1770.16 1475.21 Q1774.7 1475.21 1776.96 1470.78 Q1779.24 1466.33 1779.24 1457.44 Q1779.24 1448.53 1776.96 1444.11 Q1774.7 1439.65 1770.16 1439.65 M1770.16 1435.02 Q1777.42 1435.02 1781.24 1440.78 Q1785.09 1446.51 1785.09 1457.44 Q1785.09 1468.35 1781.24 1474.11 Q1777.42 1479.84 1770.16 1479.84 Q1762.89 1479.84 1759.05 1474.11 Q1755.23 1468.35 1755.23 1457.44 Q1755.23 1446.51 1759.05 1440.78 Q1762.89 1435.02 1770.16 1435.02 Z" fill="#000000" fill-rule="nonzero" fill-opacity="1" /><path clip-path="url(#clip230)" d="M1830.57 1447.17 L1817.35 1460.45 L1830.57 1473.68 L1827.13 1477.18 L1813.85 1463.9 L1800.57 1477.18 L1797.15 1473.68 L1810.35 1460.45 L1797.15 1447.17 L1800.57 1443.67 L1813.85 1456.95 L1827.13 1443.67 L1830.57 1447.17 Z" fill="#000000" fill-rule="nonzero" fill-opacity="1" /><path clip-path="url(#clip230)" d="M1846.02 1474.08 L1855.57 1474.08 L1855.57 1441.12 L1845.19 1443.21 L1845.19 1437.88 L1855.52 1435.8 L1861.36 1435.8 L1861.36 1474.08 L1870.91 1474.08 L1870.91 1479 L1846.02 1479 L1846.02 1474.08 Z" fill="#000000" fill-rule="nonzero" fill-opacity="1" /><path clip-path="url(#clip230)" d="M1895.21 1439.65 Q1890.7 1439.65 1888.41 1444.11 Q1886.16 1448.53 1886.16 1457.44 Q1886.16 1466.33 1888.41 1470.78 Q1890.7 1475.21 1895.21 1475.21 Q1899.76 1475.21 1902.01 1470.78 Q1904.3 1466.33 1904.3 1457.44 Q1904.3 1448.53 1902.01 1444.11 Q1899.76 1439.65 1895.21 1439.65 M1895.21 1435.02 Q1902.48 1435.02 1906.3 1440.78 Q1910.14 1446.51 1910.14 1457.44 Q1910.14 1468.35 1906.3 1474.11 Q1902.48 1479.84 1895.21 1479.84 Q1887.95 1479.84 1884.1 1474.11 Q1880.28 1468.35 1880.28 1457.44 Q1880.28 1446.51 1884.1 1440.78 Q1887.95 1435.02 1895.21 1435.02 Z" fill="#000000" fill-rule="nonzero" fill-opacity="1" /><path clip-path="url(#clip230)" d="M1925.99 1413.78 L1914 1432.51 L1925.99 1432.51 L1925.99 1413.78 M1924.74 1409.64 L1930.72 1409.64 L1930.72 1432.51 L1935.72 1432.51 L1935.72 1436.46 L1930.72 1436.46 L1930.72 1444.74 L1925.99 1444.74 L1925.99 1436.46 L1910.14 1436.46 L1910.14 1431.88 L1924.74 1409.64 Z" fill="#000000" fill-rule="nonzero" fill-opacity="1" /><path clip-path="url(#clip230)" d="M2008.95 1474.08 L2029.35 1474.08 L2029.35 1479 L2001.92 1479 L2001.92 1474.08 Q2005.25 1470.64 2010.98 1464.85 Q2016.74 1459.04 2018.21 1457.36 Q2021.02 1454.2 2022.12 1452.03 Q2023.25 1449.83 2023.25 1447.72 Q2023.25 1444.28 2020.82 1442.11 Q2018.42 1439.94 2014.54 1439.94 Q2011.79 1439.94 2008.72 1440.89 Q2005.69 1441.85 2002.21 1443.79 L2002.21 1437.88 Q2005.74 1436.47 2008.81 1435.74 Q2011.88 1435.02 2014.42 1435.02 Q2021.14 1435.02 2025.13 1438.38 Q2029.12 1441.73 2029.12 1447.35 Q2029.12 1450.01 2028.11 1452.41 Q2027.13 1454.78 2024.49 1458.02 Q2023.77 1458.86 2019.89 1462.88 Q2016.02 1466.88 2008.95 1474.08 Z" fill="#000000" fill-rule="nonzero" fill-opacity="1" /><path clip-path="url(#clip230)" d="M2041.62 1471.65 L2047.73 1471.65 L2047.73 1479 L2041.62 1479 L2041.62 1471.65 Z" fill="#000000" fill-rule="nonzero" fill-opacity="1" /><path clip-path="url(#clip230)" d="M2060.52 1435.8 L2083.46 1435.8 L2083.46 1440.72 L2065.87 1440.72 L2065.87 1451.31 Q2067.14 1450.88 2068.42 1450.67 Q2069.69 1450.44 2070.96 1450.44 Q2078.2 1450.44 2082.42 1454.41 Q2086.65 1458.37 2086.65 1465.14 Q2086.65 1472.11 2082.31 1475.99 Q2077.96 1479.84 2070.07 1479.84 Q2067.35 1479.84 2064.51 1479.38 Q2061.7 1478.91 2058.69 1477.99 L2058.69 1472.11 Q2061.3 1473.53 2064.08 1474.23 Q2066.85 1474.92 2069.95 1474.92 Q2074.96 1474.92 2077.88 1472.29 Q2080.8 1469.65 2080.8 1465.14 Q2080.8 1460.63 2077.88 1457.99 Q2074.96 1455.36 2069.95 1455.36 Q2067.61 1455.36 2065.26 1455.88 Q2062.95 1456.4 2060.52 1457.5 L2060.52 1435.8 Z" fill="#000000" fill-rule="nonzero" fill-opacity="1" /><path clip-path="url(#clip230)" d="M2110.66 1439.65 Q2106.15 1439.65 2103.86 1444.11 Q2101.6 1448.53 2101.6 1457.44 Q2101.6 1466.33 2103.86 1470.78 Q2106.15 1475.21 2110.66 1475.21 Q2115.2 1475.21 2117.46 1470.78 Q2119.75 1466.33 2119.75 1457.44 Q2119.75 1448.53 2117.46 1444.11 Q2115.2 1439.65 2110.66 1439.65 M2110.66 1435.02 Q2117.92 1435.02 2121.74 1440.78 Q2125.59 1446.51 2125.59 1457.44 Q2125.59 1468.35 2121.74 1474.11 Q2117.92 1479.84 2110.66 1479.84 Q2103.4 1479.84 2099.55 1474.11 Q2095.73 1468.35 2095.73 1457.44 Q2095.73 1446.51 2099.55 1440.78 Q2103.4 1435.02 2110.66 1435.02 Z" fill="#000000" fill-rule="nonzero" fill-opacity="1" /><path clip-path="url(#clip230)" d="M2171.08 1447.17 L2157.85 1460.45 L2171.08 1473.68 L2167.63 1477.18 L2154.35 1463.9 L2141.07 1477.18 L2137.66 1473.68 L2150.85 1460.45 L2137.66 1447.17 L2141.07 1443.67 L2154.35 1456.95 L2167.63 1443.67 L2171.08 1447.17 Z" fill="#000000" fill-rule="nonzero" fill-opacity="1" /><path clip-path="url(#clip230)" d="M2186.53 1474.08 L2196.08 1474.08 L2196.08 1441.12 L2185.69 1443.21 L2185.69 1437.88 L2196.02 1435.8 L2201.86 1435.8 L2201.86 1474.08 L2211.41 1474.08 L2211.41 1479 L2186.53 1479 L2186.53 1474.08 Z" fill="#000000" fill-rule="nonzero" fill-opacity="1" /><path clip-path="url(#clip230)" d="M2235.72 1439.65 Q2231.2 1439.65 2228.92 1444.11 Q2226.66 1448.53 2226.66 1457.44 Q2226.66 1466.33 2228.92 1470.78 Q2231.2 1475.21 2235.72 1475.21 Q2240.26 1475.21 2242.52 1470.78 Q2244.8 1466.33 2244.8 1457.44 Q2244.8 1448.53 2242.52 1444.11 Q2240.26 1439.65 2235.72 1439.65 M2235.72 1435.02 Q2242.98 1435.02 2246.8 1440.78 Q2250.65 1446.51 2250.65 1457.44 Q2250.65 1468.35 2246.8 1474.11 Q2242.98 1479.84 2235.72 1479.84 Q2228.46 1479.84 2224.61 1474.11 Q2220.79 1468.35 2220.79 1457.44 Q2220.79 1446.51 2224.61 1440.78 Q2228.46 1435.02 2235.72 1435.02 Z" fill="#000000" fill-rule="nonzero" fill-opacity="1" /><path clip-path="url(#clip230)" d="M2266.49 1413.78 L2254.5 1432.51 L2266.49 1432.51 L2266.49 1413.78 M2265.25 1409.64 L2271.22 1409.64 L2271.22 1432.51 L2276.23 1432.51 L2276.23 1436.46 L2271.22 1436.46 L2271.22 1444.74 L2266.49 1444.74 L2266.49 1436.46 L2250.65 1436.46 L2250.65 1431.88 L2265.25 1409.64 Z" fill="#000000" fill-rule="nonzero" fill-opacity="1" /><path clip-path="url(#clip230)" d="M749.585 1524.14 L749.585 1532.12 Q744.927 1529.89 740.795 1528.8 Q736.663 1527.7 732.814 1527.7 Q726.13 1527.7 722.485 1530.3 Q718.879 1532.89 718.879 1537.67 Q718.879 1541.68 721.269 1543.74 Q723.7 1545.77 730.424 1547.03 L735.366 1548.04 Q744.521 1549.78 748.856 1554.2 Q753.231 1558.57 753.231 1565.94 Q753.231 1574.73 747.317 1579.27 Q741.443 1583.81 730.06 1583.81 Q725.766 1583.81 720.905 1582.84 Q716.084 1581.86 710.899 1579.96 L710.899 1571.53 Q715.882 1574.33 720.662 1575.75 Q725.442 1577.16 730.06 1577.16 Q737.068 1577.16 740.876 1574.41 Q744.683 1571.65 744.683 1566.55 Q744.683 1562.09 741.929 1559.58 Q739.215 1557.07 732.976 1555.82 L727.994 1554.84 Q718.839 1553.02 714.747 1549.13 Q710.656 1545.24 710.656 1538.32 Q710.656 1530.3 716.287 1525.68 Q721.958 1521.06 731.883 1521.06 Q736.136 1521.06 740.552 1521.83 Q744.967 1522.6 749.585 1524.14 Z" fill="#000000" fill-rule="nonzero" fill-opacity="1" /><path clip-path="url(#clip230)" d="M783.248 1542.49 Q777.253 1542.49 773.769 1547.19 Q770.285 1551.85 770.285 1559.99 Q770.285 1568.13 773.728 1572.83 Q777.212 1577.49 783.248 1577.49 Q789.203 1577.49 792.687 1572.79 Q796.17 1568.09 796.17 1559.99 Q796.17 1551.93 792.687 1547.23 Q789.203 1542.49 783.248 1542.49 M783.248 1536.17 Q792.97 1536.17 798.52 1542.49 Q804.07 1548.81 804.07 1559.99 Q804.07 1571.13 798.52 1577.49 Q792.97 1583.81 783.248 1583.81 Q773.485 1583.81 767.936 1577.49 Q762.426 1571.13 762.426 1559.99 Q762.426 1548.81 767.936 1542.49 Q773.485 1536.17 783.248 1536.17 Z" fill="#000000" fill-rule="nonzero" fill-opacity="1" /><path clip-path="url(#clip230)" d="M816.425 1519.6 L823.879 1519.6 L823.879 1582.63 L816.425 1582.63 L816.425 1519.6 Z" fill="#000000" fill-rule="nonzero" fill-opacity="1" /><path clip-path="url(#clip230)" d="M860.094 1559.83 Q851.06 1559.83 847.576 1561.89 Q844.093 1563.96 844.093 1568.94 Q844.093 1572.91 846.685 1575.26 Q849.318 1577.57 853.815 1577.57 Q860.013 1577.57 863.74 1573.19 Q867.507 1568.78 867.507 1561.49 L867.507 1559.83 L860.094 1559.83 M874.961 1556.75 L874.961 1582.63 L867.507 1582.63 L867.507 1575.75 Q864.955 1579.88 861.147 1581.86 Q857.339 1583.81 851.83 1583.81 Q844.862 1583.81 840.73 1579.92 Q836.639 1575.99 836.639 1569.43 Q836.639 1561.77 841.743 1557.88 Q846.888 1553.99 857.056 1553.99 L867.507 1553.99 L867.507 1553.26 Q867.507 1548.12 864.104 1545.32 Q860.742 1542.49 854.625 1542.49 Q850.736 1542.49 847.05 1543.42 Q843.364 1544.35 839.961 1546.22 L839.961 1539.33 Q844.052 1537.75 847.901 1536.98 Q851.749 1536.17 855.395 1536.17 Q865.238 1536.17 870.099 1541.27 Q874.961 1546.38 874.961 1556.75 Z" fill="#000000" fill-rule="nonzero" fill-opacity="1" /><path clip-path="url(#clip230)" d="M916.604 1544.23 Q915.348 1543.5 913.849 1543.18 Q912.391 1542.81 910.609 1542.81 Q904.289 1542.81 900.886 1546.94 Q897.524 1551.04 897.524 1558.73 L897.524 1582.63 L890.03 1582.63 L890.03 1537.26 L897.524 1537.26 L897.524 1544.31 Q899.874 1540.18 903.641 1538.19 Q907.408 1536.17 912.796 1536.17 Q913.566 1536.17 914.497 1536.29 Q915.429 1536.37 916.563 1536.57 L916.604 1544.23 Z" fill="#000000" fill-rule="nonzero" fill-opacity="1" /><path clip-path="url(#clip230)" d="M958.004 1575.83 L958.004 1599.89 L950.51 1599.89 L950.51 1537.26 L958.004 1537.26 L958.004 1544.15 Q960.354 1540.1 963.918 1538.15 Q967.524 1536.17 972.506 1536.17 Q980.77 1536.17 985.915 1542.73 Q991.1 1549.29 991.1 1559.99 Q991.1 1570.68 985.915 1577.25 Q980.77 1583.81 972.506 1583.81 Q967.524 1583.81 963.918 1581.86 Q960.354 1579.88 958.004 1575.83 M983.363 1559.99 Q983.363 1551.76 979.96 1547.11 Q976.598 1542.41 970.683 1542.41 Q964.769 1542.41 961.366 1547.11 Q958.004 1551.76 958.004 1559.99 Q958.004 1568.21 961.366 1572.91 Q964.769 1577.57 970.683 1577.57 Q976.598 1577.57 979.96 1572.91 Q983.363 1568.21 983.363 1559.99 Z" fill="#000000" fill-rule="nonzero" fill-opacity="1" /><path clip-path="url(#clip230)" d="M1021.04 1542.49 Q1015.04 1542.49 1011.56 1547.19 Q1008.07 1551.85 1008.07 1559.99 Q1008.07 1568.13 1011.52 1572.83 Q1015 1577.49 1021.04 1577.49 Q1026.99 1577.49 1030.47 1572.79 Q1033.96 1568.09 1033.96 1559.99 Q1033.96 1551.93 1030.47 1547.23 Q1026.99 1542.49 1021.04 1542.49 M1021.04 1536.17 Q1030.76 1536.17 1036.31 1542.49 Q1041.86 1548.81 1041.86 1559.99 Q1041.86 1571.13 1036.31 1577.49 Q1030.76 1583.81 1021.04 1583.81 Q1011.27 1583.81 1005.72 1577.49 Q1000.21 1571.13 1000.21 1559.99 Q1000.21 1548.81 1005.72 1542.49 Q1011.27 1536.17 1021.04 1536.17 Z" fill="#000000" fill-rule="nonzero" fill-opacity="1" /><path clip-path="url(#clip230)" d="M1049.88 1537.26 L1057.33 1537.26 L1066.65 1572.67 L1075.93 1537.26 L1084.72 1537.26 L1094.03 1572.67 L1103.31 1537.26 L1110.76 1537.26 L1098.89 1582.63 L1090.1 1582.63 L1080.34 1545.45 L1070.54 1582.63 L1061.75 1582.63 L1049.88 1537.26 Z" fill="#000000" fill-rule="nonzero" fill-opacity="1" /><path clip-path="url(#clip230)" d="M1160.87 1558.08 L1160.87 1561.73 L1126.6 1561.73 Q1127.09 1569.43 1131.22 1573.48 Q1135.39 1577.49 1142.81 1577.49 Q1147.1 1577.49 1151.11 1576.43 Q1155.16 1575.38 1159.13 1573.28 L1159.13 1580.32 Q1155.12 1582.03 1150.91 1582.92 Q1146.7 1583.81 1142.36 1583.81 Q1131.5 1583.81 1125.14 1577.49 Q1118.83 1571.17 1118.83 1560.39 Q1118.83 1549.25 1124.82 1542.73 Q1130.86 1536.17 1141.06 1536.17 Q1150.22 1536.17 1155.53 1542.08 Q1160.87 1547.96 1160.87 1558.08 M1153.42 1555.9 Q1153.34 1549.78 1149.98 1546.13 Q1146.65 1542.49 1141.15 1542.49 Q1134.91 1542.49 1131.14 1546.01 Q1127.41 1549.54 1126.85 1555.94 L1153.42 1555.9 Z" fill="#000000" fill-rule="nonzero" fill-opacity="1" /><path clip-path="url(#clip230)" d="M1199.4 1544.23 Q1198.14 1543.5 1196.64 1543.18 Q1195.18 1542.81 1193.4 1542.81 Q1187.08 1542.81 1183.68 1546.94 Q1180.32 1551.04 1180.32 1558.73 L1180.32 1582.63 L1172.82 1582.63 L1172.82 1537.26 L1180.32 1537.26 L1180.32 1544.31 Q1182.67 1540.18 1186.43 1538.19 Q1190.2 1536.17 1195.59 1536.17 Q1196.36 1536.17 1197.29 1536.29 Q1198.22 1536.37 1199.36 1536.57 L1199.4 1544.23 Z" fill="#000000" fill-rule="nonzero" fill-opacity="1" /><path clip-path="url(#clip230)" d="M1263.44 1559.42 Q1263.44 1551.32 1260.08 1546.86 Q1256.76 1542.41 1250.72 1542.41 Q1244.73 1542.41 1241.36 1546.86 Q1238.04 1551.32 1238.04 1559.42 Q1238.04 1567.48 1241.36 1571.94 Q1244.73 1576.39 1250.72 1576.39 Q1256.76 1576.39 1260.08 1571.94 Q1263.44 1567.48 1263.44 1559.42 M1270.9 1577 Q1270.9 1588.59 1265.75 1594.22 Q1260.61 1599.89 1249.99 1599.89 Q1246.06 1599.89 1242.58 1599.28 Q1239.1 1598.71 1235.82 1597.5 L1235.82 1590.25 Q1239.1 1592.03 1242.3 1592.88 Q1245.5 1593.73 1248.82 1593.73 Q1256.15 1593.73 1259.8 1589.88 Q1263.44 1586.08 1263.44 1578.34 L1263.44 1574.65 Q1261.13 1578.66 1257.53 1580.65 Q1253.92 1582.63 1248.9 1582.63 Q1240.55 1582.63 1235.45 1576.27 Q1230.35 1569.91 1230.35 1559.42 Q1230.35 1548.89 1235.45 1542.53 Q1240.55 1536.17 1248.9 1536.17 Q1253.92 1536.17 1257.53 1538.15 Q1261.13 1540.14 1263.44 1544.15 L1263.44 1537.26 L1270.9 1537.26 L1270.9 1577 Z" fill="#000000" fill-rule="nonzero" fill-opacity="1" /><path clip-path="url(#clip230)" d="M1325.06 1558.08 L1325.06 1561.73 L1290.79 1561.73 Q1291.27 1569.43 1295.4 1573.48 Q1299.58 1577.49 1306.99 1577.49 Q1311.28 1577.49 1315.29 1576.43 Q1319.34 1575.38 1323.31 1573.28 L1323.31 1580.32 Q1319.3 1582.03 1315.09 1582.92 Q1310.88 1583.81 1306.54 1583.81 Q1295.69 1583.81 1289.33 1577.49 Q1283.01 1571.17 1283.01 1560.39 Q1283.01 1549.25 1289 1542.73 Q1295.04 1536.17 1305.25 1536.17 Q1314.4 1536.17 1319.71 1542.08 Q1325.06 1547.96 1325.06 1558.08 M1317.6 1555.9 Q1317.52 1549.78 1314.16 1546.13 Q1310.84 1542.49 1305.33 1542.49 Q1299.09 1542.49 1295.32 1546.01 Q1291.6 1549.54 1291.03 1555.94 L1317.6 1555.9 Z" fill="#000000" fill-rule="nonzero" fill-opacity="1" /><path clip-path="url(#clip230)" d="M1375 1555.25 L1375 1582.63 L1367.55 1582.63 L1367.55 1555.49 Q1367.55 1549.05 1365.04 1545.85 Q1362.53 1542.65 1357.5 1542.65 Q1351.47 1542.65 1347.98 1546.5 Q1344.5 1550.35 1344.5 1556.99 L1344.5 1582.63 L1337.01 1582.63 L1337.01 1537.26 L1344.5 1537.26 L1344.5 1544.31 Q1347.17 1540.22 1350.78 1538.19 Q1354.43 1536.17 1359.17 1536.17 Q1366.98 1536.17 1370.99 1541.03 Q1375 1545.85 1375 1555.25 Z" fill="#000000" fill-rule="nonzero" fill-opacity="1" /><path clip-path="url(#clip230)" d="M1428.68 1558.08 L1428.68 1561.73 L1394.41 1561.73 Q1394.89 1569.43 1399.03 1573.48 Q1403.2 1577.49 1410.61 1577.49 Q1414.91 1577.49 1418.92 1576.43 Q1422.97 1575.38 1426.94 1573.28 L1426.94 1580.32 Q1422.93 1582.03 1418.71 1582.92 Q1414.5 1583.81 1410.17 1583.81 Q1399.31 1583.81 1392.95 1577.49 Q1386.63 1571.17 1386.63 1560.39 Q1386.63 1549.25 1392.63 1542.73 Q1398.66 1536.17 1408.87 1536.17 Q1418.02 1536.17 1423.33 1542.08 Q1428.68 1547.96 1428.68 1558.08 M1421.23 1555.9 Q1421.14 1549.78 1417.78 1546.13 Q1414.46 1542.49 1408.95 1542.49 Q1402.71 1542.49 1398.95 1546.01 Q1395.22 1549.54 1394.65 1555.94 L1421.23 1555.9 Z" fill="#000000" fill-rule="nonzero" fill-opacity="1" /><path clip-path="url(#clip230)" d="M1467.2 1544.23 Q1465.95 1543.5 1464.45 1543.18 Q1462.99 1542.81 1461.21 1542.81 Q1454.89 1542.81 1451.49 1546.94 Q1448.12 1551.04 1448.12 1558.73 L1448.12 1582.63 L1440.63 1582.63 L1440.63 1537.26 L1448.12 1537.26 L1448.12 1544.31 Q1450.47 1540.18 1454.24 1538.19 Q1458.01 1536.17 1463.39 1536.17 Q1464.16 1536.17 1465.1 1536.29 Q1466.03 1536.37 1467.16 1536.57 L1467.2 1544.23 Z" fill="#000000" fill-rule="nonzero" fill-opacity="1" /><path clip-path="url(#clip230)" d="M1495.64 1559.83 Q1486.61 1559.83 1483.12 1561.89 Q1479.64 1563.96 1479.64 1568.94 Q1479.64 1572.91 1482.23 1575.26 Q1484.86 1577.57 1489.36 1577.57 Q1495.56 1577.57 1499.29 1573.19 Q1503.05 1568.78 1503.05 1561.49 L1503.05 1559.83 L1495.64 1559.83 M1510.51 1556.75 L1510.51 1582.63 L1503.05 1582.63 L1503.05 1575.75 Q1500.5 1579.88 1496.69 1581.86 Q1492.89 1583.81 1487.38 1583.81 Q1480.41 1583.81 1476.28 1579.92 Q1472.19 1575.99 1472.19 1569.43 Q1472.19 1561.77 1477.29 1557.88 Q1482.43 1553.99 1492.6 1553.99 L1503.05 1553.99 L1503.05 1553.26 Q1503.05 1548.12 1499.65 1545.32 Q1496.29 1542.49 1490.17 1542.49 Q1486.28 1542.49 1482.6 1543.42 Q1478.91 1544.35 1475.51 1546.22 L1475.51 1539.33 Q1479.6 1537.75 1483.45 1536.98 Q1487.3 1536.17 1490.94 1536.17 Q1500.78 1536.17 1505.65 1541.27 Q1510.51 1546.38 1510.51 1556.75 Z" fill="#000000" fill-rule="nonzero" fill-opacity="1" /><path clip-path="url(#clip230)" d="M1533.23 1524.38 L1533.23 1537.26 L1548.59 1537.26 L1548.59 1543.06 L1533.23 1543.06 L1533.23 1567.69 Q1533.23 1573.23 1534.73 1574.81 Q1536.27 1576.39 1540.93 1576.39 L1548.59 1576.39 L1548.59 1582.63 L1540.93 1582.63 Q1532.3 1582.63 1529.02 1579.43 Q1525.74 1576.19 1525.74 1567.69 L1525.74 1543.06 L1520.27 1543.06 L1520.27 1537.26 L1525.74 1537.26 L1525.74 1524.38 L1533.23 1524.38 Z" fill="#000000" fill-rule="nonzero" fill-opacity="1" /><path clip-path="url(#clip230)" d="M1558.39 1537.26 L1565.84 1537.26 L1565.84 1582.63 L1558.39 1582.63 L1558.39 1537.26 M1558.39 1519.6 L1565.84 1519.6 L1565.84 1529.04 L1558.39 1529.04 L1558.39 1519.6 Z" fill="#000000" fill-rule="nonzero" fill-opacity="1" /><path clip-path="url(#clip230)" d="M1599.02 1542.49 Q1593.02 1542.49 1589.54 1547.19 Q1586.06 1551.85 1586.06 1559.99 Q1586.06 1568.13 1589.5 1572.83 Q1592.98 1577.49 1599.02 1577.49 Q1604.97 1577.49 1608.46 1572.79 Q1611.94 1568.09 1611.94 1559.99 Q1611.94 1551.93 1608.46 1547.23 Q1604.97 1542.49 1599.02 1542.49 M1599.02 1536.17 Q1608.74 1536.17 1614.29 1542.49 Q1619.84 1548.81 1619.84 1559.99 Q1619.84 1571.13 1614.29 1577.49 Q1608.74 1583.81 1599.02 1583.81 Q1589.26 1583.81 1583.71 1577.49 Q1578.2 1571.13 1578.2 1559.99 Q1578.2 1548.81 1583.71 1542.49 Q1589.26 1536.17 1599.02 1536.17 Z" fill="#000000" fill-rule="nonzero" fill-opacity="1" /><path clip-path="url(#clip230)" d="M1669.91 1555.25 L1669.91 1582.63 L1662.46 1582.63 L1662.46 1555.49 Q1662.46 1549.05 1659.94 1545.85 Q1657.43 1542.65 1652.41 1542.65 Q1646.37 1542.65 1642.89 1546.5 Q1639.41 1550.35 1639.41 1556.99 L1639.41 1582.63 L1631.91 1582.63 L1631.91 1537.26 L1639.41 1537.26 L1639.41 1544.31 Q1642.08 1540.22 1645.69 1538.19 Q1649.33 1536.17 1654.07 1536.17 Q1661.89 1536.17 1665.9 1541.03 Q1669.91 1545.85 1669.91 1555.25 Z" fill="#000000" fill-rule="nonzero" fill-opacity="1" /><path clip-path="url(#clip230)" d="M1729.05 1519.68 Q1723.63 1529 1720.99 1538.11 Q1718.36 1547.23 1718.36 1556.59 Q1718.36 1565.94 1720.99 1575.14 Q1723.67 1584.29 1729.05 1593.57 L1722.57 1593.57 Q1716.5 1584.05 1713.46 1574.86 Q1710.46 1565.66 1710.46 1556.59 Q1710.46 1547.55 1713.46 1538.4 Q1716.45 1529.24 1722.57 1519.68 L1729.05 1519.68 Z" fill="#000000" fill-rule="nonzero" fill-opacity="1" /><path clip-path="url(#clip230)" d="M1743.84 1522.15 L1756.03 1522.15 L1771.47 1563.31 L1786.98 1522.15 L1799.17 1522.15 L1799.17 1582.63 L1791.19 1582.63 L1791.19 1529.53 L1775.6 1571.01 L1767.37 1571.01 L1751.78 1529.53 L1751.78 1582.63 L1743.84 1582.63 L1743.84 1522.15 Z" fill="#000000" fill-rule="nonzero" fill-opacity="1" /><path clip-path="url(#clip230)" d="M1810.03 1522.15 L1818.29 1522.15 L1831.01 1573.28 L1843.69 1522.15 L1852.89 1522.15 L1865.61 1573.28 L1878.29 1522.15 L1886.59 1522.15 L1871.4 1582.63 L1861.11 1582.63 L1848.35 1530.13 L1835.47 1582.63 L1825.18 1582.63 L1810.03 1522.15 Z" fill="#000000" fill-rule="nonzero" fill-opacity="1" /><path clip-path="url(#clip230)" d="M1934.84 1555.25 L1934.84 1582.63 L1927.39 1582.63 L1927.39 1555.49 Q1927.39 1549.05 1924.87 1545.85 Q1922.36 1542.65 1917.34 1542.65 Q1911.3 1542.65 1907.82 1546.5 Q1904.34 1550.35 1904.34 1556.99 L1904.34 1582.63 L1896.84 1582.63 L1896.84 1519.6 L1904.34 1519.6 L1904.34 1544.31 Q1907.01 1540.22 1910.61 1538.19 Q1914.26 1536.17 1919 1536.17 Q1926.82 1536.17 1930.83 1541.03 Q1934.84 1545.85 1934.84 1555.25 Z" fill="#000000" fill-rule="nonzero" fill-opacity="1" /><path clip-path="url(#clip230)" d="M1948.53 1519.68 L1955.01 1519.68 Q1961.09 1529.24 1964.09 1538.4 Q1967.12 1547.55 1967.12 1556.59 Q1967.12 1565.66 1964.09 1574.86 Q1961.09 1584.05 1955.01 1593.57 L1948.53 1593.57 Q1953.92 1584.29 1956.55 1575.14 Q1959.23 1565.94 1959.23 1556.59 Q1959.23 1547.23 1956.55 1538.11 Q1953.92 1529 1948.53 1519.68 Z" fill="#000000" fill-rule="nonzero" fill-opacity="1" /><polyline clip-path="url(#clip232)" style="stroke:#000000; stroke-linecap:round; stroke-linejoin:round; stroke-width:2; stroke-opacity:0.1; fill:none" points="325.025,1386.23 2352.76,1386.23 "/>
<polyline clip-path="url(#clip232)" style="stroke:#000000; stroke-linecap:round; stroke-linejoin:round; stroke-width:2; stroke-opacity:0.1; fill:none" points="325.025,187.087 2352.76,187.087 "/>
<polyline clip-path="url(#clip230)" style="stroke:#000000; stroke-linecap:round; stroke-linejoin:round; stroke-width:4; stroke-opacity:1; fill:none" points="325.025,1386.23 325.025,47.2441 "/>
<polyline clip-path="url(#clip230)" style="stroke:#000000; stroke-linecap:round; stroke-linejoin:round; stroke-width:4; stroke-opacity:1; fill:none" points="325.025,1386.23 343.922,1386.23 "/>
<polyline clip-path="url(#clip230)" style="stroke:#000000; stroke-linecap:round; stroke-linejoin:round; stroke-width:4; stroke-opacity:1; fill:none" points="325.025,187.087 343.922,187.087 "/>
<path clip-path="url(#clip230)" d="M142.151 1368.47 Q137.637 1368.47 135.351 1372.93 Q133.094 1377.36 133.094 1386.27 Q133.094 1395.15 135.351 1399.61 Q137.637 1404.04 142.151 1404.04 Q146.693 1404.04 148.95 1399.61 Q151.236 1395.15 151.236 1386.27 Q151.236 1377.36 148.95 1372.93 Q146.693 1368.47 142.151 1368.47 M142.151 1363.84 Q149.413 1363.84 153.233 1369.6 Q157.081 1375.33 157.081 1386.27 Q157.081 1397.18 153.233 1402.94 Q149.413 1408.66 142.151 1408.66 Q134.888 1408.66 131.04 1402.94 Q127.22 1397.18 127.22 1386.27 Q127.22 1375.33 131.04 1369.6 Q134.888 1363.84 142.151 1363.84 Z" fill="#000000" fill-rule="nonzero" fill-opacity="1" /><path clip-path="url(#clip230)" d="M167.353 1400.48 L173.458 1400.48 L173.458 1407.83 L167.353 1407.83 L167.353 1400.48 Z" fill="#000000" fill-rule="nonzero" fill-opacity="1" /><path clip-path="url(#clip230)" d="M198.69 1368.47 Q194.176 1368.47 191.89 1372.93 Q189.633 1377.36 189.633 1386.27 Q189.633 1395.15 191.89 1399.61 Q194.176 1404.04 198.69 1404.04 Q203.232 1404.04 205.489 1399.61 Q207.775 1395.15 207.775 1386.27 Q207.775 1377.36 205.489 1372.93 Q203.232 1368.47 198.69 1368.47 M198.69 1363.84 Q205.952 1363.84 209.772 1369.6 Q213.62 1375.33 213.62 1386.27 Q213.62 1397.18 209.772 1402.94 Q205.952 1408.66 198.69 1408.66 Q191.427 1408.66 187.579 1402.94 Q183.759 1397.18 183.759 1386.27 Q183.759 1375.33 187.579 1369.6 Q191.427 1363.84 198.69 1363.84 Z" fill="#000000" fill-rule="nonzero" fill-opacity="1" /><path clip-path="url(#clip230)" d="M236.392 1368.47 Q231.878 1368.47 229.592 1372.93 Q227.335 1377.36 227.335 1386.27 Q227.335 1395.15 229.592 1399.61 Q231.878 1404.04 236.392 1404.04 Q240.935 1404.04 243.192 1399.61 Q245.478 1395.15 245.478 1386.27 Q245.478 1377.36 243.192 1372.93 Q240.935 1368.47 236.392 1368.47 M236.392 1363.84 Q243.655 1363.84 247.474 1369.6 Q251.323 1375.33 251.323 1386.27 Q251.323 1397.18 247.474 1402.94 Q243.655 1408.66 236.392 1408.66 Q229.129 1408.66 225.281 1402.94 Q221.462 1397.18 221.462 1386.27 Q221.462 1375.33 225.281 1369.6 Q229.129 1363.84 236.392 1363.84 Z" fill="#000000" fill-rule="nonzero" fill-opacity="1" /><path clip-path="url(#clip230)" d="M274.094 1368.47 Q269.581 1368.47 267.295 1372.93 Q265.038 1377.36 265.038 1386.27 Q265.038 1395.15 267.295 1399.61 Q269.581 1404.04 274.094 1404.04 Q278.637 1404.04 280.894 1399.61 Q283.18 1395.15 283.18 1386.27 Q283.18 1377.36 280.894 1372.93 Q278.637 1368.47 274.094 1368.47 M274.094 1363.84 Q281.357 1363.84 285.176 1369.6 Q289.025 1375.33 289.025 1386.27 Q289.025 1397.18 285.176 1402.94 Q281.357 1408.66 274.094 1408.66 Q266.832 1408.66 262.983 1402.94 Q259.164 1397.18 259.164 1386.27 Q259.164 1375.33 262.983 1369.6 Q266.832 1363.84 274.094 1363.84 Z" fill="#000000" fill-rule="nonzero" fill-opacity="1" /><path clip-path="url(#clip230)" d="M143.684 169.335 Q139.17 169.335 136.884 173.791 Q134.628 178.218 134.628 187.13 Q134.628 196.014 136.884 200.47 Q139.17 204.897 143.684 204.897 Q148.227 204.897 150.484 200.47 Q152.77 196.014 152.77 187.13 Q152.77 178.218 150.484 173.791 Q148.227 169.335 143.684 169.335 M143.684 164.706 Q150.947 164.706 154.766 170.464 Q158.615 176.193 158.615 187.13 Q158.615 198.039 154.766 203.797 Q150.947 209.526 143.684 209.526 Q136.421 209.526 132.573 203.797 Q128.754 198.039 128.754 187.13 Q128.754 176.193 132.573 170.464 Q136.421 164.706 143.684 164.706 Z" fill="#000000" fill-rule="nonzero" fill-opacity="1" /><path clip-path="url(#clip230)" d="M168.887 201.338 L174.992 201.338 L174.992 208.687 L168.887 208.687 L168.887 201.338 Z" fill="#000000" fill-rule="nonzero" fill-opacity="1" /><path clip-path="url(#clip230)" d="M200.223 169.335 Q195.709 169.335 193.424 173.791 Q191.167 178.218 191.167 187.13 Q191.167 196.014 193.424 200.47 Q195.709 204.897 200.223 204.897 Q204.766 204.897 207.023 200.47 Q209.309 196.014 209.309 187.13 Q209.309 178.218 207.023 173.791 Q204.766 169.335 200.223 169.335 M200.223 164.706 Q207.486 164.706 211.305 170.464 Q215.154 176.193 215.154 187.13 Q215.154 198.039 211.305 203.797 Q207.486 209.526 200.223 209.526 Q192.961 209.526 189.112 203.797 Q185.293 198.039 185.293 187.13 Q185.293 176.193 189.112 170.464 Q192.961 164.706 200.223 164.706 Z" fill="#000000" fill-rule="nonzero" fill-opacity="1" /><path clip-path="url(#clip230)" d="M237.926 169.335 Q233.412 169.335 231.126 173.791 Q228.869 178.218 228.869 187.13 Q228.869 196.014 231.126 200.47 Q233.412 204.897 237.926 204.897 Q242.468 204.897 244.725 200.47 Q247.011 196.014 247.011 187.13 Q247.011 178.218 244.725 173.791 Q242.468 169.335 237.926 169.335 M237.926 164.706 Q245.188 164.706 249.008 170.464 Q252.856 176.193 252.856 187.13 Q252.856 198.039 249.008 203.797 Q245.188 209.526 237.926 209.526 Q230.663 209.526 226.815 203.797 Q222.995 198.039 222.995 187.13 Q222.995 176.193 226.815 170.464 Q230.663 164.706 237.926 164.706 Z" fill="#000000" fill-rule="nonzero" fill-opacity="1" /><path clip-path="url(#clip230)" d="M264.141 203.768 L273.689 203.768 L273.689 170.811 L263.302 172.894 L263.302 167.57 L273.631 165.487 L279.476 165.487 L279.476 203.768 L289.025 203.768 L289.025 208.687 L264.141 208.687 L264.141 203.768 Z" fill="#000000" fill-rule="nonzero" fill-opacity="1" /><path clip-path="url(#clip230)" d="M12.5962 925.721 L12.5962 890.964 L19.4827 890.964 L19.4827 917.538 L37.3067 917.538 L37.3067 893.557 L44.1932 893.557 L44.1932 917.538 L73.0762 917.538 L73.0762 925.721 L12.5962 925.721 Z" fill="#000000" fill-rule="nonzero" fill-opacity="1" /><path clip-path="url(#clip230)" d="M34.6736 858.071 Q33.9444 859.327 33.6204 860.826 Q33.2558 862.284 33.2558 864.066 Q33.2558 870.386 37.3877 873.789 Q41.4791 877.151 49.1758 877.151 L73.0762 877.151 L73.0762 884.645 L27.706 884.645 L27.706 877.151 L34.7546 877.151 Q30.6227 874.801 28.6377 871.034 Q26.6123 867.267 26.6123 861.879 Q26.6123 861.109 26.7338 860.177 Q26.8148 859.246 27.0174 858.112 L34.6736 858.071 Z" fill="#000000" fill-rule="nonzero" fill-opacity="1" /><path clip-path="url(#clip230)" d="M48.5277 813.268 L52.1735 813.268 L52.1735 847.539 Q59.8702 847.053 63.9211 842.921 Q67.9315 838.748 67.9315 831.335 Q67.9315 827.041 66.8783 823.031 Q65.825 818.98 63.7186 815.01 L70.7671 815.01 Q72.4685 819.02 73.3597 823.233 Q74.2509 827.446 74.2509 831.781 Q74.2509 842.637 67.9315 848.997 Q61.6121 855.316 50.8367 855.316 Q39.6967 855.316 33.1748 849.321 Q26.6123 843.285 26.6123 833.077 Q26.6123 823.922 32.5266 818.615 Q38.4004 813.268 48.5277 813.268 M46.3402 820.722 Q40.2233 820.803 36.5775 824.165 Q32.9317 827.487 32.9317 832.996 Q32.9317 839.234 36.456 843.002 Q39.9803 846.728 46.3807 847.296 L46.3402 820.722 Z" fill="#000000" fill-rule="nonzero" fill-opacity="1" /><path clip-path="url(#clip230)" d="M50.4316 796.578 Q58.6549 796.578 63.354 793.216 Q68.0125 789.813 68.0125 783.899 Q68.0125 777.985 63.354 774.582 Q58.6549 771.179 50.4316 771.179 Q42.2083 771.179 37.5497 774.582 Q32.8507 777.985 32.8507 783.899 Q32.8507 789.813 37.5497 793.216 Q42.2083 796.578 50.4316 796.578 M66.2706 771.179 Q70.3215 773.529 72.3065 777.134 Q74.2509 780.699 74.2509 785.722 Q74.2509 793.945 67.6885 799.13 Q61.126 804.275 50.4316 804.275 Q39.7372 804.275 33.1748 799.13 Q26.6123 793.945 26.6123 785.722 Q26.6123 780.699 28.5972 777.134 Q30.5417 773.529 34.5926 771.179 L27.706 771.179 L27.706 763.725 L90.333 763.725 L90.333 771.179 L66.2706 771.179 Z" fill="#000000" fill-rule="nonzero" fill-opacity="1" /><path clip-path="url(#clip230)" d="M55.1712 749.142 L27.706 749.142 L27.706 741.689 L54.8876 741.689 Q61.3285 741.689 64.5693 739.177 Q67.7695 736.665 67.7695 731.642 Q67.7695 725.606 63.9211 722.123 Q60.0728 718.598 53.4293 718.598 L27.706 718.598 L27.706 711.145 L73.0762 711.145 L73.0762 718.598 L66.1086 718.598 Q70.2405 721.312 72.266 724.918 Q74.2509 728.483 74.2509 733.222 Q74.2509 741.04 69.3898 745.091 Q64.5287 749.142 55.1712 749.142 M26.6123 730.387 L26.6123 730.387 Z" fill="#000000" fill-rule="nonzero" fill-opacity="1" /><path clip-path="url(#clip230)" d="M48.5277 656.984 L52.1735 656.984 L52.1735 691.255 Q59.8702 690.769 63.9211 686.637 Q67.9315 682.464 67.9315 675.051 Q67.9315 670.757 66.8783 666.747 Q65.825 662.696 63.7186 658.726 L70.7671 658.726 Q72.4685 662.736 73.3597 666.949 Q74.2509 671.162 74.2509 675.497 Q74.2509 686.353 67.9315 692.713 Q61.6121 699.033 50.8367 699.033 Q39.6967 699.033 33.1748 693.037 Q26.6123 687.001 26.6123 676.793 Q26.6123 667.638 32.5266 662.331 Q38.4004 656.984 48.5277 656.984 M46.3402 664.438 Q40.2233 664.519 36.5775 667.881 Q32.9317 671.203 32.9317 676.712 Q32.9317 682.95 36.456 686.718 Q39.9803 690.445 46.3807 691.012 L46.3402 664.438 Z" fill="#000000" fill-rule="nonzero" fill-opacity="1" /><path clip-path="url(#clip230)" d="M45.692 607.036 L73.0762 607.036 L73.0762 614.49 L45.9351 614.49 Q39.4942 614.49 36.2939 617.002 Q33.0937 619.513 33.0937 624.536 Q33.0937 630.572 36.9421 634.056 Q40.7905 637.54 47.4339 637.54 L73.0762 637.54 L73.0762 645.034 L27.706 645.034 L27.706 637.54 L34.7546 637.54 Q30.6632 634.866 28.6377 631.261 Q26.6123 627.615 26.6123 622.876 Q26.6123 615.057 31.4734 611.047 Q36.2939 607.036 45.692 607.036 Z" fill="#000000" fill-rule="nonzero" fill-opacity="1" /><path clip-path="url(#clip230)" d="M29.4479 559.519 L36.4155 559.519 Q34.6736 562.679 33.8229 565.879 Q32.9317 569.039 32.9317 572.28 Q32.9317 579.531 37.5497 583.541 Q42.1272 587.552 50.4316 587.552 Q58.736 587.552 63.354 583.541 Q67.9315 579.531 67.9315 572.28 Q67.9315 569.039 67.0808 565.879 Q66.1896 562.679 64.4477 559.519 L71.3343 559.519 Q72.7926 562.639 73.5218 566.001 Q74.2509 569.323 74.2509 573.09 Q74.2509 583.339 67.81 589.375 Q61.369 595.41 50.4316 595.41 Q39.3321 595.41 32.9722 589.334 Q26.6123 583.217 26.6123 572.604 Q26.6123 569.161 27.3414 565.879 Q28.0301 562.598 29.4479 559.519 Z" fill="#000000" fill-rule="nonzero" fill-opacity="1" /><path clip-path="url(#clip230)" d="M77.2891 527.679 Q85.3909 530.839 87.862 533.837 Q90.333 536.834 90.333 541.857 L90.333 547.812 L84.0946 547.812 L84.0946 543.437 Q84.0946 540.359 82.6363 538.657 Q81.178 536.956 75.7498 534.89 L72.347 533.553 L27.706 551.904 L27.706 544.004 L63.192 529.826 L27.706 515.648 L27.706 507.749 L77.2891 527.679 Z" fill="#000000" fill-rule="nonzero" fill-opacity="1" /><path clip-path="url(#clip232)" d="M436.554 47.2441 L436.554 1386.23 L470.604 1386.23 L470.604 47.2441 L436.554 47.2441 L436.554 47.2441  Z" fill="#0000ff" fill-rule="evenodd" fill-opacity="0.5"/>
<polyline clip-path="url(#clip232)" style="stroke:#000000; stroke-linecap:round; stroke-linejoin:round; stroke-width:4; stroke-opacity:0.5; fill:none" points="436.554,47.2441 436.554,1386.23 470.604,1386.23 470.604,47.2441 436.554,47.2441 "/>
<path clip-path="url(#clip232)" d="M470.604 1313.2 L470.604 1386.23 L504.655 1386.23 L504.655 1313.2 L470.604 1313.2 L470.604 1313.2  Z" fill="#0000ff" fill-rule="evenodd" fill-opacity="0.5"/>
<polyline clip-path="url(#clip232)" style="stroke:#000000; stroke-linecap:round; stroke-linejoin:round; stroke-width:4; stroke-opacity:0.5; fill:none" points="470.604,1313.2 470.604,1386.23 504.655,1386.23 504.655,1313.2 470.604,1313.2 "/>
<path clip-path="url(#clip232)" d="M504.655 1323.03 L504.655 1386.23 L538.705 1386.23 L538.705 1323.03 L504.655 1323.03 L504.655 1323.03  Z" fill="#0000ff" fill-rule="evenodd" fill-opacity="0.5"/>
<polyline clip-path="url(#clip232)" style="stroke:#000000; stroke-linecap:round; stroke-linejoin:round; stroke-width:4; stroke-opacity:0.5; fill:none" points="504.655,1323.03 504.655,1386.23 538.705,1386.23 538.705,1323.03 504.655,1323.03 "/>
<path clip-path="url(#clip232)" d="M538.705 1333.1 L538.705 1386.23 L572.755 1386.23 L572.755 1333.1 L538.705 1333.1 L538.705 1333.1  Z" fill="#0000ff" fill-rule="evenodd" fill-opacity="0.5"/>
<polyline clip-path="url(#clip232)" style="stroke:#000000; stroke-linecap:round; stroke-linejoin:round; stroke-width:4; stroke-opacity:0.5; fill:none" points="538.705,1333.1 538.705,1386.23 572.755,1386.23 572.755,1333.1 538.705,1333.1 "/>
<path clip-path="url(#clip232)" d="M572.755 1341.29 L572.755 1386.23 L606.806 1386.23 L606.806 1341.29 L572.755 1341.29 L572.755 1341.29  Z" fill="#0000ff" fill-rule="evenodd" fill-opacity="0.5"/>
<polyline clip-path="url(#clip232)" style="stroke:#000000; stroke-linecap:round; stroke-linejoin:round; stroke-width:4; stroke-opacity:0.5; fill:none" points="572.755,1341.29 572.755,1386.23 606.806,1386.23 606.806,1341.29 572.755,1341.29 "/>
<path clip-path="url(#clip232)" d="M606.806 1338.71 L606.806 1386.23 L640.856 1386.23 L640.856 1338.71 L606.806 1338.71 L606.806 1338.71  Z" fill="#0000ff" fill-rule="evenodd" fill-opacity="0.5"/>
<polyline clip-path="url(#clip232)" style="stroke:#000000; stroke-linecap:round; stroke-linejoin:round; stroke-width:4; stroke-opacity:0.5; fill:none" points="606.806,1338.71 606.806,1386.23 640.856,1386.23 640.856,1338.71 606.806,1338.71 "/>
<path clip-path="url(#clip232)" d="M640.856 1339.88 L640.856 1386.23 L674.907 1386.23 L674.907 1339.88 L640.856 1339.88 L640.856 1339.88  Z" fill="#0000ff" fill-rule="evenodd" fill-opacity="0.5"/>
<polyline clip-path="url(#clip232)" style="stroke:#000000; stroke-linecap:round; stroke-linejoin:round; stroke-width:4; stroke-opacity:0.5; fill:none" points="640.856,1339.88 640.856,1386.23 674.907,1386.23 674.907,1339.88 640.856,1339.88 "/>
<path clip-path="url(#clip232)" d="M674.907 1342.46 L674.907 1386.23 L708.957 1386.23 L708.957 1342.46 L674.907 1342.46 L674.907 1342.46  Z" fill="#0000ff" fill-rule="evenodd" fill-opacity="0.5"/>
<polyline clip-path="url(#clip232)" style="stroke:#000000; stroke-linecap:round; stroke-linejoin:round; stroke-width:4; stroke-opacity:0.5; fill:none" points="674.907,1342.46 674.907,1386.23 708.957,1386.23 708.957,1342.46 674.907,1342.46 "/>
<path clip-path="url(#clip232)" d="M708.957 1346.2 L708.957 1386.23 L743.008 1386.23 L743.008 1346.2 L708.957 1346.2 L708.957 1346.2  Z" fill="#0000ff" fill-rule="evenodd" fill-opacity="0.5"/>
<polyline clip-path="url(#clip232)" style="stroke:#000000; stroke-linecap:round; stroke-linejoin:round; stroke-width:4; stroke-opacity:0.5; fill:none" points="708.957,1346.2 708.957,1386.23 743.008,1386.23 743.008,1346.2 708.957,1346.2 "/>
<path clip-path="url(#clip232)" d="M743.008 1353.93 L743.008 1386.23 L777.058 1386.23 L777.058 1353.93 L743.008 1353.93 L743.008 1353.93  Z" fill="#0000ff" fill-rule="evenodd" fill-opacity="0.5"/>
<polyline clip-path="url(#clip232)" style="stroke:#000000; stroke-linecap:round; stroke-linejoin:round; stroke-width:4; stroke-opacity:0.5; fill:none" points="743.008,1353.93 743.008,1386.23 777.058,1386.23 777.058,1353.93 743.008,1353.93 "/>
<path clip-path="url(#clip232)" d="M777.058 1361.88 L777.058 1386.23 L811.109 1386.23 L811.109 1361.88 L777.058 1361.88 L777.058 1361.88  Z" fill="#0000ff" fill-rule="evenodd" fill-opacity="0.5"/>
<polyline clip-path="url(#clip232)" style="stroke:#000000; stroke-linecap:round; stroke-linejoin:round; stroke-width:4; stroke-opacity:0.5; fill:none" points="777.058,1361.88 777.058,1386.23 811.109,1386.23 811.109,1361.88 777.058,1361.88 "/>
<path clip-path="url(#clip232)" d="M811.109 1352.52 L811.109 1386.23 L845.159 1386.23 L845.159 1352.52 L811.109 1352.52 L811.109 1352.52  Z" fill="#0000ff" fill-rule="evenodd" fill-opacity="0.5"/>
<polyline clip-path="url(#clip232)" style="stroke:#000000; stroke-linecap:round; stroke-linejoin:round; stroke-width:4; stroke-opacity:0.5; fill:none" points="811.109,1352.52 811.109,1386.23 845.159,1386.23 845.159,1352.52 811.109,1352.52 "/>
<path clip-path="url(#clip232)" d="M845.159 1352.76 L845.159 1386.23 L879.209 1386.23 L879.209 1352.76 L845.159 1352.76 L845.159 1352.76  Z" fill="#0000ff" fill-rule="evenodd" fill-opacity="0.5"/>
<polyline clip-path="url(#clip232)" style="stroke:#000000; stroke-linecap:round; stroke-linejoin:round; stroke-width:4; stroke-opacity:0.5; fill:none" points="845.159,1352.76 845.159,1386.23 879.209,1386.23 879.209,1352.76 845.159,1352.76 "/>
<path clip-path="url(#clip232)" d="M879.209 1355.1 L879.209 1386.23 L913.26 1386.23 L913.26 1355.1 L879.209 1355.1 L879.209 1355.1  Z" fill="#0000ff" fill-rule="evenodd" fill-opacity="0.5"/>
<polyline clip-path="url(#clip232)" style="stroke:#000000; stroke-linecap:round; stroke-linejoin:round; stroke-width:4; stroke-opacity:0.5; fill:none" points="879.209,1355.1 879.209,1386.23 913.26,1386.23 913.26,1355.1 879.209,1355.1 "/>
<path clip-path="url(#clip232)" d="M913.26 1361.65 L913.26 1386.23 L947.31 1386.23 L947.31 1361.65 L913.26 1361.65 L913.26 1361.65  Z" fill="#0000ff" fill-rule="evenodd" fill-opacity="0.5"/>
<polyline clip-path="url(#clip232)" style="stroke:#000000; stroke-linecap:round; stroke-linejoin:round; stroke-width:4; stroke-opacity:0.5; fill:none" points="913.26,1361.65 913.26,1386.23 947.31,1386.23 947.31,1361.65 913.26,1361.65 "/>
<path clip-path="url(#clip232)" d="M947.31 1361.65 L947.31 1386.23 L981.361 1386.23 L981.361 1361.65 L947.31 1361.65 L947.31 1361.65  Z" fill="#0000ff" fill-rule="evenodd" fill-opacity="0.5"/>
<polyline clip-path="url(#clip232)" style="stroke:#000000; stroke-linecap:round; stroke-linejoin:round; stroke-width:4; stroke-opacity:0.5; fill:none" points="947.31,1361.65 947.31,1386.23 981.361,1386.23 981.361,1361.65 947.31,1361.65 "/>
<path clip-path="url(#clip232)" d="M981.361 1361.42 L981.361 1386.23 L1015.41 1386.23 L1015.41 1361.42 L981.361 1361.42 L981.361 1361.42  Z" fill="#0000ff" fill-rule="evenodd" fill-opacity="0.5"/>
<polyline clip-path="url(#clip232)" style="stroke:#000000; stroke-linecap:round; stroke-linejoin:round; stroke-width:4; stroke-opacity:0.5; fill:none" points="981.361,1361.42 981.361,1386.23 1015.41,1386.23 1015.41,1361.42 981.361,1361.42 "/>
<path clip-path="url(#clip232)" d="M1015.41 1359.31 L1015.41 1386.23 L1049.46 1386.23 L1049.46 1359.31 L1015.41 1359.31 L1015.41 1359.31  Z" fill="#0000ff" fill-rule="evenodd" fill-opacity="0.5"/>
<polyline clip-path="url(#clip232)" style="stroke:#000000; stroke-linecap:round; stroke-linejoin:round; stroke-width:4; stroke-opacity:0.5; fill:none" points="1015.41,1359.31 1015.41,1386.23 1049.46,1386.23 1049.46,1359.31 1015.41,1359.31 "/>
<path clip-path="url(#clip232)" d="M1049.46 1363.99 L1049.46 1386.23 L1083.51 1386.23 L1083.51 1363.99 L1049.46 1363.99 L1049.46 1363.99  Z" fill="#0000ff" fill-rule="evenodd" fill-opacity="0.5"/>
<polyline clip-path="url(#clip232)" style="stroke:#000000; stroke-linecap:round; stroke-linejoin:round; stroke-width:4; stroke-opacity:0.5; fill:none" points="1049.46,1363.99 1049.46,1386.23 1083.51,1386.23 1083.51,1363.99 1049.46,1363.99 "/>
<path clip-path="url(#clip232)" d="M1083.51 1367.27 L1083.51 1386.23 L1117.56 1386.23 L1117.56 1367.27 L1083.51 1367.27 L1083.51 1367.27  Z" fill="#0000ff" fill-rule="evenodd" fill-opacity="0.5"/>
<polyline clip-path="url(#clip232)" style="stroke:#000000; stroke-linecap:round; stroke-linejoin:round; stroke-width:4; stroke-opacity:0.5; fill:none" points="1083.51,1367.27 1083.51,1386.23 1117.56,1386.23 1117.56,1367.27 1083.51,1367.27 "/>
<path clip-path="url(#clip232)" d="M1117.56 1369.37 L1117.56 1386.23 L1151.61 1386.23 L1151.61 1369.37 L1117.56 1369.37 L1117.56 1369.37  Z" fill="#0000ff" fill-rule="evenodd" fill-opacity="0.5"/>
<polyline clip-path="url(#clip232)" style="stroke:#000000; stroke-linecap:round; stroke-linejoin:round; stroke-width:4; stroke-opacity:0.5; fill:none" points="1117.56,1369.37 1117.56,1386.23 1151.61,1386.23 1151.61,1369.37 1117.56,1369.37 "/>
<path clip-path="url(#clip232)" d="M1151.61 1365.16 L1151.61 1386.23 L1185.66 1386.23 L1185.66 1365.16 L1151.61 1365.16 L1151.61 1365.16  Z" fill="#0000ff" fill-rule="evenodd" fill-opacity="0.5"/>
<polyline clip-path="url(#clip232)" style="stroke:#000000; stroke-linecap:round; stroke-linejoin:round; stroke-width:4; stroke-opacity:0.5; fill:none" points="1151.61,1365.16 1151.61,1386.23 1185.66,1386.23 1185.66,1365.16 1151.61,1365.16 "/>
<path clip-path="url(#clip232)" d="M1185.66 1370.54 L1185.66 1386.23 L1219.71 1386.23 L1219.71 1370.54 L1185.66 1370.54 L1185.66 1370.54  Z" fill="#0000ff" fill-rule="evenodd" fill-opacity="0.5"/>
<polyline clip-path="url(#clip232)" style="stroke:#000000; stroke-linecap:round; stroke-linejoin:round; stroke-width:4; stroke-opacity:0.5; fill:none" points="1185.66,1370.54 1185.66,1386.23 1219.71,1386.23 1219.71,1370.54 1185.66,1370.54 "/>
<path clip-path="url(#clip232)" d="M1219.71 1363.52 L1219.71 1386.23 L1253.76 1386.23 L1253.76 1363.52 L1219.71 1363.52 L1219.71 1363.52  Z" fill="#0000ff" fill-rule="evenodd" fill-opacity="0.5"/>
<polyline clip-path="url(#clip232)" style="stroke:#000000; stroke-linecap:round; stroke-linejoin:round; stroke-width:4; stroke-opacity:0.5; fill:none" points="1219.71,1363.52 1219.71,1386.23 1253.76,1386.23 1253.76,1363.52 1219.71,1363.52 "/>
<path clip-path="url(#clip232)" d="M1253.76 1369.37 L1253.76 1386.23 L1287.81 1386.23 L1287.81 1369.37 L1253.76 1369.37 L1253.76 1369.37  Z" fill="#0000ff" fill-rule="evenodd" fill-opacity="0.5"/>
<polyline clip-path="url(#clip232)" style="stroke:#000000; stroke-linecap:round; stroke-linejoin:round; stroke-width:4; stroke-opacity:0.5; fill:none" points="1253.76,1369.37 1253.76,1386.23 1287.81,1386.23 1287.81,1369.37 1253.76,1369.37 "/>
<path clip-path="url(#clip232)" d="M1287.81 1366.57 L1287.81 1386.23 L1321.87 1386.23 L1321.87 1366.57 L1287.81 1366.57 L1287.81 1366.57  Z" fill="#0000ff" fill-rule="evenodd" fill-opacity="0.5"/>
<polyline clip-path="url(#clip232)" style="stroke:#000000; stroke-linecap:round; stroke-linejoin:round; stroke-width:4; stroke-opacity:0.5; fill:none" points="1287.81,1366.57 1287.81,1386.23 1321.87,1386.23 1321.87,1366.57 1287.81,1366.57 "/>
<path clip-path="url(#clip232)" d="M1321.87 1372.18 L1321.87 1386.23 L1355.92 1386.23 L1355.92 1372.18 L1321.87 1372.18 L1321.87 1372.18  Z" fill="#0000ff" fill-rule="evenodd" fill-opacity="0.5"/>
<polyline clip-path="url(#clip232)" style="stroke:#000000; stroke-linecap:round; stroke-linejoin:round; stroke-width:4; stroke-opacity:0.5; fill:none" points="1321.87,1372.18 1321.87,1386.23 1355.92,1386.23 1355.92,1372.18 1321.87,1372.18 "/>
<path clip-path="url(#clip232)" d="M1355.92 1370.31 L1355.92 1386.23 L1389.97 1386.23 L1389.97 1370.31 L1355.92 1370.31 L1355.92 1370.31  Z" fill="#0000ff" fill-rule="evenodd" fill-opacity="0.5"/>
<polyline clip-path="url(#clip232)" style="stroke:#000000; stroke-linecap:round; stroke-linejoin:round; stroke-width:4; stroke-opacity:0.5; fill:none" points="1355.92,1370.31 1355.92,1386.23 1389.97,1386.23 1389.97,1370.31 1355.92,1370.31 "/>
<path clip-path="url(#clip232)" d="M1389.97 1370.08 L1389.97 1386.23 L1424.02 1386.23 L1424.02 1370.08 L1389.97 1370.08 L1389.97 1370.08  Z" fill="#0000ff" fill-rule="evenodd" fill-opacity="0.5"/>
<polyline clip-path="url(#clip232)" style="stroke:#000000; stroke-linecap:round; stroke-linejoin:round; stroke-width:4; stroke-opacity:0.5; fill:none" points="1389.97,1370.08 1389.97,1386.23 1424.02,1386.23 1424.02,1370.08 1389.97,1370.08 "/>
<path clip-path="url(#clip232)" d="M1424.02 1370.08 L1424.02 1386.23 L1458.07 1386.23 L1458.07 1370.08 L1424.02 1370.08 L1424.02 1370.08  Z" fill="#0000ff" fill-rule="evenodd" fill-opacity="0.5"/>
<polyline clip-path="url(#clip232)" style="stroke:#000000; stroke-linecap:round; stroke-linejoin:round; stroke-width:4; stroke-opacity:0.5; fill:none" points="1424.02,1370.08 1424.02,1386.23 1458.07,1386.23 1458.07,1370.08 1424.02,1370.08 "/>
<path clip-path="url(#clip232)" d="M1458.07 1370.54 L1458.07 1386.23 L1492.12 1386.23 L1492.12 1370.54 L1458.07 1370.54 L1458.07 1370.54  Z" fill="#0000ff" fill-rule="evenodd" fill-opacity="0.5"/>
<polyline clip-path="url(#clip232)" style="stroke:#000000; stroke-linecap:round; stroke-linejoin:round; stroke-width:4; stroke-opacity:0.5; fill:none" points="1458.07,1370.54 1458.07,1386.23 1492.12,1386.23 1492.12,1370.54 1458.07,1370.54 "/>
<path clip-path="url(#clip232)" d="M1492.12 1372.65 L1492.12 1386.23 L1526.17 1386.23 L1526.17 1372.65 L1492.12 1372.65 L1492.12 1372.65  Z" fill="#0000ff" fill-rule="evenodd" fill-opacity="0.5"/>
<polyline clip-path="url(#clip232)" style="stroke:#000000; stroke-linecap:round; stroke-linejoin:round; stroke-width:4; stroke-opacity:0.5; fill:none" points="1492.12,1372.65 1492.12,1386.23 1526.17,1386.23 1526.17,1372.65 1492.12,1372.65 "/>
<path clip-path="url(#clip232)" d="M1526.17 1372.42 L1526.17 1386.23 L1560.22 1386.23 L1560.22 1372.42 L1526.17 1372.42 L1526.17 1372.42  Z" fill="#0000ff" fill-rule="evenodd" fill-opacity="0.5"/>
<polyline clip-path="url(#clip232)" style="stroke:#000000; stroke-linecap:round; stroke-linejoin:round; stroke-width:4; stroke-opacity:0.5; fill:none" points="1526.17,1372.42 1526.17,1386.23 1560.22,1386.23 1560.22,1372.42 1526.17,1372.42 "/>
<path clip-path="url(#clip232)" d="M1560.22 1372.42 L1560.22 1386.23 L1594.27 1386.23 L1594.27 1372.42 L1560.22 1372.42 L1560.22 1372.42  Z" fill="#0000ff" fill-rule="evenodd" fill-opacity="0.5"/>
<polyline clip-path="url(#clip232)" style="stroke:#000000; stroke-linecap:round; stroke-linejoin:round; stroke-width:4; stroke-opacity:0.5; fill:none" points="1560.22,1372.42 1560.22,1386.23 1594.27,1386.23 1594.27,1372.42 1560.22,1372.42 "/>
<path clip-path="url(#clip232)" d="M1594.27 1372.89 L1594.27 1386.23 L1628.32 1386.23 L1628.32 1372.89 L1594.27 1372.89 L1594.27 1372.89  Z" fill="#0000ff" fill-rule="evenodd" fill-opacity="0.5"/>
<polyline clip-path="url(#clip232)" style="stroke:#000000; stroke-linecap:round; stroke-linejoin:round; stroke-width:4; stroke-opacity:0.5; fill:none" points="1594.27,1372.89 1594.27,1386.23 1628.32,1386.23 1628.32,1372.89 1594.27,1372.89 "/>
<path clip-path="url(#clip232)" d="M1628.32 1374.76 L1628.32 1386.23 L1662.37 1386.23 L1662.37 1374.76 L1628.32 1374.76 L1628.32 1374.76  Z" fill="#0000ff" fill-rule="evenodd" fill-opacity="0.5"/>
<polyline clip-path="url(#clip232)" style="stroke:#000000; stroke-linecap:round; stroke-linejoin:round; stroke-width:4; stroke-opacity:0.5; fill:none" points="1628.32,1374.76 1628.32,1386.23 1662.37,1386.23 1662.37,1374.76 1628.32,1374.76 "/>
<path clip-path="url(#clip232)" d="M1662.37 1378.27 L1662.37 1386.23 L1696.42 1386.23 L1696.42 1378.27 L1662.37 1378.27 L1662.37 1378.27  Z" fill="#0000ff" fill-rule="evenodd" fill-opacity="0.5"/>
<polyline clip-path="url(#clip232)" style="stroke:#000000; stroke-linecap:round; stroke-linejoin:round; stroke-width:4; stroke-opacity:0.5; fill:none" points="1662.37,1378.27 1662.37,1386.23 1696.42,1386.23 1696.42,1378.27 1662.37,1378.27 "/>
<path clip-path="url(#clip232)" d="M1696.42 1377.33 L1696.42 1386.23 L1730.47 1386.23 L1730.47 1377.33 L1696.42 1377.33 L1696.42 1377.33  Z" fill="#0000ff" fill-rule="evenodd" fill-opacity="0.5"/>
<polyline clip-path="url(#clip232)" style="stroke:#000000; stroke-linecap:round; stroke-linejoin:round; stroke-width:4; stroke-opacity:0.5; fill:none" points="1696.42,1377.33 1696.42,1386.23 1730.47,1386.23 1730.47,1377.33 1696.42,1377.33 "/>
<path clip-path="url(#clip232)" d="M1730.47 1378.74 L1730.47 1386.23 L1764.52 1386.23 L1764.52 1378.74 L1730.47 1378.74 L1730.47 1378.74  Z" fill="#0000ff" fill-rule="evenodd" fill-opacity="0.5"/>
<polyline clip-path="url(#clip232)" style="stroke:#000000; stroke-linecap:round; stroke-linejoin:round; stroke-width:4; stroke-opacity:0.5; fill:none" points="1730.47,1378.74 1730.47,1386.23 1764.52,1386.23 1764.52,1378.74 1730.47,1378.74 "/>
<path clip-path="url(#clip232)" d="M1764.52 1376.63 L1764.52 1386.23 L1798.57 1386.23 L1798.57 1376.63 L1764.52 1376.63 L1764.52 1376.63  Z" fill="#0000ff" fill-rule="evenodd" fill-opacity="0.5"/>
<polyline clip-path="url(#clip232)" style="stroke:#000000; stroke-linecap:round; stroke-linejoin:round; stroke-width:4; stroke-opacity:0.5; fill:none" points="1764.52,1376.63 1764.52,1386.23 1798.57,1386.23 1798.57,1376.63 1764.52,1376.63 "/>
<path clip-path="url(#clip232)" d="M1798.57 1374.99 L1798.57 1386.23 L1832.62 1386.23 L1832.62 1374.99 L1798.57 1374.99 L1798.57 1374.99  Z" fill="#0000ff" fill-rule="evenodd" fill-opacity="0.5"/>
<polyline clip-path="url(#clip232)" style="stroke:#000000; stroke-linecap:round; stroke-linejoin:round; stroke-width:4; stroke-opacity:0.5; fill:none" points="1798.57,1374.99 1798.57,1386.23 1832.62,1386.23 1832.62,1374.99 1798.57,1374.99 "/>
<path clip-path="url(#clip232)" d="M1832.62 1377.57 L1832.62 1386.23 L1866.67 1386.23 L1866.67 1377.57 L1832.62 1377.57 L1832.62 1377.57  Z" fill="#0000ff" fill-rule="evenodd" fill-opacity="0.5"/>
<polyline clip-path="url(#clip232)" style="stroke:#000000; stroke-linecap:round; stroke-linejoin:round; stroke-width:4; stroke-opacity:0.5; fill:none" points="1832.62,1377.57 1832.62,1386.23 1866.67,1386.23 1866.67,1377.57 1832.62,1377.57 "/>
<path clip-path="url(#clip232)" d="M1866.67 1379.67 L1866.67 1386.23 L1900.72 1386.23 L1900.72 1379.67 L1866.67 1379.67 L1866.67 1379.67  Z" fill="#0000ff" fill-rule="evenodd" fill-opacity="0.5"/>
<polyline clip-path="url(#clip232)" style="stroke:#000000; stroke-linecap:round; stroke-linejoin:round; stroke-width:4; stroke-opacity:0.5; fill:none" points="1866.67,1379.67 1866.67,1386.23 1900.72,1386.23 1900.72,1379.67 1866.67,1379.67 "/>
<path clip-path="url(#clip232)" d="M1900.72 1380.61 L1900.72 1386.23 L1934.77 1386.23 L1934.77 1380.61 L1900.72 1380.61 L1900.72 1380.61  Z" fill="#0000ff" fill-rule="evenodd" fill-opacity="0.5"/>
<polyline clip-path="url(#clip232)" style="stroke:#000000; stroke-linecap:round; stroke-linejoin:round; stroke-width:4; stroke-opacity:0.5; fill:none" points="1900.72,1380.61 1900.72,1386.23 1934.77,1386.23 1934.77,1380.61 1900.72,1380.61 "/>
<path clip-path="url(#clip232)" d="M1934.77 1381.08 L1934.77 1386.23 L1968.82 1386.23 L1968.82 1381.08 L1934.77 1381.08 L1934.77 1381.08  Z" fill="#0000ff" fill-rule="evenodd" fill-opacity="0.5"/>
<polyline clip-path="url(#clip232)" style="stroke:#000000; stroke-linecap:round; stroke-linejoin:round; stroke-width:4; stroke-opacity:0.5; fill:none" points="1934.77,1381.08 1934.77,1386.23 1968.82,1386.23 1968.82,1381.08 1934.77,1381.08 "/>
<path clip-path="url(#clip232)" d="M1968.82 1382.72 L1968.82 1386.23 L2002.87 1386.23 L2002.87 1382.72 L1968.82 1382.72 L1968.82 1382.72  Z" fill="#0000ff" fill-rule="evenodd" fill-opacity="0.5"/>
<polyline clip-path="url(#clip232)" style="stroke:#000000; stroke-linecap:round; stroke-linejoin:round; stroke-width:4; stroke-opacity:0.5; fill:none" points="1968.82,1382.72 1968.82,1386.23 2002.87,1386.23 2002.87,1382.72 1968.82,1382.72 "/>
<path clip-path="url(#clip232)" d="M2002.87 1383.89 L2002.87 1386.23 L2036.92 1386.23 L2036.92 1383.89 L2002.87 1383.89 L2002.87 1383.89  Z" fill="#0000ff" fill-rule="evenodd" fill-opacity="0.5"/>
<polyline clip-path="url(#clip232)" style="stroke:#000000; stroke-linecap:round; stroke-linejoin:round; stroke-width:4; stroke-opacity:0.5; fill:none" points="2002.87,1383.89 2002.87,1386.23 2036.92,1386.23 2036.92,1383.89 2002.87,1383.89 "/>
<path clip-path="url(#clip232)" d="M2036.92 1382.48 L2036.92 1386.23 L2070.97 1386.23 L2070.97 1382.48 L2036.92 1382.48 L2036.92 1382.48  Z" fill="#0000ff" fill-rule="evenodd" fill-opacity="0.5"/>
<polyline clip-path="url(#clip232)" style="stroke:#000000; stroke-linecap:round; stroke-linejoin:round; stroke-width:4; stroke-opacity:0.5; fill:none" points="2036.92,1382.48 2036.92,1386.23 2070.97,1386.23 2070.97,1382.48 2036.92,1382.48 "/>
<path clip-path="url(#clip232)" d="M2070.97 1381.78 L2070.97 1386.23 L2105.03 1386.23 L2105.03 1381.78 L2070.97 1381.78 L2070.97 1381.78  Z" fill="#0000ff" fill-rule="evenodd" fill-opacity="0.5"/>
<polyline clip-path="url(#clip232)" style="stroke:#000000; stroke-linecap:round; stroke-linejoin:round; stroke-width:4; stroke-opacity:0.5; fill:none" points="2070.97,1381.78 2070.97,1386.23 2105.03,1386.23 2105.03,1381.78 2070.97,1381.78 "/>
<path clip-path="url(#clip232)" d="M2105.03 1382.95 L2105.03 1386.23 L2139.08 1386.23 L2139.08 1382.95 L2105.03 1382.95 L2105.03 1382.95  Z" fill="#0000ff" fill-rule="evenodd" fill-opacity="0.5"/>
<polyline clip-path="url(#clip232)" style="stroke:#000000; stroke-linecap:round; stroke-linejoin:round; stroke-width:4; stroke-opacity:0.5; fill:none" points="2105.03,1382.95 2105.03,1386.23 2139.08,1386.23 2139.08,1382.95 2105.03,1382.95 "/>
<path clip-path="url(#clip232)" d="M2139.08 1383.89 L2139.08 1386.23 L2173.13 1386.23 L2173.13 1383.89 L2139.08 1383.89 L2139.08 1383.89  Z" fill="#0000ff" fill-rule="evenodd" fill-opacity="0.5"/>
<polyline clip-path="url(#clip232)" style="stroke:#000000; stroke-linecap:round; stroke-linejoin:round; stroke-width:4; stroke-opacity:0.5; fill:none" points="2139.08,1383.89 2139.08,1386.23 2173.13,1386.23 2173.13,1383.89 2139.08,1383.89 "/>
<path clip-path="url(#clip232)" d="M2173.13 1383.89 L2173.13 1386.23 L2207.18 1386.23 L2207.18 1383.89 L2173.13 1383.89 L2173.13 1383.89  Z" fill="#0000ff" fill-rule="evenodd" fill-opacity="0.5"/>
<polyline clip-path="url(#clip232)" style="stroke:#000000; stroke-linecap:round; stroke-linejoin:round; stroke-width:4; stroke-opacity:0.5; fill:none" points="2173.13,1383.89 2173.13,1386.23 2207.18,1386.23 2207.18,1383.89 2173.13,1383.89 "/>
<path clip-path="url(#clip232)" d="M2207.18 1385.76 L2207.18 1386.23 L2241.23 1386.23 L2241.23 1385.76 L2207.18 1385.76 L2207.18 1385.76  Z" fill="#0000ff" fill-rule="evenodd" fill-opacity="0.5"/>
<polyline clip-path="url(#clip232)" style="stroke:#000000; stroke-linecap:round; stroke-linejoin:round; stroke-width:4; stroke-opacity:0.5; fill:none" points="2207.18,1385.76 2207.18,1386.23 2241.23,1386.23 2241.23,1385.76 2207.18,1385.76 "/>
<circle clip-path="url(#clip232)" style="fill:#0000ff; stroke:none; fill-opacity:0" cx="453.579" cy="47.2441" r="2"/>
<circle clip-path="url(#clip232)" style="fill:#0000ff; stroke:none; fill-opacity:0" cx="487.629" cy="1313.2" r="2"/>
<circle clip-path="url(#clip232)" style="fill:#0000ff; stroke:none; fill-opacity:0" cx="521.68" cy="1323.03" r="2"/>
<circle clip-path="url(#clip232)" style="fill:#0000ff; stroke:none; fill-opacity:0" cx="555.73" cy="1333.1" r="2"/>
<circle clip-path="url(#clip232)" style="fill:#0000ff; stroke:none; fill-opacity:0" cx="589.781" cy="1341.29" r="2"/>
<circle clip-path="url(#clip232)" style="fill:#0000ff; stroke:none; fill-opacity:0" cx="623.831" cy="1338.71" r="2"/>
<circle clip-path="url(#clip232)" style="fill:#0000ff; stroke:none; fill-opacity:0" cx="657.882" cy="1339.88" r="2"/>
<circle clip-path="url(#clip232)" style="fill:#0000ff; stroke:none; fill-opacity:0" cx="691.932" cy="1342.46" r="2"/>
<circle clip-path="url(#clip232)" style="fill:#0000ff; stroke:none; fill-opacity:0" cx="725.982" cy="1346.2" r="2"/>
<circle clip-path="url(#clip232)" style="fill:#0000ff; stroke:none; fill-opacity:0" cx="760.033" cy="1353.93" r="2"/>
<circle clip-path="url(#clip232)" style="fill:#0000ff; stroke:none; fill-opacity:0" cx="794.083" cy="1361.88" r="2"/>
<circle clip-path="url(#clip232)" style="fill:#0000ff; stroke:none; fill-opacity:0" cx="828.134" cy="1352.52" r="2"/>
<circle clip-path="url(#clip232)" style="fill:#0000ff; stroke:none; fill-opacity:0" cx="862.184" cy="1352.76" r="2"/>
<circle clip-path="url(#clip232)" style="fill:#0000ff; stroke:none; fill-opacity:0" cx="896.235" cy="1355.1" r="2"/>
<circle clip-path="url(#clip232)" style="fill:#0000ff; stroke:none; fill-opacity:0" cx="930.285" cy="1361.65" r="2"/>
<circle clip-path="url(#clip232)" style="fill:#0000ff; stroke:none; fill-opacity:0" cx="964.336" cy="1361.65" r="2"/>
<circle clip-path="url(#clip232)" style="fill:#0000ff; stroke:none; fill-opacity:0" cx="998.386" cy="1361.42" r="2"/>
<circle clip-path="url(#clip232)" style="fill:#0000ff; stroke:none; fill-opacity:0" cx="1032.44" cy="1359.31" r="2"/>
<circle clip-path="url(#clip232)" style="fill:#0000ff; stroke:none; fill-opacity:0" cx="1066.49" cy="1363.99" r="2"/>
<circle clip-path="url(#clip232)" style="fill:#0000ff; stroke:none; fill-opacity:0" cx="1100.54" cy="1367.27" r="2"/>
<circle clip-path="url(#clip232)" style="fill:#0000ff; stroke:none; fill-opacity:0" cx="1134.59" cy="1369.37" r="2"/>
<circle clip-path="url(#clip232)" style="fill:#0000ff; stroke:none; fill-opacity:0" cx="1168.64" cy="1365.16" r="2"/>
<circle clip-path="url(#clip232)" style="fill:#0000ff; stroke:none; fill-opacity:0" cx="1202.69" cy="1370.54" r="2"/>
<circle clip-path="url(#clip232)" style="fill:#0000ff; stroke:none; fill-opacity:0" cx="1236.74" cy="1363.52" r="2"/>
<circle clip-path="url(#clip232)" style="fill:#0000ff; stroke:none; fill-opacity:0" cx="1270.79" cy="1369.37" r="2"/>
<circle clip-path="url(#clip232)" style="fill:#0000ff; stroke:none; fill-opacity:0" cx="1304.84" cy="1366.57" r="2"/>
<circle clip-path="url(#clip232)" style="fill:#0000ff; stroke:none; fill-opacity:0" cx="1338.89" cy="1372.18" r="2"/>
<circle clip-path="url(#clip232)" style="fill:#0000ff; stroke:none; fill-opacity:0" cx="1372.94" cy="1370.31" r="2"/>
<circle clip-path="url(#clip232)" style="fill:#0000ff; stroke:none; fill-opacity:0" cx="1406.99" cy="1370.08" r="2"/>
<circle clip-path="url(#clip232)" style="fill:#0000ff; stroke:none; fill-opacity:0" cx="1441.04" cy="1370.08" r="2"/>
<circle clip-path="url(#clip232)" style="fill:#0000ff; stroke:none; fill-opacity:0" cx="1475.09" cy="1370.54" r="2"/>
<circle clip-path="url(#clip232)" style="fill:#0000ff; stroke:none; fill-opacity:0" cx="1509.14" cy="1372.65" r="2"/>
<circle clip-path="url(#clip232)" style="fill:#0000ff; stroke:none; fill-opacity:0" cx="1543.19" cy="1372.42" r="2"/>
<circle clip-path="url(#clip232)" style="fill:#0000ff; stroke:none; fill-opacity:0" cx="1577.24" cy="1372.42" r="2"/>
<circle clip-path="url(#clip232)" style="fill:#0000ff; stroke:none; fill-opacity:0" cx="1611.29" cy="1372.89" r="2"/>
<circle clip-path="url(#clip232)" style="fill:#0000ff; stroke:none; fill-opacity:0" cx="1645.34" cy="1374.76" r="2"/>
<circle clip-path="url(#clip232)" style="fill:#0000ff; stroke:none; fill-opacity:0" cx="1679.39" cy="1378.27" r="2"/>
<circle clip-path="url(#clip232)" style="fill:#0000ff; stroke:none; fill-opacity:0" cx="1713.45" cy="1377.33" r="2"/>
<circle clip-path="url(#clip232)" style="fill:#0000ff; stroke:none; fill-opacity:0" cx="1747.5" cy="1378.74" r="2"/>
<circle clip-path="url(#clip232)" style="fill:#0000ff; stroke:none; fill-opacity:0" cx="1781.55" cy="1376.63" r="2"/>
<circle clip-path="url(#clip232)" style="fill:#0000ff; stroke:none; fill-opacity:0" cx="1815.6" cy="1374.99" r="2"/>
<circle clip-path="url(#clip232)" style="fill:#0000ff; stroke:none; fill-opacity:0" cx="1849.65" cy="1377.57" r="2"/>
<circle clip-path="url(#clip232)" style="fill:#0000ff; stroke:none; fill-opacity:0" cx="1883.7" cy="1379.67" r="2"/>
<circle clip-path="url(#clip232)" style="fill:#0000ff; stroke:none; fill-opacity:0" cx="1917.75" cy="1380.61" r="2"/>
<circle clip-path="url(#clip232)" style="fill:#0000ff; stroke:none; fill-opacity:0" cx="1951.8" cy="1381.08" r="2"/>
<circle clip-path="url(#clip232)" style="fill:#0000ff; stroke:none; fill-opacity:0" cx="1985.85" cy="1382.72" r="2"/>
<circle clip-path="url(#clip232)" style="fill:#0000ff; stroke:none; fill-opacity:0" cx="2019.9" cy="1383.89" r="2"/>
<circle clip-path="url(#clip232)" style="fill:#0000ff; stroke:none; fill-opacity:0" cx="2053.95" cy="1382.48" r="2"/>
<circle clip-path="url(#clip232)" style="fill:#0000ff; stroke:none; fill-opacity:0" cx="2088" cy="1381.78" r="2"/>
<circle clip-path="url(#clip232)" style="fill:#0000ff; stroke:none; fill-opacity:0" cx="2122.05" cy="1382.95" r="2"/>
<circle clip-path="url(#clip232)" style="fill:#0000ff; stroke:none; fill-opacity:0" cx="2156.1" cy="1383.89" r="2"/>
<circle clip-path="url(#clip232)" style="fill:#0000ff; stroke:none; fill-opacity:0" cx="2190.15" cy="1383.89" r="2"/>
<circle clip-path="url(#clip232)" style="fill:#0000ff; stroke:none; fill-opacity:0" cx="2224.2" cy="1385.76" r="2"/>
<path clip-path="url(#clip230)" d="M2016.85 221.477 L2285.16 221.477 L2285.16 91.8768 L2016.85 91.8768  Z" fill="#ffffff" fill-rule="evenodd" fill-opacity="1"/>
<polyline clip-path="url(#clip230)" style="stroke:#000000; stroke-linecap:round; stroke-linejoin:round; stroke-width:4; stroke-opacity:1; fill:none" points="2016.85,221.477 2285.16,221.477 2285.16,91.8768 2016.85,91.8768 2016.85,221.477 "/>
<path clip-path="url(#clip230)" d="M2039.38 182.597 L2174.57 182.597 L2174.57 130.757 L2039.38 130.757 L2039.38 182.597  Z" fill="#0000ff" fill-rule="evenodd" fill-opacity="0.5"/>
<polyline clip-path="url(#clip230)" style="stroke:#000000; stroke-linecap:round; stroke-linejoin:round; stroke-width:5; stroke-opacity:1; fill:none" points="2039.38,182.597 2174.57,182.597 2174.57,130.757 2039.38,130.757 2039.38,182.597 "/>
<path clip-path="url(#clip230)" d="M2214.4 181.286 Q2212.14 187.073 2210 188.838 Q2207.86 190.603 2204.27 190.603 L2200.02 190.603 L2200.02 186.147 L2203.14 186.147 Q2205.34 186.147 2206.56 185.105 Q2207.77 184.064 2209.25 180.187 L2210.2 177.756 L2197.1 145.87 L2202.74 145.87 L2212.87 171.217 L2222.99 145.87 L2228.64 145.87 L2214.4 181.286 Z" fill="#000000" fill-rule="nonzero" fill-opacity="1" /><path clip-path="url(#clip230)" d="M2237.75 173.358 L2247.3 173.358 L2247.3 140.401 L2236.91 142.484 L2236.91 137.16 L2247.24 135.077 L2253.09 135.077 L2253.09 173.358 L2262.63 173.358 L2262.63 178.277 L2237.75 178.277 L2237.75 173.358 Z" fill="#000000" fill-rule="nonzero" fill-opacity="1" /></svg>
