<?xml version="1.0" encoding="utf-8"?>
<svg xmlns="http://www.w3.org/2000/svg" xmlns:xlink="http://www.w3.org/1999/xlink" width="600" height="400" viewBox="0 0 2400 1600">
<defs>
  <clipPath id="clip460">
    <rect x="0" y="0" width="2400" height="1600"/>
  </clipPath>
</defs>
<path clip-path="url(#clip460)" d="M0 1600 L2400 1600 L2400 0 L0 0  Z" fill="#ffffff" fill-rule="evenodd" fill-opacity="1"/>
<defs>
  <clipPath id="clip461">
    <rect x="480" y="0" width="1681" height="1600"/>
  </clipPath>
</defs>
<path clip-path="url(#clip460)" d="M324.202 1462.45 L2352.76 1462.45 L2352.76 47.2441 L324.202 47.2441  Z" fill="#ffffff" fill-rule="evenodd" fill-opacity="1"/>
<defs>
  <clipPath id="clip462">
    <rect x="324" y="47" width="2030" height="1416"/>
  </clipPath>
</defs>
<polyline clip-path="url(#clip462)" style="stroke:#000000; stroke-linecap:round; stroke-linejoin:round; stroke-width:2; stroke-opacity:0.1; fill:none" points="353.712,1462.45 353.712,47.2441 "/>
<polyline clip-path="url(#clip462)" style="stroke:#000000; stroke-linecap:round; stroke-linejoin:round; stroke-width:2; stroke-opacity:0.1; fill:none" points="764.031,1462.45 764.031,47.2441 "/>
<polyline clip-path="url(#clip462)" style="stroke:#000000; stroke-linecap:round; stroke-linejoin:round; stroke-width:2; stroke-opacity:0.1; fill:none" points="1174.35,1462.45 1174.35,47.2441 "/>
<polyline clip-path="url(#clip462)" style="stroke:#000000; stroke-linecap:round; stroke-linejoin:round; stroke-width:2; stroke-opacity:0.1; fill:none" points="1584.67,1462.45 1584.67,47.2441 "/>
<polyline clip-path="url(#clip462)" style="stroke:#000000; stroke-linecap:round; stroke-linejoin:round; stroke-width:2; stroke-opacity:0.1; fill:none" points="1994.99,1462.45 1994.99,47.2441 "/>
<polyline clip-path="url(#clip460)" style="stroke:#000000; stroke-linecap:round; stroke-linejoin:round; stroke-width:4; stroke-opacity:1; fill:none" points="324.202,1462.45 2352.76,1462.45 "/>
<polyline clip-path="url(#clip460)" style="stroke:#000000; stroke-linecap:round; stroke-linejoin:round; stroke-width:4; stroke-opacity:1; fill:none" points="353.712,1462.45 353.712,1443.56 "/>
<polyline clip-path="url(#clip460)" style="stroke:#000000; stroke-linecap:round; stroke-linejoin:round; stroke-width:4; stroke-opacity:1; fill:none" points="764.031,1462.45 764.031,1443.56 "/>
<polyline clip-path="url(#clip460)" style="stroke:#000000; stroke-linecap:round; stroke-linejoin:round; stroke-width:4; stroke-opacity:1; fill:none" points="1174.35,1462.45 1174.35,1443.56 "/>
<polyline clip-path="url(#clip460)" style="stroke:#000000; stroke-linecap:round; stroke-linejoin:round; stroke-width:4; stroke-opacity:1; fill:none" points="1584.67,1462.45 1584.67,1443.56 "/>
<polyline clip-path="url(#clip460)" style="stroke:#000000; stroke-linecap:round; stroke-linejoin:round; stroke-width:4; stroke-opacity:1; fill:none" points="1994.99,1462.45 1994.99,1443.56 "/>
<path clip-path="url(#clip460)" d="M211.554 1534.19 L248.649 1534.19 L248.649 1539.11 L211.554 1539.11 L211.554 1534.19 Z" fill="#000000" fill-rule="nonzero" fill-opacity="1" /><path clip-path="url(#clip460)" d="M262.277 1550.31 L271.826 1550.31 L271.826 1517.35 L261.438 1519.44 L261.438 1514.11 L271.768 1512.03 L277.613 1512.03 L277.613 1550.31 L287.161 1550.31 L287.161 1555.23 L262.277 1555.23 L262.277 1550.31 Z" fill="#000000" fill-rule="nonzero" fill-opacity="1" /><path clip-path="url(#clip460)" d="M298.967 1547.88 L305.072 1547.88 L305.072 1555.23 L298.967 1555.23 L298.967 1547.88 Z" fill="#000000" fill-rule="nonzero" fill-opacity="1" /><path clip-path="url(#clip460)" d="M330.303 1515.88 Q325.789 1515.88 323.504 1520.33 Q321.247 1524.76 321.247 1533.67 Q321.247 1542.56 323.504 1547.01 Q325.789 1551.44 330.303 1551.44 Q334.846 1551.44 337.103 1547.01 Q339.389 1542.56 339.389 1533.67 Q339.389 1524.76 337.103 1520.33 Q334.846 1515.88 330.303 1515.88 M330.303 1511.25 Q337.566 1511.25 341.385 1517.01 Q345.234 1522.73 345.234 1533.67 Q345.234 1544.58 341.385 1550.34 Q337.566 1556.07 330.303 1556.07 Q323.041 1556.07 319.192 1550.34 Q315.373 1544.58 315.373 1533.67 Q315.373 1522.73 319.192 1517.01 Q323.041 1511.25 330.303 1511.25 Z" fill="#000000" fill-rule="nonzero" fill-opacity="1" /><path clip-path="url(#clip460)" d="M390.72 1523.4 L377.496 1536.68 L390.72 1549.9 L387.276 1553.41 L373.995 1540.12 L360.714 1553.41 L357.3 1549.9 L370.494 1536.68 L357.3 1523.4 L360.714 1519.9 L373.995 1533.18 L387.276 1519.9 L390.72 1523.4 Z" fill="#000000" fill-rule="nonzero" fill-opacity="1" /><path clip-path="url(#clip460)" d="M406.171 1550.31 L415.719 1550.31 L415.719 1517.35 L405.332 1519.44 L405.332 1514.11 L415.662 1512.03 L421.506 1512.03 L421.506 1550.31 L431.055 1550.31 L431.055 1555.23 L406.171 1555.23 L406.171 1550.31 Z" fill="#000000" fill-rule="nonzero" fill-opacity="1" /><path clip-path="url(#clip460)" d="M455.36 1515.88 Q450.847 1515.88 448.561 1520.33 Q446.304 1524.76 446.304 1533.67 Q446.304 1542.56 448.561 1547.01 Q450.847 1551.44 455.36 1551.44 Q459.903 1551.44 462.16 1547.01 Q464.446 1542.56 464.446 1533.67 Q464.446 1524.76 462.16 1520.33 Q459.903 1515.88 455.36 1515.88 M455.36 1511.25 Q462.623 1511.25 466.443 1517.01 Q470.291 1522.73 470.291 1533.67 Q470.291 1544.58 466.443 1550.34 Q462.623 1556.07 455.36 1556.07 Q448.098 1556.07 444.249 1550.34 Q440.43 1544.58 440.43 1533.67 Q440.43 1522.73 444.249 1517.01 Q448.098 1511.25 455.36 1511.25 Z" fill="#000000" fill-rule="nonzero" fill-opacity="1" /><path clip-path="url(#clip460)" d="M486.136 1490 L474.147 1508.74 L486.136 1508.74 L486.136 1490 M484.89 1485.87 L490.862 1485.87 L490.862 1508.74 L495.869 1508.74 L495.869 1512.69 L490.862 1512.69 L490.862 1520.97 L486.136 1520.97 L486.136 1512.69 L470.291 1512.69 L470.291 1508.11 L484.89 1485.87 Z" fill="#000000" fill-rule="nonzero" fill-opacity="1" /><path clip-path="url(#clip460)" d="M623.108 1534.19 L660.202 1534.19 L660.202 1539.11 L623.108 1539.11 L623.108 1534.19 Z" fill="#000000" fill-rule="nonzero" fill-opacity="1" /><path clip-path="url(#clip460)" d="M672.876 1512.03 L695.821 1512.03 L695.821 1516.95 L678.229 1516.95 L678.229 1527.54 Q679.502 1527.1 680.775 1526.9 Q682.048 1526.67 683.322 1526.67 Q690.555 1526.67 694.78 1530.63 Q699.004 1534.6 699.004 1541.37 Q699.004 1548.34 694.664 1552.22 Q690.324 1556.07 682.425 1556.07 Q679.705 1556.07 676.869 1555.61 Q674.062 1555.14 671.053 1554.22 L671.053 1548.34 Q673.657 1549.76 676.435 1550.45 Q679.213 1551.15 682.309 1551.15 Q687.315 1551.15 690.237 1548.52 Q693.159 1545.88 693.159 1541.37 Q693.159 1536.86 690.237 1534.22 Q687.315 1531.59 682.309 1531.59 Q679.965 1531.59 677.621 1532.11 Q675.307 1532.63 672.876 1533.73 L672.876 1512.03 Z" fill="#000000" fill-rule="nonzero" fill-opacity="1" /><path clip-path="url(#clip460)" d="M710.52 1547.88 L716.626 1547.88 L716.626 1555.23 L710.52 1555.23 L710.52 1547.88 Z" fill="#000000" fill-rule="nonzero" fill-opacity="1" /><path clip-path="url(#clip460)" d="M741.857 1515.88 Q737.343 1515.88 735.057 1520.33 Q732.8 1524.76 732.8 1533.67 Q732.8 1542.56 735.057 1547.01 Q737.343 1551.44 741.857 1551.44 Q746.4 1551.44 748.657 1547.01 Q750.943 1542.56 750.943 1533.67 Q750.943 1524.76 748.657 1520.33 Q746.4 1515.88 741.857 1515.88 M741.857 1511.25 Q749.12 1511.25 752.939 1517.01 Q756.788 1522.73 756.788 1533.67 Q756.788 1544.58 752.939 1550.34 Q749.12 1556.07 741.857 1556.07 Q734.594 1556.07 730.746 1550.34 Q726.927 1544.58 726.927 1533.67 Q726.927 1522.73 730.746 1517.01 Q734.594 1511.25 741.857 1511.25 Z" fill="#000000" fill-rule="nonzero" fill-opacity="1" /><path clip-path="url(#clip460)" d="M802.273 1523.4 L789.05 1536.68 L802.273 1549.9 L798.83 1553.41 L785.549 1540.12 L772.268 1553.41 L768.853 1549.9 L782.048 1536.68 L768.853 1523.4 L772.268 1519.9 L785.549 1533.18 L798.83 1519.9 L802.273 1523.4 Z" fill="#000000" fill-rule="nonzero" fill-opacity="1" /><path clip-path="url(#clip460)" d="M817.725 1550.31 L827.273 1550.31 L827.273 1517.35 L816.886 1519.44 L816.886 1514.11 L827.215 1512.03 L833.06 1512.03 L833.06 1550.31 L842.609 1550.31 L842.609 1555.23 L817.725 1555.23 L817.725 1550.31 Z" fill="#000000" fill-rule="nonzero" fill-opacity="1" /><path clip-path="url(#clip460)" d="M866.914 1515.88 Q862.4 1515.88 860.115 1520.33 Q857.858 1524.76 857.858 1533.67 Q857.858 1542.56 860.115 1547.01 Q862.4 1551.44 866.914 1551.44 Q871.457 1551.44 873.714 1547.01 Q876 1542.56 876 1533.67 Q876 1524.76 873.714 1520.33 Q871.457 1515.88 866.914 1515.88 M866.914 1511.25 Q874.177 1511.25 877.996 1517.01 Q881.845 1522.73 881.845 1533.67 Q881.845 1544.58 877.996 1550.34 Q874.177 1556.07 866.914 1556.07 Q859.652 1556.07 855.803 1550.34 Q851.984 1544.58 851.984 1533.67 Q851.984 1522.73 855.803 1517.01 Q859.652 1511.25 866.914 1511.25 Z" fill="#000000" fill-rule="nonzero" fill-opacity="1" /><path clip-path="url(#clip460)" d="M897.714 1502.04 Q901.123 1502.77 903.027 1505.07 Q904.955 1507.38 904.955 1510.76 Q904.955 1515.96 901.381 1518.8 Q897.808 1521.65 891.225 1521.65 Q889.015 1521.65 886.664 1521.2 Q884.337 1520.78 881.845 1519.91 L881.845 1515.32 Q883.82 1516.48 886.171 1517.06 Q888.522 1517.65 891.084 1517.65 Q895.551 1517.65 897.878 1515.89 Q900.229 1514.12 900.229 1510.76 Q900.229 1507.66 898.043 1505.92 Q895.88 1504.16 892.001 1504.16 L887.91 1504.16 L887.91 1500.25 L892.189 1500.25 Q895.692 1500.25 897.549 1498.87 Q899.407 1497.46 899.407 1494.82 Q899.407 1492.12 897.479 1490.69 Q895.574 1489.23 892.001 1489.23 Q890.05 1489.23 887.816 1489.65 Q885.583 1490.07 882.903 1490.97 L882.903 1486.74 Q885.606 1485.98 887.957 1485.61 Q890.332 1485.23 892.424 1485.23 Q897.831 1485.23 900.982 1487.7 Q904.132 1490.14 904.132 1494.33 Q904.132 1497.24 902.463 1499.27 Q900.794 1501.26 897.714 1502.04 Z" fill="#000000" fill-rule="nonzero" fill-opacity="1" /><path clip-path="url(#clip460)" d="M1174.35 1496.3 Q1169.84 1496.3 1167.55 1500.76 Q1165.29 1505.19 1165.29 1514.1 Q1165.29 1522.98 1167.55 1527.44 Q1169.84 1531.86 1174.35 1531.86 Q1178.89 1531.86 1181.15 1527.44 Q1183.44 1522.98 1183.44 1514.1 Q1183.44 1505.19 1181.15 1500.76 Q1178.89 1496.3 1174.35 1496.3 M1174.35 1491.67 Q1181.61 1491.67 1185.43 1497.43 Q1189.28 1503.16 1189.28 1514.1 Q1189.28 1525.01 1185.43 1530.76 Q1181.61 1536.49 1174.35 1536.49 Q1167.09 1536.49 1163.24 1530.76 Q1159.42 1525.01 1159.42 1514.1 Q1159.42 1503.16 1163.24 1497.43 Q1167.09 1491.67 1174.35 1491.67 Z" fill="#000000" fill-rule="nonzero" fill-opacity="1" /><path clip-path="url(#clip460)" d="M1469.54 1512.03 L1492.49 1512.03 L1492.49 1516.95 L1474.9 1516.95 L1474.9 1527.54 Q1476.17 1527.1 1477.44 1526.9 Q1478.71 1526.67 1479.99 1526.67 Q1487.22 1526.67 1491.45 1530.63 Q1495.67 1534.6 1495.67 1541.37 Q1495.67 1548.34 1491.33 1552.22 Q1486.99 1556.07 1479.09 1556.07 Q1476.37 1556.07 1473.54 1555.61 Q1470.73 1555.14 1467.72 1554.22 L1467.72 1548.34 Q1470.32 1549.76 1473.1 1550.45 Q1475.88 1551.15 1478.98 1551.15 Q1483.98 1551.15 1486.9 1548.52 Q1489.83 1545.88 1489.83 1541.37 Q1489.83 1536.86 1486.9 1534.22 Q1483.98 1531.59 1478.98 1531.59 Q1476.63 1531.59 1474.29 1532.11 Q1471.97 1532.63 1469.54 1533.73 L1469.54 1512.03 Z" fill="#000000" fill-rule="nonzero" fill-opacity="1" /><path clip-path="url(#clip460)" d="M1507.19 1547.88 L1513.29 1547.88 L1513.29 1555.23 L1507.19 1555.23 L1507.19 1547.88 Z" fill="#000000" fill-rule="nonzero" fill-opacity="1" /><path clip-path="url(#clip460)" d="M1538.52 1515.88 Q1534.01 1515.88 1531.72 1520.33 Q1529.47 1524.76 1529.47 1533.67 Q1529.47 1542.56 1531.72 1547.01 Q1534.01 1551.44 1538.52 1551.44 Q1543.07 1551.44 1545.32 1547.01 Q1547.61 1542.56 1547.61 1533.67 Q1547.61 1524.76 1545.32 1520.33 Q1543.07 1515.88 1538.52 1515.88 M1538.52 1511.25 Q1545.79 1511.25 1549.61 1517.01 Q1553.45 1522.73 1553.45 1533.67 Q1553.45 1544.58 1549.61 1550.34 Q1545.79 1556.07 1538.52 1556.07 Q1531.26 1556.07 1527.41 1550.34 Q1523.59 1544.58 1523.59 1533.67 Q1523.59 1522.73 1527.41 1517.01 Q1531.26 1511.25 1538.52 1511.25 Z" fill="#000000" fill-rule="nonzero" fill-opacity="1" /><path clip-path="url(#clip460)" d="M1598.94 1523.4 L1585.72 1536.68 L1598.94 1549.9 L1595.5 1553.41 L1582.22 1540.12 L1568.93 1553.41 L1565.52 1549.9 L1578.71 1536.68 L1565.52 1523.4 L1568.93 1519.9 L1582.22 1533.18 L1595.5 1519.9 L1598.94 1523.4 Z" fill="#000000" fill-rule="nonzero" fill-opacity="1" /><path clip-path="url(#clip460)" d="M1614.39 1550.31 L1623.94 1550.31 L1623.94 1517.35 L1613.55 1519.44 L1613.55 1514.11 L1623.88 1512.03 L1629.73 1512.03 L1629.73 1550.31 L1639.28 1550.31 L1639.28 1555.23 L1614.39 1555.23 L1614.39 1550.31 Z" fill="#000000" fill-rule="nonzero" fill-opacity="1" /><path clip-path="url(#clip460)" d="M1663.58 1515.88 Q1659.07 1515.88 1656.78 1520.33 Q1654.52 1524.76 1654.52 1533.67 Q1654.52 1542.56 1656.78 1547.01 Q1659.07 1551.44 1663.58 1551.44 Q1668.12 1551.44 1670.38 1547.01 Q1672.67 1542.56 1672.67 1533.67 Q1672.67 1524.76 1670.38 1520.33 Q1668.12 1515.88 1663.58 1515.88 M1663.58 1511.25 Q1670.84 1511.25 1674.66 1517.01 Q1678.51 1522.73 1678.51 1533.67 Q1678.51 1544.58 1674.66 1550.34 Q1670.84 1556.07 1663.58 1556.07 Q1656.32 1556.07 1652.47 1550.34 Q1648.65 1544.58 1648.65 1533.67 Q1648.65 1522.73 1652.47 1517.01 Q1656.32 1511.25 1663.58 1511.25 Z" fill="#000000" fill-rule="nonzero" fill-opacity="1" /><path clip-path="url(#clip460)" d="M1694.38 1502.04 Q1697.79 1502.77 1699.69 1505.07 Q1701.62 1507.38 1701.62 1510.76 Q1701.62 1515.96 1698.05 1518.8 Q1694.47 1521.65 1687.89 1521.65 Q1685.68 1521.65 1683.33 1521.2 Q1681 1520.78 1678.51 1519.91 L1678.51 1515.32 Q1680.49 1516.48 1682.84 1517.06 Q1685.19 1517.65 1687.75 1517.65 Q1692.22 1517.65 1694.54 1515.89 Q1696.9 1514.12 1696.9 1510.76 Q1696.9 1507.66 1694.71 1505.92 Q1692.55 1504.16 1688.67 1504.16 L1684.58 1504.16 L1684.58 1500.25 L1688.86 1500.25 Q1692.36 1500.25 1694.22 1498.87 Q1696.07 1497.46 1696.07 1494.82 Q1696.07 1492.12 1694.15 1490.69 Q1692.24 1489.23 1688.67 1489.23 Q1686.72 1489.23 1684.48 1489.65 Q1682.25 1490.07 1679.57 1490.97 L1679.57 1486.74 Q1682.27 1485.98 1684.62 1485.61 Q1687 1485.23 1689.09 1485.23 Q1694.5 1485.23 1697.65 1487.7 Q1700.8 1490.14 1700.8 1494.33 Q1700.8 1497.24 1699.13 1499.27 Q1697.46 1501.26 1694.38 1502.04 Z" fill="#000000" fill-rule="nonzero" fill-opacity="1" /><path clip-path="url(#clip460)" d="M1878.61 1550.31 L1888.16 1550.31 L1888.16 1517.35 L1877.77 1519.44 L1877.77 1514.11 L1888.1 1512.03 L1893.95 1512.03 L1893.95 1550.31 L1903.5 1550.31 L1903.5 1555.23 L1878.61 1555.23 L1878.61 1550.31 Z" fill="#000000" fill-rule="nonzero" fill-opacity="1" /><path clip-path="url(#clip460)" d="M1915.3 1547.88 L1921.41 1547.88 L1921.41 1555.23 L1915.3 1555.23 L1915.3 1547.88 Z" fill="#000000" fill-rule="nonzero" fill-opacity="1" /><path clip-path="url(#clip460)" d="M1946.64 1515.88 Q1942.13 1515.88 1939.84 1520.33 Q1937.58 1524.76 1937.58 1533.67 Q1937.58 1542.56 1939.84 1547.01 Q1942.13 1551.44 1946.64 1551.44 Q1951.18 1551.44 1953.44 1547.01 Q1955.73 1542.56 1955.73 1533.67 Q1955.73 1524.76 1953.44 1520.33 Q1951.18 1515.88 1946.64 1515.88 M1946.64 1511.25 Q1953.9 1511.25 1957.72 1517.01 Q1961.57 1522.73 1961.57 1533.67 Q1961.57 1544.58 1957.72 1550.34 Q1953.9 1556.07 1946.64 1556.07 Q1939.38 1556.07 1935.53 1550.34 Q1931.71 1544.58 1931.71 1533.67 Q1931.71 1522.73 1935.53 1517.01 Q1939.38 1511.25 1946.64 1511.25 Z" fill="#000000" fill-rule="nonzero" fill-opacity="1" /><path clip-path="url(#clip460)" d="M2007.06 1523.4 L1993.83 1536.68 L2007.06 1549.9 L2003.61 1553.41 L1990.33 1540.12 L1977.05 1553.41 L1973.64 1549.9 L1986.83 1536.68 L1973.64 1523.4 L1977.05 1519.9 L1990.33 1533.18 L2003.61 1519.9 L2007.06 1523.4 Z" fill="#000000" fill-rule="nonzero" fill-opacity="1" /><path clip-path="url(#clip460)" d="M2022.51 1550.31 L2032.06 1550.31 L2032.06 1517.35 L2021.67 1519.44 L2021.67 1514.11 L2032 1512.03 L2037.84 1512.03 L2037.84 1550.31 L2047.39 1550.31 L2047.39 1555.23 L2022.51 1555.23 L2022.51 1550.31 Z" fill="#000000" fill-rule="nonzero" fill-opacity="1" /><path clip-path="url(#clip460)" d="M2071.7 1515.88 Q2067.18 1515.88 2064.9 1520.33 Q2062.64 1524.76 2062.64 1533.67 Q2062.64 1542.56 2064.9 1547.01 Q2067.18 1551.44 2071.7 1551.44 Q2076.24 1551.44 2078.5 1547.01 Q2080.78 1542.56 2080.78 1533.67 Q2080.78 1524.76 2078.5 1520.33 Q2076.24 1515.88 2071.7 1515.88 M2071.7 1511.25 Q2078.96 1511.25 2082.78 1517.01 Q2086.63 1522.73 2086.63 1533.67 Q2086.63 1544.58 2082.78 1550.34 Q2078.96 1556.07 2071.7 1556.07 Q2064.43 1556.07 2060.59 1550.34 Q2056.77 1544.58 2056.77 1533.67 Q2056.77 1522.73 2060.59 1517.01 Q2064.43 1511.25 2071.7 1511.25 Z" fill="#000000" fill-rule="nonzero" fill-opacity="1" /><path clip-path="url(#clip460)" d="M2102.47 1490 L2090.48 1508.74 L2102.47 1508.74 L2102.47 1490 M2101.23 1485.87 L2107.2 1485.87 L2107.2 1508.74 L2112.21 1508.74 L2112.21 1512.69 L2107.2 1512.69 L2107.2 1520.97 L2102.47 1520.97 L2102.47 1512.69 L2086.63 1512.69 L2086.63 1508.11 L2101.23 1485.87 Z" fill="#000000" fill-rule="nonzero" fill-opacity="1" /><polyline clip-path="url(#clip462)" style="stroke:#000000; stroke-linecap:round; stroke-linejoin:round; stroke-width:2; stroke-opacity:0.1; fill:none" points="324.202,1462.45 2352.76,1462.45 "/>
<polyline clip-path="url(#clip462)" style="stroke:#000000; stroke-linecap:round; stroke-linejoin:round; stroke-width:2; stroke-opacity:0.1; fill:none" points="324.202,1034.27 2352.76,1034.27 "/>
<polyline clip-path="url(#clip462)" style="stroke:#000000; stroke-linecap:round; stroke-linejoin:round; stroke-width:2; stroke-opacity:0.1; fill:none" points="324.202,606.085 2352.76,606.085 "/>
<polyline clip-path="url(#clip462)" style="stroke:#000000; stroke-linecap:round; stroke-linejoin:round; stroke-width:2; stroke-opacity:0.1; fill:none" points="324.202,177.9 2352.76,177.9 "/>
<polyline clip-path="url(#clip460)" style="stroke:#000000; stroke-linecap:round; stroke-linejoin:round; stroke-width:4; stroke-opacity:1; fill:none" points="324.202,1462.45 324.202,47.2441 "/>
<polyline clip-path="url(#clip460)" style="stroke:#000000; stroke-linecap:round; stroke-linejoin:round; stroke-width:4; stroke-opacity:1; fill:none" points="324.202,1462.45 343.099,1462.45 "/>
<polyline clip-path="url(#clip460)" style="stroke:#000000; stroke-linecap:round; stroke-linejoin:round; stroke-width:4; stroke-opacity:1; fill:none" points="324.202,1034.27 343.099,1034.27 "/>
<polyline clip-path="url(#clip460)" style="stroke:#000000; stroke-linecap:round; stroke-linejoin:round; stroke-width:4; stroke-opacity:1; fill:none" points="324.202,606.085 343.099,606.085 "/>
<polyline clip-path="url(#clip460)" style="stroke:#000000; stroke-linecap:round; stroke-linejoin:round; stroke-width:4; stroke-opacity:1; fill:none" points="324.202,177.9 343.099,177.9 "/>
<path clip-path="url(#clip460)" d="M65.9226 1444.7 Q61.4087 1444.7 59.1229 1449.16 Q56.8659 1453.59 56.8659 1462.5 Q56.8659 1471.38 59.1229 1475.84 Q61.4087 1480.26 65.9226 1480.26 Q70.4654 1480.26 72.7223 1475.84 Q75.0082 1471.38 75.0082 1462.5 Q75.0082 1453.59 72.7223 1449.16 Q70.4654 1444.7 65.9226 1444.7 M65.9226 1440.07 Q73.1853 1440.07 77.0047 1445.83 Q80.8531 1451.56 80.8531 1462.5 Q80.8531 1473.41 77.0047 1479.16 Q73.1853 1484.89 65.9226 1484.89 Q58.6599 1484.89 54.8115 1479.16 Q50.9921 1473.41 50.9921 1462.5 Q50.9921 1451.56 54.8115 1445.83 Q58.6599 1440.07 65.9226 1440.07 Z" fill="#000000" fill-rule="nonzero" fill-opacity="1" /><path clip-path="url(#clip460)" d="M91.125 1476.7 L97.2303 1476.7 L97.2303 1484.05 L91.125 1484.05 L91.125 1476.7 Z" fill="#000000" fill-rule="nonzero" fill-opacity="1" /><path clip-path="url(#clip460)" d="M122.462 1444.7 Q117.948 1444.7 115.662 1449.16 Q113.405 1453.59 113.405 1462.5 Q113.405 1471.38 115.662 1475.84 Q117.948 1480.26 122.462 1480.26 Q127.004 1480.26 129.261 1475.84 Q131.547 1471.38 131.547 1462.5 Q131.547 1453.59 129.261 1449.16 Q127.004 1444.7 122.462 1444.7 M122.462 1440.07 Q129.724 1440.07 133.544 1445.83 Q137.392 1451.56 137.392 1462.5 Q137.392 1473.41 133.544 1479.16 Q129.724 1484.89 122.462 1484.89 Q115.199 1484.89 111.351 1479.16 Q107.531 1473.41 107.531 1462.5 Q107.531 1451.56 111.351 1445.83 Q115.199 1440.07 122.462 1440.07 Z" fill="#000000" fill-rule="nonzero" fill-opacity="1" /><path clip-path="url(#clip460)" d="M160.164 1444.7 Q155.65 1444.7 153.364 1449.16 Q151.107 1453.59 151.107 1462.5 Q151.107 1471.38 153.364 1475.84 Q155.65 1480.26 160.164 1480.26 Q164.707 1480.26 166.964 1475.84 Q169.25 1471.38 169.25 1462.5 Q169.25 1453.59 166.964 1449.16 Q164.707 1444.7 160.164 1444.7 M160.164 1440.07 Q167.427 1440.07 171.246 1445.83 Q175.094 1451.56 175.094 1462.5 Q175.094 1473.41 171.246 1479.16 Q167.427 1484.89 160.164 1484.89 Q152.901 1484.89 149.053 1479.16 Q145.234 1473.41 145.234 1462.5 Q145.234 1451.56 149.053 1445.83 Q152.901 1440.07 160.164 1440.07 Z" fill="#000000" fill-rule="nonzero" fill-opacity="1" /><path clip-path="url(#clip460)" d="M197.866 1444.7 Q193.352 1444.7 191.067 1449.16 Q188.81 1453.59 188.81 1462.5 Q188.81 1471.38 191.067 1475.84 Q193.352 1480.26 197.866 1480.26 Q202.409 1480.26 204.666 1475.84 Q206.952 1471.38 206.952 1462.5 Q206.952 1453.59 204.666 1449.16 Q202.409 1444.7 197.866 1444.7 M197.866 1440.07 Q205.129 1440.07 208.948 1445.83 Q212.797 1451.56 212.797 1462.5 Q212.797 1473.41 208.948 1479.16 Q205.129 1484.89 197.866 1484.89 Q190.604 1484.89 186.755 1479.16 Q182.936 1473.41 182.936 1462.5 Q182.936 1451.56 186.755 1445.83 Q190.604 1440.07 197.866 1440.07 Z" fill="#000000" fill-rule="nonzero" fill-opacity="1" /><path clip-path="url(#clip460)" d="M235.569 1444.7 Q231.055 1444.7 228.769 1449.16 Q226.512 1453.59 226.512 1462.5 Q226.512 1471.38 228.769 1475.84 Q231.055 1480.26 235.569 1480.26 Q240.111 1480.26 242.368 1475.84 Q244.654 1471.38 244.654 1462.5 Q244.654 1453.59 242.368 1449.16 Q240.111 1444.7 235.569 1444.7 M235.569 1440.07 Q242.831 1440.07 246.651 1445.83 Q250.499 1451.56 250.499 1462.5 Q250.499 1473.41 246.651 1479.16 Q242.831 1484.89 235.569 1484.89 Q228.306 1484.89 224.458 1479.16 Q220.638 1473.41 220.638 1462.5 Q220.638 1451.56 224.458 1445.83 Q228.306 1440.07 235.569 1440.07 Z" fill="#000000" fill-rule="nonzero" fill-opacity="1" /><path clip-path="url(#clip460)" d="M273.271 1444.7 Q268.757 1444.7 266.471 1449.16 Q264.214 1453.59 264.214 1462.5 Q264.214 1471.38 266.471 1475.84 Q268.757 1480.26 273.271 1480.26 Q277.814 1480.26 280.071 1475.84 Q282.357 1471.38 282.357 1462.5 Q282.357 1453.59 280.071 1449.16 Q277.814 1444.7 273.271 1444.7 M273.271 1440.07 Q280.534 1440.07 284.353 1445.83 Q288.202 1451.56 288.202 1462.5 Q288.202 1473.41 284.353 1479.16 Q280.534 1484.89 273.271 1484.89 Q266.008 1484.89 262.16 1479.16 Q258.341 1473.41 258.341 1462.5 Q258.341 1451.56 262.16 1445.83 Q266.008 1440.07 273.271 1440.07 Z" fill="#000000" fill-rule="nonzero" fill-opacity="1" /><path clip-path="url(#clip460)" d="M67.1668 1016.52 Q62.6529 1016.52 60.3671 1020.97 Q58.1101 1025.4 58.1101 1034.31 Q58.1101 1043.2 60.3671 1047.65 Q62.6529 1052.08 67.1668 1052.08 Q71.7096 1052.08 73.9665 1047.65 Q76.2524 1043.2 76.2524 1034.31 Q76.2524 1025.4 73.9665 1020.97 Q71.7096 1016.52 67.1668 1016.52 M67.1668 1011.89 Q74.4295 1011.89 78.2489 1017.65 Q82.0973 1023.38 82.0973 1034.31 Q82.0973 1045.22 78.2489 1050.98 Q74.4295 1056.71 67.1668 1056.71 Q59.9041 1056.71 56.0558 1050.98 Q52.2363 1045.22 52.2363 1034.31 Q52.2363 1023.38 56.0558 1017.65 Q59.9041 1011.89 67.1668 1011.89 Z" fill="#000000" fill-rule="nonzero" fill-opacity="1" /><path clip-path="url(#clip460)" d="M92.3692 1048.52 L98.4745 1048.52 L98.4745 1055.87 L92.3692 1055.87 L92.3692 1048.52 Z" fill="#000000" fill-rule="nonzero" fill-opacity="1" /><path clip-path="url(#clip460)" d="M123.706 1016.52 Q119.192 1016.52 116.906 1020.97 Q114.649 1025.4 114.649 1034.31 Q114.649 1043.2 116.906 1047.65 Q119.192 1052.08 123.706 1052.08 Q128.249 1052.08 130.506 1047.65 Q132.791 1043.2 132.791 1034.31 Q132.791 1025.4 130.506 1020.97 Q128.249 1016.52 123.706 1016.52 M123.706 1011.89 Q130.969 1011.89 134.788 1017.65 Q138.636 1023.38 138.636 1034.31 Q138.636 1045.22 134.788 1050.98 Q130.969 1056.71 123.706 1056.71 Q116.443 1056.71 112.595 1050.98 Q108.775 1045.22 108.775 1034.31 Q108.775 1023.38 112.595 1017.65 Q116.443 1011.89 123.706 1011.89 Z" fill="#000000" fill-rule="nonzero" fill-opacity="1" /><path clip-path="url(#clip460)" d="M161.408 1016.52 Q156.894 1016.52 154.608 1020.97 Q152.352 1025.4 152.352 1034.31 Q152.352 1043.2 154.608 1047.65 Q156.894 1052.08 161.408 1052.08 Q165.951 1052.08 168.208 1047.65 Q170.494 1043.2 170.494 1034.31 Q170.494 1025.4 168.208 1020.97 Q165.951 1016.52 161.408 1016.52 M161.408 1011.89 Q168.671 1011.89 172.49 1017.65 Q176.339 1023.38 176.339 1034.31 Q176.339 1045.22 172.49 1050.98 Q168.671 1056.71 161.408 1056.71 Q154.146 1056.71 150.297 1050.98 Q146.478 1045.22 146.478 1034.31 Q146.478 1023.38 150.297 1017.65 Q154.146 1011.89 161.408 1011.89 Z" fill="#000000" fill-rule="nonzero" fill-opacity="1" /><path clip-path="url(#clip460)" d="M199.111 1016.52 Q194.597 1016.52 192.311 1020.97 Q190.054 1025.4 190.054 1034.31 Q190.054 1043.2 192.311 1047.65 Q194.597 1052.08 199.111 1052.08 Q203.653 1052.08 205.91 1047.65 Q208.196 1043.2 208.196 1034.31 Q208.196 1025.4 205.91 1020.97 Q203.653 1016.52 199.111 1016.52 M199.111 1011.89 Q206.373 1011.89 210.193 1017.65 Q214.041 1023.38 214.041 1034.31 Q214.041 1045.22 210.193 1050.98 Q206.373 1056.71 199.111 1056.71 Q191.848 1056.71 187.999 1050.98 Q184.18 1045.22 184.18 1034.31 Q184.18 1023.38 187.999 1017.65 Q191.848 1011.89 199.111 1011.89 Z" fill="#000000" fill-rule="nonzero" fill-opacity="1" /><path clip-path="url(#clip460)" d="M236.813 1016.52 Q232.299 1016.52 230.013 1020.97 Q227.756 1025.4 227.756 1034.31 Q227.756 1043.2 230.013 1047.65 Q232.299 1052.08 236.813 1052.08 Q241.356 1052.08 243.613 1047.65 Q245.898 1043.2 245.898 1034.31 Q245.898 1025.4 243.613 1020.97 Q241.356 1016.52 236.813 1016.52 M236.813 1011.89 Q244.076 1011.89 247.895 1017.65 Q251.743 1023.38 251.743 1034.31 Q251.743 1045.22 247.895 1050.98 Q244.076 1056.71 236.813 1056.71 Q229.55 1056.71 225.702 1050.98 Q221.882 1045.22 221.882 1034.31 Q221.882 1023.38 225.702 1017.65 Q229.55 1011.89 236.813 1011.89 Z" fill="#000000" fill-rule="nonzero" fill-opacity="1" /><path clip-path="url(#clip460)" d="M262.073 1012.67 L285.019 1012.67 L285.019 1017.59 L267.426 1017.59 L267.426 1028.18 Q268.699 1027.74 269.972 1027.54 Q271.246 1027.31 272.519 1027.31 Q279.752 1027.31 283.977 1031.27 Q288.202 1035.24 288.202 1042.01 Q288.202 1048.98 283.861 1052.86 Q279.521 1056.71 271.622 1056.71 Q268.902 1056.71 266.066 1056.25 Q263.26 1055.78 260.25 1054.86 L260.25 1048.98 Q262.854 1050.4 265.632 1051.1 Q268.41 1051.79 271.506 1051.79 Q276.512 1051.79 279.434 1049.16 Q282.357 1046.52 282.357 1042.01 Q282.357 1037.5 279.434 1034.86 Q276.512 1032.23 271.506 1032.23 Q269.162 1032.23 266.819 1032.75 Q264.504 1033.27 262.073 1034.37 L262.073 1012.67 Z" fill="#000000" fill-rule="nonzero" fill-opacity="1" /><path clip-path="url(#clip460)" d="M65.9226 588.333 Q61.4087 588.333 59.1229 592.789 Q56.8659 597.216 56.8659 606.128 Q56.8659 615.011 59.1229 619.467 Q61.4087 623.894 65.9226 623.894 Q70.4654 623.894 72.7223 619.467 Q75.0082 615.011 75.0082 606.128 Q75.0082 597.216 72.7223 592.789 Q70.4654 588.333 65.9226 588.333 M65.9226 583.704 Q73.1853 583.704 77.0047 589.462 Q80.8531 595.191 80.8531 606.128 Q80.8531 617.037 77.0047 622.795 Q73.1853 628.524 65.9226 628.524 Q58.6599 628.524 54.8115 622.795 Q50.9921 617.037 50.9921 606.128 Q50.9921 595.191 54.8115 589.462 Q58.6599 583.704 65.9226 583.704 Z" fill="#000000" fill-rule="nonzero" fill-opacity="1" /><path clip-path="url(#clip460)" d="M91.125 620.335 L97.2303 620.335 L97.2303 627.685 L91.125 627.685 L91.125 620.335 Z" fill="#000000" fill-rule="nonzero" fill-opacity="1" /><path clip-path="url(#clip460)" d="M122.462 588.333 Q117.948 588.333 115.662 592.789 Q113.405 597.216 113.405 606.128 Q113.405 615.011 115.662 619.467 Q117.948 623.894 122.462 623.894 Q127.004 623.894 129.261 619.467 Q131.547 615.011 131.547 606.128 Q131.547 597.216 129.261 592.789 Q127.004 588.333 122.462 588.333 M122.462 583.704 Q129.724 583.704 133.544 589.462 Q137.392 595.191 137.392 606.128 Q137.392 617.037 133.544 622.795 Q129.724 628.524 122.462 628.524 Q115.199 628.524 111.351 622.795 Q107.531 617.037 107.531 606.128 Q107.531 595.191 111.351 589.462 Q115.199 583.704 122.462 583.704 Z" fill="#000000" fill-rule="nonzero" fill-opacity="1" /><path clip-path="url(#clip460)" d="M160.164 588.333 Q155.65 588.333 153.364 592.789 Q151.107 597.216 151.107 606.128 Q151.107 615.011 153.364 619.467 Q155.65 623.894 160.164 623.894 Q164.707 623.894 166.964 619.467 Q169.25 615.011 169.25 606.128 Q169.25 597.216 166.964 592.789 Q164.707 588.333 160.164 588.333 M160.164 583.704 Q167.427 583.704 171.246 589.462 Q175.094 595.191 175.094 606.128 Q175.094 617.037 171.246 622.795 Q167.427 628.524 160.164 628.524 Q152.901 628.524 149.053 622.795 Q145.234 617.037 145.234 606.128 Q145.234 595.191 149.053 589.462 Q152.901 583.704 160.164 583.704 Z" fill="#000000" fill-rule="nonzero" fill-opacity="1" /><path clip-path="url(#clip460)" d="M197.866 588.333 Q193.352 588.333 191.067 592.789 Q188.81 597.216 188.81 606.128 Q188.81 615.011 191.067 619.467 Q193.352 623.894 197.866 623.894 Q202.409 623.894 204.666 619.467 Q206.952 615.011 206.952 606.128 Q206.952 597.216 204.666 592.789 Q202.409 588.333 197.866 588.333 M197.866 583.704 Q205.129 583.704 208.948 589.462 Q212.797 595.191 212.797 606.128 Q212.797 617.037 208.948 622.795 Q205.129 628.524 197.866 628.524 Q190.604 628.524 186.755 622.795 Q182.936 617.037 182.936 606.128 Q182.936 595.191 186.755 589.462 Q190.604 583.704 197.866 583.704 Z" fill="#000000" fill-rule="nonzero" fill-opacity="1" /><path clip-path="url(#clip460)" d="M224.081 622.766 L233.63 622.766 L233.63 589.809 L223.242 591.892 L223.242 586.568 L233.572 584.485 L239.417 584.485 L239.417 622.766 L248.966 622.766 L248.966 627.685 L224.081 627.685 L224.081 622.766 Z" fill="#000000" fill-rule="nonzero" fill-opacity="1" /><path clip-path="url(#clip460)" d="M273.271 588.333 Q268.757 588.333 266.471 592.789 Q264.214 597.216 264.214 606.128 Q264.214 615.011 266.471 619.467 Q268.757 623.894 273.271 623.894 Q277.814 623.894 280.071 619.467 Q282.357 615.011 282.357 606.128 Q282.357 597.216 280.071 592.789 Q277.814 588.333 273.271 588.333 M273.271 583.704 Q280.534 583.704 284.353 589.462 Q288.202 595.191 288.202 606.128 Q288.202 617.037 284.353 622.795 Q280.534 628.524 273.271 628.524 Q266.008 628.524 262.16 622.795 Q258.341 617.037 258.341 606.128 Q258.341 595.191 262.16 589.462 Q266.008 583.704 273.271 583.704 Z" fill="#000000" fill-rule="nonzero" fill-opacity="1" /><path clip-path="url(#clip460)" d="M67.1668 160.149 Q62.6529 160.149 60.3671 164.605 Q58.1101 169.032 58.1101 177.944 Q58.1101 186.827 60.3671 191.283 Q62.6529 195.71 67.1668 195.71 Q71.7096 195.71 73.9665 191.283 Q76.2524 186.827 76.2524 177.944 Q76.2524 169.032 73.9665 164.605 Q71.7096 160.149 67.1668 160.149 M67.1668 155.519 Q74.4295 155.519 78.2489 161.277 Q82.0973 167.006 82.0973 177.944 Q82.0973 188.852 78.2489 194.61 Q74.4295 200.339 67.1668 200.339 Q59.9041 200.339 56.0558 194.61 Q52.2363 188.852 52.2363 177.944 Q52.2363 167.006 56.0558 161.277 Q59.9041 155.519 67.1668 155.519 Z" fill="#000000" fill-rule="nonzero" fill-opacity="1" /><path clip-path="url(#clip460)" d="M92.3692 192.151 L98.4745 192.151 L98.4745 199.5 L92.3692 199.5 L92.3692 192.151 Z" fill="#000000" fill-rule="nonzero" fill-opacity="1" /><path clip-path="url(#clip460)" d="M123.706 160.149 Q119.192 160.149 116.906 164.605 Q114.649 169.032 114.649 177.944 Q114.649 186.827 116.906 191.283 Q119.192 195.71 123.706 195.71 Q128.249 195.71 130.506 191.283 Q132.791 186.827 132.791 177.944 Q132.791 169.032 130.506 164.605 Q128.249 160.149 123.706 160.149 M123.706 155.519 Q130.969 155.519 134.788 161.277 Q138.636 167.006 138.636 177.944 Q138.636 188.852 134.788 194.61 Q130.969 200.339 123.706 200.339 Q116.443 200.339 112.595 194.61 Q108.775 188.852 108.775 177.944 Q108.775 167.006 112.595 161.277 Q116.443 155.519 123.706 155.519 Z" fill="#000000" fill-rule="nonzero" fill-opacity="1" /><path clip-path="url(#clip460)" d="M161.408 160.149 Q156.894 160.149 154.608 164.605 Q152.352 169.032 152.352 177.944 Q152.352 186.827 154.608 191.283 Q156.894 195.71 161.408 195.71 Q165.951 195.71 168.208 191.283 Q170.494 186.827 170.494 177.944 Q170.494 169.032 168.208 164.605 Q165.951 160.149 161.408 160.149 M161.408 155.519 Q168.671 155.519 172.49 161.277 Q176.339 167.006 176.339 177.944 Q176.339 188.852 172.49 194.61 Q168.671 200.339 161.408 200.339 Q154.146 200.339 150.297 194.61 Q146.478 188.852 146.478 177.944 Q146.478 167.006 150.297 161.277 Q154.146 155.519 161.408 155.519 Z" fill="#000000" fill-rule="nonzero" fill-opacity="1" /><path clip-path="url(#clip460)" d="M199.111 160.149 Q194.597 160.149 192.311 164.605 Q190.054 169.032 190.054 177.944 Q190.054 186.827 192.311 191.283 Q194.597 195.71 199.111 195.71 Q203.653 195.71 205.91 191.283 Q208.196 186.827 208.196 177.944 Q208.196 169.032 205.91 164.605 Q203.653 160.149 199.111 160.149 M199.111 155.519 Q206.373 155.519 210.193 161.277 Q214.041 167.006 214.041 177.944 Q214.041 188.852 210.193 194.61 Q206.373 200.339 199.111 200.339 Q191.848 200.339 187.999 194.61 Q184.18 188.852 184.18 177.944 Q184.18 167.006 187.999 161.277 Q191.848 155.519 199.111 155.519 Z" fill="#000000" fill-rule="nonzero" fill-opacity="1" /><path clip-path="url(#clip460)" d="M225.326 194.581 L234.874 194.581 L234.874 161.624 L224.487 163.708 L224.487 158.384 L234.816 156.3 L240.661 156.3 L240.661 194.581 L250.21 194.581 L250.21 199.5 L225.326 199.5 L225.326 194.581 Z" fill="#000000" fill-rule="nonzero" fill-opacity="1" /><path clip-path="url(#clip460)" d="M262.073 156.3 L285.019 156.3 L285.019 161.219 L267.426 161.219 L267.426 171.809 Q268.699 171.375 269.972 171.173 Q271.246 170.941 272.519 170.941 Q279.752 170.941 283.977 174.905 Q288.202 178.87 288.202 185.64 Q288.202 192.614 283.861 196.491 Q279.521 200.339 271.622 200.339 Q268.902 200.339 266.066 199.876 Q263.26 199.413 260.25 198.488 L260.25 192.614 Q262.854 194.032 265.632 194.726 Q268.41 195.42 271.506 195.42 Q276.512 195.42 279.434 192.787 Q282.357 190.154 282.357 185.64 Q282.357 181.127 279.434 178.493 Q276.512 175.86 271.506 175.86 Q269.162 175.86 266.819 176.381 Q264.504 176.902 262.073 178.002 L262.073 156.3 Z" fill="#000000" fill-rule="nonzero" fill-opacity="1" /><path clip-path="url(#clip462)" d="M435.776 1429.02 L435.776 1462.45 L476.808 1462.45 L476.808 1429.02 L435.776 1429.02 L435.776 1429.02  Z" fill="#0000ff" fill-rule="evenodd" fill-opacity="0.5"/>
<polyline clip-path="url(#clip462)" style="stroke:#000000; stroke-linecap:round; stroke-linejoin:round; stroke-width:4; stroke-opacity:0.5; fill:none" points="435.776,1429.02 435.776,1462.45 476.808,1462.45 476.808,1429.02 435.776,1429.02 "/>
<path clip-path="url(#clip462)" d="M476.808 1406.74 L476.808 1462.45 L517.84 1462.45 L517.84 1406.74 L476.808 1406.74 L476.808 1406.74  Z" fill="#0000ff" fill-rule="evenodd" fill-opacity="0.5"/>
<polyline clip-path="url(#clip462)" style="stroke:#000000; stroke-linecap:round; stroke-linejoin:round; stroke-width:4; stroke-opacity:0.5; fill:none" points="476.808,1406.74 476.808,1462.45 517.84,1462.45 517.84,1406.74 476.808,1406.74 "/>
<path clip-path="url(#clip462)" d="M517.84 1440.17 L517.84 1462.45 L558.871 1462.45 L558.871 1440.17 L517.84 1440.17 L517.84 1440.17  Z" fill="#0000ff" fill-rule="evenodd" fill-opacity="0.5"/>
<polyline clip-path="url(#clip462)" style="stroke:#000000; stroke-linecap:round; stroke-linejoin:round; stroke-width:4; stroke-opacity:0.5; fill:none" points="517.84,1440.17 517.84,1462.45 558.871,1462.45 558.871,1440.17 517.84,1440.17 "/>
<path clip-path="url(#clip462)" d="M558.871 1384.45 L558.871 1462.45 L599.903 1462.45 L599.903 1384.45 L558.871 1384.45 L558.871 1384.45  Z" fill="#0000ff" fill-rule="evenodd" fill-opacity="0.5"/>
<polyline clip-path="url(#clip462)" style="stroke:#000000; stroke-linecap:round; stroke-linejoin:round; stroke-width:4; stroke-opacity:0.5; fill:none" points="558.871,1384.45 558.871,1462.45 599.903,1462.45 599.903,1384.45 558.871,1384.45 "/>
<path clip-path="url(#clip462)" d="M599.903 1401.17 L599.903 1462.45 L640.935 1462.45 L640.935 1401.17 L599.903 1401.17 L599.903 1401.17  Z" fill="#0000ff" fill-rule="evenodd" fill-opacity="0.5"/>
<polyline clip-path="url(#clip462)" style="stroke:#000000; stroke-linecap:round; stroke-linejoin:round; stroke-width:4; stroke-opacity:0.5; fill:none" points="599.903,1401.17 599.903,1462.45 640.935,1462.45 640.935,1401.17 599.903,1401.17 "/>
<path clip-path="url(#clip462)" d="M640.935 1295.3 L640.935 1462.45 L681.967 1462.45 L681.967 1295.3 L640.935 1295.3 L640.935 1295.3  Z" fill="#0000ff" fill-rule="evenodd" fill-opacity="0.5"/>
<polyline clip-path="url(#clip462)" style="stroke:#000000; stroke-linecap:round; stroke-linejoin:round; stroke-width:4; stroke-opacity:0.5; fill:none" points="640.935,1295.3 640.935,1462.45 681.967,1462.45 681.967,1295.3 640.935,1295.3 "/>
<path clip-path="url(#clip462)" d="M681.967 1278.59 L681.967 1462.45 L722.999 1462.45 L722.999 1278.59 L681.967 1278.59 L681.967 1278.59  Z" fill="#0000ff" fill-rule="evenodd" fill-opacity="0.5"/>
<polyline clip-path="url(#clip462)" style="stroke:#000000; stroke-linecap:round; stroke-linejoin:round; stroke-width:4; stroke-opacity:0.5; fill:none" points="681.967,1278.59 681.967,1462.45 722.999,1462.45 722.999,1278.59 681.967,1278.59 "/>
<path clip-path="url(#clip462)" d="M722.999 1256.3 L722.999 1462.45 L764.031 1462.45 L764.031 1256.3 L722.999 1256.3 L722.999 1256.3  Z" fill="#0000ff" fill-rule="evenodd" fill-opacity="0.5"/>
<polyline clip-path="url(#clip462)" style="stroke:#000000; stroke-linecap:round; stroke-linejoin:round; stroke-width:4; stroke-opacity:0.5; fill:none" points="722.999,1256.3 722.999,1462.45 764.031,1462.45 764.031,1256.3 722.999,1256.3 "/>
<path clip-path="url(#clip462)" d="M764.031 1133.72 L764.031 1462.45 L805.063 1462.45 L805.063 1133.72 L764.031 1133.72 L764.031 1133.72  Z" fill="#0000ff" fill-rule="evenodd" fill-opacity="0.5"/>
<polyline clip-path="url(#clip462)" style="stroke:#000000; stroke-linecap:round; stroke-linejoin:round; stroke-width:4; stroke-opacity:0.5; fill:none" points="764.031,1133.72 764.031,1462.45 805.063,1462.45 805.063,1133.72 764.031,1133.72 "/>
<path clip-path="url(#clip462)" d="M805.063 1083.58 L805.063 1462.45 L846.095 1462.45 L846.095 1083.58 L805.063 1083.58 L805.063 1083.58  Z" fill="#0000ff" fill-rule="evenodd" fill-opacity="0.5"/>
<polyline clip-path="url(#clip462)" style="stroke:#000000; stroke-linecap:round; stroke-linejoin:round; stroke-width:4; stroke-opacity:0.5; fill:none" points="805.063,1083.58 805.063,1462.45 846.095,1462.45 846.095,1083.58 805.063,1083.58 "/>
<path clip-path="url(#clip462)" d="M846.095 1039.01 L846.095 1462.45 L887.127 1462.45 L887.127 1039.01 L846.095 1039.01 L846.095 1039.01  Z" fill="#0000ff" fill-rule="evenodd" fill-opacity="0.5"/>
<polyline clip-path="url(#clip462)" style="stroke:#000000; stroke-linecap:round; stroke-linejoin:round; stroke-width:4; stroke-opacity:0.5; fill:none" points="846.095,1039.01 846.095,1462.45 887.127,1462.45 887.127,1039.01 846.095,1039.01 "/>
<path clip-path="url(#clip462)" d="M887.127 838.424 L887.127 1462.45 L928.159 1462.45 L928.159 838.424 L887.127 838.424 L887.127 838.424  Z" fill="#0000ff" fill-rule="evenodd" fill-opacity="0.5"/>
<polyline clip-path="url(#clip462)" style="stroke:#000000; stroke-linecap:round; stroke-linejoin:round; stroke-width:4; stroke-opacity:0.5; fill:none" points="887.127,838.424 887.127,1462.45 928.159,1462.45 928.159,838.424 887.127,838.424 "/>
<path clip-path="url(#clip462)" d="M928.159 648.987 L928.159 1462.45 L969.191 1462.45 L969.191 648.987 L928.159 648.987 L928.159 648.987  Z" fill="#0000ff" fill-rule="evenodd" fill-opacity="0.5"/>
<polyline clip-path="url(#clip462)" style="stroke:#000000; stroke-linecap:round; stroke-linejoin:round; stroke-width:4; stroke-opacity:0.5; fill:none" points="928.159,648.987 928.159,1462.45 969.191,1462.45 969.191,648.987 928.159,648.987 "/>
<path clip-path="url(#clip462)" d="M969.191 743.706 L969.191 1462.45 L1010.22 1462.45 L1010.22 743.706 L969.191 743.706 L969.191 743.706  Z" fill="#0000ff" fill-rule="evenodd" fill-opacity="0.5"/>
<polyline clip-path="url(#clip462)" style="stroke:#000000; stroke-linecap:round; stroke-linejoin:round; stroke-width:4; stroke-opacity:0.5; fill:none" points="969.191,743.706 969.191,1462.45 1010.22,1462.45 1010.22,743.706 969.191,743.706 "/>
<path clip-path="url(#clip462)" d="M1010.22 476.264 L1010.22 1462.45 L1051.25 1462.45 L1051.25 476.264 L1010.22 476.264 L1010.22 476.264  Z" fill="#0000ff" fill-rule="evenodd" fill-opacity="0.5"/>
<polyline clip-path="url(#clip462)" style="stroke:#000000; stroke-linecap:round; stroke-linejoin:round; stroke-width:4; stroke-opacity:0.5; fill:none" points="1010.22,476.264 1010.22,1462.45 1051.25,1462.45 1051.25,476.264 1010.22,476.264 "/>
<path clip-path="url(#clip462)" d="M1051.25 498.551 L1051.25 1462.45 L1092.29 1462.45 L1092.29 498.551 L1051.25 498.551 L1051.25 498.551  Z" fill="#0000ff" fill-rule="evenodd" fill-opacity="0.5"/>
<polyline clip-path="url(#clip462)" style="stroke:#000000; stroke-linecap:round; stroke-linejoin:round; stroke-width:4; stroke-opacity:0.5; fill:none" points="1051.25,498.551 1051.25,1462.45 1092.29,1462.45 1092.29,498.551 1051.25,498.551 "/>
<path clip-path="url(#clip462)" d="M1092.29 442.834 L1092.29 1462.45 L1133.32 1462.45 L1133.32 442.834 L1092.29 442.834 L1092.29 442.834  Z" fill="#0000ff" fill-rule="evenodd" fill-opacity="0.5"/>
<polyline clip-path="url(#clip462)" style="stroke:#000000; stroke-linecap:round; stroke-linejoin:round; stroke-width:4; stroke-opacity:0.5; fill:none" points="1092.29,442.834 1092.29,1462.45 1133.32,1462.45 1133.32,442.834 1092.29,442.834 "/>
<path clip-path="url(#clip462)" d="M1133.32 281.255 L1133.32 1462.45 L1174.35 1462.45 L1174.35 281.255 L1133.32 281.255 L1133.32 281.255  Z" fill="#0000ff" fill-rule="evenodd" fill-opacity="0.5"/>
<polyline clip-path="url(#clip462)" style="stroke:#000000; stroke-linecap:round; stroke-linejoin:round; stroke-width:4; stroke-opacity:0.5; fill:none" points="1133.32,281.255 1133.32,1462.45 1174.35,1462.45 1174.35,281.255 1133.32,281.255 "/>
<path clip-path="url(#clip462)" d="M1174.35 297.97 L1174.35 1462.45 L1215.38 1462.45 L1215.38 297.97 L1174.35 297.97 L1174.35 297.97  Z" fill="#0000ff" fill-rule="evenodd" fill-opacity="0.5"/>
<polyline clip-path="url(#clip462)" style="stroke:#000000; stroke-linecap:round; stroke-linejoin:round; stroke-width:4; stroke-opacity:0.5; fill:none" points="1174.35,297.97 1174.35,1462.45 1215.38,1462.45 1215.38,297.97 1174.35,297.97 "/>
<path clip-path="url(#clip462)" d="M1215.38 47.2441 L1215.38 1462.45 L1256.41 1462.45 L1256.41 47.2441 L1215.38 47.2441 L1215.38 47.2441  Z" fill="#0000ff" fill-rule="evenodd" fill-opacity="0.5"/>
<polyline clip-path="url(#clip462)" style="stroke:#000000; stroke-linecap:round; stroke-linejoin:round; stroke-width:4; stroke-opacity:0.5; fill:none" points="1215.38,47.2441 1215.38,1462.45 1256.41,1462.45 1256.41,47.2441 1215.38,47.2441 "/>
<path clip-path="url(#clip462)" d="M1256.41 270.112 L1256.41 1462.45 L1297.45 1462.45 L1297.45 270.112 L1256.41 270.112 L1256.41 270.112  Z" fill="#0000ff" fill-rule="evenodd" fill-opacity="0.5"/>
<polyline clip-path="url(#clip462)" style="stroke:#000000; stroke-linecap:round; stroke-linejoin:round; stroke-width:4; stroke-opacity:0.5; fill:none" points="1256.41,270.112 1256.41,1462.45 1297.45,1462.45 1297.45,270.112 1256.41,270.112 "/>
<path clip-path="url(#clip462)" d="M1297.45 448.406 L1297.45 1462.45 L1338.48 1462.45 L1338.48 448.406 L1297.45 448.406 L1297.45 448.406  Z" fill="#0000ff" fill-rule="evenodd" fill-opacity="0.5"/>
<polyline clip-path="url(#clip462)" style="stroke:#000000; stroke-linecap:round; stroke-linejoin:round; stroke-width:4; stroke-opacity:0.5; fill:none" points="1297.45,448.406 1297.45,1462.45 1338.48,1462.45 1338.48,448.406 1297.45,448.406 "/>
<path clip-path="url(#clip462)" d="M1338.48 476.264 L1338.48 1462.45 L1379.51 1462.45 L1379.51 476.264 L1338.48 476.264 L1338.48 476.264  Z" fill="#0000ff" fill-rule="evenodd" fill-opacity="0.5"/>
<polyline clip-path="url(#clip462)" style="stroke:#000000; stroke-linecap:round; stroke-linejoin:round; stroke-width:4; stroke-opacity:0.5; fill:none" points="1338.48,476.264 1338.48,1462.45 1379.51,1462.45 1379.51,476.264 1338.48,476.264 "/>
<path clip-path="url(#clip462)" d="M1379.51 643.415 L1379.51 1462.45 L1420.54 1462.45 L1420.54 643.415 L1379.51 643.415 L1379.51 643.415  Z" fill="#0000ff" fill-rule="evenodd" fill-opacity="0.5"/>
<polyline clip-path="url(#clip462)" style="stroke:#000000; stroke-linecap:round; stroke-linejoin:round; stroke-width:4; stroke-opacity:0.5; fill:none" points="1379.51,643.415 1379.51,1462.45 1420.54,1462.45 1420.54,643.415 1379.51,643.415 "/>
<path clip-path="url(#clip462)" d="M1420.54 843.996 L1420.54 1462.45 L1461.57 1462.45 L1461.57 843.996 L1420.54 843.996 L1420.54 843.996  Z" fill="#0000ff" fill-rule="evenodd" fill-opacity="0.5"/>
<polyline clip-path="url(#clip462)" style="stroke:#000000; stroke-linecap:round; stroke-linejoin:round; stroke-width:4; stroke-opacity:0.5; fill:none" points="1420.54,843.996 1420.54,1462.45 1461.57,1462.45 1461.57,843.996 1420.54,843.996 "/>
<path clip-path="url(#clip462)" d="M1461.57 983.288 L1461.57 1462.45 L1502.61 1462.45 L1502.61 983.288 L1461.57 983.288 L1461.57 983.288  Z" fill="#0000ff" fill-rule="evenodd" fill-opacity="0.5"/>
<polyline clip-path="url(#clip462)" style="stroke:#000000; stroke-linecap:round; stroke-linejoin:round; stroke-width:4; stroke-opacity:0.5; fill:none" points="1461.57,983.288 1461.57,1462.45 1502.61,1462.45 1502.61,983.288 1461.57,983.288 "/>
<path clip-path="url(#clip462)" d="M1502.61 1094.72 L1502.61 1462.45 L1543.64 1462.45 L1543.64 1094.72 L1502.61 1094.72 L1502.61 1094.72  Z" fill="#0000ff" fill-rule="evenodd" fill-opacity="0.5"/>
<polyline clip-path="url(#clip462)" style="stroke:#000000; stroke-linecap:round; stroke-linejoin:round; stroke-width:4; stroke-opacity:0.5; fill:none" points="1502.61,1094.72 1502.61,1462.45 1543.64,1462.45 1543.64,1094.72 1502.61,1094.72 "/>
<path clip-path="url(#clip462)" d="M1543.64 1178.3 L1543.64 1462.45 L1584.67 1462.45 L1584.67 1178.3 L1543.64 1178.3 L1543.64 1178.3  Z" fill="#0000ff" fill-rule="evenodd" fill-opacity="0.5"/>
<polyline clip-path="url(#clip462)" style="stroke:#000000; stroke-linecap:round; stroke-linejoin:round; stroke-width:4; stroke-opacity:0.5; fill:none" points="1543.64,1178.3 1543.64,1462.45 1584.67,1462.45 1584.67,1178.3 1543.64,1178.3 "/>
<path clip-path="url(#clip462)" d="M1584.67 1317.59 L1584.67 1462.45 L1625.7 1462.45 L1625.7 1317.59 L1584.67 1317.59 L1584.67 1317.59  Z" fill="#0000ff" fill-rule="evenodd" fill-opacity="0.5"/>
<polyline clip-path="url(#clip462)" style="stroke:#000000; stroke-linecap:round; stroke-linejoin:round; stroke-width:4; stroke-opacity:0.5; fill:none" points="1584.67,1317.59 1584.67,1462.45 1625.7,1462.45 1625.7,1317.59 1584.67,1317.59 "/>
<path clip-path="url(#clip462)" d="M1625.7 1312.02 L1625.7 1462.45 L1666.73 1462.45 L1666.73 1312.02 L1625.7 1312.02 L1625.7 1312.02  Z" fill="#0000ff" fill-rule="evenodd" fill-opacity="0.5"/>
<polyline clip-path="url(#clip462)" style="stroke:#000000; stroke-linecap:round; stroke-linejoin:round; stroke-width:4; stroke-opacity:0.5; fill:none" points="1625.7,1312.02 1625.7,1462.45 1666.73,1462.45 1666.73,1312.02 1625.7,1312.02 "/>
<path clip-path="url(#clip462)" d="M1666.73 1406.74 L1666.73 1462.45 L1707.77 1462.45 L1707.77 1406.74 L1666.73 1406.74 L1666.73 1406.74  Z" fill="#0000ff" fill-rule="evenodd" fill-opacity="0.5"/>
<polyline clip-path="url(#clip462)" style="stroke:#000000; stroke-linecap:round; stroke-linejoin:round; stroke-width:4; stroke-opacity:0.5; fill:none" points="1666.73,1406.74 1666.73,1462.45 1707.77,1462.45 1707.77,1406.74 1666.73,1406.74 "/>
<path clip-path="url(#clip462)" d="M1707.77 1395.59 L1707.77 1462.45 L1748.8 1462.45 L1748.8 1395.59 L1707.77 1395.59 L1707.77 1395.59  Z" fill="#0000ff" fill-rule="evenodd" fill-opacity="0.5"/>
<polyline clip-path="url(#clip462)" style="stroke:#000000; stroke-linecap:round; stroke-linejoin:round; stroke-width:4; stroke-opacity:0.5; fill:none" points="1707.77,1395.59 1707.77,1462.45 1748.8,1462.45 1748.8,1395.59 1707.77,1395.59 "/>
<path clip-path="url(#clip462)" d="M1748.8 1440.17 L1748.8 1462.45 L1789.83 1462.45 L1789.83 1440.17 L1748.8 1440.17 L1748.8 1440.17  Z" fill="#0000ff" fill-rule="evenodd" fill-opacity="0.5"/>
<polyline clip-path="url(#clip462)" style="stroke:#000000; stroke-linecap:round; stroke-linejoin:round; stroke-width:4; stroke-opacity:0.5; fill:none" points="1748.8,1440.17 1748.8,1462.45 1789.83,1462.45 1789.83,1440.17 1748.8,1440.17 "/>
<path clip-path="url(#clip462)" d="M1789.83 1429.02 L1789.83 1462.45 L1830.86 1462.45 L1830.86 1429.02 L1789.83 1429.02 L1789.83 1429.02  Z" fill="#0000ff" fill-rule="evenodd" fill-opacity="0.5"/>
<polyline clip-path="url(#clip462)" style="stroke:#000000; stroke-linecap:round; stroke-linejoin:round; stroke-width:4; stroke-opacity:0.5; fill:none" points="1789.83,1429.02 1789.83,1462.45 1830.86,1462.45 1830.86,1429.02 1789.83,1429.02 "/>
<path clip-path="url(#clip462)" d="M1830.86 1456.88 L1830.86 1462.45 L1871.89 1462.45 L1871.89 1456.88 L1830.86 1456.88 L1830.86 1456.88  Z" fill="#0000ff" fill-rule="evenodd" fill-opacity="0.5"/>
<polyline clip-path="url(#clip462)" style="stroke:#000000; stroke-linecap:round; stroke-linejoin:round; stroke-width:4; stroke-opacity:0.5; fill:none" points="1830.86,1456.88 1830.86,1462.45 1871.89,1462.45 1871.89,1456.88 1830.86,1456.88 "/>
<path clip-path="url(#clip462)" d="M1871.89 1445.74 L1871.89 1462.45 L1912.93 1462.45 L1912.93 1445.74 L1871.89 1445.74 L1871.89 1445.74  Z" fill="#0000ff" fill-rule="evenodd" fill-opacity="0.5"/>
<polyline clip-path="url(#clip462)" style="stroke:#000000; stroke-linecap:round; stroke-linejoin:round; stroke-width:4; stroke-opacity:0.5; fill:none" points="1871.89,1445.74 1871.89,1462.45 1912.93,1462.45 1912.93,1445.74 1871.89,1445.74 "/>
<path clip-path="url(#clip462)" d="M1912.93 1445.74 L1912.93 1462.45 L1953.96 1462.45 L1953.96 1445.74 L1912.93 1445.74 L1912.93 1445.74  Z" fill="#0000ff" fill-rule="evenodd" fill-opacity="0.5"/>
<polyline clip-path="url(#clip462)" style="stroke:#000000; stroke-linecap:round; stroke-linejoin:round; stroke-width:4; stroke-opacity:0.5; fill:none" points="1912.93,1445.74 1912.93,1462.45 1953.96,1462.45 1953.96,1445.74 1912.93,1445.74 "/>
<path clip-path="url(#clip462)" d="M1953.96 1456.88 L1953.96 1462.45 L1994.99 1462.45 L1994.99 1456.88 L1953.96 1456.88 L1953.96 1456.88  Z" fill="#0000ff" fill-rule="evenodd" fill-opacity="0.5"/>
<polyline clip-path="url(#clip462)" style="stroke:#000000; stroke-linecap:round; stroke-linejoin:round; stroke-width:4; stroke-opacity:0.5; fill:none" points="1953.96,1456.88 1953.96,1462.45 1994.99,1462.45 1994.99,1456.88 1953.96,1456.88 "/>
<path clip-path="url(#clip462)" d="M1994.99 1462.45 L1994.99 1462.45 L2036.02 1462.45 L2036.02 1462.45 L1994.99 1462.45 L1994.99 1462.45  Z" fill="#0000ff" fill-rule="evenodd" fill-opacity="0.5"/>
<polyline clip-path="url(#clip462)" style="stroke:#000000; stroke-linecap:round; stroke-linejoin:round; stroke-width:4; stroke-opacity:0.5; fill:none" points="1994.99,1462.45 1994.99,1462.45 2036.02,1462.45 1994.99,1462.45 "/>
<path clip-path="url(#clip462)" d="M2036.02 1456.88 L2036.02 1462.45 L2077.05 1462.45 L2077.05 1456.88 L2036.02 1456.88 L2036.02 1456.88  Z" fill="#0000ff" fill-rule="evenodd" fill-opacity="0.5"/>
<polyline clip-path="url(#clip462)" style="stroke:#000000; stroke-linecap:round; stroke-linejoin:round; stroke-width:4; stroke-opacity:0.5; fill:none" points="2036.02,1456.88 2036.02,1462.45 2077.05,1462.45 2077.05,1456.88 2036.02,1456.88 "/>
<path clip-path="url(#clip462)" d="M2077.05 1462.45 L2077.05 1462.45 L2118.09 1462.45 L2118.09 1462.45 L2077.05 1462.45 L2077.05 1462.45  Z" fill="#0000ff" fill-rule="evenodd" fill-opacity="0.5"/>
<polyline clip-path="url(#clip462)" style="stroke:#000000; stroke-linecap:round; stroke-linejoin:round; stroke-width:4; stroke-opacity:0.5; fill:none" points="2077.05,1462.45 2077.05,1462.45 2118.09,1462.45 2077.05,1462.45 "/>
<path clip-path="url(#clip462)" d="M2118.09 1451.31 L2118.09 1462.45 L2159.12 1462.45 L2159.12 1451.31 L2118.09 1451.31 L2118.09 1451.31  Z" fill="#0000ff" fill-rule="evenodd" fill-opacity="0.5"/>
<polyline clip-path="url(#clip462)" style="stroke:#000000; stroke-linecap:round; stroke-linejoin:round; stroke-width:4; stroke-opacity:0.5; fill:none" points="2118.09,1451.31 2118.09,1462.45 2159.12,1462.45 2159.12,1451.31 2118.09,1451.31 "/>
<path clip-path="url(#clip462)" d="M2159.12 1462.45 L2159.12 1462.45 L2200.15 1462.45 L2200.15 1462.45 L2159.12 1462.45 L2159.12 1462.45  Z" fill="#0000ff" fill-rule="evenodd" fill-opacity="0.5"/>
<polyline clip-path="url(#clip462)" style="stroke:#000000; stroke-linecap:round; stroke-linejoin:round; stroke-width:4; stroke-opacity:0.5; fill:none" points="2159.12,1462.45 2159.12,1462.45 2200.15,1462.45 2159.12,1462.45 "/>
<path clip-path="url(#clip462)" d="M2200.15 1456.88 L2200.15 1462.45 L2241.18 1462.45 L2241.18 1456.88 L2200.15 1456.88 L2200.15 1456.88  Z" fill="#0000ff" fill-rule="evenodd" fill-opacity="0.5"/>
<polyline clip-path="url(#clip462)" style="stroke:#000000; stroke-linecap:round; stroke-linejoin:round; stroke-width:4; stroke-opacity:0.5; fill:none" points="2200.15,1456.88 2200.15,1462.45 2241.18,1462.45 2241.18,1456.88 2200.15,1456.88 "/>
<circle clip-path="url(#clip462)" style="fill:#0000ff; stroke:none; fill-opacity:0" cx="456.292" cy="1429.02" r="2"/>
<circle clip-path="url(#clip462)" style="fill:#0000ff; stroke:none; fill-opacity:0" cx="497.324" cy="1406.74" r="2"/>
<circle clip-path="url(#clip462)" style="fill:#0000ff; stroke:none; fill-opacity:0" cx="538.356" cy="1440.17" r="2"/>
<circle clip-path="url(#clip462)" style="fill:#0000ff; stroke:none; fill-opacity:0" cx="579.387" cy="1384.45" r="2"/>
<circle clip-path="url(#clip462)" style="fill:#0000ff; stroke:none; fill-opacity:0" cx="620.419" cy="1401.17" r="2"/>
<circle clip-path="url(#clip462)" style="fill:#0000ff; stroke:none; fill-opacity:0" cx="661.451" cy="1295.3" r="2"/>
<circle clip-path="url(#clip462)" style="fill:#0000ff; stroke:none; fill-opacity:0" cx="702.483" cy="1278.59" r="2"/>
<circle clip-path="url(#clip462)" style="fill:#0000ff; stroke:none; fill-opacity:0" cx="743.515" cy="1256.3" r="2"/>
<circle clip-path="url(#clip462)" style="fill:#0000ff; stroke:none; fill-opacity:0" cx="784.547" cy="1133.72" r="2"/>
<circle clip-path="url(#clip462)" style="fill:#0000ff; stroke:none; fill-opacity:0" cx="825.579" cy="1083.58" r="2"/>
<circle clip-path="url(#clip462)" style="fill:#0000ff; stroke:none; fill-opacity:0" cx="866.611" cy="1039.01" r="2"/>
<circle clip-path="url(#clip462)" style="fill:#0000ff; stroke:none; fill-opacity:0" cx="907.643" cy="838.424" r="2"/>
<circle clip-path="url(#clip462)" style="fill:#0000ff; stroke:none; fill-opacity:0" cx="948.675" cy="648.987" r="2"/>
<circle clip-path="url(#clip462)" style="fill:#0000ff; stroke:none; fill-opacity:0" cx="989.707" cy="743.706" r="2"/>
<circle clip-path="url(#clip462)" style="fill:#0000ff; stroke:none; fill-opacity:0" cx="1030.74" cy="476.264" r="2"/>
<circle clip-path="url(#clip462)" style="fill:#0000ff; stroke:none; fill-opacity:0" cx="1071.77" cy="498.551" r="2"/>
<circle clip-path="url(#clip462)" style="fill:#0000ff; stroke:none; fill-opacity:0" cx="1112.8" cy="442.834" r="2"/>
<circle clip-path="url(#clip462)" style="fill:#0000ff; stroke:none; fill-opacity:0" cx="1153.83" cy="281.255" r="2"/>
<circle clip-path="url(#clip462)" style="fill:#0000ff; stroke:none; fill-opacity:0" cx="1194.87" cy="297.97" r="2"/>
<circle clip-path="url(#clip462)" style="fill:#0000ff; stroke:none; fill-opacity:0" cx="1235.9" cy="47.2441" r="2"/>
<circle clip-path="url(#clip462)" style="fill:#0000ff; stroke:none; fill-opacity:0" cx="1276.93" cy="270.112" r="2"/>
<circle clip-path="url(#clip462)" style="fill:#0000ff; stroke:none; fill-opacity:0" cx="1317.96" cy="448.406" r="2"/>
<circle clip-path="url(#clip462)" style="fill:#0000ff; stroke:none; fill-opacity:0" cx="1358.99" cy="476.264" r="2"/>
<circle clip-path="url(#clip462)" style="fill:#0000ff; stroke:none; fill-opacity:0" cx="1400.03" cy="643.415" r="2"/>
<circle clip-path="url(#clip462)" style="fill:#0000ff; stroke:none; fill-opacity:0" cx="1441.06" cy="843.996" r="2"/>
<circle clip-path="url(#clip462)" style="fill:#0000ff; stroke:none; fill-opacity:0" cx="1482.09" cy="983.288" r="2"/>
<circle clip-path="url(#clip462)" style="fill:#0000ff; stroke:none; fill-opacity:0" cx="1523.12" cy="1094.72" r="2"/>
<circle clip-path="url(#clip462)" style="fill:#0000ff; stroke:none; fill-opacity:0" cx="1564.15" cy="1178.3" r="2"/>
<circle clip-path="url(#clip462)" style="fill:#0000ff; stroke:none; fill-opacity:0" cx="1605.19" cy="1317.59" r="2"/>
<circle clip-path="url(#clip462)" style="fill:#0000ff; stroke:none; fill-opacity:0" cx="1646.22" cy="1312.02" r="2"/>
<circle clip-path="url(#clip462)" style="fill:#0000ff; stroke:none; fill-opacity:0" cx="1687.25" cy="1406.74" r="2"/>
<circle clip-path="url(#clip462)" style="fill:#0000ff; stroke:none; fill-opacity:0" cx="1728.28" cy="1395.59" r="2"/>
<circle clip-path="url(#clip462)" style="fill:#0000ff; stroke:none; fill-opacity:0" cx="1769.31" cy="1440.17" r="2"/>
<circle clip-path="url(#clip462)" style="fill:#0000ff; stroke:none; fill-opacity:0" cx="1810.35" cy="1429.02" r="2"/>
<circle clip-path="url(#clip462)" style="fill:#0000ff; stroke:none; fill-opacity:0" cx="1851.38" cy="1456.88" r="2"/>
<circle clip-path="url(#clip462)" style="fill:#0000ff; stroke:none; fill-opacity:0" cx="1892.41" cy="1445.74" r="2"/>
<circle clip-path="url(#clip462)" style="fill:#0000ff; stroke:none; fill-opacity:0" cx="1933.44" cy="1445.74" r="2"/>
<circle clip-path="url(#clip462)" style="fill:#0000ff; stroke:none; fill-opacity:0" cx="1974.47" cy="1456.88" r="2"/>
<circle clip-path="url(#clip462)" style="fill:#0000ff; stroke:none; fill-opacity:0" cx="2015.51" cy="1462.45" r="2"/>
<circle clip-path="url(#clip462)" style="fill:#0000ff; stroke:none; fill-opacity:0" cx="2056.54" cy="1456.88" r="2"/>
<circle clip-path="url(#clip462)" style="fill:#0000ff; stroke:none; fill-opacity:0" cx="2097.57" cy="1462.45" r="2"/>
<circle clip-path="url(#clip462)" style="fill:#0000ff; stroke:none; fill-opacity:0" cx="2138.6" cy="1451.31" r="2"/>
<circle clip-path="url(#clip462)" style="fill:#0000ff; stroke:none; fill-opacity:0" cx="2179.63" cy="1462.45" r="2"/>
<circle clip-path="url(#clip462)" style="fill:#0000ff; stroke:none; fill-opacity:0" cx="2220.67" cy="1456.88" r="2"/>
</svg>
