<?xml version="1.0" encoding="utf-8" standalone="no"?>
<!DOCTYPE svg PUBLIC "-//W3C//DTD SVG 1.1//EN"
  "http://www.w3.org/Graphics/SVG/1.1/DTD/svg11.dtd">
<svg height="432pt" version="1.1" viewBox="0 0 576 432" width="576pt" xmlns="http://www.w3.org/2000/svg" xmlns:xlink="http://www.w3.org/1999/xlink">
 <metadata>
  <rdf:RDF xmlns:cc="http://creativecommons.org/ns#" xmlns:dc="http://purl.org/dc/elements/1.1/" xmlns:rdf="http://www.w3.org/1999/02/22-rdf-syntax-ns#">
   <cc:Work>
    <dc:type rdf:resource="http://purl.org/dc/dcmitype/StillImage"/>
    <dc:date>2022-01-10T13:51:20.816802</dc:date>
    <dc:format>image/svg+xml</dc:format>
    <dc:creator>
     <cc:Agent>
      <dc:title>Matplotlib v3.4.2, https://matplotlib.org/</dc:title>
     </cc:Agent>
    </dc:creator>
   </cc:Work>
  </rdf:RDF>
 </metadata>
 <defs>
  <style type="text/css">*{stroke-linecap:butt;stroke-linejoin:round;}</style>
 </defs>
 <g id="figure_1">
  <g id="patch_1">
   <path d="M 0 432 
L 576 432 
L 576 0 
L 0 0 
z
" style="fill:#ffffff;"/>
  </g>
  <g id="axes_1">
   <g id="patch_2">
    <path d="M 72 384.48 
L 518.4 384.48 
L 518.4 51.84 
L 72 51.84 
z
" style="fill:#ffffff;"/>
   </g>
   <g id="patch_3">
    <path clip-path="url(#p424fe43481)" d="M 94.153681 384.48 
L 102.232789 384.48 
L 102.232789 289.673022 
L 94.153681 289.673022 
z
" style="fill:#0000ff;opacity:0.5;stroke:#ffffff;stroke-linejoin:miter;"/>
   </g>
   <g id="patch_4">
    <path clip-path="url(#p424fe43481)" d="M 102.232789 384.48 
L 110.311897 384.48 
L 110.311897 186.357725 
L 102.232789 186.357725 
z
" style="fill:#0000ff;opacity:0.5;stroke:#ffffff;stroke-linejoin:miter;"/>
   </g>
   <g id="patch_5">
    <path clip-path="url(#p424fe43481)" d="M 110.311897 384.48 
L 118.391006 384.48 
L 118.391006 160.83277 
L 110.311897 160.83277 
z
" style="fill:#0000ff;opacity:0.5;stroke:#ffffff;stroke-linejoin:miter;"/>
   </g>
   <g id="patch_6">
    <path clip-path="url(#p424fe43481)" d="M 118.391006 384.48 
L 126.470114 384.48 
L 126.470114 237.407637 
L 118.391006 237.407637 
z
" style="fill:#0000ff;opacity:0.5;stroke:#ffffff;stroke-linejoin:miter;"/>
   </g>
   <g id="patch_7">
    <path clip-path="url(#p424fe43481)" d="M 126.470114 384.48 
L 134.549222 384.48 
L 134.549222 239.838585 
L 126.470114 239.838585 
z
" style="fill:#0000ff;opacity:0.5;stroke:#ffffff;stroke-linejoin:miter;"/>
   </g>
   <g id="patch_8">
    <path clip-path="url(#p424fe43481)" d="M 134.549222 384.48 
L 142.62833 384.48 
L 142.62833 292.10397 
L 134.549222 292.10397 
z
" style="fill:#0000ff;opacity:0.5;stroke:#ffffff;stroke-linejoin:miter;"/>
   </g>
   <g id="patch_9">
    <path clip-path="url(#p424fe43481)" d="M 142.62833 384.48 
L 150.707438 384.48 
L 150.707438 343.153881 
L 142.62833 343.153881 
z
" style="fill:#0000ff;opacity:0.5;stroke:#ffffff;stroke-linejoin:miter;"/>
   </g>
   <g id="patch_10">
    <path clip-path="url(#p424fe43481)" d="M 150.707438 384.48 
L 158.786547 384.48 
L 158.786547 345.584829 
L 150.707438 345.584829 
z
" style="fill:#0000ff;opacity:0.5;stroke:#ffffff;stroke-linejoin:miter;"/>
   </g>
   <g id="patch_11">
    <path clip-path="url(#p424fe43481)" d="M 158.786547 384.48 
L 166.865655 384.48 
L 166.865655 354.093148 
L 158.786547 354.093148 
z
" style="fill:#0000ff;opacity:0.5;stroke:#ffffff;stroke-linejoin:miter;"/>
   </g>
   <g id="patch_12">
    <path clip-path="url(#p424fe43481)" d="M 166.865655 384.48 
L 174.944763 384.48 
L 174.944763 363.816941 
L 166.865655 363.816941 
z
" style="fill:#0000ff;opacity:0.5;stroke:#ffffff;stroke-linejoin:miter;"/>
   </g>
   <g id="patch_13">
    <path clip-path="url(#p424fe43481)" d="M 174.944763 384.48 
L 183.023871 384.48 
L 183.023871 361.385993 
L 174.944763 361.385993 
z
" style="fill:#0000ff;opacity:0.5;stroke:#ffffff;stroke-linejoin:miter;"/>
   </g>
   <g id="patch_14">
    <path clip-path="url(#p424fe43481)" d="M 183.023871 384.48 
L 191.102979 384.48 
L 191.102979 369.894311 
L 183.023871 369.894311 
z
" style="fill:#0000ff;opacity:0.5;stroke:#ffffff;stroke-linejoin:miter;"/>
   </g>
   <g id="patch_15">
    <path clip-path="url(#p424fe43481)" d="M 191.102979 384.48 
L 199.182088 384.48 
L 199.182088 378.40263 
L 191.102979 378.40263 
z
" style="fill:#0000ff;opacity:0.5;stroke:#ffffff;stroke-linejoin:miter;"/>
   </g>
   <g id="patch_16">
    <path clip-path="url(#p424fe43481)" d="M 199.182088 384.48 
L 207.261196 384.48 
L 207.261196 377.187156 
L 199.182088 377.187156 
z
" style="fill:#0000ff;opacity:0.5;stroke:#ffffff;stroke-linejoin:miter;"/>
   </g>
   <g id="patch_17">
    <path clip-path="url(#p424fe43481)" d="M 207.261196 384.48 
L 215.340304 384.48 
L 215.340304 380.833578 
L 207.261196 380.833578 
z
" style="fill:#0000ff;opacity:0.5;stroke:#ffffff;stroke-linejoin:miter;"/>
   </g>
   <g id="patch_18">
    <path clip-path="url(#p424fe43481)" d="M 215.340304 384.48 
L 223.419412 384.48 
L 223.419412 377.187156 
L 215.340304 377.187156 
z
" style="fill:#0000ff;opacity:0.5;stroke:#ffffff;stroke-linejoin:miter;"/>
   </g>
   <g id="patch_19">
    <path clip-path="url(#p424fe43481)" d="M 223.419412 384.48 
L 231.49852 384.48 
L 231.49852 383.264526 
L 223.419412 383.264526 
z
" style="fill:#0000ff;opacity:0.5;stroke:#ffffff;stroke-linejoin:miter;"/>
   </g>
   <g id="patch_20">
    <path clip-path="url(#p424fe43481)" d="M 231.49852 384.48 
L 239.577629 384.48 
L 239.577629 380.833578 
L 231.49852 380.833578 
z
" style="fill:#0000ff;opacity:0.5;stroke:#ffffff;stroke-linejoin:miter;"/>
   </g>
   <g id="patch_21">
    <path clip-path="url(#p424fe43481)" d="M 239.577629 384.48 
L 247.656737 384.48 
L 247.656737 382.049052 
L 239.577629 382.049052 
z
" style="fill:#0000ff;opacity:0.5;stroke:#ffffff;stroke-linejoin:miter;"/>
   </g>
   <g id="patch_22">
    <path clip-path="url(#p424fe43481)" d="M 247.656737 384.48 
L 255.735845 384.48 
L 255.735845 383.264526 
L 247.656737 383.264526 
z
" style="fill:#0000ff;opacity:0.5;stroke:#ffffff;stroke-linejoin:miter;"/>
   </g>
   <g id="patch_23">
    <path clip-path="url(#p424fe43481)" d="M 255.735845 384.48 
L 263.814953 384.48 
L 263.814953 383.264526 
L 255.735845 383.264526 
z
" style="fill:#0000ff;opacity:0.5;stroke:#ffffff;stroke-linejoin:miter;"/>
   </g>
   <g id="patch_24">
    <path clip-path="url(#p424fe43481)" d="M 263.814953 384.48 
L 271.894061 384.48 
L 271.894061 382.049052 
L 263.814953 382.049052 
z
" style="fill:#0000ff;opacity:0.5;stroke:#ffffff;stroke-linejoin:miter;"/>
   </g>
   <g id="patch_25">
    <path clip-path="url(#p424fe43481)" d="M 271.894061 384.48 
L 279.97317 384.48 
L 279.97317 383.264526 
L 271.894061 383.264526 
z
" style="fill:#0000ff;opacity:0.5;stroke:#ffffff;stroke-linejoin:miter;"/>
   </g>
   <g id="patch_26">
    <path clip-path="url(#p424fe43481)" d="M 279.97317 384.48 
L 288.052278 384.48 
L 288.052278 384.48 
L 279.97317 384.48 
z
" style="fill:#0000ff;opacity:0.5;stroke:#ffffff;stroke-linejoin:miter;"/>
   </g>
   <g id="patch_27">
    <path clip-path="url(#p424fe43481)" d="M 288.052278 384.48 
L 296.131386 384.48 
L 296.131386 384.48 
L 288.052278 384.48 
z
" style="fill:#0000ff;opacity:0.5;stroke:#ffffff;stroke-linejoin:miter;"/>
   </g>
   <g id="patch_28">
    <path clip-path="url(#p424fe43481)" d="M 296.131386 384.48 
L 304.210494 384.48 
L 304.210494 384.48 
L 296.131386 384.48 
z
" style="fill:#0000ff;opacity:0.5;stroke:#ffffff;stroke-linejoin:miter;"/>
   </g>
   <g id="patch_29">
    <path clip-path="url(#p424fe43481)" d="M 304.210494 384.48 
L 312.289602 384.48 
L 312.289602 384.48 
L 304.210494 384.48 
z
" style="fill:#0000ff;opacity:0.5;stroke:#ffffff;stroke-linejoin:miter;"/>
   </g>
   <g id="patch_30">
    <path clip-path="url(#p424fe43481)" d="M 312.289602 384.48 
L 320.368711 384.48 
L 320.368711 384.48 
L 312.289602 384.48 
z
" style="fill:#0000ff;opacity:0.5;stroke:#ffffff;stroke-linejoin:miter;"/>
   </g>
   <g id="patch_31">
    <path clip-path="url(#p424fe43481)" d="M 320.368711 384.48 
L 328.447819 384.48 
L 328.447819 384.48 
L 320.368711 384.48 
z
" style="fill:#0000ff;opacity:0.5;stroke:#ffffff;stroke-linejoin:miter;"/>
   </g>
   <g id="patch_32">
    <path clip-path="url(#p424fe43481)" d="M 328.447819 384.48 
L 336.526927 384.48 
L 336.526927 384.48 
L 328.447819 384.48 
z
" style="fill:#0000ff;opacity:0.5;stroke:#ffffff;stroke-linejoin:miter;"/>
   </g>
   <g id="patch_33">
    <path clip-path="url(#p424fe43481)" d="M 336.526927 384.48 
L 344.606035 384.48 
L 344.606035 383.264526 
L 336.526927 383.264526 
z
" style="fill:#0000ff;opacity:0.5;stroke:#ffffff;stroke-linejoin:miter;"/>
   </g>
   <g id="patch_34">
    <path clip-path="url(#p424fe43481)" d="M 344.606035 384.48 
L 352.685143 384.48 
L 352.685143 384.48 
L 344.606035 384.48 
z
" style="fill:#0000ff;opacity:0.5;stroke:#ffffff;stroke-linejoin:miter;"/>
   </g>
   <g id="patch_35">
    <path clip-path="url(#p424fe43481)" d="M 352.685143 384.48 
L 360.764252 384.48 
L 360.764252 384.48 
L 352.685143 384.48 
z
" style="fill:#0000ff;opacity:0.5;stroke:#ffffff;stroke-linejoin:miter;"/>
   </g>
   <g id="patch_36">
    <path clip-path="url(#p424fe43481)" d="M 360.764252 384.48 
L 368.84336 384.48 
L 368.84336 384.48 
L 360.764252 384.48 
z
" style="fill:#0000ff;opacity:0.5;stroke:#ffffff;stroke-linejoin:miter;"/>
   </g>
   <g id="patch_37">
    <path clip-path="url(#p424fe43481)" d="M 368.84336 384.48 
L 376.922468 384.48 
L 376.922468 384.48 
L 368.84336 384.48 
z
" style="fill:#0000ff;opacity:0.5;stroke:#ffffff;stroke-linejoin:miter;"/>
   </g>
   <g id="patch_38">
    <path clip-path="url(#p424fe43481)" d="M 376.922468 384.48 
L 385.001576 384.48 
L 385.001576 384.48 
L 376.922468 384.48 
z
" style="fill:#0000ff;opacity:0.5;stroke:#ffffff;stroke-linejoin:miter;"/>
   </g>
   <g id="patch_39">
    <path clip-path="url(#p424fe43481)" d="M 385.001576 384.48 
L 393.080684 384.48 
L 393.080684 384.48 
L 385.001576 384.48 
z
" style="fill:#0000ff;opacity:0.5;stroke:#ffffff;stroke-linejoin:miter;"/>
   </g>
   <g id="patch_40">
    <path clip-path="url(#p424fe43481)" d="M 393.080684 384.48 
L 401.159793 384.48 
L 401.159793 384.48 
L 393.080684 384.48 
z
" style="fill:#0000ff;opacity:0.5;stroke:#ffffff;stroke-linejoin:miter;"/>
   </g>
   <g id="patch_41">
    <path clip-path="url(#p424fe43481)" d="M 401.159793 384.48 
L 409.238901 384.48 
L 409.238901 384.48 
L 401.159793 384.48 
z
" style="fill:#0000ff;opacity:0.5;stroke:#ffffff;stroke-linejoin:miter;"/>
   </g>
   <g id="patch_42">
    <path clip-path="url(#p424fe43481)" d="M 409.238901 384.48 
L 417.318009 384.48 
L 417.318009 384.48 
L 409.238901 384.48 
z
" style="fill:#0000ff;opacity:0.5;stroke:#ffffff;stroke-linejoin:miter;"/>
   </g>
   <g id="patch_43">
    <path clip-path="url(#p424fe43481)" d="M 417.318009 384.48 
L 425.397117 384.48 
L 425.397117 384.48 
L 417.318009 384.48 
z
" style="fill:#0000ff;opacity:0.5;stroke:#ffffff;stroke-linejoin:miter;"/>
   </g>
   <g id="patch_44">
    <path clip-path="url(#p424fe43481)" d="M 425.397117 384.48 
L 433.476225 384.48 
L 433.476225 384.48 
L 425.397117 384.48 
z
" style="fill:#0000ff;opacity:0.5;stroke:#ffffff;stroke-linejoin:miter;"/>
   </g>
   <g id="patch_45">
    <path clip-path="url(#p424fe43481)" d="M 433.476225 384.48 
L 441.555334 384.48 
L 441.555334 384.48 
L 433.476225 384.48 
z
" style="fill:#0000ff;opacity:0.5;stroke:#ffffff;stroke-linejoin:miter;"/>
   </g>
   <g id="patch_46">
    <path clip-path="url(#p424fe43481)" d="M 441.555334 384.48 
L 449.634442 384.48 
L 449.634442 384.48 
L 441.555334 384.48 
z
" style="fill:#0000ff;opacity:0.5;stroke:#ffffff;stroke-linejoin:miter;"/>
   </g>
   <g id="patch_47">
    <path clip-path="url(#p424fe43481)" d="M 449.634442 384.48 
L 457.71355 384.48 
L 457.71355 384.48 
L 449.634442 384.48 
z
" style="fill:#0000ff;opacity:0.5;stroke:#ffffff;stroke-linejoin:miter;"/>
   </g>
   <g id="patch_48">
    <path clip-path="url(#p424fe43481)" d="M 457.71355 384.48 
L 465.792658 384.48 
L 465.792658 383.264526 
L 457.71355 383.264526 
z
" style="fill:#0000ff;opacity:0.5;stroke:#ffffff;stroke-linejoin:miter;"/>
   </g>
   <g id="patch_49">
    <path clip-path="url(#p424fe43481)" d="M 465.792658 384.48 
L 473.871766 384.48 
L 473.871766 384.48 
L 465.792658 384.48 
z
" style="fill:#0000ff;opacity:0.5;stroke:#ffffff;stroke-linejoin:miter;"/>
   </g>
   <g id="patch_50">
    <path clip-path="url(#p424fe43481)" d="M 473.871766 384.48 
L 481.950875 384.48 
L 481.950875 384.48 
L 473.871766 384.48 
z
" style="fill:#0000ff;opacity:0.5;stroke:#ffffff;stroke-linejoin:miter;"/>
   </g>
   <g id="patch_51">
    <path clip-path="url(#p424fe43481)" d="M 481.950875 384.48 
L 490.029983 384.48 
L 490.029983 384.48 
L 481.950875 384.48 
z
" style="fill:#0000ff;opacity:0.5;stroke:#ffffff;stroke-linejoin:miter;"/>
   </g>
   <g id="patch_52">
    <path clip-path="url(#p424fe43481)" d="M 490.029983 384.48 
L 498.109091 384.48 
L 498.109091 383.264526 
L 490.029983 383.264526 
z
" style="fill:#0000ff;opacity:0.5;stroke:#ffffff;stroke-linejoin:miter;"/>
   </g>
   <g id="patch_53">
    <path clip-path="url(#p424fe43481)" d="M 92.290909 384.48 
L 99.539753 384.48 
L 99.539753 320.35432 
L 92.290909 320.35432 
z
" style="fill:#ff0000;opacity:0.5;stroke:#ffffff;stroke-linejoin:miter;"/>
   </g>
   <g id="patch_54">
    <path clip-path="url(#p424fe43481)" d="M 99.539753 384.48 
L 106.788597 384.48 
L 106.788597 67.68 
L 99.539753 67.68 
z
" style="fill:#ff0000;opacity:0.5;stroke:#ffffff;stroke-linejoin:miter;"/>
   </g>
   <g id="patch_55">
    <path clip-path="url(#p424fe43481)" d="M 106.788597 384.48 
L 114.037441 384.48 
L 114.037441 72.046767 
L 106.788597 72.046767 
z
" style="fill:#ff0000;opacity:0.5;stroke:#ffffff;stroke-linejoin:miter;"/>
   </g>
   <g id="patch_56">
    <path clip-path="url(#p424fe43481)" d="M 114.037441 384.48 
L 121.286286 384.48 
L 121.286286 167.338006 
L 114.037441 167.338006 
z
" style="fill:#ff0000;opacity:0.5;stroke:#ffffff;stroke-linejoin:miter;"/>
   </g>
   <g id="patch_57">
    <path clip-path="url(#p424fe43481)" d="M 121.286286 384.48 
L 128.53513 384.48 
L 128.53513 247.854018 
L 121.286286 247.854018 
z
" style="fill:#ff0000;opacity:0.5;stroke:#ffffff;stroke-linejoin:miter;"/>
   </g>
   <g id="patch_58">
    <path clip-path="url(#p424fe43481)" d="M 128.53513 384.48 
L 135.783974 384.48 
L 135.783974 306.476375 
L 128.53513 306.476375 
z
" style="fill:#ff0000;opacity:0.5;stroke:#ffffff;stroke-linejoin:miter;"/>
   </g>
   <g id="patch_59">
    <path clip-path="url(#p424fe43481)" d="M 135.783974 384.48 
L 143.032818 384.48 
L 143.032818 345.418369 
L 135.783974 345.418369 
z
" style="fill:#ff0000;opacity:0.5;stroke:#ffffff;stroke-linejoin:miter;"/>
   </g>
   <g id="patch_60">
    <path clip-path="url(#p424fe43481)" d="M 143.032818 384.48 
L 150.281662 384.48 
L 150.281662 365.936193 
L 143.032818 365.936193 
z
" style="fill:#ff0000;opacity:0.5;stroke:#ffffff;stroke-linejoin:miter;"/>
   </g>
   <g id="patch_61">
    <path clip-path="url(#p424fe43481)" d="M 150.281662 384.48 
L 157.530506 384.48 
L 157.530506 368.807492 
L 150.281662 368.807492 
z
" style="fill:#ff0000;opacity:0.5;stroke:#ffffff;stroke-linejoin:miter;"/>
   </g>
   <g id="patch_62">
    <path clip-path="url(#p424fe43481)" d="M 157.530506 384.48 
L 164.77935 384.48 
L 164.77935 375.088459 
L 157.530506 375.088459 
z
" style="fill:#ff0000;opacity:0.5;stroke:#ffffff;stroke-linejoin:miter;"/>
   </g>
   <g id="patch_63">
    <path clip-path="url(#p424fe43481)" d="M 164.77935 384.48 
L 172.028194 384.48 
L 172.028194 377.89994 
L 164.77935 377.89994 
z
" style="fill:#ff0000;opacity:0.5;stroke:#ffffff;stroke-linejoin:miter;"/>
   </g>
   <g id="patch_64">
    <path clip-path="url(#p424fe43481)" d="M 172.028194 384.48 
L 179.277038 384.48 
L 179.277038 378.139215 
L 172.028194 378.139215 
z
" style="fill:#ff0000;opacity:0.5;stroke:#ffffff;stroke-linejoin:miter;"/>
   </g>
   <g id="patch_65">
    <path clip-path="url(#p424fe43481)" d="M 179.277038 384.48 
L 186.525883 384.48 
L 186.525883 381.18997 
L 179.277038 381.18997 
z
" style="fill:#ff0000;opacity:0.5;stroke:#ffffff;stroke-linejoin:miter;"/>
   </g>
   <g id="patch_66">
    <path clip-path="url(#p424fe43481)" d="M 186.525883 384.48 
L 193.774727 384.48 
L 193.774727 381.010514 
L 186.525883 381.010514 
z
" style="fill:#ff0000;opacity:0.5;stroke:#ffffff;stroke-linejoin:miter;"/>
   </g>
   <g id="patch_67">
    <path clip-path="url(#p424fe43481)" d="M 193.774727 384.48 
L 201.023571 384.48 
L 201.023571 383.283625 
L 193.774727 383.283625 
z
" style="fill:#ff0000;opacity:0.5;stroke:#ffffff;stroke-linejoin:miter;"/>
   </g>
   <g id="patch_68">
    <path clip-path="url(#p424fe43481)" d="M 201.023571 384.48 
L 208.272415 384.48 
L 208.272415 382.386344 
L 201.023571 382.386344 
z
" style="fill:#ff0000;opacity:0.5;stroke:#ffffff;stroke-linejoin:miter;"/>
   </g>
   <g id="patch_69">
    <path clip-path="url(#p424fe43481)" d="M 208.272415 384.48 
L 215.521259 384.48 
L 215.521259 383.283625 
L 208.272415 383.283625 
z
" style="fill:#ff0000;opacity:0.5;stroke:#ffffff;stroke-linejoin:miter;"/>
   </g>
   <g id="patch_70">
    <path clip-path="url(#p424fe43481)" d="M 215.521259 384.48 
L 222.770103 384.48 
L 222.770103 383.104169 
L 215.521259 383.104169 
z
" style="fill:#ff0000;opacity:0.5;stroke:#ffffff;stroke-linejoin:miter;"/>
   </g>
   <g id="patch_71">
    <path clip-path="url(#p424fe43481)" d="M 222.770103 384.48 
L 230.018947 384.48 
L 230.018947 383.582719 
L 222.770103 383.582719 
z
" style="fill:#ff0000;opacity:0.5;stroke:#ffffff;stroke-linejoin:miter;"/>
   </g>
   <g id="patch_72">
    <path clip-path="url(#p424fe43481)" d="M 230.018947 384.48 
L 237.267791 384.48 
L 237.267791 383.941631 
L 230.018947 383.941631 
z
" style="fill:#ff0000;opacity:0.5;stroke:#ffffff;stroke-linejoin:miter;"/>
   </g>
   <g id="patch_73">
    <path clip-path="url(#p424fe43481)" d="M 237.267791 384.48 
L 244.516635 384.48 
L 244.516635 384.00145 
L 237.267791 384.00145 
z
" style="fill:#ff0000;opacity:0.5;stroke:#ffffff;stroke-linejoin:miter;"/>
   </g>
   <g id="patch_74">
    <path clip-path="url(#p424fe43481)" d="M 244.516635 384.48 
L 251.76548 384.48 
L 251.76548 383.702356 
L 244.516635 383.702356 
z
" style="fill:#ff0000;opacity:0.5;stroke:#ffffff;stroke-linejoin:miter;"/>
   </g>
   <g id="patch_75">
    <path clip-path="url(#p424fe43481)" d="M 251.76548 384.48 
L 259.014324 384.48 
L 259.014324 383.881813 
L 251.76548 383.881813 
z
" style="fill:#ff0000;opacity:0.5;stroke:#ffffff;stroke-linejoin:miter;"/>
   </g>
   <g id="patch_76">
    <path clip-path="url(#p424fe43481)" d="M 259.014324 384.48 
L 266.263168 384.48 
L 266.263168 384.240725 
L 259.014324 384.240725 
z
" style="fill:#ff0000;opacity:0.5;stroke:#ffffff;stroke-linejoin:miter;"/>
   </g>
   <g id="patch_77">
    <path clip-path="url(#p424fe43481)" d="M 266.263168 384.48 
L 273.512012 384.48 
L 273.512012 384.240725 
L 266.263168 384.240725 
z
" style="fill:#ff0000;opacity:0.5;stroke:#ffffff;stroke-linejoin:miter;"/>
   </g>
   <g id="patch_78">
    <path clip-path="url(#p424fe43481)" d="M 273.512012 384.48 
L 280.760856 384.48 
L 280.760856 384.420181 
L 273.512012 384.420181 
z
" style="fill:#ff0000;opacity:0.5;stroke:#ffffff;stroke-linejoin:miter;"/>
   </g>
   <g id="patch_79">
    <path clip-path="url(#p424fe43481)" d="M 280.760856 384.48 
L 288.0097 384.48 
L 288.0097 384.180906 
L 280.760856 384.180906 
z
" style="fill:#ff0000;opacity:0.5;stroke:#ffffff;stroke-linejoin:miter;"/>
   </g>
   <g id="patch_80">
    <path clip-path="url(#p424fe43481)" d="M 288.0097 384.48 
L 295.258544 384.48 
L 295.258544 384.300544 
L 288.0097 384.300544 
z
" style="fill:#ff0000;opacity:0.5;stroke:#ffffff;stroke-linejoin:miter;"/>
   </g>
   <g id="patch_81">
    <path clip-path="url(#p424fe43481)" d="M 295.258544 384.48 
L 302.507388 384.48 
L 302.507388 384.420181 
L 295.258544 384.420181 
z
" style="fill:#ff0000;opacity:0.5;stroke:#ffffff;stroke-linejoin:miter;"/>
   </g>
   <g id="patch_82">
    <path clip-path="url(#p424fe43481)" d="M 302.507388 384.48 
L 309.756232 384.48 
L 309.756232 384.48 
L 302.507388 384.48 
z
" style="fill:#ff0000;opacity:0.5;stroke:#ffffff;stroke-linejoin:miter;"/>
   </g>
   <g id="patch_83">
    <path clip-path="url(#p424fe43481)" d="M 309.756232 384.48 
L 317.005077 384.48 
L 317.005077 384.420181 
L 309.756232 384.420181 
z
" style="fill:#ff0000;opacity:0.5;stroke:#ffffff;stroke-linejoin:miter;"/>
   </g>
   <g id="patch_84">
    <path clip-path="url(#p424fe43481)" d="M 317.005077 384.48 
L 324.253921 384.48 
L 324.253921 384.48 
L 317.005077 384.48 
z
" style="fill:#ff0000;opacity:0.5;stroke:#ffffff;stroke-linejoin:miter;"/>
   </g>
   <g id="patch_85">
    <path clip-path="url(#p424fe43481)" d="M 324.253921 384.48 
L 331.502765 384.48 
L 331.502765 384.360363 
L 324.253921 384.360363 
z
" style="fill:#ff0000;opacity:0.5;stroke:#ffffff;stroke-linejoin:miter;"/>
   </g>
   <g id="patch_86">
    <path clip-path="url(#p424fe43481)" d="M 331.502765 384.48 
L 338.751609 384.48 
L 338.751609 384.48 
L 331.502765 384.48 
z
" style="fill:#ff0000;opacity:0.5;stroke:#ffffff;stroke-linejoin:miter;"/>
   </g>
   <g id="patch_87">
    <path clip-path="url(#p424fe43481)" d="M 338.751609 384.48 
L 346.000453 384.48 
L 346.000453 384.48 
L 338.751609 384.48 
z
" style="fill:#ff0000;opacity:0.5;stroke:#ffffff;stroke-linejoin:miter;"/>
   </g>
   <g id="patch_88">
    <path clip-path="url(#p424fe43481)" d="M 346.000453 384.48 
L 353.249297 384.48 
L 353.249297 384.48 
L 346.000453 384.48 
z
" style="fill:#ff0000;opacity:0.5;stroke:#ffffff;stroke-linejoin:miter;"/>
   </g>
   <g id="patch_89">
    <path clip-path="url(#p424fe43481)" d="M 353.249297 384.48 
L 360.498141 384.48 
L 360.498141 384.420181 
L 353.249297 384.420181 
z
" style="fill:#ff0000;opacity:0.5;stroke:#ffffff;stroke-linejoin:miter;"/>
   </g>
   <g id="patch_90">
    <path clip-path="url(#p424fe43481)" d="M 360.498141 384.48 
L 367.746985 384.48 
L 367.746985 384.48 
L 360.498141 384.48 
z
" style="fill:#ff0000;opacity:0.5;stroke:#ffffff;stroke-linejoin:miter;"/>
   </g>
   <g id="patch_91">
    <path clip-path="url(#p424fe43481)" d="M 367.746985 384.48 
L 374.99583 384.48 
L 374.99583 384.360363 
L 367.746985 384.360363 
z
" style="fill:#ff0000;opacity:0.5;stroke:#ffffff;stroke-linejoin:miter;"/>
   </g>
   <g id="patch_92">
    <path clip-path="url(#p424fe43481)" d="M 374.99583 384.48 
L 382.244674 384.48 
L 382.244674 384.48 
L 374.99583 384.48 
z
" style="fill:#ff0000;opacity:0.5;stroke:#ffffff;stroke-linejoin:miter;"/>
   </g>
   <g id="patch_93">
    <path clip-path="url(#p424fe43481)" d="M 382.244674 384.48 
L 389.493518 384.48 
L 389.493518 384.420181 
L 382.244674 384.420181 
z
" style="fill:#ff0000;opacity:0.5;stroke:#ffffff;stroke-linejoin:miter;"/>
   </g>
   <g id="patch_94">
    <path clip-path="url(#p424fe43481)" d="M 389.493518 384.48 
L 396.742362 384.48 
L 396.742362 384.48 
L 389.493518 384.48 
z
" style="fill:#ff0000;opacity:0.5;stroke:#ffffff;stroke-linejoin:miter;"/>
   </g>
   <g id="patch_95">
    <path clip-path="url(#p424fe43481)" d="M 396.742362 384.48 
L 403.991206 384.48 
L 403.991206 384.48 
L 396.742362 384.48 
z
" style="fill:#ff0000;opacity:0.5;stroke:#ffffff;stroke-linejoin:miter;"/>
   </g>
   <g id="patch_96">
    <path clip-path="url(#p424fe43481)" d="M 403.991206 384.48 
L 411.24005 384.48 
L 411.24005 384.48 
L 403.991206 384.48 
z
" style="fill:#ff0000;opacity:0.5;stroke:#ffffff;stroke-linejoin:miter;"/>
   </g>
   <g id="patch_97">
    <path clip-path="url(#p424fe43481)" d="M 411.24005 384.48 
L 418.488894 384.48 
L 418.488894 384.48 
L 411.24005 384.48 
z
" style="fill:#ff0000;opacity:0.5;stroke:#ffffff;stroke-linejoin:miter;"/>
   </g>
   <g id="patch_98">
    <path clip-path="url(#p424fe43481)" d="M 418.488894 384.48 
L 425.737738 384.48 
L 425.737738 384.48 
L 418.488894 384.48 
z
" style="fill:#ff0000;opacity:0.5;stroke:#ffffff;stroke-linejoin:miter;"/>
   </g>
   <g id="patch_99">
    <path clip-path="url(#p424fe43481)" d="M 425.737738 384.48 
L 432.986582 384.48 
L 432.986582 384.48 
L 425.737738 384.48 
z
" style="fill:#ff0000;opacity:0.5;stroke:#ffffff;stroke-linejoin:miter;"/>
   </g>
   <g id="patch_100">
    <path clip-path="url(#p424fe43481)" d="M 432.986582 384.48 
L 440.235427 384.48 
L 440.235427 384.48 
L 432.986582 384.48 
z
" style="fill:#ff0000;opacity:0.5;stroke:#ffffff;stroke-linejoin:miter;"/>
   </g>
   <g id="patch_101">
    <path clip-path="url(#p424fe43481)" d="M 440.235427 384.48 
L 447.484271 384.48 
L 447.484271 384.48 
L 440.235427 384.48 
z
" style="fill:#ff0000;opacity:0.5;stroke:#ffffff;stroke-linejoin:miter;"/>
   </g>
   <g id="patch_102">
    <path clip-path="url(#p424fe43481)" d="M 447.484271 384.48 
L 454.733115 384.48 
L 454.733115 384.420181 
L 447.484271 384.420181 
z
" style="fill:#ff0000;opacity:0.5;stroke:#ffffff;stroke-linejoin:miter;"/>
   </g>
   <g id="matplotlib.axis_1">
    <g id="xtick_1">
     <g id="line2d_1">
      <defs>
       <path d="M 0 0 
L 0 3.5 
" id="mc8945cf00b" style="stroke:#000000;stroke-width:0.8;"/>
      </defs>
      <g>
       <use style="stroke:#000000;stroke-width:0.8;" x="88.299255" xlink:href="#mc8945cf00b" y="384.48"/>
      </g>
     </g>
     <g id="text_1">
      <!-- 0 -->
      <g transform="translate(85.118005 399.078438)scale(0.1 -0.1)">
       <defs>
        <path d="M 2034 4250 
Q 1547 4250 1301 3770 
Q 1056 3291 1056 2328 
Q 1056 1369 1301 889 
Q 1547 409 2034 409 
Q 2525 409 2770 889 
Q 3016 1369 3016 2328 
Q 3016 3291 2770 3770 
Q 2525 4250 2034 4250 
z
M 2034 4750 
Q 2819 4750 3233 4129 
Q 3647 3509 3647 2328 
Q 3647 1150 3233 529 
Q 2819 -91 2034 -91 
Q 1250 -91 836 529 
Q 422 1150 422 2328 
Q 422 3509 836 4129 
Q 1250 4750 2034 4750 
z
" id="DejaVuSans-30" transform="scale(0.015625)"/>
       </defs>
       <use xlink:href="#DejaVuSans-30"/>
      </g>
     </g>
    </g>
    <g id="xtick_2">
     <g id="line2d_2">
      <g>
       <use style="stroke:#000000;stroke-width:0.8;" x="141.521311" xlink:href="#mc8945cf00b" y="384.48"/>
      </g>
     </g>
     <g id="text_2">
      <!-- 1000 -->
      <g transform="translate(128.796311 399.078438)scale(0.1 -0.1)">
       <defs>
        <path d="M 794 531 
L 1825 531 
L 1825 4091 
L 703 3866 
L 703 4441 
L 1819 4666 
L 2450 4666 
L 2450 531 
L 3481 531 
L 3481 0 
L 794 0 
L 794 531 
z
" id="DejaVuSans-31" transform="scale(0.015625)"/>
       </defs>
       <use xlink:href="#DejaVuSans-31"/>
       <use x="63.623047" xlink:href="#DejaVuSans-30"/>
       <use x="127.246094" xlink:href="#DejaVuSans-30"/>
       <use x="190.869141" xlink:href="#DejaVuSans-30"/>
      </g>
     </g>
    </g>
    <g id="xtick_3">
     <g id="line2d_3">
      <g>
       <use style="stroke:#000000;stroke-width:0.8;" x="194.743368" xlink:href="#mc8945cf00b" y="384.48"/>
      </g>
     </g>
     <g id="text_3">
      <!-- 2000 -->
      <g transform="translate(182.018368 399.078438)scale(0.1 -0.1)">
       <defs>
        <path d="M 1228 531 
L 3431 531 
L 3431 0 
L 469 0 
L 469 531 
Q 828 903 1448 1529 
Q 2069 2156 2228 2338 
Q 2531 2678 2651 2914 
Q 2772 3150 2772 3378 
Q 2772 3750 2511 3984 
Q 2250 4219 1831 4219 
Q 1534 4219 1204 4116 
Q 875 4013 500 3803 
L 500 4441 
Q 881 4594 1212 4672 
Q 1544 4750 1819 4750 
Q 2544 4750 2975 4387 
Q 3406 4025 3406 3419 
Q 3406 3131 3298 2873 
Q 3191 2616 2906 2266 
Q 2828 2175 2409 1742 
Q 1991 1309 1228 531 
z
" id="DejaVuSans-32" transform="scale(0.015625)"/>
       </defs>
       <use xlink:href="#DejaVuSans-32"/>
       <use x="63.623047" xlink:href="#DejaVuSans-30"/>
       <use x="127.246094" xlink:href="#DejaVuSans-30"/>
       <use x="190.869141" xlink:href="#DejaVuSans-30"/>
      </g>
     </g>
    </g>
    <g id="xtick_4">
     <g id="line2d_4">
      <g>
       <use style="stroke:#000000;stroke-width:0.8;" x="247.965425" xlink:href="#mc8945cf00b" y="384.48"/>
      </g>
     </g>
     <g id="text_4">
      <!-- 3000 -->
      <g transform="translate(235.240425 399.078438)scale(0.1 -0.1)">
       <defs>
        <path d="M 2597 2516 
Q 3050 2419 3304 2112 
Q 3559 1806 3559 1356 
Q 3559 666 3084 287 
Q 2609 -91 1734 -91 
Q 1441 -91 1130 -33 
Q 819 25 488 141 
L 488 750 
Q 750 597 1062 519 
Q 1375 441 1716 441 
Q 2309 441 2620 675 
Q 2931 909 2931 1356 
Q 2931 1769 2642 2001 
Q 2353 2234 1838 2234 
L 1294 2234 
L 1294 2753 
L 1863 2753 
Q 2328 2753 2575 2939 
Q 2822 3125 2822 3475 
Q 2822 3834 2567 4026 
Q 2313 4219 1838 4219 
Q 1578 4219 1281 4162 
Q 984 4106 628 3988 
L 628 4550 
Q 988 4650 1302 4700 
Q 1616 4750 1894 4750 
Q 2613 4750 3031 4423 
Q 3450 4097 3450 3541 
Q 3450 3153 3228 2886 
Q 3006 2619 2597 2516 
z
" id="DejaVuSans-33" transform="scale(0.015625)"/>
       </defs>
       <use xlink:href="#DejaVuSans-33"/>
       <use x="63.623047" xlink:href="#DejaVuSans-30"/>
       <use x="127.246094" xlink:href="#DejaVuSans-30"/>
       <use x="190.869141" xlink:href="#DejaVuSans-30"/>
      </g>
     </g>
    </g>
    <g id="xtick_5">
     <g id="line2d_5">
      <g>
       <use style="stroke:#000000;stroke-width:0.8;" x="301.187481" xlink:href="#mc8945cf00b" y="384.48"/>
      </g>
     </g>
     <g id="text_5">
      <!-- 4000 -->
      <g transform="translate(288.462481 399.078438)scale(0.1 -0.1)">
       <defs>
        <path d="M 2419 4116 
L 825 1625 
L 2419 1625 
L 2419 4116 
z
M 2253 4666 
L 3047 4666 
L 3047 1625 
L 3713 1625 
L 3713 1100 
L 3047 1100 
L 3047 0 
L 2419 0 
L 2419 1100 
L 313 1100 
L 313 1709 
L 2253 4666 
z
" id="DejaVuSans-34" transform="scale(0.015625)"/>
       </defs>
       <use xlink:href="#DejaVuSans-34"/>
       <use x="63.623047" xlink:href="#DejaVuSans-30"/>
       <use x="127.246094" xlink:href="#DejaVuSans-30"/>
       <use x="190.869141" xlink:href="#DejaVuSans-30"/>
      </g>
     </g>
    </g>
    <g id="xtick_6">
     <g id="line2d_6">
      <g>
       <use style="stroke:#000000;stroke-width:0.8;" x="354.409538" xlink:href="#mc8945cf00b" y="384.48"/>
      </g>
     </g>
     <g id="text_6">
      <!-- 5000 -->
      <g transform="translate(341.684538 399.078438)scale(0.1 -0.1)">
       <defs>
        <path d="M 691 4666 
L 3169 4666 
L 3169 4134 
L 1269 4134 
L 1269 2991 
Q 1406 3038 1543 3061 
Q 1681 3084 1819 3084 
Q 2600 3084 3056 2656 
Q 3513 2228 3513 1497 
Q 3513 744 3044 326 
Q 2575 -91 1722 -91 
Q 1428 -91 1123 -41 
Q 819 9 494 109 
L 494 744 
Q 775 591 1075 516 
Q 1375 441 1709 441 
Q 2250 441 2565 725 
Q 2881 1009 2881 1497 
Q 2881 1984 2565 2268 
Q 2250 2553 1709 2553 
Q 1456 2553 1204 2497 
Q 953 2441 691 2322 
L 691 4666 
z
" id="DejaVuSans-35" transform="scale(0.015625)"/>
       </defs>
       <use xlink:href="#DejaVuSans-35"/>
       <use x="63.623047" xlink:href="#DejaVuSans-30"/>
       <use x="127.246094" xlink:href="#DejaVuSans-30"/>
       <use x="190.869141" xlink:href="#DejaVuSans-30"/>
      </g>
     </g>
    </g>
    <g id="xtick_7">
     <g id="line2d_7">
      <g>
       <use style="stroke:#000000;stroke-width:0.8;" x="407.631595" xlink:href="#mc8945cf00b" y="384.48"/>
      </g>
     </g>
     <g id="text_7">
      <!-- 6000 -->
      <g transform="translate(394.906595 399.078438)scale(0.1 -0.1)">
       <defs>
        <path d="M 2113 2584 
Q 1688 2584 1439 2293 
Q 1191 2003 1191 1497 
Q 1191 994 1439 701 
Q 1688 409 2113 409 
Q 2538 409 2786 701 
Q 3034 994 3034 1497 
Q 3034 2003 2786 2293 
Q 2538 2584 2113 2584 
z
M 3366 4563 
L 3366 3988 
Q 3128 4100 2886 4159 
Q 2644 4219 2406 4219 
Q 1781 4219 1451 3797 
Q 1122 3375 1075 2522 
Q 1259 2794 1537 2939 
Q 1816 3084 2150 3084 
Q 2853 3084 3261 2657 
Q 3669 2231 3669 1497 
Q 3669 778 3244 343 
Q 2819 -91 2113 -91 
Q 1303 -91 875 529 
Q 447 1150 447 2328 
Q 447 3434 972 4092 
Q 1497 4750 2381 4750 
Q 2619 4750 2861 4703 
Q 3103 4656 3366 4563 
z
" id="DejaVuSans-36" transform="scale(0.015625)"/>
       </defs>
       <use xlink:href="#DejaVuSans-36"/>
       <use x="63.623047" xlink:href="#DejaVuSans-30"/>
       <use x="127.246094" xlink:href="#DejaVuSans-30"/>
       <use x="190.869141" xlink:href="#DejaVuSans-30"/>
      </g>
     </g>
    </g>
    <g id="xtick_8">
     <g id="line2d_8">
      <g>
       <use style="stroke:#000000;stroke-width:0.8;" x="460.853651" xlink:href="#mc8945cf00b" y="384.48"/>
      </g>
     </g>
     <g id="text_8">
      <!-- 7000 -->
      <g transform="translate(448.128651 399.078438)scale(0.1 -0.1)">
       <defs>
        <path d="M 525 4666 
L 3525 4666 
L 3525 4397 
L 1831 0 
L 1172 0 
L 2766 4134 
L 525 4134 
L 525 4666 
z
" id="DejaVuSans-37" transform="scale(0.015625)"/>
       </defs>
       <use xlink:href="#DejaVuSans-37"/>
       <use x="63.623047" xlink:href="#DejaVuSans-30"/>
       <use x="127.246094" xlink:href="#DejaVuSans-30"/>
       <use x="190.869141" xlink:href="#DejaVuSans-30"/>
      </g>
     </g>
    </g>
    <g id="xtick_9">
     <g id="line2d_9">
      <g>
       <use style="stroke:#000000;stroke-width:0.8;" x="514.075708" xlink:href="#mc8945cf00b" y="384.48"/>
      </g>
     </g>
     <g id="text_9">
      <!-- 8000 -->
      <g transform="translate(501.350708 399.078438)scale(0.1 -0.1)">
       <defs>
        <path d="M 2034 2216 
Q 1584 2216 1326 1975 
Q 1069 1734 1069 1313 
Q 1069 891 1326 650 
Q 1584 409 2034 409 
Q 2484 409 2743 651 
Q 3003 894 3003 1313 
Q 3003 1734 2745 1975 
Q 2488 2216 2034 2216 
z
M 1403 2484 
Q 997 2584 770 2862 
Q 544 3141 544 3541 
Q 544 4100 942 4425 
Q 1341 4750 2034 4750 
Q 2731 4750 3128 4425 
Q 3525 4100 3525 3541 
Q 3525 3141 3298 2862 
Q 3072 2584 2669 2484 
Q 3125 2378 3379 2068 
Q 3634 1759 3634 1313 
Q 3634 634 3220 271 
Q 2806 -91 2034 -91 
Q 1263 -91 848 271 
Q 434 634 434 1313 
Q 434 1759 690 2068 
Q 947 2378 1403 2484 
z
M 1172 3481 
Q 1172 3119 1398 2916 
Q 1625 2713 2034 2713 
Q 2441 2713 2670 2916 
Q 2900 3119 2900 3481 
Q 2900 3844 2670 4047 
Q 2441 4250 2034 4250 
Q 1625 4250 1398 4047 
Q 1172 3844 1172 3481 
z
" id="DejaVuSans-38" transform="scale(0.015625)"/>
       </defs>
       <use xlink:href="#DejaVuSans-38"/>
       <use x="63.623047" xlink:href="#DejaVuSans-30"/>
       <use x="127.246094" xlink:href="#DejaVuSans-30"/>
       <use x="190.869141" xlink:href="#DejaVuSans-30"/>
      </g>
     </g>
    </g>
    <g id="text_10">
     <!-- Price -->
     <g transform="translate(278.123281 415.795938)scale(0.14 -0.14)">
      <defs>
       <path d="M 1259 4147 
L 1259 2394 
L 2053 2394 
Q 2494 2394 2734 2622 
Q 2975 2850 2975 3272 
Q 2975 3691 2734 3919 
Q 2494 4147 2053 4147 
L 1259 4147 
z
M 628 4666 
L 2053 4666 
Q 2838 4666 3239 4311 
Q 3641 3956 3641 3272 
Q 3641 2581 3239 2228 
Q 2838 1875 2053 1875 
L 1259 1875 
L 1259 0 
L 628 0 
L 628 4666 
z
" id="DejaVuSans-50" transform="scale(0.015625)"/>
       <path d="M 2631 2963 
Q 2534 3019 2420 3045 
Q 2306 3072 2169 3072 
Q 1681 3072 1420 2755 
Q 1159 2438 1159 1844 
L 1159 0 
L 581 0 
L 581 3500 
L 1159 3500 
L 1159 2956 
Q 1341 3275 1631 3429 
Q 1922 3584 2338 3584 
Q 2397 3584 2469 3576 
Q 2541 3569 2628 3553 
L 2631 2963 
z
" id="DejaVuSans-72" transform="scale(0.015625)"/>
       <path d="M 603 3500 
L 1178 3500 
L 1178 0 
L 603 0 
L 603 3500 
z
M 603 4863 
L 1178 4863 
L 1178 4134 
L 603 4134 
L 603 4863 
z
" id="DejaVuSans-69" transform="scale(0.015625)"/>
       <path d="M 3122 3366 
L 3122 2828 
Q 2878 2963 2633 3030 
Q 2388 3097 2138 3097 
Q 1578 3097 1268 2742 
Q 959 2388 959 1747 
Q 959 1106 1268 751 
Q 1578 397 2138 397 
Q 2388 397 2633 464 
Q 2878 531 3122 666 
L 3122 134 
Q 2881 22 2623 -34 
Q 2366 -91 2075 -91 
Q 1284 -91 818 406 
Q 353 903 353 1747 
Q 353 2603 823 3093 
Q 1294 3584 2113 3584 
Q 2378 3584 2631 3529 
Q 2884 3475 3122 3366 
z
" id="DejaVuSans-63" transform="scale(0.015625)"/>
       <path d="M 3597 1894 
L 3597 1613 
L 953 1613 
Q 991 1019 1311 708 
Q 1631 397 2203 397 
Q 2534 397 2845 478 
Q 3156 559 3463 722 
L 3463 178 
Q 3153 47 2828 -22 
Q 2503 -91 2169 -91 
Q 1331 -91 842 396 
Q 353 884 353 1716 
Q 353 2575 817 3079 
Q 1281 3584 2069 3584 
Q 2775 3584 3186 3129 
Q 3597 2675 3597 1894 
z
M 3022 2063 
Q 3016 2534 2758 2815 
Q 2500 3097 2075 3097 
Q 1594 3097 1305 2825 
Q 1016 2553 972 2059 
L 3022 2063 
z
" id="DejaVuSans-65" transform="scale(0.015625)"/>
      </defs>
      <use xlink:href="#DejaVuSans-50"/>
      <use x="58.552734" xlink:href="#DejaVuSans-72"/>
      <use x="99.666016" xlink:href="#DejaVuSans-69"/>
      <use x="127.449219" xlink:href="#DejaVuSans-63"/>
      <use x="182.429688" xlink:href="#DejaVuSans-65"/>
     </g>
    </g>
   </g>
   <g id="matplotlib.axis_2">
    <g id="ytick_1">
     <g id="line2d_10">
      <defs>
       <path d="M 0 0 
L -3.5 0 
" id="m50e2699a83" style="stroke:#000000;stroke-width:0.8;"/>
      </defs>
      <g>
       <use style="stroke:#000000;stroke-width:0.8;" x="72" xlink:href="#m50e2699a83" y="384.48"/>
      </g>
     </g>
     <g id="text_11">
      <!-- 0.00000 -->
      <g transform="translate(23.646875 388.279219)scale(0.1 -0.1)">
       <defs>
        <path d="M 684 794 
L 1344 794 
L 1344 0 
L 684 0 
L 684 794 
z
" id="DejaVuSans-2e" transform="scale(0.015625)"/>
       </defs>
       <use xlink:href="#DejaVuSans-30"/>
       <use x="63.623047" xlink:href="#DejaVuSans-2e"/>
       <use x="95.410156" xlink:href="#DejaVuSans-30"/>
       <use x="159.033203" xlink:href="#DejaVuSans-30"/>
       <use x="222.65625" xlink:href="#DejaVuSans-30"/>
       <use x="286.279297" xlink:href="#DejaVuSans-30"/>
       <use x="349.902344" xlink:href="#DejaVuSans-30"/>
      </g>
     </g>
    </g>
    <g id="ytick_2">
     <g id="line2d_11">
      <g>
       <use style="stroke:#000000;stroke-width:0.8;" x="72" xlink:href="#m50e2699a83" y="342.319701"/>
      </g>
     </g>
     <g id="text_12">
      <!-- 0.00025 -->
      <g transform="translate(23.646875 346.11892)scale(0.1 -0.1)">
       <use xlink:href="#DejaVuSans-30"/>
       <use x="63.623047" xlink:href="#DejaVuSans-2e"/>
       <use x="95.410156" xlink:href="#DejaVuSans-30"/>
       <use x="159.033203" xlink:href="#DejaVuSans-30"/>
       <use x="222.65625" xlink:href="#DejaVuSans-30"/>
       <use x="286.279297" xlink:href="#DejaVuSans-32"/>
       <use x="349.902344" xlink:href="#DejaVuSans-35"/>
      </g>
     </g>
    </g>
    <g id="ytick_3">
     <g id="line2d_12">
      <g>
       <use style="stroke:#000000;stroke-width:0.8;" x="72" xlink:href="#m50e2699a83" y="300.159403"/>
      </g>
     </g>
     <g id="text_13">
      <!-- 0.00050 -->
      <g transform="translate(23.646875 303.958622)scale(0.1 -0.1)">
       <use xlink:href="#DejaVuSans-30"/>
       <use x="63.623047" xlink:href="#DejaVuSans-2e"/>
       <use x="95.410156" xlink:href="#DejaVuSans-30"/>
       <use x="159.033203" xlink:href="#DejaVuSans-30"/>
       <use x="222.65625" xlink:href="#DejaVuSans-30"/>
       <use x="286.279297" xlink:href="#DejaVuSans-35"/>
       <use x="349.902344" xlink:href="#DejaVuSans-30"/>
      </g>
     </g>
    </g>
    <g id="ytick_4">
     <g id="line2d_13">
      <g>
       <use style="stroke:#000000;stroke-width:0.8;" x="72" xlink:href="#m50e2699a83" y="257.999104"/>
      </g>
     </g>
     <g id="text_14">
      <!-- 0.00075 -->
      <g transform="translate(23.646875 261.798323)scale(0.1 -0.1)">
       <use xlink:href="#DejaVuSans-30"/>
       <use x="63.623047" xlink:href="#DejaVuSans-2e"/>
       <use x="95.410156" xlink:href="#DejaVuSans-30"/>
       <use x="159.033203" xlink:href="#DejaVuSans-30"/>
       <use x="222.65625" xlink:href="#DejaVuSans-30"/>
       <use x="286.279297" xlink:href="#DejaVuSans-37"/>
       <use x="349.902344" xlink:href="#DejaVuSans-35"/>
      </g>
     </g>
    </g>
    <g id="ytick_5">
     <g id="line2d_14">
      <g>
       <use style="stroke:#000000;stroke-width:0.8;" x="72" xlink:href="#m50e2699a83" y="215.838806"/>
      </g>
     </g>
     <g id="text_15">
      <!-- 0.00100 -->
      <g transform="translate(23.646875 219.638025)scale(0.1 -0.1)">
       <use xlink:href="#DejaVuSans-30"/>
       <use x="63.623047" xlink:href="#DejaVuSans-2e"/>
       <use x="95.410156" xlink:href="#DejaVuSans-30"/>
       <use x="159.033203" xlink:href="#DejaVuSans-30"/>
       <use x="222.65625" xlink:href="#DejaVuSans-31"/>
       <use x="286.279297" xlink:href="#DejaVuSans-30"/>
       <use x="349.902344" xlink:href="#DejaVuSans-30"/>
      </g>
     </g>
    </g>
    <g id="ytick_6">
     <g id="line2d_15">
      <g>
       <use style="stroke:#000000;stroke-width:0.8;" x="72" xlink:href="#m50e2699a83" y="173.678507"/>
      </g>
     </g>
     <g id="text_16">
      <!-- 0.00125 -->
      <g transform="translate(23.646875 177.477726)scale(0.1 -0.1)">
       <use xlink:href="#DejaVuSans-30"/>
       <use x="63.623047" xlink:href="#DejaVuSans-2e"/>
       <use x="95.410156" xlink:href="#DejaVuSans-30"/>
       <use x="159.033203" xlink:href="#DejaVuSans-30"/>
       <use x="222.65625" xlink:href="#DejaVuSans-31"/>
       <use x="286.279297" xlink:href="#DejaVuSans-32"/>
       <use x="349.902344" xlink:href="#DejaVuSans-35"/>
      </g>
     </g>
    </g>
    <g id="ytick_7">
     <g id="line2d_16">
      <g>
       <use style="stroke:#000000;stroke-width:0.8;" x="72" xlink:href="#m50e2699a83" y="131.518209"/>
      </g>
     </g>
     <g id="text_17">
      <!-- 0.00150 -->
      <g transform="translate(23.646875 135.317428)scale(0.1 -0.1)">
       <use xlink:href="#DejaVuSans-30"/>
       <use x="63.623047" xlink:href="#DejaVuSans-2e"/>
       <use x="95.410156" xlink:href="#DejaVuSans-30"/>
       <use x="159.033203" xlink:href="#DejaVuSans-30"/>
       <use x="222.65625" xlink:href="#DejaVuSans-31"/>
       <use x="286.279297" xlink:href="#DejaVuSans-35"/>
       <use x="349.902344" xlink:href="#DejaVuSans-30"/>
      </g>
     </g>
    </g>
    <g id="ytick_8">
     <g id="line2d_17">
      <g>
       <use style="stroke:#000000;stroke-width:0.8;" x="72" xlink:href="#m50e2699a83" y="89.35791"/>
      </g>
     </g>
     <g id="text_18">
      <!-- 0.00175 -->
      <g transform="translate(23.646875 93.157129)scale(0.1 -0.1)">
       <use xlink:href="#DejaVuSans-30"/>
       <use x="63.623047" xlink:href="#DejaVuSans-2e"/>
       <use x="95.410156" xlink:href="#DejaVuSans-30"/>
       <use x="159.033203" xlink:href="#DejaVuSans-30"/>
       <use x="222.65625" xlink:href="#DejaVuSans-31"/>
       <use x="286.279297" xlink:href="#DejaVuSans-37"/>
       <use x="349.902344" xlink:href="#DejaVuSans-35"/>
      </g>
     </g>
    </g>
    <g id="text_19">
     <!-- Frequency -->
     <g transform="translate(16.735312 254.321562)rotate(-90)scale(0.14 -0.14)">
      <defs>
       <path d="M 628 4666 
L 3309 4666 
L 3309 4134 
L 1259 4134 
L 1259 2759 
L 3109 2759 
L 3109 2228 
L 1259 2228 
L 1259 0 
L 628 0 
L 628 4666 
z
" id="DejaVuSans-46" transform="scale(0.015625)"/>
       <path d="M 947 1747 
Q 947 1113 1208 752 
Q 1469 391 1925 391 
Q 2381 391 2643 752 
Q 2906 1113 2906 1747 
Q 2906 2381 2643 2742 
Q 2381 3103 1925 3103 
Q 1469 3103 1208 2742 
Q 947 2381 947 1747 
z
M 2906 525 
Q 2725 213 2448 61 
Q 2172 -91 1784 -91 
Q 1150 -91 751 415 
Q 353 922 353 1747 
Q 353 2572 751 3078 
Q 1150 3584 1784 3584 
Q 2172 3584 2448 3432 
Q 2725 3281 2906 2969 
L 2906 3500 
L 3481 3500 
L 3481 -1331 
L 2906 -1331 
L 2906 525 
z
" id="DejaVuSans-71" transform="scale(0.015625)"/>
       <path d="M 544 1381 
L 544 3500 
L 1119 3500 
L 1119 1403 
Q 1119 906 1312 657 
Q 1506 409 1894 409 
Q 2359 409 2629 706 
Q 2900 1003 2900 1516 
L 2900 3500 
L 3475 3500 
L 3475 0 
L 2900 0 
L 2900 538 
Q 2691 219 2414 64 
Q 2138 -91 1772 -91 
Q 1169 -91 856 284 
Q 544 659 544 1381 
z
M 1991 3584 
L 1991 3584 
z
" id="DejaVuSans-75" transform="scale(0.015625)"/>
       <path d="M 3513 2113 
L 3513 0 
L 2938 0 
L 2938 2094 
Q 2938 2591 2744 2837 
Q 2550 3084 2163 3084 
Q 1697 3084 1428 2787 
Q 1159 2491 1159 1978 
L 1159 0 
L 581 0 
L 581 3500 
L 1159 3500 
L 1159 2956 
Q 1366 3272 1645 3428 
Q 1925 3584 2291 3584 
Q 2894 3584 3203 3211 
Q 3513 2838 3513 2113 
z
" id="DejaVuSans-6e" transform="scale(0.015625)"/>
       <path d="M 2059 -325 
Q 1816 -950 1584 -1140 
Q 1353 -1331 966 -1331 
L 506 -1331 
L 506 -850 
L 844 -850 
Q 1081 -850 1212 -737 
Q 1344 -625 1503 -206 
L 1606 56 
L 191 3500 
L 800 3500 
L 1894 763 
L 2988 3500 
L 3597 3500 
L 2059 -325 
z
" id="DejaVuSans-79" transform="scale(0.015625)"/>
      </defs>
      <use xlink:href="#DejaVuSans-46"/>
      <use x="50.269531" xlink:href="#DejaVuSans-72"/>
      <use x="89.132812" xlink:href="#DejaVuSans-65"/>
      <use x="150.65625" xlink:href="#DejaVuSans-71"/>
      <use x="214.132812" xlink:href="#DejaVuSans-75"/>
      <use x="277.511719" xlink:href="#DejaVuSans-65"/>
      <use x="339.035156" xlink:href="#DejaVuSans-6e"/>
      <use x="402.414062" xlink:href="#DejaVuSans-63"/>
      <use x="457.394531" xlink:href="#DejaVuSans-79"/>
     </g>
    </g>
   </g>
   <g id="patch_103">
    <path d="M 72 384.48 
L 72 51.84 
" style="fill:none;stroke:#000000;stroke-linecap:square;stroke-linejoin:miter;stroke-width:0.8;"/>
   </g>
   <g id="patch_104">
    <path d="M 518.4 384.48 
L 518.4 51.84 
" style="fill:none;stroke:#000000;stroke-linecap:square;stroke-linejoin:miter;stroke-width:0.8;"/>
   </g>
   <g id="patch_105">
    <path d="M 72 384.48 
L 518.4 384.48 
" style="fill:none;stroke:#000000;stroke-linecap:square;stroke-linejoin:miter;stroke-width:0.8;"/>
   </g>
   <g id="patch_106">
    <path d="M 72 51.84 
L 518.4 51.84 
" style="fill:none;stroke:#000000;stroke-linecap:square;stroke-linejoin:miter;stroke-width:0.8;"/>
   </g>
   <g id="legend_1">
    <g id="patch_107">
     <path d="M 395.233125 96.6675 
L 510 96.6675 
Q 512.4 96.6675 512.4 94.2675 
L 512.4 60.24 
Q 512.4 57.84 510 57.84 
L 395.233125 57.84 
Q 392.833125 57.84 392.833125 60.24 
L 392.833125 94.2675 
Q 392.833125 96.6675 395.233125 96.6675 
z
" style="fill:#ffffff;opacity:0.8;stroke:#cccccc;stroke-linejoin:miter;"/>
    </g>
    <g id="patch_108">
     <path d="M 397.633125 71.758125 
L 421.633125 71.758125 
L 421.633125 63.358125 
L 397.633125 63.358125 
z
" style="fill:#0000ff;opacity:0.5;stroke:#ffffff;stroke-linejoin:miter;"/>
    </g>
    <g id="text_20">
     <!-- renovated -->
     <g transform="translate(431.233125 71.758125)scale(0.12 -0.12)">
      <defs>
       <path d="M 1959 3097 
Q 1497 3097 1228 2736 
Q 959 2375 959 1747 
Q 959 1119 1226 758 
Q 1494 397 1959 397 
Q 2419 397 2687 759 
Q 2956 1122 2956 1747 
Q 2956 2369 2687 2733 
Q 2419 3097 1959 3097 
z
M 1959 3584 
Q 2709 3584 3137 3096 
Q 3566 2609 3566 1747 
Q 3566 888 3137 398 
Q 2709 -91 1959 -91 
Q 1206 -91 779 398 
Q 353 888 353 1747 
Q 353 2609 779 3096 
Q 1206 3584 1959 3584 
z
" id="DejaVuSans-6f" transform="scale(0.015625)"/>
       <path d="M 191 3500 
L 800 3500 
L 1894 563 
L 2988 3500 
L 3597 3500 
L 2284 0 
L 1503 0 
L 191 3500 
z
" id="DejaVuSans-76" transform="scale(0.015625)"/>
       <path d="M 2194 1759 
Q 1497 1759 1228 1600 
Q 959 1441 959 1056 
Q 959 750 1161 570 
Q 1363 391 1709 391 
Q 2188 391 2477 730 
Q 2766 1069 2766 1631 
L 2766 1759 
L 2194 1759 
z
M 3341 1997 
L 3341 0 
L 2766 0 
L 2766 531 
Q 2569 213 2275 61 
Q 1981 -91 1556 -91 
Q 1019 -91 701 211 
Q 384 513 384 1019 
Q 384 1609 779 1909 
Q 1175 2209 1959 2209 
L 2766 2209 
L 2766 2266 
Q 2766 2663 2505 2880 
Q 2244 3097 1772 3097 
Q 1472 3097 1187 3025 
Q 903 2953 641 2809 
L 641 3341 
Q 956 3463 1253 3523 
Q 1550 3584 1831 3584 
Q 2591 3584 2966 3190 
Q 3341 2797 3341 1997 
z
" id="DejaVuSans-61" transform="scale(0.015625)"/>
       <path d="M 1172 4494 
L 1172 3500 
L 2356 3500 
L 2356 3053 
L 1172 3053 
L 1172 1153 
Q 1172 725 1289 603 
Q 1406 481 1766 481 
L 2356 481 
L 2356 0 
L 1766 0 
Q 1100 0 847 248 
Q 594 497 594 1153 
L 594 3053 
L 172 3053 
L 172 3500 
L 594 3500 
L 594 4494 
L 1172 4494 
z
" id="DejaVuSans-74" transform="scale(0.015625)"/>
       <path d="M 2906 2969 
L 2906 4863 
L 3481 4863 
L 3481 0 
L 2906 0 
L 2906 525 
Q 2725 213 2448 61 
Q 2172 -91 1784 -91 
Q 1150 -91 751 415 
Q 353 922 353 1747 
Q 353 2572 751 3078 
Q 1150 3584 1784 3584 
Q 2172 3584 2448 3432 
Q 2725 3281 2906 2969 
z
M 947 1747 
Q 947 1113 1208 752 
Q 1469 391 1925 391 
Q 2381 391 2643 752 
Q 2906 1113 2906 1747 
Q 2906 2381 2643 2742 
Q 2381 3103 1925 3103 
Q 1469 3103 1208 2742 
Q 947 2381 947 1747 
z
" id="DejaVuSans-64" transform="scale(0.015625)"/>
      </defs>
      <use xlink:href="#DejaVuSans-72"/>
      <use x="38.863281" xlink:href="#DejaVuSans-65"/>
      <use x="100.386719" xlink:href="#DejaVuSans-6e"/>
      <use x="163.765625" xlink:href="#DejaVuSans-6f"/>
      <use x="224.947266" xlink:href="#DejaVuSans-76"/>
      <use x="284.126953" xlink:href="#DejaVuSans-61"/>
      <use x="345.40625" xlink:href="#DejaVuSans-74"/>
      <use x="384.615234" xlink:href="#DejaVuSans-65"/>
      <use x="446.138672" xlink:href="#DejaVuSans-64"/>
     </g>
    </g>
    <g id="patch_109">
     <path d="M 397.633125 89.371875 
L 421.633125 89.371875 
L 421.633125 80.971875 
L 397.633125 80.971875 
z
" style="fill:#ff0000;opacity:0.5;stroke:#ffffff;stroke-linejoin:miter;"/>
    </g>
    <g id="text_21">
     <!-- unrenovated -->
     <g transform="translate(431.233125 89.371875)scale(0.12 -0.12)">
      <use xlink:href="#DejaVuSans-75"/>
      <use x="63.378906" xlink:href="#DejaVuSans-6e"/>
      <use x="126.757812" xlink:href="#DejaVuSans-72"/>
      <use x="165.621094" xlink:href="#DejaVuSans-65"/>
      <use x="227.144531" xlink:href="#DejaVuSans-6e"/>
      <use x="290.523438" xlink:href="#DejaVuSans-6f"/>
      <use x="351.705078" xlink:href="#DejaVuSans-76"/>
      <use x="410.884766" xlink:href="#DejaVuSans-61"/>
      <use x="472.164062" xlink:href="#DejaVuSans-74"/>
      <use x="511.373047" xlink:href="#DejaVuSans-65"/>
      <use x="572.896484" xlink:href="#DejaVuSans-64"/>
     </g>
    </g>
   </g>
  </g>
 </g>
 <defs>
  <clipPath id="p424fe43481">
   <rect height="332.64" width="446.4" x="72" y="51.84"/>
  </clipPath>
 </defs>
</svg>
