<?xml version="1.0" encoding="utf-8"?>
<svg xmlns="http://www.w3.org/2000/svg" xmlns:xlink="http://www.w3.org/1999/xlink" width="600" height="400" viewBox="0 0 2400 1600">
<defs>
  <clipPath id="clip210">
    <rect x="0" y="0" width="2400" height="1600"/>
  </clipPath>
</defs>
<path clip-path="url(#clip210)" d="M0 1600 L2400 1600 L2400 8.88178e-14 L0 8.88178e-14  Z" fill="#ffffff" fill-rule="evenodd" fill-opacity="1"/>
<defs>
  <clipPath id="clip211">
    <rect x="480" y="0" width="1681" height="1600"/>
  </clipPath>
</defs>
<path clip-path="url(#clip210)" d="M358.407 1405.9 L2352.76 1405.9 L2352.76 47.2441 L358.407 47.2441  Z" fill="#ffffff" fill-rule="evenodd" fill-opacity="1"/>
<defs>
  <clipPath id="clip212">
    <rect x="358" y="47" width="1995" height="1360"/>
  </clipPath>
</defs>
<polyline clip-path="url(#clip212)" style="stroke:#000000; stroke-linecap:round; stroke-linejoin:round; stroke-width:2; stroke-opacity:0.1; fill:none" points="468.1,1405.9 468.1,47.2441 "/>
<polyline clip-path="url(#clip212)" style="stroke:#000000; stroke-linecap:round; stroke-linejoin:round; stroke-width:2; stroke-opacity:0.1; fill:none" points="923.219,1405.9 923.219,47.2441 "/>
<polyline clip-path="url(#clip212)" style="stroke:#000000; stroke-linecap:round; stroke-linejoin:round; stroke-width:2; stroke-opacity:0.1; fill:none" points="1378.34,1405.9 1378.34,47.2441 "/>
<polyline clip-path="url(#clip212)" style="stroke:#000000; stroke-linecap:round; stroke-linejoin:round; stroke-width:2; stroke-opacity:0.1; fill:none" points="1833.46,1405.9 1833.46,47.2441 "/>
<polyline clip-path="url(#clip212)" style="stroke:#000000; stroke-linecap:round; stroke-linejoin:round; stroke-width:2; stroke-opacity:0.1; fill:none" points="2288.58,1405.9 2288.58,47.2441 "/>
<polyline clip-path="url(#clip210)" style="stroke:#000000; stroke-linecap:round; stroke-linejoin:round; stroke-width:4; stroke-opacity:1; fill:none" points="358.407,1405.9 2352.76,1405.9 "/>
<polyline clip-path="url(#clip210)" style="stroke:#000000; stroke-linecap:round; stroke-linejoin:round; stroke-width:4; stroke-opacity:1; fill:none" points="468.1,1405.9 468.1,1387 "/>
<polyline clip-path="url(#clip210)" style="stroke:#000000; stroke-linecap:round; stroke-linejoin:round; stroke-width:4; stroke-opacity:1; fill:none" points="923.219,1405.9 923.219,1387 "/>
<polyline clip-path="url(#clip210)" style="stroke:#000000; stroke-linecap:round; stroke-linejoin:round; stroke-width:4; stroke-opacity:1; fill:none" points="1378.34,1405.9 1378.34,1387 "/>
<polyline clip-path="url(#clip210)" style="stroke:#000000; stroke-linecap:round; stroke-linejoin:round; stroke-width:4; stroke-opacity:1; fill:none" points="1833.46,1405.9 1833.46,1387 "/>
<polyline clip-path="url(#clip210)" style="stroke:#000000; stroke-linecap:round; stroke-linejoin:round; stroke-width:4; stroke-opacity:1; fill:none" points="2288.58,1405.9 2288.58,1387 "/>
<path clip-path="url(#clip210)" d="M468.1 1439.75 Q463.586 1439.75 461.3 1444.2 Q459.043 1448.63 459.043 1457.54 Q459.043 1466.43 461.3 1470.88 Q463.586 1475.31 468.1 1475.31 Q472.643 1475.31 474.9 1470.88 Q477.186 1466.43 477.186 1457.54 Q477.186 1448.63 474.9 1444.2 Q472.643 1439.75 468.1 1439.75 M468.1 1435.12 Q475.363 1435.12 479.182 1440.88 Q483.03 1446.61 483.03 1457.54 Q483.03 1468.45 479.182 1474.21 Q475.363 1479.94 468.1 1479.94 Q460.837 1479.94 456.989 1474.21 Q453.169 1468.45 453.169 1457.54 Q453.169 1446.61 456.989 1440.88 Q460.837 1435.12 468.1 1435.12 Z" fill="#000000" fill-rule="nonzero" fill-opacity="1" /><path clip-path="url(#clip210)" d="M858.983 1474.18 L879.382 1474.18 L879.382 1479.1 L851.952 1479.1 L851.952 1474.18 Q855.279 1470.74 861.008 1464.95 Q866.766 1459.13 868.242 1457.46 Q871.049 1454.3 872.148 1452.13 Q873.277 1449.93 873.277 1447.82 Q873.277 1444.38 870.846 1442.21 Q868.445 1440.04 864.567 1440.04 Q861.819 1440.04 858.751 1440.99 Q855.713 1441.95 852.241 1443.89 L852.241 1437.98 Q855.771 1436.57 858.838 1435.84 Q861.905 1435.12 864.452 1435.12 Q871.165 1435.12 875.158 1438.48 Q879.151 1441.83 879.151 1447.44 Q879.151 1450.11 878.138 1452.51 Q877.154 1454.88 874.521 1458.12 Q873.798 1458.96 869.92 1462.98 Q866.043 1466.98 858.983 1474.18 Z" fill="#000000" fill-rule="nonzero" fill-opacity="1" /><path clip-path="url(#clip210)" d="M904.151 1439.75 Q899.637 1439.75 897.351 1444.2 Q895.094 1448.63 895.094 1457.54 Q895.094 1466.43 897.351 1470.88 Q899.637 1475.31 904.151 1475.31 Q908.693 1475.31 910.95 1470.88 Q913.236 1466.43 913.236 1457.54 Q913.236 1448.63 910.95 1444.2 Q908.693 1439.75 904.151 1439.75 M904.151 1435.12 Q911.413 1435.12 915.233 1440.88 Q919.081 1446.61 919.081 1457.54 Q919.081 1468.45 915.233 1474.21 Q911.413 1479.94 904.151 1479.94 Q896.888 1479.94 893.039 1474.21 Q889.22 1468.45 889.22 1457.54 Q889.22 1446.61 893.039 1440.88 Q896.888 1435.12 904.151 1435.12 Z" fill="#000000" fill-rule="nonzero" fill-opacity="1" /><path clip-path="url(#clip210)" d="M941.853 1439.75 Q937.339 1439.75 935.053 1444.2 Q932.796 1448.63 932.796 1457.54 Q932.796 1466.43 935.053 1470.88 Q937.339 1475.31 941.853 1475.31 Q946.396 1475.31 948.653 1470.88 Q950.938 1466.43 950.938 1457.54 Q950.938 1448.63 948.653 1444.2 Q946.396 1439.75 941.853 1439.75 M941.853 1435.12 Q949.116 1435.12 952.935 1440.88 Q956.783 1446.61 956.783 1457.54 Q956.783 1468.45 952.935 1474.21 Q949.116 1479.94 941.853 1479.94 Q934.59 1479.94 930.742 1474.21 Q926.922 1468.45 926.922 1457.54 Q926.922 1446.61 930.742 1440.88 Q934.59 1435.12 941.853 1435.12 Z" fill="#000000" fill-rule="nonzero" fill-opacity="1" /><path clip-path="url(#clip210)" d="M979.555 1439.75 Q975.041 1439.75 972.755 1444.2 Q970.499 1448.63 970.499 1457.54 Q970.499 1466.43 972.755 1470.88 Q975.041 1475.31 979.555 1475.31 Q984.098 1475.31 986.355 1470.88 Q988.641 1466.43 988.641 1457.54 Q988.641 1448.63 986.355 1444.2 Q984.098 1439.75 979.555 1439.75 M979.555 1435.12 Q986.818 1435.12 990.637 1440.88 Q994.486 1446.61 994.486 1457.54 Q994.486 1468.45 990.637 1474.21 Q986.818 1479.94 979.555 1479.94 Q972.293 1479.94 968.444 1474.21 Q964.625 1468.45 964.625 1457.54 Q964.625 1446.61 968.444 1440.88 Q972.293 1435.12 979.555 1435.12 Z" fill="#000000" fill-rule="nonzero" fill-opacity="1" /><path clip-path="url(#clip210)" d="M1325.85 1440.99 L1311.09 1464.05 L1325.85 1464.05 L1325.85 1440.99 M1324.32 1435.9 L1331.67 1435.9 L1331.67 1464.05 L1337.83 1464.05 L1337.83 1468.91 L1331.67 1468.91 L1331.67 1479.1 L1325.85 1479.1 L1325.85 1468.91 L1306.35 1468.91 L1306.35 1463.27 L1324.32 1435.9 Z" fill="#000000" fill-rule="nonzero" fill-opacity="1" /><path clip-path="url(#clip210)" d="M1359.99 1439.75 Q1355.48 1439.75 1353.19 1444.2 Q1350.94 1448.63 1350.94 1457.54 Q1350.94 1466.43 1353.19 1470.88 Q1355.48 1475.31 1359.99 1475.31 Q1364.54 1475.31 1366.79 1470.88 Q1369.08 1466.43 1369.08 1457.54 Q1369.08 1448.63 1366.79 1444.2 Q1364.54 1439.75 1359.99 1439.75 M1359.99 1435.12 Q1367.26 1435.12 1371.07 1440.88 Q1374.92 1446.61 1374.92 1457.54 Q1374.92 1468.45 1371.07 1474.21 Q1367.26 1479.94 1359.99 1479.94 Q1352.73 1479.94 1348.88 1474.21 Q1345.06 1468.45 1345.06 1457.54 Q1345.06 1446.61 1348.88 1440.88 Q1352.73 1435.12 1359.99 1435.12 Z" fill="#000000" fill-rule="nonzero" fill-opacity="1" /><path clip-path="url(#clip210)" d="M1397.7 1439.75 Q1393.18 1439.75 1390.9 1444.2 Q1388.64 1448.63 1388.64 1457.54 Q1388.64 1466.43 1390.9 1470.88 Q1393.18 1475.31 1397.7 1475.31 Q1402.24 1475.31 1404.49 1470.88 Q1406.78 1466.43 1406.78 1457.54 Q1406.78 1448.63 1404.49 1444.2 Q1402.24 1439.75 1397.7 1439.75 M1397.7 1435.12 Q1404.96 1435.12 1408.78 1440.88 Q1412.63 1446.61 1412.63 1457.54 Q1412.63 1468.45 1408.78 1474.21 Q1404.96 1479.94 1397.7 1479.94 Q1390.43 1479.94 1386.58 1474.21 Q1382.76 1468.45 1382.76 1457.54 Q1382.76 1446.61 1386.58 1440.88 Q1390.43 1435.12 1397.7 1435.12 Z" fill="#000000" fill-rule="nonzero" fill-opacity="1" /><path clip-path="url(#clip210)" d="M1435.4 1439.75 Q1430.88 1439.75 1428.6 1444.2 Q1426.34 1448.63 1426.34 1457.54 Q1426.34 1466.43 1428.6 1470.88 Q1430.88 1475.31 1435.4 1475.31 Q1439.94 1475.31 1442.2 1470.88 Q1444.48 1466.43 1444.48 1457.54 Q1444.48 1448.63 1442.2 1444.2 Q1439.94 1439.75 1435.4 1439.75 M1435.4 1435.12 Q1442.66 1435.12 1446.48 1440.88 Q1450.33 1446.61 1450.33 1457.54 Q1450.33 1468.45 1446.48 1474.21 Q1442.66 1479.94 1435.4 1479.94 Q1428.13 1479.94 1424.29 1474.21 Q1420.47 1468.45 1420.47 1457.54 Q1420.47 1446.61 1424.29 1440.88 Q1428.13 1435.12 1435.4 1435.12 Z" fill="#000000" fill-rule="nonzero" fill-opacity="1" /><path clip-path="url(#clip210)" d="M1777.51 1455.17 Q1773.58 1455.17 1771.26 1457.86 Q1768.97 1460.55 1768.97 1465.24 Q1768.97 1469.9 1771.26 1472.62 Q1773.58 1475.31 1777.51 1475.31 Q1781.45 1475.31 1783.73 1472.62 Q1786.05 1469.9 1786.05 1465.24 Q1786.05 1460.55 1783.73 1457.86 Q1781.45 1455.17 1777.51 1455.17 M1789.11 1436.85 L1789.11 1442.18 Q1786.91 1441.14 1784.66 1440.59 Q1782.43 1440.04 1780.23 1440.04 Q1774.44 1440.04 1771.38 1443.94 Q1768.34 1447.85 1767.9 1455.75 Q1769.61 1453.23 1772.19 1451.9 Q1774.76 1450.54 1777.86 1450.54 Q1784.37 1450.54 1788.13 1454.51 Q1791.92 1458.44 1791.92 1465.24 Q1791.92 1471.9 1787.98 1475.92 Q1784.05 1479.94 1777.51 1479.94 Q1770.02 1479.94 1766.05 1474.21 Q1762.09 1468.45 1762.09 1457.54 Q1762.09 1447.3 1766.95 1441.22 Q1771.81 1435.12 1780 1435.12 Q1782.2 1435.12 1784.43 1435.55 Q1786.68 1435.99 1789.11 1436.85 Z" fill="#000000" fill-rule="nonzero" fill-opacity="1" /><path clip-path="url(#clip210)" d="M1814.49 1439.75 Q1809.98 1439.75 1807.69 1444.2 Q1805.43 1448.63 1805.43 1457.54 Q1805.43 1466.43 1807.69 1470.88 Q1809.98 1475.31 1814.49 1475.31 Q1819.03 1475.31 1821.29 1470.88 Q1823.57 1466.43 1823.57 1457.54 Q1823.57 1448.63 1821.29 1444.2 Q1819.03 1439.75 1814.49 1439.75 M1814.49 1435.12 Q1821.75 1435.12 1825.57 1440.88 Q1829.42 1446.61 1829.42 1457.54 Q1829.42 1468.45 1825.57 1474.21 Q1821.75 1479.94 1814.49 1479.94 Q1807.23 1479.94 1803.38 1474.21 Q1799.56 1468.45 1799.56 1457.54 Q1799.56 1446.61 1803.38 1440.88 Q1807.23 1435.12 1814.49 1435.12 Z" fill="#000000" fill-rule="nonzero" fill-opacity="1" /><path clip-path="url(#clip210)" d="M1852.19 1439.75 Q1847.68 1439.75 1845.39 1444.2 Q1843.14 1448.63 1843.14 1457.54 Q1843.14 1466.43 1845.39 1470.88 Q1847.68 1475.31 1852.19 1475.31 Q1856.73 1475.31 1858.99 1470.88 Q1861.28 1466.43 1861.28 1457.54 Q1861.28 1448.63 1858.99 1444.2 Q1856.73 1439.75 1852.19 1439.75 M1852.19 1435.12 Q1859.45 1435.12 1863.27 1440.88 Q1867.12 1446.61 1867.12 1457.54 Q1867.12 1468.45 1863.27 1474.21 Q1859.45 1479.94 1852.19 1479.94 Q1844.93 1479.94 1841.08 1474.21 Q1837.26 1468.45 1837.26 1457.54 Q1837.26 1446.61 1841.08 1440.88 Q1844.93 1435.12 1852.19 1435.12 Z" fill="#000000" fill-rule="nonzero" fill-opacity="1" /><path clip-path="url(#clip210)" d="M1889.89 1439.75 Q1885.38 1439.75 1883.09 1444.2 Q1880.84 1448.63 1880.84 1457.54 Q1880.84 1466.43 1883.09 1470.88 Q1885.38 1475.31 1889.89 1475.31 Q1894.44 1475.31 1896.69 1470.88 Q1898.98 1466.43 1898.98 1457.54 Q1898.98 1448.63 1896.69 1444.2 Q1894.44 1439.75 1889.89 1439.75 M1889.89 1435.12 Q1897.16 1435.12 1900.98 1440.88 Q1904.82 1446.61 1904.82 1457.54 Q1904.82 1468.45 1900.98 1474.21 Q1897.16 1479.94 1889.89 1479.94 Q1882.63 1479.94 1878.78 1474.21 Q1874.96 1468.45 1874.96 1457.54 Q1874.96 1446.61 1878.78 1440.88 Q1882.63 1435.12 1889.89 1435.12 Z" fill="#000000" fill-rule="nonzero" fill-opacity="1" /><path clip-path="url(#clip210)" d="M2231.96 1458.58 Q2227.8 1458.58 2225.4 1460.81 Q2223.02 1463.04 2223.02 1466.95 Q2223.02 1470.85 2225.4 1473.08 Q2227.8 1475.31 2231.96 1475.31 Q2236.13 1475.31 2238.53 1473.08 Q2240.93 1470.82 2240.93 1466.95 Q2240.93 1463.04 2238.53 1460.81 Q2236.16 1458.58 2231.96 1458.58 M2226.12 1456.1 Q2222.36 1455.17 2220.24 1452.6 Q2218.16 1450.02 2218.16 1446.32 Q2218.16 1441.14 2221.84 1438.13 Q2225.54 1435.12 2231.96 1435.12 Q2238.42 1435.12 2242.09 1438.13 Q2245.77 1441.14 2245.77 1446.32 Q2245.77 1450.02 2243.65 1452.6 Q2241.57 1455.17 2237.84 1456.1 Q2242.06 1457.08 2244.41 1459.94 Q2246.78 1462.81 2246.78 1466.95 Q2246.78 1473.23 2242.93 1476.58 Q2239.11 1479.94 2231.96 1479.94 Q2224.82 1479.94 2220.97 1476.58 Q2217.15 1473.23 2217.15 1466.95 Q2217.15 1462.81 2219.52 1459.94 Q2221.89 1457.08 2226.12 1456.1 M2223.98 1446.87 Q2223.98 1450.22 2226.06 1452.1 Q2228.17 1453.98 2231.96 1453.98 Q2235.73 1453.98 2237.84 1452.1 Q2239.98 1450.22 2239.98 1446.87 Q2239.98 1443.51 2237.84 1441.63 Q2235.73 1439.75 2231.96 1439.75 Q2228.17 1439.75 2226.06 1441.63 Q2223.98 1443.51 2223.98 1446.87 Z" fill="#000000" fill-rule="nonzero" fill-opacity="1" /><path clip-path="url(#clip210)" d="M2269.67 1439.75 Q2265.15 1439.75 2262.87 1444.2 Q2260.61 1448.63 2260.61 1457.54 Q2260.61 1466.43 2262.87 1470.88 Q2265.15 1475.31 2269.67 1475.31 Q2274.21 1475.31 2276.47 1470.88 Q2278.75 1466.43 2278.75 1457.54 Q2278.75 1448.63 2276.47 1444.2 Q2274.21 1439.75 2269.67 1439.75 M2269.67 1435.12 Q2276.93 1435.12 2280.75 1440.88 Q2284.6 1446.61 2284.6 1457.54 Q2284.6 1468.45 2280.75 1474.21 Q2276.93 1479.94 2269.67 1479.94 Q2262.4 1479.94 2258.55 1474.21 Q2254.74 1468.45 2254.74 1457.54 Q2254.74 1446.61 2258.55 1440.88 Q2262.4 1435.12 2269.67 1435.12 Z" fill="#000000" fill-rule="nonzero" fill-opacity="1" /><path clip-path="url(#clip210)" d="M2307.37 1439.75 Q2302.85 1439.75 2300.57 1444.2 Q2298.31 1448.63 2298.31 1457.54 Q2298.31 1466.43 2300.57 1470.88 Q2302.85 1475.31 2307.37 1475.31 Q2311.91 1475.31 2314.17 1470.88 Q2316.45 1466.43 2316.45 1457.54 Q2316.45 1448.63 2314.17 1444.2 Q2311.91 1439.75 2307.37 1439.75 M2307.37 1435.12 Q2314.63 1435.12 2318.45 1440.88 Q2322.3 1446.61 2322.3 1457.54 Q2322.3 1468.45 2318.45 1474.21 Q2314.63 1479.94 2307.37 1479.94 Q2300.11 1479.94 2296.26 1474.21 Q2292.44 1468.45 2292.44 1457.54 Q2292.44 1446.61 2296.26 1440.88 Q2300.11 1435.12 2307.37 1435.12 Z" fill="#000000" fill-rule="nonzero" fill-opacity="1" /><path clip-path="url(#clip210)" d="M2345.07 1439.75 Q2340.56 1439.75 2338.27 1444.2 Q2336.01 1448.63 2336.01 1457.54 Q2336.01 1466.43 2338.27 1470.88 Q2340.56 1475.31 2345.07 1475.31 Q2349.61 1475.31 2351.87 1470.88 Q2354.16 1466.43 2354.16 1457.54 Q2354.16 1448.63 2351.87 1444.2 Q2349.61 1439.75 2345.07 1439.75 M2345.07 1435.12 Q2352.33 1435.12 2356.15 1440.88 Q2360 1446.61 2360 1457.54 Q2360 1468.45 2356.15 1474.21 Q2352.33 1479.94 2345.07 1479.94 Q2337.81 1479.94 2333.96 1474.21 Q2330.14 1468.45 2330.14 1457.54 Q2330.14 1446.61 2333.96 1440.88 Q2337.81 1435.12 2345.07 1435.12 Z" fill="#000000" fill-rule="nonzero" fill-opacity="1" /><path clip-path="url(#clip210)" d="M1275.05 1524.18 L1275.05 1545.28 L1284.6 1545.28 Q1289.9 1545.28 1292.8 1542.53 Q1295.7 1539.79 1295.7 1534.71 Q1295.7 1529.67 1292.8 1526.92 Q1289.9 1524.18 1284.6 1524.18 L1275.05 1524.18 M1267.45 1517.93 L1284.6 1517.93 Q1294.04 1517.93 1298.86 1522.22 Q1303.71 1526.47 1303.71 1534.71 Q1303.71 1543.02 1298.86 1547.27 Q1294.04 1551.52 1284.6 1551.52 L1275.05 1551.52 L1275.05 1574.09 L1267.45 1574.09 L1267.45 1517.93 Z" fill="#000000" fill-rule="nonzero" fill-opacity="1" /><path clip-path="url(#clip210)" d="M1336.66 1538.43 Q1335.49 1537.76 1334.1 1537.45 Q1332.75 1537.12 1331.09 1537.12 Q1325.23 1537.12 1322.07 1540.95 Q1318.94 1544.75 1318.94 1551.9 L1318.94 1574.09 L1311.99 1574.09 L1311.99 1531.96 L1318.94 1531.96 L1318.94 1538.51 Q1321.13 1534.67 1324.62 1532.83 Q1328.12 1530.95 1333.13 1530.95 Q1333.84 1530.95 1334.7 1531.06 Q1335.57 1531.13 1336.62 1531.32 L1336.66 1538.43 Z" fill="#000000" fill-rule="nonzero" fill-opacity="1" /><path clip-path="url(#clip210)" d="M1343.92 1531.96 L1350.84 1531.96 L1350.84 1574.09 L1343.92 1574.09 L1343.92 1531.96 M1343.92 1515.56 L1350.84 1515.56 L1350.84 1524.33 L1343.92 1524.33 L1343.92 1515.56 Z" fill="#000000" fill-rule="nonzero" fill-opacity="1" /><path clip-path="url(#clip210)" d="M1395.64 1533.58 L1395.64 1540.05 Q1392.71 1538.43 1389.74 1537.64 Q1386.8 1536.81 1383.79 1536.81 Q1377.06 1536.81 1373.34 1541.1 Q1369.61 1545.35 1369.61 1553.06 Q1369.61 1560.78 1373.34 1565.06 Q1377.06 1569.31 1383.79 1569.31 Q1386.8 1569.31 1389.74 1568.52 Q1392.71 1567.7 1395.64 1566.08 L1395.64 1572.47 Q1392.75 1573.83 1389.62 1574.51 Q1386.54 1575.18 1383.04 1575.18 Q1373.52 1575.18 1367.92 1569.2 Q1362.31 1563.22 1362.31 1553.06 Q1362.31 1542.76 1367.96 1536.85 Q1373.64 1530.95 1383.49 1530.95 Q1386.69 1530.95 1389.74 1531.62 Q1392.78 1532.26 1395.64 1533.58 Z" fill="#000000" fill-rule="nonzero" fill-opacity="1" /><path clip-path="url(#clip210)" d="M1443.71 1551.3 L1443.71 1554.68 L1411.89 1554.68 Q1412.34 1561.83 1416.18 1565.59 Q1420.05 1569.31 1426.94 1569.31 Q1430.93 1569.31 1434.65 1568.34 Q1438.41 1567.36 1442.1 1565.4 L1442.1 1571.95 Q1438.37 1573.53 1434.46 1574.36 Q1430.55 1575.18 1426.52 1575.18 Q1416.44 1575.18 1410.54 1569.31 Q1404.67 1563.45 1404.67 1553.44 Q1404.67 1543.1 1410.24 1537.04 Q1415.84 1530.95 1425.32 1530.95 Q1433.82 1530.95 1438.75 1536.44 Q1443.71 1541.89 1443.71 1551.3 M1436.79 1549.27 Q1436.72 1543.59 1433.6 1540.2 Q1430.51 1536.81 1425.4 1536.81 Q1419.6 1536.81 1416.1 1540.09 Q1412.64 1543.36 1412.12 1549.3 L1436.79 1549.27 Z" fill="#000000" fill-rule="nonzero" fill-opacity="1" /><polyline clip-path="url(#clip212)" style="stroke:#000000; stroke-linecap:round; stroke-linejoin:round; stroke-width:2; stroke-opacity:0.1; fill:none" points="358.407,1405.9 2352.76,1405.9 "/>
<polyline clip-path="url(#clip212)" style="stroke:#000000; stroke-linecap:round; stroke-linejoin:round; stroke-width:2; stroke-opacity:0.1; fill:none" points="358.407,1034.57 2352.76,1034.57 "/>
<polyline clip-path="url(#clip212)" style="stroke:#000000; stroke-linecap:round; stroke-linejoin:round; stroke-width:2; stroke-opacity:0.1; fill:none" points="358.407,663.244 2352.76,663.244 "/>
<polyline clip-path="url(#clip212)" style="stroke:#000000; stroke-linecap:round; stroke-linejoin:round; stroke-width:2; stroke-opacity:0.1; fill:none" points="358.407,291.916 2352.76,291.916 "/>
<polyline clip-path="url(#clip210)" style="stroke:#000000; stroke-linecap:round; stroke-linejoin:round; stroke-width:4; stroke-opacity:1; fill:none" points="358.407,1405.9 358.407,47.2441 "/>
<polyline clip-path="url(#clip210)" style="stroke:#000000; stroke-linecap:round; stroke-linejoin:round; stroke-width:4; stroke-opacity:1; fill:none" points="358.407,1405.9 377.305,1405.9 "/>
<polyline clip-path="url(#clip210)" style="stroke:#000000; stroke-linecap:round; stroke-linejoin:round; stroke-width:4; stroke-opacity:1; fill:none" points="358.407,1034.57 377.305,1034.57 "/>
<polyline clip-path="url(#clip210)" style="stroke:#000000; stroke-linecap:round; stroke-linejoin:round; stroke-width:4; stroke-opacity:1; fill:none" points="358.407,663.244 377.305,663.244 "/>
<polyline clip-path="url(#clip210)" style="stroke:#000000; stroke-linecap:round; stroke-linejoin:round; stroke-width:4; stroke-opacity:1; fill:none" points="358.407,291.916 377.305,291.916 "/>
<path clip-path="url(#clip210)" d="M137.831 1388.15 Q133.317 1388.15 131.031 1392.6 Q128.774 1397.03 128.774 1405.94 Q128.774 1414.83 131.031 1419.28 Q133.317 1423.71 137.831 1423.71 Q142.373 1423.71 144.63 1419.28 Q146.916 1414.83 146.916 1405.94 Q146.916 1397.03 144.63 1392.6 Q142.373 1388.15 137.831 1388.15 M137.831 1383.52 Q145.093 1383.52 148.913 1389.28 Q152.761 1395.01 152.761 1405.94 Q152.761 1416.85 148.913 1422.61 Q145.093 1428.34 137.831 1428.34 Q130.568 1428.34 126.72 1422.61 Q122.9 1416.85 122.9 1405.94 Q122.9 1395.01 126.72 1389.28 Q130.568 1383.52 137.831 1383.52 Z" fill="#000000" fill-rule="nonzero" fill-opacity="1" /><path clip-path="url(#clip210)" d="M163.033 1420.15 L169.138 1420.15 L169.138 1427.5 L163.033 1427.5 L163.033 1420.15 Z" fill="#000000" fill-rule="nonzero" fill-opacity="1" /><path clip-path="url(#clip210)" d="M194.37 1388.15 Q189.856 1388.15 187.57 1392.6 Q185.313 1397.03 185.313 1405.94 Q185.313 1414.83 187.57 1419.28 Q189.856 1423.71 194.37 1423.71 Q198.912 1423.71 201.169 1419.28 Q203.455 1414.83 203.455 1405.94 Q203.455 1397.03 201.169 1392.6 Q198.912 1388.15 194.37 1388.15 M194.37 1383.52 Q201.632 1383.52 205.452 1389.28 Q209.3 1395.01 209.3 1405.94 Q209.3 1416.85 205.452 1422.61 Q201.632 1428.34 194.37 1428.34 Q187.107 1428.34 183.259 1422.61 Q179.439 1416.85 179.439 1405.94 Q179.439 1395.01 183.259 1389.28 Q187.107 1383.52 194.37 1383.52 Z" fill="#000000" fill-rule="nonzero" fill-opacity="1" /><path clip-path="url(#clip210)" d="M232.072 1388.15 Q227.558 1388.15 225.272 1392.6 Q223.015 1397.03 223.015 1405.94 Q223.015 1414.83 225.272 1419.28 Q227.558 1423.71 232.072 1423.71 Q236.615 1423.71 238.872 1419.28 Q241.158 1414.83 241.158 1405.94 Q241.158 1397.03 238.872 1392.6 Q236.615 1388.15 232.072 1388.15 M232.072 1383.52 Q239.335 1383.52 243.154 1389.28 Q247.003 1395.01 247.003 1405.94 Q247.003 1416.85 243.154 1422.61 Q239.335 1428.34 232.072 1428.34 Q224.809 1428.34 220.961 1422.61 Q217.142 1416.85 217.142 1405.94 Q217.142 1395.01 220.961 1389.28 Q224.809 1383.52 232.072 1383.52 Z" fill="#000000" fill-rule="nonzero" fill-opacity="1" /><path clip-path="url(#clip210)" d="M269.774 1388.15 Q265.261 1388.15 262.975 1392.6 Q260.718 1397.03 260.718 1405.94 Q260.718 1414.83 262.975 1419.28 Q265.261 1423.71 269.774 1423.71 Q274.317 1423.71 276.574 1419.28 Q278.86 1414.83 278.86 1405.94 Q278.86 1397.03 276.574 1392.6 Q274.317 1388.15 269.774 1388.15 M269.774 1383.52 Q277.037 1383.52 280.856 1389.28 Q284.705 1395.01 284.705 1405.94 Q284.705 1416.85 280.856 1422.61 Q277.037 1428.34 269.774 1428.34 Q262.512 1428.34 258.663 1422.61 Q254.844 1416.85 254.844 1405.94 Q254.844 1395.01 258.663 1389.28 Q262.512 1383.52 269.774 1383.52 Z" fill="#000000" fill-rule="nonzero" fill-opacity="1" /><path clip-path="url(#clip210)" d="M307.477 1388.15 Q302.963 1388.15 300.677 1392.6 Q298.42 1397.03 298.42 1405.94 Q298.42 1414.83 300.677 1419.28 Q302.963 1423.71 307.477 1423.71 Q312.02 1423.71 314.276 1419.28 Q316.562 1414.83 316.562 1405.94 Q316.562 1397.03 314.276 1392.6 Q312.02 1388.15 307.477 1388.15 M307.477 1383.52 Q314.739 1383.52 318.559 1389.28 Q322.407 1395.01 322.407 1405.94 Q322.407 1416.85 318.559 1422.61 Q314.739 1428.34 307.477 1428.34 Q300.214 1428.34 296.366 1422.61 Q292.546 1416.85 292.546 1405.94 Q292.546 1395.01 296.366 1389.28 Q300.214 1383.52 307.477 1383.52 Z" fill="#000000" fill-rule="nonzero" fill-opacity="1" /><path clip-path="url(#clip210)" d="M139.075 1016.82 Q134.561 1016.82 132.275 1021.28 Q130.018 1025.7 130.018 1034.62 Q130.018 1043.5 132.275 1047.95 Q134.561 1052.38 139.075 1052.38 Q143.618 1052.38 145.875 1047.95 Q148.16 1043.5 148.16 1034.62 Q148.16 1025.7 145.875 1021.28 Q143.618 1016.82 139.075 1016.82 M139.075 1012.19 Q146.338 1012.19 150.157 1017.95 Q154.005 1023.68 154.005 1034.62 Q154.005 1045.52 150.157 1051.28 Q146.338 1057.01 139.075 1057.01 Q131.812 1057.01 127.964 1051.28 Q124.144 1045.52 124.144 1034.62 Q124.144 1023.68 127.964 1017.95 Q131.812 1012.19 139.075 1012.19 Z" fill="#000000" fill-rule="nonzero" fill-opacity="1" /><path clip-path="url(#clip210)" d="M164.277 1048.82 L170.383 1048.82 L170.383 1056.17 L164.277 1056.17 L164.277 1048.82 Z" fill="#000000" fill-rule="nonzero" fill-opacity="1" /><path clip-path="url(#clip210)" d="M195.614 1016.82 Q191.1 1016.82 188.814 1021.28 Q186.557 1025.7 186.557 1034.62 Q186.557 1043.5 188.814 1047.95 Q191.1 1052.38 195.614 1052.38 Q200.157 1052.38 202.414 1047.95 Q204.699 1043.5 204.699 1034.62 Q204.699 1025.7 202.414 1021.28 Q200.157 1016.82 195.614 1016.82 M195.614 1012.19 Q202.877 1012.19 206.696 1017.95 Q210.544 1023.68 210.544 1034.62 Q210.544 1045.52 206.696 1051.28 Q202.877 1057.01 195.614 1057.01 Q188.351 1057.01 184.503 1051.28 Q180.683 1045.52 180.683 1034.62 Q180.683 1023.68 184.503 1017.95 Q188.351 1012.19 195.614 1012.19 Z" fill="#000000" fill-rule="nonzero" fill-opacity="1" /><path clip-path="url(#clip210)" d="M233.316 1016.82 Q228.802 1016.82 226.517 1021.28 Q224.26 1025.7 224.26 1034.62 Q224.26 1043.5 226.517 1047.95 Q228.802 1052.38 233.316 1052.38 Q237.859 1052.38 240.116 1047.95 Q242.402 1043.5 242.402 1034.62 Q242.402 1025.7 240.116 1021.28 Q237.859 1016.82 233.316 1016.82 M233.316 1012.19 Q240.579 1012.19 244.398 1017.95 Q248.247 1023.68 248.247 1034.62 Q248.247 1045.52 244.398 1051.28 Q240.579 1057.01 233.316 1057.01 Q226.054 1057.01 222.205 1051.28 Q218.386 1045.52 218.386 1034.62 Q218.386 1023.68 222.205 1017.95 Q226.054 1012.19 233.316 1012.19 Z" fill="#000000" fill-rule="nonzero" fill-opacity="1" /><path clip-path="url(#clip210)" d="M271.019 1016.82 Q266.505 1016.82 264.219 1021.28 Q261.962 1025.7 261.962 1034.62 Q261.962 1043.5 264.219 1047.95 Q266.505 1052.38 271.019 1052.38 Q275.561 1052.38 277.818 1047.95 Q280.104 1043.5 280.104 1034.62 Q280.104 1025.7 277.818 1021.28 Q275.561 1016.82 271.019 1016.82 M271.019 1012.19 Q278.281 1012.19 282.101 1017.95 Q285.949 1023.68 285.949 1034.62 Q285.949 1045.52 282.101 1051.28 Q278.281 1057.01 271.019 1057.01 Q263.756 1057.01 259.908 1051.28 Q256.088 1045.52 256.088 1034.62 Q256.088 1023.68 259.908 1017.95 Q263.756 1012.19 271.019 1012.19 Z" fill="#000000" fill-rule="nonzero" fill-opacity="1" /><path clip-path="url(#clip210)" d="M296.279 1012.97 L319.224 1012.97 L319.224 1017.89 L301.632 1017.89 L301.632 1028.48 Q302.905 1028.05 304.178 1027.84 Q305.451 1027.61 306.724 1027.61 Q313.958 1027.61 318.183 1031.58 Q322.407 1035.54 322.407 1042.31 Q322.407 1049.29 318.067 1053.16 Q313.727 1057.01 305.827 1057.01 Q303.108 1057.01 300.272 1056.55 Q297.465 1056.08 294.456 1055.16 L294.456 1049.29 Q297.06 1050.7 299.838 1051.4 Q302.616 1052.09 305.712 1052.09 Q310.717 1052.09 313.64 1049.46 Q316.562 1046.83 316.562 1042.31 Q316.562 1037.8 313.64 1035.16 Q310.717 1032.53 305.712 1032.53 Q303.368 1032.53 301.024 1033.05 Q298.709 1033.57 296.279 1034.67 L296.279 1012.97 Z" fill="#000000" fill-rule="nonzero" fill-opacity="1" /><path clip-path="url(#clip210)" d="M137.831 645.492 Q133.317 645.492 131.031 649.948 Q128.774 654.375 128.774 663.287 Q128.774 672.17 131.031 676.626 Q133.317 681.053 137.831 681.053 Q142.373 681.053 144.63 676.626 Q146.916 672.17 146.916 663.287 Q146.916 654.375 144.63 649.948 Q142.373 645.492 137.831 645.492 M137.831 640.862 Q145.093 640.862 148.913 646.62 Q152.761 652.35 152.761 663.287 Q152.761 674.196 148.913 679.954 Q145.093 685.683 137.831 685.683 Q130.568 685.683 126.72 679.954 Q122.9 674.196 122.9 663.287 Q122.9 652.35 126.72 646.62 Q130.568 640.862 137.831 640.862 Z" fill="#000000" fill-rule="nonzero" fill-opacity="1" /><path clip-path="url(#clip210)" d="M163.033 677.494 L169.138 677.494 L169.138 684.844 L163.033 684.844 L163.033 677.494 Z" fill="#000000" fill-rule="nonzero" fill-opacity="1" /><path clip-path="url(#clip210)" d="M194.37 645.492 Q189.856 645.492 187.57 649.948 Q185.313 654.375 185.313 663.287 Q185.313 672.17 187.57 676.626 Q189.856 681.053 194.37 681.053 Q198.912 681.053 201.169 676.626 Q203.455 672.17 203.455 663.287 Q203.455 654.375 201.169 649.948 Q198.912 645.492 194.37 645.492 M194.37 640.862 Q201.632 640.862 205.452 646.62 Q209.3 652.35 209.3 663.287 Q209.3 674.196 205.452 679.954 Q201.632 685.683 194.37 685.683 Q187.107 685.683 183.259 679.954 Q179.439 674.196 179.439 663.287 Q179.439 652.35 183.259 646.62 Q187.107 640.862 194.37 640.862 Z" fill="#000000" fill-rule="nonzero" fill-opacity="1" /><path clip-path="url(#clip210)" d="M232.072 645.492 Q227.558 645.492 225.272 649.948 Q223.015 654.375 223.015 663.287 Q223.015 672.17 225.272 676.626 Q227.558 681.053 232.072 681.053 Q236.615 681.053 238.872 676.626 Q241.158 672.17 241.158 663.287 Q241.158 654.375 238.872 649.948 Q236.615 645.492 232.072 645.492 M232.072 640.862 Q239.335 640.862 243.154 646.62 Q247.003 652.35 247.003 663.287 Q247.003 674.196 243.154 679.954 Q239.335 685.683 232.072 685.683 Q224.809 685.683 220.961 679.954 Q217.142 674.196 217.142 663.287 Q217.142 652.35 220.961 646.62 Q224.809 640.862 232.072 640.862 Z" fill="#000000" fill-rule="nonzero" fill-opacity="1" /><path clip-path="url(#clip210)" d="M258.287 679.925 L267.836 679.925 L267.836 646.968 L257.448 649.051 L257.448 643.727 L267.778 641.644 L273.623 641.644 L273.623 679.925 L283.171 679.925 L283.171 684.844 L258.287 684.844 L258.287 679.925 Z" fill="#000000" fill-rule="nonzero" fill-opacity="1" /><path clip-path="url(#clip210)" d="M307.477 645.492 Q302.963 645.492 300.677 649.948 Q298.42 654.375 298.42 663.287 Q298.42 672.17 300.677 676.626 Q302.963 681.053 307.477 681.053 Q312.02 681.053 314.276 676.626 Q316.562 672.17 316.562 663.287 Q316.562 654.375 314.276 649.948 Q312.02 645.492 307.477 645.492 M307.477 640.862 Q314.739 640.862 318.559 646.62 Q322.407 652.35 322.407 663.287 Q322.407 674.196 318.559 679.954 Q314.739 685.683 307.477 685.683 Q300.214 685.683 296.366 679.954 Q292.546 674.196 292.546 663.287 Q292.546 652.35 296.366 646.62 Q300.214 640.862 307.477 640.862 Z" fill="#000000" fill-rule="nonzero" fill-opacity="1" /><path clip-path="url(#clip210)" d="M139.075 274.164 Q134.561 274.164 132.275 278.62 Q130.018 283.047 130.018 291.959 Q130.018 300.842 132.275 305.298 Q134.561 309.725 139.075 309.725 Q143.618 309.725 145.875 305.298 Q148.16 300.842 148.16 291.959 Q148.16 283.047 145.875 278.62 Q143.618 274.164 139.075 274.164 M139.075 269.534 Q146.338 269.534 150.157 275.292 Q154.005 281.021 154.005 291.959 Q154.005 302.867 150.157 308.626 Q146.338 314.355 139.075 314.355 Q131.812 314.355 127.964 308.626 Q124.144 302.867 124.144 291.959 Q124.144 281.021 127.964 275.292 Q131.812 269.534 139.075 269.534 Z" fill="#000000" fill-rule="nonzero" fill-opacity="1" /><path clip-path="url(#clip210)" d="M164.277 306.166 L170.383 306.166 L170.383 313.516 L164.277 313.516 L164.277 306.166 Z" fill="#000000" fill-rule="nonzero" fill-opacity="1" /><path clip-path="url(#clip210)" d="M195.614 274.164 Q191.1 274.164 188.814 278.62 Q186.557 283.047 186.557 291.959 Q186.557 300.842 188.814 305.298 Q191.1 309.725 195.614 309.725 Q200.157 309.725 202.414 305.298 Q204.699 300.842 204.699 291.959 Q204.699 283.047 202.414 278.62 Q200.157 274.164 195.614 274.164 M195.614 269.534 Q202.877 269.534 206.696 275.292 Q210.544 281.021 210.544 291.959 Q210.544 302.867 206.696 308.626 Q202.877 314.355 195.614 314.355 Q188.351 314.355 184.503 308.626 Q180.683 302.867 180.683 291.959 Q180.683 281.021 184.503 275.292 Q188.351 269.534 195.614 269.534 Z" fill="#000000" fill-rule="nonzero" fill-opacity="1" /><path clip-path="url(#clip210)" d="M233.316 274.164 Q228.802 274.164 226.517 278.62 Q224.26 283.047 224.26 291.959 Q224.26 300.842 226.517 305.298 Q228.802 309.725 233.316 309.725 Q237.859 309.725 240.116 305.298 Q242.402 300.842 242.402 291.959 Q242.402 283.047 240.116 278.62 Q237.859 274.164 233.316 274.164 M233.316 269.534 Q240.579 269.534 244.398 275.292 Q248.247 281.021 248.247 291.959 Q248.247 302.867 244.398 308.626 Q240.579 314.355 233.316 314.355 Q226.054 314.355 222.205 308.626 Q218.386 302.867 218.386 291.959 Q218.386 281.021 222.205 275.292 Q226.054 269.534 233.316 269.534 Z" fill="#000000" fill-rule="nonzero" fill-opacity="1" /><path clip-path="url(#clip210)" d="M259.531 308.597 L269.08 308.597 L269.08 275.64 L258.692 277.723 L258.692 272.399 L269.022 270.316 L274.867 270.316 L274.867 308.597 L284.415 308.597 L284.415 313.516 L259.531 313.516 L259.531 308.597 Z" fill="#000000" fill-rule="nonzero" fill-opacity="1" /><path clip-path="url(#clip210)" d="M296.279 270.316 L319.224 270.316 L319.224 275.234 L301.632 275.234 L301.632 285.825 Q302.905 285.391 304.178 285.188 Q305.451 284.957 306.724 284.957 Q313.958 284.957 318.183 288.921 Q322.407 292.885 322.407 299.656 Q322.407 306.629 318.067 310.506 Q313.727 314.355 305.827 314.355 Q303.108 314.355 300.272 313.892 Q297.465 313.429 294.456 312.503 L294.456 306.629 Q297.06 308.047 299.838 308.741 Q302.616 309.436 305.712 309.436 Q310.717 309.436 313.64 306.803 Q316.562 304.17 316.562 299.656 Q316.562 295.142 313.64 292.509 Q310.717 289.876 305.712 289.876 Q303.368 289.876 301.024 290.396 Q298.709 290.917 296.279 292.017 L296.279 270.316 Z" fill="#000000" fill-rule="nonzero" fill-opacity="1" /><path clip-path="url(#clip210)" d="M13.8922 920.631 L13.8922 888.356 L20.2868 888.356 L20.2868 913.032 L36.8376 913.032 L36.8376 890.764 L43.2323 890.764 L43.2323 913.032 L70.0522 913.032 L70.0522 920.631 L13.8922 920.631 Z" fill="#000000" fill-rule="nonzero" fill-opacity="1" /><path clip-path="url(#clip210)" d="M34.3926 857.813 Q33.7155 858.979 33.4146 860.37 Q33.0761 861.725 33.0761 863.38 Q33.0761 869.248 36.9129 872.407 Q40.712 875.53 47.859 875.53 L70.0522 875.53 L70.0522 882.488 L27.9228 882.488 L27.9228 875.53 L34.4679 875.53 Q30.6311 873.348 28.7879 869.85 Q26.9071 866.351 26.9071 861.348 Q26.9071 860.634 27.02 859.769 Q27.0952 858.903 27.2833 857.85 L34.3926 857.813 Z" fill="#000000" fill-rule="nonzero" fill-opacity="1" /><path clip-path="url(#clip210)" d="M47.2571 816.21 L50.6425 816.21 L50.6425 848.033 Q57.7895 847.581 61.551 843.744 Q65.275 839.87 65.275 832.986 Q65.275 828.999 64.297 825.275 Q63.319 821.514 61.363 817.827 L67.9081 817.827 Q69.4879 821.551 70.3155 825.463 Q71.143 829.375 71.143 833.4 Q71.143 843.481 65.275 849.387 Q59.407 855.255 49.4012 855.255 Q39.057 855.255 33.0009 849.688 Q26.9071 844.083 26.9071 834.604 Q26.9071 826.103 32.399 821.175 Q37.8533 816.21 47.2571 816.21 M45.2259 823.131 Q39.546 823.206 36.1606 826.328 Q32.7752 829.413 32.7752 834.529 Q32.7752 840.321 36.0477 843.82 Q39.3203 847.28 45.2635 847.807 L45.2259 823.131 Z" fill="#000000" fill-rule="nonzero" fill-opacity="1" /><path clip-path="url(#clip210)" d="M49.0251 800.712 Q56.661 800.712 61.0244 797.59 Q65.3502 794.43 65.3502 788.939 Q65.3502 783.447 61.0244 780.287 Q56.661 777.127 49.0251 777.127 Q41.3891 777.127 37.0633 780.287 Q32.6999 783.447 32.6999 788.939 Q32.6999 794.43 37.0633 797.59 Q41.3891 800.712 49.0251 800.712 M63.7327 777.127 Q67.4943 779.309 69.3375 782.657 Q71.143 785.967 71.143 790.631 Q71.143 798.267 65.0493 803.082 Q58.9556 807.859 49.0251 807.859 Q39.0946 807.859 33.0009 803.082 Q26.9071 798.267 26.9071 790.631 Q26.9071 785.967 28.7503 782.657 Q30.5558 779.309 34.3174 777.127 L27.9228 777.127 L27.9228 770.206 L86.0764 770.206 L86.0764 777.127 L63.7327 777.127 Z" fill="#000000" fill-rule="nonzero" fill-opacity="1" /><path clip-path="url(#clip210)" d="M53.4261 756.664 L27.9228 756.664 L27.9228 749.743 L53.1628 749.743 Q59.1437 749.743 62.1529 747.411 Q65.1245 745.079 65.1245 740.414 Q65.1245 734.81 61.551 731.575 Q57.9776 728.302 51.8086 728.302 L27.9228 728.302 L27.9228 721.381 L70.0522 721.381 L70.0522 728.302 L63.5823 728.302 Q67.4191 730.823 69.2998 734.17 Q71.143 737.48 71.143 741.881 Q71.143 749.141 66.6291 752.903 Q62.1153 756.664 53.4261 756.664 M26.9071 739.248 L26.9071 739.248 Z" fill="#000000" fill-rule="nonzero" fill-opacity="1" /><path clip-path="url(#clip210)" d="M47.2571 671.089 L50.6425 671.089 L50.6425 702.912 Q57.7895 702.46 61.551 698.624 Q65.275 694.749 65.275 687.866 Q65.275 683.878 64.297 680.154 Q63.319 676.393 61.363 672.707 L67.9081 672.707 Q69.4879 676.43 70.3155 680.342 Q71.143 684.254 71.143 688.279 Q71.143 698.36 65.275 704.266 Q59.407 710.134 49.4012 710.134 Q39.057 710.134 33.0009 704.567 Q26.9071 698.962 26.9071 689.483 Q26.9071 680.982 32.399 676.054 Q37.8533 671.089 47.2571 671.089 M45.2259 678.01 Q39.546 678.086 36.1606 681.208 Q32.7752 684.292 32.7752 689.408 Q32.7752 695.201 36.0477 698.699 Q39.3203 702.159 45.2635 702.686 L45.2259 678.01 Z" fill="#000000" fill-rule="nonzero" fill-opacity="1" /><path clip-path="url(#clip210)" d="M44.6241 624.709 L70.0522 624.709 L70.0522 631.63 L44.8497 631.63 Q38.8689 631.63 35.8972 633.963 Q32.9256 636.295 32.9256 640.959 Q32.9256 646.564 36.4991 649.799 Q40.0726 653.034 46.2415 653.034 L70.0522 653.034 L70.0522 659.992 L27.9228 659.992 L27.9228 653.034 L34.4679 653.034 Q30.6687 650.551 28.7879 647.203 Q26.9071 643.818 26.9071 639.417 Q26.9071 632.157 31.421 628.433 Q35.8972 624.709 44.6241 624.709 Z" fill="#000000" fill-rule="nonzero" fill-opacity="1" /><path clip-path="url(#clip210)" d="M29.5402 580.586 L36.0101 580.586 Q34.3926 583.52 33.6027 586.492 Q32.7752 589.426 32.7752 592.435 Q32.7752 599.168 37.0633 602.892 Q41.3139 606.616 49.0251 606.616 Q56.7363 606.616 61.0244 602.892 Q65.275 599.168 65.275 592.435 Q65.275 589.426 64.4851 586.492 Q63.6575 583.52 62.04 580.586 L68.4347 580.586 Q69.7888 583.482 70.4659 586.605 Q71.143 589.689 71.143 593.187 Q71.143 602.704 65.1621 608.309 Q59.1813 613.913 49.0251 613.913 Q38.7184 613.913 32.8128 608.271 Q26.9071 602.591 26.9071 592.736 Q26.9071 589.539 27.5842 586.492 Q28.2237 583.445 29.5402 580.586 Z" fill="#000000" fill-rule="nonzero" fill-opacity="1" /><path clip-path="url(#clip210)" d="M73.9642 551.02 Q81.4873 553.954 83.7818 556.738 Q86.0764 559.521 86.0764 564.186 L86.0764 569.715 L80.2836 569.715 L80.2836 565.653 Q80.2836 562.794 78.9294 561.214 Q77.5753 559.634 72.5348 557.716 L69.3751 556.475 L27.9228 573.514 L27.9228 566.179 L60.874 553.014 L27.9228 539.848 L27.9228 532.513 L73.9642 551.02 Z" fill="#000000" fill-rule="nonzero" fill-opacity="1" /><path clip-path="url(#clip212)" d="M468.1 1270.86 L468.1 1405.9 L513.612 1405.9 L513.612 1270.86 L468.1 1270.86 L468.1 1270.86  Z" fill="#0000ff" fill-rule="evenodd" fill-opacity="0.5"/>
<polyline clip-path="url(#clip212)" style="stroke:#000000; stroke-linecap:round; stroke-linejoin:round; stroke-width:4; stroke-opacity:0.5; fill:none" points="468.1,1270.86 468.1,1405.9 513.612,1405.9 513.612,1270.86 468.1,1270.86 "/>
<path clip-path="url(#clip212)" d="M513.612 47.2441 L513.612 1405.9 L559.124 1405.9 L559.124 47.2441 L513.612 47.2441 L513.612 47.2441  Z" fill="#0000ff" fill-rule="evenodd" fill-opacity="0.5"/>
<polyline clip-path="url(#clip212)" style="stroke:#000000; stroke-linecap:round; stroke-linejoin:round; stroke-width:4; stroke-opacity:0.5; fill:none" points="513.612,47.2441 513.612,1405.9 559.124,1405.9 559.124,47.2441 513.612,47.2441 "/>
<path clip-path="url(#clip212)" d="M559.124 280.044 L559.124 1405.9 L604.636 1405.9 L604.636 280.044 L559.124 280.044 L559.124 280.044  Z" fill="#0000ff" fill-rule="evenodd" fill-opacity="0.5"/>
<polyline clip-path="url(#clip212)" style="stroke:#000000; stroke-linecap:round; stroke-linejoin:round; stroke-width:4; stroke-opacity:0.5; fill:none" points="559.124,280.044 559.124,1405.9 604.636,1405.9 604.636,280.044 559.124,280.044 "/>
<path clip-path="url(#clip212)" d="M604.636 827.939 L604.636 1405.9 L650.147 1405.9 L650.147 827.939 L604.636 827.939 L604.636 827.939  Z" fill="#0000ff" fill-rule="evenodd" fill-opacity="0.5"/>
<polyline clip-path="url(#clip212)" style="stroke:#000000; stroke-linecap:round; stroke-linejoin:round; stroke-width:4; stroke-opacity:0.5; fill:none" points="604.636,827.939 604.636,1405.9 650.147,1405.9 650.147,827.939 604.636,827.939 "/>
<path clip-path="url(#clip212)" d="M650.147 1146.47 L650.147 1405.9 L695.659 1405.9 L695.659 1146.47 L650.147 1146.47 L650.147 1146.47  Z" fill="#0000ff" fill-rule="evenodd" fill-opacity="0.5"/>
<polyline clip-path="url(#clip212)" style="stroke:#000000; stroke-linecap:round; stroke-linejoin:round; stroke-width:4; stroke-opacity:0.5; fill:none" points="650.147,1146.47 650.147,1405.9 695.659,1405.9 695.659,1146.47 650.147,1146.47 "/>
<path clip-path="url(#clip212)" d="M695.659 1322.57 L695.659 1405.9 L741.171 1405.9 L741.171 1322.57 L695.659 1322.57 L695.659 1322.57  Z" fill="#0000ff" fill-rule="evenodd" fill-opacity="0.5"/>
<polyline clip-path="url(#clip212)" style="stroke:#000000; stroke-linecap:round; stroke-linejoin:round; stroke-width:4; stroke-opacity:0.5; fill:none" points="695.659,1322.57 695.659,1405.9 741.171,1405.9 741.171,1322.57 695.659,1322.57 "/>
<path clip-path="url(#clip212)" d="M741.171 1342.5 L741.171 1405.9 L786.683 1405.9 L786.683 1342.5 L741.171 1342.5 L741.171 1342.5  Z" fill="#0000ff" fill-rule="evenodd" fill-opacity="0.5"/>
<polyline clip-path="url(#clip212)" style="stroke:#000000; stroke-linecap:round; stroke-linejoin:round; stroke-width:4; stroke-opacity:0.5; fill:none" points="741.171,1342.5 741.171,1405.9 786.683,1405.9 786.683,1342.5 741.171,1342.5 "/>
<path clip-path="url(#clip212)" d="M786.683 1372.57 L786.683 1405.9 L832.195 1405.9 L832.195 1372.57 L786.683 1372.57 L786.683 1372.57  Z" fill="#0000ff" fill-rule="evenodd" fill-opacity="0.5"/>
<polyline clip-path="url(#clip212)" style="stroke:#000000; stroke-linecap:round; stroke-linejoin:round; stroke-width:4; stroke-opacity:0.5; fill:none" points="786.683,1372.57 786.683,1405.9 832.195,1405.9 832.195,1372.57 786.683,1372.57 "/>
<path clip-path="url(#clip212)" d="M832.195 1381.16 L832.195 1405.9 L877.707 1405.9 L877.707 1381.16 L832.195 1381.16 L832.195 1381.16  Z" fill="#0000ff" fill-rule="evenodd" fill-opacity="0.5"/>
<polyline clip-path="url(#clip212)" style="stroke:#000000; stroke-linecap:round; stroke-linejoin:round; stroke-width:4; stroke-opacity:0.5; fill:none" points="832.195,1381.16 832.195,1405.9 877.707,1405.9 877.707,1381.16 832.195,1381.16 "/>
<path clip-path="url(#clip212)" d="M877.707 1389.58 L877.707 1405.9 L923.219 1405.9 L923.219 1389.58 L877.707 1389.58 L877.707 1389.58  Z" fill="#0000ff" fill-rule="evenodd" fill-opacity="0.5"/>
<polyline clip-path="url(#clip212)" style="stroke:#000000; stroke-linecap:round; stroke-linejoin:round; stroke-width:4; stroke-opacity:0.5; fill:none" points="877.707,1389.58 877.707,1405.9 923.219,1405.9 923.219,1389.58 877.707,1389.58 "/>
<path clip-path="url(#clip212)" d="M923.219 1399.89 L923.219 1405.9 L968.731 1405.9 L968.731 1399.89 L923.219 1399.89 L923.219 1399.89  Z" fill="#0000ff" fill-rule="evenodd" fill-opacity="0.5"/>
<polyline clip-path="url(#clip212)" style="stroke:#000000; stroke-linecap:round; stroke-linejoin:round; stroke-width:4; stroke-opacity:0.5; fill:none" points="923.219,1399.89 923.219,1405.9 968.731,1405.9 968.731,1399.89 923.219,1399.89 "/>
<path clip-path="url(#clip212)" d="M968.731 1397.82 L968.731 1405.9 L1014.24 1405.9 L1014.24 1397.82 L968.731 1397.82 L968.731 1397.82  Z" fill="#0000ff" fill-rule="evenodd" fill-opacity="0.5"/>
<polyline clip-path="url(#clip212)" style="stroke:#000000; stroke-linecap:round; stroke-linejoin:round; stroke-width:4; stroke-opacity:0.5; fill:none" points="968.731,1397.82 968.731,1405.9 1014.24,1405.9 1014.24,1397.82 968.731,1397.82 "/>
<path clip-path="url(#clip212)" d="M1014.24 1399.2 L1014.24 1405.9 L1059.75 1405.9 L1059.75 1399.2 L1014.24 1399.2 L1014.24 1399.2  Z" fill="#0000ff" fill-rule="evenodd" fill-opacity="0.5"/>
<polyline clip-path="url(#clip212)" style="stroke:#000000; stroke-linecap:round; stroke-linejoin:round; stroke-width:4; stroke-opacity:0.5; fill:none" points="1014.24,1399.2 1014.24,1405.9 1059.75,1405.9 1059.75,1399.2 1014.24,1399.2 "/>
<path clip-path="url(#clip212)" d="M1059.75 1402.98 L1059.75 1405.9 L1105.27 1405.9 L1105.27 1402.98 L1059.75 1402.98 L1059.75 1402.98  Z" fill="#0000ff" fill-rule="evenodd" fill-opacity="0.5"/>
<polyline clip-path="url(#clip212)" style="stroke:#000000; stroke-linecap:round; stroke-linejoin:round; stroke-width:4; stroke-opacity:0.5; fill:none" points="1059.75,1402.98 1059.75,1405.9 1105.27,1405.9 1105.27,1402.98 1059.75,1402.98 "/>
<path clip-path="url(#clip212)" d="M1105.27 1402.98 L1105.27 1405.9 L1150.78 1405.9 L1150.78 1402.98 L1105.27 1402.98 L1105.27 1402.98  Z" fill="#0000ff" fill-rule="evenodd" fill-opacity="0.5"/>
<polyline clip-path="url(#clip212)" style="stroke:#000000; stroke-linecap:round; stroke-linejoin:round; stroke-width:4; stroke-opacity:0.5; fill:none" points="1105.27,1402.98 1105.27,1405.9 1150.78,1405.9 1150.78,1402.98 1105.27,1402.98 "/>
<path clip-path="url(#clip212)" d="M1150.78 1403.67 L1150.78 1405.9 L1196.29 1405.9 L1196.29 1403.67 L1150.78 1403.67 L1150.78 1403.67  Z" fill="#0000ff" fill-rule="evenodd" fill-opacity="0.5"/>
<polyline clip-path="url(#clip212)" style="stroke:#000000; stroke-linecap:round; stroke-linejoin:round; stroke-width:4; stroke-opacity:0.5; fill:none" points="1150.78,1403.67 1150.78,1405.9 1196.29,1405.9 1196.29,1403.67 1150.78,1403.67 "/>
<path clip-path="url(#clip212)" d="M1196.29 1403.84 L1196.29 1405.9 L1241.8 1405.9 L1241.8 1403.84 L1196.29 1403.84 L1196.29 1403.84  Z" fill="#0000ff" fill-rule="evenodd" fill-opacity="0.5"/>
<polyline clip-path="url(#clip212)" style="stroke:#000000; stroke-linecap:round; stroke-linejoin:round; stroke-width:4; stroke-opacity:0.5; fill:none" points="1196.29,1403.84 1196.29,1405.9 1241.8,1405.9 1241.8,1403.84 1196.29,1403.84 "/>
<path clip-path="url(#clip212)" d="M1241.8 1405.21 L1241.8 1405.9 L1287.31 1405.9 L1287.31 1405.21 L1241.8 1405.21 L1241.8 1405.21  Z" fill="#0000ff" fill-rule="evenodd" fill-opacity="0.5"/>
<polyline clip-path="url(#clip212)" style="stroke:#000000; stroke-linecap:round; stroke-linejoin:round; stroke-width:4; stroke-opacity:0.5; fill:none" points="1241.8,1405.21 1241.8,1405.9 1287.31,1405.9 1287.31,1405.21 1241.8,1405.21 "/>
<path clip-path="url(#clip212)" d="M1287.31 1404.87 L1287.31 1405.9 L1332.83 1405.9 L1332.83 1404.87 L1287.31 1404.87 L1287.31 1404.87  Z" fill="#0000ff" fill-rule="evenodd" fill-opacity="0.5"/>
<polyline clip-path="url(#clip212)" style="stroke:#000000; stroke-linecap:round; stroke-linejoin:round; stroke-width:4; stroke-opacity:0.5; fill:none" points="1287.31,1404.87 1287.31,1405.9 1332.83,1405.9 1332.83,1404.87 1287.31,1404.87 "/>
<path clip-path="url(#clip212)" d="M1332.83 1405.38 L1332.83 1405.9 L1378.34 1405.9 L1378.34 1405.38 L1332.83 1405.38 L1332.83 1405.38  Z" fill="#0000ff" fill-rule="evenodd" fill-opacity="0.5"/>
<polyline clip-path="url(#clip212)" style="stroke:#000000; stroke-linecap:round; stroke-linejoin:round; stroke-width:4; stroke-opacity:0.5; fill:none" points="1332.83,1405.38 1332.83,1405.9 1378.34,1405.9 1378.34,1405.38 1332.83,1405.38 "/>
<path clip-path="url(#clip212)" d="M1378.34 1405.73 L1378.34 1405.9 L1423.85 1405.9 L1423.85 1405.73 L1378.34 1405.73 L1378.34 1405.73  Z" fill="#0000ff" fill-rule="evenodd" fill-opacity="0.5"/>
<polyline clip-path="url(#clip212)" style="stroke:#000000; stroke-linecap:round; stroke-linejoin:round; stroke-width:4; stroke-opacity:0.5; fill:none" points="1378.34,1405.73 1378.34,1405.9 1423.85,1405.9 1423.85,1405.73 1378.34,1405.73 "/>
<path clip-path="url(#clip212)" d="M1423.85 1405.73 L1423.85 1405.9 L1469.36 1405.9 L1469.36 1405.73 L1423.85 1405.73 L1423.85 1405.73  Z" fill="#0000ff" fill-rule="evenodd" fill-opacity="0.5"/>
<polyline clip-path="url(#clip212)" style="stroke:#000000; stroke-linecap:round; stroke-linejoin:round; stroke-width:4; stroke-opacity:0.5; fill:none" points="1423.85,1405.73 1423.85,1405.9 1469.36,1405.9 1469.36,1405.73 1423.85,1405.73 "/>
<path clip-path="url(#clip212)" d="M1469.36 1405.56 L1469.36 1405.9 L1514.87 1405.9 L1514.87 1405.56 L1469.36 1405.56 L1469.36 1405.56  Z" fill="#0000ff" fill-rule="evenodd" fill-opacity="0.5"/>
<polyline clip-path="url(#clip212)" style="stroke:#000000; stroke-linecap:round; stroke-linejoin:round; stroke-width:4; stroke-opacity:0.5; fill:none" points="1469.36,1405.56 1469.36,1405.9 1514.87,1405.9 1514.87,1405.56 1469.36,1405.56 "/>
<path clip-path="url(#clip212)" d="M1514.87 1405.73 L1514.87 1405.9 L1560.39 1405.9 L1560.39 1405.73 L1514.87 1405.73 L1514.87 1405.73  Z" fill="#0000ff" fill-rule="evenodd" fill-opacity="0.5"/>
<polyline clip-path="url(#clip212)" style="stroke:#000000; stroke-linecap:round; stroke-linejoin:round; stroke-width:4; stroke-opacity:0.5; fill:none" points="1514.87,1405.73 1514.87,1405.9 1560.39,1405.9 1560.39,1405.73 1514.87,1405.73 "/>
<path clip-path="url(#clip212)" d="M1560.39 1405.9 L1560.39 1405.9 L1605.9 1405.9 L1605.9 1405.9 L1560.39 1405.9 L1560.39 1405.9  Z" fill="#0000ff" fill-rule="evenodd" fill-opacity="0.5"/>
<polyline clip-path="url(#clip212)" style="stroke:#000000; stroke-linecap:round; stroke-linejoin:round; stroke-width:4; stroke-opacity:0.5; fill:none" points="1560.39,1405.9 1560.39,1405.9 1605.9,1405.9 1560.39,1405.9 "/>
<path clip-path="url(#clip212)" d="M1605.9 1405.73 L1605.9 1405.9 L1651.41 1405.9 L1651.41 1405.73 L1605.9 1405.73 L1605.9 1405.73  Z" fill="#0000ff" fill-rule="evenodd" fill-opacity="0.5"/>
<polyline clip-path="url(#clip212)" style="stroke:#000000; stroke-linecap:round; stroke-linejoin:round; stroke-width:4; stroke-opacity:0.5; fill:none" points="1605.9,1405.73 1605.9,1405.9 1651.41,1405.9 1651.41,1405.73 1605.9,1405.73 "/>
<path clip-path="url(#clip212)" d="M1651.41 1405.56 L1651.41 1405.9 L1696.92 1405.9 L1696.92 1405.56 L1651.41 1405.56 L1651.41 1405.56  Z" fill="#0000ff" fill-rule="evenodd" fill-opacity="0.5"/>
<polyline clip-path="url(#clip212)" style="stroke:#000000; stroke-linecap:round; stroke-linejoin:round; stroke-width:4; stroke-opacity:0.5; fill:none" points="1651.41,1405.56 1651.41,1405.9 1696.92,1405.9 1696.92,1405.56 1651.41,1405.56 "/>
<path clip-path="url(#clip212)" d="M1696.92 1405.73 L1696.92 1405.9 L1742.43 1405.9 L1742.43 1405.73 L1696.92 1405.73 L1696.92 1405.73  Z" fill="#0000ff" fill-rule="evenodd" fill-opacity="0.5"/>
<polyline clip-path="url(#clip212)" style="stroke:#000000; stroke-linecap:round; stroke-linejoin:round; stroke-width:4; stroke-opacity:0.5; fill:none" points="1696.92,1405.73 1696.92,1405.9 1742.43,1405.9 1742.43,1405.73 1696.92,1405.73 "/>
<path clip-path="url(#clip212)" d="M1742.43 1405.9 L1742.43 1405.9 L1787.94 1405.9 L1787.94 1405.9 L1742.43 1405.9 L1742.43 1405.9  Z" fill="#0000ff" fill-rule="evenodd" fill-opacity="0.5"/>
<polyline clip-path="url(#clip212)" style="stroke:#000000; stroke-linecap:round; stroke-linejoin:round; stroke-width:4; stroke-opacity:0.5; fill:none" points="1742.43,1405.9 1742.43,1405.9 1787.94,1405.9 1742.43,1405.9 "/>
<path clip-path="url(#clip212)" d="M1787.94 1405.9 L1787.94 1405.9 L1833.46 1405.9 L1833.46 1405.9 L1787.94 1405.9 L1787.94 1405.9  Z" fill="#0000ff" fill-rule="evenodd" fill-opacity="0.5"/>
<polyline clip-path="url(#clip212)" style="stroke:#000000; stroke-linecap:round; stroke-linejoin:round; stroke-width:4; stroke-opacity:0.5; fill:none" points="1787.94,1405.9 1787.94,1405.9 1833.46,1405.9 1787.94,1405.9 "/>
<path clip-path="url(#clip212)" d="M1833.46 1405.9 L1833.46 1405.9 L1878.97 1405.9 L1878.97 1405.9 L1833.46 1405.9 L1833.46 1405.9  Z" fill="#0000ff" fill-rule="evenodd" fill-opacity="0.5"/>
<polyline clip-path="url(#clip212)" style="stroke:#000000; stroke-linecap:round; stroke-linejoin:round; stroke-width:4; stroke-opacity:0.5; fill:none" points="1833.46,1405.9 1833.46,1405.9 1878.97,1405.9 1833.46,1405.9 "/>
<path clip-path="url(#clip212)" d="M1878.97 1405.9 L1878.97 1405.9 L1924.48 1405.9 L1924.48 1405.9 L1878.97 1405.9 L1878.97 1405.9  Z" fill="#0000ff" fill-rule="evenodd" fill-opacity="0.5"/>
<polyline clip-path="url(#clip212)" style="stroke:#000000; stroke-linecap:round; stroke-linejoin:round; stroke-width:4; stroke-opacity:0.5; fill:none" points="1878.97,1405.9 1878.97,1405.9 1924.48,1405.9 1878.97,1405.9 "/>
<path clip-path="url(#clip212)" d="M1924.48 1405.9 L1924.48 1405.9 L1969.99 1405.9 L1969.99 1405.9 L1924.48 1405.9 L1924.48 1405.9  Z" fill="#0000ff" fill-rule="evenodd" fill-opacity="0.5"/>
<polyline clip-path="url(#clip212)" style="stroke:#000000; stroke-linecap:round; stroke-linejoin:round; stroke-width:4; stroke-opacity:0.5; fill:none" points="1924.48,1405.9 1924.48,1405.9 1969.99,1405.9 1924.48,1405.9 "/>
<path clip-path="url(#clip212)" d="M1969.99 1405.9 L1969.99 1405.9 L2015.5 1405.9 L2015.5 1405.9 L1969.99 1405.9 L1969.99 1405.9  Z" fill="#0000ff" fill-rule="evenodd" fill-opacity="0.5"/>
<polyline clip-path="url(#clip212)" style="stroke:#000000; stroke-linecap:round; stroke-linejoin:round; stroke-width:4; stroke-opacity:0.5; fill:none" points="1969.99,1405.9 1969.99,1405.9 2015.5,1405.9 1969.99,1405.9 "/>
<path clip-path="url(#clip212)" d="M2015.5 1405.73 L2015.5 1405.9 L2061.02 1405.9 L2061.02 1405.73 L2015.5 1405.73 L2015.5 1405.73  Z" fill="#0000ff" fill-rule="evenodd" fill-opacity="0.5"/>
<polyline clip-path="url(#clip212)" style="stroke:#000000; stroke-linecap:round; stroke-linejoin:round; stroke-width:4; stroke-opacity:0.5; fill:none" points="2015.5,1405.73 2015.5,1405.9 2061.02,1405.9 2061.02,1405.73 2015.5,1405.73 "/>
<path clip-path="url(#clip212)" d="M2061.02 1405.73 L2061.02 1405.9 L2106.53 1405.9 L2106.53 1405.73 L2061.02 1405.73 L2061.02 1405.73  Z" fill="#0000ff" fill-rule="evenodd" fill-opacity="0.5"/>
<polyline clip-path="url(#clip212)" style="stroke:#000000; stroke-linecap:round; stroke-linejoin:round; stroke-width:4; stroke-opacity:0.5; fill:none" points="2061.02,1405.73 2061.02,1405.9 2106.53,1405.9 2106.53,1405.73 2061.02,1405.73 "/>
<path clip-path="url(#clip212)" d="M2106.53 1405.9 L2106.53 1405.9 L2152.04 1405.9 L2152.04 1405.9 L2106.53 1405.9 L2106.53 1405.9  Z" fill="#0000ff" fill-rule="evenodd" fill-opacity="0.5"/>
<polyline clip-path="url(#clip212)" style="stroke:#000000; stroke-linecap:round; stroke-linejoin:round; stroke-width:4; stroke-opacity:0.5; fill:none" points="2106.53,1405.9 2106.53,1405.9 2152.04,1405.9 2106.53,1405.9 "/>
<path clip-path="url(#clip212)" d="M2152.04 1405.9 L2152.04 1405.9 L2197.55 1405.9 L2197.55 1405.9 L2152.04 1405.9 L2152.04 1405.9  Z" fill="#0000ff" fill-rule="evenodd" fill-opacity="0.5"/>
<polyline clip-path="url(#clip212)" style="stroke:#000000; stroke-linecap:round; stroke-linejoin:round; stroke-width:4; stroke-opacity:0.5; fill:none" points="2152.04,1405.9 2152.04,1405.9 2197.55,1405.9 2152.04,1405.9 "/>
<path clip-path="url(#clip212)" d="M2197.55 1405.73 L2197.55 1405.9 L2243.06 1405.9 L2243.06 1405.73 L2197.55 1405.73 L2197.55 1405.73  Z" fill="#0000ff" fill-rule="evenodd" fill-opacity="0.5"/>
<polyline clip-path="url(#clip212)" style="stroke:#000000; stroke-linecap:round; stroke-linejoin:round; stroke-width:4; stroke-opacity:0.5; fill:none" points="2197.55,1405.73 2197.55,1405.9 2243.06,1405.9 2243.06,1405.73 2197.55,1405.73 "/>
<circle clip-path="url(#clip212)" style="fill:#0000ff; stroke:none; fill-opacity:0" cx="490.856" cy="1270.86" r="2"/>
<circle clip-path="url(#clip212)" style="fill:#0000ff; stroke:none; fill-opacity:0" cx="536.368" cy="47.2441" r="2"/>
<circle clip-path="url(#clip212)" style="fill:#0000ff; stroke:none; fill-opacity:0" cx="581.88" cy="280.044" r="2"/>
<circle clip-path="url(#clip212)" style="fill:#0000ff; stroke:none; fill-opacity:0" cx="627.391" cy="827.939" r="2"/>
<circle clip-path="url(#clip212)" style="fill:#0000ff; stroke:none; fill-opacity:0" cx="672.903" cy="1146.47" r="2"/>
<circle clip-path="url(#clip212)" style="fill:#0000ff; stroke:none; fill-opacity:0" cx="718.415" cy="1322.57" r="2"/>
<circle clip-path="url(#clip212)" style="fill:#0000ff; stroke:none; fill-opacity:0" cx="763.927" cy="1342.5" r="2"/>
<circle clip-path="url(#clip212)" style="fill:#0000ff; stroke:none; fill-opacity:0" cx="809.439" cy="1372.57" r="2"/>
<circle clip-path="url(#clip212)" style="fill:#0000ff; stroke:none; fill-opacity:0" cx="854.951" cy="1381.16" r="2"/>
<circle clip-path="url(#clip212)" style="fill:#0000ff; stroke:none; fill-opacity:0" cx="900.463" cy="1389.58" r="2"/>
<circle clip-path="url(#clip212)" style="fill:#0000ff; stroke:none; fill-opacity:0" cx="945.975" cy="1399.89" r="2"/>
<circle clip-path="url(#clip212)" style="fill:#0000ff; stroke:none; fill-opacity:0" cx="991.487" cy="1397.82" r="2"/>
<circle clip-path="url(#clip212)" style="fill:#0000ff; stroke:none; fill-opacity:0" cx="1037" cy="1399.2" r="2"/>
<circle clip-path="url(#clip212)" style="fill:#0000ff; stroke:none; fill-opacity:0" cx="1082.51" cy="1402.98" r="2"/>
<circle clip-path="url(#clip212)" style="fill:#0000ff; stroke:none; fill-opacity:0" cx="1128.02" cy="1402.98" r="2"/>
<circle clip-path="url(#clip212)" style="fill:#0000ff; stroke:none; fill-opacity:0" cx="1173.53" cy="1403.67" r="2"/>
<circle clip-path="url(#clip212)" style="fill:#0000ff; stroke:none; fill-opacity:0" cx="1219.05" cy="1403.84" r="2"/>
<circle clip-path="url(#clip212)" style="fill:#0000ff; stroke:none; fill-opacity:0" cx="1264.56" cy="1405.21" r="2"/>
<circle clip-path="url(#clip212)" style="fill:#0000ff; stroke:none; fill-opacity:0" cx="1310.07" cy="1404.87" r="2"/>
<circle clip-path="url(#clip212)" style="fill:#0000ff; stroke:none; fill-opacity:0" cx="1355.58" cy="1405.38" r="2"/>
<circle clip-path="url(#clip212)" style="fill:#0000ff; stroke:none; fill-opacity:0" cx="1401.09" cy="1405.73" r="2"/>
<circle clip-path="url(#clip212)" style="fill:#0000ff; stroke:none; fill-opacity:0" cx="1446.61" cy="1405.73" r="2"/>
<circle clip-path="url(#clip212)" style="fill:#0000ff; stroke:none; fill-opacity:0" cx="1492.12" cy="1405.56" r="2"/>
<circle clip-path="url(#clip212)" style="fill:#0000ff; stroke:none; fill-opacity:0" cx="1537.63" cy="1405.73" r="2"/>
<circle clip-path="url(#clip212)" style="fill:#0000ff; stroke:none; fill-opacity:0" cx="1583.14" cy="1405.9" r="2"/>
<circle clip-path="url(#clip212)" style="fill:#0000ff; stroke:none; fill-opacity:0" cx="1628.65" cy="1405.73" r="2"/>
<circle clip-path="url(#clip212)" style="fill:#0000ff; stroke:none; fill-opacity:0" cx="1674.16" cy="1405.56" r="2"/>
<circle clip-path="url(#clip212)" style="fill:#0000ff; stroke:none; fill-opacity:0" cx="1719.68" cy="1405.73" r="2"/>
<circle clip-path="url(#clip212)" style="fill:#0000ff; stroke:none; fill-opacity:0" cx="1765.19" cy="1405.9" r="2"/>
<circle clip-path="url(#clip212)" style="fill:#0000ff; stroke:none; fill-opacity:0" cx="1810.7" cy="1405.9" r="2"/>
<circle clip-path="url(#clip212)" style="fill:#0000ff; stroke:none; fill-opacity:0" cx="1856.21" cy="1405.9" r="2"/>
<circle clip-path="url(#clip212)" style="fill:#0000ff; stroke:none; fill-opacity:0" cx="1901.72" cy="1405.9" r="2"/>
<circle clip-path="url(#clip212)" style="fill:#0000ff; stroke:none; fill-opacity:0" cx="1947.24" cy="1405.9" r="2"/>
<circle clip-path="url(#clip212)" style="fill:#0000ff; stroke:none; fill-opacity:0" cx="1992.75" cy="1405.9" r="2"/>
<circle clip-path="url(#clip212)" style="fill:#0000ff; stroke:none; fill-opacity:0" cx="2038.26" cy="1405.73" r="2"/>
<circle clip-path="url(#clip212)" style="fill:#0000ff; stroke:none; fill-opacity:0" cx="2083.77" cy="1405.73" r="2"/>
<circle clip-path="url(#clip212)" style="fill:#0000ff; stroke:none; fill-opacity:0" cx="2129.28" cy="1405.9" r="2"/>
<circle clip-path="url(#clip212)" style="fill:#0000ff; stroke:none; fill-opacity:0" cx="2174.8" cy="1405.9" r="2"/>
<circle clip-path="url(#clip212)" style="fill:#0000ff; stroke:none; fill-opacity:0" cx="2220.31" cy="1405.73" r="2"/>
</svg>
