<?xml version="1.0" encoding="utf-8"?>
<svg xmlns="http://www.w3.org/2000/svg" xmlns:xlink="http://www.w3.org/1999/xlink" width="600" height="400" viewBox="0 0 2400 1600">
<defs>
  <clipPath id="clip600">
    <rect x="0" y="0" width="2400" height="1600"/>
  </clipPath>
</defs>
<path clip-path="url(#clip600)" d="M0 1600 L2400 1600 L2400 0 L0 0  Z" fill="#ffffff" fill-rule="evenodd" fill-opacity="1"/>
<defs>
  <clipPath id="clip601">
    <rect x="480" y="0" width="1681" height="1600"/>
  </clipPath>
</defs>
<path clip-path="url(#clip600)" d="M358.407 1405.9 L2352.76 1405.9 L2352.76 47.2441 L358.407 47.2441  Z" fill="#ffffff" fill-rule="evenodd" fill-opacity="1"/>
<defs>
  <clipPath id="clip602">
    <rect x="358" y="47" width="1995" height="1360"/>
  </clipPath>
</defs>
<polyline clip-path="url(#clip602)" style="stroke:#000000; stroke-linecap:round; stroke-linejoin:round; stroke-width:2; stroke-opacity:0.1; fill:none" points="468.1,1405.9 468.1,47.2441 "/>
<polyline clip-path="url(#clip602)" style="stroke:#000000; stroke-linecap:round; stroke-linejoin:round; stroke-width:2; stroke-opacity:0.1; fill:none" points="923.219,1405.9 923.219,47.2441 "/>
<polyline clip-path="url(#clip602)" style="stroke:#000000; stroke-linecap:round; stroke-linejoin:round; stroke-width:2; stroke-opacity:0.1; fill:none" points="1378.34,1405.9 1378.34,47.2441 "/>
<polyline clip-path="url(#clip602)" style="stroke:#000000; stroke-linecap:round; stroke-linejoin:round; stroke-width:2; stroke-opacity:0.1; fill:none" points="1833.46,1405.9 1833.46,47.2441 "/>
<polyline clip-path="url(#clip602)" style="stroke:#000000; stroke-linecap:round; stroke-linejoin:round; stroke-width:2; stroke-opacity:0.1; fill:none" points="2288.58,1405.9 2288.58,47.2441 "/>
<polyline clip-path="url(#clip600)" style="stroke:#000000; stroke-linecap:round; stroke-linejoin:round; stroke-width:4; stroke-opacity:1; fill:none" points="358.407,1405.9 2352.76,1405.9 "/>
<polyline clip-path="url(#clip600)" style="stroke:#000000; stroke-linecap:round; stroke-linejoin:round; stroke-width:4; stroke-opacity:1; fill:none" points="468.1,1405.9 468.1,1387 "/>
<polyline clip-path="url(#clip600)" style="stroke:#000000; stroke-linecap:round; stroke-linejoin:round; stroke-width:4; stroke-opacity:1; fill:none" points="923.219,1405.9 923.219,1387 "/>
<polyline clip-path="url(#clip600)" style="stroke:#000000; stroke-linecap:round; stroke-linejoin:round; stroke-width:4; stroke-opacity:1; fill:none" points="1378.34,1405.9 1378.34,1387 "/>
<polyline clip-path="url(#clip600)" style="stroke:#000000; stroke-linecap:round; stroke-linejoin:round; stroke-width:4; stroke-opacity:1; fill:none" points="1833.46,1405.9 1833.46,1387 "/>
<polyline clip-path="url(#clip600)" style="stroke:#000000; stroke-linecap:round; stroke-linejoin:round; stroke-width:4; stroke-opacity:1; fill:none" points="2288.58,1405.9 2288.58,1387 "/>
<path clip-path="url(#clip600)" d="M468.1 1439.75 Q463.586 1439.75 461.3 1444.2 Q459.043 1448.63 459.043 1457.54 Q459.043 1466.43 461.3 1470.88 Q463.586 1475.31 468.1 1475.31 Q472.643 1475.31 474.9 1470.88 Q477.186 1466.43 477.186 1457.54 Q477.186 1448.63 474.9 1444.2 Q472.643 1439.75 468.1 1439.75 M468.1 1435.12 Q475.363 1435.12 479.182 1440.88 Q483.03 1446.61 483.03 1457.54 Q483.03 1468.45 479.182 1474.21 Q475.363 1479.94 468.1 1479.94 Q460.837 1479.94 456.989 1474.21 Q453.169 1468.45 453.169 1457.54 Q453.169 1446.61 456.989 1440.88 Q460.837 1435.12 468.1 1435.12 Z" fill="#000000" fill-rule="nonzero" fill-opacity="1" /><path clip-path="url(#clip600)" d="M858.983 1474.18 L879.382 1474.18 L879.382 1479.1 L851.952 1479.1 L851.952 1474.18 Q855.279 1470.74 861.008 1464.95 Q866.766 1459.13 868.242 1457.46 Q871.049 1454.3 872.148 1452.13 Q873.277 1449.93 873.277 1447.82 Q873.277 1444.38 870.846 1442.21 Q868.445 1440.04 864.567 1440.04 Q861.819 1440.04 858.751 1440.99 Q855.713 1441.95 852.241 1443.89 L852.241 1437.98 Q855.771 1436.57 858.838 1435.84 Q861.905 1435.12 864.452 1435.12 Q871.165 1435.12 875.158 1438.48 Q879.151 1441.83 879.151 1447.44 Q879.151 1450.11 878.138 1452.51 Q877.154 1454.88 874.521 1458.12 Q873.798 1458.96 869.92 1462.98 Q866.043 1466.98 858.983 1474.18 Z" fill="#000000" fill-rule="nonzero" fill-opacity="1" /><path clip-path="url(#clip600)" d="M904.151 1439.75 Q899.637 1439.75 897.351 1444.2 Q895.094 1448.63 895.094 1457.54 Q895.094 1466.43 897.351 1470.88 Q899.637 1475.31 904.151 1475.31 Q908.693 1475.31 910.95 1470.88 Q913.236 1466.43 913.236 1457.54 Q913.236 1448.63 910.95 1444.2 Q908.693 1439.75 904.151 1439.75 M904.151 1435.12 Q911.413 1435.12 915.233 1440.88 Q919.081 1446.61 919.081 1457.54 Q919.081 1468.45 915.233 1474.21 Q911.413 1479.94 904.151 1479.94 Q896.888 1479.94 893.039 1474.21 Q889.22 1468.45 889.22 1457.54 Q889.22 1446.61 893.039 1440.88 Q896.888 1435.12 904.151 1435.12 Z" fill="#000000" fill-rule="nonzero" fill-opacity="1" /><path clip-path="url(#clip600)" d="M941.853 1439.75 Q937.339 1439.75 935.053 1444.2 Q932.796 1448.63 932.796 1457.54 Q932.796 1466.43 935.053 1470.88 Q937.339 1475.31 941.853 1475.31 Q946.396 1475.31 948.653 1470.88 Q950.938 1466.43 950.938 1457.54 Q950.938 1448.63 948.653 1444.2 Q946.396 1439.75 941.853 1439.75 M941.853 1435.12 Q949.116 1435.12 952.935 1440.88 Q956.783 1446.61 956.783 1457.54 Q956.783 1468.45 952.935 1474.21 Q949.116 1479.94 941.853 1479.94 Q934.59 1479.94 930.742 1474.21 Q926.922 1468.45 926.922 1457.54 Q926.922 1446.61 930.742 1440.88 Q934.59 1435.12 941.853 1435.12 Z" fill="#000000" fill-rule="nonzero" fill-opacity="1" /><path clip-path="url(#clip600)" d="M979.555 1439.75 Q975.041 1439.75 972.755 1444.2 Q970.499 1448.63 970.499 1457.54 Q970.499 1466.43 972.755 1470.88 Q975.041 1475.31 979.555 1475.31 Q984.098 1475.31 986.355 1470.88 Q988.641 1466.43 988.641 1457.54 Q988.641 1448.63 986.355 1444.2 Q984.098 1439.75 979.555 1439.75 M979.555 1435.12 Q986.818 1435.12 990.637 1440.88 Q994.486 1446.61 994.486 1457.54 Q994.486 1468.45 990.637 1474.21 Q986.818 1479.94 979.555 1479.94 Q972.293 1479.94 968.444 1474.21 Q964.625 1468.45 964.625 1457.54 Q964.625 1446.61 968.444 1440.88 Q972.293 1435.12 979.555 1435.12 Z" fill="#000000" fill-rule="nonzero" fill-opacity="1" /><path clip-path="url(#clip600)" d="M1325.85 1440.99 L1311.09 1464.05 L1325.85 1464.05 L1325.85 1440.99 M1324.32 1435.9 L1331.67 1435.9 L1331.67 1464.05 L1337.83 1464.05 L1337.83 1468.91 L1331.67 1468.91 L1331.67 1479.1 L1325.85 1479.1 L1325.85 1468.91 L1306.35 1468.91 L1306.35 1463.27 L1324.32 1435.9 Z" fill="#000000" fill-rule="nonzero" fill-opacity="1" /><path clip-path="url(#clip600)" d="M1359.99 1439.75 Q1355.48 1439.75 1353.19 1444.2 Q1350.94 1448.63 1350.94 1457.54 Q1350.94 1466.43 1353.19 1470.88 Q1355.48 1475.31 1359.99 1475.31 Q1364.54 1475.31 1366.79 1470.88 Q1369.08 1466.43 1369.08 1457.54 Q1369.08 1448.63 1366.79 1444.2 Q1364.54 1439.75 1359.99 1439.75 M1359.99 1435.12 Q1367.26 1435.12 1371.07 1440.88 Q1374.92 1446.61 1374.92 1457.54 Q1374.92 1468.45 1371.07 1474.21 Q1367.26 1479.94 1359.99 1479.94 Q1352.73 1479.94 1348.88 1474.21 Q1345.06 1468.45 1345.06 1457.54 Q1345.06 1446.61 1348.88 1440.88 Q1352.73 1435.12 1359.99 1435.12 Z" fill="#000000" fill-rule="nonzero" fill-opacity="1" /><path clip-path="url(#clip600)" d="M1397.7 1439.75 Q1393.18 1439.75 1390.9 1444.2 Q1388.64 1448.63 1388.64 1457.54 Q1388.64 1466.43 1390.9 1470.88 Q1393.18 1475.31 1397.7 1475.31 Q1402.24 1475.31 1404.49 1470.88 Q1406.78 1466.43 1406.78 1457.54 Q1406.78 1448.63 1404.49 1444.2 Q1402.24 1439.75 1397.7 1439.75 M1397.7 1435.12 Q1404.96 1435.12 1408.78 1440.88 Q1412.63 1446.61 1412.63 1457.54 Q1412.63 1468.45 1408.78 1474.21 Q1404.96 1479.94 1397.7 1479.94 Q1390.43 1479.94 1386.58 1474.21 Q1382.76 1468.45 1382.76 1457.54 Q1382.76 1446.61 1386.58 1440.88 Q1390.43 1435.12 1397.7 1435.12 Z" fill="#000000" fill-rule="nonzero" fill-opacity="1" /><path clip-path="url(#clip600)" d="M1435.4 1439.75 Q1430.88 1439.75 1428.6 1444.2 Q1426.34 1448.63 1426.34 1457.54 Q1426.34 1466.43 1428.6 1470.88 Q1430.88 1475.31 1435.4 1475.31 Q1439.94 1475.31 1442.2 1470.88 Q1444.48 1466.43 1444.48 1457.54 Q1444.48 1448.63 1442.2 1444.2 Q1439.94 1439.75 1435.4 1439.75 M1435.4 1435.12 Q1442.66 1435.12 1446.48 1440.88 Q1450.33 1446.61 1450.33 1457.54 Q1450.33 1468.45 1446.48 1474.21 Q1442.66 1479.94 1435.4 1479.94 Q1428.13 1479.94 1424.29 1474.21 Q1420.47 1468.45 1420.47 1457.54 Q1420.47 1446.61 1424.29 1440.88 Q1428.13 1435.12 1435.4 1435.12 Z" fill="#000000" fill-rule="nonzero" fill-opacity="1" /><path clip-path="url(#clip600)" d="M1777.51 1455.17 Q1773.58 1455.17 1771.26 1457.86 Q1768.97 1460.55 1768.97 1465.24 Q1768.97 1469.9 1771.26 1472.62 Q1773.58 1475.31 1777.51 1475.31 Q1781.45 1475.31 1783.73 1472.62 Q1786.05 1469.9 1786.05 1465.24 Q1786.05 1460.55 1783.73 1457.86 Q1781.45 1455.17 1777.51 1455.17 M1789.11 1436.85 L1789.11 1442.18 Q1786.91 1441.14 1784.66 1440.59 Q1782.43 1440.04 1780.23 1440.04 Q1774.44 1440.04 1771.38 1443.94 Q1768.34 1447.85 1767.9 1455.75 Q1769.61 1453.23 1772.19 1451.9 Q1774.76 1450.54 1777.86 1450.54 Q1784.37 1450.54 1788.13 1454.51 Q1791.92 1458.44 1791.92 1465.24 Q1791.92 1471.9 1787.98 1475.92 Q1784.05 1479.94 1777.51 1479.94 Q1770.02 1479.94 1766.05 1474.21 Q1762.09 1468.45 1762.09 1457.54 Q1762.09 1447.3 1766.95 1441.22 Q1771.81 1435.12 1780 1435.12 Q1782.2 1435.12 1784.43 1435.55 Q1786.68 1435.99 1789.11 1436.85 Z" fill="#000000" fill-rule="nonzero" fill-opacity="1" /><path clip-path="url(#clip600)" d="M1814.49 1439.75 Q1809.98 1439.75 1807.69 1444.2 Q1805.43 1448.63 1805.43 1457.54 Q1805.43 1466.43 1807.69 1470.88 Q1809.98 1475.31 1814.49 1475.31 Q1819.03 1475.31 1821.29 1470.88 Q1823.57 1466.43 1823.57 1457.54 Q1823.57 1448.63 1821.29 1444.2 Q1819.03 1439.75 1814.49 1439.75 M1814.49 1435.12 Q1821.75 1435.12 1825.57 1440.88 Q1829.42 1446.61 1829.42 1457.54 Q1829.42 1468.45 1825.57 1474.21 Q1821.75 1479.94 1814.49 1479.94 Q1807.23 1479.94 1803.38 1474.21 Q1799.56 1468.45 1799.56 1457.54 Q1799.56 1446.61 1803.38 1440.88 Q1807.23 1435.12 1814.49 1435.12 Z" fill="#000000" fill-rule="nonzero" fill-opacity="1" /><path clip-path="url(#clip600)" d="M1852.19 1439.75 Q1847.68 1439.75 1845.39 1444.2 Q1843.14 1448.63 1843.14 1457.54 Q1843.14 1466.43 1845.39 1470.88 Q1847.68 1475.31 1852.19 1475.31 Q1856.73 1475.31 1858.99 1470.88 Q1861.28 1466.43 1861.28 1457.54 Q1861.28 1448.63 1858.99 1444.2 Q1856.73 1439.75 1852.19 1439.75 M1852.19 1435.12 Q1859.45 1435.12 1863.27 1440.88 Q1867.12 1446.61 1867.12 1457.54 Q1867.12 1468.45 1863.27 1474.21 Q1859.45 1479.94 1852.19 1479.94 Q1844.93 1479.94 1841.08 1474.21 Q1837.26 1468.45 1837.26 1457.54 Q1837.26 1446.61 1841.08 1440.88 Q1844.93 1435.12 1852.19 1435.12 Z" fill="#000000" fill-rule="nonzero" fill-opacity="1" /><path clip-path="url(#clip600)" d="M1889.89 1439.75 Q1885.38 1439.75 1883.09 1444.2 Q1880.84 1448.63 1880.84 1457.54 Q1880.84 1466.43 1883.09 1470.88 Q1885.38 1475.31 1889.89 1475.31 Q1894.44 1475.31 1896.69 1470.88 Q1898.98 1466.43 1898.98 1457.54 Q1898.98 1448.63 1896.69 1444.2 Q1894.44 1439.75 1889.89 1439.75 M1889.89 1435.12 Q1897.16 1435.12 1900.98 1440.88 Q1904.82 1446.61 1904.82 1457.54 Q1904.82 1468.45 1900.98 1474.21 Q1897.16 1479.94 1889.89 1479.94 Q1882.63 1479.94 1878.78 1474.21 Q1874.96 1468.45 1874.96 1457.54 Q1874.96 1446.61 1878.78 1440.88 Q1882.63 1435.12 1889.89 1435.12 Z" fill="#000000" fill-rule="nonzero" fill-opacity="1" /><path clip-path="url(#clip600)" d="M2231.96 1458.58 Q2227.8 1458.58 2225.4 1460.81 Q2223.02 1463.04 2223.02 1466.95 Q2223.02 1470.85 2225.4 1473.08 Q2227.8 1475.31 2231.96 1475.31 Q2236.13 1475.31 2238.53 1473.08 Q2240.93 1470.82 2240.93 1466.95 Q2240.93 1463.04 2238.53 1460.81 Q2236.16 1458.58 2231.96 1458.58 M2226.12 1456.1 Q2222.36 1455.17 2220.24 1452.6 Q2218.16 1450.02 2218.16 1446.32 Q2218.16 1441.14 2221.84 1438.13 Q2225.54 1435.12 2231.96 1435.12 Q2238.42 1435.12 2242.09 1438.13 Q2245.77 1441.14 2245.77 1446.32 Q2245.77 1450.02 2243.65 1452.6 Q2241.57 1455.17 2237.84 1456.1 Q2242.06 1457.08 2244.41 1459.94 Q2246.78 1462.81 2246.78 1466.95 Q2246.78 1473.23 2242.93 1476.58 Q2239.11 1479.94 2231.96 1479.94 Q2224.82 1479.94 2220.97 1476.58 Q2217.15 1473.23 2217.15 1466.95 Q2217.15 1462.81 2219.52 1459.94 Q2221.89 1457.08 2226.12 1456.1 M2223.98 1446.87 Q2223.98 1450.22 2226.06 1452.1 Q2228.17 1453.98 2231.96 1453.98 Q2235.73 1453.98 2237.84 1452.1 Q2239.98 1450.22 2239.98 1446.87 Q2239.98 1443.51 2237.84 1441.63 Q2235.73 1439.75 2231.96 1439.75 Q2228.17 1439.75 2226.06 1441.63 Q2223.98 1443.51 2223.98 1446.87 Z" fill="#000000" fill-rule="nonzero" fill-opacity="1" /><path clip-path="url(#clip600)" d="M2269.67 1439.75 Q2265.15 1439.75 2262.87 1444.2 Q2260.61 1448.63 2260.61 1457.54 Q2260.61 1466.43 2262.87 1470.88 Q2265.15 1475.31 2269.67 1475.31 Q2274.21 1475.31 2276.47 1470.88 Q2278.75 1466.43 2278.75 1457.54 Q2278.75 1448.63 2276.47 1444.2 Q2274.21 1439.75 2269.67 1439.75 M2269.67 1435.12 Q2276.93 1435.12 2280.75 1440.88 Q2284.6 1446.61 2284.6 1457.54 Q2284.6 1468.45 2280.75 1474.21 Q2276.93 1479.94 2269.67 1479.94 Q2262.4 1479.94 2258.55 1474.21 Q2254.74 1468.45 2254.74 1457.54 Q2254.74 1446.61 2258.55 1440.88 Q2262.4 1435.12 2269.67 1435.12 Z" fill="#000000" fill-rule="nonzero" fill-opacity="1" /><path clip-path="url(#clip600)" d="M2307.37 1439.75 Q2302.85 1439.75 2300.57 1444.2 Q2298.31 1448.63 2298.31 1457.54 Q2298.31 1466.43 2300.57 1470.88 Q2302.85 1475.31 2307.37 1475.31 Q2311.91 1475.31 2314.17 1470.88 Q2316.45 1466.43 2316.45 1457.54 Q2316.45 1448.63 2314.17 1444.2 Q2311.91 1439.75 2307.37 1439.75 M2307.37 1435.12 Q2314.63 1435.12 2318.45 1440.88 Q2322.3 1446.61 2322.3 1457.54 Q2322.3 1468.45 2318.45 1474.21 Q2314.63 1479.94 2307.37 1479.94 Q2300.11 1479.94 2296.26 1474.21 Q2292.44 1468.45 2292.44 1457.54 Q2292.44 1446.61 2296.26 1440.88 Q2300.11 1435.12 2307.37 1435.12 Z" fill="#000000" fill-rule="nonzero" fill-opacity="1" /><path clip-path="url(#clip600)" d="M2345.07 1439.75 Q2340.56 1439.75 2338.27 1444.2 Q2336.01 1448.63 2336.01 1457.54 Q2336.01 1466.43 2338.27 1470.88 Q2340.56 1475.31 2345.07 1475.31 Q2349.61 1475.31 2351.87 1470.88 Q2354.16 1466.43 2354.16 1457.54 Q2354.16 1448.63 2351.87 1444.2 Q2349.61 1439.75 2345.07 1439.75 M2345.07 1435.12 Q2352.33 1435.12 2356.15 1440.88 Q2360 1446.61 2360 1457.54 Q2360 1468.45 2356.15 1474.21 Q2352.33 1479.94 2345.07 1479.94 Q2337.81 1479.94 2333.96 1474.21 Q2330.14 1468.45 2330.14 1457.54 Q2330.14 1446.61 2333.96 1440.88 Q2337.81 1435.12 2345.07 1435.12 Z" fill="#000000" fill-rule="nonzero" fill-opacity="1" /><path clip-path="url(#clip600)" d="M1275.05 1524.18 L1275.05 1545.28 L1284.6 1545.28 Q1289.9 1545.28 1292.8 1542.53 Q1295.7 1539.79 1295.7 1534.71 Q1295.7 1529.67 1292.8 1526.92 Q1289.9 1524.18 1284.6 1524.18 L1275.05 1524.18 M1267.45 1517.93 L1284.6 1517.93 Q1294.04 1517.93 1298.86 1522.22 Q1303.71 1526.47 1303.71 1534.71 Q1303.71 1543.02 1298.86 1547.27 Q1294.04 1551.52 1284.6 1551.52 L1275.05 1551.52 L1275.05 1574.09 L1267.45 1574.09 L1267.45 1517.93 Z" fill="#000000" fill-rule="nonzero" fill-opacity="1" /><path clip-path="url(#clip600)" d="M1336.66 1538.43 Q1335.49 1537.76 1334.1 1537.45 Q1332.75 1537.12 1331.09 1537.12 Q1325.23 1537.12 1322.07 1540.95 Q1318.94 1544.75 1318.94 1551.9 L1318.94 1574.09 L1311.99 1574.09 L1311.99 1531.96 L1318.94 1531.96 L1318.94 1538.51 Q1321.13 1534.67 1324.62 1532.83 Q1328.12 1530.95 1333.13 1530.95 Q1333.84 1530.95 1334.7 1531.06 Q1335.57 1531.13 1336.62 1531.32 L1336.66 1538.43 Z" fill="#000000" fill-rule="nonzero" fill-opacity="1" /><path clip-path="url(#clip600)" d="M1343.92 1531.96 L1350.84 1531.96 L1350.84 1574.09 L1343.92 1574.09 L1343.92 1531.96 M1343.92 1515.56 L1350.84 1515.56 L1350.84 1524.33 L1343.92 1524.33 L1343.92 1515.56 Z" fill="#000000" fill-rule="nonzero" fill-opacity="1" /><path clip-path="url(#clip600)" d="M1395.64 1533.58 L1395.64 1540.05 Q1392.71 1538.43 1389.74 1537.64 Q1386.8 1536.81 1383.79 1536.81 Q1377.06 1536.81 1373.34 1541.1 Q1369.61 1545.35 1369.61 1553.06 Q1369.61 1560.78 1373.34 1565.06 Q1377.06 1569.31 1383.79 1569.31 Q1386.8 1569.31 1389.74 1568.52 Q1392.71 1567.7 1395.64 1566.08 L1395.64 1572.47 Q1392.75 1573.83 1389.62 1574.51 Q1386.54 1575.18 1383.04 1575.18 Q1373.52 1575.18 1367.92 1569.2 Q1362.31 1563.22 1362.31 1553.06 Q1362.31 1542.76 1367.96 1536.85 Q1373.64 1530.95 1383.49 1530.95 Q1386.69 1530.95 1389.74 1531.62 Q1392.78 1532.26 1395.64 1533.58 Z" fill="#000000" fill-rule="nonzero" fill-opacity="1" /><path clip-path="url(#clip600)" d="M1443.71 1551.3 L1443.71 1554.68 L1411.89 1554.68 Q1412.34 1561.83 1416.18 1565.59 Q1420.05 1569.31 1426.94 1569.31 Q1430.93 1569.31 1434.65 1568.34 Q1438.41 1567.36 1442.1 1565.4 L1442.1 1571.95 Q1438.37 1573.53 1434.46 1574.36 Q1430.55 1575.18 1426.52 1575.18 Q1416.44 1575.18 1410.54 1569.31 Q1404.67 1563.45 1404.67 1553.44 Q1404.67 1543.1 1410.24 1537.04 Q1415.84 1530.95 1425.32 1530.95 Q1433.82 1530.95 1438.75 1536.44 Q1443.71 1541.89 1443.71 1551.3 M1436.79 1549.27 Q1436.72 1543.59 1433.6 1540.2 Q1430.51 1536.81 1425.4 1536.81 Q1419.6 1536.81 1416.1 1540.09 Q1412.64 1543.36 1412.12 1549.3 L1436.79 1549.27 Z" fill="#000000" fill-rule="nonzero" fill-opacity="1" /><polyline clip-path="url(#clip602)" style="stroke:#000000; stroke-linecap:round; stroke-linejoin:round; stroke-width:2; stroke-opacity:0.1; fill:none" points="358.407,1405.9 2352.76,1405.9 "/>
<polyline clip-path="url(#clip602)" style="stroke:#000000; stroke-linecap:round; stroke-linejoin:round; stroke-width:2; stroke-opacity:0.1; fill:none" points="358.407,1041.28 2352.76,1041.28 "/>
<polyline clip-path="url(#clip602)" style="stroke:#000000; stroke-linecap:round; stroke-linejoin:round; stroke-width:2; stroke-opacity:0.1; fill:none" points="358.407,676.668 2352.76,676.668 "/>
<polyline clip-path="url(#clip602)" style="stroke:#000000; stroke-linecap:round; stroke-linejoin:round; stroke-width:2; stroke-opacity:0.1; fill:none" points="358.407,312.052 2352.76,312.052 "/>
<polyline clip-path="url(#clip600)" style="stroke:#000000; stroke-linecap:round; stroke-linejoin:round; stroke-width:4; stroke-opacity:1; fill:none" points="358.407,1405.9 358.407,47.2441 "/>
<polyline clip-path="url(#clip600)" style="stroke:#000000; stroke-linecap:round; stroke-linejoin:round; stroke-width:4; stroke-opacity:1; fill:none" points="358.407,1405.9 377.305,1405.9 "/>
<polyline clip-path="url(#clip600)" style="stroke:#000000; stroke-linecap:round; stroke-linejoin:round; stroke-width:4; stroke-opacity:1; fill:none" points="358.407,1041.28 377.305,1041.28 "/>
<polyline clip-path="url(#clip600)" style="stroke:#000000; stroke-linecap:round; stroke-linejoin:round; stroke-width:4; stroke-opacity:1; fill:none" points="358.407,676.668 377.305,676.668 "/>
<polyline clip-path="url(#clip600)" style="stroke:#000000; stroke-linecap:round; stroke-linejoin:round; stroke-width:4; stroke-opacity:1; fill:none" points="358.407,312.052 377.305,312.052 "/>
<path clip-path="url(#clip600)" d="M137.831 1388.15 Q133.317 1388.15 131.031 1392.6 Q128.774 1397.03 128.774 1405.94 Q128.774 1414.83 131.031 1419.28 Q133.317 1423.71 137.831 1423.71 Q142.373 1423.71 144.63 1419.28 Q146.916 1414.83 146.916 1405.94 Q146.916 1397.03 144.63 1392.6 Q142.373 1388.15 137.831 1388.15 M137.831 1383.52 Q145.093 1383.52 148.913 1389.28 Q152.761 1395.01 152.761 1405.94 Q152.761 1416.85 148.913 1422.61 Q145.093 1428.34 137.831 1428.34 Q130.568 1428.34 126.72 1422.61 Q122.9 1416.85 122.9 1405.94 Q122.9 1395.01 126.72 1389.28 Q130.568 1383.52 137.831 1383.52 Z" fill="#000000" fill-rule="nonzero" fill-opacity="1" /><path clip-path="url(#clip600)" d="M163.033 1420.15 L169.138 1420.15 L169.138 1427.5 L163.033 1427.5 L163.033 1420.15 Z" fill="#000000" fill-rule="nonzero" fill-opacity="1" /><path clip-path="url(#clip600)" d="M194.37 1388.15 Q189.856 1388.15 187.57 1392.6 Q185.313 1397.03 185.313 1405.94 Q185.313 1414.83 187.57 1419.28 Q189.856 1423.71 194.37 1423.71 Q198.912 1423.71 201.169 1419.28 Q203.455 1414.83 203.455 1405.94 Q203.455 1397.03 201.169 1392.6 Q198.912 1388.15 194.37 1388.15 M194.37 1383.52 Q201.632 1383.52 205.452 1389.28 Q209.3 1395.01 209.3 1405.94 Q209.3 1416.85 205.452 1422.61 Q201.632 1428.34 194.37 1428.34 Q187.107 1428.34 183.259 1422.61 Q179.439 1416.85 179.439 1405.94 Q179.439 1395.01 183.259 1389.28 Q187.107 1383.52 194.37 1383.52 Z" fill="#000000" fill-rule="nonzero" fill-opacity="1" /><path clip-path="url(#clip600)" d="M232.072 1388.15 Q227.558 1388.15 225.272 1392.6 Q223.015 1397.03 223.015 1405.94 Q223.015 1414.83 225.272 1419.28 Q227.558 1423.71 232.072 1423.71 Q236.615 1423.71 238.872 1419.28 Q241.158 1414.83 241.158 1405.94 Q241.158 1397.03 238.872 1392.6 Q236.615 1388.15 232.072 1388.15 M232.072 1383.52 Q239.335 1383.52 243.154 1389.28 Q247.003 1395.01 247.003 1405.94 Q247.003 1416.85 243.154 1422.61 Q239.335 1428.34 232.072 1428.34 Q224.809 1428.34 220.961 1422.61 Q217.142 1416.85 217.142 1405.94 Q217.142 1395.01 220.961 1389.28 Q224.809 1383.52 232.072 1383.52 Z" fill="#000000" fill-rule="nonzero" fill-opacity="1" /><path clip-path="url(#clip600)" d="M269.774 1388.15 Q265.261 1388.15 262.975 1392.6 Q260.718 1397.03 260.718 1405.94 Q260.718 1414.83 262.975 1419.28 Q265.261 1423.71 269.774 1423.71 Q274.317 1423.71 276.574 1419.28 Q278.86 1414.83 278.86 1405.94 Q278.86 1397.03 276.574 1392.6 Q274.317 1388.15 269.774 1388.15 M269.774 1383.52 Q277.037 1383.52 280.856 1389.28 Q284.705 1395.01 284.705 1405.94 Q284.705 1416.85 280.856 1422.61 Q277.037 1428.34 269.774 1428.34 Q262.512 1428.34 258.663 1422.61 Q254.844 1416.85 254.844 1405.94 Q254.844 1395.01 258.663 1389.28 Q262.512 1383.52 269.774 1383.52 Z" fill="#000000" fill-rule="nonzero" fill-opacity="1" /><path clip-path="url(#clip600)" d="M307.477 1388.15 Q302.963 1388.15 300.677 1392.6 Q298.42 1397.03 298.42 1405.94 Q298.42 1414.83 300.677 1419.28 Q302.963 1423.71 307.477 1423.71 Q312.02 1423.71 314.276 1419.28 Q316.562 1414.83 316.562 1405.94 Q316.562 1397.03 314.276 1392.6 Q312.02 1388.15 307.477 1388.15 M307.477 1383.52 Q314.739 1383.52 318.559 1389.28 Q322.407 1395.01 322.407 1405.94 Q322.407 1416.85 318.559 1422.61 Q314.739 1428.34 307.477 1428.34 Q300.214 1428.34 296.366 1422.61 Q292.546 1416.85 292.546 1405.94 Q292.546 1395.01 296.366 1389.28 Q300.214 1383.52 307.477 1383.52 Z" fill="#000000" fill-rule="nonzero" fill-opacity="1" /><path clip-path="url(#clip600)" d="M139.075 1023.53 Q134.561 1023.53 132.275 1027.99 Q130.018 1032.42 130.018 1041.33 Q130.018 1050.21 132.275 1054.67 Q134.561 1059.09 139.075 1059.09 Q143.618 1059.09 145.875 1054.67 Q148.16 1050.21 148.16 1041.33 Q148.16 1032.42 145.875 1027.99 Q143.618 1023.53 139.075 1023.53 M139.075 1018.9 Q146.338 1018.9 150.157 1024.66 Q154.005 1030.39 154.005 1041.33 Q154.005 1052.24 150.157 1057.99 Q146.338 1063.72 139.075 1063.72 Q131.812 1063.72 127.964 1057.99 Q124.144 1052.24 124.144 1041.33 Q124.144 1030.39 127.964 1024.66 Q131.812 1018.9 139.075 1018.9 Z" fill="#000000" fill-rule="nonzero" fill-opacity="1" /><path clip-path="url(#clip600)" d="M164.277 1055.53 L170.383 1055.53 L170.383 1062.88 L164.277 1062.88 L164.277 1055.53 Z" fill="#000000" fill-rule="nonzero" fill-opacity="1" /><path clip-path="url(#clip600)" d="M195.614 1023.53 Q191.1 1023.53 188.814 1027.99 Q186.557 1032.42 186.557 1041.33 Q186.557 1050.21 188.814 1054.67 Q191.1 1059.09 195.614 1059.09 Q200.157 1059.09 202.414 1054.67 Q204.699 1050.21 204.699 1041.33 Q204.699 1032.42 202.414 1027.99 Q200.157 1023.53 195.614 1023.53 M195.614 1018.9 Q202.877 1018.9 206.696 1024.66 Q210.544 1030.39 210.544 1041.33 Q210.544 1052.24 206.696 1057.99 Q202.877 1063.72 195.614 1063.72 Q188.351 1063.72 184.503 1057.99 Q180.683 1052.24 180.683 1041.33 Q180.683 1030.39 184.503 1024.66 Q188.351 1018.9 195.614 1018.9 Z" fill="#000000" fill-rule="nonzero" fill-opacity="1" /><path clip-path="url(#clip600)" d="M233.316 1023.53 Q228.802 1023.53 226.517 1027.99 Q224.26 1032.42 224.26 1041.33 Q224.26 1050.21 226.517 1054.67 Q228.802 1059.09 233.316 1059.09 Q237.859 1059.09 240.116 1054.67 Q242.402 1050.21 242.402 1041.33 Q242.402 1032.42 240.116 1027.99 Q237.859 1023.53 233.316 1023.53 M233.316 1018.9 Q240.579 1018.9 244.398 1024.66 Q248.247 1030.39 248.247 1041.33 Q248.247 1052.24 244.398 1057.99 Q240.579 1063.72 233.316 1063.72 Q226.054 1063.72 222.205 1057.99 Q218.386 1052.24 218.386 1041.33 Q218.386 1030.39 222.205 1024.66 Q226.054 1018.9 233.316 1018.9 Z" fill="#000000" fill-rule="nonzero" fill-opacity="1" /><path clip-path="url(#clip600)" d="M271.019 1023.53 Q266.505 1023.53 264.219 1027.99 Q261.962 1032.42 261.962 1041.33 Q261.962 1050.21 264.219 1054.67 Q266.505 1059.09 271.019 1059.09 Q275.561 1059.09 277.818 1054.67 Q280.104 1050.21 280.104 1041.33 Q280.104 1032.42 277.818 1027.99 Q275.561 1023.53 271.019 1023.53 M271.019 1018.9 Q278.281 1018.9 282.101 1024.66 Q285.949 1030.39 285.949 1041.33 Q285.949 1052.24 282.101 1057.99 Q278.281 1063.72 271.019 1063.72 Q263.756 1063.72 259.908 1057.99 Q256.088 1052.24 256.088 1041.33 Q256.088 1030.39 259.908 1024.66 Q263.756 1018.9 271.019 1018.9 Z" fill="#000000" fill-rule="nonzero" fill-opacity="1" /><path clip-path="url(#clip600)" d="M296.279 1019.68 L319.224 1019.68 L319.224 1024.6 L301.632 1024.6 L301.632 1035.19 Q302.905 1034.76 304.178 1034.56 Q305.451 1034.33 306.724 1034.33 Q313.958 1034.33 318.183 1038.29 Q322.407 1042.25 322.407 1049.02 Q322.407 1056 318.067 1059.87 Q313.727 1063.72 305.827 1063.72 Q303.108 1063.72 300.272 1063.26 Q297.465 1062.8 294.456 1061.87 L294.456 1056 Q297.06 1057.42 299.838 1058.11 Q302.616 1058.8 305.712 1058.8 Q310.717 1058.8 313.64 1056.17 Q316.562 1053.54 316.562 1049.02 Q316.562 1044.51 313.64 1041.88 Q310.717 1039.24 305.712 1039.24 Q303.368 1039.24 301.024 1039.76 Q298.709 1040.29 296.279 1041.39 L296.279 1019.68 Z" fill="#000000" fill-rule="nonzero" fill-opacity="1" /><path clip-path="url(#clip600)" d="M137.831 658.917 Q133.317 658.917 131.031 663.373 Q128.774 667.8 128.774 676.712 Q128.774 685.595 131.031 690.051 Q133.317 694.478 137.831 694.478 Q142.373 694.478 144.63 690.051 Q146.916 685.595 146.916 676.712 Q146.916 667.8 144.63 663.373 Q142.373 658.917 137.831 658.917 M137.831 654.287 Q145.093 654.287 148.913 660.045 Q152.761 665.774 152.761 676.712 Q152.761 687.62 148.913 693.378 Q145.093 699.107 137.831 699.107 Q130.568 699.107 126.72 693.378 Q122.9 687.62 122.9 676.712 Q122.9 665.774 126.72 660.045 Q130.568 654.287 137.831 654.287 Z" fill="#000000" fill-rule="nonzero" fill-opacity="1" /><path clip-path="url(#clip600)" d="M163.033 690.919 L169.138 690.919 L169.138 698.268 L163.033 698.268 L163.033 690.919 Z" fill="#000000" fill-rule="nonzero" fill-opacity="1" /><path clip-path="url(#clip600)" d="M194.37 658.917 Q189.856 658.917 187.57 663.373 Q185.313 667.8 185.313 676.712 Q185.313 685.595 187.57 690.051 Q189.856 694.478 194.37 694.478 Q198.912 694.478 201.169 690.051 Q203.455 685.595 203.455 676.712 Q203.455 667.8 201.169 663.373 Q198.912 658.917 194.37 658.917 M194.37 654.287 Q201.632 654.287 205.452 660.045 Q209.3 665.774 209.3 676.712 Q209.3 687.62 205.452 693.378 Q201.632 699.107 194.37 699.107 Q187.107 699.107 183.259 693.378 Q179.439 687.62 179.439 676.712 Q179.439 665.774 183.259 660.045 Q187.107 654.287 194.37 654.287 Z" fill="#000000" fill-rule="nonzero" fill-opacity="1" /><path clip-path="url(#clip600)" d="M232.072 658.917 Q227.558 658.917 225.272 663.373 Q223.015 667.8 223.015 676.712 Q223.015 685.595 225.272 690.051 Q227.558 694.478 232.072 694.478 Q236.615 694.478 238.872 690.051 Q241.158 685.595 241.158 676.712 Q241.158 667.8 238.872 663.373 Q236.615 658.917 232.072 658.917 M232.072 654.287 Q239.335 654.287 243.154 660.045 Q247.003 665.774 247.003 676.712 Q247.003 687.62 243.154 693.378 Q239.335 699.107 232.072 699.107 Q224.809 699.107 220.961 693.378 Q217.142 687.62 217.142 676.712 Q217.142 665.774 220.961 660.045 Q224.809 654.287 232.072 654.287 Z" fill="#000000" fill-rule="nonzero" fill-opacity="1" /><path clip-path="url(#clip600)" d="M258.287 693.349 L267.836 693.349 L267.836 660.392 L257.448 662.476 L257.448 657.152 L267.778 655.068 L273.623 655.068 L273.623 693.349 L283.171 693.349 L283.171 698.268 L258.287 698.268 L258.287 693.349 Z" fill="#000000" fill-rule="nonzero" fill-opacity="1" /><path clip-path="url(#clip600)" d="M307.477 658.917 Q302.963 658.917 300.677 663.373 Q298.42 667.8 298.42 676.712 Q298.42 685.595 300.677 690.051 Q302.963 694.478 307.477 694.478 Q312.02 694.478 314.276 690.051 Q316.562 685.595 316.562 676.712 Q316.562 667.8 314.276 663.373 Q312.02 658.917 307.477 658.917 M307.477 654.287 Q314.739 654.287 318.559 660.045 Q322.407 665.774 322.407 676.712 Q322.407 687.62 318.559 693.378 Q314.739 699.107 307.477 699.107 Q300.214 699.107 296.366 693.378 Q292.546 687.62 292.546 676.712 Q292.546 665.774 296.366 660.045 Q300.214 654.287 307.477 654.287 Z" fill="#000000" fill-rule="nonzero" fill-opacity="1" /><path clip-path="url(#clip600)" d="M139.075 294.301 Q134.561 294.301 132.275 298.757 Q130.018 303.184 130.018 312.096 Q130.018 320.979 132.275 325.435 Q134.561 329.862 139.075 329.862 Q143.618 329.862 145.875 325.435 Q148.16 320.979 148.16 312.096 Q148.16 303.184 145.875 298.757 Q143.618 294.301 139.075 294.301 M139.075 289.671 Q146.338 289.671 150.157 295.429 Q154.005 301.158 154.005 312.096 Q154.005 323.004 150.157 328.762 Q146.338 334.492 139.075 334.492 Q131.812 334.492 127.964 328.762 Q124.144 323.004 124.144 312.096 Q124.144 301.158 127.964 295.429 Q131.812 289.671 139.075 289.671 Z" fill="#000000" fill-rule="nonzero" fill-opacity="1" /><path clip-path="url(#clip600)" d="M164.277 326.303 L170.383 326.303 L170.383 333.652 L164.277 333.652 L164.277 326.303 Z" fill="#000000" fill-rule="nonzero" fill-opacity="1" /><path clip-path="url(#clip600)" d="M195.614 294.301 Q191.1 294.301 188.814 298.757 Q186.557 303.184 186.557 312.096 Q186.557 320.979 188.814 325.435 Q191.1 329.862 195.614 329.862 Q200.157 329.862 202.414 325.435 Q204.699 320.979 204.699 312.096 Q204.699 303.184 202.414 298.757 Q200.157 294.301 195.614 294.301 M195.614 289.671 Q202.877 289.671 206.696 295.429 Q210.544 301.158 210.544 312.096 Q210.544 323.004 206.696 328.762 Q202.877 334.492 195.614 334.492 Q188.351 334.492 184.503 328.762 Q180.683 323.004 180.683 312.096 Q180.683 301.158 184.503 295.429 Q188.351 289.671 195.614 289.671 Z" fill="#000000" fill-rule="nonzero" fill-opacity="1" /><path clip-path="url(#clip600)" d="M233.316 294.301 Q228.802 294.301 226.517 298.757 Q224.26 303.184 224.26 312.096 Q224.26 320.979 226.517 325.435 Q228.802 329.862 233.316 329.862 Q237.859 329.862 240.116 325.435 Q242.402 320.979 242.402 312.096 Q242.402 303.184 240.116 298.757 Q237.859 294.301 233.316 294.301 M233.316 289.671 Q240.579 289.671 244.398 295.429 Q248.247 301.158 248.247 312.096 Q248.247 323.004 244.398 328.762 Q240.579 334.492 233.316 334.492 Q226.054 334.492 222.205 328.762 Q218.386 323.004 218.386 312.096 Q218.386 301.158 222.205 295.429 Q226.054 289.671 233.316 289.671 Z" fill="#000000" fill-rule="nonzero" fill-opacity="1" /><path clip-path="url(#clip600)" d="M259.531 328.734 L269.08 328.734 L269.08 295.777 L258.692 297.86 L258.692 292.536 L269.022 290.452 L274.867 290.452 L274.867 328.734 L284.415 328.734 L284.415 333.652 L259.531 333.652 L259.531 328.734 Z" fill="#000000" fill-rule="nonzero" fill-opacity="1" /><path clip-path="url(#clip600)" d="M296.279 290.452 L319.224 290.452 L319.224 295.371 L301.632 295.371 L301.632 305.962 Q302.905 305.528 304.178 305.325 Q305.451 305.094 306.724 305.094 Q313.958 305.094 318.183 309.058 Q322.407 313.022 322.407 319.793 Q322.407 326.766 318.067 330.643 Q313.727 334.492 305.827 334.492 Q303.108 334.492 300.272 334.029 Q297.465 333.566 294.456 332.64 L294.456 326.766 Q297.06 328.184 299.838 328.878 Q302.616 329.573 305.712 329.573 Q310.717 329.573 313.64 326.94 Q316.562 324.306 316.562 319.793 Q316.562 315.279 313.64 312.646 Q310.717 310.013 305.712 310.013 Q303.368 310.013 301.024 310.533 Q298.709 311.054 296.279 312.154 L296.279 290.452 Z" fill="#000000" fill-rule="nonzero" fill-opacity="1" /><path clip-path="url(#clip600)" d="M13.8922 920.631 L13.8922 888.356 L20.2868 888.356 L20.2868 913.032 L36.8376 913.032 L36.8376 890.764 L43.2323 890.764 L43.2323 913.032 L70.0522 913.032 L70.0522 920.631 L13.8922 920.631 Z" fill="#000000" fill-rule="nonzero" fill-opacity="1" /><path clip-path="url(#clip600)" d="M34.3926 857.813 Q33.7155 858.979 33.4146 860.37 Q33.0761 861.725 33.0761 863.38 Q33.0761 869.248 36.9129 872.407 Q40.712 875.53 47.859 875.53 L70.0522 875.53 L70.0522 882.488 L27.9228 882.488 L27.9228 875.53 L34.4679 875.53 Q30.6311 873.348 28.7879 869.85 Q26.9071 866.351 26.9071 861.348 Q26.9071 860.634 27.02 859.769 Q27.0952 858.903 27.2833 857.85 L34.3926 857.813 Z" fill="#000000" fill-rule="nonzero" fill-opacity="1" /><path clip-path="url(#clip600)" d="M47.2571 816.21 L50.6425 816.21 L50.6425 848.033 Q57.7895 847.581 61.551 843.744 Q65.275 839.87 65.275 832.986 Q65.275 828.999 64.297 825.275 Q63.319 821.514 61.363 817.827 L67.9081 817.827 Q69.4879 821.551 70.3155 825.463 Q71.143 829.375 71.143 833.4 Q71.143 843.481 65.275 849.387 Q59.407 855.255 49.4012 855.255 Q39.057 855.255 33.0009 849.688 Q26.9071 844.083 26.9071 834.604 Q26.9071 826.103 32.399 821.175 Q37.8533 816.21 47.2571 816.21 M45.2259 823.131 Q39.546 823.206 36.1606 826.328 Q32.7752 829.413 32.7752 834.529 Q32.7752 840.321 36.0477 843.82 Q39.3203 847.28 45.2635 847.807 L45.2259 823.131 Z" fill="#000000" fill-rule="nonzero" fill-opacity="1" /><path clip-path="url(#clip600)" d="M49.0251 800.712 Q56.661 800.712 61.0244 797.59 Q65.3502 794.43 65.3502 788.939 Q65.3502 783.447 61.0244 780.287 Q56.661 777.127 49.0251 777.127 Q41.3891 777.127 37.0633 780.287 Q32.6999 783.447 32.6999 788.939 Q32.6999 794.43 37.0633 797.59 Q41.3891 800.712 49.0251 800.712 M63.7327 777.127 Q67.4943 779.309 69.3375 782.657 Q71.143 785.967 71.143 790.631 Q71.143 798.267 65.0493 803.082 Q58.9556 807.859 49.0251 807.859 Q39.0946 807.859 33.0009 803.082 Q26.9071 798.267 26.9071 790.631 Q26.9071 785.967 28.7503 782.657 Q30.5558 779.309 34.3174 777.127 L27.9228 777.127 L27.9228 770.206 L86.0764 770.206 L86.0764 777.127 L63.7327 777.127 Z" fill="#000000" fill-rule="nonzero" fill-opacity="1" /><path clip-path="url(#clip600)" d="M53.4261 756.664 L27.9228 756.664 L27.9228 749.743 L53.1628 749.743 Q59.1437 749.743 62.1529 747.411 Q65.1245 745.079 65.1245 740.414 Q65.1245 734.81 61.551 731.575 Q57.9776 728.302 51.8086 728.302 L27.9228 728.302 L27.9228 721.381 L70.0522 721.381 L70.0522 728.302 L63.5823 728.302 Q67.4191 730.823 69.2998 734.17 Q71.143 737.48 71.143 741.881 Q71.143 749.141 66.6291 752.903 Q62.1153 756.664 53.4261 756.664 M26.9071 739.248 L26.9071 739.248 Z" fill="#000000" fill-rule="nonzero" fill-opacity="1" /><path clip-path="url(#clip600)" d="M47.2571 671.089 L50.6425 671.089 L50.6425 702.912 Q57.7895 702.46 61.551 698.624 Q65.275 694.749 65.275 687.866 Q65.275 683.878 64.297 680.154 Q63.319 676.393 61.363 672.707 L67.9081 672.707 Q69.4879 676.43 70.3155 680.342 Q71.143 684.254 71.143 688.279 Q71.143 698.36 65.275 704.266 Q59.407 710.134 49.4012 710.134 Q39.057 710.134 33.0009 704.567 Q26.9071 698.962 26.9071 689.483 Q26.9071 680.982 32.399 676.054 Q37.8533 671.089 47.2571 671.089 M45.2259 678.01 Q39.546 678.086 36.1606 681.208 Q32.7752 684.292 32.7752 689.408 Q32.7752 695.201 36.0477 698.699 Q39.3203 702.159 45.2635 702.686 L45.2259 678.01 Z" fill="#000000" fill-rule="nonzero" fill-opacity="1" /><path clip-path="url(#clip600)" d="M44.6241 624.709 L70.0522 624.709 L70.0522 631.63 L44.8497 631.63 Q38.8689 631.63 35.8972 633.963 Q32.9256 636.295 32.9256 640.959 Q32.9256 646.564 36.4991 649.799 Q40.0726 653.034 46.2415 653.034 L70.0522 653.034 L70.0522 659.992 L27.9228 659.992 L27.9228 653.034 L34.4679 653.034 Q30.6687 650.551 28.7879 647.203 Q26.9071 643.818 26.9071 639.417 Q26.9071 632.157 31.421 628.433 Q35.8972 624.709 44.6241 624.709 Z" fill="#000000" fill-rule="nonzero" fill-opacity="1" /><path clip-path="url(#clip600)" d="M29.5402 580.586 L36.0101 580.586 Q34.3926 583.52 33.6027 586.492 Q32.7752 589.426 32.7752 592.435 Q32.7752 599.168 37.0633 602.892 Q41.3139 606.616 49.0251 606.616 Q56.7363 606.616 61.0244 602.892 Q65.275 599.168 65.275 592.435 Q65.275 589.426 64.4851 586.492 Q63.6575 583.52 62.04 580.586 L68.4347 580.586 Q69.7888 583.482 70.4659 586.605 Q71.143 589.689 71.143 593.187 Q71.143 602.704 65.1621 608.309 Q59.1813 613.913 49.0251 613.913 Q38.7184 613.913 32.8128 608.271 Q26.9071 602.591 26.9071 592.736 Q26.9071 589.539 27.5842 586.492 Q28.2237 583.445 29.5402 580.586 Z" fill="#000000" fill-rule="nonzero" fill-opacity="1" /><path clip-path="url(#clip600)" d="M73.9642 551.02 Q81.4873 553.954 83.7818 556.738 Q86.0764 559.521 86.0764 564.186 L86.0764 569.715 L80.2836 569.715 L80.2836 565.653 Q80.2836 562.794 78.9294 561.214 Q77.5753 559.634 72.5348 557.716 L69.3751 556.475 L27.9228 573.514 L27.9228 566.179 L60.874 553.014 L27.9228 539.848 L27.9228 532.513 L73.9642 551.02 Z" fill="#000000" fill-rule="nonzero" fill-opacity="1" /><path clip-path="url(#clip602)" d="M468.1 1318.14 L468.1 1405.9 L513.612 1405.9 L513.612 1318.14 L468.1 1318.14 L468.1 1318.14  Z" fill="#0000ff" fill-rule="evenodd" fill-opacity="0.5"/>
<polyline clip-path="url(#clip602)" style="stroke:#000000; stroke-linecap:round; stroke-linejoin:round; stroke-width:4; stroke-opacity:0.5; fill:none" points="468.1,1318.14 468.1,1405.9 513.612,1405.9 513.612,1318.14 468.1,1318.14 "/>
<path clip-path="url(#clip602)" d="M513.612 628 L513.612 1405.9 L559.124 1405.9 L559.124 628 L513.612 628 L513.612 628  Z" fill="#0000ff" fill-rule="evenodd" fill-opacity="0.5"/>
<polyline clip-path="url(#clip602)" style="stroke:#000000; stroke-linecap:round; stroke-linejoin:round; stroke-width:4; stroke-opacity:0.5; fill:none" points="513.612,628 513.612,1405.9 559.124,1405.9 559.124,628 513.612,628 "/>
<path clip-path="url(#clip602)" d="M559.124 464.441 L559.124 1405.9 L604.636 1405.9 L604.636 464.441 L559.124 464.441 L559.124 464.441  Z" fill="#0000ff" fill-rule="evenodd" fill-opacity="0.5"/>
<polyline clip-path="url(#clip602)" style="stroke:#000000; stroke-linecap:round; stroke-linejoin:round; stroke-width:4; stroke-opacity:0.5; fill:none" points="559.124,464.441 559.124,1405.9 604.636,1405.9 604.636,464.441 559.124,464.441 "/>
<path clip-path="url(#clip602)" d="M604.636 799.537 L604.636 1405.9 L650.147 1405.9 L650.147 799.537 L604.636 799.537 L604.636 799.537  Z" fill="#0000ff" fill-rule="evenodd" fill-opacity="0.5"/>
<polyline clip-path="url(#clip602)" style="stroke:#000000; stroke-linecap:round; stroke-linejoin:round; stroke-width:4; stroke-opacity:0.5; fill:none" points="604.636,799.537 604.636,1405.9 650.147,1405.9 650.147,799.537 604.636,799.537 "/>
<path clip-path="url(#clip602)" d="M650.147 899.267 L650.147 1405.9 L695.659 1405.9 L695.659 899.267 L650.147 899.267 L650.147 899.267  Z" fill="#0000ff" fill-rule="evenodd" fill-opacity="0.5"/>
<polyline clip-path="url(#clip602)" style="stroke:#000000; stroke-linecap:round; stroke-linejoin:round; stroke-width:4; stroke-opacity:0.5; fill:none" points="650.147,899.267 650.147,1405.9 695.659,1405.9 695.659,899.267 650.147,899.267 "/>
<path clip-path="url(#clip602)" d="M695.659 1202.45 L695.659 1405.9 L741.171 1405.9 L741.171 1202.45 L695.659 1202.45 L695.659 1202.45  Z" fill="#0000ff" fill-rule="evenodd" fill-opacity="0.5"/>
<polyline clip-path="url(#clip602)" style="stroke:#000000; stroke-linecap:round; stroke-linejoin:round; stroke-width:4; stroke-opacity:0.5; fill:none" points="695.659,1202.45 695.659,1405.9 741.171,1405.9 741.171,1202.45 695.659,1202.45 "/>
<path clip-path="url(#clip602)" d="M741.171 1250.32 L741.171 1405.9 L786.683 1405.9 L786.683 1250.32 L741.171 1250.32 L741.171 1250.32  Z" fill="#0000ff" fill-rule="evenodd" fill-opacity="0.5"/>
<polyline clip-path="url(#clip602)" style="stroke:#000000; stroke-linecap:round; stroke-linejoin:round; stroke-width:4; stroke-opacity:0.5; fill:none" points="741.171,1250.32 741.171,1405.9 786.683,1405.9 786.683,1250.32 741.171,1250.32 "/>
<path clip-path="url(#clip602)" d="M786.683 1302.18 L786.683 1405.9 L832.195 1405.9 L832.195 1302.18 L786.683 1302.18 L786.683 1302.18  Z" fill="#0000ff" fill-rule="evenodd" fill-opacity="0.5"/>
<polyline clip-path="url(#clip602)" style="stroke:#000000; stroke-linecap:round; stroke-linejoin:round; stroke-width:4; stroke-opacity:0.5; fill:none" points="786.683,1302.18 786.683,1405.9 832.195,1405.9 832.195,1302.18 786.683,1302.18 "/>
<path clip-path="url(#clip602)" d="M832.195 1322.13 L832.195 1405.9 L877.707 1405.9 L877.707 1322.13 L832.195 1322.13 L832.195 1322.13  Z" fill="#0000ff" fill-rule="evenodd" fill-opacity="0.5"/>
<polyline clip-path="url(#clip602)" style="stroke:#000000; stroke-linecap:round; stroke-linejoin:round; stroke-width:4; stroke-opacity:0.5; fill:none" points="832.195,1322.13 832.195,1405.9 877.707,1405.9 877.707,1322.13 832.195,1322.13 "/>
<path clip-path="url(#clip602)" d="M877.707 1354.04 L877.707 1405.9 L923.219 1405.9 L923.219 1354.04 L877.707 1354.04 L877.707 1354.04  Z" fill="#0000ff" fill-rule="evenodd" fill-opacity="0.5"/>
<polyline clip-path="url(#clip602)" style="stroke:#000000; stroke-linecap:round; stroke-linejoin:round; stroke-width:4; stroke-opacity:0.5; fill:none" points="877.707,1354.04 877.707,1405.9 923.219,1405.9 923.219,1354.04 877.707,1354.04 "/>
<path clip-path="url(#clip602)" d="M923.219 1377.98 L923.219 1405.9 L968.731 1405.9 L968.731 1377.98 L923.219 1377.98 L923.219 1377.98  Z" fill="#0000ff" fill-rule="evenodd" fill-opacity="0.5"/>
<polyline clip-path="url(#clip602)" style="stroke:#000000; stroke-linecap:round; stroke-linejoin:round; stroke-width:4; stroke-opacity:0.5; fill:none" points="923.219,1377.98 923.219,1405.9 968.731,1405.9 968.731,1377.98 923.219,1377.98 "/>
<path clip-path="url(#clip602)" d="M968.731 1381.96 L968.731 1405.9 L1014.24 1405.9 L1014.24 1381.96 L968.731 1381.96 L968.731 1381.96  Z" fill="#0000ff" fill-rule="evenodd" fill-opacity="0.5"/>
<polyline clip-path="url(#clip602)" style="stroke:#000000; stroke-linecap:round; stroke-linejoin:round; stroke-width:4; stroke-opacity:0.5; fill:none" points="968.731,1381.96 968.731,1405.9 1014.24,1405.9 1014.24,1381.96 968.731,1381.96 "/>
<path clip-path="url(#clip602)" d="M1014.24 1385.95 L1014.24 1405.9 L1059.75 1405.9 L1059.75 1385.95 L1014.24 1385.95 L1014.24 1385.95  Z" fill="#0000ff" fill-rule="evenodd" fill-opacity="0.5"/>
<polyline clip-path="url(#clip602)" style="stroke:#000000; stroke-linecap:round; stroke-linejoin:round; stroke-width:4; stroke-opacity:0.5; fill:none" points="1014.24,1385.95 1014.24,1405.9 1059.75,1405.9 1059.75,1385.95 1014.24,1385.95 "/>
<path clip-path="url(#clip602)" d="M1059.75 1389.94 L1059.75 1405.9 L1105.27 1405.9 L1105.27 1389.94 L1059.75 1389.94 L1059.75 1389.94  Z" fill="#0000ff" fill-rule="evenodd" fill-opacity="0.5"/>
<polyline clip-path="url(#clip602)" style="stroke:#000000; stroke-linecap:round; stroke-linejoin:round; stroke-width:4; stroke-opacity:0.5; fill:none" points="1059.75,1389.94 1059.75,1405.9 1105.27,1405.9 1105.27,1389.94 1059.75,1389.94 "/>
<path clip-path="url(#clip602)" d="M1105.27 1397.92 L1105.27 1405.9 L1150.78 1405.9 L1150.78 1397.92 L1105.27 1397.92 L1105.27 1397.92  Z" fill="#0000ff" fill-rule="evenodd" fill-opacity="0.5"/>
<polyline clip-path="url(#clip602)" style="stroke:#000000; stroke-linecap:round; stroke-linejoin:round; stroke-width:4; stroke-opacity:0.5; fill:none" points="1105.27,1397.92 1105.27,1405.9 1150.78,1405.9 1150.78,1397.92 1105.27,1397.92 "/>
<path clip-path="url(#clip602)" d="M1150.78 1401.91 L1150.78 1405.9 L1196.29 1405.9 L1196.29 1401.91 L1150.78 1401.91 L1150.78 1401.91  Z" fill="#0000ff" fill-rule="evenodd" fill-opacity="0.5"/>
<polyline clip-path="url(#clip602)" style="stroke:#000000; stroke-linecap:round; stroke-linejoin:round; stroke-width:4; stroke-opacity:0.5; fill:none" points="1150.78,1401.91 1150.78,1405.9 1196.29,1405.9 1196.29,1401.91 1150.78,1401.91 "/>
<path clip-path="url(#clip602)" d="M1196.29 1397.92 L1196.29 1405.9 L1241.8 1405.9 L1241.8 1397.92 L1196.29 1397.92 L1196.29 1397.92  Z" fill="#0000ff" fill-rule="evenodd" fill-opacity="0.5"/>
<polyline clip-path="url(#clip602)" style="stroke:#000000; stroke-linecap:round; stroke-linejoin:round; stroke-width:4; stroke-opacity:0.5; fill:none" points="1196.29,1397.92 1196.29,1405.9 1241.8,1405.9 1241.8,1397.92 1196.29,1397.92 "/>
<path clip-path="url(#clip602)" d="M1241.8 1401.91 L1241.8 1405.9 L1287.31 1405.9 L1287.31 1401.91 L1241.8 1401.91 L1241.8 1401.91  Z" fill="#0000ff" fill-rule="evenodd" fill-opacity="0.5"/>
<polyline clip-path="url(#clip602)" style="stroke:#000000; stroke-linecap:round; stroke-linejoin:round; stroke-width:4; stroke-opacity:0.5; fill:none" points="1241.8,1401.91 1241.8,1405.9 1287.31,1405.9 1287.31,1401.91 1241.8,1401.91 "/>
<path clip-path="url(#clip602)" d="M1287.31 1401.91 L1287.31 1405.9 L1332.83 1405.9 L1332.83 1401.91 L1287.31 1401.91 L1287.31 1401.91  Z" fill="#0000ff" fill-rule="evenodd" fill-opacity="0.5"/>
<polyline clip-path="url(#clip602)" style="stroke:#000000; stroke-linecap:round; stroke-linejoin:round; stroke-width:4; stroke-opacity:0.5; fill:none" points="1287.31,1401.91 1287.31,1405.9 1332.83,1405.9 1332.83,1401.91 1287.31,1401.91 "/>
<path clip-path="url(#clip602)" d="M1332.83 1405.9 L1332.83 1405.9 L1378.34 1405.9 L1378.34 1405.9 L1332.83 1405.9 L1332.83 1405.9  Z" fill="#0000ff" fill-rule="evenodd" fill-opacity="0.5"/>
<polyline clip-path="url(#clip602)" style="stroke:#000000; stroke-linecap:round; stroke-linejoin:round; stroke-width:4; stroke-opacity:0.5; fill:none" points="1332.83,1405.9 1332.83,1405.9 1378.34,1405.9 1332.83,1405.9 "/>
<path clip-path="url(#clip602)" d="M1378.34 1405.9 L1378.34 1405.9 L1423.85 1405.9 L1423.85 1405.9 L1378.34 1405.9 L1378.34 1405.9  Z" fill="#0000ff" fill-rule="evenodd" fill-opacity="0.5"/>
<polyline clip-path="url(#clip602)" style="stroke:#000000; stroke-linecap:round; stroke-linejoin:round; stroke-width:4; stroke-opacity:0.5; fill:none" points="1378.34,1405.9 1378.34,1405.9 1423.85,1405.9 1378.34,1405.9 "/>
<path clip-path="url(#clip602)" d="M1423.85 1405.9 L1423.85 1405.9 L1469.36 1405.9 L1469.36 1405.9 L1423.85 1405.9 L1423.85 1405.9  Z" fill="#0000ff" fill-rule="evenodd" fill-opacity="0.5"/>
<polyline clip-path="url(#clip602)" style="stroke:#000000; stroke-linecap:round; stroke-linejoin:round; stroke-width:4; stroke-opacity:0.5; fill:none" points="1423.85,1405.9 1423.85,1405.9 1469.36,1405.9 1423.85,1405.9 "/>
<path clip-path="url(#clip602)" d="M1469.36 1405.9 L1469.36 1405.9 L1514.87 1405.9 L1514.87 1405.9 L1469.36 1405.9 L1469.36 1405.9  Z" fill="#0000ff" fill-rule="evenodd" fill-opacity="0.5"/>
<polyline clip-path="url(#clip602)" style="stroke:#000000; stroke-linecap:round; stroke-linejoin:round; stroke-width:4; stroke-opacity:0.5; fill:none" points="1469.36,1405.9 1469.36,1405.9 1514.87,1405.9 1469.36,1405.9 "/>
<path clip-path="url(#clip602)" d="M1514.87 1401.91 L1514.87 1405.9 L1560.39 1405.9 L1560.39 1401.91 L1514.87 1401.91 L1514.87 1401.91  Z" fill="#0000ff" fill-rule="evenodd" fill-opacity="0.5"/>
<polyline clip-path="url(#clip602)" style="stroke:#000000; stroke-linecap:round; stroke-linejoin:round; stroke-width:4; stroke-opacity:0.5; fill:none" points="1514.87,1401.91 1514.87,1405.9 1560.39,1405.9 1560.39,1401.91 1514.87,1401.91 "/>
<path clip-path="url(#clip602)" d="M1560.39 1405.9 L1560.39 1405.9 L1605.9 1405.9 L1605.9 1405.9 L1560.39 1405.9 L1560.39 1405.9  Z" fill="#0000ff" fill-rule="evenodd" fill-opacity="0.5"/>
<polyline clip-path="url(#clip602)" style="stroke:#000000; stroke-linecap:round; stroke-linejoin:round; stroke-width:4; stroke-opacity:0.5; fill:none" points="1560.39,1405.9 1560.39,1405.9 1605.9,1405.9 1560.39,1405.9 "/>
<path clip-path="url(#clip602)" d="M1605.9 1405.9 L1605.9 1405.9 L1651.41 1405.9 L1651.41 1405.9 L1605.9 1405.9 L1605.9 1405.9  Z" fill="#0000ff" fill-rule="evenodd" fill-opacity="0.5"/>
<polyline clip-path="url(#clip602)" style="stroke:#000000; stroke-linecap:round; stroke-linejoin:round; stroke-width:4; stroke-opacity:0.5; fill:none" points="1605.9,1405.9 1605.9,1405.9 1651.41,1405.9 1605.9,1405.9 "/>
<path clip-path="url(#clip602)" d="M1651.41 1405.9 L1651.41 1405.9 L1696.92 1405.9 L1696.92 1405.9 L1651.41 1405.9 L1651.41 1405.9  Z" fill="#0000ff" fill-rule="evenodd" fill-opacity="0.5"/>
<polyline clip-path="url(#clip602)" style="stroke:#000000; stroke-linecap:round; stroke-linejoin:round; stroke-width:4; stroke-opacity:0.5; fill:none" points="1651.41,1405.9 1651.41,1405.9 1696.92,1405.9 1651.41,1405.9 "/>
<path clip-path="url(#clip602)" d="M1696.92 1405.9 L1696.92 1405.9 L1742.43 1405.9 L1742.43 1405.9 L1696.92 1405.9 L1696.92 1405.9  Z" fill="#0000ff" fill-rule="evenodd" fill-opacity="0.5"/>
<polyline clip-path="url(#clip602)" style="stroke:#000000; stroke-linecap:round; stroke-linejoin:round; stroke-width:4; stroke-opacity:0.5; fill:none" points="1696.92,1405.9 1696.92,1405.9 1742.43,1405.9 1696.92,1405.9 "/>
<path clip-path="url(#clip602)" d="M1742.43 1405.9 L1742.43 1405.9 L1787.94 1405.9 L1787.94 1405.9 L1742.43 1405.9 L1742.43 1405.9  Z" fill="#0000ff" fill-rule="evenodd" fill-opacity="0.5"/>
<polyline clip-path="url(#clip602)" style="stroke:#000000; stroke-linecap:round; stroke-linejoin:round; stroke-width:4; stroke-opacity:0.5; fill:none" points="1742.43,1405.9 1742.43,1405.9 1787.94,1405.9 1742.43,1405.9 "/>
<path clip-path="url(#clip602)" d="M1787.94 1405.9 L1787.94 1405.9 L1833.46 1405.9 L1833.46 1405.9 L1787.94 1405.9 L1787.94 1405.9  Z" fill="#0000ff" fill-rule="evenodd" fill-opacity="0.5"/>
<polyline clip-path="url(#clip602)" style="stroke:#000000; stroke-linecap:round; stroke-linejoin:round; stroke-width:4; stroke-opacity:0.5; fill:none" points="1787.94,1405.9 1787.94,1405.9 1833.46,1405.9 1787.94,1405.9 "/>
<path clip-path="url(#clip602)" d="M1833.46 1405.9 L1833.46 1405.9 L1878.97 1405.9 L1878.97 1405.9 L1833.46 1405.9 L1833.46 1405.9  Z" fill="#0000ff" fill-rule="evenodd" fill-opacity="0.5"/>
<polyline clip-path="url(#clip602)" style="stroke:#000000; stroke-linecap:round; stroke-linejoin:round; stroke-width:4; stroke-opacity:0.5; fill:none" points="1833.46,1405.9 1833.46,1405.9 1878.97,1405.9 1833.46,1405.9 "/>
<path clip-path="url(#clip602)" d="M1878.97 1405.9 L1878.97 1405.9 L1924.48 1405.9 L1924.48 1405.9 L1878.97 1405.9 L1878.97 1405.9  Z" fill="#0000ff" fill-rule="evenodd" fill-opacity="0.5"/>
<polyline clip-path="url(#clip602)" style="stroke:#000000; stroke-linecap:round; stroke-linejoin:round; stroke-width:4; stroke-opacity:0.5; fill:none" points="1878.97,1405.9 1878.97,1405.9 1924.48,1405.9 1878.97,1405.9 "/>
<path clip-path="url(#clip602)" d="M1924.48 1405.9 L1924.48 1405.9 L1969.99 1405.9 L1969.99 1405.9 L1924.48 1405.9 L1924.48 1405.9  Z" fill="#0000ff" fill-rule="evenodd" fill-opacity="0.5"/>
<polyline clip-path="url(#clip602)" style="stroke:#000000; stroke-linecap:round; stroke-linejoin:round; stroke-width:4; stroke-opacity:0.5; fill:none" points="1924.48,1405.9 1924.48,1405.9 1969.99,1405.9 1924.48,1405.9 "/>
<path clip-path="url(#clip602)" d="M1969.99 1405.9 L1969.99 1405.9 L2015.5 1405.9 L2015.5 1405.9 L1969.99 1405.9 L1969.99 1405.9  Z" fill="#0000ff" fill-rule="evenodd" fill-opacity="0.5"/>
<polyline clip-path="url(#clip602)" style="stroke:#000000; stroke-linecap:round; stroke-linejoin:round; stroke-width:4; stroke-opacity:0.5; fill:none" points="1969.99,1405.9 1969.99,1405.9 2015.5,1405.9 1969.99,1405.9 "/>
<path clip-path="url(#clip602)" d="M2015.5 1405.9 L2015.5 1405.9 L2061.02 1405.9 L2061.02 1405.9 L2015.5 1405.9 L2015.5 1405.9  Z" fill="#0000ff" fill-rule="evenodd" fill-opacity="0.5"/>
<polyline clip-path="url(#clip602)" style="stroke:#000000; stroke-linecap:round; stroke-linejoin:round; stroke-width:4; stroke-opacity:0.5; fill:none" points="2015.5,1405.9 2015.5,1405.9 2061.02,1405.9 2015.5,1405.9 "/>
<path clip-path="url(#clip602)" d="M2061.02 1401.91 L2061.02 1405.9 L2106.53 1405.9 L2106.53 1401.91 L2061.02 1401.91 L2061.02 1401.91  Z" fill="#0000ff" fill-rule="evenodd" fill-opacity="0.5"/>
<polyline clip-path="url(#clip602)" style="stroke:#000000; stroke-linecap:round; stroke-linejoin:round; stroke-width:4; stroke-opacity:0.5; fill:none" points="2061.02,1401.91 2061.02,1405.9 2106.53,1405.9 2106.53,1401.91 2061.02,1401.91 "/>
<path clip-path="url(#clip602)" d="M2106.53 1405.9 L2106.53 1405.9 L2152.04 1405.9 L2152.04 1405.9 L2106.53 1405.9 L2106.53 1405.9  Z" fill="#0000ff" fill-rule="evenodd" fill-opacity="0.5"/>
<polyline clip-path="url(#clip602)" style="stroke:#000000; stroke-linecap:round; stroke-linejoin:round; stroke-width:4; stroke-opacity:0.5; fill:none" points="2106.53,1405.9 2106.53,1405.9 2152.04,1405.9 2106.53,1405.9 "/>
<path clip-path="url(#clip602)" d="M2152.04 1405.9 L2152.04 1405.9 L2197.55 1405.9 L2197.55 1405.9 L2152.04 1405.9 L2152.04 1405.9  Z" fill="#0000ff" fill-rule="evenodd" fill-opacity="0.5"/>
<polyline clip-path="url(#clip602)" style="stroke:#000000; stroke-linecap:round; stroke-linejoin:round; stroke-width:4; stroke-opacity:0.5; fill:none" points="2152.04,1405.9 2152.04,1405.9 2197.55,1405.9 2152.04,1405.9 "/>
<path clip-path="url(#clip602)" d="M2197.55 1401.91 L2197.55 1405.9 L2243.06 1405.9 L2243.06 1401.91 L2197.55 1401.91 L2197.55 1401.91  Z" fill="#0000ff" fill-rule="evenodd" fill-opacity="0.5"/>
<polyline clip-path="url(#clip602)" style="stroke:#000000; stroke-linecap:round; stroke-linejoin:round; stroke-width:4; stroke-opacity:0.5; fill:none" points="2197.55,1401.91 2197.55,1405.9 2243.06,1405.9 2243.06,1401.91 2197.55,1401.91 "/>
<circle clip-path="url(#clip602)" style="fill:#0000ff; stroke:none; fill-opacity:0" cx="490.856" cy="1318.14" r="2"/>
<circle clip-path="url(#clip602)" style="fill:#0000ff; stroke:none; fill-opacity:0" cx="536.368" cy="628" r="2"/>
<circle clip-path="url(#clip602)" style="fill:#0000ff; stroke:none; fill-opacity:0" cx="581.88" cy="464.441" r="2"/>
<circle clip-path="url(#clip602)" style="fill:#0000ff; stroke:none; fill-opacity:0" cx="627.391" cy="799.537" r="2"/>
<circle clip-path="url(#clip602)" style="fill:#0000ff; stroke:none; fill-opacity:0" cx="672.903" cy="899.267" r="2"/>
<circle clip-path="url(#clip602)" style="fill:#0000ff; stroke:none; fill-opacity:0" cx="718.415" cy="1202.45" r="2"/>
<circle clip-path="url(#clip602)" style="fill:#0000ff; stroke:none; fill-opacity:0" cx="763.927" cy="1250.32" r="2"/>
<circle clip-path="url(#clip602)" style="fill:#0000ff; stroke:none; fill-opacity:0" cx="809.439" cy="1302.18" r="2"/>
<circle clip-path="url(#clip602)" style="fill:#0000ff; stroke:none; fill-opacity:0" cx="854.951" cy="1322.13" r="2"/>
<circle clip-path="url(#clip602)" style="fill:#0000ff; stroke:none; fill-opacity:0" cx="900.463" cy="1354.04" r="2"/>
<circle clip-path="url(#clip602)" style="fill:#0000ff; stroke:none; fill-opacity:0" cx="945.975" cy="1377.98" r="2"/>
<circle clip-path="url(#clip602)" style="fill:#0000ff; stroke:none; fill-opacity:0" cx="991.487" cy="1381.96" r="2"/>
<circle clip-path="url(#clip602)" style="fill:#0000ff; stroke:none; fill-opacity:0" cx="1037" cy="1385.95" r="2"/>
<circle clip-path="url(#clip602)" style="fill:#0000ff; stroke:none; fill-opacity:0" cx="1082.51" cy="1389.94" r="2"/>
<circle clip-path="url(#clip602)" style="fill:#0000ff; stroke:none; fill-opacity:0" cx="1128.02" cy="1397.92" r="2"/>
<circle clip-path="url(#clip602)" style="fill:#0000ff; stroke:none; fill-opacity:0" cx="1173.53" cy="1401.91" r="2"/>
<circle clip-path="url(#clip602)" style="fill:#0000ff; stroke:none; fill-opacity:0" cx="1219.05" cy="1397.92" r="2"/>
<circle clip-path="url(#clip602)" style="fill:#0000ff; stroke:none; fill-opacity:0" cx="1264.56" cy="1401.91" r="2"/>
<circle clip-path="url(#clip602)" style="fill:#0000ff; stroke:none; fill-opacity:0" cx="1310.07" cy="1401.91" r="2"/>
<circle clip-path="url(#clip602)" style="fill:#0000ff; stroke:none; fill-opacity:0" cx="1355.58" cy="1405.9" r="2"/>
<circle clip-path="url(#clip602)" style="fill:#0000ff; stroke:none; fill-opacity:0" cx="1401.09" cy="1405.9" r="2"/>
<circle clip-path="url(#clip602)" style="fill:#0000ff; stroke:none; fill-opacity:0" cx="1446.61" cy="1405.9" r="2"/>
<circle clip-path="url(#clip602)" style="fill:#0000ff; stroke:none; fill-opacity:0" cx="1492.12" cy="1405.9" r="2"/>
<circle clip-path="url(#clip602)" style="fill:#0000ff; stroke:none; fill-opacity:0" cx="1537.63" cy="1401.91" r="2"/>
<circle clip-path="url(#clip602)" style="fill:#0000ff; stroke:none; fill-opacity:0" cx="1583.14" cy="1405.9" r="2"/>
<circle clip-path="url(#clip602)" style="fill:#0000ff; stroke:none; fill-opacity:0" cx="1628.65" cy="1405.9" r="2"/>
<circle clip-path="url(#clip602)" style="fill:#0000ff; stroke:none; fill-opacity:0" cx="1674.16" cy="1405.9" r="2"/>
<circle clip-path="url(#clip602)" style="fill:#0000ff; stroke:none; fill-opacity:0" cx="1719.68" cy="1405.9" r="2"/>
<circle clip-path="url(#clip602)" style="fill:#0000ff; stroke:none; fill-opacity:0" cx="1765.19" cy="1405.9" r="2"/>
<circle clip-path="url(#clip602)" style="fill:#0000ff; stroke:none; fill-opacity:0" cx="1810.7" cy="1405.9" r="2"/>
<circle clip-path="url(#clip602)" style="fill:#0000ff; stroke:none; fill-opacity:0" cx="1856.21" cy="1405.9" r="2"/>
<circle clip-path="url(#clip602)" style="fill:#0000ff; stroke:none; fill-opacity:0" cx="1901.72" cy="1405.9" r="2"/>
<circle clip-path="url(#clip602)" style="fill:#0000ff; stroke:none; fill-opacity:0" cx="1947.24" cy="1405.9" r="2"/>
<circle clip-path="url(#clip602)" style="fill:#0000ff; stroke:none; fill-opacity:0" cx="1992.75" cy="1405.9" r="2"/>
<circle clip-path="url(#clip602)" style="fill:#0000ff; stroke:none; fill-opacity:0" cx="2038.26" cy="1405.9" r="2"/>
<circle clip-path="url(#clip602)" style="fill:#0000ff; stroke:none; fill-opacity:0" cx="2083.77" cy="1401.91" r="2"/>
<circle clip-path="url(#clip602)" style="fill:#0000ff; stroke:none; fill-opacity:0" cx="2129.28" cy="1405.9" r="2"/>
<circle clip-path="url(#clip602)" style="fill:#0000ff; stroke:none; fill-opacity:0" cx="2174.8" cy="1405.9" r="2"/>
<circle clip-path="url(#clip602)" style="fill:#0000ff; stroke:none; fill-opacity:0" cx="2220.31" cy="1401.91" r="2"/>
<path clip-path="url(#clip602)" d="M468.1 1271.32 L468.1 1405.9 L513.612 1405.9 L513.612 1271.32 L468.1 1271.32 L468.1 1271.32  Z" fill="#ff0000" fill-rule="evenodd" fill-opacity="0.5"/>
<polyline clip-path="url(#clip602)" style="stroke:#000000; stroke-linecap:round; stroke-linejoin:round; stroke-width:4; stroke-opacity:0.5; fill:none" points="468.1,1271.32 468.1,1405.9 513.612,1405.9 513.612,1271.32 468.1,1271.32 "/>
<path clip-path="url(#clip602)" d="M513.612 47.2441 L513.612 1405.9 L559.124 1405.9 L559.124 47.2441 L513.612 47.2441 L513.612 47.2441  Z" fill="#ff0000" fill-rule="evenodd" fill-opacity="0.5"/>
<polyline clip-path="url(#clip602)" style="stroke:#000000; stroke-linecap:round; stroke-linejoin:round; stroke-width:4; stroke-opacity:0.5; fill:none" points="513.612,47.2441 513.612,1405.9 559.124,1405.9 559.124,47.2441 513.612,47.2441 "/>
<path clip-path="url(#clip602)" d="M559.124 293.151 L559.124 1405.9 L604.636 1405.9 L604.636 293.151 L559.124 293.151 L559.124 293.151  Z" fill="#ff0000" fill-rule="evenodd" fill-opacity="0.5"/>
<polyline clip-path="url(#clip602)" style="stroke:#000000; stroke-linecap:round; stroke-linejoin:round; stroke-width:4; stroke-opacity:0.5; fill:none" points="559.124,293.151 559.124,1405.9 604.636,1405.9 604.636,293.151 559.124,293.151 "/>
<path clip-path="url(#clip602)" d="M604.636 840.102 L604.636 1405.9 L650.147 1405.9 L650.147 840.102 L604.636 840.102 L604.636 840.102  Z" fill="#ff0000" fill-rule="evenodd" fill-opacity="0.5"/>
<polyline clip-path="url(#clip602)" style="stroke:#000000; stroke-linecap:round; stroke-linejoin:round; stroke-width:4; stroke-opacity:0.5; fill:none" points="604.636,840.102 604.636,1405.9 650.147,1405.9 650.147,840.102 604.636,840.102 "/>
<path clip-path="url(#clip602)" d="M650.147 1162.28 L650.147 1405.9 L695.659 1405.9 L695.659 1162.28 L650.147 1162.28 L650.147 1162.28  Z" fill="#ff0000" fill-rule="evenodd" fill-opacity="0.5"/>
<polyline clip-path="url(#clip602)" style="stroke:#000000; stroke-linecap:round; stroke-linejoin:round; stroke-width:4; stroke-opacity:0.5; fill:none" points="650.147,1162.28 650.147,1405.9 695.659,1405.9 695.659,1162.28 650.147,1162.28 "/>
<path clip-path="url(#clip602)" d="M695.659 1329.45 L695.659 1405.9 L741.171 1405.9 L741.171 1329.45 L695.659 1329.45 L695.659 1329.45  Z" fill="#ff0000" fill-rule="evenodd" fill-opacity="0.5"/>
<polyline clip-path="url(#clip602)" style="stroke:#000000; stroke-linecap:round; stroke-linejoin:round; stroke-width:4; stroke-opacity:0.5; fill:none" points="695.659,1329.45 695.659,1405.9 741.171,1405.9 741.171,1329.45 695.659,1329.45 "/>
<path clip-path="url(#clip602)" d="M741.171 1347.77 L741.171 1405.9 L786.683 1405.9 L786.683 1347.77 L741.171 1347.77 L741.171 1347.77  Z" fill="#ff0000" fill-rule="evenodd" fill-opacity="0.5"/>
<polyline clip-path="url(#clip602)" style="stroke:#000000; stroke-linecap:round; stroke-linejoin:round; stroke-width:4; stroke-opacity:0.5; fill:none" points="741.171,1347.77 741.171,1405.9 786.683,1405.9 786.683,1347.77 741.171,1347.77 "/>
<path clip-path="url(#clip602)" d="M786.683 1376.31 L786.683 1405.9 L832.195 1405.9 L832.195 1376.31 L786.683 1376.31 L786.683 1376.31  Z" fill="#ff0000" fill-rule="evenodd" fill-opacity="0.5"/>
<polyline clip-path="url(#clip602)" style="stroke:#000000; stroke-linecap:round; stroke-linejoin:round; stroke-width:4; stroke-opacity:0.5; fill:none" points="786.683,1376.31 786.683,1405.9 832.195,1405.9 832.195,1376.31 786.683,1376.31 "/>
<path clip-path="url(#clip602)" d="M832.195 1384.23 L832.195 1405.9 L877.707 1405.9 L877.707 1384.23 L832.195 1384.23 L832.195 1384.23  Z" fill="#ff0000" fill-rule="evenodd" fill-opacity="0.5"/>
<polyline clip-path="url(#clip602)" style="stroke:#000000; stroke-linecap:round; stroke-linejoin:round; stroke-width:4; stroke-opacity:0.5; fill:none" points="832.195,1384.23 832.195,1405.9 877.707,1405.9 877.707,1384.23 832.195,1384.23 "/>
<path clip-path="url(#clip602)" d="M877.707 1391.46 L877.707 1405.9 L923.219 1405.9 L923.219 1391.46 L877.707 1391.46 L877.707 1391.46  Z" fill="#ff0000" fill-rule="evenodd" fill-opacity="0.5"/>
<polyline clip-path="url(#clip602)" style="stroke:#000000; stroke-linecap:round; stroke-linejoin:round; stroke-width:4; stroke-opacity:0.5; fill:none" points="877.707,1391.46 877.707,1405.9 923.219,1405.9 923.219,1391.46 877.707,1391.46 "/>
<path clip-path="url(#clip602)" d="M923.219 1400.97 L923.219 1405.9 L968.731 1405.9 L968.731 1400.97 L923.219 1400.97 L923.219 1400.97  Z" fill="#ff0000" fill-rule="evenodd" fill-opacity="0.5"/>
<polyline clip-path="url(#clip602)" style="stroke:#000000; stroke-linecap:round; stroke-linejoin:round; stroke-width:4; stroke-opacity:0.5; fill:none" points="923.219,1400.97 923.219,1405.9 968.731,1405.9 968.731,1400.97 923.219,1400.97 "/>
<path clip-path="url(#clip602)" d="M968.731 1398.68 L968.731 1405.9 L1014.24 1405.9 L1014.24 1398.68 L968.731 1398.68 L968.731 1398.68  Z" fill="#ff0000" fill-rule="evenodd" fill-opacity="0.5"/>
<polyline clip-path="url(#clip602)" style="stroke:#000000; stroke-linecap:round; stroke-linejoin:round; stroke-width:4; stroke-opacity:0.5; fill:none" points="968.731,1398.68 968.731,1405.9 1014.24,1405.9 1014.24,1398.68 968.731,1398.68 "/>
<path clip-path="url(#clip602)" d="M1014.24 1399.91 L1014.24 1405.9 L1059.75 1405.9 L1059.75 1399.91 L1014.24 1399.91 L1014.24 1399.91  Z" fill="#ff0000" fill-rule="evenodd" fill-opacity="0.5"/>
<polyline clip-path="url(#clip602)" style="stroke:#000000; stroke-linecap:round; stroke-linejoin:round; stroke-width:4; stroke-opacity:0.5; fill:none" points="1014.24,1399.91 1014.24,1405.9 1059.75,1405.9 1059.75,1399.91 1014.24,1399.91 "/>
<path clip-path="url(#clip602)" d="M1059.75 1403.61 L1059.75 1405.9 L1105.27 1405.9 L1105.27 1403.61 L1059.75 1403.61 L1059.75 1403.61  Z" fill="#ff0000" fill-rule="evenodd" fill-opacity="0.5"/>
<polyline clip-path="url(#clip602)" style="stroke:#000000; stroke-linecap:round; stroke-linejoin:round; stroke-width:4; stroke-opacity:0.5; fill:none" points="1059.75,1403.61 1059.75,1405.9 1105.27,1405.9 1105.27,1403.61 1059.75,1403.61 "/>
<path clip-path="url(#clip602)" d="M1105.27 1403.26 L1105.27 1405.9 L1150.78 1405.9 L1150.78 1403.26 L1105.27 1403.26 L1105.27 1403.26  Z" fill="#ff0000" fill-rule="evenodd" fill-opacity="0.5"/>
<polyline clip-path="url(#clip602)" style="stroke:#000000; stroke-linecap:round; stroke-linejoin:round; stroke-width:4; stroke-opacity:0.5; fill:none" points="1105.27,1403.26 1105.27,1405.9 1150.78,1405.9 1150.78,1403.26 1105.27,1403.26 "/>
<path clip-path="url(#clip602)" d="M1150.78 1403.79 L1150.78 1405.9 L1196.29 1405.9 L1196.29 1403.79 L1150.78 1403.79 L1150.78 1403.79  Z" fill="#ff0000" fill-rule="evenodd" fill-opacity="0.5"/>
<polyline clip-path="url(#clip602)" style="stroke:#000000; stroke-linecap:round; stroke-linejoin:round; stroke-width:4; stroke-opacity:0.5; fill:none" points="1150.78,1403.79 1150.78,1405.9 1196.29,1405.9 1196.29,1403.79 1150.78,1403.79 "/>
<path clip-path="url(#clip602)" d="M1196.29 1404.14 L1196.29 1405.9 L1241.8 1405.9 L1241.8 1404.14 L1196.29 1404.14 L1196.29 1404.14  Z" fill="#ff0000" fill-rule="evenodd" fill-opacity="0.5"/>
<polyline clip-path="url(#clip602)" style="stroke:#000000; stroke-linecap:round; stroke-linejoin:round; stroke-width:4; stroke-opacity:0.5; fill:none" points="1196.29,1404.14 1196.29,1405.9 1241.8,1405.9 1241.8,1404.14 1196.29,1404.14 "/>
<path clip-path="url(#clip602)" d="M1241.8 1405.37 L1241.8 1405.9 L1287.31 1405.9 L1287.31 1405.37 L1241.8 1405.37 L1241.8 1405.37  Z" fill="#ff0000" fill-rule="evenodd" fill-opacity="0.5"/>
<polyline clip-path="url(#clip602)" style="stroke:#000000; stroke-linecap:round; stroke-linejoin:round; stroke-width:4; stroke-opacity:0.5; fill:none" points="1241.8,1405.37 1241.8,1405.9 1287.31,1405.9 1287.31,1405.37 1241.8,1405.37 "/>
<path clip-path="url(#clip602)" d="M1287.31 1405.02 L1287.31 1405.9 L1332.83 1405.9 L1332.83 1405.02 L1287.31 1405.02 L1287.31 1405.02  Z" fill="#ff0000" fill-rule="evenodd" fill-opacity="0.5"/>
<polyline clip-path="url(#clip602)" style="stroke:#000000; stroke-linecap:round; stroke-linejoin:round; stroke-width:4; stroke-opacity:0.5; fill:none" points="1287.31,1405.02 1287.31,1405.9 1332.83,1405.9 1332.83,1405.02 1287.31,1405.02 "/>
<path clip-path="url(#clip602)" d="M1332.83 1405.37 L1332.83 1405.9 L1378.34 1405.9 L1378.34 1405.37 L1332.83 1405.37 L1332.83 1405.37  Z" fill="#ff0000" fill-rule="evenodd" fill-opacity="0.5"/>
<polyline clip-path="url(#clip602)" style="stroke:#000000; stroke-linecap:round; stroke-linejoin:round; stroke-width:4; stroke-opacity:0.5; fill:none" points="1332.83,1405.37 1332.83,1405.9 1378.34,1405.9 1378.34,1405.37 1332.83,1405.37 "/>
<path clip-path="url(#clip602)" d="M1378.34 1405.72 L1378.34 1405.9 L1423.85 1405.9 L1423.85 1405.72 L1378.34 1405.72 L1378.34 1405.72  Z" fill="#ff0000" fill-rule="evenodd" fill-opacity="0.5"/>
<polyline clip-path="url(#clip602)" style="stroke:#000000; stroke-linecap:round; stroke-linejoin:round; stroke-width:4; stroke-opacity:0.5; fill:none" points="1378.34,1405.72 1378.34,1405.9 1423.85,1405.9 1423.85,1405.72 1378.34,1405.72 "/>
<path clip-path="url(#clip602)" d="M1423.85 1405.72 L1423.85 1405.9 L1469.36 1405.9 L1469.36 1405.72 L1423.85 1405.72 L1423.85 1405.72  Z" fill="#ff0000" fill-rule="evenodd" fill-opacity="0.5"/>
<polyline clip-path="url(#clip602)" style="stroke:#000000; stroke-linecap:round; stroke-linejoin:round; stroke-width:4; stroke-opacity:0.5; fill:none" points="1423.85,1405.72 1423.85,1405.9 1469.36,1405.9 1469.36,1405.72 1423.85,1405.72 "/>
<path clip-path="url(#clip602)" d="M1469.36 1405.55 L1469.36 1405.9 L1514.87 1405.9 L1514.87 1405.55 L1469.36 1405.55 L1469.36 1405.55  Z" fill="#ff0000" fill-rule="evenodd" fill-opacity="0.5"/>
<polyline clip-path="url(#clip602)" style="stroke:#000000; stroke-linecap:round; stroke-linejoin:round; stroke-width:4; stroke-opacity:0.5; fill:none" points="1469.36,1405.55 1469.36,1405.9 1514.87,1405.9 1514.87,1405.55 1469.36,1405.55 "/>
<path clip-path="url(#clip602)" d="M1514.87 1405.9 L1514.87 1405.9 L1560.39 1405.9 L1560.39 1405.9 L1514.87 1405.9 L1514.87 1405.9  Z" fill="#ff0000" fill-rule="evenodd" fill-opacity="0.5"/>
<polyline clip-path="url(#clip602)" style="stroke:#000000; stroke-linecap:round; stroke-linejoin:round; stroke-width:4; stroke-opacity:0.5; fill:none" points="1514.87,1405.9 1514.87,1405.9 1560.39,1405.9 1514.87,1405.9 "/>
<path clip-path="url(#clip602)" d="M1560.39 1405.9 L1560.39 1405.9 L1605.9 1405.9 L1605.9 1405.9 L1560.39 1405.9 L1560.39 1405.9  Z" fill="#ff0000" fill-rule="evenodd" fill-opacity="0.5"/>
<polyline clip-path="url(#clip602)" style="stroke:#000000; stroke-linecap:round; stroke-linejoin:round; stroke-width:4; stroke-opacity:0.5; fill:none" points="1560.39,1405.9 1560.39,1405.9 1605.9,1405.9 1560.39,1405.9 "/>
<path clip-path="url(#clip602)" d="M1605.9 1405.72 L1605.9 1405.9 L1651.41 1405.9 L1651.41 1405.72 L1605.9 1405.72 L1605.9 1405.72  Z" fill="#ff0000" fill-rule="evenodd" fill-opacity="0.5"/>
<polyline clip-path="url(#clip602)" style="stroke:#000000; stroke-linecap:round; stroke-linejoin:round; stroke-width:4; stroke-opacity:0.5; fill:none" points="1605.9,1405.72 1605.9,1405.9 1651.41,1405.9 1651.41,1405.72 1605.9,1405.72 "/>
<path clip-path="url(#clip602)" d="M1651.41 1405.55 L1651.41 1405.9 L1696.92 1405.9 L1696.92 1405.55 L1651.41 1405.55 L1651.41 1405.55  Z" fill="#ff0000" fill-rule="evenodd" fill-opacity="0.5"/>
<polyline clip-path="url(#clip602)" style="stroke:#000000; stroke-linecap:round; stroke-linejoin:round; stroke-width:4; stroke-opacity:0.5; fill:none" points="1651.41,1405.55 1651.41,1405.9 1696.92,1405.9 1696.92,1405.55 1651.41,1405.55 "/>
<path clip-path="url(#clip602)" d="M1696.92 1405.72 L1696.92 1405.9 L1742.43 1405.9 L1742.43 1405.72 L1696.92 1405.72 L1696.92 1405.72  Z" fill="#ff0000" fill-rule="evenodd" fill-opacity="0.5"/>
<polyline clip-path="url(#clip602)" style="stroke:#000000; stroke-linecap:round; stroke-linejoin:round; stroke-width:4; stroke-opacity:0.5; fill:none" points="1696.92,1405.72 1696.92,1405.9 1742.43,1405.9 1742.43,1405.72 1696.92,1405.72 "/>
<path clip-path="url(#clip602)" d="M1742.43 1405.9 L1742.43 1405.9 L1787.94 1405.9 L1787.94 1405.9 L1742.43 1405.9 L1742.43 1405.9  Z" fill="#ff0000" fill-rule="evenodd" fill-opacity="0.5"/>
<polyline clip-path="url(#clip602)" style="stroke:#000000; stroke-linecap:round; stroke-linejoin:round; stroke-width:4; stroke-opacity:0.5; fill:none" points="1742.43,1405.9 1742.43,1405.9 1787.94,1405.9 1742.43,1405.9 "/>
<path clip-path="url(#clip602)" d="M1787.94 1405.9 L1787.94 1405.9 L1833.46 1405.9 L1833.46 1405.9 L1787.94 1405.9 L1787.94 1405.9  Z" fill="#ff0000" fill-rule="evenodd" fill-opacity="0.5"/>
<polyline clip-path="url(#clip602)" style="stroke:#000000; stroke-linecap:round; stroke-linejoin:round; stroke-width:4; stroke-opacity:0.5; fill:none" points="1787.94,1405.9 1787.94,1405.9 1833.46,1405.9 1787.94,1405.9 "/>
<path clip-path="url(#clip602)" d="M1833.46 1405.9 L1833.46 1405.9 L1878.97 1405.9 L1878.97 1405.9 L1833.46 1405.9 L1833.46 1405.9  Z" fill="#ff0000" fill-rule="evenodd" fill-opacity="0.5"/>
<polyline clip-path="url(#clip602)" style="stroke:#000000; stroke-linecap:round; stroke-linejoin:round; stroke-width:4; stroke-opacity:0.5; fill:none" points="1833.46,1405.9 1833.46,1405.9 1878.97,1405.9 1833.46,1405.9 "/>
<path clip-path="url(#clip602)" d="M1878.97 1405.9 L1878.97 1405.9 L1924.48 1405.9 L1924.48 1405.9 L1878.97 1405.9 L1878.97 1405.9  Z" fill="#ff0000" fill-rule="evenodd" fill-opacity="0.5"/>
<polyline clip-path="url(#clip602)" style="stroke:#000000; stroke-linecap:round; stroke-linejoin:round; stroke-width:4; stroke-opacity:0.5; fill:none" points="1878.97,1405.9 1878.97,1405.9 1924.48,1405.9 1878.97,1405.9 "/>
<path clip-path="url(#clip602)" d="M1924.48 1405.9 L1924.48 1405.9 L1969.99 1405.9 L1969.99 1405.9 L1924.48 1405.9 L1924.48 1405.9  Z" fill="#ff0000" fill-rule="evenodd" fill-opacity="0.5"/>
<polyline clip-path="url(#clip602)" style="stroke:#000000; stroke-linecap:round; stroke-linejoin:round; stroke-width:4; stroke-opacity:0.5; fill:none" points="1924.48,1405.9 1924.48,1405.9 1969.99,1405.9 1924.48,1405.9 "/>
<path clip-path="url(#clip602)" d="M1969.99 1405.9 L1969.99 1405.9 L2015.5 1405.9 L2015.5 1405.9 L1969.99 1405.9 L1969.99 1405.9  Z" fill="#ff0000" fill-rule="evenodd" fill-opacity="0.5"/>
<polyline clip-path="url(#clip602)" style="stroke:#000000; stroke-linecap:round; stroke-linejoin:round; stroke-width:4; stroke-opacity:0.5; fill:none" points="1969.99,1405.9 1969.99,1405.9 2015.5,1405.9 1969.99,1405.9 "/>
<path clip-path="url(#clip602)" d="M2015.5 1405.72 L2015.5 1405.9 L2061.02 1405.9 L2061.02 1405.72 L2015.5 1405.72 L2015.5 1405.72  Z" fill="#ff0000" fill-rule="evenodd" fill-opacity="0.5"/>
<polyline clip-path="url(#clip602)" style="stroke:#000000; stroke-linecap:round; stroke-linejoin:round; stroke-width:4; stroke-opacity:0.5; fill:none" points="2015.5,1405.72 2015.5,1405.9 2061.02,1405.9 2061.02,1405.72 2015.5,1405.72 "/>
<circle clip-path="url(#clip602)" style="fill:#ff0000; stroke:none; fill-opacity:0" cx="490.856" cy="1271.32" r="2"/>
<circle clip-path="url(#clip602)" style="fill:#ff0000; stroke:none; fill-opacity:0" cx="536.368" cy="47.2441" r="2"/>
<circle clip-path="url(#clip602)" style="fill:#ff0000; stroke:none; fill-opacity:0" cx="581.88" cy="293.151" r="2"/>
<circle clip-path="url(#clip602)" style="fill:#ff0000; stroke:none; fill-opacity:0" cx="627.391" cy="840.102" r="2"/>
<circle clip-path="url(#clip602)" style="fill:#ff0000; stroke:none; fill-opacity:0" cx="672.903" cy="1162.28" r="2"/>
<circle clip-path="url(#clip602)" style="fill:#ff0000; stroke:none; fill-opacity:0" cx="718.415" cy="1329.45" r="2"/>
<circle clip-path="url(#clip602)" style="fill:#ff0000; stroke:none; fill-opacity:0" cx="763.927" cy="1347.77" r="2"/>
<circle clip-path="url(#clip602)" style="fill:#ff0000; stroke:none; fill-opacity:0" cx="809.439" cy="1376.31" r="2"/>
<circle clip-path="url(#clip602)" style="fill:#ff0000; stroke:none; fill-opacity:0" cx="854.951" cy="1384.23" r="2"/>
<circle clip-path="url(#clip602)" style="fill:#ff0000; stroke:none; fill-opacity:0" cx="900.463" cy="1391.46" r="2"/>
<circle clip-path="url(#clip602)" style="fill:#ff0000; stroke:none; fill-opacity:0" cx="945.975" cy="1400.97" r="2"/>
<circle clip-path="url(#clip602)" style="fill:#ff0000; stroke:none; fill-opacity:0" cx="991.487" cy="1398.68" r="2"/>
<circle clip-path="url(#clip602)" style="fill:#ff0000; stroke:none; fill-opacity:0" cx="1037" cy="1399.91" r="2"/>
<circle clip-path="url(#clip602)" style="fill:#ff0000; stroke:none; fill-opacity:0" cx="1082.51" cy="1403.61" r="2"/>
<circle clip-path="url(#clip602)" style="fill:#ff0000; stroke:none; fill-opacity:0" cx="1128.02" cy="1403.26" r="2"/>
<circle clip-path="url(#clip602)" style="fill:#ff0000; stroke:none; fill-opacity:0" cx="1173.53" cy="1403.79" r="2"/>
<circle clip-path="url(#clip602)" style="fill:#ff0000; stroke:none; fill-opacity:0" cx="1219.05" cy="1404.14" r="2"/>
<circle clip-path="url(#clip602)" style="fill:#ff0000; stroke:none; fill-opacity:0" cx="1264.56" cy="1405.37" r="2"/>
<circle clip-path="url(#clip602)" style="fill:#ff0000; stroke:none; fill-opacity:0" cx="1310.07" cy="1405.02" r="2"/>
<circle clip-path="url(#clip602)" style="fill:#ff0000; stroke:none; fill-opacity:0" cx="1355.58" cy="1405.37" r="2"/>
<circle clip-path="url(#clip602)" style="fill:#ff0000; stroke:none; fill-opacity:0" cx="1401.09" cy="1405.72" r="2"/>
<circle clip-path="url(#clip602)" style="fill:#ff0000; stroke:none; fill-opacity:0" cx="1446.61" cy="1405.72" r="2"/>
<circle clip-path="url(#clip602)" style="fill:#ff0000; stroke:none; fill-opacity:0" cx="1492.12" cy="1405.55" r="2"/>
<circle clip-path="url(#clip602)" style="fill:#ff0000; stroke:none; fill-opacity:0" cx="1537.63" cy="1405.9" r="2"/>
<circle clip-path="url(#clip602)" style="fill:#ff0000; stroke:none; fill-opacity:0" cx="1583.14" cy="1405.9" r="2"/>
<circle clip-path="url(#clip602)" style="fill:#ff0000; stroke:none; fill-opacity:0" cx="1628.65" cy="1405.72" r="2"/>
<circle clip-path="url(#clip602)" style="fill:#ff0000; stroke:none; fill-opacity:0" cx="1674.16" cy="1405.55" r="2"/>
<circle clip-path="url(#clip602)" style="fill:#ff0000; stroke:none; fill-opacity:0" cx="1719.68" cy="1405.72" r="2"/>
<circle clip-path="url(#clip602)" style="fill:#ff0000; stroke:none; fill-opacity:0" cx="1765.19" cy="1405.9" r="2"/>
<circle clip-path="url(#clip602)" style="fill:#ff0000; stroke:none; fill-opacity:0" cx="1810.7" cy="1405.9" r="2"/>
<circle clip-path="url(#clip602)" style="fill:#ff0000; stroke:none; fill-opacity:0" cx="1856.21" cy="1405.9" r="2"/>
<circle clip-path="url(#clip602)" style="fill:#ff0000; stroke:none; fill-opacity:0" cx="1901.72" cy="1405.9" r="2"/>
<circle clip-path="url(#clip602)" style="fill:#ff0000; stroke:none; fill-opacity:0" cx="1947.24" cy="1405.9" r="2"/>
<circle clip-path="url(#clip602)" style="fill:#ff0000; stroke:none; fill-opacity:0" cx="1992.75" cy="1405.9" r="2"/>
<circle clip-path="url(#clip602)" style="fill:#ff0000; stroke:none; fill-opacity:0" cx="2038.26" cy="1405.72" r="2"/>
<path clip-path="url(#clip600)" d="M1720.12 286.933 L2286.28 286.933 L2286.28 92.5326 L1720.12 92.5326  Z" fill="#ffffff" fill-rule="evenodd" fill-opacity="1"/>
<polyline clip-path="url(#clip600)" style="stroke:#000000; stroke-linecap:round; stroke-linejoin:round; stroke-width:4; stroke-opacity:1; fill:none" points="1720.12,286.933 2286.28,286.933 2286.28,92.5326 1720.12,92.5326 1720.12,286.933 "/>
<path clip-path="url(#clip600)" d="M1742.28 183.253 L1875.24 183.253 L1875.24 131.413 L1742.28 131.413 L1742.28 183.253  Z" fill="#0000ff" fill-rule="evenodd" fill-opacity="0.5"/>
<polyline clip-path="url(#clip600)" style="stroke:#000000; stroke-linecap:round; stroke-linejoin:round; stroke-width:5; stroke-opacity:1; fill:none" points="1742.28,183.253 1875.24,183.253 1875.24,131.413 1742.28,131.413 1742.28,183.253 "/>
<path clip-path="url(#clip600)" d="M1916.38 151.502 Q1915.48 150.981 1914.41 150.75 Q1913.37 150.489 1912.09 150.489 Q1907.58 150.489 1905.15 153.441 Q1902.75 156.363 1902.75 161.861 L1902.75 178.933 L1897.4 178.933 L1897.4 146.525 L1902.75 146.525 L1902.75 151.56 Q1904.43 148.609 1907.12 147.191 Q1909.81 145.744 1913.66 145.744 Q1914.21 145.744 1914.87 145.831 Q1915.54 145.889 1916.35 146.033 L1916.38 151.502 Z" fill="#000000" fill-rule="nonzero" fill-opacity="1" /><path clip-path="url(#clip600)" d="M1948.38 161.398 L1948.38 164.002 L1923.9 164.002 Q1924.25 169.5 1927.2 172.393 Q1930.18 175.258 1935.47 175.258 Q1938.54 175.258 1941.41 174.506 Q1944.3 173.753 1947.13 172.249 L1947.13 177.283 Q1944.27 178.499 1941.26 179.135 Q1938.25 179.772 1935.16 179.772 Q1927.4 179.772 1922.86 175.258 Q1918.34 170.744 1918.34 163.047 Q1918.34 155.09 1922.63 150.432 Q1926.94 145.744 1934.23 145.744 Q1940.77 145.744 1944.56 149.969 Q1948.38 154.164 1948.38 161.398 M1943.06 159.835 Q1943 155.466 1940.6 152.862 Q1938.22 150.258 1934.29 150.258 Q1929.83 150.258 1927.14 152.775 Q1924.48 155.293 1924.07 159.864 L1943.06 159.835 Z" fill="#000000" fill-rule="nonzero" fill-opacity="1" /><path clip-path="url(#clip600)" d="M1984.06 159.373 L1984.06 178.933 L1978.73 178.933 L1978.73 159.546 Q1978.73 154.945 1976.94 152.66 Q1975.14 150.374 1971.56 150.374 Q1967.24 150.374 1964.76 153.123 Q1962.27 155.871 1962.27 160.617 L1962.27 178.933 L1956.91 178.933 L1956.91 146.525 L1962.27 146.525 L1962.27 151.56 Q1964.18 148.638 1966.75 147.191 Q1969.36 145.744 1972.74 145.744 Q1978.33 145.744 1981.19 149.216 Q1984.06 152.66 1984.06 159.373 Z" fill="#000000" fill-rule="nonzero" fill-opacity="1" /><path clip-path="url(#clip600)" d="M2007.23 150.258 Q2002.95 150.258 2000.46 153.614 Q1997.97 156.942 1997.97 162.758 Q1997.97 168.574 2000.43 171.93 Q2002.92 175.258 2007.23 175.258 Q2011.49 175.258 2013.97 171.901 Q2016.46 168.545 2016.46 162.758 Q2016.46 157 2013.97 153.643 Q2011.49 150.258 2007.23 150.258 M2007.23 145.744 Q2014.18 145.744 2018.14 150.258 Q2022.11 154.772 2022.11 162.758 Q2022.11 170.715 2018.14 175.258 Q2014.18 179.772 2007.23 179.772 Q2000.26 179.772 1996.3 175.258 Q1992.36 170.715 1992.36 162.758 Q1992.36 154.772 1996.3 150.258 Q2000.26 145.744 2007.23 145.744 Z" fill="#000000" fill-rule="nonzero" fill-opacity="1" /><path clip-path="url(#clip600)" d="M2027.11 146.525 L2032.75 146.525 L2042.88 173.724 L2053.01 146.525 L2058.65 146.525 L2046.5 178.933 L2039.26 178.933 L2027.11 146.525 Z" fill="#000000" fill-rule="nonzero" fill-opacity="1" /><path clip-path="url(#clip600)" d="M2080.73 162.642 Q2074.28 162.642 2071.79 164.118 Q2069.3 165.594 2069.3 169.153 Q2069.3 171.988 2071.15 173.666 Q2073.03 175.316 2076.24 175.316 Q2080.67 175.316 2083.33 172.191 Q2086.02 169.037 2086.02 163.829 L2086.02 162.642 L2080.73 162.642 M2091.35 160.443 L2091.35 178.933 L2086.02 178.933 L2086.02 174.014 Q2084.2 176.965 2081.48 178.383 Q2078.76 179.772 2074.83 179.772 Q2069.85 179.772 2066.9 176.994 Q2063.97 174.187 2063.97 169.5 Q2063.97 164.031 2067.62 161.253 Q2071.3 158.476 2078.56 158.476 L2086.02 158.476 L2086.02 157.955 Q2086.02 154.28 2083.59 152.283 Q2081.19 150.258 2076.82 150.258 Q2074.04 150.258 2071.41 150.924 Q2068.78 151.589 2066.35 152.92 L2066.35 148.001 Q2069.27 146.873 2072.02 146.323 Q2074.77 145.744 2077.37 145.744 Q2084.4 145.744 2087.87 149.39 Q2091.35 153.036 2091.35 160.443 Z" fill="#000000" fill-rule="nonzero" fill-opacity="1" /><path clip-path="url(#clip600)" d="M2107.58 137.324 L2107.58 146.525 L2118.55 146.525 L2118.55 150.663 L2107.58 150.663 L2107.58 168.256 Q2107.58 172.22 2108.65 173.348 Q2109.75 174.477 2113.08 174.477 L2118.55 174.477 L2118.55 178.933 L2113.08 178.933 Q2106.91 178.933 2104.57 176.647 Q2102.23 174.332 2102.23 168.256 L2102.23 150.663 L2098.32 150.663 L2098.32 146.525 L2102.23 146.525 L2102.23 137.324 L2107.58 137.324 Z" fill="#000000" fill-rule="nonzero" fill-opacity="1" /><path clip-path="url(#clip600)" d="M2153.27 161.398 L2153.27 164.002 L2128.79 164.002 Q2129.14 169.5 2132.09 172.393 Q2135.07 175.258 2140.36 175.258 Q2143.43 175.258 2146.29 174.506 Q2149.19 173.753 2152.02 172.249 L2152.02 177.283 Q2149.16 178.499 2146.15 179.135 Q2143.14 179.772 2140.04 179.772 Q2132.29 179.772 2127.75 175.258 Q2123.23 170.744 2123.23 163.047 Q2123.23 155.09 2127.52 150.432 Q2131.83 145.744 2139.12 145.744 Q2145.66 145.744 2149.45 149.969 Q2153.27 154.164 2153.27 161.398 M2147.94 159.835 Q2147.89 155.466 2145.48 152.862 Q2143.11 150.258 2139.18 150.258 Q2134.72 150.258 2132.03 152.775 Q2129.37 155.293 2128.96 159.864 L2147.94 159.835 Z" fill="#000000" fill-rule="nonzero" fill-opacity="1" /><path clip-path="url(#clip600)" d="M2183.33 151.444 L2183.33 133.91 L2188.66 133.91 L2188.66 178.933 L2183.33 178.933 L2183.33 174.072 Q2181.65 176.965 2179.08 178.383 Q2176.53 179.772 2172.94 179.772 Q2167.07 179.772 2163.37 175.084 Q2159.69 170.397 2159.69 162.758 Q2159.69 155.119 2163.37 150.432 Q2167.07 145.744 2172.94 145.744 Q2176.53 145.744 2179.08 147.162 Q2181.65 148.551 2183.33 151.444 M2165.19 162.758 Q2165.19 168.632 2167.59 171.988 Q2170.02 175.316 2174.25 175.316 Q2178.47 175.316 2180.9 171.988 Q2183.33 168.632 2183.33 162.758 Q2183.33 156.884 2180.9 153.557 Q2178.47 150.2 2174.25 150.2 Q2170.02 150.2 2167.59 153.557 Q2165.19 156.884 2165.19 162.758 Z" fill="#000000" fill-rule="nonzero" fill-opacity="1" /><path clip-path="url(#clip600)" d="M1742.28 248.053 L1875.24 248.053 L1875.24 196.213 L1742.28 196.213 L1742.28 248.053  Z" fill="#ff0000" fill-rule="evenodd" fill-opacity="0.5"/>
<polyline clip-path="url(#clip600)" style="stroke:#000000; stroke-linecap:round; stroke-linejoin:round; stroke-width:5; stroke-opacity:1; fill:none" points="1742.28,248.053 1875.24,248.053 1875.24,196.213 1742.28,196.213 1742.28,248.053 "/>
<path clip-path="url(#clip600)" d="M1897.4 230.943 L1897.4 211.325 L1902.72 211.325 L1902.72 230.741 Q1902.72 235.341 1904.51 237.656 Q1906.31 239.942 1909.9 239.942 Q1914.21 239.942 1916.7 237.193 Q1919.21 234.444 1919.21 229.699 L1919.21 211.325 L1924.54 211.325 L1924.54 243.733 L1919.21 243.733 L1919.21 238.756 Q1917.27 241.707 1914.7 243.154 Q1912.15 244.572 1908.77 244.572 Q1903.18 244.572 1900.29 241.1 Q1897.4 237.627 1897.4 230.943 M1910.79 210.544 L1910.79 210.544 Z" fill="#000000" fill-rule="nonzero" fill-opacity="1" /><path clip-path="url(#clip600)" d="M1962.44 224.173 L1962.44 243.733 L1957.12 243.733 L1957.12 224.346 Q1957.12 219.745 1955.32 217.46 Q1953.53 215.174 1949.94 215.174 Q1945.63 215.174 1943.14 217.923 Q1940.65 220.671 1940.65 225.417 L1940.65 243.733 L1935.3 243.733 L1935.3 211.325 L1940.65 211.325 L1940.65 216.36 Q1942.56 213.438 1945.14 211.991 Q1947.74 210.544 1951.13 210.544 Q1956.71 210.544 1959.58 214.016 Q1962.44 217.46 1962.44 224.173 Z" fill="#000000" fill-rule="nonzero" fill-opacity="1" /><path clip-path="url(#clip600)" d="M1991.84 216.302 Q1990.94 215.781 1989.87 215.55 Q1988.83 215.289 1987.56 215.289 Q1983.04 215.289 1980.61 218.241 Q1978.21 221.163 1978.21 226.661 L1978.21 243.733 L1972.86 243.733 L1972.86 211.325 L1978.21 211.325 L1978.21 216.36 Q1979.89 213.409 1982.58 211.991 Q1985.27 210.544 1989.12 210.544 Q1989.67 210.544 1990.33 210.631 Q1991 210.689 1991.81 210.833 L1991.84 216.302 Z" fill="#000000" fill-rule="nonzero" fill-opacity="1" /><path clip-path="url(#clip600)" d="M2023.84 226.198 L2023.84 228.802 L1999.36 228.802 Q1999.71 234.3 2002.66 237.193 Q2005.64 240.058 2010.94 240.058 Q2014 240.058 2016.87 239.306 Q2019.76 238.553 2022.6 237.049 L2022.6 242.083 Q2019.73 243.299 2016.72 243.935 Q2013.71 244.572 2010.62 244.572 Q2002.86 244.572 1998.32 240.058 Q1993.81 235.544 1993.81 227.847 Q1993.81 219.89 1998.09 215.232 Q2002.4 210.544 2009.69 210.544 Q2016.23 210.544 2020.02 214.769 Q2023.84 218.964 2023.84 226.198 M2018.52 224.635 Q2018.46 220.266 2016.06 217.662 Q2013.69 215.058 2009.75 215.058 Q2005.29 215.058 2002.6 217.575 Q1999.94 220.093 1999.54 224.664 L2018.52 224.635 Z" fill="#000000" fill-rule="nonzero" fill-opacity="1" /><path clip-path="url(#clip600)" d="M2059.52 224.173 L2059.52 243.733 L2054.19 243.733 L2054.19 224.346 Q2054.19 219.745 2052.4 217.46 Q2050.61 215.174 2047.02 215.174 Q2042.71 215.174 2040.22 217.923 Q2037.73 220.671 2037.73 225.417 L2037.73 243.733 L2032.38 243.733 L2032.38 211.325 L2037.73 211.325 L2037.73 216.36 Q2039.64 213.438 2042.22 211.991 Q2044.82 210.544 2048.2 210.544 Q2053.79 210.544 2056.65 214.016 Q2059.52 217.46 2059.52 224.173 Z" fill="#000000" fill-rule="nonzero" fill-opacity="1" /><path clip-path="url(#clip600)" d="M2082.7 215.058 Q2078.41 215.058 2075.92 218.414 Q2073.44 221.742 2073.44 227.558 Q2073.44 233.374 2075.9 236.73 Q2078.38 240.058 2082.7 240.058 Q2086.95 240.058 2089.44 236.701 Q2091.93 233.345 2091.93 227.558 Q2091.93 221.8 2089.44 218.443 Q2086.95 215.058 2082.7 215.058 M2082.7 210.544 Q2089.64 210.544 2093.6 215.058 Q2097.57 219.572 2097.57 227.558 Q2097.57 235.515 2093.6 240.058 Q2089.64 244.572 2082.7 244.572 Q2075.72 244.572 2071.76 240.058 Q2067.82 235.515 2067.82 227.558 Q2067.82 219.572 2071.76 215.058 Q2075.72 210.544 2082.7 210.544 Z" fill="#000000" fill-rule="nonzero" fill-opacity="1" /><path clip-path="url(#clip600)" d="M2102.57 211.325 L2108.22 211.325 L2118.34 238.524 L2128.47 211.325 L2134.11 211.325 L2121.96 243.733 L2114.73 243.733 L2102.57 211.325 Z" fill="#000000" fill-rule="nonzero" fill-opacity="1" /><path clip-path="url(#clip600)" d="M2156.19 227.442 Q2149.74 227.442 2147.25 228.918 Q2144.76 230.394 2144.76 233.953 Q2144.76 236.788 2146.61 238.466 Q2148.49 240.116 2151.71 240.116 Q2156.13 240.116 2158.79 236.991 Q2161.49 233.837 2161.49 228.629 L2161.49 227.442 L2156.19 227.442 M2166.81 225.243 L2166.81 243.733 L2161.49 243.733 L2161.49 238.814 Q2159.66 241.765 2156.94 243.183 Q2154.22 244.572 2150.29 244.572 Q2145.31 244.572 2142.36 241.794 Q2139.44 238.987 2139.44 234.3 Q2139.44 228.831 2143.08 226.053 Q2146.76 223.276 2154.02 223.276 L2161.49 223.276 L2161.49 222.755 Q2161.49 219.08 2159.06 217.083 Q2156.65 215.058 2152.28 215.058 Q2149.51 215.058 2146.87 215.724 Q2144.24 216.389 2141.81 217.72 L2141.81 212.801 Q2144.73 211.673 2147.48 211.123 Q2150.23 210.544 2152.83 210.544 Q2159.87 210.544 2163.34 214.19 Q2166.81 217.836 2166.81 225.243 Z" fill="#000000" fill-rule="nonzero" fill-opacity="1" /><path clip-path="url(#clip600)" d="M2183.04 202.124 L2183.04 211.325 L2194.01 211.325 L2194.01 215.463 L2183.04 215.463 L2183.04 233.056 Q2183.04 237.02 2184.11 238.148 Q2185.21 239.277 2188.54 239.277 L2194.01 239.277 L2194.01 243.733 L2188.54 243.733 Q2182.38 243.733 2180.03 241.447 Q2177.69 239.132 2177.69 233.056 L2177.69 215.463 L2173.78 215.463 L2173.78 211.325 L2177.69 211.325 L2177.69 202.124 L2183.04 202.124 Z" fill="#000000" fill-rule="nonzero" fill-opacity="1" /><path clip-path="url(#clip600)" d="M2228.73 226.198 L2228.73 228.802 L2204.25 228.802 Q2204.6 234.3 2207.55 237.193 Q2210.53 240.058 2215.83 240.058 Q2218.89 240.058 2221.76 239.306 Q2224.65 238.553 2227.49 237.049 L2227.49 242.083 Q2224.62 243.299 2221.61 243.935 Q2218.6 244.572 2215.51 244.572 Q2207.75 244.572 2203.21 240.058 Q2198.7 235.544 2198.7 227.847 Q2198.7 219.89 2202.98 215.232 Q2207.29 210.544 2214.58 210.544 Q2221.12 210.544 2224.91 214.769 Q2228.73 218.964 2228.73 226.198 M2223.41 224.635 Q2223.35 220.266 2220.95 217.662 Q2218.57 215.058 2214.64 215.058 Q2210.18 215.058 2207.49 217.575 Q2204.83 220.093 2204.43 224.664 L2223.41 224.635 Z" fill="#000000" fill-rule="nonzero" fill-opacity="1" /><path clip-path="url(#clip600)" d="M2258.79 216.244 L2258.79 198.71 L2264.12 198.71 L2264.12 243.733 L2258.79 243.733 L2258.79 238.872 Q2257.12 241.765 2254.54 243.183 Q2251.99 244.572 2248.41 244.572 Q2242.53 244.572 2238.83 239.884 Q2235.15 235.197 2235.15 227.558 Q2235.15 219.919 2238.83 215.232 Q2242.53 210.544 2248.41 210.544 Q2251.99 210.544 2254.54 211.962 Q2257.12 213.351 2258.79 216.244 M2240.65 227.558 Q2240.65 233.432 2243.05 236.788 Q2245.48 240.116 2249.71 240.116 Q2253.93 240.116 2256.36 236.788 Q2258.79 233.432 2258.79 227.558 Q2258.79 221.684 2256.36 218.357 Q2253.93 215 2249.71 215 Q2245.48 215 2243.05 218.357 Q2240.65 221.684 2240.65 227.558 Z" fill="#000000" fill-rule="nonzero" fill-opacity="1" /></svg>
