<?xml version="1.0" encoding="utf-8"?>
<svg xmlns="http://www.w3.org/2000/svg" xmlns:xlink="http://www.w3.org/1999/xlink" width="600" height="400" viewBox="0 0 2400 1600">
<defs>
  <clipPath id="clip420">
    <rect x="0" y="0" width="2400" height="1600"/>
  </clipPath>
</defs>
<path clip-path="url(#clip420)" d="M0 1600 L2400 1600 L2400 8.88178e-14 L0 8.88178e-14  Z" fill="#ffffff" fill-rule="evenodd" fill-opacity="1"/>
<defs>
  <clipPath id="clip421">
    <rect x="480" y="0" width="1681" height="1600"/>
  </clipPath>
</defs>
<path clip-path="url(#clip420)" d="M211.702 1477.81 L2352.76 1477.81 L2352.76 47.2441 L211.702 47.2441  Z" fill="#ffffff" fill-rule="evenodd" fill-opacity="1"/>
<defs>
  <clipPath id="clip422">
    <rect x="211" y="47" width="2142" height="1432"/>
  </clipPath>
</defs>
<polyline clip-path="url(#clip422)" style="stroke:#000000; stroke-linecap:round; stroke-linejoin:round; stroke-width:2; stroke-opacity:0.1; fill:none" points="211.702,1477.81 211.702,47.2441 "/>
<polyline clip-path="url(#clip422)" style="stroke:#000000; stroke-linecap:round; stroke-linejoin:round; stroke-width:2; stroke-opacity:0.1; fill:none" points="541.095,1477.81 541.095,47.2441 "/>
<polyline clip-path="url(#clip422)" style="stroke:#000000; stroke-linecap:round; stroke-linejoin:round; stroke-width:2; stroke-opacity:0.1; fill:none" points="870.488,1477.81 870.488,47.2441 "/>
<polyline clip-path="url(#clip422)" style="stroke:#000000; stroke-linecap:round; stroke-linejoin:round; stroke-width:2; stroke-opacity:0.1; fill:none" points="1199.88,1477.81 1199.88,47.2441 "/>
<polyline clip-path="url(#clip422)" style="stroke:#000000; stroke-linecap:round; stroke-linejoin:round; stroke-width:2; stroke-opacity:0.1; fill:none" points="1529.27,1477.81 1529.27,47.2441 "/>
<polyline clip-path="url(#clip422)" style="stroke:#000000; stroke-linecap:round; stroke-linejoin:round; stroke-width:2; stroke-opacity:0.1; fill:none" points="1858.67,1477.81 1858.67,47.2441 "/>
<polyline clip-path="url(#clip422)" style="stroke:#000000; stroke-linecap:round; stroke-linejoin:round; stroke-width:2; stroke-opacity:0.1; fill:none" points="2188.06,1477.81 2188.06,47.2441 "/>
<polyline clip-path="url(#clip420)" style="stroke:#000000; stroke-linecap:round; stroke-linejoin:round; stroke-width:4; stroke-opacity:1; fill:none" points="211.702,1477.81 2352.76,1477.81 "/>
<polyline clip-path="url(#clip420)" style="stroke:#000000; stroke-linecap:round; stroke-linejoin:round; stroke-width:4; stroke-opacity:1; fill:none" points="211.702,1477.81 211.702,1458.91 "/>
<polyline clip-path="url(#clip420)" style="stroke:#000000; stroke-linecap:round; stroke-linejoin:round; stroke-width:4; stroke-opacity:1; fill:none" points="541.095,1477.81 541.095,1458.91 "/>
<polyline clip-path="url(#clip420)" style="stroke:#000000; stroke-linecap:round; stroke-linejoin:round; stroke-width:4; stroke-opacity:1; fill:none" points="870.488,1477.81 870.488,1458.91 "/>
<polyline clip-path="url(#clip420)" style="stroke:#000000; stroke-linecap:round; stroke-linejoin:round; stroke-width:4; stroke-opacity:1; fill:none" points="1199.88,1477.81 1199.88,1458.91 "/>
<polyline clip-path="url(#clip420)" style="stroke:#000000; stroke-linecap:round; stroke-linejoin:round; stroke-width:4; stroke-opacity:1; fill:none" points="1529.27,1477.81 1529.27,1458.91 "/>
<polyline clip-path="url(#clip420)" style="stroke:#000000; stroke-linecap:round; stroke-linejoin:round; stroke-width:4; stroke-opacity:1; fill:none" points="1858.67,1477.81 1858.67,1458.91 "/>
<polyline clip-path="url(#clip420)" style="stroke:#000000; stroke-linecap:round; stroke-linejoin:round; stroke-width:4; stroke-opacity:1; fill:none" points="2188.06,1477.81 2188.06,1458.91 "/>
<path clip-path="url(#clip420)" d="M211.702 1511.66 Q207.188 1511.66 204.902 1516.11 Q202.645 1520.54 202.645 1529.45 Q202.645 1538.33 204.902 1542.79 Q207.188 1547.22 211.702 1547.22 Q216.245 1547.22 218.502 1542.79 Q220.788 1538.33 220.788 1529.45 Q220.788 1520.54 218.502 1516.11 Q216.245 1511.66 211.702 1511.66 M211.702 1507.03 Q218.965 1507.03 222.784 1512.78 Q226.633 1518.51 226.633 1529.45 Q226.633 1540.36 222.784 1546.12 Q218.965 1551.85 211.702 1551.85 Q204.439 1551.85 200.591 1546.12 Q196.772 1540.36 196.772 1529.45 Q196.772 1518.51 200.591 1512.78 Q204.439 1507.03 211.702 1507.03 Z" fill="#000000" fill-rule="nonzero" fill-opacity="1" /><path clip-path="url(#clip420)" d="M514.562 1546.09 L534.961 1546.09 L534.961 1551.01 L507.53 1551.01 L507.53 1546.09 Q510.858 1542.65 516.587 1536.86 Q522.345 1531.04 523.821 1529.36 Q526.627 1526.21 527.727 1524.04 Q528.855 1521.84 528.855 1519.73 Q528.855 1516.29 526.425 1514.12 Q524.023 1511.95 520.146 1511.95 Q517.397 1511.95 514.33 1512.9 Q511.292 1513.86 507.82 1515.79 L507.82 1509.89 Q511.35 1508.47 514.417 1507.75 Q517.484 1507.03 520.03 1507.03 Q526.743 1507.03 530.736 1510.38 Q534.729 1513.74 534.729 1519.35 Q534.729 1522.01 533.717 1524.42 Q532.733 1526.79 530.1 1530.03 Q529.376 1530.87 525.499 1534.89 Q521.622 1538.88 514.562 1546.09 Z" fill="#000000" fill-rule="nonzero" fill-opacity="1" /><path clip-path="url(#clip420)" d="M559.729 1511.66 Q555.215 1511.66 552.929 1516.11 Q550.672 1520.54 550.672 1529.45 Q550.672 1538.33 552.929 1542.79 Q555.215 1547.22 559.729 1547.22 Q564.272 1547.22 566.529 1542.79 Q568.815 1538.33 568.815 1529.45 Q568.815 1520.54 566.529 1516.11 Q564.272 1511.66 559.729 1511.66 M559.729 1507.03 Q566.992 1507.03 570.811 1512.78 Q574.66 1518.51 574.66 1529.45 Q574.66 1540.36 570.811 1546.12 Q566.992 1551.85 559.729 1551.85 Q552.466 1551.85 548.618 1546.12 Q544.799 1540.36 544.799 1529.45 Q544.799 1518.51 548.618 1512.78 Q552.466 1507.03 559.729 1507.03 Z" fill="#000000" fill-rule="nonzero" fill-opacity="1" /><path clip-path="url(#clip420)" d="M855.702 1512.9 L840.945 1535.96 L855.702 1535.96 L855.702 1512.9 M854.169 1507.81 L861.518 1507.81 L861.518 1535.96 L867.681 1535.96 L867.681 1540.82 L861.518 1540.82 L861.518 1551.01 L855.702 1551.01 L855.702 1540.82 L836.2 1540.82 L836.2 1535.18 L854.169 1507.81 Z" fill="#000000" fill-rule="nonzero" fill-opacity="1" /><path clip-path="url(#clip420)" d="M889.845 1511.66 Q885.332 1511.66 883.046 1516.11 Q880.789 1520.54 880.789 1529.45 Q880.789 1538.33 883.046 1542.79 Q885.332 1547.22 889.845 1547.22 Q894.388 1547.22 896.645 1542.79 Q898.931 1538.33 898.931 1529.45 Q898.931 1520.54 896.645 1516.11 Q894.388 1511.66 889.845 1511.66 M889.845 1507.03 Q897.108 1507.03 900.928 1512.78 Q904.776 1518.51 904.776 1529.45 Q904.776 1540.36 900.928 1546.12 Q897.108 1551.85 889.845 1551.85 Q882.583 1551.85 878.734 1546.12 Q874.915 1540.36 874.915 1529.45 Q874.915 1518.51 878.734 1512.78 Q882.583 1507.03 889.845 1507.03 Z" fill="#000000" fill-rule="nonzero" fill-opacity="1" /><path clip-path="url(#clip420)" d="M1181.64 1527.08 Q1177.7 1527.08 1175.39 1529.77 Q1173.1 1532.46 1173.1 1537.15 Q1173.1 1541.81 1175.39 1544.53 Q1177.7 1547.22 1181.64 1547.22 Q1185.57 1547.22 1187.86 1544.53 Q1190.17 1541.81 1190.17 1537.15 Q1190.17 1532.46 1187.86 1529.77 Q1185.57 1527.08 1181.64 1527.08 M1193.24 1508.76 L1193.24 1514.09 Q1191.04 1513.05 1188.78 1512.5 Q1186.56 1511.95 1184.36 1511.95 Q1178.57 1511.95 1175.5 1515.85 Q1172.46 1519.76 1172.03 1527.66 Q1173.74 1525.14 1176.31 1523.81 Q1178.89 1522.45 1181.98 1522.45 Q1188.49 1522.45 1192.26 1526.41 Q1196.05 1530.35 1196.05 1537.15 Q1196.05 1543.8 1192.11 1547.83 Q1188.18 1551.85 1181.64 1551.85 Q1174.14 1551.85 1170.18 1546.12 Q1166.21 1540.36 1166.21 1529.45 Q1166.21 1519.21 1171.08 1513.13 Q1175.94 1507.03 1184.13 1507.03 Q1186.32 1507.03 1188.55 1507.46 Q1190.81 1507.89 1193.24 1508.76 Z" fill="#000000" fill-rule="nonzero" fill-opacity="1" /><path clip-path="url(#clip420)" d="M1218.62 1511.66 Q1214.1 1511.66 1211.82 1516.11 Q1209.56 1520.54 1209.56 1529.45 Q1209.56 1538.33 1211.82 1542.79 Q1214.1 1547.22 1218.62 1547.22 Q1223.16 1547.22 1225.42 1542.79 Q1227.7 1538.33 1227.7 1529.45 Q1227.7 1520.54 1225.42 1516.11 Q1223.16 1511.66 1218.62 1511.66 M1218.62 1507.03 Q1225.88 1507.03 1229.7 1512.78 Q1233.55 1518.51 1233.55 1529.45 Q1233.55 1540.36 1229.7 1546.12 Q1225.88 1551.85 1218.62 1551.85 Q1211.35 1551.85 1207.51 1546.12 Q1203.69 1540.36 1203.69 1529.45 Q1203.69 1518.51 1207.51 1512.78 Q1211.35 1507.03 1218.62 1507.03 Z" fill="#000000" fill-rule="nonzero" fill-opacity="1" /><path clip-path="url(#clip420)" d="M1510.36 1530.49 Q1506.2 1530.49 1503.8 1532.72 Q1501.42 1534.95 1501.42 1538.86 Q1501.42 1542.76 1503.8 1544.99 Q1506.2 1547.22 1510.36 1547.22 Q1514.53 1547.22 1516.93 1544.99 Q1519.33 1542.73 1519.33 1538.86 Q1519.33 1534.95 1516.93 1532.72 Q1514.56 1530.49 1510.36 1530.49 M1504.52 1528 Q1500.76 1527.08 1498.65 1524.5 Q1496.56 1521.93 1496.56 1518.22 Q1496.56 1513.05 1500.24 1510.04 Q1503.94 1507.03 1510.36 1507.03 Q1516.82 1507.03 1520.49 1510.04 Q1524.17 1513.05 1524.17 1518.22 Q1524.17 1521.93 1522.05 1524.5 Q1519.97 1527.08 1516.24 1528 Q1520.46 1528.99 1522.81 1531.85 Q1525.18 1534.72 1525.18 1538.86 Q1525.18 1545.13 1521.33 1548.49 Q1517.51 1551.85 1510.36 1551.85 Q1503.22 1551.85 1499.37 1548.49 Q1495.55 1545.13 1495.55 1538.86 Q1495.55 1534.72 1497.92 1531.85 Q1500.3 1528.99 1504.52 1528 M1502.38 1518.77 Q1502.38 1522.13 1504.46 1524.01 Q1506.57 1525.89 1510.36 1525.89 Q1514.13 1525.89 1516.24 1524.01 Q1518.38 1522.13 1518.38 1518.77 Q1518.38 1515.42 1516.24 1513.54 Q1514.13 1511.66 1510.36 1511.66 Q1506.57 1511.66 1504.46 1513.54 Q1502.38 1515.42 1502.38 1518.77 Z" fill="#000000" fill-rule="nonzero" fill-opacity="1" /><path clip-path="url(#clip420)" d="M1548.07 1511.66 Q1543.55 1511.66 1541.27 1516.11 Q1539.01 1520.54 1539.01 1529.45 Q1539.01 1538.33 1541.27 1542.79 Q1543.55 1547.22 1548.07 1547.22 Q1552.61 1547.22 1554.87 1542.79 Q1557.15 1538.33 1557.15 1529.45 Q1557.15 1520.54 1554.87 1516.11 Q1552.61 1511.66 1548.07 1511.66 M1548.07 1507.03 Q1555.33 1507.03 1559.15 1512.78 Q1563 1518.51 1563 1529.45 Q1563 1540.36 1559.15 1546.12 Q1555.33 1551.85 1548.07 1551.85 Q1540.8 1551.85 1536.96 1546.12 Q1533.14 1540.36 1533.14 1529.45 Q1533.14 1518.51 1536.96 1512.78 Q1540.8 1507.03 1548.07 1507.03 Z" fill="#000000" fill-rule="nonzero" fill-opacity="1" /><path clip-path="url(#clip420)" d="M1808.17 1546.09 L1817.72 1546.09 L1817.72 1513.13 L1807.34 1515.22 L1807.34 1509.89 L1817.67 1507.81 L1823.51 1507.81 L1823.51 1546.09 L1833.06 1546.09 L1833.06 1551.01 L1808.17 1551.01 L1808.17 1546.09 Z" fill="#000000" fill-rule="nonzero" fill-opacity="1" /><path clip-path="url(#clip420)" d="M1857.36 1511.66 Q1852.85 1511.66 1850.56 1516.11 Q1848.31 1520.54 1848.31 1529.45 Q1848.31 1538.33 1850.56 1542.79 Q1852.85 1547.22 1857.36 1547.22 Q1861.91 1547.22 1864.16 1542.79 Q1866.45 1538.33 1866.45 1529.45 Q1866.45 1520.54 1864.16 1516.11 Q1861.91 1511.66 1857.36 1511.66 M1857.36 1507.03 Q1864.63 1507.03 1868.45 1512.78 Q1872.29 1518.51 1872.29 1529.45 Q1872.29 1540.36 1868.45 1546.12 Q1864.63 1551.85 1857.36 1551.85 Q1850.1 1551.85 1846.25 1546.12 Q1842.43 1540.36 1842.43 1529.45 Q1842.43 1518.51 1846.25 1512.78 Q1850.1 1507.03 1857.36 1507.03 Z" fill="#000000" fill-rule="nonzero" fill-opacity="1" /><path clip-path="url(#clip420)" d="M1895.07 1511.66 Q1890.55 1511.66 1888.27 1516.11 Q1886.01 1520.54 1886.01 1529.45 Q1886.01 1538.33 1888.27 1542.79 Q1890.55 1547.22 1895.07 1547.22 Q1899.61 1547.22 1901.87 1542.79 Q1904.15 1538.33 1904.15 1529.45 Q1904.15 1520.54 1901.87 1516.11 Q1899.61 1511.66 1895.07 1511.66 M1895.07 1507.03 Q1902.33 1507.03 1906.15 1512.78 Q1910 1518.51 1910 1529.45 Q1910 1540.36 1906.15 1546.12 Q1902.33 1551.85 1895.07 1551.85 Q1887.8 1551.85 1883.96 1546.12 Q1880.14 1540.36 1880.14 1529.45 Q1880.14 1518.51 1883.96 1512.78 Q1887.8 1507.03 1895.07 1507.03 Z" fill="#000000" fill-rule="nonzero" fill-opacity="1" /><path clip-path="url(#clip420)" d="M2137.57 1546.09 L2147.12 1546.09 L2147.12 1513.13 L2136.73 1515.22 L2136.73 1509.89 L2147.06 1507.81 L2152.9 1507.81 L2152.9 1546.09 L2162.45 1546.09 L2162.45 1551.01 L2137.57 1551.01 L2137.57 1546.09 Z" fill="#000000" fill-rule="nonzero" fill-opacity="1" /><path clip-path="url(#clip420)" d="M2179.29 1546.09 L2199.69 1546.09 L2199.69 1551.01 L2172.26 1551.01 L2172.26 1546.09 Q2175.59 1542.65 2181.32 1536.86 Q2187.08 1531.04 2188.55 1529.36 Q2191.36 1526.21 2192.46 1524.04 Q2193.59 1521.84 2193.59 1519.73 Q2193.59 1516.29 2191.16 1514.12 Q2188.75 1511.95 2184.88 1511.95 Q2182.13 1511.95 2179.06 1512.9 Q2176.02 1513.86 2172.55 1515.79 L2172.55 1509.89 Q2176.08 1508.47 2179.15 1507.75 Q2182.21 1507.03 2184.76 1507.03 Q2191.47 1507.03 2195.47 1510.38 Q2199.46 1513.74 2199.46 1519.35 Q2199.46 1522.01 2198.45 1524.42 Q2197.46 1526.79 2194.83 1530.03 Q2194.11 1530.87 2190.23 1534.89 Q2186.35 1538.88 2179.29 1546.09 Z" fill="#000000" fill-rule="nonzero" fill-opacity="1" /><path clip-path="url(#clip420)" d="M2224.46 1511.66 Q2219.95 1511.66 2217.66 1516.11 Q2215.4 1520.54 2215.4 1529.45 Q2215.4 1538.33 2217.66 1542.79 Q2219.95 1547.22 2224.46 1547.22 Q2229 1547.22 2231.26 1542.79 Q2233.55 1538.33 2233.55 1529.45 Q2233.55 1520.54 2231.26 1516.11 Q2229 1511.66 2224.46 1511.66 M2224.46 1507.03 Q2231.72 1507.03 2235.54 1512.78 Q2239.39 1518.51 2239.39 1529.45 Q2239.39 1540.36 2235.54 1546.12 Q2231.72 1551.85 2224.46 1551.85 Q2217.2 1551.85 2213.35 1546.12 Q2209.53 1540.36 2209.53 1529.45 Q2209.53 1518.51 2213.35 1512.78 Q2217.2 1507.03 2224.46 1507.03 Z" fill="#000000" fill-rule="nonzero" fill-opacity="1" /><polyline clip-path="url(#clip422)" style="stroke:#000000; stroke-linecap:round; stroke-linejoin:round; stroke-width:2; stroke-opacity:0.1; fill:none" points="211.702,1477.81 2352.76,1477.81 "/>
<polyline clip-path="url(#clip422)" style="stroke:#000000; stroke-linecap:round; stroke-linejoin:round; stroke-width:2; stroke-opacity:0.1; fill:none" points="211.702,1198.5 2352.76,1198.5 "/>
<polyline clip-path="url(#clip422)" style="stroke:#000000; stroke-linecap:round; stroke-linejoin:round; stroke-width:2; stroke-opacity:0.1; fill:none" points="211.702,919.186 2352.76,919.186 "/>
<polyline clip-path="url(#clip422)" style="stroke:#000000; stroke-linecap:round; stroke-linejoin:round; stroke-width:2; stroke-opacity:0.1; fill:none" points="211.702,639.874 2352.76,639.874 "/>
<polyline clip-path="url(#clip422)" style="stroke:#000000; stroke-linecap:round; stroke-linejoin:round; stroke-width:2; stroke-opacity:0.1; fill:none" points="211.702,360.563 2352.76,360.563 "/>
<polyline clip-path="url(#clip422)" style="stroke:#000000; stroke-linecap:round; stroke-linejoin:round; stroke-width:2; stroke-opacity:0.1; fill:none" points="211.702,81.2521 2352.76,81.2521 "/>
<polyline clip-path="url(#clip420)" style="stroke:#000000; stroke-linecap:round; stroke-linejoin:round; stroke-width:4; stroke-opacity:1; fill:none" points="211.702,1477.81 211.702,47.2441 "/>
<polyline clip-path="url(#clip420)" style="stroke:#000000; stroke-linecap:round; stroke-linejoin:round; stroke-width:4; stroke-opacity:1; fill:none" points="211.702,1477.81 230.6,1477.81 "/>
<polyline clip-path="url(#clip420)" style="stroke:#000000; stroke-linecap:round; stroke-linejoin:round; stroke-width:4; stroke-opacity:1; fill:none" points="211.702,1198.5 230.6,1198.5 "/>
<polyline clip-path="url(#clip420)" style="stroke:#000000; stroke-linecap:round; stroke-linejoin:round; stroke-width:4; stroke-opacity:1; fill:none" points="211.702,919.186 230.6,919.186 "/>
<polyline clip-path="url(#clip420)" style="stroke:#000000; stroke-linecap:round; stroke-linejoin:round; stroke-width:4; stroke-opacity:1; fill:none" points="211.702,639.874 230.6,639.874 "/>
<polyline clip-path="url(#clip420)" style="stroke:#000000; stroke-linecap:round; stroke-linejoin:round; stroke-width:4; stroke-opacity:1; fill:none" points="211.702,360.563 230.6,360.563 "/>
<polyline clip-path="url(#clip420)" style="stroke:#000000; stroke-linecap:round; stroke-linejoin:round; stroke-width:4; stroke-opacity:1; fill:none" points="211.702,81.2521 230.6,81.2521 "/>
<path clip-path="url(#clip420)" d="M66.5302 1460.06 Q62.0164 1460.06 59.7305 1464.51 Q57.4736 1468.94 57.4736 1477.85 Q57.4736 1486.73 59.7305 1491.19 Q62.0164 1495.62 66.5302 1495.62 Q71.073 1495.62 73.33 1491.19 Q75.6158 1486.73 75.6158 1477.85 Q75.6158 1468.94 73.33 1464.51 Q71.073 1460.06 66.5302 1460.06 M66.5302 1455.43 Q73.7929 1455.43 77.6124 1461.18 Q81.4607 1466.91 81.4607 1477.85 Q81.4607 1488.76 77.6124 1494.52 Q73.7929 1500.25 66.5302 1500.25 Q59.2675 1500.25 55.4192 1494.52 Q51.5998 1488.76 51.5998 1477.85 Q51.5998 1466.91 55.4192 1461.18 Q59.2675 1455.43 66.5302 1455.43 Z" fill="#000000" fill-rule="nonzero" fill-opacity="1" /><path clip-path="url(#clip420)" d="M91.7326 1492.06 L97.8379 1492.06 L97.8379 1499.41 L91.7326 1499.41 L91.7326 1492.06 Z" fill="#000000" fill-rule="nonzero" fill-opacity="1" /><path clip-path="url(#clip420)" d="M123.069 1460.06 Q118.555 1460.06 116.27 1464.51 Q114.013 1468.94 114.013 1477.85 Q114.013 1486.73 116.27 1491.19 Q118.555 1495.62 123.069 1495.62 Q127.612 1495.62 129.869 1491.19 Q132.155 1486.73 132.155 1477.85 Q132.155 1468.94 129.869 1464.51 Q127.612 1460.06 123.069 1460.06 M123.069 1455.43 Q130.332 1455.43 134.151 1461.18 Q138 1466.91 138 1477.85 Q138 1488.76 134.151 1494.52 Q130.332 1500.25 123.069 1500.25 Q115.807 1500.25 111.958 1494.52 Q108.139 1488.76 108.139 1477.85 Q108.139 1466.91 111.958 1461.18 Q115.807 1455.43 123.069 1455.43 Z" fill="#000000" fill-rule="nonzero" fill-opacity="1" /><path clip-path="url(#clip420)" d="M160.772 1460.06 Q156.258 1460.06 153.972 1464.51 Q151.715 1468.94 151.715 1477.85 Q151.715 1486.73 153.972 1491.19 Q156.258 1495.62 160.772 1495.62 Q165.314 1495.62 167.571 1491.19 Q169.857 1486.73 169.857 1477.85 Q169.857 1468.94 167.571 1464.51 Q165.314 1460.06 160.772 1460.06 M160.772 1455.43 Q168.034 1455.43 171.854 1461.18 Q175.702 1466.91 175.702 1477.85 Q175.702 1488.76 171.854 1494.52 Q168.034 1500.25 160.772 1500.25 Q153.509 1500.25 149.661 1494.52 Q145.841 1488.76 145.841 1477.85 Q145.841 1466.91 149.661 1461.18 Q153.509 1455.43 160.772 1455.43 Z" fill="#000000" fill-rule="nonzero" fill-opacity="1" /><path clip-path="url(#clip420)" d="M68.0638 1180.75 Q63.5499 1180.75 61.2641 1185.2 Q59.0071 1189.63 59.0071 1198.54 Q59.0071 1207.42 61.2641 1211.88 Q63.5499 1216.31 68.0638 1216.31 Q72.6066 1216.31 74.8635 1211.88 Q77.1494 1207.42 77.1494 1198.54 Q77.1494 1189.63 74.8635 1185.2 Q72.6066 1180.75 68.0638 1180.75 M68.0638 1176.12 Q75.3265 1176.12 79.1459 1181.87 Q82.9943 1187.6 82.9943 1198.54 Q82.9943 1209.45 79.1459 1215.21 Q75.3265 1220.94 68.0638 1220.94 Q60.8011 1220.94 56.9527 1215.21 Q53.1333 1209.45 53.1333 1198.54 Q53.1333 1187.6 56.9527 1181.87 Q60.8011 1176.12 68.0638 1176.12 Z" fill="#000000" fill-rule="nonzero" fill-opacity="1" /><path clip-path="url(#clip420)" d="M93.2662 1212.75 L99.3715 1212.75 L99.3715 1220.1 L93.2662 1220.1 L93.2662 1212.75 Z" fill="#000000" fill-rule="nonzero" fill-opacity="1" /><path clip-path="url(#clip420)" d="M124.603 1180.75 Q120.089 1180.75 117.803 1185.2 Q115.546 1189.63 115.546 1198.54 Q115.546 1207.42 117.803 1211.88 Q120.089 1216.31 124.603 1216.31 Q129.146 1216.31 131.403 1211.88 Q133.688 1207.42 133.688 1198.54 Q133.688 1189.63 131.403 1185.2 Q129.146 1180.75 124.603 1180.75 M124.603 1176.12 Q131.866 1176.12 135.685 1181.87 Q139.533 1187.6 139.533 1198.54 Q139.533 1209.45 135.685 1215.21 Q131.866 1220.94 124.603 1220.94 Q117.34 1220.94 113.492 1215.21 Q109.672 1209.45 109.672 1198.54 Q109.672 1187.6 113.492 1181.87 Q117.34 1176.12 124.603 1176.12 Z" fill="#000000" fill-rule="nonzero" fill-opacity="1" /><path clip-path="url(#clip420)" d="M150.818 1215.18 L160.367 1215.18 L160.367 1182.22 L149.979 1184.3 L149.979 1178.98 L160.309 1176.9 L166.154 1176.9 L166.154 1215.18 L175.702 1215.18 L175.702 1220.1 L150.818 1220.1 L150.818 1215.18 Z" fill="#000000" fill-rule="nonzero" fill-opacity="1" /><path clip-path="url(#clip420)" d="M68.5268 901.434 Q64.0129 901.434 61.727 905.89 Q59.4701 910.317 59.4701 919.229 Q59.4701 928.112 61.727 932.568 Q64.0129 936.995 68.5268 936.995 Q73.0696 936.995 75.3265 932.568 Q77.6124 928.112 77.6124 919.229 Q77.6124 910.317 75.3265 905.89 Q73.0696 901.434 68.5268 901.434 M68.5268 896.804 Q75.7894 896.804 79.6089 902.562 Q83.4572 908.292 83.4572 919.229 Q83.4572 930.137 79.6089 935.896 Q75.7894 941.625 68.5268 941.625 Q61.2641 941.625 57.4157 935.896 Q53.5963 930.137 53.5963 919.229 Q53.5963 908.292 57.4157 902.562 Q61.2641 896.804 68.5268 896.804 Z" fill="#000000" fill-rule="nonzero" fill-opacity="1" /><path clip-path="url(#clip420)" d="M93.7292 933.436 L99.8345 933.436 L99.8345 940.786 L93.7292 940.786 L93.7292 933.436 Z" fill="#000000" fill-rule="nonzero" fill-opacity="1" /><path clip-path="url(#clip420)" d="M125.066 901.434 Q120.552 901.434 118.266 905.89 Q116.009 910.317 116.009 919.229 Q116.009 928.112 118.266 932.568 Q120.552 936.995 125.066 936.995 Q129.609 936.995 131.866 932.568 Q134.151 928.112 134.151 919.229 Q134.151 910.317 131.866 905.89 Q129.609 901.434 125.066 901.434 M125.066 896.804 Q132.328 896.804 136.148 902.562 Q139.996 908.292 139.996 919.229 Q139.996 930.137 136.148 935.896 Q132.328 941.625 125.066 941.625 Q117.803 941.625 113.955 935.896 Q110.135 930.137 110.135 919.229 Q110.135 908.292 113.955 902.562 Q117.803 896.804 125.066 896.804 Z" fill="#000000" fill-rule="nonzero" fill-opacity="1" /><path clip-path="url(#clip420)" d="M155.303 935.867 L175.702 935.867 L175.702 940.786 L148.272 940.786 L148.272 935.867 Q151.599 932.423 157.328 926.636 Q163.086 920.82 164.562 919.142 Q167.369 915.988 168.468 913.818 Q169.597 911.619 169.597 909.507 Q169.597 906.064 167.166 903.893 Q164.765 901.723 160.887 901.723 Q158.139 901.723 155.071 902.678 Q152.033 903.633 148.561 905.572 L148.561 899.669 Q152.091 898.251 155.158 897.528 Q158.225 896.804 160.772 896.804 Q167.485 896.804 171.478 900.161 Q175.471 903.517 175.471 909.131 Q175.471 911.793 174.458 914.194 Q173.474 916.567 170.841 919.808 Q170.118 920.647 166.24 924.669 Q162.363 928.662 155.303 935.867 Z" fill="#000000" fill-rule="nonzero" fill-opacity="1" /><path clip-path="url(#clip420)" d="M67.3404 622.123 Q62.8266 622.123 60.5407 626.579 Q58.2838 631.006 58.2838 639.918 Q58.2838 648.801 60.5407 653.257 Q62.8266 657.684 67.3404 657.684 Q71.8832 657.684 74.1402 653.257 Q76.426 648.801 76.426 639.918 Q76.426 631.006 74.1402 626.579 Q71.8832 622.123 67.3404 622.123 M67.3404 617.493 Q74.6031 617.493 78.4225 623.251 Q82.2709 628.98 82.2709 639.918 Q82.2709 650.826 78.4225 656.584 Q74.6031 662.314 67.3404 662.314 Q60.0777 662.314 56.2294 656.584 Q52.4099 650.826 52.4099 639.918 Q52.4099 628.98 56.2294 623.251 Q60.0777 617.493 67.3404 617.493 Z" fill="#000000" fill-rule="nonzero" fill-opacity="1" /><path clip-path="url(#clip420)" d="M92.5428 654.125 L98.6481 654.125 L98.6481 661.474 L92.5428 661.474 L92.5428 654.125 Z" fill="#000000" fill-rule="nonzero" fill-opacity="1" /><path clip-path="url(#clip420)" d="M123.879 622.123 Q119.366 622.123 117.08 626.579 Q114.823 631.006 114.823 639.918 Q114.823 648.801 117.08 653.257 Q119.366 657.684 123.879 657.684 Q128.422 657.684 130.679 653.257 Q132.965 648.801 132.965 639.918 Q132.965 631.006 130.679 626.579 Q128.422 622.123 123.879 622.123 M123.879 617.493 Q131.142 617.493 134.962 623.251 Q138.81 628.98 138.81 639.918 Q138.81 650.826 134.962 656.584 Q131.142 662.314 123.879 662.314 Q116.617 662.314 112.768 656.584 Q108.949 650.826 108.949 639.918 Q108.949 628.98 112.768 623.251 Q116.617 617.493 123.879 617.493 Z" fill="#000000" fill-rule="nonzero" fill-opacity="1" /><path clip-path="url(#clip420)" d="M166.79 638.182 Q170.986 639.079 173.329 641.914 Q175.702 644.75 175.702 648.917 Q175.702 655.311 171.304 658.812 Q166.906 662.314 158.804 662.314 Q156.084 662.314 153.191 661.764 Q150.326 661.243 147.259 660.172 L147.259 654.53 Q149.69 655.948 152.583 656.671 Q155.477 657.395 158.63 657.395 Q164.128 657.395 166.993 655.224 Q169.886 653.054 169.886 648.917 Q169.886 645.097 167.195 642.956 Q164.533 640.786 159.759 640.786 L154.724 640.786 L154.724 635.983 L159.99 635.983 Q164.302 635.983 166.588 634.275 Q168.873 632.539 168.873 629.299 Q168.873 625.971 166.501 624.206 Q164.157 622.412 159.759 622.412 Q157.357 622.412 154.608 622.933 Q151.86 623.454 148.561 624.553 L148.561 619.345 Q151.889 618.419 154.782 617.956 Q157.705 617.493 160.28 617.493 Q166.935 617.493 170.812 620.531 Q174.689 623.541 174.689 628.691 Q174.689 632.279 172.635 634.767 Q170.581 637.227 166.79 638.182 Z" fill="#000000" fill-rule="nonzero" fill-opacity="1" /><path clip-path="url(#clip420)" d="M65.9226 342.812 Q61.4087 342.812 59.1229 347.268 Q56.8659 351.695 56.8659 360.607 Q56.8659 369.49 59.1229 373.946 Q61.4087 378.373 65.9226 378.373 Q70.4654 378.373 72.7223 373.946 Q75.0082 369.49 75.0082 360.607 Q75.0082 351.695 72.7223 347.268 Q70.4654 342.812 65.9226 342.812 M65.9226 338.182 Q73.1853 338.182 77.0047 343.94 Q80.8531 349.669 80.8531 360.607 Q80.8531 371.515 77.0047 377.273 Q73.1853 383.002 65.9226 383.002 Q58.6599 383.002 54.8115 377.273 Q50.9921 371.515 50.9921 360.607 Q50.9921 349.669 54.8115 343.94 Q58.6599 338.182 65.9226 338.182 Z" fill="#000000" fill-rule="nonzero" fill-opacity="1" /><path clip-path="url(#clip420)" d="M91.125 374.814 L97.2303 374.814 L97.2303 382.163 L91.125 382.163 L91.125 374.814 Z" fill="#000000" fill-rule="nonzero" fill-opacity="1" /><path clip-path="url(#clip420)" d="M122.462 342.812 Q117.948 342.812 115.662 347.268 Q113.405 351.695 113.405 360.607 Q113.405 369.49 115.662 373.946 Q117.948 378.373 122.462 378.373 Q127.004 378.373 129.261 373.946 Q131.547 369.49 131.547 360.607 Q131.547 351.695 129.261 347.268 Q127.004 342.812 122.462 342.812 M122.462 338.182 Q129.724 338.182 133.544 343.94 Q137.392 349.669 137.392 360.607 Q137.392 371.515 133.544 377.273 Q129.724 383.002 122.462 383.002 Q115.199 383.002 111.351 377.273 Q107.531 371.515 107.531 360.607 Q107.531 349.669 111.351 343.94 Q115.199 338.182 122.462 338.182 Z" fill="#000000" fill-rule="nonzero" fill-opacity="1" /><path clip-path="url(#clip420)" d="M163.723 344.056 L148.966 367.117 L163.723 367.117 L163.723 344.056 M162.189 338.963 L169.539 338.963 L169.539 367.117 L175.702 367.117 L175.702 371.978 L169.539 371.978 L169.539 382.163 L163.723 382.163 L163.723 371.978 L144.221 371.978 L144.221 366.336 L162.189 338.963 Z" fill="#000000" fill-rule="nonzero" fill-opacity="1" /><path clip-path="url(#clip420)" d="M67.7744 63.5005 Q63.2606 63.5005 60.9747 67.9565 Q58.7178 72.3835 58.7178 81.2955 Q58.7178 90.1786 60.9747 94.6346 Q63.2606 99.0616 67.7744 99.0616 Q72.3172 99.0616 74.5742 94.6346 Q76.86 90.1786 76.86 81.2955 Q76.86 72.3835 74.5742 67.9565 Q72.3172 63.5005 67.7744 63.5005 M67.7744 58.8709 Q75.0371 58.8709 78.8566 64.6289 Q82.7049 70.3581 82.7049 81.2955 Q82.7049 92.204 78.8566 97.9621 Q75.0371 103.691 67.7744 103.691 Q60.5118 103.691 56.6634 97.9621 Q52.844 92.204 52.844 81.2955 Q52.844 70.3581 56.6634 64.6289 Q60.5118 58.8709 67.7744 58.8709 Z" fill="#000000" fill-rule="nonzero" fill-opacity="1" /><path clip-path="url(#clip420)" d="M92.9769 95.5026 L99.0821 95.5026 L99.0821 102.852 L92.9769 102.852 L92.9769 95.5026 Z" fill="#000000" fill-rule="nonzero" fill-opacity="1" /><path clip-path="url(#clip420)" d="M124.313 63.5005 Q119.8 63.5005 117.514 67.9565 Q115.257 72.3835 115.257 81.2955 Q115.257 90.1786 117.514 94.6346 Q119.8 99.0616 124.313 99.0616 Q128.856 99.0616 131.113 94.6346 Q133.399 90.1786 133.399 81.2955 Q133.399 72.3835 131.113 67.9565 Q128.856 63.5005 124.313 63.5005 M124.313 58.8709 Q131.576 58.8709 135.396 64.6289 Q139.244 70.3581 139.244 81.2955 Q139.244 92.204 135.396 97.9621 Q131.576 103.691 124.313 103.691 Q117.051 103.691 113.202 97.9621 Q109.383 92.204 109.383 81.2955 Q109.383 70.3581 113.202 64.6289 Q117.051 58.8709 124.313 58.8709 Z" fill="#000000" fill-rule="nonzero" fill-opacity="1" /><path clip-path="url(#clip420)" d="M149.574 59.6521 L172.519 59.6521 L172.519 64.5711 L154.927 64.5711 L154.927 75.1613 Q156.2 74.7273 157.473 74.5247 Q158.746 74.2932 160.019 74.2932 Q167.253 74.2932 171.478 78.2573 Q175.702 82.2214 175.702 88.9922 Q175.702 95.9656 171.362 99.8429 Q167.022 103.691 159.122 103.691 Q156.402 103.691 153.567 103.228 Q150.76 102.765 147.751 101.839 L147.751 95.9656 Q150.355 97.3834 153.133 98.0778 Q155.911 98.7723 159.007 98.7723 Q164.012 98.7723 166.935 96.1392 Q169.857 93.5061 169.857 88.9922 Q169.857 84.4784 166.935 81.8453 Q164.012 79.2122 159.007 79.2122 Q156.663 79.2122 154.319 79.733 Q152.004 80.2538 149.574 81.3534 L149.574 59.6521 Z" fill="#000000" fill-rule="nonzero" fill-opacity="1" /><path clip-path="url(#clip422)" d="M244.641 712.842 L244.641 1477.81 L277.581 1477.81 L277.581 712.842 L244.641 712.842 L244.641 712.842  Z" fill="#0000ff" fill-rule="evenodd" fill-opacity="0.5"/>
<polyline clip-path="url(#clip422)" style="stroke:#000000; stroke-linecap:round; stroke-linejoin:round; stroke-width:4; stroke-opacity:0.5; fill:none" points="244.641,712.842 244.641,1477.81 277.581,1477.81 277.581,712.842 244.641,712.842 "/>
<path clip-path="url(#clip422)" d="M277.581 47.2441 L277.581 1477.81 L310.52 1477.81 L310.52 47.2441 L277.581 47.2441 L277.581 47.2441  Z" fill="#0000ff" fill-rule="evenodd" fill-opacity="0.5"/>
<polyline clip-path="url(#clip422)" style="stroke:#000000; stroke-linecap:round; stroke-linejoin:round; stroke-width:4; stroke-opacity:0.5; fill:none" points="277.581,47.2441 277.581,1477.81 310.52,1477.81 310.52,47.2441 277.581,47.2441 "/>
<path clip-path="url(#clip422)" d="M310.52 194.584 L310.52 1477.81 L343.459 1477.81 L343.459 194.584 L310.52 194.584 L310.52 194.584  Z" fill="#0000ff" fill-rule="evenodd" fill-opacity="0.5"/>
<polyline clip-path="url(#clip422)" style="stroke:#000000; stroke-linecap:round; stroke-linejoin:round; stroke-width:4; stroke-opacity:0.5; fill:none" points="310.52,194.584 310.52,1477.81 343.459,1477.81 343.459,194.584 310.52,194.584 "/>
<path clip-path="url(#clip422)" d="M343.459 294.809 L343.459 1477.81 L376.399 1477.81 L376.399 294.809 L343.459 294.809 L343.459 294.809  Z" fill="#0000ff" fill-rule="evenodd" fill-opacity="0.5"/>
<polyline clip-path="url(#clip422)" style="stroke:#000000; stroke-linecap:round; stroke-linejoin:round; stroke-width:4; stroke-opacity:0.5; fill:none" points="343.459,294.809 343.459,1477.81 376.399,1477.81 376.399,294.809 343.459,294.809 "/>
<path clip-path="url(#clip422)" d="M376.399 520.101 L376.399 1477.81 L409.338 1477.81 L409.338 520.101 L376.399 520.101 L376.399 520.101  Z" fill="#0000ff" fill-rule="evenodd" fill-opacity="0.5"/>
<polyline clip-path="url(#clip422)" style="stroke:#000000; stroke-linecap:round; stroke-linejoin:round; stroke-width:4; stroke-opacity:0.5; fill:none" points="376.399,520.101 376.399,1477.81 409.338,1477.81 409.338,520.101 376.399,520.101 "/>
<path clip-path="url(#clip422)" d="M409.338 732.544 L409.338 1477.81 L442.277 1477.81 L442.277 732.544 L409.338 732.544 L409.338 732.544  Z" fill="#0000ff" fill-rule="evenodd" fill-opacity="0.5"/>
<polyline clip-path="url(#clip422)" style="stroke:#000000; stroke-linecap:round; stroke-linejoin:round; stroke-width:4; stroke-opacity:0.5; fill:none" points="409.338,732.544 409.338,1477.81 442.277,1477.81 442.277,732.544 409.338,732.544 "/>
<path clip-path="url(#clip422)" d="M442.277 818.207 L442.277 1477.81 L475.216 1477.81 L475.216 818.207 L442.277 818.207 L442.277 818.207  Z" fill="#0000ff" fill-rule="evenodd" fill-opacity="0.5"/>
<polyline clip-path="url(#clip422)" style="stroke:#000000; stroke-linecap:round; stroke-linejoin:round; stroke-width:4; stroke-opacity:0.5; fill:none" points="442.277,818.207 442.277,1477.81 475.216,1477.81 475.216,818.207 442.277,818.207 "/>
<path clip-path="url(#clip422)" d="M475.216 919.288 L475.216 1477.81 L508.156 1477.81 L508.156 919.288 L475.216 919.288 L475.216 919.288  Z" fill="#0000ff" fill-rule="evenodd" fill-opacity="0.5"/>
<polyline clip-path="url(#clip422)" style="stroke:#000000; stroke-linecap:round; stroke-linejoin:round; stroke-width:4; stroke-opacity:0.5; fill:none" points="475.216,919.288 475.216,1477.81 508.156,1477.81 508.156,919.288 475.216,919.288 "/>
<path clip-path="url(#clip422)" d="M508.156 856.755 L508.156 1477.81 L541.095 1477.81 L541.095 856.755 L508.156 856.755 L508.156 856.755  Z" fill="#0000ff" fill-rule="evenodd" fill-opacity="0.5"/>
<polyline clip-path="url(#clip422)" style="stroke:#000000; stroke-linecap:round; stroke-linejoin:round; stroke-width:4; stroke-opacity:0.5; fill:none" points="508.156,856.755 508.156,1477.81 541.095,1477.81 541.095,856.755 508.156,856.755 "/>
<path clip-path="url(#clip422)" d="M541.095 1059.77 L541.095 1477.81 L574.034 1477.81 L574.034 1059.77 L541.095 1059.77 L541.095 1059.77  Z" fill="#0000ff" fill-rule="evenodd" fill-opacity="0.5"/>
<polyline clip-path="url(#clip422)" style="stroke:#000000; stroke-linecap:round; stroke-linejoin:round; stroke-width:4; stroke-opacity:0.5; fill:none" points="541.095,1059.77 541.095,1477.81 574.034,1477.81 574.034,1059.77 541.095,1059.77 "/>
<path clip-path="url(#clip422)" d="M574.034 1205.4 L574.034 1477.81 L606.974 1477.81 L606.974 1205.4 L574.034 1205.4 L574.034 1205.4  Z" fill="#0000ff" fill-rule="evenodd" fill-opacity="0.5"/>
<polyline clip-path="url(#clip422)" style="stroke:#000000; stroke-linecap:round; stroke-linejoin:round; stroke-width:4; stroke-opacity:0.5; fill:none" points="574.034,1205.4 574.034,1477.81 606.974,1477.81 606.974,1205.4 574.034,1205.4 "/>
<path clip-path="url(#clip422)" d="M606.974 1197.69 L606.974 1477.81 L639.913 1477.81 L639.913 1197.69 L606.974 1197.69 L606.974 1197.69  Z" fill="#0000ff" fill-rule="evenodd" fill-opacity="0.5"/>
<polyline clip-path="url(#clip422)" style="stroke:#000000; stroke-linecap:round; stroke-linejoin:round; stroke-width:4; stroke-opacity:0.5; fill:none" points="606.974,1197.69 606.974,1477.81 639.913,1477.81 639.913,1197.69 606.974,1197.69 "/>
<path clip-path="url(#clip422)" d="M639.913 1191.7 L639.913 1477.81 L672.852 1477.81 L672.852 1191.7 L639.913 1191.7 L639.913 1191.7  Z" fill="#0000ff" fill-rule="evenodd" fill-opacity="0.5"/>
<polyline clip-path="url(#clip422)" style="stroke:#000000; stroke-linecap:round; stroke-linejoin:round; stroke-width:4; stroke-opacity:0.5; fill:none" points="639.913,1191.7 639.913,1477.81 672.852,1477.81 672.852,1191.7 639.913,1191.7 "/>
<path clip-path="url(#clip422)" d="M672.852 1223.39 L672.852 1477.81 L705.791 1477.81 L705.791 1223.39 L672.852 1223.39 L672.852 1223.39  Z" fill="#0000ff" fill-rule="evenodd" fill-opacity="0.5"/>
<polyline clip-path="url(#clip422)" style="stroke:#000000; stroke-linecap:round; stroke-linejoin:round; stroke-width:4; stroke-opacity:0.5; fill:none" points="672.852,1223.39 672.852,1477.81 705.791,1477.81 705.791,1223.39 672.852,1223.39 "/>
<path clip-path="url(#clip422)" d="M705.791 1171.14 L705.791 1477.81 L738.731 1477.81 L738.731 1171.14 L705.791 1171.14 L705.791 1171.14  Z" fill="#0000ff" fill-rule="evenodd" fill-opacity="0.5"/>
<polyline clip-path="url(#clip422)" style="stroke:#000000; stroke-linecap:round; stroke-linejoin:round; stroke-width:4; stroke-opacity:0.5; fill:none" points="705.791,1171.14 705.791,1477.81 738.731,1477.81 738.731,1171.14 705.791,1171.14 "/>
<path clip-path="url(#clip422)" d="M738.731 1167.71 L738.731 1477.81 L771.67 1477.81 L771.67 1167.71 L738.731 1167.71 L738.731 1167.71  Z" fill="#0000ff" fill-rule="evenodd" fill-opacity="0.5"/>
<polyline clip-path="url(#clip422)" style="stroke:#000000; stroke-linecap:round; stroke-linejoin:round; stroke-width:4; stroke-opacity:0.5; fill:none" points="738.731,1167.71 738.731,1477.81 771.67,1477.81 771.67,1167.71 738.731,1167.71 "/>
<path clip-path="url(#clip422)" d="M771.67 1166 L771.67 1477.81 L804.609 1477.81 L804.609 1166 L771.67 1166 L771.67 1166  Z" fill="#0000ff" fill-rule="evenodd" fill-opacity="0.5"/>
<polyline clip-path="url(#clip422)" style="stroke:#000000; stroke-linecap:round; stroke-linejoin:round; stroke-width:4; stroke-opacity:0.5; fill:none" points="771.67,1166 771.67,1477.81 804.609,1477.81 804.609,1166 771.67,1166 "/>
<path clip-path="url(#clip422)" d="M804.609 1263.65 L804.609 1477.81 L837.549 1477.81 L837.549 1263.65 L804.609 1263.65 L804.609 1263.65  Z" fill="#0000ff" fill-rule="evenodd" fill-opacity="0.5"/>
<polyline clip-path="url(#clip422)" style="stroke:#000000; stroke-linecap:round; stroke-linejoin:round; stroke-width:4; stroke-opacity:0.5; fill:none" points="804.609,1263.65 804.609,1477.81 837.549,1477.81 837.549,1263.65 804.609,1263.65 "/>
<path clip-path="url(#clip422)" d="M837.549 1284.21 L837.549 1477.81 L870.488 1477.81 L870.488 1284.21 L837.549 1284.21 L837.549 1284.21  Z" fill="#0000ff" fill-rule="evenodd" fill-opacity="0.5"/>
<polyline clip-path="url(#clip422)" style="stroke:#000000; stroke-linecap:round; stroke-linejoin:round; stroke-width:4; stroke-opacity:0.5; fill:none" points="837.549,1284.21 837.549,1477.81 870.488,1477.81 870.488,1284.21 837.549,1284.21 "/>
<path clip-path="url(#clip422)" d="M870.488 1311.62 L870.488 1477.81 L903.427 1477.81 L903.427 1311.62 L870.488 1311.62 L870.488 1311.62  Z" fill="#0000ff" fill-rule="evenodd" fill-opacity="0.5"/>
<polyline clip-path="url(#clip422)" style="stroke:#000000; stroke-linecap:round; stroke-linejoin:round; stroke-width:4; stroke-opacity:0.5; fill:none" points="870.488,1311.62 870.488,1477.81 903.427,1477.81 903.427,1311.62 870.488,1311.62 "/>
<path clip-path="url(#clip422)" d="M903.427 1313.34 L903.427 1477.81 L936.366 1477.81 L936.366 1313.34 L903.427 1313.34 L903.427 1313.34  Z" fill="#0000ff" fill-rule="evenodd" fill-opacity="0.5"/>
<polyline clip-path="url(#clip422)" style="stroke:#000000; stroke-linecap:round; stroke-linejoin:round; stroke-width:4; stroke-opacity:0.5; fill:none" points="903.427,1313.34 903.427,1477.81 936.366,1477.81 936.366,1313.34 903.427,1313.34 "/>
<path clip-path="url(#clip422)" d="M936.366 1303.06 L936.366 1477.81 L969.306 1477.81 L969.306 1303.06 L936.366 1303.06 L936.366 1303.06  Z" fill="#0000ff" fill-rule="evenodd" fill-opacity="0.5"/>
<polyline clip-path="url(#clip422)" style="stroke:#000000; stroke-linecap:round; stroke-linejoin:round; stroke-width:4; stroke-opacity:0.5; fill:none" points="936.366,1303.06 936.366,1477.81 969.306,1477.81 969.306,1303.06 936.366,1303.06 "/>
<path clip-path="url(#clip422)" d="M969.306 1286.78 L969.306 1477.81 L1002.25 1477.81 L1002.25 1286.78 L969.306 1286.78 L969.306 1286.78  Z" fill="#0000ff" fill-rule="evenodd" fill-opacity="0.5"/>
<polyline clip-path="url(#clip422)" style="stroke:#000000; stroke-linecap:round; stroke-linejoin:round; stroke-width:4; stroke-opacity:0.5; fill:none" points="969.306,1286.78 969.306,1477.81 1002.25,1477.81 1002.25,1286.78 969.306,1286.78 "/>
<path clip-path="url(#clip422)" d="M1002.25 1317.62 L1002.25 1477.81 L1035.18 1477.81 L1035.18 1317.62 L1002.25 1317.62 L1002.25 1317.62  Z" fill="#0000ff" fill-rule="evenodd" fill-opacity="0.5"/>
<polyline clip-path="url(#clip422)" style="stroke:#000000; stroke-linecap:round; stroke-linejoin:round; stroke-width:4; stroke-opacity:0.5; fill:none" points="1002.25,1317.62 1002.25,1477.81 1035.18,1477.81 1035.18,1317.62 1002.25,1317.62 "/>
<path clip-path="url(#clip422)" d="M1035.18 1278.21 L1035.18 1477.81 L1068.12 1477.81 L1068.12 1278.21 L1035.18 1278.21 L1035.18 1278.21  Z" fill="#0000ff" fill-rule="evenodd" fill-opacity="0.5"/>
<polyline clip-path="url(#clip422)" style="stroke:#000000; stroke-linecap:round; stroke-linejoin:round; stroke-width:4; stroke-opacity:0.5; fill:none" points="1035.18,1278.21 1035.18,1477.81 1068.12,1477.81 1068.12,1278.21 1035.18,1278.21 "/>
<path clip-path="url(#clip422)" d="M1068.12 1317.62 L1068.12 1477.81 L1101.06 1477.81 L1101.06 1317.62 L1068.12 1317.62 L1068.12 1317.62  Z" fill="#0000ff" fill-rule="evenodd" fill-opacity="0.5"/>
<polyline clip-path="url(#clip422)" style="stroke:#000000; stroke-linecap:round; stroke-linejoin:round; stroke-width:4; stroke-opacity:0.5; fill:none" points="1068.12,1317.62 1068.12,1477.81 1101.06,1477.81 1101.06,1317.62 1068.12,1317.62 "/>
<path clip-path="url(#clip422)" d="M1101.06 1337.32 L1101.06 1477.81 L1134 1477.81 L1134 1337.32 L1101.06 1337.32 L1101.06 1337.32  Z" fill="#0000ff" fill-rule="evenodd" fill-opacity="0.5"/>
<polyline clip-path="url(#clip422)" style="stroke:#000000; stroke-linecap:round; stroke-linejoin:round; stroke-width:4; stroke-opacity:0.5; fill:none" points="1101.06,1337.32 1101.06,1477.81 1134,1477.81 1134,1337.32 1101.06,1337.32 "/>
<path clip-path="url(#clip422)" d="M1134 1341.6 L1134 1477.81 L1166.94 1477.81 L1166.94 1341.6 L1134 1341.6 L1134 1341.6  Z" fill="#0000ff" fill-rule="evenodd" fill-opacity="0.5"/>
<polyline clip-path="url(#clip422)" style="stroke:#000000; stroke-linecap:round; stroke-linejoin:round; stroke-width:4; stroke-opacity:0.5; fill:none" points="1134,1341.6 1134,1477.81 1166.94,1477.81 1166.94,1341.6 1134,1341.6 "/>
<path clip-path="url(#clip422)" d="M1166.94 1375.01 L1166.94 1477.81 L1199.88 1477.81 L1199.88 1375.01 L1166.94 1375.01 L1166.94 1375.01  Z" fill="#0000ff" fill-rule="evenodd" fill-opacity="0.5"/>
<polyline clip-path="url(#clip422)" style="stroke:#000000; stroke-linecap:round; stroke-linejoin:round; stroke-width:4; stroke-opacity:0.5; fill:none" points="1166.94,1375.01 1166.94,1477.81 1199.88,1477.81 1199.88,1375.01 1166.94,1375.01 "/>
<path clip-path="url(#clip422)" d="M1199.88 1363.02 L1199.88 1477.81 L1232.82 1477.81 L1232.82 1363.02 L1199.88 1363.02 L1199.88 1363.02  Z" fill="#0000ff" fill-rule="evenodd" fill-opacity="0.5"/>
<polyline clip-path="url(#clip422)" style="stroke:#000000; stroke-linecap:round; stroke-linejoin:round; stroke-width:4; stroke-opacity:0.5; fill:none" points="1199.88,1363.02 1199.88,1477.81 1232.82,1477.81 1232.82,1363.02 1199.88,1363.02 "/>
<path clip-path="url(#clip422)" d="M1232.82 1359.59 L1232.82 1477.81 L1265.76 1477.81 L1265.76 1359.59 L1232.82 1359.59 L1232.82 1359.59  Z" fill="#0000ff" fill-rule="evenodd" fill-opacity="0.5"/>
<polyline clip-path="url(#clip422)" style="stroke:#000000; stroke-linecap:round; stroke-linejoin:round; stroke-width:4; stroke-opacity:0.5; fill:none" points="1232.82,1359.59 1232.82,1477.81 1265.76,1477.81 1265.76,1359.59 1232.82,1359.59 "/>
<path clip-path="url(#clip422)" d="M1265.76 1375.87 L1265.76 1477.81 L1298.7 1477.81 L1298.7 1375.87 L1265.76 1375.87 L1265.76 1375.87  Z" fill="#0000ff" fill-rule="evenodd" fill-opacity="0.5"/>
<polyline clip-path="url(#clip422)" style="stroke:#000000; stroke-linecap:round; stroke-linejoin:round; stroke-width:4; stroke-opacity:0.5; fill:none" points="1265.76,1375.87 1265.76,1477.81 1298.7,1477.81 1298.7,1375.87 1265.76,1375.87 "/>
<path clip-path="url(#clip422)" d="M1298.7 1392.15 L1298.7 1477.81 L1331.64 1477.81 L1331.64 1392.15 L1298.7 1392.15 L1298.7 1392.15  Z" fill="#0000ff" fill-rule="evenodd" fill-opacity="0.5"/>
<polyline clip-path="url(#clip422)" style="stroke:#000000; stroke-linecap:round; stroke-linejoin:round; stroke-width:4; stroke-opacity:0.5; fill:none" points="1298.7,1392.15 1298.7,1477.81 1331.64,1477.81 1331.64,1392.15 1298.7,1392.15 "/>
<path clip-path="url(#clip422)" d="M1331.64 1404.14 L1331.64 1477.81 L1364.58 1477.81 L1364.58 1404.14 L1331.64 1404.14 L1331.64 1404.14  Z" fill="#0000ff" fill-rule="evenodd" fill-opacity="0.5"/>
<polyline clip-path="url(#clip422)" style="stroke:#000000; stroke-linecap:round; stroke-linejoin:round; stroke-width:4; stroke-opacity:0.5; fill:none" points="1331.64,1404.14 1331.64,1477.81 1364.58,1477.81 1364.58,1404.14 1331.64,1404.14 "/>
<path clip-path="url(#clip422)" d="M1364.58 1411.85 L1364.58 1477.81 L1397.52 1477.81 L1397.52 1411.85 L1364.58 1411.85 L1364.58 1411.85  Z" fill="#0000ff" fill-rule="evenodd" fill-opacity="0.5"/>
<polyline clip-path="url(#clip422)" style="stroke:#000000; stroke-linecap:round; stroke-linejoin:round; stroke-width:4; stroke-opacity:0.5; fill:none" points="1364.58,1411.85 1364.58,1477.81 1397.52,1477.81 1397.52,1411.85 1364.58,1411.85 "/>
<path clip-path="url(#clip422)" d="M1397.52 1429.84 L1397.52 1477.81 L1430.46 1477.81 L1430.46 1429.84 L1397.52 1429.84 L1397.52 1429.84  Z" fill="#0000ff" fill-rule="evenodd" fill-opacity="0.5"/>
<polyline clip-path="url(#clip422)" style="stroke:#000000; stroke-linecap:round; stroke-linejoin:round; stroke-width:4; stroke-opacity:0.5; fill:none" points="1397.52,1429.84 1397.52,1477.81 1430.46,1477.81 1430.46,1429.84 1397.52,1429.84 "/>
<path clip-path="url(#clip422)" d="M1430.46 1456.39 L1430.46 1477.81 L1463.4 1477.81 L1463.4 1456.39 L1430.46 1456.39 L1430.46 1456.39  Z" fill="#0000ff" fill-rule="evenodd" fill-opacity="0.5"/>
<polyline clip-path="url(#clip422)" style="stroke:#000000; stroke-linecap:round; stroke-linejoin:round; stroke-width:4; stroke-opacity:0.5; fill:none" points="1430.46,1456.39 1430.46,1477.81 1463.4,1477.81 1463.4,1456.39 1430.46,1456.39 "/>
<path clip-path="url(#clip422)" d="M1463.4 1430.69 L1463.4 1477.81 L1496.33 1477.81 L1496.33 1430.69 L1463.4 1430.69 L1463.4 1430.69  Z" fill="#0000ff" fill-rule="evenodd" fill-opacity="0.5"/>
<polyline clip-path="url(#clip422)" style="stroke:#000000; stroke-linecap:round; stroke-linejoin:round; stroke-width:4; stroke-opacity:0.5; fill:none" points="1463.4,1430.69 1463.4,1477.81 1496.33,1477.81 1496.33,1430.69 1463.4,1430.69 "/>
<path clip-path="url(#clip422)" d="M1496.33 1446.11 L1496.33 1477.81 L1529.27 1477.81 L1529.27 1446.11 L1496.33 1446.11 L1496.33 1446.11  Z" fill="#0000ff" fill-rule="evenodd" fill-opacity="0.5"/>
<polyline clip-path="url(#clip422)" style="stroke:#000000; stroke-linecap:round; stroke-linejoin:round; stroke-width:4; stroke-opacity:0.5; fill:none" points="1496.33,1446.11 1496.33,1477.81 1529.27,1477.81 1529.27,1446.11 1496.33,1446.11 "/>
<path clip-path="url(#clip422)" d="M1529.27 1452.11 L1529.27 1477.81 L1562.21 1477.81 L1562.21 1452.11 L1529.27 1452.11 L1529.27 1452.11  Z" fill="#0000ff" fill-rule="evenodd" fill-opacity="0.5"/>
<polyline clip-path="url(#clip422)" style="stroke:#000000; stroke-linecap:round; stroke-linejoin:round; stroke-width:4; stroke-opacity:0.5; fill:none" points="1529.27,1452.11 1529.27,1477.81 1562.21,1477.81 1562.21,1452.11 1529.27,1452.11 "/>
<path clip-path="url(#clip422)" d="M1562.21 1450.4 L1562.21 1477.81 L1595.15 1477.81 L1595.15 1450.4 L1562.21 1450.4 L1562.21 1450.4  Z" fill="#0000ff" fill-rule="evenodd" fill-opacity="0.5"/>
<polyline clip-path="url(#clip422)" style="stroke:#000000; stroke-linecap:round; stroke-linejoin:round; stroke-width:4; stroke-opacity:0.5; fill:none" points="1562.21,1450.4 1562.21,1477.81 1595.15,1477.81 1595.15,1450.4 1562.21,1450.4 "/>
<path clip-path="url(#clip422)" d="M1595.15 1446.97 L1595.15 1477.81 L1628.09 1477.81 L1628.09 1446.97 L1595.15 1446.97 L1595.15 1446.97  Z" fill="#0000ff" fill-rule="evenodd" fill-opacity="0.5"/>
<polyline clip-path="url(#clip422)" style="stroke:#000000; stroke-linecap:round; stroke-linejoin:round; stroke-width:4; stroke-opacity:0.5; fill:none" points="1595.15,1446.97 1595.15,1477.81 1628.09,1477.81 1628.09,1446.97 1595.15,1446.97 "/>
<path clip-path="url(#clip422)" d="M1628.09 1447.83 L1628.09 1477.81 L1661.03 1477.81 L1661.03 1447.83 L1628.09 1447.83 L1628.09 1447.83  Z" fill="#0000ff" fill-rule="evenodd" fill-opacity="0.5"/>
<polyline clip-path="url(#clip422)" style="stroke:#000000; stroke-linecap:round; stroke-linejoin:round; stroke-width:4; stroke-opacity:0.5; fill:none" points="1628.09,1447.83 1628.09,1477.81 1661.03,1477.81 1661.03,1447.83 1628.09,1447.83 "/>
<path clip-path="url(#clip422)" d="M1661.03 1440.12 L1661.03 1477.81 L1693.97 1477.81 L1693.97 1440.12 L1661.03 1440.12 L1661.03 1440.12  Z" fill="#0000ff" fill-rule="evenodd" fill-opacity="0.5"/>
<polyline clip-path="url(#clip422)" style="stroke:#000000; stroke-linecap:round; stroke-linejoin:round; stroke-width:4; stroke-opacity:0.5; fill:none" points="1661.03,1440.12 1661.03,1477.81 1693.97,1477.81 1693.97,1440.12 1661.03,1440.12 "/>
<path clip-path="url(#clip422)" d="M1693.97 1436.69 L1693.97 1477.81 L1726.91 1477.81 L1726.91 1436.69 L1693.97 1436.69 L1693.97 1436.69  Z" fill="#0000ff" fill-rule="evenodd" fill-opacity="0.5"/>
<polyline clip-path="url(#clip422)" style="stroke:#000000; stroke-linecap:round; stroke-linejoin:round; stroke-width:4; stroke-opacity:0.5; fill:none" points="1693.97,1436.69 1693.97,1477.81 1726.91,1477.81 1726.91,1436.69 1693.97,1436.69 "/>
<path clip-path="url(#clip422)" d="M1726.91 1420.41 L1726.91 1477.81 L1759.85 1477.81 L1759.85 1420.41 L1726.91 1420.41 L1726.91 1420.41  Z" fill="#0000ff" fill-rule="evenodd" fill-opacity="0.5"/>
<polyline clip-path="url(#clip422)" style="stroke:#000000; stroke-linecap:round; stroke-linejoin:round; stroke-width:4; stroke-opacity:0.5; fill:none" points="1726.91,1420.41 1726.91,1477.81 1759.85,1477.81 1759.85,1420.41 1726.91,1420.41 "/>
<path clip-path="url(#clip422)" d="M1759.85 1412.7 L1759.85 1477.81 L1792.79 1477.81 L1792.79 1412.7 L1759.85 1412.7 L1759.85 1412.7  Z" fill="#0000ff" fill-rule="evenodd" fill-opacity="0.5"/>
<polyline clip-path="url(#clip422)" style="stroke:#000000; stroke-linecap:round; stroke-linejoin:round; stroke-width:4; stroke-opacity:0.5; fill:none" points="1759.85,1412.7 1759.85,1477.81 1792.79,1477.81 1792.79,1412.7 1759.85,1412.7 "/>
<path clip-path="url(#clip422)" d="M1792.79 1421.27 L1792.79 1477.81 L1825.73 1477.81 L1825.73 1421.27 L1792.79 1421.27 L1792.79 1421.27  Z" fill="#0000ff" fill-rule="evenodd" fill-opacity="0.5"/>
<polyline clip-path="url(#clip422)" style="stroke:#000000; stroke-linecap:round; stroke-linejoin:round; stroke-width:4; stroke-opacity:0.5; fill:none" points="1792.79,1421.27 1792.79,1477.81 1825.73,1477.81 1825.73,1421.27 1792.79,1421.27 "/>
<path clip-path="url(#clip422)" d="M1825.73 1440.97 L1825.73 1477.81 L1858.67 1477.81 L1858.67 1440.97 L1825.73 1440.97 L1825.73 1440.97  Z" fill="#0000ff" fill-rule="evenodd" fill-opacity="0.5"/>
<polyline clip-path="url(#clip422)" style="stroke:#000000; stroke-linecap:round; stroke-linejoin:round; stroke-width:4; stroke-opacity:0.5; fill:none" points="1825.73,1440.97 1825.73,1477.81 1858.67,1477.81 1858.67,1440.97 1825.73,1440.97 "/>
<path clip-path="url(#clip422)" d="M1858.67 1447.83 L1858.67 1477.81 L1891.61 1477.81 L1891.61 1447.83 L1858.67 1447.83 L1858.67 1447.83  Z" fill="#0000ff" fill-rule="evenodd" fill-opacity="0.5"/>
<polyline clip-path="url(#clip422)" style="stroke:#000000; stroke-linecap:round; stroke-linejoin:round; stroke-width:4; stroke-opacity:0.5; fill:none" points="1858.67,1447.83 1858.67,1477.81 1891.61,1477.81 1891.61,1447.83 1858.67,1447.83 "/>
<path clip-path="url(#clip422)" d="M1891.61 1449.54 L1891.61 1477.81 L1924.55 1477.81 L1924.55 1449.54 L1891.61 1449.54 L1891.61 1449.54  Z" fill="#0000ff" fill-rule="evenodd" fill-opacity="0.5"/>
<polyline clip-path="url(#clip422)" style="stroke:#000000; stroke-linecap:round; stroke-linejoin:round; stroke-width:4; stroke-opacity:0.5; fill:none" points="1891.61,1449.54 1891.61,1477.81 1924.55,1477.81 1924.55,1449.54 1891.61,1449.54 "/>
<path clip-path="url(#clip422)" d="M1924.55 1458.96 L1924.55 1477.81 L1957.48 1477.81 L1957.48 1458.96 L1924.55 1458.96 L1924.55 1458.96  Z" fill="#0000ff" fill-rule="evenodd" fill-opacity="0.5"/>
<polyline clip-path="url(#clip422)" style="stroke:#000000; stroke-linecap:round; stroke-linejoin:round; stroke-width:4; stroke-opacity:0.5; fill:none" points="1924.55,1458.96 1924.55,1477.81 1957.48,1477.81 1957.48,1458.96 1924.55,1458.96 "/>
<path clip-path="url(#clip422)" d="M1957.48 1448.68 L1957.48 1477.81 L1990.42 1477.81 L1990.42 1448.68 L1957.48 1448.68 L1957.48 1448.68  Z" fill="#0000ff" fill-rule="evenodd" fill-opacity="0.5"/>
<polyline clip-path="url(#clip422)" style="stroke:#000000; stroke-linecap:round; stroke-linejoin:round; stroke-width:4; stroke-opacity:0.5; fill:none" points="1957.48,1448.68 1957.48,1477.81 1990.42,1477.81 1990.42,1448.68 1957.48,1448.68 "/>
<path clip-path="url(#clip422)" d="M1990.42 1452.97 L1990.42 1477.81 L2023.36 1477.81 L2023.36 1452.97 L1990.42 1452.97 L1990.42 1452.97  Z" fill="#0000ff" fill-rule="evenodd" fill-opacity="0.5"/>
<polyline clip-path="url(#clip422)" style="stroke:#000000; stroke-linecap:round; stroke-linejoin:round; stroke-width:4; stroke-opacity:0.5; fill:none" points="1990.42,1452.97 1990.42,1477.81 2023.36,1477.81 2023.36,1452.97 1990.42,1452.97 "/>
<path clip-path="url(#clip422)" d="M2023.36 1458.11 L2023.36 1477.81 L2056.3 1477.81 L2056.3 1458.11 L2023.36 1458.11 L2023.36 1458.11  Z" fill="#0000ff" fill-rule="evenodd" fill-opacity="0.5"/>
<polyline clip-path="url(#clip422)" style="stroke:#000000; stroke-linecap:round; stroke-linejoin:round; stroke-width:4; stroke-opacity:0.5; fill:none" points="2023.36,1458.11 2023.36,1477.81 2056.3,1477.81 2056.3,1458.11 2023.36,1458.11 "/>
<path clip-path="url(#clip422)" d="M2056.3 1458.96 L2056.3 1477.81 L2089.24 1477.81 L2089.24 1458.96 L2056.3 1458.96 L2056.3 1458.96  Z" fill="#0000ff" fill-rule="evenodd" fill-opacity="0.5"/>
<polyline clip-path="url(#clip422)" style="stroke:#000000; stroke-linecap:round; stroke-linejoin:round; stroke-width:4; stroke-opacity:0.5; fill:none" points="2056.3,1458.96 2056.3,1477.81 2089.24,1477.81 2089.24,1458.96 2056.3,1458.96 "/>
<path clip-path="url(#clip422)" d="M2089.24 1465.82 L2089.24 1477.81 L2122.18 1477.81 L2122.18 1465.82 L2089.24 1465.82 L2089.24 1465.82  Z" fill="#0000ff" fill-rule="evenodd" fill-opacity="0.5"/>
<polyline clip-path="url(#clip422)" style="stroke:#000000; stroke-linecap:round; stroke-linejoin:round; stroke-width:4; stroke-opacity:0.5; fill:none" points="2089.24,1465.82 2089.24,1477.81 2122.18,1477.81 2122.18,1465.82 2089.24,1465.82 "/>
<path clip-path="url(#clip422)" d="M2122.18 1470.1 L2122.18 1477.81 L2155.12 1477.81 L2155.12 1470.1 L2122.18 1470.1 L2122.18 1470.1  Z" fill="#0000ff" fill-rule="evenodd" fill-opacity="0.5"/>
<polyline clip-path="url(#clip422)" style="stroke:#000000; stroke-linecap:round; stroke-linejoin:round; stroke-width:4; stroke-opacity:0.5; fill:none" points="2122.18,1470.1 2122.18,1477.81 2155.12,1477.81 2155.12,1470.1 2122.18,1470.1 "/>
<path clip-path="url(#clip422)" d="M2155.12 1472.67 L2155.12 1477.81 L2188.06 1477.81 L2188.06 1472.67 L2155.12 1472.67 L2155.12 1472.67  Z" fill="#0000ff" fill-rule="evenodd" fill-opacity="0.5"/>
<polyline clip-path="url(#clip422)" style="stroke:#000000; stroke-linecap:round; stroke-linejoin:round; stroke-width:4; stroke-opacity:0.5; fill:none" points="2155.12,1472.67 2155.12,1477.81 2188.06,1477.81 2188.06,1472.67 2155.12,1472.67 "/>
<path clip-path="url(#clip422)" d="M2188.06 1471.81 L2188.06 1477.81 L2221 1477.81 L2221 1471.81 L2188.06 1471.81 L2188.06 1471.81  Z" fill="#0000ff" fill-rule="evenodd" fill-opacity="0.5"/>
<polyline clip-path="url(#clip422)" style="stroke:#000000; stroke-linecap:round; stroke-linejoin:round; stroke-width:4; stroke-opacity:0.5; fill:none" points="2188.06,1471.81 2188.06,1477.81 2221,1477.81 2221,1471.81 2188.06,1471.81 "/>
<path clip-path="url(#clip422)" d="M2221 1477.81 L2221 1477.81 L2253.94 1477.81 L2253.94 1477.81 L2221 1477.81 L2221 1477.81  Z" fill="#0000ff" fill-rule="evenodd" fill-opacity="0.5"/>
<polyline clip-path="url(#clip422)" style="stroke:#000000; stroke-linecap:round; stroke-linejoin:round; stroke-width:4; stroke-opacity:0.5; fill:none" points="2221,1477.81 2221,1477.81 2253.94,1477.81 2221,1477.81 "/>
<path clip-path="url(#clip422)" d="M2253.94 1476.95 L2253.94 1477.81 L2286.88 1477.81 L2286.88 1476.95 L2253.94 1476.95 L2253.94 1476.95  Z" fill="#0000ff" fill-rule="evenodd" fill-opacity="0.5"/>
<polyline clip-path="url(#clip422)" style="stroke:#000000; stroke-linecap:round; stroke-linejoin:round; stroke-width:4; stroke-opacity:0.5; fill:none" points="2253.94,1476.95 2253.94,1477.81 2286.88,1477.81 2286.88,1476.95 2253.94,1476.95 "/>
<circle clip-path="url(#clip422)" style="fill:#0000ff; stroke:none; fill-opacity:0" cx="261.111" cy="712.842" r="2"/>
<circle clip-path="url(#clip422)" style="fill:#0000ff; stroke:none; fill-opacity:0" cx="294.05" cy="47.2441" r="2"/>
<circle clip-path="url(#clip422)" style="fill:#0000ff; stroke:none; fill-opacity:0" cx="326.99" cy="194.584" r="2"/>
<circle clip-path="url(#clip422)" style="fill:#0000ff; stroke:none; fill-opacity:0" cx="359.929" cy="294.809" r="2"/>
<circle clip-path="url(#clip422)" style="fill:#0000ff; stroke:none; fill-opacity:0" cx="392.868" cy="520.101" r="2"/>
<circle clip-path="url(#clip422)" style="fill:#0000ff; stroke:none; fill-opacity:0" cx="425.807" cy="732.544" r="2"/>
<circle clip-path="url(#clip422)" style="fill:#0000ff; stroke:none; fill-opacity:0" cx="458.747" cy="818.207" r="2"/>
<circle clip-path="url(#clip422)" style="fill:#0000ff; stroke:none; fill-opacity:0" cx="491.686" cy="919.288" r="2"/>
<circle clip-path="url(#clip422)" style="fill:#0000ff; stroke:none; fill-opacity:0" cx="524.625" cy="856.755" r="2"/>
<circle clip-path="url(#clip422)" style="fill:#0000ff; stroke:none; fill-opacity:0" cx="557.565" cy="1059.77" r="2"/>
<circle clip-path="url(#clip422)" style="fill:#0000ff; stroke:none; fill-opacity:0" cx="590.504" cy="1205.4" r="2"/>
<circle clip-path="url(#clip422)" style="fill:#0000ff; stroke:none; fill-opacity:0" cx="623.443" cy="1197.69" r="2"/>
<circle clip-path="url(#clip422)" style="fill:#0000ff; stroke:none; fill-opacity:0" cx="656.383" cy="1191.7" r="2"/>
<circle clip-path="url(#clip422)" style="fill:#0000ff; stroke:none; fill-opacity:0" cx="689.322" cy="1223.39" r="2"/>
<circle clip-path="url(#clip422)" style="fill:#0000ff; stroke:none; fill-opacity:0" cx="722.261" cy="1171.14" r="2"/>
<circle clip-path="url(#clip422)" style="fill:#0000ff; stroke:none; fill-opacity:0" cx="755.2" cy="1167.71" r="2"/>
<circle clip-path="url(#clip422)" style="fill:#0000ff; stroke:none; fill-opacity:0" cx="788.14" cy="1166" r="2"/>
<circle clip-path="url(#clip422)" style="fill:#0000ff; stroke:none; fill-opacity:0" cx="821.079" cy="1263.65" r="2"/>
<circle clip-path="url(#clip422)" style="fill:#0000ff; stroke:none; fill-opacity:0" cx="854.018" cy="1284.21" r="2"/>
<circle clip-path="url(#clip422)" style="fill:#0000ff; stroke:none; fill-opacity:0" cx="886.958" cy="1311.62" r="2"/>
<circle clip-path="url(#clip422)" style="fill:#0000ff; stroke:none; fill-opacity:0" cx="919.897" cy="1313.34" r="2"/>
<circle clip-path="url(#clip422)" style="fill:#0000ff; stroke:none; fill-opacity:0" cx="952.836" cy="1303.06" r="2"/>
<circle clip-path="url(#clip422)" style="fill:#0000ff; stroke:none; fill-opacity:0" cx="985.775" cy="1286.78" r="2"/>
<circle clip-path="url(#clip422)" style="fill:#0000ff; stroke:none; fill-opacity:0" cx="1018.71" cy="1317.62" r="2"/>
<circle clip-path="url(#clip422)" style="fill:#0000ff; stroke:none; fill-opacity:0" cx="1051.65" cy="1278.21" r="2"/>
<circle clip-path="url(#clip422)" style="fill:#0000ff; stroke:none; fill-opacity:0" cx="1084.59" cy="1317.62" r="2"/>
<circle clip-path="url(#clip422)" style="fill:#0000ff; stroke:none; fill-opacity:0" cx="1117.53" cy="1337.32" r="2"/>
<circle clip-path="url(#clip422)" style="fill:#0000ff; stroke:none; fill-opacity:0" cx="1150.47" cy="1341.6" r="2"/>
<circle clip-path="url(#clip422)" style="fill:#0000ff; stroke:none; fill-opacity:0" cx="1183.41" cy="1375.01" r="2"/>
<circle clip-path="url(#clip422)" style="fill:#0000ff; stroke:none; fill-opacity:0" cx="1216.35" cy="1363.02" r="2"/>
<circle clip-path="url(#clip422)" style="fill:#0000ff; stroke:none; fill-opacity:0" cx="1249.29" cy="1359.59" r="2"/>
<circle clip-path="url(#clip422)" style="fill:#0000ff; stroke:none; fill-opacity:0" cx="1282.23" cy="1375.87" r="2"/>
<circle clip-path="url(#clip422)" style="fill:#0000ff; stroke:none; fill-opacity:0" cx="1315.17" cy="1392.15" r="2"/>
<circle clip-path="url(#clip422)" style="fill:#0000ff; stroke:none; fill-opacity:0" cx="1348.11" cy="1404.14" r="2"/>
<circle clip-path="url(#clip422)" style="fill:#0000ff; stroke:none; fill-opacity:0" cx="1381.05" cy="1411.85" r="2"/>
<circle clip-path="url(#clip422)" style="fill:#0000ff; stroke:none; fill-opacity:0" cx="1413.99" cy="1429.84" r="2"/>
<circle clip-path="url(#clip422)" style="fill:#0000ff; stroke:none; fill-opacity:0" cx="1446.93" cy="1456.39" r="2"/>
<circle clip-path="url(#clip422)" style="fill:#0000ff; stroke:none; fill-opacity:0" cx="1479.86" cy="1430.69" r="2"/>
<circle clip-path="url(#clip422)" style="fill:#0000ff; stroke:none; fill-opacity:0" cx="1512.8" cy="1446.11" r="2"/>
<circle clip-path="url(#clip422)" style="fill:#0000ff; stroke:none; fill-opacity:0" cx="1545.74" cy="1452.11" r="2"/>
<circle clip-path="url(#clip422)" style="fill:#0000ff; stroke:none; fill-opacity:0" cx="1578.68" cy="1450.4" r="2"/>
<circle clip-path="url(#clip422)" style="fill:#0000ff; stroke:none; fill-opacity:0" cx="1611.62" cy="1446.97" r="2"/>
<circle clip-path="url(#clip422)" style="fill:#0000ff; stroke:none; fill-opacity:0" cx="1644.56" cy="1447.83" r="2"/>
<circle clip-path="url(#clip422)" style="fill:#0000ff; stroke:none; fill-opacity:0" cx="1677.5" cy="1440.12" r="2"/>
<circle clip-path="url(#clip422)" style="fill:#0000ff; stroke:none; fill-opacity:0" cx="1710.44" cy="1436.69" r="2"/>
<circle clip-path="url(#clip422)" style="fill:#0000ff; stroke:none; fill-opacity:0" cx="1743.38" cy="1420.41" r="2"/>
<circle clip-path="url(#clip422)" style="fill:#0000ff; stroke:none; fill-opacity:0" cx="1776.32" cy="1412.7" r="2"/>
<circle clip-path="url(#clip422)" style="fill:#0000ff; stroke:none; fill-opacity:0" cx="1809.26" cy="1421.27" r="2"/>
<circle clip-path="url(#clip422)" style="fill:#0000ff; stroke:none; fill-opacity:0" cx="1842.2" cy="1440.97" r="2"/>
<circle clip-path="url(#clip422)" style="fill:#0000ff; stroke:none; fill-opacity:0" cx="1875.14" cy="1447.83" r="2"/>
<circle clip-path="url(#clip422)" style="fill:#0000ff; stroke:none; fill-opacity:0" cx="1908.08" cy="1449.54" r="2"/>
<circle clip-path="url(#clip422)" style="fill:#0000ff; stroke:none; fill-opacity:0" cx="1941.01" cy="1458.96" r="2"/>
<circle clip-path="url(#clip422)" style="fill:#0000ff; stroke:none; fill-opacity:0" cx="1973.95" cy="1448.68" r="2"/>
<circle clip-path="url(#clip422)" style="fill:#0000ff; stroke:none; fill-opacity:0" cx="2006.89" cy="1452.97" r="2"/>
<circle clip-path="url(#clip422)" style="fill:#0000ff; stroke:none; fill-opacity:0" cx="2039.83" cy="1458.11" r="2"/>
<circle clip-path="url(#clip422)" style="fill:#0000ff; stroke:none; fill-opacity:0" cx="2072.77" cy="1458.96" r="2"/>
<circle clip-path="url(#clip422)" style="fill:#0000ff; stroke:none; fill-opacity:0" cx="2105.71" cy="1465.82" r="2"/>
<circle clip-path="url(#clip422)" style="fill:#0000ff; stroke:none; fill-opacity:0" cx="2138.65" cy="1470.1" r="2"/>
<circle clip-path="url(#clip422)" style="fill:#0000ff; stroke:none; fill-opacity:0" cx="2171.59" cy="1472.67" r="2"/>
<circle clip-path="url(#clip422)" style="fill:#0000ff; stroke:none; fill-opacity:0" cx="2204.53" cy="1471.81" r="2"/>
<circle clip-path="url(#clip422)" style="fill:#0000ff; stroke:none; fill-opacity:0" cx="2237.47" cy="1477.81" r="2"/>
<circle clip-path="url(#clip422)" style="fill:#0000ff; stroke:none; fill-opacity:0" cx="2270.41" cy="1476.95" r="2"/>
<polyline clip-path="url(#clip422)" style="stroke:#ff0000; stroke-linecap:round; stroke-linejoin:round; stroke-width:8; stroke-opacity:1; fill:none" points="615.43,2908.37 615.43,-1383.32 "/>
<polyline clip-path="url(#clip422)" style="stroke:#ffa500; stroke-linecap:round; stroke-linejoin:round; stroke-width:8; stroke-opacity:1; fill:none" points="458.747,2908.37 458.747,-1383.32 "/>
<path clip-path="url(#clip420)" d="M1467.14 354.13 L2281.39 354.13 L2281.39 94.9296 L1467.14 94.9296  Z" fill="#ffffff" fill-rule="evenodd" fill-opacity="1"/>
<polyline clip-path="url(#clip420)" style="stroke:#000000; stroke-linecap:round; stroke-linejoin:round; stroke-width:4; stroke-opacity:1; fill:none" points="1467.14,354.13 2281.39,354.13 2281.39,94.9296 1467.14,94.9296 1467.14,354.13 "/>
<path clip-path="url(#clip420)" d="M1490.93 185.65 L1633.67 185.65 L1633.67 133.81 L1490.93 133.81 L1490.93 185.65  Z" fill="#0000ff" fill-rule="evenodd" fill-opacity="0.5"/>
<polyline clip-path="url(#clip420)" style="stroke:#000000; stroke-linecap:round; stroke-linejoin:round; stroke-width:5; stroke-opacity:1; fill:none" points="1490.93,185.65 1633.67,185.65 1633.67,133.81 1490.93,133.81 1490.93,185.65 "/>
<path clip-path="url(#clip420)" d="M1663.3 142.933 L1663.3 159.165 L1670.65 159.165 Q1674.73 159.165 1676.96 157.053 Q1679.19 154.941 1679.19 151.035 Q1679.19 147.157 1676.96 145.045 Q1674.73 142.933 1670.65 142.933 L1663.3 142.933 M1657.46 138.13 L1670.65 138.13 Q1677.91 138.13 1681.62 141.428 Q1685.35 144.698 1685.35 151.035 Q1685.35 157.429 1681.62 160.699 Q1677.91 163.969 1670.65 163.969 L1663.3 163.969 L1663.3 181.33 L1657.46 181.33 L1657.46 138.13 Z" fill="#000000" fill-rule="nonzero" fill-opacity="1" /><path clip-path="url(#clip420)" d="M1692.96 136.307 L1698.28 136.307 L1698.28 181.33 L1692.96 181.33 L1692.96 136.307 Z" fill="#000000" fill-rule="nonzero" fill-opacity="1" /><path clip-path="url(#clip420)" d="M1724.15 165.039 Q1717.7 165.039 1715.21 166.515 Q1712.72 167.991 1712.72 171.55 Q1712.72 174.385 1714.57 176.063 Q1716.46 177.713 1719.67 177.713 Q1724.09 177.713 1726.76 174.588 Q1729.45 171.434 1729.45 166.225 L1729.45 165.039 L1724.15 165.039 M1734.77 162.84 L1734.77 181.33 L1729.45 181.33 L1729.45 176.411 Q1727.62 179.362 1724.9 180.78 Q1722.18 182.169 1718.25 182.169 Q1713.27 182.169 1710.32 179.391 Q1707.4 176.584 1707.4 171.897 Q1707.4 166.428 1711.04 163.65 Q1714.72 160.872 1721.98 160.872 L1729.45 160.872 L1729.45 160.352 Q1729.45 156.677 1727.02 154.68 Q1724.61 152.655 1720.25 152.655 Q1717.47 152.655 1714.83 153.32 Q1712.2 153.986 1709.77 155.317 L1709.77 150.398 Q1712.69 149.27 1715.44 148.72 Q1718.19 148.141 1720.8 148.141 Q1727.83 148.141 1731.3 151.787 Q1734.77 155.433 1734.77 162.84 Z" fill="#000000" fill-rule="nonzero" fill-opacity="1" /><path clip-path="url(#clip420)" d="M1772.68 161.769 L1772.68 181.33 L1767.35 181.33 L1767.35 161.943 Q1767.35 157.342 1765.56 155.057 Q1763.76 152.771 1760.18 152.771 Q1755.86 152.771 1753.38 155.52 Q1750.89 158.268 1750.89 163.014 L1750.89 181.33 L1745.53 181.33 L1745.53 148.922 L1750.89 148.922 L1750.89 153.957 Q1752.8 151.035 1755.37 149.588 Q1757.98 148.141 1761.36 148.141 Q1766.95 148.141 1769.81 151.613 Q1772.68 155.057 1772.68 161.769 Z" fill="#000000" fill-rule="nonzero" fill-opacity="1" /><path clip-path="url(#clip420)" d="M1788.56 139.721 L1788.56 148.922 L1799.53 148.922 L1799.53 153.06 L1788.56 153.06 L1788.56 170.653 Q1788.56 174.617 1789.63 175.745 Q1790.73 176.874 1794.06 176.874 L1799.53 176.874 L1799.53 181.33 L1794.06 181.33 Q1787.9 181.33 1785.55 179.044 Q1783.21 176.729 1783.21 170.653 L1783.21 153.06 L1779.3 153.06 L1779.3 148.922 L1783.21 148.922 L1783.21 139.721 L1788.56 139.721 Z" fill="#000000" fill-rule="nonzero" fill-opacity="1" /><path clip-path="url(#clip420)" d="M1840.04 143.888 L1832.11 165.386 L1847.99 165.386 L1840.04 143.888 M1836.74 138.13 L1843.36 138.13 L1859.83 181.33 L1853.75 181.33 L1849.82 170.247 L1830.34 170.247 L1826.41 181.33 L1820.24 181.33 L1836.74 138.13 Z" fill="#000000" fill-rule="nonzero" fill-opacity="1" /><path clip-path="url(#clip420)" d="M1887.23 164.75 Q1887.23 158.963 1884.83 155.78 Q1882.46 152.597 1878.14 152.597 Q1873.86 152.597 1871.46 155.78 Q1869.09 158.963 1869.09 164.75 Q1869.09 170.508 1871.46 173.691 Q1873.86 176.874 1878.14 176.874 Q1882.46 176.874 1884.83 173.691 Q1887.23 170.508 1887.23 164.75 M1892.55 177.308 Q1892.55 185.583 1888.88 189.605 Q1885.2 193.656 1877.62 193.656 Q1874.82 193.656 1872.33 193.222 Q1869.84 192.817 1867.5 191.949 L1867.5 186.769 Q1869.84 188.042 1872.13 188.65 Q1874.41 189.258 1876.78 189.258 Q1882.02 189.258 1884.63 186.509 Q1887.23 183.789 1887.23 178.262 L1887.23 175.629 Q1885.58 178.494 1883.01 179.912 Q1880.43 181.33 1876.84 181.33 Q1870.88 181.33 1867.24 176.787 Q1863.59 172.244 1863.59 164.75 Q1863.59 157.227 1867.24 152.684 Q1870.88 148.141 1876.84 148.141 Q1880.43 148.141 1883.01 149.559 Q1885.58 150.977 1887.23 153.841 L1887.23 148.922 L1892.55 148.922 L1892.55 177.308 Z" fill="#000000" fill-rule="nonzero" fill-opacity="1" /><path clip-path="url(#clip420)" d="M1931.24 163.795 L1931.24 166.399 L1906.76 166.399 Q1907.11 171.897 1910.06 174.79 Q1913.04 177.655 1918.33 177.655 Q1921.4 177.655 1924.27 176.902 Q1927.16 176.15 1930 174.646 L1930 179.68 Q1927.13 180.896 1924.12 181.532 Q1921.11 182.169 1918.02 182.169 Q1910.26 182.169 1905.72 177.655 Q1901.21 173.141 1901.21 165.444 Q1901.21 157.487 1905.49 152.829 Q1909.8 148.141 1917.09 148.141 Q1923.63 148.141 1927.42 152.366 Q1931.24 156.561 1931.24 163.795 M1925.92 162.232 Q1925.86 157.863 1923.46 155.259 Q1921.08 152.655 1917.15 152.655 Q1912.69 152.655 1910 155.172 Q1907.34 157.69 1906.93 162.261 L1925.92 162.232 Z" fill="#000000" fill-rule="nonzero" fill-opacity="1" /><path clip-path="url(#clip420)" d="M1959.05 138.13 L1983.87 138.13 L1983.87 143.049 L1964.89 143.049 L1964.89 155.78 L1982.02 155.78 L1982.02 160.699 L1964.89 160.699 L1964.89 181.33 L1959.05 181.33 L1959.05 138.13 Z" fill="#000000" fill-rule="nonzero" fill-opacity="1" /><path clip-path="url(#clip420)" d="M2007.37 153.899 Q2006.47 153.378 2005.4 153.147 Q2004.36 152.886 2003.09 152.886 Q1998.57 152.886 1996.14 155.838 Q1993.74 158.76 1993.74 164.258 L1993.74 181.33 L1988.39 181.33 L1988.39 148.922 L1993.74 148.922 L1993.74 153.957 Q1995.42 151.006 1998.11 149.588 Q2000.8 148.141 2004.65 148.141 Q2005.2 148.141 2005.86 148.228 Q2006.53 148.286 2007.34 148.43 L2007.37 153.899 Z" fill="#000000" fill-rule="nonzero" fill-opacity="1" /><path clip-path="url(#clip420)" d="M2039.37 163.795 L2039.37 166.399 L2014.89 166.399 Q2015.24 171.897 2018.19 174.79 Q2021.17 177.655 2026.46 177.655 Q2029.53 177.655 2032.4 176.902 Q2035.29 176.15 2038.13 174.646 L2038.13 179.68 Q2035.26 180.896 2032.25 181.532 Q2029.24 182.169 2026.15 182.169 Q2018.39 182.169 2013.85 177.655 Q2009.34 173.141 2009.34 165.444 Q2009.34 157.487 2013.62 152.829 Q2017.93 148.141 2025.22 148.141 Q2031.76 148.141 2035.55 152.366 Q2039.37 156.561 2039.37 163.795 M2034.05 162.232 Q2033.99 157.863 2031.59 155.259 Q2029.21 152.655 2025.28 152.655 Q2020.82 152.655 2018.13 155.172 Q2015.47 157.69 2015.06 162.261 L2034.05 162.232 Z" fill="#000000" fill-rule="nonzero" fill-opacity="1" /><path clip-path="url(#clip420)" d="M2051.29 165.155 Q2051.29 171.029 2053.69 174.385 Q2056.12 177.713 2060.35 177.713 Q2064.57 177.713 2067 174.385 Q2069.43 171.029 2069.43 165.155 Q2069.43 159.281 2067 155.954 Q2064.57 152.597 2060.35 152.597 Q2056.12 152.597 2053.69 155.954 Q2051.29 159.281 2051.29 165.155 M2069.43 176.468 Q2067.76 179.362 2065.18 180.78 Q2062.63 182.169 2059.05 182.169 Q2053.17 182.169 2049.47 177.481 Q2045.79 172.794 2045.79 165.155 Q2045.79 157.516 2049.47 152.829 Q2053.17 148.141 2059.05 148.141 Q2062.63 148.141 2065.18 149.559 Q2067.76 150.948 2069.43 153.841 L2069.43 148.922 L2074.76 148.922 L2074.76 193.656 L2069.43 193.656 L2069.43 176.468 Z" fill="#000000" fill-rule="nonzero" fill-opacity="1" /><path clip-path="url(#clip420)" d="M2085.17 168.54 L2085.17 148.922 L2090.5 148.922 L2090.5 168.338 Q2090.5 172.938 2092.29 175.253 Q2094.09 177.539 2097.67 177.539 Q2101.99 177.539 2104.47 174.79 Q2106.99 172.041 2106.99 167.296 L2106.99 148.922 L2112.32 148.922 L2112.32 181.33 L2106.99 181.33 L2106.99 176.353 Q2105.05 179.304 2102.48 180.751 Q2099.93 182.169 2096.55 182.169 Q2090.96 182.169 2088.07 178.696 Q2085.17 175.224 2085.17 168.54 M2098.57 148.141 L2098.57 148.141 Z" fill="#000000" fill-rule="nonzero" fill-opacity="1" /><path clip-path="url(#clip420)" d="M2151 163.795 L2151 166.399 L2126.52 166.399 Q2126.87 171.897 2129.82 174.79 Q2132.8 177.655 2138.1 177.655 Q2141.16 177.655 2144.03 176.902 Q2146.92 176.15 2149.76 174.646 L2149.76 179.68 Q2146.89 180.896 2143.88 181.532 Q2140.87 182.169 2137.78 182.169 Q2130.02 182.169 2125.48 177.655 Q2120.97 173.141 2120.97 165.444 Q2120.97 157.487 2125.25 152.829 Q2129.56 148.141 2136.85 148.141 Q2143.39 148.141 2147.18 152.366 Q2151 156.561 2151 163.795 M2145.68 162.232 Q2145.62 157.863 2143.22 155.259 Q2140.85 152.655 2136.91 152.655 Q2132.45 152.655 2129.76 155.172 Q2127.1 157.69 2126.7 162.261 L2145.68 162.232 Z" fill="#000000" fill-rule="nonzero" fill-opacity="1" /><path clip-path="url(#clip420)" d="M2186.68 161.769 L2186.68 181.33 L2181.35 181.33 L2181.35 161.943 Q2181.35 157.342 2179.56 155.057 Q2177.77 152.771 2174.18 152.771 Q2169.87 152.771 2167.38 155.52 Q2164.89 158.268 2164.89 163.014 L2164.89 181.33 L2159.54 181.33 L2159.54 148.922 L2164.89 148.922 L2164.89 153.957 Q2166.8 151.035 2169.38 149.588 Q2171.98 148.141 2175.36 148.141 Q2180.95 148.141 2183.81 151.613 Q2186.68 155.057 2186.68 161.769 Z" fill="#000000" fill-rule="nonzero" fill-opacity="1" /><path clip-path="url(#clip420)" d="M2220.62 150.167 L2220.62 155.143 Q2218.36 153.899 2216.08 153.292 Q2213.82 152.655 2211.5 152.655 Q2206.33 152.655 2203.46 155.954 Q2200.6 159.223 2200.6 165.155 Q2200.6 171.087 2203.46 174.385 Q2206.33 177.655 2211.5 177.655 Q2213.82 177.655 2216.08 177.047 Q2218.36 176.411 2220.62 175.166 L2220.62 180.085 Q2218.39 181.127 2215.99 181.648 Q2213.62 182.169 2210.93 182.169 Q2203.61 182.169 2199.29 177.568 Q2194.98 172.967 2194.98 165.155 Q2194.98 157.227 2199.32 152.684 Q2203.69 148.141 2211.27 148.141 Q2213.73 148.141 2216.08 148.662 Q2218.42 149.154 2220.62 150.167 Z" fill="#000000" fill-rule="nonzero" fill-opacity="1" /><path clip-path="url(#clip420)" d="M2243.36 184.339 Q2241.1 190.126 2238.96 191.891 Q2236.82 193.656 2233.23 193.656 L2228.98 193.656 L2228.98 189.2 L2232.11 189.2 Q2234.31 189.2 2235.52 188.158 Q2236.74 187.117 2238.21 183.239 L2239.17 180.809 L2226.06 148.922 L2231.7 148.922 L2241.83 174.269 L2251.96 148.922 L2257.6 148.922 L2243.36 184.339 Z" fill="#000000" fill-rule="nonzero" fill-opacity="1" /><polyline clip-path="url(#clip420)" style="stroke:#ff0000; stroke-linecap:round; stroke-linejoin:round; stroke-width:10; stroke-opacity:1; fill:none" points="1490.93,224.53 1633.67,224.53 "/>
<path clip-path="url(#clip420)" d="M1657.46 202.93 L1666.17 202.93 L1677.19 232.328 L1688.27 202.93 L1696.98 202.93 L1696.98 246.13 L1691.28 246.13 L1691.28 208.196 L1680.14 237.825 L1674.27 237.825 L1663.13 208.196 L1663.13 246.13 L1657.46 246.13 L1657.46 202.93 Z" fill="#000000" fill-rule="nonzero" fill-opacity="1" /><path clip-path="url(#clip420)" d="M1736.07 228.595 L1736.07 231.199 L1711.59 231.199 Q1711.94 236.697 1714.89 239.59 Q1717.87 242.455 1723.17 242.455 Q1726.24 242.455 1729.1 241.702 Q1731.99 240.95 1734.83 239.446 L1734.83 244.48 Q1731.96 245.696 1728.95 246.332 Q1725.95 246.969 1722.85 246.969 Q1715.1 246.969 1710.55 242.455 Q1706.04 237.941 1706.04 230.244 Q1706.04 222.287 1710.32 217.629 Q1714.63 212.941 1721.92 212.941 Q1728.46 212.941 1732.25 217.166 Q1736.07 221.361 1736.07 228.595 M1730.75 227.032 Q1730.69 222.663 1728.29 220.059 Q1725.92 217.455 1721.98 217.455 Q1717.53 217.455 1714.83 219.972 Q1712.17 222.49 1711.77 227.061 L1730.75 227.032 Z" fill="#000000" fill-rule="nonzero" fill-opacity="1" /><path clip-path="url(#clip420)" d="M1759.54 229.839 Q1753.09 229.839 1750.6 231.315 Q1748.11 232.791 1748.11 236.35 Q1748.11 239.185 1749.96 240.863 Q1751.84 242.513 1755.05 242.513 Q1759.48 242.513 1762.14 239.388 Q1764.83 236.234 1764.83 231.025 L1764.83 229.839 L1759.54 229.839 M1770.16 227.64 L1770.16 246.13 L1764.83 246.13 L1764.83 241.211 Q1763.01 244.162 1760.29 245.58 Q1757.57 246.969 1753.64 246.969 Q1748.66 246.969 1745.71 244.191 Q1742.79 241.384 1742.79 236.697 Q1742.79 231.228 1746.43 228.45 Q1750.11 225.672 1757.37 225.672 L1764.83 225.672 L1764.83 225.152 Q1764.83 221.477 1762.4 219.48 Q1760 217.455 1755.63 217.455 Q1752.86 217.455 1750.22 218.12 Q1747.59 218.786 1745.16 220.117 L1745.16 215.198 Q1748.08 214.07 1750.83 213.52 Q1753.58 212.941 1756.18 212.941 Q1763.21 212.941 1766.69 216.587 Q1770.16 220.233 1770.16 227.64 Z" fill="#000000" fill-rule="nonzero" fill-opacity="1" /><path clip-path="url(#clip420)" d="M1808.06 226.569 L1808.06 246.13 L1802.74 246.13 L1802.74 226.743 Q1802.74 222.142 1800.95 219.857 Q1799.15 217.571 1795.56 217.571 Q1791.25 217.571 1788.76 220.32 Q1786.28 223.068 1786.28 227.814 L1786.28 246.13 L1780.92 246.13 L1780.92 213.722 L1786.28 213.722 L1786.28 218.757 Q1788.18 215.835 1790.76 214.388 Q1793.36 212.941 1796.75 212.941 Q1802.33 212.941 1805.2 216.413 Q1808.06 219.857 1808.06 226.569 Z" fill="#000000" fill-rule="nonzero" fill-opacity="1" /><path clip-path="url(#clip420)" d="M1852.19 208.688 L1844.26 230.186 L1860.15 230.186 L1852.19 208.688 M1848.89 202.93 L1855.52 202.93 L1871.98 246.13 L1865.9 246.13 L1861.97 235.047 L1842.5 235.047 L1838.56 246.13 L1832.4 246.13 L1848.89 202.93 Z" fill="#000000" fill-rule="nonzero" fill-opacity="1" /><path clip-path="url(#clip420)" d="M1899.38 229.55 Q1899.38 223.763 1896.98 220.58 Q1894.61 217.397 1890.3 217.397 Q1886.01 217.397 1883.61 220.58 Q1881.24 223.763 1881.24 229.55 Q1881.24 235.308 1883.61 238.491 Q1886.01 241.674 1890.3 241.674 Q1894.61 241.674 1896.98 238.491 Q1899.38 235.308 1899.38 229.55 M1904.71 242.108 Q1904.71 250.383 1901.03 254.405 Q1897.36 258.456 1889.78 258.456 Q1886.97 258.456 1884.48 258.022 Q1881.99 257.617 1879.65 256.749 L1879.65 251.569 Q1881.99 252.842 1884.28 253.45 Q1886.56 254.058 1888.94 254.058 Q1894.17 254.058 1896.78 251.309 Q1899.38 248.589 1899.38 243.062 L1899.38 240.429 Q1897.73 243.294 1895.16 244.712 Q1892.58 246.13 1888.99 246.13 Q1883.03 246.13 1879.39 241.587 Q1875.74 237.044 1875.74 229.55 Q1875.74 222.027 1879.39 217.484 Q1883.03 212.941 1888.99 212.941 Q1892.58 212.941 1895.16 214.359 Q1897.73 215.777 1899.38 218.641 L1899.38 213.722 L1904.71 213.722 L1904.71 242.108 Z" fill="#000000" fill-rule="nonzero" fill-opacity="1" /><path clip-path="url(#clip420)" d="M1943.39 228.595 L1943.39 231.199 L1918.91 231.199 Q1919.26 236.697 1922.21 239.59 Q1925.19 242.455 1930.49 242.455 Q1933.55 242.455 1936.42 241.702 Q1939.31 240.95 1942.15 239.446 L1942.15 244.48 Q1939.28 245.696 1936.27 246.332 Q1933.27 246.969 1930.17 246.969 Q1922.41 246.969 1917.87 242.455 Q1913.36 237.941 1913.36 230.244 Q1913.36 222.287 1917.64 217.629 Q1921.95 212.941 1929.24 212.941 Q1935.78 212.941 1939.57 217.166 Q1943.39 221.361 1943.39 228.595 M1938.07 227.032 Q1938.01 222.663 1935.61 220.059 Q1933.24 217.455 1929.3 217.455 Q1924.85 217.455 1922.15 219.972 Q1919.49 222.49 1919.09 227.061 L1938.07 227.032 Z" fill="#000000" fill-rule="nonzero" fill-opacity="1" /><polyline clip-path="url(#clip420)" style="stroke:#ffa500; stroke-linecap:round; stroke-linejoin:round; stroke-width:10; stroke-opacity:1; fill:none" points="1490.93,289.33 1633.67,289.33 "/>
<path clip-path="url(#clip420)" d="M1657.46 267.73 L1666.17 267.73 L1677.19 297.128 L1688.27 267.73 L1696.98 267.73 L1696.98 310.93 L1691.28 310.93 L1691.28 272.996 L1680.14 302.625 L1674.27 302.625 L1663.13 272.996 L1663.13 310.93 L1657.46 310.93 L1657.46 267.73 Z" fill="#000000" fill-rule="nonzero" fill-opacity="1" /><path clip-path="url(#clip420)" d="M1736.07 293.395 L1736.07 295.999 L1711.59 295.999 Q1711.94 301.497 1714.89 304.39 Q1717.87 307.255 1723.17 307.255 Q1726.24 307.255 1729.1 306.502 Q1731.99 305.75 1734.83 304.246 L1734.83 309.28 Q1731.96 310.496 1728.95 311.132 Q1725.95 311.769 1722.85 311.769 Q1715.1 311.769 1710.55 307.255 Q1706.04 302.741 1706.04 295.044 Q1706.04 287.087 1710.32 282.429 Q1714.63 277.741 1721.92 277.741 Q1728.46 277.741 1732.25 281.966 Q1736.07 286.161 1736.07 293.395 M1730.75 291.832 Q1730.69 287.463 1728.29 284.859 Q1725.92 282.255 1721.98 282.255 Q1717.53 282.255 1714.83 284.772 Q1712.17 287.29 1711.77 291.861 L1730.75 291.832 Z" fill="#000000" fill-rule="nonzero" fill-opacity="1" /><path clip-path="url(#clip420)" d="M1766.14 283.441 L1766.14 265.907 L1771.46 265.907 L1771.46 310.93 L1766.14 310.93 L1766.14 306.068 Q1764.46 308.962 1761.88 310.38 Q1759.34 311.769 1755.75 311.769 Q1749.87 311.769 1746.17 307.081 Q1742.5 302.394 1742.5 294.755 Q1742.5 287.116 1746.17 282.429 Q1749.87 277.741 1755.75 277.741 Q1759.34 277.741 1761.88 279.159 Q1764.46 280.548 1766.14 283.441 M1747.99 294.755 Q1747.99 300.629 1750.4 303.985 Q1752.83 307.313 1757.05 307.313 Q1761.28 307.313 1763.71 303.985 Q1766.14 300.629 1766.14 294.755 Q1766.14 288.881 1763.71 285.554 Q1761.28 282.197 1757.05 282.197 Q1752.83 282.197 1750.4 285.554 Q1747.99 288.881 1747.99 294.755 Z" fill="#000000" fill-rule="nonzero" fill-opacity="1" /><path clip-path="url(#clip420)" d="M1782.43 278.522 L1787.75 278.522 L1787.75 310.93 L1782.43 310.93 L1782.43 278.522 M1782.43 265.907 L1787.75 265.907 L1787.75 272.649 L1782.43 272.649 L1782.43 265.907 Z" fill="#000000" fill-rule="nonzero" fill-opacity="1" /><path clip-path="url(#clip420)" d="M1813.62 294.639 Q1807.17 294.639 1804.68 296.115 Q1802.19 297.591 1802.19 301.15 Q1802.19 303.985 1804.04 305.663 Q1805.92 307.313 1809.13 307.313 Q1813.56 307.313 1816.22 304.188 Q1818.91 301.034 1818.91 295.825 L1818.91 294.639 L1813.62 294.639 M1824.24 292.44 L1824.24 310.93 L1818.91 310.93 L1818.91 306.011 Q1817.09 308.962 1814.37 310.38 Q1811.65 311.769 1807.72 311.769 Q1802.74 311.769 1799.79 308.991 Q1796.87 306.184 1796.87 301.497 Q1796.87 296.028 1800.51 293.25 Q1804.19 290.472 1811.45 290.472 L1818.91 290.472 L1818.91 289.952 Q1818.91 286.277 1816.48 284.28 Q1814.08 282.255 1809.71 282.255 Q1806.93 282.255 1804.3 282.92 Q1801.67 283.586 1799.24 284.917 L1799.24 279.998 Q1802.16 278.87 1804.91 278.32 Q1807.66 277.741 1810.26 277.741 Q1817.29 277.741 1820.77 281.387 Q1824.24 285.033 1824.24 292.44 Z" fill="#000000" fill-rule="nonzero" fill-opacity="1" /><path clip-path="url(#clip420)" d="M1862.14 291.369 L1862.14 310.93 L1856.82 310.93 L1856.82 291.543 Q1856.82 286.942 1855.02 284.657 Q1853.23 282.371 1849.64 282.371 Q1845.33 282.371 1842.84 285.12 Q1840.35 287.868 1840.35 292.614 L1840.35 310.93 L1835 310.93 L1835 278.522 L1840.35 278.522 L1840.35 283.557 Q1842.26 280.635 1844.84 279.188 Q1847.44 277.741 1850.83 277.741 Q1856.41 277.741 1859.28 281.213 Q1862.14 284.657 1862.14 291.369 Z" fill="#000000" fill-rule="nonzero" fill-opacity="1" /><path clip-path="url(#clip420)" d="M1906.27 273.488 L1898.34 294.986 L1914.23 294.986 L1906.27 273.488 M1902.97 267.73 L1909.6 267.73 L1926.06 310.93 L1919.98 310.93 L1916.05 299.847 L1896.58 299.847 L1892.64 310.93 L1886.48 310.93 L1902.97 267.73 Z" fill="#000000" fill-rule="nonzero" fill-opacity="1" /><path clip-path="url(#clip420)" d="M1953.46 294.35 Q1953.46 288.563 1951.06 285.38 Q1948.69 282.197 1944.38 282.197 Q1940.09 282.197 1937.69 285.38 Q1935.32 288.563 1935.32 294.35 Q1935.32 300.108 1937.69 303.291 Q1940.09 306.474 1944.38 306.474 Q1948.69 306.474 1951.06 303.291 Q1953.46 300.108 1953.46 294.35 M1958.79 306.908 Q1958.79 315.183 1955.11 319.205 Q1951.44 323.256 1943.86 323.256 Q1941.05 323.256 1938.56 322.822 Q1936.07 322.417 1933.73 321.549 L1933.73 316.369 Q1936.07 317.642 1938.36 318.25 Q1940.64 318.858 1943.02 318.858 Q1948.25 318.858 1950.86 316.109 Q1953.46 313.389 1953.46 307.862 L1953.46 305.229 Q1951.81 308.094 1949.24 309.512 Q1946.66 310.93 1943.07 310.93 Q1937.11 310.93 1933.47 306.387 Q1929.82 301.844 1929.82 294.35 Q1929.82 286.827 1933.47 282.284 Q1937.11 277.741 1943.07 277.741 Q1946.66 277.741 1949.24 279.159 Q1951.81 280.577 1953.46 283.441 L1953.46 278.522 L1958.79 278.522 L1958.79 306.908 Z" fill="#000000" fill-rule="nonzero" fill-opacity="1" /><path clip-path="url(#clip420)" d="M1997.47 293.395 L1997.47 295.999 L1972.99 295.999 Q1973.34 301.497 1976.29 304.39 Q1979.27 307.255 1984.57 307.255 Q1987.63 307.255 1990.5 306.502 Q1993.39 305.75 1996.23 304.246 L1996.23 309.28 Q1993.36 310.496 1990.35 311.132 Q1987.34 311.769 1984.25 311.769 Q1976.49 311.769 1971.95 307.255 Q1967.44 302.741 1967.44 295.044 Q1967.44 287.087 1971.72 282.429 Q1976.03 277.741 1983.32 277.741 Q1989.86 277.741 1993.65 281.966 Q1997.47 286.161 1997.47 293.395 M1992.15 291.832 Q1992.09 287.463 1989.69 284.859 Q1987.32 282.255 1983.38 282.255 Q1978.92 282.255 1976.23 284.772 Q1973.57 287.29 1973.17 291.861 L1992.15 291.832 Z" fill="#000000" fill-rule="nonzero" fill-opacity="1" /></svg>
