<?xml version="1.0" encoding="utf-8"?>
<svg xmlns="http://www.w3.org/2000/svg" xmlns:xlink="http://www.w3.org/1999/xlink" width="900" height="600" viewBox="0 0 3600 2400">
<defs>
  <clipPath id="clip880">
    <rect x="0" y="0" width="3600" height="2400"/>
  </clipPath>
</defs>
<path clip-path="url(#clip880)" d="M0 2400 L3600 2400 L3600 1.33227e-13 L0 1.33227e-13  Z" fill="#ffffff" fill-rule="evenodd" fill-opacity="1"/>
<defs>
  <clipPath id="clip881">
    <rect x="720" y="0" width="2521" height="2400"/>
  </clipPath>
</defs>
<path clip-path="url(#clip880)" d="M243.796 2269.81 L1791.59 2269.81 L1791.59 1340.75 L243.796 1340.75  Z" fill="#ffffff" fill-rule="evenodd" fill-opacity="1"/>
<defs>
  <clipPath id="clip882">
    <rect x="243" y="1340" width="1549" height="930"/>
  </clipPath>
</defs>
<polyline clip-path="url(#clip882)" style="stroke:#000000; stroke-linecap:round; stroke-linejoin:round; stroke-width:2; stroke-opacity:0.1; fill:none" points="635.046,2269.81 635.046,1340.75 "/>
<polyline clip-path="url(#clip882)" style="stroke:#000000; stroke-linecap:round; stroke-linejoin:round; stroke-width:2; stroke-opacity:0.1; fill:none" points="1400.34,2269.81 1400.34,1340.75 "/>
<polyline clip-path="url(#clip880)" style="stroke:#000000; stroke-linecap:round; stroke-linejoin:round; stroke-width:4; stroke-opacity:1; fill:none" points="243.796,2269.81 1791.59,2269.81 "/>
<polyline clip-path="url(#clip880)" style="stroke:#000000; stroke-linecap:round; stroke-linejoin:round; stroke-width:4; stroke-opacity:1; fill:none" points="635.046,2269.81 635.046,2250.91 "/>
<polyline clip-path="url(#clip880)" style="stroke:#000000; stroke-linecap:round; stroke-linejoin:round; stroke-width:4; stroke-opacity:1; fill:none" points="1400.34,2269.81 1400.34,2250.91 "/>
<path clip-path="url(#clip880)" d="M588.403 2331.98 L588.403 2347.8 L597.778 2347.8 Q602.495 2347.8 604.751 2345.87 Q607.037 2343.9 607.037 2339.88 Q607.037 2335.83 604.751 2333.92 Q602.495 2331.98 597.778 2331.98 L588.403 2331.98 M588.403 2314.21 L588.403 2327.23 L597.055 2327.23 Q601.337 2327.23 603.42 2325.64 Q605.533 2324.02 605.533 2320.72 Q605.533 2317.45 603.42 2315.83 Q601.337 2314.21 597.055 2314.21 L588.403 2314.21 M582.558 2309.41 L597.489 2309.41 Q604.173 2309.41 607.79 2312.19 Q611.407 2314.96 611.407 2320.08 Q611.407 2324.05 609.555 2326.39 Q607.703 2328.74 604.115 2329.32 Q608.426 2330.24 610.799 2333.19 Q613.2 2336.11 613.2 2340.51 Q613.2 2346.3 609.265 2349.45 Q605.33 2352.61 598.067 2352.61 L582.558 2352.61 L582.558 2309.41 Z" fill="#000000" fill-rule="nonzero" fill-opacity="1" /><path clip-path="url(#clip880)" d="M623.212 2309.41 L650.527 2309.41 L650.527 2314.33 L629.057 2314.33 L629.057 2327.12 L649.63 2327.12 L649.63 2332.04 L629.057 2332.04 L629.057 2347.69 L651.047 2347.69 L651.047 2352.61 L623.212 2352.61 L623.212 2309.41 Z" fill="#000000" fill-rule="nonzero" fill-opacity="1" /><path clip-path="url(#clip880)" d="M660.654 2309.41 L666.499 2309.41 L666.499 2347.69 L687.535 2347.69 L687.535 2352.61 L660.654 2352.61 L660.654 2309.41 Z" fill="#000000" fill-rule="nonzero" fill-opacity="1" /><path clip-path="url(#clip880)" d="M1348.45 2314.21 L1348.45 2347.8 L1355.51 2347.8 Q1364.45 2347.8 1368.59 2343.75 Q1372.75 2339.7 1372.75 2330.96 Q1372.75 2322.28 1368.59 2318.26 Q1364.45 2314.21 1355.51 2314.21 L1348.45 2314.21 M1342.6 2309.41 L1354.61 2309.41 Q1367.17 2309.41 1373.04 2314.65 Q1378.92 2319.85 1378.92 2330.96 Q1378.92 2342.13 1373.01 2347.37 Q1367.11 2352.61 1354.61 2352.61 L1342.6 2352.61 L1342.6 2309.41 Z" fill="#000000" fill-rule="nonzero" fill-opacity="1" /><path clip-path="url(#clip880)" d="M1388.23 2309.41 L1415.55 2309.41 L1415.55 2314.33 L1394.08 2314.33 L1394.08 2327.12 L1414.65 2327.12 L1414.65 2332.04 L1394.08 2332.04 L1394.08 2347.69 L1416.07 2347.69 L1416.07 2352.61 L1388.23 2352.61 L1388.23 2309.41 Z" fill="#000000" fill-rule="nonzero" fill-opacity="1" /><path clip-path="url(#clip880)" d="M1425.01 2309.41 L1430.88 2309.41 L1430.88 2335.65 Q1430.88 2342.6 1433.4 2345.66 Q1435.92 2348.7 1441.56 2348.7 Q1447.17 2348.7 1449.69 2345.66 Q1452.21 2342.6 1452.21 2335.65 L1452.21 2309.41 L1458.08 2309.41 L1458.08 2336.38 Q1458.08 2344.82 1453.89 2349.14 Q1449.72 2353.45 1441.56 2353.45 Q1433.37 2353.45 1429.18 2349.14 Q1425.01 2344.82 1425.01 2336.38 L1425.01 2309.41 Z" fill="#000000" fill-rule="nonzero" fill-opacity="1" /><polyline clip-path="url(#clip882)" style="stroke:#000000; stroke-linecap:round; stroke-linejoin:round; stroke-width:2; stroke-opacity:0.1; fill:none" points="243.796,2269.81 1791.59,2269.81 "/>
<polyline clip-path="url(#clip882)" style="stroke:#000000; stroke-linecap:round; stroke-linejoin:round; stroke-width:2; stroke-opacity:0.1; fill:none" points="243.796,2091.14 1791.59,2091.14 "/>
<polyline clip-path="url(#clip882)" style="stroke:#000000; stroke-linecap:round; stroke-linejoin:round; stroke-width:2; stroke-opacity:0.1; fill:none" points="243.796,1912.48 1791.59,1912.48 "/>
<polyline clip-path="url(#clip882)" style="stroke:#000000; stroke-linecap:round; stroke-linejoin:round; stroke-width:2; stroke-opacity:0.1; fill:none" points="243.796,1733.81 1791.59,1733.81 "/>
<polyline clip-path="url(#clip882)" style="stroke:#000000; stroke-linecap:round; stroke-linejoin:round; stroke-width:2; stroke-opacity:0.1; fill:none" points="243.796,1555.15 1791.59,1555.15 "/>
<polyline clip-path="url(#clip882)" style="stroke:#000000; stroke-linecap:round; stroke-linejoin:round; stroke-width:2; stroke-opacity:0.1; fill:none" points="243.796,1376.49 1791.59,1376.49 "/>
<polyline clip-path="url(#clip880)" style="stroke:#000000; stroke-linecap:round; stroke-linejoin:round; stroke-width:4; stroke-opacity:1; fill:none" points="243.796,2269.81 243.796,1340.75 "/>
<polyline clip-path="url(#clip880)" style="stroke:#000000; stroke-linecap:round; stroke-linejoin:round; stroke-width:4; stroke-opacity:1; fill:none" points="243.796,2269.81 262.694,2269.81 "/>
<polyline clip-path="url(#clip880)" style="stroke:#000000; stroke-linecap:round; stroke-linejoin:round; stroke-width:4; stroke-opacity:1; fill:none" points="243.796,2091.14 262.694,2091.14 "/>
<polyline clip-path="url(#clip880)" style="stroke:#000000; stroke-linecap:round; stroke-linejoin:round; stroke-width:4; stroke-opacity:1; fill:none" points="243.796,1912.48 262.694,1912.48 "/>
<polyline clip-path="url(#clip880)" style="stroke:#000000; stroke-linecap:round; stroke-linejoin:round; stroke-width:4; stroke-opacity:1; fill:none" points="243.796,1733.81 262.694,1733.81 "/>
<polyline clip-path="url(#clip880)" style="stroke:#000000; stroke-linecap:round; stroke-linejoin:round; stroke-width:4; stroke-opacity:1; fill:none" points="243.796,1555.15 262.694,1555.15 "/>
<polyline clip-path="url(#clip880)" style="stroke:#000000; stroke-linecap:round; stroke-linejoin:round; stroke-width:4; stroke-opacity:1; fill:none" points="243.796,1376.49 262.694,1376.49 "/>
<path clip-path="url(#clip880)" d="M174.866 2252.06 Q170.352 2252.06 168.066 2256.51 Q165.809 2260.94 165.809 2269.85 Q165.809 2278.73 168.066 2283.19 Q170.352 2287.62 174.866 2287.62 Q179.409 2287.62 181.665 2283.19 Q183.951 2278.73 183.951 2269.85 Q183.951 2260.94 181.665 2256.51 Q179.409 2252.06 174.866 2252.06 M174.866 2247.43 Q182.128 2247.43 185.948 2253.18 Q189.796 2258.91 189.796 2269.85 Q189.796 2280.76 185.948 2286.52 Q182.128 2292.25 174.866 2292.25 Q167.603 2292.25 163.755 2286.52 Q159.935 2280.76 159.935 2269.85 Q159.935 2258.91 163.755 2253.18 Q167.603 2247.43 174.866 2247.43 Z" fill="#000000" fill-rule="nonzero" fill-opacity="1" /><path clip-path="url(#clip880)" d="M125.676 2107.82 L135.225 2107.82 L135.225 2074.87 L124.837 2076.95 L124.837 2071.63 L135.167 2069.54 L141.012 2069.54 L141.012 2107.82 L150.56 2107.82 L150.56 2112.74 L125.676 2112.74 L125.676 2107.82 Z" fill="#000000" fill-rule="nonzero" fill-opacity="1" /><path clip-path="url(#clip880)" d="M174.866 2073.39 Q170.352 2073.39 168.066 2077.85 Q165.809 2082.27 165.809 2091.19 Q165.809 2100.07 168.066 2104.53 Q170.352 2108.95 174.866 2108.95 Q179.409 2108.95 181.665 2104.53 Q183.951 2100.07 183.951 2091.19 Q183.951 2082.27 181.665 2077.85 Q179.409 2073.39 174.866 2073.39 M174.866 2068.76 Q182.128 2068.76 185.948 2074.52 Q189.796 2080.25 189.796 2091.19 Q189.796 2102.1 185.948 2107.85 Q182.128 2113.58 174.866 2113.58 Q167.603 2113.58 163.755 2107.85 Q159.935 2102.1 159.935 2091.19 Q159.935 2080.25 163.755 2074.52 Q167.603 2068.76 174.866 2068.76 Z" fill="#000000" fill-rule="nonzero" fill-opacity="1" /><path clip-path="url(#clip880)" d="M129.698 1929.16 L150.097 1929.16 L150.097 1934.08 L122.667 1934.08 L122.667 1929.16 Q125.994 1925.72 131.724 1919.93 Q137.482 1914.11 138.957 1912.44 Q141.764 1909.28 142.864 1907.11 Q143.992 1904.91 143.992 1902.8 Q143.992 1899.36 141.561 1897.19 Q139.16 1895.02 135.283 1895.02 Q132.534 1895.02 129.467 1895.97 Q126.428 1896.93 122.956 1898.86 L122.956 1892.96 Q126.486 1891.54 129.553 1890.82 Q132.621 1890.1 135.167 1890.1 Q141.88 1890.1 145.873 1893.45 Q149.866 1896.81 149.866 1902.42 Q149.866 1905.09 148.853 1907.49 Q147.869 1909.86 145.236 1913.1 Q144.513 1913.94 140.636 1917.96 Q136.758 1921.95 129.698 1929.16 Z" fill="#000000" fill-rule="nonzero" fill-opacity="1" /><path clip-path="url(#clip880)" d="M174.866 1894.73 Q170.352 1894.73 168.066 1899.18 Q165.809 1903.61 165.809 1912.52 Q165.809 1921.41 168.066 1925.86 Q170.352 1930.29 174.866 1930.29 Q179.409 1930.29 181.665 1925.86 Q183.951 1921.41 183.951 1912.52 Q183.951 1903.61 181.665 1899.18 Q179.409 1894.73 174.866 1894.73 M174.866 1890.1 Q182.128 1890.1 185.948 1895.86 Q189.796 1901.58 189.796 1912.52 Q189.796 1923.43 185.948 1929.19 Q182.128 1934.92 174.866 1934.92 Q167.603 1934.92 163.755 1929.19 Q159.935 1923.43 159.935 1912.52 Q159.935 1901.58 163.755 1895.86 Q167.603 1890.1 174.866 1890.1 Z" fill="#000000" fill-rule="nonzero" fill-opacity="1" /><path clip-path="url(#clip880)" d="M142.372 1732.12 Q146.567 1733.02 148.911 1735.85 Q151.284 1738.69 151.284 1742.86 Q151.284 1749.25 146.886 1752.75 Q142.487 1756.25 134.386 1756.25 Q131.666 1756.25 128.772 1755.7 Q125.908 1755.18 122.841 1754.11 L122.841 1748.47 Q125.271 1749.89 128.165 1750.61 Q131.058 1751.33 134.212 1751.33 Q139.71 1751.33 142.574 1749.16 Q145.468 1746.99 145.468 1742.86 Q145.468 1739.04 142.777 1736.9 Q140.115 1734.73 135.34 1734.73 L130.306 1734.73 L130.306 1729.92 L135.572 1729.92 Q139.883 1729.92 142.169 1728.22 Q144.455 1726.48 144.455 1723.24 Q144.455 1719.91 142.082 1718.15 Q139.739 1716.35 135.34 1716.35 Q132.939 1716.35 130.19 1716.87 Q127.441 1717.39 124.143 1718.49 L124.143 1713.28 Q127.47 1712.36 130.364 1711.9 Q133.286 1711.43 135.861 1711.43 Q142.516 1711.43 146.394 1714.47 Q150.271 1717.48 150.271 1722.63 Q150.271 1726.22 148.217 1728.71 Q146.162 1731.17 142.372 1732.12 Z" fill="#000000" fill-rule="nonzero" fill-opacity="1" /><path clip-path="url(#clip880)" d="M174.866 1716.06 Q170.352 1716.06 168.066 1720.52 Q165.809 1724.95 165.809 1733.86 Q165.809 1742.74 168.066 1747.2 Q170.352 1751.62 174.866 1751.62 Q179.409 1751.62 181.665 1747.2 Q183.951 1742.74 183.951 1733.86 Q183.951 1724.95 181.665 1720.52 Q179.409 1716.06 174.866 1716.06 M174.866 1711.43 Q182.128 1711.43 185.948 1717.19 Q189.796 1722.92 189.796 1733.86 Q189.796 1744.77 185.948 1750.52 Q182.128 1756.25 174.866 1756.25 Q167.603 1756.25 163.755 1750.52 Q159.935 1744.77 159.935 1733.86 Q159.935 1722.92 163.755 1717.19 Q167.603 1711.43 174.866 1711.43 Z" fill="#000000" fill-rule="nonzero" fill-opacity="1" /><path clip-path="url(#clip880)" d="M140.722 1538.64 L125.966 1561.7 L140.722 1561.7 L140.722 1538.64 M139.189 1533.55 L146.538 1533.55 L146.538 1561.7 L152.701 1561.7 L152.701 1566.56 L146.538 1566.56 L146.538 1576.75 L140.722 1576.75 L140.722 1566.56 L121.22 1566.56 L121.22 1560.92 L139.189 1533.55 Z" fill="#000000" fill-rule="nonzero" fill-opacity="1" /><path clip-path="url(#clip880)" d="M174.866 1537.4 Q170.352 1537.4 168.066 1541.85 Q165.809 1546.28 165.809 1555.19 Q165.809 1564.08 168.066 1568.53 Q170.352 1572.96 174.866 1572.96 Q179.409 1572.96 181.665 1568.53 Q183.951 1564.08 183.951 1555.19 Q183.951 1546.28 181.665 1541.85 Q179.409 1537.4 174.866 1537.4 M174.866 1532.77 Q182.128 1532.77 185.948 1538.53 Q189.796 1544.26 189.796 1555.19 Q189.796 1566.1 185.948 1571.86 Q182.128 1577.59 174.866 1577.59 Q167.603 1577.59 163.755 1571.86 Q159.935 1566.1 159.935 1555.19 Q159.935 1544.26 163.755 1538.53 Q167.603 1532.77 174.866 1532.77 Z" fill="#000000" fill-rule="nonzero" fill-opacity="1" /><path clip-path="url(#clip880)" d="M124.721 1354.89 L147.667 1354.89 L147.667 1359.8 L130.074 1359.8 L130.074 1370.39 Q131.347 1369.96 132.621 1369.76 Q133.894 1369.53 135.167 1369.53 Q142.401 1369.53 146.625 1373.49 Q150.85 1377.45 150.85 1384.23 Q150.85 1391.2 146.509 1395.08 Q142.169 1398.92 134.27 1398.92 Q131.55 1398.92 128.714 1398.46 Q125.908 1398 122.898 1397.07 L122.898 1391.2 Q125.503 1392.62 128.28 1393.31 Q131.058 1394.01 134.154 1394.01 Q139.16 1394.01 142.082 1391.37 Q145.005 1388.74 145.005 1384.23 Q145.005 1379.71 142.082 1377.08 Q139.16 1374.45 134.154 1374.45 Q131.81 1374.45 129.467 1374.97 Q127.152 1375.49 124.721 1376.59 L124.721 1354.89 Z" fill="#000000" fill-rule="nonzero" fill-opacity="1" /><path clip-path="url(#clip880)" d="M174.866 1358.73 Q170.352 1358.73 168.066 1363.19 Q165.809 1367.62 165.809 1376.53 Q165.809 1385.41 168.066 1389.87 Q170.352 1394.29 174.866 1394.29 Q179.409 1394.29 181.665 1389.87 Q183.951 1385.41 183.951 1376.53 Q183.951 1367.62 181.665 1363.19 Q179.409 1358.73 174.866 1358.73 M174.866 1354.1 Q182.128 1354.1 185.948 1359.86 Q189.796 1365.59 189.796 1376.53 Q189.796 1387.44 185.948 1393.2 Q182.128 1398.92 174.866 1398.92 Q167.603 1398.92 163.755 1393.2 Q159.935 1387.44 159.935 1376.53 Q159.935 1365.59 163.755 1359.86 Q167.603 1354.1 174.866 1354.1 Z" fill="#000000" fill-rule="nonzero" fill-opacity="1" /><path clip-path="url(#clip880)" d="M-3.34254 1855.27 L26.7557 1866.37 L26.7557 1844.13 L-3.34254 1855.27 M-11.4038 1859.89 L-11.4038 1850.61 L49.0762 1827.56 L49.0762 1836.07 L33.5612 1841.58 L33.5612 1868.84 L49.0762 1874.35 L49.0762 1882.98 L-11.4038 1859.89 Z" fill="#000000" fill-rule="nonzero" fill-opacity="1" /><path clip-path="url(#clip880)" d="M25.8645 1789.2 Q17.7627 1789.2 13.3067 1792.56 Q8.85068 1795.88 8.85068 1801.92 Q8.85068 1807.91 13.3067 1811.28 Q17.7627 1814.6 25.8645 1814.6 Q33.9258 1814.6 38.3818 1811.28 Q42.8378 1807.91 42.8378 1801.92 Q42.8378 1795.88 38.3818 1792.56 Q33.9258 1789.2 25.8645 1789.2 M43.4454 1781.74 Q55.031 1781.74 60.6617 1786.89 Q66.333 1792.03 66.333 1802.65 Q66.333 1806.58 65.7254 1810.06 Q65.1582 1813.54 63.943 1816.83 L56.6919 1816.83 Q58.4743 1813.54 59.3249 1810.34 Q60.1756 1807.14 60.1756 1803.82 Q60.1756 1796.49 56.3273 1792.84 Q52.5194 1789.2 44.7822 1789.2 L41.0959 1789.2 Q45.1063 1791.51 47.0912 1795.11 Q49.0762 1798.72 49.0762 1803.74 Q49.0762 1812.09 42.7162 1817.19 Q36.3563 1822.29 25.8645 1822.29 Q15.3321 1822.29 8.97221 1817.19 Q2.61229 1812.09 2.61229 1803.74 Q2.61229 1798.72 4.59723 1795.11 Q6.58217 1791.51 10.5926 1789.2 L3.70603 1789.2 L3.70603 1781.74 L43.4454 1781.74 Z" fill="#000000" fill-rule="nonzero" fill-opacity="1" /><path clip-path="url(#clip880)" d="M24.5277 1727.58 L28.1735 1727.58 L28.1735 1761.85 Q35.8702 1761.37 39.9211 1757.24 Q43.9315 1753.06 43.9315 1745.65 Q43.9315 1741.36 42.8783 1737.35 Q41.825 1733.3 39.7186 1729.33 L46.7671 1729.33 Q48.4685 1733.34 49.3597 1737.55 Q50.2509 1741.76 50.2509 1746.1 Q50.2509 1756.95 43.9315 1763.31 Q37.6121 1769.63 26.8367 1769.63 Q15.6967 1769.63 9.17475 1763.64 Q2.61229 1757.6 2.61229 1747.39 Q2.61229 1738.24 8.52661 1732.93 Q14.4004 1727.58 24.5277 1727.58 M22.3402 1735.04 Q16.2233 1735.12 12.5775 1738.48 Q8.9317 1741.8 8.9317 1747.31 Q8.9317 1753.55 12.456 1757.32 Q15.9803 1761.04 22.3807 1761.61 L22.3402 1735.04 Z" fill="#000000" fill-rule="nonzero" fill-opacity="1" /><path clip-path="url(#clip880)" d="M971.028 1221.54 L971.028 1232.64 Q965.716 1227.69 959.674 1225.24 Q953.685 1222.79 946.914 1222.79 Q933.581 1222.79 926.497 1230.97 Q919.414 1239.09 919.414 1254.51 Q919.414 1269.87 926.497 1278.05 Q933.581 1286.18 946.914 1286.18 Q953.685 1286.18 959.674 1283.73 Q965.716 1281.28 971.028 1276.33 L971.028 1287.32 Q965.508 1291.07 959.31 1292.95 Q953.164 1294.82 946.289 1294.82 Q928.633 1294.82 918.477 1284.04 Q908.32 1273.21 908.32 1254.51 Q908.32 1235.76 918.477 1224.98 Q928.633 1214.15 946.289 1214.15 Q953.268 1214.15 959.414 1216.02 Q965.612 1217.84 971.028 1221.54 Z" fill="#000000" fill-rule="nonzero" fill-opacity="1" /><path clip-path="url(#clip880)" d="M1009.47 1241.7 Q1001.76 1241.7 997.278 1247.74 Q992.799 1253.73 992.799 1264.2 Q992.799 1274.67 997.226 1280.71 Q1001.71 1286.7 1009.47 1286.7 Q1017.12 1286.7 1021.6 1280.66 Q1026.08 1274.61 1026.08 1264.2 Q1026.08 1253.83 1021.6 1247.79 Q1017.12 1241.7 1009.47 1241.7 M1009.47 1233.57 Q1021.97 1233.57 1029.1 1241.7 Q1036.24 1249.82 1036.24 1264.2 Q1036.24 1278.52 1029.1 1286.7 Q1021.97 1294.82 1009.47 1294.82 Q996.914 1294.82 989.778 1286.7 Q982.695 1278.52 982.695 1264.2 Q982.695 1249.82 989.778 1241.7 Q996.914 1233.57 1009.47 1233.57 Z" fill="#000000" fill-rule="nonzero" fill-opacity="1" /><path clip-path="url(#clip880)" d="M1078.63 1263.99 Q1067.02 1263.99 1062.54 1266.65 Q1058.06 1269.3 1058.06 1275.71 Q1058.06 1280.81 1061.39 1283.83 Q1064.78 1286.8 1070.56 1286.8 Q1078.53 1286.8 1083.32 1281.18 Q1088.16 1275.5 1088.16 1266.12 L1088.16 1263.99 L1078.63 1263.99 M1097.75 1260.03 L1097.75 1293.31 L1088.16 1293.31 L1088.16 1284.46 Q1084.88 1289.77 1079.99 1292.32 Q1075.09 1294.82 1068.01 1294.82 Q1059.05 1294.82 1053.74 1289.82 Q1048.48 1284.77 1048.48 1276.33 Q1048.48 1266.49 1055.04 1261.49 Q1061.65 1256.49 1074.73 1256.49 L1088.16 1256.49 L1088.16 1255.55 Q1088.16 1248.94 1083.79 1245.34 Q1079.47 1241.7 1071.6 1241.7 Q1066.6 1241.7 1061.86 1242.9 Q1057.12 1244.09 1052.75 1246.49 L1052.75 1237.64 Q1058.01 1235.6 1062.95 1234.61 Q1067.9 1233.57 1072.59 1233.57 Q1085.25 1233.57 1091.5 1240.14 Q1097.75 1246.7 1097.75 1260.03 Z" fill="#000000" fill-rule="nonzero" fill-opacity="1" /><path clip-path="url(#clip880)" d="M1117.49 1212.27 L1127.07 1212.27 L1127.07 1293.31 L1117.49 1293.31 L1117.49 1212.27 Z" fill="#000000" fill-rule="nonzero" fill-opacity="1" /><path clip-path="url(#clip882)" d="M328.928 1340.75 L328.928 2269.81 L941.165 2269.81 L941.165 1340.75 L328.928 1340.75 L328.928 1340.75  Z" fill="#009af9" fill-rule="evenodd" fill-opacity="1"/>
<polyline clip-path="url(#clip882)" style="stroke:#000000; stroke-linecap:round; stroke-linejoin:round; stroke-width:4; stroke-opacity:1; fill:none" points="328.928,1340.75 328.928,2269.81 941.165,2269.81 941.165,1340.75 328.928,1340.75 "/>
<path clip-path="url(#clip882)" d="M1094.22 1637.46 L1094.22 2269.81 L1706.46 2269.81 L1706.46 1637.46 L1094.22 1637.46 L1094.22 1637.46  Z" fill="#009af9" fill-rule="evenodd" fill-opacity="1"/>
<polyline clip-path="url(#clip882)" style="stroke:#000000; stroke-linecap:round; stroke-linejoin:round; stroke-width:4; stroke-opacity:1; fill:none" points="1094.22,1637.46 1094.22,2269.81 1706.46,2269.81 1706.46,1637.46 1094.22,1637.46 "/>
<circle clip-path="url(#clip882)" style="fill:#009af9; stroke:none; fill-opacity:0" cx="635.046" cy="1340.75" r="2"/>
<circle clip-path="url(#clip882)" style="fill:#009af9; stroke:none; fill-opacity:0" cx="1400.34" cy="1637.46" r="2"/>
<path clip-path="url(#clip880)" d="M1519.68 1501.32 L1740 1501.32 L1740 1371.72 L1519.68 1371.72  Z" fill="#ffffff" fill-rule="evenodd" fill-opacity="1"/>
<polyline clip-path="url(#clip880)" style="stroke:#000000; stroke-linecap:round; stroke-linejoin:round; stroke-width:4; stroke-opacity:1; fill:none" points="1519.68,1501.32 1740,1501.32 1740,1371.72 1519.68,1371.72 1519.68,1501.32 "/>
<path clip-path="url(#clip880)" d="M1536.88 1462.44 L1640.07 1462.44 L1640.07 1410.6 L1536.88 1410.6 L1536.88 1462.44  Z" fill="#009af9" fill-rule="evenodd" fill-opacity="1"/>
<polyline clip-path="url(#clip880)" style="stroke:#000000; stroke-linecap:round; stroke-linejoin:round; stroke-width:5; stroke-opacity:1; fill:none" points="1536.88,1462.44 1640.07,1462.44 1640.07,1410.6 1536.88,1410.6 1536.88,1462.44 "/>
<path clip-path="url(#clip880)" d="M1674.57 1461.13 Q1672.31 1466.92 1670.17 1468.68 Q1668.03 1470.45 1664.44 1470.45 L1660.19 1470.45 L1660.19 1465.99 L1663.31 1465.99 Q1665.51 1465.99 1666.73 1464.95 Q1667.94 1463.91 1669.42 1460.03 L1670.37 1457.6 L1657.26 1425.71 L1662.91 1425.71 L1673.03 1451.06 L1683.16 1425.71 L1688.8 1425.71 L1674.57 1461.13 Z" fill="#000000" fill-rule="nonzero" fill-opacity="1" /><path clip-path="url(#clip880)" d="M1697.92 1453.2 L1707.47 1453.2 L1707.47 1420.24 L1697.08 1422.33 L1697.08 1417 L1707.41 1414.92 L1713.25 1414.92 L1713.25 1453.2 L1722.8 1453.2 L1722.8 1458.12 L1697.92 1458.12 L1697.92 1453.2 Z" fill="#000000" fill-rule="nonzero" fill-opacity="1" /><path clip-path="url(#clip880)" d="M2004.96 2269.81 L3552.76 2269.81 L3552.76 1340.75 L2004.96 1340.75  Z" fill="#ffffff" fill-rule="evenodd" fill-opacity="1"/>
<defs>
  <clipPath id="clip883">
    <rect x="2004" y="1340" width="1549" height="930"/>
  </clipPath>
</defs>
<polyline clip-path="url(#clip883)" style="stroke:#000000; stroke-linecap:round; stroke-linejoin:round; stroke-width:2; stroke-opacity:0.1; fill:none" points="2396.21,2269.81 2396.21,1340.75 "/>
<polyline clip-path="url(#clip883)" style="stroke:#000000; stroke-linecap:round; stroke-linejoin:round; stroke-width:2; stroke-opacity:0.1; fill:none" points="3161.51,2269.81 3161.51,1340.75 "/>
<polyline clip-path="url(#clip880)" style="stroke:#000000; stroke-linecap:round; stroke-linejoin:round; stroke-width:4; stroke-opacity:1; fill:none" points="2004.96,2269.81 3552.76,2269.81 "/>
<polyline clip-path="url(#clip880)" style="stroke:#000000; stroke-linecap:round; stroke-linejoin:round; stroke-width:4; stroke-opacity:1; fill:none" points="2396.21,2269.81 2396.21,2250.91 "/>
<polyline clip-path="url(#clip880)" style="stroke:#000000; stroke-linecap:round; stroke-linejoin:round; stroke-width:4; stroke-opacity:1; fill:none" points="3161.51,2269.81 3161.51,2250.91 "/>
<path clip-path="url(#clip880)" d="M2349.57 2331.98 L2349.57 2347.8 L2358.94 2347.8 Q2363.66 2347.8 2365.91 2345.87 Q2368.2 2343.9 2368.2 2339.88 Q2368.2 2335.83 2365.91 2333.92 Q2363.66 2331.98 2358.94 2331.98 L2349.57 2331.98 M2349.57 2314.21 L2349.57 2327.23 L2358.22 2327.23 Q2362.5 2327.23 2364.58 2325.64 Q2366.7 2324.02 2366.7 2320.72 Q2366.7 2317.45 2364.58 2315.83 Q2362.5 2314.21 2358.22 2314.21 L2349.57 2314.21 M2343.72 2309.41 L2358.65 2309.41 Q2365.34 2309.41 2368.95 2312.19 Q2372.57 2314.96 2372.57 2320.08 Q2372.57 2324.05 2370.72 2326.39 Q2368.87 2328.74 2365.28 2329.32 Q2369.59 2330.24 2371.96 2333.19 Q2374.36 2336.11 2374.36 2340.51 Q2374.36 2346.3 2370.43 2349.45 Q2366.49 2352.61 2359.23 2352.61 L2343.72 2352.61 L2343.72 2309.41 Z" fill="#000000" fill-rule="nonzero" fill-opacity="1" /><path clip-path="url(#clip880)" d="M2384.37 2309.41 L2411.69 2309.41 L2411.69 2314.33 L2390.22 2314.33 L2390.22 2327.12 L2410.79 2327.12 L2410.79 2332.04 L2390.22 2332.04 L2390.22 2347.69 L2412.21 2347.69 L2412.21 2352.61 L2384.37 2352.61 L2384.37 2309.41 Z" fill="#000000" fill-rule="nonzero" fill-opacity="1" /><path clip-path="url(#clip880)" d="M2421.82 2309.41 L2427.66 2309.41 L2427.66 2347.69 L2448.7 2347.69 L2448.7 2352.61 L2421.82 2352.61 L2421.82 2309.41 Z" fill="#000000" fill-rule="nonzero" fill-opacity="1" /><path clip-path="url(#clip880)" d="M3109.61 2314.21 L3109.61 2347.8 L3116.67 2347.8 Q3125.61 2347.8 3129.75 2343.75 Q3133.92 2339.7 3133.92 2330.96 Q3133.92 2322.28 3129.75 2318.26 Q3125.61 2314.21 3116.67 2314.21 L3109.61 2314.21 M3103.77 2309.41 L3115.77 2309.41 Q3128.33 2309.41 3134.21 2314.65 Q3140.08 2319.85 3140.08 2330.96 Q3140.08 2342.13 3134.18 2347.37 Q3128.27 2352.61 3115.77 2352.61 L3103.77 2352.61 L3103.77 2309.41 Z" fill="#000000" fill-rule="nonzero" fill-opacity="1" /><path clip-path="url(#clip880)" d="M3149.4 2309.41 L3176.71 2309.41 L3176.71 2314.33 L3155.24 2314.33 L3155.24 2327.12 L3175.81 2327.12 L3175.81 2332.04 L3155.24 2332.04 L3155.24 2347.69 L3177.23 2347.69 L3177.23 2352.61 L3149.4 2352.61 L3149.4 2309.41 Z" fill="#000000" fill-rule="nonzero" fill-opacity="1" /><path clip-path="url(#clip880)" d="M3186.17 2309.41 L3192.05 2309.41 L3192.05 2335.65 Q3192.05 2342.6 3194.56 2345.66 Q3197.08 2348.7 3202.72 2348.7 Q3208.34 2348.7 3210.85 2345.66 Q3213.37 2342.6 3213.37 2335.65 L3213.37 2309.41 L3219.25 2309.41 L3219.25 2336.38 Q3219.25 2344.82 3215.05 2349.14 Q3210.88 2353.45 3202.72 2353.45 Q3194.53 2353.45 3190.34 2349.14 Q3186.17 2344.82 3186.17 2336.38 L3186.17 2309.41 Z" fill="#000000" fill-rule="nonzero" fill-opacity="1" /><polyline clip-path="url(#clip883)" style="stroke:#000000; stroke-linecap:round; stroke-linejoin:round; stroke-width:2; stroke-opacity:0.1; fill:none" points="2004.96,2269.81 3552.76,2269.81 "/>
<polyline clip-path="url(#clip883)" style="stroke:#000000; stroke-linecap:round; stroke-linejoin:round; stroke-width:2; stroke-opacity:0.1; fill:none" points="2004.96,2088.96 3552.76,2088.96 "/>
<polyline clip-path="url(#clip883)" style="stroke:#000000; stroke-linecap:round; stroke-linejoin:round; stroke-width:2; stroke-opacity:0.1; fill:none" points="2004.96,1908.12 3552.76,1908.12 "/>
<polyline clip-path="url(#clip883)" style="stroke:#000000; stroke-linecap:round; stroke-linejoin:round; stroke-width:2; stroke-opacity:0.1; fill:none" points="2004.96,1727.28 3552.76,1727.28 "/>
<polyline clip-path="url(#clip883)" style="stroke:#000000; stroke-linecap:round; stroke-linejoin:round; stroke-width:2; stroke-opacity:0.1; fill:none" points="2004.96,1546.43 3552.76,1546.43 "/>
<polyline clip-path="url(#clip883)" style="stroke:#000000; stroke-linecap:round; stroke-linejoin:round; stroke-width:2; stroke-opacity:0.1; fill:none" points="2004.96,1365.59 3552.76,1365.59 "/>
<polyline clip-path="url(#clip880)" style="stroke:#000000; stroke-linecap:round; stroke-linejoin:round; stroke-width:4; stroke-opacity:1; fill:none" points="2004.96,2269.81 2004.96,1340.75 "/>
<polyline clip-path="url(#clip880)" style="stroke:#000000; stroke-linecap:round; stroke-linejoin:round; stroke-width:4; stroke-opacity:1; fill:none" points="2004.96,2269.81 2023.86,2269.81 "/>
<polyline clip-path="url(#clip880)" style="stroke:#000000; stroke-linecap:round; stroke-linejoin:round; stroke-width:4; stroke-opacity:1; fill:none" points="2004.96,2088.96 2023.86,2088.96 "/>
<polyline clip-path="url(#clip880)" style="stroke:#000000; stroke-linecap:round; stroke-linejoin:round; stroke-width:4; stroke-opacity:1; fill:none" points="2004.96,1908.12 2023.86,1908.12 "/>
<polyline clip-path="url(#clip880)" style="stroke:#000000; stroke-linecap:round; stroke-linejoin:round; stroke-width:4; stroke-opacity:1; fill:none" points="2004.96,1727.28 2023.86,1727.28 "/>
<polyline clip-path="url(#clip880)" style="stroke:#000000; stroke-linecap:round; stroke-linejoin:round; stroke-width:4; stroke-opacity:1; fill:none" points="2004.96,1546.43 2023.86,1546.43 "/>
<polyline clip-path="url(#clip880)" style="stroke:#000000; stroke-linecap:round; stroke-linejoin:round; stroke-width:4; stroke-opacity:1; fill:none" points="2004.96,1365.59 2023.86,1365.59 "/>
<path clip-path="url(#clip880)" d="M1936.03 2252.06 Q1931.51 2252.06 1929.23 2256.51 Q1926.97 2260.94 1926.97 2269.85 Q1926.97 2278.73 1929.23 2283.19 Q1931.51 2287.62 1936.03 2287.62 Q1940.57 2287.62 1942.83 2283.19 Q1945.11 2278.73 1945.11 2269.85 Q1945.11 2260.94 1942.83 2256.51 Q1940.57 2252.06 1936.03 2252.06 M1936.03 2247.43 Q1943.29 2247.43 1947.11 2253.18 Q1950.96 2258.91 1950.96 2269.85 Q1950.96 2280.76 1947.11 2286.52 Q1943.29 2292.25 1936.03 2292.25 Q1928.77 2292.25 1924.92 2286.52 Q1921.1 2280.76 1921.1 2269.85 Q1921.1 2258.91 1924.92 2253.18 Q1928.77 2247.43 1936.03 2247.43 Z" fill="#000000" fill-rule="nonzero" fill-opacity="1" /><path clip-path="url(#clip880)" d="M1924.83 2067.36 L1947.78 2067.36 L1947.78 2072.28 L1930.18 2072.28 L1930.18 2082.87 Q1931.46 2082.44 1932.73 2082.24 Q1934 2082.01 1935.28 2082.01 Q1942.51 2082.01 1946.73 2085.97 Q1950.96 2089.93 1950.96 2096.7 Q1950.96 2103.68 1946.62 2107.55 Q1942.28 2111.4 1934.38 2111.4 Q1931.66 2111.4 1928.82 2110.94 Q1926.02 2110.48 1923.01 2109.55 L1923.01 2103.68 Q1925.61 2105.1 1928.39 2105.79 Q1931.17 2106.48 1934.26 2106.48 Q1939.27 2106.48 1942.19 2103.85 Q1945.11 2101.22 1945.11 2096.7 Q1945.11 2092.19 1942.19 2089.56 Q1939.27 2086.92 1934.26 2086.92 Q1931.92 2086.92 1929.58 2087.44 Q1927.26 2087.97 1924.83 2089.07 L1924.83 2067.36 Z" fill="#000000" fill-rule="nonzero" fill-opacity="1" /><path clip-path="url(#clip880)" d="M1886.84 1924.8 L1896.39 1924.8 L1896.39 1891.84 L1886 1893.93 L1886 1888.6 L1896.33 1886.52 L1902.17 1886.52 L1902.17 1924.8 L1911.72 1924.8 L1911.72 1929.72 L1886.84 1929.72 L1886.84 1924.8 Z" fill="#000000" fill-rule="nonzero" fill-opacity="1" /><path clip-path="url(#clip880)" d="M1936.03 1890.37 Q1931.51 1890.37 1929.23 1894.82 Q1926.97 1899.25 1926.97 1908.16 Q1926.97 1917.05 1929.23 1921.5 Q1931.51 1925.93 1936.03 1925.93 Q1940.57 1925.93 1942.83 1921.5 Q1945.11 1917.05 1945.11 1908.16 Q1945.11 1899.25 1942.83 1894.82 Q1940.57 1890.37 1936.03 1890.37 M1936.03 1885.74 Q1943.29 1885.74 1947.11 1891.5 Q1950.96 1897.23 1950.96 1908.16 Q1950.96 1919.07 1947.11 1924.83 Q1943.29 1930.56 1936.03 1930.56 Q1928.77 1930.56 1924.92 1924.83 Q1921.1 1919.07 1921.1 1908.16 Q1921.1 1897.23 1924.92 1891.5 Q1928.77 1885.74 1936.03 1885.74 Z" fill="#000000" fill-rule="nonzero" fill-opacity="1" /><path clip-path="url(#clip880)" d="M1888.08 1743.96 L1897.63 1743.96 L1897.63 1711 L1887.24 1713.08 L1887.24 1707.76 L1897.57 1705.68 L1903.42 1705.68 L1903.42 1743.96 L1912.97 1743.96 L1912.97 1748.88 L1888.08 1748.88 L1888.08 1743.96 Z" fill="#000000" fill-rule="nonzero" fill-opacity="1" /><path clip-path="url(#clip880)" d="M1924.83 1705.68 L1947.78 1705.68 L1947.78 1710.59 L1930.18 1710.59 L1930.18 1721.19 Q1931.46 1720.75 1932.73 1720.55 Q1934 1720.32 1935.28 1720.32 Q1942.51 1720.32 1946.73 1724.28 Q1950.96 1728.25 1950.96 1735.02 Q1950.96 1741.99 1946.62 1745.87 Q1942.28 1749.72 1934.38 1749.72 Q1931.66 1749.72 1928.82 1749.25 Q1926.02 1748.79 1923.01 1747.86 L1923.01 1741.99 Q1925.61 1743.41 1928.39 1744.1 Q1931.17 1744.8 1934.26 1744.8 Q1939.27 1744.8 1942.19 1742.16 Q1945.11 1739.53 1945.11 1735.02 Q1945.11 1730.5 1942.19 1727.87 Q1939.27 1725.24 1934.26 1725.24 Q1931.92 1725.24 1929.58 1725.76 Q1927.26 1726.28 1924.83 1727.38 L1924.83 1705.68 Z" fill="#000000" fill-rule="nonzero" fill-opacity="1" /><path clip-path="url(#clip880)" d="M1890.86 1563.11 L1911.26 1563.11 L1911.26 1568.03 L1883.83 1568.03 L1883.83 1563.11 Q1887.16 1559.67 1892.89 1553.88 Q1898.64 1548.07 1900.12 1546.39 Q1902.93 1543.23 1904.03 1541.06 Q1905.15 1538.87 1905.15 1536.75 Q1905.15 1533.31 1902.72 1531.14 Q1900.32 1528.97 1896.45 1528.97 Q1893.7 1528.97 1890.63 1529.92 Q1887.59 1530.88 1884.12 1532.82 L1884.12 1526.92 Q1887.65 1525.5 1890.72 1524.77 Q1893.78 1524.05 1896.33 1524.05 Q1903.04 1524.05 1907.04 1527.41 Q1911.03 1530.76 1911.03 1536.38 Q1911.03 1539.04 1910.02 1541.44 Q1909.03 1543.81 1906.4 1547.05 Q1905.68 1547.89 1901.8 1551.92 Q1897.92 1555.91 1890.86 1563.11 Z" fill="#000000" fill-rule="nonzero" fill-opacity="1" /><path clip-path="url(#clip880)" d="M1936.03 1528.68 Q1931.51 1528.68 1929.23 1533.14 Q1926.97 1537.56 1926.97 1546.48 Q1926.97 1555.36 1929.23 1559.81 Q1931.51 1564.24 1936.03 1564.24 Q1940.57 1564.24 1942.83 1559.81 Q1945.11 1555.36 1945.11 1546.48 Q1945.11 1537.56 1942.83 1533.14 Q1940.57 1528.68 1936.03 1528.68 M1936.03 1524.05 Q1943.29 1524.05 1947.11 1529.81 Q1950.96 1535.54 1950.96 1546.48 Q1950.96 1557.38 1947.11 1563.14 Q1943.29 1568.87 1936.03 1568.87 Q1928.77 1568.87 1924.92 1563.14 Q1921.1 1557.38 1921.1 1546.48 Q1921.1 1535.54 1924.92 1529.81 Q1928.77 1524.05 1936.03 1524.05 Z" fill="#000000" fill-rule="nonzero" fill-opacity="1" /><path clip-path="url(#clip880)" d="M1892.1 1382.27 L1912.5 1382.27 L1912.5 1387.19 L1885.07 1387.19 L1885.07 1382.27 Q1888.4 1378.83 1894.13 1373.04 Q1899.89 1367.22 1901.36 1365.54 Q1904.17 1362.39 1905.27 1360.22 Q1906.4 1358.02 1906.4 1355.91 Q1906.4 1352.47 1903.97 1350.3 Q1901.57 1348.13 1897.69 1348.13 Q1894.94 1348.13 1891.87 1349.08 Q1888.84 1350.04 1885.36 1351.97 L1885.36 1346.07 Q1888.89 1344.65 1891.96 1343.93 Q1895.03 1343.21 1897.57 1343.21 Q1904.29 1343.21 1908.28 1346.56 Q1912.27 1349.92 1912.27 1355.53 Q1912.27 1358.2 1911.26 1360.6 Q1910.28 1362.97 1907.64 1366.21 Q1906.92 1367.05 1903.04 1371.07 Q1899.17 1375.06 1892.1 1382.27 Z" fill="#000000" fill-rule="nonzero" fill-opacity="1" /><path clip-path="url(#clip880)" d="M1924.83 1343.99 L1947.78 1343.99 L1947.78 1348.91 L1930.18 1348.91 L1930.18 1359.5 Q1931.46 1359.06 1932.73 1358.86 Q1934 1358.63 1935.28 1358.63 Q1942.51 1358.63 1946.73 1362.59 Q1950.96 1366.56 1950.96 1373.33 Q1950.96 1380.3 1946.62 1384.18 Q1942.28 1388.03 1934.38 1388.03 Q1931.66 1388.03 1928.82 1387.56 Q1926.02 1387.1 1923.01 1386.18 L1923.01 1380.3 Q1925.61 1381.72 1928.39 1382.41 Q1931.17 1383.11 1934.26 1383.11 Q1939.27 1383.11 1942.19 1380.48 Q1945.11 1377.84 1945.11 1373.33 Q1945.11 1368.81 1942.19 1366.18 Q1939.27 1363.55 1934.26 1363.55 Q1931.92 1363.55 1929.58 1364.07 Q1927.26 1364.59 1924.83 1365.69 L1924.83 1343.99 Z" fill="#000000" fill-rule="nonzero" fill-opacity="1" /><path clip-path="url(#clip880)" d="M2740.16 1282.22 L2740.16 1261.33 L2722.97 1261.33 L2722.97 1252.69 L2750.58 1252.69 L2750.58 1286.07 Q2744.48 1290.4 2737.14 1292.63 Q2729.8 1294.82 2721.46 1294.82 Q2703.23 1294.82 2692.92 1284.2 Q2682.66 1273.52 2682.66 1254.51 Q2682.66 1235.45 2692.92 1224.82 Q2703.23 1214.15 2721.46 1214.15 Q2729.07 1214.15 2735.89 1216.02 Q2742.76 1217.9 2748.55 1221.54 L2748.55 1232.74 Q2742.71 1227.79 2736.15 1225.29 Q2729.59 1222.79 2722.35 1222.79 Q2708.08 1222.79 2700.89 1230.76 Q2693.75 1238.73 2693.75 1254.51 Q2693.75 1270.24 2700.89 1278.21 Q2708.08 1286.18 2722.35 1286.18 Q2727.92 1286.18 2732.3 1285.24 Q2736.67 1284.25 2740.16 1282.22 Z" fill="#000000" fill-rule="nonzero" fill-opacity="1" /><path clip-path="url(#clip880)" d="M2795.89 1263.99 Q2784.27 1263.99 2779.79 1266.65 Q2775.32 1269.3 2775.32 1275.71 Q2775.32 1280.81 2778.65 1283.83 Q2782.03 1286.8 2787.82 1286.8 Q2795.78 1286.8 2800.58 1281.18 Q2805.42 1275.5 2805.42 1266.12 L2805.42 1263.99 L2795.89 1263.99 M2815 1260.03 L2815 1293.31 L2805.42 1293.31 L2805.42 1284.46 Q2802.14 1289.77 2797.24 1292.32 Q2792.35 1294.82 2785.26 1294.82 Q2776.31 1294.82 2770.99 1289.82 Q2765.73 1284.77 2765.73 1276.33 Q2765.73 1266.49 2772.29 1261.49 Q2778.91 1256.49 2791.98 1256.49 L2805.42 1256.49 L2805.42 1255.55 Q2805.42 1248.94 2801.04 1245.34 Q2796.72 1241.7 2788.86 1241.7 Q2783.86 1241.7 2779.12 1242.9 Q2774.38 1244.09 2770 1246.49 L2770 1237.64 Q2775.26 1235.6 2780.21 1234.61 Q2785.16 1233.57 2789.85 1233.57 Q2802.5 1233.57 2808.75 1240.14 Q2815 1246.7 2815 1260.03 Z" fill="#000000" fill-rule="nonzero" fill-opacity="1" /><path clip-path="url(#clip880)" d="M2871.93 1236.7 L2871.93 1245.76 Q2867.87 1243.68 2863.49 1242.64 Q2859.12 1241.59 2854.43 1241.59 Q2847.29 1241.59 2843.7 1243.78 Q2840.16 1245.97 2840.16 1250.34 Q2840.16 1253.68 2842.71 1255.6 Q2845.26 1257.48 2852.97 1259.2 L2856.25 1259.93 Q2866.46 1262.11 2870.73 1266.12 Q2875.05 1270.08 2875.05 1277.22 Q2875.05 1285.34 2868.6 1290.08 Q2862.19 1294.82 2850.94 1294.82 Q2846.25 1294.82 2841.15 1293.88 Q2836.1 1293 2830.47 1291.18 L2830.47 1281.28 Q2835.78 1284.04 2840.94 1285.45 Q2846.1 1286.8 2851.15 1286.8 Q2857.92 1286.8 2861.57 1284.51 Q2865.21 1282.17 2865.21 1277.95 Q2865.21 1274.04 2862.55 1271.96 Q2859.95 1269.87 2851.04 1267.95 L2847.71 1267.17 Q2838.8 1265.29 2834.85 1261.44 Q2830.89 1257.53 2830.89 1250.76 Q2830.89 1242.53 2836.72 1238.05 Q2842.55 1233.57 2853.28 1233.57 Q2858.6 1233.57 2863.28 1234.35 Q2867.97 1235.14 2871.93 1236.7 Z" fill="#000000" fill-rule="nonzero" fill-opacity="1" /><path clip-path="url(#clip883)" d="M2090.09 1673.02 L2090.09 2269.81 L2702.33 2269.81 L2702.33 1673.02 L2090.09 1673.02 L2090.09 1673.02  Z" fill="#009af9" fill-rule="evenodd" fill-opacity="1"/>
<polyline clip-path="url(#clip883)" style="stroke:#000000; stroke-linecap:round; stroke-linejoin:round; stroke-width:4; stroke-opacity:1; fill:none" points="2090.09,1673.02 2090.09,2269.81 2702.33,2269.81 2702.33,1673.02 2090.09,1673.02 "/>
<path clip-path="url(#clip883)" d="M2855.39 1340.75 L2855.39 2269.81 L3467.62 2269.81 L3467.62 1340.75 L2855.39 1340.75 L2855.39 1340.75  Z" fill="#009af9" fill-rule="evenodd" fill-opacity="1"/>
<polyline clip-path="url(#clip883)" style="stroke:#000000; stroke-linecap:round; stroke-linejoin:round; stroke-width:4; stroke-opacity:1; fill:none" points="2855.39,1340.75 2855.39,2269.81 3467.62,2269.81 3467.62,1340.75 2855.39,1340.75 "/>
<circle clip-path="url(#clip883)" style="fill:#009af9; stroke:none; fill-opacity:0" cx="2396.21" cy="1673.02" r="2"/>
<circle clip-path="url(#clip883)" style="fill:#009af9; stroke:none; fill-opacity:0" cx="3161.51" cy="1340.75" r="2"/>
<path clip-path="url(#clip880)" d="M2056.55 1501.32 L2276.87 1501.32 L2276.87 1371.72 L2056.55 1371.72  Z" fill="#ffffff" fill-rule="evenodd" fill-opacity="1"/>
<polyline clip-path="url(#clip880)" style="stroke:#000000; stroke-linecap:round; stroke-linejoin:round; stroke-width:4; stroke-opacity:1; fill:none" points="2056.55,1501.32 2276.87,1501.32 2276.87,1371.72 2056.55,1371.72 2056.55,1501.32 "/>
<path clip-path="url(#clip880)" d="M2073.75 1462.44 L2176.94 1462.44 L2176.94 1410.6 L2073.75 1410.6 L2073.75 1462.44  Z" fill="#009af9" fill-rule="evenodd" fill-opacity="1"/>
<polyline clip-path="url(#clip880)" style="stroke:#000000; stroke-linecap:round; stroke-linejoin:round; stroke-width:5; stroke-opacity:1; fill:none" points="2073.75,1462.44 2176.94,1462.44 2176.94,1410.6 2073.75,1410.6 2073.75,1462.44 "/>
<path clip-path="url(#clip880)" d="M2211.44 1461.13 Q2209.18 1466.92 2207.04 1468.68 Q2204.9 1470.45 2201.31 1470.45 L2197.06 1470.45 L2197.06 1465.99 L2200.18 1465.99 Q2202.38 1465.99 2203.6 1464.95 Q2204.81 1463.91 2206.29 1460.03 L2207.24 1457.6 L2194.13 1425.71 L2199.78 1425.71 L2209.9 1451.06 L2220.03 1425.71 L2225.67 1425.71 L2211.44 1461.13 Z" fill="#000000" fill-rule="nonzero" fill-opacity="1" /><path clip-path="url(#clip880)" d="M2234.79 1453.2 L2244.34 1453.2 L2244.34 1420.24 L2233.95 1422.33 L2233.95 1417 L2244.28 1414.92 L2250.12 1414.92 L2250.12 1453.2 L2259.67 1453.2 L2259.67 1458.12 L2234.79 1458.12 L2234.79 1453.2 Z" fill="#000000" fill-rule="nonzero" fill-opacity="1" /><path clip-path="url(#clip880)" d="M243.796 1200 L3552.76 1200 L3552.76 1.33227e-13 L243.796 1.33227e-13  Z" fill="#ffffff" fill-rule="evenodd" fill-opacity="1"/>
<defs>
  <clipPath id="clip884">
    <rect x="243" y="0" width="3310" height="1201"/>
  </clipPath>
</defs>
<path clip-path="url(#clip880)" d="M566.551 18.144 L584.841 18.144 L607.992 79.8798 L631.265 18.144 L649.554 18.144 L649.554 108.864 L637.584 108.864 L637.584 29.203 L614.19 91.4249 L601.855 91.4249 L578.461 29.203 L578.461 108.864 L566.551 108.864 L566.551 18.144 Z" fill="#000000" fill-rule="nonzero" fill-opacity="1" /><path clip-path="url(#clip880)" d="M731.646 72.0413 L731.646 77.51 L680.24 77.51 Q680.969 89.0551 687.167 95.1314 Q693.426 101.147 704.545 101.147 Q710.986 101.147 717.002 99.5672 Q723.078 97.9873 729.033 94.8276 L729.033 105.4 Q723.018 107.953 716.698 109.289 Q710.379 110.626 703.877 110.626 Q687.592 110.626 678.053 101.147 Q668.573 91.6679 668.573 75.5048 Q668.573 58.7948 677.566 49.0119 Q686.62 39.1682 701.933 39.1682 Q715.665 39.1682 723.625 48.0397 Q731.646 56.8504 731.646 72.0413 M720.466 68.76 Q720.344 59.5848 715.301 54.116 Q710.318 48.6473 702.054 48.6473 Q692.697 48.6473 687.046 53.9337 Q681.455 59.2202 680.605 68.8208 L720.466 68.76 Z" fill="#000000" fill-rule="nonzero" fill-opacity="1" /><path clip-path="url(#clip880)" d="M780.925 74.6541 Q767.375 74.6541 762.149 77.7531 Q756.924 80.852 756.924 88.3259 Q756.924 94.2807 760.813 97.805 Q764.762 101.269 771.507 101.269 Q780.804 101.269 786.394 94.7061 Q792.045 88.0829 792.045 77.1454 L792.045 74.6541 L780.925 74.6541 M803.225 70.0361 L803.225 108.864 L792.045 108.864 L792.045 98.5342 Q788.217 104.732 782.505 107.709 Q776.793 110.626 768.529 110.626 Q758.078 110.626 751.88 104.793 Q745.743 98.8988 745.743 89.0551 Q745.743 77.5708 753.399 71.7375 Q761.116 65.9042 776.368 65.9042 L792.045 65.9042 L792.045 64.8104 Q792.045 57.0934 786.941 52.9008 Q781.897 48.6473 772.722 48.6473 Q766.889 48.6473 761.359 50.0449 Q755.83 51.4424 750.726 54.2376 L750.726 43.9078 Q756.863 41.538 762.635 40.3835 Q768.408 39.1682 773.877 39.1682 Q788.642 39.1682 795.934 46.8244 Q803.225 54.4806 803.225 70.0361 Z" fill="#000000" fill-rule="nonzero" fill-opacity="1" /><path clip-path="url(#clip880)" d="M882.826 67.7878 L882.826 108.864 L871.645 108.864 L871.645 68.1524 Q871.645 58.491 867.878 53.6907 Q864.111 48.8904 856.576 48.8904 Q847.522 48.8904 842.296 54.6629 Q837.071 60.4354 837.071 70.4007 L837.071 108.864 L825.83 108.864 L825.83 40.8088 L837.071 40.8088 L837.071 51.3817 Q841.081 45.2445 846.489 42.2064 Q851.958 39.1682 859.067 39.1682 Q870.795 39.1682 876.81 46.4598 Q882.826 53.6907 882.826 67.7878 Z" fill="#000000" fill-rule="nonzero" fill-opacity="1" /><path clip-path="url(#clip880)" d="M955.499 98.6557 L955.499 134.749 L944.258 134.749 L944.258 40.8088 L955.499 40.8088 L955.499 51.1386 Q959.023 45.0623 964.37 42.1456 Q969.778 39.1682 977.252 39.1682 Q989.648 39.1682 997.365 49.0119 Q1005.14 58.8556 1005.14 74.8972 Q1005.14 90.9387 997.365 100.782 Q989.648 110.626 977.252 110.626 Q969.778 110.626 964.37 107.709 Q959.023 104.732 955.499 98.6557 M993.537 74.8972 Q993.537 62.5622 988.433 55.5744 Q983.389 48.5258 974.518 48.5258 Q965.646 48.5258 960.542 55.5744 Q955.499 62.5622 955.499 74.8972 Q955.499 87.2322 960.542 94.2807 Q965.646 101.269 974.518 101.269 Q983.389 101.269 988.433 94.2807 Q993.537 87.2322 993.537 74.8972 Z" fill="#000000" fill-rule="nonzero" fill-opacity="1" /><path clip-path="url(#clip880)" d="M1023.68 14.3159 L1034.86 14.3159 L1034.86 108.864 L1023.68 108.864 L1023.68 14.3159 Z" fill="#000000" fill-rule="nonzero" fill-opacity="1" /><path clip-path="url(#clip880)" d="M1089.18 74.6541 Q1075.63 74.6541 1070.4 77.7531 Q1065.18 80.852 1065.18 88.3259 Q1065.18 94.2807 1069.07 97.805 Q1073.02 101.269 1079.76 101.269 Q1089.06 101.269 1094.65 94.7061 Q1100.3 88.0829 1100.3 77.1454 L1100.3 74.6541 L1089.18 74.6541 M1111.48 70.0361 L1111.48 108.864 L1100.3 108.864 L1100.3 98.5342 Q1096.47 104.732 1090.76 107.709 Q1085.05 110.626 1076.78 110.626 Q1066.33 110.626 1060.13 104.793 Q1054 98.8988 1054 89.0551 Q1054 77.5708 1061.65 71.7375 Q1069.37 65.9042 1084.62 65.9042 L1100.3 65.9042 L1100.3 64.8104 Q1100.3 57.0934 1095.19 52.9008 Q1090.15 48.6473 1080.98 48.6473 Q1075.14 48.6473 1069.61 50.0449 Q1064.08 51.4424 1058.98 54.2376 L1058.98 43.9078 Q1065.12 41.538 1070.89 40.3835 Q1076.66 39.1682 1082.13 39.1682 Q1096.9 39.1682 1104.19 46.8244 Q1111.48 54.4806 1111.48 70.0361 Z" fill="#000000" fill-rule="nonzero" fill-opacity="1" /><path clip-path="url(#clip880)" d="M1191.08 67.7878 L1191.08 108.864 L1179.9 108.864 L1179.9 68.1524 Q1179.9 58.491 1176.13 53.6907 Q1172.36 48.8904 1164.83 48.8904 Q1155.78 48.8904 1150.55 54.6629 Q1145.32 60.4354 1145.32 70.4007 L1145.32 108.864 L1134.08 108.864 L1134.08 40.8088 L1145.32 40.8088 L1145.32 51.3817 Q1149.33 45.2445 1154.74 42.2064 Q1160.21 39.1682 1167.32 39.1682 Q1179.05 39.1682 1185.06 46.4598 Q1191.08 53.6907 1191.08 67.7878 Z" fill="#000000" fill-rule="nonzero" fill-opacity="1" /><path clip-path="url(#clip880)" d="M1224.44 21.486 L1224.44 40.8088 L1247.47 40.8088 L1247.47 49.498 L1224.44 49.498 L1224.44 86.4422 Q1224.44 94.7669 1226.69 97.1366 Q1229 99.5064 1235.98 99.5064 L1247.47 99.5064 L1247.47 108.864 L1235.98 108.864 Q1223.04 108.864 1218.12 104.064 Q1213.2 99.2026 1213.2 86.4422 L1213.2 49.498 L1204.99 49.498 L1204.99 40.8088 L1213.2 40.8088 L1213.2 21.486 L1224.44 21.486 Z" fill="#000000" fill-rule="nonzero" fill-opacity="1" /><path clip-path="url(#clip880)" d="M1332.66 74.6541 Q1319.11 74.6541 1313.88 77.7531 Q1308.66 80.852 1308.66 88.3259 Q1308.66 94.2807 1312.55 97.805 Q1316.5 101.269 1323.24 101.269 Q1332.54 101.269 1338.13 94.7061 Q1343.78 88.0829 1343.78 77.1454 L1343.78 74.6541 L1332.66 74.6541 M1354.96 70.0361 L1354.96 108.864 L1343.78 108.864 L1343.78 98.5342 Q1339.95 104.732 1334.24 107.709 Q1328.53 110.626 1320.26 110.626 Q1309.81 110.626 1303.61 104.793 Q1297.48 98.8988 1297.48 89.0551 Q1297.48 77.5708 1305.13 71.7375 Q1312.85 65.9042 1328.1 65.9042 L1343.78 65.9042 L1343.78 64.8104 Q1343.78 57.0934 1338.67 52.9008 Q1333.63 48.6473 1324.46 48.6473 Q1318.62 48.6473 1313.09 50.0449 Q1307.56 51.4424 1302.46 54.2376 L1302.46 43.9078 Q1308.6 41.538 1314.37 40.3835 Q1320.14 39.1682 1325.61 39.1682 Q1340.38 39.1682 1347.67 46.8244 Q1354.96 54.4806 1354.96 70.0361 Z" fill="#000000" fill-rule="nonzero" fill-opacity="1" /><path clip-path="url(#clip880)" d="M1422.77 74.0465 Q1422.77 61.8938 1417.73 55.2098 Q1412.74 48.5258 1403.69 48.5258 Q1394.7 48.5258 1389.65 55.2098 Q1384.67 61.8938 1384.67 74.0465 Q1384.67 86.1384 1389.65 92.8224 Q1394.7 99.5064 1403.69 99.5064 Q1412.74 99.5064 1417.73 92.8224 Q1422.77 86.1384 1422.77 74.0465 M1433.95 100.418 Q1433.95 117.796 1426.23 126.242 Q1418.52 134.749 1402.6 134.749 Q1396.7 134.749 1391.48 133.838 Q1386.25 132.987 1381.33 131.164 L1381.33 120.288 Q1386.25 122.961 1391.05 124.237 Q1395.85 125.513 1400.84 125.513 Q1411.83 125.513 1417.3 119.741 Q1422.77 114.029 1422.77 102.423 L1422.77 96.8936 Q1419.31 102.909 1413.9 105.887 Q1408.49 108.864 1400.96 108.864 Q1388.44 108.864 1380.78 99.3241 Q1373.13 89.7842 1373.13 74.0465 Q1373.13 58.248 1380.78 48.7081 Q1388.44 39.1682 1400.96 39.1682 Q1408.49 39.1682 1413.9 42.1456 Q1419.31 45.123 1422.77 51.1386 L1422.77 40.8088 L1433.95 40.8088 L1433.95 100.418 Z" fill="#000000" fill-rule="nonzero" fill-opacity="1" /><path clip-path="url(#clip880)" d="M1515.19 72.0413 L1515.19 77.51 L1463.79 77.51 Q1464.52 89.0551 1470.71 95.1314 Q1476.97 101.147 1488.09 101.147 Q1494.53 101.147 1500.55 99.5672 Q1506.62 97.9873 1512.58 94.8276 L1512.58 105.4 Q1506.56 107.953 1500.24 109.289 Q1493.92 110.626 1487.42 110.626 Q1471.14 110.626 1461.6 101.147 Q1452.12 91.6679 1452.12 75.5048 Q1452.12 58.7948 1461.11 49.0119 Q1470.17 39.1682 1485.48 39.1682 Q1499.21 39.1682 1507.17 48.0397 Q1515.19 56.8504 1515.19 72.0413 M1504.01 68.76 Q1503.89 59.5848 1498.85 54.116 Q1493.86 48.6473 1485.6 48.6473 Q1476.24 48.6473 1470.59 53.9337 Q1465 59.2202 1464.15 68.8208 L1504.01 68.76 Z" fill="#000000" fill-rule="nonzero" fill-opacity="1" /><path clip-path="url(#clip880)" d="M1621.95 74.8972 Q1621.95 62.5622 1616.85 55.5744 Q1611.81 48.5258 1602.93 48.5258 Q1594.06 48.5258 1588.96 55.5744 Q1583.92 62.5622 1583.92 74.8972 Q1583.92 87.2322 1588.96 94.2807 Q1594.06 101.269 1602.93 101.269 Q1611.81 101.269 1616.85 94.2807 Q1621.95 87.2322 1621.95 74.8972 M1583.92 51.1386 Q1587.44 45.0623 1592.79 42.1456 Q1598.2 39.1682 1605.67 39.1682 Q1618.06 39.1682 1625.78 49.0119 Q1633.56 58.8556 1633.56 74.8972 Q1633.56 90.9387 1625.78 100.782 Q1618.06 110.626 1605.67 110.626 Q1598.2 110.626 1592.79 107.709 Q1587.44 104.732 1583.92 98.6557 L1583.92 108.864 L1572.67 108.864 L1572.67 14.3159 L1583.92 14.3159 L1583.92 51.1386 Z" fill="#000000" fill-rule="nonzero" fill-opacity="1" /><path clip-path="url(#clip880)" d="M1680.41 115.183 Q1675.67 127.336 1671.17 131.043 Q1666.68 134.749 1659.14 134.749 L1650.21 134.749 L1650.21 125.392 L1656.77 125.392 Q1661.39 125.392 1663.94 123.204 Q1666.49 121.017 1669.59 112.874 L1671.6 107.77 L1644.07 40.8088 L1655.92 40.8088 L1677.19 94.0377 L1698.46 40.8088 L1710.3 40.8088 L1680.41 115.183 Z" fill="#000000" fill-rule="nonzero" fill-opacity="1" /><path clip-path="url(#clip880)" d="M1814.27 43.4216 L1814.27 53.873 Q1809.53 51.2601 1804.73 49.9841 Q1799.99 48.6473 1795.13 48.6473 Q1784.25 48.6473 1778.24 55.5744 Q1772.22 62.4406 1772.22 74.8972 Q1772.22 87.3537 1778.24 94.2807 Q1784.25 101.147 1795.13 101.147 Q1799.99 101.147 1804.73 99.871 Q1809.53 98.5342 1814.27 95.9214 L1814.27 106.251 Q1809.59 108.439 1804.55 109.532 Q1799.57 110.626 1793.91 110.626 Q1778.54 110.626 1769.49 100.965 Q1760.43 91.3033 1760.43 74.8972 Q1760.43 58.248 1769.55 48.7081 Q1778.72 39.1682 1794.64 39.1682 Q1799.81 39.1682 1804.73 40.2619 Q1809.65 41.2949 1814.27 43.4216 Z" fill="#000000" fill-rule="nonzero" fill-opacity="1" /><path clip-path="url(#clip880)" d="M1860.09 48.6473 Q1851.09 48.6473 1845.87 55.6959 Q1840.64 62.6837 1840.64 74.8972 Q1840.64 87.1106 1845.81 94.1592 Q1851.03 101.147 1860.09 101.147 Q1869.02 101.147 1874.24 94.0985 Q1879.47 87.0499 1879.47 74.8972 Q1879.47 62.8052 1874.24 55.7566 Q1869.02 48.6473 1860.09 48.6473 M1860.09 39.1682 Q1874.67 39.1682 1882.99 48.6473 Q1891.32 58.1264 1891.32 74.8972 Q1891.32 91.6071 1882.99 101.147 Q1874.67 110.626 1860.09 110.626 Q1845.44 110.626 1837.12 101.147 Q1828.85 91.6071 1828.85 74.8972 Q1828.85 58.1264 1837.12 48.6473 Q1845.44 39.1682 1860.09 39.1682 Z" fill="#000000" fill-rule="nonzero" fill-opacity="1" /><path clip-path="url(#clip880)" d="M1908.7 82.0065 L1908.7 40.8088 L1919.88 40.8088 L1919.88 81.5812 Q1919.88 91.2426 1923.64 96.1037 Q1927.41 100.904 1934.95 100.904 Q1944 100.904 1949.23 95.1314 Q1954.51 89.3589 1954.51 79.3937 L1954.51 40.8088 L1965.69 40.8088 L1965.69 108.864 L1954.51 108.864 L1954.51 98.4127 Q1950.44 104.611 1945.03 107.649 Q1939.69 110.626 1932.58 110.626 Q1920.85 110.626 1914.77 103.335 Q1908.7 96.0429 1908.7 82.0065 M1936.83 39.1682 L1936.83 39.1682 Z" fill="#000000" fill-rule="nonzero" fill-opacity="1" /><path clip-path="url(#clip880)" d="M2045.29 67.7878 L2045.29 108.864 L2034.11 108.864 L2034.11 68.1524 Q2034.11 58.491 2030.35 53.6907 Q2026.58 48.8904 2019.04 48.8904 Q2009.99 48.8904 2004.76 54.6629 Q1999.54 60.4354 1999.54 70.4007 L1999.54 108.864 L1988.3 108.864 L1988.3 40.8088 L1999.54 40.8088 L1999.54 51.3817 Q2003.55 45.2445 2008.96 42.2064 Q2014.43 39.1682 2021.53 39.1682 Q2033.26 39.1682 2039.28 46.4598 Q2045.29 53.6907 2045.29 67.7878 Z" fill="#000000" fill-rule="nonzero" fill-opacity="1" /><path clip-path="url(#clip880)" d="M2078.65 21.486 L2078.65 40.8088 L2101.68 40.8088 L2101.68 49.498 L2078.65 49.498 L2078.65 86.4422 Q2078.65 94.7669 2080.9 97.1366 Q2083.21 99.5064 2090.2 99.5064 L2101.68 99.5064 L2101.68 108.864 L2090.2 108.864 Q2077.26 108.864 2072.33 104.064 Q2067.41 99.2026 2067.41 86.4422 L2067.41 49.498 L2059.21 49.498 L2059.21 40.8088 L2067.41 40.8088 L2067.41 21.486 L2078.65 21.486 Z" fill="#000000" fill-rule="nonzero" fill-opacity="1" /><path clip-path="url(#clip880)" d="M2155.82 51.2601 Q2153.94 50.1664 2151.69 49.6803 Q2149.5 49.1334 2146.83 49.1334 Q2137.35 49.1334 2132.25 55.3313 Q2127.2 61.4684 2127.2 73.0135 L2127.2 108.864 L2115.96 108.864 L2115.96 40.8088 L2127.2 40.8088 L2127.2 51.3817 Q2130.73 45.1838 2136.38 42.2064 Q2142.03 39.1682 2150.11 39.1682 Q2151.27 39.1682 2152.66 39.3505 Q2154.06 39.472 2155.76 39.7758 L2155.82 51.2601 Z" fill="#000000" fill-rule="nonzero" fill-opacity="1" /><path clip-path="url(#clip880)" d="M2195.87 115.183 Q2191.13 127.336 2186.63 131.043 Q2182.13 134.749 2174.6 134.749 L2165.67 134.749 L2165.67 125.392 L2172.23 125.392 Q2176.85 125.392 2179.4 123.204 Q2181.95 121.017 2185.05 112.874 L2187.05 107.77 L2159.53 40.8088 L2171.38 40.8088 L2192.65 94.0377 L2213.91 40.8088 L2225.76 40.8088 L2195.87 115.183 Z" fill="#000000" fill-rule="nonzero" fill-opacity="1" /><path clip-path="url(#clip880)" d="M2311.68 74.6541 Q2298.13 74.6541 2292.91 77.7531 Q2287.68 80.852 2287.68 88.3259 Q2287.68 94.2807 2291.57 97.805 Q2295.52 101.269 2302.26 101.269 Q2311.56 101.269 2317.15 94.7061 Q2322.8 88.0829 2322.8 77.1454 L2322.8 74.6541 L2311.68 74.6541 M2333.98 70.0361 L2333.98 108.864 L2322.8 108.864 L2322.8 98.5342 Q2318.97 104.732 2313.26 107.709 Q2307.55 110.626 2299.29 110.626 Q2288.83 110.626 2282.64 104.793 Q2276.5 98.8988 2276.5 89.0551 Q2276.5 77.5708 2284.16 71.7375 Q2291.87 65.9042 2307.12 65.9042 L2322.8 65.9042 L2322.8 64.8104 Q2322.8 57.0934 2317.7 52.9008 Q2312.65 48.6473 2303.48 48.6473 Q2297.64 48.6473 2292.12 50.0449 Q2286.59 51.4424 2281.48 54.2376 L2281.48 43.9078 Q2287.62 41.538 2293.39 40.3835 Q2299.16 39.1682 2304.63 39.1682 Q2319.4 39.1682 2326.69 46.8244 Q2333.98 54.4806 2333.98 70.0361 Z" fill="#000000" fill-rule="nonzero" fill-opacity="1" /><path clip-path="url(#clip880)" d="M2413.58 67.7878 L2413.58 108.864 L2402.4 108.864 L2402.4 68.1524 Q2402.4 58.491 2398.63 53.6907 Q2394.87 48.8904 2387.33 48.8904 Q2378.28 48.8904 2373.05 54.6629 Q2367.83 60.4354 2367.83 70.4007 L2367.83 108.864 L2356.59 108.864 L2356.59 40.8088 L2367.83 40.8088 L2367.83 51.3817 Q2371.84 45.2445 2377.24 42.2064 Q2382.71 39.1682 2389.82 39.1682 Q2401.55 39.1682 2407.57 46.4598 Q2413.58 53.6907 2413.58 67.7878 Z" fill="#000000" fill-rule="nonzero" fill-opacity="1" /><path clip-path="url(#clip880)" d="M2480.66 51.1386 L2480.66 14.3159 L2491.84 14.3159 L2491.84 108.864 L2480.66 108.864 L2480.66 98.6557 Q2477.14 104.732 2471.73 107.709 Q2466.38 110.626 2458.85 110.626 Q2446.52 110.626 2438.74 100.782 Q2431.02 90.9387 2431.02 74.8972 Q2431.02 58.8556 2438.74 49.0119 Q2446.52 39.1682 2458.85 39.1682 Q2466.38 39.1682 2471.73 42.1456 Q2477.14 45.0623 2480.66 51.1386 M2442.57 74.8972 Q2442.57 87.2322 2447.61 94.2807 Q2452.71 101.269 2461.58 101.269 Q2470.46 101.269 2475.56 94.2807 Q2480.66 87.2322 2480.66 74.8972 Q2480.66 62.5622 2475.56 55.5744 Q2470.46 48.5258 2461.58 48.5258 Q2452.71 48.5258 2447.61 55.5744 Q2442.57 62.5622 2442.57 74.8972 Z" fill="#000000" fill-rule="nonzero" fill-opacity="1" /><path clip-path="url(#clip880)" d="M2565.49 21.486 L2565.49 40.8088 L2588.52 40.8088 L2588.52 49.498 L2565.49 49.498 L2565.49 86.4422 Q2565.49 94.7669 2567.74 97.1366 Q2570.05 99.5064 2577.04 99.5064 L2588.52 99.5064 L2588.52 108.864 L2577.04 108.864 Q2564.09 108.864 2559.17 104.064 Q2554.25 99.2026 2554.25 86.4422 L2554.25 49.498 L2546.05 49.498 L2546.05 40.8088 L2554.25 40.8088 L2554.25 21.486 L2565.49 21.486 Z" fill="#000000" fill-rule="nonzero" fill-opacity="1" /><path clip-path="url(#clip880)" d="M2661.44 72.0413 L2661.44 77.51 L2610.03 77.51 Q2610.76 89.0551 2616.96 95.1314 Q2623.22 101.147 2634.34 101.147 Q2640.78 101.147 2646.79 99.5672 Q2652.87 97.9873 2658.82 94.8276 L2658.82 105.4 Q2652.81 107.953 2646.49 109.289 Q2640.17 110.626 2633.67 110.626 Q2617.38 110.626 2607.84 101.147 Q2598.36 91.6679 2598.36 75.5048 Q2598.36 58.7948 2607.36 49.0119 Q2616.41 39.1682 2631.72 39.1682 Q2645.46 39.1682 2653.42 48.0397 Q2661.44 56.8504 2661.44 72.0413 M2650.26 68.76 Q2650.13 59.5848 2645.09 54.116 Q2640.11 48.6473 2631.84 48.6473 Q2622.49 48.6473 2616.84 53.9337 Q2611.25 59.2202 2610.39 68.8208 L2650.26 68.76 Z" fill="#000000" fill-rule="nonzero" fill-opacity="1" /><path clip-path="url(#clip880)" d="M2728.76 43.4216 L2728.76 53.873 Q2724.02 51.2601 2719.22 49.9841 Q2714.48 48.6473 2709.62 48.6473 Q2698.74 48.6473 2692.73 55.5744 Q2686.71 62.4406 2686.71 74.8972 Q2686.71 87.3537 2692.73 94.2807 Q2698.74 101.147 2709.62 101.147 Q2714.48 101.147 2719.22 99.871 Q2724.02 98.5342 2728.76 95.9214 L2728.76 106.251 Q2724.08 108.439 2719.04 109.532 Q2714.06 110.626 2708.41 110.626 Q2693.03 110.626 2683.98 100.965 Q2674.93 91.3033 2674.93 74.8972 Q2674.93 58.248 2684.04 48.7081 Q2693.22 39.1682 2709.14 39.1682 Q2714.3 39.1682 2719.22 40.2619 Q2724.14 41.2949 2728.76 43.4216 Z" fill="#000000" fill-rule="nonzero" fill-opacity="1" /><path clip-path="url(#clip880)" d="M2804.78 67.7878 L2804.78 108.864 L2793.6 108.864 L2793.6 68.1524 Q2793.6 58.491 2789.83 53.6907 Q2786.06 48.8904 2778.53 48.8904 Q2769.47 48.8904 2764.25 54.6629 Q2759.02 60.4354 2759.02 70.4007 L2759.02 108.864 L2747.78 108.864 L2747.78 14.3159 L2759.02 14.3159 L2759.02 51.3817 Q2763.03 45.2445 2768.44 42.2064 Q2773.91 39.1682 2781.02 39.1682 Q2792.75 39.1682 2798.76 46.4598 Q2804.78 53.6907 2804.78 67.7878 Z" fill="#000000" fill-rule="nonzero" fill-opacity="1" /><path clip-path="url(#clip880)" d="M2883.65 67.7878 L2883.65 108.864 L2872.47 108.864 L2872.47 68.1524 Q2872.47 58.491 2868.7 53.6907 Q2864.93 48.8904 2857.4 48.8904 Q2848.34 48.8904 2843.12 54.6629 Q2837.89 60.4354 2837.89 70.4007 L2837.89 108.864 L2826.65 108.864 L2826.65 40.8088 L2837.89 40.8088 L2837.89 51.3817 Q2841.9 45.2445 2847.31 42.2064 Q2852.78 39.1682 2859.89 39.1682 Q2871.62 39.1682 2877.63 46.4598 Q2883.65 53.6907 2883.65 67.7878 Z" fill="#000000" fill-rule="nonzero" fill-opacity="1" /><path clip-path="url(#clip880)" d="M2932.32 48.6473 Q2923.33 48.6473 2918.1 55.6959 Q2912.88 62.6837 2912.88 74.8972 Q2912.88 87.1106 2918.04 94.1592 Q2923.27 101.147 2932.32 101.147 Q2941.25 101.147 2946.48 94.0985 Q2951.7 87.0499 2951.7 74.8972 Q2951.7 62.8052 2946.48 55.7566 Q2941.25 48.6473 2932.32 48.6473 M2932.32 39.1682 Q2946.9 39.1682 2955.23 48.6473 Q2963.55 58.1264 2963.55 74.8972 Q2963.55 91.6071 2955.23 101.147 Q2946.9 110.626 2932.32 110.626 Q2917.68 110.626 2909.35 101.147 Q2901.09 91.6071 2901.09 74.8972 Q2901.09 58.1264 2909.35 48.6473 Q2917.68 39.1682 2932.32 39.1682 Z" fill="#000000" fill-rule="nonzero" fill-opacity="1" /><path clip-path="url(#clip880)" d="M2982.09 14.3159 L2993.27 14.3159 L2993.27 108.864 L2982.09 108.864 L2982.09 14.3159 Z" fill="#000000" fill-rule="nonzero" fill-opacity="1" /><path clip-path="url(#clip880)" d="M3043.03 48.6473 Q3034.04 48.6473 3028.81 55.6959 Q3023.59 62.6837 3023.59 74.8972 Q3023.59 87.1106 3028.75 94.1592 Q3033.98 101.147 3043.03 101.147 Q3051.96 101.147 3057.19 94.0985 Q3062.41 87.0499 3062.41 74.8972 Q3062.41 62.8052 3057.19 55.7566 Q3051.96 48.6473 3043.03 48.6473 M3043.03 39.1682 Q3057.61 39.1682 3065.94 48.6473 Q3074.26 58.1264 3074.26 74.8972 Q3074.26 91.6071 3065.94 101.147 Q3057.61 110.626 3043.03 110.626 Q3028.39 110.626 3020.06 101.147 Q3011.8 91.6071 3011.8 74.8972 Q3011.8 58.1264 3020.06 48.6473 Q3028.39 39.1682 3043.03 39.1682 Z" fill="#000000" fill-rule="nonzero" fill-opacity="1" /><path clip-path="url(#clip880)" d="M3137.58 74.0465 Q3137.58 61.8938 3132.54 55.2098 Q3127.55 48.5258 3118.5 48.5258 Q3109.51 48.5258 3104.46 55.2098 Q3099.48 61.8938 3099.48 74.0465 Q3099.48 86.1384 3104.46 92.8224 Q3109.51 99.5064 3118.5 99.5064 Q3127.55 99.5064 3132.54 92.8224 Q3137.58 86.1384 3137.58 74.0465 M3148.76 100.418 Q3148.76 117.796 3141.04 126.242 Q3133.33 134.749 3117.41 134.749 Q3111.51 134.749 3106.29 133.838 Q3101.06 132.987 3096.14 131.164 L3096.14 120.288 Q3101.06 122.961 3105.86 124.237 Q3110.66 125.513 3115.64 125.513 Q3126.64 125.513 3132.11 119.741 Q3137.58 114.029 3137.58 102.423 L3137.58 96.8936 Q3134.12 102.909 3128.71 105.887 Q3123.3 108.864 3115.77 108.864 Q3103.25 108.864 3095.59 99.3241 Q3087.94 89.7842 3087.94 74.0465 Q3087.94 58.248 3095.59 48.7081 Q3103.25 39.1682 3115.77 39.1682 Q3123.3 39.1682 3128.71 42.1456 Q3134.12 45.123 3137.58 51.1386 L3137.58 40.8088 L3148.76 40.8088 L3148.76 100.418 Z" fill="#000000" fill-rule="nonzero" fill-opacity="1" /><path clip-path="url(#clip880)" d="M3200.11 115.183 Q3195.37 127.336 3190.87 131.043 Q3186.37 134.749 3178.84 134.749 L3169.91 134.749 L3169.91 125.392 L3176.47 125.392 Q3181.09 125.392 3183.64 123.204 Q3186.19 121.017 3189.29 112.874 L3191.29 107.77 L3163.77 40.8088 L3175.62 40.8088 L3196.88 94.0377 L3218.15 40.8088 L3230 40.8088 L3200.11 115.183 Z" fill="#000000" fill-rule="nonzero" fill-opacity="1" /></svg>
