<svg version="1.1" id="Layer_1" xmlns="http://www.w3.org/2000/svg" x="0" y="0" viewBox="0 0 430 120" xml:space="preserve"><style>.st0{fill:none;stroke:#1c75bc;stroke-width:.5;stroke-miterlimit:10}.st1{fill:#1c75bc}.st2{stroke-miterlimit:10}.st2,.st3,.st4,.st5{fill:none;stroke:#1c75bc;stroke-width:.5;stroke-linejoin:round}.st4,.st5{stroke-dasharray:3.9014,3.9014}.st5{stroke-dasharray:4.0771,4.0771}</style><path d="M7.3 12.5c-.3 0-.6-.1-.7-.2s-.3-.3-.3-.6.1-.5.2-.6.3-.2.6-.2h3c.3 0 .5.1.7.2s.2.4.2.6c0 .3-.1.5-.3.6s-.5.2-.8.2h-.4l2.7 3.8 2.8-3.8H14.7c-.4 0-.7-.1-.9-.2s-.3-.4-.3-.6.1-.5.2-.6.4-.2.7-.2h3c.3 0 .5.1.6.2s.2.4.2.6c0 .3-.1.5-.2.6s-.4.2-.8.2l-3.7 5.1 4.1 5.5c.3 0 .6.1.8.2s.2.3.2.6-.1.5-.2.6-.4.2-.6.2h-3.1c-.4 0-.7-.1-.8-.2s-.2-.3-.2-.7c0-.3.1-.5.3-.6s.5-.2 1-.2h.5l-3-4.1-3 4.1h.5c.5 0 .9.1 1.1.2s.3.3.3.6-.1.5-.2.7-.4.2-.8.2H6.9c-.3 0-.5-.1-.6-.2s-.3-.3-.3-.6.1-.5.2-.6.4-.2.8-.2l4-5.4-3.7-5.2zM11.3 99h.5c.6 0 1 .1 1.2.2s.3.3.3.7c0 .3-.1.5-.2.6s-.4.2-.7.2H6.9c-.4 0-.6-.1-.8-.2s-.1-.4-.1-.7c0-.3.1-.5.2-.6s.4-.2.7-.2h2.5l1.9-3.7L7 86.8c-.5 0-.9-.1-1.1-.2-.2-.1-.3-.3-.3-.7 0-.3.1-.5.2-.6s.4-.2.7-.2h3.3c.4 0 .7.1.9.2s.3.4.3.7c0 .3-.1.5-.3.7-.2.1-.6.2-1.1.2h-.4l3.2 6.5 3.2-6.5h-.5c-.5 0-.9-.1-1.1-.2-.2-.1-.3-.3-.3-.7 0-.3.1-.5.2-.6s.4-.2.9-.2h2.9c.3 0 .6.1.7.2s.2.3.2.6-.1.5-.3.6-.5.2-.9.2L11.3 99z"/><path class="st0" d="M20.1 20.2h12.3"/><path class="st1" d="M30.3 23l1.2-2.8-1.2-2.8 6.6 2.8z"/><path class="st0" d="M20.1 92h12.3"/><path class="st1" d="M30.3 94.8l1.2-2.8-1.2-2.7 6.6 2.7z"/><path d="M45.1 22.4c0 .2-.1.3-.1.4s-.2.1-.3.1c-.2 0-.3 0-.4-.1s-.1-.3-.1-.5l-.1-1.4v-.1c0-.2 0-.3.1-.4s.2-.1.4-.1.4.2.5.5c0 .2.1.3.1.4.1.3.4.5.6.6s.6.2 1.1.2c.5 0 .9-.1 1.2-.4s.5-.5.5-.9c0-.3-.1-.6-.3-.7s-.5-.3-.8-.4l-.9-.1c-.8-.1-1.4-.3-1.8-.6s-.6-.8-.6-1.3c0-.6.2-1.1.7-1.5s1.1-.6 1.8-.6c.2 0 .4 0 .7.1s.5.1.8.3c0-.1 0-.2.1-.2s.1-.1.3-.1c.2 0 .3 0 .4.1s.1.2.1.4l.1 1.2v.1c0 .1 0 .2-.1.3s-.2.1-.3.1c-.2 0-.4-.1-.5-.4-.1-.2-.1-.3-.2-.4-.1-.2-.3-.3-.6-.5s-.5-.2-.8-.2c-.5 0-.9.1-1.2.4s-.4.5-.4.9c0 .3.1.5.3.7s.6.3 1 .4l.9.1c.7.1 1.2.3 1.5.6s.5.8.5 1.3c0 .7-.2 1.2-.7 1.6s-1.1.6-2 .6c-.3 0-.6 0-.8-.1s-.3-.3-.7-.4zM55.7 17.5c.2 0 .3 0 .4.1s.1.2.1.3c0 .1 0 .2-.1.3s-.2.1-.4.1h-2.4v2c0 .6.1 1.1.2 1.3s.5.3.9.3.8-.1 1.3-.3.8-.3.9-.3c.1 0 .2 0 .3.1s.1.2.1.3c0 .1 0 .2-.1.3s-.3.2-.5.3c-.4.2-.7.3-1 .3s-.6.1-.9.1c-.5 0-.8-.1-1.2-.2s-.5-.4-.7-.7c-.1-.1-.1-.3-.2-.5s0-.5 0-.9v-2.2h-1c-.2 0-.3 0-.4-.1s0-.1 0-.2c0-.2.1-.3.2-.3s.3-.1.7-.1h.7V16c0-.2 0-.3.1-.4s.2-.1.3-.1c.2 0 .3 0 .4.1s.1.3.1.7v1.2h2.2zM62.6 21.8c-.3.3-.7.5-1 .7s-.8.2-1.2.2c-.6 0-1.1-.2-1.4-.5s-.5-.7-.5-1.3c0-.6.2-1.1.7-1.4s1.1-.5 2-.5h.7c.2 0 .5.1.7.1 0-.4-.1-.8-.3-1s-.5-.3-1-.3c-.3 0-.6.1-1 .2s-.6.2-.7.2c-.1 0-.2 0-.3-.1s-.1-.2-.1-.4.2-.4.6-.6 1-.2 1.7-.2 1.2.2 1.6.5.5.9.5 1.5v2.7h.3c.3 0 .5 0 .6.1s.1.2.1.3c0 .1 0 .2-.1.3s-.2.1-.4.1h-.9c-.1 0-.2 0-.3-.1s-.1-.2-.1-.3l-.2-.2zm0-1.8c-.2-.1-.4-.1-.6-.2s-.4 0-.6 0c-.6 0-1.1.1-1.4.3s-.5.5-.5.8c0 .3.1.5.3.7s.5.3.8.3c.5 0 1-.1 1.4-.4s.6-.5.6-.8V20zM66.3 21.7V18h-.1c-.3 0-.4 0-.5-.1s-.1-.2-.1-.3c0-.1 0-.2.1-.3s.2-.1.4-.1H67c.1 0 .2 0 .2.1s.1.1.1.2v.4c.3-.3.6-.5.8-.6s.6-.2.9-.2c.6 0 1.1.2 1.4.6s.5.9.5 1.5v2.7h.3c.2 0 .3 0 .4.1s.1.2.1.3c0 .2 0 .3-.1.3-.1.1-.3.1-.5.1h-1.3c-.3 0-.4 0-.5-.1-.1-.1-.1-.2-.1-.3 0-.2 0-.3.1-.3s.2-.1.5-.1h.2v-2.4c0-.5-.1-.8-.3-1-.2-.2-.5-.4-.9-.4s-.8.1-1.1.4-.5.6-.5 1v2.4h.2c.2 0 .4 0 .5.1s.1 0 .1.1c0 .2 0 .3-.1.3s-.2.1-.5.1H66c-.2 0-.3 0-.4-.1s-.1-.2-.1-.3c0-.2 0-.3.1-.3s.3-.1.5-.1h.2zM77.4 22.6c-.1 0-.1 0-.2-.1s0-.1 0-.2v-.5c-.2.3-.5.5-.9.7s-.7.2-1.1.2c-.7 0-1.4-.3-1.9-.8s-.7-1.2-.7-2 .3-1.5.8-2 1.2-.8 2-.8c.4 0 .8.1 1.1.2s.6.4.8.6v-2.2H77c-.3 0-.6 0-.7-.1s-.1-.2-.1-.3c0-.1 0-.2.1-.3s.2-.1.3-.1h1.2c.1 0 .2 0 .3.1s.1.1.1.2v6.6h.3c.2 0 .3 0 .4.1s.1.1.1.2 0 .2-.1.3-.2.1-.3.1h-1.2zm-3.8-2.7c0 .5.2 1 .5 1.3s.8.5 1.3.5 1-.2 1.3-.5.5-.8.5-1.4c0-.5-.2-1-.5-1.3s-.7-.5-1.3-.5c-.6 0-1 .2-1.3.5s-.5.9-.5 1.4zM84.2 21.8c-.3.3-.7.5-1 .7s-.8.2-1.2.2c-.6 0-1.1-.2-1.4-.5s-.5-.7-.5-1.3c0-.6.2-1.1.7-1.4s1.1-.5 2-.5h.7c.2 0 .5.1.7.1 0-.4-.1-.8-.3-1s-.5-.3-1-.3c-.3 0-.6.1-1 .2s-.6.2-.7.2c-.1 0-.2 0-.3-.1s-.1-.2-.1-.4.2-.4.6-.6 1-.2 1.7-.2 1.2.2 1.6.5.5.9.5 1.5v2.7h.3c.3 0 .5 0 .6.1s.1.2.1.3c0 .1 0 .2-.1.3s-.2.1-.4.1h-.9c-.1 0-.2 0-.3-.1s-.1-.2-.1-.3l-.2-.2zm0-1.8c-.2-.1-.4-.1-.6-.2s-.4 0-.6 0c-.6 0-1.1.1-1.4.3s-.6.5-.6.8c0 .3.1.5.3.7s.5.3.8.3c.5 0 1-.1 1.4-.4s.6-.5.6-.8V20zM89.5 21.7h1.9c.2 0 .3 0 .3.1s.1.2.1.3c0 .2 0 .3-.1.3s-.2.1-.4.1h-3.8c-.2 0-.3 0-.3-.1s-.1-.2-.1-.3c0-.1 0-.2.1-.3s.2-.1.4-.1h1V18h-.4c-.4 0-.6 0-.7-.1s-.1-.2-.1-.3c0-.1 0-.2.1-.3.1-.1.2-.1.3-.1h1.3c.1 0 .2 0 .2.1s.1.1.1.2v1c.4-.5.8-.8 1.2-1s.8-.3 1.3-.3c.3 0 .6.1.8.2.2.1.3.3.3.5 0 .1-.1.3-.2.4s-.2.2-.4.2c-.1 0-.2-.1-.5-.2s-.2-.3-.3-.3c-.3 0-.6.1-1 .3s-.7.6-1.1 1v2.4zM99 22.6c-.1 0-.1 0-.2-.1s0-.1 0-.2v-.5c-.2.3-.5.5-.9.7s-.7.2-1.1.2c-.7 0-1.4-.3-1.9-.8s-.7-1.2-.7-2 .3-1.5.8-2 1.2-.8 2-.8c.4 0 .8.1 1.1.2s.6.4.8.6v-2.2h-.3c-.3 0-.6 0-.7-.1s-.1-.2-.1-.3c0-.1 0-.2.1-.3s.2-.1.3-.1h1.2c.1 0 .2 0 .3.1s.1.1.1.2v6.6h.3c.2 0 .3 0 .4.1s.1.2.1.3c0 .1 0 .2-.1.3s-.2.1-.3.1H99zm-3.8-2.7c0 .5.2 1 .5 1.3s.8.5 1.3.5 1-.2 1.3-.5.5-.8.5-1.4c0-.5-.2-1-.5-1.3s-.7-.5-1.3-.5c-.6 0-1 .2-1.3.5s-.5.9-.5 1.4zM105 21.7h1.9c.2 0 .3 0 .3.1s.1.2.1.3c0 .2 0 .3-.1.3s-.2.1-.4.1h-4.5c-.2 0-.3 0-.4-.1s-.1-.2-.1-.3c0-.1 0-.2.1-.3s.2-.1.4-.1h1.8V18H103c-.2 0-.3 0-.4-.1-.1-.1-.1-.2-.1-.3s0-.2.1-.3c.1-.1.2-.1.4-.1h1.7c.1 0 .2 0 .2.1s.1.1.1.2v4.2zm-1.1-6.2c0-.4 0-.7.1-.8s.2-.2.5-.2c.2 0 .4 0 .5.1s.1.3.1.7c0 .3 0 .5-.1.6s-.2.1-.5.1c-.2 0-.4 0-.5-.1s-.1-.2-.1-.4zM110.4 21.7h2.9v-.3c0-.3 0-.6.1-.7s.2-.1.3-.1c.1 0 .2 0 .3.1s.1.2.1.4v1c0 .2-.1.3-.2.4s-.3.1-.5.1h-3.5c-.2 0-.4 0-.5-.1s-.2-.2-.2-.4c0-.1 0-.2.1-.3s.2-.2.3-.4L113 18h-2.8v.3c0 .3 0 .6-.1.7-.1.1-.2.1-.3.1-.1 0-.2 0-.3-.1s-.1-.2-.1-.4v-1c0-.2.1-.3.2-.4s.3-.1.6-.1h3.1c.3 0 .5 0 .6.1s.2.2.2.4c0 .1 0 .2-.1.4s-.2.3-.4.5l-3.2 3.2zM116.9 20.1c0 .6.2 1 .6 1.3s.8.5 1.4.5c.5 0 1-.1 1.5-.4s.9-.4 1-.4c.1 0 .2 0 .3.1.1.1.1.2.1.3 0 .1 0 .2-.1.3-.1.1-.2.2-.4.3-.4.2-.8.3-1.2.4-.4.1-.8.2-1.2.2-.9 0-1.6-.3-2.1-.8s-.8-1.2-.8-2c0-.9.3-1.6.8-2.1s1.3-.8 2.2-.8c.8 0 1.5.2 2.1.8s.8 1.1.8 1.8c0 .2 0 .4-.1.4-.1.1-.3.1-.7.1H116.9zm0-.7h3.8c-.1-.5-.3-.8-.6-1.1s-.7-.4-1.2-.4-1 .1-1.3.4-.6.6-.7 1.1zM125.5 21.7h1.9c.2 0 .3 0 .3.1s.1.2.1.3c0 .2 0 .3-.1.3s-.2.1-.4.1h-3.8c-.2 0-.3 0-.3-.1s-.1-.2-.1-.3c0-.1 0-.2.1-.3s.2-.1.4-.1h1V18h-.4c-.4 0-.6 0-.7-.1s-.1-.2-.1-.3c0-.1 0-.2.1-.3.1-.1.2-.1.3-.1h1.3c.1 0 .2 0 .2.1s.1.1.1.2v1c.4-.5.8-.8 1.2-1s.8-.3 1.3-.3c.3 0 .6.1.8.2.2.1.3.3.3.5 0 .1-.1.3-.2.4s-.2.2-.4.2c-.1 0-.2-.1-.5-.2s-.4-.2-.6-.2c-.3 0-.6.1-1 .3s-.7.6-1.1 1v2.3zM64.8 95h-2.6c-.1 0-.2 0-.3-.1s-.1-.2-.1-.3c0-.2 0-.3.1-.3s.3-.1.6-.1h.2v-5.3h-.2c-.3 0-.5 0-.6-.1s-.1-.2-.1-.3c0-.1 0-.2.1-.3s.2-.1.3-.1h2.7c.8 0 1.5.2 1.9.5s.7.8.7 1.4c0 .3-.1.6-.2.8s-.3.4-.6.6c.4.2.7.4.9.6s.3.6.3 1-.1.7-.3 1-.4.5-.7.7c-.2.1-.4.2-.6.2s-.6.1-1 .1h-.5zm-1.2-3.9h1.2c.6 0 1-.1 1.2-.3s.4-.4.4-.8c0-.3-.1-.6-.4-.8s-.6-.3-1-.3h-1.5v2.2zm0 3.1h1.3c.7 0 1.3-.1 1.6-.3s.5-.5.5-.9-.1-.7-.4-.9-.8-.3-1.5-.3h-1.4v2.4zM75.1 92.3c0 .8-.3 1.5-.9 2.1s-1.3.8-2.2.8c-.9 0-1.6-.3-2.2-.8s-.8-1.3-.8-2.1.3-1.5.9-2 1.3-.8 2.2-.8 1.6.3 2.2.8.8 1.2.8 2zm-3 2c.6 0 1.1-.2 1.5-.6.4-.4.6-.9.6-1.5s-.2-1.1-.6-1.5c-.4-.4-.9-.6-1.5-.6s-1.1.2-1.5.6c-.4.4-.6.9-.6 1.5s.2 1.1.6 1.5c.4.4.9.6 1.5.6zM78 94.2h.2c.2 0 .3 0 .5.1s.2.2.2.3c0 .1 0 .2-.1.3s-.4.1-.6.1h-1.6c-.1 0-.2 0-.3-.1s-.1-.2-.1-.3c0-.1.1-.2.2-.3s.3-.1.5-.1h.1l1.9-1.9-1.9-1.9h-.1c-.2 0-.4 0-.5-.1-.1-.1-.1-.2-.1-.3 0-.2 0-.3.1-.3.1-.1.3-.1.6-.1h1.2c.2 0 .4 0 .5.1.1.1.1.2.1.3 0 .1-.1.2-.2.3-.1.1-.3.1-.5.1l1.3 1.2 1.2-1.2h-.1c-.2 0-.4 0-.5-.1s-.2-.2-.2-.3c0-.2 0-.3.1-.3.1-.1.2-.1.5-.1h1.5c.1 0 .2 0 .3.1.1.1.1.2.1.3 0 .1 0 .2-.1.3-.1.1-.3.1-.5.1h-.2l-1.7 1.8 2.1 2h.1c.1 0 .3 0 .3.1s.1.2.1.3c0 .2 0 .3-.1.3s-.3.1-.6.1h-1.2c-.2 0-.4 0-.5-.1s-.1-.2-.1-.3c0-.1 0-.2.1-.3s.2-.1.4-.1h.3l-1.5-1.4-1.2 1.4zM84 92.9c-.1 0-.1 0-.2-.1s-.1-.1-.1-.2V92c0-.1 0-.1.1-.2s.1-.1.2-.1h4.9c.1 0 .2 0 .2.1s.1.1.1.2v.6c0 .1 0 .1-.1.2s-.1.1-.2.1H84zM95.5 88.2c0-.1.1-.2.2-.2h.3c.1 0 .2 0 .3.1s.1.2.1.4V90c0 .2 0 .3-.1.4s-.2.1-.3.1c-.3 0-.4-.2-.5-.6 0-.1 0-.2-.1-.3-.1-.3-.3-.5-.5-.7s-.6-.3-1-.3c-.7 0-1.2.3-1.7.8-.4.5-.6 1.2-.6 2s.2 1.5.6 2c.4.5 1 .8 1.7.8.2 0 .5 0 .7-.1s.5-.2.7-.3c.1-.1.2-.1.4-.3s.3-.2.4-.2c.1 0 .2 0 .3.1s.1.2.1.3 0 .2-.1.3c-.1.1-.3.2-.5.4-.3.2-.7.4-1 .5-.3.1-.7.2-1 .2-1 0-1.8-.3-2.4-1s-.9-1.6-.9-2.6c0-1.1.3-1.9 1-2.6s1.4-1 2.4-1c.3 0 .5 0 .8.1s.4.1.7.2zM103.9 92.3c0 .8-.3 1.5-.9 2.1s-1.3.8-2.2.8c-.9 0-1.6-.3-2.2-.8s-.9-1.2-.9-2.1.3-1.5.9-2 1.3-.8 2.2-.8 1.6.3 2.2.8.9 1.2.9 2zm-3 2c.6 0 1.1-.2 1.5-.6.4-.4.6-.9.6-1.5s-.2-1.1-.6-1.5c-.4-.4-.9-.6-1.5-.6s-1.1.2-1.5.6c-.4.4-.6.9-.6 1.5s.2 1.1.6 1.5c.4.4.9.6 1.5.6zM106.8 94.2h.2c.2 0 .3 0 .5.1s.2.2.2.3c0 .1 0 .2-.1.3s-.4.1-.6.1h-1.6c-.1 0-.2 0-.3-.1s-.1-.2-.1-.3c0-.1.1-.2.2-.3s.3-.1.5-.1h.1l1.9-1.9-1.9-1.8h-.1c-.2 0-.4 0-.5-.1-.1-.1-.1-.2-.1-.3 0-.2 0-.3.1-.3.1-.1.3-.1.6-.1h1.2c.2 0 .4 0 .5.1.1.1.1.2.1.3 0 .1-.1.2-.2.3-.1.1-.3.1-.5.1l1.3 1.2 1.2-1.2h-.1c-.2 0-.4 0-.5-.1s-.2-.2-.2-.3c0-.2 0-.3.1-.3.1-.1.2-.1.5-.1h1.5c.1 0 .2 0 .3.1.1.1.1.2.1.3 0 .1 0 .2-.1.3-.1.1-.3.1-.5.1h-.2l-1.7 1.8 2.1 2h.1c.1 0 .3 0 .3.1s.1.2.1.3c0 .2 0 .3-.1.3s-.3.1-.6.1h-1.2c-.2 0-.4 0-.5-.1s-.1-.2-.1-.3c0-.1 0-.2.1-.3s.2-.1.4-.1h.3l-1.5-1.4-1.2 1.3z"/><path class="st2" d="M36.9 3.3h99.2v32.5H36.9zM36.9 75.8h99.2v32.5H36.9z"/><path d="M229 54.3h.4c.2 0 .4 0 .5.1s.1.2.1.3c0 .2 0 .3-.1.3s-.2.1-.5.1h-2c-.1 0-.2 0-.3-.1s-.1-.2-.1-.3c0-.1 0-.2.1-.3s.2-.1.4-.1h.5V49h-.3c-.3 0-.5 0-.6-.1s-.1-.2-.1-.3c0-.1 0-.2.1-.3s.2-.1.3-.1h2.5c.6 0 1 0 1.3.1s.5.2.7.3c.3.2.5.4.6.7s.2.6.2.9c0 .4-.1.8-.4 1.2s-.7.5-1.2.7c.1.1.2.1.3.2s.2.2.2.3l1.2 1.8h.2c.2 0 .4 0 .5.1s.1.2.1.3c0 .1 0 .2-.1.3s-.2.1-.3.1h-.7c-.2 0-.4-.1-.6-.4l-.1-.1-1.1-1.7c-.2-.3-.4-.6-.6-.7s-.3-.2-.6-.2h-.5v2.2zm0-5.3v2.4h1.2c.5 0 1-.1 1.2-.3s.4-.5.4-.9-.1-.7-.4-.9-.7-.3-1.2-.3H229zM238 54.3h1.9c.2 0 .3 0 .3.1s.1.2.1.3c0 .2 0 .3-.1.3s-.2.1-.4.1h-4.5c-.2 0-.3 0-.4-.1s-.1-.2-.1-.3c0-.1 0-.2.1-.3s.2-.1.4-.1h1.8v-3.8H236c-.2 0-.3 0-.4-.1-.1-.1-.1-.2-.1-.3s0-.2.1-.3c.1-.1.2-.1.4-.1h1.7c.1 0 .2 0 .2.1s.1.1.1.2v4.3zm-1.1-6.3c0-.4 0-.7.1-.8s.2-.2.5-.2c.2 0 .4 0 .5.1s.1.3.1.7c0 .3 0 .5-.1.6s-.2.1-.5.1c-.2 0-.4 0-.5-.1s-.1-.2-.1-.4zM246.4 55.1c-.1 0-.1 0-.2-.1s0-.1 0-.2v-.5c-.2.3-.5.5-.9.7s-.7.2-1.1.2c-.7 0-1.4-.3-1.9-.8s-.7-1.2-.7-2 .3-1.5.8-2 1.2-.8 2-.8c.4 0 .8.1 1.1.2s.6.4.8.6v-2.2h-.3c-.3 0-.6 0-.7-.1s-.1-.2-.1-.3c0-.1 0-.2.1-.3s.2-.1.3-.1h1.2c.1 0 .2 0 .3.1s.1.1.1.2v6.6h.3c.2 0 .3 0 .4.1s.1.2.1.3c0 .1 0 .2-.1.3s-.2.1-.3.1h-1.2zm-3.8-2.6c0 .5.2 1 .5 1.3s.8.5 1.3.5 1-.2 1.3-.5.5-.8.5-1.4c0-.5-.2-1-.5-1.3s-.8-.5-1.3-.5c-.6 0-1 .2-1.3.5s-.5.8-.5 1.4zM254.3 54.8c0 .5 0 .9-.1 1.2-.1.2-.1.4-.3.6-.2.3-.5.5-.9.7-.4.2-.9.2-1.4.2-.4 0-.8 0-1-.1s-.3-.2-.3-.4c0-.1 0-.2.1-.3s.2-.1.4-.1h1c.6 0 1-.1 1.2-.4s.4-.7.4-1.4v-.7c-.2.3-.5.5-.8.6s-.6.2-1 .2c-.7 0-1.3-.2-1.8-.7s-.7-1.1-.7-1.8c0-.8.2-1.4.7-1.9s1.1-.7 1.8-.7c.3 0 .6.1.9.2s.6.3.9.5v-.4c0-.1 0-.1.1-.2s.1-.1.2-.1h.9c.2 0 .3 0 .4.1s.1.2.1.3c0 .2 0 .3-.1.3-.1.1-.3.1-.5.1h-.1v4.2zm-2.6-4.2c-.5 0-.9.2-1.3.5s-.5.7-.5 1.2.2.9.5 1.2.7.5 1.3.5c.5 0 .9-.2 1.3-.5s.5-.7.5-1.2-.2-.9-.5-1.2-.8-.5-1.3-.5zM257.1 52.7c0 .6.2 1 .6 1.3s.8.5 1.4.5c.5 0 1-.1 1.5-.4s.9-.4 1-.4c.1 0 .2 0 .3.1s.1.2.1.3c0 .1 0 .2-.1.3-.1.1-.2.2-.4.3-.4.2-.8.3-1.2.4-.4.1-.8.2-1.2.2-.9 0-1.6-.3-2.1-.8s-.8-1.2-.8-2c0-.9.3-1.6.8-2.1s1.3-.8 2.2-.8c.8 0 1.5.2 2.1.8s.8 1.1.8 1.8c0 .2 0 .4-.1.4s-.3.1-.7.1h-4.2zm0-.8h3.8c-.1-.5-.3-.8-.6-1.1s-.7-.4-1.2-.4-1 .1-1.3.4-.6.6-.7 1.1z"/><g><path class="st2" d="M212.5 35.9H275v32.5h-62.5z"/></g><g><path class="st0" d="M209.1 49.2l-32-29"/><path class="st1" d="M209.4 45.7l-.9 2.8-2.8 1.3 6.8 2.4z"/></g><g><path class="st0" d="M177.1 92l32.4-36.5"/><path class="st1" d="M210.2 58.9l-1.3-2.7-2.9-1 6.5-3z"/></g><g><path class="st0" d="M275 52.2h12.2"/><path class="st1" d="M285.1 54.9l1.2-2.7-1.2-2.8 6.6 2.8z"/></g><g><path class="st0" d="M136.1 19.6h15.6"/><path class="st1" d="M149.6 22.4l1.2-2.8-1.2-2.8 6.6 2.8z"/></g><g><path class="st0" d="M136.1 92h15.6"/><path class="st1" d="M149.6 94.8l1.2-2.8-1.2-2.7 6.6 2.7z"/></g><g><path d="M162.7 21.7l2-7c.1-.2.2-.4.2-.5s.3-.1.5-.1h.5c.2 0 .4 0 .5.1s.2.2.3.4l2.3 7.1 1.1-9.3h-1.8c-.4 0-.6-.1-.8-.2s-.3-.3-.3-.6.1-.5.2-.6.5-.2.9-.2h3.8c.2 0 .3.1.5.2s.2.3.2.6-.1.5-.2.6-.4.2-.7.2h-.1l-1.7 11.7c0 .2-.1.4-.1.5s-.2.1-.3.1h-.8c-.2 0-.3 0-.4-.1s-.2-.2-.2-.4l-2.5-8.1-2.2 8.1c-.1.2-.1.3-.2.4s-.2.1-.4.1h-.9c-.2 0-.3 0-.3-.1s-.1-.2-.2-.5l-1.8-11.7h-.1c-.3 0-.5-.1-.7-.2s-.2-.3-.2-.6c0-.2.1-.4.2-.6s.3-.2.5-.2h3.8c.4 0 .7.1.9.2s.2.3.2.6-.1.5-.3.6-.4.2-.8.2h-1.7l1.1 9.3z"/></g><g><path d="M163.2 94.3h5.8v-.6c0-.7.1-1.1.2-1.3s.3-.3.7-.3c.3 0 .5.1.6.2s.2.4.2.7v2c0 .4-.1.6-.3.8s-.6.2-1.1.2h-7.1c-.4 0-.8-.1-1-.3s-.3-.4-.3-.8c0-.2 0-.4.1-.6s.3-.5.7-.8l6.7-6.7h-5.6v.6c0 .7-.1 1.1-.2 1.3s-.3.3-.6.3-.5-.1-.6-.2-.2-.4-.2-.7v-2c0-.3.1-.6.4-.7s.7-.2 1.2-.2h6.3c.5 0 1 .1 1.2.3s.4.5.4.9c0 .2-.1.5-.3.8s-.4.6-.8.9l-6.4 6.2z"/></g><g><path d="M299.3 55h5.8v-.6c0-.7.1-1.1.2-1.3s.3-.3.7-.3c.3 0 .5.1.6.2s.2.4.2.7v1.9c0 .4-.1.6-.3.8s-.6.2-1.1.2h-7.1c-.4 0-.8-.1-1-.3-.2-.2-.3-.4-.3-.8 0-.2 0-.4.1-.6.1-.2.3-.5.7-.8l6.7-6.7h-5.6v.6c0 .7-.1 1.1-.2 1.3s-.3.3-.7.3c-.3 0-.5-.1-.6-.2s-.2-.4-.2-.7v-2c0-.3.1-.6.4-.7s.7-.2 1.2-.2h6.3c.5 0 1 .1 1.2.3s.4.5.4.9c0 .2-.1.5-.3.8s-.4.6-.8.9l-6.3 6.3zm2.6-12.3l-3.4 1.8h-.1-.1c-.1 0-.2 0-.3-.1s-.1-.2-.1-.3v-.2c0-.1.1-.1.1-.1l3.2-2.5c.1-.1.2-.1.3-.2s.2-.1.3-.1.2 0 .3.1.2.1.3.2l3.2 2.5.1.1v.2c0 .1 0 .2-.1.3s-.2.1-.3.1h-.1s-.1 0-.1-.1l-3.2-1.7z"/></g><g><path class="st0" d="M310.4 52.2h13.5"/><path class="st1" d="M321.8 54.9l1.2-2.7-1.2-2.8 6.6 2.8z"/></g><g><path class="st3" d="M390.9 66.4v2h-2"/><path class="st4" d="M385 68.4h-52.7"/><path class="st3" d="M330.4 68.4h-2v-2"/><path class="st5" d="M328.4 62.4V39.9"/><path class="st3" d="M328.4 37.9v-2h2"/><path class="st4" d="M334.3 35.9H387"/><path class="st3" d="M388.9 35.9h2v2"/><path class="st5" d="M390.9 42v22.4"/></g><g><path d="M339.9 54.3h1.9c.2 0 .3 0 .3.1s.1.2.1.3c0 .2 0 .3-.1.3s-.2.1-.4.1h-4.5c-.2 0-.3 0-.4-.1s-.1-.2-.1-.3c0-.1 0-.2.1-.3s.2-.1.4-.1h1.8v-3.8h-1.1c-.2 0-.3 0-.4-.1s-.1-.2-.1-.3 0-.2.1-.3c.1-.1.2-.1.4-.1h1.7c.1 0 .2 0 .2.1s.1.1.1.2v4.3zm-1.1-6.3c0-.4 0-.7.1-.8s.2-.2.5-.2c.2 0 .4 0 .5.1s.1.3.1.7c0 .3 0 .5-.1.6s-.2.1-.5.1c-.2 0-.4 0-.5-.1s-.1-.2-.1-.4zM344.4 54.3v-3.8h-.1c-.3 0-.4 0-.5-.1s-.1-.2-.1-.3c0-.1 0-.2.1-.3s.2-.1.4-.1H345.1c.1 0 .2 0 .2.1s.1.1.1.2v.4c.3-.3.6-.5.8-.6s.6-.2.9-.2c.6 0 1.1.2 1.4.6s.5.9.5 1.5v2.7h.3c.2 0 .3 0 .4.1.1.1.1.2.1.3 0 .2 0 .3-.1.3-.1.1-.3.1-.5.1h-1.3c-.3 0-.4 0-.5-.1s-.1-.2-.1-.3c0-.2 0-.3.1-.3.1-.1.2-.1.5-.1h.2V52c0-.5-.1-.8-.3-1s-.5-.4-.9-.4-.8.1-1.1.4c-.3.3-.5.6-.5 1v2.4h.2c.2 0 .4 0 .5.1s.1.2.1.3c0 .2 0 .3-.1.3s-.2.1-.5.1H344c-.2 0-.3 0-.4-.1s-.1-.2-.1-.3c0-.2 0-.3.1-.3s.3-.1.5-.1h.3zM351.1 50.5c-.3 0-.4 0-.5-.1s-.1-.2-.1-.3c0-.1 0-.2.1-.3.1-.1.2-.1.4-.1h1.6c.2 0 .4 0 .4.1s.1.2.1.3c0 .2 0 .3-.1.3s-.3.1-.5.1h-.2l1.5 3.8 1.7-3.8h-.5c-.3 0-.5 0-.6-.1s-.2-.2-.2-.3c0-.2 0-.3.1-.3s.2-.1.4-.1h1.8c.2 0 .3 0 .4.1.1.1.1.2.1.3 0 .2 0 .3-.1.3s-.3.1-.5.1h-.1l-1.9 4.3c-.1.2-.2.4-.3.4-.1.1-.2.1-.4.1s-.3 0-.4-.1c-.1-.1-.2-.2-.3-.4l-1.9-4.3zM359 52.7c0 .6.2 1 .6 1.3s.8.5 1.4.5c.5 0 1-.1 1.5-.4s.9-.4 1-.4c.1 0 .2 0 .3.1s.1.2.1.3c0 .1 0 .2-.1.3-.1.1-.2.2-.4.3-.4.2-.8.3-1.2.4-.4.1-.8.2-1.2.2-.9 0-1.6-.3-2.1-.8s-.8-1.2-.8-2c0-.9.3-1.6.8-2.1s1.3-.8 2.2-.8c.8 0 1.5.2 2.1.8s.8 1.1.8 1.8c0 .2 0 .4-.1.4s-.3.1-.7.1H359zm0-.8h3.8c-.1-.5-.3-.8-.6-1.1s-.7-.4-1.2-.4-1 .1-1.3.4-.6.6-.7 1.1zM367.6 54.3h1.9c.2 0 .3 0 .3.1s.1.2.1.3c0 .2 0 .3-.1.3s-.2.1-.4.1h-3.8c-.2 0-.3 0-.3-.1s-.1-.2-.1-.3c0-.1 0-.2.1-.3s.2-.1.4-.1h1v-3.8h-.4c-.4 0-.6 0-.7-.1s-.1-.2-.1-.3c0-.1 0-.2.1-.3.1-.1.2-.1.3-.1h1.3c.1 0 .2 0 .2.1s.1.1.1.2v1c.4-.5.8-.8 1.2-1s.8-.3 1.3-.3c.3 0 .6.1.8.2.2.1.3.3.3.5 0 .1-.1.3-.2.4s-.2.2-.4.2c-.1 0-.2-.1-.5-.2s-.4-.2-.6-.2c-.3 0-.6.1-1 .3s-.7.6-1.1 1v2.4zM372.8 54.7v-1c0-.2 0-.3.1-.4s.2-.1.3-.1c.2 0 .3.1.4.3.1.1.1.2.2.3.2.2.4.4.7.5s.7.2 1.1.2c.4 0 .7-.1 1-.3s.4-.4.4-.7c0-.3-.1-.5-.3-.6s-.5-.2-1-.2h-.3c-.8 0-1.4-.1-1.8-.4s-.6-.7-.6-1.2.2-.9.6-1.2 1-.4 1.7-.4c.3 0 .6 0 .9.1s.5.1.5.1.1 0 .2-.1.2-.1.4-.1c.1 0 .2 0 .3.1s.1.2.1.4v.7c0 .2 0 .4-.1.4s-.2.1-.3.1c-.1 0-.3-.1-.4-.3l-.3-.3c-.2-.2-.4-.3-.7-.4s-.5-.1-.8-.1c-.4 0-.7.1-.9.2s-.3.4-.3.6c0 .2.1.4.3.5s.7.2 1.5.2 1.4.2 1.8.4.6.7.6 1.2-.2.9-.6 1.3-1 .5-1.7.5c-.2 0-.5 0-.7-.1s-.6-.1-1-.2c-.1.1-.3.2-.4.2s-.2.1-.2.1c-.1 0-.2 0-.3-.1s-.4 0-.4-.2zM380.6 52.7c0 .6.2 1 .6 1.3s.8.5 1.4.5c.5 0 1-.1 1.5-.4s.9-.4 1-.4c.1 0 .2 0 .3.1s.1.2.1.3c0 .1 0 .2-.1.3-.1.1-.2.2-.4.3-.4.2-.8.3-1.2.4-.4.1-.8.2-1.2.2-.9 0-1.6-.3-2.1-.8s-.8-1.2-.8-2c0-.9.3-1.6.8-2.1s1.3-.8 2.2-.8c.8 0 1.5.2 2.1.8s.8 1.1.8 1.8c0 .2 0 .4-.1.4s-.3.1-.7.1H380.6zm0-.8h3.8c-.1-.5-.3-.8-.6-1.1s-.7-.4-1.2-.4-1 .1-1.3.4-.6.6-.7 1.1z"/></g><g><path fill="none" stroke="#1c75bc" stroke-width=".5" stroke-linejoin="round" stroke-dasharray="4,4" d="M359.7 72.9v45.4H86.5v-10"/><path class="st1" d="M356.9 75l2.8-1.2 2.7 1.2-2.7-6.6z"/></g><g><path class="st0" d="M390.9 52.2h13.5"/><path class="st1" d="M402.3 54.9l1.2-2.7-1.2-2.8 6.6 2.8z"/></g><g><path d="M416.7 59.7h.5c.6 0 1 .1 1.2.2s.3.3.3.7c0 .3-.1.5-.2.6s-.4.2-.7.2h-5.4c-.4 0-.6-.1-.8-.2s-.2-.3-.2-.6.1-.5.2-.6.4-.2.7-.2h2.5l1.9-3.7-4.3-8.4c-.5 0-.9-.1-1.1-.2-.2-.1-.3-.3-.3-.7 0-.3.1-.5.2-.6s.4-.2.7-.2h3.3c.4 0 .7.1.9.2.1.1.2.3.2.6s-.1.5-.3.7c-.2.1-.6.2-1.1.2h-.4l3.2 6.5 3.2-6.5h-.5c-.5 0-.9-.1-1.1-.2-.2-.1-.3-.3-.3-.7 0-.3.1-.5.2-.6.1-.1.4-.2.9-.2h2.9c.3 0 .6.1.7.2s.2.3.2.6-.1.5-.3.6-.5.2-.9.2l-6 12.1zm.8-17l-3.4 1.8h-.1-.1c-.1 0-.2 0-.3-.1s-.1-.2-.1-.3v-.2c0-.1.1-.1.1-.1l3.2-2.5c.1-.1.2-.1.3-.2s.2-.1.3-.1.2 0 .3.1.2.1.3.2l3.2 2.5.1.1v.2c0 .1 0 .2-.1.3s-.2.1-.3.1h-.1s-.1 0-.1-.1l-3.2-1.7z"/></g></svg>