<?xml version="1.0" encoding="utf-8"?>
<svg xmlns="http://www.w3.org/2000/svg" xmlns:xlink="http://www.w3.org/1999/xlink" width="800" height="600" viewBox="0 0 3200 2400">
<defs>
  <clipPath id="clip170">
    <rect x="0" y="0" width="3200" height="2400"/>
  </clipPath>
</defs>
<path clip-path="url(#clip170)" d="M0 2400 L3200 2400 L3200 0 L0 0  Z" fill="#ffffff" fill-rule="evenodd" fill-opacity="1"/>
<defs>
  <clipPath id="clip171">
    <rect x="640" y="0" width="2241" height="2241"/>
  </clipPath>
</defs>
<path clip-path="url(#clip170)" d="M299.035 2185.48 L3152.76 2185.48 L3152.76 47.2441 L299.035 47.2441  Z" fill="#ffffff" fill-rule="evenodd" fill-opacity="1"/>
<defs>
  <clipPath id="clip172">
    <rect x="299" y="47" width="2855" height="2139"/>
  </clipPath>
</defs>
<polyline clip-path="url(#clip172)" style="stroke:#000000; stroke-linecap:round; stroke-linejoin:round; stroke-width:2; stroke-opacity:0.1; fill:none" points="379.801,2185.48 379.801,47.2441 "/>
<polyline clip-path="url(#clip172)" style="stroke:#000000; stroke-linecap:round; stroke-linejoin:round; stroke-width:2; stroke-opacity:0.1; fill:none" points="624.545,2185.48 624.545,47.2441 "/>
<polyline clip-path="url(#clip172)" style="stroke:#000000; stroke-linecap:round; stroke-linejoin:round; stroke-width:2; stroke-opacity:0.1; fill:none" points="1032.45,2185.48 1032.45,47.2441 "/>
<polyline clip-path="url(#clip172)" style="stroke:#000000; stroke-linecap:round; stroke-linejoin:round; stroke-width:2; stroke-opacity:0.1; fill:none" points="1712.3,2185.48 1712.3,47.2441 "/>
<polyline clip-path="url(#clip172)" style="stroke:#000000; stroke-linecap:round; stroke-linejoin:round; stroke-width:2; stroke-opacity:0.1; fill:none" points="2392.14,2185.48 2392.14,47.2441 "/>
<polyline clip-path="url(#clip172)" style="stroke:#000000; stroke-linecap:round; stroke-linejoin:round; stroke-width:2; stroke-opacity:0.1; fill:none" points="3071.99,2185.48 3071.99,47.2441 "/>
<polyline clip-path="url(#clip170)" style="stroke:#000000; stroke-linecap:round; stroke-linejoin:round; stroke-width:4; stroke-opacity:1; fill:none" points="299.035,2185.48 3152.76,2185.48 "/>
<polyline clip-path="url(#clip170)" style="stroke:#000000; stroke-linecap:round; stroke-linejoin:round; stroke-width:4; stroke-opacity:1; fill:none" points="379.801,2185.48 379.801,2166.58 "/>
<polyline clip-path="url(#clip170)" style="stroke:#000000; stroke-linecap:round; stroke-linejoin:round; stroke-width:4; stroke-opacity:1; fill:none" points="624.545,2185.48 624.545,2166.58 "/>
<polyline clip-path="url(#clip170)" style="stroke:#000000; stroke-linecap:round; stroke-linejoin:round; stroke-width:4; stroke-opacity:1; fill:none" points="1032.45,2185.48 1032.45,2166.58 "/>
<polyline clip-path="url(#clip170)" style="stroke:#000000; stroke-linecap:round; stroke-linejoin:round; stroke-width:4; stroke-opacity:1; fill:none" points="1712.3,2185.48 1712.3,2166.58 "/>
<polyline clip-path="url(#clip170)" style="stroke:#000000; stroke-linecap:round; stroke-linejoin:round; stroke-width:4; stroke-opacity:1; fill:none" points="2392.14,2185.48 2392.14,2166.58 "/>
<polyline clip-path="url(#clip170)" style="stroke:#000000; stroke-linecap:round; stroke-linejoin:round; stroke-width:4; stroke-opacity:1; fill:none" points="3071.99,2185.48 3071.99,2166.58 "/>
<path clip-path="url(#clip170)" d="M348.16 2260.16 L357.709 2260.16 L357.709 2227.2 L347.321 2229.29 L347.321 2223.96 L357.651 2221.88 L363.496 2221.88 L363.496 2260.16 L373.045 2260.16 L373.045 2265.08 L348.16 2265.08 L348.16 2260.16 Z" fill="#000000" fill-rule="nonzero" fill-opacity="1" /><path clip-path="url(#clip170)" d="M397.35 2225.73 Q392.836 2225.73 390.55 2230.18 Q388.293 2234.61 388.293 2243.52 Q388.293 2252.41 390.55 2256.86 Q392.836 2261.29 397.35 2261.29 Q401.893 2261.29 404.15 2256.86 Q406.436 2252.41 406.436 2243.52 Q406.436 2234.61 404.15 2230.18 Q401.893 2225.73 397.35 2225.73 M397.35 2221.1 Q404.613 2221.1 408.432 2226.86 Q412.28 2232.59 412.28 2243.52 Q412.28 2254.43 408.432 2260.19 Q404.613 2265.92 397.35 2265.92 Q390.087 2265.92 386.239 2260.19 Q382.42 2254.43 382.42 2243.52 Q382.42 2232.59 386.239 2226.86 Q390.087 2221.1 397.35 2221.1 Z" fill="#000000" fill-rule="nonzero" fill-opacity="1" /><path clip-path="url(#clip170)" d="M574.054 2260.16 L583.602 2260.16 L583.602 2227.2 L573.215 2229.29 L573.215 2223.96 L583.544 2221.88 L589.389 2221.88 L589.389 2260.16 L598.938 2260.16 L598.938 2265.08 L574.054 2265.08 L574.054 2260.16 Z" fill="#000000" fill-rule="nonzero" fill-opacity="1" /><path clip-path="url(#clip170)" d="M623.243 2225.73 Q618.729 2225.73 616.444 2230.18 Q614.187 2234.61 614.187 2243.52 Q614.187 2252.41 616.444 2256.86 Q618.729 2261.29 623.243 2261.29 Q627.786 2261.29 630.043 2256.86 Q632.329 2252.41 632.329 2243.52 Q632.329 2234.61 630.043 2230.18 Q627.786 2225.73 623.243 2225.73 M623.243 2221.1 Q630.506 2221.1 634.325 2226.86 Q638.174 2232.59 638.174 2243.52 Q638.174 2254.43 634.325 2260.19 Q630.506 2265.92 623.243 2265.92 Q615.981 2265.92 612.132 2260.19 Q608.313 2254.43 608.313 2243.52 Q608.313 2232.59 612.132 2226.86 Q615.981 2221.1 623.243 2221.1 Z" fill="#000000" fill-rule="nonzero" fill-opacity="1" /><path clip-path="url(#clip170)" d="M660.946 2225.73 Q656.432 2225.73 654.146 2230.18 Q651.889 2234.61 651.889 2243.52 Q651.889 2252.41 654.146 2256.86 Q656.432 2261.29 660.946 2261.29 Q665.488 2261.29 667.745 2256.86 Q670.031 2252.41 670.031 2243.52 Q670.031 2234.61 667.745 2230.18 Q665.488 2225.73 660.946 2225.73 M660.946 2221.1 Q668.208 2221.1 672.028 2226.86 Q675.876 2232.59 675.876 2243.52 Q675.876 2254.43 672.028 2260.19 Q668.208 2265.92 660.946 2265.92 Q653.683 2265.92 649.835 2260.19 Q646.015 2254.43 646.015 2243.52 Q646.015 2232.59 649.835 2226.86 Q653.683 2221.1 660.946 2221.1 Z" fill="#000000" fill-rule="nonzero" fill-opacity="1" /><path clip-path="url(#clip170)" d="M987.068 2260.16 L1007.47 2260.16 L1007.47 2265.08 L980.037 2265.08 L980.037 2260.16 Q983.365 2256.72 989.094 2250.93 Q994.852 2245.11 996.327 2243.44 Q999.134 2240.28 1000.23 2238.11 Q1001.36 2235.91 1001.36 2233.8 Q1001.36 2230.36 998.932 2228.19 Q996.53 2226.02 992.653 2226.02 Q989.904 2226.02 986.837 2226.97 Q983.799 2227.93 980.326 2229.87 L980.326 2223.96 Q983.856 2222.55 986.924 2221.82 Q989.991 2221.1 992.537 2221.1 Q999.25 2221.1 1003.24 2224.46 Q1007.24 2227.81 1007.24 2233.42 Q1007.24 2236.09 1006.22 2238.49 Q1005.24 2240.86 1002.61 2244.1 Q1001.88 2244.94 998.006 2248.96 Q994.128 2252.96 987.068 2260.16 Z" fill="#000000" fill-rule="nonzero" fill-opacity="1" /><path clip-path="url(#clip170)" d="M1019.79 2221.88 L1042.74 2221.88 L1042.74 2226.8 L1025.15 2226.8 L1025.15 2237.39 Q1026.42 2236.95 1027.69 2236.75 Q1028.97 2236.52 1030.24 2236.52 Q1037.47 2236.52 1041.7 2240.49 Q1045.92 2244.45 1045.92 2251.22 Q1045.92 2258.19 1041.58 2262.07 Q1037.24 2265.92 1029.34 2265.92 Q1026.62 2265.92 1023.79 2265.46 Q1020.98 2264.99 1017.97 2264.07 L1017.97 2258.19 Q1020.58 2259.61 1023.35 2260.31 Q1026.13 2261 1029.23 2261 Q1034.23 2261 1037.15 2258.37 Q1040.08 2255.73 1040.08 2251.22 Q1040.08 2246.71 1037.15 2244.07 Q1034.23 2241.44 1029.23 2241.44 Q1026.88 2241.44 1024.54 2241.96 Q1022.22 2242.48 1019.79 2243.58 L1019.79 2221.88 Z" fill="#000000" fill-rule="nonzero" fill-opacity="1" /><path clip-path="url(#clip170)" d="M1069.94 2225.73 Q1065.42 2225.73 1063.14 2230.18 Q1060.88 2234.61 1060.88 2243.52 Q1060.88 2252.41 1063.14 2256.86 Q1065.42 2261.29 1069.94 2261.29 Q1074.48 2261.29 1076.74 2256.86 Q1079.02 2252.41 1079.02 2243.52 Q1079.02 2234.61 1076.74 2230.18 Q1074.48 2225.73 1069.94 2225.73 M1069.94 2221.1 Q1077.2 2221.1 1081.02 2226.86 Q1084.87 2232.59 1084.87 2243.52 Q1084.87 2254.43 1081.02 2260.19 Q1077.2 2265.92 1069.94 2265.92 Q1062.68 2265.92 1058.83 2260.19 Q1055.01 2254.43 1055.01 2243.52 Q1055.01 2232.59 1058.83 2226.86 Q1062.68 2221.1 1069.94 2221.1 Z" fill="#000000" fill-rule="nonzero" fill-opacity="1" /><path clip-path="url(#clip170)" d="M1661.82 2221.88 L1684.77 2221.88 L1684.77 2226.8 L1667.17 2226.8 L1667.17 2237.39 Q1668.45 2236.95 1669.72 2236.75 Q1670.99 2236.52 1672.27 2236.52 Q1679.5 2236.52 1683.73 2240.49 Q1687.95 2244.45 1687.95 2251.22 Q1687.95 2258.19 1683.61 2262.07 Q1679.27 2265.92 1671.37 2265.92 Q1668.65 2265.92 1665.81 2265.46 Q1663.01 2264.99 1660 2264.07 L1660 2258.19 Q1662.6 2259.61 1665.38 2260.31 Q1668.16 2261 1671.25 2261 Q1676.26 2261 1679.18 2258.37 Q1682.1 2255.73 1682.1 2251.22 Q1682.1 2246.71 1679.18 2244.07 Q1676.26 2241.44 1671.25 2241.44 Q1668.91 2241.44 1666.57 2241.96 Q1664.25 2242.48 1661.82 2243.58 L1661.82 2221.88 Z" fill="#000000" fill-rule="nonzero" fill-opacity="1" /><path clip-path="url(#clip170)" d="M1711.97 2225.73 Q1707.45 2225.73 1705.17 2230.18 Q1702.91 2234.61 1702.91 2243.52 Q1702.91 2252.41 1705.17 2256.86 Q1707.45 2261.29 1711.97 2261.29 Q1716.51 2261.29 1718.77 2256.86 Q1721.05 2252.41 1721.05 2243.52 Q1721.05 2234.61 1718.77 2230.18 Q1716.51 2225.73 1711.97 2225.73 M1711.97 2221.1 Q1719.23 2221.1 1723.05 2226.86 Q1726.9 2232.59 1726.9 2243.52 Q1726.9 2254.43 1723.05 2260.19 Q1719.23 2265.92 1711.97 2265.92 Q1704.7 2265.92 1700.85 2260.19 Q1697.04 2254.43 1697.04 2243.52 Q1697.04 2232.59 1700.85 2226.86 Q1704.7 2221.1 1711.97 2221.1 Z" fill="#000000" fill-rule="nonzero" fill-opacity="1" /><path clip-path="url(#clip170)" d="M1749.67 2225.73 Q1745.15 2225.73 1742.87 2230.18 Q1740.61 2234.61 1740.61 2243.52 Q1740.61 2252.41 1742.87 2256.86 Q1745.15 2261.29 1749.67 2261.29 Q1754.21 2261.29 1756.47 2256.86 Q1758.75 2252.41 1758.75 2243.52 Q1758.75 2234.61 1756.47 2230.18 Q1754.21 2225.73 1749.67 2225.73 M1749.67 2221.1 Q1756.93 2221.1 1760.75 2226.86 Q1764.6 2232.59 1764.6 2243.52 Q1764.6 2254.43 1760.75 2260.19 Q1756.93 2265.92 1749.67 2265.92 Q1742.41 2265.92 1738.56 2260.19 Q1734.74 2254.43 1734.74 2243.52 Q1734.74 2232.59 1738.56 2226.86 Q1742.41 2221.1 1749.67 2221.1 Z" fill="#000000" fill-rule="nonzero" fill-opacity="1" /><path clip-path="url(#clip170)" d="M2339.99 2221.88 L2367.77 2221.88 L2367.77 2224.37 L2352.08 2265.08 L2345.98 2265.08 L2360.74 2226.8 L2339.99 2226.8 L2339.99 2221.88 Z" fill="#000000" fill-rule="nonzero" fill-opacity="1" /><path clip-path="url(#clip170)" d="M2379.22 2221.88 L2402.17 2221.88 L2402.17 2226.8 L2384.58 2226.8 L2384.58 2237.39 Q2385.85 2236.95 2387.12 2236.75 Q2388.4 2236.52 2389.67 2236.52 Q2396.9 2236.52 2401.13 2240.49 Q2405.35 2244.45 2405.35 2251.22 Q2405.35 2258.19 2401.01 2262.07 Q2396.67 2265.92 2388.77 2265.92 Q2386.05 2265.92 2383.22 2265.46 Q2380.41 2264.99 2377.4 2264.07 L2377.4 2258.19 Q2380.01 2259.61 2382.78 2260.31 Q2385.56 2261 2388.66 2261 Q2393.66 2261 2396.59 2258.37 Q2399.51 2255.73 2399.51 2251.22 Q2399.51 2246.71 2396.59 2244.07 Q2393.66 2241.44 2388.66 2241.44 Q2386.31 2241.44 2383.97 2241.96 Q2381.66 2242.48 2379.22 2243.58 L2379.22 2221.88 Z" fill="#000000" fill-rule="nonzero" fill-opacity="1" /><path clip-path="url(#clip170)" d="M2429.37 2225.73 Q2424.86 2225.73 2422.57 2230.18 Q2420.31 2234.61 2420.31 2243.52 Q2420.31 2252.41 2422.57 2256.86 Q2424.86 2261.29 2429.37 2261.29 Q2433.91 2261.29 2436.17 2256.86 Q2438.45 2252.41 2438.45 2243.52 Q2438.45 2234.61 2436.17 2230.18 Q2433.91 2225.73 2429.37 2225.73 M2429.37 2221.1 Q2436.63 2221.1 2440.45 2226.86 Q2444.3 2232.59 2444.3 2243.52 Q2444.3 2254.43 2440.45 2260.19 Q2436.63 2265.92 2429.37 2265.92 Q2422.11 2265.92 2418.26 2260.19 Q2414.44 2254.43 2414.44 2243.52 Q2414.44 2232.59 2418.26 2226.86 Q2422.11 2221.1 2429.37 2221.1 Z" fill="#000000" fill-rule="nonzero" fill-opacity="1" /><path clip-path="url(#clip170)" d="M3002.65 2260.16 L3012.2 2260.16 L3012.2 2227.2 L3001.81 2229.29 L3001.81 2223.96 L3012.14 2221.88 L3017.98 2221.88 L3017.98 2260.16 L3027.53 2260.16 L3027.53 2265.08 L3002.65 2265.08 L3002.65 2260.16 Z" fill="#000000" fill-rule="nonzero" fill-opacity="1" /><path clip-path="url(#clip170)" d="M3051.84 2225.73 Q3047.32 2225.73 3045.04 2230.18 Q3042.78 2234.61 3042.78 2243.52 Q3042.78 2252.41 3045.04 2256.86 Q3047.32 2261.29 3051.84 2261.29 Q3056.38 2261.29 3058.64 2256.86 Q3060.92 2252.41 3060.92 2243.52 Q3060.92 2234.61 3058.64 2230.18 Q3056.38 2225.73 3051.84 2225.73 M3051.84 2221.1 Q3059.1 2221.1 3062.92 2226.86 Q3066.77 2232.59 3066.77 2243.52 Q3066.77 2254.43 3062.92 2260.19 Q3059.1 2265.92 3051.84 2265.92 Q3044.57 2265.92 3040.73 2260.19 Q3036.91 2254.43 3036.91 2243.52 Q3036.91 2232.59 3040.73 2226.86 Q3044.57 2221.1 3051.84 2221.1 Z" fill="#000000" fill-rule="nonzero" fill-opacity="1" /><path clip-path="url(#clip170)" d="M3089.54 2225.73 Q3085.03 2225.73 3082.74 2230.18 Q3080.48 2234.61 3080.48 2243.52 Q3080.48 2252.41 3082.74 2256.86 Q3085.03 2261.29 3089.54 2261.29 Q3094.08 2261.29 3096.34 2256.86 Q3098.62 2252.41 3098.62 2243.52 Q3098.62 2234.61 3096.34 2230.18 Q3094.08 2225.73 3089.54 2225.73 M3089.54 2221.1 Q3096.8 2221.1 3100.62 2226.86 Q3104.47 2232.59 3104.47 2243.52 Q3104.47 2254.43 3100.62 2260.19 Q3096.8 2265.92 3089.54 2265.92 Q3082.28 2265.92 3078.43 2260.19 Q3074.61 2254.43 3074.61 2243.52 Q3074.61 2232.59 3078.43 2226.86 Q3082.28 2221.1 3089.54 2221.1 Z" fill="#000000" fill-rule="nonzero" fill-opacity="1" /><path clip-path="url(#clip170)" d="M3127.24 2225.73 Q3122.73 2225.73 3120.44 2230.18 Q3118.19 2234.61 3118.19 2243.52 Q3118.19 2252.41 3120.44 2256.86 Q3122.73 2261.29 3127.24 2261.29 Q3131.78 2261.29 3134.04 2256.86 Q3136.33 2252.41 3136.33 2243.52 Q3136.33 2234.61 3134.04 2230.18 Q3131.78 2225.73 3127.24 2225.73 M3127.24 2221.1 Q3134.5 2221.1 3138.32 2226.86 Q3142.17 2232.59 3142.17 2243.52 Q3142.17 2254.43 3138.32 2260.19 Q3134.5 2265.92 3127.24 2265.92 Q3119.98 2265.92 3116.13 2260.19 Q3112.31 2254.43 3112.31 2243.52 Q3112.31 2232.59 3116.13 2226.86 Q3119.98 2221.1 3127.24 2221.1 Z" fill="#000000" fill-rule="nonzero" fill-opacity="1" /><path clip-path="url(#clip170)" d="M1417.66 2309.51 L1427.89 2309.51 L1452.79 2356.49 L1452.79 2309.51 L1460.16 2309.51 L1460.16 2365.67 L1449.93 2365.67 L1425.03 2318.69 L1425.03 2365.67 L1417.66 2365.67 L1417.66 2309.51 Z" fill="#000000" fill-rule="nonzero" fill-opacity="1" /><path clip-path="url(#clip170)" d="M1474.27 2349.05 L1474.27 2323.54 L1481.19 2323.54 L1481.19 2348.78 Q1481.19 2354.76 1483.52 2357.77 Q1485.85 2360.74 1490.52 2360.74 Q1496.12 2360.74 1499.36 2357.17 Q1502.63 2353.6 1502.63 2347.43 L1502.63 2323.54 L1509.55 2323.54 L1509.55 2365.67 L1502.63 2365.67 L1502.63 2359.2 Q1500.11 2363.04 1496.76 2364.92 Q1493.45 2366.76 1489.05 2366.76 Q1481.79 2366.76 1478.03 2362.25 Q1474.27 2357.73 1474.27 2349.05 M1491.68 2322.53 L1491.68 2322.53 Z" fill="#000000" fill-rule="nonzero" fill-opacity="1" /><path clip-path="url(#clip170)" d="M1556.61 2331.63 Q1559.2 2326.97 1562.81 2324.75 Q1566.42 2322.53 1571.31 2322.53 Q1577.9 2322.53 1581.47 2327.15 Q1585.04 2331.74 1585.04 2340.24 L1585.04 2365.67 L1578.09 2365.67 L1578.09 2340.47 Q1578.09 2334.41 1575.94 2331.48 Q1573.8 2328.55 1569.4 2328.55 Q1564.02 2328.55 1560.9 2332.12 Q1557.77 2335.69 1557.77 2341.86 L1557.77 2365.67 L1550.81 2365.67 L1550.81 2340.47 Q1550.81 2334.38 1548.67 2331.48 Q1546.53 2328.55 1542.05 2328.55 Q1536.75 2328.55 1533.62 2332.16 Q1530.5 2335.73 1530.5 2341.86 L1530.5 2365.67 L1523.54 2365.67 L1523.54 2323.54 L1530.5 2323.54 L1530.5 2330.09 Q1532.87 2326.21 1536.18 2324.37 Q1539.49 2322.53 1544.04 2322.53 Q1548.63 2322.53 1551.83 2324.86 Q1555.06 2327.19 1556.61 2331.63 Z" fill="#000000" fill-rule="nonzero" fill-opacity="1" /><path clip-path="url(#clip170)" d="M1629.09 2344.64 Q1629.09 2337.01 1625.93 2332.68 Q1622.81 2328.32 1617.32 2328.32 Q1611.83 2328.32 1608.67 2332.68 Q1605.54 2337.01 1605.54 2344.64 Q1605.54 2352.28 1608.67 2356.64 Q1611.83 2360.97 1617.32 2360.97 Q1622.81 2360.97 1625.93 2356.64 Q1629.09 2352.28 1629.09 2344.64 M1605.54 2329.94 Q1607.73 2326.18 1611.04 2324.37 Q1614.38 2322.53 1619.01 2322.53 Q1626.68 2322.53 1631.46 2328.62 Q1636.28 2334.71 1636.28 2344.64 Q1636.28 2354.58 1631.46 2360.67 Q1626.68 2366.76 1619.01 2366.76 Q1614.38 2366.76 1611.04 2364.96 Q1607.73 2363.11 1605.54 2359.35 L1605.54 2365.67 L1598.59 2365.67 L1598.59 2307.14 L1605.54 2307.14 L1605.54 2329.94 Z" fill="#000000" fill-rule="nonzero" fill-opacity="1" /><path clip-path="url(#clip170)" d="M1683.78 2342.88 L1683.78 2346.26 L1651.96 2346.26 Q1652.41 2353.41 1656.25 2357.17 Q1660.12 2360.89 1667.01 2360.89 Q1671 2360.89 1674.72 2359.92 Q1678.48 2358.94 1682.17 2356.98 L1682.17 2363.53 Q1678.44 2365.11 1674.53 2365.94 Q1670.62 2366.76 1666.59 2366.76 Q1656.51 2366.76 1650.61 2360.89 Q1644.74 2355.03 1644.74 2345.02 Q1644.74 2334.68 1650.31 2328.62 Q1655.91 2322.53 1665.39 2322.53 Q1673.89 2322.53 1678.82 2328.02 Q1683.78 2333.47 1683.78 2342.88 M1676.86 2340.85 Q1676.79 2335.17 1673.67 2331.78 Q1670.58 2328.39 1665.47 2328.39 Q1659.67 2328.39 1656.18 2331.67 Q1652.71 2334.94 1652.19 2340.88 L1676.86 2340.85 Z" fill="#000000" fill-rule="nonzero" fill-opacity="1" /><path clip-path="url(#clip170)" d="M1719.56 2330.01 Q1718.39 2329.34 1717 2329.03 Q1715.65 2328.7 1713.99 2328.7 Q1708.12 2328.7 1704.96 2332.53 Q1701.84 2336.33 1701.84 2343.48 L1701.84 2365.67 L1694.88 2365.67 L1694.88 2323.54 L1701.84 2323.54 L1701.84 2330.09 Q1704.02 2326.25 1707.52 2324.41 Q1711.02 2322.53 1716.02 2322.53 Q1716.74 2322.53 1717.6 2322.64 Q1718.47 2322.71 1719.52 2322.9 L1719.56 2330.01 Z" fill="#000000" fill-rule="nonzero" fill-opacity="1" /><path clip-path="url(#clip170)" d="M1767.63 2328.39 Q1762.06 2328.39 1758.83 2332.76 Q1755.59 2337.08 1755.59 2344.64 Q1755.59 2352.21 1758.79 2356.57 Q1762.03 2360.89 1767.63 2360.89 Q1773.16 2360.89 1776.39 2356.53 Q1779.63 2352.17 1779.63 2344.64 Q1779.63 2337.16 1776.39 2332.8 Q1773.16 2328.39 1767.63 2328.39 M1767.63 2322.53 Q1776.66 2322.53 1781.81 2328.39 Q1786.96 2334.26 1786.96 2344.64 Q1786.96 2354.99 1781.81 2360.89 Q1776.66 2366.76 1767.63 2366.76 Q1758.56 2366.76 1753.41 2360.89 Q1748.3 2354.99 1748.3 2344.64 Q1748.3 2334.26 1753.41 2328.39 Q1758.56 2322.53 1767.63 2322.53 Z" fill="#000000" fill-rule="nonzero" fill-opacity="1" /><path clip-path="url(#clip170)" d="M1819.77 2307.14 L1819.77 2312.9 L1813.14 2312.9 Q1809.42 2312.9 1807.95 2314.4 Q1806.52 2315.91 1806.52 2319.82 L1806.52 2323.54 L1817.92 2323.54 L1817.92 2328.92 L1806.52 2328.92 L1806.52 2365.67 L1799.57 2365.67 L1799.57 2328.92 L1792.95 2328.92 L1792.95 2323.54 L1799.57 2323.54 L1799.57 2320.61 Q1799.57 2313.57 1802.84 2310.38 Q1806.11 2307.14 1813.22 2307.14 L1819.77 2307.14 Z" fill="#000000" fill-rule="nonzero" fill-opacity="1" /><path clip-path="url(#clip170)" d="M1856.89 2311.58 L1856.89 2323.54 L1871.15 2323.54 L1871.15 2328.92 L1856.89 2328.92 L1856.89 2351.79 Q1856.89 2356.95 1858.28 2358.41 Q1859.71 2359.88 1864.04 2359.88 L1871.15 2359.88 L1871.15 2365.67 L1864.04 2365.67 Q1856.03 2365.67 1852.98 2362.7 Q1849.93 2359.69 1849.93 2351.79 L1849.93 2328.92 L1844.85 2328.92 L1844.85 2323.54 L1849.93 2323.54 L1849.93 2311.58 L1856.89 2311.58 Z" fill="#000000" fill-rule="nonzero" fill-opacity="1" /><path clip-path="url(#clip170)" d="M1904.66 2330.01 Q1903.5 2329.34 1902.11 2329.03 Q1900.75 2328.7 1899.1 2328.7 Q1893.23 2328.7 1890.07 2332.53 Q1886.95 2336.33 1886.95 2343.48 L1886.95 2365.67 L1879.99 2365.67 L1879.99 2323.54 L1886.95 2323.54 L1886.95 2330.09 Q1889.13 2326.25 1892.63 2324.41 Q1896.12 2322.53 1901.13 2322.53 Q1901.84 2322.53 1902.71 2322.64 Q1903.57 2322.71 1904.63 2322.9 L1904.66 2330.01 Z" fill="#000000" fill-rule="nonzero" fill-opacity="1" /><path clip-path="url(#clip170)" d="M1946.27 2342.88 L1946.27 2346.26 L1914.44 2346.26 Q1914.89 2353.41 1918.73 2357.17 Q1922.61 2360.89 1929.49 2360.89 Q1933.48 2360.89 1937.2 2359.92 Q1940.96 2358.94 1944.65 2356.98 L1944.65 2363.53 Q1940.92 2365.11 1937.01 2365.94 Q1933.1 2366.76 1929.08 2366.76 Q1918.99 2366.76 1913.09 2360.89 Q1907.22 2355.03 1907.22 2345.02 Q1907.22 2334.68 1912.79 2328.62 Q1918.39 2322.53 1927.87 2322.53 Q1936.37 2322.53 1941.3 2328.02 Q1946.27 2333.47 1946.27 2342.88 M1939.34 2340.85 Q1939.27 2335.17 1936.15 2331.78 Q1933.06 2328.39 1927.95 2328.39 Q1922.15 2328.39 1918.66 2331.67 Q1915.2 2334.94 1914.67 2340.88 L1939.34 2340.85 Z" fill="#000000" fill-rule="nonzero" fill-opacity="1" /><path clip-path="url(#clip170)" d="M1993.66 2342.88 L1993.66 2346.26 L1961.84 2346.26 Q1962.29 2353.41 1966.13 2357.17 Q1970 2360.89 1976.89 2360.89 Q1980.87 2360.89 1984.6 2359.92 Q1988.36 2358.94 1992.04 2356.98 L1992.04 2363.53 Q1988.32 2365.11 1984.41 2365.94 Q1980.5 2366.76 1976.47 2366.76 Q1966.39 2366.76 1960.48 2360.89 Q1954.62 2355.03 1954.62 2345.02 Q1954.62 2334.68 1960.18 2328.62 Q1965.79 2322.53 1975.27 2322.53 Q1983.77 2322.53 1988.7 2328.02 Q1993.66 2333.47 1993.66 2342.88 M1986.74 2340.85 Q1986.67 2335.17 1983.54 2331.78 Q1980.46 2328.39 1975.34 2328.39 Q1969.55 2328.39 1966.05 2331.67 Q1962.59 2334.94 1962.06 2340.88 L1986.74 2340.85 Z" fill="#000000" fill-rule="nonzero" fill-opacity="1" /><path clip-path="url(#clip170)" d="M2031.88 2324.78 L2031.88 2331.33 Q2028.95 2329.82 2025.79 2329.07 Q2022.63 2328.32 2019.24 2328.32 Q2014.09 2328.32 2011.49 2329.9 Q2008.93 2331.48 2008.93 2334.64 Q2008.93 2337.05 2010.78 2338.44 Q2012.62 2339.79 2018.19 2341.03 L2020.56 2341.56 Q2027.93 2343.14 2031.01 2346.04 Q2034.14 2348.9 2034.14 2354.05 Q2034.14 2359.92 2029.47 2363.34 Q2024.85 2366.76 2016.72 2366.76 Q2013.33 2366.76 2009.65 2366.09 Q2006 2365.45 2001.94 2364.13 L2001.94 2356.98 Q2005.77 2358.98 2009.5 2359.99 Q2013.22 2360.97 2016.87 2360.97 Q2021.76 2360.97 2024.39 2359.31 Q2027.03 2357.62 2027.03 2354.58 Q2027.03 2351.75 2025.11 2350.25 Q2023.23 2348.74 2016.8 2347.35 L2014.39 2346.79 Q2007.96 2345.43 2005.1 2342.65 Q2002.24 2339.83 2002.24 2334.94 Q2002.24 2329 2006.45 2325.76 Q2010.66 2322.53 2018.41 2322.53 Q2022.25 2322.53 2025.63 2323.09 Q2029.02 2323.66 2031.88 2324.78 Z" fill="#000000" fill-rule="nonzero" fill-opacity="1" /><polyline clip-path="url(#clip172)" style="stroke:#000000; stroke-linecap:round; stroke-linejoin:round; stroke-width:2; stroke-opacity:0.1; fill:none" points="299.035,2184.26 3152.76,2184.26 "/>
<polyline clip-path="url(#clip172)" style="stroke:#000000; stroke-linecap:round; stroke-linejoin:round; stroke-width:2; stroke-opacity:0.1; fill:none" points="299.035,1737.04 3152.76,1737.04 "/>
<polyline clip-path="url(#clip172)" style="stroke:#000000; stroke-linecap:round; stroke-linejoin:round; stroke-width:2; stroke-opacity:0.1; fill:none" points="299.035,1289.82 3152.76,1289.82 "/>
<polyline clip-path="url(#clip172)" style="stroke:#000000; stroke-linecap:round; stroke-linejoin:round; stroke-width:2; stroke-opacity:0.1; fill:none" points="299.035,842.603 3152.76,842.603 "/>
<polyline clip-path="url(#clip172)" style="stroke:#000000; stroke-linecap:round; stroke-linejoin:round; stroke-width:2; stroke-opacity:0.1; fill:none" points="299.035,395.383 3152.76,395.383 "/>
<polyline clip-path="url(#clip170)" style="stroke:#000000; stroke-linecap:round; stroke-linejoin:round; stroke-width:4; stroke-opacity:1; fill:none" points="299.035,2185.48 299.035,47.2441 "/>
<polyline clip-path="url(#clip170)" style="stroke:#000000; stroke-linecap:round; stroke-linejoin:round; stroke-width:4; stroke-opacity:1; fill:none" points="299.035,2184.26 317.933,2184.26 "/>
<polyline clip-path="url(#clip170)" style="stroke:#000000; stroke-linecap:round; stroke-linejoin:round; stroke-width:4; stroke-opacity:1; fill:none" points="299.035,1737.04 317.933,1737.04 "/>
<polyline clip-path="url(#clip170)" style="stroke:#000000; stroke-linecap:round; stroke-linejoin:round; stroke-width:4; stroke-opacity:1; fill:none" points="299.035,1289.82 317.933,1289.82 "/>
<polyline clip-path="url(#clip170)" style="stroke:#000000; stroke-linecap:round; stroke-linejoin:round; stroke-width:4; stroke-opacity:1; fill:none" points="299.035,842.603 317.933,842.603 "/>
<polyline clip-path="url(#clip170)" style="stroke:#000000; stroke-linecap:round; stroke-linejoin:round; stroke-width:4; stroke-opacity:1; fill:none" points="299.035,395.383 317.933,395.383 "/>
<path clip-path="url(#clip170)" d="M147.072 2182.57 Q151.267 2183.47 153.611 2186.3 Q155.984 2189.14 155.984 2193.3 Q155.984 2199.7 151.586 2203.2 Q147.187 2206.7 139.086 2206.7 Q136.366 2206.7 133.472 2206.15 Q130.608 2205.63 127.541 2204.56 L127.541 2198.92 Q129.971 2200.34 132.865 2201.06 Q135.758 2201.78 138.912 2201.78 Q144.41 2201.78 147.274 2199.61 Q150.168 2197.44 150.168 2193.3 Q150.168 2189.49 147.477 2187.34 Q144.815 2185.17 140.04 2185.17 L135.006 2185.17 L135.006 2180.37 L140.272 2180.37 Q144.583 2180.37 146.869 2178.66 Q149.155 2176.93 149.155 2173.69 Q149.155 2170.36 146.782 2168.59 Q144.439 2166.8 140.04 2166.8 Q137.639 2166.8 134.89 2167.32 Q132.141 2167.84 128.843 2168.94 L128.843 2163.73 Q132.17 2162.81 135.064 2162.34 Q137.986 2161.88 140.561 2161.88 Q147.216 2161.88 151.094 2164.92 Q154.971 2167.93 154.971 2173.08 Q154.971 2176.67 152.917 2179.16 Q150.862 2181.61 147.072 2182.57 Z" fill="#000000" fill-rule="nonzero" fill-opacity="1" /><path clip-path="url(#clip170)" d="M167.066 2198.51 L173.171 2198.51 L173.171 2205.86 L167.066 2205.86 L167.066 2198.51 Z" fill="#000000" fill-rule="nonzero" fill-opacity="1" /><path clip-path="url(#clip170)" d="M198.402 2166.51 Q193.889 2166.51 191.603 2170.97 Q189.346 2175.39 189.346 2184.31 Q189.346 2193.19 191.603 2197.64 Q193.889 2202.07 198.402 2202.07 Q202.945 2202.07 205.202 2197.64 Q207.488 2193.19 207.488 2184.31 Q207.488 2175.39 205.202 2170.97 Q202.945 2166.51 198.402 2166.51 M198.402 2161.88 Q205.665 2161.88 209.485 2167.64 Q213.333 2173.37 213.333 2184.31 Q213.333 2195.21 209.485 2200.97 Q205.665 2206.7 198.402 2206.7 Q191.14 2206.7 187.291 2200.97 Q183.472 2195.21 183.472 2184.31 Q183.472 2173.37 187.291 2167.64 Q191.14 2161.88 198.402 2161.88 Z" fill="#000000" fill-rule="nonzero" fill-opacity="1" /><path clip-path="url(#clip170)" d="M236.105 2166.51 Q231.591 2166.51 229.305 2170.97 Q227.048 2175.39 227.048 2184.31 Q227.048 2193.19 229.305 2197.64 Q231.591 2202.07 236.105 2202.07 Q240.648 2202.07 242.904 2197.64 Q245.19 2193.19 245.19 2184.31 Q245.19 2175.39 242.904 2170.97 Q240.648 2166.51 236.105 2166.51 M236.105 2161.88 Q243.367 2161.88 247.187 2167.64 Q251.035 2173.37 251.035 2184.31 Q251.035 2195.21 247.187 2200.97 Q243.367 2206.7 236.105 2206.7 Q228.842 2206.7 224.994 2200.97 Q221.174 2195.21 221.174 2184.31 Q221.174 2173.37 224.994 2167.64 Q228.842 2161.88 236.105 2161.88 Z" fill="#000000" fill-rule="nonzero" fill-opacity="1" /><path clip-path="url(#clip170)" d="M148.316 1735.35 Q152.511 1736.25 154.855 1739.08 Q157.228 1741.92 157.228 1746.08 Q157.228 1752.48 152.83 1755.98 Q148.432 1759.48 140.33 1759.48 Q137.61 1759.48 134.716 1758.93 Q131.852 1758.41 128.785 1757.34 L128.785 1751.7 Q131.215 1753.12 134.109 1753.84 Q137.002 1754.56 140.156 1754.56 Q145.654 1754.56 148.518 1752.39 Q151.412 1750.22 151.412 1746.08 Q151.412 1742.27 148.721 1740.12 Q146.059 1737.95 141.285 1737.95 L136.25 1737.95 L136.25 1733.15 L141.516 1733.15 Q145.827 1733.15 148.113 1731.44 Q150.399 1729.71 150.399 1726.47 Q150.399 1723.14 148.027 1721.37 Q145.683 1719.58 141.285 1719.58 Q138.883 1719.58 136.134 1720.1 Q133.385 1720.62 130.087 1721.72 L130.087 1716.51 Q133.414 1715.59 136.308 1715.12 Q139.23 1714.66 141.805 1714.66 Q148.461 1714.66 152.338 1717.7 Q156.215 1720.71 156.215 1725.86 Q156.215 1729.45 154.161 1731.94 Q152.106 1734.4 148.316 1735.35 Z" fill="#000000" fill-rule="nonzero" fill-opacity="1" /><path clip-path="url(#clip170)" d="M168.31 1751.29 L174.415 1751.29 L174.415 1758.64 L168.31 1758.64 L168.31 1751.29 Z" fill="#000000" fill-rule="nonzero" fill-opacity="1" /><path clip-path="url(#clip170)" d="M192.181 1753.72 L212.581 1753.72 L212.581 1758.64 L185.15 1758.64 L185.15 1753.72 Q188.478 1750.28 194.207 1744.49 Q199.965 1738.68 201.441 1737 Q204.247 1733.85 205.347 1731.68 Q206.475 1729.48 206.475 1727.36 Q206.475 1723.92 204.045 1721.75 Q201.643 1719.58 197.766 1719.58 Q195.017 1719.58 191.95 1720.54 Q188.912 1721.49 185.44 1723.43 L185.44 1717.53 Q188.97 1716.11 192.037 1715.38 Q195.104 1714.66 197.65 1714.66 Q204.363 1714.66 208.356 1718.02 Q212.349 1721.37 212.349 1726.99 Q212.349 1729.65 211.336 1732.05 Q210.353 1734.42 207.719 1737.66 Q206.996 1738.5 203.119 1742.53 Q199.242 1746.52 192.181 1753.72 Z" fill="#000000" fill-rule="nonzero" fill-opacity="1" /><path clip-path="url(#clip170)" d="M224.907 1715.44 L247.852 1715.44 L247.852 1720.36 L230.26 1720.36 L230.26 1730.95 Q231.533 1730.52 232.806 1730.32 Q234.079 1730.08 235.352 1730.08 Q242.586 1730.08 246.811 1734.05 Q251.035 1738.01 251.035 1744.78 Q251.035 1751.76 246.695 1755.63 Q242.355 1759.48 234.455 1759.48 Q231.736 1759.48 228.9 1759.02 Q226.093 1758.56 223.084 1757.63 L223.084 1751.76 Q225.688 1753.17 228.466 1753.87 Q231.244 1754.56 234.34 1754.56 Q239.345 1754.56 242.268 1751.93 Q245.19 1749.3 245.19 1744.78 Q245.19 1740.27 242.268 1737.64 Q239.345 1735 234.34 1735 Q231.996 1735 229.652 1735.52 Q227.337 1736.04 224.907 1737.14 L224.907 1715.44 Z" fill="#000000" fill-rule="nonzero" fill-opacity="1" /><path clip-path="url(#clip170)" d="M147.072 1288.13 Q151.267 1289.03 153.611 1291.86 Q155.984 1294.7 155.984 1298.86 Q155.984 1305.26 151.586 1308.76 Q147.187 1312.26 139.086 1312.26 Q136.366 1312.26 133.472 1311.71 Q130.608 1311.19 127.541 1310.12 L127.541 1304.48 Q129.971 1305.9 132.865 1306.62 Q135.758 1307.34 138.912 1307.34 Q144.41 1307.34 147.274 1305.17 Q150.168 1303 150.168 1298.86 Q150.168 1295.05 147.477 1292.9 Q144.815 1290.73 140.04 1290.73 L135.006 1290.73 L135.006 1285.93 L140.272 1285.93 Q144.583 1285.93 146.869 1284.22 Q149.155 1282.49 149.155 1279.25 Q149.155 1275.92 146.782 1274.15 Q144.439 1272.36 140.04 1272.36 Q137.639 1272.36 134.89 1272.88 Q132.141 1273.4 128.843 1274.5 L128.843 1269.29 Q132.17 1268.37 135.064 1267.9 Q137.986 1267.44 140.561 1267.44 Q147.216 1267.44 151.094 1270.48 Q154.971 1273.49 154.971 1278.64 Q154.971 1282.23 152.917 1284.72 Q150.862 1287.18 147.072 1288.13 Z" fill="#000000" fill-rule="nonzero" fill-opacity="1" /><path clip-path="url(#clip170)" d="M167.066 1304.07 L173.171 1304.07 L173.171 1311.42 L167.066 1311.42 L167.066 1304.07 Z" fill="#000000" fill-rule="nonzero" fill-opacity="1" /><path clip-path="url(#clip170)" d="M185.96 1268.22 L208.906 1268.22 L208.906 1273.14 L191.313 1273.14 L191.313 1283.73 Q192.586 1283.3 193.86 1283.1 Q195.133 1282.86 196.406 1282.86 Q203.64 1282.86 207.864 1286.83 Q212.089 1290.79 212.089 1297.56 Q212.089 1304.54 207.748 1308.41 Q203.408 1312.26 195.509 1312.26 Q192.789 1312.26 189.953 1311.8 Q187.147 1311.34 184.137 1310.41 L184.137 1304.54 Q186.742 1305.95 189.519 1306.65 Q192.297 1307.34 195.393 1307.34 Q200.399 1307.34 203.321 1304.71 Q206.244 1302.08 206.244 1297.56 Q206.244 1293.05 203.321 1290.42 Q200.399 1287.78 195.393 1287.78 Q193.049 1287.78 190.706 1288.3 Q188.391 1288.82 185.96 1289.92 L185.96 1268.22 Z" fill="#000000" fill-rule="nonzero" fill-opacity="1" /><path clip-path="url(#clip170)" d="M236.105 1272.07 Q231.591 1272.07 229.305 1276.53 Q227.048 1280.95 227.048 1289.87 Q227.048 1298.75 229.305 1303.21 Q231.591 1307.63 236.105 1307.63 Q240.648 1307.63 242.904 1303.21 Q245.19 1298.75 245.19 1289.87 Q245.19 1280.95 242.904 1276.53 Q240.648 1272.07 236.105 1272.07 M236.105 1267.44 Q243.367 1267.44 247.187 1273.2 Q251.035 1278.93 251.035 1289.87 Q251.035 1300.77 247.187 1306.53 Q243.367 1312.26 236.105 1312.26 Q228.842 1312.26 224.994 1306.53 Q221.174 1300.77 221.174 1289.87 Q221.174 1278.93 224.994 1273.2 Q228.842 1267.44 236.105 1267.44 Z" fill="#000000" fill-rule="nonzero" fill-opacity="1" /><path clip-path="url(#clip170)" d="M148.316 840.91 Q152.511 841.807 154.855 844.643 Q157.228 847.478 157.228 851.645 Q157.228 858.04 152.83 861.541 Q148.432 865.042 140.33 865.042 Q137.61 865.042 134.716 864.492 Q131.852 863.971 128.785 862.901 L128.785 857.258 Q131.215 858.676 134.109 859.4 Q137.002 860.123 140.156 860.123 Q145.654 860.123 148.518 857.953 Q151.412 855.783 151.412 851.645 Q151.412 847.826 148.721 845.684 Q146.059 843.514 141.285 843.514 L136.25 843.514 L136.25 838.711 L141.516 838.711 Q145.827 838.711 148.113 837.004 Q150.399 835.268 150.399 832.027 Q150.399 828.7 148.027 826.935 Q145.683 825.141 141.285 825.141 Q138.883 825.141 136.134 825.661 Q133.385 826.182 130.087 827.282 L130.087 822.073 Q133.414 821.148 136.308 820.685 Q139.23 820.222 141.805 820.222 Q148.461 820.222 152.338 823.26 Q156.215 826.269 156.215 831.42 Q156.215 835.007 154.161 837.496 Q152.106 839.955 148.316 840.91 Z" fill="#000000" fill-rule="nonzero" fill-opacity="1" /><path clip-path="url(#clip170)" d="M168.31 856.853 L174.415 856.853 L174.415 864.203 L168.31 864.203 L168.31 856.853 Z" fill="#000000" fill-rule="nonzero" fill-opacity="1" /><path clip-path="url(#clip170)" d="M185.671 821.003 L213.449 821.003 L213.449 823.491 L197.766 864.203 L191.661 864.203 L206.417 825.922 L185.671 825.922 L185.671 821.003 Z" fill="#000000" fill-rule="nonzero" fill-opacity="1" /><path clip-path="url(#clip170)" d="M224.907 821.003 L247.852 821.003 L247.852 825.922 L230.26 825.922 L230.26 836.512 Q231.533 836.078 232.806 835.876 Q234.079 835.644 235.352 835.644 Q242.586 835.644 246.811 839.608 Q251.035 843.572 251.035 850.343 Q251.035 857.316 246.695 861.194 Q242.355 865.042 234.455 865.042 Q231.736 865.042 228.9 864.579 Q226.093 864.116 223.084 863.19 L223.084 857.316 Q225.688 858.734 228.466 859.429 Q231.244 860.123 234.34 860.123 Q239.345 860.123 242.268 857.49 Q245.19 854.857 245.19 850.343 Q245.19 845.829 242.268 843.196 Q239.345 840.563 234.34 840.563 Q231.996 840.563 229.652 841.084 Q227.337 841.605 224.907 842.704 L224.907 821.003 Z" fill="#000000" fill-rule="nonzero" fill-opacity="1" /><path clip-path="url(#clip170)" d="M145.422 378.876 L130.666 401.937 L145.422 401.937 L145.422 378.876 M143.889 373.783 L151.238 373.783 L151.238 401.937 L157.401 401.937 L157.401 406.798 L151.238 406.798 L151.238 416.983 L145.422 416.983 L145.422 406.798 L125.92 406.798 L125.92 401.156 L143.889 373.783 Z" fill="#000000" fill-rule="nonzero" fill-opacity="1" /><path clip-path="url(#clip170)" d="M167.066 409.634 L173.171 409.634 L173.171 416.983 L167.066 416.983 L167.066 409.634 Z" fill="#000000" fill-rule="nonzero" fill-opacity="1" /><path clip-path="url(#clip170)" d="M198.402 377.631 Q193.889 377.631 191.603 382.087 Q189.346 386.514 189.346 395.426 Q189.346 404.31 191.603 408.766 Q193.889 413.193 198.402 413.193 Q202.945 413.193 205.202 408.766 Q207.488 404.31 207.488 395.426 Q207.488 386.514 205.202 382.087 Q202.945 377.631 198.402 377.631 M198.402 373.002 Q205.665 373.002 209.485 378.76 Q213.333 384.489 213.333 395.426 Q213.333 406.335 209.485 412.093 Q205.665 417.822 198.402 417.822 Q191.14 417.822 187.291 412.093 Q183.472 406.335 183.472 395.426 Q183.472 384.489 187.291 378.76 Q191.14 373.002 198.402 373.002 Z" fill="#000000" fill-rule="nonzero" fill-opacity="1" /><path clip-path="url(#clip170)" d="M236.105 377.631 Q231.591 377.631 229.305 382.087 Q227.048 386.514 227.048 395.426 Q227.048 404.31 229.305 408.766 Q231.591 413.193 236.105 413.193 Q240.648 413.193 242.904 408.766 Q245.19 404.31 245.19 395.426 Q245.19 386.514 242.904 382.087 Q240.648 377.631 236.105 377.631 M236.105 373.002 Q243.367 373.002 247.187 378.76 Q251.035 384.489 251.035 395.426 Q251.035 406.335 247.187 412.093 Q243.367 417.822 236.105 417.822 Q228.842 417.822 224.994 412.093 Q221.174 406.335 221.174 395.426 Q221.174 384.489 224.994 378.76 Q228.842 373.002 236.105 373.002 Z" fill="#000000" fill-rule="nonzero" fill-opacity="1" /><path clip-path="url(#clip170)" d="M34.7413 1568.2 Q35.5688 1565.75 38.2771 1563.46 Q40.9855 1561.13 45.725 1558.8 L61.0722 1551.08 L61.0722 1559.25 L46.6654 1566.43 Q41.0231 1569.22 39.1799 1571.85 Q37.3368 1574.44 37.3368 1578.96 L37.3368 1587.23 L61.0722 1587.23 L61.0722 1594.83 L4.91216 1594.83 L4.91216 1577.68 Q4.91216 1568.05 8.93702 1563.31 Q12.9619 1558.57 21.0868 1558.57 Q26.3906 1558.57 29.8889 1561.05 Q33.3871 1563.5 34.7413 1568.2 M11.1563 1587.23 L31.0926 1587.23 L31.0926 1577.68 Q31.0926 1572.19 28.5723 1569.4 Q26.0145 1566.58 21.0868 1566.58 Q16.1592 1566.58 13.6766 1569.4 Q11.1563 1572.19 11.1563 1577.68 L11.1563 1587.23 Z" fill="#000000" fill-rule="nonzero" fill-opacity="1" /><path clip-path="url(#clip170)" d="M23.7952 1528.74 Q23.7952 1534.31 28.1586 1537.54 Q32.4843 1540.78 40.0451 1540.78 Q47.6058 1540.78 51.9692 1537.58 Q56.295 1534.35 56.295 1528.74 Q56.295 1523.21 51.9316 1519.98 Q47.5682 1516.74 40.0451 1516.74 Q32.5596 1516.74 28.1962 1519.98 Q23.7952 1523.21 23.7952 1528.74 M17.9271 1528.74 Q17.9271 1519.71 23.7952 1514.56 Q29.6632 1509.41 40.0451 1509.41 Q50.3893 1509.41 56.295 1514.56 Q62.163 1519.71 62.163 1528.74 Q62.163 1537.81 56.295 1542.96 Q50.3893 1548.08 40.0451 1548.08 Q29.6632 1548.08 23.7952 1542.96 Q17.9271 1537.81 17.9271 1528.74 Z" fill="#000000" fill-rule="nonzero" fill-opacity="1" /><path clip-path="url(#clip170)" d="M23.7952 1481.61 Q23.7952 1487.18 28.1586 1490.41 Q32.4843 1493.65 40.0451 1493.65 Q47.6058 1493.65 51.9692 1490.45 Q56.295 1487.21 56.295 1481.61 Q56.295 1476.08 51.9316 1472.84 Q47.5682 1469.61 40.0451 1469.61 Q32.5596 1469.61 28.1962 1472.84 Q23.7952 1476.08 23.7952 1481.61 M17.9271 1481.61 Q17.9271 1472.58 23.7952 1467.43 Q29.6632 1462.27 40.0451 1462.27 Q50.3893 1462.27 56.295 1467.43 Q62.163 1472.58 62.163 1481.61 Q62.163 1490.67 56.295 1495.83 Q50.3893 1500.94 40.0451 1500.94 Q29.6632 1500.94 23.7952 1495.83 Q17.9271 1490.67 17.9271 1481.61 Z" fill="#000000" fill-rule="nonzero" fill-opacity="1" /><path clip-path="url(#clip170)" d="M6.98101 1443.96 L18.9428 1443.96 L18.9428 1429.7 L24.3218 1429.7 L24.3218 1443.96 L47.192 1443.96 Q52.3454 1443.96 53.8124 1442.56 Q55.2794 1441.13 55.2794 1436.81 L55.2794 1429.7 L61.0722 1429.7 L61.0722 1436.81 Q61.0722 1444.82 58.1005 1447.87 Q55.0913 1450.91 47.192 1450.91 L24.3218 1450.91 L24.3218 1455.99 L18.9428 1455.99 L18.9428 1450.91 L6.98101 1450.91 L6.98101 1443.96 Z" fill="#000000" fill-rule="nonzero" fill-opacity="1" /><path clip-path="url(#clip170)" d="M4.91216 1395.81 L4.91216 1384.49 L43.1295 1370.15 L4.91216 1355.75 L4.91216 1344.42 L61.0722 1344.42 L61.0722 1351.84 L11.7582 1351.84 L50.2765 1366.32 L50.2765 1373.95 L11.7582 1388.44 L61.0722 1388.44 L61.0722 1395.81 L4.91216 1395.81 Z" fill="#000000" fill-rule="nonzero" fill-opacity="1" /><path clip-path="url(#clip170)" d="M38.2771 1293.61 L41.6625 1293.61 L41.6625 1325.43 Q48.8095 1324.98 52.571 1321.14 Q56.295 1317.27 56.295 1310.38 Q56.295 1306.4 55.317 1302.67 Q54.339 1298.91 52.383 1295.22 L58.9281 1295.22 Q60.5079 1298.95 61.3355 1302.86 Q62.163 1306.77 62.163 1310.8 Q62.163 1320.88 56.295 1326.78 Q50.427 1332.65 40.4212 1332.65 Q30.077 1332.65 24.0209 1327.08 Q17.9271 1321.48 17.9271 1312 Q17.9271 1303.5 23.419 1298.57 Q28.8733 1293.61 38.2771 1293.61 M36.2459 1300.53 Q30.566 1300.6 27.1806 1303.72 Q23.7952 1306.81 23.7952 1311.93 Q23.7952 1317.72 27.0677 1321.22 Q30.3403 1324.68 36.2835 1325.2 L36.2459 1300.53 Z" fill="#000000" fill-rule="nonzero" fill-opacity="1" /><path clip-path="url(#clip170)" d="M39.8946 1263.1 Q39.8946 1271.49 41.813 1274.72 Q43.7314 1277.96 48.3581 1277.96 Q52.0444 1277.96 54.2261 1275.55 Q56.3702 1273.11 56.3702 1268.93 Q56.3702 1263.18 52.3077 1259.71 Q48.2076 1256.22 41.4368 1256.22 L39.8946 1256.22 L39.8946 1263.1 M37.0358 1249.3 L61.0722 1249.3 L61.0722 1256.22 L54.6775 1256.22 Q58.5143 1258.59 60.3575 1262.12 Q62.163 1265.66 62.163 1270.77 Q62.163 1277.24 58.5519 1281.08 Q54.9032 1284.88 48.8095 1284.88 Q41.7002 1284.88 38.0891 1280.14 Q34.478 1275.36 34.478 1265.92 L34.478 1256.22 L33.8009 1256.22 Q29.0237 1256.22 26.4282 1259.38 Q23.7952 1262.5 23.7952 1268.18 Q23.7952 1271.79 24.6603 1275.21 Q25.5255 1278.64 27.2558 1281.8 L20.8611 1281.8 Q19.3941 1278 18.6794 1274.42 Q17.9271 1270.85 17.9271 1267.46 Q17.9271 1258.32 22.6667 1253.81 Q27.4062 1249.3 37.0358 1249.3 Z" fill="#000000" fill-rule="nonzero" fill-opacity="1" /><path clip-path="url(#clip170)" d="M35.6441 1200.02 L61.0722 1200.02 L61.0722 1206.94 L35.8697 1206.94 Q29.8889 1206.94 26.9172 1209.27 Q23.9456 1211.6 23.9456 1216.27 Q23.9456 1221.87 27.5191 1225.11 Q31.0926 1228.34 37.2615 1228.34 L61.0722 1228.34 L61.0722 1235.3 L18.9428 1235.3 L18.9428 1228.34 L25.4879 1228.34 Q21.6887 1225.86 19.8079 1222.51 Q17.9271 1219.13 17.9271 1214.73 Q17.9271 1207.47 22.441 1203.74 Q26.9172 1200.02 35.6441 1200.02 Z" fill="#000000" fill-rule="nonzero" fill-opacity="1" /><path clip-path="url(#clip170)" d="M6.75532 1127.76 L14.1656 1127.76 Q12.0967 1132.09 11.0811 1135.92 Q10.0655 1139.76 10.0655 1143.33 Q10.0655 1149.54 12.4729 1152.92 Q14.8803 1156.27 19.3189 1156.27 Q23.0428 1156.27 24.9612 1154.05 Q26.842 1151.8 28.0081 1145.55 L28.9485 1140.96 Q30.566 1132.46 34.666 1128.44 Q38.7285 1124.37 45.5746 1124.37 Q53.7371 1124.37 57.9501 1129.87 Q62.163 1135.32 62.163 1145.89 Q62.163 1149.88 61.2602 1154.39 Q60.3575 1158.87 58.5895 1163.68 L50.7655 1163.68 Q53.361 1159.06 54.6775 1154.62 Q55.9941 1150.18 55.9941 1145.89 Q55.9941 1139.38 53.4362 1135.85 Q50.8783 1132.31 46.1388 1132.31 Q42.0011 1132.31 39.6689 1134.87 Q37.3368 1137.39 36.1707 1143.18 L35.2679 1147.81 Q33.5752 1156.31 29.9641 1160.11 Q26.353 1163.91 19.9208 1163.91 Q12.4729 1163.91 8.18471 1158.68 Q3.89654 1153.41 3.89654 1144.2 Q3.89654 1140.25 4.61123 1136.15 Q5.32593 1132.05 6.75532 1127.76 Z" fill="#000000" fill-rule="nonzero" fill-opacity="1" /><path clip-path="url(#clip170)" d="M40.0451 1108.69 Q47.681 1108.69 52.0444 1105.57 Q56.3702 1102.41 56.3702 1096.91 Q56.3702 1091.42 52.0444 1088.26 Q47.681 1085.1 40.0451 1085.1 Q32.4091 1085.1 28.0833 1088.26 Q23.7199 1091.42 23.7199 1096.91 Q23.7199 1102.41 28.0833 1105.57 Q32.4091 1108.69 40.0451 1108.69 M54.7527 1085.1 Q58.5143 1087.29 60.3575 1090.63 Q62.163 1093.94 62.163 1098.61 Q62.163 1106.24 56.0693 1111.06 Q49.9756 1115.84 40.0451 1115.84 Q30.1146 1115.84 24.0209 1111.06 Q17.9271 1106.24 17.9271 1098.61 Q17.9271 1093.94 19.7703 1090.63 Q21.5758 1087.29 25.3374 1085.1 L18.9428 1085.1 L18.9428 1078.18 L77.0964 1078.18 L77.0964 1085.1 L54.7527 1085.1 Z" fill="#000000" fill-rule="nonzero" fill-opacity="1" /><path clip-path="url(#clip170)" d="M44.4461 1064.64 L18.9428 1064.64 L18.9428 1057.72 L44.1828 1057.72 Q50.1637 1057.72 53.1729 1055.39 Q56.1445 1053.06 56.1445 1048.39 Q56.1445 1042.79 52.571 1039.55 Q48.9976 1036.28 42.8286 1036.28 L18.9428 1036.28 L18.9428 1029.36 L61.0722 1029.36 L61.0722 1036.28 L54.6023 1036.28 Q58.4391 1038.8 60.3198 1042.15 Q62.163 1045.46 62.163 1049.86 Q62.163 1057.12 57.6491 1060.88 Q53.1353 1064.64 44.4461 1064.64 M17.9271 1047.22 L17.9271 1047.22 Z" fill="#000000" fill-rule="nonzero" fill-opacity="1" /><path clip-path="url(#clip170)" d="M39.8946 995.955 Q39.8946 1004.34 41.813 1007.58 Q43.7314 1010.81 48.3581 1010.81 Q52.0444 1010.81 54.2261 1008.41 Q56.3702 1005.96 56.3702 1001.79 Q56.3702 996.03 52.3077 992.569 Q48.2076 989.071 41.4368 989.071 L39.8946 989.071 L39.8946 995.955 M37.0358 982.15 L61.0722 982.15 L61.0722 989.071 L54.6775 989.071 Q58.5143 991.441 60.3575 994.977 Q62.163 998.512 62.163 1003.63 Q62.163 1010.1 58.5519 1013.93 Q54.9032 1017.73 48.8095 1017.73 Q41.7002 1017.73 38.0891 1012.99 Q34.478 1008.22 34.478 998.776 L34.478 989.071 L33.8009 989.071 Q29.0237 989.071 26.4282 992.231 Q23.7952 995.353 23.7952 1001.03 Q23.7952 1004.64 24.6603 1008.07 Q25.5255 1011.49 27.2558 1014.65 L20.8611 1014.65 Q19.3941 1010.85 18.6794 1007.28 Q17.9271 1003.7 17.9271 1000.32 Q17.9271 991.177 22.6667 986.664 Q27.4062 982.15 37.0358 982.15 Z" fill="#000000" fill-rule="nonzero" fill-opacity="1" /><path clip-path="url(#clip170)" d="M25.4126 943.481 Q24.7355 944.647 24.4346 946.039 Q24.0961 947.393 24.0961 949.048 Q24.0961 954.916 27.9329 958.076 Q31.732 961.198 38.879 961.198 L61.0722 961.198 L61.0722 968.157 L18.9428 968.157 L18.9428 961.198 L25.4879 961.198 Q21.6511 959.016 19.8079 955.518 Q17.9271 952.02 17.9271 947.017 Q17.9271 946.302 18.04 945.437 Q18.1152 944.572 18.3033 943.519 L25.4126 943.481 Z" fill="#000000" fill-rule="nonzero" fill-opacity="1" /><path clip-path="url(#clip170)" d="M38.2771 901.878 L41.6625 901.878 L41.6625 933.701 Q48.8095 933.25 52.571 929.413 Q56.295 925.538 56.295 918.655 Q56.295 914.667 55.317 910.944 Q54.339 907.182 52.383 903.496 L58.9281 903.496 Q60.5079 907.22 61.3355 911.132 Q62.163 915.044 62.163 919.068 Q62.163 929.149 56.295 935.055 Q50.427 940.923 40.4212 940.923 Q30.077 940.923 24.0209 935.356 Q17.9271 929.751 17.9271 920.272 Q17.9271 911.771 23.419 906.843 Q28.8733 901.878 38.2771 901.878 M36.2459 908.799 Q30.566 908.875 27.1806 911.997 Q23.7952 915.081 23.7952 920.197 Q23.7952 925.99 27.0677 929.488 Q30.3403 932.949 36.2835 933.475 L36.2459 908.799 Z" fill="#000000" fill-rule="nonzero" fill-opacity="1" /><path clip-path="url(#clip170)" d="M25.3374 862.796 L2.54238 862.796 L2.54238 855.874 L61.0722 855.874 L61.0722 862.796 L54.7527 862.796 Q58.5143 864.977 60.3575 868.325 Q62.163 871.635 62.163 876.3 Q62.163 883.936 56.0693 888.75 Q49.9756 893.528 40.0451 893.528 Q30.1146 893.528 24.0209 888.75 Q17.9271 883.936 17.9271 876.3 Q17.9271 871.635 19.7703 868.325 Q21.5758 864.977 25.3374 862.796 M40.0451 886.381 Q47.681 886.381 52.0444 883.258 Q56.3702 880.099 56.3702 874.607 Q56.3702 869.115 52.0444 865.955 Q47.681 862.796 40.0451 862.796 Q32.4091 862.796 28.0833 865.955 Q23.7199 869.115 23.7199 874.607 Q23.7199 880.099 28.0833 883.258 Q32.4091 886.381 40.0451 886.381 Z" fill="#000000" fill-rule="nonzero" fill-opacity="1" /><path clip-path="url(#clip170)" d="M38.2771 781.095 L41.6625 781.095 L41.6625 812.917 Q48.8095 812.466 52.571 808.629 Q56.295 804.755 56.295 797.871 Q56.295 793.884 55.317 790.16 Q54.339 786.398 52.383 782.712 L58.9281 782.712 Q60.5079 786.436 61.3355 790.348 Q62.163 794.26 62.163 798.285 Q62.163 808.366 56.295 814.272 Q50.427 820.14 40.4212 820.14 Q30.077 820.14 24.0209 814.572 Q17.9271 808.968 17.9271 799.489 Q17.9271 790.988 23.419 786.06 Q28.8733 781.095 38.2771 781.095 M36.2459 788.016 Q30.566 788.091 27.1806 791.213 Q23.7952 794.298 23.7952 799.413 Q23.7952 805.206 27.0677 808.704 Q30.3403 812.165 36.2835 812.692 L36.2459 788.016 Z" fill="#000000" fill-rule="nonzero" fill-opacity="1" /><path clip-path="url(#clip170)" d="M25.4126 745.322 Q24.7355 746.488 24.4346 747.88 Q24.0961 749.234 24.0961 750.889 Q24.0961 756.757 27.9329 759.917 Q31.732 763.039 38.879 763.039 L61.0722 763.039 L61.0722 769.998 L18.9428 769.998 L18.9428 763.039 L25.4879 763.039 Q21.6511 760.858 19.8079 757.359 Q17.9271 753.861 17.9271 748.858 Q17.9271 748.143 18.04 747.278 Q18.1152 746.413 18.3033 745.36 L25.4126 745.322 Z" fill="#000000" fill-rule="nonzero" fill-opacity="1" /><path clip-path="url(#clip170)" d="M25.4126 715.004 Q24.7355 716.17 24.4346 717.562 Q24.0961 718.916 24.0961 720.571 Q24.0961 726.439 27.9329 729.599 Q31.732 732.721 38.879 732.721 L61.0722 732.721 L61.0722 739.68 L18.9428 739.68 L18.9428 732.721 L25.4879 732.721 Q21.6511 730.539 19.8079 727.041 Q17.9271 723.543 17.9271 718.54 Q17.9271 717.825 18.04 716.96 Q18.1152 716.095 18.3033 715.042 L25.4126 715.004 Z" fill="#000000" fill-rule="nonzero" fill-opacity="1" /><path clip-path="url(#clip170)" d="M23.7952 693.112 Q23.7952 698.679 28.1586 701.914 Q32.4843 705.149 40.0451 705.149 Q47.6058 705.149 51.9692 701.952 Q56.295 698.717 56.295 693.112 Q56.295 687.582 51.9316 684.348 Q47.5682 681.113 40.0451 681.113 Q32.5596 681.113 28.1962 684.348 Q23.7952 687.582 23.7952 693.112 M17.9271 693.112 Q17.9271 684.084 23.7952 678.931 Q29.6632 673.778 40.0451 673.778 Q50.3893 673.778 56.295 678.931 Q62.163 684.084 62.163 693.112 Q62.163 702.177 56.295 707.331 Q50.3893 712.446 40.0451 712.446 Q29.6632 712.446 23.7952 707.331 Q17.9271 702.177 17.9271 693.112 Z" fill="#000000" fill-rule="nonzero" fill-opacity="1" /><path clip-path="url(#clip170)" d="M25.4126 637.892 Q24.7355 639.058 24.4346 640.45 Q24.0961 641.804 24.0961 643.459 Q24.0961 649.327 27.9329 652.487 Q31.732 655.609 38.879 655.609 L61.0722 655.609 L61.0722 662.568 L18.9428 662.568 L18.9428 655.609 L25.4879 655.609 Q21.6511 653.428 19.8079 649.929 Q17.9271 646.431 17.9271 641.428 Q17.9271 640.713 18.04 639.848 Q18.1152 638.983 18.3033 637.93 L25.4126 637.892 Z" fill="#000000" fill-rule="nonzero" fill-opacity="1" /><polyline clip-path="url(#clip172)" style="stroke:#009af9; stroke-linecap:round; stroke-linejoin:round; stroke-width:8; stroke-opacity:1; fill:none" points="379.801,107.76 472.26,1963.92 564.719,1844.54 657.178,1942.18 752.356,2032.96 844.815,2078.17 937.274,2044.15 1029.73,2065.4 1122.19,2061.95 1214.65,2072.55 1307.11,2075.98 1402.29,2095.93 1494.75,2108.88 1587.21,2106.12 1679.67,2113.53 1772.13,2091.88 1864.58,2100.77 1957.04,2121.49 2049.5,2124.96 2144.68,2119.69 2237.14,2119.63 2329.6,2112.81 2422.06,2103.58 2514.52,2110.81 2606.98,2112.42 2699.43,2106.86 2794.61,2099.03 2887.07,2092.75 2979.53,2096.15 3071.99,2096.19 "/>
</svg>
