<?xml version="1.0" encoding="utf-8"?>
<svg xmlns="http://www.w3.org/2000/svg" xmlns:xlink="http://www.w3.org/1999/xlink" width="600" height="400" viewBox="0 0 2400 1600">
<defs>
  <clipPath id="clip660">
    <rect x="0" y="0" width="2400" height="1600"/>
  </clipPath>
</defs>
<path clip-path="url(#clip660)" d="M0 1600 L2400 1600 L2400 0 L0 0  Z" fill="#ffffff" fill-rule="evenodd" fill-opacity="1"/>
<defs>
  <clipPath id="clip661">
    <rect x="480" y="0" width="1681" height="1600"/>
  </clipPath>
</defs>
<path clip-path="url(#clip660)" d="M220.672 1477.81 L2352.76 1477.81 L2352.76 47.2441 L220.672 47.2441  Z" fill="#ffffff" fill-rule="evenodd" fill-opacity="1"/>
<defs>
  <clipPath id="clip662">
    <rect x="220" y="47" width="2133" height="1432"/>
  </clipPath>
</defs>
<polyline clip-path="url(#clip662)" style="stroke:#000000; stroke-linecap:round; stroke-linejoin:round; stroke-width:2; stroke-opacity:0.1; fill:none" points="339.121,1477.81 339.121,47.2441 "/>
<polyline clip-path="url(#clip662)" style="stroke:#000000; stroke-linecap:round; stroke-linejoin:round; stroke-width:2; stroke-opacity:0.1; fill:none" points="812.918,1477.81 812.918,47.2441 "/>
<polyline clip-path="url(#clip662)" style="stroke:#000000; stroke-linecap:round; stroke-linejoin:round; stroke-width:2; stroke-opacity:0.1; fill:none" points="1286.71,1477.81 1286.71,47.2441 "/>
<polyline clip-path="url(#clip662)" style="stroke:#000000; stroke-linecap:round; stroke-linejoin:round; stroke-width:2; stroke-opacity:0.1; fill:none" points="1760.51,1477.81 1760.51,47.2441 "/>
<polyline clip-path="url(#clip662)" style="stroke:#000000; stroke-linecap:round; stroke-linejoin:round; stroke-width:2; stroke-opacity:0.1; fill:none" points="2234.31,1477.81 2234.31,47.2441 "/>
<polyline clip-path="url(#clip660)" style="stroke:#000000; stroke-linecap:round; stroke-linejoin:round; stroke-width:4; stroke-opacity:1; fill:none" points="220.672,1477.81 2352.76,1477.81 "/>
<polyline clip-path="url(#clip660)" style="stroke:#000000; stroke-linecap:round; stroke-linejoin:round; stroke-width:4; stroke-opacity:1; fill:none" points="339.121,1477.81 339.121,1458.91 "/>
<polyline clip-path="url(#clip660)" style="stroke:#000000; stroke-linecap:round; stroke-linejoin:round; stroke-width:4; stroke-opacity:1; fill:none" points="812.918,1477.81 812.918,1458.91 "/>
<polyline clip-path="url(#clip660)" style="stroke:#000000; stroke-linecap:round; stroke-linejoin:round; stroke-width:4; stroke-opacity:1; fill:none" points="1286.71,1477.81 1286.71,1458.91 "/>
<polyline clip-path="url(#clip660)" style="stroke:#000000; stroke-linecap:round; stroke-linejoin:round; stroke-width:4; stroke-opacity:1; fill:none" points="1760.51,1477.81 1760.51,1458.91 "/>
<polyline clip-path="url(#clip660)" style="stroke:#000000; stroke-linecap:round; stroke-linejoin:round; stroke-width:4; stroke-opacity:1; fill:none" points="2234.31,1477.81 2234.31,1458.91 "/>
<path clip-path="url(#clip660)" d="M300.247 1529.97 L337.342 1529.97 L337.342 1534.89 L300.247 1534.89 L300.247 1529.97 Z" fill="#000000" fill-rule="nonzero" fill-opacity="1" /><path clip-path="url(#clip660)" d="M366.016 1512.9 L351.259 1535.96 L366.016 1535.96 L366.016 1512.9 M364.483 1507.81 L371.832 1507.81 L371.832 1535.96 L377.995 1535.96 L377.995 1540.82 L371.832 1540.82 L371.832 1551.01 L366.016 1551.01 L366.016 1540.82 L346.514 1540.82 L346.514 1535.18 L364.483 1507.81 Z" fill="#000000" fill-rule="nonzero" fill-opacity="1" /><path clip-path="url(#clip660)" d="M775.345 1529.97 L812.44 1529.97 L812.44 1534.89 L775.345 1534.89 L775.345 1529.97 Z" fill="#000000" fill-rule="nonzero" fill-opacity="1" /><path clip-path="url(#clip660)" d="M830.09 1546.09 L850.49 1546.09 L850.49 1551.01 L823.059 1551.01 L823.059 1546.09 Q826.387 1542.65 832.116 1536.86 Q837.874 1531.04 839.35 1529.36 Q842.156 1526.21 843.256 1524.04 Q844.384 1521.84 844.384 1519.73 Q844.384 1516.29 841.954 1514.12 Q839.552 1511.95 835.675 1511.95 Q832.926 1511.95 829.859 1512.9 Q826.821 1513.86 823.349 1515.79 L823.349 1509.89 Q826.879 1508.47 829.946 1507.75 Q833.013 1507.03 835.559 1507.03 Q842.272 1507.03 846.265 1510.38 Q850.258 1513.74 850.258 1519.35 Q850.258 1522.01 849.245 1524.42 Q848.262 1526.79 845.629 1530.03 Q844.905 1530.87 841.028 1534.89 Q837.151 1538.88 830.09 1546.09 Z" fill="#000000" fill-rule="nonzero" fill-opacity="1" /><path clip-path="url(#clip660)" d="M1286.71 1511.66 Q1282.2 1511.66 1279.91 1516.11 Q1277.66 1520.54 1277.66 1529.45 Q1277.66 1538.33 1279.91 1542.79 Q1282.2 1547.22 1286.71 1547.22 Q1291.26 1547.22 1293.51 1542.79 Q1295.8 1538.33 1295.8 1529.45 Q1295.8 1520.54 1293.51 1516.11 Q1291.26 1511.66 1286.71 1511.66 M1286.71 1507.03 Q1293.98 1507.03 1297.8 1512.78 Q1301.64 1518.51 1301.64 1529.45 Q1301.64 1540.36 1297.8 1546.12 Q1293.98 1551.85 1286.71 1551.85 Q1279.45 1551.85 1275.6 1546.12 Q1271.78 1540.36 1271.78 1529.45 Q1271.78 1518.51 1275.6 1512.78 Q1279.45 1507.03 1286.71 1507.03 Z" fill="#000000" fill-rule="nonzero" fill-opacity="1" /><path clip-path="url(#clip660)" d="M1753.83 1546.09 L1774.23 1546.09 L1774.23 1551.01 L1746.8 1551.01 L1746.8 1546.09 Q1750.12 1542.65 1755.85 1536.86 Q1761.61 1531.04 1763.09 1529.36 Q1765.89 1526.21 1766.99 1524.04 Q1768.12 1521.84 1768.12 1519.73 Q1768.12 1516.29 1765.69 1514.12 Q1763.29 1511.95 1759.41 1511.95 Q1756.66 1511.95 1753.59 1512.9 Q1750.56 1513.86 1747.08 1515.79 L1747.08 1509.89 Q1750.61 1508.47 1753.68 1507.75 Q1756.75 1507.03 1759.3 1507.03 Q1766.01 1507.03 1770 1510.38 Q1773.99 1513.74 1773.99 1519.35 Q1773.99 1522.01 1772.98 1524.42 Q1772 1526.79 1769.36 1530.03 Q1768.64 1530.87 1764.76 1534.89 Q1760.89 1538.88 1753.83 1546.09 Z" fill="#000000" fill-rule="nonzero" fill-opacity="1" /><path clip-path="url(#clip660)" d="M2238.07 1512.9 L2223.31 1535.96 L2238.07 1535.96 L2238.07 1512.9 M2236.53 1507.81 L2243.88 1507.81 L2243.88 1535.96 L2250.05 1535.96 L2250.05 1540.82 L2243.88 1540.82 L2243.88 1551.01 L2238.07 1551.01 L2238.07 1540.82 L2218.57 1540.82 L2218.57 1535.18 L2236.53 1507.81 Z" fill="#000000" fill-rule="nonzero" fill-opacity="1" /><polyline clip-path="url(#clip662)" style="stroke:#000000; stroke-linecap:round; stroke-linejoin:round; stroke-width:2; stroke-opacity:0.1; fill:none" points="220.672,1437.32 2352.76,1437.32 "/>
<polyline clip-path="url(#clip662)" style="stroke:#000000; stroke-linecap:round; stroke-linejoin:round; stroke-width:2; stroke-opacity:0.1; fill:none" points="220.672,1099.92 2352.76,1099.92 "/>
<polyline clip-path="url(#clip662)" style="stroke:#000000; stroke-linecap:round; stroke-linejoin:round; stroke-width:2; stroke-opacity:0.1; fill:none" points="220.672,762.526 2352.76,762.526 "/>
<polyline clip-path="url(#clip662)" style="stroke:#000000; stroke-linecap:round; stroke-linejoin:round; stroke-width:2; stroke-opacity:0.1; fill:none" points="220.672,425.129 2352.76,425.129 "/>
<polyline clip-path="url(#clip662)" style="stroke:#000000; stroke-linecap:round; stroke-linejoin:round; stroke-width:2; stroke-opacity:0.1; fill:none" points="220.672,87.7317 2352.76,87.7317 "/>
<polyline clip-path="url(#clip660)" style="stroke:#000000; stroke-linecap:round; stroke-linejoin:round; stroke-width:4; stroke-opacity:1; fill:none" points="220.672,1477.81 220.672,47.2441 "/>
<polyline clip-path="url(#clip660)" style="stroke:#000000; stroke-linecap:round; stroke-linejoin:round; stroke-width:4; stroke-opacity:1; fill:none" points="220.672,1437.32 239.57,1437.32 "/>
<polyline clip-path="url(#clip660)" style="stroke:#000000; stroke-linecap:round; stroke-linejoin:round; stroke-width:4; stroke-opacity:1; fill:none" points="220.672,1099.92 239.57,1099.92 "/>
<polyline clip-path="url(#clip660)" style="stroke:#000000; stroke-linecap:round; stroke-linejoin:round; stroke-width:4; stroke-opacity:1; fill:none" points="220.672,762.526 239.57,762.526 "/>
<polyline clip-path="url(#clip660)" style="stroke:#000000; stroke-linecap:round; stroke-linejoin:round; stroke-width:4; stroke-opacity:1; fill:none" points="220.672,425.129 239.57,425.129 "/>
<polyline clip-path="url(#clip660)" style="stroke:#000000; stroke-linecap:round; stroke-linejoin:round; stroke-width:4; stroke-opacity:1; fill:none" points="220.672,87.7317 239.57,87.7317 "/>
<path clip-path="url(#clip660)" d="M50.9921 1437.88 L88.0868 1437.88 L88.0868 1442.8 L50.9921 1442.8 L50.9921 1437.88 Z" fill="#000000" fill-rule="nonzero" fill-opacity="1" /><path clip-path="url(#clip660)" d="M101.715 1454 L111.264 1454 L111.264 1421.04 L100.876 1423.13 L100.876 1417.8 L111.206 1415.72 L117.051 1415.72 L117.051 1454 L126.599 1454 L126.599 1458.92 L101.715 1458.92 L101.715 1454 Z" fill="#000000" fill-rule="nonzero" fill-opacity="1" /><path clip-path="url(#clip660)" d="M138.405 1451.57 L144.51 1451.57 L144.51 1458.92 L138.405 1458.92 L138.405 1451.57 Z" fill="#000000" fill-rule="nonzero" fill-opacity="1" /><path clip-path="url(#clip660)" d="M169.741 1419.57 Q165.228 1419.57 162.942 1424.02 Q160.685 1428.45 160.685 1437.36 Q160.685 1446.25 162.942 1450.7 Q165.228 1455.13 169.741 1455.13 Q174.284 1455.13 176.541 1450.7 Q178.827 1446.25 178.827 1437.36 Q178.827 1428.45 176.541 1424.02 Q174.284 1419.57 169.741 1419.57 M169.741 1414.94 Q177.004 1414.94 180.824 1420.7 Q184.672 1426.43 184.672 1437.36 Q184.672 1448.27 180.824 1454.03 Q177.004 1459.76 169.741 1459.76 Q162.479 1459.76 158.63 1454.03 Q154.811 1448.27 154.811 1437.36 Q154.811 1426.43 158.63 1420.7 Q162.479 1414.94 169.741 1414.94 Z" fill="#000000" fill-rule="nonzero" fill-opacity="1" /><path clip-path="url(#clip660)" d="M52.2363 1100.49 L89.331 1100.49 L89.331 1105.41 L52.2363 1105.41 L52.2363 1100.49 Z" fill="#000000" fill-rule="nonzero" fill-opacity="1" /><path clip-path="url(#clip660)" d="M114.447 1082.17 Q109.933 1082.17 107.647 1086.63 Q105.39 1091.05 105.39 1099.97 Q105.39 1108.85 107.647 1113.31 Q109.933 1117.73 114.447 1117.73 Q118.989 1117.73 121.246 1113.31 Q123.532 1108.85 123.532 1099.97 Q123.532 1091.05 121.246 1086.63 Q118.989 1082.17 114.447 1082.17 M114.447 1077.54 Q121.709 1077.54 125.529 1083.3 Q129.377 1089.03 129.377 1099.97 Q129.377 1110.88 125.529 1116.63 Q121.709 1122.36 114.447 1122.36 Q107.184 1122.36 103.336 1116.63 Q99.5162 1110.88 99.5162 1099.97 Q99.5162 1089.03 103.336 1083.3 Q107.184 1077.54 114.447 1077.54 Z" fill="#000000" fill-rule="nonzero" fill-opacity="1" /><path clip-path="url(#clip660)" d="M139.649 1114.17 L145.754 1114.17 L145.754 1121.52 L139.649 1121.52 L139.649 1114.17 Z" fill="#000000" fill-rule="nonzero" fill-opacity="1" /><path clip-path="url(#clip660)" d="M158.544 1078.32 L181.489 1078.32 L181.489 1083.24 L163.897 1083.24 L163.897 1093.83 Q165.17 1093.4 166.443 1093.2 Q167.716 1092.96 168.989 1092.96 Q176.223 1092.96 180.447 1096.93 Q184.672 1100.89 184.672 1107.66 Q184.672 1114.64 180.332 1118.51 Q175.991 1122.36 168.092 1122.36 Q165.372 1122.36 162.537 1121.9 Q159.73 1121.44 156.721 1120.51 L156.721 1114.64 Q159.325 1116.05 162.103 1116.75 Q164.88 1117.44 167.976 1117.44 Q172.982 1117.44 175.905 1114.81 Q178.827 1112.18 178.827 1107.66 Q178.827 1103.15 175.905 1100.52 Q172.982 1097.88 167.976 1097.88 Q165.633 1097.88 163.289 1098.4 Q160.974 1098.92 158.544 1100.02 L158.544 1078.32 Z" fill="#000000" fill-rule="nonzero" fill-opacity="1" /><path clip-path="url(#clip660)" d="M113.202 744.774 Q108.689 744.774 106.403 749.23 Q104.146 753.657 104.146 762.569 Q104.146 771.452 106.403 775.908 Q108.689 780.335 113.202 780.335 Q117.745 780.335 120.002 775.908 Q122.288 771.452 122.288 762.569 Q122.288 753.657 120.002 749.23 Q117.745 744.774 113.202 744.774 M113.202 740.145 Q120.465 740.145 124.285 745.903 Q128.133 751.632 128.133 762.569 Q128.133 773.478 124.285 779.236 Q120.465 784.965 113.202 784.965 Q105.94 784.965 102.091 779.236 Q98.272 773.478 98.272 762.569 Q98.272 751.632 102.091 745.903 Q105.94 740.145 113.202 740.145 Z" fill="#000000" fill-rule="nonzero" fill-opacity="1" /><path clip-path="url(#clip660)" d="M138.405 776.776 L144.51 776.776 L144.51 784.126 L138.405 784.126 L138.405 776.776 Z" fill="#000000" fill-rule="nonzero" fill-opacity="1" /><path clip-path="url(#clip660)" d="M169.741 744.774 Q165.228 744.774 162.942 749.23 Q160.685 753.657 160.685 762.569 Q160.685 771.452 162.942 775.908 Q165.228 780.335 169.741 780.335 Q174.284 780.335 176.541 775.908 Q178.827 771.452 178.827 762.569 Q178.827 753.657 176.541 749.23 Q174.284 744.774 169.741 744.774 M169.741 740.145 Q177.004 740.145 180.824 745.903 Q184.672 751.632 184.672 762.569 Q184.672 773.478 180.824 779.236 Q177.004 784.965 169.741 784.965 Q162.479 784.965 158.63 779.236 Q154.811 773.478 154.811 762.569 Q154.811 751.632 158.63 745.903 Q162.479 740.145 169.741 740.145 Z" fill="#000000" fill-rule="nonzero" fill-opacity="1" /><path clip-path="url(#clip660)" d="M114.447 407.377 Q109.933 407.377 107.647 411.833 Q105.39 416.26 105.39 425.172 Q105.39 434.055 107.647 438.511 Q109.933 442.938 114.447 442.938 Q118.989 442.938 121.246 438.511 Q123.532 434.055 123.532 425.172 Q123.532 416.26 121.246 411.833 Q118.989 407.377 114.447 407.377 M114.447 402.748 Q121.709 402.748 125.529 408.506 Q129.377 414.235 129.377 425.172 Q129.377 436.081 125.529 441.839 Q121.709 447.568 114.447 447.568 Q107.184 447.568 103.336 441.839 Q99.5162 436.081 99.5162 425.172 Q99.5162 414.235 103.336 408.506 Q107.184 402.748 114.447 402.748 Z" fill="#000000" fill-rule="nonzero" fill-opacity="1" /><path clip-path="url(#clip660)" d="M139.649 439.379 L145.754 439.379 L145.754 446.729 L139.649 446.729 L139.649 439.379 Z" fill="#000000" fill-rule="nonzero" fill-opacity="1" /><path clip-path="url(#clip660)" d="M158.544 403.529 L181.489 403.529 L181.489 408.448 L163.897 408.448 L163.897 419.038 Q165.17 418.604 166.443 418.401 Q167.716 418.17 168.989 418.17 Q176.223 418.17 180.447 422.134 Q184.672 426.098 184.672 432.869 Q184.672 439.842 180.332 443.72 Q175.991 447.568 168.092 447.568 Q165.372 447.568 162.537 447.105 Q159.73 446.642 156.721 445.716 L156.721 439.842 Q159.325 441.26 162.103 441.955 Q164.88 442.649 167.976 442.649 Q172.982 442.649 175.905 440.016 Q178.827 437.383 178.827 432.869 Q178.827 428.355 175.905 425.722 Q172.982 423.089 167.976 423.089 Q165.633 423.089 163.289 423.61 Q160.974 424.131 158.544 425.23 L158.544 403.529 Z" fill="#000000" fill-rule="nonzero" fill-opacity="1" /><path clip-path="url(#clip660)" d="M101.715 104.413 L111.264 104.413 L111.264 71.4558 L100.876 73.5391 L100.876 68.2151 L111.206 66.1317 L117.051 66.1317 L117.051 104.413 L126.599 104.413 L126.599 109.332 L101.715 109.332 L101.715 104.413 Z" fill="#000000" fill-rule="nonzero" fill-opacity="1" /><path clip-path="url(#clip660)" d="M138.405 101.982 L144.51 101.982 L144.51 109.332 L138.405 109.332 L138.405 101.982 Z" fill="#000000" fill-rule="nonzero" fill-opacity="1" /><path clip-path="url(#clip660)" d="M169.741 69.9801 Q165.228 69.9801 162.942 74.4361 Q160.685 78.8632 160.685 87.7752 Q160.685 96.6582 162.942 101.114 Q165.228 105.541 169.741 105.541 Q174.284 105.541 176.541 101.114 Q178.827 96.6582 178.827 87.7752 Q178.827 78.8632 176.541 74.4361 Q174.284 69.9801 169.741 69.9801 M169.741 65.3505 Q177.004 65.3505 180.824 71.1086 Q184.672 76.8377 184.672 87.7752 Q184.672 98.6837 180.824 104.442 Q177.004 110.171 169.741 110.171 Q162.479 110.171 158.63 104.442 Q154.811 98.6837 154.811 87.7752 Q154.811 76.8377 158.63 71.1086 Q162.479 65.3505 169.741 65.3505 Z" fill="#000000" fill-rule="nonzero" fill-opacity="1" /><polyline clip-path="url(#clip662)" style="stroke:#009af9; stroke-linecap:round; stroke-linejoin:round; stroke-width:4; stroke-opacity:1; fill:none" points="339.121,1437.32 457.57,1437.32 694.468,1437.32 931.367,1437.32 931.367,762.526 1168.26,762.526 1405.16,762.526 1642.06,762.526 1642.06,87.7317 1878.96,87.7317 2115.86,87.7317 2234.31,87.7317 "/>
<circle clip-path="url(#clip662)" cx="339.121" cy="1437.32" r="14.4" fill="#e26f46" fill-rule="evenodd" fill-opacity="1" stroke="#000000" stroke-opacity="1" stroke-width="3.2"/>
<circle clip-path="url(#clip662)" cx="1049.82" cy="762.526" r="14.4" fill="#e26f46" fill-rule="evenodd" fill-opacity="1" stroke="#000000" stroke-opacity="1" stroke-width="3.2"/>
<circle clip-path="url(#clip662)" cx="1760.51" cy="87.7317" r="14.4" fill="#e26f46" fill-rule="evenodd" fill-opacity="1" stroke="#000000" stroke-opacity="1" stroke-width="3.2"/>
<circle clip-path="url(#clip662)" cx="576.019" cy="1437.32" r="14.4" fill="#e26f46" fill-rule="evenodd" fill-opacity="1" stroke="#000000" stroke-opacity="1" stroke-width="3.2"/>
<circle clip-path="url(#clip662)" cx="1286.71" cy="762.526" r="14.4" fill="#e26f46" fill-rule="evenodd" fill-opacity="1" stroke="#000000" stroke-opacity="1" stroke-width="3.2"/>
<circle clip-path="url(#clip662)" cx="1997.41" cy="87.7317" r="14.4" fill="#e26f46" fill-rule="evenodd" fill-opacity="1" stroke="#000000" stroke-opacity="1" stroke-width="3.2"/>
<circle clip-path="url(#clip662)" cx="812.918" cy="1437.32" r="14.4" fill="#e26f46" fill-rule="evenodd" fill-opacity="1" stroke="#000000" stroke-opacity="1" stroke-width="3.2"/>
<circle clip-path="url(#clip662)" cx="1523.61" cy="762.526" r="14.4" fill="#e26f46" fill-rule="evenodd" fill-opacity="1" stroke="#000000" stroke-opacity="1" stroke-width="3.2"/>
<circle clip-path="url(#clip662)" cx="2234.31" cy="87.7317" r="14.4" fill="#e26f46" fill-rule="evenodd" fill-opacity="1" stroke="#000000" stroke-opacity="1" stroke-width="3.2"/>
<path clip-path="url(#clip660)" d="M291.741 289.33 L644.272 289.33 L644.272 94.9296 L291.741 94.9296  Z" fill="#ffffff" fill-rule="evenodd" fill-opacity="1"/>
<polyline clip-path="url(#clip660)" style="stroke:#000000; stroke-linecap:round; stroke-linejoin:round; stroke-width:4; stroke-opacity:1; fill:none" points="291.741,289.33 644.272,289.33 644.272,94.9296 291.741,94.9296 291.741,289.33 "/>
<polyline clip-path="url(#clip660)" style="stroke:#009af9; stroke-linecap:round; stroke-linejoin:round; stroke-width:5; stroke-opacity:1; fill:none" points="315.431,159.73 457.57,159.73 "/>
<path clip-path="url(#clip660)" d="M490.519 139.721 L490.519 148.922 L501.486 148.922 L501.486 153.06 L490.519 153.06 L490.519 170.653 Q490.519 174.617 491.59 175.745 Q492.689 176.874 496.017 176.874 L501.486 176.874 L501.486 181.33 L496.017 181.33 Q489.854 181.33 487.51 179.044 Q485.166 176.729 485.166 170.653 L485.166 153.06 L481.26 153.06 L481.26 148.922 L485.166 148.922 L485.166 139.721 L490.519 139.721 Z" fill="#000000" fill-rule="nonzero" fill-opacity="1" /><path clip-path="url(#clip660)" d="M527.267 153.899 Q526.37 153.378 525.299 153.147 Q524.257 152.886 522.984 152.886 Q518.47 152.886 516.04 155.838 Q513.638 158.76 513.638 164.258 L513.638 181.33 L508.285 181.33 L508.285 148.922 L513.638 148.922 L513.638 153.957 Q515.317 151.006 518.007 149.588 Q520.698 148.141 524.547 148.141 Q525.097 148.141 525.762 148.228 Q526.428 148.286 527.238 148.43 L527.267 153.899 Z" fill="#000000" fill-rule="nonzero" fill-opacity="1" /><path clip-path="url(#clip660)" d="M532.301 168.54 L532.301 148.922 L537.625 148.922 L537.625 168.338 Q537.625 172.938 539.419 175.253 Q541.213 177.539 544.801 177.539 Q549.113 177.539 551.601 174.79 Q554.118 172.041 554.118 167.296 L554.118 148.922 L559.442 148.922 L559.442 181.33 L554.118 181.33 L554.118 176.353 Q552.18 179.304 549.605 180.751 Q547.058 182.169 543.673 182.169 Q538.088 182.169 535.195 178.696 Q532.301 175.224 532.301 168.54 M545.698 148.141 L545.698 148.141 Z" fill="#000000" fill-rule="nonzero" fill-opacity="1" /><path clip-path="url(#clip660)" d="M575.675 139.721 L575.675 148.922 L586.641 148.922 L586.641 153.06 L575.675 153.06 L575.675 170.653 Q575.675 174.617 576.746 175.745 Q577.845 176.874 581.173 176.874 L586.641 176.874 L586.641 181.33 L581.173 181.33 Q575.01 181.33 572.666 179.044 Q570.322 176.729 570.322 170.653 L570.322 153.06 L566.416 153.06 L566.416 148.922 L570.322 148.922 L570.322 139.721 L575.675 139.721 Z" fill="#000000" fill-rule="nonzero" fill-opacity="1" /><path clip-path="url(#clip660)" d="M620.582 161.769 L620.582 181.33 L615.258 181.33 L615.258 161.943 Q615.258 157.342 613.464 155.057 Q611.67 152.771 608.082 152.771 Q603.771 152.771 601.283 155.52 Q598.794 158.268 598.794 163.014 L598.794 181.33 L593.441 181.33 L593.441 136.307 L598.794 136.307 L598.794 153.957 Q600.704 151.035 603.279 149.588 Q605.883 148.141 609.269 148.141 Q614.853 148.141 617.718 151.613 Q620.582 155.057 620.582 161.769 Z" fill="#000000" fill-rule="nonzero" fill-opacity="1" /><circle clip-path="url(#clip660)" cx="386.501" cy="224.53" r="25.6" fill="#e26f46" fill-rule="evenodd" fill-opacity="1" stroke="#000000" stroke-opacity="1" stroke-width="5.68889"/>
<path clip-path="url(#clip660)" d="M504.9 218.641 L504.9 201.107 L510.224 201.107 L510.224 246.13 L504.9 246.13 L504.9 241.268 Q503.222 244.162 500.646 245.58 Q498.1 246.969 494.512 246.969 Q488.638 246.969 484.935 242.281 Q481.26 237.594 481.26 229.955 Q481.26 222.316 484.935 217.629 Q488.638 212.941 494.512 212.941 Q498.1 212.941 500.646 214.359 Q503.222 215.748 504.9 218.641 M486.758 229.955 Q486.758 235.829 489.159 239.185 Q491.59 242.513 495.814 242.513 Q500.039 242.513 502.469 239.185 Q504.9 235.829 504.9 229.955 Q504.9 224.081 502.469 220.754 Q500.039 217.397 495.814 217.397 Q491.59 217.397 489.159 220.754 Q486.758 224.081 486.758 229.955 Z" fill="#000000" fill-rule="nonzero" fill-opacity="1" /><path clip-path="url(#clip660)" d="M535.918 229.839 Q529.466 229.839 526.977 231.315 Q524.489 232.791 524.489 236.35 Q524.489 239.185 526.341 240.863 Q528.222 242.513 531.433 242.513 Q535.86 242.513 538.522 239.388 Q541.213 236.234 541.213 231.025 L541.213 229.839 L535.918 229.839 M546.537 227.64 L546.537 246.13 L541.213 246.13 L541.213 241.211 Q539.39 244.162 536.671 245.58 Q533.951 246.969 530.016 246.969 Q525.039 246.969 522.087 244.191 Q519.165 241.384 519.165 236.697 Q519.165 231.228 522.811 228.45 Q526.485 225.672 533.748 225.672 L541.213 225.672 L541.213 225.152 Q541.213 221.477 538.783 219.48 Q536.381 217.455 532.012 217.455 Q529.234 217.455 526.601 218.12 Q523.968 218.786 521.538 220.117 L521.538 215.198 Q524.46 214.07 527.209 213.52 Q529.958 212.941 532.562 212.941 Q539.593 212.941 543.065 216.587 Q546.537 220.233 546.537 227.64 Z" fill="#000000" fill-rule="nonzero" fill-opacity="1" /><path clip-path="url(#clip660)" d="M562.77 204.521 L562.77 213.722 L573.736 213.722 L573.736 217.86 L562.77 217.86 L562.77 235.453 Q562.77 239.417 563.841 240.545 Q564.94 241.674 568.268 241.674 L573.736 241.674 L573.736 246.13 L568.268 246.13 Q562.104 246.13 559.761 243.844 Q557.417 241.529 557.417 235.453 L557.417 217.86 L553.511 217.86 L553.511 213.722 L557.417 213.722 L557.417 204.521 L562.77 204.521 Z" fill="#000000" fill-rule="nonzero" fill-opacity="1" /><path clip-path="url(#clip660)" d="M595.467 229.839 Q589.014 229.839 586.526 231.315 Q584.037 232.791 584.037 236.35 Q584.037 239.185 585.889 240.863 Q587.77 242.513 590.982 242.513 Q595.409 242.513 598.071 239.388 Q600.762 236.234 600.762 231.025 L600.762 229.839 L595.467 229.839 M606.086 227.64 L606.086 246.13 L600.762 246.13 L600.762 241.211 Q598.939 244.162 596.219 245.58 Q593.499 246.969 589.564 246.969 Q584.587 246.969 581.636 244.191 Q578.713 241.384 578.713 236.697 Q578.713 231.228 582.359 228.45 Q586.034 225.672 593.296 225.672 L600.762 225.672 L600.762 225.152 Q600.762 221.477 598.331 219.48 Q595.93 217.455 591.56 217.455 Q588.783 217.455 586.149 218.12 Q583.516 218.786 581.086 220.117 L581.086 215.198 Q584.008 214.07 586.757 213.52 Q589.506 212.941 592.11 212.941 Q599.141 212.941 602.614 216.587 Q606.086 220.233 606.086 227.64 Z" fill="#000000" fill-rule="nonzero" fill-opacity="1" /></svg>
