<?xml version="1.0" encoding="utf-8"?>
<svg xmlns="http://www.w3.org/2000/svg" xmlns:xlink="http://www.w3.org/1999/xlink" width="600" height="400" viewBox="0 0 2400 1600">
<defs>
  <clipPath id="clip190">
    <rect x="0" y="0" width="2400" height="1600"/>
  </clipPath>
</defs>
<path clip-path="url(#clip190)" d="M0 1600 L2400 1600 L2400 0 L0 0  Z" fill="#ffffff" fill-rule="evenodd" fill-opacity="1"/>
<defs>
  <clipPath id="clip191">
    <rect x="480" y="0" width="1681" height="1600"/>
  </clipPath>
</defs>
<path clip-path="url(#clip190)" d="M220.672 1477.81 L2352.76 1477.81 L2352.76 47.2441 L220.672 47.2441  Z" fill="#ffffff" fill-rule="evenodd" fill-opacity="1"/>
<defs>
  <clipPath id="clip192">
    <rect x="220" y="47" width="2133" height="1432"/>
  </clipPath>
</defs>
<polyline clip-path="url(#clip192)" style="stroke:#000000; stroke-linecap:round; stroke-linejoin:round; stroke-width:2; stroke-opacity:0.1; fill:none" points="339.121,1477.81 339.121,47.2441 "/>
<polyline clip-path="url(#clip192)" style="stroke:#000000; stroke-linecap:round; stroke-linejoin:round; stroke-width:2; stroke-opacity:0.1; fill:none" points="812.918,1477.81 812.918,47.2441 "/>
<polyline clip-path="url(#clip192)" style="stroke:#000000; stroke-linecap:round; stroke-linejoin:round; stroke-width:2; stroke-opacity:0.1; fill:none" points="1286.71,1477.81 1286.71,47.2441 "/>
<polyline clip-path="url(#clip192)" style="stroke:#000000; stroke-linecap:round; stroke-linejoin:round; stroke-width:2; stroke-opacity:0.1; fill:none" points="1760.51,1477.81 1760.51,47.2441 "/>
<polyline clip-path="url(#clip192)" style="stroke:#000000; stroke-linecap:round; stroke-linejoin:round; stroke-width:2; stroke-opacity:0.1; fill:none" points="2234.31,1477.81 2234.31,47.2441 "/>
<polyline clip-path="url(#clip190)" style="stroke:#000000; stroke-linecap:round; stroke-linejoin:round; stroke-width:4; stroke-opacity:1; fill:none" points="220.672,1477.81 2352.76,1477.81 "/>
<polyline clip-path="url(#clip190)" style="stroke:#000000; stroke-linecap:round; stroke-linejoin:round; stroke-width:4; stroke-opacity:1; fill:none" points="339.121,1477.81 339.121,1458.91 "/>
<polyline clip-path="url(#clip190)" style="stroke:#000000; stroke-linecap:round; stroke-linejoin:round; stroke-width:4; stroke-opacity:1; fill:none" points="812.918,1477.81 812.918,1458.91 "/>
<polyline clip-path="url(#clip190)" style="stroke:#000000; stroke-linecap:round; stroke-linejoin:round; stroke-width:4; stroke-opacity:1; fill:none" points="1286.71,1477.81 1286.71,1458.91 "/>
<polyline clip-path="url(#clip190)" style="stroke:#000000; stroke-linecap:round; stroke-linejoin:round; stroke-width:4; stroke-opacity:1; fill:none" points="1760.51,1477.81 1760.51,1458.91 "/>
<polyline clip-path="url(#clip190)" style="stroke:#000000; stroke-linecap:round; stroke-linejoin:round; stroke-width:4; stroke-opacity:1; fill:none" points="2234.31,1477.81 2234.31,1458.91 "/>
<path clip-path="url(#clip190)" d="M300.247 1529.97 L337.342 1529.97 L337.342 1534.89 L300.247 1534.89 L300.247 1529.97 Z" fill="#000000" fill-rule="nonzero" fill-opacity="1" /><path clip-path="url(#clip190)" d="M366.016 1512.9 L351.259 1535.96 L366.016 1535.96 L366.016 1512.9 M364.483 1507.81 L371.832 1507.81 L371.832 1535.96 L377.995 1535.96 L377.995 1540.82 L371.832 1540.82 L371.832 1551.01 L366.016 1551.01 L366.016 1540.82 L346.514 1540.82 L346.514 1535.18 L364.483 1507.81 Z" fill="#000000" fill-rule="nonzero" fill-opacity="1" /><path clip-path="url(#clip190)" d="M775.345 1529.97 L812.44 1529.97 L812.44 1534.89 L775.345 1534.89 L775.345 1529.97 Z" fill="#000000" fill-rule="nonzero" fill-opacity="1" /><path clip-path="url(#clip190)" d="M830.09 1546.09 L850.49 1546.09 L850.49 1551.01 L823.059 1551.01 L823.059 1546.09 Q826.387 1542.65 832.116 1536.86 Q837.874 1531.04 839.35 1529.36 Q842.156 1526.21 843.256 1524.04 Q844.384 1521.84 844.384 1519.73 Q844.384 1516.29 841.954 1514.12 Q839.552 1511.95 835.675 1511.95 Q832.926 1511.95 829.859 1512.9 Q826.821 1513.86 823.349 1515.79 L823.349 1509.89 Q826.879 1508.47 829.946 1507.75 Q833.013 1507.03 835.559 1507.03 Q842.272 1507.03 846.265 1510.38 Q850.258 1513.74 850.258 1519.35 Q850.258 1522.01 849.245 1524.42 Q848.262 1526.79 845.629 1530.03 Q844.905 1530.87 841.028 1534.89 Q837.151 1538.88 830.09 1546.09 Z" fill="#000000" fill-rule="nonzero" fill-opacity="1" /><path clip-path="url(#clip190)" d="M1286.71 1511.66 Q1282.2 1511.66 1279.91 1516.11 Q1277.66 1520.54 1277.66 1529.45 Q1277.66 1538.33 1279.91 1542.79 Q1282.2 1547.22 1286.71 1547.22 Q1291.26 1547.22 1293.51 1542.79 Q1295.8 1538.33 1295.8 1529.45 Q1295.8 1520.54 1293.51 1516.11 Q1291.26 1511.66 1286.71 1511.66 M1286.71 1507.03 Q1293.98 1507.03 1297.8 1512.78 Q1301.64 1518.51 1301.64 1529.45 Q1301.64 1540.36 1297.8 1546.12 Q1293.98 1551.85 1286.71 1551.85 Q1279.45 1551.85 1275.6 1546.12 Q1271.78 1540.36 1271.78 1529.45 Q1271.78 1518.51 1275.6 1512.78 Q1279.45 1507.03 1286.71 1507.03 Z" fill="#000000" fill-rule="nonzero" fill-opacity="1" /><path clip-path="url(#clip190)" d="M1753.83 1546.09 L1774.23 1546.09 L1774.23 1551.01 L1746.8 1551.01 L1746.8 1546.09 Q1750.12 1542.65 1755.85 1536.86 Q1761.61 1531.04 1763.09 1529.36 Q1765.89 1526.21 1766.99 1524.04 Q1768.12 1521.84 1768.12 1519.73 Q1768.12 1516.29 1765.69 1514.12 Q1763.29 1511.95 1759.41 1511.95 Q1756.66 1511.95 1753.59 1512.9 Q1750.56 1513.86 1747.08 1515.79 L1747.08 1509.89 Q1750.61 1508.47 1753.68 1507.75 Q1756.75 1507.03 1759.3 1507.03 Q1766.01 1507.03 1770 1510.38 Q1773.99 1513.74 1773.99 1519.35 Q1773.99 1522.01 1772.98 1524.42 Q1772 1526.79 1769.36 1530.03 Q1768.64 1530.87 1764.76 1534.89 Q1760.89 1538.88 1753.83 1546.09 Z" fill="#000000" fill-rule="nonzero" fill-opacity="1" /><path clip-path="url(#clip190)" d="M2238.07 1512.9 L2223.31 1535.96 L2238.07 1535.96 L2238.07 1512.9 M2236.53 1507.81 L2243.88 1507.81 L2243.88 1535.96 L2250.05 1535.96 L2250.05 1540.82 L2243.88 1540.82 L2243.88 1551.01 L2238.07 1551.01 L2238.07 1540.82 L2218.57 1540.82 L2218.57 1535.18 L2236.53 1507.81 Z" fill="#000000" fill-rule="nonzero" fill-opacity="1" /><polyline clip-path="url(#clip192)" style="stroke:#000000; stroke-linecap:round; stroke-linejoin:round; stroke-width:2; stroke-opacity:0.1; fill:none" points="220.672,1465.44 2352.76,1465.44 "/>
<polyline clip-path="url(#clip192)" style="stroke:#000000; stroke-linecap:round; stroke-linejoin:round; stroke-width:2; stroke-opacity:0.1; fill:none" points="220.672,1231.13 2352.76,1231.13 "/>
<polyline clip-path="url(#clip192)" style="stroke:#000000; stroke-linecap:round; stroke-linejoin:round; stroke-width:2; stroke-opacity:0.1; fill:none" points="220.672,996.83 2352.76,996.83 "/>
<polyline clip-path="url(#clip192)" style="stroke:#000000; stroke-linecap:round; stroke-linejoin:round; stroke-width:2; stroke-opacity:0.1; fill:none" points="220.672,762.526 2352.76,762.526 "/>
<polyline clip-path="url(#clip192)" style="stroke:#000000; stroke-linecap:round; stroke-linejoin:round; stroke-width:2; stroke-opacity:0.1; fill:none" points="220.672,528.222 2352.76,528.222 "/>
<polyline clip-path="url(#clip192)" style="stroke:#000000; stroke-linecap:round; stroke-linejoin:round; stroke-width:2; stroke-opacity:0.1; fill:none" points="220.672,293.919 2352.76,293.919 "/>
<polyline clip-path="url(#clip192)" style="stroke:#000000; stroke-linecap:round; stroke-linejoin:round; stroke-width:2; stroke-opacity:0.1; fill:none" points="220.672,59.6153 2352.76,59.6153 "/>
<polyline clip-path="url(#clip190)" style="stroke:#000000; stroke-linecap:round; stroke-linejoin:round; stroke-width:4; stroke-opacity:1; fill:none" points="220.672,1477.81 220.672,47.2441 "/>
<polyline clip-path="url(#clip190)" style="stroke:#000000; stroke-linecap:round; stroke-linejoin:round; stroke-width:4; stroke-opacity:1; fill:none" points="220.672,1465.44 239.57,1465.44 "/>
<polyline clip-path="url(#clip190)" style="stroke:#000000; stroke-linecap:round; stroke-linejoin:round; stroke-width:4; stroke-opacity:1; fill:none" points="220.672,1231.13 239.57,1231.13 "/>
<polyline clip-path="url(#clip190)" style="stroke:#000000; stroke-linecap:round; stroke-linejoin:round; stroke-width:4; stroke-opacity:1; fill:none" points="220.672,996.83 239.57,996.83 "/>
<polyline clip-path="url(#clip190)" style="stroke:#000000; stroke-linecap:round; stroke-linejoin:round; stroke-width:4; stroke-opacity:1; fill:none" points="220.672,762.526 239.57,762.526 "/>
<polyline clip-path="url(#clip190)" style="stroke:#000000; stroke-linecap:round; stroke-linejoin:round; stroke-width:4; stroke-opacity:1; fill:none" points="220.672,528.222 239.57,528.222 "/>
<polyline clip-path="url(#clip190)" style="stroke:#000000; stroke-linecap:round; stroke-linejoin:round; stroke-width:4; stroke-opacity:1; fill:none" points="220.672,293.919 239.57,293.919 "/>
<polyline clip-path="url(#clip190)" style="stroke:#000000; stroke-linecap:round; stroke-linejoin:round; stroke-width:4; stroke-opacity:1; fill:none" points="220.672,59.6153 239.57,59.6153 "/>
<path clip-path="url(#clip190)" d="M52.2363 1466 L89.331 1466 L89.331 1470.92 L52.2363 1470.92 L52.2363 1466 Z" fill="#000000" fill-rule="nonzero" fill-opacity="1" /><path clip-path="url(#clip190)" d="M102.959 1482.12 L112.508 1482.12 L112.508 1449.16 L102.12 1451.24 L102.12 1445.92 L112.45 1443.84 L118.295 1443.84 L118.295 1482.12 L127.844 1482.12 L127.844 1487.04 L102.959 1487.04 L102.959 1482.12 Z" fill="#000000" fill-rule="nonzero" fill-opacity="1" /><path clip-path="url(#clip190)" d="M139.649 1479.69 L145.754 1479.69 L145.754 1487.04 L139.649 1487.04 L139.649 1479.69 Z" fill="#000000" fill-rule="nonzero" fill-opacity="1" /><path clip-path="url(#clip190)" d="M158.544 1443.84 L181.489 1443.84 L181.489 1448.76 L163.897 1448.76 L163.897 1459.35 Q165.17 1458.91 166.443 1458.71 Q167.716 1458.48 168.989 1458.48 Q176.223 1458.48 180.447 1462.44 Q184.672 1466.41 184.672 1473.18 Q184.672 1480.15 180.332 1484.03 Q175.991 1487.88 168.092 1487.88 Q165.372 1487.88 162.537 1487.41 Q159.73 1486.95 156.721 1486.02 L156.721 1480.15 Q159.325 1481.57 162.103 1482.26 Q164.88 1482.96 167.976 1482.96 Q172.982 1482.96 175.905 1480.32 Q178.827 1477.69 178.827 1473.18 Q178.827 1468.66 175.905 1466.03 Q172.982 1463.4 167.976 1463.4 Q165.633 1463.4 163.289 1463.92 Q160.974 1464.44 158.544 1465.54 L158.544 1443.84 Z" fill="#000000" fill-rule="nonzero" fill-opacity="1" /><path clip-path="url(#clip190)" d="M50.9921 1231.7 L88.0868 1231.7 L88.0868 1236.62 L50.9921 1236.62 L50.9921 1231.7 Z" fill="#000000" fill-rule="nonzero" fill-opacity="1" /><path clip-path="url(#clip190)" d="M101.715 1247.81 L111.264 1247.81 L111.264 1214.86 L100.876 1216.94 L100.876 1211.62 L111.206 1209.53 L117.051 1209.53 L117.051 1247.81 L126.599 1247.81 L126.599 1252.73 L101.715 1252.73 L101.715 1247.81 Z" fill="#000000" fill-rule="nonzero" fill-opacity="1" /><path clip-path="url(#clip190)" d="M138.405 1245.38 L144.51 1245.38 L144.51 1252.73 L138.405 1252.73 L138.405 1245.38 Z" fill="#000000" fill-rule="nonzero" fill-opacity="1" /><path clip-path="url(#clip190)" d="M169.741 1213.38 Q165.228 1213.38 162.942 1217.84 Q160.685 1222.26 160.685 1231.18 Q160.685 1240.06 162.942 1244.52 Q165.228 1248.94 169.741 1248.94 Q174.284 1248.94 176.541 1244.52 Q178.827 1240.06 178.827 1231.18 Q178.827 1222.26 176.541 1217.84 Q174.284 1213.38 169.741 1213.38 M169.741 1208.75 Q177.004 1208.75 180.824 1214.51 Q184.672 1220.24 184.672 1231.18 Q184.672 1242.09 180.824 1247.84 Q177.004 1253.57 169.741 1253.57 Q162.479 1253.57 158.63 1247.84 Q154.811 1242.09 154.811 1231.18 Q154.811 1220.24 158.63 1214.51 Q162.479 1208.75 169.741 1208.75 Z" fill="#000000" fill-rule="nonzero" fill-opacity="1" /><path clip-path="url(#clip190)" d="M52.2363 997.394 L89.331 997.394 L89.331 1002.31 L52.2363 1002.31 L52.2363 997.394 Z" fill="#000000" fill-rule="nonzero" fill-opacity="1" /><path clip-path="url(#clip190)" d="M114.447 979.078 Q109.933 979.078 107.647 983.534 Q105.39 987.961 105.39 996.873 Q105.39 1005.76 107.647 1010.21 Q109.933 1014.64 114.447 1014.64 Q118.989 1014.64 121.246 1010.21 Q123.532 1005.76 123.532 996.873 Q123.532 987.961 121.246 983.534 Q118.989 979.078 114.447 979.078 M114.447 974.448 Q121.709 974.448 125.529 980.206 Q129.377 985.935 129.377 996.873 Q129.377 1007.78 125.529 1013.54 Q121.709 1019.27 114.447 1019.27 Q107.184 1019.27 103.336 1013.54 Q99.5162 1007.78 99.5162 996.873 Q99.5162 985.935 103.336 980.206 Q107.184 974.448 114.447 974.448 Z" fill="#000000" fill-rule="nonzero" fill-opacity="1" /><path clip-path="url(#clip190)" d="M139.649 1011.08 L145.754 1011.08 L145.754 1018.43 L139.649 1018.43 L139.649 1011.08 Z" fill="#000000" fill-rule="nonzero" fill-opacity="1" /><path clip-path="url(#clip190)" d="M158.544 975.23 L181.489 975.23 L181.489 980.148 L163.897 980.148 L163.897 990.739 Q165.17 990.305 166.443 990.102 Q167.716 989.871 168.989 989.871 Q176.223 989.871 180.447 993.835 Q184.672 997.799 184.672 1004.57 Q184.672 1011.54 180.332 1015.42 Q175.991 1019.27 168.092 1019.27 Q165.372 1019.27 162.537 1018.81 Q159.73 1018.34 156.721 1017.42 L156.721 1011.54 Q159.325 1012.96 162.103 1013.66 Q164.88 1014.35 167.976 1014.35 Q172.982 1014.35 175.905 1011.72 Q178.827 1009.08 178.827 1004.57 Q178.827 1000.06 175.905 997.423 Q172.982 994.79 167.976 994.79 Q165.633 994.79 163.289 995.31 Q160.974 995.831 158.544 996.931 L158.544 975.23 Z" fill="#000000" fill-rule="nonzero" fill-opacity="1" /><path clip-path="url(#clip190)" d="M113.202 744.774 Q108.689 744.774 106.403 749.23 Q104.146 753.657 104.146 762.569 Q104.146 771.452 106.403 775.908 Q108.689 780.335 113.202 780.335 Q117.745 780.335 120.002 775.908 Q122.288 771.452 122.288 762.569 Q122.288 753.657 120.002 749.23 Q117.745 744.774 113.202 744.774 M113.202 740.145 Q120.465 740.145 124.285 745.903 Q128.133 751.632 128.133 762.569 Q128.133 773.478 124.285 779.236 Q120.465 784.965 113.202 784.965 Q105.94 784.965 102.091 779.236 Q98.272 773.478 98.272 762.569 Q98.272 751.632 102.091 745.903 Q105.94 740.145 113.202 740.145 Z" fill="#000000" fill-rule="nonzero" fill-opacity="1" /><path clip-path="url(#clip190)" d="M138.405 776.776 L144.51 776.776 L144.51 784.126 L138.405 784.126 L138.405 776.776 Z" fill="#000000" fill-rule="nonzero" fill-opacity="1" /><path clip-path="url(#clip190)" d="M169.741 744.774 Q165.228 744.774 162.942 749.23 Q160.685 753.657 160.685 762.569 Q160.685 771.452 162.942 775.908 Q165.228 780.335 169.741 780.335 Q174.284 780.335 176.541 775.908 Q178.827 771.452 178.827 762.569 Q178.827 753.657 176.541 749.23 Q174.284 744.774 169.741 744.774 M169.741 740.145 Q177.004 740.145 180.824 745.903 Q184.672 751.632 184.672 762.569 Q184.672 773.478 180.824 779.236 Q177.004 784.965 169.741 784.965 Q162.479 784.965 158.63 779.236 Q154.811 773.478 154.811 762.569 Q154.811 751.632 158.63 745.903 Q162.479 740.145 169.741 740.145 Z" fill="#000000" fill-rule="nonzero" fill-opacity="1" /><path clip-path="url(#clip190)" d="M114.447 510.471 Q109.933 510.471 107.647 514.927 Q105.39 519.354 105.39 528.266 Q105.39 537.149 107.647 541.605 Q109.933 546.032 114.447 546.032 Q118.989 546.032 121.246 541.605 Q123.532 537.149 123.532 528.266 Q123.532 519.354 121.246 514.927 Q118.989 510.471 114.447 510.471 M114.447 505.841 Q121.709 505.841 125.529 511.599 Q129.377 517.328 129.377 528.266 Q129.377 539.174 125.529 544.932 Q121.709 550.662 114.447 550.662 Q107.184 550.662 103.336 544.932 Q99.5162 539.174 99.5162 528.266 Q99.5162 517.328 103.336 511.599 Q107.184 505.841 114.447 505.841 Z" fill="#000000" fill-rule="nonzero" fill-opacity="1" /><path clip-path="url(#clip190)" d="M139.649 542.473 L145.754 542.473 L145.754 549.822 L139.649 549.822 L139.649 542.473 Z" fill="#000000" fill-rule="nonzero" fill-opacity="1" /><path clip-path="url(#clip190)" d="M158.544 506.622 L181.489 506.622 L181.489 511.541 L163.897 511.541 L163.897 522.132 Q165.17 521.698 166.443 521.495 Q167.716 521.264 168.989 521.264 Q176.223 521.264 180.447 525.228 Q184.672 529.192 184.672 535.963 Q184.672 542.936 180.332 546.813 Q175.991 550.662 168.092 550.662 Q165.372 550.662 162.537 550.199 Q159.73 549.736 156.721 548.81 L156.721 542.936 Q159.325 544.354 162.103 545.048 Q164.88 545.743 167.976 545.743 Q172.982 545.743 175.905 543.11 Q178.827 540.476 178.827 535.963 Q178.827 531.449 175.905 528.816 Q172.982 526.183 167.976 526.183 Q165.633 526.183 163.289 526.703 Q160.974 527.224 158.544 528.324 L158.544 506.622 Z" fill="#000000" fill-rule="nonzero" fill-opacity="1" /><path clip-path="url(#clip190)" d="M101.715 310.6 L111.264 310.6 L111.264 277.643 L100.876 279.726 L100.876 274.402 L111.206 272.319 L117.051 272.319 L117.051 310.6 L126.599 310.6 L126.599 315.519 L101.715 315.519 L101.715 310.6 Z" fill="#000000" fill-rule="nonzero" fill-opacity="1" /><path clip-path="url(#clip190)" d="M138.405 308.169 L144.51 308.169 L144.51 315.519 L138.405 315.519 L138.405 308.169 Z" fill="#000000" fill-rule="nonzero" fill-opacity="1" /><path clip-path="url(#clip190)" d="M169.741 276.167 Q165.228 276.167 162.942 280.623 Q160.685 285.05 160.685 293.962 Q160.685 302.845 162.942 307.301 Q165.228 311.728 169.741 311.728 Q174.284 311.728 176.541 307.301 Q178.827 302.845 178.827 293.962 Q178.827 285.05 176.541 280.623 Q174.284 276.167 169.741 276.167 M169.741 271.538 Q177.004 271.538 180.824 277.296 Q184.672 283.025 184.672 293.962 Q184.672 304.871 180.824 310.629 Q177.004 316.358 169.741 316.358 Q162.479 316.358 158.63 310.629 Q154.811 304.871 154.811 293.962 Q154.811 283.025 158.63 277.296 Q162.479 271.538 169.741 271.538 Z" fill="#000000" fill-rule="nonzero" fill-opacity="1" /><path clip-path="url(#clip190)" d="M102.959 76.2964 L112.508 76.2964 L112.508 43.3394 L102.12 45.4227 L102.12 40.0986 L112.45 38.0153 L118.295 38.0153 L118.295 76.2964 L127.844 76.2964 L127.844 81.2153 L102.959 81.2153 L102.959 76.2964 Z" fill="#000000" fill-rule="nonzero" fill-opacity="1" /><path clip-path="url(#clip190)" d="M139.649 73.8658 L145.754 73.8658 L145.754 81.2153 L139.649 81.2153 L139.649 73.8658 Z" fill="#000000" fill-rule="nonzero" fill-opacity="1" /><path clip-path="url(#clip190)" d="M158.544 38.0153 L181.489 38.0153 L181.489 42.9343 L163.897 42.9343 L163.897 53.5245 Q165.17 53.0905 166.443 52.8879 Q167.716 52.6564 168.989 52.6564 Q176.223 52.6564 180.447 56.6205 Q184.672 60.5846 184.672 67.3554 Q184.672 74.3288 180.332 78.2061 Q175.991 82.0544 168.092 82.0544 Q165.372 82.0544 162.537 81.5915 Q159.73 81.1285 156.721 80.2026 L156.721 74.3288 Q159.325 75.7466 162.103 76.441 Q164.88 77.1355 167.976 77.1355 Q172.982 77.1355 175.905 74.5024 Q178.827 71.8693 178.827 67.3554 Q178.827 62.8416 175.905 60.2085 Q172.982 57.5754 167.976 57.5754 Q165.633 57.5754 163.289 58.0962 Q160.974 58.6171 158.544 59.7166 L158.544 38.0153 Z" fill="#000000" fill-rule="nonzero" fill-opacity="1" /><polyline clip-path="url(#clip192)" style="stroke:#009af9; stroke-linecap:round; stroke-linejoin:round; stroke-width:4; stroke-opacity:1; fill:none" points="339.121,1231.13 457.57,1231.13 694.468,1231.13 931.367,1231.13 931.367,762.526 1168.26,762.526 1405.16,762.526 1642.06,762.526 1642.06,293.919 1878.96,293.919 2115.86,293.919 2234.31,293.919 "/>
<circle clip-path="url(#clip192)" cx="339.121" cy="1437.32" r="14.4" fill="#e26f46" fill-rule="evenodd" fill-opacity="1" stroke="#000000" stroke-opacity="1" stroke-width="3.2"/>
<circle clip-path="url(#clip192)" cx="1049.82" cy="987.457" r="14.4" fill="#e26f46" fill-rule="evenodd" fill-opacity="1" stroke="#000000" stroke-opacity="1" stroke-width="3.2"/>
<circle clip-path="url(#clip192)" cx="1760.51" cy="537.595" r="14.4" fill="#e26f46" fill-rule="evenodd" fill-opacity="1" stroke="#000000" stroke-opacity="1" stroke-width="3.2"/>
<circle clip-path="url(#clip192)" cx="576.019" cy="1164.19" r="14.4" fill="#e26f46" fill-rule="evenodd" fill-opacity="1" stroke="#000000" stroke-opacity="1" stroke-width="3.2"/>
<circle clip-path="url(#clip192)" cx="1286.71" cy="762.526" r="14.4" fill="#e26f46" fill-rule="evenodd" fill-opacity="1" stroke="#000000" stroke-opacity="1" stroke-width="3.2"/>
<circle clip-path="url(#clip192)" cx="1997.41" cy="360.863" r="14.4" fill="#e26f46" fill-rule="evenodd" fill-opacity="1" stroke="#000000" stroke-opacity="1" stroke-width="3.2"/>
<circle clip-path="url(#clip192)" cx="812.918" cy="987.457" r="14.4" fill="#e26f46" fill-rule="evenodd" fill-opacity="1" stroke="#000000" stroke-opacity="1" stroke-width="3.2"/>
<circle clip-path="url(#clip192)" cx="1523.61" cy="537.595" r="14.4" fill="#e26f46" fill-rule="evenodd" fill-opacity="1" stroke="#000000" stroke-opacity="1" stroke-width="3.2"/>
<circle clip-path="url(#clip192)" cx="2234.31" cy="87.7317" r="14.4" fill="#e26f46" fill-rule="evenodd" fill-opacity="1" stroke="#000000" stroke-opacity="1" stroke-width="3.2"/>
<path clip-path="url(#clip190)" d="M291.741 289.33 L786.314 289.33 L786.314 94.9296 L291.741 94.9296  Z" fill="#ffffff" fill-rule="evenodd" fill-opacity="1"/>
<polyline clip-path="url(#clip190)" style="stroke:#000000; stroke-linecap:round; stroke-linejoin:round; stroke-width:4; stroke-opacity:1; fill:none" points="291.741,289.33 786.314,289.33 786.314,94.9296 291.741,94.9296 291.741,289.33 "/>
<polyline clip-path="url(#clip190)" style="stroke:#009af9; stroke-linecap:round; stroke-linejoin:round; stroke-width:5; stroke-opacity:1; fill:none" points="315.431,159.73 457.57,159.73 "/>
<path clip-path="url(#clip190)" d="M490.519 139.721 L490.519 148.922 L501.486 148.922 L501.486 153.06 L490.519 153.06 L490.519 170.653 Q490.519 174.617 491.59 175.745 Q492.689 176.874 496.017 176.874 L501.486 176.874 L501.486 181.33 L496.017 181.33 Q489.854 181.33 487.51 179.044 Q485.166 176.729 485.166 170.653 L485.166 153.06 L481.26 153.06 L481.26 148.922 L485.166 148.922 L485.166 139.721 L490.519 139.721 Z" fill="#000000" fill-rule="nonzero" fill-opacity="1" /><path clip-path="url(#clip190)" d="M527.267 153.899 Q526.37 153.378 525.299 153.147 Q524.257 152.886 522.984 152.886 Q518.47 152.886 516.04 155.838 Q513.638 158.76 513.638 164.258 L513.638 181.33 L508.285 181.33 L508.285 148.922 L513.638 148.922 L513.638 153.957 Q515.317 151.006 518.007 149.588 Q520.698 148.141 524.547 148.141 Q525.097 148.141 525.762 148.228 Q526.428 148.286 527.238 148.43 L527.267 153.899 Z" fill="#000000" fill-rule="nonzero" fill-opacity="1" /><path clip-path="url(#clip190)" d="M532.301 168.54 L532.301 148.922 L537.625 148.922 L537.625 168.338 Q537.625 172.938 539.419 175.253 Q541.213 177.539 544.801 177.539 Q549.113 177.539 551.601 174.79 Q554.118 172.041 554.118 167.296 L554.118 148.922 L559.442 148.922 L559.442 181.33 L554.118 181.33 L554.118 176.353 Q552.18 179.304 549.605 180.751 Q547.058 182.169 543.673 182.169 Q538.088 182.169 535.195 178.696 Q532.301 175.224 532.301 168.54 M545.698 148.141 L545.698 148.141 Z" fill="#000000" fill-rule="nonzero" fill-opacity="1" /><path clip-path="url(#clip190)" d="M575.675 139.721 L575.675 148.922 L586.641 148.922 L586.641 153.06 L575.675 153.06 L575.675 170.653 Q575.675 174.617 576.746 175.745 Q577.845 176.874 581.173 176.874 L586.641 176.874 L586.641 181.33 L581.173 181.33 Q575.01 181.33 572.666 179.044 Q570.322 176.729 570.322 170.653 L570.322 153.06 L566.416 153.06 L566.416 148.922 L570.322 148.922 L570.322 139.721 L575.675 139.721 Z" fill="#000000" fill-rule="nonzero" fill-opacity="1" /><path clip-path="url(#clip190)" d="M620.582 161.769 L620.582 181.33 L615.258 181.33 L615.258 161.943 Q615.258 157.342 613.464 155.057 Q611.67 152.771 608.082 152.771 Q603.771 152.771 601.283 155.52 Q598.794 158.268 598.794 163.014 L598.794 181.33 L593.441 181.33 L593.441 136.307 L598.794 136.307 L598.794 153.957 Q600.704 151.035 603.279 149.588 Q605.883 148.141 609.269 148.141 Q614.853 148.141 617.718 151.613 Q620.582 155.057 620.582 161.769 Z" fill="#000000" fill-rule="nonzero" fill-opacity="1" /><circle clip-path="url(#clip190)" cx="386.501" cy="224.53" r="25.6" fill="#e26f46" fill-rule="evenodd" fill-opacity="1" stroke="#000000" stroke-opacity="1" stroke-width="5.68889"/>
<path clip-path="url(#clip190)" d="M481.26 201.107 L486.584 201.107 L486.584 246.13 L481.26 246.13 L481.26 201.107 Z" fill="#000000" fill-rule="nonzero" fill-opacity="1" /><path clip-path="url(#clip190)" d="M497.724 213.722 L503.048 213.722 L503.048 246.13 L497.724 246.13 L497.724 213.722 M497.724 201.107 L503.048 201.107 L503.048 207.849 L497.724 207.849 L497.724 201.107 Z" fill="#000000" fill-rule="nonzero" fill-opacity="1" /><path clip-path="url(#clip190)" d="M541.127 226.569 L541.127 246.13 L535.803 246.13 L535.803 226.743 Q535.803 222.142 534.009 219.857 Q532.215 217.571 528.627 217.571 Q524.315 217.571 521.827 220.32 Q519.339 223.068 519.339 227.814 L519.339 246.13 L513.986 246.13 L513.986 213.722 L519.339 213.722 L519.339 218.757 Q521.248 215.835 523.823 214.388 Q526.428 212.941 529.813 212.941 Q535.397 212.941 538.262 216.413 Q541.127 219.857 541.127 226.569 Z" fill="#000000" fill-rule="nonzero" fill-opacity="1" /><path clip-path="url(#clip190)" d="M579.465 228.595 L579.465 231.199 L554.986 231.199 Q555.334 236.697 558.285 239.59 Q561.265 242.455 566.56 242.455 Q569.628 242.455 572.492 241.702 Q575.386 240.95 578.221 239.446 L578.221 244.48 Q575.357 245.696 572.347 246.332 Q569.338 246.969 566.242 246.969 Q558.488 246.969 553.945 242.455 Q549.431 237.941 549.431 230.244 Q549.431 222.287 553.713 217.629 Q558.025 212.941 565.316 212.941 Q571.856 212.941 575.646 217.166 Q579.465 221.361 579.465 228.595 M574.141 227.032 Q574.084 222.663 571.682 220.059 Q569.309 217.455 565.374 217.455 Q560.918 217.455 558.227 219.972 Q555.565 222.49 555.16 227.061 L574.141 227.032 Z" fill="#000000" fill-rule="nonzero" fill-opacity="1" /><path clip-path="url(#clip190)" d="M602.932 229.839 Q596.479 229.839 593.991 231.315 Q591.502 232.791 591.502 236.35 Q591.502 239.185 593.354 240.863 Q595.235 242.513 598.447 242.513 Q602.874 242.513 605.536 239.388 Q608.227 236.234 608.227 231.025 L608.227 229.839 L602.932 229.839 M613.551 227.64 L613.551 246.13 L608.227 246.13 L608.227 241.211 Q606.404 244.162 603.684 245.58 Q600.964 246.969 597.029 246.969 Q592.052 246.969 589.101 244.191 Q586.178 241.384 586.178 236.697 Q586.178 231.228 589.824 228.45 Q593.499 225.672 600.762 225.672 L608.227 225.672 L608.227 225.152 Q608.227 221.477 605.796 219.48 Q603.395 217.455 599.026 217.455 Q596.248 217.455 593.615 218.12 Q590.982 218.786 588.551 220.117 L588.551 215.198 Q591.474 214.07 594.222 213.52 Q596.971 212.941 599.575 212.941 Q606.607 212.941 610.079 216.587 Q613.551 220.233 613.551 227.64 Z" fill="#000000" fill-rule="nonzero" fill-opacity="1" /><path clip-path="url(#clip190)" d="M643.296 218.699 Q642.399 218.178 641.329 217.947 Q640.287 217.686 639.014 217.686 Q634.5 217.686 632.069 220.638 Q629.668 223.56 629.668 229.058 L629.668 246.13 L624.315 246.13 L624.315 213.722 L629.668 213.722 L629.668 218.757 Q631.346 215.806 634.037 214.388 Q636.728 212.941 640.576 212.941 Q641.126 212.941 641.792 213.028 Q642.457 213.086 643.267 213.23 L643.296 218.699 Z" fill="#000000" fill-rule="nonzero" fill-opacity="1" /><path clip-path="url(#clip190)" d="M680.275 217.455 Q675.993 217.455 673.504 220.811 Q671.016 224.139 671.016 229.955 Q671.016 235.771 673.475 239.127 Q675.964 242.455 680.275 242.455 Q684.529 242.455 687.017 239.098 Q689.505 235.742 689.505 229.955 Q689.505 224.197 687.017 220.84 Q684.529 217.455 680.275 217.455 M680.275 212.941 Q687.22 212.941 691.184 217.455 Q695.148 221.969 695.148 229.955 Q695.148 237.912 691.184 242.455 Q687.22 246.969 680.275 246.969 Q673.302 246.969 669.338 242.455 Q665.403 237.912 665.403 229.955 Q665.403 221.969 669.338 217.455 Q673.302 212.941 680.275 212.941 Z" fill="#000000" fill-rule="nonzero" fill-opacity="1" /><path clip-path="url(#clip190)" d="M716.531 217.455 Q712.248 217.455 709.76 220.811 Q707.272 224.139 707.272 229.955 Q707.272 235.771 709.731 239.127 Q712.219 242.455 716.531 242.455 Q720.784 242.455 723.273 239.098 Q725.761 235.742 725.761 229.955 Q725.761 224.197 723.273 220.84 Q720.784 217.455 716.531 217.455 M716.531 212.941 Q723.475 212.941 727.439 217.455 Q731.403 221.969 731.403 229.955 Q731.403 237.912 727.439 242.455 Q723.475 246.969 716.531 246.969 Q709.557 246.969 705.593 242.455 Q701.658 237.912 701.658 229.955 Q701.658 221.969 705.593 217.455 Q709.557 212.941 716.531 212.941 Z" fill="#000000" fill-rule="nonzero" fill-opacity="1" /><path clip-path="url(#clip190)" d="M760.888 214.677 L760.888 219.712 Q758.631 218.554 756.201 217.976 Q753.77 217.397 751.166 217.397 Q747.202 217.397 745.205 218.612 Q743.238 219.828 743.238 222.258 Q743.238 224.11 744.656 225.181 Q746.073 226.222 750.356 227.177 L752.179 227.582 Q757.85 228.797 760.223 231.025 Q762.624 233.225 762.624 237.189 Q762.624 241.702 759.036 244.336 Q755.477 246.969 749.227 246.969 Q746.623 246.969 743.788 246.448 Q740.981 245.956 737.856 244.943 L737.856 239.446 Q740.807 240.979 743.672 241.76 Q746.536 242.513 749.343 242.513 Q753.105 242.513 755.13 241.24 Q757.156 239.937 757.156 237.594 Q757.156 235.424 755.68 234.266 Q754.233 233.109 749.285 232.038 L747.433 231.604 Q742.485 230.563 740.286 228.421 Q738.087 226.251 738.087 222.49 Q738.087 217.918 741.328 215.429 Q744.569 212.941 750.529 212.941 Q753.481 212.941 756.085 213.375 Q758.689 213.809 760.888 214.677 Z" fill="#000000" fill-rule="nonzero" fill-opacity="1" /></svg>
