<?xml version="1.0" encoding="utf-8"?>
<svg xmlns="http://www.w3.org/2000/svg" xmlns:xlink="http://www.w3.org/1999/xlink" width="600" height="400" viewBox="0 0 2400 1600">
<defs>
  <clipPath id="clip250">
    <rect x="0" y="0" width="2400" height="1600"/>
  </clipPath>
</defs>
<path clip-path="url(#clip250)" d="M0 1600 L2400 1600 L2400 0 L0 0  Z" fill="#ffffff" fill-rule="evenodd" fill-opacity="1"/>
<defs>
  <clipPath id="clip251">
    <rect x="480" y="0" width="1681" height="1600"/>
  </clipPath>
</defs>
<path clip-path="url(#clip250)" d="M220.672 1477.81 L2352.76 1477.81 L2352.76 47.2441 L220.672 47.2441  Z" fill="#ffffff" fill-rule="evenodd" fill-opacity="1"/>
<defs>
  <clipPath id="clip252">
    <rect x="220" y="47" width="2133" height="1432"/>
  </clipPath>
</defs>
<polyline clip-path="url(#clip252)" style="stroke:#000000; stroke-linecap:round; stroke-linejoin:round; stroke-width:2; stroke-opacity:0.1; fill:none" points="339.121,1477.81 339.121,47.2441 "/>
<polyline clip-path="url(#clip252)" style="stroke:#000000; stroke-linecap:round; stroke-linejoin:round; stroke-width:2; stroke-opacity:0.1; fill:none" points="812.918,1477.81 812.918,47.2441 "/>
<polyline clip-path="url(#clip252)" style="stroke:#000000; stroke-linecap:round; stroke-linejoin:round; stroke-width:2; stroke-opacity:0.1; fill:none" points="1286.71,1477.81 1286.71,47.2441 "/>
<polyline clip-path="url(#clip252)" style="stroke:#000000; stroke-linecap:round; stroke-linejoin:round; stroke-width:2; stroke-opacity:0.1; fill:none" points="1760.51,1477.81 1760.51,47.2441 "/>
<polyline clip-path="url(#clip252)" style="stroke:#000000; stroke-linecap:round; stroke-linejoin:round; stroke-width:2; stroke-opacity:0.1; fill:none" points="2234.31,1477.81 2234.31,47.2441 "/>
<polyline clip-path="url(#clip250)" style="stroke:#000000; stroke-linecap:round; stroke-linejoin:round; stroke-width:4; stroke-opacity:1; fill:none" points="220.672,1477.81 2352.76,1477.81 "/>
<polyline clip-path="url(#clip250)" style="stroke:#000000; stroke-linecap:round; stroke-linejoin:round; stroke-width:4; stroke-opacity:1; fill:none" points="339.121,1477.81 339.121,1458.91 "/>
<polyline clip-path="url(#clip250)" style="stroke:#000000; stroke-linecap:round; stroke-linejoin:round; stroke-width:4; stroke-opacity:1; fill:none" points="812.918,1477.81 812.918,1458.91 "/>
<polyline clip-path="url(#clip250)" style="stroke:#000000; stroke-linecap:round; stroke-linejoin:round; stroke-width:4; stroke-opacity:1; fill:none" points="1286.71,1477.81 1286.71,1458.91 "/>
<polyline clip-path="url(#clip250)" style="stroke:#000000; stroke-linecap:round; stroke-linejoin:round; stroke-width:4; stroke-opacity:1; fill:none" points="1760.51,1477.81 1760.51,1458.91 "/>
<polyline clip-path="url(#clip250)" style="stroke:#000000; stroke-linecap:round; stroke-linejoin:round; stroke-width:4; stroke-opacity:1; fill:none" points="2234.31,1477.81 2234.31,1458.91 "/>
<path clip-path="url(#clip250)" d="M300.247 1529.97 L337.342 1529.97 L337.342 1534.89 L300.247 1534.89 L300.247 1529.97 Z" fill="#000000" fill-rule="nonzero" fill-opacity="1" /><path clip-path="url(#clip250)" d="M366.016 1512.9 L351.259 1535.96 L366.016 1535.96 L366.016 1512.9 M364.483 1507.81 L371.832 1507.81 L371.832 1535.96 L377.995 1535.96 L377.995 1540.82 L371.832 1540.82 L371.832 1551.01 L366.016 1551.01 L366.016 1540.82 L346.514 1540.82 L346.514 1535.18 L364.483 1507.81 Z" fill="#000000" fill-rule="nonzero" fill-opacity="1" /><path clip-path="url(#clip250)" d="M775.345 1529.97 L812.44 1529.97 L812.44 1534.89 L775.345 1534.89 L775.345 1529.97 Z" fill="#000000" fill-rule="nonzero" fill-opacity="1" /><path clip-path="url(#clip250)" d="M830.09 1546.09 L850.49 1546.09 L850.49 1551.01 L823.059 1551.01 L823.059 1546.09 Q826.387 1542.65 832.116 1536.86 Q837.874 1531.04 839.35 1529.36 Q842.156 1526.21 843.256 1524.04 Q844.384 1521.84 844.384 1519.73 Q844.384 1516.29 841.954 1514.12 Q839.552 1511.95 835.675 1511.95 Q832.926 1511.95 829.859 1512.9 Q826.821 1513.86 823.349 1515.79 L823.349 1509.89 Q826.879 1508.47 829.946 1507.75 Q833.013 1507.03 835.559 1507.03 Q842.272 1507.03 846.265 1510.38 Q850.258 1513.74 850.258 1519.35 Q850.258 1522.01 849.245 1524.42 Q848.262 1526.79 845.629 1530.03 Q844.905 1530.87 841.028 1534.89 Q837.151 1538.88 830.09 1546.09 Z" fill="#000000" fill-rule="nonzero" fill-opacity="1" /><path clip-path="url(#clip250)" d="M1286.71 1511.66 Q1282.2 1511.66 1279.91 1516.11 Q1277.66 1520.54 1277.66 1529.45 Q1277.66 1538.33 1279.91 1542.79 Q1282.2 1547.22 1286.71 1547.22 Q1291.26 1547.22 1293.51 1542.79 Q1295.8 1538.33 1295.8 1529.45 Q1295.8 1520.54 1293.51 1516.11 Q1291.26 1511.66 1286.71 1511.66 M1286.71 1507.03 Q1293.98 1507.03 1297.8 1512.78 Q1301.64 1518.51 1301.64 1529.45 Q1301.64 1540.36 1297.8 1546.12 Q1293.98 1551.85 1286.71 1551.85 Q1279.45 1551.85 1275.6 1546.12 Q1271.78 1540.36 1271.78 1529.45 Q1271.78 1518.51 1275.6 1512.78 Q1279.45 1507.03 1286.71 1507.03 Z" fill="#000000" fill-rule="nonzero" fill-opacity="1" /><path clip-path="url(#clip250)" d="M1753.83 1546.09 L1774.23 1546.09 L1774.23 1551.01 L1746.8 1551.01 L1746.8 1546.09 Q1750.12 1542.65 1755.85 1536.86 Q1761.61 1531.04 1763.09 1529.36 Q1765.89 1526.21 1766.99 1524.04 Q1768.12 1521.84 1768.12 1519.73 Q1768.12 1516.29 1765.69 1514.12 Q1763.29 1511.95 1759.41 1511.95 Q1756.66 1511.95 1753.59 1512.9 Q1750.56 1513.86 1747.08 1515.79 L1747.08 1509.89 Q1750.61 1508.47 1753.68 1507.75 Q1756.75 1507.03 1759.3 1507.03 Q1766.01 1507.03 1770 1510.38 Q1773.99 1513.74 1773.99 1519.35 Q1773.99 1522.01 1772.98 1524.42 Q1772 1526.79 1769.36 1530.03 Q1768.64 1530.87 1764.76 1534.89 Q1760.89 1538.88 1753.83 1546.09 Z" fill="#000000" fill-rule="nonzero" fill-opacity="1" /><path clip-path="url(#clip250)" d="M2238.07 1512.9 L2223.31 1535.96 L2238.07 1535.96 L2238.07 1512.9 M2236.53 1507.81 L2243.88 1507.81 L2243.88 1535.96 L2250.05 1535.96 L2250.05 1540.82 L2243.88 1540.82 L2243.88 1551.01 L2238.07 1551.01 L2238.07 1540.82 L2218.57 1540.82 L2218.57 1535.18 L2236.53 1507.81 Z" fill="#000000" fill-rule="nonzero" fill-opacity="1" /><polyline clip-path="url(#clip252)" style="stroke:#000000; stroke-linecap:round; stroke-linejoin:round; stroke-width:2; stroke-opacity:0.1; fill:none" points="220.672,1244.44 2352.76,1244.44 "/>
<polyline clip-path="url(#clip252)" style="stroke:#000000; stroke-linecap:round; stroke-linejoin:round; stroke-width:2; stroke-opacity:0.1; fill:none" points="220.672,998.165 2352.76,998.165 "/>
<polyline clip-path="url(#clip252)" style="stroke:#000000; stroke-linecap:round; stroke-linejoin:round; stroke-width:2; stroke-opacity:0.1; fill:none" points="220.672,751.892 2352.76,751.892 "/>
<polyline clip-path="url(#clip252)" style="stroke:#000000; stroke-linecap:round; stroke-linejoin:round; stroke-width:2; stroke-opacity:0.1; fill:none" points="220.672,505.62 2352.76,505.62 "/>
<polyline clip-path="url(#clip252)" style="stroke:#000000; stroke-linecap:round; stroke-linejoin:round; stroke-width:2; stroke-opacity:0.1; fill:none" points="220.672,259.347 2352.76,259.347 "/>
<polyline clip-path="url(#clip250)" style="stroke:#000000; stroke-linecap:round; stroke-linejoin:round; stroke-width:4; stroke-opacity:1; fill:none" points="220.672,1477.81 220.672,47.2441 "/>
<polyline clip-path="url(#clip250)" style="stroke:#000000; stroke-linecap:round; stroke-linejoin:round; stroke-width:4; stroke-opacity:1; fill:none" points="220.672,1244.44 239.57,1244.44 "/>
<polyline clip-path="url(#clip250)" style="stroke:#000000; stroke-linecap:round; stroke-linejoin:round; stroke-width:4; stroke-opacity:1; fill:none" points="220.672,998.165 239.57,998.165 "/>
<polyline clip-path="url(#clip250)" style="stroke:#000000; stroke-linecap:round; stroke-linejoin:round; stroke-width:4; stroke-opacity:1; fill:none" points="220.672,751.892 239.57,751.892 "/>
<polyline clip-path="url(#clip250)" style="stroke:#000000; stroke-linecap:round; stroke-linejoin:round; stroke-width:4; stroke-opacity:1; fill:none" points="220.672,505.62 239.57,505.62 "/>
<polyline clip-path="url(#clip250)" style="stroke:#000000; stroke-linecap:round; stroke-linejoin:round; stroke-width:4; stroke-opacity:1; fill:none" points="220.672,259.347 239.57,259.347 "/>
<path clip-path="url(#clip250)" d="M50.9921 1245 L88.0868 1245 L88.0868 1249.92 L50.9921 1249.92 L50.9921 1245 Z" fill="#000000" fill-rule="nonzero" fill-opacity="1" /><path clip-path="url(#clip250)" d="M101.715 1261.12 L111.264 1261.12 L111.264 1228.16 L100.876 1230.24 L100.876 1224.92 L111.206 1222.84 L117.051 1222.84 L117.051 1261.12 L126.599 1261.12 L126.599 1266.04 L101.715 1266.04 L101.715 1261.12 Z" fill="#000000" fill-rule="nonzero" fill-opacity="1" /><path clip-path="url(#clip250)" d="M138.405 1258.69 L144.51 1258.69 L144.51 1266.04 L138.405 1266.04 L138.405 1258.69 Z" fill="#000000" fill-rule="nonzero" fill-opacity="1" /><path clip-path="url(#clip250)" d="M169.741 1226.69 Q165.228 1226.69 162.942 1231.14 Q160.685 1235.57 160.685 1244.48 Q160.685 1253.36 162.942 1257.82 Q165.228 1262.25 169.741 1262.25 Q174.284 1262.25 176.541 1257.82 Q178.827 1253.36 178.827 1244.48 Q178.827 1235.57 176.541 1231.14 Q174.284 1226.69 169.741 1226.69 M169.741 1222.06 Q177.004 1222.06 180.824 1227.81 Q184.672 1233.54 184.672 1244.48 Q184.672 1255.39 180.824 1261.15 Q177.004 1266.88 169.741 1266.88 Q162.479 1266.88 158.63 1261.15 Q154.811 1255.39 154.811 1244.48 Q154.811 1233.54 158.63 1227.81 Q162.479 1222.06 169.741 1222.06 Z" fill="#000000" fill-rule="nonzero" fill-opacity="1" /><path clip-path="url(#clip250)" d="M52.2363 998.729 L89.331 998.729 L89.331 1003.65 L52.2363 1003.65 L52.2363 998.729 Z" fill="#000000" fill-rule="nonzero" fill-opacity="1" /><path clip-path="url(#clip250)" d="M114.447 980.413 Q109.933 980.413 107.647 984.869 Q105.39 989.296 105.39 998.208 Q105.39 1007.09 107.647 1011.55 Q109.933 1015.97 114.447 1015.97 Q118.989 1015.97 121.246 1011.55 Q123.532 1007.09 123.532 998.208 Q123.532 989.296 121.246 984.869 Q118.989 980.413 114.447 980.413 M114.447 975.784 Q121.709 975.784 125.529 981.542 Q129.377 987.271 129.377 998.208 Q129.377 1009.12 125.529 1014.87 Q121.709 1020.6 114.447 1020.6 Q107.184 1020.6 103.336 1014.87 Q99.5162 1009.12 99.5162 998.208 Q99.5162 987.271 103.336 981.542 Q107.184 975.784 114.447 975.784 Z" fill="#000000" fill-rule="nonzero" fill-opacity="1" /><path clip-path="url(#clip250)" d="M139.649 1012.42 L145.754 1012.42 L145.754 1019.76 L139.649 1019.76 L139.649 1012.42 Z" fill="#000000" fill-rule="nonzero" fill-opacity="1" /><path clip-path="url(#clip250)" d="M158.544 976.565 L181.489 976.565 L181.489 981.484 L163.897 981.484 L163.897 992.074 Q165.17 991.64 166.443 991.438 Q167.716 991.206 168.989 991.206 Q176.223 991.206 180.447 995.17 Q184.672 999.134 184.672 1005.91 Q184.672 1012.88 180.332 1016.76 Q175.991 1020.6 168.092 1020.6 Q165.372 1020.6 162.537 1020.14 Q159.73 1019.68 156.721 1018.75 L156.721 1012.88 Q159.325 1014.3 162.103 1014.99 Q164.88 1015.69 167.976 1015.69 Q172.982 1015.69 175.905 1013.05 Q178.827 1010.42 178.827 1005.91 Q178.827 1001.39 175.905 998.758 Q172.982 996.125 167.976 996.125 Q165.633 996.125 163.289 996.646 Q160.974 997.167 158.544 998.266 L158.544 976.565 Z" fill="#000000" fill-rule="nonzero" fill-opacity="1" /><path clip-path="url(#clip250)" d="M113.202 734.141 Q108.689 734.141 106.403 738.597 Q104.146 743.024 104.146 751.936 Q104.146 760.819 106.403 765.275 Q108.689 769.702 113.202 769.702 Q117.745 769.702 120.002 765.275 Q122.288 760.819 122.288 751.936 Q122.288 743.024 120.002 738.597 Q117.745 734.141 113.202 734.141 M113.202 729.511 Q120.465 729.511 124.285 735.269 Q128.133 740.998 128.133 751.936 Q128.133 762.844 124.285 768.602 Q120.465 774.331 113.202 774.331 Q105.94 774.331 102.091 768.602 Q98.272 762.844 98.272 751.936 Q98.272 740.998 102.091 735.269 Q105.94 729.511 113.202 729.511 Z" fill="#000000" fill-rule="nonzero" fill-opacity="1" /><path clip-path="url(#clip250)" d="M138.405 766.143 L144.51 766.143 L144.51 773.492 L138.405 773.492 L138.405 766.143 Z" fill="#000000" fill-rule="nonzero" fill-opacity="1" /><path clip-path="url(#clip250)" d="M169.741 734.141 Q165.228 734.141 162.942 738.597 Q160.685 743.024 160.685 751.936 Q160.685 760.819 162.942 765.275 Q165.228 769.702 169.741 769.702 Q174.284 769.702 176.541 765.275 Q178.827 760.819 178.827 751.936 Q178.827 743.024 176.541 738.597 Q174.284 734.141 169.741 734.141 M169.741 729.511 Q177.004 729.511 180.824 735.269 Q184.672 740.998 184.672 751.936 Q184.672 762.844 180.824 768.602 Q177.004 774.331 169.741 774.331 Q162.479 774.331 158.63 768.602 Q154.811 762.844 154.811 751.936 Q154.811 740.998 158.63 735.269 Q162.479 729.511 169.741 729.511 Z" fill="#000000" fill-rule="nonzero" fill-opacity="1" /><path clip-path="url(#clip250)" d="M114.447 487.868 Q109.933 487.868 107.647 492.324 Q105.39 496.751 105.39 505.663 Q105.39 514.546 107.647 519.002 Q109.933 523.429 114.447 523.429 Q118.989 523.429 121.246 519.002 Q123.532 514.546 123.532 505.663 Q123.532 496.751 121.246 492.324 Q118.989 487.868 114.447 487.868 M114.447 483.239 Q121.709 483.239 125.529 488.997 Q129.377 494.726 129.377 505.663 Q129.377 516.572 125.529 522.33 Q121.709 528.059 114.447 528.059 Q107.184 528.059 103.336 522.33 Q99.5162 516.572 99.5162 505.663 Q99.5162 494.726 103.336 488.997 Q107.184 483.239 114.447 483.239 Z" fill="#000000" fill-rule="nonzero" fill-opacity="1" /><path clip-path="url(#clip250)" d="M139.649 519.87 L145.754 519.87 L145.754 527.22 L139.649 527.22 L139.649 519.87 Z" fill="#000000" fill-rule="nonzero" fill-opacity="1" /><path clip-path="url(#clip250)" d="M158.544 484.02 L181.489 484.02 L181.489 488.939 L163.897 488.939 L163.897 499.529 Q165.17 499.095 166.443 498.892 Q167.716 498.661 168.989 498.661 Q176.223 498.661 180.447 502.625 Q184.672 506.589 184.672 513.36 Q184.672 520.333 180.332 524.211 Q175.991 528.059 168.092 528.059 Q165.372 528.059 162.537 527.596 Q159.73 527.133 156.721 526.207 L156.721 520.333 Q159.325 521.751 162.103 522.445 Q164.88 523.14 167.976 523.14 Q172.982 523.14 175.905 520.507 Q178.827 517.874 178.827 513.36 Q178.827 508.846 175.905 506.213 Q172.982 503.58 167.976 503.58 Q165.633 503.58 163.289 504.101 Q160.974 504.621 158.544 505.721 L158.544 484.02 Z" fill="#000000" fill-rule="nonzero" fill-opacity="1" /><path clip-path="url(#clip250)" d="M101.715 276.028 L111.264 276.028 L111.264 243.071 L100.876 245.155 L100.876 239.831 L111.206 237.747 L117.051 237.747 L117.051 276.028 L126.599 276.028 L126.599 280.947 L101.715 280.947 L101.715 276.028 Z" fill="#000000" fill-rule="nonzero" fill-opacity="1" /><path clip-path="url(#clip250)" d="M138.405 273.598 L144.51 273.598 L144.51 280.947 L138.405 280.947 L138.405 273.598 Z" fill="#000000" fill-rule="nonzero" fill-opacity="1" /><path clip-path="url(#clip250)" d="M169.741 241.596 Q165.228 241.596 162.942 246.052 Q160.685 250.479 160.685 259.391 Q160.685 268.274 162.942 272.73 Q165.228 277.157 169.741 277.157 Q174.284 277.157 176.541 272.73 Q178.827 268.274 178.827 259.391 Q178.827 250.479 176.541 246.052 Q174.284 241.596 169.741 241.596 M169.741 236.966 Q177.004 236.966 180.824 242.724 Q184.672 248.453 184.672 259.391 Q184.672 270.299 180.824 276.057 Q177.004 281.786 169.741 281.786 Q162.479 281.786 158.63 276.057 Q154.811 270.299 154.811 259.391 Q154.811 248.453 158.63 242.724 Q162.479 236.966 169.741 236.966 Z" fill="#000000" fill-rule="nonzero" fill-opacity="1" /><polyline clip-path="url(#clip252)" style="stroke:#009af9; stroke-linecap:round; stroke-linejoin:round; stroke-width:4; stroke-opacity:1; fill:none" points="339.121,1244.44 457.57,1244.44 694.468,1244.44 931.367,1244.44 931.367,751.892 1168.26,751.892 1405.16,751.892 1642.06,751.892 1642.06,259.347 1878.96,259.347 2115.86,259.347 2234.31,259.347 "/>
<circle clip-path="url(#clip252)" cx="339.121" cy="1437.32" r="14.4" fill="#e26f46" fill-rule="evenodd" fill-opacity="1" stroke="#000000" stroke-opacity="1" stroke-width="3.2"/>
<circle clip-path="url(#clip252)" cx="1049.82" cy="1050.85" r="14.4" fill="#e26f46" fill-rule="evenodd" fill-opacity="1" stroke="#000000" stroke-opacity="1" stroke-width="3.2"/>
<circle clip-path="url(#clip252)" cx="1760.51" cy="281.574" r="14.4" fill="#e26f46" fill-rule="evenodd" fill-opacity="1" stroke="#000000" stroke-opacity="1" stroke-width="3.2"/>
<circle clip-path="url(#clip252)" cx="576.019" cy="1340.4" r="14.4" fill="#e26f46" fill-rule="evenodd" fill-opacity="1" stroke="#000000" stroke-opacity="1" stroke-width="3.2"/>
<circle clip-path="url(#clip252)" cx="1286.71" cy="762.526" r="14.4" fill="#e26f46" fill-rule="evenodd" fill-opacity="1" stroke="#000000" stroke-opacity="1" stroke-width="3.2"/>
<circle clip-path="url(#clip252)" cx="1997.41" cy="184.653" r="14.4" fill="#e26f46" fill-rule="evenodd" fill-opacity="1" stroke="#000000" stroke-opacity="1" stroke-width="3.2"/>
<circle clip-path="url(#clip252)" cx="812.918" cy="1243.48" r="14.4" fill="#e26f46" fill-rule="evenodd" fill-opacity="1" stroke="#000000" stroke-opacity="1" stroke-width="3.2"/>
<circle clip-path="url(#clip252)" cx="1523.61" cy="474.199" r="14.4" fill="#e26f46" fill-rule="evenodd" fill-opacity="1" stroke="#000000" stroke-opacity="1" stroke-width="3.2"/>
<circle clip-path="url(#clip252)" cx="2234.31" cy="87.7317" r="14.4" fill="#e26f46" fill-rule="evenodd" fill-opacity="1" stroke="#000000" stroke-opacity="1" stroke-width="3.2"/>
<path clip-path="url(#clip250)" d="M291.741 289.33 L644.272 289.33 L644.272 94.9296 L291.741 94.9296  Z" fill="#ffffff" fill-rule="evenodd" fill-opacity="1"/>
<polyline clip-path="url(#clip250)" style="stroke:#000000; stroke-linecap:round; stroke-linejoin:round; stroke-width:4; stroke-opacity:1; fill:none" points="291.741,289.33 644.272,289.33 644.272,94.9296 291.741,94.9296 291.741,289.33 "/>
<polyline clip-path="url(#clip250)" style="stroke:#009af9; stroke-linecap:round; stroke-linejoin:round; stroke-width:5; stroke-opacity:1; fill:none" points="315.431,159.73 457.57,159.73 "/>
<path clip-path="url(#clip250)" d="M490.519 139.721 L490.519 148.922 L501.486 148.922 L501.486 153.06 L490.519 153.06 L490.519 170.653 Q490.519 174.617 491.59 175.745 Q492.689 176.874 496.017 176.874 L501.486 176.874 L501.486 181.33 L496.017 181.33 Q489.854 181.33 487.51 179.044 Q485.166 176.729 485.166 170.653 L485.166 153.06 L481.26 153.06 L481.26 148.922 L485.166 148.922 L485.166 139.721 L490.519 139.721 Z" fill="#000000" fill-rule="nonzero" fill-opacity="1" /><path clip-path="url(#clip250)" d="M527.267 153.899 Q526.37 153.378 525.299 153.147 Q524.257 152.886 522.984 152.886 Q518.47 152.886 516.04 155.838 Q513.638 158.76 513.638 164.258 L513.638 181.33 L508.285 181.33 L508.285 148.922 L513.638 148.922 L513.638 153.957 Q515.317 151.006 518.007 149.588 Q520.698 148.141 524.547 148.141 Q525.097 148.141 525.762 148.228 Q526.428 148.286 527.238 148.43 L527.267 153.899 Z" fill="#000000" fill-rule="nonzero" fill-opacity="1" /><path clip-path="url(#clip250)" d="M532.301 168.54 L532.301 148.922 L537.625 148.922 L537.625 168.338 Q537.625 172.938 539.419 175.253 Q541.213 177.539 544.801 177.539 Q549.113 177.539 551.601 174.79 Q554.118 172.041 554.118 167.296 L554.118 148.922 L559.442 148.922 L559.442 181.33 L554.118 181.33 L554.118 176.353 Q552.18 179.304 549.605 180.751 Q547.058 182.169 543.673 182.169 Q538.088 182.169 535.195 178.696 Q532.301 175.224 532.301 168.54 M545.698 148.141 L545.698 148.141 Z" fill="#000000" fill-rule="nonzero" fill-opacity="1" /><path clip-path="url(#clip250)" d="M575.675 139.721 L575.675 148.922 L586.641 148.922 L586.641 153.06 L575.675 153.06 L575.675 170.653 Q575.675 174.617 576.746 175.745 Q577.845 176.874 581.173 176.874 L586.641 176.874 L586.641 181.33 L581.173 181.33 Q575.01 181.33 572.666 179.044 Q570.322 176.729 570.322 170.653 L570.322 153.06 L566.416 153.06 L566.416 148.922 L570.322 148.922 L570.322 139.721 L575.675 139.721 Z" fill="#000000" fill-rule="nonzero" fill-opacity="1" /><path clip-path="url(#clip250)" d="M620.582 161.769 L620.582 181.33 L615.258 181.33 L615.258 161.943 Q615.258 157.342 613.464 155.057 Q611.67 152.771 608.082 152.771 Q603.771 152.771 601.283 155.52 Q598.794 158.268 598.794 163.014 L598.794 181.33 L593.441 181.33 L593.441 136.307 L598.794 136.307 L598.794 153.957 Q600.704 151.035 603.279 149.588 Q605.883 148.141 609.269 148.141 Q614.853 148.141 617.718 151.613 Q620.582 155.057 620.582 161.769 Z" fill="#000000" fill-rule="nonzero" fill-opacity="1" /><circle clip-path="url(#clip250)" cx="386.501" cy="224.53" r="25.6" fill="#e26f46" fill-rule="evenodd" fill-opacity="1" stroke="#000000" stroke-opacity="1" stroke-width="5.68889"/>
<path clip-path="url(#clip250)" d="M498.563 249.139 Q496.306 254.926 494.165 256.691 Q492.024 258.456 488.436 258.456 L484.182 258.456 L484.182 254 L487.307 254 Q489.506 254 490.722 252.958 Q491.937 251.917 493.413 248.039 L494.368 245.609 L481.26 213.722 L486.902 213.722 L497.03 239.069 L507.157 213.722 L512.799 213.722 L498.563 249.139 Z" fill="#000000" fill-rule="nonzero" fill-opacity="1" /><path clip-path="url(#clip250)" d="M547.087 226.569 L547.087 246.13 L541.763 246.13 L541.763 226.743 Q541.763 222.142 539.969 219.857 Q538.175 217.571 534.587 217.571 Q530.276 217.571 527.788 220.32 Q525.299 223.068 525.299 227.814 L525.299 246.13 L519.946 246.13 L519.946 201.107 L525.299 201.107 L525.299 218.757 Q527.209 215.835 529.784 214.388 Q532.388 212.941 535.774 212.941 Q541.358 212.941 544.223 216.413 Q547.087 219.857 547.087 226.569 Z" fill="#000000" fill-rule="nonzero" fill-opacity="1" /><path clip-path="url(#clip250)" d="M572.434 229.839 Q565.982 229.839 563.493 231.315 Q561.005 232.791 561.005 236.35 Q561.005 239.185 562.857 240.863 Q564.738 242.513 567.949 242.513 Q572.376 242.513 575.038 239.388 Q577.729 236.234 577.729 231.025 L577.729 229.839 L572.434 229.839 M583.053 227.64 L583.053 246.13 L577.729 246.13 L577.729 241.211 Q575.906 244.162 573.187 245.58 Q570.467 246.969 566.532 246.969 Q561.555 246.969 558.603 244.191 Q555.681 241.384 555.681 236.697 Q555.681 231.228 559.327 228.45 Q563.001 225.672 570.264 225.672 L577.729 225.672 L577.729 225.152 Q577.729 221.477 575.299 219.48 Q572.897 217.455 568.528 217.455 Q565.75 217.455 563.117 218.12 Q560.484 218.786 558.054 220.117 L558.054 215.198 Q560.976 214.07 563.725 213.52 Q566.474 212.941 569.078 212.941 Q576.109 212.941 579.581 216.587 Q583.053 220.233 583.053 227.64 Z" fill="#000000" fill-rule="nonzero" fill-opacity="1" /><path clip-path="url(#clip250)" d="M599.286 204.521 L599.286 213.722 L610.252 213.722 L610.252 217.86 L599.286 217.86 L599.286 235.453 Q599.286 239.417 600.357 240.545 Q601.456 241.674 604.784 241.674 L610.252 241.674 L610.252 246.13 L604.784 246.13 Q598.62 246.13 596.277 243.844 Q593.933 241.529 593.933 235.453 L593.933 217.86 L590.027 217.86 L590.027 213.722 L593.933 213.722 L593.933 204.521 L599.286 204.521 Z" fill="#000000" fill-rule="nonzero" fill-opacity="1" /></svg>
