<?xml version="1.0" encoding="utf-8" standalone="no"?>
<!DOCTYPE svg PUBLIC "-//W3C//DTD SVG 1.1//EN"
  "http://www.w3.org/Graphics/SVG/1.1/DTD/svg11.dtd">
<!-- Created with matplotlib (https://matplotlib.org/) -->
<svg height="432pt" version="1.1" viewBox="0 0 576 432" width="576pt" xmlns="http://www.w3.org/2000/svg" xmlns:xlink="http://www.w3.org/1999/xlink">
 <metadata>
  <rdf:RDF xmlns:cc="http://creativecommons.org/ns#" xmlns:dc="http://purl.org/dc/elements/1.1/" xmlns:rdf="http://www.w3.org/1999/02/22-rdf-syntax-ns#">
   <cc:Work>
    <dc:type rdf:resource="http://purl.org/dc/dcmitype/StillImage"/>
    <dc:date>2021-04-20T12:38:05.992054</dc:date>
    <dc:format>image/svg+xml</dc:format>
    <dc:creator>
     <cc:Agent>
      <dc:title>Matplotlib v3.3.4, https://matplotlib.org/</dc:title>
     </cc:Agent>
    </dc:creator>
   </cc:Work>
  </rdf:RDF>
 </metadata>
 <defs>
  <style type="text/css">*{stroke-linecap:butt;stroke-linejoin:round;}</style>
 </defs>
 <g id="figure_1">
  <g id="patch_1">
   <path d="M 0 432 
L 576 432 
L 576 0 
L 0 0 
z
" style="fill:#ffffff;"/>
  </g>
  <g id="axes_1">
   <g id="patch_2">
    <path d="M 72 384.48 
L 518.4 384.48 
L 518.4 51.84 
L 72 51.84 
z
" style="fill:#ffffff;"/>
   </g>
   <g id="PathCollection_1">
    <path clip-path="url(#pdd18840c3c)" d="M 72 357.935224 
L 117.903127 381.870221 
L 92.540768 349.465263 
L 100.403252 334.501583 
L 98.153133 314.450526 
L 80.786436 308.24781 
L 73.129518 279.435789 
L 72 277.516265 
L 72 279.435789 
L 72 314.450526 
L 72 349.465263 
M 335.906089 384.48 
L 320 361.753393 
L 310.077742 356.469805 
L 313.830103 349.465263 
L 280.899046 342.053543 
L 274.447438 314.450526 
L 320 285.621079 
L 360.965394 285.531323 
L 369.6 292.315525 
L 383.163692 289.010973 
L 379.575216 279.435789 
L 381.405287 271.101938 
L 369.6 269.510273 
L 328.173813 244.421053 
L 331.680448 204.26753 
L 336.971271 191.898947 
L 320 188.141543 
L 306.175601 182.13972 
L 313.150711 191.898947 
L 303.063305 209.833441 
L 307.633306 244.421053 
L 299.961561 265.289808 
L 270.4 270.945061 
L 245.203268 262.208491 
L 220.8 269.352102 
L 198.639411 263.791693 
L 191.060978 279.435789 
L 171.2 298.812519 
L 166.036965 310.805722 
L 152.561436 314.450526 
L 150.383856 329.145522 
L 144.704397 349.465263 
L 123.945775 382.824019 
L 171.2 377.61999 
L 209.638393 384.48 
L 220.8 384.48 
L 270.4 384.48 
L 320 384.48 
M 518.4 339.975587 
L 469.992521 314.450526 
L 518.4 282.757297 
L 518.4 279.435789 
L 518.4 277.751271 
L 507.07867 271.443584 
L 513.125487 279.435789 
L 468.8 313.497766 
L 468.163116 314.000923 
L 467.853784 314.450526 
L 466.346869 316.182295 
L 446.439617 349.465263 
L 468.8 363.021625 
L 499.716524 362.654718 
L 510.056366 384.48 
L 518.4 384.48 
L 518.4 349.465263 
M 518.4 115.938876 
L 513.201506 121.869474 
L 512.924096 153.018538 
L 468.8 151.862303 
L 424.732154 152.978829 
L 419.2 148.114252 
L 414.330756 153.446805 
L 403.711671 156.884211 
L 403.80763 167.750335 
L 419.2 163.504658 
L 464.717349 191.898947 
L 468.8 205.477019 
L 476.049548 191.898947 
L 518.4 167.581428 
L 518.4 156.884211 
L 518.4 121.869474 
M 413.316026 51.84 
L 417.817644 85.878874 
L 413.851941 86.854737 
L 418.318443 87.477065 
L 419.2 88.697332 
L 420.21388 87.570477 
L 420.458453 86.854737 
L 420.259359 86.106891 
L 423.8097 51.84 
L 419.2 51.84 
M 72 52.661406 
L 80.299763 57.699154 
L 72.467925 51.84 
L 72 51.84 
M 280.177856 121.869474 
L 320 88.960425 
L 322.721838 88.776197 
L 333.859766 86.854737 
L 324.178407 83.905022 
L 320 85.353811 
L 309.3401 79.329463 
L 317.431873 86.854737 
L 270.4 115.803569 
L 258.965949 113.797694 
L 260.759393 121.869474 
L 238.892926 144.111649 
L 270.4 136.094492 
M 369.6 364.281861 
L 386.648889 349.465263 
L 369.6 341.330363 
L 364.699644 346.005895 
L 332.803584 349.465263 
" style="fill:#481769;"/>
   </g>
   <g id="PathCollection_2">
    <path clip-path="url(#pdd18840c3c)" d="M 72 219.557453 
L 82.325907 202.833189 
L 80.47126 191.898947 
L 72 184.130085 
L 72 191.898947 
M 72 277.516265 
L 73.129518 279.435789 
L 80.786436 308.24781 
L 98.153133 314.450526 
L 100.403252 334.501583 
L 92.540768 349.465263 
L 117.903127 381.870221 
L 72 357.935224 
L 72 376.548517 
L 87.211194 384.48 
L 121.6 384.48 
L 171.2 384.48 
L 209.638393 384.48 
L 171.2 377.61999 
L 123.945775 382.824019 
L 144.704397 349.465263 
L 150.383856 329.145522 
L 152.561436 314.450526 
L 166.036965 310.805722 
L 171.2 298.812519 
L 191.060978 279.435789 
L 198.639411 263.791693 
L 220.8 269.352102 
L 245.203268 262.208491 
L 270.4 270.945061 
L 299.961561 265.289808 
L 307.633306 244.421053 
L 303.063305 209.833441 
L 313.150711 191.898947 
L 306.175601 182.13972 
L 320 188.141543 
L 336.971271 191.898947 
L 331.680448 204.26753 
L 328.173813 244.421053 
L 369.6 269.510273 
L 381.405287 271.101938 
L 379.575216 279.435789 
L 383.163692 289.010973 
L 369.6 292.315525 
L 360.965394 285.531323 
L 320 285.621079 
L 274.447438 314.450526 
L 280.899046 342.053543 
L 313.830103 349.465263 
L 310.077742 356.469805 
L 320 361.753393 
L 335.906089 384.48 
L 369.6 384.48 
L 407.024476 384.48 
L 419.2 373.462351 
L 441.337567 384.48 
L 468.8 384.48 
L 510.056366 384.48 
L 499.716524 362.654718 
L 468.8 363.021625 
L 446.439617 349.465263 
L 466.346869 316.182295 
L 467.853784 314.450526 
L 468.163116 314.000923 
L 468.8 313.497766 
L 513.125487 279.435789 
L 507.07867 271.443584 
L 518.4 277.751271 
L 518.4 264.848341 
L 481.73615 244.421053 
L 518.4 195.046829 
L 518.4 191.898947 
L 518.4 167.581428 
L 476.049548 191.898947 
L 468.8 205.477019 
L 464.717349 191.898947 
L 419.2 163.504658 
L 403.80763 167.750335 
L 403.711671 156.884211 
L 414.330756 153.446805 
L 419.2 148.114252 
L 424.732154 152.978829 
L 468.8 151.862303 
L 512.924096 153.018538 
L 513.201506 121.869474 
L 518.4 115.938876 
L 518.4 100.044049 
L 499.268816 121.869474 
L 499.078454 143.244315 
L 468.8 142.450893 
L 438.560145 143.217066 
L 419.2 126.193153 
L 402.159754 144.854781 
L 369.6 155.394395 
L 367.611911 156.884211 
L 367.740473 190.586229 
L 320 180.016587 
L 276.281922 161.036508 
L 298.339907 191.898947 
L 270.4 241.57357 
L 266.087588 244.421053 
L 220.8 257.678167 
L 172.983986 245.680444 
L 171.2 249.363111 
L 165.081418 279.435789 
L 154.947053 302.976884 
L 121.6 311.996455 
L 90.972074 301.057337 
L 85.226055 279.435789 
L 72 256.959173 
M 518.4 319.485301 
L 508.851707 314.450526 
L 518.4 308.199091 
L 518.4 282.757297 
L 469.992521 314.450526 
L 518.4 339.975587 
M 423.8097 51.84 
L 420.259359 86.106891 
L 420.458453 86.854737 
L 420.21388 87.570477 
L 419.2 88.697332 
L 418.318443 87.477065 
L 413.851941 86.854737 
L 417.817644 85.878874 
L 413.316026 51.84 
L 394.470098 51.84 
L 397.031074 71.204755 
L 369.6 77.954875 
L 343.759603 70.081828 
L 320 78.320048 
L 273.144363 51.84 
L 270.4 51.84 
L 264.75561 51.84 
L 264.802277 55.79167 
L 270.4 54.307939 
L 305.396904 86.854737 
L 270.4 108.395863 
L 245.002642 103.940405 
L 248.986246 121.869474 
L 220.8 150.540014 
L 216.705441 153.993688 
L 175.364915 156.884211 
L 192.431241 176.910917 
L 216.786576 191.898947 
L 220.8 193.465197 
L 221.701097 191.898947 
L 231.675024 164.56135 
L 256.967136 156.884211 
L 270.4 153.466141 
L 292.118611 121.869474 
L 320 98.828274 
L 335.477137 97.780702 
L 369.6 91.893995 
L 405.062413 96.835057 
L 419.2 116.40455 
L 435.459654 98.333114 
L 439.381894 86.854737 
L 436.189001 74.861483 
L 438.574223 51.84 
M 72.467925 51.84 
L 80.299763 57.699154 
L 72 52.661406 
L 72 65.525801 
L 107.139736 86.854737 
L 115.956836 90.838485 
L 121.6 118.114192 
L 127.9889 86.854737 
L 121.6 83.11418 
L 79.796297 51.84 
M 270.4 136.094492 
L 238.892926 144.111649 
L 260.759393 121.869474 
L 258.965949 113.797694 
L 270.4 115.803569 
L 317.431873 86.854737 
L 309.3401 79.329463 
L 320 85.353811 
L 324.178407 83.905022 
L 333.859766 86.854737 
L 322.721838 88.776197 
L 320 88.960425 
L 280.177856 121.869474 
M 332.803584 349.465263 
L 364.699644 346.005895 
L 369.6 341.330363 
L 386.648889 349.465263 
L 369.6 364.281861 
M 121.41817 156.884211 
L 121.6 156.977027 
L 129.176232 156.884211 
L 121.673647 156.83222 
L 121.6 153.505002 
M 468.8 282.45137 
L 447.409779 299.350265 
L 437.020646 314.450526 
L 419.2 334.930268 
L 371.98556 316.134594 
L 369.6 314.996321 
L 348.836366 334.807336 
L 320 337.934858 
L 294.775427 332.257619 
L 290.613404 314.450526 
L 320 295.852246 
L 346.427349 295.794343 
L 369.6 314.001076 
L 406.000815 305.132664 
L 396.37044 279.435789 
L 401.281793 257.070273 
L 369.6 252.798729 
L 355.767159 244.421053 
L 356.938079 231.013174 
L 369.6 201.412859 
L 376.253123 191.898947 
L 419.2 180.05291 
L 438.189741 191.898947 
L 447.060281 221.400573 
L 449.824213 244.421053 
L 454.353887 254.619174 
L 468.8 274.24905 
L 472.724232 279.435789 
" style="fill:#424086;"/>
   </g>
   <g id="PathCollection_3">
    <path clip-path="url(#pdd18840c3c)" d="M 72 184.130085 
L 80.47126 191.898947 
L 82.325907 202.833189 
L 72 219.557453 
L 72 244.421053 
L 72 256.959173 
L 85.226055 279.435789 
L 90.972074 301.057337 
L 121.6 311.996455 
L 154.947053 302.976884 
L 165.081418 279.435789 
L 171.2 249.363111 
L 172.983986 245.680444 
L 220.8 257.678167 
L 266.087588 244.421053 
L 270.4 241.57357 
L 298.339907 191.898947 
L 276.281922 161.036508 
L 320 180.016587 
L 367.740473 190.586229 
L 367.611911 156.884211 
L 369.6 155.394395 
L 402.159754 144.854781 
L 419.2 126.193153 
L 438.560145 143.217066 
L 468.8 142.450893 
L 499.078454 143.244315 
L 499.268816 121.869474 
L 518.4 100.044049 
L 518.4 86.854737 
L 518.4 51.84 
L 511.224963 51.84 
L 511.465079 81.959083 
L 506.751813 86.854737 
L 512.178815 91.246534 
L 485.336127 121.869474 
L 485.232813 133.470091 
L 468.8 133.039483 
L 452.388135 133.455303 
L 439.212356 121.869474 
L 450.705428 109.09575 
L 458.305336 86.854737 
L 452.118644 63.616074 
L 453.338746 51.84 
L 438.574223 51.84 
L 436.189001 74.861483 
L 439.381894 86.854737 
L 435.459654 98.333114 
L 419.2 116.40455 
L 405.062413 96.835057 
L 369.6 91.893995 
L 335.477137 97.780702 
L 320 98.828274 
L 292.118611 121.869474 
L 270.4 153.466141 
L 256.967136 156.884211 
L 231.675024 164.56135 
L 221.701097 191.898947 
L 220.8 193.465197 
L 216.786576 191.898947 
L 192.431241 176.910917 
L 175.364915 156.884211 
L 216.705441 153.993688 
L 220.8 150.540014 
L 248.986246 121.869474 
L 245.002642 103.940405 
L 270.4 108.395863 
L 305.396904 86.854737 
L 270.4 54.307939 
L 264.802277 55.79167 
L 264.75561 51.84 
L 239.157599 51.84 
L 239.415903 73.712984 
L 270.4 65.500349 
L 293.361935 86.854737 
L 270.4 100.988157 
L 231.039335 94.083116 
L 237.213099 121.869474 
L 220.8 138.564581 
L 208.976468 148.53748 
L 171.2 151.178804 
L 130.08556 150.893895 
L 129.443116 121.869474 
L 131.646117 114.777495 
L 137.353053 86.854737 
L 121.6 77.631679 
L 87.12467 51.84 
L 79.796297 51.84 
L 121.6 83.11418 
L 127.9889 86.854737 
L 121.6 118.114192 
L 115.956836 90.838485 
L 107.139736 86.854737 
L 72 65.525801 
L 72 78.390195 
L 85.945457 86.854737 
L 107.685702 96.677428 
L 112.89777 121.869474 
L 101.780782 135.860698 
L 100.649537 156.884211 
L 121.6 167.578477 
L 156.6595 167.148964 
L 160.869131 191.898947 
L 157.494152 206.412254 
L 152.820619 244.421053 
L 155.488678 255.512339 
L 150.621217 279.435789 
L 143.857141 295.148046 
L 121.6 301.168065 
L 101.157712 293.866865 
L 97.322591 279.435789 
L 80.07162 250.119151 
L 81.818192 244.421053 
L 97.545141 218.94904 
L 92.956951 191.898947 
L 72 172.679649 
M 87.211194 384.48 
L 72 376.548517 
L 72 384.48 
M 441.337567 384.48 
L 419.2 373.462351 
L 407.024476 384.48 
L 419.2 384.48 
M 518.4 308.199091 
L 508.851707 314.450526 
L 518.4 319.485301 
L 518.4 314.450526 
M 518.4 251.945412 
L 504.894929 244.421053 
L 518.4 226.234135 
L 518.4 195.046829 
L 481.73615 244.421053 
L 518.4 264.848341 
M 375.62417 51.84 
L 376.244503 56.530636 
L 369.6 58.165686 
L 363.340799 56.258634 
L 320 71.286286 
L 285.590391 51.84 
L 273.144363 51.84 
L 320 78.320048 
L 343.759603 70.081828 
L 369.6 77.954875 
L 397.031074 71.204755 
L 394.470098 51.84 
M 166.275935 51.84 
L 171.2 56.232723 
L 192.013087 51.84 
L 171.2 51.84 
M 121.6 153.505002 
L 121.673647 156.83222 
L 129.176232 156.884211 
L 121.6 156.977027 
L 121.41817 156.884211 
M 472.724232 279.435789 
L 468.8 274.24905 
L 454.353887 254.619174 
L 449.824213 244.421053 
L 447.060281 221.400573 
L 438.189741 191.898947 
L 419.2 180.05291 
L 376.253123 191.898947 
L 369.6 201.412859 
L 356.938079 231.013174 
L 355.767159 244.421053 
L 369.6 252.798729 
L 401.281793 257.070273 
L 396.37044 279.435789 
L 406.000815 305.132664 
L 369.6 314.001076 
L 346.427349 295.794343 
L 320 295.852246 
L 290.613404 314.450526 
L 294.775427 332.257619 
L 320 337.934858 
L 348.836366 334.807336 
L 369.6 314.996321 
L 371.98556 316.134594 
L 419.2 334.930268 
L 437.020646 314.450526 
L 447.409779 299.350265 
L 468.8 282.45137 
M 304.059367 121.869474 
L 320 108.696123 
L 348.232437 106.785208 
L 369.6 103.098981 
L 391.806382 106.19305 
L 403.131501 121.869474 
L 389.988753 136.262756 
L 369.6 142.862609 
L 350.888826 156.884211 
L 350.972233 178.748819 
L 320 171.891631 
L 285.432411 156.884211 
L 289.032656 143.730631 
M 247.516139 191.898947 
L 252.202938 179.052872 
L 270.4 173.529357 
L 283.529104 191.898947 
L 270.4 215.241304 
L 226.208294 244.421053 
L 220.8 246.004232 
L 214.490359 244.421053 
L 211.699414 234.78432 
L 220.8 238.335847 
M 419.2 295.537299 
L 413.165664 279.435789 
L 419.2 251.956386 
L 428.491917 272.876233 
L 433.319257 279.435789 
L 426.656442 284.699607 
M 306.779371 314.450526 
L 320 306.083413 
L 331.889305 306.057364 
L 342.571717 314.450526 
L 332.973088 323.608778 
L 320 325.015807 
L 308.651808 322.461695 
" style="fill:#33638d;"/>
   </g>
   <g id="PathCollection_4">
    <path clip-path="url(#pdd18840c3c)" d="M 72 172.679649 
L 92.956951 191.898947 
L 97.545141 218.94904 
L 81.818192 244.421053 
L 80.07162 250.119151 
L 97.322591 279.435789 
L 101.157712 293.866865 
L 121.6 301.168065 
L 143.857141 295.148046 
L 150.621217 279.435789 
L 155.488678 255.512339 
L 152.820619 244.421053 
L 157.494152 206.412254 
L 160.869131 191.898947 
L 156.6595 167.148964 
L 121.6 167.578477 
L 100.649537 156.884211 
L 101.780782 135.860698 
L 112.89777 121.869474 
L 107.685702 96.677428 
L 85.945457 86.854737 
L 72 78.390195 
L 72 86.854737 
L 72 90.129904 
L 99.414568 102.516371 
L 103.418597 121.869474 
L 80.192086 151.101071 
L 79.880904 156.884211 
L 121.6 178.179928 
L 141.376837 177.937642 
L 143.751463 191.898947 
L 134.784333 230.459986 
L 133.067691 244.421053 
L 138.6032 267.432512 
L 136.161015 279.435789 
L 132.767229 287.319209 
L 121.6 290.339674 
L 111.34335 286.676393 
L 109.419128 279.435789 
L 100.763679 264.72655 
L 106.987687 244.421053 
L 112.764375 235.064891 
L 105.442641 191.898947 
L 72 161.229214 
M 518.4 226.234135 
L 504.894929 244.421053 
L 518.4 251.945412 
L 518.4 244.421053 
M 470.711798 51.84 
L 470.722619 53.197258 
L 468.8 55.194275 
L 468.048287 52.370666 
L 468.103269 51.84 
L 453.338746 51.84 
L 452.118644 63.616074 
L 458.305336 86.854737 
L 450.705428 109.09575 
L 439.212356 121.869474 
L 452.388135 133.455303 
L 468.8 133.039483 
L 485.232813 133.470091 
L 485.336127 121.869474 
L 512.178815 91.246534 
L 506.751813 86.854737 
L 511.465079 81.959083 
L 511.224963 51.84 
M 355.798587 51.84 
L 320 64.252524 
L 298.036419 51.84 
L 285.590391 51.84 
L 320 71.286286 
L 363.340799 56.258634 
L 369.6 58.165686 
L 376.244503 56.530636 
L 375.62417 51.84 
L 369.6 51.84 
M 192.013087 51.84 
L 171.2 56.232723 
L 166.275935 51.84 
L 156.779234 51.84 
L 171.2 64.704661 
L 215.957895 55.258247 
L 216.208829 86.854737 
L 220.8 100.98637 
L 225.439952 121.869474 
L 220.8 126.589149 
L 201.247496 143.081271 
L 171.2 145.182187 
L 138.497474 144.95557 
L 137.986472 121.869474 
L 142.589161 107.052338 
L 146.717206 86.854737 
L 121.6 72.149178 
L 94.453042 51.84 
L 87.12467 51.84 
L 121.6 77.631679 
L 137.353053 86.854737 
L 131.646117 114.777495 
L 129.443116 121.869474 
L 130.08556 150.893895 
L 171.2 151.178804 
L 208.976468 148.53748 
L 220.8 138.564581 
L 237.213099 121.869474 
L 231.039335 94.083116 
L 270.4 100.988157 
L 293.361935 86.854737 
L 270.4 65.500349 
L 239.415903 73.712984 
L 239.157599 51.84 
L 220.8 51.84 
M 289.032656 143.730631 
L 285.432411 156.884211 
L 320 171.891631 
L 350.972233 178.748819 
L 350.888826 156.884211 
L 369.6 142.862609 
L 389.988753 136.262756 
L 403.131501 121.869474 
L 391.806382 106.19305 
L 369.6 103.098981 
L 348.232437 106.785208 
L 320 108.696123 
L 304.059367 121.869474 
M 220.8 238.335847 
L 211.699414 234.78432 
L 214.490359 244.421053 
L 220.8 246.004232 
L 226.208294 244.421053 
L 270.4 215.241304 
L 283.529104 191.898947 
L 270.4 173.529357 
L 252.202938 179.052872 
L 247.516139 191.898947 
M 426.656442 284.699607 
L 433.319257 279.435789 
L 428.491917 272.876233 
L 419.2 251.956386 
L 413.165664 279.435789 
L 419.2 295.537299 
M 308.651808 322.461695 
L 320 325.015807 
L 332.973088 323.608778 
L 342.571717 314.450526 
L 331.889305 306.057364 
L 320 306.083413 
L 306.779371 314.450526 
M 471.403438 121.869474 
L 471.387172 123.695868 
L 468.8 123.628073 
L 466.216126 123.693539 
L 464.14174 121.869474 
L 465.951202 119.858387 
L 468.8 111.521422 
L 475.629534 117.048217 
M 316.000123 121.869474 
L 320 118.563972 
L 360.987737 115.789713 
L 369.6 114.303968 
L 378.550352 115.551042 
L 383.114977 121.869474 
L 377.817751 127.670731 
L 369.6 130.330823 
L 334.165742 156.884211 
L 334.203992 166.911409 
L 320 163.766675 
L 304.147163 156.884211 
L 312.22957 127.354949 
M 232.061548 86.854737 
L 270.4 76.692758 
L 281.326967 86.854737 
L 270.4 93.580451 
" style="fill:#26828e;"/>
   </g>
   <g id="PathCollection_5">
    <path clip-path="url(#pdd18840c3c)" d="M 72 161.229214 
L 105.442641 191.898947 
L 112.764375 235.064891 
L 106.987687 244.421053 
L 100.763679 264.72655 
L 109.419128 279.435789 
L 111.34335 286.676393 
L 121.6 290.339674 
L 132.767229 287.319209 
L 136.161015 279.435789 
L 138.6032 267.432512 
L 133.067691 244.421053 
L 134.784333 230.459986 
L 143.751463 191.898947 
L 141.376837 177.937642 
L 121.6 178.179928 
L 79.880904 156.884211 
L 80.192086 151.101071 
L 103.418597 121.869474 
L 99.414568 102.516371 
L 72 90.129904 
L 72 99.705916 
L 91.143434 108.355315 
L 93.939424 121.869474 
L 72 149.481215 
L 72 156.884211 
M 468.103269 51.84 
L 468.048287 52.370666 
L 468.8 55.194275 
L 470.722619 53.197258 
L 470.711798 51.84 
L 468.8 51.84 
M 335.512724 51.84 
L 320 57.218761 
L 310.482446 51.84 
L 298.036419 51.84 
L 320 64.252524 
L 355.798587 51.84 
M 147.282534 51.84 
L 171.2 73.176598 
L 198.838942 67.343239 
L 198.9939 86.854737 
L 207.265567 112.314945 
L 212.197818 121.869474 
L 193.518523 137.625063 
L 171.2 139.18557 
L 146.909387 139.017244 
L 146.529828 121.869474 
L 153.532204 99.327181 
L 156.081359 86.854737 
L 121.6 66.666677 
L 101.781414 51.84 
L 94.453042 51.84 
L 121.6 72.149178 
L 146.717206 86.854737 
L 142.589161 107.052338 
L 137.986472 121.869474 
L 138.497474 144.95557 
L 171.2 145.182187 
L 201.247496 143.081271 
L 220.8 126.589149 
L 225.439952 121.869474 
L 220.8 100.98637 
L 216.208829 86.854737 
L 215.957895 55.258247 
L 171.2 64.704661 
L 156.779234 51.84 
M 475.629534 117.048217 
L 468.8 111.521422 
L 465.951202 119.858387 
L 464.14174 121.869474 
L 466.216126 123.693539 
L 468.8 123.628073 
L 471.387172 123.695868 
L 471.403438 121.869474 
M 312.22957 127.354949 
L 304.147163 156.884211 
L 320 163.766675 
L 334.203992 166.911409 
L 334.165742 156.884211 
L 369.6 130.330823 
L 377.817751 127.670731 
L 383.114977 121.869474 
L 378.550352 115.551042 
L 369.6 114.303968 
L 360.987737 115.789713 
L 320 118.563972 
L 316.000123 121.869474 
M 270.4 93.580451 
L 281.326967 86.854737 
L 270.4 76.692758 
L 232.061548 86.854737 
M 105.652324 180.640809 
L 121.6 188.781378 
L 126.094174 188.72632 
L 126.633794 191.898947 
L 121.6 213.545598 
L 117.928332 191.898947 
M 121.515665 279.435789 
L 121.455738 279.333949 
L 121.6 278.863303 
L 121.717723 279.352684 
L 121.700814 279.435789 
L 121.677317 279.490371 
L 121.6 279.511283 
L 121.528987 279.48592 
" style="fill:#1fa088;"/>
   </g>
   <g id="PathCollection_6">
    <path clip-path="url(#pdd18840c3c)" d="M 72 149.481215 
L 93.939424 121.869474 
L 91.143434 108.355315 
L 72 99.705916 
L 72 109.281929 
L 82.8723 114.194258 
L 84.460251 121.869474 
L 72 137.551254 
M 310.482446 51.84 
L 320 57.218761 
L 335.512724 51.84 
L 320 51.84 
M 137.785833 51.84 
L 171.2 81.648536 
L 181.71999 79.428231 
L 181.77897 86.854737 
L 184.927349 96.545453 
L 198.000149 121.869474 
L 185.78955 132.168854 
L 171.2 133.188953 
L 155.3213 133.078919 
L 155.073184 121.869474 
L 164.475248 91.602024 
L 165.445512 86.854737 
L 121.6 61.184176 
L 109.109787 51.84 
L 101.781414 51.84 
L 121.6 66.666677 
L 156.081359 86.854737 
L 153.532204 99.327181 
L 146.529828 121.869474 
L 146.909387 139.017244 
L 171.2 139.18557 
L 193.518523 137.625063 
L 212.197818 121.869474 
L 207.265567 112.314945 
L 198.9939 86.854737 
L 198.838942 67.343239 
L 171.2 73.176598 
L 147.282534 51.84 
M 117.928332 191.898947 
L 121.6 213.545598 
L 126.633794 191.898947 
L 126.094174 188.72632 
L 121.6 188.781378 
L 105.652324 180.640809 
M 121.528987 279.48592 
L 121.6 279.511283 
L 121.677317 279.490371 
L 121.700814 279.435789 
L 121.717723 279.352684 
L 121.6 278.863303 
L 121.455738 279.333949 
L 121.515665 279.435789 
" style="fill:#3fbc73;"/>
   </g>
   <g id="PathCollection_7">
    <path clip-path="url(#pdd18840c3c)" d="M 72 137.551254 
L 84.460251 121.869474 
L 82.8723 114.194258 
L 72 109.281929 
L 72 118.857941 
L 74.601165 120.033201 
L 74.981078 121.869474 
L 72 125.621293 
M 128.289133 51.84 
L 153.656467 74.470015 
L 121.6 55.701675 
L 116.438159 51.84 
L 109.109787 51.84 
L 121.6 61.184176 
L 165.445512 86.854737 
L 164.475248 91.602024 
L 155.073184 121.869474 
L 155.3213 133.078919 
L 171.2 133.188953 
L 185.78955 132.168854 
L 198.000149 121.869474 
L 184.927349 96.545453 
L 181.77897 86.854737 
L 181.71999 79.428231 
L 171.2 81.648536 
L 137.785833 51.84 
M 163.61654 121.869474 
L 171.2 97.456536 
L 183.802479 121.869474 
L 178.060578 126.712646 
L 171.2 127.192336 
L 163.733214 127.140594 
" style="fill:#84d44b;"/>
   </g>
   <g id="PathCollection_8">
    <path clip-path="url(#pdd18840c3c)" d="M 72 125.621293 
L 74.981078 121.869474 
L 74.601165 120.033201 
L 72 118.857941 
L 72 121.869474 
M 116.438159 51.84 
L 121.6 55.701675 
L 153.656467 74.470015 
L 128.289133 51.84 
L 121.6 51.84 
M 163.733214 127.140594 
L 171.2 127.192336 
L 178.060578 126.712646 
L 183.802479 121.869474 
L 171.2 97.456536 
L 163.61654 121.869474 
" style="fill:#d8e219;"/>
   </g>
   <g id="matplotlib.axis_1">
    <g id="xtick_1">
     <g id="line2d_1">
      <defs>
       <path d="M 0 0 
L 0 3.5 
" id="me756b3ab21" style="stroke:#000000;stroke-width:0.8;"/>
      </defs>
      <g>
       <use style="stroke:#000000;stroke-width:0.8;" x="72" xlink:href="#me756b3ab21" y="384.48"/>
      </g>
     </g>
     <g id="text_1">
      <!-- 0.5 -->
      <g transform="translate(62.458125 400.598125)scale(0.12 -0.12)">
       <defs>
        <path d="M 31.78125 66.40625 
Q 24.171875 66.40625 20.328125 58.90625 
Q 16.5 51.421875 16.5 36.375 
Q 16.5 21.390625 20.328125 13.890625 
Q 24.171875 6.390625 31.78125 6.390625 
Q 39.453125 6.390625 43.28125 13.890625 
Q 47.125 21.390625 47.125 36.375 
Q 47.125 51.421875 43.28125 58.90625 
Q 39.453125 66.40625 31.78125 66.40625 
z
M 31.78125 74.21875 
Q 44.046875 74.21875 50.515625 64.515625 
Q 56.984375 54.828125 56.984375 36.375 
Q 56.984375 17.96875 50.515625 8.265625 
Q 44.046875 -1.421875 31.78125 -1.421875 
Q 19.53125 -1.421875 13.0625 8.265625 
Q 6.59375 17.96875 6.59375 36.375 
Q 6.59375 54.828125 13.0625 64.515625 
Q 19.53125 74.21875 31.78125 74.21875 
z
" id="DejaVuSans-48"/>
        <path d="M 10.6875 12.40625 
L 21 12.40625 
L 21 0 
L 10.6875 0 
z
" id="DejaVuSans-46"/>
        <path d="M 10.796875 72.90625 
L 49.515625 72.90625 
L 49.515625 64.59375 
L 19.828125 64.59375 
L 19.828125 46.734375 
Q 21.96875 47.46875 24.109375 47.828125 
Q 26.265625 48.1875 28.421875 48.1875 
Q 40.625 48.1875 47.75 41.5 
Q 54.890625 34.8125 54.890625 23.390625 
Q 54.890625 11.625 47.5625 5.09375 
Q 40.234375 -1.421875 26.90625 -1.421875 
Q 22.3125 -1.421875 17.546875 -0.640625 
Q 12.796875 0.140625 7.71875 1.703125 
L 7.71875 11.625 
Q 12.109375 9.234375 16.796875 8.0625 
Q 21.484375 6.890625 26.703125 6.890625 
Q 35.15625 6.890625 40.078125 11.328125 
Q 45.015625 15.765625 45.015625 23.390625 
Q 45.015625 31 40.078125 35.4375 
Q 35.15625 39.890625 26.703125 39.890625 
Q 22.75 39.890625 18.8125 39.015625 
Q 14.890625 38.140625 10.796875 36.28125 
z
" id="DejaVuSans-53"/>
       </defs>
       <use xlink:href="#DejaVuSans-48"/>
       <use x="63.623047" xlink:href="#DejaVuSans-46"/>
       <use x="95.410156" xlink:href="#DejaVuSans-53"/>
      </g>
     </g>
    </g>
    <g id="xtick_2">
     <g id="line2d_2">
      <g>
       <use style="stroke:#000000;stroke-width:0.8;" x="161.28" xlink:href="#me756b3ab21" y="384.48"/>
      </g>
     </g>
     <g id="text_2">
      <!-- 0.6 -->
      <g transform="translate(151.738125 400.598125)scale(0.12 -0.12)">
       <defs>
        <path d="M 33.015625 40.375 
Q 26.375 40.375 22.484375 35.828125 
Q 18.609375 31.296875 18.609375 23.390625 
Q 18.609375 15.53125 22.484375 10.953125 
Q 26.375 6.390625 33.015625 6.390625 
Q 39.65625 6.390625 43.53125 10.953125 
Q 47.40625 15.53125 47.40625 23.390625 
Q 47.40625 31.296875 43.53125 35.828125 
Q 39.65625 40.375 33.015625 40.375 
z
M 52.59375 71.296875 
L 52.59375 62.3125 
Q 48.875 64.0625 45.09375 64.984375 
Q 41.3125 65.921875 37.59375 65.921875 
Q 27.828125 65.921875 22.671875 59.328125 
Q 17.53125 52.734375 16.796875 39.40625 
Q 19.671875 43.65625 24.015625 45.921875 
Q 28.375 48.1875 33.59375 48.1875 
Q 44.578125 48.1875 50.953125 41.515625 
Q 57.328125 34.859375 57.328125 23.390625 
Q 57.328125 12.15625 50.6875 5.359375 
Q 44.046875 -1.421875 33.015625 -1.421875 
Q 20.359375 -1.421875 13.671875 8.265625 
Q 6.984375 17.96875 6.984375 36.375 
Q 6.984375 53.65625 15.1875 63.9375 
Q 23.390625 74.21875 37.203125 74.21875 
Q 40.921875 74.21875 44.703125 73.484375 
Q 48.484375 72.75 52.59375 71.296875 
z
" id="DejaVuSans-54"/>
       </defs>
       <use xlink:href="#DejaVuSans-48"/>
       <use x="63.623047" xlink:href="#DejaVuSans-46"/>
       <use x="95.410156" xlink:href="#DejaVuSans-54"/>
      </g>
     </g>
    </g>
    <g id="xtick_3">
     <g id="line2d_3">
      <g>
       <use style="stroke:#000000;stroke-width:0.8;" x="250.56" xlink:href="#me756b3ab21" y="384.48"/>
      </g>
     </g>
     <g id="text_3">
      <!-- 0.7 -->
      <g transform="translate(241.018125 400.598125)scale(0.12 -0.12)">
       <defs>
        <path d="M 8.203125 72.90625 
L 55.078125 72.90625 
L 55.078125 68.703125 
L 28.609375 0 
L 18.3125 0 
L 43.21875 64.59375 
L 8.203125 64.59375 
z
" id="DejaVuSans-55"/>
       </defs>
       <use xlink:href="#DejaVuSans-48"/>
       <use x="63.623047" xlink:href="#DejaVuSans-46"/>
       <use x="95.410156" xlink:href="#DejaVuSans-55"/>
      </g>
     </g>
    </g>
    <g id="xtick_4">
     <g id="line2d_4">
      <g>
       <use style="stroke:#000000;stroke-width:0.8;" x="339.84" xlink:href="#me756b3ab21" y="384.48"/>
      </g>
     </g>
     <g id="text_4">
      <!-- 0.8 -->
      <g transform="translate(330.298125 400.598125)scale(0.12 -0.12)">
       <defs>
        <path d="M 31.78125 34.625 
Q 24.75 34.625 20.71875 30.859375 
Q 16.703125 27.09375 16.703125 20.515625 
Q 16.703125 13.921875 20.71875 10.15625 
Q 24.75 6.390625 31.78125 6.390625 
Q 38.8125 6.390625 42.859375 10.171875 
Q 46.921875 13.96875 46.921875 20.515625 
Q 46.921875 27.09375 42.890625 30.859375 
Q 38.875 34.625 31.78125 34.625 
z
M 21.921875 38.8125 
Q 15.578125 40.375 12.03125 44.71875 
Q 8.5 49.078125 8.5 55.328125 
Q 8.5 64.0625 14.71875 69.140625 
Q 20.953125 74.21875 31.78125 74.21875 
Q 42.671875 74.21875 48.875 69.140625 
Q 55.078125 64.0625 55.078125 55.328125 
Q 55.078125 49.078125 51.53125 44.71875 
Q 48 40.375 41.703125 38.8125 
Q 48.828125 37.15625 52.796875 32.3125 
Q 56.78125 27.484375 56.78125 20.515625 
Q 56.78125 9.90625 50.3125 4.234375 
Q 43.84375 -1.421875 31.78125 -1.421875 
Q 19.734375 -1.421875 13.25 4.234375 
Q 6.78125 9.90625 6.78125 20.515625 
Q 6.78125 27.484375 10.78125 32.3125 
Q 14.796875 37.15625 21.921875 38.8125 
z
M 18.3125 54.390625 
Q 18.3125 48.734375 21.84375 45.5625 
Q 25.390625 42.390625 31.78125 42.390625 
Q 38.140625 42.390625 41.71875 45.5625 
Q 45.3125 48.734375 45.3125 54.390625 
Q 45.3125 60.0625 41.71875 63.234375 
Q 38.140625 66.40625 31.78125 66.40625 
Q 25.390625 66.40625 21.84375 63.234375 
Q 18.3125 60.0625 18.3125 54.390625 
z
" id="DejaVuSans-56"/>
       </defs>
       <use xlink:href="#DejaVuSans-48"/>
       <use x="63.623047" xlink:href="#DejaVuSans-46"/>
       <use x="95.410156" xlink:href="#DejaVuSans-56"/>
      </g>
     </g>
    </g>
    <g id="xtick_5">
     <g id="line2d_5">
      <g>
       <use style="stroke:#000000;stroke-width:0.8;" x="429.12" xlink:href="#me756b3ab21" y="384.48"/>
      </g>
     </g>
     <g id="text_5">
      <!-- 0.9 -->
      <g transform="translate(419.578125 400.598125)scale(0.12 -0.12)">
       <defs>
        <path d="M 10.984375 1.515625 
L 10.984375 10.5 
Q 14.703125 8.734375 18.5 7.8125 
Q 22.3125 6.890625 25.984375 6.890625 
Q 35.75 6.890625 40.890625 13.453125 
Q 46.046875 20.015625 46.78125 33.40625 
Q 43.953125 29.203125 39.59375 26.953125 
Q 35.25 24.703125 29.984375 24.703125 
Q 19.046875 24.703125 12.671875 31.3125 
Q 6.296875 37.9375 6.296875 49.421875 
Q 6.296875 60.640625 12.9375 67.421875 
Q 19.578125 74.21875 30.609375 74.21875 
Q 43.265625 74.21875 49.921875 64.515625 
Q 56.59375 54.828125 56.59375 36.375 
Q 56.59375 19.140625 48.40625 8.859375 
Q 40.234375 -1.421875 26.421875 -1.421875 
Q 22.703125 -1.421875 18.890625 -0.6875 
Q 15.09375 0.046875 10.984375 1.515625 
z
M 30.609375 32.421875 
Q 37.25 32.421875 41.125 36.953125 
Q 45.015625 41.5 45.015625 49.421875 
Q 45.015625 57.28125 41.125 61.84375 
Q 37.25 66.40625 30.609375 66.40625 
Q 23.96875 66.40625 20.09375 61.84375 
Q 16.21875 57.28125 16.21875 49.421875 
Q 16.21875 41.5 20.09375 36.953125 
Q 23.96875 32.421875 30.609375 32.421875 
z
" id="DejaVuSans-57"/>
       </defs>
       <use xlink:href="#DejaVuSans-48"/>
       <use x="63.623047" xlink:href="#DejaVuSans-46"/>
       <use x="95.410156" xlink:href="#DejaVuSans-57"/>
      </g>
     </g>
    </g>
    <g id="xtick_6">
     <g id="line2d_6">
      <g>
       <use style="stroke:#000000;stroke-width:0.8;" x="518.4" xlink:href="#me756b3ab21" y="384.48"/>
      </g>
     </g>
     <g id="text_6">
      <!-- 1.0 -->
      <g transform="translate(508.858125 400.598125)scale(0.12 -0.12)">
       <defs>
        <path d="M 12.40625 8.296875 
L 28.515625 8.296875 
L 28.515625 63.921875 
L 10.984375 60.40625 
L 10.984375 69.390625 
L 28.421875 72.90625 
L 38.28125 72.90625 
L 38.28125 8.296875 
L 54.390625 8.296875 
L 54.390625 0 
L 12.40625 0 
z
" id="DejaVuSans-49"/>
       </defs>
       <use xlink:href="#DejaVuSans-49"/>
       <use x="63.623047" xlink:href="#DejaVuSans-46"/>
       <use x="95.410156" xlink:href="#DejaVuSans-48"/>
      </g>
     </g>
    </g>
    <g id="text_7">
     <!-- Bagging fraction -->
     <g transform="translate(237.281562 417.731562)scale(0.14 -0.14)">
      <defs>
       <path d="M 19.671875 34.8125 
L 19.671875 8.109375 
L 35.5 8.109375 
Q 43.453125 8.109375 47.28125 11.40625 
Q 51.125 14.703125 51.125 21.484375 
Q 51.125 28.328125 47.28125 31.5625 
Q 43.453125 34.8125 35.5 34.8125 
z
M 19.671875 64.796875 
L 19.671875 42.828125 
L 34.28125 42.828125 
Q 41.5 42.828125 45.03125 45.53125 
Q 48.578125 48.25 48.578125 53.8125 
Q 48.578125 59.328125 45.03125 62.0625 
Q 41.5 64.796875 34.28125 64.796875 
z
M 9.8125 72.90625 
L 35.015625 72.90625 
Q 46.296875 72.90625 52.390625 68.21875 
Q 58.5 63.53125 58.5 54.890625 
Q 58.5 48.1875 55.375 44.234375 
Q 52.25 40.28125 46.1875 39.3125 
Q 53.46875 37.75 57.5 32.78125 
Q 61.53125 27.828125 61.53125 20.40625 
Q 61.53125 10.640625 54.890625 5.3125 
Q 48.25 0 35.984375 0 
L 9.8125 0 
z
" id="DejaVuSans-66"/>
       <path d="M 34.28125 27.484375 
Q 23.390625 27.484375 19.1875 25 
Q 14.984375 22.515625 14.984375 16.5 
Q 14.984375 11.71875 18.140625 8.90625 
Q 21.296875 6.109375 26.703125 6.109375 
Q 34.1875 6.109375 38.703125 11.40625 
Q 43.21875 16.703125 43.21875 25.484375 
L 43.21875 27.484375 
z
M 52.203125 31.203125 
L 52.203125 0 
L 43.21875 0 
L 43.21875 8.296875 
Q 40.140625 3.328125 35.546875 0.953125 
Q 30.953125 -1.421875 24.3125 -1.421875 
Q 15.921875 -1.421875 10.953125 3.296875 
Q 6 8.015625 6 15.921875 
Q 6 25.140625 12.171875 29.828125 
Q 18.359375 34.515625 30.609375 34.515625 
L 43.21875 34.515625 
L 43.21875 35.40625 
Q 43.21875 41.609375 39.140625 45 
Q 35.0625 48.390625 27.6875 48.390625 
Q 23 48.390625 18.546875 47.265625 
Q 14.109375 46.140625 10.015625 43.890625 
L 10.015625 52.203125 
Q 14.9375 54.109375 19.578125 55.046875 
Q 24.21875 56 28.609375 56 
Q 40.484375 56 46.34375 49.84375 
Q 52.203125 43.703125 52.203125 31.203125 
z
" id="DejaVuSans-97"/>
       <path d="M 45.40625 27.984375 
Q 45.40625 37.75 41.375 43.109375 
Q 37.359375 48.484375 30.078125 48.484375 
Q 22.859375 48.484375 18.828125 43.109375 
Q 14.796875 37.75 14.796875 27.984375 
Q 14.796875 18.265625 18.828125 12.890625 
Q 22.859375 7.515625 30.078125 7.515625 
Q 37.359375 7.515625 41.375 12.890625 
Q 45.40625 18.265625 45.40625 27.984375 
z
M 54.390625 6.78125 
Q 54.390625 -7.171875 48.1875 -13.984375 
Q 42 -20.796875 29.203125 -20.796875 
Q 24.46875 -20.796875 20.265625 -20.09375 
Q 16.0625 -19.390625 12.109375 -17.921875 
L 12.109375 -9.1875 
Q 16.0625 -11.328125 19.921875 -12.34375 
Q 23.78125 -13.375 27.78125 -13.375 
Q 36.625 -13.375 41.015625 -8.765625 
Q 45.40625 -4.15625 45.40625 5.171875 
L 45.40625 9.625 
Q 42.625 4.78125 38.28125 2.390625 
Q 33.9375 0 27.875 0 
Q 17.828125 0 11.671875 7.65625 
Q 5.515625 15.328125 5.515625 27.984375 
Q 5.515625 40.671875 11.671875 48.328125 
Q 17.828125 56 27.875 56 
Q 33.9375 56 38.28125 53.609375 
Q 42.625 51.21875 45.40625 46.390625 
L 45.40625 54.6875 
L 54.390625 54.6875 
z
" id="DejaVuSans-103"/>
       <path d="M 9.421875 54.6875 
L 18.40625 54.6875 
L 18.40625 0 
L 9.421875 0 
z
M 9.421875 75.984375 
L 18.40625 75.984375 
L 18.40625 64.59375 
L 9.421875 64.59375 
z
" id="DejaVuSans-105"/>
       <path d="M 54.890625 33.015625 
L 54.890625 0 
L 45.90625 0 
L 45.90625 32.71875 
Q 45.90625 40.484375 42.875 44.328125 
Q 39.84375 48.1875 33.796875 48.1875 
Q 26.515625 48.1875 22.3125 43.546875 
Q 18.109375 38.921875 18.109375 30.90625 
L 18.109375 0 
L 9.078125 0 
L 9.078125 54.6875 
L 18.109375 54.6875 
L 18.109375 46.1875 
Q 21.34375 51.125 25.703125 53.5625 
Q 30.078125 56 35.796875 56 
Q 45.21875 56 50.046875 50.171875 
Q 54.890625 44.34375 54.890625 33.015625 
z
" id="DejaVuSans-110"/>
       <path id="DejaVuSans-32"/>
       <path d="M 37.109375 75.984375 
L 37.109375 68.5 
L 28.515625 68.5 
Q 23.6875 68.5 21.796875 66.546875 
Q 19.921875 64.59375 19.921875 59.515625 
L 19.921875 54.6875 
L 34.71875 54.6875 
L 34.71875 47.703125 
L 19.921875 47.703125 
L 19.921875 0 
L 10.890625 0 
L 10.890625 47.703125 
L 2.296875 47.703125 
L 2.296875 54.6875 
L 10.890625 54.6875 
L 10.890625 58.5 
Q 10.890625 67.625 15.140625 71.796875 
Q 19.390625 75.984375 28.609375 75.984375 
z
" id="DejaVuSans-102"/>
       <path d="M 41.109375 46.296875 
Q 39.59375 47.171875 37.8125 47.578125 
Q 36.03125 48 33.890625 48 
Q 26.265625 48 22.1875 43.046875 
Q 18.109375 38.09375 18.109375 28.8125 
L 18.109375 0 
L 9.078125 0 
L 9.078125 54.6875 
L 18.109375 54.6875 
L 18.109375 46.1875 
Q 20.953125 51.171875 25.484375 53.578125 
Q 30.03125 56 36.53125 56 
Q 37.453125 56 38.578125 55.875 
Q 39.703125 55.765625 41.0625 55.515625 
z
" id="DejaVuSans-114"/>
       <path d="M 48.78125 52.59375 
L 48.78125 44.1875 
Q 44.96875 46.296875 41.140625 47.34375 
Q 37.3125 48.390625 33.40625 48.390625 
Q 24.65625 48.390625 19.8125 42.84375 
Q 14.984375 37.3125 14.984375 27.296875 
Q 14.984375 17.28125 19.8125 11.734375 
Q 24.65625 6.203125 33.40625 6.203125 
Q 37.3125 6.203125 41.140625 7.25 
Q 44.96875 8.296875 48.78125 10.40625 
L 48.78125 2.09375 
Q 45.015625 0.34375 40.984375 -0.53125 
Q 36.96875 -1.421875 32.421875 -1.421875 
Q 20.0625 -1.421875 12.78125 6.34375 
Q 5.515625 14.109375 5.515625 27.296875 
Q 5.515625 40.671875 12.859375 48.328125 
Q 20.21875 56 33.015625 56 
Q 37.15625 56 41.109375 55.140625 
Q 45.0625 54.296875 48.78125 52.59375 
z
" id="DejaVuSans-99"/>
       <path d="M 18.3125 70.21875 
L 18.3125 54.6875 
L 36.8125 54.6875 
L 36.8125 47.703125 
L 18.3125 47.703125 
L 18.3125 18.015625 
Q 18.3125 11.328125 20.140625 9.421875 
Q 21.96875 7.515625 27.59375 7.515625 
L 36.8125 7.515625 
L 36.8125 0 
L 27.59375 0 
Q 17.1875 0 13.234375 3.875 
Q 9.28125 7.765625 9.28125 18.015625 
L 9.28125 47.703125 
L 2.6875 47.703125 
L 2.6875 54.6875 
L 9.28125 54.6875 
L 9.28125 70.21875 
z
" id="DejaVuSans-116"/>
       <path d="M 30.609375 48.390625 
Q 23.390625 48.390625 19.1875 42.75 
Q 14.984375 37.109375 14.984375 27.296875 
Q 14.984375 17.484375 19.15625 11.84375 
Q 23.34375 6.203125 30.609375 6.203125 
Q 37.796875 6.203125 41.984375 11.859375 
Q 46.1875 17.53125 46.1875 27.296875 
Q 46.1875 37.015625 41.984375 42.703125 
Q 37.796875 48.390625 30.609375 48.390625 
z
M 30.609375 56 
Q 42.328125 56 49.015625 48.375 
Q 55.71875 40.765625 55.71875 27.296875 
Q 55.71875 13.875 49.015625 6.21875 
Q 42.328125 -1.421875 30.609375 -1.421875 
Q 18.84375 -1.421875 12.171875 6.21875 
Q 5.515625 13.875 5.515625 27.296875 
Q 5.515625 40.765625 12.171875 48.375 
Q 18.84375 56 30.609375 56 
z
" id="DejaVuSans-111"/>
      </defs>
      <use xlink:href="#DejaVuSans-66"/>
      <use x="68.603516" xlink:href="#DejaVuSans-97"/>
      <use x="129.882812" xlink:href="#DejaVuSans-103"/>
      <use x="193.359375" xlink:href="#DejaVuSans-103"/>
      <use x="256.835938" xlink:href="#DejaVuSans-105"/>
      <use x="284.619141" xlink:href="#DejaVuSans-110"/>
      <use x="347.998047" xlink:href="#DejaVuSans-103"/>
      <use x="411.474609" xlink:href="#DejaVuSans-32"/>
      <use x="443.261719" xlink:href="#DejaVuSans-102"/>
      <use x="478.466797" xlink:href="#DejaVuSans-114"/>
      <use x="519.580078" xlink:href="#DejaVuSans-97"/>
      <use x="580.859375" xlink:href="#DejaVuSans-99"/>
      <use x="635.839844" xlink:href="#DejaVuSans-116"/>
      <use x="675.048828" xlink:href="#DejaVuSans-105"/>
      <use x="702.832031" xlink:href="#DejaVuSans-111"/>
      <use x="764.013672" xlink:href="#DejaVuSans-110"/>
     </g>
    </g>
   </g>
   <g id="matplotlib.axis_2">
    <g id="ytick_1">
     <g id="line2d_7">
      <defs>
       <path d="M 0 0 
L -3.5 0 
" id="m2836886714" style="stroke:#000000;stroke-width:0.8;"/>
      </defs>
      <g>
       <use style="stroke:#000000;stroke-width:0.8;" x="72" xlink:href="#m2836886714" y="384.48"/>
      </g>
     </g>
     <g id="text_8">
      <!-- 1 -->
      <g transform="translate(57.365 389.039062)scale(0.12 -0.12)">
       <use xlink:href="#DejaVuSans-49"/>
      </g>
     </g>
    </g>
    <g id="ytick_2">
     <g id="line2d_8">
      <g>
       <use style="stroke:#000000;stroke-width:0.8;" x="72" xlink:href="#m2836886714" y="314.450526"/>
      </g>
     </g>
     <g id="text_9">
      <!-- 5 -->
      <g transform="translate(57.365 319.009589)scale(0.12 -0.12)">
       <use xlink:href="#DejaVuSans-53"/>
      </g>
     </g>
    </g>
    <g id="ytick_3">
     <g id="line2d_9">
      <g>
       <use style="stroke:#000000;stroke-width:0.8;" x="72" xlink:href="#m2836886714" y="226.913684"/>
      </g>
     </g>
     <g id="text_10">
      <!-- 10 -->
      <g transform="translate(49.73 231.472747)scale(0.12 -0.12)">
       <use xlink:href="#DejaVuSans-49"/>
       <use x="63.623047" xlink:href="#DejaVuSans-48"/>
      </g>
     </g>
    </g>
    <g id="ytick_4">
     <g id="line2d_10">
      <g>
       <use style="stroke:#000000;stroke-width:0.8;" x="72" xlink:href="#m2836886714" y="139.376842"/>
      </g>
     </g>
     <g id="text_11">
      <!-- 15 -->
      <g transform="translate(49.73 143.935905)scale(0.12 -0.12)">
       <use xlink:href="#DejaVuSans-49"/>
       <use x="63.623047" xlink:href="#DejaVuSans-53"/>
      </g>
     </g>
    </g>
    <g id="ytick_5">
     <g id="line2d_11">
      <g>
       <use style="stroke:#000000;stroke-width:0.8;" x="72" xlink:href="#m2836886714" y="51.84"/>
      </g>
     </g>
     <g id="text_12">
      <!-- 20 -->
      <g transform="translate(49.73 56.399062)scale(0.12 -0.12)">
       <defs>
        <path d="M 19.1875 8.296875 
L 53.609375 8.296875 
L 53.609375 0 
L 7.328125 0 
L 7.328125 8.296875 
Q 12.9375 14.109375 22.625 23.890625 
Q 32.328125 33.6875 34.8125 36.53125 
Q 39.546875 41.84375 41.421875 45.53125 
Q 43.3125 49.21875 43.3125 52.78125 
Q 43.3125 58.59375 39.234375 62.25 
Q 35.15625 65.921875 28.609375 65.921875 
Q 23.96875 65.921875 18.8125 64.3125 
Q 13.671875 62.703125 7.8125 59.421875 
L 7.8125 69.390625 
Q 13.765625 71.78125 18.9375 73 
Q 24.125 74.21875 28.421875 74.21875 
Q 39.75 74.21875 46.484375 68.546875 
Q 53.21875 62.890625 53.21875 53.421875 
Q 53.21875 48.921875 51.53125 44.890625 
Q 49.859375 40.875 45.40625 35.40625 
Q 44.1875 33.984375 37.640625 27.21875 
Q 31.109375 20.453125 19.1875 8.296875 
z
" id="DejaVuSans-50"/>
       </defs>
       <use xlink:href="#DejaVuSans-50"/>
       <use x="63.623047" xlink:href="#DejaVuSans-48"/>
      </g>
     </g>
    </g>
    <g id="text_13">
     <!-- Number of neighbors - K -->
     <g transform="translate(42.818438 303.861875)rotate(-90)scale(0.14 -0.14)">
      <defs>
       <path d="M 9.8125 72.90625 
L 23.09375 72.90625 
L 55.421875 11.921875 
L 55.421875 72.90625 
L 64.984375 72.90625 
L 64.984375 0 
L 51.703125 0 
L 19.390625 60.984375 
L 19.390625 0 
L 9.8125 0 
z
" id="DejaVuSans-78"/>
       <path d="M 8.5 21.578125 
L 8.5 54.6875 
L 17.484375 54.6875 
L 17.484375 21.921875 
Q 17.484375 14.15625 20.5 10.265625 
Q 23.53125 6.390625 29.59375 6.390625 
Q 36.859375 6.390625 41.078125 11.03125 
Q 45.3125 15.671875 45.3125 23.6875 
L 45.3125 54.6875 
L 54.296875 54.6875 
L 54.296875 0 
L 45.3125 0 
L 45.3125 8.40625 
Q 42.046875 3.421875 37.71875 1 
Q 33.40625 -1.421875 27.6875 -1.421875 
Q 18.265625 -1.421875 13.375 4.4375 
Q 8.5 10.296875 8.5 21.578125 
z
M 31.109375 56 
z
" id="DejaVuSans-117"/>
       <path d="M 52 44.1875 
Q 55.375 50.25 60.0625 53.125 
Q 64.75 56 71.09375 56 
Q 79.640625 56 84.28125 50.015625 
Q 88.921875 44.046875 88.921875 33.015625 
L 88.921875 0 
L 79.890625 0 
L 79.890625 32.71875 
Q 79.890625 40.578125 77.09375 44.375 
Q 74.3125 48.1875 68.609375 48.1875 
Q 61.625 48.1875 57.5625 43.546875 
Q 53.515625 38.921875 53.515625 30.90625 
L 53.515625 0 
L 44.484375 0 
L 44.484375 32.71875 
Q 44.484375 40.625 41.703125 44.40625 
Q 38.921875 48.1875 33.109375 48.1875 
Q 26.21875 48.1875 22.15625 43.53125 
Q 18.109375 38.875 18.109375 30.90625 
L 18.109375 0 
L 9.078125 0 
L 9.078125 54.6875 
L 18.109375 54.6875 
L 18.109375 46.1875 
Q 21.1875 51.21875 25.484375 53.609375 
Q 29.78125 56 35.6875 56 
Q 41.65625 56 45.828125 52.96875 
Q 50 49.953125 52 44.1875 
z
" id="DejaVuSans-109"/>
       <path d="M 48.6875 27.296875 
Q 48.6875 37.203125 44.609375 42.84375 
Q 40.53125 48.484375 33.40625 48.484375 
Q 26.265625 48.484375 22.1875 42.84375 
Q 18.109375 37.203125 18.109375 27.296875 
Q 18.109375 17.390625 22.1875 11.75 
Q 26.265625 6.109375 33.40625 6.109375 
Q 40.53125 6.109375 44.609375 11.75 
Q 48.6875 17.390625 48.6875 27.296875 
z
M 18.109375 46.390625 
Q 20.953125 51.265625 25.265625 53.625 
Q 29.59375 56 35.59375 56 
Q 45.5625 56 51.78125 48.09375 
Q 58.015625 40.1875 58.015625 27.296875 
Q 58.015625 14.40625 51.78125 6.484375 
Q 45.5625 -1.421875 35.59375 -1.421875 
Q 29.59375 -1.421875 25.265625 0.953125 
Q 20.953125 3.328125 18.109375 8.203125 
L 18.109375 0 
L 9.078125 0 
L 9.078125 75.984375 
L 18.109375 75.984375 
z
" id="DejaVuSans-98"/>
       <path d="M 56.203125 29.59375 
L 56.203125 25.203125 
L 14.890625 25.203125 
Q 15.484375 15.921875 20.484375 11.0625 
Q 25.484375 6.203125 34.421875 6.203125 
Q 39.59375 6.203125 44.453125 7.46875 
Q 49.3125 8.734375 54.109375 11.28125 
L 54.109375 2.78125 
Q 49.265625 0.734375 44.1875 -0.34375 
Q 39.109375 -1.421875 33.890625 -1.421875 
Q 20.796875 -1.421875 13.15625 6.1875 
Q 5.515625 13.8125 5.515625 26.8125 
Q 5.515625 40.234375 12.765625 48.109375 
Q 20.015625 56 32.328125 56 
Q 43.359375 56 49.78125 48.890625 
Q 56.203125 41.796875 56.203125 29.59375 
z
M 47.21875 32.234375 
Q 47.125 39.59375 43.09375 43.984375 
Q 39.0625 48.390625 32.421875 48.390625 
Q 24.90625 48.390625 20.390625 44.140625 
Q 15.875 39.890625 15.1875 32.171875 
z
" id="DejaVuSans-101"/>
       <path d="M 54.890625 33.015625 
L 54.890625 0 
L 45.90625 0 
L 45.90625 32.71875 
Q 45.90625 40.484375 42.875 44.328125 
Q 39.84375 48.1875 33.796875 48.1875 
Q 26.515625 48.1875 22.3125 43.546875 
Q 18.109375 38.921875 18.109375 30.90625 
L 18.109375 0 
L 9.078125 0 
L 9.078125 75.984375 
L 18.109375 75.984375 
L 18.109375 46.1875 
Q 21.34375 51.125 25.703125 53.5625 
Q 30.078125 56 35.796875 56 
Q 45.21875 56 50.046875 50.171875 
Q 54.890625 44.34375 54.890625 33.015625 
z
" id="DejaVuSans-104"/>
       <path d="M 44.28125 53.078125 
L 44.28125 44.578125 
Q 40.484375 46.53125 36.375 47.5 
Q 32.28125 48.484375 27.875 48.484375 
Q 21.1875 48.484375 17.84375 46.4375 
Q 14.5 44.390625 14.5 40.28125 
Q 14.5 37.15625 16.890625 35.375 
Q 19.28125 33.59375 26.515625 31.984375 
L 29.59375 31.296875 
Q 39.15625 29.25 43.1875 25.515625 
Q 47.21875 21.78125 47.21875 15.09375 
Q 47.21875 7.46875 41.1875 3.015625 
Q 35.15625 -1.421875 24.609375 -1.421875 
Q 20.21875 -1.421875 15.453125 -0.5625 
Q 10.6875 0.296875 5.421875 2 
L 5.421875 11.28125 
Q 10.40625 8.6875 15.234375 7.390625 
Q 20.0625 6.109375 24.8125 6.109375 
Q 31.15625 6.109375 34.5625 8.28125 
Q 37.984375 10.453125 37.984375 14.40625 
Q 37.984375 18.0625 35.515625 20.015625 
Q 33.0625 21.96875 24.703125 23.78125 
L 21.578125 24.515625 
Q 13.234375 26.265625 9.515625 29.90625 
Q 5.8125 33.546875 5.8125 39.890625 
Q 5.8125 47.609375 11.28125 51.796875 
Q 16.75 56 26.8125 56 
Q 31.78125 56 36.171875 55.265625 
Q 40.578125 54.546875 44.28125 53.078125 
z
" id="DejaVuSans-115"/>
       <path d="M 4.890625 31.390625 
L 31.203125 31.390625 
L 31.203125 23.390625 
L 4.890625 23.390625 
z
" id="DejaVuSans-45"/>
       <path d="M 9.8125 72.90625 
L 19.671875 72.90625 
L 19.671875 42.09375 
L 52.390625 72.90625 
L 65.09375 72.90625 
L 28.90625 38.921875 
L 67.671875 0 
L 54.6875 0 
L 19.671875 35.109375 
L 19.671875 0 
L 9.8125 0 
z
" id="DejaVuSans-75"/>
      </defs>
      <use xlink:href="#DejaVuSans-78"/>
      <use x="74.804688" xlink:href="#DejaVuSans-117"/>
      <use x="138.183594" xlink:href="#DejaVuSans-109"/>
      <use x="235.595703" xlink:href="#DejaVuSans-98"/>
      <use x="299.072266" xlink:href="#DejaVuSans-101"/>
      <use x="360.595703" xlink:href="#DejaVuSans-114"/>
      <use x="401.708984" xlink:href="#DejaVuSans-32"/>
      <use x="433.496094" xlink:href="#DejaVuSans-111"/>
      <use x="494.677734" xlink:href="#DejaVuSans-102"/>
      <use x="529.882812" xlink:href="#DejaVuSans-32"/>
      <use x="561.669922" xlink:href="#DejaVuSans-110"/>
      <use x="625.048828" xlink:href="#DejaVuSans-101"/>
      <use x="686.572266" xlink:href="#DejaVuSans-105"/>
      <use x="714.355469" xlink:href="#DejaVuSans-103"/>
      <use x="777.832031" xlink:href="#DejaVuSans-104"/>
      <use x="841.210938" xlink:href="#DejaVuSans-98"/>
      <use x="904.6875" xlink:href="#DejaVuSans-111"/>
      <use x="965.869141" xlink:href="#DejaVuSans-114"/>
      <use x="1006.982422" xlink:href="#DejaVuSans-115"/>
      <use x="1059.082031" xlink:href="#DejaVuSans-32"/>
      <use x="1090.869141" xlink:href="#DejaVuSans-45"/>
      <use x="1126.953125" xlink:href="#DejaVuSans-32"/>
      <use x="1158.740234" xlink:href="#DejaVuSans-75"/>
     </g>
    </g>
   </g>
   <g id="patch_3">
    <path d="M 72 384.48 
L 72 51.84 
" style="fill:none;stroke:#000000;stroke-linecap:square;stroke-linejoin:miter;stroke-width:0.8;"/>
   </g>
   <g id="patch_4">
    <path d="M 518.4 384.48 
L 518.4 51.84 
" style="fill:none;stroke:#000000;stroke-linecap:square;stroke-linejoin:miter;stroke-width:0.8;"/>
   </g>
   <g id="patch_5">
    <path d="M 72 384.48 
L 518.4 384.48 
" style="fill:none;stroke:#000000;stroke-linecap:square;stroke-linejoin:miter;stroke-width:0.8;"/>
   </g>
   <g id="patch_6">
    <path d="M 72 51.84 
L 518.4 51.84 
" style="fill:none;stroke:#000000;stroke-linecap:square;stroke-linejoin:miter;stroke-width:0.8;"/>
   </g>
  </g>
 </g>
 <defs>
  <clipPath id="pdd18840c3c">
   <rect height="332.64" width="446.4" x="72" y="51.84"/>
  </clipPath>
 </defs>
</svg>
