<?xml version="1.0" encoding="utf-8"?>
<svg xmlns="http://www.w3.org/2000/svg" xmlns:xlink="http://www.w3.org/1999/xlink" width="800" height="600" viewBox="0 0 3200 2400">
<defs>
  <clipPath id="clip430">
    <rect x="0" y="0" width="3200" height="2400"/>
  </clipPath>
</defs>
<path clip-path="url(#clip430)" d="M0 2400 L3200 2400 L3200 0 L0 0  Z" fill="#ffffff" fill-rule="evenodd" fill-opacity="1"/>
<defs>
  <clipPath id="clip431">
    <rect x="640" y="0" width="2241" height="2241"/>
  </clipPath>
</defs>
<path clip-path="url(#clip430)" d="M373.427 2185.48 L3152.76 2185.48 L3152.76 47.2441 L373.427 47.2441  Z" fill="#ffffff" fill-rule="evenodd" fill-opacity="1"/>
<defs>
  <clipPath id="clip432">
    <rect x="373" y="47" width="2780" height="2139"/>
  </clipPath>
</defs>
<polyline clip-path="url(#clip432)" style="stroke:#000000; stroke-linecap:round; stroke-linejoin:round; stroke-width:2; stroke-opacity:0.1; fill:none" points="499.76,2185.48 499.76,47.2441 "/>
<polyline clip-path="url(#clip432)" style="stroke:#000000; stroke-linecap:round; stroke-linejoin:round; stroke-width:2; stroke-opacity:0.1; fill:none" points="1131.43,2185.48 1131.43,47.2441 "/>
<polyline clip-path="url(#clip432)" style="stroke:#000000; stroke-linecap:round; stroke-linejoin:round; stroke-width:2; stroke-opacity:0.1; fill:none" points="1763.09,2185.48 1763.09,47.2441 "/>
<polyline clip-path="url(#clip432)" style="stroke:#000000; stroke-linecap:round; stroke-linejoin:round; stroke-width:2; stroke-opacity:0.1; fill:none" points="2394.76,2185.48 2394.76,47.2441 "/>
<polyline clip-path="url(#clip432)" style="stroke:#000000; stroke-linecap:round; stroke-linejoin:round; stroke-width:2; stroke-opacity:0.1; fill:none" points="3026.42,2185.48 3026.42,47.2441 "/>
<polyline clip-path="url(#clip430)" style="stroke:#000000; stroke-linecap:round; stroke-linejoin:round; stroke-width:4; stroke-opacity:1; fill:none" points="373.427,2185.48 3152.76,2185.48 "/>
<polyline clip-path="url(#clip430)" style="stroke:#000000; stroke-linecap:round; stroke-linejoin:round; stroke-width:4; stroke-opacity:1; fill:none" points="499.76,2185.48 499.76,2166.58 "/>
<polyline clip-path="url(#clip430)" style="stroke:#000000; stroke-linecap:round; stroke-linejoin:round; stroke-width:4; stroke-opacity:1; fill:none" points="1131.43,2185.48 1131.43,2166.58 "/>
<polyline clip-path="url(#clip430)" style="stroke:#000000; stroke-linecap:round; stroke-linejoin:round; stroke-width:4; stroke-opacity:1; fill:none" points="1763.09,2185.48 1763.09,2166.58 "/>
<polyline clip-path="url(#clip430)" style="stroke:#000000; stroke-linecap:round; stroke-linejoin:round; stroke-width:4; stroke-opacity:1; fill:none" points="2394.76,2185.48 2394.76,2166.58 "/>
<polyline clip-path="url(#clip430)" style="stroke:#000000; stroke-linecap:round; stroke-linejoin:round; stroke-width:4; stroke-opacity:1; fill:none" points="3026.42,2185.48 3026.42,2166.58 "/>
<path clip-path="url(#clip430)" d="M404.636 2244.04 L441.731 2244.04 L441.731 2248.96 L404.636 2248.96 L404.636 2244.04 Z" fill="#000000" fill-rule="nonzero" fill-opacity="1" /><path clip-path="url(#clip430)" d="M455.36 2260.16 L464.908 2260.16 L464.908 2227.2 L454.52 2229.29 L454.52 2223.96 L464.85 2221.88 L470.695 2221.88 L470.695 2260.16 L480.244 2260.16 L480.244 2265.08 L455.36 2265.08 L455.36 2260.16 Z" fill="#000000" fill-rule="nonzero" fill-opacity="1" /><path clip-path="url(#clip430)" d="M504.549 2225.73 Q500.035 2225.73 497.749 2230.18 Q495.492 2234.61 495.492 2243.52 Q495.492 2252.41 497.749 2256.86 Q500.035 2261.29 504.549 2261.29 Q509.092 2261.29 511.349 2256.86 Q513.635 2252.41 513.635 2243.52 Q513.635 2234.61 511.349 2230.18 Q509.092 2225.73 504.549 2225.73 M504.549 2221.1 Q511.812 2221.1 515.631 2226.86 Q519.48 2232.59 519.48 2243.52 Q519.48 2254.43 515.631 2260.19 Q511.812 2265.92 504.549 2265.92 Q497.286 2265.92 493.438 2260.19 Q489.619 2254.43 489.619 2243.52 Q489.619 2232.59 493.438 2226.86 Q497.286 2221.1 504.549 2221.1 Z" fill="#000000" fill-rule="nonzero" fill-opacity="1" /><path clip-path="url(#clip430)" d="M542.251 2225.73 Q537.738 2225.73 535.452 2230.18 Q533.195 2234.61 533.195 2243.52 Q533.195 2252.41 535.452 2256.86 Q537.738 2261.29 542.251 2261.29 Q546.794 2261.29 549.051 2256.86 Q551.337 2252.41 551.337 2243.52 Q551.337 2234.61 549.051 2230.18 Q546.794 2225.73 542.251 2225.73 M542.251 2221.1 Q549.514 2221.1 553.334 2226.86 Q557.182 2232.59 557.182 2243.52 Q557.182 2254.43 553.334 2260.19 Q549.514 2265.92 542.251 2265.92 Q534.989 2265.92 531.14 2260.19 Q527.321 2254.43 527.321 2243.52 Q527.321 2232.59 531.14 2226.86 Q534.989 2221.1 542.251 2221.1 Z" fill="#000000" fill-rule="nonzero" fill-opacity="1" /><path clip-path="url(#clip430)" d="M579.954 2225.73 Q575.44 2225.73 573.154 2230.18 Q570.897 2234.61 570.897 2243.52 Q570.897 2252.41 573.154 2256.86 Q575.44 2261.29 579.954 2261.29 Q584.497 2261.29 586.753 2256.86 Q589.039 2252.41 589.039 2243.52 Q589.039 2234.61 586.753 2230.18 Q584.497 2225.73 579.954 2225.73 M579.954 2221.1 Q587.216 2221.1 591.036 2226.86 Q594.884 2232.59 594.884 2243.52 Q594.884 2254.43 591.036 2260.19 Q587.216 2265.92 579.954 2265.92 Q572.691 2265.92 568.843 2260.19 Q565.023 2254.43 565.023 2243.52 Q565.023 2232.59 568.843 2226.86 Q572.691 2221.1 579.954 2221.1 Z" fill="#000000" fill-rule="nonzero" fill-opacity="1" /><path clip-path="url(#clip430)" d="M1055.15 2244.04 L1092.25 2244.04 L1092.25 2248.96 L1055.15 2248.96 L1055.15 2244.04 Z" fill="#000000" fill-rule="nonzero" fill-opacity="1" /><path clip-path="url(#clip430)" d="M1104.92 2221.88 L1127.87 2221.88 L1127.87 2226.8 L1110.27 2226.8 L1110.27 2237.39 Q1111.55 2236.95 1112.82 2236.75 Q1114.09 2236.52 1115.37 2236.52 Q1122.6 2236.52 1126.83 2240.49 Q1131.05 2244.45 1131.05 2251.22 Q1131.05 2258.19 1126.71 2262.07 Q1122.37 2265.92 1114.47 2265.92 Q1111.75 2265.92 1108.91 2265.46 Q1106.11 2264.99 1103.1 2264.07 L1103.1 2258.19 Q1105.7 2259.61 1108.48 2260.31 Q1111.26 2261 1114.35 2261 Q1119.36 2261 1122.28 2258.37 Q1125.2 2255.73 1125.2 2251.22 Q1125.2 2246.71 1122.28 2244.07 Q1119.36 2241.44 1114.35 2241.44 Q1112.01 2241.44 1109.67 2241.96 Q1107.35 2242.48 1104.92 2243.58 L1104.92 2221.88 Z" fill="#000000" fill-rule="nonzero" fill-opacity="1" /><path clip-path="url(#clip430)" d="M1155.07 2225.73 Q1150.55 2225.73 1148.27 2230.18 Q1146.01 2234.61 1146.01 2243.52 Q1146.01 2252.41 1148.27 2256.86 Q1150.55 2261.29 1155.07 2261.29 Q1159.61 2261.29 1161.87 2256.86 Q1164.15 2252.41 1164.15 2243.52 Q1164.15 2234.61 1161.87 2230.18 Q1159.61 2225.73 1155.07 2225.73 M1155.07 2221.1 Q1162.33 2221.1 1166.15 2226.86 Q1170 2232.59 1170 2243.52 Q1170 2254.43 1166.15 2260.19 Q1162.33 2265.92 1155.07 2265.92 Q1147.8 2265.92 1143.95 2260.19 Q1140.14 2254.43 1140.14 2243.52 Q1140.14 2232.59 1143.95 2226.86 Q1147.8 2221.1 1155.07 2221.1 Z" fill="#000000" fill-rule="nonzero" fill-opacity="1" /><path clip-path="url(#clip430)" d="M1192.77 2225.73 Q1188.25 2225.73 1185.97 2230.18 Q1183.71 2234.61 1183.71 2243.52 Q1183.71 2252.41 1185.97 2256.86 Q1188.25 2261.29 1192.77 2261.29 Q1197.31 2261.29 1199.57 2256.86 Q1201.85 2252.41 1201.85 2243.52 Q1201.85 2234.61 1199.57 2230.18 Q1197.31 2225.73 1192.77 2225.73 M1192.77 2221.1 Q1200.03 2221.1 1203.85 2226.86 Q1207.7 2232.59 1207.7 2243.52 Q1207.7 2254.43 1203.85 2260.19 Q1200.03 2265.92 1192.77 2265.92 Q1185.51 2265.92 1181.66 2260.19 Q1177.84 2254.43 1177.84 2243.52 Q1177.84 2232.59 1181.66 2226.86 Q1185.51 2221.1 1192.77 2221.1 Z" fill="#000000" fill-rule="nonzero" fill-opacity="1" /><path clip-path="url(#clip430)" d="M1763.09 2225.73 Q1758.58 2225.73 1756.29 2230.18 Q1754.03 2234.61 1754.03 2243.52 Q1754.03 2252.41 1756.29 2256.86 Q1758.58 2261.29 1763.09 2261.29 Q1767.63 2261.29 1769.89 2256.86 Q1772.18 2252.41 1772.18 2243.52 Q1772.18 2234.61 1769.89 2230.18 Q1767.63 2225.73 1763.09 2225.73 M1763.09 2221.1 Q1770.35 2221.1 1774.17 2226.86 Q1778.02 2232.59 1778.02 2243.52 Q1778.02 2254.43 1774.17 2260.19 Q1770.35 2265.92 1763.09 2265.92 Q1755.83 2265.92 1751.98 2260.19 Q1748.16 2254.43 1748.16 2243.52 Q1748.16 2232.59 1751.98 2226.86 Q1755.83 2221.1 1763.09 2221.1 Z" fill="#000000" fill-rule="nonzero" fill-opacity="1" /><path clip-path="url(#clip430)" d="M2344.28 2221.88 L2367.23 2221.88 L2367.23 2226.8 L2349.63 2226.8 L2349.63 2237.39 Q2350.91 2236.95 2352.18 2236.75 Q2353.45 2236.52 2354.73 2236.52 Q2361.96 2236.52 2366.18 2240.49 Q2370.41 2244.45 2370.41 2251.22 Q2370.41 2258.19 2366.07 2262.07 Q2361.73 2265.92 2353.83 2265.92 Q2351.11 2265.92 2348.27 2265.46 Q2345.47 2264.99 2342.46 2264.07 L2342.46 2258.19 Q2345.06 2259.61 2347.84 2260.31 Q2350.62 2261 2353.71 2261 Q2358.72 2261 2361.64 2258.37 Q2364.56 2255.73 2364.56 2251.22 Q2364.56 2246.71 2361.64 2244.07 Q2358.72 2241.44 2353.71 2241.44 Q2351.37 2241.44 2349.03 2241.96 Q2346.71 2242.48 2344.28 2243.58 L2344.28 2221.88 Z" fill="#000000" fill-rule="nonzero" fill-opacity="1" /><path clip-path="url(#clip430)" d="M2394.42 2225.73 Q2389.91 2225.73 2387.62 2230.18 Q2385.37 2234.61 2385.37 2243.52 Q2385.37 2252.41 2387.62 2256.86 Q2389.91 2261.29 2394.42 2261.29 Q2398.97 2261.29 2401.22 2256.86 Q2403.51 2252.41 2403.51 2243.52 Q2403.51 2234.61 2401.22 2230.18 Q2398.97 2225.73 2394.42 2225.73 M2394.42 2221.1 Q2401.69 2221.1 2405.51 2226.86 Q2409.35 2232.59 2409.35 2243.52 Q2409.35 2254.43 2405.51 2260.19 Q2401.69 2265.92 2394.42 2265.92 Q2387.16 2265.92 2383.31 2260.19 Q2379.49 2254.43 2379.49 2243.52 Q2379.49 2232.59 2383.31 2226.86 Q2387.16 2221.1 2394.42 2221.1 Z" fill="#000000" fill-rule="nonzero" fill-opacity="1" /><path clip-path="url(#clip430)" d="M2432.13 2225.73 Q2427.61 2225.73 2425.33 2230.18 Q2423.07 2234.61 2423.07 2243.52 Q2423.07 2252.41 2425.33 2256.86 Q2427.61 2261.29 2432.13 2261.29 Q2436.67 2261.29 2438.93 2256.86 Q2441.21 2252.41 2441.21 2243.52 Q2441.21 2234.61 2438.93 2230.18 Q2436.67 2225.73 2432.13 2225.73 M2432.13 2221.1 Q2439.39 2221.1 2443.21 2226.86 Q2447.06 2232.59 2447.06 2243.52 Q2447.06 2254.43 2443.21 2260.19 Q2439.39 2265.92 2432.13 2265.92 Q2424.86 2265.92 2421.02 2260.19 Q2417.2 2254.43 2417.2 2243.52 Q2417.2 2232.59 2421.02 2226.86 Q2424.86 2221.1 2432.13 2221.1 Z" fill="#000000" fill-rule="nonzero" fill-opacity="1" /><path clip-path="url(#clip430)" d="M2957.08 2260.16 L2966.63 2260.16 L2966.63 2227.2 L2956.24 2229.29 L2956.24 2223.96 L2966.57 2221.88 L2972.42 2221.88 L2972.42 2260.16 L2981.96 2260.16 L2981.96 2265.08 L2957.08 2265.08 L2957.08 2260.16 Z" fill="#000000" fill-rule="nonzero" fill-opacity="1" /><path clip-path="url(#clip430)" d="M3006.27 2225.73 Q3001.76 2225.73 2999.47 2230.18 Q2997.21 2234.61 2997.21 2243.52 Q2997.21 2252.41 2999.47 2256.86 Q3001.76 2261.29 3006.27 2261.29 Q3010.81 2261.29 3013.07 2256.86 Q3015.36 2252.41 3015.36 2243.52 Q3015.36 2234.61 3013.07 2230.18 Q3010.81 2225.73 3006.27 2225.73 M3006.27 2221.1 Q3013.53 2221.1 3017.35 2226.86 Q3021.2 2232.59 3021.2 2243.52 Q3021.2 2254.43 3017.35 2260.19 Q3013.53 2265.92 3006.27 2265.92 Q2999.01 2265.92 2995.16 2260.19 Q2991.34 2254.43 2991.34 2243.52 Q2991.34 2232.59 2995.16 2226.86 Q2999.01 2221.1 3006.27 2221.1 Z" fill="#000000" fill-rule="nonzero" fill-opacity="1" /><path clip-path="url(#clip430)" d="M3043.97 2225.73 Q3039.46 2225.73 3037.17 2230.18 Q3034.92 2234.61 3034.92 2243.52 Q3034.92 2252.41 3037.17 2256.86 Q3039.46 2261.29 3043.97 2261.29 Q3048.51 2261.29 3050.77 2256.86 Q3053.06 2252.41 3053.06 2243.52 Q3053.06 2234.61 3050.77 2230.18 Q3048.51 2225.73 3043.97 2225.73 M3043.97 2221.1 Q3051.23 2221.1 3055.05 2226.86 Q3058.9 2232.59 3058.9 2243.52 Q3058.9 2254.43 3055.05 2260.19 Q3051.23 2265.92 3043.97 2265.92 Q3036.71 2265.92 3032.86 2260.19 Q3029.04 2254.43 3029.04 2243.52 Q3029.04 2232.59 3032.86 2226.86 Q3036.71 2221.1 3043.97 2221.1 Z" fill="#000000" fill-rule="nonzero" fill-opacity="1" /><path clip-path="url(#clip430)" d="M3081.67 2225.73 Q3077.16 2225.73 3074.87 2230.18 Q3072.62 2234.61 3072.62 2243.52 Q3072.62 2252.41 3074.87 2256.86 Q3077.16 2261.29 3081.67 2261.29 Q3086.22 2261.29 3088.47 2256.86 Q3090.76 2252.41 3090.76 2243.52 Q3090.76 2234.61 3088.47 2230.18 Q3086.22 2225.73 3081.67 2225.73 M3081.67 2221.1 Q3088.94 2221.1 3092.76 2226.86 Q3096.6 2232.59 3096.6 2243.52 Q3096.6 2254.43 3092.76 2260.19 Q3088.94 2265.92 3081.67 2265.92 Q3074.41 2265.92 3070.56 2260.19 Q3066.74 2254.43 3066.74 2243.52 Q3066.74 2232.59 3070.56 2226.86 Q3074.41 2221.1 3081.67 2221.1 Z" fill="#000000" fill-rule="nonzero" fill-opacity="1" /><path clip-path="url(#clip430)" d="M1507.87 2339.34 Q1510.32 2340.17 1512.61 2342.88 Q1514.94 2345.59 1517.27 2350.32 L1524.99 2365.67 L1516.82 2365.67 L1509.64 2351.27 Q1506.85 2345.62 1504.22 2343.78 Q1501.63 2341.94 1497.11 2341.94 L1488.84 2341.94 L1488.84 2365.67 L1481.24 2365.67 L1481.24 2309.51 L1498.39 2309.51 Q1508.02 2309.51 1512.76 2313.54 Q1517.5 2317.56 1517.5 2325.69 Q1517.5 2330.99 1515.02 2334.49 Q1512.57 2337.99 1507.87 2339.34 M1488.84 2315.76 L1488.84 2335.69 L1498.39 2335.69 Q1503.88 2335.69 1506.67 2333.17 Q1509.49 2330.61 1509.49 2325.69 Q1509.49 2320.76 1506.67 2318.28 Q1503.88 2315.76 1498.39 2315.76 L1488.84 2315.76 Z" fill="#000000" fill-rule="nonzero" fill-opacity="1" /><path clip-path="url(#clip430)" d="M1567.04 2342.88 L1567.04 2346.26 L1535.22 2346.26 Q1535.67 2353.41 1539.5 2357.17 Q1543.38 2360.89 1550.26 2360.89 Q1554.25 2360.89 1557.97 2359.92 Q1561.74 2358.94 1565.42 2356.98 L1565.42 2363.53 Q1561.7 2365.11 1557.79 2365.94 Q1553.87 2366.76 1549.85 2366.76 Q1539.77 2366.76 1533.86 2360.89 Q1527.99 2355.03 1527.99 2345.02 Q1527.99 2334.68 1533.56 2328.62 Q1539.17 2322.53 1548.65 2322.53 Q1557.15 2322.53 1562.07 2328.02 Q1567.04 2333.47 1567.04 2342.88 M1560.12 2340.85 Q1560.04 2335.17 1556.92 2331.78 Q1553.84 2328.39 1548.72 2328.39 Q1542.93 2328.39 1539.43 2331.67 Q1535.97 2334.94 1535.44 2340.88 L1560.12 2340.85 Z" fill="#000000" fill-rule="nonzero" fill-opacity="1" /><path clip-path="url(#clip430)" d="M1605.26 2324.78 L1605.26 2331.33 Q1602.32 2329.82 1599.16 2329.07 Q1596 2328.32 1592.62 2328.32 Q1587.46 2328.32 1584.87 2329.9 Q1582.31 2331.48 1582.31 2334.64 Q1582.31 2337.05 1584.15 2338.44 Q1586 2339.79 1591.56 2341.03 L1593.93 2341.56 Q1601.31 2343.14 1604.39 2346.04 Q1607.51 2348.9 1607.51 2354.05 Q1607.51 2359.92 1602.85 2363.34 Q1598.22 2366.76 1590.1 2366.76 Q1586.71 2366.76 1583.03 2366.09 Q1579.38 2365.45 1575.31 2364.13 L1575.31 2356.98 Q1579.15 2358.98 1582.88 2359.99 Q1586.6 2360.97 1590.25 2360.97 Q1595.14 2360.97 1597.77 2359.31 Q1600.4 2357.62 1600.4 2354.58 Q1600.4 2351.75 1598.49 2350.25 Q1596.61 2348.74 1590.17 2347.35 L1587.77 2346.79 Q1581.33 2345.43 1578.47 2342.65 Q1575.62 2339.83 1575.62 2334.94 Q1575.62 2329 1579.83 2325.76 Q1584.04 2322.53 1591.79 2322.53 Q1595.63 2322.53 1599.01 2323.09 Q1602.4 2323.66 1605.26 2324.78 Z" fill="#000000" fill-rule="nonzero" fill-opacity="1" /><path clip-path="url(#clip430)" d="M1618.54 2323.54 L1625.46 2323.54 L1625.46 2365.67 L1618.54 2365.67 L1618.54 2323.54 M1618.54 2307.14 L1625.46 2307.14 L1625.46 2315.91 L1618.54 2315.91 L1618.54 2307.14 Z" fill="#000000" fill-rule="nonzero" fill-opacity="1" /><path clip-path="url(#clip430)" d="M1667.66 2329.94 L1667.66 2307.14 L1674.58 2307.14 L1674.58 2365.67 L1667.66 2365.67 L1667.66 2359.35 Q1665.48 2363.11 1662.13 2364.96 Q1658.82 2366.76 1654.16 2366.76 Q1646.52 2366.76 1641.71 2360.67 Q1636.93 2354.58 1636.93 2344.64 Q1636.93 2334.71 1641.71 2328.62 Q1646.52 2322.53 1654.16 2322.53 Q1658.82 2322.53 1662.13 2324.37 Q1665.48 2326.18 1667.66 2329.94 M1644.08 2344.64 Q1644.08 2352.28 1647.2 2356.64 Q1650.36 2360.97 1655.85 2360.97 Q1661.34 2360.97 1664.5 2356.64 Q1667.66 2352.28 1667.66 2344.64 Q1667.66 2337.01 1664.5 2332.68 Q1661.34 2328.32 1655.85 2328.32 Q1650.36 2328.32 1647.2 2332.68 Q1644.08 2337.01 1644.08 2344.64 Z" fill="#000000" fill-rule="nonzero" fill-opacity="1" /><path clip-path="url(#clip430)" d="M1688.12 2349.05 L1688.12 2323.54 L1695.05 2323.54 L1695.05 2348.78 Q1695.05 2354.76 1697.38 2357.77 Q1699.71 2360.74 1704.37 2360.74 Q1709.98 2360.74 1713.21 2357.17 Q1716.49 2353.6 1716.49 2347.43 L1716.49 2323.54 L1723.41 2323.54 L1723.41 2365.67 L1716.49 2365.67 L1716.49 2359.2 Q1713.97 2363.04 1710.62 2364.92 Q1707.31 2366.76 1702.91 2366.76 Q1695.65 2366.76 1691.89 2362.25 Q1688.12 2357.73 1688.12 2349.05 M1705.54 2322.53 L1705.54 2322.53 Z" fill="#000000" fill-rule="nonzero" fill-opacity="1" /><path clip-path="url(#clip430)" d="M1756.81 2344.49 Q1748.42 2344.49 1745.19 2346.41 Q1741.95 2348.33 1741.95 2352.96 Q1741.95 2356.64 1744.36 2358.83 Q1746.8 2360.97 1750.98 2360.97 Q1756.73 2360.97 1760.2 2356.91 Q1763.69 2352.81 1763.69 2346.04 L1763.69 2344.49 L1756.81 2344.49 M1770.61 2341.64 L1770.61 2365.67 L1763.69 2365.67 L1763.69 2359.28 Q1761.32 2363.11 1757.79 2364.96 Q1754.25 2366.76 1749.14 2366.76 Q1742.67 2366.76 1738.83 2363.15 Q1735.03 2359.5 1735.03 2353.41 Q1735.03 2346.3 1739.77 2342.69 Q1744.55 2339.08 1753.99 2339.08 L1763.69 2339.08 L1763.69 2338.4 Q1763.69 2333.62 1760.53 2331.03 Q1757.41 2328.39 1751.73 2328.39 Q1748.12 2328.39 1744.7 2329.26 Q1741.27 2330.13 1738.11 2331.86 L1738.11 2325.46 Q1741.91 2323.99 1745.49 2323.28 Q1749.06 2322.53 1752.45 2322.53 Q1761.59 2322.53 1766.1 2327.27 Q1770.61 2332.01 1770.61 2341.64 Z" fill="#000000" fill-rule="nonzero" fill-opacity="1" /><path clip-path="url(#clip430)" d="M1784.87 2307.14 L1791.79 2307.14 L1791.79 2365.67 L1784.87 2365.67 L1784.87 2307.14 Z" fill="#000000" fill-rule="nonzero" fill-opacity="1" /><path clip-path="url(#clip430)" d="M1847.39 2307.22 Q1842.35 2315.87 1839.9 2324.33 Q1837.46 2332.8 1837.46 2341.49 Q1837.46 2350.17 1839.9 2358.71 Q1842.39 2367.21 1847.39 2375.83 L1841.37 2375.83 Q1835.73 2366.99 1832.91 2358.45 Q1830.12 2349.91 1830.12 2341.49 Q1830.12 2333.1 1832.91 2324.6 Q1835.69 2316.09 1841.37 2307.22 L1847.39 2307.22 Z" fill="#000000" fill-rule="nonzero" fill-opacity="1" /><path clip-path="url(#clip430)" d="M1878.35 2369.58 Q1875.41 2377.11 1872.63 2379.4 Q1869.84 2381.7 1865.18 2381.7 L1859.65 2381.7 L1859.65 2375.9 L1863.71 2375.9 Q1866.57 2375.9 1868.15 2374.55 Q1869.73 2373.19 1871.65 2368.15 L1872.89 2364.99 L1855.85 2323.54 L1863.19 2323.54 L1876.35 2356.49 L1889.52 2323.54 L1896.85 2323.54 L1878.35 2369.58 Z" fill="#000000" fill-rule="nonzero" fill-opacity="1" /><path clip-path="url(#clip430)" d="M1877.1 2304.06 L1882.67 2304.06 L1891.89 2318.2 L1886.66 2318.2 L1879.89 2308.99 L1873.12 2318.2 L1867.89 2318.2 L1877.1 2304.06 M1879.89 2322.53 L1879.89 2322.53 Z" fill="#000000" fill-rule="nonzero" fill-opacity="1" /><path clip-path="url(#clip430)" d="M1927.4 2341.49 L1947.67 2341.49 L1947.67 2347.65 L1927.4 2347.65 L1927.4 2341.49 Z" fill="#000000" fill-rule="nonzero" fill-opacity="1" /><path clip-path="url(#clip430)" d="M2000.71 2369.58 Q1997.77 2377.11 1994.99 2379.4 Q1992.21 2381.7 1987.54 2381.7 L1982.01 2381.7 L1982.01 2375.9 L1986.08 2375.9 Q1988.94 2375.9 1990.52 2374.55 Q1992.09 2373.19 1994.01 2368.15 L1995.25 2364.99 L1978.21 2323.54 L1985.55 2323.54 L1998.72 2356.49 L2011.88 2323.54 L2019.22 2323.54 L2000.71 2369.58 Z" fill="#000000" fill-rule="nonzero" fill-opacity="1" /><path clip-path="url(#clip430)" d="M2027.68 2307.22 L2033.7 2307.22 Q2039.34 2316.09 2042.12 2324.6 Q2044.94 2333.1 2044.94 2341.49 Q2044.94 2349.91 2042.12 2358.45 Q2039.34 2366.99 2033.7 2375.83 L2027.68 2375.83 Q2032.68 2367.21 2035.13 2358.71 Q2037.61 2350.17 2037.61 2341.49 Q2037.61 2332.8 2035.13 2324.33 Q2032.68 2315.87 2027.68 2307.22 Z" fill="#000000" fill-rule="nonzero" fill-opacity="1" /><polyline clip-path="url(#clip432)" style="stroke:#000000; stroke-linecap:round; stroke-linejoin:round; stroke-width:2; stroke-opacity:0.1; fill:none" points="373.427,2185.48 3152.76,2185.48 "/>
<polyline clip-path="url(#clip432)" style="stroke:#000000; stroke-linecap:round; stroke-linejoin:round; stroke-width:2; stroke-opacity:0.1; fill:none" points="373.427,1645.21 3152.76,1645.21 "/>
<polyline clip-path="url(#clip432)" style="stroke:#000000; stroke-linecap:round; stroke-linejoin:round; stroke-width:2; stroke-opacity:0.1; fill:none" points="373.427,1104.94 3152.76,1104.94 "/>
<polyline clip-path="url(#clip432)" style="stroke:#000000; stroke-linecap:round; stroke-linejoin:round; stroke-width:2; stroke-opacity:0.1; fill:none" points="373.427,564.663 3152.76,564.663 "/>
<polyline clip-path="url(#clip430)" style="stroke:#000000; stroke-linecap:round; stroke-linejoin:round; stroke-width:4; stroke-opacity:1; fill:none" points="373.427,2185.48 373.427,47.2441 "/>
<polyline clip-path="url(#clip430)" style="stroke:#000000; stroke-linecap:round; stroke-linejoin:round; stroke-width:4; stroke-opacity:1; fill:none" points="373.427,2185.48 392.325,2185.48 "/>
<polyline clip-path="url(#clip430)" style="stroke:#000000; stroke-linecap:round; stroke-linejoin:round; stroke-width:4; stroke-opacity:1; fill:none" points="373.427,1645.21 392.325,1645.21 "/>
<polyline clip-path="url(#clip430)" style="stroke:#000000; stroke-linecap:round; stroke-linejoin:round; stroke-width:4; stroke-opacity:1; fill:none" points="373.427,1104.94 392.325,1104.94 "/>
<polyline clip-path="url(#clip430)" style="stroke:#000000; stroke-linecap:round; stroke-linejoin:round; stroke-width:4; stroke-opacity:1; fill:none" points="373.427,564.663 392.325,564.663 "/>
<path clip-path="url(#clip430)" d="M140.851 2167.73 Q136.337 2167.73 134.051 2172.18 Q131.794 2176.61 131.794 2185.52 Q131.794 2194.41 134.051 2198.86 Q136.337 2203.29 140.851 2203.29 Q145.393 2203.29 147.65 2198.86 Q149.936 2194.41 149.936 2185.52 Q149.936 2176.61 147.65 2172.18 Q145.393 2167.73 140.851 2167.73 M140.851 2163.1 Q148.113 2163.1 151.933 2168.86 Q155.781 2174.59 155.781 2185.52 Q155.781 2196.43 151.933 2202.19 Q148.113 2207.92 140.851 2207.92 Q133.588 2207.92 129.74 2202.19 Q125.92 2196.43 125.92 2185.52 Q125.92 2174.59 129.74 2168.86 Q133.588 2163.1 140.851 2163.1 Z" fill="#000000" fill-rule="nonzero" fill-opacity="1" /><path clip-path="url(#clip430)" d="M166.053 2199.73 L172.158 2199.73 L172.158 2207.08 L166.053 2207.08 L166.053 2199.73 Z" fill="#000000" fill-rule="nonzero" fill-opacity="1" /><path clip-path="url(#clip430)" d="M197.39 2167.73 Q192.876 2167.73 190.59 2172.18 Q188.333 2176.61 188.333 2185.52 Q188.333 2194.41 190.59 2198.86 Q192.876 2203.29 197.39 2203.29 Q201.932 2203.29 204.189 2198.86 Q206.475 2194.41 206.475 2185.52 Q206.475 2176.61 204.189 2172.18 Q201.932 2167.73 197.39 2167.73 M197.39 2163.1 Q204.652 2163.1 208.472 2168.86 Q212.32 2174.59 212.32 2185.52 Q212.32 2196.43 208.472 2202.19 Q204.652 2207.92 197.39 2207.92 Q190.127 2207.92 186.279 2202.19 Q182.459 2196.43 182.459 2185.52 Q182.459 2174.59 186.279 2168.86 Q190.127 2163.1 197.39 2163.1 Z" fill="#000000" fill-rule="nonzero" fill-opacity="1" /><path clip-path="url(#clip430)" d="M235.092 2167.73 Q230.578 2167.73 228.292 2172.18 Q226.035 2176.61 226.035 2185.52 Q226.035 2194.41 228.292 2198.86 Q230.578 2203.29 235.092 2203.29 Q239.635 2203.29 241.892 2198.86 Q244.178 2194.41 244.178 2185.52 Q244.178 2176.61 241.892 2172.18 Q239.635 2167.73 235.092 2167.73 M235.092 2163.1 Q242.355 2163.1 246.174 2168.86 Q250.023 2174.59 250.023 2185.52 Q250.023 2196.43 246.174 2202.19 Q242.355 2207.92 235.092 2207.92 Q227.829 2207.92 223.981 2202.19 Q220.162 2196.43 220.162 2185.52 Q220.162 2174.59 223.981 2168.86 Q227.829 2163.1 235.092 2163.1 Z" fill="#000000" fill-rule="nonzero" fill-opacity="1" /><path clip-path="url(#clip430)" d="M272.794 2167.73 Q268.281 2167.73 265.995 2172.18 Q263.738 2176.61 263.738 2185.52 Q263.738 2194.41 265.995 2198.86 Q268.281 2203.29 272.794 2203.29 Q277.337 2203.29 279.594 2198.86 Q281.88 2194.41 281.88 2185.52 Q281.88 2176.61 279.594 2172.18 Q277.337 2167.73 272.794 2167.73 M272.794 2163.1 Q280.057 2163.1 283.876 2168.86 Q287.725 2174.59 287.725 2185.52 Q287.725 2196.43 283.876 2202.19 Q280.057 2207.92 272.794 2207.92 Q265.532 2207.92 261.683 2202.19 Q257.864 2196.43 257.864 2185.52 Q257.864 2174.59 261.683 2168.86 Q265.532 2163.1 272.794 2163.1 Z" fill="#000000" fill-rule="nonzero" fill-opacity="1" /><path clip-path="url(#clip430)" d="M310.497 2167.73 Q305.983 2167.73 303.697 2172.18 Q301.44 2176.61 301.44 2185.52 Q301.44 2194.41 303.697 2198.86 Q305.983 2203.29 310.497 2203.29 Q315.04 2203.29 317.296 2198.86 Q319.582 2194.41 319.582 2185.52 Q319.582 2176.61 317.296 2172.18 Q315.04 2167.73 310.497 2167.73 M310.497 2163.1 Q317.759 2163.1 321.579 2168.86 Q325.427 2174.59 325.427 2185.52 Q325.427 2196.43 321.579 2202.19 Q317.759 2207.92 310.497 2207.92 Q303.234 2207.92 299.386 2202.19 Q295.566 2196.43 295.566 2185.52 Q295.566 2174.59 299.386 2168.86 Q303.234 2163.1 310.497 2163.1 Z" fill="#000000" fill-rule="nonzero" fill-opacity="1" /><path clip-path="url(#clip430)" d="M142.095 1627.46 Q137.581 1627.46 135.295 1631.91 Q133.038 1636.34 133.038 1645.25 Q133.038 1654.13 135.295 1658.59 Q137.581 1663.02 142.095 1663.02 Q146.638 1663.02 148.895 1658.59 Q151.18 1654.13 151.18 1645.25 Q151.18 1636.34 148.895 1631.91 Q146.638 1627.46 142.095 1627.46 M142.095 1622.83 Q149.358 1622.83 153.177 1628.58 Q157.025 1634.31 157.025 1645.25 Q157.025 1656.16 153.177 1661.92 Q149.358 1667.65 142.095 1667.65 Q134.832 1667.65 130.984 1661.92 Q127.164 1656.16 127.164 1645.25 Q127.164 1634.31 130.984 1628.58 Q134.832 1622.83 142.095 1622.83 Z" fill="#000000" fill-rule="nonzero" fill-opacity="1" /><path clip-path="url(#clip430)" d="M167.297 1659.46 L173.403 1659.46 L173.403 1666.81 L167.297 1666.81 L167.297 1659.46 Z" fill="#000000" fill-rule="nonzero" fill-opacity="1" /><path clip-path="url(#clip430)" d="M198.634 1627.46 Q194.12 1627.46 191.834 1631.91 Q189.577 1636.34 189.577 1645.25 Q189.577 1654.13 191.834 1658.59 Q194.12 1663.02 198.634 1663.02 Q203.177 1663.02 205.434 1658.59 Q207.719 1654.13 207.719 1645.25 Q207.719 1636.34 205.434 1631.91 Q203.177 1627.46 198.634 1627.46 M198.634 1622.83 Q205.897 1622.83 209.716 1628.58 Q213.564 1634.31 213.564 1645.25 Q213.564 1656.16 209.716 1661.92 Q205.897 1667.65 198.634 1667.65 Q191.371 1667.65 187.523 1661.92 Q183.703 1656.16 183.703 1645.25 Q183.703 1634.31 187.523 1628.58 Q191.371 1622.83 198.634 1622.83 Z" fill="#000000" fill-rule="nonzero" fill-opacity="1" /><path clip-path="url(#clip430)" d="M236.336 1627.46 Q231.822 1627.46 229.537 1631.91 Q227.28 1636.34 227.28 1645.25 Q227.28 1654.13 229.537 1658.59 Q231.822 1663.02 236.336 1663.02 Q240.879 1663.02 243.136 1658.59 Q245.422 1654.13 245.422 1645.25 Q245.422 1636.34 243.136 1631.91 Q240.879 1627.46 236.336 1627.46 M236.336 1622.83 Q243.599 1622.83 247.418 1628.58 Q251.267 1634.31 251.267 1645.25 Q251.267 1656.16 247.418 1661.92 Q243.599 1667.65 236.336 1667.65 Q229.074 1667.65 225.225 1661.92 Q221.406 1656.16 221.406 1645.25 Q221.406 1634.31 225.225 1628.58 Q229.074 1622.83 236.336 1622.83 Z" fill="#000000" fill-rule="nonzero" fill-opacity="1" /><path clip-path="url(#clip430)" d="M274.039 1627.46 Q269.525 1627.46 267.239 1631.91 Q264.982 1636.34 264.982 1645.25 Q264.982 1654.13 267.239 1658.59 Q269.525 1663.02 274.039 1663.02 Q278.581 1663.02 280.838 1658.59 Q283.124 1654.13 283.124 1645.25 Q283.124 1636.34 280.838 1631.91 Q278.581 1627.46 274.039 1627.46 M274.039 1622.83 Q281.301 1622.83 285.121 1628.58 Q288.969 1634.31 288.969 1645.25 Q288.969 1656.16 285.121 1661.92 Q281.301 1667.65 274.039 1667.65 Q266.776 1667.65 262.928 1661.92 Q259.108 1656.16 259.108 1645.25 Q259.108 1634.31 262.928 1628.58 Q266.776 1622.83 274.039 1622.83 Z" fill="#000000" fill-rule="nonzero" fill-opacity="1" /><path clip-path="url(#clip430)" d="M299.299 1623.61 L322.244 1623.61 L322.244 1628.53 L304.652 1628.53 L304.652 1639.12 Q305.925 1638.68 307.198 1638.48 Q308.471 1638.25 309.744 1638.25 Q316.978 1638.25 321.203 1642.21 Q325.427 1646.18 325.427 1652.95 Q325.427 1659.92 321.087 1663.8 Q316.747 1667.65 308.847 1667.65 Q306.128 1667.65 303.292 1667.18 Q300.485 1666.72 297.476 1665.79 L297.476 1659.92 Q300.08 1661.34 302.858 1662.03 Q305.636 1662.73 308.732 1662.73 Q313.737 1662.73 316.66 1660.09 Q319.582 1657.46 319.582 1652.95 Q319.582 1648.43 316.66 1645.8 Q313.737 1643.17 308.732 1643.17 Q306.388 1643.17 304.044 1643.69 Q301.729 1644.21 299.299 1645.31 L299.299 1623.61 Z" fill="#000000" fill-rule="nonzero" fill-opacity="1" /><path clip-path="url(#clip430)" d="M140.851 1087.18 Q136.337 1087.18 134.051 1091.64 Q131.794 1096.07 131.794 1104.98 Q131.794 1113.86 134.051 1118.32 Q136.337 1122.74 140.851 1122.74 Q145.393 1122.74 147.65 1118.32 Q149.936 1113.86 149.936 1104.98 Q149.936 1096.07 147.65 1091.64 Q145.393 1087.18 140.851 1087.18 M140.851 1082.55 Q148.113 1082.55 151.933 1088.31 Q155.781 1094.04 155.781 1104.98 Q155.781 1115.89 151.933 1121.65 Q148.113 1127.37 140.851 1127.37 Q133.588 1127.37 129.74 1121.65 Q125.92 1115.89 125.92 1104.98 Q125.92 1094.04 129.74 1088.31 Q133.588 1082.55 140.851 1082.55 Z" fill="#000000" fill-rule="nonzero" fill-opacity="1" /><path clip-path="url(#clip430)" d="M166.053 1119.19 L172.158 1119.19 L172.158 1126.54 L166.053 1126.54 L166.053 1119.19 Z" fill="#000000" fill-rule="nonzero" fill-opacity="1" /><path clip-path="url(#clip430)" d="M197.39 1087.18 Q192.876 1087.18 190.59 1091.64 Q188.333 1096.07 188.333 1104.98 Q188.333 1113.86 190.59 1118.32 Q192.876 1122.74 197.39 1122.74 Q201.932 1122.74 204.189 1118.32 Q206.475 1113.86 206.475 1104.98 Q206.475 1096.07 204.189 1091.64 Q201.932 1087.18 197.39 1087.18 M197.39 1082.55 Q204.652 1082.55 208.472 1088.31 Q212.32 1094.04 212.32 1104.98 Q212.32 1115.89 208.472 1121.65 Q204.652 1127.37 197.39 1127.37 Q190.127 1127.37 186.279 1121.65 Q182.459 1115.89 182.459 1104.98 Q182.459 1094.04 186.279 1088.31 Q190.127 1082.55 197.39 1082.55 Z" fill="#000000" fill-rule="nonzero" fill-opacity="1" /><path clip-path="url(#clip430)" d="M235.092 1087.18 Q230.578 1087.18 228.292 1091.64 Q226.035 1096.07 226.035 1104.98 Q226.035 1113.86 228.292 1118.32 Q230.578 1122.74 235.092 1122.74 Q239.635 1122.74 241.892 1118.32 Q244.178 1113.86 244.178 1104.98 Q244.178 1096.07 241.892 1091.64 Q239.635 1087.18 235.092 1087.18 M235.092 1082.55 Q242.355 1082.55 246.174 1088.31 Q250.023 1094.04 250.023 1104.98 Q250.023 1115.89 246.174 1121.65 Q242.355 1127.37 235.092 1127.37 Q227.829 1127.37 223.981 1121.65 Q220.162 1115.89 220.162 1104.98 Q220.162 1094.04 223.981 1088.31 Q227.829 1082.55 235.092 1082.55 Z" fill="#000000" fill-rule="nonzero" fill-opacity="1" /><path clip-path="url(#clip430)" d="M261.307 1121.62 L270.856 1121.62 L270.856 1088.66 L260.468 1090.74 L260.468 1085.42 L270.798 1083.34 L276.643 1083.34 L276.643 1121.62 L286.191 1121.62 L286.191 1126.54 L261.307 1126.54 L261.307 1121.62 Z" fill="#000000" fill-rule="nonzero" fill-opacity="1" /><path clip-path="url(#clip430)" d="M310.497 1087.18 Q305.983 1087.18 303.697 1091.64 Q301.44 1096.07 301.44 1104.98 Q301.44 1113.86 303.697 1118.32 Q305.983 1122.74 310.497 1122.74 Q315.04 1122.74 317.296 1118.32 Q319.582 1113.86 319.582 1104.98 Q319.582 1096.07 317.296 1091.64 Q315.04 1087.18 310.497 1087.18 M310.497 1082.55 Q317.759 1082.55 321.579 1088.31 Q325.427 1094.04 325.427 1104.98 Q325.427 1115.89 321.579 1121.65 Q317.759 1127.37 310.497 1127.37 Q303.234 1127.37 299.386 1121.65 Q295.566 1115.89 295.566 1104.98 Q295.566 1094.04 299.386 1088.31 Q303.234 1082.55 310.497 1082.55 Z" fill="#000000" fill-rule="nonzero" fill-opacity="1" /><path clip-path="url(#clip430)" d="M142.095 546.911 Q137.581 546.911 135.295 551.367 Q133.038 555.794 133.038 564.706 Q133.038 573.589 135.295 578.045 Q137.581 582.472 142.095 582.472 Q146.638 582.472 148.895 578.045 Q151.18 573.589 151.18 564.706 Q151.18 555.794 148.895 551.367 Q146.638 546.911 142.095 546.911 M142.095 542.282 Q149.358 542.282 153.177 548.04 Q157.025 553.769 157.025 564.706 Q157.025 575.615 153.177 581.373 Q149.358 587.102 142.095 587.102 Q134.832 587.102 130.984 581.373 Q127.164 575.615 127.164 564.706 Q127.164 553.769 130.984 548.04 Q134.832 542.282 142.095 542.282 Z" fill="#000000" fill-rule="nonzero" fill-opacity="1" /><path clip-path="url(#clip430)" d="M167.297 578.913 L173.403 578.913 L173.403 586.263 L167.297 586.263 L167.297 578.913 Z" fill="#000000" fill-rule="nonzero" fill-opacity="1" /><path clip-path="url(#clip430)" d="M198.634 546.911 Q194.12 546.911 191.834 551.367 Q189.577 555.794 189.577 564.706 Q189.577 573.589 191.834 578.045 Q194.12 582.472 198.634 582.472 Q203.177 582.472 205.434 578.045 Q207.719 573.589 207.719 564.706 Q207.719 555.794 205.434 551.367 Q203.177 546.911 198.634 546.911 M198.634 542.282 Q205.897 542.282 209.716 548.04 Q213.564 553.769 213.564 564.706 Q213.564 575.615 209.716 581.373 Q205.897 587.102 198.634 587.102 Q191.371 587.102 187.523 581.373 Q183.703 575.615 183.703 564.706 Q183.703 553.769 187.523 548.04 Q191.371 542.282 198.634 542.282 Z" fill="#000000" fill-rule="nonzero" fill-opacity="1" /><path clip-path="url(#clip430)" d="M236.336 546.911 Q231.822 546.911 229.537 551.367 Q227.28 555.794 227.28 564.706 Q227.28 573.589 229.537 578.045 Q231.822 582.472 236.336 582.472 Q240.879 582.472 243.136 578.045 Q245.422 573.589 245.422 564.706 Q245.422 555.794 243.136 551.367 Q240.879 546.911 236.336 546.911 M236.336 542.282 Q243.599 542.282 247.418 548.04 Q251.267 553.769 251.267 564.706 Q251.267 575.615 247.418 581.373 Q243.599 587.102 236.336 587.102 Q229.074 587.102 225.225 581.373 Q221.406 575.615 221.406 564.706 Q221.406 553.769 225.225 548.04 Q229.074 542.282 236.336 542.282 Z" fill="#000000" fill-rule="nonzero" fill-opacity="1" /><path clip-path="url(#clip430)" d="M262.551 581.344 L272.1 581.344 L272.1 548.387 L261.712 550.47 L261.712 545.146 L272.042 543.063 L277.887 543.063 L277.887 581.344 L287.435 581.344 L287.435 586.263 L262.551 586.263 L262.551 581.344 Z" fill="#000000" fill-rule="nonzero" fill-opacity="1" /><path clip-path="url(#clip430)" d="M299.299 543.063 L322.244 543.063 L322.244 547.982 L304.652 547.982 L304.652 558.572 Q305.925 558.138 307.198 557.936 Q308.471 557.704 309.744 557.704 Q316.978 557.704 321.203 561.668 Q325.427 565.632 325.427 572.403 Q325.427 579.376 321.087 583.254 Q316.747 587.102 308.847 587.102 Q306.128 587.102 303.292 586.639 Q300.485 586.176 297.476 585.25 L297.476 579.376 Q300.08 580.794 302.858 581.489 Q305.636 582.183 308.732 582.183 Q313.737 582.183 316.66 579.55 Q319.582 576.917 319.582 572.403 Q319.582 567.889 316.66 565.256 Q313.737 562.623 308.732 562.623 Q306.388 562.623 304.044 563.144 Q301.729 563.665 299.299 564.764 L299.299 543.063 Z" fill="#000000" fill-rule="nonzero" fill-opacity="1" /><path clip-path="url(#clip430)" d="M11.1563 1250.27 L54.828 1250.27 L54.828 1241.1 Q54.828 1229.47 49.5618 1224.09 Q44.2956 1218.68 32.9357 1218.68 Q21.6511 1218.68 16.4225 1224.09 Q11.1563 1229.47 11.1563 1241.1 L11.1563 1250.27 M4.91216 1257.87 L4.91216 1242.26 Q4.91216 1225.94 11.7206 1218.3 Q18.4914 1210.66 32.9357 1210.66 Q47.4553 1210.66 54.2637 1218.34 Q61.0722 1226.01 61.0722 1242.26 L61.0722 1257.87 L4.91216 1257.87 Z" fill="#000000" fill-rule="nonzero" fill-opacity="1" /><path clip-path="url(#clip430)" d="M38.2771 1162.82 L41.6625 1162.82 L41.6625 1194.64 Q48.8095 1194.19 52.571 1190.35 Q56.295 1186.48 56.295 1179.59 Q56.295 1175.61 55.317 1171.88 Q54.339 1168.12 52.383 1164.43 L58.9281 1164.43 Q60.5079 1168.16 61.3355 1172.07 Q62.163 1175.98 62.163 1180.01 Q62.163 1190.09 56.295 1195.99 Q50.427 1201.86 40.4212 1201.86 Q30.077 1201.86 24.0209 1196.29 Q17.9271 1190.69 17.9271 1181.21 Q17.9271 1172.71 23.419 1167.78 Q28.8733 1162.82 38.2771 1162.82 M36.2459 1169.74 Q30.566 1169.81 27.1806 1172.94 Q23.7952 1176.02 23.7952 1181.14 Q23.7952 1186.93 27.0677 1190.43 Q30.3403 1193.89 36.2835 1194.41 L36.2459 1169.74 Z" fill="#000000" fill-rule="nonzero" fill-opacity="1" /><path clip-path="url(#clip430)" d="M35.6441 1116.44 L61.0722 1116.44 L61.0722 1123.36 L35.8697 1123.36 Q29.8889 1123.36 26.9172 1125.69 Q23.9456 1128.02 23.9456 1132.69 Q23.9456 1138.29 27.5191 1141.53 Q31.0926 1144.76 37.2615 1144.76 L61.0722 1144.76 L61.0722 1151.72 L18.9428 1151.72 L18.9428 1144.76 L25.4879 1144.76 Q21.6887 1142.28 19.8079 1138.93 Q17.9271 1135.55 17.9271 1131.14 Q17.9271 1123.89 22.441 1120.16 Q26.9172 1116.44 35.6441 1116.44 Z" fill="#000000" fill-rule="nonzero" fill-opacity="1" /><path clip-path="url(#clip430)" d="M20.1841 1075.77 L26.7292 1075.77 Q25.2245 1078.71 24.4722 1081.87 Q23.7199 1085.03 23.7199 1088.41 Q23.7199 1093.57 25.2998 1096.16 Q26.8796 1098.72 30.0393 1098.72 Q32.4467 1098.72 33.8385 1096.88 Q35.1927 1095.03 36.434 1089.47 L36.9606 1087.1 Q38.5404 1079.72 41.4368 1076.64 Q44.2956 1073.52 49.449 1073.52 Q55.317 1073.52 58.74 1078.18 Q62.163 1082.81 62.163 1090.93 Q62.163 1094.32 61.4859 1098.01 Q60.8465 1101.65 59.5299 1105.72 L52.383 1105.72 Q54.3766 1101.88 55.3922 1098.16 Q56.3702 1094.43 56.3702 1090.78 Q56.3702 1085.89 54.7151 1083.26 Q53.0224 1080.63 49.9756 1080.63 Q47.1544 1080.63 45.6498 1082.55 Q44.1452 1084.43 42.7534 1090.86 L42.1892 1093.27 Q40.835 1099.7 38.0514 1102.56 Q35.2303 1105.42 30.3403 1105.42 Q24.397 1105.42 21.1621 1101.2 Q17.9271 1096.99 17.9271 1089.24 Q17.9271 1085.4 18.4914 1082.02 Q19.0556 1078.63 20.1841 1075.77 Z" fill="#000000" fill-rule="nonzero" fill-opacity="1" /><path clip-path="url(#clip430)" d="M18.9428 1062.5 L18.9428 1055.58 L61.0722 1055.58 L61.0722 1062.5 L18.9428 1062.5 M2.54238 1062.5 L2.54238 1055.58 L11.3068 1055.58 L11.3068 1062.5 L2.54238 1062.5 Z" fill="#000000" fill-rule="nonzero" fill-opacity="1" /><path clip-path="url(#clip430)" d="M6.98101 1034.25 L18.9428 1034.25 L18.9428 1019.99 L24.3218 1019.99 L24.3218 1034.25 L47.192 1034.25 Q52.3454 1034.25 53.8124 1032.86 Q55.2794 1031.43 55.2794 1027.1 L55.2794 1019.99 L61.0722 1019.99 L61.0722 1027.1 Q61.0722 1035.11 58.1005 1038.16 Q55.0913 1041.21 47.192 1041.21 L24.3218 1041.21 L24.3218 1046.28 L18.9428 1046.28 L18.9428 1041.21 L6.98101 1041.21 L6.98101 1034.25 Z" fill="#000000" fill-rule="nonzero" fill-opacity="1" /><path clip-path="url(#clip430)" d="M64.9842 993.359 Q72.5073 996.293 74.8018 999.077 Q77.0964 1001.86 77.0964 1006.52 L77.0964 1012.05 L71.3036 1012.05 L71.3036 1007.99 Q71.3036 1005.13 69.9494 1003.55 Q68.5953 1001.97 63.5548 1000.05 L60.3951 998.813 L18.9428 1015.85 L18.9428 1008.52 L51.894 995.353 L18.9428 982.187 L18.9428 974.852 L64.9842 993.359 Z" fill="#000000" fill-rule="nonzero" fill-opacity="1" /><path clip-path="url(#clip432)" d="M247.094 2103 L247.094 2185.48 L373.427 2185.48 L373.427 2103 L247.094 2103 L247.094 2103  Z" fill="#008000" fill-rule="evenodd" fill-opacity="1"/>
<polyline clip-path="url(#clip432)" style="stroke:#000000; stroke-linecap:round; stroke-linejoin:round; stroke-width:4; stroke-opacity:1; fill:none" points="247.094,2103 247.094,2185.48 373.427,2185.48 373.427,2103 247.094,2103 "/>
<path clip-path="url(#clip432)" d="M373.427 2103 L373.427 2185.48 L499.76 2185.48 L499.76 2103 L373.427 2103 L373.427 2103  Z" fill="#008000" fill-rule="evenodd" fill-opacity="1"/>
<polyline clip-path="url(#clip432)" style="stroke:#000000; stroke-linecap:round; stroke-linejoin:round; stroke-width:4; stroke-opacity:1; fill:none" points="373.427,2103 373.427,2185.48 499.76,2185.48 499.76,2103 373.427,2103 "/>
<path clip-path="url(#clip432)" d="M499.76 2185.48 L499.76 2185.48 L626.093 2185.48 L626.093 2185.48 L499.76 2185.48 L499.76 2185.48  Z" fill="#008000" fill-rule="evenodd" fill-opacity="1"/>
<polyline clip-path="url(#clip432)" style="stroke:#000000; stroke-linecap:round; stroke-linejoin:round; stroke-width:4; stroke-opacity:1; fill:none" points="499.76,2185.48 499.76,2185.48 626.093,2185.48 499.76,2185.48 "/>
<path clip-path="url(#clip432)" d="M626.093 2020.51 L626.093 2185.48 L752.427 2185.48 L752.427 2020.51 L626.093 2020.51 L626.093 2020.51  Z" fill="#008000" fill-rule="evenodd" fill-opacity="1"/>
<polyline clip-path="url(#clip432)" style="stroke:#000000; stroke-linecap:round; stroke-linejoin:round; stroke-width:4; stroke-opacity:1; fill:none" points="626.093,2020.51 626.093,2185.48 752.427,2185.48 752.427,2020.51 626.093,2020.51 "/>
<path clip-path="url(#clip432)" d="M752.427 2185.48 L752.427 2185.48 L878.76 2185.48 L878.76 2185.48 L752.427 2185.48 L752.427 2185.48  Z" fill="#008000" fill-rule="evenodd" fill-opacity="1"/>
<polyline clip-path="url(#clip432)" style="stroke:#000000; stroke-linecap:round; stroke-linejoin:round; stroke-width:4; stroke-opacity:1; fill:none" points="752.427,2185.48 752.427,2185.48 878.76,2185.48 752.427,2185.48 "/>
<path clip-path="url(#clip432)" d="M878.76 2185.48 L878.76 2185.48 L1005.09 2185.48 L1005.09 2185.48 L878.76 2185.48 L878.76 2185.48  Z" fill="#008000" fill-rule="evenodd" fill-opacity="1"/>
<polyline clip-path="url(#clip432)" style="stroke:#000000; stroke-linecap:round; stroke-linejoin:round; stroke-width:4; stroke-opacity:1; fill:none" points="878.76,2185.48 878.76,2185.48 1005.09,2185.48 878.76,2185.48 "/>
<path clip-path="url(#clip432)" d="M1005.09 2020.51 L1005.09 2185.48 L1131.43 2185.48 L1131.43 2020.51 L1005.09 2020.51 L1005.09 2020.51  Z" fill="#008000" fill-rule="evenodd" fill-opacity="1"/>
<polyline clip-path="url(#clip432)" style="stroke:#000000; stroke-linecap:round; stroke-linejoin:round; stroke-width:4; stroke-opacity:1; fill:none" points="1005.09,2020.51 1005.09,2185.48 1131.43,2185.48 1131.43,2020.51 1005.09,2020.51 "/>
<path clip-path="url(#clip432)" d="M1131.43 1773.06 L1131.43 2185.48 L1257.76 2185.48 L1257.76 1773.06 L1131.43 1773.06 L1131.43 1773.06  Z" fill="#008000" fill-rule="evenodd" fill-opacity="1"/>
<polyline clip-path="url(#clip432)" style="stroke:#000000; stroke-linecap:round; stroke-linejoin:round; stroke-width:4; stroke-opacity:1; fill:none" points="1131.43,1773.06 1131.43,2185.48 1257.76,2185.48 1257.76,1773.06 1131.43,1773.06 "/>
<path clip-path="url(#clip432)" d="M1257.76 1855.54 L1257.76 2185.48 L1384.09 2185.48 L1384.09 1855.54 L1257.76 1855.54 L1257.76 1855.54  Z" fill="#008000" fill-rule="evenodd" fill-opacity="1"/>
<polyline clip-path="url(#clip432)" style="stroke:#000000; stroke-linecap:round; stroke-linejoin:round; stroke-width:4; stroke-opacity:1; fill:none" points="1257.76,1855.54 1257.76,2185.48 1384.09,2185.48 1384.09,1855.54 1257.76,1855.54 "/>
<path clip-path="url(#clip432)" d="M1384.09 1443.12 L1384.09 2185.48 L1510.43 2185.48 L1510.43 1443.12 L1384.09 1443.12 L1384.09 1443.12  Z" fill="#008000" fill-rule="evenodd" fill-opacity="1"/>
<polyline clip-path="url(#clip432)" style="stroke:#000000; stroke-linecap:round; stroke-linejoin:round; stroke-width:4; stroke-opacity:1; fill:none" points="1384.09,1443.12 1384.09,2185.48 1510.43,2185.48 1510.43,1443.12 1384.09,1443.12 "/>
<path clip-path="url(#clip432)" d="M1510.43 1608.09 L1510.43 2185.48 L1636.76 2185.48 L1636.76 1608.09 L1510.43 1608.09 L1510.43 1608.09  Z" fill="#008000" fill-rule="evenodd" fill-opacity="1"/>
<polyline clip-path="url(#clip432)" style="stroke:#000000; stroke-linecap:round; stroke-linejoin:round; stroke-width:4; stroke-opacity:1; fill:none" points="1510.43,1608.09 1510.43,2185.48 1636.76,2185.48 1636.76,1608.09 1510.43,1608.09 "/>
<path clip-path="url(#clip432)" d="M1636.76 948.215 L1636.76 2185.48 L1763.09 2185.48 L1763.09 948.215 L1636.76 948.215 L1636.76 948.215  Z" fill="#008000" fill-rule="evenodd" fill-opacity="1"/>
<polyline clip-path="url(#clip432)" style="stroke:#000000; stroke-linecap:round; stroke-linejoin:round; stroke-width:4; stroke-opacity:1; fill:none" points="1636.76,948.215 1636.76,2185.48 1763.09,2185.48 1763.09,948.215 1636.76,948.215 "/>
<path clip-path="url(#clip432)" d="M1763.09 123.372 L1763.09 2185.48 L1889.42 2185.48 L1889.42 123.372 L1763.09 123.372 L1763.09 123.372  Z" fill="#008000" fill-rule="evenodd" fill-opacity="1"/>
<polyline clip-path="url(#clip432)" style="stroke:#000000; stroke-linecap:round; stroke-linejoin:round; stroke-width:4; stroke-opacity:1; fill:none" points="1763.09,123.372 1763.09,2185.48 1889.42,2185.48 1889.42,123.372 1763.09,123.372 "/>
<path clip-path="url(#clip432)" d="M1889.42 783.246 L1889.42 2185.48 L2015.76 2185.48 L2015.76 783.246 L1889.42 783.246 L1889.42 783.246  Z" fill="#008000" fill-rule="evenodd" fill-opacity="1"/>
<polyline clip-path="url(#clip432)" style="stroke:#000000; stroke-linecap:round; stroke-linejoin:round; stroke-width:4; stroke-opacity:1; fill:none" points="1889.42,783.246 1889.42,2185.48 2015.76,2185.48 2015.76,783.246 1889.42,783.246 "/>
<path clip-path="url(#clip432)" d="M2015.76 1030.7 L2015.76 2185.48 L2142.09 2185.48 L2142.09 1030.7 L2015.76 1030.7 L2015.76 1030.7  Z" fill="#008000" fill-rule="evenodd" fill-opacity="1"/>
<polyline clip-path="url(#clip432)" style="stroke:#000000; stroke-linecap:round; stroke-linejoin:round; stroke-width:4; stroke-opacity:1; fill:none" points="2015.76,1030.7 2015.76,2185.48 2142.09,2185.48 2142.09,1030.7 2015.76,1030.7 "/>
<path clip-path="url(#clip432)" d="M2142.09 1443.12 L2142.09 2185.48 L2268.42 2185.48 L2268.42 1443.12 L2142.09 1443.12 L2142.09 1443.12  Z" fill="#008000" fill-rule="evenodd" fill-opacity="1"/>
<polyline clip-path="url(#clip432)" style="stroke:#000000; stroke-linecap:round; stroke-linejoin:round; stroke-width:4; stroke-opacity:1; fill:none" points="2142.09,1443.12 2142.09,2185.48 2268.42,2185.48 2268.42,1443.12 2142.09,1443.12 "/>
<path clip-path="url(#clip432)" d="M2268.42 1443.12 L2268.42 2185.48 L2394.76 2185.48 L2394.76 1443.12 L2268.42 1443.12 L2268.42 1443.12  Z" fill="#008000" fill-rule="evenodd" fill-opacity="1"/>
<polyline clip-path="url(#clip432)" style="stroke:#000000; stroke-linecap:round; stroke-linejoin:round; stroke-width:4; stroke-opacity:1; fill:none" points="2268.42,1443.12 2268.42,2185.48 2394.76,2185.48 2394.76,1443.12 2268.42,1443.12 "/>
<path clip-path="url(#clip432)" d="M2394.76 1855.54 L2394.76 2185.48 L2521.09 2185.48 L2521.09 1855.54 L2394.76 1855.54 L2394.76 1855.54  Z" fill="#008000" fill-rule="evenodd" fill-opacity="1"/>
<polyline clip-path="url(#clip432)" style="stroke:#000000; stroke-linecap:round; stroke-linejoin:round; stroke-width:4; stroke-opacity:1; fill:none" points="2394.76,1855.54 2394.76,2185.48 2521.09,2185.48 2521.09,1855.54 2394.76,1855.54 "/>
<path clip-path="url(#clip432)" d="M2521.09 1938.03 L2521.09 2185.48 L2647.42 2185.48 L2647.42 1938.03 L2521.09 1938.03 L2521.09 1938.03  Z" fill="#008000" fill-rule="evenodd" fill-opacity="1"/>
<polyline clip-path="url(#clip432)" style="stroke:#000000; stroke-linecap:round; stroke-linejoin:round; stroke-width:4; stroke-opacity:1; fill:none" points="2521.09,1938.03 2521.09,2185.48 2647.42,2185.48 2647.42,1938.03 2521.09,1938.03 "/>
<path clip-path="url(#clip432)" d="M2647.42 2020.51 L2647.42 2185.48 L2773.76 2185.48 L2773.76 2020.51 L2647.42 2020.51 L2647.42 2020.51  Z" fill="#008000" fill-rule="evenodd" fill-opacity="1"/>
<polyline clip-path="url(#clip432)" style="stroke:#000000; stroke-linecap:round; stroke-linejoin:round; stroke-width:4; stroke-opacity:1; fill:none" points="2647.42,2020.51 2647.42,2185.48 2773.76,2185.48 2773.76,2020.51 2647.42,2020.51 "/>
<path clip-path="url(#clip432)" d="M2773.76 2103 L2773.76 2185.48 L2900.09 2185.48 L2900.09 2103 L2773.76 2103 L2773.76 2103  Z" fill="#008000" fill-rule="evenodd" fill-opacity="1"/>
<polyline clip-path="url(#clip432)" style="stroke:#000000; stroke-linecap:round; stroke-linejoin:round; stroke-width:4; stroke-opacity:1; fill:none" points="2773.76,2103 2773.76,2185.48 2900.09,2185.48 2900.09,2103 2773.76,2103 "/>
<path clip-path="url(#clip432)" d="M2900.09 2103 L2900.09 2185.48 L3026.42 2185.48 L3026.42 2103 L2900.09 2103 L2900.09 2103  Z" fill="#008000" fill-rule="evenodd" fill-opacity="1"/>
<polyline clip-path="url(#clip432)" style="stroke:#000000; stroke-linecap:round; stroke-linejoin:round; stroke-width:4; stroke-opacity:1; fill:none" points="2900.09,2103 2900.09,2185.48 3026.42,2185.48 3026.42,2103 2900.09,2103 "/>
<circle clip-path="url(#clip432)" style="fill:#008000; stroke:none; fill-opacity:0" cx="436.594" cy="2103" r="2"/>
<circle clip-path="url(#clip432)" style="fill:#008000; stroke:none; fill-opacity:0" cx="562.927" cy="2185.48" r="2"/>
<circle clip-path="url(#clip432)" style="fill:#008000; stroke:none; fill-opacity:0" cx="689.26" cy="2020.51" r="2"/>
<circle clip-path="url(#clip432)" style="fill:#008000; stroke:none; fill-opacity:0" cx="815.593" cy="2185.48" r="2"/>
<circle clip-path="url(#clip432)" style="fill:#008000; stroke:none; fill-opacity:0" cx="941.926" cy="2185.48" r="2"/>
<circle clip-path="url(#clip432)" style="fill:#008000; stroke:none; fill-opacity:0" cx="1068.26" cy="2020.51" r="2"/>
<circle clip-path="url(#clip432)" style="fill:#008000; stroke:none; fill-opacity:0" cx="1194.59" cy="1773.06" r="2"/>
<circle clip-path="url(#clip432)" style="fill:#008000; stroke:none; fill-opacity:0" cx="1320.93" cy="1855.54" r="2"/>
<circle clip-path="url(#clip432)" style="fill:#008000; stroke:none; fill-opacity:0" cx="1447.26" cy="1443.12" r="2"/>
<circle clip-path="url(#clip432)" style="fill:#008000; stroke:none; fill-opacity:0" cx="1573.59" cy="1608.09" r="2"/>
<circle clip-path="url(#clip432)" style="fill:#008000; stroke:none; fill-opacity:0" cx="1699.92" cy="948.215" r="2"/>
<circle clip-path="url(#clip432)" style="fill:#008000; stroke:none; fill-opacity:0" cx="1826.26" cy="123.372" r="2"/>
<circle clip-path="url(#clip432)" style="fill:#008000; stroke:none; fill-opacity:0" cx="1952.59" cy="783.246" r="2"/>
<circle clip-path="url(#clip432)" style="fill:#008000; stroke:none; fill-opacity:0" cx="2078.92" cy="1030.7" r="2"/>
<circle clip-path="url(#clip432)" style="fill:#008000; stroke:none; fill-opacity:0" cx="2205.26" cy="1443.12" r="2"/>
<circle clip-path="url(#clip432)" style="fill:#008000; stroke:none; fill-opacity:0" cx="2331.59" cy="1443.12" r="2"/>
<circle clip-path="url(#clip432)" style="fill:#008000; stroke:none; fill-opacity:0" cx="2457.92" cy="1855.54" r="2"/>
<circle clip-path="url(#clip432)" style="fill:#008000; stroke:none; fill-opacity:0" cx="2584.26" cy="1938.03" r="2"/>
<circle clip-path="url(#clip432)" style="fill:#008000; stroke:none; fill-opacity:0" cx="2710.59" cy="2020.51" r="2"/>
<circle clip-path="url(#clip432)" style="fill:#008000; stroke:none; fill-opacity:0" cx="2836.92" cy="2103" r="2"/>
<circle clip-path="url(#clip432)" style="fill:#008000; stroke:none; fill-opacity:0" cx="2963.26" cy="2103" r="2"/>
<polyline clip-path="url(#clip432)" style="stroke:#ffa500; stroke-linecap:round; stroke-linejoin:round; stroke-width:12; stroke-opacity:1; fill:none" points="373.427,2181.83 401.501,2180.94 429.575,2179.85 457.649,2178.53 485.723,2176.94 513.797,2175.03 541.871,2172.74 569.945,2170.01 598.019,2166.78 626.093,2162.97 654.167,2158.49 682.241,2153.26 710.316,2147.18 738.39,2140.14 766.464,2132.02 794.538,2122.72 822.612,2112.11 850.686,2100.06 878.76,2086.44 906.834,2071.14 934.908,2054.02 962.982,2034.98 991.056,2013.89 1019.13,1990.66 1047.2,1965.22 1075.28,1937.49 1103.35,1907.43 1131.43,1875.03 1159.5,1840.31 1187.57,1803.31 1215.65,1764.1 1243.72,1722.82 1271.8,1679.6 1299.87,1634.67 1327.94,1588.24 1356.02,1540.61 1384.09,1492.09 1412.17,1443.03 1440.24,1393.81 1468.31,1344.86 1496.39,1296.61 1524.46,1249.52 1552.54,1204.04 1580.61,1160.66 1608.68,1119.82 1636.76,1081.99 1664.83,1047.58 1692.91,1017 1720.98,990.607 1749.05,968.721 1777.13,951.608 1805.2,939.479 1833.28,932.485 1861.35,930.713 1889.42,934.186 1917.5,942.86 1945.57,956.627 1973.65,975.316 2001.72,998.696 2029.79,1026.49 2057.87,1058.35 2085.94,1093.92 2114.02,1132.77 2142.09,1174.49 2170.16,1218.6 2198.24,1264.66 2226.31,1312.18 2254.39,1360.7 2282.46,1409.79 2310.54,1458.99 2338.61,1507.92 2366.68,1556.19 2394.76,1603.47 2422.83,1649.43 2450.91,1693.83 2478.98,1736.44 2507.05,1777.07 2535.13,1815.57 2563.2,1851.84 2591.28,1885.81 2619.35,1917.45 2647.42,1946.74 2675.5,1973.73 2703.57,1998.44 2731.65,2020.97 2759.72,2041.38 2787.79,2059.79 2815.87,2076.3 2843.94,2091.04 2872.02,2104.14 2900.09,2115.7 2928.16,2125.88 2956.24,2134.78 2984.31,2142.53 3012.39,2149.25 3040.46,2155.05 3068.53,2160.02 3096.61,2164.28 3124.68,2167.89 3152.76,2170.95 "/>
<polyline clip-path="url(#clip432)" style="stroke:#ff00ff; stroke-linecap:round; stroke-linejoin:round; stroke-width:12; stroke-opacity:1; fill:none" points="373.427,2166.17 401.501,2164.37 429.575,2162.41 457.649,2160.27 485.723,2157.93 513.797,2155.37 541.871,2152.57 569.945,2149.52 598.019,2146.18 626.093,2142.53 654.167,2138.54 682.241,2134.18 710.316,2129.41 738.39,2124.2 766.464,2118.51 794.538,2112.29 822.612,2105.5 850.686,2098.07 878.76,2089.95 906.834,2081.08 934.908,2071.38 962.982,2060.79 991.056,2049.21 1019.13,2036.55 1047.2,2022.72 1075.28,2007.6 1103.35,1991.08 1131.43,1973.03 1159.5,1953.3 1187.57,1931.74 1215.65,1908.17 1243.72,1882.42 1271.8,1854.27 1299.87,1823.51 1327.94,1789.89 1356.02,1753.16 1384.09,1713 1412.17,1669.12 1440.24,1621.17 1468.31,1568.76 1496.39,1511.49 1524.46,1448.89 1552.54,1380.48 1580.61,1305.72 1608.68,1224.02 1636.76,1134.72 1664.83,1037.14 1692.91,930.489 1720.98,813.936 1749.05,686.559 1777.13,547.351 1805.2,395.215 1833.28,228.95 1861.35,47.2441 1889.42,190.501 1917.5,360.034 1945.57,515.159 1973.65,657.102 2001.72,786.983 2029.79,905.827 2057.87,1014.57 2085.94,1114.07 2114.02,1205.12 2142.09,1288.43 2170.16,1364.66 2198.24,1434.42 2226.31,1498.24 2254.39,1556.64 2282.46,1610.08 2310.54,1658.98 2338.61,1703.72 2366.68,1744.66 2394.76,1782.12 2422.83,1816.4 2450.91,1847.76 2478.98,1876.46 2507.05,1902.72 2535.13,1926.75 2563.2,1948.74 2591.28,1968.85 2619.35,1987.26 2647.42,2004.11 2675.5,2019.52 2703.57,2033.62 2731.65,2046.53 2759.72,2058.34 2787.79,2069.14 2815.87,2079.03 2843.94,2088.07 2872.02,2096.35 2900.09,2103.93 2928.16,2110.86 2956.24,2117.2 2984.31,2123 3012.39,2128.31 3040.46,2133.17 3068.53,2137.61 3096.61,2141.68 3124.68,2145.4 3152.76,2148.81 "/>
<path clip-path="url(#clip430)" d="M2481.25 312.919 L3060.11 312.919 L3060.11 118.519 L2481.25 118.519  Z" fill="#ffffff" fill-rule="evenodd" fill-opacity="1"/>
<polyline clip-path="url(#clip430)" style="stroke:#000000; stroke-linecap:round; stroke-linejoin:round; stroke-width:4; stroke-opacity:1; fill:none" points="2481.25,312.919 3060.11,312.919 3060.11,118.519 2481.25,118.519 2481.25,312.919 "/>
<polyline clip-path="url(#clip430)" style="stroke:#ffa500; stroke-linecap:round; stroke-linejoin:round; stroke-width:15; stroke-opacity:1; fill:none" points="2512.14,183.319 2697.42,183.319 "/>
<path clip-path="url(#clip430)" d="M2728.31 161.719 L2736.18 161.719 L2755.33 197.858 L2755.33 161.719 L2761 161.719 L2761 204.919 L2753.13 204.919 L2733.98 168.779 L2733.98 204.919 L2728.31 204.919 L2728.31 161.719 Z" fill="#000000" fill-rule="nonzero" fill-opacity="1" /><path clip-path="url(#clip430)" d="M2784.96 176.244 Q2780.68 176.244 2778.19 179.6 Q2775.7 182.928 2775.7 188.744 Q2775.7 194.56 2778.16 197.916 Q2780.65 201.244 2784.96 201.244 Q2789.21 201.244 2791.7 197.887 Q2794.19 194.531 2794.19 188.744 Q2794.19 182.986 2791.7 179.629 Q2789.21 176.244 2784.96 176.244 M2784.96 171.73 Q2791.91 171.73 2795.87 176.244 Q2799.83 180.758 2799.83 188.744 Q2799.83 196.701 2795.87 201.244 Q2791.91 205.758 2784.96 205.758 Q2777.99 205.758 2774.02 201.244 Q2770.09 196.701 2770.09 188.744 Q2770.09 180.758 2774.02 176.244 Q2777.99 171.73 2784.96 171.73 Z" fill="#000000" fill-rule="nonzero" fill-opacity="1" /><path clip-path="url(#clip430)" d="M2827.44 177.488 Q2826.54 176.967 2825.47 176.736 Q2824.43 176.475 2823.15 176.475 Q2818.64 176.475 2816.21 179.427 Q2813.81 182.349 2813.81 187.847 L2813.81 204.919 L2808.46 204.919 L2808.46 172.511 L2813.81 172.511 L2813.81 177.546 Q2815.49 174.595 2818.18 173.177 Q2820.87 171.73 2824.72 171.73 Q2825.27 171.73 2825.93 171.817 Q2826.6 171.875 2827.41 172.019 L2827.44 177.488 Z" fill="#000000" fill-rule="nonzero" fill-opacity="1" /><path clip-path="url(#clip430)" d="M2857.21 178.732 Q2859.21 175.144 2861.99 173.437 Q2864.76 171.73 2868.53 171.73 Q2873.59 171.73 2876.34 175.289 Q2879.09 178.819 2879.09 185.359 L2879.09 204.919 L2873.73 204.919 L2873.73 185.532 Q2873.73 180.874 2872.08 178.617 Q2870.43 176.36 2867.05 176.36 Q2862.91 176.36 2860.51 179.109 Q2858.11 181.857 2858.11 186.603 L2858.11 204.919 L2852.76 204.919 L2852.76 185.532 Q2852.76 180.845 2851.11 178.617 Q2849.46 176.36 2846.01 176.36 Q2841.93 176.36 2839.53 179.138 Q2837.13 181.886 2837.13 186.603 L2837.13 204.919 L2831.78 204.919 L2831.78 172.511 L2837.13 172.511 L2837.13 177.546 Q2838.95 174.566 2841.5 173.148 Q2844.05 171.73 2847.55 171.73 Q2851.08 171.73 2853.54 173.524 Q2856.03 175.318 2857.21 178.732 Z" fill="#000000" fill-rule="nonzero" fill-opacity="1" /><path clip-path="url(#clip430)" d="M2904.43 188.628 Q2897.98 188.628 2895.49 190.104 Q2893 191.58 2893 195.139 Q2893 197.974 2894.86 199.652 Q2896.74 201.302 2899.95 201.302 Q2904.38 201.302 2907.04 198.177 Q2909.73 195.023 2909.73 189.815 L2909.73 188.628 L2904.43 188.628 M2915.05 186.429 L2915.05 204.919 L2909.73 204.919 L2909.73 200 Q2907.91 202.951 2905.19 204.369 Q2902.47 205.758 2898.53 205.758 Q2893.55 205.758 2890.6 202.98 Q2887.68 200.173 2887.68 195.486 Q2887.68 190.017 2891.33 187.239 Q2895 184.462 2902.26 184.462 L2909.73 184.462 L2909.73 183.941 Q2909.73 180.266 2907.3 178.269 Q2904.9 176.244 2900.53 176.244 Q2897.75 176.244 2895.12 176.91 Q2892.48 177.575 2890.05 178.906 L2890.05 173.987 Q2892.98 172.859 2895.72 172.309 Q2898.47 171.73 2901.08 171.73 Q2908.11 171.73 2911.58 175.376 Q2915.05 179.022 2915.05 186.429 Z" fill="#000000" fill-rule="nonzero" fill-opacity="1" /><path clip-path="url(#clip430)" d="M2926.02 159.896 L2931.34 159.896 L2931.34 204.919 L2926.02 204.919 L2926.02 159.896 Z" fill="#000000" fill-rule="nonzero" fill-opacity="1" /><path clip-path="url(#clip430)" d="M2977.73 159.896 L2977.73 164.323 L2972.63 164.323 Q2969.77 164.323 2968.64 165.48 Q2967.54 166.638 2967.54 169.647 L2967.54 172.511 L2976.31 172.511 L2976.31 176.649 L2967.54 176.649 L2967.54 204.919 L2962.19 204.919 L2962.19 176.649 L2957.1 176.649 L2957.1 172.511 L2962.19 172.511 L2962.19 170.254 Q2962.19 164.844 2964.71 162.384 Q2967.22 159.896 2972.69 159.896 L2977.73 159.896 Z" fill="#000000" fill-rule="nonzero" fill-opacity="1" /><path clip-path="url(#clip430)" d="M2982.18 172.511 L2987.51 172.511 L2987.51 204.919 L2982.18 204.919 L2982.18 172.511 M2982.18 159.896 L2987.51 159.896 L2987.51 166.638 L2982.18 166.638 L2982.18 159.896 Z" fill="#000000" fill-rule="nonzero" fill-opacity="1" /><path clip-path="url(#clip430)" d="M3003.91 163.31 L3003.91 172.511 L3014.88 172.511 L3014.88 176.649 L3003.91 176.649 L3003.91 194.242 Q3003.91 198.206 3004.98 199.334 Q3006.08 200.463 3009.41 200.463 L3014.88 200.463 L3014.88 204.919 L3009.41 204.919 Q3003.25 204.919 3000.9 202.633 Q2998.56 200.318 2998.56 194.242 L2998.56 176.649 L2994.65 176.649 L2994.65 172.511 L2998.56 172.511 L2998.56 163.31 L3003.91 163.31 Z" fill="#000000" fill-rule="nonzero" fill-opacity="1" /><polyline clip-path="url(#clip430)" style="stroke:#ff00ff; stroke-linecap:round; stroke-linejoin:round; stroke-width:15; stroke-opacity:1; fill:none" points="2512.14,248.119 2697.42,248.119 "/>
<path clip-path="url(#clip430)" d="M2728.31 226.519 L2734.15 226.519 L2734.15 264.8 L2755.19 264.8 L2755.19 269.719 L2728.31 269.719 L2728.31 226.519 Z" fill="#000000" fill-rule="nonzero" fill-opacity="1" /><path clip-path="url(#clip430)" d="M2775.82 253.428 Q2769.36 253.428 2766.88 254.904 Q2764.39 256.38 2764.39 259.939 Q2764.39 262.774 2766.24 264.452 Q2768.12 266.102 2771.33 266.102 Q2775.76 266.102 2778.42 262.977 Q2781.11 259.823 2781.11 254.615 L2781.11 253.428 L2775.82 253.428 M2786.44 251.229 L2786.44 269.719 L2781.11 269.719 L2781.11 264.8 Q2779.29 267.751 2776.57 269.169 Q2773.85 270.558 2769.91 270.558 Q2764.94 270.558 2761.99 267.78 Q2759.06 264.973 2759.06 260.286 Q2759.06 254.817 2762.71 252.039 Q2766.38 249.262 2773.65 249.262 L2781.11 249.262 L2781.11 248.741 Q2781.11 245.066 2778.68 243.069 Q2776.28 241.044 2771.91 241.044 Q2769.13 241.044 2766.5 241.71 Q2763.87 242.375 2761.44 243.706 L2761.44 238.787 Q2764.36 237.659 2767.11 237.109 Q2769.86 236.53 2772.46 236.53 Q2779.49 236.53 2782.96 240.176 Q2786.44 243.822 2786.44 251.229 Z" fill="#000000" fill-rule="nonzero" fill-opacity="1" /><path clip-path="url(#clip430)" d="M2802.55 264.858 L2802.55 282.045 L2797.2 282.045 L2797.2 237.311 L2802.55 237.311 L2802.55 242.23 Q2804.23 239.337 2806.78 237.948 Q2809.35 236.53 2812.91 236.53 Q2818.81 236.53 2822.49 241.218 Q2826.19 245.905 2826.19 253.544 Q2826.19 261.183 2822.49 265.87 Q2818.81 270.558 2812.91 270.558 Q2809.35 270.558 2806.78 269.169 Q2804.23 267.751 2802.55 264.858 M2820.67 253.544 Q2820.67 247.67 2818.24 244.343 Q2815.83 240.986 2811.61 240.986 Q2807.39 240.986 2804.95 244.343 Q2802.55 247.67 2802.55 253.544 Q2802.55 259.418 2804.95 262.774 Q2807.39 266.102 2811.61 266.102 Q2815.83 266.102 2818.24 262.774 Q2820.67 259.418 2820.67 253.544 Z" fill="#000000" fill-rule="nonzero" fill-opacity="1" /><path clip-path="url(#clip430)" d="M2835.02 224.696 L2840.34 224.696 L2840.34 269.719 L2835.02 269.719 L2835.02 224.696 Z" fill="#000000" fill-rule="nonzero" fill-opacity="1" /><path clip-path="url(#clip430)" d="M2866.21 253.428 Q2859.76 253.428 2857.27 254.904 Q2854.78 256.38 2854.78 259.939 Q2854.78 262.774 2856.63 264.452 Q2858.51 266.102 2861.73 266.102 Q2866.15 266.102 2868.81 262.977 Q2871.51 259.823 2871.51 254.615 L2871.51 253.428 L2866.21 253.428 M2876.83 251.229 L2876.83 269.719 L2871.51 269.719 L2871.51 264.8 Q2869.68 267.751 2866.96 269.169 Q2864.24 270.558 2860.31 270.558 Q2855.33 270.558 2852.38 267.78 Q2849.46 264.973 2849.46 260.286 Q2849.46 254.817 2853.1 252.039 Q2856.78 249.262 2864.04 249.262 L2871.51 249.262 L2871.51 248.741 Q2871.51 245.066 2869.07 243.069 Q2866.67 241.044 2862.3 241.044 Q2859.53 241.044 2856.89 241.71 Q2854.26 242.375 2851.83 243.706 L2851.83 238.787 Q2854.75 237.659 2857.5 237.109 Q2860.25 236.53 2862.85 236.53 Q2869.88 236.53 2873.36 240.176 Q2876.83 243.822 2876.83 251.229 Z" fill="#000000" fill-rule="nonzero" fill-opacity="1" /><path clip-path="url(#clip430)" d="M2911.12 238.556 L2911.12 243.532 Q2908.86 242.288 2906.57 241.681 Q2904.32 241.044 2902 241.044 Q2896.82 241.044 2893.96 244.343 Q2891.09 247.612 2891.09 253.544 Q2891.09 259.476 2893.96 262.774 Q2896.82 266.044 2902 266.044 Q2904.32 266.044 2906.57 265.436 Q2908.86 264.8 2911.12 263.555 L2911.12 268.474 Q2908.89 269.516 2906.49 270.037 Q2904.12 270.558 2901.42 270.558 Q2894.1 270.558 2889.79 265.957 Q2885.48 261.356 2885.48 253.544 Q2885.48 245.616 2889.82 241.073 Q2894.19 236.53 2901.77 236.53 Q2904.23 236.53 2906.57 237.051 Q2908.92 237.543 2911.12 238.556 Z" fill="#000000" fill-rule="nonzero" fill-opacity="1" /><path clip-path="url(#clip430)" d="M2948.1 252.184 L2948.1 254.788 L2923.62 254.788 Q2923.96 260.286 2926.92 263.179 Q2929.9 266.044 2935.19 266.044 Q2938.26 266.044 2941.12 265.292 Q2944.02 264.539 2946.85 263.035 L2946.85 268.069 Q2943.99 269.285 2940.98 269.921 Q2937.97 270.558 2934.87 270.558 Q2927.12 270.558 2922.58 266.044 Q2918.06 261.53 2918.06 253.833 Q2918.06 245.876 2922.34 241.218 Q2926.66 236.53 2933.95 236.53 Q2940.49 236.53 2944.28 240.755 Q2948.1 244.95 2948.1 252.184 M2942.77 250.621 Q2942.71 246.252 2940.31 243.648 Q2937.94 241.044 2934.01 241.044 Q2929.55 241.044 2926.86 243.561 Q2924.2 246.079 2923.79 250.65 L2942.77 250.621 Z" fill="#000000" fill-rule="nonzero" fill-opacity="1" /><path clip-path="url(#clip430)" d="M2992.08 224.696 L2992.08 229.123 L2986.99 229.123 Q2984.12 229.123 2982.99 230.28 Q2981.89 231.438 2981.89 234.447 L2981.89 237.311 L2990.66 237.311 L2990.66 241.449 L2981.89 241.449 L2981.89 269.719 L2976.54 269.719 L2976.54 241.449 L2971.45 241.449 L2971.45 237.311 L2976.54 237.311 L2976.54 235.054 Q2976.54 229.644 2979.06 227.184 Q2981.57 224.696 2987.04 224.696 L2992.08 224.696 Z" fill="#000000" fill-rule="nonzero" fill-opacity="1" /><path clip-path="url(#clip430)" d="M2996.53 237.311 L3001.86 237.311 L3001.86 269.719 L2996.53 269.719 L2996.53 237.311 M2996.53 224.696 L3001.86 224.696 L3001.86 231.438 L2996.53 231.438 L2996.53 224.696 Z" fill="#000000" fill-rule="nonzero" fill-opacity="1" /><path clip-path="url(#clip430)" d="M3018.26 228.11 L3018.26 237.311 L3029.23 237.311 L3029.23 241.449 L3018.26 241.449 L3018.26 259.042 Q3018.26 263.006 3019.33 264.134 Q3020.43 265.263 3023.76 265.263 L3029.23 265.263 L3029.23 269.719 L3023.76 269.719 Q3017.6 269.719 3015.25 267.433 Q3012.91 265.118 3012.91 259.042 L3012.91 241.449 L3009 241.449 L3009 237.311 L3012.91 237.311 L3012.91 228.11 L3018.26 228.11 Z" fill="#000000" fill-rule="nonzero" fill-opacity="1" /></svg>
