<?xml version="1.0" encoding="utf-8" standalone="no"?>
<!DOCTYPE svg PUBLIC "-//W3C//DTD SVG 1.1//EN"
  "http://www.w3.org/Graphics/SVG/1.1/DTD/svg11.dtd">
<svg height="432pt" version="1.1" viewBox="0 0 576 432" width="576pt" xmlns="http://www.w3.org/2000/svg" xmlns:xlink="http://www.w3.org/1999/xlink">
 <metadata>
  <rdf:RDF xmlns:cc="http://creativecommons.org/ns#" xmlns:dc="http://purl.org/dc/elements/1.1/" xmlns:rdf="http://www.w3.org/1999/02/22-rdf-syntax-ns#">
   <cc:Work>
    <dc:type rdf:resource="http://purl.org/dc/dcmitype/StillImage"/>
    <dc:date>2022-01-14T10:31:53.566465</dc:date>
    <dc:format>image/svg+xml</dc:format>
    <dc:creator>
     <cc:Agent>
      <dc:title>Matplotlib v3.4.2, https://matplotlib.org/</dc:title>
     </cc:Agent>
    </dc:creator>
   </cc:Work>
  </rdf:RDF>
 </metadata>
 <defs>
  <style type="text/css">*{stroke-linecap:butt;stroke-linejoin:round;}</style>
 </defs>
 <g id="figure_1">
  <g id="patch_1">
   <path d="M 0 432 
L 576 432 
L 576 0 
L 0 0 
z
" style="fill:#ffffff;"/>
  </g>
  <g id="axes_1">
   <g id="patch_2">
    <path d="M 72 384.48 
L 518.4 384.48 
L 518.4 51.84 
L 72 51.84 
z
" style="fill:#ffffff;"/>
   </g>
   <g id="matplotlib.axis_1">
    <g id="xtick_1">
     <g id="line2d_1">
      <defs>
       <path d="M 0 0 
L 0 3.5 
" id="m7625f004c6" style="stroke:#000000;stroke-width:0.8;"/>
      </defs>
      <g>
       <use style="stroke:#000000;stroke-width:0.8;" x="92.290909" xlink:href="#m7625f004c6" y="384.48"/>
      </g>
     </g>
     <g id="text_1">
      <!-- 0 -->
      <g transform="translate(88.473409 400.598125)scale(0.12 -0.12)">
       <defs>
        <path d="M 2034 4250 
Q 1547 4250 1301 3770 
Q 1056 3291 1056 2328 
Q 1056 1369 1301 889 
Q 1547 409 2034 409 
Q 2525 409 2770 889 
Q 3016 1369 3016 2328 
Q 3016 3291 2770 3770 
Q 2525 4250 2034 4250 
z
M 2034 4750 
Q 2819 4750 3233 4129 
Q 3647 3509 3647 2328 
Q 3647 1150 3233 529 
Q 2819 -91 2034 -91 
Q 1250 -91 836 529 
Q 422 1150 422 2328 
Q 422 3509 836 4129 
Q 1250 4750 2034 4750 
z
" id="DejaVuSans-30" transform="scale(0.015625)"/>
       </defs>
       <use xlink:href="#DejaVuSans-30"/>
      </g>
     </g>
    </g>
    <g id="xtick_2">
     <g id="line2d_2">
      <g>
       <use style="stroke:#000000;stroke-width:0.8;" x="169.737127" xlink:href="#m7625f004c6" y="384.48"/>
      </g>
     </g>
     <g id="text_2">
      <!-- 50 -->
      <g transform="translate(162.102127 400.598125)scale(0.12 -0.12)">
       <defs>
        <path d="M 691 4666 
L 3169 4666 
L 3169 4134 
L 1269 4134 
L 1269 2991 
Q 1406 3038 1543 3061 
Q 1681 3084 1819 3084 
Q 2600 3084 3056 2656 
Q 3513 2228 3513 1497 
Q 3513 744 3044 326 
Q 2575 -91 1722 -91 
Q 1428 -91 1123 -41 
Q 819 9 494 109 
L 494 744 
Q 775 591 1075 516 
Q 1375 441 1709 441 
Q 2250 441 2565 725 
Q 2881 1009 2881 1497 
Q 2881 1984 2565 2268 
Q 2250 2553 1709 2553 
Q 1456 2553 1204 2497 
Q 953 2441 691 2322 
L 691 4666 
z
" id="DejaVuSans-35" transform="scale(0.015625)"/>
       </defs>
       <use xlink:href="#DejaVuSans-35"/>
       <use x="63.623047" xlink:href="#DejaVuSans-30"/>
      </g>
     </g>
    </g>
    <g id="xtick_3">
     <g id="line2d_3">
      <g>
       <use style="stroke:#000000;stroke-width:0.8;" x="247.183345" xlink:href="#m7625f004c6" y="384.48"/>
      </g>
     </g>
     <g id="text_3">
      <!-- 100 -->
      <g transform="translate(235.730845 400.598125)scale(0.12 -0.12)">
       <defs>
        <path d="M 794 531 
L 1825 531 
L 1825 4091 
L 703 3866 
L 703 4441 
L 1819 4666 
L 2450 4666 
L 2450 531 
L 3481 531 
L 3481 0 
L 794 0 
L 794 531 
z
" id="DejaVuSans-31" transform="scale(0.015625)"/>
       </defs>
       <use xlink:href="#DejaVuSans-31"/>
       <use x="63.623047" xlink:href="#DejaVuSans-30"/>
       <use x="127.246094" xlink:href="#DejaVuSans-30"/>
      </g>
     </g>
    </g>
    <g id="xtick_4">
     <g id="line2d_4">
      <g>
       <use style="stroke:#000000;stroke-width:0.8;" x="324.629563" xlink:href="#m7625f004c6" y="384.48"/>
      </g>
     </g>
     <g id="text_4">
      <!-- 150 -->
      <g transform="translate(313.177063 400.598125)scale(0.12 -0.12)">
       <use xlink:href="#DejaVuSans-31"/>
       <use x="63.623047" xlink:href="#DejaVuSans-35"/>
       <use x="127.246094" xlink:href="#DejaVuSans-30"/>
      </g>
     </g>
    </g>
    <g id="xtick_5">
     <g id="line2d_5">
      <g>
       <use style="stroke:#000000;stroke-width:0.8;" x="402.075781" xlink:href="#m7625f004c6" y="384.48"/>
      </g>
     </g>
     <g id="text_5">
      <!-- 200 -->
      <g transform="translate(390.623281 400.598125)scale(0.12 -0.12)">
       <defs>
        <path d="M 1228 531 
L 3431 531 
L 3431 0 
L 469 0 
L 469 531 
Q 828 903 1448 1529 
Q 2069 2156 2228 2338 
Q 2531 2678 2651 2914 
Q 2772 3150 2772 3378 
Q 2772 3750 2511 3984 
Q 2250 4219 1831 4219 
Q 1534 4219 1204 4116 
Q 875 4013 500 3803 
L 500 4441 
Q 881 4594 1212 4672 
Q 1544 4750 1819 4750 
Q 2544 4750 2975 4387 
Q 3406 4025 3406 3419 
Q 3406 3131 3298 2873 
Q 3191 2616 2906 2266 
Q 2828 2175 2409 1742 
Q 1991 1309 1228 531 
z
" id="DejaVuSans-32" transform="scale(0.015625)"/>
       </defs>
       <use xlink:href="#DejaVuSans-32"/>
       <use x="63.623047" xlink:href="#DejaVuSans-30"/>
       <use x="127.246094" xlink:href="#DejaVuSans-30"/>
      </g>
     </g>
    </g>
    <g id="xtick_6">
     <g id="line2d_6">
      <g>
       <use style="stroke:#000000;stroke-width:0.8;" x="479.521999" xlink:href="#m7625f004c6" y="384.48"/>
      </g>
     </g>
     <g id="text_6">
      <!-- 250 -->
      <g transform="translate(468.069499 400.598125)scale(0.12 -0.12)">
       <use xlink:href="#DejaVuSans-32"/>
       <use x="63.623047" xlink:href="#DejaVuSans-35"/>
       <use x="127.246094" xlink:href="#DejaVuSans-30"/>
      </g>
     </g>
    </g>
    <g id="text_7">
     <!-- Index -->
     <g transform="translate(275.927031 417.731562)scale(0.14 -0.14)">
      <defs>
       <path d="M 628 4666 
L 1259 4666 
L 1259 0 
L 628 0 
L 628 4666 
z
" id="DejaVuSans-49" transform="scale(0.015625)"/>
       <path d="M 3513 2113 
L 3513 0 
L 2938 0 
L 2938 2094 
Q 2938 2591 2744 2837 
Q 2550 3084 2163 3084 
Q 1697 3084 1428 2787 
Q 1159 2491 1159 1978 
L 1159 0 
L 581 0 
L 581 3500 
L 1159 3500 
L 1159 2956 
Q 1366 3272 1645 3428 
Q 1925 3584 2291 3584 
Q 2894 3584 3203 3211 
Q 3513 2838 3513 2113 
z
" id="DejaVuSans-6e" transform="scale(0.015625)"/>
       <path d="M 2906 2969 
L 2906 4863 
L 3481 4863 
L 3481 0 
L 2906 0 
L 2906 525 
Q 2725 213 2448 61 
Q 2172 -91 1784 -91 
Q 1150 -91 751 415 
Q 353 922 353 1747 
Q 353 2572 751 3078 
Q 1150 3584 1784 3584 
Q 2172 3584 2448 3432 
Q 2725 3281 2906 2969 
z
M 947 1747 
Q 947 1113 1208 752 
Q 1469 391 1925 391 
Q 2381 391 2643 752 
Q 2906 1113 2906 1747 
Q 2906 2381 2643 2742 
Q 2381 3103 1925 3103 
Q 1469 3103 1208 2742 
Q 947 2381 947 1747 
z
" id="DejaVuSans-64" transform="scale(0.015625)"/>
       <path d="M 3597 1894 
L 3597 1613 
L 953 1613 
Q 991 1019 1311 708 
Q 1631 397 2203 397 
Q 2534 397 2845 478 
Q 3156 559 3463 722 
L 3463 178 
Q 3153 47 2828 -22 
Q 2503 -91 2169 -91 
Q 1331 -91 842 396 
Q 353 884 353 1716 
Q 353 2575 817 3079 
Q 1281 3584 2069 3584 
Q 2775 3584 3186 3129 
Q 3597 2675 3597 1894 
z
M 3022 2063 
Q 3016 2534 2758 2815 
Q 2500 3097 2075 3097 
Q 1594 3097 1305 2825 
Q 1016 2553 972 2059 
L 3022 2063 
z
" id="DejaVuSans-65" transform="scale(0.015625)"/>
       <path d="M 3513 3500 
L 2247 1797 
L 3578 0 
L 2900 0 
L 1881 1375 
L 863 0 
L 184 0 
L 1544 1831 
L 300 3500 
L 978 3500 
L 1906 2253 
L 2834 3500 
L 3513 3500 
z
" id="DejaVuSans-78" transform="scale(0.015625)"/>
      </defs>
      <use xlink:href="#DejaVuSans-49"/>
      <use x="29.492188" xlink:href="#DejaVuSans-6e"/>
      <use x="92.871094" xlink:href="#DejaVuSans-64"/>
      <use x="156.347656" xlink:href="#DejaVuSans-65"/>
      <use x="216.121094" xlink:href="#DejaVuSans-78"/>
     </g>
    </g>
   </g>
   <g id="matplotlib.axis_2">
    <g id="ytick_1">
     <g id="line2d_7">
      <defs>
       <path d="M 0 0 
L -3.5 0 
" id="m90eab9bdd9" style="stroke:#000000;stroke-width:0.8;"/>
      </defs>
      <g>
       <use style="stroke:#000000;stroke-width:0.8;" x="72" xlink:href="#m90eab9bdd9" y="377.891661"/>
      </g>
     </g>
     <g id="text_8">
      <!-- 0 -->
      <g transform="translate(57.365 382.450724)scale(0.12 -0.12)">
       <use xlink:href="#DejaVuSans-30"/>
      </g>
     </g>
    </g>
    <g id="ytick_2">
     <g id="line2d_8">
      <g>
       <use style="stroke:#000000;stroke-width:0.8;" x="72" xlink:href="#m90eab9bdd9" y="314.694169"/>
      </g>
     </g>
     <g id="text_9">
      <!-- 500 -->
      <g transform="translate(42.095 319.253232)scale(0.12 -0.12)">
       <use xlink:href="#DejaVuSans-35"/>
       <use x="63.623047" xlink:href="#DejaVuSans-30"/>
       <use x="127.246094" xlink:href="#DejaVuSans-30"/>
      </g>
     </g>
    </g>
    <g id="ytick_3">
     <g id="line2d_9">
      <g>
       <use style="stroke:#000000;stroke-width:0.8;" x="72" xlink:href="#m90eab9bdd9" y="251.496677"/>
      </g>
     </g>
     <g id="text_10">
      <!-- 1000 -->
      <g transform="translate(34.46 256.05574)scale(0.12 -0.12)">
       <use xlink:href="#DejaVuSans-31"/>
       <use x="63.623047" xlink:href="#DejaVuSans-30"/>
       <use x="127.246094" xlink:href="#DejaVuSans-30"/>
       <use x="190.869141" xlink:href="#DejaVuSans-30"/>
      </g>
     </g>
    </g>
    <g id="ytick_4">
     <g id="line2d_10">
      <g>
       <use style="stroke:#000000;stroke-width:0.8;" x="72" xlink:href="#m90eab9bdd9" y="188.299185"/>
      </g>
     </g>
     <g id="text_11">
      <!-- 1500 -->
      <g transform="translate(34.46 192.858247)scale(0.12 -0.12)">
       <use xlink:href="#DejaVuSans-31"/>
       <use x="63.623047" xlink:href="#DejaVuSans-35"/>
       <use x="127.246094" xlink:href="#DejaVuSans-30"/>
       <use x="190.869141" xlink:href="#DejaVuSans-30"/>
      </g>
     </g>
    </g>
    <g id="ytick_5">
     <g id="line2d_11">
      <g>
       <use style="stroke:#000000;stroke-width:0.8;" x="72" xlink:href="#m90eab9bdd9" y="125.101693"/>
      </g>
     </g>
     <g id="text_12">
      <!-- 2000 -->
      <g transform="translate(34.46 129.660755)scale(0.12 -0.12)">
       <use xlink:href="#DejaVuSans-32"/>
       <use x="63.623047" xlink:href="#DejaVuSans-30"/>
       <use x="127.246094" xlink:href="#DejaVuSans-30"/>
       <use x="190.869141" xlink:href="#DejaVuSans-30"/>
      </g>
     </g>
    </g>
    <g id="ytick_6">
     <g id="line2d_12">
      <g>
       <use style="stroke:#000000;stroke-width:0.8;" x="72" xlink:href="#m90eab9bdd9" y="61.904201"/>
      </g>
     </g>
     <g id="text_13">
      <!-- 2500 -->
      <g transform="translate(34.46 66.463263)scale(0.12 -0.12)">
       <use xlink:href="#DejaVuSans-32"/>
       <use x="63.623047" xlink:href="#DejaVuSans-35"/>
       <use x="127.246094" xlink:href="#DejaVuSans-30"/>
       <use x="190.869141" xlink:href="#DejaVuSans-30"/>
      </g>
     </g>
    </g>
    <g id="text_14">
     <!-- Salary -->
     <g transform="translate(27.548437 240.14875)rotate(-90)scale(0.14 -0.14)">
      <defs>
       <path d="M 3425 4513 
L 3425 3897 
Q 3066 4069 2747 4153 
Q 2428 4238 2131 4238 
Q 1616 4238 1336 4038 
Q 1056 3838 1056 3469 
Q 1056 3159 1242 3001 
Q 1428 2844 1947 2747 
L 2328 2669 
Q 3034 2534 3370 2195 
Q 3706 1856 3706 1288 
Q 3706 609 3251 259 
Q 2797 -91 1919 -91 
Q 1588 -91 1214 -16 
Q 841 59 441 206 
L 441 856 
Q 825 641 1194 531 
Q 1563 422 1919 422 
Q 2459 422 2753 634 
Q 3047 847 3047 1241 
Q 3047 1584 2836 1778 
Q 2625 1972 2144 2069 
L 1759 2144 
Q 1053 2284 737 2584 
Q 422 2884 422 3419 
Q 422 4038 858 4394 
Q 1294 4750 2059 4750 
Q 2388 4750 2728 4690 
Q 3069 4631 3425 4513 
z
" id="DejaVuSans-53" transform="scale(0.015625)"/>
       <path d="M 2194 1759 
Q 1497 1759 1228 1600 
Q 959 1441 959 1056 
Q 959 750 1161 570 
Q 1363 391 1709 391 
Q 2188 391 2477 730 
Q 2766 1069 2766 1631 
L 2766 1759 
L 2194 1759 
z
M 3341 1997 
L 3341 0 
L 2766 0 
L 2766 531 
Q 2569 213 2275 61 
Q 1981 -91 1556 -91 
Q 1019 -91 701 211 
Q 384 513 384 1019 
Q 384 1609 779 1909 
Q 1175 2209 1959 2209 
L 2766 2209 
L 2766 2266 
Q 2766 2663 2505 2880 
Q 2244 3097 1772 3097 
Q 1472 3097 1187 3025 
Q 903 2953 641 2809 
L 641 3341 
Q 956 3463 1253 3523 
Q 1550 3584 1831 3584 
Q 2591 3584 2966 3190 
Q 3341 2797 3341 1997 
z
" id="DejaVuSans-61" transform="scale(0.015625)"/>
       <path d="M 603 4863 
L 1178 4863 
L 1178 0 
L 603 0 
L 603 4863 
z
" id="DejaVuSans-6c" transform="scale(0.015625)"/>
       <path d="M 2631 2963 
Q 2534 3019 2420 3045 
Q 2306 3072 2169 3072 
Q 1681 3072 1420 2755 
Q 1159 2438 1159 1844 
L 1159 0 
L 581 0 
L 581 3500 
L 1159 3500 
L 1159 2956 
Q 1341 3275 1631 3429 
Q 1922 3584 2338 3584 
Q 2397 3584 2469 3576 
Q 2541 3569 2628 3553 
L 2631 2963 
z
" id="DejaVuSans-72" transform="scale(0.015625)"/>
       <path d="M 2059 -325 
Q 1816 -950 1584 -1140 
Q 1353 -1331 966 -1331 
L 506 -1331 
L 506 -850 
L 844 -850 
Q 1081 -850 1212 -737 
Q 1344 -625 1503 -206 
L 1606 56 
L 191 3500 
L 800 3500 
L 1894 763 
L 2988 3500 
L 3597 3500 
L 2059 -325 
z
" id="DejaVuSans-79" transform="scale(0.015625)"/>
      </defs>
      <use xlink:href="#DejaVuSans-53"/>
      <use x="63.476562" xlink:href="#DejaVuSans-61"/>
      <use x="124.755859" xlink:href="#DejaVuSans-6c"/>
      <use x="152.539062" xlink:href="#DejaVuSans-61"/>
      <use x="213.818359" xlink:href="#DejaVuSans-72"/>
      <use x="254.931641" xlink:href="#DejaVuSans-79"/>
     </g>
    </g>
   </g>
   <g id="line2d_13">
    <defs>
     <path d="M 0 3 
C 0.795609 3 1.55874 2.683901 2.12132 2.12132 
C 2.683901 1.55874 3 0.795609 3 0 
C 3 -0.795609 2.683901 -1.55874 2.12132 -2.12132 
C 1.55874 -2.683901 0.795609 -3 0 -3 
C -0.795609 -3 -1.55874 -2.683901 -2.12132 -2.12132 
C -2.683901 -1.55874 -3 -0.795609 -3 0 
C -3 0.795609 -2.683901 1.55874 -2.12132 2.12132 
C -1.55874 2.683901 -0.795609 3 0 3 
z
" id="m9cdee5a51d" style="stroke:#1f77b4;"/>
    </defs>
    <g clip-path="url(#p0d6664f18e)">
     <use style="fill:#1f77b4;stroke:#1f77b4;" x="92.290909" xlink:href="#m9cdee5a51d" y="317.854044"/>
     <use style="fill:#1f77b4;stroke:#1f77b4;" x="93.839833" xlink:href="#m9cdee5a51d" y="317.222069"/>
     <use style="fill:#1f77b4;stroke:#1f77b4;" x="95.388758" xlink:href="#m9cdee5a51d" y="314.694169"/>
     <use style="fill:#1f77b4;stroke:#1f77b4;" x="96.937682" xlink:href="#m9cdee5a51d" y="366.32652"/>
     <use style="fill:#1f77b4;stroke:#1f77b4;" x="98.486607" xlink:href="#m9cdee5a51d" y="283.095423"/>
     <use style="fill:#1f77b4;stroke:#1f77b4;" x="100.035531" xlink:href="#m9cdee5a51d" y="369.044013"/>
     <use style="fill:#1f77b4;stroke:#1f77b4;" x="101.584455" xlink:href="#m9cdee5a51d" y="365.252163"/>
     <use style="fill:#1f77b4;stroke:#1f77b4;" x="103.13338" xlink:href="#m9cdee5a51d" y="368.412038"/>
     <use style="fill:#1f77b4;stroke:#1f77b4;" x="104.682304" xlink:href="#m9cdee5a51d" y="238.857179"/>
     <use style="fill:#1f77b4;stroke:#1f77b4;" x="106.231228" xlink:href="#m9cdee5a51d" y="312.52738"/>
     <use style="fill:#1f77b4;stroke:#1f77b4;" x="107.780153" xlink:href="#m9cdee5a51d" y="313.114232"/>
     <use style="fill:#1f77b4;stroke:#1f77b4;" x="109.329077" xlink:href="#m9cdee5a51d" y="308.37442"/>
     <use style="fill:#1f77b4;stroke:#1f77b4;" x="110.878001" xlink:href="#m9cdee5a51d" y="289.415172"/>
     <use style="fill:#1f77b4;stroke:#1f77b4;" x="112.426926" xlink:href="#m9cdee5a51d" y="347.556865"/>
     <use style="fill:#1f77b4;stroke:#1f77b4;" x="113.97585" xlink:href="#m9cdee5a51d" y="279.935549"/>
     <use style="fill:#1f77b4;stroke:#1f77b4;" x="115.524774" xlink:href="#m9cdee5a51d" y="355.772539"/>
     <use style="fill:#1f77b4;stroke:#1f77b4;" x="117.073699" xlink:href="#m9cdee5a51d" y="360.828339"/>
     <use style="fill:#1f77b4;stroke:#1f77b4;" x="118.622623" xlink:href="#m9cdee5a51d" y="365.252163"/>
     <use style="fill:#1f77b4;stroke:#1f77b4;" x="120.171548" xlink:href="#m9cdee5a51d" y="363.356238"/>
     <use style="fill:#1f77b4;stroke:#1f77b4;" x="121.720472" xlink:href="#m9cdee5a51d" y="302.054671"/>
     <use style="fill:#1f77b4;stroke:#1f77b4;" x="123.269396" xlink:href="#m9cdee5a51d" y="279.724848"/>
     <use style="fill:#1f77b4;stroke:#1f77b4;" x="124.818321" xlink:href="#m9cdee5a51d" y="281.199498"/>
     <use style="fill:#1f77b4;stroke:#1f77b4;" x="126.367245" xlink:href="#m9cdee5a51d" y="288.361923"/>
     <use style="fill:#1f77b4;stroke:#1f77b4;" x="127.916169" xlink:href="#m9cdee5a51d" y="283.095423"/>
     <use style="fill:#1f77b4;stroke:#1f77b4;" x="129.465094" xlink:href="#m9cdee5a51d" y="298.894796"/>
     <use style="fill:#1f77b4;stroke:#1f77b4;" x="131.014018" xlink:href="#m9cdee5a51d" y="264.136176"/>
     <use style="fill:#1f77b4;stroke:#1f77b4;" x="132.562942" xlink:href="#m9cdee5a51d" y="363.988213"/>
     <use style="fill:#1f77b4;stroke:#1f77b4;" x="134.111867" xlink:href="#m9cdee5a51d" y="300.474734"/>
     <use style="fill:#1f77b4;stroke:#1f77b4;" x="135.660791" xlink:href="#m9cdee5a51d" y="339.973166"/>
     <use style="fill:#1f77b4;stroke:#1f77b4;" x="137.209715" xlink:href="#m9cdee5a51d" y="270.455925"/>
     <use style="fill:#1f77b4;stroke:#1f77b4;" x="138.75864" xlink:href="#m9cdee5a51d" y="366.516113"/>
     <use style="fill:#1f77b4;stroke:#1f77b4;" x="140.307564" xlink:href="#m9cdee5a51d" y="369.36"/>
     <use style="fill:#1f77b4;stroke:#1f77b4;" x="141.856489" xlink:href="#m9cdee5a51d" y="355.140564"/>
     <use style="fill:#1f77b4;stroke:#1f77b4;" x="143.405413" xlink:href="#m9cdee5a51d" y="339.341191"/>
     <use style="fill:#1f77b4;stroke:#1f77b4;" x="144.954337" xlink:href="#m9cdee5a51d" y="350.71674"/>
     <use style="fill:#1f77b4;stroke:#1f77b4;" x="146.503262" xlink:href="#m9cdee5a51d" y="346.608903"/>
     <use style="fill:#1f77b4;stroke:#1f77b4;" x="148.052186" xlink:href="#m9cdee5a51d" y="274.879749"/>
     <use style="fill:#1f77b4;stroke:#1f77b4;" x="149.60111" xlink:href="#m9cdee5a51d" y="267.29605"/>
     <use style="fill:#1f77b4;stroke:#1f77b4;" x="151.150035" xlink:href="#m9cdee5a51d" y="369.044013"/>
     <use style="fill:#1f77b4;stroke:#1f77b4;" x="152.698959" xlink:href="#m9cdee5a51d" y="226.21768"/>
     <use style="fill:#1f77b4;stroke:#1f77b4;" x="154.247883" xlink:href="#m9cdee5a51d" y="292.575047"/>
     <use style="fill:#1f77b4;stroke:#1f77b4;" x="155.796808" xlink:href="#m9cdee5a51d" y="325.437743"/>
     <use style="fill:#1f77b4;stroke:#1f77b4;" x="157.345732" xlink:href="#m9cdee5a51d" y="334.917367"/>
     <use style="fill:#1f77b4;stroke:#1f77b4;" x="158.894656" xlink:href="#m9cdee5a51d" y="325.227043"/>
     <use style="fill:#1f77b4;stroke:#1f77b4;" x="160.443581" xlink:href="#m9cdee5a51d" y="207.258433"/>
     <use style="fill:#1f77b4;stroke:#1f77b4;" x="161.992505" xlink:href="#m9cdee5a51d" y="366.516113"/>
     <use style="fill:#1f77b4;stroke:#1f77b4;" x="163.54143" xlink:href="#m9cdee5a51d" y="343.133041"/>
     <use style="fill:#1f77b4;stroke:#1f77b4;" x="165.090354" xlink:href="#m9cdee5a51d" y="348.820815"/>
     <use style="fill:#1f77b4;stroke:#1f77b4;" x="166.639278" xlink:href="#m9cdee5a51d" y="349.45279"/>
     <use style="fill:#1f77b4;stroke:#1f77b4;" x="168.188203" xlink:href="#m9cdee5a51d" y="257.816426"/>
     <use style="fill:#1f77b4;stroke:#1f77b4;" x="169.737127" xlink:href="#m9cdee5a51d" y="368.412038"/>
     <use style="fill:#1f77b4;stroke:#1f77b4;" x="171.286051" xlink:href="#m9cdee5a51d" y="364.620188"/>
     <use style="fill:#1f77b4;stroke:#1f77b4;" x="172.834976" xlink:href="#m9cdee5a51d" y="337.445266"/>
     <use style="fill:#1f77b4;stroke:#1f77b4;" x="174.3839" xlink:href="#m9cdee5a51d" y="270.455925"/>
     <use style="fill:#1f77b4;stroke:#1f77b4;" x="175.932824" xlink:href="#m9cdee5a51d" y="310.270345"/>
     <use style="fill:#1f77b4;stroke:#1f77b4;" x="177.481749" xlink:href="#m9cdee5a51d" y="259.923052"/>
     <use style="fill:#1f77b4;stroke:#1f77b4;" x="179.030673" xlink:href="#m9cdee5a51d" y="270.455925"/>
     <use style="fill:#1f77b4;stroke:#1f77b4;" x="180.579598" xlink:href="#m9cdee5a51d" y="351.348715"/>
     <use style="fill:#1f77b4;stroke:#1f77b4;" x="182.128522" xlink:href="#m9cdee5a51d" y="336.813292"/>
     <use style="fill:#1f77b4;stroke:#1f77b4;" x="183.677446" xlink:href="#m9cdee5a51d" y="343.133041"/>
     <use style="fill:#1f77b4;stroke:#1f77b4;" x="185.226371" xlink:href="#m9cdee5a51d" y="321.013918"/>
     <use style="fill:#1f77b4;stroke:#1f77b4;" x="186.775295" xlink:href="#m9cdee5a51d" y="128.261567"/>
     <use style="fill:#1f77b4;stroke:#1f77b4;" x="188.324219" xlink:href="#m9cdee5a51d" y="137.741191"/>
     <use style="fill:#1f77b4;stroke:#1f77b4;" x="189.873144" xlink:href="#m9cdee5a51d" y="302.054671"/>
     <use style="fill:#1f77b4;stroke:#1f77b4;" x="191.422068" xlink:href="#m9cdee5a51d" y="246.230177"/>
     <use style="fill:#1f77b4;stroke:#1f77b4;" x="192.970992" xlink:href="#m9cdee5a51d" y="363.988213"/>
     <use style="fill:#1f77b4;stroke:#1f77b4;" x="194.519917" xlink:href="#m9cdee5a51d" y="345.028966"/>
     <use style="fill:#1f77b4;stroke:#1f77b4;" x="196.068841" xlink:href="#m9cdee5a51d" y="317.854044"/>
     <use style="fill:#1f77b4;stroke:#1f77b4;" x="197.617765" xlink:href="#m9cdee5a51d" y="323.352226"/>
     <use style="fill:#1f77b4;stroke:#1f77b4;" x="199.16669" xlink:href="#m9cdee5a51d" y="223.689781"/>
     <use style="fill:#1f77b4;stroke:#1f77b4;" x="200.715614" xlink:href="#m9cdee5a51d" y="369.044013"/>
     <use style="fill:#1f77b4;stroke:#1f77b4;" x="202.264539" xlink:href="#m9cdee5a51d" y="359.564389"/>
     <use style="fill:#1f77b4;stroke:#1f77b4;" x="203.813463" xlink:href="#m9cdee5a51d" y="302.686646"/>
     <use style="fill:#1f77b4;stroke:#1f77b4;" x="205.362387" xlink:href="#m9cdee5a51d" y="142.612454"/>
     <use style="fill:#1f77b4;stroke:#1f77b4;" x="206.911312" xlink:href="#m9cdee5a51d" y="339.973166"/>
     <use style="fill:#1f77b4;stroke:#1f77b4;" x="208.460236" xlink:href="#m9cdee5a51d" y="315.958119"/>
     <use style="fill:#1f77b4;stroke:#1f77b4;" x="210.00916" xlink:href="#m9cdee5a51d" y="66.96"/>
     <use style="fill:#1f77b4;stroke:#1f77b4;" x="211.558085" xlink:href="#m9cdee5a51d" y="330.493542"/>
     <use style="fill:#1f77b4;stroke:#1f77b4;" x="213.107009" xlink:href="#m9cdee5a51d" y="283.095423"/>
     <use style="fill:#1f77b4;stroke:#1f77b4;" x="214.655933" xlink:href="#m9cdee5a51d" y="229.377555"/>
     <use style="fill:#1f77b4;stroke:#1f77b4;" x="216.204858" xlink:href="#m9cdee5a51d" y="369.044013"/>
     <use style="fill:#1f77b4;stroke:#1f77b4;" x="217.753782" xlink:href="#m9cdee5a51d" y="188.299185"/>
     <use style="fill:#1f77b4;stroke:#1f77b4;" x="219.302706" xlink:href="#m9cdee5a51d" y="329.229592"/>
     <use style="fill:#1f77b4;stroke:#1f77b4;" x="220.851631" xlink:href="#m9cdee5a51d" y="134.509145"/>
     <use style="fill:#1f77b4;stroke:#1f77b4;" x="222.400555" xlink:href="#m9cdee5a51d" y="350.71674"/>
     <use style="fill:#1f77b4;stroke:#1f77b4;" x="223.94948" xlink:href="#m9cdee5a51d" y="264.136176"/>
     <use style="fill:#1f77b4;stroke:#1f77b4;" x="225.498404" xlink:href="#m9cdee5a51d" y="358.300439"/>
     <use style="fill:#1f77b4;stroke:#1f77b4;" x="227.047328" xlink:href="#m9cdee5a51d" y="289.415172"/>
     <use style="fill:#1f77b4;stroke:#1f77b4;" x="228.596253" xlink:href="#m9cdee5a51d" y="310.270345"/>
     <use style="fill:#1f77b4;stroke:#1f77b4;" x="230.145177" xlink:href="#m9cdee5a51d" y="332.07348"/>
     <use style="fill:#1f77b4;stroke:#1f77b4;" x="231.694101" xlink:href="#m9cdee5a51d" y="285.202048"/>
     <use style="fill:#1f77b4;stroke:#1f77b4;" x="233.243026" xlink:href="#m9cdee5a51d" y="352.612665"/>
     <use style="fill:#1f77b4;stroke:#1f77b4;" x="234.79195" xlink:href="#m9cdee5a51d" y="327.333668"/>
     <use style="fill:#1f77b4;stroke:#1f77b4;" x="236.340874" xlink:href="#m9cdee5a51d" y="327.333668"/>
     <use style="fill:#1f77b4;stroke:#1f77b4;" x="237.889799" xlink:href="#m9cdee5a51d" y="284.675361"/>
     <use style="fill:#1f77b4;stroke:#1f77b4;" x="239.438723" xlink:href="#m9cdee5a51d" y="314.694169"/>
     <use style="fill:#1f77b4;stroke:#1f77b4;" x="240.987647" xlink:href="#m9cdee5a51d" y="302.054671"/>
     <use style="fill:#1f77b4;stroke:#1f77b4;" x="242.536572" xlink:href="#m9cdee5a51d" y="294.154984"/>
     <use style="fill:#1f77b4;stroke:#1f77b4;" x="244.085496" xlink:href="#m9cdee5a51d" y="257.816426"/>
     <use style="fill:#1f77b4;stroke:#1f77b4;" x="245.634421" xlink:href="#m9cdee5a51d" y="283.095423"/>
     <use style="fill:#1f77b4;stroke:#1f77b4;" x="247.183345" xlink:href="#m9cdee5a51d" y="340.289154"/>
     <use style="fill:#1f77b4;stroke:#1f77b4;" x="248.732269" xlink:href="#m9cdee5a51d" y="336.813292"/>
     <use style="fill:#1f77b4;stroke:#1f77b4;" x="250.281194" xlink:href="#m9cdee5a51d" y="366.8321"/>
     <use style="fill:#1f77b4;stroke:#1f77b4;" x="251.830118" xlink:href="#m9cdee5a51d" y="355.772539"/>
     <use style="fill:#1f77b4;stroke:#1f77b4;" x="253.379042" xlink:href="#m9cdee5a51d" y="366.516113"/>
     <use style="fill:#1f77b4;stroke:#1f77b4;" x="254.927967" xlink:href="#m9cdee5a51d" y="221.477868"/>
     <use style="fill:#1f77b4;stroke:#1f77b4;" x="256.476891" xlink:href="#m9cdee5a51d" y="323.541818"/>
     <use style="fill:#1f77b4;stroke:#1f77b4;" x="258.025815" xlink:href="#m9cdee5a51d" y="365.252163"/>
     <use style="fill:#1f77b4;stroke:#1f77b4;" x="259.57474" xlink:href="#m9cdee5a51d" y="357.036489"/>
     <use style="fill:#1f77b4;stroke:#1f77b4;" x="261.123664" xlink:href="#m9cdee5a51d" y="346.292915"/>
     <use style="fill:#1f77b4;stroke:#1f77b4;" x="262.672588" xlink:href="#m9cdee5a51d" y="213.578182"/>
     <use style="fill:#1f77b4;stroke:#1f77b4;" x="264.221513" xlink:href="#m9cdee5a51d" y="280.146249"/>
     <use style="fill:#1f77b4;stroke:#1f77b4;" x="265.770437" xlink:href="#m9cdee5a51d" y="250.443428"/>
     <use style="fill:#1f77b4;stroke:#1f77b4;" x="267.319362" xlink:href="#m9cdee5a51d" y="343.133041"/>
     <use style="fill:#1f77b4;stroke:#1f77b4;" x="268.868286" xlink:href="#m9cdee5a51d" y="279.935549"/>
     <use style="fill:#1f77b4;stroke:#1f77b4;" x="270.41721" xlink:href="#m9cdee5a51d" y="270.455925"/>
     <use style="fill:#1f77b4;stroke:#1f77b4;" x="271.966135" xlink:href="#m9cdee5a51d" y="331.757492"/>
     <use style="fill:#1f77b4;stroke:#1f77b4;" x="273.515059" xlink:href="#m9cdee5a51d" y="365.884138"/>
     <use style="fill:#1f77b4;stroke:#1f77b4;" x="275.063983" xlink:href="#m9cdee5a51d" y="363.988213"/>
     <use style="fill:#1f77b4;stroke:#1f77b4;" x="276.612908" xlink:href="#m9cdee5a51d" y="365.252163"/>
     <use style="fill:#1f77b4;stroke:#1f77b4;" x="278.161832" xlink:href="#m9cdee5a51d" y="342.817053"/>
     <use style="fill:#1f77b4;stroke:#1f77b4;" x="279.710756" xlink:href="#m9cdee5a51d" y="367.780063"/>
     <use style="fill:#1f77b4;stroke:#1f77b4;" x="281.259681" xlink:href="#m9cdee5a51d" y="302.054671"/>
     <use style="fill:#1f77b4;stroke:#1f77b4;" x="282.808605" xlink:href="#m9cdee5a51d" y="352.612665"/>
     <use style="fill:#1f77b4;stroke:#1f77b4;" x="284.357529" xlink:href="#m9cdee5a51d" y="294.850157"/>
     <use style="fill:#1f77b4;stroke:#1f77b4;" x="285.906454" xlink:href="#m9cdee5a51d" y="368.412038"/>
     <use style="fill:#1f77b4;stroke:#1f77b4;" x="287.455378" xlink:href="#m9cdee5a51d" y="72.963762"/>
     <use style="fill:#1f77b4;stroke:#1f77b4;" x="289.004303" xlink:href="#m9cdee5a51d" y="346.292915"/>
     <use style="fill:#1f77b4;stroke:#1f77b4;" x="290.553227" xlink:href="#m9cdee5a51d" y="358.300439"/>
     <use style="fill:#1f77b4;stroke:#1f77b4;" x="292.102151" xlink:href="#m9cdee5a51d" y="296.998871"/>
     <use style="fill:#1f77b4;stroke:#1f77b4;" x="293.651076" xlink:href="#m9cdee5a51d" y="339.973166"/>
     <use style="fill:#1f77b4;stroke:#1f77b4;" x="295.2" xlink:href="#m9cdee5a51d" y="363.988213"/>
     <use style="fill:#1f77b4;stroke:#1f77b4;" x="296.748924" xlink:href="#m9cdee5a51d" y="273.615799"/>
     <use style="fill:#1f77b4;stroke:#1f77b4;" x="298.297849" xlink:href="#m9cdee5a51d" y="353.244639"/>
     <use style="fill:#1f77b4;stroke:#1f77b4;" x="299.846773" xlink:href="#m9cdee5a51d" y="321.013918"/>
     <use style="fill:#1f77b4;stroke:#1f77b4;" x="301.395697" xlink:href="#m9cdee5a51d" y="298.262821"/>
     <use style="fill:#1f77b4;stroke:#1f77b4;" x="302.944622" xlink:href="#m9cdee5a51d" y="366.958495"/>
     <use style="fill:#1f77b4;stroke:#1f77b4;" x="304.493546" xlink:href="#m9cdee5a51d" y="213.578182"/>
     <use style="fill:#1f77b4;stroke:#1f77b4;" x="306.042471" xlink:href="#m9cdee5a51d" y="251.496677"/>
     <use style="fill:#1f77b4;stroke:#1f77b4;" x="307.591395" xlink:href="#m9cdee5a51d" y="150.38069"/>
     <use style="fill:#1f77b4;stroke:#1f77b4;" x="309.140319" xlink:href="#m9cdee5a51d" y="212.314232"/>
     <use style="fill:#1f77b4;stroke:#1f77b4;" x="310.689244" xlink:href="#m9cdee5a51d" y="284.675361"/>
     <use style="fill:#1f77b4;stroke:#1f77b4;" x="312.238168" xlink:href="#m9cdee5a51d" y="298.894796"/>
     <use style="fill:#1f77b4;stroke:#1f77b4;" x="313.787092" xlink:href="#m9cdee5a51d" y="362.092288"/>
     <use style="fill:#1f77b4;stroke:#1f77b4;" x="315.336017" xlink:href="#m9cdee5a51d" y="246.019603"/>
     <use style="fill:#1f77b4;stroke:#1f77b4;" x="316.884941" xlink:href="#m9cdee5a51d" y="286.255298"/>
     <use style="fill:#1f77b4;stroke:#1f77b4;" x="318.433865" xlink:href="#m9cdee5a51d" y="339.973166"/>
     <use style="fill:#1f77b4;stroke:#1f77b4;" x="319.98279" xlink:href="#m9cdee5a51d" y="331.757492"/>
     <use style="fill:#1f77b4;stroke:#1f77b4;" x="321.531714" xlink:href="#m9cdee5a51d" y="368.412038"/>
     <use style="fill:#1f77b4;stroke:#1f77b4;" x="323.080638" xlink:href="#m9cdee5a51d" y="228.324305"/>
     <use style="fill:#1f77b4;stroke:#1f77b4;" x="324.629563" xlink:href="#m9cdee5a51d" y="352.296677"/>
     <use style="fill:#1f77b4;stroke:#1f77b4;" x="326.178487" xlink:href="#m9cdee5a51d" y="349.45279"/>
     <use style="fill:#1f77b4;stroke:#1f77b4;" x="327.727412" xlink:href="#m9cdee5a51d" y="311.534295"/>
     <use style="fill:#1f77b4;stroke:#1f77b4;" x="329.276336" xlink:href="#m9cdee5a51d" y="344.396991"/>
     <use style="fill:#1f77b4;stroke:#1f77b4;" x="330.82526" xlink:href="#m9cdee5a51d" y="278.355611"/>
     <use style="fill:#1f77b4;stroke:#1f77b4;" x="332.374185" xlink:href="#m9cdee5a51d" y="276.775674"/>
     <use style="fill:#1f77b4;stroke:#1f77b4;" x="333.923109" xlink:href="#m9cdee5a51d" y="303.634608"/>
     <use style="fill:#1f77b4;stroke:#1f77b4;" x="335.472033" xlink:href="#m9cdee5a51d" y="359.564389"/>
     <use style="fill:#1f77b4;stroke:#1f77b4;" x="337.020958" xlink:href="#m9cdee5a51d" y="324.805768"/>
     <use style="fill:#1f77b4;stroke:#1f77b4;" x="338.569882" xlink:href="#m9cdee5a51d" y="368.412038"/>
     <use style="fill:#1f77b4;stroke:#1f77b4;" x="340.118806" xlink:href="#m9cdee5a51d" y="305.214545"/>
     <use style="fill:#1f77b4;stroke:#1f77b4;" x="341.667731" xlink:href="#m9cdee5a51d" y="279.303574"/>
     <use style="fill:#1f77b4;stroke:#1f77b4;" x="343.216655" xlink:href="#m9cdee5a51d" y="366.516113"/>
     <use style="fill:#1f77b4;stroke:#1f77b4;" x="344.765579" xlink:href="#m9cdee5a51d" y="358.932414"/>
     <use style="fill:#1f77b4;stroke:#1f77b4;" x="346.314504" xlink:href="#m9cdee5a51d" y="289.415172"/>
     <use style="fill:#1f77b4;stroke:#1f77b4;" x="347.863428" xlink:href="#m9cdee5a51d" y="308.37442"/>
     <use style="fill:#1f77b4;stroke:#1f77b4;" x="349.412353" xlink:href="#m9cdee5a51d" y="295.734922"/>
     <use style="fill:#1f77b4;stroke:#1f77b4;" x="350.961277" xlink:href="#m9cdee5a51d" y="369.296803"/>
     <use style="fill:#1f77b4;stroke:#1f77b4;" x="352.510201" xlink:href="#m9cdee5a51d" y="365.252163"/>
     <use style="fill:#1f77b4;stroke:#1f77b4;" x="354.059126" xlink:href="#m9cdee5a51d" y="293.207022"/>
     <use style="fill:#1f77b4;stroke:#1f77b4;" x="355.60805" xlink:href="#m9cdee5a51d" y="355.772539"/>
     <use style="fill:#1f77b4;stroke:#1f77b4;" x="357.156974" xlink:href="#m9cdee5a51d" y="360.575549"/>
     <use style="fill:#1f77b4;stroke:#1f77b4;" x="358.705899" xlink:href="#m9cdee5a51d" y="109.00744"/>
     <use style="fill:#1f77b4;stroke:#1f77b4;" x="360.254823" xlink:href="#m9cdee5a51d" y="267.29605"/>
     <use style="fill:#1f77b4;stroke:#1f77b4;" x="361.803747" xlink:href="#m9cdee5a51d" y="362.724263"/>
     <use style="fill:#1f77b4;stroke:#1f77b4;" x="363.352672" xlink:href="#m9cdee5a51d" y="360.196364"/>
     <use style="fill:#1f77b4;stroke:#1f77b4;" x="364.901596" xlink:href="#m9cdee5a51d" y="351.348715"/>
     <use style="fill:#1f77b4;stroke:#1f77b4;" x="366.45052" xlink:href="#m9cdee5a51d" y="276.775674"/>
     <use style="fill:#1f77b4;stroke:#1f77b4;" x="367.999445" xlink:href="#m9cdee5a51d" y="347.556865"/>
     <use style="fill:#1f77b4;stroke:#1f77b4;" x="369.548369" xlink:href="#m9cdee5a51d" y="333.653417"/>
     <use style="fill:#1f77b4;stroke:#1f77b4;" x="371.097294" xlink:href="#m9cdee5a51d" y="355.772539"/>
     <use style="fill:#1f77b4;stroke:#1f77b4;" x="372.646218" xlink:href="#m9cdee5a51d" y="352.612665"/>
     <use style="fill:#1f77b4;stroke:#1f77b4;" x="374.195142" xlink:href="#m9cdee5a51d" y="132.685392"/>
     <use style="fill:#1f77b4;stroke:#1f77b4;" x="375.744067" xlink:href="#m9cdee5a51d" y="289.415172"/>
     <use style="fill:#1f77b4;stroke:#1f77b4;" x="377.292991" xlink:href="#m9cdee5a51d" y="283.095423"/>
     <use style="fill:#1f77b4;stroke:#1f77b4;" x="378.841915" xlink:href="#m9cdee5a51d" y="321.013918"/>
     <use style="fill:#1f77b4;stroke:#1f77b4;" x="380.39084" xlink:href="#m9cdee5a51d" y="356.151724"/>
     <use style="fill:#1f77b4;stroke:#1f77b4;" x="381.939764" xlink:href="#m9cdee5a51d" y="218.633981"/>
     <use style="fill:#1f77b4;stroke:#1f77b4;" x="383.488688" xlink:href="#m9cdee5a51d" y="283.095423"/>
     <use style="fill:#1f77b4;stroke:#1f77b4;" x="385.037613" xlink:href="#m9cdee5a51d" y="353.876614"/>
     <use style="fill:#1f77b4;stroke:#1f77b4;" x="386.586537" xlink:href="#m9cdee5a51d" y="304.582571"/>
     <use style="fill:#1f77b4;stroke:#1f77b4;" x="388.135461" xlink:href="#m9cdee5a51d" y="361.460313"/>
     <use style="fill:#1f77b4;stroke:#1f77b4;" x="389.684386" xlink:href="#m9cdee5a51d" y="321.013918"/>
     <use style="fill:#1f77b4;stroke:#1f77b4;" x="391.23331" xlink:href="#m9cdee5a51d" y="339.973166"/>
     <use style="fill:#1f77b4;stroke:#1f77b4;" x="392.782235" xlink:href="#m9cdee5a51d" y="346.292915"/>
     <use style="fill:#1f77b4;stroke:#1f77b4;" x="394.331159" xlink:href="#m9cdee5a51d" y="245.176928"/>
     <use style="fill:#1f77b4;stroke:#1f77b4;" x="395.880083" xlink:href="#m9cdee5a51d" y="350.71674"/>
     <use style="fill:#1f77b4;stroke:#1f77b4;" x="397.429008" xlink:href="#m9cdee5a51d" y="327.333668"/>
     <use style="fill:#1f77b4;stroke:#1f77b4;" x="398.977932" xlink:href="#m9cdee5a51d" y="307.11047"/>
     <use style="fill:#1f77b4;stroke:#1f77b4;" x="400.526856" xlink:href="#m9cdee5a51d" y="166.812038"/>
     <use style="fill:#1f77b4;stroke:#1f77b4;" x="402.075781" xlink:href="#m9cdee5a51d" y="316.274107"/>
     <use style="fill:#1f77b4;stroke:#1f77b4;" x="403.624705" xlink:href="#m9cdee5a51d" y="324.173793"/>
     <use style="fill:#1f77b4;stroke:#1f77b4;" x="405.173629" xlink:href="#m9cdee5a51d" y="314.694169"/>
     <use style="fill:#1f77b4;stroke:#1f77b4;" x="406.722554" xlink:href="#m9cdee5a51d" y="346.292915"/>
     <use style="fill:#1f77b4;stroke:#1f77b4;" x="408.271478" xlink:href="#m9cdee5a51d" y="327.333668"/>
     <use style="fill:#1f77b4;stroke:#1f77b4;" x="409.820402" xlink:href="#m9cdee5a51d" y="321.013918"/>
     <use style="fill:#1f77b4;stroke:#1f77b4;" x="411.369327" xlink:href="#m9cdee5a51d" y="283.095423"/>
     <use style="fill:#1f77b4;stroke:#1f77b4;" x="412.918251" xlink:href="#m9cdee5a51d" y="369.044013"/>
     <use style="fill:#1f77b4;stroke:#1f77b4;" x="414.467176" xlink:href="#m9cdee5a51d" y="267.29605"/>
     <use style="fill:#1f77b4;stroke:#1f77b4;" x="416.0161" xlink:href="#m9cdee5a51d" y="353.876614"/>
     <use style="fill:#1f77b4;stroke:#1f77b4;" x="417.565024" xlink:href="#m9cdee5a51d" y="353.750219"/>
     <use style="fill:#1f77b4;stroke:#1f77b4;" x="419.113949" xlink:href="#m9cdee5a51d" y="284.359373"/>
     <use style="fill:#1f77b4;stroke:#1f77b4;" x="420.662873" xlink:href="#m9cdee5a51d" y="346.292915"/>
     <use style="fill:#1f77b4;stroke:#1f77b4;" x="422.211797" xlink:href="#m9cdee5a51d" y="360.196364"/>
     <use style="fill:#1f77b4;stroke:#1f77b4;" x="423.760722" xlink:href="#m9cdee5a51d" y="365.56815"/>
     <use style="fill:#1f77b4;stroke:#1f77b4;" x="425.309646" xlink:href="#m9cdee5a51d" y="284.359373"/>
     <use style="fill:#1f77b4;stroke:#1f77b4;" x="426.85857" xlink:href="#m9cdee5a51d" y="360.196364"/>
     <use style="fill:#1f77b4;stroke:#1f77b4;" x="428.407495" xlink:href="#m9cdee5a51d" y="334.706666"/>
     <use style="fill:#1f77b4;stroke:#1f77b4;" x="429.956419" xlink:href="#m9cdee5a51d" y="251.496677"/>
     <use style="fill:#1f77b4;stroke:#1f77b4;" x="431.505344" xlink:href="#m9cdee5a51d" y="365.252163"/>
     <use style="fill:#1f77b4;stroke:#1f77b4;" x="433.054268" xlink:href="#m9cdee5a51d" y="366.516113"/>
     <use style="fill:#1f77b4;stroke:#1f77b4;" x="434.603192" xlink:href="#m9cdee5a51d" y="352.612665"/>
     <use style="fill:#1f77b4;stroke:#1f77b4;" x="436.152117" xlink:href="#m9cdee5a51d" y="360.828339"/>
     <use style="fill:#1f77b4;stroke:#1f77b4;" x="437.701041" xlink:href="#m9cdee5a51d" y="358.300439"/>
     <use style="fill:#1f77b4;stroke:#1f77b4;" x="439.249965" xlink:href="#m9cdee5a51d" y="317.854044"/>
     <use style="fill:#1f77b4;stroke:#1f77b4;" x="440.79889" xlink:href="#m9cdee5a51d" y="194.618934"/>
     <use style="fill:#1f77b4;stroke:#1f77b4;" x="442.347814" xlink:href="#m9cdee5a51d" y="358.932414"/>
     <use style="fill:#1f77b4;stroke:#1f77b4;" x="443.896738" xlink:href="#m9cdee5a51d" y="364.620188"/>
     <use style="fill:#1f77b4;stroke:#1f77b4;" x="445.445663" xlink:href="#m9cdee5a51d" y="333.653417"/>
     <use style="fill:#1f77b4;stroke:#1f77b4;" x="446.994587" xlink:href="#m9cdee5a51d" y="366.516113"/>
     <use style="fill:#1f77b4;stroke:#1f77b4;" x="448.543511" xlink:href="#m9cdee5a51d" y="310.90232"/>
     <use style="fill:#1f77b4;stroke:#1f77b4;" x="450.092436" xlink:href="#m9cdee5a51d" y="334.706666"/>
     <use style="fill:#1f77b4;stroke:#1f77b4;" x="451.64136" xlink:href="#m9cdee5a51d" y="259.080376"/>
     <use style="fill:#1f77b4;stroke:#1f77b4;" x="453.190285" xlink:href="#m9cdee5a51d" y="333.653417"/>
     <use style="fill:#1f77b4;stroke:#1f77b4;" x="454.739209" xlink:href="#m9cdee5a51d" y="336.602591"/>
     <use style="fill:#1f77b4;stroke:#1f77b4;" x="456.288133" xlink:href="#m9cdee5a51d" y="346.292915"/>
     <use style="fill:#1f77b4;stroke:#1f77b4;" x="457.837058" xlink:href="#m9cdee5a51d" y="284.359373"/>
     <use style="fill:#1f77b4;stroke:#1f77b4;" x="459.385982" xlink:href="#m9cdee5a51d" y="324.173793"/>
     <use style="fill:#1f77b4;stroke:#1f77b4;" x="460.934906" xlink:href="#m9cdee5a51d" y="260.976301"/>
     <use style="fill:#1f77b4;stroke:#1f77b4;" x="462.483831" xlink:href="#m9cdee5a51d" y="354.508589"/>
     <use style="fill:#1f77b4;stroke:#1f77b4;" x="464.032755" xlink:href="#m9cdee5a51d" y="261.608276"/>
     <use style="fill:#1f77b4;stroke:#1f77b4;" x="465.581679" xlink:href="#m9cdee5a51d" y="341.65839"/>
     <use style="fill:#1f77b4;stroke:#1f77b4;" x="467.130604" xlink:href="#m9cdee5a51d" y="346.92489"/>
     <use style="fill:#1f77b4;stroke:#1f77b4;" x="468.679528" xlink:href="#m9cdee5a51d" y="348.18884"/>
     <use style="fill:#1f77b4;stroke:#1f77b4;" x="470.228452" xlink:href="#m9cdee5a51d" y="232.537429"/>
     <use style="fill:#1f77b4;stroke:#1f77b4;" x="471.777377" xlink:href="#m9cdee5a51d" y="357.668464"/>
     <use style="fill:#1f77b4;stroke:#1f77b4;" x="473.326301" xlink:href="#m9cdee5a51d" y="324.173793"/>
     <use style="fill:#1f77b4;stroke:#1f77b4;" x="474.875226" xlink:href="#m9cdee5a51d" y="264.136176"/>
     <use style="fill:#1f77b4;stroke:#1f77b4;" x="476.42415" xlink:href="#m9cdee5a51d" y="314.694169"/>
     <use style="fill:#1f77b4;stroke:#1f77b4;" x="477.973074" xlink:href="#m9cdee5a51d" y="342.817053"/>
     <use style="fill:#1f77b4;stroke:#1f77b4;" x="479.521999" xlink:href="#m9cdee5a51d" y="283.095423"/>
     <use style="fill:#1f77b4;stroke:#1f77b4;" x="481.070923" xlink:href="#m9cdee5a51d" y="357.668464"/>
     <use style="fill:#1f77b4;stroke:#1f77b4;" x="482.619847" xlink:href="#m9cdee5a51d" y="213.578182"/>
     <use style="fill:#1f77b4;stroke:#1f77b4;" x="484.168772" xlink:href="#m9cdee5a51d" y="311.534295"/>
     <use style="fill:#1f77b4;stroke:#1f77b4;" x="485.717696" xlink:href="#m9cdee5a51d" y="308.37442"/>
     <use style="fill:#1f77b4;stroke:#1f77b4;" x="487.26662" xlink:href="#m9cdee5a51d" y="175.659687"/>
     <use style="fill:#1f77b4;stroke:#1f77b4;" x="488.815545" xlink:href="#m9cdee5a51d" y="362.724263"/>
     <use style="fill:#1f77b4;stroke:#1f77b4;" x="490.364469" xlink:href="#m9cdee5a51d" y="357.036489"/>
     <use style="fill:#1f77b4;stroke:#1f77b4;" x="491.913393" xlink:href="#m9cdee5a51d" y="289.415172"/>
     <use style="fill:#1f77b4;stroke:#1f77b4;" x="493.462318" xlink:href="#m9cdee5a51d" y="267.29605"/>
     <use style="fill:#1f77b4;stroke:#1f77b4;" x="495.011242" xlink:href="#m9cdee5a51d" y="329.229592"/>
     <use style="fill:#1f77b4;stroke:#1f77b4;" x="496.560167" xlink:href="#m9cdee5a51d" y="256.552476"/>
     <use style="fill:#1f77b4;stroke:#1f77b4;" x="498.109091" xlink:href="#m9cdee5a51d" y="251.496677"/>
    </g>
   </g>
   <g id="patch_3">
    <path d="M 72 384.48 
L 72 51.84 
" style="fill:none;stroke:#000000;stroke-linecap:square;stroke-linejoin:miter;stroke-width:0.8;"/>
   </g>
   <g id="patch_4">
    <path d="M 518.4 384.48 
L 518.4 51.84 
" style="fill:none;stroke:#000000;stroke-linecap:square;stroke-linejoin:miter;stroke-width:0.8;"/>
   </g>
   <g id="patch_5">
    <path d="M 72 384.48 
L 518.4 384.48 
" style="fill:none;stroke:#000000;stroke-linecap:square;stroke-linejoin:miter;stroke-width:0.8;"/>
   </g>
   <g id="patch_6">
    <path d="M 72 51.84 
L 518.4 51.84 
" style="fill:none;stroke:#000000;stroke-linecap:square;stroke-linejoin:miter;stroke-width:0.8;"/>
   </g>
  </g>
 </g>
 <defs>
  <clipPath id="p0d6664f18e">
   <rect height="332.64" width="446.4" x="72" y="51.84"/>
  </clipPath>
 </defs>
</svg>
