<?xml version="1.0" encoding="utf-8"?>
<svg xmlns="http://www.w3.org/2000/svg" xmlns:xlink="http://www.w3.org/1999/xlink" width="800" height="700" viewBox="0 0 3200 2800">
<defs>
  <clipPath id="clip930">
    <rect x="0" y="0" width="3200" height="2800"/>
  </clipPath>
</defs>
<path clip-path="url(#clip930)" d="M0 2800 L3200 2800 L3200 0 L0 0  Z" fill="#ffffff" fill-rule="evenodd" fill-opacity="1"/>
<defs>
  <clipPath id="clip931">
    <rect x="640" y="0" width="2241" height="2241"/>
  </clipPath>
</defs>
<path clip-path="url(#clip930)" d="M287.112 2440.12 L3152.76 2440.12 L3152.76 47.2441 L287.112 47.2441  Z" fill="#ffffff" fill-rule="evenodd" fill-opacity="1"/>
<defs>
  <clipPath id="clip932">
    <rect x="287" y="47" width="2867" height="2394"/>
  </clipPath>
</defs>
<polyline clip-path="url(#clip932)" style="stroke:#000000; stroke-linecap:round; stroke-linejoin:round; stroke-width:2; stroke-opacity:0.1; fill:none" points="754.42,2440.12 754.42,47.2441 "/>
<polyline clip-path="url(#clip932)" style="stroke:#000000; stroke-linecap:round; stroke-linejoin:round; stroke-width:2; stroke-opacity:0.1; fill:none" points="1011.89,2440.12 1011.89,47.2441 "/>
<polyline clip-path="url(#clip932)" style="stroke:#000000; stroke-linecap:round; stroke-linejoin:round; stroke-width:2; stroke-opacity:0.1; fill:none" points="1398.1,2440.12 1398.1,47.2441 "/>
<polyline clip-path="url(#clip932)" style="stroke:#000000; stroke-linecap:round; stroke-linejoin:round; stroke-width:2; stroke-opacity:0.1; fill:none" points="1784.3,2440.12 1784.3,47.2441 "/>
<polyline clip-path="url(#clip932)" style="stroke:#000000; stroke-linecap:round; stroke-linejoin:round; stroke-width:2; stroke-opacity:0.1; fill:none" points="2299.24,2440.12 2299.24,47.2441 "/>
<polyline clip-path="url(#clip932)" style="stroke:#000000; stroke-linecap:round; stroke-linejoin:round; stroke-width:2; stroke-opacity:0.1; fill:none" points="2427.98,2440.12 2427.98,47.2441 "/>
<polyline clip-path="url(#clip932)" style="stroke:#000000; stroke-linecap:round; stroke-linejoin:round; stroke-width:2; stroke-opacity:0.1; fill:none" points="2556.71,2440.12 2556.71,47.2441 "/>
<polyline clip-path="url(#clip930)" style="stroke:#000000; stroke-linecap:round; stroke-linejoin:round; stroke-width:4; stroke-opacity:1; fill:none" points="287.112,2440.12 3152.76,2440.12 "/>
<polyline clip-path="url(#clip930)" style="stroke:#000000; stroke-linecap:round; stroke-linejoin:round; stroke-width:4; stroke-opacity:1; fill:none" points="754.42,2440.12 754.42,2421.22 "/>
<polyline clip-path="url(#clip930)" style="stroke:#000000; stroke-linecap:round; stroke-linejoin:round; stroke-width:4; stroke-opacity:1; fill:none" points="1011.89,2440.12 1011.89,2421.22 "/>
<polyline clip-path="url(#clip930)" style="stroke:#000000; stroke-linecap:round; stroke-linejoin:round; stroke-width:4; stroke-opacity:1; fill:none" points="1398.1,2440.12 1398.1,2421.22 "/>
<polyline clip-path="url(#clip930)" style="stroke:#000000; stroke-linecap:round; stroke-linejoin:round; stroke-width:4; stroke-opacity:1; fill:none" points="1784.3,2440.12 1784.3,2421.22 "/>
<polyline clip-path="url(#clip930)" style="stroke:#000000; stroke-linecap:round; stroke-linejoin:round; stroke-width:4; stroke-opacity:1; fill:none" points="2299.24,2440.12 2299.24,2421.22 "/>
<polyline clip-path="url(#clip930)" style="stroke:#000000; stroke-linecap:round; stroke-linejoin:round; stroke-width:4; stroke-opacity:1; fill:none" points="2427.98,2440.12 2427.98,2421.22 "/>
<polyline clip-path="url(#clip930)" style="stroke:#000000; stroke-linecap:round; stroke-linejoin:round; stroke-width:4; stroke-opacity:1; fill:none" points="2556.71,2440.12 2556.71,2421.22 "/>
<path clip-path="url(#clip930)" d="M738.578 2606.98 L760.077 2614.91 L760.077 2599.02 L738.578 2606.98 M732.82 2610.28 L732.82 2603.65 L776.02 2587.19 L776.02 2593.27 L764.938 2597.2 L764.938 2616.67 L776.02 2620.61 L776.02 2626.77 L732.82 2610.28 Z" fill="#000000" fill-rule="nonzero" fill-opacity="1" /><path clip-path="url(#clip930)" d="M734.412 2576.89 L743.613 2576.89 L743.613 2565.92 L747.751 2565.92 L747.751 2576.89 L765.343 2576.89 Q769.307 2576.89 770.436 2575.82 Q771.564 2574.72 771.564 2571.39 L771.564 2565.92 L776.02 2565.92 L776.02 2571.39 Q776.02 2577.55 773.734 2579.9 Q771.42 2582.24 765.343 2582.24 L747.751 2582.24 L747.751 2586.15 L743.613 2586.15 L743.613 2582.24 L734.412 2582.24 L734.412 2576.89 Z" fill="#000000" fill-rule="nonzero" fill-opacity="1" /><path clip-path="url(#clip930)" d="M755.39 2552.84 L771.217 2552.84 L771.217 2543.47 Q771.217 2538.75 769.278 2536.5 Q767.311 2534.21 763.289 2534.21 Q759.238 2534.21 757.328 2536.5 Q755.39 2538.75 755.39 2543.47 L755.39 2552.84 M737.623 2552.84 L750.644 2552.84 L750.644 2544.19 Q750.644 2539.91 749.053 2537.83 Q747.432 2535.71 744.134 2535.71 Q740.864 2535.71 739.244 2537.83 Q737.623 2539.91 737.623 2544.19 L737.623 2552.84 M732.82 2558.69 L732.82 2543.76 Q732.82 2537.07 735.598 2533.46 Q738.376 2529.84 743.497 2529.84 Q747.461 2529.84 749.805 2531.69 Q752.149 2533.54 752.728 2537.13 Q753.653 2532.82 756.605 2530.45 Q759.527 2528.05 763.925 2528.05 Q769.712 2528.05 772.866 2531.98 Q776.02 2535.92 776.02 2543.18 L776.02 2558.69 L732.82 2558.69 Z" fill="#000000" fill-rule="nonzero" fill-opacity="1" /><path clip-path="url(#clip930)" d="M759.73 2503.54 Q759.73 2509.99 761.205 2512.48 Q762.681 2514.97 766.24 2514.97 Q769.076 2514.97 770.754 2513.12 Q772.403 2511.23 772.403 2508.02 Q772.403 2503.6 769.278 2500.93 Q766.124 2498.24 760.916 2498.24 L759.73 2498.24 L759.73 2503.54 M757.531 2492.92 L776.02 2492.92 L776.02 2498.24 L771.101 2498.24 Q774.053 2500.07 775.47 2502.79 Q776.859 2505.51 776.859 2509.44 Q776.859 2514.42 774.082 2517.37 Q771.275 2520.29 766.587 2520.29 Q761.119 2520.29 758.341 2516.65 Q755.563 2512.97 755.563 2505.71 L755.563 2498.24 L755.042 2498.24 Q751.368 2498.24 749.371 2500.67 Q747.346 2503.08 747.346 2507.44 Q747.346 2510.22 748.011 2512.86 Q748.677 2515.49 750.008 2517.92 L745.089 2517.92 Q743.96 2515 743.41 2512.25 Q742.832 2509.5 742.832 2506.89 Q742.832 2499.86 746.478 2496.39 Q750.123 2492.92 757.531 2492.92 Z" fill="#000000" fill-rule="nonzero" fill-opacity="1" /><path clip-path="url(#clip930)" d="M734.412 2476.69 L743.613 2476.69 L743.613 2465.72 L747.751 2465.72 L747.751 2476.69 L765.343 2476.69 Q769.307 2476.69 770.436 2475.62 Q771.564 2474.52 771.564 2471.19 L771.564 2465.72 L776.02 2465.72 L776.02 2471.19 Q776.02 2477.35 773.734 2479.7 Q771.42 2482.04 765.343 2482.04 L747.751 2482.04 L747.751 2485.95 L743.613 2485.95 L743.613 2482.04 L734.412 2482.04 L734.412 2476.69 Z" fill="#000000" fill-rule="nonzero" fill-opacity="1" /><path clip-path="url(#clip930)" d="M990.29 2572.14 L990.29 2566.3 L1008 2566.3 L1008 2545.06 L990.29 2545.06 L990.29 2539.22 L1033.49 2539.22 L1033.49 2545.06 L1012.92 2545.06 L1012.92 2566.3 L1033.49 2566.3 L1033.49 2572.14 L990.29 2572.14 Z" fill="#000000" fill-rule="nonzero" fill-opacity="1" /><path clip-path="url(#clip930)" d="M1001.08 2527.81 L1001.08 2522.49 L1033.49 2522.49 L1033.49 2527.81 L1001.08 2527.81 M988.468 2527.81 L988.468 2522.49 L995.209 2522.49 L995.209 2527.81 L988.468 2527.81 Z" fill="#000000" fill-rule="nonzero" fill-opacity="1" /><path clip-path="url(#clip930)" d="M991.882 2506.08 L1001.08 2506.08 L1001.08 2495.12 L1005.22 2495.12 L1005.22 2506.08 L1022.81 2506.08 Q1026.78 2506.08 1027.91 2505.01 Q1029.03 2503.91 1029.03 2500.59 L1029.03 2495.12 L1033.49 2495.12 L1033.49 2500.59 Q1033.49 2506.75 1031.2 2509.09 Q1028.89 2511.44 1022.81 2511.44 L1005.22 2511.44 L1005.22 2515.34 L1001.08 2515.34 L1001.08 2511.44 L991.882 2511.44 L991.882 2506.08 Z" fill="#000000" fill-rule="nonzero" fill-opacity="1" /><path clip-path="url(#clip930)" d="M1002.04 2467.46 L1007.07 2467.46 Q1005.92 2469.71 1005.34 2472.14 Q1004.76 2474.57 1004.76 2477.18 Q1004.76 2481.14 1005.97 2483.14 Q1007.19 2485.11 1009.62 2485.11 Q1011.47 2485.11 1012.54 2483.69 Q1013.58 2482.27 1014.54 2477.99 L1014.94 2476.17 Q1016.16 2470.49 1018.39 2468.12 Q1020.59 2465.72 1024.55 2465.72 Q1029.06 2465.72 1031.7 2469.31 Q1034.33 2472.87 1034.33 2479.12 Q1034.33 2481.72 1033.81 2484.56 Q1033.32 2487.36 1032.3 2490.49 L1026.81 2490.49 Q1028.34 2487.54 1029.12 2484.67 Q1029.87 2481.81 1029.87 2479 Q1029.87 2475.24 1028.6 2473.21 Q1027.3 2471.19 1024.95 2471.19 Q1022.78 2471.19 1021.63 2472.66 Q1020.47 2474.11 1019.4 2479.06 L1018.97 2480.91 Q1017.92 2485.86 1015.78 2488.06 Q1013.61 2490.26 1009.85 2490.26 Q1005.28 2490.26 1002.79 2487.02 Q1000.3 2483.78 1000.3 2477.81 Q1000.3 2474.86 1000.74 2472.26 Q1001.17 2469.66 1002.04 2467.46 Z" fill="#000000" fill-rule="nonzero" fill-opacity="1" /><path clip-path="url(#clip930)" d="M1376.5 2670.78 L1376.5 2664.94 L1394.2 2664.94 L1394.2 2643.7 L1376.5 2643.7 L1376.5 2637.85 L1419.7 2637.85 L1419.7 2643.7 L1399.12 2643.7 L1399.12 2664.94 L1419.7 2664.94 L1419.7 2670.78 L1376.5 2670.78 Z" fill="#000000" fill-rule="nonzero" fill-opacity="1" /><path clip-path="url(#clip930)" d="M1393.51 2601.22 Q1389.92 2599.23 1388.21 2596.45 Q1386.51 2593.67 1386.51 2589.91 Q1386.51 2584.85 1390.07 2582.1 Q1393.6 2579.35 1400.14 2579.35 L1419.7 2579.35 L1419.7 2584.7 L1400.31 2584.7 Q1395.65 2584.7 1393.39 2586.35 Q1391.14 2588 1391.14 2591.38 Q1391.14 2595.52 1393.89 2597.92 Q1396.63 2600.33 1401.38 2600.33 L1419.7 2600.33 L1419.7 2605.68 L1400.31 2605.68 Q1395.62 2605.68 1393.39 2607.33 Q1391.14 2608.98 1391.14 2612.42 Q1391.14 2616.5 1393.91 2618.9 Q1396.66 2621.3 1401.38 2621.3 L1419.7 2621.3 L1419.7 2626.66 L1387.29 2626.66 L1387.29 2621.3 L1392.32 2621.3 Q1389.34 2619.48 1387.93 2616.93 Q1386.51 2614.39 1386.51 2610.89 Q1386.51 2607.36 1388.3 2604.9 Q1390.1 2602.41 1393.51 2601.22 Z" fill="#000000" fill-rule="nonzero" fill-opacity="1" /><path clip-path="url(#clip930)" d="M1399.44 2548.01 Q1400.08 2546.13 1402.16 2544.37 Q1404.24 2542.57 1407.89 2540.78 L1419.7 2534.85 L1419.7 2541.12 L1408.61 2546.65 Q1404.27 2548.79 1402.86 2550.82 Q1401.44 2552.81 1401.44 2556.29 L1401.44 2562.65 L1419.7 2562.65 L1419.7 2568.5 L1376.5 2568.5 L1376.5 2555.3 Q1376.5 2547.9 1379.59 2544.25 Q1382.69 2540.6 1388.94 2540.6 Q1393.02 2540.6 1395.71 2542.51 Q1398.4 2544.39 1399.44 2548.01 M1381.3 2562.65 L1396.63 2562.65 L1396.63 2555.3 Q1396.63 2551.08 1394.7 2548.94 Q1392.73 2546.77 1388.94 2546.77 Q1385.15 2546.77 1383.24 2548.94 Q1381.3 2551.08 1381.3 2555.3 L1381.3 2562.65 Z" fill="#000000" fill-rule="nonzero" fill-opacity="1" /><path clip-path="url(#clip930)" d="M1406.91 2530.77 L1387.29 2530.77 L1387.29 2525.44 L1406.7 2525.44 Q1411.3 2525.44 1413.62 2523.65 Q1415.91 2521.85 1415.91 2518.27 Q1415.91 2513.95 1413.16 2511.47 Q1410.41 2508.95 1405.66 2508.95 L1387.29 2508.95 L1387.29 2503.62 L1419.7 2503.62 L1419.7 2508.95 L1414.72 2508.95 Q1417.67 2510.89 1419.12 2513.46 Q1420.54 2516.01 1420.54 2519.39 Q1420.54 2524.98 1417.06 2527.87 Q1413.59 2530.77 1406.91 2530.77 M1386.51 2517.37 L1386.51 2517.37 Z" fill="#000000" fill-rule="nonzero" fill-opacity="1" /><path clip-path="url(#clip930)" d="M1400.14 2465.72 L1419.7 2465.72 L1419.7 2471.04 L1400.31 2471.04 Q1395.71 2471.04 1393.42 2472.84 Q1391.14 2474.63 1391.14 2478.22 Q1391.14 2482.53 1393.89 2485.02 Q1396.63 2487.51 1401.38 2487.51 L1419.7 2487.51 L1419.7 2492.86 L1387.29 2492.86 L1387.29 2487.51 L1392.32 2487.51 Q1389.4 2485.6 1387.95 2483.02 Q1386.51 2480.42 1386.51 2477.03 Q1386.51 2471.45 1389.98 2468.58 Q1393.42 2465.72 1400.14 2465.72 Z" fill="#000000" fill-rule="nonzero" fill-opacity="1" /><path clip-path="url(#clip930)" d="M1785.65 2581.03 Q1786.28 2579.15 1788.37 2577.38 Q1790.45 2575.59 1794.1 2573.79 L1805.9 2567.86 L1805.9 2574.14 L1794.82 2579.67 Q1790.48 2581.81 1789.06 2583.83 Q1787.64 2585.83 1787.64 2589.3 L1787.64 2595.67 L1805.9 2595.67 L1805.9 2601.51 L1762.7 2601.51 L1762.7 2588.32 Q1762.7 2580.91 1765.8 2577.26 Q1768.89 2573.62 1775.14 2573.62 Q1779.22 2573.62 1781.91 2575.53 Q1784.61 2577.41 1785.65 2581.03 M1767.5 2595.67 L1782.84 2595.67 L1782.84 2588.32 Q1782.84 2584.09 1780.9 2581.95 Q1778.93 2579.78 1775.14 2579.78 Q1771.35 2579.78 1769.44 2581.95 Q1767.5 2584.09 1767.5 2588.32 L1767.5 2595.67 Z" fill="#000000" fill-rule="nonzero" fill-opacity="1" /><path clip-path="url(#clip930)" d="M1793.11 2563.78 L1773.49 2563.78 L1773.49 2558.46 L1792.91 2558.46 Q1797.51 2558.46 1799.82 2556.66 Q1802.11 2554.87 1802.11 2551.28 Q1802.11 2546.97 1799.36 2544.48 Q1796.61 2541.96 1791.87 2541.96 L1773.49 2541.96 L1773.49 2536.64 L1805.9 2536.64 L1805.9 2541.96 L1800.92 2541.96 Q1803.88 2543.9 1805.32 2546.48 Q1806.74 2549.02 1806.74 2552.41 Q1806.74 2557.99 1803.27 2560.89 Q1799.8 2563.78 1793.11 2563.78 M1772.71 2550.38 L1772.71 2550.38 Z" fill="#000000" fill-rule="nonzero" fill-opacity="1" /><path clip-path="url(#clip930)" d="M1786.34 2498.73 L1805.9 2498.73 L1805.9 2504.06 L1786.51 2504.06 Q1781.91 2504.06 1779.63 2505.85 Q1777.34 2507.65 1777.34 2511.23 Q1777.34 2515.55 1780.09 2518.03 Q1782.84 2520.52 1787.59 2520.52 L1805.9 2520.52 L1805.9 2525.88 L1773.49 2525.88 L1773.49 2520.52 L1778.53 2520.52 Q1775.61 2518.61 1774.16 2516.04 Q1772.71 2513.43 1772.71 2510.05 Q1772.71 2504.46 1776.19 2501.6 Q1779.63 2498.73 1786.34 2498.73 Z" fill="#000000" fill-rule="nonzero" fill-opacity="1" /><path clip-path="url(#clip930)" d="M1774.45 2467.46 L1779.48 2467.46 Q1778.33 2469.71 1777.75 2472.14 Q1777.17 2474.57 1777.17 2477.18 Q1777.17 2481.14 1778.38 2483.14 Q1779.6 2485.11 1782.03 2485.11 Q1783.88 2485.11 1784.95 2483.69 Q1785.99 2482.27 1786.95 2477.99 L1787.35 2476.17 Q1788.57 2470.49 1790.8 2468.12 Q1793 2465.72 1796.96 2465.72 Q1801.47 2465.72 1804.11 2469.31 Q1806.74 2472.87 1806.74 2479.12 Q1806.74 2481.72 1806.22 2484.56 Q1805.73 2487.36 1804.72 2490.49 L1799.22 2490.49 Q1800.75 2487.54 1801.53 2484.67 Q1802.28 2481.81 1802.28 2479 Q1802.28 2475.24 1801.01 2473.21 Q1799.71 2471.19 1797.37 2471.19 Q1795.2 2471.19 1794.04 2472.66 Q1792.88 2474.11 1791.81 2479.06 L1791.38 2480.91 Q1790.33 2485.86 1788.19 2488.06 Q1786.02 2490.26 1782.26 2490.26 Q1777.69 2490.26 1775.2 2487.02 Q1772.71 2483.78 1772.71 2477.81 Q1772.71 2474.86 1773.15 2472.26 Q1773.58 2469.66 1774.45 2467.46 Z" fill="#000000" fill-rule="nonzero" fill-opacity="1" /><path clip-path="url(#clip930)" d="M2300.59 2532.91 Q2301.22 2531.03 2303.31 2529.26 Q2305.39 2527.47 2309.04 2525.67 L2320.84 2519.74 L2320.84 2526.02 L2309.76 2531.55 Q2305.42 2533.69 2304 2535.71 Q2302.58 2537.71 2302.58 2541.18 L2302.58 2547.55 L2320.84 2547.55 L2320.84 2553.39 L2277.64 2553.39 L2277.64 2540.2 Q2277.64 2532.79 2280.74 2529.15 Q2283.83 2525.5 2290.08 2525.5 Q2294.16 2525.5 2296.85 2527.41 Q2299.55 2529.29 2300.59 2532.91 M2282.45 2547.55 L2297.78 2547.55 L2297.78 2540.2 Q2297.78 2535.97 2295.84 2533.83 Q2293.87 2531.66 2290.08 2531.66 Q2286.29 2531.66 2284.38 2533.83 Q2282.45 2535.97 2282.45 2540.2 L2282.45 2547.55 Z" fill="#000000" fill-rule="nonzero" fill-opacity="1" /><path clip-path="url(#clip930)" d="M2300.21 2506.37 L2316.04 2506.37 L2316.04 2497 Q2316.04 2492.28 2314.1 2490.03 Q2312.13 2487.74 2308.11 2487.74 Q2304.06 2487.74 2302.15 2490.03 Q2300.21 2492.28 2300.21 2497 L2300.21 2506.37 M2282.45 2506.37 L2295.47 2506.37 L2295.47 2497.72 Q2295.47 2493.44 2293.87 2491.36 Q2292.25 2489.24 2288.96 2489.24 Q2285.69 2489.24 2284.07 2491.36 Q2282.45 2493.44 2282.45 2497.72 L2282.45 2506.37 M2277.64 2512.22 L2277.64 2497.29 Q2277.64 2490.6 2280.42 2486.99 Q2283.2 2483.37 2288.32 2483.37 Q2292.28 2483.37 2294.63 2485.22 Q2296.97 2487.07 2297.55 2490.66 Q2298.48 2486.35 2301.43 2483.98 Q2304.35 2481.58 2308.75 2481.58 Q2314.53 2481.58 2317.69 2485.51 Q2320.84 2489.45 2320.84 2496.71 L2320.84 2512.22 L2277.64 2512.22 Z" fill="#000000" fill-rule="nonzero" fill-opacity="1" /><path clip-path="url(#clip930)" d="M2277.64 2471.56 L2277.64 2465.72 L2320.84 2465.72 L2320.84 2471.56 L2277.64 2471.56 Z" fill="#000000" fill-rule="nonzero" fill-opacity="1" /><path clip-path="url(#clip930)" d="M2406.38 2633.63 L2406.38 2627.73 L2442.89 2618.64 L2406.38 2609.59 L2406.38 2603.02 L2442.89 2593.93 L2406.38 2584.87 L2406.38 2578.94 L2449.58 2589.79 L2449.58 2597.14 L2412.08 2606.26 L2449.58 2615.46 L2449.58 2622.81 L2406.38 2633.63 Z" fill="#000000" fill-rule="nonzero" fill-opacity="1" /><path clip-path="url(#clip930)" d="M2433.29 2560.48 Q2433.29 2566.93 2434.76 2569.42 Q2436.24 2571.91 2439.8 2571.91 Q2442.63 2571.91 2444.31 2570.06 Q2445.96 2568.18 2445.96 2564.97 Q2445.96 2560.54 2442.84 2557.88 Q2439.68 2555.19 2434.47 2555.19 L2433.29 2555.19 L2433.29 2560.48 M2431.09 2549.86 L2449.58 2549.86 L2449.58 2555.19 L2444.66 2555.19 Q2447.61 2557.01 2449.03 2559.73 Q2450.42 2562.45 2450.42 2566.39 Q2450.42 2571.36 2447.64 2574.31 Q2444.83 2577.24 2440.14 2577.24 Q2434.68 2577.24 2431.9 2573.59 Q2429.12 2569.92 2429.12 2562.65 L2429.12 2555.19 L2428.6 2555.19 Q2424.92 2555.19 2422.93 2557.62 Q2420.9 2560.02 2420.9 2564.39 Q2420.9 2567.17 2421.57 2569.8 Q2422.23 2572.43 2423.56 2574.86 L2418.65 2574.86 Q2417.52 2571.94 2416.97 2569.19 Q2416.39 2566.44 2416.39 2563.84 Q2416.39 2556.81 2420.03 2553.34 Q2423.68 2549.86 2431.09 2549.86 Z" fill="#000000" fill-rule="nonzero" fill-opacity="1" /><path clip-path="url(#clip930)" d="M2404.55 2538.9 L2404.55 2533.57 L2449.58 2533.57 L2449.58 2538.9 L2404.55 2538.9 Z" fill="#000000" fill-rule="nonzero" fill-opacity="1" /><path clip-path="url(#clip930)" d="M2404.55 2522.64 L2404.55 2517.28 L2431.15 2517.28 L2417.17 2501.4 L2417.17 2494.6 L2432.33 2511.78 L2449.58 2493.87 L2449.58 2500.82 L2433.75 2517.28 L2449.58 2517.28 L2449.58 2522.64 L2404.55 2522.64 Z" fill="#000000" fill-rule="nonzero" fill-opacity="1" /><path clip-path="url(#clip930)" d="M2418.12 2467.46 L2423.16 2467.46 Q2422 2469.71 2421.42 2472.14 Q2420.84 2474.57 2420.84 2477.18 Q2420.84 2481.14 2422.06 2483.14 Q2423.28 2485.11 2425.71 2485.11 Q2427.56 2485.11 2428.63 2483.69 Q2429.67 2482.27 2430.62 2477.99 L2431.03 2476.17 Q2432.24 2470.49 2434.47 2468.12 Q2436.67 2465.72 2440.64 2465.72 Q2445.15 2465.72 2447.78 2469.31 Q2450.42 2472.87 2450.42 2479.12 Q2450.42 2481.72 2449.9 2484.56 Q2449.4 2487.36 2448.39 2490.49 L2442.89 2490.49 Q2444.43 2487.54 2445.21 2484.67 Q2445.96 2481.81 2445.96 2479 Q2445.96 2475.24 2444.69 2473.21 Q2443.38 2471.19 2441.04 2471.19 Q2438.87 2471.19 2437.71 2472.66 Q2436.56 2474.11 2435.49 2479.06 L2435.05 2480.91 Q2434.01 2485.86 2431.87 2488.06 Q2429.7 2490.26 2425.94 2490.26 Q2421.37 2490.26 2418.88 2487.02 Q2416.39 2483.78 2416.39 2477.81 Q2416.39 2474.86 2416.82 2472.26 Q2417.26 2469.66 2418.12 2467.46 Z" fill="#000000" fill-rule="nonzero" fill-opacity="1" /><path clip-path="url(#clip930)" d="M2535.11 2619.28 L2535.11 2613 L2552.88 2601.02 L2535.11 2589.13 L2535.11 2582.85 L2557.74 2598.13 L2578.31 2598.13 L2578.31 2604 L2557.74 2604 L2535.11 2619.28 Z" fill="#000000" fill-rule="nonzero" fill-opacity="1" /><path clip-path="url(#clip930)" d="M2560.78 2557.53 L2563.38 2557.53 L2563.38 2582.01 Q2568.88 2581.66 2571.77 2578.71 Q2574.64 2575.73 2574.64 2570.44 Q2574.64 2567.37 2573.89 2564.5 Q2573.13 2561.61 2571.63 2558.78 L2576.66 2558.78 Q2577.88 2561.64 2578.51 2564.65 Q2579.15 2567.66 2579.15 2570.75 Q2579.15 2578.51 2574.64 2583.05 Q2570.12 2587.57 2562.43 2587.57 Q2554.47 2587.57 2549.81 2583.28 Q2545.12 2578.97 2545.12 2571.68 Q2545.12 2565.14 2549.35 2561.35 Q2553.54 2557.53 2560.78 2557.53 M2559.22 2562.85 Q2554.85 2562.91 2552.24 2565.31 Q2549.64 2567.69 2549.64 2571.62 Q2549.64 2576.08 2552.15 2578.77 Q2554.67 2581.43 2559.24 2581.84 L2559.22 2562.85 Z" fill="#000000" fill-rule="nonzero" fill-opacity="1" /><path clip-path="url(#clip930)" d="M2562.02 2534.06 Q2562.02 2540.52 2563.5 2543.01 Q2564.97 2545.49 2568.53 2545.49 Q2571.37 2545.49 2573.05 2543.64 Q2574.7 2541.76 2574.7 2538.55 Q2574.7 2534.12 2571.57 2531.46 Q2568.42 2528.77 2563.21 2528.77 L2562.02 2528.77 L2562.02 2534.06 M2559.82 2523.45 L2578.31 2523.45 L2578.31 2528.77 L2573.39 2528.77 Q2576.34 2530.59 2577.76 2533.31 Q2579.15 2536.03 2579.15 2539.97 Q2579.15 2544.94 2576.37 2547.9 Q2573.57 2550.82 2568.88 2550.82 Q2563.41 2550.82 2560.63 2547.17 Q2557.86 2543.5 2557.86 2536.23 L2557.86 2528.77 L2557.33 2528.77 Q2553.66 2528.77 2551.66 2531.2 Q2549.64 2533.6 2549.64 2537.97 Q2549.64 2540.75 2550.3 2543.38 Q2550.97 2546.01 2552.3 2548.45 L2547.38 2548.45 Q2546.25 2545.52 2545.7 2542.77 Q2545.12 2540.03 2545.12 2537.42 Q2545.12 2530.39 2548.77 2526.92 Q2552.42 2523.45 2559.82 2523.45 Z" fill="#000000" fill-rule="nonzero" fill-opacity="1" /><path clip-path="url(#clip930)" d="M2550.88 2493.7 Q2550.36 2494.6 2550.13 2495.67 Q2549.87 2496.71 2549.87 2497.98 Q2549.87 2502.5 2552.82 2504.93 Q2555.74 2507.33 2561.24 2507.33 L2578.31 2507.33 L2578.31 2512.68 L2545.9 2512.68 L2545.9 2507.33 L2550.94 2507.33 Q2547.99 2505.65 2546.57 2502.96 Q2545.12 2500.27 2545.12 2496.42 Q2545.12 2495.87 2545.21 2495.2 Q2545.27 2494.54 2545.41 2493.73 L2550.88 2493.7 Z" fill="#000000" fill-rule="nonzero" fill-opacity="1" /><path clip-path="url(#clip930)" d="M2546.86 2467.46 L2551.89 2467.46 Q2550.74 2469.71 2550.16 2472.14 Q2549.58 2474.57 2549.58 2477.18 Q2549.58 2481.14 2550.79 2483.14 Q2552.01 2485.11 2554.44 2485.11 Q2556.29 2485.11 2557.36 2483.69 Q2558.4 2482.27 2559.36 2477.99 L2559.76 2476.17 Q2560.98 2470.49 2563.21 2468.12 Q2565.41 2465.72 2569.37 2465.72 Q2573.89 2465.72 2576.52 2469.31 Q2579.15 2472.87 2579.15 2479.12 Q2579.15 2481.72 2578.63 2484.56 Q2578.14 2487.36 2577.13 2490.49 L2571.63 2490.49 Q2573.16 2487.54 2573.94 2484.67 Q2574.7 2481.81 2574.7 2479 Q2574.7 2475.24 2573.42 2473.21 Q2572.12 2471.19 2569.78 2471.19 Q2567.61 2471.19 2566.45 2472.66 Q2565.29 2474.11 2564.22 2479.06 L2563.79 2480.91 Q2562.75 2485.86 2560.6 2488.06 Q2558.43 2490.26 2554.67 2490.26 Q2550.1 2490.26 2547.61 2487.02 Q2545.12 2483.78 2545.12 2477.81 Q2545.12 2474.86 2545.56 2472.26 Q2545.99 2469.66 2546.86 2467.46 Z" fill="#000000" fill-rule="nonzero" fill-opacity="1" /><path clip-path="url(#clip930)" d="M1561.23 2708.74 L1561.23 2716.75 Q1557.4 2713.18 1553.03 2711.41 Q1548.71 2709.64 1543.82 2709.64 Q1534.19 2709.64 1529.07 2715.55 Q1523.96 2721.42 1523.96 2732.55 Q1523.96 2743.65 1529.07 2749.55 Q1534.19 2755.42 1543.82 2755.42 Q1548.71 2755.42 1553.03 2753.65 Q1557.4 2751.89 1561.23 2748.31 L1561.23 2756.25 Q1557.25 2758.96 1552.77 2760.31 Q1548.33 2761.67 1543.37 2761.67 Q1530.61 2761.67 1523.28 2753.88 Q1515.94 2746.06 1515.94 2732.55 Q1515.94 2719.01 1523.28 2711.22 Q1530.61 2703.4 1543.37 2703.4 Q1548.41 2703.4 1552.85 2704.75 Q1557.32 2706.07 1561.23 2708.74 Z" fill="#000000" fill-rule="nonzero" fill-opacity="1" /><path clip-path="url(#clip930)" d="M1588.99 2723.3 Q1583.43 2723.3 1580.19 2727.66 Q1576.96 2731.99 1576.96 2739.55 Q1576.96 2747.11 1580.15 2751.47 Q1583.39 2755.8 1588.99 2755.8 Q1594.52 2755.8 1597.76 2751.43 Q1600.99 2747.07 1600.99 2739.55 Q1600.99 2732.06 1597.76 2727.7 Q1594.52 2723.3 1588.99 2723.3 M1588.99 2717.43 Q1598.02 2717.43 1603.18 2723.3 Q1608.33 2729.17 1608.33 2739.55 Q1608.33 2749.89 1603.18 2755.8 Q1598.02 2761.67 1588.99 2761.67 Q1579.93 2761.67 1574.78 2755.8 Q1569.66 2749.89 1569.66 2739.55 Q1569.66 2729.17 1574.78 2723.3 Q1579.93 2717.43 1588.99 2717.43 Z" fill="#000000" fill-rule="nonzero" fill-opacity="1" /><path clip-path="url(#clip930)" d="M1655.84 2737.78 L1655.84 2741.17 L1624.01 2741.17 Q1624.47 2748.31 1628.3 2752.07 Q1632.18 2755.8 1639.06 2755.8 Q1643.05 2755.8 1646.77 2754.82 Q1650.53 2753.84 1654.22 2751.89 L1654.22 2758.43 Q1650.5 2760.01 1646.58 2760.84 Q1642.67 2761.67 1638.65 2761.67 Q1628.57 2761.67 1622.66 2755.8 Q1616.79 2749.93 1616.79 2739.92 Q1616.79 2729.58 1622.36 2723.52 Q1627.96 2717.43 1637.44 2717.43 Q1645.94 2717.43 1650.87 2722.92 Q1655.84 2728.38 1655.84 2737.78 M1648.92 2735.75 Q1648.84 2730.07 1645.72 2726.68 Q1642.63 2723.3 1637.52 2723.3 Q1631.73 2723.3 1628.23 2726.57 Q1624.77 2729.84 1624.24 2735.79 L1648.92 2735.75 Z" fill="#000000" fill-rule="nonzero" fill-opacity="1" /><path clip-path="url(#clip930)" d="M1688.52 2702.04 L1688.52 2707.8 L1681.9 2707.8 Q1678.18 2707.8 1676.71 2709.3 Q1675.28 2710.81 1675.28 2714.72 L1675.28 2718.45 L1686.68 2718.45 L1686.68 2723.82 L1675.28 2723.82 L1675.28 2760.57 L1668.33 2760.57 L1668.33 2723.82 L1661.7 2723.82 L1661.7 2718.45 L1668.33 2718.45 L1668.33 2715.51 Q1668.33 2708.48 1671.6 2705.28 Q1674.87 2702.04 1681.98 2702.04 L1688.52 2702.04 Z" fill="#000000" fill-rule="nonzero" fill-opacity="1" /><path clip-path="url(#clip930)" d="M1715.65 2702.04 L1715.65 2707.8 L1709.03 2707.8 Q1705.3 2707.8 1703.83 2709.3 Q1702.4 2710.81 1702.4 2714.72 L1702.4 2718.45 L1713.8 2718.45 L1713.8 2723.82 L1702.4 2723.82 L1702.4 2760.57 L1695.45 2760.57 L1695.45 2723.82 L1688.83 2723.82 L1688.83 2718.45 L1695.45 2718.45 L1695.45 2715.51 Q1695.45 2708.48 1698.72 2705.28 Q1701.99 2702.04 1709.1 2702.04 L1715.65 2702.04 Z" fill="#000000" fill-rule="nonzero" fill-opacity="1" /><path clip-path="url(#clip930)" d="M1721.44 2718.45 L1728.36 2718.45 L1728.36 2760.57 L1721.44 2760.57 L1721.44 2718.45 M1721.44 2702.04 L1728.36 2702.04 L1728.36 2710.81 L1721.44 2710.81 L1721.44 2702.04 Z" fill="#000000" fill-rule="nonzero" fill-opacity="1" /><path clip-path="url(#clip930)" d="M1773.16 2720.06 L1773.16 2726.53 Q1770.23 2724.92 1767.25 2724.13 Q1764.32 2723.3 1761.31 2723.3 Q1754.58 2723.3 1750.85 2727.59 Q1747.13 2731.84 1747.13 2739.55 Q1747.13 2747.26 1750.85 2751.55 Q1754.58 2755.8 1761.31 2755.8 Q1764.32 2755.8 1767.25 2755.01 Q1770.23 2754.18 1773.16 2752.56 L1773.16 2758.96 Q1770.26 2760.31 1767.14 2760.99 Q1764.06 2761.67 1760.56 2761.67 Q1751.04 2761.67 1745.44 2755.68 Q1739.83 2749.7 1739.83 2739.55 Q1739.83 2729.24 1745.47 2723.34 Q1751.15 2717.43 1761.01 2717.43 Q1764.21 2717.43 1767.25 2718.11 Q1770.3 2718.75 1773.16 2720.06 Z" fill="#000000" fill-rule="nonzero" fill-opacity="1" /><path clip-path="url(#clip930)" d="M1785.2 2718.45 L1792.12 2718.45 L1792.12 2760.57 L1785.2 2760.57 L1785.2 2718.45 M1785.2 2702.04 L1792.12 2702.04 L1792.12 2710.81 L1785.2 2710.81 L1785.2 2702.04 Z" fill="#000000" fill-rule="nonzero" fill-opacity="1" /><path clip-path="url(#clip930)" d="M1842.64 2737.78 L1842.64 2741.17 L1810.81 2741.17 Q1811.26 2748.31 1815.1 2752.07 Q1818.98 2755.8 1825.86 2755.8 Q1829.85 2755.8 1833.57 2754.82 Q1837.33 2753.84 1841.02 2751.89 L1841.02 2758.43 Q1837.29 2760.01 1833.38 2760.84 Q1829.47 2761.67 1825.45 2761.67 Q1815.36 2761.67 1809.46 2755.8 Q1803.59 2749.93 1803.59 2739.92 Q1803.59 2729.58 1809.16 2723.52 Q1814.76 2717.43 1824.24 2717.43 Q1832.74 2717.43 1837.67 2722.92 Q1842.64 2728.38 1842.64 2737.78 M1835.71 2735.75 Q1835.64 2730.07 1832.52 2726.68 Q1829.43 2723.3 1824.32 2723.3 Q1818.52 2723.3 1815.03 2726.57 Q1811.57 2729.84 1811.04 2735.79 L1835.71 2735.75 Z" fill="#000000" fill-rule="nonzero" fill-opacity="1" /><path clip-path="url(#clip930)" d="M1889.02 2735.15 L1889.02 2760.57 L1882.09 2760.57 L1882.09 2735.37 Q1882.09 2729.39 1879.76 2726.42 Q1877.43 2723.45 1872.77 2723.45 Q1867.16 2723.45 1863.93 2727.02 Q1860.69 2730.6 1860.69 2736.76 L1860.69 2760.57 L1853.73 2760.57 L1853.73 2718.45 L1860.69 2718.45 L1860.69 2724.99 Q1863.17 2721.19 1866.52 2719.31 Q1869.91 2717.43 1874.31 2717.43 Q1881.57 2717.43 1885.29 2721.94 Q1889.02 2726.42 1889.02 2735.15 Z" fill="#000000" fill-rule="nonzero" fill-opacity="1" /><path clip-path="url(#clip930)" d="M1909.67 2706.48 L1909.67 2718.45 L1923.92 2718.45 L1923.92 2723.82 L1909.67 2723.82 L1909.67 2746.69 Q1909.67 2751.85 1911.06 2753.31 Q1912.49 2754.78 1916.81 2754.78 L1923.92 2754.78 L1923.92 2760.57 L1916.81 2760.57 Q1908.8 2760.57 1905.75 2757.6 Q1902.71 2754.59 1902.71 2746.69 L1902.71 2723.82 L1897.63 2723.82 L1897.63 2718.45 L1902.71 2718.45 L1902.71 2706.48 L1909.67 2706.48 Z" fill="#000000" fill-rule="nonzero" fill-opacity="1" /><polyline clip-path="url(#clip932)" style="stroke:#000000; stroke-linecap:round; stroke-linejoin:round; stroke-width:2; stroke-opacity:0.1; fill:none" points="287.112,2300.42 3152.76,2300.42 "/>
<polyline clip-path="url(#clip932)" style="stroke:#000000; stroke-linecap:round; stroke-linejoin:round; stroke-width:2; stroke-opacity:0.1; fill:none" points="287.112,1834.13 3152.76,1834.13 "/>
<polyline clip-path="url(#clip932)" style="stroke:#000000; stroke-linecap:round; stroke-linejoin:round; stroke-width:2; stroke-opacity:0.1; fill:none" points="287.112,1367.84 3152.76,1367.84 "/>
<polyline clip-path="url(#clip932)" style="stroke:#000000; stroke-linecap:round; stroke-linejoin:round; stroke-width:2; stroke-opacity:0.1; fill:none" points="287.112,901.554 3152.76,901.554 "/>
<polyline clip-path="url(#clip932)" style="stroke:#000000; stroke-linecap:round; stroke-linejoin:round; stroke-width:2; stroke-opacity:0.1; fill:none" points="287.112,435.265 3152.76,435.265 "/>
<polyline clip-path="url(#clip930)" style="stroke:#000000; stroke-linecap:round; stroke-linejoin:round; stroke-width:4; stroke-opacity:1; fill:none" points="287.112,2440.12 287.112,47.2441 "/>
<polyline clip-path="url(#clip930)" style="stroke:#000000; stroke-linecap:round; stroke-linejoin:round; stroke-width:4; stroke-opacity:1; fill:none" points="287.112,2300.42 306.009,2300.42 "/>
<polyline clip-path="url(#clip930)" style="stroke:#000000; stroke-linecap:round; stroke-linejoin:round; stroke-width:4; stroke-opacity:1; fill:none" points="287.112,1834.13 306.009,1834.13 "/>
<polyline clip-path="url(#clip930)" style="stroke:#000000; stroke-linecap:round; stroke-linejoin:round; stroke-width:4; stroke-opacity:1; fill:none" points="287.112,1367.84 306.009,1367.84 "/>
<polyline clip-path="url(#clip930)" style="stroke:#000000; stroke-linecap:round; stroke-linejoin:round; stroke-width:4; stroke-opacity:1; fill:none" points="287.112,901.554 306.009,901.554 "/>
<polyline clip-path="url(#clip930)" style="stroke:#000000; stroke-linecap:round; stroke-linejoin:round; stroke-width:4; stroke-opacity:1; fill:none" points="287.112,435.265 306.009,435.265 "/>
<path clip-path="url(#clip930)" d="M224.181 2282.67 Q219.667 2282.67 217.381 2287.12 Q215.125 2291.55 215.125 2300.46 Q215.125 2309.35 217.381 2313.8 Q219.667 2318.23 224.181 2318.23 Q228.724 2318.23 230.981 2313.8 Q233.267 2309.35 233.267 2300.46 Q233.267 2291.55 230.981 2287.12 Q228.724 2282.67 224.181 2282.67 M224.181 2278.04 Q231.444 2278.04 235.263 2283.8 Q239.112 2289.53 239.112 2300.46 Q239.112 2311.37 235.263 2317.13 Q231.444 2322.86 224.181 2322.86 Q216.918 2322.86 213.07 2317.13 Q209.251 2311.37 209.251 2300.46 Q209.251 2289.53 213.07 2283.8 Q216.918 2278.04 224.181 2278.04 Z" fill="#000000" fill-rule="nonzero" fill-opacity="1" /><path clip-path="url(#clip930)" d="M191.687 1832.44 Q195.883 1833.33 198.226 1836.17 Q200.599 1839.01 200.599 1843.17 Q200.599 1849.57 196.201 1853.07 Q191.803 1856.57 183.701 1856.57 Q180.981 1856.57 178.088 1856.02 Q175.223 1855.5 172.156 1854.43 L172.156 1848.79 Q174.587 1850.2 177.48 1850.93 Q180.374 1851.65 183.527 1851.65 Q189.025 1851.65 191.89 1849.48 Q194.783 1847.31 194.783 1843.17 Q194.783 1839.35 192.092 1837.21 Q189.43 1835.04 184.656 1835.04 L179.621 1835.04 L179.621 1830.24 L184.887 1830.24 Q189.199 1830.24 191.485 1828.53 Q193.77 1826.8 193.77 1823.55 Q193.77 1820.23 191.398 1818.46 Q189.054 1816.67 184.656 1816.67 Q182.254 1816.67 179.505 1817.19 Q176.757 1817.71 173.458 1818.81 L173.458 1813.6 Q176.786 1812.68 179.679 1812.21 Q182.602 1811.75 185.177 1811.75 Q191.832 1811.75 195.709 1814.79 Q199.586 1817.8 199.586 1822.95 Q199.586 1826.54 197.532 1829.02 Q195.478 1831.48 191.687 1832.44 Z" fill="#000000" fill-rule="nonzero" fill-opacity="1" /><path clip-path="url(#clip930)" d="M224.181 1816.38 Q219.667 1816.38 217.381 1820.84 Q215.125 1825.26 215.125 1834.17 Q215.125 1843.06 217.381 1847.51 Q219.667 1851.94 224.181 1851.94 Q228.724 1851.94 230.981 1847.51 Q233.267 1843.06 233.267 1834.17 Q233.267 1825.26 230.981 1820.84 Q228.724 1816.38 224.181 1816.38 M224.181 1811.75 Q231.444 1811.75 235.263 1817.51 Q239.112 1823.24 239.112 1834.17 Q239.112 1845.08 235.263 1850.84 Q231.444 1856.57 224.181 1856.57 Q216.918 1856.57 213.07 1850.84 Q209.251 1845.08 209.251 1834.17 Q209.251 1823.24 213.07 1817.51 Q216.918 1811.75 224.181 1811.75 Z" fill="#000000" fill-rule="nonzero" fill-opacity="1" /><path clip-path="url(#clip930)" d="M187.202 1365.51 Q183.267 1365.51 180.952 1368.2 Q178.666 1370.89 178.666 1375.58 Q178.666 1380.24 180.952 1382.96 Q183.267 1385.65 187.202 1385.65 Q191.137 1385.65 193.423 1382.96 Q195.738 1380.24 195.738 1375.58 Q195.738 1370.89 193.423 1368.2 Q191.137 1365.51 187.202 1365.51 M198.805 1347.2 L198.805 1352.52 Q196.606 1351.48 194.349 1350.93 Q192.121 1350.38 189.922 1350.38 Q184.135 1350.38 181.068 1354.29 Q178.03 1358.19 177.596 1366.09 Q179.303 1363.57 181.878 1362.24 Q184.453 1360.88 187.549 1360.88 Q194.06 1360.88 197.821 1364.85 Q201.612 1368.78 201.612 1375.58 Q201.612 1382.24 197.677 1386.26 Q193.742 1390.28 187.202 1390.28 Q179.708 1390.28 175.744 1384.55 Q171.78 1378.79 171.78 1367.89 Q171.78 1357.64 176.641 1351.57 Q181.502 1345.46 189.691 1345.46 Q191.89 1345.46 194.118 1345.89 Q196.375 1346.33 198.805 1347.2 Z" fill="#000000" fill-rule="nonzero" fill-opacity="1" /><path clip-path="url(#clip930)" d="M224.181 1350.09 Q219.667 1350.09 217.381 1354.55 Q215.125 1358.97 215.125 1367.89 Q215.125 1376.77 217.381 1381.22 Q219.667 1385.65 224.181 1385.65 Q228.724 1385.65 230.981 1381.22 Q233.267 1376.77 233.267 1367.89 Q233.267 1358.97 230.981 1354.55 Q228.724 1350.09 224.181 1350.09 M224.181 1345.46 Q231.444 1345.46 235.263 1351.22 Q239.112 1356.95 239.112 1367.89 Q239.112 1378.79 235.263 1384.55 Q231.444 1390.28 224.181 1390.28 Q216.918 1390.28 213.07 1384.55 Q209.251 1378.79 209.251 1367.89 Q209.251 1356.95 213.07 1351.22 Q216.918 1345.46 224.181 1345.46 Z" fill="#000000" fill-rule="nonzero" fill-opacity="1" /><path clip-path="url(#clip930)" d="M174.153 922.257 L174.153 916.933 Q176.352 917.974 178.608 918.524 Q180.865 919.074 183.036 919.074 Q188.823 919.074 191.861 915.196 Q194.928 911.29 195.362 903.362 Q193.684 905.85 191.108 907.181 Q188.533 908.512 185.408 908.512 Q178.927 908.512 175.136 904.606 Q171.375 900.671 171.375 893.871 Q171.375 887.216 175.31 883.194 Q179.245 879.172 185.784 879.172 Q193.279 879.172 197.214 884.93 Q201.178 890.66 201.178 901.597 Q201.178 911.811 196.317 917.916 Q191.485 923.993 183.296 923.993 Q181.097 923.993 178.84 923.559 Q176.583 923.125 174.153 922.257 M185.784 903.941 Q189.72 903.941 192.005 901.25 Q194.32 898.559 194.32 893.871 Q194.32 889.213 192.005 886.522 Q189.72 883.802 185.784 883.802 Q181.849 883.802 179.534 886.522 Q177.249 889.213 177.249 893.871 Q177.249 898.559 179.534 901.25 Q181.849 903.941 185.784 903.941 Z" fill="#000000" fill-rule="nonzero" fill-opacity="1" /><path clip-path="url(#clip930)" d="M224.181 883.802 Q219.667 883.802 217.381 888.258 Q215.125 892.685 215.125 901.597 Q215.125 910.48 217.381 914.936 Q219.667 919.363 224.181 919.363 Q228.724 919.363 230.981 914.936 Q233.267 910.48 233.267 901.597 Q233.267 892.685 230.981 888.258 Q228.724 883.802 224.181 883.802 M224.181 879.172 Q231.444 879.172 235.263 884.93 Q239.112 890.66 239.112 901.597 Q239.112 912.505 235.263 918.264 Q231.444 923.993 224.181 923.993 Q216.918 923.993 213.07 918.264 Q209.251 912.505 209.251 901.597 Q209.251 890.66 213.07 884.93 Q216.918 879.172 224.181 879.172 Z" fill="#000000" fill-rule="nonzero" fill-opacity="1" /><path clip-path="url(#clip930)" d="M137.289 451.946 L146.838 451.946 L146.838 418.989 L136.45 421.072 L136.45 415.748 L146.78 413.665 L152.625 413.665 L152.625 451.946 L162.173 451.946 L162.173 456.865 L137.289 456.865 L137.289 451.946 Z" fill="#000000" fill-rule="nonzero" fill-opacity="1" /><path clip-path="url(#clip930)" d="M179.014 451.946 L199.413 451.946 L199.413 456.865 L171.982 456.865 L171.982 451.946 Q175.31 448.503 181.039 442.716 Q186.797 436.9 188.273 435.222 Q191.079 432.068 192.179 429.898 Q193.307 427.698 193.307 425.586 Q193.307 422.143 190.877 419.973 Q188.475 417.803 184.598 417.803 Q181.849 417.803 178.782 418.758 Q175.744 419.712 172.272 421.651 L172.272 415.748 Q175.802 414.33 178.869 413.607 Q181.936 412.884 184.482 412.884 Q191.195 412.884 195.188 416.24 Q199.181 419.597 199.181 425.21 Q199.181 427.872 198.169 430.274 Q197.185 432.646 194.552 435.887 Q193.828 436.726 189.951 440.748 Q186.074 444.741 179.014 451.946 Z" fill="#000000" fill-rule="nonzero" fill-opacity="1" /><path clip-path="url(#clip930)" d="M224.181 417.513 Q219.667 417.513 217.381 421.969 Q215.125 426.396 215.125 435.308 Q215.125 444.191 217.381 448.647 Q219.667 453.075 224.181 453.075 Q228.724 453.075 230.981 448.647 Q233.267 444.191 233.267 435.308 Q233.267 426.396 230.981 421.969 Q228.724 417.513 224.181 417.513 M224.181 412.884 Q231.444 412.884 235.263 418.642 Q239.112 424.371 239.112 435.308 Q239.112 446.217 235.263 451.975 Q231.444 457.704 224.181 457.704 Q216.918 457.704 213.07 451.975 Q209.251 446.217 209.251 435.308 Q209.251 424.371 213.07 418.642 Q216.918 412.884 224.181 412.884 Z" fill="#000000" fill-rule="nonzero" fill-opacity="1" /><path clip-path="url(#clip930)" d="M22.9276 1412.99 L50.876 1423.3 L50.876 1402.65 L22.9276 1412.99 M15.4422 1417.28 L15.4422 1408.66 L71.6022 1387.26 L71.6022 1395.16 L57.1954 1400.28 L57.1954 1425.59 L71.6022 1430.71 L71.6022 1438.72 L15.4422 1417.28 Z" fill="#000000" fill-rule="nonzero" fill-opacity="1" /><path clip-path="url(#clip930)" d="M37.5601 1346.56 Q32.8958 1343.97 30.6765 1340.35 Q28.4571 1336.74 28.4571 1331.85 Q28.4571 1325.27 33.0838 1321.7 Q37.6729 1318.12 46.1741 1318.12 L71.6022 1318.12 L71.6022 1325.08 L46.3997 1325.08 Q40.3436 1325.08 37.4096 1327.23 Q34.4756 1329.37 34.4756 1333.77 Q34.4756 1339.15 38.0491 1342.27 Q41.6226 1345.39 47.7915 1345.39 L71.6022 1345.39 L71.6022 1352.35 L46.3997 1352.35 Q40.306 1352.35 37.4096 1354.5 Q34.4756 1356.64 34.4756 1361.12 Q34.4756 1366.42 38.0867 1369.54 Q41.6602 1372.67 47.7915 1372.67 L71.6022 1372.67 L71.6022 1379.62 L29.4728 1379.62 L29.4728 1372.67 L36.0179 1372.67 Q32.1435 1370.3 30.3003 1366.99 Q28.4571 1363.68 28.4571 1359.12 Q28.4571 1354.54 30.7893 1351.34 Q33.1215 1348.1 37.5601 1346.56 Z" fill="#000000" fill-rule="nonzero" fill-opacity="1" /><path clip-path="url(#clip930)" d="M65.2827 1297.62 L87.6264 1297.62 L87.6264 1304.58 L29.4728 1304.58 L29.4728 1297.62 L35.8674 1297.62 Q32.1058 1295.44 30.3003 1292.13 Q28.4571 1288.78 28.4571 1284.16 Q28.4571 1276.48 34.5509 1271.71 Q40.6446 1266.89 50.5751 1266.89 Q60.5056 1266.89 66.5993 1271.71 Q72.693 1276.48 72.693 1284.16 Q72.693 1288.78 70.8875 1292.13 Q69.0443 1295.44 65.2827 1297.62 M50.5751 1274.08 Q42.9391 1274.08 38.6133 1277.24 Q34.2499 1280.36 34.2499 1285.85 Q34.2499 1291.34 38.6133 1294.5 Q42.9391 1297.62 50.5751 1297.62 Q58.211 1297.62 62.5744 1294.5 Q66.9002 1291.34 66.9002 1285.85 Q66.9002 1280.36 62.5744 1277.24 Q58.211 1274.08 50.5751 1274.08 Z" fill="#000000" fill-rule="nonzero" fill-opacity="1" /><path clip-path="url(#clip930)" d="M13.0724 1255.42 L13.0724 1248.5 L71.6022 1248.5 L71.6022 1255.42 L13.0724 1255.42 Z" fill="#000000" fill-rule="nonzero" fill-opacity="1" /><path clip-path="url(#clip930)" d="M29.4728 1234.01 L29.4728 1227.09 L71.6022 1227.09 L71.6022 1234.01 L29.4728 1234.01 M13.0724 1234.01 L13.0724 1227.09 L21.8368 1227.09 L21.8368 1234.01 L13.0724 1234.01 Z" fill="#000000" fill-rule="nonzero" fill-opacity="1" /><path clip-path="url(#clip930)" d="M17.511 1205.77 L29.4728 1205.77 L29.4728 1191.51 L34.8518 1191.51 L34.8518 1205.77 L57.722 1205.77 Q62.8754 1205.77 64.3424 1204.37 Q65.8094 1202.94 65.8094 1198.62 L65.8094 1191.51 L71.6022 1191.51 L71.6022 1198.62 Q71.6022 1206.63 68.6305 1209.68 Q65.6213 1212.72 57.722 1212.72 L34.8518 1212.72 L34.8518 1217.8 L29.4728 1217.8 L29.4728 1212.72 L17.511 1212.72 L17.511 1205.77 Z" fill="#000000" fill-rule="nonzero" fill-opacity="1" /><path clip-path="url(#clip930)" d="M54.9761 1183.12 L29.4728 1183.12 L29.4728 1176.2 L54.7128 1176.2 Q60.6937 1176.2 63.7029 1173.87 Q66.6745 1171.54 66.6745 1166.87 Q66.6745 1161.27 63.101 1158.03 Q59.5276 1154.76 53.3586 1154.76 L29.4728 1154.76 L29.4728 1147.84 L71.6022 1147.84 L71.6022 1154.76 L65.1323 1154.76 Q68.9691 1157.28 70.8498 1160.63 Q72.693 1163.94 72.693 1168.34 Q72.693 1175.6 68.1791 1179.36 Q63.6653 1183.12 54.9761 1183.12 M28.4571 1165.71 L28.4571 1165.71 Z" fill="#000000" fill-rule="nonzero" fill-opacity="1" /><path clip-path="url(#clip930)" d="M35.8674 1105.86 L13.0724 1105.86 L13.0724 1098.94 L71.6022 1098.94 L71.6022 1105.86 L65.2827 1105.86 Q69.0443 1108.04 70.8875 1111.39 Q72.693 1114.7 72.693 1119.36 Q72.693 1127 66.5993 1131.81 Q60.5056 1136.59 50.5751 1136.59 Q40.6446 1136.59 34.5509 1131.81 Q28.4571 1127 28.4571 1119.36 Q28.4571 1114.7 30.3003 1111.39 Q32.1058 1108.04 35.8674 1105.86 M50.5751 1129.44 Q58.211 1129.44 62.5744 1126.32 Q66.9002 1123.16 66.9002 1117.67 Q66.9002 1112.18 62.5744 1109.02 Q58.211 1105.86 50.5751 1105.86 Q42.9391 1105.86 38.6133 1109.02 Q34.2499 1112.18 34.2499 1117.67 Q34.2499 1123.16 38.6133 1126.32 Q42.9391 1129.44 50.5751 1129.44 Z" fill="#000000" fill-rule="nonzero" fill-opacity="1" /><path clip-path="url(#clip930)" d="M48.8071 1048.65 L52.1925 1048.65 L52.1925 1080.47 Q59.3395 1080.02 63.101 1076.18 Q66.825 1072.31 66.825 1065.42 Q66.825 1061.43 65.847 1057.71 Q64.869 1053.95 62.913 1050.26 L69.4581 1050.26 Q71.0379 1053.99 71.8655 1057.9 Q72.693 1061.81 72.693 1065.84 Q72.693 1075.92 66.825 1081.82 Q60.957 1087.69 50.9512 1087.69 Q40.607 1087.69 34.5509 1082.12 Q28.4571 1076.52 28.4571 1067.04 Q28.4571 1058.54 33.949 1053.61 Q39.4033 1048.65 48.8071 1048.65 M46.7759 1055.57 Q41.096 1055.64 37.7106 1058.76 Q34.3252 1061.85 34.3252 1066.96 Q34.3252 1072.76 37.5977 1076.26 Q40.8703 1079.72 46.8135 1080.24 L46.7759 1055.57 Z" fill="#000000" fill-rule="nonzero" fill-opacity="1" /><circle clip-path="url(#clip932)" cx="368.215" cy="2300.42" r="14.4" fill="#009af9" fill-rule="evenodd" fill-opacity="1" stroke="#000000" stroke-opacity="1" stroke-width="5.6"/>
<circle clip-path="url(#clip932)" cx="496.95" cy="2300.42" r="14.4" fill="#009af9" fill-rule="evenodd" fill-opacity="1" stroke="#000000" stroke-opacity="1" stroke-width="5.6"/>
<circle clip-path="url(#clip932)" cx="625.685" cy="2300.42" r="14.4" fill="#009af9" fill-rule="evenodd" fill-opacity="1" stroke="#000000" stroke-opacity="1" stroke-width="5.6"/>
<circle clip-path="url(#clip932)" cx="754.42" cy="1050.76" r="14.4" fill="#009af9" fill-rule="evenodd" fill-opacity="1" stroke="#000000" stroke-opacity="1" stroke-width="5.6"/>
<circle clip-path="url(#clip932)" cx="883.155" cy="2300.42" r="14.4" fill="#009af9" fill-rule="evenodd" fill-opacity="1" stroke="#000000" stroke-opacity="1" stroke-width="5.6"/>
<circle clip-path="url(#clip932)" cx="1011.89" cy="1731.47" r="14.4" fill="#009af9" fill-rule="evenodd" fill-opacity="1" stroke="#000000" stroke-opacity="1" stroke-width="5.6"/>
<circle clip-path="url(#clip932)" cx="1140.63" cy="2300.42" r="14.4" fill="#009af9" fill-rule="evenodd" fill-opacity="1" stroke="#000000" stroke-opacity="1" stroke-width="5.6"/>
<circle clip-path="url(#clip932)" cx="1269.36" cy="2300.42" r="14.4" fill="#009af9" fill-rule="evenodd" fill-opacity="1" stroke="#000000" stroke-opacity="1" stroke-width="5.6"/>
<circle clip-path="url(#clip932)" cx="1398.1" cy="114.967" r="14.4" fill="#009af9" fill-rule="evenodd" fill-opacity="1" stroke="#000000" stroke-opacity="1" stroke-width="5.6"/>
<circle clip-path="url(#clip932)" cx="1526.83" cy="2300.42" r="14.4" fill="#009af9" fill-rule="evenodd" fill-opacity="1" stroke="#000000" stroke-opacity="1" stroke-width="5.6"/>
<circle clip-path="url(#clip932)" cx="1655.57" cy="2300.42" r="14.4" fill="#009af9" fill-rule="evenodd" fill-opacity="1" stroke="#000000" stroke-opacity="1" stroke-width="5.6"/>
<circle clip-path="url(#clip932)" cx="1784.3" cy="1805.1" r="14.4" fill="#009af9" fill-rule="evenodd" fill-opacity="1" stroke="#000000" stroke-opacity="1" stroke-width="5.6"/>
<circle clip-path="url(#clip932)" cx="1913.04" cy="2300.42" r="14.4" fill="#009af9" fill-rule="evenodd" fill-opacity="1" stroke="#000000" stroke-opacity="1" stroke-width="5.6"/>
<circle clip-path="url(#clip932)" cx="2041.77" cy="2300.42" r="14.4" fill="#009af9" fill-rule="evenodd" fill-opacity="1" stroke="#000000" stroke-opacity="1" stroke-width="5.6"/>
<circle clip-path="url(#clip932)" cx="2170.51" cy="2300.42" r="14.4" fill="#009af9" fill-rule="evenodd" fill-opacity="1" stroke="#000000" stroke-opacity="1" stroke-width="5.6"/>
<circle clip-path="url(#clip932)" cx="2299.24" cy="1869.75" r="14.4" fill="#009af9" fill-rule="evenodd" fill-opacity="1" stroke="#000000" stroke-opacity="1" stroke-width="5.6"/>
<circle clip-path="url(#clip932)" cx="2427.98" cy="2372.4" r="14.4" fill="#009af9" fill-rule="evenodd" fill-opacity="1" stroke="#000000" stroke-opacity="1" stroke-width="5.6"/>
<circle clip-path="url(#clip932)" cx="2556.71" cy="1411.49" r="14.4" fill="#009af9" fill-rule="evenodd" fill-opacity="1" stroke="#000000" stroke-opacity="1" stroke-width="5.6"/>
<circle clip-path="url(#clip932)" cx="2685.45" cy="2300.42" r="14.4" fill="#009af9" fill-rule="evenodd" fill-opacity="1" stroke="#000000" stroke-opacity="1" stroke-width="5.6"/>
<circle clip-path="url(#clip932)" cx="2814.18" cy="2300.42" r="14.4" fill="#009af9" fill-rule="evenodd" fill-opacity="1" stroke="#000000" stroke-opacity="1" stroke-width="5.6"/>
<circle clip-path="url(#clip932)" cx="2942.92" cy="2300.42" r="14.4" fill="#009af9" fill-rule="evenodd" fill-opacity="1" stroke="#000000" stroke-opacity="1" stroke-width="5.6"/>
<circle clip-path="url(#clip932)" cx="3071.65" cy="2300.42" r="14.4" fill="#009af9" fill-rule="evenodd" fill-opacity="1" stroke="#000000" stroke-opacity="1" stroke-width="5.6"/>
<polyline clip-path="url(#clip932)" style="stroke:#009af9; stroke-linecap:round; stroke-linejoin:round; stroke-width:4; stroke-opacity:1; fill:none" points="368.215,2300.42 368.215,2300.42 "/>
<polyline clip-path="url(#clip932)" style="stroke:#009af9; stroke-linecap:round; stroke-linejoin:round; stroke-width:4; stroke-opacity:1; fill:none" points="496.95,2300.42 496.95,2300.42 "/>
<polyline clip-path="url(#clip932)" style="stroke:#009af9; stroke-linecap:round; stroke-linejoin:round; stroke-width:4; stroke-opacity:1; fill:none" points="625.685,2300.42 625.685,2300.42 "/>
<polyline clip-path="url(#clip932)" style="stroke:#009af9; stroke-linecap:round; stroke-linejoin:round; stroke-width:4; stroke-opacity:1; fill:none" points="754.42,2300.42 754.42,1050.76 "/>
<polyline clip-path="url(#clip932)" style="stroke:#009af9; stroke-linecap:round; stroke-linejoin:round; stroke-width:4; stroke-opacity:1; fill:none" points="883.155,2300.42 883.155,2300.42 "/>
<polyline clip-path="url(#clip932)" style="stroke:#009af9; stroke-linecap:round; stroke-linejoin:round; stroke-width:4; stroke-opacity:1; fill:none" points="1011.89,2300.42 1011.89,1731.47 "/>
<polyline clip-path="url(#clip932)" style="stroke:#009af9; stroke-linecap:round; stroke-linejoin:round; stroke-width:4; stroke-opacity:1; fill:none" points="1140.63,2300.42 1140.63,2300.42 "/>
<polyline clip-path="url(#clip932)" style="stroke:#009af9; stroke-linecap:round; stroke-linejoin:round; stroke-width:4; stroke-opacity:1; fill:none" points="1269.36,2300.42 1269.36,2300.42 "/>
<polyline clip-path="url(#clip932)" style="stroke:#009af9; stroke-linecap:round; stroke-linejoin:round; stroke-width:4; stroke-opacity:1; fill:none" points="1398.1,2300.42 1398.1,114.967 "/>
<polyline clip-path="url(#clip932)" style="stroke:#009af9; stroke-linecap:round; stroke-linejoin:round; stroke-width:4; stroke-opacity:1; fill:none" points="1526.83,2300.42 1526.83,2300.42 "/>
<polyline clip-path="url(#clip932)" style="stroke:#009af9; stroke-linecap:round; stroke-linejoin:round; stroke-width:4; stroke-opacity:1; fill:none" points="1655.57,2300.42 1655.57,2300.42 "/>
<polyline clip-path="url(#clip932)" style="stroke:#009af9; stroke-linecap:round; stroke-linejoin:round; stroke-width:4; stroke-opacity:1; fill:none" points="1784.3,2300.42 1784.3,1805.1 "/>
<polyline clip-path="url(#clip932)" style="stroke:#009af9; stroke-linecap:round; stroke-linejoin:round; stroke-width:4; stroke-opacity:1; fill:none" points="1913.04,2300.42 1913.04,2300.42 "/>
<polyline clip-path="url(#clip932)" style="stroke:#009af9; stroke-linecap:round; stroke-linejoin:round; stroke-width:4; stroke-opacity:1; fill:none" points="2041.77,2300.42 2041.77,2300.42 "/>
<polyline clip-path="url(#clip932)" style="stroke:#009af9; stroke-linecap:round; stroke-linejoin:round; stroke-width:4; stroke-opacity:1; fill:none" points="2170.51,2300.42 2170.51,2300.42 "/>
<polyline clip-path="url(#clip932)" style="stroke:#009af9; stroke-linecap:round; stroke-linejoin:round; stroke-width:4; stroke-opacity:1; fill:none" points="2299.24,2300.42 2299.24,1869.75 "/>
<polyline clip-path="url(#clip932)" style="stroke:#009af9; stroke-linecap:round; stroke-linejoin:round; stroke-width:4; stroke-opacity:1; fill:none" points="2427.98,2300.42 2427.98,2372.4 "/>
<polyline clip-path="url(#clip932)" style="stroke:#009af9; stroke-linecap:round; stroke-linejoin:round; stroke-width:4; stroke-opacity:1; fill:none" points="2556.71,2300.42 2556.71,1411.49 "/>
<polyline clip-path="url(#clip932)" style="stroke:#009af9; stroke-linecap:round; stroke-linejoin:round; stroke-width:4; stroke-opacity:1; fill:none" points="2685.45,2300.42 2685.45,2300.42 "/>
<polyline clip-path="url(#clip932)" style="stroke:#009af9; stroke-linecap:round; stroke-linejoin:round; stroke-width:4; stroke-opacity:1; fill:none" points="2814.18,2300.42 2814.18,2300.42 "/>
<polyline clip-path="url(#clip932)" style="stroke:#009af9; stroke-linecap:round; stroke-linejoin:round; stroke-width:4; stroke-opacity:1; fill:none" points="2942.92,2300.42 2942.92,2300.42 "/>
<polyline clip-path="url(#clip932)" style="stroke:#009af9; stroke-linecap:round; stroke-linejoin:round; stroke-width:4; stroke-opacity:1; fill:none" points="3071.65,2300.42 3071.65,2300.42 "/>
<polyline clip-path="url(#clip932)" style="stroke:#ff0000; stroke-linecap:round; stroke-linejoin:round; stroke-width:8; stroke-opacity:1; fill:none" points="-2578.53,2300.42 6018.4,2300.42 "/>
</svg>
