<?xml version="1.0" encoding="utf-8"?>
<svg xmlns="http://www.w3.org/2000/svg" xmlns:xlink="http://www.w3.org/1999/xlink" width="800" height="600" viewBox="0 0 3200 2400">
<defs>
  <clipPath id="clip980">
    <rect x="0" y="0" width="3200" height="2400"/>
  </clipPath>
</defs>
<path clip-path="url(#clip980)" d="M0 2400 L3200 2400 L3200 0 L0 0  Z" fill="#ffffff" fill-rule="evenodd" fill-opacity="1"/>
<defs>
  <clipPath id="clip981">
    <rect x="640" y="0" width="2241" height="2241"/>
  </clipPath>
</defs>
<path clip-path="url(#clip980)" d="M163.568 2264.41 L3152.76 2264.41 L3152.76 47.2441 L163.568 47.2441  Z" fill="#ffffff" fill-rule="evenodd" fill-opacity="1"/>
<defs>
  <clipPath id="clip982">
    <rect x="163" y="47" width="2990" height="2218"/>
  </clipPath>
</defs>
<polyline clip-path="url(#clip982)" style="stroke:#000000; stroke-linecap:round; stroke-linejoin:round; stroke-width:2; stroke-opacity:0.1; fill:none" points="240.956,2264.41 240.956,47.2441 "/>
<polyline clip-path="url(#clip982)" style="stroke:#000000; stroke-linecap:round; stroke-linejoin:round; stroke-width:2; stroke-opacity:0.1; fill:none" points="962.18,2264.41 962.18,47.2441 "/>
<polyline clip-path="url(#clip982)" style="stroke:#000000; stroke-linecap:round; stroke-linejoin:round; stroke-width:2; stroke-opacity:0.1; fill:none" points="1683.4,2264.41 1683.4,47.2441 "/>
<polyline clip-path="url(#clip982)" style="stroke:#000000; stroke-linecap:round; stroke-linejoin:round; stroke-width:2; stroke-opacity:0.1; fill:none" points="2404.63,2264.41 2404.63,47.2441 "/>
<polyline clip-path="url(#clip982)" style="stroke:#000000; stroke-linecap:round; stroke-linejoin:round; stroke-width:2; stroke-opacity:0.1; fill:none" points="3125.85,2264.41 3125.85,47.2441 "/>
<polyline clip-path="url(#clip980)" style="stroke:#000000; stroke-linecap:round; stroke-linejoin:round; stroke-width:4; stroke-opacity:1; fill:none" points="163.568,2264.41 3152.76,2264.41 "/>
<polyline clip-path="url(#clip980)" style="stroke:#000000; stroke-linecap:round; stroke-linejoin:round; stroke-width:4; stroke-opacity:1; fill:none" points="240.956,2264.41 240.956,2245.51 "/>
<polyline clip-path="url(#clip980)" style="stroke:#000000; stroke-linecap:round; stroke-linejoin:round; stroke-width:4; stroke-opacity:1; fill:none" points="962.18,2264.41 962.18,2245.51 "/>
<polyline clip-path="url(#clip980)" style="stroke:#000000; stroke-linecap:round; stroke-linejoin:round; stroke-width:4; stroke-opacity:1; fill:none" points="1683.4,2264.41 1683.4,2245.51 "/>
<polyline clip-path="url(#clip980)" style="stroke:#000000; stroke-linecap:round; stroke-linejoin:round; stroke-width:4; stroke-opacity:1; fill:none" points="2404.63,2264.41 2404.63,2245.51 "/>
<polyline clip-path="url(#clip980)" style="stroke:#000000; stroke-linecap:round; stroke-linejoin:round; stroke-width:4; stroke-opacity:1; fill:none" points="3125.85,2264.41 3125.85,2245.51 "/>
<path clip-path="url(#clip980)" d="M240.956 2304.66 Q236.442 2304.66 234.156 2309.11 Q231.899 2313.54 231.899 2322.45 Q231.899 2331.33 234.156 2335.79 Q236.442 2340.22 240.956 2340.22 Q245.498 2340.22 247.755 2335.79 Q250.041 2331.33 250.041 2322.45 Q250.041 2313.54 247.755 2309.11 Q245.498 2304.66 240.956 2304.66 M240.956 2300.03 Q248.218 2300.03 252.038 2305.78 Q255.886 2311.51 255.886 2322.45 Q255.886 2333.36 252.038 2339.12 Q248.218 2344.85 240.956 2344.85 Q233.693 2344.85 229.845 2339.12 Q226.025 2333.36 226.025 2322.45 Q226.025 2311.51 229.845 2305.78 Q233.693 2300.03 240.956 2300.03 Z" fill="#000000" fill-rule="nonzero" fill-opacity="1" /><path clip-path="url(#clip980)" d="M911.689 2339.09 L921.237 2339.09 L921.237 2306.13 L910.849 2308.22 L910.849 2302.89 L921.179 2300.81 L927.024 2300.81 L927.024 2339.09 L936.573 2339.09 L936.573 2344.01 L911.689 2344.01 L911.689 2339.09 Z" fill="#000000" fill-rule="nonzero" fill-opacity="1" /><path clip-path="url(#clip980)" d="M960.878 2304.66 Q956.364 2304.66 954.078 2309.11 Q951.821 2313.54 951.821 2322.45 Q951.821 2331.33 954.078 2335.79 Q956.364 2340.22 960.878 2340.22 Q965.421 2340.22 967.678 2335.79 Q969.964 2331.33 969.964 2322.45 Q969.964 2313.54 967.678 2309.11 Q965.421 2304.66 960.878 2304.66 M960.878 2300.03 Q968.141 2300.03 971.96 2305.78 Q975.809 2311.51 975.809 2322.45 Q975.809 2333.36 971.96 2339.12 Q968.141 2344.85 960.878 2344.85 Q953.615 2344.85 949.767 2339.12 Q945.948 2333.36 945.948 2322.45 Q945.948 2311.51 949.767 2305.78 Q953.615 2300.03 960.878 2300.03 Z" fill="#000000" fill-rule="nonzero" fill-opacity="1" /><path clip-path="url(#clip980)" d="M998.58 2304.66 Q994.067 2304.66 991.781 2309.11 Q989.524 2313.54 989.524 2322.45 Q989.524 2331.33 991.781 2335.79 Q994.067 2340.22 998.58 2340.22 Q1003.12 2340.22 1005.38 2335.79 Q1007.67 2331.33 1007.67 2322.45 Q1007.67 2313.54 1005.38 2309.11 Q1003.12 2304.66 998.58 2304.66 M998.58 2300.03 Q1005.84 2300.03 1009.66 2305.78 Q1013.51 2311.51 1013.51 2322.45 Q1013.51 2333.36 1009.66 2339.12 Q1005.84 2344.85 998.58 2344.85 Q991.318 2344.85 987.469 2339.12 Q983.65 2333.36 983.65 2322.45 Q983.65 2311.51 987.469 2305.78 Q991.318 2300.03 998.58 2300.03 Z" fill="#000000" fill-rule="nonzero" fill-opacity="1" /><path clip-path="url(#clip980)" d="M1638.02 2339.09 L1658.42 2339.09 L1658.42 2344.01 L1630.99 2344.01 L1630.99 2339.09 Q1634.32 2335.65 1640.05 2329.86 Q1645.8 2324.04 1647.28 2322.36 Q1650.09 2319.21 1651.19 2317.04 Q1652.31 2314.84 1652.31 2312.73 Q1652.31 2309.29 1649.88 2307.12 Q1647.48 2304.95 1643.6 2304.95 Q1640.86 2304.95 1637.79 2305.9 Q1634.75 2306.86 1631.28 2308.79 L1631.28 2302.89 Q1634.81 2301.47 1637.88 2300.75 Q1640.94 2300.03 1643.49 2300.03 Q1650.2 2300.03 1654.19 2303.38 Q1658.19 2306.74 1658.19 2312.35 Q1658.19 2315.01 1657.18 2317.42 Q1656.19 2319.79 1653.56 2323.03 Q1652.84 2323.87 1648.96 2327.89 Q1645.08 2331.88 1638.02 2339.09 Z" fill="#000000" fill-rule="nonzero" fill-opacity="1" /><path clip-path="url(#clip980)" d="M1683.19 2304.66 Q1678.67 2304.66 1676.39 2309.11 Q1674.13 2313.54 1674.13 2322.45 Q1674.13 2331.33 1676.39 2335.79 Q1678.67 2340.22 1683.19 2340.22 Q1687.73 2340.22 1689.99 2335.79 Q1692.27 2331.33 1692.27 2322.45 Q1692.27 2313.54 1689.99 2309.11 Q1687.73 2304.66 1683.19 2304.66 M1683.19 2300.03 Q1690.45 2300.03 1694.27 2305.78 Q1698.12 2311.51 1698.12 2322.45 Q1698.12 2333.36 1694.27 2339.12 Q1690.45 2344.85 1683.19 2344.85 Q1675.93 2344.85 1672.08 2339.12 Q1668.26 2333.36 1668.26 2322.45 Q1668.26 2311.51 1672.08 2305.78 Q1675.93 2300.03 1683.19 2300.03 Z" fill="#000000" fill-rule="nonzero" fill-opacity="1" /><path clip-path="url(#clip980)" d="M1720.89 2304.66 Q1716.38 2304.66 1714.09 2309.11 Q1711.83 2313.54 1711.83 2322.45 Q1711.83 2331.33 1714.09 2335.79 Q1716.38 2340.22 1720.89 2340.22 Q1725.43 2340.22 1727.69 2335.79 Q1729.98 2331.33 1729.98 2322.45 Q1729.98 2313.54 1727.69 2309.11 Q1725.43 2304.66 1720.89 2304.66 M1720.89 2300.03 Q1728.15 2300.03 1731.97 2305.78 Q1735.82 2311.51 1735.82 2322.45 Q1735.82 2333.36 1731.97 2339.12 Q1728.15 2344.85 1720.89 2344.85 Q1713.63 2344.85 1709.78 2339.12 Q1705.96 2333.36 1705.96 2322.45 Q1705.96 2311.51 1709.78 2305.78 Q1713.63 2300.03 1720.89 2300.03 Z" fill="#000000" fill-rule="nonzero" fill-opacity="1" /><path clip-path="url(#clip980)" d="M2371.83 2320.72 Q2376.03 2321.61 2378.37 2324.45 Q2380.74 2327.28 2380.74 2331.45 Q2380.74 2337.84 2376.35 2341.35 Q2371.95 2344.85 2363.85 2344.85 Q2361.13 2344.85 2358.23 2344.3 Q2355.37 2343.78 2352.3 2342.71 L2352.3 2337.06 Q2354.73 2338.48 2357.62 2339.2 Q2360.52 2339.93 2363.67 2339.93 Q2369.17 2339.93 2372.03 2337.76 Q2374.93 2335.59 2374.93 2331.45 Q2374.93 2327.63 2372.24 2325.49 Q2369.57 2323.32 2364.8 2323.32 L2359.77 2323.32 L2359.77 2318.52 L2365.03 2318.52 Q2369.34 2318.52 2371.63 2316.81 Q2373.92 2315.07 2373.92 2311.83 Q2373.92 2308.5 2371.54 2306.74 Q2369.2 2304.95 2364.8 2304.95 Q2362.4 2304.95 2359.65 2305.47 Q2356.9 2305.99 2353.6 2307.09 L2353.6 2301.88 Q2356.93 2300.95 2359.82 2300.49 Q2362.75 2300.03 2365.32 2300.03 Q2371.98 2300.03 2375.85 2303.06 Q2379.73 2306.07 2379.73 2311.22 Q2379.73 2314.81 2377.68 2317.3 Q2375.62 2319.76 2371.83 2320.72 Z" fill="#000000" fill-rule="nonzero" fill-opacity="1" /><path clip-path="url(#clip980)" d="M2404.33 2304.66 Q2399.81 2304.66 2397.53 2309.11 Q2395.27 2313.54 2395.27 2322.45 Q2395.27 2331.33 2397.53 2335.79 Q2399.81 2340.22 2404.33 2340.22 Q2408.87 2340.22 2411.13 2335.79 Q2413.41 2331.33 2413.41 2322.45 Q2413.41 2313.54 2411.13 2309.11 Q2408.87 2304.66 2404.33 2304.66 M2404.33 2300.03 Q2411.59 2300.03 2415.41 2305.78 Q2419.26 2311.51 2419.26 2322.45 Q2419.26 2333.36 2415.41 2339.12 Q2411.59 2344.85 2404.33 2344.85 Q2397.06 2344.85 2393.21 2339.12 Q2389.4 2333.36 2389.4 2322.45 Q2389.4 2311.51 2393.21 2305.78 Q2397.06 2300.03 2404.33 2300.03 Z" fill="#000000" fill-rule="nonzero" fill-opacity="1" /><path clip-path="url(#clip980)" d="M2442.03 2304.66 Q2437.51 2304.66 2435.23 2309.11 Q2432.97 2313.54 2432.97 2322.45 Q2432.97 2331.33 2435.23 2335.79 Q2437.51 2340.22 2442.03 2340.22 Q2446.57 2340.22 2448.83 2335.79 Q2451.11 2331.33 2451.11 2322.45 Q2451.11 2313.54 2448.83 2309.11 Q2446.57 2304.66 2442.03 2304.66 M2442.03 2300.03 Q2449.29 2300.03 2453.11 2305.78 Q2456.96 2311.51 2456.96 2322.45 Q2456.96 2333.36 2453.11 2339.12 Q2449.29 2344.85 2442.03 2344.85 Q2434.77 2344.85 2430.92 2339.12 Q2427.1 2333.36 2427.1 2322.45 Q2427.1 2311.51 2430.92 2305.78 Q2434.77 2300.03 2442.03 2300.03 Z" fill="#000000" fill-rule="nonzero" fill-opacity="1" /><path clip-path="url(#clip980)" d="M3092.22 2305.9 L3077.46 2328.96 L3092.22 2328.96 L3092.22 2305.9 M3090.68 2300.81 L3098.03 2300.81 L3098.03 2328.96 L3104.2 2328.96 L3104.2 2333.82 L3098.03 2333.82 L3098.03 2344.01 L3092.22 2344.01 L3092.22 2333.82 L3072.72 2333.82 L3072.72 2328.18 L3090.68 2300.81 Z" fill="#000000" fill-rule="nonzero" fill-opacity="1" /><path clip-path="url(#clip980)" d="M3126.36 2304.66 Q3121.85 2304.66 3119.56 2309.11 Q3117.3 2313.54 3117.3 2322.45 Q3117.3 2331.33 3119.56 2335.79 Q3121.85 2340.22 3126.36 2340.22 Q3130.9 2340.22 3133.16 2335.79 Q3135.45 2331.33 3135.45 2322.45 Q3135.45 2313.54 3133.16 2309.11 Q3130.9 2304.66 3126.36 2304.66 M3126.36 2300.03 Q3133.62 2300.03 3137.44 2305.78 Q3141.29 2311.51 3141.29 2322.45 Q3141.29 2333.36 3137.44 2339.12 Q3133.62 2344.85 3126.36 2344.85 Q3119.1 2344.85 3115.25 2339.12 Q3111.43 2333.36 3111.43 2322.45 Q3111.43 2311.51 3115.25 2305.78 Q3119.1 2300.03 3126.36 2300.03 Z" fill="#000000" fill-rule="nonzero" fill-opacity="1" /><path clip-path="url(#clip980)" d="M3164.06 2304.66 Q3159.55 2304.66 3157.26 2309.11 Q3155.01 2313.54 3155.01 2322.45 Q3155.01 2331.33 3157.26 2335.79 Q3159.55 2340.22 3164.06 2340.22 Q3168.61 2340.22 3170.86 2335.79 Q3173.15 2331.33 3173.15 2322.45 Q3173.15 2313.54 3170.86 2309.11 Q3168.61 2304.66 3164.06 2304.66 M3164.06 2300.03 Q3171.33 2300.03 3175.15 2305.78 Q3178.99 2311.51 3178.99 2322.45 Q3178.99 2333.36 3175.15 2339.12 Q3171.33 2344.85 3164.06 2344.85 Q3156.8 2344.85 3152.95 2339.12 Q3149.13 2333.36 3149.13 2322.45 Q3149.13 2311.51 3152.95 2305.78 Q3156.8 2300.03 3164.06 2300.03 Z" fill="#000000" fill-rule="nonzero" fill-opacity="1" /><polyline clip-path="url(#clip982)" style="stroke:#000000; stroke-linecap:round; stroke-linejoin:round; stroke-width:2; stroke-opacity:0.1; fill:none" points="163.568,2146.03 3152.76,2146.03 "/>
<polyline clip-path="url(#clip982)" style="stroke:#000000; stroke-linecap:round; stroke-linejoin:round; stroke-width:2; stroke-opacity:0.1; fill:none" points="163.568,1589.73 3152.76,1589.73 "/>
<polyline clip-path="url(#clip982)" style="stroke:#000000; stroke-linecap:round; stroke-linejoin:round; stroke-width:2; stroke-opacity:0.1; fill:none" points="163.568,1033.44 3152.76,1033.44 "/>
<polyline clip-path="url(#clip982)" style="stroke:#000000; stroke-linecap:round; stroke-linejoin:round; stroke-width:2; stroke-opacity:0.1; fill:none" points="163.568,477.148 3152.76,477.148 "/>
<polyline clip-path="url(#clip980)" style="stroke:#000000; stroke-linecap:round; stroke-linejoin:round; stroke-width:4; stroke-opacity:1; fill:none" points="163.568,2264.41 163.568,47.2441 "/>
<polyline clip-path="url(#clip980)" style="stroke:#000000; stroke-linecap:round; stroke-linejoin:round; stroke-width:4; stroke-opacity:1; fill:none" points="163.568,2146.03 182.466,2146.03 "/>
<polyline clip-path="url(#clip980)" style="stroke:#000000; stroke-linecap:round; stroke-linejoin:round; stroke-width:4; stroke-opacity:1; fill:none" points="163.568,1589.73 182.466,1589.73 "/>
<polyline clip-path="url(#clip980)" style="stroke:#000000; stroke-linecap:round; stroke-linejoin:round; stroke-width:4; stroke-opacity:1; fill:none" points="163.568,1033.44 182.466,1033.44 "/>
<polyline clip-path="url(#clip980)" style="stroke:#000000; stroke-linecap:round; stroke-linejoin:round; stroke-width:4; stroke-opacity:1; fill:none" points="163.568,477.148 182.466,477.148 "/>
<path clip-path="url(#clip980)" d="M51.4481 2162.71 L60.9967 2162.71 L60.9967 2129.75 L50.609 2131.84 L50.609 2126.51 L60.9388 2124.43 L66.7837 2124.43 L66.7837 2162.71 L76.3322 2162.71 L76.3322 2167.63 L51.4481 2167.63 L51.4481 2162.71 Z" fill="#000000" fill-rule="nonzero" fill-opacity="1" /><path clip-path="url(#clip980)" d="M100.638 2128.28 Q96.1238 2128.28 93.8379 2132.73 Q91.581 2137.16 91.581 2146.07 Q91.581 2154.96 93.8379 2159.41 Q96.1238 2163.84 100.638 2163.84 Q105.18 2163.84 107.437 2159.41 Q109.723 2154.96 109.723 2146.07 Q109.723 2137.16 107.437 2132.73 Q105.18 2128.28 100.638 2128.28 M100.638 2123.65 Q107.9 2123.65 111.72 2129.41 Q115.568 2135.13 115.568 2146.07 Q115.568 2156.98 111.72 2162.74 Q107.9 2168.47 100.638 2168.47 Q93.375 2168.47 89.5266 2162.74 Q85.7072 2156.98 85.7072 2146.07 Q85.7072 2135.13 89.5266 2129.41 Q93.375 2123.65 100.638 2123.65 Z" fill="#000000" fill-rule="nonzero" fill-opacity="1" /><path clip-path="url(#clip980)" d="M55.4701 1606.42 L75.8693 1606.42 L75.8693 1611.33 L48.4389 1611.33 L48.4389 1606.42 Q51.7664 1602.97 57.4955 1597.19 Q63.2536 1591.37 64.7293 1589.69 Q67.536 1586.54 68.6355 1584.37 Q69.764 1582.17 69.764 1580.06 Q69.764 1576.61 67.3335 1574.44 Q64.9318 1572.27 61.0546 1572.27 Q58.3057 1572.27 55.2386 1573.23 Q52.2004 1574.18 48.7282 1576.12 L48.7282 1570.22 Q52.2583 1568.8 55.3254 1568.08 Q58.3925 1567.35 60.9388 1567.35 Q67.6517 1567.35 71.6448 1570.71 Q75.6378 1574.07 75.6378 1579.68 Q75.6378 1582.34 74.6251 1584.74 Q73.6413 1587.12 71.0082 1590.36 Q70.2848 1591.2 66.4075 1595.22 Q62.5302 1599.21 55.4701 1606.42 Z" fill="#000000" fill-rule="nonzero" fill-opacity="1" /><path clip-path="url(#clip980)" d="M100.638 1571.98 Q96.1238 1571.98 93.8379 1576.44 Q91.581 1580.87 91.581 1589.78 Q91.581 1598.66 93.8379 1603.12 Q96.1238 1607.54 100.638 1607.54 Q105.18 1607.54 107.437 1603.12 Q109.723 1598.66 109.723 1589.78 Q109.723 1580.87 107.437 1576.44 Q105.18 1571.98 100.638 1571.98 M100.638 1567.35 Q107.9 1567.35 111.72 1573.11 Q115.568 1578.84 115.568 1589.78 Q115.568 1600.69 111.72 1606.44 Q107.9 1612.17 100.638 1612.17 Q93.375 1612.17 89.5266 1606.44 Q85.7072 1600.69 85.7072 1589.78 Q85.7072 1578.84 89.5266 1573.11 Q93.375 1567.35 100.638 1567.35 Z" fill="#000000" fill-rule="nonzero" fill-opacity="1" /><path clip-path="url(#clip980)" d="M68.1436 1031.75 Q72.3392 1032.65 74.6829 1035.48 Q77.0556 1038.32 77.0556 1042.48 Q77.0556 1048.88 72.6575 1052.38 Q68.2594 1055.88 60.1576 1055.88 Q57.4377 1055.88 54.5442 1055.33 Q51.6796 1054.81 48.6125 1053.74 L48.6125 1048.1 Q51.043 1049.51 53.9365 1050.24 Q56.83 1050.96 59.984 1050.96 Q65.4816 1050.96 68.3462 1048.79 Q71.2397 1046.62 71.2397 1042.48 Q71.2397 1038.66 68.5487 1036.52 Q65.8867 1034.35 61.1124 1034.35 L56.0777 1034.35 L56.0777 1029.55 L61.3439 1029.55 Q65.6552 1029.55 67.9411 1027.84 Q70.227 1026.11 70.227 1022.87 Q70.227 1019.54 67.8543 1017.77 Q65.5105 1015.98 61.1124 1015.98 Q58.7108 1015.98 55.962 1016.5 Q53.2132 1017.02 49.9146 1018.12 L49.9146 1012.91 Q53.2421 1011.99 56.1356 1011.52 Q59.058 1011.06 61.6333 1011.06 Q68.2883 1011.06 72.1656 1014.1 Q76.0429 1017.11 76.0429 1022.26 Q76.0429 1025.85 73.9885 1028.33 Q71.9341 1030.79 68.1436 1031.75 Z" fill="#000000" fill-rule="nonzero" fill-opacity="1" /><path clip-path="url(#clip980)" d="M100.638 1015.69 Q96.1238 1015.69 93.8379 1020.15 Q91.581 1024.57 91.581 1033.48 Q91.581 1042.37 93.8379 1046.82 Q96.1238 1051.25 100.638 1051.25 Q105.18 1051.25 107.437 1046.82 Q109.723 1042.37 109.723 1033.48 Q109.723 1024.57 107.437 1020.15 Q105.18 1015.69 100.638 1015.69 M100.638 1011.06 Q107.9 1011.06 111.72 1016.82 Q115.568 1022.55 115.568 1033.48 Q115.568 1044.39 111.72 1050.15 Q107.9 1055.88 100.638 1055.88 Q93.375 1055.88 89.5266 1050.15 Q85.7072 1044.39 85.7072 1033.48 Q85.7072 1022.55 89.5266 1016.82 Q93.375 1011.06 100.638 1011.06 Z" fill="#000000" fill-rule="nonzero" fill-opacity="1" /><path clip-path="url(#clip980)" d="M66.4943 460.64 L51.7375 483.702 L66.4943 483.702 L66.4943 460.64 M64.9608 455.548 L72.3103 455.548 L72.3103 483.702 L78.4734 483.702 L78.4734 488.563 L72.3103 488.563 L72.3103 498.748 L66.4943 498.748 L66.4943 488.563 L46.9921 488.563 L46.9921 482.92 L64.9608 455.548 Z" fill="#000000" fill-rule="nonzero" fill-opacity="1" /><path clip-path="url(#clip980)" d="M100.638 459.396 Q96.1238 459.396 93.8379 463.852 Q91.581 468.279 91.581 477.191 Q91.581 486.074 93.8379 490.53 Q96.1238 494.957 100.638 494.957 Q105.18 494.957 107.437 490.53 Q109.723 486.074 109.723 477.191 Q109.723 468.279 107.437 463.852 Q105.18 459.396 100.638 459.396 M100.638 454.767 Q107.9 454.767 111.72 460.525 Q115.568 466.254 115.568 477.191 Q115.568 488.1 111.72 493.858 Q107.9 499.587 100.638 499.587 Q93.375 499.587 89.5266 493.858 Q85.7072 488.1 85.7072 477.191 Q85.7072 466.254 89.5266 460.525 Q93.375 454.767 100.638 454.767 Z" fill="#000000" fill-rule="nonzero" fill-opacity="1" /><polyline clip-path="url(#clip982)" style="stroke:#009af9; stroke-linecap:round; stroke-linejoin:round; stroke-width:8; stroke-opacity:1; fill:none" points="248.168,1700.99 255.38,1867.88 262.592,1700.99 269.805,1812.25 277.017,1756.62 284.229,1867.88 291.441,1923.51 298.654,1923.51 305.866,1923.51 313.078,1867.88 320.29,1867.88 327.503,1923.51 334.715,1867.88 341.927,1923.51 349.139,1367.22 356.352,1478.48 363.564,1700.99 370.776,1534.11 377.988,1200.33 385.2,1255.96 392.413,1311.59 399.625,1367.22 406.837,1311.59 414.049,1255.96 421.262,1534.11 428.474,2146.03 435.686,2146.03 442.898,2090.4 450.111,2201.66 457.323,1200.33 464.535,1144.7 471.747,1311.59 478.96,1645.36 486.172,1812.25 493.384,1756.62 500.596,1645.36 507.809,1700.99 515.021,1923.51 522.233,1923.51 529.445,1923.51 536.658,1923.51 543.87,2034.77 551.082,1979.14 558.294,1979.14 565.507,1700.99 572.719,1478.48 579.931,1645.36 587.143,1700.99 594.356,1422.85 601.568,1144.7 608.78,1033.44 615.992,1033.44 623.205,977.812 630.417,755.295 637.629,1200.33 644.841,1255.96 652.054,1367.22 659.266,1311.59 666.478,1422.85 673.69,1589.73 680.903,1534.11 688.115,1979.14 695.327,1923.51 702.539,1867.88 709.752,1923.51 716.964,1756.62 724.176,2090.4 731.388,1979.14 738.601,2034.77 745.813,1979.14 753.025,1645.36 760.237,1867.88 767.45,1979.14 774.662,1979.14 781.874,1923.51 789.086,1700.99 796.299,1478.48 803.511,1534.11 810.723,1255.96 817.935,1478.48 825.148,1144.7 832.36,1422.85 839.572,1144.7 846.784,1200.33 853.997,1979.14 861.209,1923.51 868.421,1979.14 875.633,1923.51 882.846,1867.88 890.058,2034.77 897.27,1979.14 904.482,1979.14 911.694,1923.51 918.907,1979.14 926.119,2034.77 933.331,1979.14 940.543,1700.99 947.756,1812.25 954.968,1700.99 962.18,1700.99 969.392,1422.85 976.605,1255.96 983.817,2090.4 991.029,2034.77 998.241,1979.14 1005.45,2034.77 1012.67,1700.99 1019.88,1589.73 1027.09,1534.11 1034.3,1478.48 1041.51,1700.99 1048.73,1645.36 1055.94,1534.11 1063.15,1255.96 1070.36,1867.88 1077.58,1812.25 1084.79,1089.07 1092,1367.22 1099.21,1589.73 1106.43,1645.36 1113.64,1867.88 1120.85,1367.22 1128.06,1589.73 1135.27,2090.4 1142.49,1589.73 1149.7,1645.36 1156.91,1867.88 1164.12,977.812 1171.34,1255.96 1178.55,922.183 1185.76,1311.59 1192.97,1812.25 1200.18,1812.25 1207.4,1700.99 1214.61,1812.25 1221.82,1979.14 1229.03,1923.51 1236.25,1923.51 1243.46,1923.51 1250.67,1089.07 1257.88,1255.96 1265.09,1255.96 1272.31,977.812 1279.52,922.183 1286.73,1144.7 1293.94,1367.22 1301.16,1255.96 1308.37,1367.22 1315.58,1255.96 1322.79,977.812 1330,1645.36 1337.22,1700.99 1344.43,1867.88 1351.64,1867.88 1358.85,1812.25 1366.07,1867.88 1373.28,1812.25 1380.49,1923.51 1387.7,1756.62 1394.92,1812.25 1402.13,1867.88 1409.34,1700.99 1416.55,1534.11 1423.76,1589.73 1430.98,1979.14 1438.19,1089.07 1445.4,1422.85 1452.61,1589.73 1459.83,1422.85 1467.04,1367.22 1474.25,1311.59 1481.46,1367.22 1488.67,1700.99 1495.89,1089.07 1503.1,1645.36 1510.31,1422.85 1517.52,1422.85 1524.74,1478.48 1531.95,1311.59 1539.16,866.553 1546.37,1144.7 1553.58,1311.59 1560.8,1311.59 1568.01,1255.96 1575.22,1200.33 1582.43,1728.81 1589.65,1812.25 1596.86,1840.07 1604.07,1895.7 1611.28,1478.48 1618.49,1478.48 1625.71,1367.22 1632.92,1450.66 1640.13,1089.07 1647.34,1339.4 1654.56,1089.07 1661.77,866.553 1668.98,1589.73 1676.19,1700.99 1683.4,1673.18 1690.62,1728.81 1697.83,1061.26 1705.04,922.183 1712.25,1144.7 1719.47,1228.14 1726.68,1589.73 1733.89,1979.14 1741.1,1645.36 1748.32,1645.36 1755.53,1784.44 1762.74,1784.44 1769.95,1979.14 1777.16,1979.14 1784.38,1979.14 1791.59,949.997 1798.8,1033.44 1806.01,699.665 1813.23,1283.77 1820.44,838.739 1827.65,1728.81 1834.86,1756.62 1842.07,1840.07 1849.29,1867.88 1856.5,1728.81 1863.71,1561.92 1870.92,1645.36 1878.14,1673.18 1885.35,1812.25 1892.56,1840.07 1899.77,1840.07 1906.98,1812.25 1914.2,1089.07 1921.41,1339.4 1928.62,1255.96 1935.83,1283.77 1943.05,1005.63 1950.26,838.739 1957.47,1033.44 1964.68,1005.63 1971.89,1478.48 1979.11,1506.29 1986.32,1506.29 1993.53,304.697 2000.74,694.102 2007.96,877.679 2015.17,510.525 2022.38,694.102 2029.59,1595.3 2036.8,1623.11 2044.02,1578.61 2051.23,1634.24 2058.44,1561.92 2065.65,1578.61 2072.87,1306.03 2080.08,1561.92 2087.29,1623.11 2094.5,1556.36 2101.72,1545.23 2108.93,1667.62 2116.14,1695.43 2123.35,1634.24 2130.56,1717.68 2137.78,1695.43 2144.99,1728.81 2152.2,1033.44 2159.41,1172.51 2166.63,1189.2 2173.84,983.375 2181.05,1528.54 2188.26,1411.72 2195.47,1378.34 2202.69,1372.78 2209.9,1573.05 2217.11,1756.62 2224.32,1500.73 2231.54,1801.13 2238.75,949.997 2245.96,1061.26 2253.17,1506.29 2260.38,1600.86 2267.6,1461.79 2274.81,1578.61 2282.02,1556.36 2289.23,1756.62 2296.45,1723.25 2303.66,1784.44 2310.87,1689.87 2318.08,1762.19 2325.29,1840.07 2332.51,1634.24 2339.72,1673.18 2346.93,927.746 2354.14,805.361 2361.36,716.354 2368.57,1178.08 2375.78,1289.34 2382.99,1422.85 2390.21,1189.2 2397.42,1372.78 2404.63,799.798 2411.84,783.109 2419.05,933.309 2426.27,627.347 2433.48,1122.45 2440.69,1100.2 2447.9,1211.46 2455.12,838.739 2462.33,393.704 2469.54,582.844 2476.75,916.62 2483.96,632.91 2491.18,1144.7 2498.39,1233.71 2505.6,1350.53 2512.81,1639.8 2520.03,794.235 2527.24,1044.57 2534.45,961.123 2541.66,644.036 2548.87,911.057 2556.09,109.994 2563.3,1150.26 2570.51,432.644 2577.72,237.942 2584.94,288.008 2592.15,677.413 2599.36,1033.44 2606.57,221.253 2613.78,822.05 2621,1044.57 2628.21,883.242 2635.42,1383.91 2642.63,755.295 2649.85,899.931 2657.06,1189.2 2664.27,1222.58 2671.48,1267.08 2678.69,1395.03 2685.91,1033.44 2693.12,527.214 2700.33,532.777 2707.54,749.732 2714.76,905.494 2721.97,644.036 2729.18,605.095 2736.39,805.361 2743.61,771.983 2750.82,788.672 2758.03,1039 2765.24,866.553 2772.45,827.613 2779.67,899.931 2786.88,872.116 2794.09,944.434 2801.3,1139.14 2808.52,994.501 2815.73,1289.34 2822.94,1356.09 2830.15,1456.22 2837.36,1222.58 2844.58,1578.61 2851.79,1723.25 2859,1144.7 2866.21,1200.33 2873.43,810.924 2880.64,977.812 2887.85,1089.07 2895.06,1200.33 2902.27,1367.22 2909.49,699.665 2916.7,644.036 2923.91,977.812 2931.12,588.407 2938.34,699.665 2945.55,699.665 2952.76,699.665 2959.97,810.924 2967.18,588.407 2974.4,922.183 2981.61,588.407 2988.82,1311.59 2996.03,588.407 3003.25,1255.96 3010.46,1478.48 3017.67,922.183 3024.88,699.665 3032.1,1200.33 3039.31,1200.33 3046.52,254.63 3053.73,922.183 3060.94,1144.7 3068.16,977.812 "/>
</svg>
