<?xml version="1.0" encoding="utf-8" standalone="no"?>
<!DOCTYPE svg PUBLIC "-//W3C//DTD SVG 1.1//EN"
  "http://www.w3.org/Graphics/SVG/1.1/DTD/svg11.dtd">
<svg height="432pt" version="1.1" viewBox="0 0 576 432" width="576pt" xmlns="http://www.w3.org/2000/svg" xmlns:xlink="http://www.w3.org/1999/xlink">
 <metadata>
  <rdf:RDF xmlns:cc="http://creativecommons.org/ns#" xmlns:dc="http://purl.org/dc/elements/1.1/" xmlns:rdf="http://www.w3.org/1999/02/22-rdf-syntax-ns#">
   <cc:Work>
    <dc:type rdf:resource="http://purl.org/dc/dcmitype/StillImage"/>
    <dc:date>2022-01-10T13:54:57.705183</dc:date>
    <dc:format>image/svg+xml</dc:format>
    <dc:creator>
     <cc:Agent>
      <dc:title>Matplotlib v3.4.2, https://matplotlib.org/</dc:title>
     </cc:Agent>
    </dc:creator>
   </cc:Work>
  </rdf:RDF>
 </metadata>
 <defs>
  <style type="text/css">*{stroke-linecap:butt;stroke-linejoin:round;}</style>
 </defs>
 <g id="figure_1">
  <g id="patch_1">
   <path d="M 0 432 
L 576 432 
L 576 0 
L 0 0 
z
" style="fill:#ffffff;"/>
  </g>
  <g id="axes_1">
   <g id="patch_2">
    <path d="M 72 384.48 
L 518.4 384.48 
L 518.4 51.84 
L 72 51.84 
z
" style="fill:#ffffff;"/>
   </g>
   <g id="matplotlib.axis_1">
    <g id="xtick_1">
     <g id="line2d_1">
      <defs>
       <path d="M 0 0 
L 0 3.5 
" id="m70ae1a83ea" style="stroke:#000000;stroke-width:0.8;"/>
      </defs>
      <g>
       <use style="stroke:#000000;stroke-width:0.8;" x="92.290909" xlink:href="#m70ae1a83ea" y="384.48"/>
      </g>
     </g>
     <g id="text_1">
      <!-- 0 -->
      <g transform="translate(89.109659 399.078438)scale(0.1 -0.1)">
       <defs>
        <path d="M 2034 4250 
Q 1547 4250 1301 3770 
Q 1056 3291 1056 2328 
Q 1056 1369 1301 889 
Q 1547 409 2034 409 
Q 2525 409 2770 889 
Q 3016 1369 3016 2328 
Q 3016 3291 2770 3770 
Q 2525 4250 2034 4250 
z
M 2034 4750 
Q 2819 4750 3233 4129 
Q 3647 3509 3647 2328 
Q 3647 1150 3233 529 
Q 2819 -91 2034 -91 
Q 1250 -91 836 529 
Q 422 1150 422 2328 
Q 422 3509 836 4129 
Q 1250 4750 2034 4750 
z
" id="DejaVuSans-30" transform="scale(0.015625)"/>
       </defs>
       <use xlink:href="#DejaVuSans-30"/>
      </g>
     </g>
    </g>
    <g id="xtick_2">
     <g id="line2d_2">
      <g>
       <use style="stroke:#000000;stroke-width:0.8;" x="144.185817" xlink:href="#m70ae1a83ea" y="384.48"/>
      </g>
     </g>
     <g id="text_2">
      <!-- 50 -->
      <g transform="translate(137.823317 399.078438)scale(0.1 -0.1)">
       <defs>
        <path d="M 691 4666 
L 3169 4666 
L 3169 4134 
L 1269 4134 
L 1269 2991 
Q 1406 3038 1543 3061 
Q 1681 3084 1819 3084 
Q 2600 3084 3056 2656 
Q 3513 2228 3513 1497 
Q 3513 744 3044 326 
Q 2575 -91 1722 -91 
Q 1428 -91 1123 -41 
Q 819 9 494 109 
L 494 744 
Q 775 591 1075 516 
Q 1375 441 1709 441 
Q 2250 441 2565 725 
Q 2881 1009 2881 1497 
Q 2881 1984 2565 2268 
Q 2250 2553 1709 2553 
Q 1456 2553 1204 2497 
Q 953 2441 691 2322 
L 691 4666 
z
" id="DejaVuSans-35" transform="scale(0.015625)"/>
       </defs>
       <use xlink:href="#DejaVuSans-35"/>
       <use x="63.623047" xlink:href="#DejaVuSans-30"/>
      </g>
     </g>
    </g>
    <g id="xtick_3">
     <g id="line2d_3">
      <g>
       <use style="stroke:#000000;stroke-width:0.8;" x="196.080725" xlink:href="#m70ae1a83ea" y="384.48"/>
      </g>
     </g>
     <g id="text_3">
      <!-- 100 -->
      <g transform="translate(186.536975 399.078438)scale(0.1 -0.1)">
       <defs>
        <path d="M 794 531 
L 1825 531 
L 1825 4091 
L 703 3866 
L 703 4441 
L 1819 4666 
L 2450 4666 
L 2450 531 
L 3481 531 
L 3481 0 
L 794 0 
L 794 531 
z
" id="DejaVuSans-31" transform="scale(0.015625)"/>
       </defs>
       <use xlink:href="#DejaVuSans-31"/>
       <use x="63.623047" xlink:href="#DejaVuSans-30"/>
       <use x="127.246094" xlink:href="#DejaVuSans-30"/>
      </g>
     </g>
    </g>
    <g id="xtick_4">
     <g id="line2d_4">
      <g>
       <use style="stroke:#000000;stroke-width:0.8;" x="247.975634" xlink:href="#m70ae1a83ea" y="384.48"/>
      </g>
     </g>
     <g id="text_4">
      <!-- 150 -->
      <g transform="translate(238.431884 399.078438)scale(0.1 -0.1)">
       <use xlink:href="#DejaVuSans-31"/>
       <use x="63.623047" xlink:href="#DejaVuSans-35"/>
       <use x="127.246094" xlink:href="#DejaVuSans-30"/>
      </g>
     </g>
    </g>
    <g id="xtick_5">
     <g id="line2d_5">
      <g>
       <use style="stroke:#000000;stroke-width:0.8;" x="299.870542" xlink:href="#m70ae1a83ea" y="384.48"/>
      </g>
     </g>
     <g id="text_5">
      <!-- 200 -->
      <g transform="translate(290.326792 399.078438)scale(0.1 -0.1)">
       <defs>
        <path d="M 1228 531 
L 3431 531 
L 3431 0 
L 469 0 
L 469 531 
Q 828 903 1448 1529 
Q 2069 2156 2228 2338 
Q 2531 2678 2651 2914 
Q 2772 3150 2772 3378 
Q 2772 3750 2511 3984 
Q 2250 4219 1831 4219 
Q 1534 4219 1204 4116 
Q 875 4013 500 3803 
L 500 4441 
Q 881 4594 1212 4672 
Q 1544 4750 1819 4750 
Q 2544 4750 2975 4387 
Q 3406 4025 3406 3419 
Q 3406 3131 3298 2873 
Q 3191 2616 2906 2266 
Q 2828 2175 2409 1742 
Q 1991 1309 1228 531 
z
" id="DejaVuSans-32" transform="scale(0.015625)"/>
       </defs>
       <use xlink:href="#DejaVuSans-32"/>
       <use x="63.623047" xlink:href="#DejaVuSans-30"/>
       <use x="127.246094" xlink:href="#DejaVuSans-30"/>
      </g>
     </g>
    </g>
    <g id="xtick_6">
     <g id="line2d_6">
      <g>
       <use style="stroke:#000000;stroke-width:0.8;" x="351.76545" xlink:href="#m70ae1a83ea" y="384.48"/>
      </g>
     </g>
     <g id="text_6">
      <!-- 250 -->
      <g transform="translate(342.2217 399.078438)scale(0.1 -0.1)">
       <use xlink:href="#DejaVuSans-32"/>
       <use x="63.623047" xlink:href="#DejaVuSans-35"/>
       <use x="127.246094" xlink:href="#DejaVuSans-30"/>
      </g>
     </g>
    </g>
    <g id="xtick_7">
     <g id="line2d_7">
      <g>
       <use style="stroke:#000000;stroke-width:0.8;" x="403.660358" xlink:href="#m70ae1a83ea" y="384.48"/>
      </g>
     </g>
     <g id="text_7">
      <!-- 300 -->
      <g transform="translate(394.116608 399.078438)scale(0.1 -0.1)">
       <defs>
        <path d="M 2597 2516 
Q 3050 2419 3304 2112 
Q 3559 1806 3559 1356 
Q 3559 666 3084 287 
Q 2609 -91 1734 -91 
Q 1441 -91 1130 -33 
Q 819 25 488 141 
L 488 750 
Q 750 597 1062 519 
Q 1375 441 1716 441 
Q 2309 441 2620 675 
Q 2931 909 2931 1356 
Q 2931 1769 2642 2001 
Q 2353 2234 1838 2234 
L 1294 2234 
L 1294 2753 
L 1863 2753 
Q 2328 2753 2575 2939 
Q 2822 3125 2822 3475 
Q 2822 3834 2567 4026 
Q 2313 4219 1838 4219 
Q 1578 4219 1281 4162 
Q 984 4106 628 3988 
L 628 4550 
Q 988 4650 1302 4700 
Q 1616 4750 1894 4750 
Q 2613 4750 3031 4423 
Q 3450 4097 3450 3541 
Q 3450 3153 3228 2886 
Q 3006 2619 2597 2516 
z
" id="DejaVuSans-33" transform="scale(0.015625)"/>
       </defs>
       <use xlink:href="#DejaVuSans-33"/>
       <use x="63.623047" xlink:href="#DejaVuSans-30"/>
       <use x="127.246094" xlink:href="#DejaVuSans-30"/>
      </g>
     </g>
    </g>
    <g id="xtick_8">
     <g id="line2d_8">
      <g>
       <use style="stroke:#000000;stroke-width:0.8;" x="455.555266" xlink:href="#m70ae1a83ea" y="384.48"/>
      </g>
     </g>
     <g id="text_8">
      <!-- 350 -->
      <g transform="translate(446.011516 399.078438)scale(0.1 -0.1)">
       <use xlink:href="#DejaVuSans-33"/>
       <use x="63.623047" xlink:href="#DejaVuSans-35"/>
       <use x="127.246094" xlink:href="#DejaVuSans-30"/>
      </g>
     </g>
    </g>
    <g id="xtick_9">
     <g id="line2d_9">
      <g>
       <use style="stroke:#000000;stroke-width:0.8;" x="507.450174" xlink:href="#m70ae1a83ea" y="384.48"/>
      </g>
     </g>
     <g id="text_9">
      <!-- 400 -->
      <g transform="translate(497.906424 399.078438)scale(0.1 -0.1)">
       <defs>
        <path d="M 2419 4116 
L 825 1625 
L 2419 1625 
L 2419 4116 
z
M 2253 4666 
L 3047 4666 
L 3047 1625 
L 3713 1625 
L 3713 1100 
L 3047 1100 
L 3047 0 
L 2419 0 
L 2419 1100 
L 313 1100 
L 313 1709 
L 2253 4666 
z
" id="DejaVuSans-34" transform="scale(0.015625)"/>
       </defs>
       <use xlink:href="#DejaVuSans-34"/>
       <use x="63.623047" xlink:href="#DejaVuSans-30"/>
       <use x="127.246094" xlink:href="#DejaVuSans-30"/>
      </g>
     </g>
    </g>
   </g>
   <g id="matplotlib.axis_2">
    <g id="ytick_1">
     <g id="line2d_10">
      <defs>
       <path d="M 0 0 
L -3.5 0 
" id="m0634a3d2d2" style="stroke:#000000;stroke-width:0.8;"/>
      </defs>
      <g>
       <use style="stroke:#000000;stroke-width:0.8;" x="72" xlink:href="#m0634a3d2d2" y="361.317447"/>
      </g>
     </g>
     <g id="text_10">
      <!-- 10 -->
      <g transform="translate(52.275 365.116666)scale(0.1 -0.1)">
       <use xlink:href="#DejaVuSans-31"/>
       <use x="63.623047" xlink:href="#DejaVuSans-30"/>
      </g>
     </g>
    </g>
    <g id="ytick_2">
     <g id="line2d_11">
      <g>
       <use style="stroke:#000000;stroke-width:0.8;" x="72" xlink:href="#m0634a3d2d2" y="321.104681"/>
      </g>
     </g>
     <g id="text_11">
      <!-- 15 -->
      <g transform="translate(52.275 324.9039)scale(0.1 -0.1)">
       <use xlink:href="#DejaVuSans-31"/>
       <use x="63.623047" xlink:href="#DejaVuSans-35"/>
      </g>
     </g>
    </g>
    <g id="ytick_3">
     <g id="line2d_12">
      <g>
       <use style="stroke:#000000;stroke-width:0.8;" x="72" xlink:href="#m0634a3d2d2" y="280.891915"/>
      </g>
     </g>
     <g id="text_12">
      <!-- 20 -->
      <g transform="translate(52.275 284.691134)scale(0.1 -0.1)">
       <use xlink:href="#DejaVuSans-32"/>
       <use x="63.623047" xlink:href="#DejaVuSans-30"/>
      </g>
     </g>
    </g>
    <g id="ytick_4">
     <g id="line2d_13">
      <g>
       <use style="stroke:#000000;stroke-width:0.8;" x="72" xlink:href="#m0634a3d2d2" y="240.679149"/>
      </g>
     </g>
     <g id="text_13">
      <!-- 25 -->
      <g transform="translate(52.275 244.478368)scale(0.1 -0.1)">
       <use xlink:href="#DejaVuSans-32"/>
       <use x="63.623047" xlink:href="#DejaVuSans-35"/>
      </g>
     </g>
    </g>
    <g id="ytick_5">
     <g id="line2d_14">
      <g>
       <use style="stroke:#000000;stroke-width:0.8;" x="72" xlink:href="#m0634a3d2d2" y="200.466383"/>
      </g>
     </g>
     <g id="text_14">
      <!-- 30 -->
      <g transform="translate(52.275 204.265602)scale(0.1 -0.1)">
       <use xlink:href="#DejaVuSans-33"/>
       <use x="63.623047" xlink:href="#DejaVuSans-30"/>
      </g>
     </g>
    </g>
    <g id="ytick_6">
     <g id="line2d_15">
      <g>
       <use style="stroke:#000000;stroke-width:0.8;" x="72" xlink:href="#m0634a3d2d2" y="160.253617"/>
      </g>
     </g>
     <g id="text_15">
      <!-- 35 -->
      <g transform="translate(52.275 164.052836)scale(0.1 -0.1)">
       <use xlink:href="#DejaVuSans-33"/>
       <use x="63.623047" xlink:href="#DejaVuSans-35"/>
      </g>
     </g>
    </g>
    <g id="ytick_7">
     <g id="line2d_16">
      <g>
       <use style="stroke:#000000;stroke-width:0.8;" x="72" xlink:href="#m0634a3d2d2" y="120.040851"/>
      </g>
     </g>
     <g id="text_16">
      <!-- 40 -->
      <g transform="translate(52.275 123.84007)scale(0.1 -0.1)">
       <use xlink:href="#DejaVuSans-34"/>
       <use x="63.623047" xlink:href="#DejaVuSans-30"/>
      </g>
     </g>
    </g>
    <g id="ytick_8">
     <g id="line2d_17">
      <g>
       <use style="stroke:#000000;stroke-width:0.8;" x="72" xlink:href="#m0634a3d2d2" y="79.828085"/>
      </g>
     </g>
     <g id="text_17">
      <!-- 45 -->
      <g transform="translate(52.275 83.627304)scale(0.1 -0.1)">
       <use xlink:href="#DejaVuSans-34"/>
       <use x="63.623047" xlink:href="#DejaVuSans-35"/>
      </g>
     </g>
    </g>
   </g>
   <g id="line2d_18">
    <path clip-path="url(#pe9075b2f05)" d="M 92.290909 296.977021 
L 93.328807 321.104681 
L 94.366705 296.977021 
L 95.404604 313.062128 
L 96.442502 305.019574 
L 97.4804 321.104681 
L 98.518298 329.147234 
L 100.594094 329.147234 
L 101.631993 321.104681 
L 102.669891 321.104681 
L 103.707789 329.147234 
L 104.745687 321.104681 
L 105.783585 329.147234 
L 106.821483 248.721702 
L 107.859382 264.806809 
L 108.89728 296.977021 
L 109.935178 272.849362 
L 110.973076 224.594043 
L 114.086771 248.721702 
L 116.162567 232.636596 
L 117.200465 272.849362 
L 118.238363 361.317447 
L 119.276261 361.317447 
L 120.314159 353.274894 
L 121.352058 369.36 
L 122.389956 224.594043 
L 123.427854 216.551489 
L 124.465752 240.679149 
L 125.50365 288.934468 
L 126.541548 313.062128 
L 127.579447 305.019574 
L 128.617345 288.934468 
L 129.655243 296.977021 
L 130.693141 329.147234 
L 133.806836 329.147234 
L 134.844734 345.23234 
L 135.882632 337.189787 
L 136.92053 337.189787 
L 137.958428 296.977021 
L 138.996326 264.806809 
L 140.034225 288.934468 
L 141.072123 296.977021 
L 143.147919 216.551489 
L 144.185817 200.466383 
L 145.223715 200.466383 
L 146.261614 192.42383 
L 147.299512 160.253617 
L 148.33741 224.594043 
L 149.375308 232.636596 
L 150.413206 248.721702 
L 151.451104 240.679149 
L 152.489003 256.764255 
L 153.526901 280.891915 
L 154.564799 272.849362 
L 155.602697 337.189787 
L 157.678493 321.104681 
L 158.716392 329.147234 
L 159.75429 305.019574 
L 160.792188 353.274894 
L 161.830086 337.189787 
L 162.867984 345.23234 
L 163.905882 337.189787 
L 164.943781 288.934468 
L 165.981679 321.104681 
L 167.019577 337.189787 
L 168.057475 337.189787 
L 169.095373 329.147234 
L 171.171169 264.806809 
L 172.209068 272.849362 
L 173.246966 232.636596 
L 174.284864 264.806809 
L 175.322762 216.551489 
L 176.36066 256.764255 
L 177.398558 216.551489 
L 178.436457 224.594043 
L 179.474355 337.189787 
L 180.512253 329.147234 
L 181.550151 337.189787 
L 183.625947 321.104681 
L 184.663846 345.23234 
L 185.701744 337.189787 
L 186.739642 337.189787 
L 187.77754 329.147234 
L 189.853336 345.23234 
L 190.891235 337.189787 
L 191.929133 296.977021 
L 192.967031 313.062128 
L 194.004929 296.977021 
L 195.042827 296.977021 
L 196.080725 256.764255 
L 197.118624 232.636596 
L 198.156522 353.274894 
L 200.232318 337.189787 
L 201.270216 345.23234 
L 202.308114 296.977021 
L 203.346013 280.891915 
L 205.421809 264.806809 
L 206.459707 296.977021 
L 207.497605 288.934468 
L 208.535503 272.849362 
L 209.573402 232.636596 
L 210.6113 321.104681 
L 211.649198 313.062128 
L 212.687096 208.508936 
L 213.724994 248.721702 
L 214.762892 280.891915 
L 215.800791 288.934468 
L 216.838689 321.104681 
L 217.876587 248.721702 
L 218.914485 280.891915 
L 219.952383 353.274894 
L 220.990281 280.891915 
L 222.028179 288.934468 
L 223.066078 321.104681 
L 224.103976 192.42383 
L 225.141874 232.636596 
L 226.179772 184.381277 
L 227.21767 240.679149 
L 228.255568 313.062128 
L 229.293467 313.062128 
L 230.331365 296.977021 
L 231.369263 313.062128 
L 232.407161 337.189787 
L 233.445059 329.147234 
L 235.520856 329.147234 
L 236.558754 208.508936 
L 237.596652 232.636596 
L 238.63455 232.636596 
L 239.672448 192.42383 
L 240.710346 184.381277 
L 242.786143 248.721702 
L 243.824041 232.636596 
L 244.861939 248.721702 
L 245.899837 232.636596 
L 246.937735 192.42383 
L 247.975634 288.934468 
L 249.013532 296.977021 
L 250.05143 321.104681 
L 251.089328 321.104681 
L 252.127226 313.062128 
L 253.165124 321.104681 
L 254.203023 313.062128 
L 255.240921 329.147234 
L 256.278819 305.019574 
L 258.354615 321.104681 
L 260.430412 272.849362 
L 261.46831 280.891915 
L 262.506208 337.189787 
L 263.544106 208.508936 
L 264.582004 256.764255 
L 265.619902 280.891915 
L 266.657801 256.764255 
L 268.733597 240.679149 
L 269.771495 248.721702 
L 270.809393 296.977021 
L 271.847291 208.508936 
L 272.885189 288.934468 
L 273.923088 256.764255 
L 274.960986 256.764255 
L 275.998884 264.806809 
L 277.036782 240.679149 
L 278.07468 176.338723 
L 279.112578 216.551489 
L 280.150477 240.679149 
L 281.188375 240.679149 
L 283.264171 224.594043 
L 284.302069 300.998298 
L 285.339967 313.062128 
L 286.377866 317.083404 
L 287.415764 325.125957 
L 288.453662 264.806809 
L 289.49156 264.806809 
L 290.529458 248.721702 
L 291.567356 260.785532 
L 292.605255 208.508936 
L 293.643153 244.700426 
L 294.681051 208.508936 
L 295.718949 176.338723 
L 296.756847 280.891915 
L 297.794745 296.977021 
L 298.832644 292.955745 
L 299.870542 300.998298 
L 300.90844 204.48766 
L 301.946338 184.381277 
L 302.984236 216.551489 
L 304.022134 228.615319 
L 306.097931 337.189787 
L 307.135829 288.934468 
L 308.173727 288.934468 
L 309.211625 309.040851 
L 310.249523 309.040851 
L 311.287422 337.189787 
L 313.363218 337.189787 
L 314.401116 188.402553 
L 315.439014 200.466383 
L 316.476912 152.211064 
L 317.514811 236.657872 
L 318.552709 172.317447 
L 319.590607 300.998298 
L 320.628505 305.019574 
L 321.666403 317.083404 
L 322.704301 321.104681 
L 323.742199 300.998298 
L 324.780098 276.870638 
L 325.817996 288.934468 
L 326.855894 292.955745 
L 327.893792 313.062128 
L 328.93169 317.083404 
L 329.969588 317.083404 
L 331.007487 313.062128 
L 332.045385 208.508936 
L 333.083283 244.700426 
L 334.121181 232.636596 
L 335.159079 236.657872 
L 336.196977 196.445106 
L 337.234876 172.317447 
L 338.272774 200.466383 
L 339.310672 196.445106 
L 340.34857 264.806809 
L 341.386468 268.828085 
L 342.424366 268.828085 
L 343.462265 95.108936 
L 344.500163 151.406809 
L 345.538061 177.947234 
L 346.575959 124.866383 
L 347.613857 151.406809 
L 348.651755 281.69617 
L 349.689654 285.717447 
L 350.727552 279.283404 
L 351.76545 287.325957 
L 352.803348 276.870638 
L 353.841246 279.283404 
L 354.879144 239.874894 
L 355.917043 276.870638 
L 356.954941 285.717447 
L 357.992839 276.066383 
L 359.030737 274.457872 
L 360.068635 292.151489 
L 361.106533 296.172766 
L 362.144432 287.325957 
L 363.18233 299.389787 
L 364.220228 296.172766 
L 365.258126 300.998298 
L 366.296024 200.466383 
L 367.333922 220.572766 
L 368.371821 222.985532 
L 369.409719 193.228085 
L 370.447617 272.045106 
L 371.485515 255.155745 
L 372.523413 250.330213 
L 373.561311 249.525957 
L 375.637108 305.019574 
L 376.675006 268.02383 
L 377.712904 311.453617 
L 378.750802 188.402553 
L 379.7887 204.48766 
L 380.826598 268.828085 
L 381.864497 282.500426 
L 382.902395 262.394043 
L 383.940293 279.283404 
L 384.978191 276.066383 
L 386.016089 305.019574 
L 387.053987 300.194043 
L 388.091886 309.040851 
L 389.129784 295.368511 
L 391.20558 317.083404 
L 392.243478 287.325957 
L 393.281376 292.955745 
L 394.319275 185.185532 
L 395.357173 167.491915 
L 396.395071 154.62383 
L 397.432969 221.377021 
L 398.470867 237.462128 
L 399.508765 256.764255 
L 400.546664 222.985532 
L 401.584562 249.525957 
L 402.62246 166.68766 
L 403.660358 164.274894 
L 404.698256 185.989787 
L 405.736154 141.755745 
L 406.774053 213.334468 
L 407.811951 210.117447 
L 408.849849 226.202553 
L 409.887747 172.317447 
L 410.925645 107.977021 
L 411.963543 135.321702 
L 413.001442 183.577021 
L 414.03934 142.56 
L 415.077238 216.551489 
L 416.115136 229.419574 
L 417.153034 246.308936 
L 418.190932 288.130213 
L 419.228831 165.883404 
L 420.266729 202.074894 
L 421.304627 190.011064 
L 422.342525 144.168511 
L 423.380423 182.772766 
L 424.418321 66.96 
L 425.456219 217.355745 
L 426.494118 113.606809 
L 427.532016 85.457872 
L 428.569914 92.69617 
L 430.64571 200.466383 
L 431.683608 83.045106 
L 432.721507 169.904681 
L 433.759405 202.074894 
L 434.797303 178.751489 
L 435.835201 251.134468 
L 436.873099 160.253617 
L 437.910997 181.164255 
L 438.948896 222.985532 
L 439.986794 227.811064 
L 441.024692 234.245106 
L 442.06259 252.742979 
L 443.100488 200.466383 
L 444.138386 127.279149 
L 445.176285 128.083404 
L 446.214183 159.449362 
L 447.252081 181.968511 
L 448.289979 144.168511 
L 449.327877 138.538723 
L 450.365775 167.491915 
L 451.403674 162.666383 
L 452.441572 165.079149 
L 453.47947 201.270638 
L 454.517368 176.338723 
L 455.555266 170.708936 
L 456.593164 181.164255 
L 457.631063 177.142979 
L 458.668961 187.598298 
L 459.706859 215.747234 
L 460.744757 194.836596 
L 461.782655 237.462128 
L 462.820553 247.113191 
L 463.858452 261.589787 
L 464.89635 227.811064 
L 465.934248 279.283404 
L 466.972146 300.194043 
L 468.010044 216.551489 
L 469.047942 224.594043 
L 470.085841 168.29617 
L 471.123739 192.42383 
L 473.199535 224.594043 
L 474.237433 248.721702 
L 475.275331 152.211064 
L 476.313229 144.168511 
L 477.351128 192.42383 
L 478.389026 136.125957 
L 479.426924 152.211064 
L 481.50272 152.211064 
L 482.540618 168.29617 
L 483.578517 136.125957 
L 484.616415 184.381277 
L 485.654313 136.125957 
L 486.692211 240.679149 
L 487.730109 136.125957 
L 488.768007 232.636596 
L 489.805906 264.806809 
L 490.843804 184.381277 
L 491.881702 152.211064 
L 492.9196 224.594043 
L 493.957498 224.594043 
L 494.995396 87.870638 
L 496.033295 184.381277 
L 497.071193 216.551489 
L 498.109091 192.42383 
L 498.109091 192.42383 
" style="fill:none;stroke:#1f77b4;stroke-linecap:square;stroke-width:1.5;"/>
   </g>
   <g id="patch_3">
    <path d="M 72 384.48 
L 72 51.84 
" style="fill:none;stroke:#000000;stroke-linecap:square;stroke-linejoin:miter;stroke-width:0.8;"/>
   </g>
   <g id="patch_4">
    <path d="M 518.4 384.48 
L 518.4 51.84 
" style="fill:none;stroke:#000000;stroke-linecap:square;stroke-linejoin:miter;stroke-width:0.8;"/>
   </g>
   <g id="patch_5">
    <path d="M 72 384.48 
L 518.4 384.48 
" style="fill:none;stroke:#000000;stroke-linecap:square;stroke-linejoin:miter;stroke-width:0.8;"/>
   </g>
   <g id="patch_6">
    <path d="M 72 51.84 
L 518.4 51.84 
" style="fill:none;stroke:#000000;stroke-linecap:square;stroke-linejoin:miter;stroke-width:0.8;"/>
   </g>
  </g>
 </g>
 <defs>
  <clipPath id="pe9075b2f05">
   <rect height="332.64" width="446.4" x="72" y="51.84"/>
  </clipPath>
 </defs>
</svg>
