<?xml version="1.0" encoding="utf-8"?>
<svg xmlns="http://www.w3.org/2000/svg" xmlns:xlink="http://www.w3.org/1999/xlink" width="800" height="600" viewBox="0 0 3200 2400">
<defs>
  <clipPath id="clip950">
    <rect x="0" y="0" width="3200" height="2400"/>
  </clipPath>
</defs>
<path clip-path="url(#clip950)" d="M0 2400 L3200 2400 L3200 0 L0 0  Z" fill="#ffffff" fill-rule="evenodd" fill-opacity="1"/>
<defs>
  <clipPath id="clip951">
    <rect x="640" y="0" width="2241" height="2241"/>
  </clipPath>
</defs>
<path clip-path="url(#clip950)" d="M373.427 2185.48 L3152.76 2185.48 L3152.76 47.2441 L373.427 47.2441  Z" fill="#ffffff" fill-rule="evenodd" fill-opacity="1"/>
<defs>
  <clipPath id="clip952">
    <rect x="373" y="47" width="2780" height="2139"/>
  </clipPath>
</defs>
<polyline clip-path="url(#clip952)" style="stroke:#000000; stroke-linecap:round; stroke-linejoin:round; stroke-width:2; stroke-opacity:0.1; fill:none" points="475.814,2185.48 475.814,47.2441 "/>
<polyline clip-path="url(#clip952)" style="stroke:#000000; stroke-linecap:round; stroke-linejoin:round; stroke-width:2; stroke-opacity:0.1; fill:none" points="980.629,2185.48 980.629,47.2441 "/>
<polyline clip-path="url(#clip952)" style="stroke:#000000; stroke-linecap:round; stroke-linejoin:round; stroke-width:2; stroke-opacity:0.1; fill:none" points="1485.44,2185.48 1485.44,47.2441 "/>
<polyline clip-path="url(#clip952)" style="stroke:#000000; stroke-linecap:round; stroke-linejoin:round; stroke-width:2; stroke-opacity:0.1; fill:none" points="1990.26,2185.48 1990.26,47.2441 "/>
<polyline clip-path="url(#clip952)" style="stroke:#000000; stroke-linecap:round; stroke-linejoin:round; stroke-width:2; stroke-opacity:0.1; fill:none" points="2495.07,2185.48 2495.07,47.2441 "/>
<polyline clip-path="url(#clip952)" style="stroke:#000000; stroke-linecap:round; stroke-linejoin:round; stroke-width:2; stroke-opacity:0.1; fill:none" points="2999.89,2185.48 2999.89,47.2441 "/>
<polyline clip-path="url(#clip950)" style="stroke:#000000; stroke-linecap:round; stroke-linejoin:round; stroke-width:4; stroke-opacity:1; fill:none" points="373.427,2185.48 3152.76,2185.48 "/>
<polyline clip-path="url(#clip950)" style="stroke:#000000; stroke-linecap:round; stroke-linejoin:round; stroke-width:4; stroke-opacity:1; fill:none" points="475.814,2185.48 475.814,2166.58 "/>
<polyline clip-path="url(#clip950)" style="stroke:#000000; stroke-linecap:round; stroke-linejoin:round; stroke-width:4; stroke-opacity:1; fill:none" points="980.629,2185.48 980.629,2166.58 "/>
<polyline clip-path="url(#clip950)" style="stroke:#000000; stroke-linecap:round; stroke-linejoin:round; stroke-width:4; stroke-opacity:1; fill:none" points="1485.44,2185.48 1485.44,2166.58 "/>
<polyline clip-path="url(#clip950)" style="stroke:#000000; stroke-linecap:round; stroke-linejoin:round; stroke-width:4; stroke-opacity:1; fill:none" points="1990.26,2185.48 1990.26,2166.58 "/>
<polyline clip-path="url(#clip950)" style="stroke:#000000; stroke-linecap:round; stroke-linejoin:round; stroke-width:4; stroke-opacity:1; fill:none" points="2495.07,2185.48 2495.07,2166.58 "/>
<polyline clip-path="url(#clip950)" style="stroke:#000000; stroke-linecap:round; stroke-linejoin:round; stroke-width:4; stroke-opacity:1; fill:none" points="2999.89,2185.48 2999.89,2166.58 "/>
<path clip-path="url(#clip950)" d="M475.814 2225.73 Q471.3 2225.73 469.014 2230.18 Q466.757 2234.61 466.757 2243.52 Q466.757 2252.41 469.014 2256.86 Q471.3 2261.29 475.814 2261.29 Q480.357 2261.29 482.613 2256.86 Q484.899 2252.41 484.899 2243.52 Q484.899 2234.61 482.613 2230.18 Q480.357 2225.73 475.814 2225.73 M475.814 2221.1 Q483.076 2221.1 486.896 2226.86 Q490.744 2232.59 490.744 2243.52 Q490.744 2254.43 486.896 2260.19 Q483.076 2265.92 475.814 2265.92 Q468.551 2265.92 464.703 2260.19 Q460.883 2254.43 460.883 2243.52 Q460.883 2232.59 464.703 2226.86 Q468.551 2221.1 475.814 2221.1 Z" fill="#000000" fill-rule="nonzero" fill-opacity="1" /><path clip-path="url(#clip950)" d="M930.151 2221.88 L953.097 2221.88 L953.097 2226.8 L935.504 2226.8 L935.504 2237.39 Q936.778 2236.95 938.051 2236.75 Q939.324 2236.52 940.597 2236.52 Q947.831 2236.52 952.055 2240.49 Q956.28 2244.45 956.28 2251.22 Q956.28 2258.19 951.939 2262.07 Q947.599 2265.92 939.7 2265.92 Q936.98 2265.92 934.144 2265.46 Q931.338 2264.99 928.328 2264.07 L928.328 2258.19 Q930.933 2259.61 933.71 2260.31 Q936.488 2261 939.584 2261 Q944.59 2261 947.512 2258.37 Q950.435 2255.73 950.435 2251.22 Q950.435 2246.71 947.512 2244.07 Q944.59 2241.44 939.584 2241.44 Q937.24 2241.44 934.897 2241.96 Q932.582 2242.48 930.151 2243.58 L930.151 2221.88 Z" fill="#000000" fill-rule="nonzero" fill-opacity="1" /><path clip-path="url(#clip950)" d="M980.296 2225.73 Q975.782 2225.73 973.496 2230.18 Q971.239 2234.61 971.239 2243.52 Q971.239 2252.41 973.496 2256.86 Q975.782 2261.29 980.296 2261.29 Q984.839 2261.29 987.096 2256.86 Q989.381 2252.41 989.381 2243.52 Q989.381 2234.61 987.096 2230.18 Q984.839 2225.73 980.296 2225.73 M980.296 2221.1 Q987.559 2221.1 991.378 2226.86 Q995.226 2232.59 995.226 2243.52 Q995.226 2254.43 991.378 2260.19 Q987.559 2265.92 980.296 2265.92 Q973.033 2265.92 969.185 2260.19 Q965.365 2254.43 965.365 2243.52 Q965.365 2232.59 969.185 2226.86 Q973.033 2221.1 980.296 2221.1 Z" fill="#000000" fill-rule="nonzero" fill-opacity="1" /><path clip-path="url(#clip950)" d="M1018 2225.73 Q1013.48 2225.73 1011.2 2230.18 Q1008.94 2234.61 1008.94 2243.52 Q1008.94 2252.41 1011.2 2256.86 Q1013.48 2261.29 1018 2261.29 Q1022.54 2261.29 1024.8 2256.86 Q1027.08 2252.41 1027.08 2243.52 Q1027.08 2234.61 1024.8 2230.18 Q1022.54 2225.73 1018 2225.73 M1018 2221.1 Q1025.26 2221.1 1029.08 2226.86 Q1032.93 2232.59 1032.93 2243.52 Q1032.93 2254.43 1029.08 2260.19 Q1025.26 2265.92 1018 2265.92 Q1010.74 2265.92 1006.89 2260.19 Q1003.07 2254.43 1003.07 2243.52 Q1003.07 2232.59 1006.89 2226.86 Q1010.74 2221.1 1018 2221.1 Z" fill="#000000" fill-rule="nonzero" fill-opacity="1" /><path clip-path="url(#clip950)" d="M1416.1 2260.16 L1425.65 2260.16 L1425.65 2227.2 L1415.26 2229.29 L1415.26 2223.96 L1425.59 2221.88 L1431.44 2221.88 L1431.44 2260.16 L1440.98 2260.16 L1440.98 2265.08 L1416.1 2265.08 L1416.1 2260.16 Z" fill="#000000" fill-rule="nonzero" fill-opacity="1" /><path clip-path="url(#clip950)" d="M1465.29 2225.73 Q1460.78 2225.73 1458.49 2230.18 Q1456.23 2234.61 1456.23 2243.52 Q1456.23 2252.41 1458.49 2256.86 Q1460.78 2261.29 1465.29 2261.29 Q1469.83 2261.29 1472.09 2256.86 Q1474.38 2252.41 1474.38 2243.52 Q1474.38 2234.61 1472.09 2230.18 Q1469.83 2225.73 1465.29 2225.73 M1465.29 2221.1 Q1472.55 2221.1 1476.37 2226.86 Q1480.22 2232.59 1480.22 2243.52 Q1480.22 2254.43 1476.37 2260.19 Q1472.55 2265.92 1465.29 2265.92 Q1458.03 2265.92 1454.18 2260.19 Q1450.36 2254.43 1450.36 2243.52 Q1450.36 2232.59 1454.18 2226.86 Q1458.03 2221.1 1465.29 2221.1 Z" fill="#000000" fill-rule="nonzero" fill-opacity="1" /><path clip-path="url(#clip950)" d="M1502.99 2225.73 Q1498.48 2225.73 1496.19 2230.18 Q1493.94 2234.61 1493.94 2243.52 Q1493.94 2252.41 1496.19 2256.86 Q1498.48 2261.29 1502.99 2261.29 Q1507.54 2261.29 1509.79 2256.86 Q1512.08 2252.41 1512.08 2243.52 Q1512.08 2234.61 1509.79 2230.18 Q1507.54 2225.73 1502.99 2225.73 M1502.99 2221.1 Q1510.26 2221.1 1514.07 2226.86 Q1517.92 2232.59 1517.92 2243.52 Q1517.92 2254.43 1514.07 2260.19 Q1510.26 2265.92 1502.99 2265.92 Q1495.73 2265.92 1491.88 2260.19 Q1488.06 2254.43 1488.06 2243.52 Q1488.06 2232.59 1491.88 2226.86 Q1495.73 2221.1 1502.99 2221.1 Z" fill="#000000" fill-rule="nonzero" fill-opacity="1" /><path clip-path="url(#clip950)" d="M1540.69 2225.73 Q1536.18 2225.73 1533.9 2230.18 Q1531.64 2234.61 1531.64 2243.52 Q1531.64 2252.41 1533.9 2256.86 Q1536.18 2261.29 1540.69 2261.29 Q1545.24 2261.29 1547.49 2256.86 Q1549.78 2252.41 1549.78 2243.52 Q1549.78 2234.61 1547.49 2230.18 Q1545.24 2225.73 1540.69 2225.73 M1540.69 2221.1 Q1547.96 2221.1 1551.78 2226.86 Q1555.63 2232.59 1555.63 2243.52 Q1555.63 2254.43 1551.78 2260.19 Q1547.96 2265.92 1540.69 2265.92 Q1533.43 2265.92 1529.58 2260.19 Q1525.76 2254.43 1525.76 2243.52 Q1525.76 2232.59 1529.58 2226.86 Q1533.43 2221.1 1540.69 2221.1 Z" fill="#000000" fill-rule="nonzero" fill-opacity="1" /><path clip-path="url(#clip950)" d="M1920.92 2260.16 L1930.46 2260.16 L1930.46 2227.2 L1920.08 2229.29 L1920.08 2223.96 L1930.41 2221.88 L1936.25 2221.88 L1936.25 2260.16 L1945.8 2260.16 L1945.8 2265.08 L1920.92 2265.08 L1920.92 2260.16 Z" fill="#000000" fill-rule="nonzero" fill-opacity="1" /><path clip-path="url(#clip950)" d="M1957.66 2221.88 L1980.61 2221.88 L1980.61 2226.8 L1963.02 2226.8 L1963.02 2237.39 Q1964.29 2236.95 1965.56 2236.75 Q1966.84 2236.52 1968.11 2236.52 Q1975.34 2236.52 1979.57 2240.49 Q1983.79 2244.45 1983.79 2251.22 Q1983.79 2258.19 1979.45 2262.07 Q1975.11 2265.92 1967.21 2265.92 Q1964.49 2265.92 1961.66 2265.46 Q1958.85 2264.99 1955.84 2264.07 L1955.84 2258.19 Q1958.44 2259.61 1961.22 2260.31 Q1964 2261 1967.1 2261 Q1972.1 2261 1975.02 2258.37 Q1977.95 2255.73 1977.95 2251.22 Q1977.95 2246.71 1975.02 2244.07 Q1972.1 2241.44 1967.1 2241.44 Q1964.75 2241.44 1962.41 2241.96 Q1960.09 2242.48 1957.66 2243.58 L1957.66 2221.88 Z" fill="#000000" fill-rule="nonzero" fill-opacity="1" /><path clip-path="url(#clip950)" d="M2007.81 2225.73 Q2003.29 2225.73 2001.01 2230.18 Q1998.75 2234.61 1998.75 2243.52 Q1998.75 2252.41 2001.01 2256.86 Q2003.29 2261.29 2007.81 2261.29 Q2012.35 2261.29 2014.61 2256.86 Q2016.89 2252.41 2016.89 2243.52 Q2016.89 2234.61 2014.61 2230.18 Q2012.35 2225.73 2007.81 2225.73 M2007.81 2221.1 Q2015.07 2221.1 2018.89 2226.86 Q2022.74 2232.59 2022.74 2243.52 Q2022.74 2254.43 2018.89 2260.19 Q2015.07 2265.92 2007.81 2265.92 Q2000.54 2265.92 1996.7 2260.19 Q1992.88 2254.43 1992.88 2243.52 Q1992.88 2232.59 1996.7 2226.86 Q2000.54 2221.1 2007.81 2221.1 Z" fill="#000000" fill-rule="nonzero" fill-opacity="1" /><path clip-path="url(#clip950)" d="M2045.51 2225.73 Q2041 2225.73 2038.71 2230.18 Q2036.45 2234.61 2036.45 2243.52 Q2036.45 2252.41 2038.71 2256.86 Q2041 2261.29 2045.51 2261.29 Q2050.05 2261.29 2052.31 2256.86 Q2054.6 2252.41 2054.6 2243.52 Q2054.6 2234.61 2052.31 2230.18 Q2050.05 2225.73 2045.51 2225.73 M2045.51 2221.1 Q2052.77 2221.1 2056.59 2226.86 Q2060.44 2232.59 2060.44 2243.52 Q2060.44 2254.43 2056.59 2260.19 Q2052.77 2265.92 2045.51 2265.92 Q2038.25 2265.92 2034.4 2260.19 Q2030.58 2254.43 2030.58 2243.52 Q2030.58 2232.59 2034.4 2226.86 Q2038.25 2221.1 2045.51 2221.1 Z" fill="#000000" fill-rule="nonzero" fill-opacity="1" /><path clip-path="url(#clip950)" d="M2430.84 2260.16 L2451.24 2260.16 L2451.24 2265.08 L2423.81 2265.08 L2423.81 2260.16 Q2427.13 2256.72 2432.86 2250.93 Q2438.62 2245.11 2440.1 2243.44 Q2442.9 2240.28 2444 2238.11 Q2445.13 2235.91 2445.13 2233.8 Q2445.13 2230.36 2442.7 2228.19 Q2440.3 2226.02 2436.42 2226.02 Q2433.67 2226.02 2430.61 2226.97 Q2427.57 2227.93 2424.1 2229.87 L2424.1 2223.96 Q2427.63 2222.55 2430.69 2221.82 Q2433.76 2221.1 2436.31 2221.1 Q2443.02 2221.1 2447.01 2224.46 Q2451 2227.81 2451 2233.42 Q2451 2236.09 2449.99 2238.49 Q2449.01 2240.86 2446.38 2244.1 Q2445.65 2244.94 2441.77 2248.96 Q2437.9 2252.96 2430.84 2260.16 Z" fill="#000000" fill-rule="nonzero" fill-opacity="1" /><path clip-path="url(#clip950)" d="M2476 2225.73 Q2471.49 2225.73 2469.21 2230.18 Q2466.95 2234.61 2466.95 2243.52 Q2466.95 2252.41 2469.21 2256.86 Q2471.49 2261.29 2476 2261.29 Q2480.55 2261.29 2482.8 2256.86 Q2485.09 2252.41 2485.09 2243.52 Q2485.09 2234.61 2482.8 2230.18 Q2480.55 2225.73 2476 2225.73 M2476 2221.1 Q2483.27 2221.1 2487.09 2226.86 Q2490.94 2232.59 2490.94 2243.52 Q2490.94 2254.43 2487.09 2260.19 Q2483.27 2265.92 2476 2265.92 Q2468.74 2265.92 2464.89 2260.19 Q2461.07 2254.43 2461.07 2243.52 Q2461.07 2232.59 2464.89 2226.86 Q2468.74 2221.1 2476 2221.1 Z" fill="#000000" fill-rule="nonzero" fill-opacity="1" /><path clip-path="url(#clip950)" d="M2513.71 2225.73 Q2509.19 2225.73 2506.91 2230.18 Q2504.65 2234.61 2504.65 2243.52 Q2504.65 2252.41 2506.91 2256.86 Q2509.19 2261.29 2513.71 2261.29 Q2518.25 2261.29 2520.51 2256.86 Q2522.79 2252.41 2522.79 2243.52 Q2522.79 2234.61 2520.51 2230.18 Q2518.25 2225.73 2513.71 2225.73 M2513.71 2221.1 Q2520.97 2221.1 2524.79 2226.86 Q2528.64 2232.59 2528.64 2243.52 Q2528.64 2254.43 2524.79 2260.19 Q2520.97 2265.92 2513.71 2265.92 Q2506.44 2265.92 2502.6 2260.19 Q2498.78 2254.43 2498.78 2243.52 Q2498.78 2232.59 2502.6 2226.86 Q2506.44 2221.1 2513.71 2221.1 Z" fill="#000000" fill-rule="nonzero" fill-opacity="1" /><path clip-path="url(#clip950)" d="M2551.41 2225.73 Q2546.9 2225.73 2544.61 2230.18 Q2542.35 2234.61 2542.35 2243.52 Q2542.35 2252.41 2544.61 2256.86 Q2546.9 2261.29 2551.41 2261.29 Q2555.95 2261.29 2558.21 2256.86 Q2560.5 2252.41 2560.5 2243.52 Q2560.5 2234.61 2558.21 2230.18 Q2555.95 2225.73 2551.41 2225.73 M2551.41 2221.1 Q2558.67 2221.1 2562.49 2226.86 Q2566.34 2232.59 2566.34 2243.52 Q2566.34 2254.43 2562.49 2260.19 Q2558.67 2265.92 2551.41 2265.92 Q2544.15 2265.92 2540.3 2260.19 Q2536.48 2254.43 2536.48 2243.52 Q2536.48 2232.59 2540.3 2226.86 Q2544.15 2221.1 2551.41 2221.1 Z" fill="#000000" fill-rule="nonzero" fill-opacity="1" /><path clip-path="url(#clip950)" d="M2935.65 2260.16 L2956.05 2260.16 L2956.05 2265.08 L2928.62 2265.08 L2928.62 2260.16 Q2931.95 2256.72 2937.68 2250.93 Q2943.44 2245.11 2944.91 2243.44 Q2947.72 2240.28 2948.82 2238.11 Q2949.95 2235.91 2949.95 2233.8 Q2949.95 2230.36 2947.52 2228.19 Q2945.11 2226.02 2941.24 2226.02 Q2938.49 2226.02 2935.42 2226.97 Q2932.38 2227.93 2928.91 2229.87 L2928.91 2223.96 Q2932.44 2222.55 2935.51 2221.82 Q2938.57 2221.1 2941.12 2221.1 Q2947.83 2221.1 2951.83 2224.46 Q2955.82 2227.81 2955.82 2233.42 Q2955.82 2236.09 2954.81 2238.49 Q2953.82 2240.86 2951.19 2244.1 Q2950.47 2244.94 2946.59 2248.96 Q2942.71 2252.96 2935.65 2260.16 Z" fill="#000000" fill-rule="nonzero" fill-opacity="1" /><path clip-path="url(#clip950)" d="M2968.38 2221.88 L2991.32 2221.88 L2991.32 2226.8 L2973.73 2226.8 L2973.73 2237.39 Q2975 2236.95 2976.28 2236.75 Q2977.55 2236.52 2978.82 2236.52 Q2986.06 2236.52 2990.28 2240.49 Q2994.51 2244.45 2994.51 2251.22 Q2994.51 2258.19 2990.17 2262.07 Q2985.83 2265.92 2977.93 2265.92 Q2975.21 2265.92 2972.37 2265.46 Q2969.56 2264.99 2966.55 2264.07 L2966.55 2258.19 Q2969.16 2259.61 2971.94 2260.31 Q2974.71 2261 2977.81 2261 Q2982.82 2261 2985.74 2258.37 Q2988.66 2255.73 2988.66 2251.22 Q2988.66 2246.71 2985.74 2244.07 Q2982.82 2241.44 2977.81 2241.44 Q2975.47 2241.44 2973.12 2241.96 Q2970.81 2242.48 2968.38 2243.58 L2968.38 2221.88 Z" fill="#000000" fill-rule="nonzero" fill-opacity="1" /><path clip-path="url(#clip950)" d="M3018.52 2225.73 Q3014.01 2225.73 3011.72 2230.18 Q3009.47 2234.61 3009.47 2243.52 Q3009.47 2252.41 3011.72 2256.86 Q3014.01 2261.29 3018.52 2261.29 Q3023.06 2261.29 3025.32 2256.86 Q3027.61 2252.41 3027.61 2243.52 Q3027.61 2234.61 3025.32 2230.18 Q3023.06 2225.73 3018.52 2225.73 M3018.52 2221.1 Q3025.78 2221.1 3029.6 2226.86 Q3033.45 2232.59 3033.45 2243.52 Q3033.45 2254.43 3029.6 2260.19 Q3025.78 2265.92 3018.52 2265.92 Q3011.26 2265.92 3007.41 2260.19 Q3003.59 2254.43 3003.59 2243.52 Q3003.59 2232.59 3007.41 2226.86 Q3011.26 2221.1 3018.52 2221.1 Z" fill="#000000" fill-rule="nonzero" fill-opacity="1" /><path clip-path="url(#clip950)" d="M3056.22 2225.73 Q3051.71 2225.73 3049.42 2230.18 Q3047.17 2234.61 3047.17 2243.52 Q3047.17 2252.41 3049.42 2256.86 Q3051.71 2261.29 3056.22 2261.29 Q3060.77 2261.29 3063.02 2256.86 Q3065.31 2252.41 3065.31 2243.52 Q3065.31 2234.61 3063.02 2230.18 Q3060.77 2225.73 3056.22 2225.73 M3056.22 2221.1 Q3063.49 2221.1 3067.31 2226.86 Q3071.15 2232.59 3071.15 2243.52 Q3071.15 2254.43 3067.31 2260.19 Q3063.49 2265.92 3056.22 2265.92 Q3048.96 2265.92 3045.11 2260.19 Q3041.29 2254.43 3041.29 2243.52 Q3041.29 2232.59 3045.11 2226.86 Q3048.96 2221.1 3056.22 2221.1 Z" fill="#000000" fill-rule="nonzero" fill-opacity="1" /><path clip-path="url(#clip950)" d="M1681.94 2311.36 L1681.94 2318.77 Q1677.61 2316.7 1673.77 2315.68 Q1669.94 2314.67 1666.36 2314.67 Q1660.16 2314.67 1656.77 2317.07 Q1653.42 2319.48 1653.42 2323.92 Q1653.42 2327.64 1655.64 2329.56 Q1657.9 2331.44 1664.14 2332.61 L1668.73 2333.55 Q1677.23 2335.17 1681.26 2339.27 Q1685.32 2343.33 1685.32 2350.17 Q1685.32 2358.34 1679.83 2362.55 Q1674.38 2366.76 1663.81 2366.76 Q1659.82 2366.76 1655.3 2365.86 Q1650.83 2364.96 1646.01 2363.19 L1646.01 2355.37 Q1650.64 2357.96 1655.08 2359.28 Q1659.52 2360.59 1663.81 2360.59 Q1670.31 2360.59 1673.85 2358.04 Q1677.38 2355.48 1677.38 2350.74 Q1677.38 2346.6 1674.83 2344.27 Q1672.31 2341.94 1666.51 2340.77 L1661.89 2339.87 Q1653.39 2338.17 1649.59 2334.56 Q1645.79 2330.95 1645.79 2324.52 Q1645.79 2317.07 1651.02 2312.78 Q1656.28 2308.5 1665.5 2308.5 Q1669.45 2308.5 1673.55 2309.21 Q1677.65 2309.93 1681.94 2311.36 Z" fill="#000000" fill-rule="nonzero" fill-opacity="1" /><path clip-path="url(#clip950)" d="M1716.02 2344.49 Q1707.63 2344.49 1704.39 2346.41 Q1701.16 2348.33 1701.16 2352.96 Q1701.16 2356.64 1703.56 2358.83 Q1706.01 2360.97 1710.19 2360.97 Q1715.94 2360.97 1719.4 2356.91 Q1722.9 2352.81 1722.9 2346.04 L1722.9 2344.49 L1716.02 2344.49 M1729.82 2341.64 L1729.82 2365.67 L1722.9 2365.67 L1722.9 2359.28 Q1720.53 2363.11 1716.99 2364.96 Q1713.46 2366.76 1708.34 2366.76 Q1701.87 2366.76 1698.04 2363.15 Q1694.24 2359.5 1694.24 2353.41 Q1694.24 2346.3 1698.98 2342.69 Q1703.75 2339.08 1713.19 2339.08 L1722.9 2339.08 L1722.9 2338.4 Q1722.9 2333.62 1719.74 2331.03 Q1716.62 2328.39 1710.94 2328.39 Q1707.33 2328.39 1703.9 2329.26 Q1700.48 2330.13 1697.32 2331.86 L1697.32 2325.46 Q1701.12 2323.99 1704.69 2323.28 Q1708.27 2322.53 1711.65 2322.53 Q1720.79 2322.53 1725.31 2327.27 Q1729.82 2332.01 1729.82 2341.64 Z" fill="#000000" fill-rule="nonzero" fill-opacity="1" /><path clip-path="url(#clip950)" d="M1744.08 2307.14 L1751 2307.14 L1751 2365.67 L1744.08 2365.67 L1744.08 2307.14 Z" fill="#000000" fill-rule="nonzero" fill-opacity="1" /><path clip-path="url(#clip950)" d="M1784.63 2344.49 Q1776.24 2344.49 1773 2346.41 Q1769.77 2348.33 1769.77 2352.96 Q1769.77 2356.64 1772.18 2358.83 Q1774.62 2360.97 1778.8 2360.97 Q1784.55 2360.97 1788.01 2356.91 Q1791.51 2352.81 1791.51 2346.04 L1791.51 2344.49 L1784.63 2344.49 M1798.43 2341.64 L1798.43 2365.67 L1791.51 2365.67 L1791.51 2359.28 Q1789.14 2363.11 1785.6 2364.96 Q1782.07 2366.76 1776.95 2366.76 Q1770.48 2366.76 1766.65 2363.15 Q1762.85 2359.5 1762.85 2353.41 Q1762.85 2346.3 1767.59 2342.69 Q1772.36 2339.08 1781.81 2339.08 L1791.51 2339.08 L1791.51 2338.4 Q1791.51 2333.62 1788.35 2331.03 Q1785.23 2328.39 1779.55 2328.39 Q1775.94 2328.39 1772.51 2329.26 Q1769.09 2330.13 1765.93 2331.86 L1765.93 2325.46 Q1769.73 2323.99 1773.3 2323.28 Q1776.88 2322.53 1780.26 2322.53 Q1789.4 2322.53 1793.92 2327.27 Q1798.43 2332.01 1798.43 2341.64 Z" fill="#000000" fill-rule="nonzero" fill-opacity="1" /><path clip-path="url(#clip950)" d="M1837.1 2330.01 Q1835.93 2329.34 1834.54 2329.03 Q1833.19 2328.7 1831.53 2328.7 Q1825.66 2328.7 1822.51 2332.53 Q1819.38 2336.33 1819.38 2343.48 L1819.38 2365.67 L1812.42 2365.67 L1812.42 2323.54 L1819.38 2323.54 L1819.38 2330.09 Q1821.56 2326.25 1825.06 2324.41 Q1828.56 2322.53 1833.56 2322.53 Q1834.28 2322.53 1835.14 2322.64 Q1836.01 2322.71 1837.06 2322.9 L1837.1 2330.01 Z" fill="#000000" fill-rule="nonzero" fill-opacity="1" /><path clip-path="url(#clip950)" d="M1861.89 2369.58 Q1858.95 2377.11 1856.17 2379.4 Q1853.39 2381.7 1848.72 2381.7 L1843.19 2381.7 L1843.19 2375.9 L1847.26 2375.9 Q1850.12 2375.9 1851.69 2374.55 Q1853.27 2373.19 1855.19 2368.15 L1856.43 2364.99 L1839.39 2323.54 L1846.73 2323.54 L1859.9 2356.49 L1873.06 2323.54 L1880.4 2323.54 L1861.89 2369.58 Z" fill="#000000" fill-rule="nonzero" fill-opacity="1" /><polyline clip-path="url(#clip952)" style="stroke:#000000; stroke-linecap:round; stroke-linejoin:round; stroke-width:2; stroke-opacity:0.1; fill:none" points="373.427,2185.48 3152.76,2185.48 "/>
<polyline clip-path="url(#clip952)" style="stroke:#000000; stroke-linecap:round; stroke-linejoin:round; stroke-width:2; stroke-opacity:0.1; fill:none" points="373.427,1623.12 3152.76,1623.12 "/>
<polyline clip-path="url(#clip952)" style="stroke:#000000; stroke-linecap:round; stroke-linejoin:round; stroke-width:2; stroke-opacity:0.1; fill:none" points="373.427,1060.77 3152.76,1060.77 "/>
<polyline clip-path="url(#clip952)" style="stroke:#000000; stroke-linecap:round; stroke-linejoin:round; stroke-width:2; stroke-opacity:0.1; fill:none" points="373.427,498.412 3152.76,498.412 "/>
<polyline clip-path="url(#clip950)" style="stroke:#000000; stroke-linecap:round; stroke-linejoin:round; stroke-width:4; stroke-opacity:1; fill:none" points="373.427,2185.48 373.427,47.2441 "/>
<polyline clip-path="url(#clip950)" style="stroke:#000000; stroke-linecap:round; stroke-linejoin:round; stroke-width:4; stroke-opacity:1; fill:none" points="373.427,2185.48 392.325,2185.48 "/>
<polyline clip-path="url(#clip950)" style="stroke:#000000; stroke-linecap:round; stroke-linejoin:round; stroke-width:4; stroke-opacity:1; fill:none" points="373.427,1623.12 392.325,1623.12 "/>
<polyline clip-path="url(#clip950)" style="stroke:#000000; stroke-linecap:round; stroke-linejoin:round; stroke-width:4; stroke-opacity:1; fill:none" points="373.427,1060.77 392.325,1060.77 "/>
<polyline clip-path="url(#clip950)" style="stroke:#000000; stroke-linecap:round; stroke-linejoin:round; stroke-width:4; stroke-opacity:1; fill:none" points="373.427,498.412 392.325,498.412 "/>
<path clip-path="url(#clip950)" d="M140.851 2167.73 Q136.337 2167.73 134.051 2172.18 Q131.794 2176.61 131.794 2185.52 Q131.794 2194.41 134.051 2198.86 Q136.337 2203.29 140.851 2203.29 Q145.393 2203.29 147.65 2198.86 Q149.936 2194.41 149.936 2185.52 Q149.936 2176.61 147.65 2172.18 Q145.393 2167.73 140.851 2167.73 M140.851 2163.1 Q148.113 2163.1 151.933 2168.86 Q155.781 2174.59 155.781 2185.52 Q155.781 2196.43 151.933 2202.19 Q148.113 2207.92 140.851 2207.92 Q133.588 2207.92 129.74 2202.19 Q125.92 2196.43 125.92 2185.52 Q125.92 2174.59 129.74 2168.86 Q133.588 2163.1 140.851 2163.1 Z" fill="#000000" fill-rule="nonzero" fill-opacity="1" /><path clip-path="url(#clip950)" d="M166.053 2199.73 L172.158 2199.73 L172.158 2207.08 L166.053 2207.08 L166.053 2199.73 Z" fill="#000000" fill-rule="nonzero" fill-opacity="1" /><path clip-path="url(#clip950)" d="M197.39 2167.73 Q192.876 2167.73 190.59 2172.18 Q188.333 2176.61 188.333 2185.52 Q188.333 2194.41 190.59 2198.86 Q192.876 2203.29 197.39 2203.29 Q201.932 2203.29 204.189 2198.86 Q206.475 2194.41 206.475 2185.52 Q206.475 2176.61 204.189 2172.18 Q201.932 2167.73 197.39 2167.73 M197.39 2163.1 Q204.652 2163.1 208.472 2168.86 Q212.32 2174.59 212.32 2185.52 Q212.32 2196.43 208.472 2202.19 Q204.652 2207.92 197.39 2207.92 Q190.127 2207.92 186.279 2202.19 Q182.459 2196.43 182.459 2185.52 Q182.459 2174.59 186.279 2168.86 Q190.127 2163.1 197.39 2163.1 Z" fill="#000000" fill-rule="nonzero" fill-opacity="1" /><path clip-path="url(#clip950)" d="M235.092 2167.73 Q230.578 2167.73 228.292 2172.18 Q226.035 2176.61 226.035 2185.52 Q226.035 2194.41 228.292 2198.86 Q230.578 2203.29 235.092 2203.29 Q239.635 2203.29 241.892 2198.86 Q244.178 2194.41 244.178 2185.52 Q244.178 2176.61 241.892 2172.18 Q239.635 2167.73 235.092 2167.73 M235.092 2163.1 Q242.355 2163.1 246.174 2168.86 Q250.023 2174.59 250.023 2185.52 Q250.023 2196.43 246.174 2202.19 Q242.355 2207.92 235.092 2207.92 Q227.829 2207.92 223.981 2202.19 Q220.162 2196.43 220.162 2185.52 Q220.162 2174.59 223.981 2168.86 Q227.829 2163.1 235.092 2163.1 Z" fill="#000000" fill-rule="nonzero" fill-opacity="1" /><path clip-path="url(#clip950)" d="M272.794 2167.73 Q268.281 2167.73 265.995 2172.18 Q263.738 2176.61 263.738 2185.52 Q263.738 2194.41 265.995 2198.86 Q268.281 2203.29 272.794 2203.29 Q277.337 2203.29 279.594 2198.86 Q281.88 2194.41 281.88 2185.52 Q281.88 2176.61 279.594 2172.18 Q277.337 2167.73 272.794 2167.73 M272.794 2163.1 Q280.057 2163.1 283.876 2168.86 Q287.725 2174.59 287.725 2185.52 Q287.725 2196.43 283.876 2202.19 Q280.057 2207.92 272.794 2207.92 Q265.532 2207.92 261.683 2202.19 Q257.864 2196.43 257.864 2185.52 Q257.864 2174.59 261.683 2168.86 Q265.532 2163.1 272.794 2163.1 Z" fill="#000000" fill-rule="nonzero" fill-opacity="1" /><path clip-path="url(#clip950)" d="M310.497 2167.73 Q305.983 2167.73 303.697 2172.18 Q301.44 2176.61 301.44 2185.52 Q301.44 2194.41 303.697 2198.86 Q305.983 2203.29 310.497 2203.29 Q315.04 2203.29 317.296 2198.86 Q319.582 2194.41 319.582 2185.52 Q319.582 2176.61 317.296 2172.18 Q315.04 2167.73 310.497 2167.73 M310.497 2163.1 Q317.759 2163.1 321.579 2168.86 Q325.427 2174.59 325.427 2185.52 Q325.427 2196.43 321.579 2202.19 Q317.759 2207.92 310.497 2207.92 Q303.234 2207.92 299.386 2202.19 Q295.566 2196.43 295.566 2185.52 Q295.566 2174.59 299.386 2168.86 Q303.234 2163.1 310.497 2163.1 Z" fill="#000000" fill-rule="nonzero" fill-opacity="1" /><path clip-path="url(#clip950)" d="M142.095 1605.37 Q137.581 1605.37 135.295 1609.83 Q133.038 1614.26 133.038 1623.17 Q133.038 1632.05 135.295 1636.51 Q137.581 1640.93 142.095 1640.93 Q146.638 1640.93 148.895 1636.51 Q151.18 1632.05 151.18 1623.17 Q151.18 1614.26 148.895 1609.83 Q146.638 1605.37 142.095 1605.37 M142.095 1600.74 Q149.358 1600.74 153.177 1606.5 Q157.025 1612.23 157.025 1623.17 Q157.025 1634.08 153.177 1639.83 Q149.358 1645.56 142.095 1645.56 Q134.832 1645.56 130.984 1639.83 Q127.164 1634.08 127.164 1623.17 Q127.164 1612.23 130.984 1606.5 Q134.832 1600.74 142.095 1600.74 Z" fill="#000000" fill-rule="nonzero" fill-opacity="1" /><path clip-path="url(#clip950)" d="M167.297 1637.37 L173.403 1637.37 L173.403 1644.72 L167.297 1644.72 L167.297 1637.37 Z" fill="#000000" fill-rule="nonzero" fill-opacity="1" /><path clip-path="url(#clip950)" d="M198.634 1605.37 Q194.12 1605.37 191.834 1609.83 Q189.577 1614.26 189.577 1623.17 Q189.577 1632.05 191.834 1636.51 Q194.12 1640.93 198.634 1640.93 Q203.177 1640.93 205.434 1636.51 Q207.719 1632.05 207.719 1623.17 Q207.719 1614.26 205.434 1609.83 Q203.177 1605.37 198.634 1605.37 M198.634 1600.74 Q205.897 1600.74 209.716 1606.5 Q213.564 1612.23 213.564 1623.17 Q213.564 1634.08 209.716 1639.83 Q205.897 1645.56 198.634 1645.56 Q191.371 1645.56 187.523 1639.83 Q183.703 1634.08 183.703 1623.17 Q183.703 1612.23 187.523 1606.5 Q191.371 1600.74 198.634 1600.74 Z" fill="#000000" fill-rule="nonzero" fill-opacity="1" /><path clip-path="url(#clip950)" d="M236.336 1605.37 Q231.822 1605.37 229.537 1609.83 Q227.28 1614.26 227.28 1623.17 Q227.28 1632.05 229.537 1636.51 Q231.822 1640.93 236.336 1640.93 Q240.879 1640.93 243.136 1636.51 Q245.422 1632.05 245.422 1623.17 Q245.422 1614.26 243.136 1609.83 Q240.879 1605.37 236.336 1605.37 M236.336 1600.74 Q243.599 1600.74 247.418 1606.5 Q251.267 1612.23 251.267 1623.17 Q251.267 1634.08 247.418 1639.83 Q243.599 1645.56 236.336 1645.56 Q229.074 1645.56 225.225 1639.83 Q221.406 1634.08 221.406 1623.17 Q221.406 1612.23 225.225 1606.5 Q229.074 1600.74 236.336 1600.74 Z" fill="#000000" fill-rule="nonzero" fill-opacity="1" /><path clip-path="url(#clip950)" d="M274.039 1605.37 Q269.525 1605.37 267.239 1609.83 Q264.982 1614.26 264.982 1623.17 Q264.982 1632.05 267.239 1636.51 Q269.525 1640.93 274.039 1640.93 Q278.581 1640.93 280.838 1636.51 Q283.124 1632.05 283.124 1623.17 Q283.124 1614.26 280.838 1609.83 Q278.581 1605.37 274.039 1605.37 M274.039 1600.74 Q281.301 1600.74 285.121 1606.5 Q288.969 1612.23 288.969 1623.17 Q288.969 1634.08 285.121 1639.83 Q281.301 1645.56 274.039 1645.56 Q266.776 1645.56 262.928 1639.83 Q259.108 1634.08 259.108 1623.17 Q259.108 1612.23 262.928 1606.5 Q266.776 1600.74 274.039 1600.74 Z" fill="#000000" fill-rule="nonzero" fill-opacity="1" /><path clip-path="url(#clip950)" d="M299.299 1601.52 L322.244 1601.52 L322.244 1606.44 L304.652 1606.44 L304.652 1617.03 Q305.925 1616.6 307.198 1616.4 Q308.471 1616.16 309.744 1616.16 Q316.978 1616.16 321.203 1620.13 Q325.427 1624.09 325.427 1630.86 Q325.427 1637.84 321.087 1641.71 Q316.747 1645.56 308.847 1645.56 Q306.128 1645.56 303.292 1645.1 Q300.485 1644.64 297.476 1643.71 L297.476 1637.84 Q300.08 1639.26 302.858 1639.95 Q305.636 1640.64 308.732 1640.64 Q313.737 1640.64 316.66 1638.01 Q319.582 1635.38 319.582 1630.86 Q319.582 1626.35 316.66 1623.72 Q313.737 1621.08 308.732 1621.08 Q306.388 1621.08 304.044 1621.6 Q301.729 1622.13 299.299 1623.23 L299.299 1601.52 Z" fill="#000000" fill-rule="nonzero" fill-opacity="1" /><path clip-path="url(#clip950)" d="M140.851 1043.02 Q136.337 1043.02 134.051 1047.47 Q131.794 1051.9 131.794 1060.81 Q131.794 1069.69 134.051 1074.15 Q136.337 1078.58 140.851 1078.58 Q145.393 1078.58 147.65 1074.15 Q149.936 1069.69 149.936 1060.81 Q149.936 1051.9 147.65 1047.47 Q145.393 1043.02 140.851 1043.02 M140.851 1038.39 Q148.113 1038.39 151.933 1044.14 Q155.781 1049.87 155.781 1060.81 Q155.781 1071.72 151.933 1077.48 Q148.113 1083.21 140.851 1083.21 Q133.588 1083.21 129.74 1077.48 Q125.92 1071.72 125.92 1060.81 Q125.92 1049.87 129.74 1044.14 Q133.588 1038.39 140.851 1038.39 Z" fill="#000000" fill-rule="nonzero" fill-opacity="1" /><path clip-path="url(#clip950)" d="M166.053 1075.02 L172.158 1075.02 L172.158 1082.37 L166.053 1082.37 L166.053 1075.02 Z" fill="#000000" fill-rule="nonzero" fill-opacity="1" /><path clip-path="url(#clip950)" d="M197.39 1043.02 Q192.876 1043.02 190.59 1047.47 Q188.333 1051.9 188.333 1060.81 Q188.333 1069.69 190.59 1074.15 Q192.876 1078.58 197.39 1078.58 Q201.932 1078.58 204.189 1074.15 Q206.475 1069.69 206.475 1060.81 Q206.475 1051.9 204.189 1047.47 Q201.932 1043.02 197.39 1043.02 M197.39 1038.39 Q204.652 1038.39 208.472 1044.14 Q212.32 1049.87 212.32 1060.81 Q212.32 1071.72 208.472 1077.48 Q204.652 1083.21 197.39 1083.21 Q190.127 1083.21 186.279 1077.48 Q182.459 1071.72 182.459 1060.81 Q182.459 1049.87 186.279 1044.14 Q190.127 1038.39 197.39 1038.39 Z" fill="#000000" fill-rule="nonzero" fill-opacity="1" /><path clip-path="url(#clip950)" d="M235.092 1043.02 Q230.578 1043.02 228.292 1047.47 Q226.035 1051.9 226.035 1060.81 Q226.035 1069.69 228.292 1074.15 Q230.578 1078.58 235.092 1078.58 Q239.635 1078.58 241.892 1074.15 Q244.178 1069.69 244.178 1060.81 Q244.178 1051.9 241.892 1047.47 Q239.635 1043.02 235.092 1043.02 M235.092 1038.39 Q242.355 1038.39 246.174 1044.14 Q250.023 1049.87 250.023 1060.81 Q250.023 1071.72 246.174 1077.48 Q242.355 1083.21 235.092 1083.21 Q227.829 1083.21 223.981 1077.48 Q220.162 1071.72 220.162 1060.81 Q220.162 1049.87 223.981 1044.14 Q227.829 1038.39 235.092 1038.39 Z" fill="#000000" fill-rule="nonzero" fill-opacity="1" /><path clip-path="url(#clip950)" d="M261.307 1077.45 L270.856 1077.45 L270.856 1044.49 L260.468 1046.58 L260.468 1041.25 L270.798 1039.17 L276.643 1039.17 L276.643 1077.45 L286.191 1077.45 L286.191 1082.37 L261.307 1082.37 L261.307 1077.45 Z" fill="#000000" fill-rule="nonzero" fill-opacity="1" /><path clip-path="url(#clip950)" d="M310.497 1043.02 Q305.983 1043.02 303.697 1047.47 Q301.44 1051.9 301.44 1060.81 Q301.44 1069.69 303.697 1074.15 Q305.983 1078.58 310.497 1078.58 Q315.04 1078.58 317.296 1074.15 Q319.582 1069.69 319.582 1060.81 Q319.582 1051.9 317.296 1047.47 Q315.04 1043.02 310.497 1043.02 M310.497 1038.39 Q317.759 1038.39 321.579 1044.14 Q325.427 1049.87 325.427 1060.81 Q325.427 1071.72 321.579 1077.48 Q317.759 1083.21 310.497 1083.21 Q303.234 1083.21 299.386 1077.48 Q295.566 1071.72 295.566 1060.81 Q295.566 1049.87 299.386 1044.14 Q303.234 1038.39 310.497 1038.39 Z" fill="#000000" fill-rule="nonzero" fill-opacity="1" /><path clip-path="url(#clip950)" d="M142.095 480.66 Q137.581 480.66 135.295 485.116 Q133.038 489.543 133.038 498.455 Q133.038 507.338 135.295 511.794 Q137.581 516.221 142.095 516.221 Q146.638 516.221 148.895 511.794 Q151.18 507.338 151.18 498.455 Q151.18 489.543 148.895 485.116 Q146.638 480.66 142.095 480.66 M142.095 476.031 Q149.358 476.031 153.177 481.789 Q157.025 487.518 157.025 498.455 Q157.025 509.364 153.177 515.122 Q149.358 520.851 142.095 520.851 Q134.832 520.851 130.984 515.122 Q127.164 509.364 127.164 498.455 Q127.164 487.518 130.984 481.789 Q134.832 476.031 142.095 476.031 Z" fill="#000000" fill-rule="nonzero" fill-opacity="1" /><path clip-path="url(#clip950)" d="M167.297 512.662 L173.403 512.662 L173.403 520.012 L167.297 520.012 L167.297 512.662 Z" fill="#000000" fill-rule="nonzero" fill-opacity="1" /><path clip-path="url(#clip950)" d="M198.634 480.66 Q194.12 480.66 191.834 485.116 Q189.577 489.543 189.577 498.455 Q189.577 507.338 191.834 511.794 Q194.12 516.221 198.634 516.221 Q203.177 516.221 205.434 511.794 Q207.719 507.338 207.719 498.455 Q207.719 489.543 205.434 485.116 Q203.177 480.66 198.634 480.66 M198.634 476.031 Q205.897 476.031 209.716 481.789 Q213.564 487.518 213.564 498.455 Q213.564 509.364 209.716 515.122 Q205.897 520.851 198.634 520.851 Q191.371 520.851 187.523 515.122 Q183.703 509.364 183.703 498.455 Q183.703 487.518 187.523 481.789 Q191.371 476.031 198.634 476.031 Z" fill="#000000" fill-rule="nonzero" fill-opacity="1" /><path clip-path="url(#clip950)" d="M236.336 480.66 Q231.822 480.66 229.537 485.116 Q227.28 489.543 227.28 498.455 Q227.28 507.338 229.537 511.794 Q231.822 516.221 236.336 516.221 Q240.879 516.221 243.136 511.794 Q245.422 507.338 245.422 498.455 Q245.422 489.543 243.136 485.116 Q240.879 480.66 236.336 480.66 M236.336 476.031 Q243.599 476.031 247.418 481.789 Q251.267 487.518 251.267 498.455 Q251.267 509.364 247.418 515.122 Q243.599 520.851 236.336 520.851 Q229.074 520.851 225.225 515.122 Q221.406 509.364 221.406 498.455 Q221.406 487.518 225.225 481.789 Q229.074 476.031 236.336 476.031 Z" fill="#000000" fill-rule="nonzero" fill-opacity="1" /><path clip-path="url(#clip950)" d="M262.551 515.093 L272.1 515.093 L272.1 482.136 L261.712 484.219 L261.712 478.895 L272.042 476.812 L277.887 476.812 L277.887 515.093 L287.435 515.093 L287.435 520.012 L262.551 520.012 L262.551 515.093 Z" fill="#000000" fill-rule="nonzero" fill-opacity="1" /><path clip-path="url(#clip950)" d="M299.299 476.812 L322.244 476.812 L322.244 481.731 L304.652 481.731 L304.652 492.321 Q305.925 491.887 307.198 491.684 Q308.471 491.453 309.744 491.453 Q316.978 491.453 321.203 495.417 Q325.427 499.381 325.427 506.152 Q325.427 513.125 321.087 517.003 Q316.747 520.851 308.847 520.851 Q306.128 520.851 303.292 520.388 Q300.485 519.925 297.476 518.999 L297.476 513.125 Q300.08 514.543 302.858 515.238 Q305.636 515.932 308.732 515.932 Q313.737 515.932 316.66 513.299 Q319.582 510.666 319.582 506.152 Q319.582 501.638 316.66 499.005 Q313.737 496.372 308.732 496.372 Q306.388 496.372 304.044 496.893 Q301.729 497.414 299.299 498.513 L299.299 476.812 Z" fill="#000000" fill-rule="nonzero" fill-opacity="1" /><path clip-path="url(#clip950)" d="M11.1563 1250.27 L54.828 1250.27 L54.828 1241.1 Q54.828 1229.47 49.5618 1224.09 Q44.2956 1218.68 32.9357 1218.68 Q21.6511 1218.68 16.4225 1224.09 Q11.1563 1229.47 11.1563 1241.1 L11.1563 1250.27 M4.91216 1257.87 L4.91216 1242.26 Q4.91216 1225.94 11.7206 1218.3 Q18.4914 1210.66 32.9357 1210.66 Q47.4553 1210.66 54.2637 1218.34 Q61.0722 1226.01 61.0722 1242.26 L61.0722 1257.87 L4.91216 1257.87 Z" fill="#000000" fill-rule="nonzero" fill-opacity="1" /><path clip-path="url(#clip950)" d="M38.2771 1162.82 L41.6625 1162.82 L41.6625 1194.64 Q48.8095 1194.19 52.571 1190.35 Q56.295 1186.48 56.295 1179.59 Q56.295 1175.61 55.317 1171.88 Q54.339 1168.12 52.383 1164.43 L58.9281 1164.43 Q60.5079 1168.16 61.3355 1172.07 Q62.163 1175.98 62.163 1180.01 Q62.163 1190.09 56.295 1195.99 Q50.427 1201.86 40.4212 1201.86 Q30.077 1201.86 24.0209 1196.29 Q17.9271 1190.69 17.9271 1181.21 Q17.9271 1172.71 23.419 1167.78 Q28.8733 1162.82 38.2771 1162.82 M36.2459 1169.74 Q30.566 1169.81 27.1806 1172.94 Q23.7952 1176.02 23.7952 1181.14 Q23.7952 1186.93 27.0677 1190.43 Q30.3403 1193.89 36.2835 1194.41 L36.2459 1169.74 Z" fill="#000000" fill-rule="nonzero" fill-opacity="1" /><path clip-path="url(#clip950)" d="M35.6441 1116.44 L61.0722 1116.44 L61.0722 1123.36 L35.8697 1123.36 Q29.8889 1123.36 26.9172 1125.69 Q23.9456 1128.02 23.9456 1132.69 Q23.9456 1138.29 27.5191 1141.53 Q31.0926 1144.76 37.2615 1144.76 L61.0722 1144.76 L61.0722 1151.72 L18.9428 1151.72 L18.9428 1144.76 L25.4879 1144.76 Q21.6887 1142.28 19.8079 1138.93 Q17.9271 1135.55 17.9271 1131.14 Q17.9271 1123.89 22.441 1120.16 Q26.9172 1116.44 35.6441 1116.44 Z" fill="#000000" fill-rule="nonzero" fill-opacity="1" /><path clip-path="url(#clip950)" d="M20.1841 1075.77 L26.7292 1075.77 Q25.2245 1078.71 24.4722 1081.87 Q23.7199 1085.03 23.7199 1088.41 Q23.7199 1093.57 25.2998 1096.16 Q26.8796 1098.72 30.0393 1098.72 Q32.4467 1098.72 33.8385 1096.88 Q35.1927 1095.03 36.434 1089.47 L36.9606 1087.1 Q38.5404 1079.72 41.4368 1076.64 Q44.2956 1073.52 49.449 1073.52 Q55.317 1073.52 58.74 1078.18 Q62.163 1082.81 62.163 1090.93 Q62.163 1094.32 61.4859 1098.01 Q60.8465 1101.65 59.5299 1105.72 L52.383 1105.72 Q54.3766 1101.88 55.3922 1098.16 Q56.3702 1094.43 56.3702 1090.78 Q56.3702 1085.89 54.7151 1083.26 Q53.0224 1080.63 49.9756 1080.63 Q47.1544 1080.63 45.6498 1082.55 Q44.1452 1084.43 42.7534 1090.86 L42.1892 1093.27 Q40.835 1099.7 38.0514 1102.56 Q35.2303 1105.42 30.3403 1105.42 Q24.397 1105.42 21.1621 1101.2 Q17.9271 1096.99 17.9271 1089.24 Q17.9271 1085.4 18.4914 1082.02 Q19.0556 1078.63 20.1841 1075.77 Z" fill="#000000" fill-rule="nonzero" fill-opacity="1" /><path clip-path="url(#clip950)" d="M18.9428 1062.5 L18.9428 1055.58 L61.0722 1055.58 L61.0722 1062.5 L18.9428 1062.5 M2.54238 1062.5 L2.54238 1055.58 L11.3068 1055.58 L11.3068 1062.5 L2.54238 1062.5 Z" fill="#000000" fill-rule="nonzero" fill-opacity="1" /><path clip-path="url(#clip950)" d="M6.98101 1034.25 L18.9428 1034.25 L18.9428 1019.99 L24.3218 1019.99 L24.3218 1034.25 L47.192 1034.25 Q52.3454 1034.25 53.8124 1032.86 Q55.2794 1031.43 55.2794 1027.1 L55.2794 1019.99 L61.0722 1019.99 L61.0722 1027.1 Q61.0722 1035.11 58.1005 1038.16 Q55.0913 1041.21 47.192 1041.21 L24.3218 1041.21 L24.3218 1046.28 L18.9428 1046.28 L18.9428 1041.21 L6.98101 1041.21 L6.98101 1034.25 Z" fill="#000000" fill-rule="nonzero" fill-opacity="1" /><path clip-path="url(#clip950)" d="M64.9842 993.359 Q72.5073 996.293 74.8018 999.077 Q77.0964 1001.86 77.0964 1006.52 L77.0964 1012.05 L71.3036 1012.05 L71.3036 1007.99 Q71.3036 1005.13 69.9494 1003.55 Q68.5953 1001.97 63.5548 1000.05 L60.3951 998.813 L18.9428 1015.85 L18.9428 1008.52 L51.894 995.353 L18.9428 982.187 L18.9428 974.852 L64.9842 993.359 Z" fill="#000000" fill-rule="nonzero" fill-opacity="1" /><path clip-path="url(#clip952)" d="M526.295 132.774 L526.295 2185.48 L576.777 2185.48 L576.777 132.774 L526.295 132.774 L526.295 132.774  Z" fill="#009af9" fill-rule="evenodd" fill-opacity="1"/>
<polyline clip-path="url(#clip952)" style="stroke:#000000; stroke-linecap:round; stroke-linejoin:round; stroke-width:4; stroke-opacity:1; fill:none" points="526.295,132.774 526.295,2185.48 576.777,2185.48 576.777,132.774 526.295,132.774 "/>
<path clip-path="url(#clip952)" d="M576.777 47.2441 L576.777 2185.48 L627.258 2185.48 L627.258 47.2441 L576.777 47.2441 L576.777 47.2441  Z" fill="#009af9" fill-rule="evenodd" fill-opacity="1"/>
<polyline clip-path="url(#clip952)" style="stroke:#000000; stroke-linecap:round; stroke-linejoin:round; stroke-width:4; stroke-opacity:1; fill:none" points="576.777,47.2441 576.777,2185.48 627.258,2185.48 627.258,47.2441 576.777,47.2441 "/>
<path clip-path="url(#clip952)" d="M627.258 474.891 L627.258 2185.48 L677.74 2185.48 L677.74 474.891 L627.258 474.891 L627.258 474.891  Z" fill="#009af9" fill-rule="evenodd" fill-opacity="1"/>
<polyline clip-path="url(#clip952)" style="stroke:#000000; stroke-linecap:round; stroke-linejoin:round; stroke-width:4; stroke-opacity:1; fill:none" points="627.258,474.891 627.258,2185.48 677.74,2185.48 677.74,474.891 627.258,474.891 "/>
<path clip-path="url(#clip952)" d="M677.74 645.95 L677.74 2185.48 L728.221 2185.48 L728.221 645.95 L677.74 645.95 L677.74 645.95  Z" fill="#009af9" fill-rule="evenodd" fill-opacity="1"/>
<polyline clip-path="url(#clip952)" style="stroke:#000000; stroke-linecap:round; stroke-linejoin:round; stroke-width:4; stroke-opacity:1; fill:none" points="677.74,645.95 677.74,2185.48 728.221,2185.48 728.221,645.95 677.74,645.95 "/>
<path clip-path="url(#clip952)" d="M728.221 902.538 L728.221 2185.48 L778.703 2185.48 L778.703 902.538 L728.221 902.538 L728.221 902.538  Z" fill="#009af9" fill-rule="evenodd" fill-opacity="1"/>
<polyline clip-path="url(#clip952)" style="stroke:#000000; stroke-linecap:round; stroke-linejoin:round; stroke-width:4; stroke-opacity:1; fill:none" points="728.221,902.538 728.221,2185.48 778.703,2185.48 778.703,902.538 728.221,902.538 "/>
<path clip-path="url(#clip952)" d="M778.703 1073.6 L778.703 2185.48 L829.184 2185.48 L829.184 1073.6 L778.703 1073.6 L778.703 1073.6  Z" fill="#009af9" fill-rule="evenodd" fill-opacity="1"/>
<polyline clip-path="url(#clip952)" style="stroke:#000000; stroke-linecap:round; stroke-linejoin:round; stroke-width:4; stroke-opacity:1; fill:none" points="778.703,1073.6 778.703,2185.48 829.184,2185.48 829.184,1073.6 778.703,1073.6 "/>
<path clip-path="url(#clip952)" d="M829.184 1415.71 L829.184 2185.48 L879.666 2185.48 L879.666 1415.71 L829.184 1415.71 L829.184 1415.71  Z" fill="#009af9" fill-rule="evenodd" fill-opacity="1"/>
<polyline clip-path="url(#clip952)" style="stroke:#000000; stroke-linecap:round; stroke-linejoin:round; stroke-width:4; stroke-opacity:1; fill:none" points="829.184,1415.71 829.184,2185.48 879.666,2185.48 879.666,1415.71 829.184,1415.71 "/>
<path clip-path="url(#clip952)" d="M879.666 1159.13 L879.666 2185.48 L930.147 2185.48 L930.147 1159.13 L879.666 1159.13 L879.666 1159.13  Z" fill="#009af9" fill-rule="evenodd" fill-opacity="1"/>
<polyline clip-path="url(#clip952)" style="stroke:#000000; stroke-linecap:round; stroke-linejoin:round; stroke-width:4; stroke-opacity:1; fill:none" points="879.666,1159.13 879.666,2185.48 930.147,2185.48 930.147,1159.13 879.666,1159.13 "/>
<path clip-path="url(#clip952)" d="M930.147 1244.66 L930.147 2185.48 L980.629 2185.48 L980.629 1244.66 L930.147 1244.66 L930.147 1244.66  Z" fill="#009af9" fill-rule="evenodd" fill-opacity="1"/>
<polyline clip-path="url(#clip952)" style="stroke:#000000; stroke-linecap:round; stroke-linejoin:round; stroke-width:4; stroke-opacity:1; fill:none" points="930.147,1244.66 930.147,2185.48 980.629,2185.48 980.629,1244.66 930.147,1244.66 "/>
<path clip-path="url(#clip952)" d="M980.629 1244.66 L980.629 2185.48 L1031.11 2185.48 L1031.11 1244.66 L980.629 1244.66 L980.629 1244.66  Z" fill="#009af9" fill-rule="evenodd" fill-opacity="1"/>
<polyline clip-path="url(#clip952)" style="stroke:#000000; stroke-linecap:round; stroke-linejoin:round; stroke-width:4; stroke-opacity:1; fill:none" points="980.629,1244.66 980.629,2185.48 1031.11,2185.48 1031.11,1244.66 980.629,1244.66 "/>
<path clip-path="url(#clip952)" d="M1031.11 1501.24 L1031.11 2185.48 L1081.59 2185.48 L1081.59 1501.24 L1031.11 1501.24 L1031.11 1501.24  Z" fill="#009af9" fill-rule="evenodd" fill-opacity="1"/>
<polyline clip-path="url(#clip952)" style="stroke:#000000; stroke-linecap:round; stroke-linejoin:round; stroke-width:4; stroke-opacity:1; fill:none" points="1031.11,1501.24 1031.11,2185.48 1081.59,2185.48 1081.59,1501.24 1031.11,1501.24 "/>
<path clip-path="url(#clip952)" d="M1081.59 1415.71 L1081.59 2185.48 L1132.07 2185.48 L1132.07 1415.71 L1081.59 1415.71 L1081.59 1415.71  Z" fill="#009af9" fill-rule="evenodd" fill-opacity="1"/>
<polyline clip-path="url(#clip952)" style="stroke:#000000; stroke-linecap:round; stroke-linejoin:round; stroke-width:4; stroke-opacity:1; fill:none" points="1081.59,1415.71 1081.59,2185.48 1132.07,2185.48 1132.07,1415.71 1081.59,1415.71 "/>
<path clip-path="url(#clip952)" d="M1132.07 1757.83 L1132.07 2185.48 L1182.55 2185.48 L1182.55 1757.83 L1132.07 1757.83 L1132.07 1757.83  Z" fill="#009af9" fill-rule="evenodd" fill-opacity="1"/>
<polyline clip-path="url(#clip952)" style="stroke:#000000; stroke-linecap:round; stroke-linejoin:round; stroke-width:4; stroke-opacity:1; fill:none" points="1132.07,1757.83 1132.07,2185.48 1182.55,2185.48 1182.55,1757.83 1132.07,1757.83 "/>
<path clip-path="url(#clip952)" d="M1182.55 1073.6 L1182.55 2185.48 L1233.04 2185.48 L1233.04 1073.6 L1182.55 1073.6 L1182.55 1073.6  Z" fill="#009af9" fill-rule="evenodd" fill-opacity="1"/>
<polyline clip-path="url(#clip952)" style="stroke:#000000; stroke-linecap:round; stroke-linejoin:round; stroke-width:4; stroke-opacity:1; fill:none" points="1182.55,1073.6 1182.55,2185.48 1233.04,2185.48 1233.04,1073.6 1182.55,1073.6 "/>
<path clip-path="url(#clip952)" d="M1233.04 902.538 L1233.04 2185.48 L1283.52 2185.48 L1283.52 902.538 L1233.04 902.538 L1233.04 902.538  Z" fill="#009af9" fill-rule="evenodd" fill-opacity="1"/>
<polyline clip-path="url(#clip952)" style="stroke:#000000; stroke-linecap:round; stroke-linejoin:round; stroke-width:4; stroke-opacity:1; fill:none" points="1233.04,902.538 1233.04,2185.48 1283.52,2185.48 1283.52,902.538 1233.04,902.538 "/>
<path clip-path="url(#clip952)" d="M1283.52 1843.36 L1283.52 2185.48 L1334 2185.48 L1334 1843.36 L1283.52 1843.36 L1283.52 1843.36  Z" fill="#009af9" fill-rule="evenodd" fill-opacity="1"/>
<polyline clip-path="url(#clip952)" style="stroke:#000000; stroke-linecap:round; stroke-linejoin:round; stroke-width:4; stroke-opacity:1; fill:none" points="1283.52,1843.36 1283.52,2185.48 1334,2185.48 1334,1843.36 1283.52,1843.36 "/>
<path clip-path="url(#clip952)" d="M1334 1501.24 L1334 2185.48 L1384.48 2185.48 L1384.48 1501.24 L1334 1501.24 L1334 1501.24  Z" fill="#009af9" fill-rule="evenodd" fill-opacity="1"/>
<polyline clip-path="url(#clip952)" style="stroke:#000000; stroke-linecap:round; stroke-linejoin:round; stroke-width:4; stroke-opacity:1; fill:none" points="1334,1501.24 1334,2185.48 1384.48,2185.48 1384.48,1501.24 1334,1501.24 "/>
<path clip-path="url(#clip952)" d="M1384.48 1586.77 L1384.48 2185.48 L1434.96 2185.48 L1434.96 1586.77 L1384.48 1586.77 L1384.48 1586.77  Z" fill="#009af9" fill-rule="evenodd" fill-opacity="1"/>
<polyline clip-path="url(#clip952)" style="stroke:#000000; stroke-linecap:round; stroke-linejoin:round; stroke-width:4; stroke-opacity:1; fill:none" points="1384.48,1586.77 1384.48,2185.48 1434.96,2185.48 1434.96,1586.77 1384.48,1586.77 "/>
<path clip-path="url(#clip952)" d="M1434.96 1928.89 L1434.96 2185.48 L1485.44 2185.48 L1485.44 1928.89 L1434.96 1928.89 L1434.96 1928.89  Z" fill="#009af9" fill-rule="evenodd" fill-opacity="1"/>
<polyline clip-path="url(#clip952)" style="stroke:#000000; stroke-linecap:round; stroke-linejoin:round; stroke-width:4; stroke-opacity:1; fill:none" points="1434.96,1928.89 1434.96,2185.48 1485.44,2185.48 1485.44,1928.89 1434.96,1928.89 "/>
<path clip-path="url(#clip952)" d="M1485.44 1672.3 L1485.44 2185.48 L1535.92 2185.48 L1535.92 1672.3 L1485.44 1672.3 L1485.44 1672.3  Z" fill="#009af9" fill-rule="evenodd" fill-opacity="1"/>
<polyline clip-path="url(#clip952)" style="stroke:#000000; stroke-linecap:round; stroke-linejoin:round; stroke-width:4; stroke-opacity:1; fill:none" points="1485.44,1672.3 1485.44,2185.48 1535.92,2185.48 1535.92,1672.3 1485.44,1672.3 "/>
<path clip-path="url(#clip952)" d="M1535.92 2099.95 L1535.92 2185.48 L1586.41 2185.48 L1586.41 2099.95 L1535.92 2099.95 L1535.92 2099.95  Z" fill="#009af9" fill-rule="evenodd" fill-opacity="1"/>
<polyline clip-path="url(#clip952)" style="stroke:#000000; stroke-linecap:round; stroke-linejoin:round; stroke-width:4; stroke-opacity:1; fill:none" points="1535.92,2099.95 1535.92,2185.48 1586.41,2185.48 1586.41,2099.95 1535.92,2099.95 "/>
<path clip-path="url(#clip952)" d="M1586.41 2099.95 L1586.41 2185.48 L1636.89 2185.48 L1636.89 2099.95 L1586.41 2099.95 L1586.41 2099.95  Z" fill="#009af9" fill-rule="evenodd" fill-opacity="1"/>
<polyline clip-path="url(#clip952)" style="stroke:#000000; stroke-linecap:round; stroke-linejoin:round; stroke-width:4; stroke-opacity:1; fill:none" points="1586.41,2099.95 1586.41,2185.48 1636.89,2185.48 1636.89,2099.95 1586.41,2099.95 "/>
<path clip-path="url(#clip952)" d="M1636.89 1928.89 L1636.89 2185.48 L1687.37 2185.48 L1687.37 1928.89 L1636.89 1928.89 L1636.89 1928.89  Z" fill="#009af9" fill-rule="evenodd" fill-opacity="1"/>
<polyline clip-path="url(#clip952)" style="stroke:#000000; stroke-linecap:round; stroke-linejoin:round; stroke-width:4; stroke-opacity:1; fill:none" points="1636.89,1928.89 1636.89,2185.48 1687.37,2185.48 1687.37,1928.89 1636.89,1928.89 "/>
<path clip-path="url(#clip952)" d="M1687.37 1928.89 L1687.37 2185.48 L1737.85 2185.48 L1737.85 1928.89 L1687.37 1928.89 L1687.37 1928.89  Z" fill="#009af9" fill-rule="evenodd" fill-opacity="1"/>
<polyline clip-path="url(#clip952)" style="stroke:#000000; stroke-linecap:round; stroke-linejoin:round; stroke-width:4; stroke-opacity:1; fill:none" points="1687.37,1928.89 1687.37,2185.48 1737.85,2185.48 1737.85,1928.89 1687.37,1928.89 "/>
<path clip-path="url(#clip952)" d="M1737.85 2099.95 L1737.85 2185.48 L1788.33 2185.48 L1788.33 2099.95 L1737.85 2099.95 L1737.85 2099.95  Z" fill="#009af9" fill-rule="evenodd" fill-opacity="1"/>
<polyline clip-path="url(#clip952)" style="stroke:#000000; stroke-linecap:round; stroke-linejoin:round; stroke-width:4; stroke-opacity:1; fill:none" points="1737.85,2099.95 1737.85,2185.48 1788.33,2185.48 1788.33,2099.95 1737.85,2099.95 "/>
<path clip-path="url(#clip952)" d="M1788.33 1843.36 L1788.33 2185.48 L1838.81 2185.48 L1838.81 1843.36 L1788.33 1843.36 L1788.33 1843.36  Z" fill="#009af9" fill-rule="evenodd" fill-opacity="1"/>
<polyline clip-path="url(#clip952)" style="stroke:#000000; stroke-linecap:round; stroke-linejoin:round; stroke-width:4; stroke-opacity:1; fill:none" points="1788.33,1843.36 1788.33,2185.48 1838.81,2185.48 1838.81,1843.36 1788.33,1843.36 "/>
<path clip-path="url(#clip952)" d="M1838.81 2099.95 L1838.81 2185.48 L1889.3 2185.48 L1889.3 2099.95 L1838.81 2099.95 L1838.81 2099.95  Z" fill="#009af9" fill-rule="evenodd" fill-opacity="1"/>
<polyline clip-path="url(#clip952)" style="stroke:#000000; stroke-linecap:round; stroke-linejoin:round; stroke-width:4; stroke-opacity:1; fill:none" points="1838.81,2099.95 1838.81,2185.48 1889.3,2185.48 1889.3,2099.95 1838.81,2099.95 "/>
<path clip-path="url(#clip952)" d="M1889.3 2185.48 L1889.3 2185.48 L1939.78 2185.48 L1939.78 2185.48 L1889.3 2185.48 L1889.3 2185.48  Z" fill="#009af9" fill-rule="evenodd" fill-opacity="1"/>
<polyline clip-path="url(#clip952)" style="stroke:#000000; stroke-linecap:round; stroke-linejoin:round; stroke-width:4; stroke-opacity:1; fill:none" points="1889.3,2185.48 1889.3,2185.48 1939.78,2185.48 1889.3,2185.48 "/>
<path clip-path="url(#clip952)" d="M1939.78 2099.95 L1939.78 2185.48 L1990.26 2185.48 L1990.26 2099.95 L1939.78 2099.95 L1939.78 2099.95  Z" fill="#009af9" fill-rule="evenodd" fill-opacity="1"/>
<polyline clip-path="url(#clip952)" style="stroke:#000000; stroke-linecap:round; stroke-linejoin:round; stroke-width:4; stroke-opacity:1; fill:none" points="1939.78,2099.95 1939.78,2185.48 1990.26,2185.48 1990.26,2099.95 1939.78,2099.95 "/>
<path clip-path="url(#clip952)" d="M1990.26 2099.95 L1990.26 2185.48 L2040.74 2185.48 L2040.74 2099.95 L1990.26 2099.95 L1990.26 2099.95  Z" fill="#009af9" fill-rule="evenodd" fill-opacity="1"/>
<polyline clip-path="url(#clip952)" style="stroke:#000000; stroke-linecap:round; stroke-linejoin:round; stroke-width:4; stroke-opacity:1; fill:none" points="1990.26,2099.95 1990.26,2185.48 2040.74,2185.48 2040.74,2099.95 1990.26,2099.95 "/>
<path clip-path="url(#clip952)" d="M2040.74 2185.48 L2040.74 2185.48 L2091.22 2185.48 L2091.22 2185.48 L2040.74 2185.48 L2040.74 2185.48  Z" fill="#009af9" fill-rule="evenodd" fill-opacity="1"/>
<polyline clip-path="url(#clip952)" style="stroke:#000000; stroke-linecap:round; stroke-linejoin:round; stroke-width:4; stroke-opacity:1; fill:none" points="2040.74,2185.48 2040.74,2185.48 2091.22,2185.48 2040.74,2185.48 "/>
<path clip-path="url(#clip952)" d="M2091.22 2099.95 L2091.22 2185.48 L2141.7 2185.48 L2141.7 2099.95 L2091.22 2099.95 L2091.22 2099.95  Z" fill="#009af9" fill-rule="evenodd" fill-opacity="1"/>
<polyline clip-path="url(#clip952)" style="stroke:#000000; stroke-linecap:round; stroke-linejoin:round; stroke-width:4; stroke-opacity:1; fill:none" points="2091.22,2099.95 2091.22,2185.48 2141.7,2185.48 2141.7,2099.95 2091.22,2099.95 "/>
<path clip-path="url(#clip952)" d="M2141.7 2099.95 L2141.7 2185.48 L2192.18 2185.48 L2192.18 2099.95 L2141.7 2099.95 L2141.7 2099.95  Z" fill="#009af9" fill-rule="evenodd" fill-opacity="1"/>
<polyline clip-path="url(#clip952)" style="stroke:#000000; stroke-linecap:round; stroke-linejoin:round; stroke-width:4; stroke-opacity:1; fill:none" points="2141.7,2099.95 2141.7,2185.48 2192.18,2185.48 2192.18,2099.95 2141.7,2099.95 "/>
<path clip-path="url(#clip952)" d="M2192.18 2185.48 L2192.18 2185.48 L2242.67 2185.48 L2242.67 2185.48 L2192.18 2185.48 L2192.18 2185.48  Z" fill="#009af9" fill-rule="evenodd" fill-opacity="1"/>
<polyline clip-path="url(#clip952)" style="stroke:#000000; stroke-linecap:round; stroke-linejoin:round; stroke-width:4; stroke-opacity:1; fill:none" points="2192.18,2185.48 2192.18,2185.48 2242.67,2185.48 2192.18,2185.48 "/>
<path clip-path="url(#clip952)" d="M2242.67 2185.48 L2242.67 2185.48 L2293.15 2185.48 L2293.15 2185.48 L2242.67 2185.48 L2242.67 2185.48  Z" fill="#009af9" fill-rule="evenodd" fill-opacity="1"/>
<polyline clip-path="url(#clip952)" style="stroke:#000000; stroke-linecap:round; stroke-linejoin:round; stroke-width:4; stroke-opacity:1; fill:none" points="2242.67,2185.48 2242.67,2185.48 2293.15,2185.48 2242.67,2185.48 "/>
<path clip-path="url(#clip952)" d="M2293.15 2099.95 L2293.15 2185.48 L2343.63 2185.48 L2343.63 2099.95 L2293.15 2099.95 L2293.15 2099.95  Z" fill="#009af9" fill-rule="evenodd" fill-opacity="1"/>
<polyline clip-path="url(#clip952)" style="stroke:#000000; stroke-linecap:round; stroke-linejoin:round; stroke-width:4; stroke-opacity:1; fill:none" points="2293.15,2099.95 2293.15,2185.48 2343.63,2185.48 2343.63,2099.95 2293.15,2099.95 "/>
<path clip-path="url(#clip952)" d="M2343.63 2099.95 L2343.63 2185.48 L2394.11 2185.48 L2394.11 2099.95 L2343.63 2099.95 L2343.63 2099.95  Z" fill="#009af9" fill-rule="evenodd" fill-opacity="1"/>
<polyline clip-path="url(#clip952)" style="stroke:#000000; stroke-linecap:round; stroke-linejoin:round; stroke-width:4; stroke-opacity:1; fill:none" points="2343.63,2099.95 2343.63,2185.48 2394.11,2185.48 2394.11,2099.95 2343.63,2099.95 "/>
<path clip-path="url(#clip952)" d="M2394.11 1928.89 L2394.11 2185.48 L2444.59 2185.48 L2444.59 1928.89 L2394.11 1928.89 L2394.11 1928.89  Z" fill="#009af9" fill-rule="evenodd" fill-opacity="1"/>
<polyline clip-path="url(#clip952)" style="stroke:#000000; stroke-linecap:round; stroke-linejoin:round; stroke-width:4; stroke-opacity:1; fill:none" points="2394.11,1928.89 2394.11,2185.48 2444.59,2185.48 2444.59,1928.89 2394.11,1928.89 "/>
<path clip-path="url(#clip952)" d="M2444.59 2099.95 L2444.59 2185.48 L2495.07 2185.48 L2495.07 2099.95 L2444.59 2099.95 L2444.59 2099.95  Z" fill="#009af9" fill-rule="evenodd" fill-opacity="1"/>
<polyline clip-path="url(#clip952)" style="stroke:#000000; stroke-linecap:round; stroke-linejoin:round; stroke-width:4; stroke-opacity:1; fill:none" points="2444.59,2099.95 2444.59,2185.48 2495.07,2185.48 2495.07,2099.95 2444.59,2099.95 "/>
<path clip-path="url(#clip952)" d="M2495.07 2185.48 L2495.07 2185.48 L2545.55 2185.48 L2545.55 2185.48 L2495.07 2185.48 L2495.07 2185.48  Z" fill="#009af9" fill-rule="evenodd" fill-opacity="1"/>
<polyline clip-path="url(#clip952)" style="stroke:#000000; stroke-linecap:round; stroke-linejoin:round; stroke-width:4; stroke-opacity:1; fill:none" points="2495.07,2185.48 2495.07,2185.48 2545.55,2185.48 2495.07,2185.48 "/>
<path clip-path="url(#clip952)" d="M2545.55 2185.48 L2545.55 2185.48 L2596.04 2185.48 L2596.04 2185.48 L2545.55 2185.48 L2545.55 2185.48  Z" fill="#009af9" fill-rule="evenodd" fill-opacity="1"/>
<polyline clip-path="url(#clip952)" style="stroke:#000000; stroke-linecap:round; stroke-linejoin:round; stroke-width:4; stroke-opacity:1; fill:none" points="2545.55,2185.48 2545.55,2185.48 2596.04,2185.48 2545.55,2185.48 "/>
<path clip-path="url(#clip952)" d="M2596.04 2099.95 L2596.04 2185.48 L2646.52 2185.48 L2646.52 2099.95 L2596.04 2099.95 L2596.04 2099.95  Z" fill="#009af9" fill-rule="evenodd" fill-opacity="1"/>
<polyline clip-path="url(#clip952)" style="stroke:#000000; stroke-linecap:round; stroke-linejoin:round; stroke-width:4; stroke-opacity:1; fill:none" points="2596.04,2099.95 2596.04,2185.48 2646.52,2185.48 2646.52,2099.95 2596.04,2099.95 "/>
<path clip-path="url(#clip952)" d="M2646.52 2185.48 L2646.52 2185.48 L2697 2185.48 L2697 2185.48 L2646.52 2185.48 L2646.52 2185.48  Z" fill="#009af9" fill-rule="evenodd" fill-opacity="1"/>
<polyline clip-path="url(#clip952)" style="stroke:#000000; stroke-linecap:round; stroke-linejoin:round; stroke-width:4; stroke-opacity:1; fill:none" points="2646.52,2185.48 2646.52,2185.48 2697,2185.48 2646.52,2185.48 "/>
<path clip-path="url(#clip952)" d="M2697 2185.48 L2697 2185.48 L2747.48 2185.48 L2747.48 2185.48 L2697 2185.48 L2697 2185.48  Z" fill="#009af9" fill-rule="evenodd" fill-opacity="1"/>
<polyline clip-path="url(#clip952)" style="stroke:#000000; stroke-linecap:round; stroke-linejoin:round; stroke-width:4; stroke-opacity:1; fill:none" points="2697,2185.48 2697,2185.48 2747.48,2185.48 2697,2185.48 "/>
<path clip-path="url(#clip952)" d="M2747.48 2185.48 L2747.48 2185.48 L2797.96 2185.48 L2797.96 2185.48 L2747.48 2185.48 L2747.48 2185.48  Z" fill="#009af9" fill-rule="evenodd" fill-opacity="1"/>
<polyline clip-path="url(#clip952)" style="stroke:#000000; stroke-linecap:round; stroke-linejoin:round; stroke-width:4; stroke-opacity:1; fill:none" points="2747.48,2185.48 2747.48,2185.48 2797.96,2185.48 2747.48,2185.48 "/>
<path clip-path="url(#clip952)" d="M2797.96 2185.48 L2797.96 2185.48 L2848.44 2185.48 L2848.44 2185.48 L2797.96 2185.48 L2797.96 2185.48  Z" fill="#009af9" fill-rule="evenodd" fill-opacity="1"/>
<polyline clip-path="url(#clip952)" style="stroke:#000000; stroke-linecap:round; stroke-linejoin:round; stroke-width:4; stroke-opacity:1; fill:none" points="2797.96,2185.48 2797.96,2185.48 2848.44,2185.48 2797.96,2185.48 "/>
<path clip-path="url(#clip952)" d="M2848.44 2185.48 L2848.44 2185.48 L2898.92 2185.48 L2898.92 2185.48 L2848.44 2185.48 L2848.44 2185.48  Z" fill="#009af9" fill-rule="evenodd" fill-opacity="1"/>
<polyline clip-path="url(#clip952)" style="stroke:#000000; stroke-linecap:round; stroke-linejoin:round; stroke-width:4; stroke-opacity:1; fill:none" points="2848.44,2185.48 2848.44,2185.48 2898.92,2185.48 2848.44,2185.48 "/>
<path clip-path="url(#clip952)" d="M2898.92 2099.95 L2898.92 2185.48 L2949.41 2185.48 L2949.41 2099.95 L2898.92 2099.95 L2898.92 2099.95  Z" fill="#009af9" fill-rule="evenodd" fill-opacity="1"/>
<polyline clip-path="url(#clip952)" style="stroke:#000000; stroke-linecap:round; stroke-linejoin:round; stroke-width:4; stroke-opacity:1; fill:none" points="2898.92,2099.95 2898.92,2185.48 2949.41,2185.48 2949.41,2099.95 2898.92,2099.95 "/>
<path clip-path="url(#clip952)" d="M2949.41 2099.95 L2949.41 2185.48 L2999.89 2185.48 L2999.89 2099.95 L2949.41 2099.95 L2949.41 2099.95  Z" fill="#009af9" fill-rule="evenodd" fill-opacity="1"/>
<polyline clip-path="url(#clip952)" style="stroke:#000000; stroke-linecap:round; stroke-linejoin:round; stroke-width:4; stroke-opacity:1; fill:none" points="2949.41,2099.95 2949.41,2185.48 2999.89,2185.48 2999.89,2099.95 2949.41,2099.95 "/>
<circle clip-path="url(#clip952)" style="fill:#009af9; stroke:none; fill-opacity:0" cx="551.536" cy="132.774" r="2"/>
<circle clip-path="url(#clip952)" style="fill:#009af9; stroke:none; fill-opacity:0" cx="602.017" cy="47.2441" r="2"/>
<circle clip-path="url(#clip952)" style="fill:#009af9; stroke:none; fill-opacity:0" cx="652.499" cy="474.891" r="2"/>
<circle clip-path="url(#clip952)" style="fill:#009af9; stroke:none; fill-opacity:0" cx="702.98" cy="645.95" r="2"/>
<circle clip-path="url(#clip952)" style="fill:#009af9; stroke:none; fill-opacity:0" cx="753.462" cy="902.538" r="2"/>
<circle clip-path="url(#clip952)" style="fill:#009af9; stroke:none; fill-opacity:0" cx="803.943" cy="1073.6" r="2"/>
<circle clip-path="url(#clip952)" style="fill:#009af9; stroke:none; fill-opacity:0" cx="854.425" cy="1415.71" r="2"/>
<circle clip-path="url(#clip952)" style="fill:#009af9; stroke:none; fill-opacity:0" cx="904.906" cy="1159.13" r="2"/>
<circle clip-path="url(#clip952)" style="fill:#009af9; stroke:none; fill-opacity:0" cx="955.388" cy="1244.66" r="2"/>
<circle clip-path="url(#clip952)" style="fill:#009af9; stroke:none; fill-opacity:0" cx="1005.87" cy="1244.66" r="2"/>
<circle clip-path="url(#clip952)" style="fill:#009af9; stroke:none; fill-opacity:0" cx="1056.35" cy="1501.24" r="2"/>
<circle clip-path="url(#clip952)" style="fill:#009af9; stroke:none; fill-opacity:0" cx="1106.83" cy="1415.71" r="2"/>
<circle clip-path="url(#clip952)" style="fill:#009af9; stroke:none; fill-opacity:0" cx="1157.31" cy="1757.83" r="2"/>
<circle clip-path="url(#clip952)" style="fill:#009af9; stroke:none; fill-opacity:0" cx="1207.8" cy="1073.6" r="2"/>
<circle clip-path="url(#clip952)" style="fill:#009af9; stroke:none; fill-opacity:0" cx="1258.28" cy="902.538" r="2"/>
<circle clip-path="url(#clip952)" style="fill:#009af9; stroke:none; fill-opacity:0" cx="1308.76" cy="1843.36" r="2"/>
<circle clip-path="url(#clip952)" style="fill:#009af9; stroke:none; fill-opacity:0" cx="1359.24" cy="1501.24" r="2"/>
<circle clip-path="url(#clip952)" style="fill:#009af9; stroke:none; fill-opacity:0" cx="1409.72" cy="1586.77" r="2"/>
<circle clip-path="url(#clip952)" style="fill:#009af9; stroke:none; fill-opacity:0" cx="1460.2" cy="1928.89" r="2"/>
<circle clip-path="url(#clip952)" style="fill:#009af9; stroke:none; fill-opacity:0" cx="1510.68" cy="1672.3" r="2"/>
<circle clip-path="url(#clip952)" style="fill:#009af9; stroke:none; fill-opacity:0" cx="1561.17" cy="2099.95" r="2"/>
<circle clip-path="url(#clip952)" style="fill:#009af9; stroke:none; fill-opacity:0" cx="1611.65" cy="2099.95" r="2"/>
<circle clip-path="url(#clip952)" style="fill:#009af9; stroke:none; fill-opacity:0" cx="1662.13" cy="1928.89" r="2"/>
<circle clip-path="url(#clip952)" style="fill:#009af9; stroke:none; fill-opacity:0" cx="1712.61" cy="1928.89" r="2"/>
<circle clip-path="url(#clip952)" style="fill:#009af9; stroke:none; fill-opacity:0" cx="1763.09" cy="2099.95" r="2"/>
<circle clip-path="url(#clip952)" style="fill:#009af9; stroke:none; fill-opacity:0" cx="1813.57" cy="1843.36" r="2"/>
<circle clip-path="url(#clip952)" style="fill:#009af9; stroke:none; fill-opacity:0" cx="1864.05" cy="2099.95" r="2"/>
<circle clip-path="url(#clip952)" style="fill:#009af9; stroke:none; fill-opacity:0" cx="1914.54" cy="2185.48" r="2"/>
<circle clip-path="url(#clip952)" style="fill:#009af9; stroke:none; fill-opacity:0" cx="1965.02" cy="2099.95" r="2"/>
<circle clip-path="url(#clip952)" style="fill:#009af9; stroke:none; fill-opacity:0" cx="2015.5" cy="2099.95" r="2"/>
<circle clip-path="url(#clip952)" style="fill:#009af9; stroke:none; fill-opacity:0" cx="2065.98" cy="2185.48" r="2"/>
<circle clip-path="url(#clip952)" style="fill:#009af9; stroke:none; fill-opacity:0" cx="2116.46" cy="2099.95" r="2"/>
<circle clip-path="url(#clip952)" style="fill:#009af9; stroke:none; fill-opacity:0" cx="2166.94" cy="2099.95" r="2"/>
<circle clip-path="url(#clip952)" style="fill:#009af9; stroke:none; fill-opacity:0" cx="2217.42" cy="2185.48" r="2"/>
<circle clip-path="url(#clip952)" style="fill:#009af9; stroke:none; fill-opacity:0" cx="2267.91" cy="2185.48" r="2"/>
<circle clip-path="url(#clip952)" style="fill:#009af9; stroke:none; fill-opacity:0" cx="2318.39" cy="2099.95" r="2"/>
<circle clip-path="url(#clip952)" style="fill:#009af9; stroke:none; fill-opacity:0" cx="2368.87" cy="2099.95" r="2"/>
<circle clip-path="url(#clip952)" style="fill:#009af9; stroke:none; fill-opacity:0" cx="2419.35" cy="1928.89" r="2"/>
<circle clip-path="url(#clip952)" style="fill:#009af9; stroke:none; fill-opacity:0" cx="2469.83" cy="2099.95" r="2"/>
<circle clip-path="url(#clip952)" style="fill:#009af9; stroke:none; fill-opacity:0" cx="2520.31" cy="2185.48" r="2"/>
<circle clip-path="url(#clip952)" style="fill:#009af9; stroke:none; fill-opacity:0" cx="2570.8" cy="2185.48" r="2"/>
<circle clip-path="url(#clip952)" style="fill:#009af9; stroke:none; fill-opacity:0" cx="2621.28" cy="2099.95" r="2"/>
<circle clip-path="url(#clip952)" style="fill:#009af9; stroke:none; fill-opacity:0" cx="2671.76" cy="2185.48" r="2"/>
<circle clip-path="url(#clip952)" style="fill:#009af9; stroke:none; fill-opacity:0" cx="2722.24" cy="2185.48" r="2"/>
<circle clip-path="url(#clip952)" style="fill:#009af9; stroke:none; fill-opacity:0" cx="2772.72" cy="2185.48" r="2"/>
<circle clip-path="url(#clip952)" style="fill:#009af9; stroke:none; fill-opacity:0" cx="2823.2" cy="2185.48" r="2"/>
<circle clip-path="url(#clip952)" style="fill:#009af9; stroke:none; fill-opacity:0" cx="2873.68" cy="2185.48" r="2"/>
<circle clip-path="url(#clip952)" style="fill:#009af9; stroke:none; fill-opacity:0" cx="2924.17" cy="2099.95" r="2"/>
<circle clip-path="url(#clip952)" style="fill:#009af9; stroke:none; fill-opacity:0" cx="2974.65" cy="2099.95" r="2"/>
<polyline clip-path="url(#clip952)" style="stroke:#ffa500; stroke-linecap:round; stroke-linejoin:round; stroke-width:16; stroke-opacity:1; fill:none" points="543.964,335.201 568.771,418.116 593.578,497.316 618.386,572.966 643.193,645.226 668,714.248 692.808,780.177 717.615,843.151 742.422,903.304 767.23,960.761 792.037,1015.64 816.844,1068.07 841.652,1118.14 866.459,1165.97 891.266,1211.66 916.073,1255.3 940.881,1296.98 965.688,1336.79 990.495,1374.83 1015.3,1411.15 1040.11,1445.85 1064.92,1479 1089.72,1510.66 1114.53,1540.9 1139.34,1569.78 1164.15,1597.37 1188.95,1623.73 1213.76,1648.9 1238.57,1672.94 1263.38,1695.91 1288.18,1717.85 1312.99,1738.81 1337.8,1758.82 1362.61,1777.94 1387.41,1796.2 1412.22,1813.65 1437.03,1830.31 1461.83,1846.23 1486.64,1861.43 1511.45,1875.95 1536.26,1889.82 1561.06,1903.07 1585.87,1915.73 1610.68,1927.81 1635.49,1939.36 1660.29,1950.39 1685.1,1960.93 1709.91,1970.99 1734.71,1980.6 1759.52,1989.78 1784.33,1998.55 1809.14,2006.93 1833.94,2014.93 1858.75,2022.57 1883.56,2029.87 1908.37,2036.84 1933.17,2043.51 1957.98,2049.87 1982.79,2055.94 2007.6,2061.75 2032.4,2067.29 2057.21,2072.59 2082.02,2077.65 2106.82,2082.48 2131.63,2087.1 2156.44,2091.51 2181.25,2095.72 2206.05,2099.74 2230.86,2103.58 2255.67,2107.25 2280.48,2110.76 2305.28,2114.11 2330.09,2117.3 2354.9,2120.36 2379.71,2123.28 2404.51,2126.06 2429.32,2128.73 2454.13,2131.27 2478.93,2133.7 2503.74,2136.02 2528.55,2138.24 2553.36,2140.35 2578.16,2142.38 2602.97,2144.31 2627.78,2146.15 2652.59,2147.91 2677.39,2149.6 2702.2,2151.21 2727.01,2152.74 2751.81,2154.21 2776.62,2155.61 2801.43,2156.95 2826.24,2158.23 2851.04,2159.45 2875.85,2160.62 2900.66,2161.73 2925.47,2162.79 2950.27,2163.81 2975.08,2164.78 2999.89,2165.71 "/>
<path clip-path="url(#clip950)" d="M2003.05 248.119 L3060.11 248.119 L3060.11 118.519 L2003.05 118.519  Z" fill="#ffffff" fill-rule="evenodd" fill-opacity="1"/>
<polyline clip-path="url(#clip950)" style="stroke:#000000; stroke-linecap:round; stroke-linejoin:round; stroke-width:4; stroke-opacity:1; fill:none" points="2003.05,248.119 3060.11,248.119 3060.11,118.519 2003.05,118.519 2003.05,248.119 "/>
<polyline clip-path="url(#clip950)" style="stroke:#ffa500; stroke-linecap:round; stroke-linejoin:round; stroke-width:20; stroke-opacity:1; fill:none" points="2033.93,183.319 2219.22,183.319 "/>
<path clip-path="url(#clip950)" d="M2250.1 161.719 L2277.41 161.719 L2277.41 166.638 L2255.94 166.638 L2255.94 179.427 L2276.51 179.427 L2276.51 184.346 L2255.94 184.346 L2255.94 200 L2277.93 200 L2277.93 204.919 L2250.1 204.919 L2250.1 161.719 Z" fill="#000000" fill-rule="nonzero" fill-opacity="1" /><path clip-path="url(#clip950)" d="M2314.25 172.511 L2302.53 188.281 L2314.85 204.919 L2308.57 204.919 L2299.14 192.187 L2289.71 204.919 L2283.43 204.919 L2296.02 187.963 L2284.5 172.511 L2290.78 172.511 L2299.37 184.056 L2307.97 172.511 L2314.25 172.511 Z" fill="#000000" fill-rule="nonzero" fill-opacity="1" /><path clip-path="url(#clip950)" d="M2327.53 200.058 L2327.53 217.245 L2322.17 217.245 L2322.17 172.511 L2327.53 172.511 L2327.53 177.43 Q2329.21 174.537 2331.75 173.148 Q2334.33 171.73 2337.89 171.73 Q2343.79 171.73 2347.46 176.418 Q2351.17 181.105 2351.17 188.744 Q2351.17 196.383 2347.46 201.07 Q2343.79 205.758 2337.89 205.758 Q2334.33 205.758 2331.75 204.369 Q2329.21 202.951 2327.53 200.058 M2345.64 188.744 Q2345.64 182.87 2343.21 179.543 Q2340.81 176.186 2336.58 176.186 Q2332.36 176.186 2329.93 179.543 Q2327.53 182.87 2327.53 188.744 Q2327.53 194.618 2329.93 197.974 Q2332.36 201.302 2336.58 201.302 Q2340.81 201.302 2343.21 197.974 Q2345.64 194.618 2345.64 188.744 Z" fill="#000000" fill-rule="nonzero" fill-opacity="1" /><path clip-path="url(#clip950)" d="M2372.55 176.244 Q2368.27 176.244 2365.78 179.6 Q2363.29 182.928 2363.29 188.744 Q2363.29 194.56 2365.75 197.916 Q2368.24 201.244 2372.55 201.244 Q2376.8 201.244 2379.29 197.887 Q2381.78 194.531 2381.78 188.744 Q2381.78 182.986 2379.29 179.629 Q2376.8 176.244 2372.55 176.244 M2372.55 171.73 Q2379.49 171.73 2383.46 176.244 Q2387.42 180.758 2387.42 188.744 Q2387.42 196.701 2383.46 201.244 Q2379.49 205.758 2372.55 205.758 Q2365.58 205.758 2361.61 201.244 Q2357.68 196.701 2357.68 188.744 Q2357.68 180.758 2361.61 176.244 Q2365.58 171.73 2372.55 171.73 Z" fill="#000000" fill-rule="nonzero" fill-opacity="1" /><path clip-path="url(#clip950)" d="M2423.19 185.359 L2423.19 204.919 L2417.86 204.919 L2417.86 185.532 Q2417.86 180.931 2416.07 178.646 Q2414.27 176.36 2410.69 176.36 Q2406.37 176.36 2403.89 179.109 Q2401.4 181.857 2401.4 186.603 L2401.4 204.919 L2396.04 204.919 L2396.04 172.511 L2401.4 172.511 L2401.4 177.546 Q2403.31 174.624 2405.88 173.177 Q2408.49 171.73 2411.87 171.73 Q2417.46 171.73 2420.32 175.202 Q2423.19 178.646 2423.19 185.359 Z" fill="#000000" fill-rule="nonzero" fill-opacity="1" /><path clip-path="url(#clip950)" d="M2461.52 187.384 L2461.52 189.988 L2437.05 189.988 Q2437.39 195.486 2440.34 198.379 Q2443.32 201.244 2448.62 201.244 Q2451.69 201.244 2454.55 200.492 Q2457.45 199.739 2460.28 198.235 L2460.28 203.269 Q2457.42 204.485 2454.41 205.121 Q2451.4 205.758 2448.3 205.758 Q2440.55 205.758 2436 201.244 Q2431.49 196.73 2431.49 189.033 Q2431.49 181.076 2435.77 176.418 Q2440.08 171.73 2447.38 171.73 Q2453.91 171.73 2457.71 175.955 Q2461.52 180.15 2461.52 187.384 M2456.2 185.821 Q2456.14 181.452 2453.74 178.848 Q2451.37 176.244 2447.43 176.244 Q2442.98 176.244 2440.29 178.761 Q2437.62 181.279 2437.22 185.85 L2456.2 185.821 Z" fill="#000000" fill-rule="nonzero" fill-opacity="1" /><path clip-path="url(#clip950)" d="M2497.2 185.359 L2497.2 204.919 L2491.88 204.919 L2491.88 185.532 Q2491.88 180.931 2490.08 178.646 Q2488.29 176.36 2484.7 176.36 Q2480.39 176.36 2477.9 179.109 Q2475.41 181.857 2475.41 186.603 L2475.41 204.919 L2470.06 204.919 L2470.06 172.511 L2475.41 172.511 L2475.41 177.546 Q2477.32 174.624 2479.9 173.177 Q2482.5 171.73 2485.89 171.73 Q2491.47 171.73 2494.34 175.202 Q2497.2 178.646 2497.2 185.359 Z" fill="#000000" fill-rule="nonzero" fill-opacity="1" /><path clip-path="url(#clip950)" d="M2513.09 163.31 L2513.09 172.511 L2524.05 172.511 L2524.05 176.649 L2513.09 176.649 L2513.09 194.242 Q2513.09 198.206 2514.16 199.334 Q2515.26 200.463 2518.58 200.463 L2524.05 200.463 L2524.05 204.919 L2518.58 204.919 Q2512.42 204.919 2510.08 202.633 Q2507.73 200.318 2507.73 194.242 L2507.73 176.649 L2503.83 176.649 L2503.83 172.511 L2507.73 172.511 L2507.73 163.31 L2513.09 163.31 Z" fill="#000000" fill-rule="nonzero" fill-opacity="1" /><path clip-path="url(#clip950)" d="M2531.06 172.511 L2536.38 172.511 L2536.38 204.919 L2531.06 204.919 L2531.06 172.511 M2531.06 159.896 L2536.38 159.896 L2536.38 166.638 L2531.06 166.638 L2531.06 159.896 Z" fill="#000000" fill-rule="nonzero" fill-opacity="1" /><path clip-path="url(#clip950)" d="M2562.25 188.628 Q2555.8 188.628 2553.31 190.104 Q2550.82 191.58 2550.82 195.139 Q2550.82 197.974 2552.67 199.652 Q2554.55 201.302 2557.76 201.302 Q2562.19 201.302 2564.85 198.177 Q2567.54 195.023 2567.54 189.815 L2567.54 188.628 L2562.25 188.628 M2572.87 186.429 L2572.87 204.919 L2567.54 204.919 L2567.54 200 Q2565.72 202.951 2563 204.369 Q2560.28 205.758 2556.34 205.758 Q2551.37 205.758 2548.42 202.98 Q2545.49 200.173 2545.49 195.486 Q2545.49 190.017 2549.14 187.239 Q2552.81 184.462 2560.08 184.462 L2567.54 184.462 L2567.54 183.941 Q2567.54 180.266 2565.11 178.269 Q2562.71 176.244 2558.34 176.244 Q2555.56 176.244 2552.93 176.91 Q2550.3 177.575 2547.87 178.906 L2547.87 173.987 Q2550.79 172.859 2553.54 172.309 Q2556.29 171.73 2558.89 171.73 Q2565.92 171.73 2569.39 175.376 Q2572.87 179.022 2572.87 186.429 Z" fill="#000000" fill-rule="nonzero" fill-opacity="1" /><path clip-path="url(#clip950)" d="M2583.83 159.896 L2589.16 159.896 L2589.16 204.919 L2583.83 204.919 L2583.83 159.896 Z" fill="#000000" fill-rule="nonzero" fill-opacity="1" /><path clip-path="url(#clip950)" d="M2640.46 177.43 L2640.46 159.896 L2645.78 159.896 L2645.78 204.919 L2640.46 204.919 L2640.46 200.058 Q2638.78 202.951 2636.21 204.369 Q2633.66 205.758 2630.07 205.758 Q2624.2 205.758 2620.49 201.07 Q2616.82 196.383 2616.82 188.744 Q2616.82 181.105 2620.49 176.418 Q2624.2 171.73 2630.07 171.73 Q2633.66 171.73 2636.21 173.148 Q2638.78 174.537 2640.46 177.43 M2622.32 188.744 Q2622.32 194.618 2624.72 197.974 Q2627.15 201.302 2631.37 201.302 Q2635.6 201.302 2638.03 197.974 Q2640.46 194.618 2640.46 188.744 Q2640.46 182.87 2638.03 179.543 Q2635.6 176.186 2631.37 176.186 Q2627.15 176.186 2624.72 179.543 Q2622.32 182.87 2622.32 188.744 Z" fill="#000000" fill-rule="nonzero" fill-opacity="1" /><path clip-path="url(#clip950)" d="M2656.75 172.511 L2662.07 172.511 L2662.07 204.919 L2656.75 204.919 L2656.75 172.511 M2656.75 159.896 L2662.07 159.896 L2662.07 166.638 L2656.75 166.638 L2656.75 159.896 Z" fill="#000000" fill-rule="nonzero" fill-opacity="1" /><path clip-path="url(#clip950)" d="M2693.87 173.466 L2693.87 178.501 Q2691.62 177.344 2689.19 176.765 Q2686.76 176.186 2684.15 176.186 Q2680.19 176.186 2678.19 177.401 Q2676.22 178.617 2676.22 181.047 Q2676.22 182.899 2677.64 183.97 Q2679.06 185.011 2683.34 185.966 L2685.16 186.371 Q2690.84 187.587 2693.21 189.815 Q2695.61 192.014 2695.61 195.978 Q2695.61 200.492 2692.02 203.125 Q2688.46 205.758 2682.21 205.758 Q2679.61 205.758 2676.77 205.237 Q2673.97 204.745 2670.84 203.732 L2670.84 198.235 Q2673.79 199.768 2676.66 200.549 Q2679.52 201.302 2682.33 201.302 Q2686.09 201.302 2688.12 200.029 Q2690.14 198.727 2690.14 196.383 Q2690.14 194.213 2688.66 193.055 Q2687.22 191.898 2682.27 190.827 L2680.42 190.393 Q2675.47 189.352 2673.27 187.21 Q2671.07 185.04 2671.07 181.279 Q2671.07 176.707 2674.31 174.219 Q2677.55 171.73 2683.51 171.73 Q2686.47 171.73 2689.07 172.164 Q2691.67 172.598 2693.87 173.466 Z" fill="#000000" fill-rule="nonzero" fill-opacity="1" /><path clip-path="url(#clip950)" d="M2709.35 163.31 L2709.35 172.511 L2720.32 172.511 L2720.32 176.649 L2709.35 176.649 L2709.35 194.242 Q2709.35 198.206 2710.42 199.334 Q2711.52 200.463 2714.85 200.463 L2720.32 200.463 L2720.32 204.919 L2714.85 204.919 Q2708.69 204.919 2706.34 202.633 Q2704 200.318 2704 194.242 L2704 176.649 L2700.09 176.649 L2700.09 172.511 L2704 172.511 L2704 163.31 L2709.35 163.31 Z" fill="#000000" fill-rule="nonzero" fill-opacity="1" /><path clip-path="url(#clip950)" d="M2746.1 177.488 Q2745.2 176.967 2744.13 176.736 Q2743.09 176.475 2741.82 176.475 Q2737.3 176.475 2734.87 179.427 Q2732.47 182.349 2732.47 187.847 L2732.47 204.919 L2727.12 204.919 L2727.12 172.511 L2732.47 172.511 L2732.47 177.546 Q2734.15 174.595 2736.84 173.177 Q2739.53 171.73 2743.38 171.73 Q2743.93 171.73 2744.6 171.817 Q2745.26 171.875 2746.07 172.019 L2746.1 177.488 Z" fill="#000000" fill-rule="nonzero" fill-opacity="1" /><path clip-path="url(#clip950)" d="M2751.69 172.511 L2757.01 172.511 L2757.01 204.919 L2751.69 204.919 L2751.69 172.511 M2751.69 159.896 L2757.01 159.896 L2757.01 166.638 L2751.69 166.638 L2751.69 159.896 Z" fill="#000000" fill-rule="nonzero" fill-opacity="1" /><path clip-path="url(#clip950)" d="M2791.41 188.744 Q2791.41 182.87 2788.98 179.543 Q2786.58 176.186 2782.36 176.186 Q2778.13 176.186 2775.7 179.543 Q2773.3 182.87 2773.3 188.744 Q2773.3 194.618 2775.7 197.974 Q2778.13 201.302 2782.36 201.302 Q2786.58 201.302 2788.98 197.974 Q2791.41 194.618 2791.41 188.744 M2773.3 177.43 Q2774.98 174.537 2777.52 173.148 Q2780.1 171.73 2783.66 171.73 Q2789.56 171.73 2793.24 176.418 Q2796.94 181.105 2796.94 188.744 Q2796.94 196.383 2793.24 201.07 Q2789.56 205.758 2783.66 205.758 Q2780.1 205.758 2777.52 204.369 Q2774.98 202.951 2773.3 200.058 L2773.3 204.919 L2767.95 204.919 L2767.95 159.896 L2773.3 159.896 L2773.3 177.43 Z" fill="#000000" fill-rule="nonzero" fill-opacity="1" /><path clip-path="url(#clip950)" d="M2805.22 192.129 L2805.22 172.511 L2810.54 172.511 L2810.54 191.927 Q2810.54 196.527 2812.33 198.842 Q2814.13 201.128 2817.72 201.128 Q2822.03 201.128 2824.51 198.379 Q2827.03 195.63 2827.03 190.885 L2827.03 172.511 L2832.36 172.511 L2832.36 204.919 L2827.03 204.919 L2827.03 199.942 Q2825.09 202.893 2822.52 204.34 Q2819.97 205.758 2816.59 205.758 Q2811 205.758 2808.11 202.286 Q2805.22 198.813 2805.22 192.129 M2818.61 171.73 L2818.61 171.73 Z" fill="#000000" fill-rule="nonzero" fill-opacity="1" /><path clip-path="url(#clip950)" d="M2848.59 163.31 L2848.59 172.511 L2859.56 172.511 L2859.56 176.649 L2848.59 176.649 L2848.59 194.242 Q2848.59 198.206 2849.66 199.334 Q2850.76 200.463 2854.09 200.463 L2859.56 200.463 L2859.56 204.919 L2854.09 204.919 Q2847.92 204.919 2845.58 202.633 Q2843.24 200.318 2843.24 194.242 L2843.24 176.649 L2839.33 176.649 L2839.33 172.511 L2843.24 172.511 L2843.24 163.31 L2848.59 163.31 Z" fill="#000000" fill-rule="nonzero" fill-opacity="1" /><path clip-path="url(#clip950)" d="M2866.56 172.511 L2871.88 172.511 L2871.88 204.919 L2866.56 204.919 L2866.56 172.511 M2866.56 159.896 L2871.88 159.896 L2871.88 166.638 L2866.56 166.638 L2866.56 159.896 Z" fill="#000000" fill-rule="nonzero" fill-opacity="1" /><path clip-path="url(#clip950)" d="M2895.58 176.244 Q2891.3 176.244 2888.81 179.6 Q2886.32 182.928 2886.32 188.744 Q2886.32 194.56 2888.78 197.916 Q2891.27 201.244 2895.58 201.244 Q2899.83 201.244 2902.32 197.887 Q2904.81 194.531 2904.81 188.744 Q2904.81 182.986 2902.32 179.629 Q2899.83 176.244 2895.58 176.244 M2895.58 171.73 Q2902.52 171.73 2906.49 176.244 Q2910.45 180.758 2910.45 188.744 Q2910.45 196.701 2906.49 201.244 Q2902.52 205.758 2895.58 205.758 Q2888.61 205.758 2884.64 201.244 Q2880.71 196.701 2880.71 188.744 Q2880.71 180.758 2884.64 176.244 Q2888.61 171.73 2895.58 171.73 Z" fill="#000000" fill-rule="nonzero" fill-opacity="1" /><path clip-path="url(#clip950)" d="M2946.22 185.359 L2946.22 204.919 L2940.89 204.919 L2940.89 185.532 Q2940.89 180.931 2939.1 178.646 Q2937.3 176.36 2933.72 176.36 Q2929.4 176.36 2926.92 179.109 Q2924.43 181.857 2924.43 186.603 L2924.43 204.919 L2919.07 204.919 L2919.07 172.511 L2924.43 172.511 L2924.43 177.546 Q2926.34 174.624 2928.91 173.177 Q2931.52 171.73 2934.9 171.73 Q2940.49 171.73 2943.35 175.202 Q2946.22 178.646 2946.22 185.359 Z" fill="#000000" fill-rule="nonzero" fill-opacity="1" /><path clip-path="url(#clip950)" d="M2992.08 159.896 L2992.08 164.323 L2986.99 164.323 Q2984.12 164.323 2982.99 165.48 Q2981.89 166.638 2981.89 169.647 L2981.89 172.511 L2990.66 172.511 L2990.66 176.649 L2981.89 176.649 L2981.89 204.919 L2976.54 204.919 L2976.54 176.649 L2971.45 176.649 L2971.45 172.511 L2976.54 172.511 L2976.54 170.254 Q2976.54 164.844 2979.06 162.384 Q2981.57 159.896 2987.04 159.896 L2992.08 159.896 Z" fill="#000000" fill-rule="nonzero" fill-opacity="1" /><path clip-path="url(#clip950)" d="M2996.53 172.511 L3001.86 172.511 L3001.86 204.919 L2996.53 204.919 L2996.53 172.511 M2996.53 159.896 L3001.86 159.896 L3001.86 166.638 L2996.53 166.638 L2996.53 159.896 Z" fill="#000000" fill-rule="nonzero" fill-opacity="1" /><path clip-path="url(#clip950)" d="M3018.26 163.31 L3018.26 172.511 L3029.23 172.511 L3029.23 176.649 L3018.26 176.649 L3018.26 194.242 Q3018.26 198.206 3019.33 199.334 Q3020.43 200.463 3023.76 200.463 L3029.23 200.463 L3029.23 204.919 L3023.76 204.919 Q3017.6 204.919 3015.25 202.633 Q3012.91 200.318 3012.91 194.242 L3012.91 176.649 L3009 176.649 L3009 172.511 L3012.91 172.511 L3012.91 163.31 L3018.26 163.31 Z" fill="#000000" fill-rule="nonzero" fill-opacity="1" /></svg>
