<?xml version="1.0" encoding="utf-8"?>
<svg xmlns="http://www.w3.org/2000/svg" xmlns:xlink="http://www.w3.org/1999/xlink" width="600" height="400" viewBox="0 0 2400 1600">
<defs>
  <clipPath id="clip650">
    <rect x="0" y="0" width="2400" height="1600"/>
  </clipPath>
</defs>
<path clip-path="url(#clip650)" d="M0 1600 L2400 1600 L2400 8.88178e-14 L0 8.88178e-14  Z" fill="#ffffff" fill-rule="evenodd" fill-opacity="1"/>
<defs>
  <clipPath id="clip651">
    <rect x="480" y="0" width="1681" height="1600"/>
  </clipPath>
</defs>
<path clip-path="url(#clip650)" d="M234.125 1423.18 L2352.76 1423.18 L2352.76 47.2441 L234.125 47.2441  Z" fill="#ffffff" fill-rule="evenodd" fill-opacity="1"/>
<defs>
  <clipPath id="clip652">
    <rect x="234" y="47" width="2120" height="1377"/>
  </clipPath>
</defs>
<polyline clip-path="url(#clip652)" style="stroke:#000000; stroke-linecap:round; stroke-linejoin:round; stroke-width:2; stroke-opacity:0.1; fill:none" points="769.67,1423.18 769.67,47.2441 "/>
<polyline clip-path="url(#clip652)" style="stroke:#000000; stroke-linecap:round; stroke-linejoin:round; stroke-width:2; stroke-opacity:0.1; fill:none" points="1817.21,1423.18 1817.21,47.2441 "/>
<polyline clip-path="url(#clip650)" style="stroke:#000000; stroke-linecap:round; stroke-linejoin:round; stroke-width:4; stroke-opacity:1; fill:none" points="234.125,1423.18 2352.76,1423.18 "/>
<polyline clip-path="url(#clip650)" style="stroke:#000000; stroke-linecap:round; stroke-linejoin:round; stroke-width:4; stroke-opacity:1; fill:none" points="769.67,1423.18 769.67,1404.28 "/>
<polyline clip-path="url(#clip650)" style="stroke:#000000; stroke-linecap:round; stroke-linejoin:round; stroke-width:4; stroke-opacity:1; fill:none" points="1817.21,1423.18 1817.21,1404.28 "/>
<path clip-path="url(#clip650)" d="M762.089 1469.08 L762.089 1481.74 L769.589 1481.74 Q773.362 1481.74 775.168 1480.19 Q776.997 1478.61 776.997 1475.39 Q776.997 1472.15 775.168 1470.63 Q773.362 1469.08 769.589 1469.08 L762.089 1469.08 M762.089 1454.86 L762.089 1465.28 L769.011 1465.28 Q772.436 1465.28 774.103 1464.01 Q775.793 1462.71 775.793 1460.07 Q775.793 1457.45 774.103 1456.16 Q772.436 1454.86 769.011 1454.86 L762.089 1454.86 M757.413 1451.02 L769.358 1451.02 Q774.705 1451.02 777.598 1453.24 Q780.492 1455.46 780.492 1459.56 Q780.492 1462.73 779.01 1464.61 Q777.529 1466.48 774.659 1466.95 Q778.108 1467.69 780.006 1470.05 Q781.927 1472.39 781.927 1475.9 Q781.927 1480.53 778.779 1483.06 Q775.631 1485.58 769.821 1485.58 L757.413 1485.58 L757.413 1451.02 Z" fill="#000000" fill-rule="nonzero" fill-opacity="1" /><path clip-path="url(#clip650)" d="M1801.4 1451.02 L1808.37 1451.02 L1817.19 1474.54 L1826.05 1451.02 L1833.02 1451.02 L1833.02 1485.58 L1828.46 1485.58 L1828.46 1455.23 L1819.55 1478.94 L1814.85 1478.94 L1805.94 1455.23 L1805.94 1485.58 L1801.4 1485.58 L1801.4 1451.02 Z" fill="#000000" fill-rule="nonzero" fill-opacity="1" /><path clip-path="url(#clip650)" d="M1212.41 1524.18 L1212.41 1530.96 Q1209.16 1527.94 1205.47 1526.44 Q1201.81 1524.95 1197.67 1524.95 Q1189.52 1524.95 1185.19 1529.95 Q1180.86 1534.91 1180.86 1544.33 Q1180.86 1553.72 1185.19 1558.72 Q1189.52 1563.68 1197.67 1563.68 Q1201.81 1563.68 1205.47 1562.19 Q1209.16 1560.69 1212.41 1557.67 L1212.41 1564.38 Q1209.03 1566.68 1205.24 1567.82 Q1201.49 1568.97 1197.29 1568.97 Q1186.5 1568.97 1180.29 1562.38 Q1174.08 1555.76 1174.08 1544.33 Q1174.08 1532.87 1180.29 1526.28 Q1186.5 1519.66 1197.29 1519.66 Q1201.55 1519.66 1205.31 1520.81 Q1209.1 1521.92 1212.41 1524.18 Z" fill="#000000" fill-rule="nonzero" fill-opacity="1" /><path clip-path="url(#clip650)" d="M1222.08 1518.52 L1227.94 1518.52 L1227.94 1568.04 L1222.08 1568.04 L1222.08 1518.52 Z" fill="#000000" fill-rule="nonzero" fill-opacity="1" /><path clip-path="url(#clip650)" d="M1256.39 1550.12 Q1249.29 1550.12 1246.56 1551.75 Q1243.82 1553.37 1243.82 1557.29 Q1243.82 1560.4 1245.86 1562.25 Q1247.93 1564.07 1251.46 1564.07 Q1256.33 1564.07 1259.26 1560.63 Q1262.22 1557.16 1262.22 1551.43 L1262.22 1550.12 L1256.39 1550.12 M1268.07 1547.71 L1268.07 1568.04 L1262.22 1568.04 L1262.22 1562.63 Q1260.21 1565.88 1257.22 1567.44 Q1254.23 1568.97 1249.9 1568.97 Q1244.42 1568.97 1241.18 1565.91 Q1237.96 1562.82 1237.96 1557.67 Q1237.96 1551.65 1241.97 1548.6 Q1246.02 1545.54 1254.01 1545.54 L1262.22 1545.54 L1262.22 1544.97 Q1262.22 1540.93 1259.54 1538.73 Q1256.9 1536.5 1252.1 1536.5 Q1249.04 1536.5 1246.14 1537.23 Q1243.25 1537.97 1240.57 1539.43 L1240.57 1534.02 Q1243.79 1532.78 1246.81 1532.17 Q1249.84 1531.54 1252.7 1531.54 Q1260.43 1531.54 1264.25 1535.55 Q1268.07 1539.56 1268.07 1547.71 Z" fill="#000000" fill-rule="nonzero" fill-opacity="1" /><path clip-path="url(#clip650)" d="M1302.86 1533.45 L1302.86 1538.98 Q1300.38 1537.71 1297.71 1537.07 Q1295.03 1536.44 1292.17 1536.44 Q1287.81 1536.44 1285.61 1537.77 Q1283.45 1539.11 1283.45 1541.79 Q1283.45 1543.82 1285.01 1545 Q1286.57 1546.15 1291.28 1547.2 L1293.28 1547.64 Q1299.52 1548.98 1302.13 1551.43 Q1304.77 1553.85 1304.77 1558.21 Q1304.77 1563.17 1300.82 1566.07 Q1296.91 1568.97 1290.04 1568.97 Q1287.17 1568.97 1284.05 1568.39 Q1280.96 1567.85 1277.53 1566.74 L1277.53 1560.69 Q1280.77 1562.38 1283.92 1563.24 Q1287.07 1564.07 1290.16 1564.07 Q1294.3 1564.07 1296.53 1562.66 Q1298.76 1561.23 1298.76 1558.65 Q1298.76 1556.27 1297.13 1554.99 Q1295.54 1553.72 1290.1 1552.54 L1288.06 1552.07 Q1282.62 1550.92 1280.2 1548.56 Q1277.78 1546.18 1277.78 1542.04 Q1277.78 1537.01 1281.35 1534.27 Q1284.91 1531.54 1291.47 1531.54 Q1294.71 1531.54 1297.58 1532.01 Q1300.44 1532.49 1302.86 1533.45 Z" fill="#000000" fill-rule="nonzero" fill-opacity="1" /><path clip-path="url(#clip650)" d="M1336.82 1533.45 L1336.82 1538.98 Q1334.34 1537.71 1331.67 1537.07 Q1328.99 1536.44 1326.13 1536.44 Q1321.77 1536.44 1319.57 1537.77 Q1317.41 1539.11 1317.41 1541.79 Q1317.41 1543.82 1318.97 1545 Q1320.53 1546.15 1325.24 1547.2 L1327.24 1547.64 Q1333.48 1548.98 1336.09 1551.43 Q1338.73 1553.85 1338.73 1558.21 Q1338.73 1563.17 1334.79 1566.07 Q1330.87 1568.97 1324 1568.97 Q1321.13 1568.97 1318.01 1568.39 Q1314.92 1567.85 1311.49 1566.74 L1311.49 1560.69 Q1314.73 1562.38 1317.88 1563.24 Q1321.04 1564.07 1324.12 1564.07 Q1328.26 1564.07 1330.49 1562.66 Q1332.72 1561.23 1332.72 1558.65 Q1332.72 1556.27 1331.09 1554.99 Q1329.5 1553.72 1324.06 1552.54 L1322.02 1552.07 Q1316.58 1550.92 1314.16 1548.56 Q1311.74 1546.18 1311.74 1542.04 Q1311.74 1537.01 1315.31 1534.27 Q1318.87 1531.54 1325.43 1531.54 Q1328.67 1531.54 1331.54 1532.01 Q1334.4 1532.49 1336.82 1533.45 Z" fill="#000000" fill-rule="nonzero" fill-opacity="1" /><path clip-path="url(#clip650)" d="M1378.55 1548.76 L1378.55 1551.62 L1351.62 1551.62 Q1352.01 1557.67 1355.25 1560.85 Q1358.53 1564 1364.35 1564 Q1367.73 1564 1370.88 1563.17 Q1374.06 1562.35 1377.18 1560.69 L1377.18 1566.23 Q1374.03 1567.57 1370.72 1568.27 Q1367.41 1568.97 1364 1568.97 Q1355.47 1568.97 1350.48 1564 Q1345.51 1559.04 1345.51 1550.57 Q1345.51 1541.82 1350.22 1536.69 Q1354.97 1531.54 1362.99 1531.54 Q1370.18 1531.54 1374.35 1536.18 Q1378.55 1540.8 1378.55 1548.76 M1372.69 1547.04 Q1372.63 1542.23 1369.99 1539.37 Q1367.38 1536.5 1363.05 1536.5 Q1358.15 1536.5 1355.19 1539.27 Q1352.26 1542.04 1351.81 1547.07 L1372.69 1547.04 Z" fill="#000000" fill-rule="nonzero" fill-opacity="1" /><path clip-path="url(#clip650)" d="M1410.89 1533.45 L1410.89 1538.98 Q1408.41 1537.71 1405.73 1537.07 Q1403.06 1536.44 1400.19 1536.44 Q1395.83 1536.44 1393.64 1537.77 Q1391.47 1539.11 1391.47 1541.79 Q1391.47 1543.82 1393.03 1545 Q1394.59 1546.15 1399.3 1547.2 L1401.31 1547.64 Q1407.55 1548.98 1410.16 1551.43 Q1412.8 1553.85 1412.8 1558.21 Q1412.8 1563.17 1408.85 1566.07 Q1404.94 1568.97 1398.06 1568.97 Q1395.2 1568.97 1392.08 1568.39 Q1388.99 1567.85 1385.55 1566.74 L1385.55 1560.69 Q1388.8 1562.38 1391.95 1563.24 Q1395.1 1564.07 1398.19 1564.07 Q1402.33 1564.07 1404.55 1562.66 Q1406.78 1561.23 1406.78 1558.65 Q1406.78 1556.27 1405.16 1554.99 Q1403.57 1553.72 1398.12 1552.54 L1396.09 1552.07 Q1390.65 1550.92 1388.23 1548.56 Q1385.81 1546.18 1385.81 1542.04 Q1385.81 1537.01 1389.37 1534.27 Q1392.94 1531.54 1399.49 1531.54 Q1402.74 1531.54 1405.6 1532.01 Q1408.47 1532.49 1410.89 1533.45 Z" fill="#000000" fill-rule="nonzero" fill-opacity="1" /><polyline clip-path="url(#clip652)" style="stroke:#000000; stroke-linecap:round; stroke-linejoin:round; stroke-width:2; stroke-opacity:0.1; fill:none" points="234.125,1423.18 2352.76,1423.18 "/>
<polyline clip-path="url(#clip652)" style="stroke:#000000; stroke-linecap:round; stroke-linejoin:round; stroke-width:2; stroke-opacity:0.1; fill:none" points="234.125,1037.76 2352.76,1037.76 "/>
<polyline clip-path="url(#clip652)" style="stroke:#000000; stroke-linecap:round; stroke-linejoin:round; stroke-width:2; stroke-opacity:0.1; fill:none" points="234.125,652.347 2352.76,652.347 "/>
<polyline clip-path="url(#clip652)" style="stroke:#000000; stroke-linecap:round; stroke-linejoin:round; stroke-width:2; stroke-opacity:0.1; fill:none" points="234.125,266.931 2352.76,266.931 "/>
<polyline clip-path="url(#clip650)" style="stroke:#000000; stroke-linecap:round; stroke-linejoin:round; stroke-width:4; stroke-opacity:1; fill:none" points="234.125,1423.18 234.125,47.2441 "/>
<polyline clip-path="url(#clip650)" style="stroke:#000000; stroke-linecap:round; stroke-linejoin:round; stroke-width:4; stroke-opacity:1; fill:none" points="234.125,1423.18 253.023,1423.18 "/>
<polyline clip-path="url(#clip650)" style="stroke:#000000; stroke-linecap:round; stroke-linejoin:round; stroke-width:4; stroke-opacity:1; fill:none" points="234.125,1037.76 253.023,1037.76 "/>
<polyline clip-path="url(#clip650)" style="stroke:#000000; stroke-linecap:round; stroke-linejoin:round; stroke-width:4; stroke-opacity:1; fill:none" points="234.125,652.347 253.023,652.347 "/>
<polyline clip-path="url(#clip650)" style="stroke:#000000; stroke-linecap:round; stroke-linejoin:round; stroke-width:4; stroke-opacity:1; fill:none" points="234.125,266.931 253.023,266.931 "/>
<path clip-path="url(#clip650)" d="M186.181 1408.98 Q182.57 1408.98 180.741 1412.54 Q178.936 1416.08 178.936 1423.21 Q178.936 1430.32 180.741 1433.89 Q182.57 1437.43 186.181 1437.43 Q189.815 1437.43 191.621 1433.89 Q193.45 1430.32 193.45 1423.21 Q193.45 1416.08 191.621 1412.54 Q189.815 1408.98 186.181 1408.98 M186.181 1405.27 Q191.991 1405.27 195.047 1409.88 Q198.125 1414.46 198.125 1423.21 Q198.125 1431.94 195.047 1436.55 Q191.991 1441.13 186.181 1441.13 Q180.371 1441.13 177.292 1436.55 Q174.237 1431.94 174.237 1423.21 Q174.237 1414.46 177.292 1409.88 Q180.371 1405.27 186.181 1405.27 Z" fill="#000000" fill-rule="nonzero" fill-opacity="1" /><path clip-path="url(#clip650)" d="M116.668 1051.11 L124.306 1051.11 L124.306 1024.74 L115.996 1026.41 L115.996 1022.15 L124.26 1020.48 L128.936 1020.48 L128.936 1051.11 L136.575 1051.11 L136.575 1055.04 L116.668 1055.04 L116.668 1051.11 Z" fill="#000000" fill-rule="nonzero" fill-opacity="1" /><path clip-path="url(#clip650)" d="M156.019 1023.56 Q152.408 1023.56 150.579 1027.13 Q148.774 1030.67 148.774 1037.8 Q148.774 1044.9 150.579 1048.47 Q152.408 1052.01 156.019 1052.01 Q159.653 1052.01 161.459 1048.47 Q163.288 1044.9 163.288 1037.8 Q163.288 1030.67 161.459 1027.13 Q159.653 1023.56 156.019 1023.56 M156.019 1019.86 Q161.829 1019.86 164.885 1024.47 Q167.964 1029.05 167.964 1037.8 Q167.964 1046.53 164.885 1051.13 Q161.829 1055.71 156.019 1055.71 Q150.209 1055.71 147.13 1051.13 Q144.075 1046.53 144.075 1037.8 Q144.075 1029.05 147.13 1024.47 Q150.209 1019.86 156.019 1019.86 Z" fill="#000000" fill-rule="nonzero" fill-opacity="1" /><path clip-path="url(#clip650)" d="M186.181 1023.56 Q182.57 1023.56 180.741 1027.13 Q178.936 1030.67 178.936 1037.8 Q178.936 1044.9 180.741 1048.47 Q182.57 1052.01 186.181 1052.01 Q189.815 1052.01 191.621 1048.47 Q193.45 1044.9 193.45 1037.8 Q193.45 1030.67 191.621 1027.13 Q189.815 1023.56 186.181 1023.56 M186.181 1019.86 Q191.991 1019.86 195.047 1024.47 Q198.125 1029.05 198.125 1037.8 Q198.125 1046.53 195.047 1051.13 Q191.991 1055.71 186.181 1055.71 Q180.371 1055.71 177.292 1051.13 Q174.237 1046.53 174.237 1037.8 Q174.237 1029.05 177.292 1024.47 Q180.371 1019.86 186.181 1019.86 Z" fill="#000000" fill-rule="nonzero" fill-opacity="1" /><path clip-path="url(#clip650)" d="M119.885 665.692 L136.204 665.692 L136.204 669.627 L114.26 669.627 L114.26 665.692 Q116.922 662.938 121.505 658.308 Q126.112 653.655 127.292 652.313 Q129.538 649.79 130.417 648.054 Q131.32 646.294 131.32 644.604 Q131.32 641.85 129.376 640.114 Q127.455 638.378 124.353 638.378 Q122.154 638.378 119.7 639.142 Q117.269 639.905 114.492 641.456 L114.492 636.734 Q117.316 635.6 119.769 635.021 Q122.223 634.442 124.26 634.442 Q129.63 634.442 132.825 637.128 Q136.019 639.813 136.019 644.304 Q136.019 646.433 135.209 648.354 Q134.422 650.253 132.316 652.845 Q131.737 653.516 128.635 656.734 Q125.533 659.928 119.885 665.692 Z" fill="#000000" fill-rule="nonzero" fill-opacity="1" /><path clip-path="url(#clip650)" d="M156.019 638.146 Q152.408 638.146 150.579 641.711 Q148.774 645.253 148.774 652.382 Q148.774 659.489 150.579 663.053 Q152.408 666.595 156.019 666.595 Q159.653 666.595 161.459 663.053 Q163.288 659.489 163.288 652.382 Q163.288 645.253 161.459 641.711 Q159.653 638.146 156.019 638.146 M156.019 634.442 Q161.829 634.442 164.885 639.049 Q167.964 643.632 167.964 652.382 Q167.964 661.109 164.885 665.715 Q161.829 670.299 156.019 670.299 Q150.209 670.299 147.13 665.715 Q144.075 661.109 144.075 652.382 Q144.075 643.632 147.13 639.049 Q150.209 634.442 156.019 634.442 Z" fill="#000000" fill-rule="nonzero" fill-opacity="1" /><path clip-path="url(#clip650)" d="M186.181 638.146 Q182.57 638.146 180.741 641.711 Q178.936 645.253 178.936 652.382 Q178.936 659.489 180.741 663.053 Q182.57 666.595 186.181 666.595 Q189.815 666.595 191.621 663.053 Q193.45 659.489 193.45 652.382 Q193.45 645.253 191.621 641.711 Q189.815 638.146 186.181 638.146 M186.181 634.442 Q191.991 634.442 195.047 639.049 Q198.125 643.632 198.125 652.382 Q198.125 661.109 195.047 665.715 Q191.991 670.299 186.181 670.299 Q180.371 670.299 177.292 665.715 Q174.237 661.109 174.237 652.382 Q174.237 643.632 177.292 639.049 Q180.371 634.442 186.181 634.442 Z" fill="#000000" fill-rule="nonzero" fill-opacity="1" /><path clip-path="url(#clip650)" d="M130.024 265.577 Q133.38 266.295 135.255 268.563 Q137.154 270.832 137.154 274.165 Q137.154 279.281 133.635 282.082 Q130.117 284.883 123.635 284.883 Q121.459 284.883 119.144 284.443 Q116.853 284.026 114.399 283.17 L114.399 278.656 Q116.343 279.79 118.658 280.369 Q120.973 280.947 123.496 280.947 Q127.894 280.947 130.186 279.211 Q132.501 277.475 132.501 274.165 Q132.501 271.11 130.348 269.397 Q128.218 267.66 124.399 267.66 L120.371 267.66 L120.371 263.818 L124.584 263.818 Q128.033 263.818 129.862 262.452 Q131.691 261.063 131.691 258.471 Q131.691 255.809 129.792 254.397 Q127.917 252.961 124.399 252.961 Q122.478 252.961 120.279 253.378 Q118.08 253.795 115.441 254.674 L115.441 250.508 Q118.103 249.767 120.418 249.397 Q122.755 249.026 124.816 249.026 Q130.14 249.026 133.242 251.457 Q136.343 253.864 136.343 257.985 Q136.343 260.855 134.7 262.846 Q133.056 264.813 130.024 265.577 Z" fill="#000000" fill-rule="nonzero" fill-opacity="1" /><path clip-path="url(#clip650)" d="M156.019 252.73 Q152.408 252.73 150.579 256.295 Q148.774 259.836 148.774 266.966 Q148.774 274.072 150.579 277.637 Q152.408 281.179 156.019 281.179 Q159.653 281.179 161.459 277.637 Q163.288 274.072 163.288 266.966 Q163.288 259.836 161.459 256.295 Q159.653 252.73 156.019 252.73 M156.019 249.026 Q161.829 249.026 164.885 253.633 Q167.964 258.216 167.964 266.966 Q167.964 275.693 164.885 280.299 Q161.829 284.883 156.019 284.883 Q150.209 284.883 147.13 280.299 Q144.075 275.693 144.075 266.966 Q144.075 258.216 147.13 253.633 Q150.209 249.026 156.019 249.026 Z" fill="#000000" fill-rule="nonzero" fill-opacity="1" /><path clip-path="url(#clip650)" d="M186.181 252.73 Q182.57 252.73 180.741 256.295 Q178.936 259.836 178.936 266.966 Q178.936 274.072 180.741 277.637 Q182.57 281.179 186.181 281.179 Q189.815 281.179 191.621 277.637 Q193.45 274.072 193.45 266.966 Q193.45 259.836 191.621 256.295 Q189.815 252.73 186.181 252.73 M186.181 249.026 Q191.991 249.026 195.047 253.633 Q198.125 258.216 198.125 266.966 Q198.125 275.693 195.047 280.299 Q191.991 284.883 186.181 284.883 Q180.371 284.883 177.292 280.299 Q174.237 275.693 174.237 266.966 Q174.237 258.216 177.292 253.633 Q180.371 249.026 186.181 249.026 Z" fill="#000000" fill-rule="nonzero" fill-opacity="1" /><path clip-path="url(#clip650)" d="M16.4842 1048.96 L16.4842 1040.3 L56.238 1019.23 L16.4842 1019.23 L16.4842 1013 L64.0042 1013 L64.0042 1021.65 L24.2503 1042.72 L64.0042 1042.72 L64.0042 1048.96 L16.4842 1048.96 Z" fill="#000000" fill-rule="nonzero" fill-opacity="1" /><path clip-path="url(#clip650)" d="M49.9359 1001.06 L28.3562 1001.06 L28.3562 995.203 L49.7131 995.203 Q54.7739 995.203 57.3202 993.23 Q59.8346 991.257 59.8346 987.31 Q59.8346 982.567 56.8109 979.83 Q53.7872 977.061 48.5673 977.061 L28.3562 977.061 L28.3562 971.205 L64.0042 971.205 L64.0042 977.061 L58.5296 977.061 Q61.7762 979.194 63.3676 982.026 Q64.9272 984.827 64.9272 988.551 Q64.9272 994.694 61.1078 997.877 Q57.2883 1001.06 49.9359 1001.06 M27.4968 986.323 L27.4968 986.323 Z" fill="#000000" fill-rule="nonzero" fill-opacity="1" /><path clip-path="url(#clip650)" d="M35.1993 931.387 Q31.2526 929.191 29.3747 926.135 Q27.4968 923.08 27.4968 918.942 Q27.4968 913.372 31.4117 910.348 Q35.2948 907.325 42.4881 907.325 L64.0042 907.325 L64.0042 913.213 L42.679 913.213 Q37.5546 913.213 35.072 915.027 Q32.5894 916.841 32.5894 920.565 Q32.5894 925.117 35.6131 927.759 Q38.6368 930.4 43.8567 930.4 L64.0042 930.4 L64.0042 936.289 L42.679 936.289 Q37.5228 936.289 35.072 938.103 Q32.5894 939.917 32.5894 943.705 Q32.5894 948.193 35.6449 950.834 Q38.6686 953.476 43.8567 953.476 L64.0042 953.476 L64.0042 959.364 L28.3562 959.364 L28.3562 953.476 L33.8944 953.476 Q30.616 951.471 29.0564 948.67 Q27.4968 945.869 27.4968 942.018 Q27.4968 938.135 29.4702 935.429 Q31.4436 932.692 35.1993 931.387 Z" fill="#000000" fill-rule="nonzero" fill-opacity="1" /><path clip-path="url(#clip650)" d="M46.212 870.054 Q39.7508 870.054 36.0905 872.727 Q32.3984 875.369 32.3984 880.016 Q32.3984 884.663 36.0905 887.336 Q39.7508 889.978 46.212 889.978 Q52.6732 889.978 56.3653 887.336 Q60.0256 884.663 60.0256 880.016 Q60.0256 875.369 56.3653 872.727 Q52.6732 870.054 46.212 870.054 M33.7671 889.978 Q30.5842 888.132 29.0564 885.331 Q27.4968 882.499 27.4968 878.584 Q27.4968 872.091 32.6531 868.048 Q37.8093 863.974 46.212 863.974 Q54.6147 863.974 59.771 868.048 Q64.9272 872.091 64.9272 878.584 Q64.9272 882.499 63.3994 885.331 Q61.8398 888.132 58.657 889.978 L64.0042 889.978 L64.0042 895.866 L14.479 895.866 L14.479 889.978 L33.7671 889.978 Z" fill="#000000" fill-rule="nonzero" fill-opacity="1" /><path clip-path="url(#clip650)" d="M44.7161 823.775 L47.5806 823.775 L47.5806 850.702 Q53.6281 850.32 56.8109 847.073 Q59.9619 843.795 59.9619 837.97 Q59.9619 834.597 59.1344 831.446 Q58.3069 828.263 56.6518 825.143 L62.1899 825.143 Q63.5267 828.295 64.227 831.605 Q64.9272 834.915 64.9272 838.321 Q64.9272 846.851 59.9619 851.848 Q54.9967 856.813 46.5303 856.813 Q37.7774 856.813 32.6531 852.102 Q27.4968 847.36 27.4968 839.339 Q27.4968 832.146 32.1438 827.976 Q36.7589 823.775 44.7161 823.775 M42.9973 829.631 Q38.1912 829.695 35.3266 832.337 Q32.4621 834.947 32.4621 839.275 Q32.4621 844.177 35.2312 847.137 Q38.0002 850.065 43.0292 850.511 L42.9973 829.631 Z" fill="#000000" fill-rule="nonzero" fill-opacity="1" /><path clip-path="url(#clip650)" d="M33.8307 793.506 Q33.2578 794.493 33.0032 795.67 Q32.7167 796.816 32.7167 798.217 Q32.7167 803.182 35.9632 805.855 Q39.1779 808.497 45.2253 808.497 L64.0042 808.497 L64.0042 814.385 L28.3562 814.385 L28.3562 808.497 L33.8944 808.497 Q30.6479 806.651 29.0883 803.691 Q27.4968 800.731 27.4968 796.498 Q27.4968 795.893 27.5923 795.161 Q27.656 794.429 27.8151 793.538 L33.8307 793.506 Z" fill="#000000" fill-rule="nonzero" fill-opacity="1" /><path clip-path="url(#clip650)" d="M32.4621 752.829 Q32.4621 757.54 36.1542 760.277 Q39.8145 763.014 46.212 763.014 Q52.6095 763.014 56.3017 760.309 Q59.9619 757.572 59.9619 752.829 Q59.9619 748.15 56.2698 745.413 Q52.5777 742.676 46.212 742.676 Q39.8781 742.676 36.186 745.413 Q32.4621 748.15 32.4621 752.829 M27.4968 752.829 Q27.4968 745.19 32.4621 740.83 Q37.4273 736.469 46.212 736.469 Q54.9649 736.469 59.9619 740.83 Q64.9272 745.19 64.9272 752.829 Q64.9272 760.5 59.9619 764.86 Q54.9649 769.189 46.212 769.189 Q37.4273 769.189 32.4621 764.86 Q27.4968 760.5 27.4968 752.829 Z" fill="#000000" fill-rule="nonzero" fill-opacity="1" /><path clip-path="url(#clip650)" d="M14.479 708.715 L19.3487 708.715 L19.3487 714.317 Q19.3487 717.468 20.6219 718.709 Q21.895 719.918 25.2052 719.918 L28.3562 719.918 L28.3562 710.274 L32.9077 710.274 L32.9077 719.918 L64.0042 719.918 L64.0042 725.807 L32.9077 725.807 L32.9077 731.408 L28.3562 731.408 L28.3562 725.807 L25.8736 725.807 Q19.9216 725.807 17.2162 723.038 Q14.479 720.268 14.479 714.253 L14.479 708.715 Z" fill="#000000" fill-rule="nonzero" fill-opacity="1" /><path clip-path="url(#clip650)" d="M29.4065 660.367 L34.9447 660.367 Q33.6716 662.85 33.035 665.523 Q32.3984 668.197 32.3984 671.062 Q32.3984 675.422 33.7352 677.618 Q35.072 679.783 37.7456 679.783 Q39.7826 679.783 40.9603 678.223 Q42.1061 676.663 43.1565 671.953 L43.6021 669.948 Q44.9389 663.709 47.3897 661.099 Q49.8086 658.457 54.1691 658.457 Q59.1344 658.457 62.0308 662.404 Q64.9272 666.319 64.9272 673.194 Q64.9272 676.059 64.3543 679.178 Q63.8132 682.265 62.6992 685.703 L56.6518 685.703 Q58.3387 682.456 59.198 679.305 Q60.0256 676.154 60.0256 673.067 Q60.0256 668.929 58.6251 666.701 Q57.1929 664.473 54.6147 664.473 Q52.2276 664.473 50.9545 666.096 Q49.6813 667.688 48.5037 673.13 L48.0262 675.167 Q46.8804 680.61 44.5251 683.029 Q42.138 685.448 38.0002 685.448 Q32.9713 685.448 30.2341 681.883 Q27.4968 678.318 27.4968 671.762 Q27.4968 668.515 27.9743 665.651 Q28.4517 662.786 29.4065 660.367 Z" fill="#000000" fill-rule="nonzero" fill-opacity="1" /><path clip-path="url(#clip650)" d="M46.0847 632.931 Q46.0847 640.029 47.7079 642.766 Q49.3312 645.503 53.2461 645.503 Q56.3653 645.503 58.2114 643.466 Q60.0256 641.397 60.0256 637.864 Q60.0256 632.995 56.5881 630.066 Q53.1188 627.106 47.3897 627.106 L46.0847 627.106 L46.0847 632.931 M43.6657 621.25 L64.0042 621.25 L64.0042 627.106 L58.5933 627.106 Q61.8398 629.112 63.3994 632.103 Q64.9272 635.095 64.9272 639.424 Q64.9272 644.899 61.8716 648.145 Q58.7843 651.36 53.6281 651.36 Q47.6125 651.36 44.5569 647.349 Q41.5014 643.307 41.5014 635.318 L41.5014 627.106 L40.9285 627.106 Q36.8862 627.106 34.6901 629.78 Q32.4621 632.422 32.4621 637.228 Q32.4621 640.283 33.1941 643.18 Q33.9262 646.076 35.3903 648.75 L29.9795 648.75 Q28.7381 645.535 28.1334 642.511 Q27.4968 639.488 27.4968 636.623 Q27.4968 628.889 31.5072 625.069 Q35.5176 621.25 43.6657 621.25 Z" fill="#000000" fill-rule="nonzero" fill-opacity="1" /><path clip-path="url(#clip650)" d="M35.1993 581.432 Q31.2526 579.236 29.3747 576.181 Q27.4968 573.125 27.4968 568.987 Q27.4968 563.417 31.4117 560.394 Q35.2948 557.37 42.4881 557.37 L64.0042 557.37 L64.0042 563.258 L42.679 563.258 Q37.5546 563.258 35.072 565.073 Q32.5894 566.887 32.5894 570.611 Q32.5894 575.162 35.6131 577.804 Q38.6368 580.446 43.8567 580.446 L64.0042 580.446 L64.0042 586.334 L42.679 586.334 Q37.5228 586.334 35.072 588.148 Q32.5894 589.962 32.5894 593.75 Q32.5894 598.238 35.6449 600.88 Q38.6686 603.521 43.8567 603.521 L64.0042 603.521 L64.0042 609.41 L28.3562 609.41 L28.3562 603.521 L33.8944 603.521 Q30.616 601.516 29.0564 598.715 Q27.4968 595.914 27.4968 592.063 Q27.4968 588.18 29.4702 585.475 Q31.4436 582.737 35.1993 581.432 Z" fill="#000000" fill-rule="nonzero" fill-opacity="1" /><path clip-path="url(#clip650)" d="M58.657 540.023 L77.5631 540.023 L77.5631 545.912 L28.3562 545.912 L28.3562 540.023 L33.7671 540.023 Q30.5842 538.177 29.0564 535.377 Q27.4968 532.544 27.4968 528.629 Q27.4968 522.136 32.6531 518.094 Q37.8093 514.02 46.212 514.02 Q54.6147 514.02 59.771 518.094 Q64.9272 522.136 64.9272 528.629 Q64.9272 532.544 63.3994 535.377 Q61.8398 538.177 58.657 540.023 M46.212 520.099 Q39.7508 520.099 36.0905 522.772 Q32.3984 525.414 32.3984 530.061 Q32.3984 534.708 36.0905 537.382 Q39.7508 540.023 46.212 540.023 Q52.6732 540.023 56.3653 537.382 Q60.0256 534.708 60.0256 530.061 Q60.0256 525.414 56.3653 522.772 Q52.6732 520.099 46.212 520.099 Z" fill="#000000" fill-rule="nonzero" fill-opacity="1" /><path clip-path="url(#clip650)" d="M14.479 504.312 L14.479 498.455 L64.0042 498.455 L64.0042 504.312 L14.479 504.312 Z" fill="#000000" fill-rule="nonzero" fill-opacity="1" /><path clip-path="url(#clip650)" d="M44.7161 455.71 L47.5806 455.71 L47.5806 482.637 Q53.6281 482.255 56.8109 479.008 Q59.9619 475.73 59.9619 469.905 Q59.9619 466.531 59.1344 463.38 Q58.3069 460.198 56.6518 457.078 L62.1899 457.078 Q63.5267 460.229 64.227 463.54 Q64.9272 466.85 64.9272 470.255 Q64.9272 478.785 59.9619 483.782 Q54.9967 488.748 46.5303 488.748 Q37.7774 488.748 32.6531 484.037 Q27.4968 479.295 27.4968 471.274 Q27.4968 464.081 32.1438 459.911 Q36.7589 455.71 44.7161 455.71 M42.9973 461.566 Q38.1912 461.63 35.3266 464.272 Q32.4621 466.882 32.4621 471.21 Q32.4621 476.112 35.2312 479.072 Q38.0002 482 43.0292 482.446 L42.9973 461.566 Z" fill="#000000" fill-rule="nonzero" fill-opacity="1" /><path clip-path="url(#clip650)" d="M29.4065 423.372 L34.9447 423.372 Q33.6716 425.855 33.035 428.528 Q32.3984 431.202 32.3984 434.066 Q32.3984 438.427 33.7352 440.623 Q35.072 442.787 37.7456 442.787 Q39.7826 442.787 40.9603 441.228 Q42.1061 439.668 43.1565 434.958 L43.6021 432.952 Q44.9389 426.714 47.3897 424.104 Q49.8086 421.462 54.1691 421.462 Q59.1344 421.462 62.0308 425.409 Q64.9272 429.324 64.9272 436.199 Q64.9272 439.063 64.3543 442.183 Q63.8132 445.27 62.6992 448.707 L56.6518 448.707 Q58.3387 445.461 59.198 442.31 Q60.0256 439.159 60.0256 436.071 Q60.0256 431.934 58.6251 429.706 Q57.1929 427.478 54.6147 427.478 Q52.2276 427.478 50.9545 429.101 Q49.6813 430.692 48.5037 436.135 L48.0262 438.172 Q46.8804 443.615 44.5251 446.034 Q42.138 448.453 38.0002 448.453 Q32.9713 448.453 30.2341 444.888 Q27.4968 441.323 27.4968 434.767 Q27.4968 431.52 27.9743 428.655 Q28.4517 425.791 29.4065 423.372 Z" fill="#000000" fill-rule="nonzero" fill-opacity="1" /><path clip-path="url(#clip652)" d="M350.654 47.2441 L350.654 1423.18 L1188.69 1423.18 L1188.69 47.2441 L350.654 47.2441 L350.654 47.2441  Z" fill="#009af9" fill-rule="evenodd" fill-opacity="1"/>
<polyline clip-path="url(#clip652)" style="stroke:#000000; stroke-linecap:round; stroke-linejoin:round; stroke-width:4; stroke-opacity:1; fill:none" points="350.654,47.2441 350.654,1423.18 1188.69,1423.18 1188.69,47.2441 350.654,47.2441 "/>
<path clip-path="url(#clip652)" d="M1398.19 606.098 L1398.19 1423.18 L2236.23 1423.18 L2236.23 606.098 L1398.19 606.098 L1398.19 606.098  Z" fill="#009af9" fill-rule="evenodd" fill-opacity="1"/>
<polyline clip-path="url(#clip652)" style="stroke:#000000; stroke-linecap:round; stroke-linejoin:round; stroke-width:4; stroke-opacity:1; fill:none" points="1398.19,606.098 1398.19,1423.18 2236.23,1423.18 2236.23,606.098 1398.19,606.098 "/>
<circle clip-path="url(#clip652)" style="fill:#009af9; stroke:none; fill-opacity:0" cx="769.67" cy="47.2441" r="2"/>
<circle clip-path="url(#clip652)" style="fill:#009af9; stroke:none; fill-opacity:0" cx="1817.21" cy="606.098" r="2"/>
</svg>
