<?xml version="1.0" encoding="utf-8"?>
<svg xmlns="http://www.w3.org/2000/svg" xmlns:xlink="http://www.w3.org/1999/xlink" width="600" height="400" viewBox="0 0 2400 1600">
<defs>
  <clipPath id="clip200">
    <rect x="0" y="0" width="2400" height="1600"/>
  </clipPath>
</defs>
<path clip-path="url(#clip200)" d="
M0 1600 L2400 1600 L2400 0 L0 0  Z
  " fill="#ffffff" fill-rule="evenodd" fill-opacity="1"/>
<defs>
  <clipPath id="clip201">
    <rect x="480" y="0" width="1681" height="1600"/>
  </clipPath>
</defs>
<path clip-path="url(#clip200)" d="
M249.542 1423.18 L2352.76 1423.18 L2352.76 47.2441 L249.542 47.2441  Z
  " fill="#ffffff" fill-rule="evenodd" fill-opacity="1"/>
<defs>
  <clipPath id="clip202">
    <rect x="249" y="47" width="2104" height="1377"/>
  </clipPath>
</defs>
<polyline clip-path="url(#clip202)" style="stroke:#000000; stroke-linecap:butt; stroke-linejoin:round; stroke-width:2; stroke-opacity:0.1; fill:none" points="
  309.067,1423.18 309.067,47.2441 
  "/>
<polyline clip-path="url(#clip202)" style="stroke:#000000; stroke-linecap:butt; stroke-linejoin:round; stroke-width:2; stroke-opacity:0.1; fill:none" points="
  805.108,1423.18 805.108,47.2441 
  "/>
<polyline clip-path="url(#clip202)" style="stroke:#000000; stroke-linecap:butt; stroke-linejoin:round; stroke-width:2; stroke-opacity:0.1; fill:none" points="
  1301.15,1423.18 1301.15,47.2441 
  "/>
<polyline clip-path="url(#clip202)" style="stroke:#000000; stroke-linecap:butt; stroke-linejoin:round; stroke-width:2; stroke-opacity:0.1; fill:none" points="
  1797.19,1423.18 1797.19,47.2441 
  "/>
<polyline clip-path="url(#clip202)" style="stroke:#000000; stroke-linecap:butt; stroke-linejoin:round; stroke-width:2; stroke-opacity:0.1; fill:none" points="
  2293.23,1423.18 2293.23,47.2441 
  "/>
<polyline clip-path="url(#clip200)" style="stroke:#000000; stroke-linecap:butt; stroke-linejoin:round; stroke-width:4; stroke-opacity:1; fill:none" points="
  249.542,1423.18 2352.76,1423.18 
  "/>
<polyline clip-path="url(#clip200)" style="stroke:#000000; stroke-linecap:butt; stroke-linejoin:round; stroke-width:4; stroke-opacity:1; fill:none" points="
  309.067,1423.18 309.067,1404.28 
  "/>
<polyline clip-path="url(#clip200)" style="stroke:#000000; stroke-linecap:butt; stroke-linejoin:round; stroke-width:4; stroke-opacity:1; fill:none" points="
  805.108,1423.18 805.108,1404.28 
  "/>
<polyline clip-path="url(#clip200)" style="stroke:#000000; stroke-linecap:butt; stroke-linejoin:round; stroke-width:4; stroke-opacity:1; fill:none" points="
  1301.15,1423.18 1301.15,1404.28 
  "/>
<polyline clip-path="url(#clip200)" style="stroke:#000000; stroke-linecap:butt; stroke-linejoin:round; stroke-width:4; stroke-opacity:1; fill:none" points="
  1797.19,1423.18 1797.19,1404.28 
  "/>
<polyline clip-path="url(#clip200)" style="stroke:#000000; stroke-linecap:butt; stroke-linejoin:round; stroke-width:4; stroke-opacity:1; fill:none" points="
  2293.23,1423.18 2293.23,1404.28 
  "/>
<path clip-path="url(#clip200)" d="M271.37 1454.1 Q267.759 1454.1 265.931 1457.66 Q264.125 1461.2 264.125 1468.33 Q264.125 1475.44 265.931 1479.01 Q267.759 1482.55 271.37 1482.55 Q275.005 1482.55 276.81 1479.01 Q278.639 1475.44 278.639 1468.33 Q278.639 1461.2 276.81 1457.66 Q275.005 1454.1 271.37 1454.1 M271.37 1450.39 Q277.181 1450.39 280.236 1455 Q283.315 1459.58 283.315 1468.33 Q283.315 1477.06 280.236 1481.67 Q277.181 1486.25 271.37 1486.25 Q265.56 1486.25 262.482 1481.67 Q259.426 1477.06 259.426 1468.33 Q259.426 1459.58 262.482 1455 Q265.56 1450.39 271.37 1450.39 Z" fill="#000000" fill-rule="evenodd" fill-opacity="1" /><path clip-path="url(#clip200)" d="M291.532 1479.7 L296.417 1479.7 L296.417 1485.58 L291.532 1485.58 L291.532 1479.7 Z" fill="#000000" fill-rule="evenodd" fill-opacity="1" /><path clip-path="url(#clip200)" d="M316.602 1454.1 Q312.991 1454.1 311.162 1457.66 Q309.356 1461.2 309.356 1468.33 Q309.356 1475.44 311.162 1479.01 Q312.991 1482.55 316.602 1482.55 Q320.236 1482.55 322.041 1479.01 Q323.87 1475.44 323.87 1468.33 Q323.87 1461.2 322.041 1457.66 Q320.236 1454.1 316.602 1454.1 M316.602 1450.39 Q322.412 1450.39 325.467 1455 Q328.546 1459.58 328.546 1468.33 Q328.546 1477.06 325.467 1481.67 Q322.412 1486.25 316.602 1486.25 Q310.791 1486.25 307.713 1481.67 Q304.657 1477.06 304.657 1468.33 Q304.657 1459.58 307.713 1455 Q310.791 1450.39 316.602 1450.39 Z" fill="#000000" fill-rule="evenodd" fill-opacity="1" /><path clip-path="url(#clip200)" d="M346.764 1454.1 Q343.152 1454.1 341.324 1457.66 Q339.518 1461.2 339.518 1468.33 Q339.518 1475.44 341.324 1479.01 Q343.152 1482.55 346.764 1482.55 Q350.398 1482.55 352.203 1479.01 Q354.032 1475.44 354.032 1468.33 Q354.032 1461.2 352.203 1457.66 Q350.398 1454.1 346.764 1454.1 M346.764 1450.39 Q352.574 1450.39 355.629 1455 Q358.708 1459.58 358.708 1468.33 Q358.708 1477.06 355.629 1481.67 Q352.574 1486.25 346.764 1486.25 Q340.953 1486.25 337.875 1481.67 Q334.819 1477.06 334.819 1468.33 Q334.819 1459.58 337.875 1455 Q340.953 1450.39 346.764 1450.39 Z" fill="#000000" fill-rule="evenodd" fill-opacity="1" /><path clip-path="url(#clip200)" d="M767.909 1454.1 Q764.298 1454.1 762.469 1457.66 Q760.664 1461.2 760.664 1468.33 Q760.664 1475.44 762.469 1479.01 Q764.298 1482.55 767.909 1482.55 Q771.543 1482.55 773.349 1479.01 Q775.178 1475.44 775.178 1468.33 Q775.178 1461.2 773.349 1457.66 Q771.543 1454.1 767.909 1454.1 M767.909 1450.39 Q773.719 1450.39 776.775 1455 Q779.853 1459.58 779.853 1468.33 Q779.853 1477.06 776.775 1481.67 Q773.719 1486.25 767.909 1486.25 Q762.099 1486.25 759.02 1481.67 Q755.965 1477.06 755.965 1468.33 Q755.965 1459.58 759.02 1455 Q762.099 1450.39 767.909 1450.39 Z" fill="#000000" fill-rule="evenodd" fill-opacity="1" /><path clip-path="url(#clip200)" d="M788.071 1479.7 L792.955 1479.7 L792.955 1485.58 L788.071 1485.58 L788.071 1479.7 Z" fill="#000000" fill-rule="evenodd" fill-opacity="1" /><path clip-path="url(#clip200)" d="M807.168 1481.64 L823.487 1481.64 L823.487 1485.58 L801.543 1485.58 L801.543 1481.64 Q804.205 1478.89 808.788 1474.26 Q813.395 1469.61 814.576 1468.27 Q816.821 1465.74 817.7 1464.01 Q818.603 1462.25 818.603 1460.56 Q818.603 1457.8 816.659 1456.07 Q814.738 1454.33 811.636 1454.33 Q809.437 1454.33 806.983 1455.09 Q804.552 1455.86 801.775 1457.41 L801.775 1452.69 Q804.599 1451.55 807.052 1450.97 Q809.506 1450.39 811.543 1450.39 Q816.913 1450.39 820.108 1453.08 Q823.302 1455.77 823.302 1460.26 Q823.302 1462.39 822.492 1464.31 Q821.705 1466.2 819.599 1468.8 Q819.02 1469.47 815.918 1472.69 Q812.816 1475.88 807.168 1481.64 Z" fill="#000000" fill-rule="evenodd" fill-opacity="1" /><path clip-path="url(#clip200)" d="M833.349 1451.02 L851.705 1451.02 L851.705 1454.96 L837.631 1454.96 L837.631 1463.43 Q838.649 1463.08 839.668 1462.92 Q840.686 1462.73 841.705 1462.73 Q847.492 1462.73 850.872 1465.9 Q854.251 1469.08 854.251 1474.49 Q854.251 1480.07 850.779 1483.17 Q847.307 1486.25 840.987 1486.25 Q838.811 1486.25 836.543 1485.88 Q834.298 1485.51 831.89 1484.77 L831.89 1480.07 Q833.974 1481.2 836.196 1481.76 Q838.418 1482.32 840.895 1482.32 Q844.899 1482.32 847.237 1480.21 Q849.575 1478.1 849.575 1474.49 Q849.575 1470.88 847.237 1468.77 Q844.899 1466.67 840.895 1466.67 Q839.02 1466.67 837.145 1467.08 Q835.293 1467.5 833.349 1468.38 L833.349 1451.02 Z" fill="#000000" fill-rule="evenodd" fill-opacity="1" /><path clip-path="url(#clip200)" d="M1263.45 1454.1 Q1259.84 1454.1 1258.01 1457.66 Q1256.21 1461.2 1256.21 1468.33 Q1256.21 1475.44 1258.01 1479.01 Q1259.84 1482.55 1263.45 1482.55 Q1267.09 1482.55 1268.89 1479.01 Q1270.72 1475.44 1270.72 1468.33 Q1270.72 1461.2 1268.89 1457.66 Q1267.09 1454.1 1263.45 1454.1 M1263.45 1450.39 Q1269.26 1450.39 1272.32 1455 Q1275.4 1459.58 1275.4 1468.33 Q1275.4 1477.06 1272.32 1481.67 Q1269.26 1486.25 1263.45 1486.25 Q1257.64 1486.25 1254.56 1481.67 Q1251.51 1477.06 1251.51 1468.33 Q1251.51 1459.58 1254.56 1455 Q1257.64 1450.39 1263.45 1450.39 Z" fill="#000000" fill-rule="evenodd" fill-opacity="1" /><path clip-path="url(#clip200)" d="M1283.61 1479.7 L1288.5 1479.7 L1288.5 1485.58 L1283.61 1485.58 L1283.61 1479.7 Z" fill="#000000" fill-rule="evenodd" fill-opacity="1" /><path clip-path="url(#clip200)" d="M1298.73 1451.02 L1317.09 1451.02 L1317.09 1454.96 L1303.01 1454.96 L1303.01 1463.43 Q1304.03 1463.08 1305.05 1462.92 Q1306.07 1462.73 1307.09 1462.73 Q1312.87 1462.73 1316.25 1465.9 Q1319.63 1469.08 1319.63 1474.49 Q1319.63 1480.07 1316.16 1483.17 Q1312.69 1486.25 1306.37 1486.25 Q1304.19 1486.25 1301.92 1485.88 Q1299.68 1485.51 1297.27 1484.77 L1297.27 1480.07 Q1299.35 1481.2 1301.58 1481.76 Q1303.8 1482.32 1306.28 1482.32 Q1310.28 1482.32 1312.62 1480.21 Q1314.96 1478.1 1314.96 1474.49 Q1314.96 1470.88 1312.62 1468.77 Q1310.28 1466.67 1306.28 1466.67 Q1304.4 1466.67 1302.53 1467.08 Q1300.67 1467.5 1298.73 1468.38 L1298.73 1451.02 Z" fill="#000000" fill-rule="evenodd" fill-opacity="1" /><path clip-path="url(#clip200)" d="M1338.85 1454.1 Q1335.23 1454.1 1333.41 1457.66 Q1331.6 1461.2 1331.6 1468.33 Q1331.6 1475.44 1333.41 1479.01 Q1335.23 1482.55 1338.85 1482.55 Q1342.48 1482.55 1344.29 1479.01 Q1346.11 1475.44 1346.11 1468.33 Q1346.11 1461.2 1344.29 1457.66 Q1342.48 1454.1 1338.85 1454.1 M1338.85 1450.39 Q1344.66 1450.39 1347.71 1455 Q1350.79 1459.58 1350.79 1468.33 Q1350.79 1477.06 1347.71 1481.67 Q1344.66 1486.25 1338.85 1486.25 Q1333.04 1486.25 1329.96 1481.67 Q1326.9 1477.06 1326.9 1468.33 Q1326.9 1459.58 1329.96 1455 Q1333.04 1450.39 1338.85 1450.39 Z" fill="#000000" fill-rule="evenodd" fill-opacity="1" /><path clip-path="url(#clip200)" d="M1759.99 1454.1 Q1756.38 1454.1 1754.55 1457.66 Q1752.75 1461.2 1752.75 1468.33 Q1752.75 1475.44 1754.55 1479.01 Q1756.38 1482.55 1759.99 1482.55 Q1763.63 1482.55 1765.43 1479.01 Q1767.26 1475.44 1767.26 1468.33 Q1767.26 1461.2 1765.43 1457.66 Q1763.63 1454.1 1759.99 1454.1 M1759.99 1450.39 Q1765.8 1450.39 1768.86 1455 Q1771.94 1459.58 1771.94 1468.33 Q1771.94 1477.06 1768.86 1481.67 Q1765.8 1486.25 1759.99 1486.25 Q1754.18 1486.25 1751.1 1481.67 Q1748.05 1477.06 1748.05 1468.33 Q1748.05 1459.58 1751.1 1455 Q1754.18 1450.39 1759.99 1450.39 Z" fill="#000000" fill-rule="evenodd" fill-opacity="1" /><path clip-path="url(#clip200)" d="M1780.15 1479.7 L1785.04 1479.7 L1785.04 1485.58 L1780.15 1485.58 L1780.15 1479.7 Z" fill="#000000" fill-rule="evenodd" fill-opacity="1" /><path clip-path="url(#clip200)" d="M1794.04 1451.02 L1816.26 1451.02 L1816.26 1453.01 L1803.72 1485.58 L1798.83 1485.58 L1810.64 1454.96 L1794.04 1454.96 L1794.04 1451.02 Z" fill="#000000" fill-rule="evenodd" fill-opacity="1" /><path clip-path="url(#clip200)" d="M1825.43 1451.02 L1843.79 1451.02 L1843.79 1454.96 L1829.71 1454.96 L1829.71 1463.43 Q1830.73 1463.08 1831.75 1462.92 Q1832.77 1462.73 1833.79 1462.73 Q1839.57 1462.73 1842.95 1465.9 Q1846.33 1469.08 1846.33 1474.49 Q1846.33 1480.07 1842.86 1483.17 Q1839.39 1486.25 1833.07 1486.25 Q1830.89 1486.25 1828.62 1485.88 Q1826.38 1485.51 1823.97 1484.77 L1823.97 1480.07 Q1826.06 1481.2 1828.28 1481.76 Q1830.5 1482.32 1832.98 1482.32 Q1836.98 1482.32 1839.32 1480.21 Q1841.66 1478.1 1841.66 1474.49 Q1841.66 1470.88 1839.32 1468.77 Q1836.98 1466.67 1832.98 1466.67 Q1831.1 1466.67 1829.23 1467.08 Q1827.38 1467.5 1825.43 1468.38 L1825.43 1451.02 Z" fill="#000000" fill-rule="evenodd" fill-opacity="1" /><path clip-path="url(#clip200)" d="M2245.3 1481.64 L2252.94 1481.64 L2252.94 1455.28 L2244.63 1456.95 L2244.63 1452.69 L2252.9 1451.02 L2257.57 1451.02 L2257.57 1481.64 L2265.21 1481.64 L2265.21 1485.58 L2245.3 1485.58 L2245.3 1481.64 Z" fill="#000000" fill-rule="evenodd" fill-opacity="1" /><path clip-path="url(#clip200)" d="M2274.65 1479.7 L2279.54 1479.7 L2279.54 1485.58 L2274.65 1485.58 L2274.65 1479.7 Z" fill="#000000" fill-rule="evenodd" fill-opacity="1" /><path clip-path="url(#clip200)" d="M2299.72 1454.1 Q2296.11 1454.1 2294.28 1457.66 Q2292.48 1461.2 2292.48 1468.33 Q2292.48 1475.44 2294.28 1479.01 Q2296.11 1482.55 2299.72 1482.55 Q2303.36 1482.55 2305.16 1479.01 Q2306.99 1475.44 2306.99 1468.33 Q2306.99 1461.2 2305.16 1457.66 Q2303.36 1454.1 2299.72 1454.1 M2299.72 1450.39 Q2305.53 1450.39 2308.59 1455 Q2311.67 1459.58 2311.67 1468.33 Q2311.67 1477.06 2308.59 1481.67 Q2305.53 1486.25 2299.72 1486.25 Q2293.91 1486.25 2290.84 1481.67 Q2287.78 1477.06 2287.78 1468.33 Q2287.78 1459.58 2290.84 1455 Q2293.91 1450.39 2299.72 1450.39 Z" fill="#000000" fill-rule="evenodd" fill-opacity="1" /><path clip-path="url(#clip200)" d="M2329.89 1454.1 Q2326.27 1454.1 2324.45 1457.66 Q2322.64 1461.2 2322.64 1468.33 Q2322.64 1475.44 2324.45 1479.01 Q2326.27 1482.55 2329.89 1482.55 Q2333.52 1482.55 2335.33 1479.01 Q2337.15 1475.44 2337.15 1468.33 Q2337.15 1461.2 2335.33 1457.66 Q2333.52 1454.1 2329.89 1454.1 M2329.89 1450.39 Q2335.7 1450.39 2338.75 1455 Q2341.83 1459.58 2341.83 1468.33 Q2341.83 1477.06 2338.75 1481.67 Q2335.7 1486.25 2329.89 1486.25 Q2324.08 1486.25 2321 1481.67 Q2317.94 1477.06 2317.94 1468.33 Q2317.94 1459.58 2321 1455 Q2324.08 1450.39 2329.89 1450.39 Z" fill="#000000" fill-rule="evenodd" fill-opacity="1" /><path clip-path="url(#clip200)" d="M1034.03 1518.52 L1034.03 1523.39 L1028.43 1523.39 Q1025.28 1523.39 1024.03 1524.66 Q1022.82 1525.93 1022.82 1529.24 L1022.82 1532.4 L1032.47 1532.4 L1032.47 1536.95 L1022.82 1536.95 L1022.82 1568.04 L1016.94 1568.04 L1016.94 1536.95 L1011.33 1536.95 L1011.33 1532.4 L1016.94 1532.4 L1016.94 1529.91 Q1016.94 1523.96 1019.71 1521.26 Q1022.47 1518.52 1028.49 1518.52 L1034.03 1518.52 Z" fill="#000000" fill-rule="evenodd" fill-opacity="1" /><path clip-path="url(#clip200)" d="M1055.13 1550.12 Q1048.03 1550.12 1045.3 1551.75 Q1042.56 1553.37 1042.56 1557.29 Q1042.56 1560.4 1044.6 1562.25 Q1046.66 1564.07 1050.2 1564.07 Q1055.07 1564.07 1057.99 1560.63 Q1060.95 1557.16 1060.95 1551.43 L1060.95 1550.12 L1055.13 1550.12 M1066.81 1547.71 L1066.81 1568.04 L1060.95 1568.04 L1060.95 1562.63 Q1058.95 1565.88 1055.96 1567.44 Q1052.97 1568.97 1048.64 1568.97 Q1043.16 1568.97 1039.92 1565.91 Q1036.7 1562.82 1036.7 1557.67 Q1036.7 1551.65 1040.71 1548.6 Q1044.75 1545.54 1052.74 1545.54 L1060.95 1545.54 L1060.95 1544.97 Q1060.95 1540.93 1058.28 1538.73 Q1055.64 1536.5 1050.83 1536.5 Q1047.78 1536.5 1044.88 1537.23 Q1041.99 1537.97 1039.31 1539.43 L1039.31 1534.02 Q1042.53 1532.78 1045.55 1532.17 Q1048.57 1531.54 1051.44 1531.54 Q1059.17 1531.54 1062.99 1535.55 Q1066.81 1539.56 1066.81 1547.71 Z" fill="#000000" fill-rule="evenodd" fill-opacity="1" /><path clip-path="url(#clip200)" d="M1078.87 1518.52 L1084.73 1518.52 L1084.73 1568.04 L1078.87 1568.04 L1078.87 1518.52 Z" fill="#000000" fill-rule="evenodd" fill-opacity="1" /><path clip-path="url(#clip200)" d="M1119.71 1533.45 L1119.71 1538.98 Q1117.23 1537.71 1114.55 1537.07 Q1111.88 1536.44 1109.02 1536.44 Q1104.66 1536.44 1102.46 1537.77 Q1100.3 1539.11 1100.3 1541.79 Q1100.3 1543.82 1101.85 1545 Q1103.41 1546.15 1108.12 1547.2 L1110.13 1547.64 Q1116.37 1548.98 1118.98 1551.43 Q1121.62 1553.85 1121.62 1558.21 Q1121.62 1563.17 1117.67 1566.07 Q1113.76 1568.97 1106.88 1568.97 Q1104.02 1568.97 1100.9 1568.39 Q1097.81 1567.85 1094.37 1566.74 L1094.37 1560.69 Q1097.62 1562.38 1100.77 1563.24 Q1103.92 1564.07 1107.01 1564.07 Q1111.15 1564.07 1113.38 1562.66 Q1115.6 1561.23 1115.6 1558.65 Q1115.6 1556.27 1113.98 1554.99 Q1112.39 1553.72 1106.95 1552.54 L1104.91 1552.07 Q1099.47 1550.92 1097.05 1548.56 Q1094.63 1546.18 1094.63 1542.04 Q1094.63 1537.01 1098.19 1534.27 Q1101.76 1531.54 1108.32 1531.54 Q1111.56 1531.54 1114.43 1532.01 Q1117.29 1532.49 1119.71 1533.45 Z" fill="#000000" fill-rule="evenodd" fill-opacity="1" /><path clip-path="url(#clip200)" d="M1161.44 1548.76 L1161.44 1551.62 L1134.51 1551.62 Q1134.89 1557.67 1138.14 1560.85 Q1141.42 1564 1147.24 1564 Q1150.62 1564 1153.77 1563.17 Q1156.95 1562.35 1160.07 1560.69 L1160.07 1566.23 Q1156.92 1567.57 1153.61 1568.27 Q1150.3 1568.97 1146.89 1568.97 Q1138.36 1568.97 1133.36 1564 Q1128.4 1559.04 1128.4 1550.57 Q1128.4 1541.82 1133.11 1536.69 Q1137.85 1531.54 1145.87 1531.54 Q1153.07 1531.54 1157.24 1536.18 Q1161.44 1540.8 1161.44 1548.76 M1155.58 1547.04 Q1155.52 1542.23 1152.88 1539.37 Q1150.27 1536.5 1145.94 1536.5 Q1141.04 1536.5 1138.08 1539.27 Q1135.15 1542.04 1134.7 1547.07 L1155.58 1547.04 Z" fill="#000000" fill-rule="evenodd" fill-opacity="1" /><path clip-path="url(#clip200)" d="M1197.44 1562.7 L1197.44 1581.6 L1191.55 1581.6 L1191.55 1532.4 L1197.44 1532.4 L1197.44 1537.81 Q1199.28 1534.62 1202.08 1533.1 Q1204.92 1531.54 1208.83 1531.54 Q1215.32 1531.54 1219.37 1536.69 Q1223.44 1541.85 1223.44 1550.25 Q1223.44 1558.65 1219.37 1563.81 Q1215.32 1568.97 1208.83 1568.97 Q1204.92 1568.97 1202.08 1567.44 Q1199.28 1565.88 1197.44 1562.7 M1217.36 1550.25 Q1217.36 1543.79 1214.69 1540.13 Q1212.04 1536.44 1207.4 1536.44 Q1202.75 1536.44 1200.08 1540.13 Q1197.44 1543.79 1197.44 1550.25 Q1197.44 1556.71 1200.08 1560.4 Q1202.75 1564.07 1207.4 1564.07 Q1212.04 1564.07 1214.69 1560.4 Q1217.36 1556.71 1217.36 1550.25 Z" fill="#000000" fill-rule="evenodd" fill-opacity="1" /><path clip-path="url(#clip200)" d="M1246.96 1536.5 Q1242.25 1536.5 1239.51 1540.19 Q1236.78 1543.85 1236.78 1550.25 Q1236.78 1556.65 1239.48 1560.34 Q1242.22 1564 1246.96 1564 Q1251.64 1564 1254.38 1560.31 Q1257.11 1556.62 1257.11 1550.25 Q1257.11 1543.92 1254.38 1540.23 Q1251.64 1536.5 1246.96 1536.5 M1246.96 1531.54 Q1254.6 1531.54 1258.96 1536.5 Q1263.32 1541.47 1263.32 1550.25 Q1263.32 1559 1258.96 1564 Q1254.6 1568.97 1246.96 1568.97 Q1239.29 1568.97 1234.93 1564 Q1230.6 1559 1230.6 1550.25 Q1230.6 1541.47 1234.93 1536.5 Q1239.29 1531.54 1246.96 1531.54 Z" fill="#000000" fill-rule="evenodd" fill-opacity="1" /><path clip-path="url(#clip200)" d="M1295.75 1533.45 L1295.75 1538.98 Q1293.27 1537.71 1290.6 1537.07 Q1287.92 1536.44 1285.06 1536.44 Q1280.7 1536.44 1278.5 1537.77 Q1276.34 1539.11 1276.34 1541.79 Q1276.34 1543.82 1277.9 1545 Q1279.46 1546.15 1284.17 1547.2 L1286.17 1547.64 Q1292.41 1548.98 1295.02 1551.43 Q1297.66 1553.85 1297.66 1558.21 Q1297.66 1563.17 1293.72 1566.07 Q1289.8 1568.97 1282.93 1568.97 Q1280.06 1568.97 1276.94 1568.39 Q1273.86 1567.85 1270.42 1566.74 L1270.42 1560.69 Q1273.67 1562.38 1276.82 1563.24 Q1279.97 1564.07 1283.05 1564.07 Q1287.19 1564.07 1289.42 1562.66 Q1291.65 1561.23 1291.65 1558.65 Q1291.65 1556.27 1290.02 1554.99 Q1288.43 1553.72 1282.99 1552.54 L1280.95 1552.07 Q1275.51 1550.92 1273.09 1548.56 Q1270.67 1546.18 1270.67 1542.04 Q1270.67 1537.01 1274.24 1534.27 Q1277.8 1531.54 1284.36 1531.54 Q1287.61 1531.54 1290.47 1532.01 Q1293.34 1532.49 1295.75 1533.45 Z" fill="#000000" fill-rule="evenodd" fill-opacity="1" /><path clip-path="url(#clip200)" d="M1306.99 1532.4 L1312.85 1532.4 L1312.85 1568.04 L1306.99 1568.04 L1306.99 1532.4 M1306.99 1518.52 L1312.85 1518.52 L1312.85 1525.93 L1306.99 1525.93 L1306.99 1518.52 Z" fill="#000000" fill-rule="evenodd" fill-opacity="1" /><path clip-path="url(#clip200)" d="M1330.89 1522.27 L1330.89 1532.4 L1342.96 1532.4 L1342.96 1536.95 L1330.89 1536.95 L1330.89 1556.3 Q1330.89 1560.66 1332.07 1561.9 Q1333.28 1563.14 1336.94 1563.14 L1342.96 1563.14 L1342.96 1568.04 L1336.94 1568.04 Q1330.16 1568.04 1327.58 1565.53 Q1325 1562.98 1325 1556.3 L1325 1536.95 L1320.71 1536.95 L1320.71 1532.4 L1325 1532.4 L1325 1522.27 L1330.89 1522.27 Z" fill="#000000" fill-rule="evenodd" fill-opacity="1" /><path clip-path="url(#clip200)" d="M1350.66 1532.4 L1356.51 1532.4 L1356.51 1568.04 L1350.66 1568.04 L1350.66 1532.4 M1350.66 1518.52 L1356.51 1518.52 L1356.51 1525.93 L1350.66 1525.93 L1350.66 1518.52 Z" fill="#000000" fill-rule="evenodd" fill-opacity="1" /><path clip-path="url(#clip200)" d="M1364.57 1532.4 L1370.77 1532.4 L1381.91 1562.31 L1393.05 1532.4 L1399.26 1532.4 L1385.89 1568.04 L1377.94 1568.04 L1364.57 1532.4 Z" fill="#000000" fill-rule="evenodd" fill-opacity="1" /><path clip-path="url(#clip200)" d="M1437.84 1548.76 L1437.84 1551.62 L1410.91 1551.62 Q1411.29 1557.67 1414.54 1560.85 Q1417.82 1564 1423.64 1564 Q1427.01 1564 1430.17 1563.17 Q1433.35 1562.35 1436.47 1560.69 L1436.47 1566.23 Q1433.32 1567.57 1430.01 1568.27 Q1426.7 1568.97 1423.29 1568.97 Q1414.76 1568.97 1409.76 1564 Q1404.8 1559.04 1404.8 1550.57 Q1404.8 1541.82 1409.51 1536.69 Q1414.25 1531.54 1422.27 1531.54 Q1429.47 1531.54 1433.64 1536.18 Q1437.84 1540.8 1437.84 1548.76 M1431.98 1547.04 Q1431.92 1542.23 1429.27 1539.37 Q1426.66 1536.5 1422.34 1536.5 Q1417.43 1536.5 1414.47 1539.27 Q1411.55 1542.04 1411.1 1547.07 L1431.98 1547.04 Z" fill="#000000" fill-rule="evenodd" fill-opacity="1" /><path clip-path="url(#clip200)" d="M1488.83 1537.87 Q1487.84 1537.3 1486.66 1537.04 Q1485.52 1536.76 1484.12 1536.76 Q1479.15 1536.76 1476.48 1540 Q1473.83 1543.22 1473.83 1549.27 L1473.83 1568.04 L1467.95 1568.04 L1467.95 1532.4 L1473.83 1532.4 L1473.83 1537.93 Q1475.68 1534.69 1478.64 1533.13 Q1481.6 1531.54 1485.83 1531.54 Q1486.44 1531.54 1487.17 1531.63 Q1487.9 1531.7 1488.79 1531.85 L1488.83 1537.87 Z" fill="#000000" fill-rule="evenodd" fill-opacity="1" /><path clip-path="url(#clip200)" d="M1511.17 1550.12 Q1504.07 1550.12 1501.33 1551.75 Q1498.6 1553.37 1498.6 1557.29 Q1498.6 1560.4 1500.63 1562.25 Q1502.7 1564.07 1506.24 1564.07 Q1511.11 1564.07 1514.03 1560.63 Q1516.99 1557.16 1516.99 1551.43 L1516.99 1550.12 L1511.17 1550.12 M1522.85 1547.71 L1522.85 1568.04 L1516.99 1568.04 L1516.99 1562.63 Q1514.99 1565.88 1512 1567.44 Q1509.01 1568.97 1504.68 1568.97 Q1499.2 1568.97 1495.96 1565.91 Q1492.74 1562.82 1492.74 1557.67 Q1492.74 1551.65 1496.75 1548.6 Q1500.79 1545.54 1508.78 1545.54 L1516.99 1545.54 L1516.99 1544.97 Q1516.99 1540.93 1514.32 1538.73 Q1511.68 1536.5 1506.87 1536.5 Q1503.82 1536.5 1500.92 1537.23 Q1498.02 1537.97 1495.35 1539.43 L1495.35 1534.02 Q1498.57 1532.78 1501.59 1532.17 Q1504.61 1531.54 1507.48 1531.54 Q1515.21 1531.54 1519.03 1535.55 Q1522.85 1539.56 1522.85 1547.71 Z" fill="#000000" fill-rule="evenodd" fill-opacity="1" /><path clip-path="url(#clip200)" d="M1540.71 1522.27 L1540.71 1532.4 L1552.77 1532.4 L1552.77 1536.95 L1540.71 1536.95 L1540.71 1556.3 Q1540.71 1560.66 1541.88 1561.9 Q1543.09 1563.14 1546.75 1563.14 L1552.77 1563.14 L1552.77 1568.04 L1546.75 1568.04 Q1539.97 1568.04 1537.4 1565.53 Q1534.82 1562.98 1534.82 1556.3 L1534.82 1536.95 L1530.52 1536.95 L1530.52 1532.4 L1534.82 1532.4 L1534.82 1522.27 L1540.71 1522.27 Z" fill="#000000" fill-rule="evenodd" fill-opacity="1" /><path clip-path="url(#clip200)" d="M1590.96 1548.76 L1590.96 1551.62 L1564.04 1551.62 Q1564.42 1557.67 1567.67 1560.85 Q1570.94 1564 1576.77 1564 Q1580.14 1564 1583.29 1563.17 Q1586.48 1562.35 1589.6 1560.69 L1589.6 1566.23 Q1586.44 1567.57 1583.13 1568.27 Q1579.82 1568.97 1576.42 1568.97 Q1567.89 1568.97 1562.89 1564 Q1557.93 1559.04 1557.93 1550.57 Q1557.93 1541.82 1562.64 1536.69 Q1567.38 1531.54 1575.4 1531.54 Q1582.59 1531.54 1586.76 1536.18 Q1590.96 1540.8 1590.96 1548.76 M1585.11 1547.04 Q1585.04 1542.23 1582.4 1539.37 Q1579.79 1536.5 1575.46 1536.5 Q1570.56 1536.5 1567.6 1539.27 Q1564.67 1542.04 1564.23 1547.07 L1585.11 1547.04 Z" fill="#000000" fill-rule="evenodd" fill-opacity="1" /><polyline clip-path="url(#clip202)" style="stroke:#000000; stroke-linecap:butt; stroke-linejoin:round; stroke-width:2; stroke-opacity:0.1; fill:none" points="
  249.542,1384.24 2352.76,1384.24 
  "/>
<polyline clip-path="url(#clip202)" style="stroke:#000000; stroke-linecap:butt; stroke-linejoin:round; stroke-width:2; stroke-opacity:0.1; fill:none" points="
  249.542,1059.73 2352.76,1059.73 
  "/>
<polyline clip-path="url(#clip202)" style="stroke:#000000; stroke-linecap:butt; stroke-linejoin:round; stroke-width:2; stroke-opacity:0.1; fill:none" points="
  249.542,735.212 2352.76,735.212 
  "/>
<polyline clip-path="url(#clip202)" style="stroke:#000000; stroke-linecap:butt; stroke-linejoin:round; stroke-width:2; stroke-opacity:0.1; fill:none" points="
  249.542,410.699 2352.76,410.699 
  "/>
<polyline clip-path="url(#clip202)" style="stroke:#000000; stroke-linecap:butt; stroke-linejoin:round; stroke-width:2; stroke-opacity:0.1; fill:none" points="
  249.542,86.1857 2352.76,86.1857 
  "/>
<polyline clip-path="url(#clip200)" style="stroke:#000000; stroke-linecap:butt; stroke-linejoin:round; stroke-width:4; stroke-opacity:1; fill:none" points="
  249.542,1423.18 249.542,47.2441 
  "/>
<polyline clip-path="url(#clip200)" style="stroke:#000000; stroke-linecap:butt; stroke-linejoin:round; stroke-width:4; stroke-opacity:1; fill:none" points="
  249.542,1384.24 268.44,1384.24 
  "/>
<polyline clip-path="url(#clip200)" style="stroke:#000000; stroke-linecap:butt; stroke-linejoin:round; stroke-width:4; stroke-opacity:1; fill:none" points="
  249.542,1059.73 268.44,1059.73 
  "/>
<polyline clip-path="url(#clip200)" style="stroke:#000000; stroke-linecap:butt; stroke-linejoin:round; stroke-width:4; stroke-opacity:1; fill:none" points="
  249.542,735.212 268.44,735.212 
  "/>
<polyline clip-path="url(#clip200)" style="stroke:#000000; stroke-linecap:butt; stroke-linejoin:round; stroke-width:4; stroke-opacity:1; fill:none" points="
  249.542,410.699 268.44,410.699 
  "/>
<polyline clip-path="url(#clip200)" style="stroke:#000000; stroke-linecap:butt; stroke-linejoin:round; stroke-width:4; stroke-opacity:1; fill:none" points="
  249.542,86.1857 268.44,86.1857 
  "/>
<path clip-path="url(#clip200)" d="M126.205 1370.04 Q122.593 1370.04 120.765 1373.6 Q118.959 1377.14 118.959 1384.27 Q118.959 1391.38 120.765 1394.94 Q122.593 1398.49 126.205 1398.49 Q129.839 1398.49 131.644 1394.94 Q133.473 1391.38 133.473 1384.27 Q133.473 1377.14 131.644 1373.6 Q129.839 1370.04 126.205 1370.04 M126.205 1366.33 Q132.015 1366.33 135.07 1370.94 Q138.149 1375.52 138.149 1384.27 Q138.149 1393 135.07 1397.61 Q132.015 1402.19 126.205 1402.19 Q120.394 1402.19 117.316 1397.61 Q114.26 1393 114.26 1384.27 Q114.26 1375.52 117.316 1370.94 Q120.394 1366.33 126.205 1366.33 Z" fill="#000000" fill-rule="evenodd" fill-opacity="1" /><path clip-path="url(#clip200)" d="M146.366 1395.64 L151.251 1395.64 L151.251 1401.52 L146.366 1401.52 L146.366 1395.64 Z" fill="#000000" fill-rule="evenodd" fill-opacity="1" /><path clip-path="url(#clip200)" d="M171.436 1370.04 Q167.825 1370.04 165.996 1373.6 Q164.19 1377.14 164.19 1384.27 Q164.19 1391.38 165.996 1394.94 Q167.825 1398.49 171.436 1398.49 Q175.07 1398.49 176.876 1394.94 Q178.704 1391.38 178.704 1384.27 Q178.704 1377.14 176.876 1373.6 Q175.07 1370.04 171.436 1370.04 M171.436 1366.33 Q177.246 1366.33 180.301 1370.94 Q183.38 1375.52 183.38 1384.27 Q183.38 1393 180.301 1397.61 Q177.246 1402.19 171.436 1402.19 Q165.626 1402.19 162.547 1397.61 Q159.491 1393 159.491 1384.27 Q159.491 1375.52 162.547 1370.94 Q165.626 1366.33 171.436 1366.33 Z" fill="#000000" fill-rule="evenodd" fill-opacity="1" /><path clip-path="url(#clip200)" d="M201.598 1370.04 Q197.987 1370.04 196.158 1373.6 Q194.352 1377.14 194.352 1384.27 Q194.352 1391.38 196.158 1394.94 Q197.987 1398.49 201.598 1398.49 Q205.232 1398.49 207.037 1394.94 Q208.866 1391.38 208.866 1384.27 Q208.866 1377.14 207.037 1373.6 Q205.232 1370.04 201.598 1370.04 M201.598 1366.33 Q207.408 1366.33 210.463 1370.94 Q213.542 1375.52 213.542 1384.27 Q213.542 1393 210.463 1397.61 Q207.408 1402.19 201.598 1402.19 Q195.787 1402.19 192.709 1397.61 Q189.653 1393 189.653 1384.27 Q189.653 1375.52 192.709 1370.94 Q195.787 1366.33 201.598 1366.33 Z" fill="#000000" fill-rule="evenodd" fill-opacity="1" /><path clip-path="url(#clip200)" d="M127.2 1045.52 Q123.589 1045.52 121.76 1049.09 Q119.955 1052.63 119.955 1059.76 Q119.955 1066.87 121.76 1070.43 Q123.589 1073.97 127.2 1073.97 Q130.834 1073.97 132.64 1070.43 Q134.468 1066.87 134.468 1059.76 Q134.468 1052.63 132.64 1049.09 Q130.834 1045.52 127.2 1045.52 M127.2 1041.82 Q133.01 1041.82 136.066 1046.43 Q139.144 1051.01 139.144 1059.76 Q139.144 1068.49 136.066 1073.09 Q133.01 1077.68 127.2 1077.68 Q121.39 1077.68 118.311 1073.09 Q115.256 1068.49 115.256 1059.76 Q115.256 1051.01 118.311 1046.43 Q121.39 1041.82 127.2 1041.82 Z" fill="#000000" fill-rule="evenodd" fill-opacity="1" /><path clip-path="url(#clip200)" d="M147.362 1071.13 L152.246 1071.13 L152.246 1077.01 L147.362 1077.01 L147.362 1071.13 Z" fill="#000000" fill-rule="evenodd" fill-opacity="1" /><path clip-path="url(#clip200)" d="M166.459 1073.07 L182.778 1073.07 L182.778 1077.01 L160.834 1077.01 L160.834 1073.07 Q163.496 1070.32 168.079 1065.69 Q172.686 1061.03 173.866 1059.69 Q176.112 1057.17 176.991 1055.43 Q177.894 1053.67 177.894 1051.98 Q177.894 1049.23 175.95 1047.49 Q174.028 1045.76 170.927 1045.76 Q168.727 1045.76 166.274 1046.52 Q163.843 1047.28 161.065 1048.83 L161.065 1044.11 Q163.89 1042.98 166.343 1042.4 Q168.797 1041.82 170.834 1041.82 Q176.204 1041.82 179.399 1044.51 Q182.593 1047.19 182.593 1051.68 Q182.593 1053.81 181.783 1055.73 Q180.996 1057.63 178.889 1060.22 Q178.311 1060.89 175.209 1064.11 Q172.107 1067.31 166.459 1073.07 Z" fill="#000000" fill-rule="evenodd" fill-opacity="1" /><path clip-path="url(#clip200)" d="M192.639 1042.45 L210.996 1042.45 L210.996 1046.38 L196.922 1046.38 L196.922 1054.85 Q197.94 1054.51 198.959 1054.34 Q199.977 1054.16 200.996 1054.16 Q206.783 1054.16 210.162 1057.33 Q213.542 1060.5 213.542 1065.92 Q213.542 1071.5 210.07 1074.6 Q206.598 1077.68 200.278 1077.68 Q198.102 1077.68 195.834 1077.31 Q193.588 1076.94 191.181 1076.19 L191.181 1071.5 Q193.264 1072.63 195.487 1073.19 Q197.709 1073.74 200.186 1073.74 Q204.19 1073.74 206.528 1071.63 Q208.866 1069.53 208.866 1065.92 Q208.866 1062.31 206.528 1060.2 Q204.19 1058.09 200.186 1058.09 Q198.311 1058.09 196.436 1058.51 Q194.584 1058.93 192.639 1059.81 L192.639 1042.45 Z" fill="#000000" fill-rule="evenodd" fill-opacity="1" /><path clip-path="url(#clip200)" d="M126.205 721.011 Q122.593 721.011 120.765 724.575 Q118.959 728.117 118.959 735.247 Q118.959 742.353 120.765 745.918 Q122.593 749.46 126.205 749.46 Q129.839 749.46 131.644 745.918 Q133.473 742.353 133.473 735.247 Q133.473 728.117 131.644 724.575 Q129.839 721.011 126.205 721.011 M126.205 717.307 Q132.015 717.307 135.07 721.913 Q138.149 726.497 138.149 735.247 Q138.149 743.973 135.07 748.58 Q132.015 753.163 126.205 753.163 Q120.394 753.163 117.316 748.58 Q114.26 743.973 114.26 735.247 Q114.26 726.497 117.316 721.913 Q120.394 717.307 126.205 717.307 Z" fill="#000000" fill-rule="evenodd" fill-opacity="1" /><path clip-path="url(#clip200)" d="M146.366 746.612 L151.251 746.612 L151.251 752.492 L146.366 752.492 L146.366 746.612 Z" fill="#000000" fill-rule="evenodd" fill-opacity="1" /><path clip-path="url(#clip200)" d="M161.482 717.932 L179.839 717.932 L179.839 721.867 L165.765 721.867 L165.765 730.339 Q166.783 729.992 167.802 729.83 Q168.82 729.645 169.839 729.645 Q175.626 729.645 179.005 732.816 Q182.385 735.987 182.385 741.404 Q182.385 746.983 178.913 750.085 Q175.44 753.163 169.121 753.163 Q166.945 753.163 164.677 752.793 Q162.431 752.423 160.024 751.682 L160.024 746.983 Q162.107 748.117 164.329 748.673 Q166.552 749.228 169.028 749.228 Q173.033 749.228 175.371 747.122 Q177.709 745.015 177.709 741.404 Q177.709 737.793 175.371 735.687 Q173.033 733.58 169.028 733.58 Q167.153 733.58 165.278 733.997 Q163.427 734.413 161.482 735.293 L161.482 717.932 Z" fill="#000000" fill-rule="evenodd" fill-opacity="1" /><path clip-path="url(#clip200)" d="M201.598 721.011 Q197.987 721.011 196.158 724.575 Q194.352 728.117 194.352 735.247 Q194.352 742.353 196.158 745.918 Q197.987 749.46 201.598 749.46 Q205.232 749.46 207.037 745.918 Q208.866 742.353 208.866 735.247 Q208.866 728.117 207.037 724.575 Q205.232 721.011 201.598 721.011 M201.598 717.307 Q207.408 717.307 210.463 721.913 Q213.542 726.497 213.542 735.247 Q213.542 743.973 210.463 748.58 Q207.408 753.163 201.598 753.163 Q195.787 753.163 192.709 748.58 Q189.653 743.973 189.653 735.247 Q189.653 726.497 192.709 721.913 Q195.787 717.307 201.598 717.307 Z" fill="#000000" fill-rule="evenodd" fill-opacity="1" /><path clip-path="url(#clip200)" d="M127.2 396.498 Q123.589 396.498 121.76 400.062 Q119.955 403.604 119.955 410.734 Q119.955 417.84 121.76 421.405 Q123.589 424.946 127.2 424.946 Q130.834 424.946 132.64 421.405 Q134.468 417.84 134.468 410.734 Q134.468 403.604 132.64 400.062 Q130.834 396.498 127.2 396.498 M127.2 392.794 Q133.01 392.794 136.066 397.4 Q139.144 401.984 139.144 410.734 Q139.144 419.46 136.066 424.067 Q133.01 428.65 127.2 428.65 Q121.39 428.65 118.311 424.067 Q115.256 419.46 115.256 410.734 Q115.256 401.984 118.311 397.4 Q121.39 392.794 127.2 392.794 Z" fill="#000000" fill-rule="evenodd" fill-opacity="1" /><path clip-path="url(#clip200)" d="M147.362 422.099 L152.246 422.099 L152.246 427.979 L147.362 427.979 L147.362 422.099 Z" fill="#000000" fill-rule="evenodd" fill-opacity="1" /><path clip-path="url(#clip200)" d="M161.251 393.419 L183.473 393.419 L183.473 395.41 L170.927 427.979 L166.042 427.979 L177.848 397.354 L161.251 397.354 L161.251 393.419 Z" fill="#000000" fill-rule="evenodd" fill-opacity="1" /><path clip-path="url(#clip200)" d="M192.639 393.419 L210.996 393.419 L210.996 397.354 L196.922 397.354 L196.922 405.826 Q197.94 405.479 198.959 405.317 Q199.977 405.132 200.996 405.132 Q206.783 405.132 210.162 408.303 Q213.542 411.474 213.542 416.891 Q213.542 422.47 210.07 425.571 Q206.598 428.65 200.278 428.65 Q198.102 428.65 195.834 428.28 Q193.588 427.909 191.181 427.169 L191.181 422.47 Q193.264 423.604 195.487 424.159 Q197.709 424.715 200.186 424.715 Q204.19 424.715 206.528 422.608 Q208.866 420.502 208.866 416.891 Q208.866 413.28 206.528 411.173 Q204.19 409.067 200.186 409.067 Q198.311 409.067 196.436 409.484 Q194.584 409.9 192.639 410.78 L192.639 393.419 Z" fill="#000000" fill-rule="evenodd" fill-opacity="1" /><path clip-path="url(#clip200)" d="M117.015 99.5305 L124.654 99.5305 L124.654 73.1649 L116.343 74.8316 L116.343 70.5723 L124.607 68.9057 L129.283 68.9057 L129.283 99.5305 L136.922 99.5305 L136.922 103.466 L117.015 103.466 L117.015 99.5305 Z" fill="#000000" fill-rule="evenodd" fill-opacity="1" /><path clip-path="url(#clip200)" d="M146.366 97.5861 L151.251 97.5861 L151.251 103.466 L146.366 103.466 L146.366 97.5861 Z" fill="#000000" fill-rule="evenodd" fill-opacity="1" /><path clip-path="url(#clip200)" d="M171.436 71.9844 Q167.825 71.9844 165.996 75.5492 Q164.19 79.0908 164.19 86.2204 Q164.19 93.3268 165.996 96.8916 Q167.825 100.433 171.436 100.433 Q175.07 100.433 176.876 96.8916 Q178.704 93.3268 178.704 86.2204 Q178.704 79.0908 176.876 75.5492 Q175.07 71.9844 171.436 71.9844 M171.436 68.2807 Q177.246 68.2807 180.301 72.8871 Q183.38 77.4704 183.38 86.2204 Q183.38 94.9472 180.301 99.5537 Q177.246 104.137 171.436 104.137 Q165.626 104.137 162.547 99.5537 Q159.491 94.9472 159.491 86.2204 Q159.491 77.4704 162.547 72.8871 Q165.626 68.2807 171.436 68.2807 Z" fill="#000000" fill-rule="evenodd" fill-opacity="1" /><path clip-path="url(#clip200)" d="M201.598 71.9844 Q197.987 71.9844 196.158 75.5492 Q194.352 79.0908 194.352 86.2204 Q194.352 93.3268 196.158 96.8916 Q197.987 100.433 201.598 100.433 Q205.232 100.433 207.037 96.8916 Q208.866 93.3268 208.866 86.2204 Q208.866 79.0908 207.037 75.5492 Q205.232 71.9844 201.598 71.9844 M201.598 68.2807 Q207.408 68.2807 210.463 72.8871 Q213.542 77.4704 213.542 86.2204 Q213.542 94.9472 210.463 99.5537 Q207.408 104.137 201.598 104.137 Q195.787 104.137 192.709 99.5537 Q189.653 94.9472 189.653 86.2204 Q189.653 77.4704 192.709 72.8871 Q195.787 68.2807 201.598 68.2807 Z" fill="#000000" fill-rule="evenodd" fill-opacity="1" /><path clip-path="url(#clip200)" d="M18.2347 1004.07 L28.3562 1004.07 L28.3562 992.005 L32.9077 992.005 L32.9077 1004.07 L52.2594 1004.07 Q56.6199 1004.07 57.8613 1002.89 Q59.1026 1001.68 59.1026 998.02 L59.1026 992.005 L64.0042 992.005 L64.0042 998.02 Q64.0042 1004.8 61.4897 1007.38 Q58.9434 1009.96 52.2594 1009.96 L32.9077 1009.96 L32.9077 1014.25 L28.3562 1014.25 L28.3562 1009.96 L18.2347 1009.96 L18.2347 1004.07 Z" fill="#000000" fill-rule="evenodd" fill-opacity="1" /><path clip-path="url(#clip200)" d="M33.8307 963.645 Q33.2578 964.632 33.0032 965.81 Q32.7167 966.956 32.7167 968.356 Q32.7167 973.321 35.9632 975.995 Q39.1779 978.637 45.2253 978.637 L64.0042 978.637 L64.0042 984.525 L28.3562 984.525 L28.3562 978.637 L33.8944 978.637 Q30.6479 976.791 29.0883 973.83 Q27.4968 970.87 27.4968 966.637 Q27.4968 966.032 27.5923 965.3 Q27.656 964.568 27.8151 963.677 L33.8307 963.645 Z" fill="#000000" fill-rule="evenodd" fill-opacity="1" /><path clip-path="url(#clip200)" d="M49.9359 958.107 L28.3562 958.107 L28.3562 952.251 L49.7131 952.251 Q54.7739 952.251 57.3202 950.277 Q59.8346 948.304 59.8346 944.357 Q59.8346 939.615 56.8109 936.878 Q53.7872 934.108 48.5673 934.108 L28.3562 934.108 L28.3562 928.252 L64.0042 928.252 L64.0042 934.108 L58.5296 934.108 Q61.7762 936.241 63.3676 939.074 Q64.9272 941.875 64.9272 945.599 Q64.9272 951.741 61.1078 954.924 Q57.2883 958.107 49.9359 958.107 M27.4968 943.371 L27.4968 943.371 Z" fill="#000000" fill-rule="evenodd" fill-opacity="1" /><path clip-path="url(#clip200)" d="M44.7161 885.697 L47.5806 885.697 L47.5806 912.624 Q53.6281 912.242 56.8109 908.996 Q59.9619 905.717 59.9619 899.893 Q59.9619 896.519 59.1344 893.368 Q58.3069 890.185 56.6518 887.066 L62.1899 887.066 Q63.5267 890.217 64.227 893.527 Q64.9272 896.837 64.9272 900.243 Q64.9272 908.773 59.9619 913.77 Q54.9967 918.735 46.5303 918.735 Q37.7774 918.735 32.6531 914.025 Q27.4968 909.282 27.4968 901.261 Q27.4968 894.068 32.1438 889.899 Q36.7589 885.697 44.7161 885.697 M42.9973 891.554 Q38.1912 891.617 35.3266 894.259 Q32.4621 896.869 32.4621 901.198 Q32.4621 906.099 35.2312 909.059 Q38.0002 911.988 43.0292 912.433 L42.9973 891.554 Z" fill="#000000" fill-rule="evenodd" fill-opacity="1" /><path clip-path="url(#clip200)" d="M58.657 849.699 L77.5631 849.699 L77.5631 855.587 L28.3562 855.587 L28.3562 849.699 L33.7671 849.699 Q30.5842 847.853 29.0564 845.052 Q27.4968 842.219 27.4968 838.305 Q27.4968 831.812 32.6531 827.769 Q37.8093 823.695 46.212 823.695 Q54.6147 823.695 59.771 827.769 Q64.9272 831.812 64.9272 838.305 Q64.9272 842.219 63.3994 845.052 Q61.8398 847.853 58.657 849.699 M46.212 829.775 Q39.7508 829.775 36.0905 832.448 Q32.3984 835.09 32.3984 839.737 Q32.3984 844.384 36.0905 847.057 Q39.7508 849.699 46.212 849.699 Q52.6732 849.699 56.3653 847.057 Q60.0256 844.384 60.0256 839.737 Q60.0256 835.09 56.3653 832.448 Q52.6732 829.775 46.212 829.775 Z" fill="#000000" fill-rule="evenodd" fill-opacity="1" /><path clip-path="url(#clip200)" d="M32.4621 800.174 Q32.4621 804.885 36.1542 807.622 Q39.8145 810.359 46.212 810.359 Q52.6095 810.359 56.3017 807.654 Q59.9619 804.916 59.9619 800.174 Q59.9619 795.495 56.2698 792.758 Q52.5777 790.021 46.212 790.021 Q39.8781 790.021 36.186 792.758 Q32.4621 795.495 32.4621 800.174 M27.4968 800.174 Q27.4968 792.535 32.4621 788.175 Q37.4273 783.814 46.212 783.814 Q54.9649 783.814 59.9619 788.175 Q64.9272 792.535 64.9272 800.174 Q64.9272 807.845 59.9619 812.205 Q54.9649 816.534 46.212 816.534 Q37.4273 816.534 32.4621 812.205 Q27.4968 807.845 27.4968 800.174 Z" fill="#000000" fill-rule="evenodd" fill-opacity="1" /><path clip-path="url(#clip200)" d="M29.4065 751.381 L34.9447 751.381 Q33.6716 753.863 33.035 756.537 Q32.3984 759.211 32.3984 762.075 Q32.3984 766.436 33.7352 768.632 Q35.072 770.796 37.7456 770.796 Q39.7826 770.796 40.9603 769.237 Q42.1061 767.677 43.1565 762.966 L43.6021 760.961 Q44.9389 754.723 47.3897 752.113 Q49.8086 749.471 54.1691 749.471 Q59.1344 749.471 62.0308 753.418 Q64.9272 757.333 64.9272 764.208 Q64.9272 767.072 64.3543 770.192 Q63.8132 773.279 62.6992 776.716 L56.6518 776.716 Q58.3387 773.47 59.198 770.319 Q60.0256 767.168 60.0256 764.08 Q60.0256 759.943 58.6251 757.715 Q57.1929 755.487 54.6147 755.487 Q52.2276 755.487 50.9545 757.11 Q49.6813 758.701 48.5037 764.144 L48.0262 766.181 Q46.8804 771.624 44.5251 774.043 Q42.138 776.462 38.0002 776.462 Q32.9713 776.462 30.2341 772.897 Q27.4968 769.332 27.4968 762.775 Q27.4968 759.529 27.9743 756.664 Q28.4517 753.8 29.4065 751.381 Z" fill="#000000" fill-rule="evenodd" fill-opacity="1" /><path clip-path="url(#clip200)" d="M28.3562 740.145 L28.3562 734.289 L64.0042 734.289 L64.0042 740.145 L28.3562 740.145 M14.479 740.145 L14.479 734.289 L21.895 734.289 L21.895 740.145 L14.479 740.145 Z" fill="#000000" fill-rule="evenodd" fill-opacity="1" /><path clip-path="url(#clip200)" d="M18.2347 716.242 L28.3562 716.242 L28.3562 704.179 L32.9077 704.179 L32.9077 716.242 L52.2594 716.242 Q56.6199 716.242 57.8613 715.065 Q59.1026 713.855 59.1026 710.195 L59.1026 704.179 L64.0042 704.179 L64.0042 710.195 Q64.0042 716.974 61.4897 719.552 Q58.9434 722.13 52.2594 722.13 L32.9077 722.13 L32.9077 726.427 L28.3562 726.427 L28.3562 722.13 L18.2347 722.13 L18.2347 716.242 Z" fill="#000000" fill-rule="evenodd" fill-opacity="1" /><path clip-path="url(#clip200)" d="M28.3562 696.477 L28.3562 690.62 L64.0042 690.62 L64.0042 696.477 L28.3562 696.477 M14.479 696.477 L14.479 690.62 L21.895 690.62 L21.895 696.477 L14.479 696.477 Z" fill="#000000" fill-rule="evenodd" fill-opacity="1" /><path clip-path="url(#clip200)" d="M28.3562 682.568 L28.3562 676.361 L58.275 665.221 L28.3562 654.081 L28.3562 647.874 L64.0042 661.242 L64.0042 669.2 L28.3562 682.568 Z" fill="#000000" fill-rule="evenodd" fill-opacity="1" /><path clip-path="url(#clip200)" d="M44.7161 609.298 L47.5806 609.298 L47.5806 636.225 Q53.6281 635.843 56.8109 632.597 Q59.9619 629.318 59.9619 623.494 Q59.9619 620.12 59.1344 616.969 Q58.3069 613.786 56.6518 610.667 L62.1899 610.667 Q63.5267 613.818 64.227 617.128 Q64.9272 620.438 64.9272 623.844 Q64.9272 632.374 59.9619 637.371 Q54.9967 642.336 46.5303 642.336 Q37.7774 642.336 32.6531 637.626 Q27.4968 632.883 27.4968 624.862 Q27.4968 617.669 32.1438 613.5 Q36.7589 609.298 44.7161 609.298 M42.9973 615.155 Q38.1912 615.218 35.3266 617.86 Q32.4621 620.47 32.4621 624.799 Q32.4621 629.7 35.2312 632.66 Q38.0002 635.589 43.0292 636.034 L42.9973 615.155 Z" fill="#000000" fill-rule="evenodd" fill-opacity="1" /><path clip-path="url(#clip200)" d="M33.8307 558.309 Q33.2578 559.296 33.0032 560.473 Q32.7167 561.619 32.7167 563.02 Q32.7167 567.985 35.9632 570.658 Q39.1779 573.3 45.2253 573.3 L64.0042 573.3 L64.0042 579.188 L28.3562 579.188 L28.3562 573.3 L33.8944 573.3 Q30.6479 571.454 29.0883 568.494 Q27.4968 565.534 27.4968 561.301 Q27.4968 560.696 27.5923 559.964 Q27.656 559.232 27.8151 558.341 L33.8307 558.309 Z" fill="#000000" fill-rule="evenodd" fill-opacity="1" /><path clip-path="url(#clip200)" d="M46.0847 535.965 Q46.0847 543.063 47.7079 545.8 Q49.3312 548.538 53.2461 548.538 Q56.3653 548.538 58.2114 546.501 Q60.0256 544.432 60.0256 540.899 Q60.0256 536.029 56.5881 533.101 Q53.1188 530.141 47.3897 530.141 L46.0847 530.141 L46.0847 535.965 M43.6657 524.284 L64.0042 524.284 L64.0042 530.141 L58.5933 530.141 Q61.8398 532.146 63.3994 535.138 Q64.9272 538.13 64.9272 542.458 Q64.9272 547.933 61.8716 551.179 Q58.7843 554.394 53.6281 554.394 Q47.6125 554.394 44.5569 550.384 Q41.5014 546.341 41.5014 538.352 L41.5014 530.141 L40.9285 530.141 Q36.8862 530.141 34.6901 532.814 Q32.4621 535.456 32.4621 540.262 Q32.4621 543.318 33.1941 546.214 Q33.9262 549.111 35.3903 551.784 L29.9795 551.784 Q28.7381 548.569 28.1334 545.546 Q27.4968 542.522 27.4968 539.657 Q27.4968 531.923 31.5072 528.104 Q35.5176 524.284 43.6657 524.284 Z" fill="#000000" fill-rule="evenodd" fill-opacity="1" /><path clip-path="url(#clip200)" d="M18.2347 506.428 L28.3562 506.428 L28.3562 494.365 L32.9077 494.365 L32.9077 506.428 L52.2594 506.428 Q56.6199 506.428 57.8613 505.251 Q59.1026 504.041 59.1026 500.381 L59.1026 494.365 L64.0042 494.365 L64.0042 500.381 Q64.0042 507.161 61.4897 509.739 Q58.9434 512.317 52.2594 512.317 L32.9077 512.317 L32.9077 516.614 L28.3562 516.614 L28.3562 512.317 L18.2347 512.317 L18.2347 506.428 Z" fill="#000000" fill-rule="evenodd" fill-opacity="1" /><path clip-path="url(#clip200)" d="M44.7161 456.171 L47.5806 456.171 L47.5806 483.098 Q53.6281 482.716 56.8109 479.47 Q59.9619 476.191 59.9619 470.367 Q59.9619 466.993 59.1344 463.842 Q58.3069 460.659 56.6518 457.54 L62.1899 457.54 Q63.5267 460.691 64.227 464.001 Q64.9272 467.311 64.9272 470.717 Q64.9272 479.247 59.9619 484.244 Q54.9967 489.209 46.5303 489.209 Q37.7774 489.209 32.6531 484.499 Q27.4968 479.756 27.4968 471.735 Q27.4968 464.542 32.1438 460.373 Q36.7589 456.171 44.7161 456.171 M42.9973 462.028 Q38.1912 462.091 35.3266 464.733 Q32.4621 467.343 32.4621 471.672 Q32.4621 476.573 35.2312 479.533 Q38.0002 482.462 43.0292 482.907 L42.9973 462.028 Z" fill="#000000" fill-rule="evenodd" fill-opacity="1" /><circle clip-path="url(#clip202)" cx="309.067" cy="1384.24" r="14" fill="#009af9" fill-rule="evenodd" fill-opacity="1" stroke="#000000" stroke-opacity="1" stroke-width="3.2"/>
<circle clip-path="url(#clip202)" cx="309.067" cy="1344.9" r="14" fill="#009af9" fill-rule="evenodd" fill-opacity="1" stroke="#000000" stroke-opacity="1" stroke-width="3.2"/>
<circle clip-path="url(#clip202)" cx="309.067" cy="1305.57" r="14" fill="#009af9" fill-rule="evenodd" fill-opacity="1" stroke="#000000" stroke-opacity="1" stroke-width="3.2"/>
<circle clip-path="url(#clip202)" cx="309.067" cy="1226.9" r="14" fill="#009af9" fill-rule="evenodd" fill-opacity="1" stroke="#000000" stroke-opacity="1" stroke-width="3.2"/>
<circle clip-path="url(#clip202)" cx="309.067" cy="1187.56" r="14" fill="#009af9" fill-rule="evenodd" fill-opacity="1" stroke="#000000" stroke-opacity="1" stroke-width="3.2"/>
<circle clip-path="url(#clip202)" cx="326.321" cy="1187.56" r="14" fill="#009af9" fill-rule="evenodd" fill-opacity="1" stroke="#000000" stroke-opacity="1" stroke-width="3.2"/>
<circle clip-path="url(#clip202)" cx="326.321" cy="1148.23" r="14" fill="#009af9" fill-rule="evenodd" fill-opacity="1" stroke="#000000" stroke-opacity="1" stroke-width="3.2"/>
<circle clip-path="url(#clip202)" cx="326.321" cy="1108.89" r="14" fill="#009af9" fill-rule="evenodd" fill-opacity="1" stroke="#000000" stroke-opacity="1" stroke-width="3.2"/>
<circle clip-path="url(#clip202)" cx="326.321" cy="1069.56" r="14" fill="#009af9" fill-rule="evenodd" fill-opacity="1" stroke="#000000" stroke-opacity="1" stroke-width="3.2"/>
<circle clip-path="url(#clip202)" cx="343.574" cy="1069.56" r="14" fill="#009af9" fill-rule="evenodd" fill-opacity="1" stroke="#000000" stroke-opacity="1" stroke-width="3.2"/>
<circle clip-path="url(#clip202)" cx="360.828" cy="1069.56" r="14" fill="#009af9" fill-rule="evenodd" fill-opacity="1" stroke="#000000" stroke-opacity="1" stroke-width="3.2"/>
<circle clip-path="url(#clip202)" cx="360.828" cy="1030.22" r="14" fill="#009af9" fill-rule="evenodd" fill-opacity="1" stroke="#000000" stroke-opacity="1" stroke-width="3.2"/>
<circle clip-path="url(#clip202)" cx="378.081" cy="1030.22" r="14" fill="#009af9" fill-rule="evenodd" fill-opacity="1" stroke="#000000" stroke-opacity="1" stroke-width="3.2"/>
<circle clip-path="url(#clip202)" cx="395.335" cy="990.889" r="14" fill="#009af9" fill-rule="evenodd" fill-opacity="1" stroke="#000000" stroke-opacity="1" stroke-width="3.2"/>
<circle clip-path="url(#clip202)" cx="395.335" cy="951.554" r="14" fill="#009af9" fill-rule="evenodd" fill-opacity="1" stroke="#000000" stroke-opacity="1" stroke-width="3.2"/>
<circle clip-path="url(#clip202)" cx="412.589" cy="951.554" r="14" fill="#009af9" fill-rule="evenodd" fill-opacity="1" stroke="#000000" stroke-opacity="1" stroke-width="3.2"/>
<circle clip-path="url(#clip202)" cx="429.842" cy="951.554" r="14" fill="#009af9" fill-rule="evenodd" fill-opacity="1" stroke="#000000" stroke-opacity="1" stroke-width="3.2"/>
<circle clip-path="url(#clip202)" cx="429.842" cy="912.219" r="14" fill="#009af9" fill-rule="evenodd" fill-opacity="1" stroke="#000000" stroke-opacity="1" stroke-width="3.2"/>
<circle clip-path="url(#clip202)" cx="447.096" cy="912.219" r="14" fill="#009af9" fill-rule="evenodd" fill-opacity="1" stroke="#000000" stroke-opacity="1" stroke-width="3.2"/>
<circle clip-path="url(#clip202)" cx="464.349" cy="912.219" r="14" fill="#009af9" fill-rule="evenodd" fill-opacity="1" stroke="#000000" stroke-opacity="1" stroke-width="3.2"/>
<circle clip-path="url(#clip202)" cx="481.603" cy="912.219" r="14" fill="#009af9" fill-rule="evenodd" fill-opacity="1" stroke="#000000" stroke-opacity="1" stroke-width="3.2"/>
<circle clip-path="url(#clip202)" cx="498.857" cy="912.219" r="14" fill="#009af9" fill-rule="evenodd" fill-opacity="1" stroke="#000000" stroke-opacity="1" stroke-width="3.2"/>
<circle clip-path="url(#clip202)" cx="498.857" cy="872.884" r="14" fill="#009af9" fill-rule="evenodd" fill-opacity="1" stroke="#000000" stroke-opacity="1" stroke-width="3.2"/>
<circle clip-path="url(#clip202)" cx="516.11" cy="872.884" r="14" fill="#009af9" fill-rule="evenodd" fill-opacity="1" stroke="#000000" stroke-opacity="1" stroke-width="3.2"/>
<circle clip-path="url(#clip202)" cx="516.11" cy="833.549" r="14" fill="#009af9" fill-rule="evenodd" fill-opacity="1" stroke="#000000" stroke-opacity="1" stroke-width="3.2"/>
<circle clip-path="url(#clip202)" cx="516.11" cy="794.214" r="14" fill="#009af9" fill-rule="evenodd" fill-opacity="1" stroke="#000000" stroke-opacity="1" stroke-width="3.2"/>
<circle clip-path="url(#clip202)" cx="533.364" cy="794.214" r="14" fill="#009af9" fill-rule="evenodd" fill-opacity="1" stroke="#000000" stroke-opacity="1" stroke-width="3.2"/>
<circle clip-path="url(#clip202)" cx="550.617" cy="794.214" r="14" fill="#009af9" fill-rule="evenodd" fill-opacity="1" stroke="#000000" stroke-opacity="1" stroke-width="3.2"/>
<circle clip-path="url(#clip202)" cx="550.617" cy="715.545" r="14" fill="#009af9" fill-rule="evenodd" fill-opacity="1" stroke="#000000" stroke-opacity="1" stroke-width="3.2"/>
<circle clip-path="url(#clip202)" cx="550.617" cy="676.21" r="14" fill="#009af9" fill-rule="evenodd" fill-opacity="1" stroke="#000000" stroke-opacity="1" stroke-width="3.2"/>
<circle clip-path="url(#clip202)" cx="567.871" cy="676.21" r="14" fill="#009af9" fill-rule="evenodd" fill-opacity="1" stroke="#000000" stroke-opacity="1" stroke-width="3.2"/>
<circle clip-path="url(#clip202)" cx="585.125" cy="676.21" r="14" fill="#009af9" fill-rule="evenodd" fill-opacity="1" stroke="#000000" stroke-opacity="1" stroke-width="3.2"/>
<circle clip-path="url(#clip202)" cx="602.378" cy="676.21" r="14" fill="#009af9" fill-rule="evenodd" fill-opacity="1" stroke="#000000" stroke-opacity="1" stroke-width="3.2"/>
<circle clip-path="url(#clip202)" cx="619.632" cy="676.21" r="14" fill="#009af9" fill-rule="evenodd" fill-opacity="1" stroke="#000000" stroke-opacity="1" stroke-width="3.2"/>
<circle clip-path="url(#clip202)" cx="636.885" cy="676.21" r="14" fill="#009af9" fill-rule="evenodd" fill-opacity="1" stroke="#000000" stroke-opacity="1" stroke-width="3.2"/>
<circle clip-path="url(#clip202)" cx="654.139" cy="676.21" r="14" fill="#009af9" fill-rule="evenodd" fill-opacity="1" stroke="#000000" stroke-opacity="1" stroke-width="3.2"/>
<circle clip-path="url(#clip202)" cx="654.139" cy="636.875" r="14" fill="#009af9" fill-rule="evenodd" fill-opacity="1" stroke="#000000" stroke-opacity="1" stroke-width="3.2"/>
<circle clip-path="url(#clip202)" cx="671.393" cy="636.875" r="14" fill="#009af9" fill-rule="evenodd" fill-opacity="1" stroke="#000000" stroke-opacity="1" stroke-width="3.2"/>
<circle clip-path="url(#clip202)" cx="671.393" cy="597.54" r="14" fill="#009af9" fill-rule="evenodd" fill-opacity="1" stroke="#000000" stroke-opacity="1" stroke-width="3.2"/>
<circle clip-path="url(#clip202)" cx="688.646" cy="597.54" r="14" fill="#009af9" fill-rule="evenodd" fill-opacity="1" stroke="#000000" stroke-opacity="1" stroke-width="3.2"/>
<circle clip-path="url(#clip202)" cx="688.646" cy="558.205" r="14" fill="#009af9" fill-rule="evenodd" fill-opacity="1" stroke="#000000" stroke-opacity="1" stroke-width="3.2"/>
<circle clip-path="url(#clip202)" cx="688.646" cy="518.87" r="14" fill="#009af9" fill-rule="evenodd" fill-opacity="1" stroke="#000000" stroke-opacity="1" stroke-width="3.2"/>
<circle clip-path="url(#clip202)" cx="705.9" cy="518.87" r="14" fill="#009af9" fill-rule="evenodd" fill-opacity="1" stroke="#000000" stroke-opacity="1" stroke-width="3.2"/>
<circle clip-path="url(#clip202)" cx="705.9" cy="479.535" r="14" fill="#009af9" fill-rule="evenodd" fill-opacity="1" stroke="#000000" stroke-opacity="1" stroke-width="3.2"/>
<circle clip-path="url(#clip202)" cx="723.153" cy="479.535" r="14" fill="#009af9" fill-rule="evenodd" fill-opacity="1" stroke="#000000" stroke-opacity="1" stroke-width="3.2"/>
<circle clip-path="url(#clip202)" cx="740.407" cy="479.535" r="14" fill="#009af9" fill-rule="evenodd" fill-opacity="1" stroke="#000000" stroke-opacity="1" stroke-width="3.2"/>
<circle clip-path="url(#clip202)" cx="757.661" cy="479.535" r="14" fill="#009af9" fill-rule="evenodd" fill-opacity="1" stroke="#000000" stroke-opacity="1" stroke-width="3.2"/>
<circle clip-path="url(#clip202)" cx="774.914" cy="479.535" r="14" fill="#009af9" fill-rule="evenodd" fill-opacity="1" stroke="#000000" stroke-opacity="1" stroke-width="3.2"/>
<circle clip-path="url(#clip202)" cx="774.914" cy="440.2" r="14" fill="#009af9" fill-rule="evenodd" fill-opacity="1" stroke="#000000" stroke-opacity="1" stroke-width="3.2"/>
<circle clip-path="url(#clip202)" cx="792.168" cy="440.2" r="14" fill="#009af9" fill-rule="evenodd" fill-opacity="1" stroke="#000000" stroke-opacity="1" stroke-width="3.2"/>
<circle clip-path="url(#clip202)" cx="809.421" cy="440.2" r="14" fill="#009af9" fill-rule="evenodd" fill-opacity="1" stroke="#000000" stroke-opacity="1" stroke-width="3.2"/>
<circle clip-path="url(#clip202)" cx="809.421" cy="400.865" r="14" fill="#009af9" fill-rule="evenodd" fill-opacity="1" stroke="#000000" stroke-opacity="1" stroke-width="3.2"/>
<circle clip-path="url(#clip202)" cx="826.675" cy="400.865" r="14" fill="#009af9" fill-rule="evenodd" fill-opacity="1" stroke="#000000" stroke-opacity="1" stroke-width="3.2"/>
<circle clip-path="url(#clip202)" cx="826.675" cy="361.53" r="14" fill="#009af9" fill-rule="evenodd" fill-opacity="1" stroke="#000000" stroke-opacity="1" stroke-width="3.2"/>
<circle clip-path="url(#clip202)" cx="843.929" cy="361.53" r="14" fill="#009af9" fill-rule="evenodd" fill-opacity="1" stroke="#000000" stroke-opacity="1" stroke-width="3.2"/>
<circle clip-path="url(#clip202)" cx="861.182" cy="361.53" r="14" fill="#009af9" fill-rule="evenodd" fill-opacity="1" stroke="#000000" stroke-opacity="1" stroke-width="3.2"/>
<circle clip-path="url(#clip202)" cx="878.436" cy="361.53" r="14" fill="#009af9" fill-rule="evenodd" fill-opacity="1" stroke="#000000" stroke-opacity="1" stroke-width="3.2"/>
<circle clip-path="url(#clip202)" cx="895.689" cy="361.53" r="14" fill="#009af9" fill-rule="evenodd" fill-opacity="1" stroke="#000000" stroke-opacity="1" stroke-width="3.2"/>
<circle clip-path="url(#clip202)" cx="895.689" cy="322.195" r="14" fill="#009af9" fill-rule="evenodd" fill-opacity="1" stroke="#000000" stroke-opacity="1" stroke-width="3.2"/>
<circle clip-path="url(#clip202)" cx="912.943" cy="322.195" r="14" fill="#009af9" fill-rule="evenodd" fill-opacity="1" stroke="#000000" stroke-opacity="1" stroke-width="3.2"/>
<circle clip-path="url(#clip202)" cx="930.197" cy="322.195" r="14" fill="#009af9" fill-rule="evenodd" fill-opacity="1" stroke="#000000" stroke-opacity="1" stroke-width="3.2"/>
<circle clip-path="url(#clip202)" cx="947.45" cy="322.195" r="14" fill="#009af9" fill-rule="evenodd" fill-opacity="1" stroke="#000000" stroke-opacity="1" stroke-width="3.2"/>
<circle clip-path="url(#clip202)" cx="964.704" cy="322.195" r="14" fill="#009af9" fill-rule="evenodd" fill-opacity="1" stroke="#000000" stroke-opacity="1" stroke-width="3.2"/>
<circle clip-path="url(#clip202)" cx="981.957" cy="322.195" r="14" fill="#009af9" fill-rule="evenodd" fill-opacity="1" stroke="#000000" stroke-opacity="1" stroke-width="3.2"/>
<circle clip-path="url(#clip202)" cx="999.211" cy="322.195" r="14" fill="#009af9" fill-rule="evenodd" fill-opacity="1" stroke="#000000" stroke-opacity="1" stroke-width="3.2"/>
<circle clip-path="url(#clip202)" cx="1016.46" cy="322.195" r="14" fill="#009af9" fill-rule="evenodd" fill-opacity="1" stroke="#000000" stroke-opacity="1" stroke-width="3.2"/>
<circle clip-path="url(#clip202)" cx="1033.72" cy="322.195" r="14" fill="#009af9" fill-rule="evenodd" fill-opacity="1" stroke="#000000" stroke-opacity="1" stroke-width="3.2"/>
<circle clip-path="url(#clip202)" cx="1050.97" cy="322.195" r="14" fill="#009af9" fill-rule="evenodd" fill-opacity="1" stroke="#000000" stroke-opacity="1" stroke-width="3.2"/>
<circle clip-path="url(#clip202)" cx="1085.48" cy="322.195" r="14" fill="#009af9" fill-rule="evenodd" fill-opacity="1" stroke="#000000" stroke-opacity="1" stroke-width="3.2"/>
<circle clip-path="url(#clip202)" cx="1102.73" cy="322.195" r="14" fill="#009af9" fill-rule="evenodd" fill-opacity="1" stroke="#000000" stroke-opacity="1" stroke-width="3.2"/>
<circle clip-path="url(#clip202)" cx="1119.99" cy="322.195" r="14" fill="#009af9" fill-rule="evenodd" fill-opacity="1" stroke="#000000" stroke-opacity="1" stroke-width="3.2"/>
<circle clip-path="url(#clip202)" cx="1119.99" cy="282.86" r="14" fill="#009af9" fill-rule="evenodd" fill-opacity="1" stroke="#000000" stroke-opacity="1" stroke-width="3.2"/>
<circle clip-path="url(#clip202)" cx="1137.24" cy="282.86" r="14" fill="#009af9" fill-rule="evenodd" fill-opacity="1" stroke="#000000" stroke-opacity="1" stroke-width="3.2"/>
<circle clip-path="url(#clip202)" cx="1154.49" cy="282.86" r="14" fill="#009af9" fill-rule="evenodd" fill-opacity="1" stroke="#000000" stroke-opacity="1" stroke-width="3.2"/>
<circle clip-path="url(#clip202)" cx="1171.75" cy="282.86" r="14" fill="#009af9" fill-rule="evenodd" fill-opacity="1" stroke="#000000" stroke-opacity="1" stroke-width="3.2"/>
<circle clip-path="url(#clip202)" cx="1171.75" cy="243.525" r="14" fill="#009af9" fill-rule="evenodd" fill-opacity="1" stroke="#000000" stroke-opacity="1" stroke-width="3.2"/>
<circle clip-path="url(#clip202)" cx="1223.51" cy="243.525" r="14" fill="#009af9" fill-rule="evenodd" fill-opacity="1" stroke="#000000" stroke-opacity="1" stroke-width="3.2"/>
<circle clip-path="url(#clip202)" cx="1240.76" cy="243.525" r="14" fill="#009af9" fill-rule="evenodd" fill-opacity="1" stroke="#000000" stroke-opacity="1" stroke-width="3.2"/>
<circle clip-path="url(#clip202)" cx="1258.01" cy="243.525" r="14" fill="#009af9" fill-rule="evenodd" fill-opacity="1" stroke="#000000" stroke-opacity="1" stroke-width="3.2"/>
<circle clip-path="url(#clip202)" cx="1292.52" cy="243.525" r="14" fill="#009af9" fill-rule="evenodd" fill-opacity="1" stroke="#000000" stroke-opacity="1" stroke-width="3.2"/>
<circle clip-path="url(#clip202)" cx="1309.78" cy="243.525" r="14" fill="#009af9" fill-rule="evenodd" fill-opacity="1" stroke="#000000" stroke-opacity="1" stroke-width="3.2"/>
<circle clip-path="url(#clip202)" cx="1327.03" cy="204.19" r="14" fill="#009af9" fill-rule="evenodd" fill-opacity="1" stroke="#000000" stroke-opacity="1" stroke-width="3.2"/>
<circle clip-path="url(#clip202)" cx="1344.28" cy="164.856" r="14" fill="#009af9" fill-rule="evenodd" fill-opacity="1" stroke="#000000" stroke-opacity="1" stroke-width="3.2"/>
<circle clip-path="url(#clip202)" cx="1361.54" cy="164.856" r="14" fill="#009af9" fill-rule="evenodd" fill-opacity="1" stroke="#000000" stroke-opacity="1" stroke-width="3.2"/>
<circle clip-path="url(#clip202)" cx="1378.79" cy="164.856" r="14" fill="#009af9" fill-rule="evenodd" fill-opacity="1" stroke="#000000" stroke-opacity="1" stroke-width="3.2"/>
<circle clip-path="url(#clip202)" cx="1413.3" cy="164.856" r="14" fill="#009af9" fill-rule="evenodd" fill-opacity="1" stroke="#000000" stroke-opacity="1" stroke-width="3.2"/>
<circle clip-path="url(#clip202)" cx="1430.55" cy="164.856" r="14" fill="#009af9" fill-rule="evenodd" fill-opacity="1" stroke="#000000" stroke-opacity="1" stroke-width="3.2"/>
<circle clip-path="url(#clip202)" cx="1465.06" cy="164.856" r="14" fill="#009af9" fill-rule="evenodd" fill-opacity="1" stroke="#000000" stroke-opacity="1" stroke-width="3.2"/>
<circle clip-path="url(#clip202)" cx="1482.31" cy="164.856" r="14" fill="#009af9" fill-rule="evenodd" fill-opacity="1" stroke="#000000" stroke-opacity="1" stroke-width="3.2"/>
<circle clip-path="url(#clip202)" cx="1516.82" cy="164.856" r="14" fill="#009af9" fill-rule="evenodd" fill-opacity="1" stroke="#000000" stroke-opacity="1" stroke-width="3.2"/>
<circle clip-path="url(#clip202)" cx="1534.07" cy="164.856" r="14" fill="#009af9" fill-rule="evenodd" fill-opacity="1" stroke="#000000" stroke-opacity="1" stroke-width="3.2"/>
<circle clip-path="url(#clip202)" cx="1551.33" cy="164.856" r="14" fill="#009af9" fill-rule="evenodd" fill-opacity="1" stroke="#000000" stroke-opacity="1" stroke-width="3.2"/>
<circle clip-path="url(#clip202)" cx="1568.58" cy="164.856" r="14" fill="#009af9" fill-rule="evenodd" fill-opacity="1" stroke="#000000" stroke-opacity="1" stroke-width="3.2"/>
<circle clip-path="url(#clip202)" cx="1585.83" cy="164.856" r="14" fill="#009af9" fill-rule="evenodd" fill-opacity="1" stroke="#000000" stroke-opacity="1" stroke-width="3.2"/>
<circle clip-path="url(#clip202)" cx="1603.09" cy="164.856" r="14" fill="#009af9" fill-rule="evenodd" fill-opacity="1" stroke="#000000" stroke-opacity="1" stroke-width="3.2"/>
<circle clip-path="url(#clip202)" cx="1603.09" cy="125.521" r="14" fill="#009af9" fill-rule="evenodd" fill-opacity="1" stroke="#000000" stroke-opacity="1" stroke-width="3.2"/>
<circle clip-path="url(#clip202)" cx="1620.34" cy="86.1857" r="14" fill="#009af9" fill-rule="evenodd" fill-opacity="1" stroke="#000000" stroke-opacity="1" stroke-width="3.2"/>
<circle clip-path="url(#clip202)" cx="1637.59" cy="86.1857" r="14" fill="#009af9" fill-rule="evenodd" fill-opacity="1" stroke="#000000" stroke-opacity="1" stroke-width="3.2"/>
<circle clip-path="url(#clip202)" cx="1689.35" cy="86.1857" r="14" fill="#009af9" fill-rule="evenodd" fill-opacity="1" stroke="#000000" stroke-opacity="1" stroke-width="3.2"/>
<circle clip-path="url(#clip202)" cx="1706.61" cy="86.1857" r="14" fill="#009af9" fill-rule="evenodd" fill-opacity="1" stroke="#000000" stroke-opacity="1" stroke-width="3.2"/>
<circle clip-path="url(#clip202)" cx="1723.86" cy="86.1857" r="14" fill="#009af9" fill-rule="evenodd" fill-opacity="1" stroke="#000000" stroke-opacity="1" stroke-width="3.2"/>
<circle clip-path="url(#clip202)" cx="1741.12" cy="86.1857" r="14" fill="#009af9" fill-rule="evenodd" fill-opacity="1" stroke="#000000" stroke-opacity="1" stroke-width="3.2"/>
<circle clip-path="url(#clip202)" cx="1758.37" cy="86.1857" r="14" fill="#009af9" fill-rule="evenodd" fill-opacity="1" stroke="#000000" stroke-opacity="1" stroke-width="3.2"/>
<circle clip-path="url(#clip202)" cx="1879.14" cy="86.1857" r="14" fill="#009af9" fill-rule="evenodd" fill-opacity="1" stroke="#000000" stroke-opacity="1" stroke-width="3.2"/>
<circle clip-path="url(#clip202)" cx="1896.4" cy="86.1857" r="14" fill="#009af9" fill-rule="evenodd" fill-opacity="1" stroke="#000000" stroke-opacity="1" stroke-width="3.2"/>
<circle clip-path="url(#clip202)" cx="1948.16" cy="86.1857" r="14" fill="#009af9" fill-rule="evenodd" fill-opacity="1" stroke="#000000" stroke-opacity="1" stroke-width="3.2"/>
<circle clip-path="url(#clip202)" cx="1965.41" cy="86.1857" r="14" fill="#009af9" fill-rule="evenodd" fill-opacity="1" stroke="#000000" stroke-opacity="1" stroke-width="3.2"/>
<circle clip-path="url(#clip202)" cx="1982.67" cy="86.1857" r="14" fill="#009af9" fill-rule="evenodd" fill-opacity="1" stroke="#000000" stroke-opacity="1" stroke-width="3.2"/>
<circle clip-path="url(#clip202)" cx="1999.92" cy="86.1857" r="14" fill="#009af9" fill-rule="evenodd" fill-opacity="1" stroke="#000000" stroke-opacity="1" stroke-width="3.2"/>
<circle clip-path="url(#clip202)" cx="2017.17" cy="86.1857" r="14" fill="#009af9" fill-rule="evenodd" fill-opacity="1" stroke="#000000" stroke-opacity="1" stroke-width="3.2"/>
<circle clip-path="url(#clip202)" cx="2034.43" cy="86.1857" r="14" fill="#009af9" fill-rule="evenodd" fill-opacity="1" stroke="#000000" stroke-opacity="1" stroke-width="3.2"/>
<circle clip-path="url(#clip202)" cx="2155.2" cy="86.1857" r="14" fill="#009af9" fill-rule="evenodd" fill-opacity="1" stroke="#000000" stroke-opacity="1" stroke-width="3.2"/>
<circle clip-path="url(#clip202)" cx="2172.46" cy="86.1857" r="14" fill="#009af9" fill-rule="evenodd" fill-opacity="1" stroke="#000000" stroke-opacity="1" stroke-width="3.2"/>
<circle clip-path="url(#clip202)" cx="2293.23" cy="86.1857" r="14" fill="#009af9" fill-rule="evenodd" fill-opacity="1" stroke="#000000" stroke-opacity="1" stroke-width="3.2"/>
<polyline clip-path="url(#clip202)" style="stroke:#000000; stroke-linecap:butt; stroke-linejoin:round; stroke-width:8; stroke-opacity:1; fill:none" stroke-dasharray="32, 20" points="
  309.067,1384.24 2293.23,86.1857 
  "/>
</svg>
