<?xml version="1.0" encoding="utf-8"?>
<svg xmlns="http://www.w3.org/2000/svg" xmlns:xlink="http://www.w3.org/1999/xlink" width="600" height="400" viewBox="0 0 2400 1600">
<defs>
  <clipPath id="clip830">
    <rect x="0" y="0" width="2400" height="1600"/>
  </clipPath>
</defs>
<path clip-path="url(#clip830)" d="M0 1600 L2400 1600 L2400 8.88178e-14 L0 8.88178e-14  Z" fill="#ffffff" fill-rule="evenodd" fill-opacity="1"/>
<defs>
  <clipPath id="clip831">
    <rect x="480" y="0" width="1681" height="1600"/>
  </clipPath>
</defs>
<path clip-path="url(#clip830)" d="M228.492 1436.14 L2352.76 1436.14 L2352.76 47.2441 L228.492 47.2441  Z" fill="#ffffff" fill-rule="evenodd" fill-opacity="1"/>
<defs>
  <clipPath id="clip832">
    <rect x="228" y="47" width="2125" height="1390"/>
  </clipPath>
</defs>
<polyline clip-path="url(#clip832)" style="stroke:#000000; stroke-linecap:round; stroke-linejoin:round; stroke-width:2; stroke-opacity:0.1; fill:none" points="288.612,1436.14 288.612,47.2441 "/>
<polyline clip-path="url(#clip832)" style="stroke:#000000; stroke-linecap:round; stroke-linejoin:round; stroke-width:2; stroke-opacity:0.1; fill:none" points="789.618,1436.14 789.618,47.2441 "/>
<polyline clip-path="url(#clip832)" style="stroke:#000000; stroke-linecap:round; stroke-linejoin:round; stroke-width:2; stroke-opacity:0.1; fill:none" points="1290.62,1436.14 1290.62,47.2441 "/>
<polyline clip-path="url(#clip832)" style="stroke:#000000; stroke-linecap:round; stroke-linejoin:round; stroke-width:2; stroke-opacity:0.1; fill:none" points="1791.63,1436.14 1791.63,47.2441 "/>
<polyline clip-path="url(#clip832)" style="stroke:#000000; stroke-linecap:round; stroke-linejoin:round; stroke-width:2; stroke-opacity:0.1; fill:none" points="2292.64,1436.14 2292.64,47.2441 "/>
<polyline clip-path="url(#clip830)" style="stroke:#000000; stroke-linecap:round; stroke-linejoin:round; stroke-width:4; stroke-opacity:1; fill:none" points="228.492,1436.14 2352.76,1436.14 "/>
<polyline clip-path="url(#clip830)" style="stroke:#000000; stroke-linecap:round; stroke-linejoin:round; stroke-width:4; stroke-opacity:1; fill:none" points="288.612,1436.14 288.612,1417.24 "/>
<polyline clip-path="url(#clip830)" style="stroke:#000000; stroke-linecap:round; stroke-linejoin:round; stroke-width:4; stroke-opacity:1; fill:none" points="789.618,1436.14 789.618,1417.24 "/>
<polyline clip-path="url(#clip830)" style="stroke:#000000; stroke-linecap:round; stroke-linejoin:round; stroke-width:4; stroke-opacity:1; fill:none" points="1290.62,1436.14 1290.62,1417.24 "/>
<polyline clip-path="url(#clip830)" style="stroke:#000000; stroke-linecap:round; stroke-linejoin:round; stroke-width:4; stroke-opacity:1; fill:none" points="1791.63,1436.14 1791.63,1417.24 "/>
<polyline clip-path="url(#clip830)" style="stroke:#000000; stroke-linecap:round; stroke-linejoin:round; stroke-width:4; stroke-opacity:1; fill:none" points="2292.64,1436.14 2292.64,1417.24 "/>
<path clip-path="url(#clip830)" d="M255.628 1465.59 Q252.468 1465.59 250.868 1468.71 Q249.288 1471.81 249.288 1478.05 Q249.288 1484.27 250.868 1487.39 Q252.468 1490.49 255.628 1490.49 Q258.808 1490.49 260.388 1487.39 Q261.988 1484.27 261.988 1478.05 Q261.988 1471.81 260.388 1468.71 Q258.808 1465.59 255.628 1465.59 M255.628 1462.35 Q260.712 1462.35 263.385 1466.38 Q266.079 1470.39 266.079 1478.05 Q266.079 1485.69 263.385 1489.72 Q260.712 1493.73 255.628 1493.73 Q250.544 1493.73 247.85 1489.72 Q245.177 1485.69 245.177 1478.05 Q245.177 1470.39 247.85 1466.38 Q250.544 1462.35 255.628 1462.35 Z" fill="#000000" fill-rule="nonzero" fill-opacity="1" /><path clip-path="url(#clip830)" d="M273.27 1488 L277.543 1488 L277.543 1493.14 L273.27 1493.14 L273.27 1488 Z" fill="#000000" fill-rule="nonzero" fill-opacity="1" /><path clip-path="url(#clip830)" d="M295.205 1465.59 Q292.046 1465.59 290.446 1468.71 Q288.866 1471.81 288.866 1478.05 Q288.866 1484.27 290.446 1487.39 Q292.046 1490.49 295.205 1490.49 Q298.385 1490.49 299.965 1487.39 Q301.565 1484.27 301.565 1478.05 Q301.565 1471.81 299.965 1468.71 Q298.385 1465.59 295.205 1465.59 M295.205 1462.35 Q300.289 1462.35 302.963 1466.38 Q305.657 1470.39 305.657 1478.05 Q305.657 1485.69 302.963 1489.72 Q300.289 1493.73 295.205 1493.73 Q290.121 1493.73 287.428 1489.72 Q284.754 1485.69 284.754 1478.05 Q284.754 1470.39 287.428 1466.38 Q290.121 1462.35 295.205 1462.35 Z" fill="#000000" fill-rule="nonzero" fill-opacity="1" /><path clip-path="url(#clip830)" d="M321.597 1465.59 Q318.437 1465.59 316.837 1468.71 Q315.257 1471.81 315.257 1478.05 Q315.257 1484.27 316.837 1487.39 Q318.437 1490.49 321.597 1490.49 Q324.777 1490.49 326.357 1487.39 Q327.957 1484.27 327.957 1478.05 Q327.957 1471.81 326.357 1468.71 Q324.777 1465.59 321.597 1465.59 M321.597 1462.35 Q326.681 1462.35 329.354 1466.38 Q332.048 1470.39 332.048 1478.05 Q332.048 1485.69 329.354 1489.72 Q326.681 1493.73 321.597 1493.73 Q316.513 1493.73 313.819 1489.72 Q311.146 1485.69 311.146 1478.05 Q311.146 1470.39 313.819 1466.38 Q316.513 1462.35 321.597 1462.35 Z" fill="#000000" fill-rule="nonzero" fill-opacity="1" /><path clip-path="url(#clip830)" d="M757.069 1465.59 Q753.909 1465.59 752.309 1468.71 Q750.729 1471.81 750.729 1478.05 Q750.729 1484.27 752.309 1487.39 Q753.909 1490.49 757.069 1490.49 Q760.249 1490.49 761.829 1487.39 Q763.429 1484.27 763.429 1478.05 Q763.429 1471.81 761.829 1468.71 Q760.249 1465.59 757.069 1465.59 M757.069 1462.35 Q762.153 1462.35 764.827 1466.38 Q767.52 1470.39 767.52 1478.05 Q767.52 1485.69 764.827 1489.72 Q762.153 1493.73 757.069 1493.73 Q751.985 1493.73 749.291 1489.72 Q746.618 1485.69 746.618 1478.05 Q746.618 1470.39 749.291 1466.38 Q751.985 1462.35 757.069 1462.35 Z" fill="#000000" fill-rule="nonzero" fill-opacity="1" /><path clip-path="url(#clip830)" d="M774.711 1488 L778.985 1488 L778.985 1493.14 L774.711 1493.14 L774.711 1488 Z" fill="#000000" fill-rule="nonzero" fill-opacity="1" /><path clip-path="url(#clip830)" d="M791.421 1489.7 L805.7 1489.7 L805.7 1493.14 L786.499 1493.14 L786.499 1489.7 Q788.828 1487.29 792.839 1483.24 Q796.869 1479.16 797.902 1477.99 Q799.867 1475.78 800.637 1474.26 Q801.427 1472.72 801.427 1471.24 Q801.427 1468.83 799.725 1467.32 Q798.044 1465.8 795.33 1465.8 Q793.406 1465.8 791.259 1466.46 Q789.132 1467.13 786.702 1468.49 L786.702 1464.36 Q789.173 1463.37 791.32 1462.86 Q793.467 1462.35 795.249 1462.35 Q799.948 1462.35 802.743 1464.7 Q805.538 1467.05 805.538 1470.98 Q805.538 1472.84 804.829 1474.53 Q804.141 1476.19 802.297 1478.46 Q801.791 1479.04 799.077 1481.86 Q796.363 1484.65 791.421 1489.7 Z" fill="#000000" fill-rule="nonzero" fill-opacity="1" /><path clip-path="url(#clip830)" d="M814.329 1462.9 L830.391 1462.9 L830.391 1466.34 L818.076 1466.34 L818.076 1473.76 Q818.967 1473.45 819.858 1473.31 Q820.749 1473.15 821.641 1473.15 Q826.704 1473.15 829.661 1475.92 Q832.619 1478.7 832.619 1483.44 Q832.619 1488.32 829.58 1491.03 Q826.542 1493.73 821.013 1493.73 Q819.109 1493.73 817.124 1493.4 Q815.159 1493.08 813.053 1492.43 L813.053 1488.32 Q814.876 1489.31 816.82 1489.8 Q818.764 1490.28 820.932 1490.28 Q824.436 1490.28 826.481 1488.44 Q828.527 1486.6 828.527 1483.44 Q828.527 1480.28 826.481 1478.44 Q824.436 1476.59 820.932 1476.59 Q819.291 1476.59 817.65 1476.96 Q816.03 1477.32 814.329 1478.09 L814.329 1462.9 Z" fill="#000000" fill-rule="nonzero" fill-opacity="1" /><path clip-path="url(#clip830)" d="M1257.64 1465.59 Q1254.48 1465.59 1252.88 1468.71 Q1251.3 1471.81 1251.3 1478.05 Q1251.3 1484.27 1252.88 1487.39 Q1254.48 1490.49 1257.64 1490.49 Q1260.82 1490.49 1262.4 1487.39 Q1264 1484.27 1264 1478.05 Q1264 1471.81 1262.4 1468.71 Q1260.82 1465.59 1257.64 1465.59 M1257.64 1462.35 Q1262.72 1462.35 1265.4 1466.38 Q1268.09 1470.39 1268.09 1478.05 Q1268.09 1485.69 1265.4 1489.72 Q1262.72 1493.73 1257.64 1493.73 Q1252.56 1493.73 1249.86 1489.72 Q1247.19 1485.69 1247.19 1478.05 Q1247.19 1470.39 1249.86 1466.38 Q1252.56 1462.35 1257.64 1462.35 Z" fill="#000000" fill-rule="nonzero" fill-opacity="1" /><path clip-path="url(#clip830)" d="M1275.28 1488 L1279.55 1488 L1279.55 1493.14 L1275.28 1493.14 L1275.28 1488 Z" fill="#000000" fill-rule="nonzero" fill-opacity="1" /><path clip-path="url(#clip830)" d="M1288.51 1462.9 L1304.57 1462.9 L1304.57 1466.34 L1292.25 1466.34 L1292.25 1473.76 Q1293.15 1473.45 1294.04 1473.31 Q1294.93 1473.15 1295.82 1473.15 Q1300.88 1473.15 1303.84 1475.92 Q1306.8 1478.7 1306.8 1483.44 Q1306.8 1488.32 1303.76 1491.03 Q1300.72 1493.73 1295.19 1493.73 Q1293.29 1493.73 1291.3 1493.4 Q1289.34 1493.08 1287.23 1492.43 L1287.23 1488.32 Q1289.05 1489.31 1291 1489.8 Q1292.94 1490.28 1295.11 1490.28 Q1298.61 1490.28 1300.66 1488.44 Q1302.71 1486.6 1302.71 1483.44 Q1302.71 1480.28 1300.66 1478.44 Q1298.61 1476.59 1295.11 1476.59 Q1293.47 1476.59 1291.83 1476.96 Q1290.21 1477.32 1288.51 1478.09 L1288.51 1462.9 Z" fill="#000000" fill-rule="nonzero" fill-opacity="1" /><path clip-path="url(#clip830)" d="M1323.61 1465.59 Q1320.45 1465.59 1318.85 1468.71 Q1317.27 1471.81 1317.27 1478.05 Q1317.27 1484.27 1318.85 1487.39 Q1320.45 1490.49 1323.61 1490.49 Q1326.79 1490.49 1328.37 1487.39 Q1329.97 1484.27 1329.97 1478.05 Q1329.97 1471.81 1328.37 1468.71 Q1326.79 1465.59 1323.61 1465.59 M1323.61 1462.35 Q1328.69 1462.35 1331.37 1466.38 Q1334.06 1470.39 1334.06 1478.05 Q1334.06 1485.69 1331.37 1489.72 Q1328.69 1493.73 1323.61 1493.73 Q1318.52 1493.73 1315.83 1489.72 Q1313.16 1485.69 1313.16 1478.05 Q1313.16 1470.39 1315.83 1466.38 Q1318.52 1462.35 1323.61 1462.35 Z" fill="#000000" fill-rule="nonzero" fill-opacity="1" /><path clip-path="url(#clip830)" d="M1759.08 1465.59 Q1755.92 1465.59 1754.32 1468.71 Q1752.74 1471.81 1752.74 1478.05 Q1752.74 1484.27 1754.32 1487.39 Q1755.92 1490.49 1759.08 1490.49 Q1762.26 1490.49 1763.84 1487.39 Q1765.44 1484.27 1765.44 1478.05 Q1765.44 1471.81 1763.84 1468.71 Q1762.26 1465.59 1759.08 1465.59 M1759.08 1462.35 Q1764.16 1462.35 1766.84 1466.38 Q1769.53 1470.39 1769.53 1478.05 Q1769.53 1485.69 1766.84 1489.72 Q1764.16 1493.73 1759.08 1493.73 Q1754 1493.73 1751.3 1489.72 Q1748.63 1485.69 1748.63 1478.05 Q1748.63 1470.39 1751.3 1466.38 Q1754 1462.35 1759.08 1462.35 Z" fill="#000000" fill-rule="nonzero" fill-opacity="1" /><path clip-path="url(#clip830)" d="M1776.72 1488 L1781 1488 L1781 1493.14 L1776.72 1493.14 L1776.72 1488 Z" fill="#000000" fill-rule="nonzero" fill-opacity="1" /><path clip-path="url(#clip830)" d="M1788.87 1462.9 L1808.32 1462.9 L1808.32 1464.64 L1797.34 1493.14 L1793.07 1493.14 L1803.4 1466.34 L1788.87 1466.34 L1788.87 1462.9 Z" fill="#000000" fill-rule="nonzero" fill-opacity="1" /><path clip-path="url(#clip830)" d="M1816.34 1462.9 L1832.4 1462.9 L1832.4 1466.34 L1820.09 1466.34 L1820.09 1473.76 Q1820.98 1473.45 1821.87 1473.31 Q1822.76 1473.15 1823.65 1473.15 Q1828.72 1473.15 1831.67 1475.92 Q1834.63 1478.7 1834.63 1483.44 Q1834.63 1488.32 1831.59 1491.03 Q1828.55 1493.73 1823.02 1493.73 Q1821.12 1493.73 1819.14 1493.4 Q1817.17 1493.08 1815.06 1492.43 L1815.06 1488.32 Q1816.89 1489.31 1818.83 1489.8 Q1820.78 1490.28 1822.94 1490.28 Q1826.45 1490.28 1828.49 1488.44 Q1830.54 1486.6 1830.54 1483.44 Q1830.54 1480.28 1828.49 1478.44 Q1826.45 1476.59 1822.94 1476.59 Q1821.3 1476.59 1819.66 1476.96 Q1818.04 1477.32 1816.34 1478.09 L1816.34 1462.9 Z" fill="#000000" fill-rule="nonzero" fill-opacity="1" /><path clip-path="url(#clip830)" d="M2250.7 1489.7 L2257.38 1489.7 L2257.38 1466.63 L2250.11 1468.08 L2250.11 1464.36 L2257.34 1462.9 L2261.43 1462.9 L2261.43 1489.7 L2268.12 1489.7 L2268.12 1493.14 L2250.7 1493.14 L2250.7 1489.7 Z" fill="#000000" fill-rule="nonzero" fill-opacity="1" /><path clip-path="url(#clip830)" d="M2276.38 1488 L2280.65 1488 L2280.65 1493.14 L2276.38 1493.14 L2276.38 1488 Z" fill="#000000" fill-rule="nonzero" fill-opacity="1" /><path clip-path="url(#clip830)" d="M2298.32 1465.59 Q2295.16 1465.59 2293.56 1468.71 Q2291.98 1471.81 2291.98 1478.05 Q2291.98 1484.27 2293.56 1487.39 Q2295.16 1490.49 2298.32 1490.49 Q2301.5 1490.49 2303.08 1487.39 Q2304.68 1484.27 2304.68 1478.05 Q2304.68 1471.81 2303.08 1468.71 Q2301.5 1465.59 2298.32 1465.59 M2298.32 1462.35 Q2303.4 1462.35 2306.07 1466.38 Q2308.77 1470.39 2308.77 1478.05 Q2308.77 1485.69 2306.07 1489.72 Q2303.4 1493.73 2298.32 1493.73 Q2293.23 1493.73 2290.54 1489.72 Q2287.87 1485.69 2287.87 1478.05 Q2287.87 1470.39 2290.54 1466.38 Q2293.23 1462.35 2298.32 1462.35 Z" fill="#000000" fill-rule="nonzero" fill-opacity="1" /><path clip-path="url(#clip830)" d="M2324.71 1465.59 Q2321.55 1465.59 2319.95 1468.71 Q2318.37 1471.81 2318.37 1478.05 Q2318.37 1484.27 2319.95 1487.39 Q2321.55 1490.49 2324.71 1490.49 Q2327.89 1490.49 2329.47 1487.39 Q2331.07 1484.27 2331.07 1478.05 Q2331.07 1471.81 2329.47 1468.71 Q2327.89 1465.59 2324.71 1465.59 M2324.71 1462.35 Q2329.79 1462.35 2332.47 1466.38 Q2335.16 1470.39 2335.16 1478.05 Q2335.16 1485.69 2332.47 1489.72 Q2329.79 1493.73 2324.71 1493.73 Q2319.62 1493.73 2316.93 1489.72 Q2314.26 1485.69 2314.26 1478.05 Q2314.26 1470.39 2316.93 1466.38 Q2319.62 1462.35 2324.71 1462.35 Z" fill="#000000" fill-rule="nonzero" fill-opacity="1" /><path clip-path="url(#clip830)" d="M1072.07 1523.64 L1072.07 1527.62 L1067.49 1527.62 Q1064.91 1527.62 1063.89 1528.66 Q1062.9 1529.7 1062.9 1532.41 L1062.9 1534.99 L1070.79 1534.99 L1070.79 1538.71 L1062.9 1538.71 L1062.9 1564.16 L1058.09 1564.16 L1058.09 1538.71 L1053.5 1538.71 L1053.5 1534.99 L1058.09 1534.99 L1058.09 1532.96 Q1058.09 1528.09 1060.35 1525.87 Q1062.62 1523.64 1067.54 1523.64 L1072.07 1523.64 Z" fill="#000000" fill-rule="nonzero" fill-opacity="1" /><path clip-path="url(#clip830)" d="M1089.34 1549.49 Q1083.53 1549.49 1081.29 1550.82 Q1079.05 1552.15 1079.05 1555.35 Q1079.05 1557.91 1080.72 1559.42 Q1082.41 1560.9 1085.3 1560.9 Q1089.28 1560.9 1091.68 1558.09 Q1094.1 1555.25 1094.1 1550.56 L1094.1 1549.49 L1089.34 1549.49 M1098.89 1547.52 L1098.89 1564.16 L1094.1 1564.16 L1094.1 1559.73 Q1092.46 1562.39 1090.01 1563.66 Q1087.57 1564.91 1084.02 1564.91 Q1079.54 1564.91 1076.89 1562.41 Q1074.26 1559.89 1074.26 1555.67 Q1074.26 1550.74 1077.54 1548.24 Q1080.85 1545.74 1087.38 1545.74 L1094.1 1545.74 L1094.1 1545.28 Q1094.1 1541.97 1091.91 1540.17 Q1089.75 1538.35 1085.82 1538.35 Q1083.32 1538.35 1080.95 1538.95 Q1078.58 1539.55 1076.39 1540.74 L1076.39 1536.32 Q1079.02 1535.3 1081.5 1534.81 Q1083.97 1534.29 1086.32 1534.29 Q1092.64 1534.29 1095.77 1537.57 Q1098.89 1540.85 1098.89 1547.52 Z" fill="#000000" fill-rule="nonzero" fill-opacity="1" /><path clip-path="url(#clip830)" d="M1108.76 1523.64 L1113.55 1523.64 L1113.55 1564.16 L1108.76 1564.16 L1108.76 1523.64 Z" fill="#000000" fill-rule="nonzero" fill-opacity="1" /><path clip-path="url(#clip830)" d="M1142.17 1535.85 L1142.17 1540.38 Q1140.14 1539.34 1137.96 1538.82 Q1135.77 1538.3 1133.42 1538.3 Q1129.86 1538.3 1128.06 1539.39 Q1126.29 1540.48 1126.29 1542.67 Q1126.29 1544.34 1127.56 1545.3 Q1128.84 1546.24 1132.7 1547.1 L1134.34 1547.46 Q1139.44 1548.56 1141.58 1550.56 Q1143.74 1552.54 1143.74 1556.11 Q1143.74 1560.17 1140.51 1562.54 Q1137.3 1564.91 1131.68 1564.91 Q1129.34 1564.91 1126.78 1564.44 Q1124.26 1564 1121.45 1563.09 L1121.45 1558.14 Q1124.1 1559.52 1126.68 1560.22 Q1129.26 1560.9 1131.78 1560.9 Q1135.17 1560.9 1136.99 1559.75 Q1138.81 1558.58 1138.81 1556.47 Q1138.81 1554.52 1137.49 1553.48 Q1136.18 1552.44 1131.73 1551.47 L1130.06 1551.08 Q1125.61 1550.15 1123.63 1548.22 Q1121.65 1546.27 1121.65 1542.88 Q1121.65 1538.77 1124.57 1536.53 Q1127.49 1534.29 1132.85 1534.29 Q1135.51 1534.29 1137.85 1534.68 Q1140.19 1535.07 1142.17 1535.85 Z" fill="#000000" fill-rule="nonzero" fill-opacity="1" /><path clip-path="url(#clip830)" d="M1176.31 1548.37 L1176.31 1550.72 L1154.28 1550.72 Q1154.6 1555.67 1157.25 1558.27 Q1159.93 1560.85 1164.7 1560.85 Q1167.46 1560.85 1170.04 1560.17 Q1172.64 1559.49 1175.19 1558.14 L1175.19 1562.67 Q1172.62 1563.77 1169.91 1564.34 Q1167.2 1564.91 1164.41 1564.91 Q1157.43 1564.91 1153.35 1560.85 Q1149.28 1556.79 1149.28 1549.86 Q1149.28 1542.7 1153.14 1538.5 Q1157.02 1534.29 1163.58 1534.29 Q1169.47 1534.29 1172.88 1538.09 Q1176.31 1541.86 1176.31 1548.37 M1171.52 1546.97 Q1171.47 1543.04 1169.31 1540.69 Q1167.17 1538.35 1163.63 1538.35 Q1159.62 1538.35 1157.2 1540.61 Q1154.8 1542.88 1154.44 1546.99 L1171.52 1546.97 Z" fill="#000000" fill-rule="nonzero" fill-opacity="1" /><path clip-path="url(#clip830)" d="M1205.77 1559.78 L1205.77 1575.25 L1200.95 1575.25 L1200.95 1534.99 L1205.77 1534.99 L1205.77 1539.42 Q1207.28 1536.81 1209.57 1535.56 Q1211.89 1534.29 1215.09 1534.29 Q1220.4 1534.29 1223.71 1538.5 Q1227.04 1542.72 1227.04 1549.6 Q1227.04 1556.47 1223.71 1560.69 Q1220.4 1564.91 1215.09 1564.91 Q1211.89 1564.91 1209.57 1563.66 Q1207.28 1562.39 1205.77 1559.78 M1222.07 1549.6 Q1222.07 1544.31 1219.88 1541.32 Q1217.72 1538.3 1213.92 1538.3 Q1210.12 1538.3 1207.93 1541.32 Q1205.77 1544.31 1205.77 1549.6 Q1205.77 1554.89 1207.93 1557.91 Q1210.12 1560.9 1213.92 1560.9 Q1217.72 1560.9 1219.88 1557.91 Q1222.07 1554.89 1222.07 1549.6 Z" fill="#000000" fill-rule="nonzero" fill-opacity="1" /><path clip-path="url(#clip830)" d="M1246.29 1538.35 Q1242.43 1538.35 1240.19 1541.37 Q1237.95 1544.36 1237.95 1549.6 Q1237.95 1554.83 1240.17 1557.85 Q1242.41 1560.85 1246.29 1560.85 Q1250.12 1560.85 1252.36 1557.83 Q1254.6 1554.81 1254.6 1549.6 Q1254.6 1544.42 1252.36 1541.4 Q1250.12 1538.35 1246.29 1538.35 M1246.29 1534.29 Q1252.54 1534.29 1256.11 1538.35 Q1259.67 1542.41 1259.67 1549.6 Q1259.67 1556.76 1256.11 1560.85 Q1252.54 1564.91 1246.29 1564.91 Q1240.01 1564.91 1236.44 1560.85 Q1232.9 1556.76 1232.9 1549.6 Q1232.9 1542.41 1236.44 1538.35 Q1240.01 1534.29 1246.29 1534.29 Z" fill="#000000" fill-rule="nonzero" fill-opacity="1" /><path clip-path="url(#clip830)" d="M1286.21 1535.85 L1286.21 1540.38 Q1284.18 1539.34 1281.99 1538.82 Q1279.8 1538.3 1277.46 1538.3 Q1273.89 1538.3 1272.1 1539.39 Q1270.32 1540.48 1270.32 1542.67 Q1270.32 1544.34 1271.6 1545.3 Q1272.88 1546.24 1276.73 1547.1 L1278.37 1547.46 Q1283.48 1548.56 1285.61 1550.56 Q1287.77 1552.54 1287.77 1556.11 Q1287.77 1560.17 1284.54 1562.54 Q1281.34 1564.91 1275.72 1564.91 Q1273.37 1564.91 1270.82 1564.44 Q1268.29 1564 1265.48 1563.09 L1265.48 1558.14 Q1268.14 1559.52 1270.72 1560.22 Q1273.29 1560.9 1275.82 1560.9 Q1279.2 1560.9 1281.03 1559.75 Q1282.85 1558.58 1282.85 1556.47 Q1282.85 1554.52 1281.52 1553.48 Q1280.22 1552.44 1275.77 1551.47 L1274.1 1551.08 Q1269.65 1550.15 1267.67 1548.22 Q1265.69 1546.27 1265.69 1542.88 Q1265.69 1538.77 1268.61 1536.53 Q1271.52 1534.29 1276.89 1534.29 Q1279.54 1534.29 1281.89 1534.68 Q1284.23 1535.07 1286.21 1535.85 Z" fill="#000000" fill-rule="nonzero" fill-opacity="1" /><path clip-path="url(#clip830)" d="M1295.4 1534.99 L1300.19 1534.99 L1300.19 1564.16 L1295.4 1564.16 L1295.4 1534.99 M1295.4 1523.64 L1300.19 1523.64 L1300.19 1529.7 L1295.4 1529.7 L1295.4 1523.64 Z" fill="#000000" fill-rule="nonzero" fill-opacity="1" /><path clip-path="url(#clip830)" d="M1314.96 1526.71 L1314.96 1534.99 L1324.83 1534.99 L1324.83 1538.71 L1314.96 1538.71 L1314.96 1554.55 Q1314.96 1558.11 1315.92 1559.13 Q1316.91 1560.15 1319.91 1560.15 L1324.83 1560.15 L1324.83 1564.16 L1319.91 1564.16 Q1314.36 1564.16 1312.25 1562.1 Q1310.14 1560.02 1310.14 1554.55 L1310.14 1538.71 L1306.63 1538.71 L1306.63 1534.99 L1310.14 1534.99 L1310.14 1526.71 L1314.96 1526.71 Z" fill="#000000" fill-rule="nonzero" fill-opacity="1" /><path clip-path="url(#clip830)" d="M1331.13 1534.99 L1335.92 1534.99 L1335.92 1564.16 L1331.13 1564.16 L1331.13 1534.99 M1331.13 1523.64 L1335.92 1523.64 L1335.92 1529.7 L1331.13 1529.7 L1331.13 1523.64 Z" fill="#000000" fill-rule="nonzero" fill-opacity="1" /><path clip-path="url(#clip830)" d="M1342.51 1534.99 L1347.59 1534.99 L1356.7 1559.47 L1365.82 1534.99 L1370.9 1534.99 L1359.96 1564.16 L1353.45 1564.16 L1342.51 1534.99 Z" fill="#000000" fill-rule="nonzero" fill-opacity="1" /><path clip-path="url(#clip830)" d="M1402.46 1548.37 L1402.46 1550.72 L1380.43 1550.72 Q1380.74 1555.67 1383.4 1558.27 Q1386.08 1560.85 1390.84 1560.85 Q1393.61 1560.85 1396.18 1560.17 Q1398.79 1559.49 1401.34 1558.14 L1401.34 1562.67 Q1398.76 1563.77 1396.05 1564.34 Q1393.34 1564.91 1390.56 1564.91 Q1383.58 1564.91 1379.49 1560.85 Q1375.43 1556.79 1375.43 1549.86 Q1375.43 1542.7 1379.28 1538.5 Q1383.16 1534.29 1389.72 1534.29 Q1395.61 1534.29 1399.02 1538.09 Q1402.46 1541.86 1402.46 1548.37 M1397.67 1546.97 Q1397.62 1543.04 1395.45 1540.69 Q1393.32 1538.35 1389.78 1538.35 Q1385.77 1538.35 1383.34 1540.61 Q1380.95 1542.88 1380.58 1546.99 L1397.67 1546.97 Z" fill="#000000" fill-rule="nonzero" fill-opacity="1" /><path clip-path="url(#clip830)" d="M1444.18 1539.47 Q1443.37 1539 1442.41 1538.79 Q1441.47 1538.56 1440.32 1538.56 Q1436.26 1538.56 1434.07 1541.21 Q1431.91 1543.84 1431.91 1548.79 L1431.91 1564.16 L1427.09 1564.16 L1427.09 1534.99 L1431.91 1534.99 L1431.91 1539.52 Q1433.42 1536.86 1435.84 1535.59 Q1438.27 1534.29 1441.73 1534.29 Q1442.22 1534.29 1442.82 1534.36 Q1443.42 1534.42 1444.15 1534.55 L1444.18 1539.47 Z" fill="#000000" fill-rule="nonzero" fill-opacity="1" /><path clip-path="url(#clip830)" d="M1462.46 1549.49 Q1456.65 1549.49 1454.41 1550.82 Q1452.17 1552.15 1452.17 1555.35 Q1452.17 1557.91 1453.84 1559.42 Q1455.53 1560.9 1458.42 1560.9 Q1462.41 1560.9 1464.8 1558.09 Q1467.22 1555.25 1467.22 1550.56 L1467.22 1549.49 L1462.46 1549.49 M1472.02 1547.52 L1472.02 1564.16 L1467.22 1564.16 L1467.22 1559.73 Q1465.58 1562.39 1463.14 1563.66 Q1460.69 1564.91 1457.15 1564.91 Q1452.67 1564.91 1450.01 1562.41 Q1447.38 1559.89 1447.38 1555.67 Q1447.38 1550.74 1450.66 1548.24 Q1453.97 1545.74 1460.51 1545.74 L1467.22 1545.74 L1467.22 1545.28 Q1467.22 1541.97 1465.04 1540.17 Q1462.88 1538.35 1458.94 1538.35 Q1456.44 1538.35 1454.07 1538.95 Q1451.7 1539.55 1449.52 1540.74 L1449.52 1536.32 Q1452.15 1535.3 1454.62 1534.81 Q1457.09 1534.29 1459.44 1534.29 Q1465.77 1534.29 1468.89 1537.57 Q1472.02 1540.85 1472.02 1547.52 Z" fill="#000000" fill-rule="nonzero" fill-opacity="1" /><path clip-path="url(#clip830)" d="M1486.63 1526.71 L1486.63 1534.99 L1496.5 1534.99 L1496.5 1538.71 L1486.63 1538.71 L1486.63 1554.55 Q1486.63 1558.11 1487.59 1559.13 Q1488.58 1560.15 1491.57 1560.15 L1496.5 1560.15 L1496.5 1564.16 L1491.57 1564.16 Q1486.03 1564.16 1483.92 1562.1 Q1481.81 1560.02 1481.81 1554.55 L1481.81 1538.71 L1478.29 1538.71 L1478.29 1534.99 L1481.81 1534.99 L1481.81 1526.71 L1486.63 1526.71 Z" fill="#000000" fill-rule="nonzero" fill-opacity="1" /><path clip-path="url(#clip830)" d="M1527.74 1548.37 L1527.74 1550.72 L1505.71 1550.72 Q1506.03 1555.67 1508.68 1558.27 Q1511.36 1560.85 1516.13 1560.85 Q1518.89 1560.85 1521.47 1560.17 Q1524.07 1559.49 1526.63 1558.14 L1526.63 1562.67 Q1524.05 1563.77 1521.34 1564.34 Q1518.63 1564.91 1515.84 1564.91 Q1508.86 1564.91 1504.78 1560.85 Q1500.71 1556.79 1500.71 1549.86 Q1500.71 1542.7 1504.57 1538.5 Q1508.45 1534.29 1515.01 1534.29 Q1520.9 1534.29 1524.31 1538.09 Q1527.74 1541.86 1527.74 1548.37 M1522.95 1546.97 Q1522.9 1543.04 1520.74 1540.69 Q1518.6 1538.35 1515.06 1538.35 Q1511.05 1538.35 1508.63 1540.61 Q1506.23 1542.88 1505.87 1546.99 L1522.95 1546.97 Z" fill="#000000" fill-rule="nonzero" fill-opacity="1" /><polyline clip-path="url(#clip832)" style="stroke:#000000; stroke-linecap:round; stroke-linejoin:round; stroke-width:2; stroke-opacity:0.1; fill:none" points="228.492,1396.83 2352.76,1396.83 "/>
<polyline clip-path="url(#clip832)" style="stroke:#000000; stroke-linecap:round; stroke-linejoin:round; stroke-width:2; stroke-opacity:0.1; fill:none" points="228.492,1069.26 2352.76,1069.26 "/>
<polyline clip-path="url(#clip832)" style="stroke:#000000; stroke-linecap:round; stroke-linejoin:round; stroke-width:2; stroke-opacity:0.1; fill:none" points="228.492,741.692 2352.76,741.692 "/>
<polyline clip-path="url(#clip832)" style="stroke:#000000; stroke-linecap:round; stroke-linejoin:round; stroke-width:2; stroke-opacity:0.1; fill:none" points="228.492,414.122 2352.76,414.122 "/>
<polyline clip-path="url(#clip832)" style="stroke:#000000; stroke-linecap:round; stroke-linejoin:round; stroke-width:2; stroke-opacity:0.1; fill:none" points="228.492,86.5525 2352.76,86.5525 "/>
<polyline clip-path="url(#clip830)" style="stroke:#000000; stroke-linecap:round; stroke-linejoin:round; stroke-width:4; stroke-opacity:1; fill:none" points="228.492,1436.14 228.492,47.2441 "/>
<polyline clip-path="url(#clip830)" style="stroke:#000000; stroke-linecap:round; stroke-linejoin:round; stroke-width:4; stroke-opacity:1; fill:none" points="228.492,1396.83 247.389,1396.83 "/>
<polyline clip-path="url(#clip830)" style="stroke:#000000; stroke-linecap:round; stroke-linejoin:round; stroke-width:4; stroke-opacity:1; fill:none" points="228.492,1069.26 247.389,1069.26 "/>
<polyline clip-path="url(#clip830)" style="stroke:#000000; stroke-linecap:round; stroke-linejoin:round; stroke-width:4; stroke-opacity:1; fill:none" points="228.492,741.692 247.389,741.692 "/>
<polyline clip-path="url(#clip830)" style="stroke:#000000; stroke-linecap:round; stroke-linejoin:round; stroke-width:4; stroke-opacity:1; fill:none" points="228.492,414.122 247.389,414.122 "/>
<polyline clip-path="url(#clip830)" style="stroke:#000000; stroke-linecap:round; stroke-linejoin:round; stroke-width:4; stroke-opacity:1; fill:none" points="228.492,86.5525 247.389,86.5525 "/>
<path clip-path="url(#clip830)" d="M116.071 1384.41 Q112.912 1384.41 111.312 1387.52 Q109.732 1390.62 109.732 1396.86 Q109.732 1403.08 111.312 1406.2 Q112.912 1409.3 116.071 1409.3 Q119.251 1409.3 120.831 1406.2 Q122.431 1403.08 122.431 1396.86 Q122.431 1390.62 120.831 1387.52 Q119.251 1384.41 116.071 1384.41 M116.071 1381.16 Q121.155 1381.16 123.829 1385.2 Q126.523 1389.21 126.523 1396.86 Q126.523 1404.5 123.829 1408.53 Q121.155 1412.54 116.071 1412.54 Q110.988 1412.54 108.294 1408.53 Q105.62 1404.5 105.62 1396.86 Q105.62 1389.21 108.294 1385.2 Q110.988 1381.16 116.071 1381.16 Z" fill="#000000" fill-rule="nonzero" fill-opacity="1" /><path clip-path="url(#clip830)" d="M133.713 1406.81 L137.987 1406.81 L137.987 1411.95 L133.713 1411.95 L133.713 1406.81 Z" fill="#000000" fill-rule="nonzero" fill-opacity="1" /><path clip-path="url(#clip830)" d="M155.649 1384.41 Q152.489 1384.41 150.889 1387.52 Q149.309 1390.62 149.309 1396.86 Q149.309 1403.08 150.889 1406.2 Q152.489 1409.3 155.649 1409.3 Q158.829 1409.3 160.409 1406.2 Q162.009 1403.08 162.009 1396.86 Q162.009 1390.62 160.409 1387.52 Q158.829 1384.41 155.649 1384.41 M155.649 1381.16 Q160.733 1381.16 163.406 1385.2 Q166.1 1389.21 166.1 1396.86 Q166.1 1404.5 163.406 1408.53 Q160.733 1412.54 155.649 1412.54 Q150.565 1412.54 147.871 1408.53 Q145.197 1404.5 145.197 1396.86 Q145.197 1389.21 147.871 1385.2 Q150.565 1381.16 155.649 1381.16 Z" fill="#000000" fill-rule="nonzero" fill-opacity="1" /><path clip-path="url(#clip830)" d="M182.04 1384.41 Q178.881 1384.41 177.281 1387.52 Q175.701 1390.62 175.701 1396.86 Q175.701 1403.08 177.281 1406.2 Q178.881 1409.3 182.04 1409.3 Q185.22 1409.3 186.8 1406.2 Q188.4 1403.08 188.4 1396.86 Q188.4 1390.62 186.8 1387.52 Q185.22 1384.41 182.04 1384.41 M182.04 1381.16 Q187.124 1381.16 189.798 1385.2 Q192.492 1389.21 192.492 1396.86 Q192.492 1404.5 189.798 1408.53 Q187.124 1412.54 182.04 1412.54 Q176.957 1412.54 174.263 1408.53 Q171.589 1404.5 171.589 1396.86 Q171.589 1389.21 174.263 1385.2 Q176.957 1381.16 182.04 1381.16 Z" fill="#000000" fill-rule="nonzero" fill-opacity="1" /><path clip-path="url(#clip830)" d="M116.942 1056.84 Q113.783 1056.84 112.183 1059.95 Q110.603 1063.05 110.603 1069.29 Q110.603 1075.51 112.183 1078.63 Q113.783 1081.73 116.942 1081.73 Q120.122 1081.73 121.702 1078.63 Q123.302 1075.51 123.302 1069.29 Q123.302 1063.05 121.702 1059.95 Q120.122 1056.84 116.942 1056.84 M116.942 1053.59 Q122.026 1053.59 124.7 1057.63 Q127.394 1061.64 127.394 1069.29 Q127.394 1076.93 124.7 1080.96 Q122.026 1084.97 116.942 1084.97 Q111.859 1084.97 109.165 1080.96 Q106.491 1076.93 106.491 1069.29 Q106.491 1061.64 109.165 1057.63 Q111.859 1053.59 116.942 1053.59 Z" fill="#000000" fill-rule="nonzero" fill-opacity="1" /><path clip-path="url(#clip830)" d="M134.584 1079.24 L138.858 1079.24 L138.858 1084.38 L134.584 1084.38 L134.584 1079.24 Z" fill="#000000" fill-rule="nonzero" fill-opacity="1" /><path clip-path="url(#clip830)" d="M151.294 1080.94 L165.574 1080.94 L165.574 1084.38 L146.372 1084.38 L146.372 1080.94 Q148.702 1078.53 152.712 1074.48 Q156.743 1070.41 157.776 1069.23 Q159.74 1067.02 160.51 1065.5 Q161.3 1063.97 161.3 1062.49 Q161.3 1060.08 159.598 1058.56 Q157.917 1057.04 155.203 1057.04 Q153.279 1057.04 151.132 1057.71 Q149.005 1058.37 146.575 1059.73 L146.575 1055.6 Q149.046 1054.61 151.193 1054.1 Q153.34 1053.59 155.122 1053.59 Q159.821 1053.59 162.616 1055.94 Q165.412 1058.29 165.412 1062.22 Q165.412 1064.09 164.703 1065.77 Q164.014 1067.43 162.171 1069.7 Q161.664 1070.28 158.95 1073.1 Q156.236 1075.9 151.294 1080.94 Z" fill="#000000" fill-rule="nonzero" fill-opacity="1" /><path clip-path="url(#clip830)" d="M174.202 1054.14 L190.264 1054.14 L190.264 1057.58 L177.949 1057.58 L177.949 1065 Q178.84 1064.69 179.731 1064.55 Q180.623 1064.39 181.514 1064.39 Q186.577 1064.39 189.535 1067.17 Q192.492 1069.94 192.492 1074.68 Q192.492 1079.56 189.454 1082.28 Q186.415 1084.97 180.886 1084.97 Q178.982 1084.97 176.997 1084.65 Q175.032 1084.32 172.926 1083.67 L172.926 1079.56 Q174.749 1080.55 176.693 1081.04 Q178.638 1081.53 180.805 1081.53 Q184.309 1081.53 186.355 1079.68 Q188.4 1077.84 188.4 1074.68 Q188.4 1071.52 186.355 1069.68 Q184.309 1067.83 180.805 1067.83 Q179.164 1067.83 177.524 1068.2 Q175.903 1068.56 174.202 1069.33 L174.202 1054.14 Z" fill="#000000" fill-rule="nonzero" fill-opacity="1" /><path clip-path="url(#clip830)" d="M116.071 729.266 Q112.912 729.266 111.312 732.385 Q109.732 735.484 109.732 741.722 Q109.732 747.94 111.312 751.06 Q112.912 754.159 116.071 754.159 Q119.251 754.159 120.831 751.06 Q122.431 747.94 122.431 741.722 Q122.431 735.484 120.831 732.385 Q119.251 729.266 116.071 729.266 M116.071 726.025 Q121.155 726.025 123.829 730.056 Q126.523 734.066 126.523 741.722 Q126.523 749.358 123.829 753.389 Q121.155 757.399 116.071 757.399 Q110.988 757.399 108.294 753.389 Q105.62 749.358 105.62 741.722 Q105.62 734.066 108.294 730.056 Q110.988 726.025 116.071 726.025 Z" fill="#000000" fill-rule="nonzero" fill-opacity="1" /><path clip-path="url(#clip830)" d="M133.713 751.667 L137.987 751.667 L137.987 756.812 L133.713 756.812 L133.713 751.667 Z" fill="#000000" fill-rule="nonzero" fill-opacity="1" /><path clip-path="url(#clip830)" d="M146.939 726.572 L163.001 726.572 L163.001 730.015 L150.686 730.015 L150.686 737.428 Q151.578 737.125 152.469 736.983 Q153.36 736.821 154.251 736.821 Q159.315 736.821 162.272 739.596 Q165.229 742.37 165.229 747.11 Q165.229 751.991 162.191 754.705 Q159.153 757.399 153.623 757.399 Q151.719 757.399 149.735 757.075 Q147.77 756.751 145.663 756.103 L145.663 751.991 Q147.486 752.984 149.431 753.47 Q151.375 753.956 153.542 753.956 Q157.046 753.956 159.092 752.113 Q161.138 750.27 161.138 747.11 Q161.138 743.95 159.092 742.107 Q157.046 740.264 153.542 740.264 Q151.902 740.264 150.261 740.629 Q148.641 740.993 146.939 741.763 L146.939 726.572 Z" fill="#000000" fill-rule="nonzero" fill-opacity="1" /><path clip-path="url(#clip830)" d="M182.04 729.266 Q178.881 729.266 177.281 732.385 Q175.701 735.484 175.701 741.722 Q175.701 747.94 177.281 751.06 Q178.881 754.159 182.04 754.159 Q185.22 754.159 186.8 751.06 Q188.4 747.94 188.4 741.722 Q188.4 735.484 186.8 732.385 Q185.22 729.266 182.04 729.266 M182.04 726.025 Q187.124 726.025 189.798 730.056 Q192.492 734.066 192.492 741.722 Q192.492 749.358 189.798 753.389 Q187.124 757.399 182.04 757.399 Q176.957 757.399 174.263 753.389 Q171.589 749.358 171.589 741.722 Q171.589 734.066 174.263 730.056 Q176.957 726.025 182.04 726.025 Z" fill="#000000" fill-rule="nonzero" fill-opacity="1" /><path clip-path="url(#clip830)" d="M116.942 401.696 Q113.783 401.696 112.183 404.815 Q110.603 407.914 110.603 414.153 Q110.603 420.371 112.183 423.49 Q113.783 426.589 116.942 426.589 Q120.122 426.589 121.702 423.49 Q123.302 420.371 123.302 414.153 Q123.302 407.914 121.702 404.815 Q120.122 401.696 116.942 401.696 M116.942 398.455 Q122.026 398.455 124.7 402.486 Q127.394 406.496 127.394 414.153 Q127.394 421.789 124.7 425.819 Q122.026 429.83 116.942 429.83 Q111.859 429.83 109.165 425.819 Q106.491 421.789 106.491 414.153 Q106.491 406.496 109.165 402.486 Q111.859 398.455 116.942 398.455 Z" fill="#000000" fill-rule="nonzero" fill-opacity="1" /><path clip-path="url(#clip830)" d="M134.584 424.098 L138.858 424.098 L138.858 429.242 L134.584 429.242 L134.584 424.098 Z" fill="#000000" fill-rule="nonzero" fill-opacity="1" /><path clip-path="url(#clip830)" d="M146.737 399.002 L166.181 399.002 L166.181 400.744 L155.203 429.242 L150.93 429.242 L161.259 402.445 L146.737 402.445 L146.737 399.002 Z" fill="#000000" fill-rule="nonzero" fill-opacity="1" /><path clip-path="url(#clip830)" d="M174.202 399.002 L190.264 399.002 L190.264 402.445 L177.949 402.445 L177.949 409.859 Q178.84 409.555 179.731 409.413 Q180.623 409.251 181.514 409.251 Q186.577 409.251 189.535 412.026 Q192.492 414.801 192.492 419.54 Q192.492 424.422 189.454 427.136 Q186.415 429.83 180.886 429.83 Q178.982 429.83 176.997 429.506 Q175.032 429.181 172.926 428.533 L172.926 424.422 Q174.749 425.414 176.693 425.9 Q178.638 426.386 180.805 426.386 Q184.309 426.386 186.355 424.543 Q188.4 422.7 188.4 419.54 Q188.4 416.381 186.355 414.537 Q184.309 412.694 180.805 412.694 Q179.164 412.694 177.524 413.059 Q175.903 413.423 174.202 414.193 L174.202 399.002 Z" fill="#000000" fill-rule="nonzero" fill-opacity="1" /><path clip-path="url(#clip830)" d="M108.03 98.2292 L114.714 98.2292 L114.714 75.1593 L107.443 76.6176 L107.443 72.8908 L114.674 71.4325 L118.765 71.4325 L118.765 98.2292 L125.449 98.2292 L125.449 101.672 L108.03 101.672 L108.03 98.2292 Z" fill="#000000" fill-rule="nonzero" fill-opacity="1" /><path clip-path="url(#clip830)" d="M133.713 96.5278 L137.987 96.5278 L137.987 101.672 L133.713 101.672 L133.713 96.5278 Z" fill="#000000" fill-rule="nonzero" fill-opacity="1" /><path clip-path="url(#clip830)" d="M155.649 74.1263 Q152.489 74.1263 150.889 77.2455 Q149.309 80.3445 149.309 86.5828 Q149.309 92.801 150.889 95.9202 Q152.489 99.0191 155.649 99.0191 Q158.829 99.0191 160.409 95.9202 Q162.009 92.801 162.009 86.5828 Q162.009 80.3445 160.409 77.2455 Q158.829 74.1263 155.649 74.1263 M155.649 70.8856 Q160.733 70.8856 163.406 74.9162 Q166.1 78.9266 166.1 86.5828 Q166.1 94.2188 163.406 98.2495 Q160.733 102.26 155.649 102.26 Q150.565 102.26 147.871 98.2495 Q145.197 94.2188 145.197 86.5828 Q145.197 78.9266 147.871 74.9162 Q150.565 70.8856 155.649 70.8856 Z" fill="#000000" fill-rule="nonzero" fill-opacity="1" /><path clip-path="url(#clip830)" d="M182.04 74.1263 Q178.881 74.1263 177.281 77.2455 Q175.701 80.3445 175.701 86.5828 Q175.701 92.801 177.281 95.9202 Q178.881 99.0191 182.04 99.0191 Q185.22 99.0191 186.8 95.9202 Q188.4 92.801 188.4 86.5828 Q188.4 80.3445 186.8 77.2455 Q185.22 74.1263 182.04 74.1263 M182.04 70.8856 Q187.124 70.8856 189.798 74.9162 Q192.492 78.9266 192.492 86.5828 Q192.492 94.2188 189.798 98.2495 Q187.124 102.26 182.04 102.26 Q176.957 102.26 174.263 98.2495 Q171.589 94.2188 171.589 86.5828 Q171.589 78.9266 174.263 74.9162 Q176.957 70.8856 182.04 70.8856 Z" fill="#000000" fill-rule="nonzero" fill-opacity="1" /><path clip-path="url(#clip830)" d="M20.5084 961.665 L28.7896 961.665 L28.7896 951.795 L32.5136 951.795 L32.5136 961.665 L48.3468 961.665 Q51.9145 961.665 52.9301 960.701 Q53.9458 959.712 53.9458 956.717 L53.9458 951.795 L57.9562 951.795 L57.9562 956.717 Q57.9562 962.264 55.8989 964.373 Q53.8156 966.482 48.3468 966.482 L32.5136 966.482 L32.5136 969.998 L28.7896 969.998 L28.7896 966.482 L20.5084 966.482 L20.5084 961.665 Z" fill="#000000" fill-rule="nonzero" fill-opacity="1" /><path clip-path="url(#clip830)" d="M33.2688 928.592 Q32.8 929.399 32.5917 930.363 Q32.3573 931.3 32.3573 932.446 Q32.3573 936.509 35.0136 938.696 Q37.6438 940.858 42.5917 940.858 L57.9562 940.858 L57.9562 945.675 L28.7896 945.675 L28.7896 940.858 L33.3209 940.858 Q30.6646 939.347 29.3886 936.925 Q28.0865 934.503 28.0865 931.04 Q28.0865 930.545 28.1647 929.946 Q28.2167 929.347 28.3469 928.618 L33.2688 928.592 Z" fill="#000000" fill-rule="nonzero" fill-opacity="1" /><path clip-path="url(#clip830)" d="M46.4458 924.061 L28.7896 924.061 L28.7896 919.269 L46.2635 919.269 Q50.4041 919.269 52.4874 917.655 Q54.5447 916.04 54.5447 912.811 Q54.5447 908.931 52.0708 906.691 Q49.5968 904.425 45.326 904.425 L28.7896 904.425 L28.7896 899.634 L57.9562 899.634 L57.9562 904.425 L53.477 904.425 Q56.1333 906.17 57.4353 908.488 Q58.7114 910.78 58.7114 913.826 Q58.7114 918.852 55.5864 921.457 Q52.4614 924.061 46.4458 924.061 M28.0865 912.004 L28.0865 912.004 Z" fill="#000000" fill-rule="nonzero" fill-opacity="1" /><path clip-path="url(#clip830)" d="M42.175 864.816 L44.5187 864.816 L44.5187 886.847 Q49.4666 886.535 52.0708 883.879 Q54.6489 881.196 54.6489 876.431 Q54.6489 873.67 53.9718 871.092 Q53.2947 868.488 51.9406 865.936 L56.4718 865.936 Q57.5655 868.514 58.1384 871.223 Q58.7114 873.931 58.7114 876.717 Q58.7114 883.696 54.6489 887.785 Q50.5864 891.847 43.6594 891.847 Q36.4979 891.847 32.3053 887.993 Q28.0865 884.113 28.0865 877.551 Q28.0865 871.665 31.8886 868.254 Q35.6646 864.816 42.175 864.816 M40.7687 869.608 Q36.8365 869.66 34.4927 871.821 Q32.149 873.957 32.149 877.499 Q32.149 881.509 34.4146 883.931 Q36.6802 886.327 40.7948 886.691 L40.7687 869.608 Z" fill="#000000" fill-rule="nonzero" fill-opacity="1" /><path clip-path="url(#clip830)" d="M53.5812 835.363 L69.0498 835.363 L69.0498 840.181 L28.7896 840.181 L28.7896 835.363 L33.2167 835.363 Q30.6126 833.853 29.3626 831.561 Q28.0865 829.244 28.0865 826.04 Q28.0865 820.728 32.3053 817.421 Q36.524 814.087 43.3989 814.087 Q50.2739 814.087 54.4926 817.421 Q58.7114 820.728 58.7114 826.04 Q58.7114 829.244 57.4614 831.561 Q56.1853 833.853 53.5812 835.363 M43.3989 819.061 Q38.1125 819.061 35.1177 821.249 Q32.0969 823.41 32.0969 827.212 Q32.0969 831.014 35.1177 833.202 Q38.1125 835.363 43.3989 835.363 Q48.6854 835.363 51.7062 833.202 Q54.701 831.014 54.701 827.212 Q54.701 823.41 51.7062 821.249 Q48.6854 819.061 43.3989 819.061 Z" fill="#000000" fill-rule="nonzero" fill-opacity="1" /><path clip-path="url(#clip830)" d="M32.149 794.843 Q32.149 798.697 35.1698 800.936 Q38.1646 803.176 43.3989 803.176 Q48.6333 803.176 51.6541 800.962 Q54.6489 798.723 54.6489 794.843 Q54.6489 791.015 51.6281 788.775 Q48.6072 786.535 43.3989 786.535 Q38.2167 786.535 35.1959 788.775 Q32.149 791.015 32.149 794.843 M28.0865 794.843 Q28.0865 788.593 32.149 785.025 Q36.2115 781.457 43.3989 781.457 Q50.5604 781.457 54.6489 785.025 Q58.7114 788.593 58.7114 794.843 Q58.7114 801.119 54.6489 804.686 Q50.5604 808.228 43.3989 808.228 Q36.2115 808.228 32.149 804.686 Q28.0865 801.119 28.0865 794.843 Z" fill="#000000" fill-rule="nonzero" fill-opacity="1" /><path clip-path="url(#clip830)" d="M29.649 754.921 L34.1802 754.921 Q33.1386 756.952 32.6178 759.14 Q32.0969 761.327 32.0969 763.671 Q32.0969 767.239 33.1907 769.036 Q34.2844 770.806 36.4719 770.806 Q38.1386 770.806 39.1021 769.53 Q40.0396 768.254 40.899 764.4 L41.2635 762.76 Q42.3573 757.655 44.3625 755.52 Q46.3416 753.359 49.9093 753.359 Q53.9718 753.359 56.3416 756.588 Q58.7114 759.791 58.7114 765.416 Q58.7114 767.76 58.2426 770.312 Q57.7999 772.838 56.8885 775.65 L51.9406 775.65 Q53.3208 772.994 54.0239 770.416 Q54.701 767.838 54.701 765.312 Q54.701 761.926 53.5551 760.103 Q52.3833 758.28 50.2739 758.28 Q48.3208 758.28 47.2791 759.609 Q46.2375 760.911 45.2739 765.364 L44.8833 767.03 Q43.9458 771.483 42.0187 773.463 Q40.0656 775.442 36.6802 775.442 Q32.5657 775.442 30.3261 772.525 Q28.0865 769.608 28.0865 764.244 Q28.0865 761.588 28.4771 759.244 Q28.8678 756.9 29.649 754.921 Z" fill="#000000" fill-rule="nonzero" fill-opacity="1" /><path clip-path="url(#clip830)" d="M28.7896 745.728 L28.7896 740.937 L57.9562 740.937 L57.9562 745.728 L28.7896 745.728 M17.4355 745.728 L17.4355 740.937 L23.5032 740.937 L23.5032 745.728 L17.4355 745.728 Z" fill="#000000" fill-rule="nonzero" fill-opacity="1" /><path clip-path="url(#clip830)" d="M20.5084 726.171 L28.7896 726.171 L28.7896 716.301 L32.5136 716.301 L32.5136 726.171 L48.3468 726.171 Q51.9145 726.171 52.9301 725.208 Q53.9458 724.218 53.9458 721.223 L53.9458 716.301 L57.9562 716.301 L57.9562 721.223 Q57.9562 726.77 55.8989 728.88 Q53.8156 730.989 48.3468 730.989 L32.5136 730.989 L32.5136 734.505 L28.7896 734.505 L28.7896 730.989 L20.5084 730.989 L20.5084 726.171 Z" fill="#000000" fill-rule="nonzero" fill-opacity="1" /><path clip-path="url(#clip830)" d="M28.7896 709.999 L28.7896 705.208 L57.9562 705.208 L57.9562 709.999 L28.7896 709.999 M17.4355 709.999 L17.4355 705.208 L23.5032 705.208 L23.5032 709.999 L17.4355 709.999 Z" fill="#000000" fill-rule="nonzero" fill-opacity="1" /><path clip-path="url(#clip830)" d="M28.7896 698.619 L28.7896 693.541 L53.2687 684.427 L28.7896 675.312 L28.7896 670.234 L57.9562 681.171 L57.9562 687.682 L28.7896 698.619 Z" fill="#000000" fill-rule="nonzero" fill-opacity="1" /><path clip-path="url(#clip830)" d="M42.175 638.672 L44.5187 638.672 L44.5187 660.703 Q49.4666 660.39 52.0708 657.734 Q54.6489 655.052 54.6489 650.286 Q54.6489 647.526 53.9718 644.948 Q53.2947 642.344 51.9406 639.791 L56.4718 639.791 Q57.5655 642.37 58.1384 645.078 Q58.7114 647.786 58.7114 650.573 Q58.7114 657.552 54.6489 661.64 Q50.5864 665.703 43.6594 665.703 Q36.4979 665.703 32.3053 661.849 Q28.0865 657.968 28.0865 651.406 Q28.0865 645.521 31.8886 642.109 Q35.6646 638.672 42.175 638.672 M40.7687 643.463 Q36.8365 643.515 34.4927 645.677 Q32.149 647.812 32.149 651.354 Q32.149 655.364 34.4146 657.786 Q36.6802 660.182 40.7948 660.547 L40.7687 643.463 Z" fill="#000000" fill-rule="nonzero" fill-opacity="1" /><path clip-path="url(#clip830)" d="M33.2688 596.953 Q32.8 597.76 32.5917 598.724 Q32.3573 599.661 32.3573 600.807 Q32.3573 604.87 35.0136 607.057 Q37.6438 609.219 42.5917 609.219 L57.9562 609.219 L57.9562 614.036 L28.7896 614.036 L28.7896 609.219 L33.3209 609.219 Q30.6646 607.708 29.3886 605.286 Q28.0865 602.865 28.0865 599.401 Q28.0865 598.906 28.1647 598.307 Q28.2167 597.708 28.3469 596.979 L33.2688 596.953 Z" fill="#000000" fill-rule="nonzero" fill-opacity="1" /><path clip-path="url(#clip830)" d="M43.2948 578.672 Q43.2948 584.479 44.6229 586.719 Q45.951 588.958 49.1541 588.958 Q51.7062 588.958 53.2166 587.292 Q54.701 585.599 54.701 582.708 Q54.701 578.724 51.8885 576.328 Q49.05 573.906 44.3625 573.906 L43.2948 573.906 L43.2948 578.672 M41.3156 569.115 L57.9562 569.115 L57.9562 573.906 L53.5291 573.906 Q56.1853 575.547 57.4614 577.995 Q58.7114 580.443 58.7114 583.984 Q58.7114 588.464 56.2114 591.12 Q53.6853 593.75 49.4666 593.75 Q44.5448 593.75 42.0448 590.469 Q39.5448 587.162 39.5448 580.625 L39.5448 573.906 L39.0761 573.906 Q35.7688 573.906 33.9719 576.094 Q32.149 578.255 32.149 582.188 Q32.149 584.688 32.748 587.057 Q33.3469 589.427 34.5448 591.615 L30.1178 591.615 Q29.1021 588.984 28.6074 586.511 Q28.0865 584.037 28.0865 581.693 Q28.0865 575.365 31.3678 572.24 Q34.649 569.115 41.3156 569.115 Z" fill="#000000" fill-rule="nonzero" fill-opacity="1" /><path clip-path="url(#clip830)" d="M20.5084 554.505 L28.7896 554.505 L28.7896 544.636 L32.5136 544.636 L32.5136 554.505 L48.3468 554.505 Q51.9145 554.505 52.9301 553.542 Q53.9458 552.552 53.9458 549.558 L53.9458 544.636 L57.9562 544.636 L57.9562 549.558 Q57.9562 555.104 55.8989 557.214 Q53.8156 559.323 48.3468 559.323 L32.5136 559.323 L32.5136 562.839 L28.7896 562.839 L28.7896 559.323 L20.5084 559.323 L20.5084 554.505 Z" fill="#000000" fill-rule="nonzero" fill-opacity="1" /><path clip-path="url(#clip830)" d="M42.175 513.386 L44.5187 513.386 L44.5187 535.417 Q49.4666 535.105 52.0708 532.448 Q54.6489 529.766 54.6489 525 Q54.6489 522.24 53.9718 519.662 Q53.2947 517.058 51.9406 514.506 L56.4718 514.506 Q57.5655 517.084 58.1384 519.792 Q58.7114 522.5 58.7114 525.287 Q58.7114 532.266 54.6489 536.355 Q50.5864 540.417 43.6594 540.417 Q36.4979 540.417 32.3053 536.563 Q28.0865 532.683 28.0865 526.12 Q28.0865 520.235 31.8886 516.823 Q35.6646 513.386 42.175 513.386 M40.7687 518.178 Q36.8365 518.23 34.4927 520.391 Q32.149 522.526 32.149 526.068 Q32.149 530.079 34.4146 532.5 Q36.6802 534.896 40.7948 535.261 L40.7687 518.178 Z" fill="#000000" fill-rule="nonzero" fill-opacity="1" /><circle clip-path="url(#clip832)" cx="288.612" cy="1396.83" r="14.4" fill="#009af9" fill-rule="evenodd" fill-opacity="1" stroke="#000000" stroke-opacity="1" stroke-width="3.2"/>
<circle clip-path="url(#clip832)" cx="288.612" cy="1360.43" r="14.4" fill="#009af9" fill-rule="evenodd" fill-opacity="1" stroke="#000000" stroke-opacity="1" stroke-width="3.2"/>
<circle clip-path="url(#clip832)" cx="288.612" cy="1324.04" r="14.4" fill="#009af9" fill-rule="evenodd" fill-opacity="1" stroke="#000000" stroke-opacity="1" stroke-width="3.2"/>
<circle clip-path="url(#clip832)" cx="288.612" cy="1287.64" r="14.4" fill="#009af9" fill-rule="evenodd" fill-opacity="1" stroke="#000000" stroke-opacity="1" stroke-width="3.2"/>
<circle clip-path="url(#clip832)" cx="288.612" cy="1251.24" r="14.4" fill="#009af9" fill-rule="evenodd" fill-opacity="1" stroke="#000000" stroke-opacity="1" stroke-width="3.2"/>
<circle clip-path="url(#clip832)" cx="288.612" cy="1214.85" r="14.4" fill="#009af9" fill-rule="evenodd" fill-opacity="1" stroke="#000000" stroke-opacity="1" stroke-width="3.2"/>
<circle clip-path="url(#clip832)" cx="306.506" cy="1214.85" r="14.4" fill="#009af9" fill-rule="evenodd" fill-opacity="1" stroke="#000000" stroke-opacity="1" stroke-width="3.2"/>
<circle clip-path="url(#clip832)" cx="324.399" cy="1214.85" r="14.4" fill="#009af9" fill-rule="evenodd" fill-opacity="1" stroke="#000000" stroke-opacity="1" stroke-width="3.2"/>
<circle clip-path="url(#clip832)" cx="342.292" cy="1214.85" r="14.4" fill="#009af9" fill-rule="evenodd" fill-opacity="1" stroke="#000000" stroke-opacity="1" stroke-width="3.2"/>
<circle clip-path="url(#clip832)" cx="342.292" cy="1178.45" r="14.4" fill="#009af9" fill-rule="evenodd" fill-opacity="1" stroke="#000000" stroke-opacity="1" stroke-width="3.2"/>
<circle clip-path="url(#clip832)" cx="342.292" cy="1142.05" r="14.4" fill="#009af9" fill-rule="evenodd" fill-opacity="1" stroke="#000000" stroke-opacity="1" stroke-width="3.2"/>
<circle clip-path="url(#clip832)" cx="360.185" cy="1142.05" r="14.4" fill="#009af9" fill-rule="evenodd" fill-opacity="1" stroke="#000000" stroke-opacity="1" stroke-width="3.2"/>
<circle clip-path="url(#clip832)" cx="360.185" cy="1105.66" r="14.4" fill="#009af9" fill-rule="evenodd" fill-opacity="1" stroke="#000000" stroke-opacity="1" stroke-width="3.2"/>
<circle clip-path="url(#clip832)" cx="378.078" cy="1105.66" r="14.4" fill="#009af9" fill-rule="evenodd" fill-opacity="1" stroke="#000000" stroke-opacity="1" stroke-width="3.2"/>
<circle clip-path="url(#clip832)" cx="378.078" cy="1069.26" r="14.4" fill="#009af9" fill-rule="evenodd" fill-opacity="1" stroke="#000000" stroke-opacity="1" stroke-width="3.2"/>
<circle clip-path="url(#clip832)" cx="378.078" cy="1032.87" r="14.4" fill="#009af9" fill-rule="evenodd" fill-opacity="1" stroke="#000000" stroke-opacity="1" stroke-width="3.2"/>
<circle clip-path="url(#clip832)" cx="378.078" cy="996.468" r="14.4" fill="#009af9" fill-rule="evenodd" fill-opacity="1" stroke="#000000" stroke-opacity="1" stroke-width="3.2"/>
<circle clip-path="url(#clip832)" cx="378.078" cy="960.072" r="14.4" fill="#009af9" fill-rule="evenodd" fill-opacity="1" stroke="#000000" stroke-opacity="1" stroke-width="3.2"/>
<circle clip-path="url(#clip832)" cx="395.971" cy="960.072" r="14.4" fill="#009af9" fill-rule="evenodd" fill-opacity="1" stroke="#000000" stroke-opacity="1" stroke-width="3.2"/>
<circle clip-path="url(#clip832)" cx="395.971" cy="923.675" r="14.4" fill="#009af9" fill-rule="evenodd" fill-opacity="1" stroke="#000000" stroke-opacity="1" stroke-width="3.2"/>
<circle clip-path="url(#clip832)" cx="413.864" cy="923.675" r="14.4" fill="#009af9" fill-rule="evenodd" fill-opacity="1" stroke="#000000" stroke-opacity="1" stroke-width="3.2"/>
<circle clip-path="url(#clip832)" cx="413.864" cy="887.279" r="14.4" fill="#009af9" fill-rule="evenodd" fill-opacity="1" stroke="#000000" stroke-opacity="1" stroke-width="3.2"/>
<circle clip-path="url(#clip832)" cx="413.864" cy="850.882" r="14.4" fill="#009af9" fill-rule="evenodd" fill-opacity="1" stroke="#000000" stroke-opacity="1" stroke-width="3.2"/>
<circle clip-path="url(#clip832)" cx="431.757" cy="850.882" r="14.4" fill="#009af9" fill-rule="evenodd" fill-opacity="1" stroke="#000000" stroke-opacity="1" stroke-width="3.2"/>
<circle clip-path="url(#clip832)" cx="449.65" cy="850.882" r="14.4" fill="#009af9" fill-rule="evenodd" fill-opacity="1" stroke="#000000" stroke-opacity="1" stroke-width="3.2"/>
<circle clip-path="url(#clip832)" cx="449.65" cy="814.485" r="14.4" fill="#009af9" fill-rule="evenodd" fill-opacity="1" stroke="#000000" stroke-opacity="1" stroke-width="3.2"/>
<circle clip-path="url(#clip832)" cx="467.543" cy="814.485" r="14.4" fill="#009af9" fill-rule="evenodd" fill-opacity="1" stroke="#000000" stroke-opacity="1" stroke-width="3.2"/>
<circle clip-path="url(#clip832)" cx="485.436" cy="814.485" r="14.4" fill="#009af9" fill-rule="evenodd" fill-opacity="1" stroke="#000000" stroke-opacity="1" stroke-width="3.2"/>
<circle clip-path="url(#clip832)" cx="503.329" cy="814.485" r="14.4" fill="#009af9" fill-rule="evenodd" fill-opacity="1" stroke="#000000" stroke-opacity="1" stroke-width="3.2"/>
<circle clip-path="url(#clip832)" cx="503.329" cy="778.089" r="14.4" fill="#009af9" fill-rule="evenodd" fill-opacity="1" stroke="#000000" stroke-opacity="1" stroke-width="3.2"/>
<circle clip-path="url(#clip832)" cx="503.329" cy="741.692" r="14.4" fill="#009af9" fill-rule="evenodd" fill-opacity="1" stroke="#000000" stroke-opacity="1" stroke-width="3.2"/>
<circle clip-path="url(#clip832)" cx="521.222" cy="741.692" r="14.4" fill="#009af9" fill-rule="evenodd" fill-opacity="1" stroke="#000000" stroke-opacity="1" stroke-width="3.2"/>
<circle clip-path="url(#clip832)" cx="521.222" cy="705.295" r="14.4" fill="#009af9" fill-rule="evenodd" fill-opacity="1" stroke="#000000" stroke-opacity="1" stroke-width="3.2"/>
<circle clip-path="url(#clip832)" cx="539.115" cy="705.295" r="14.4" fill="#009af9" fill-rule="evenodd" fill-opacity="1" stroke="#000000" stroke-opacity="1" stroke-width="3.2"/>
<circle clip-path="url(#clip832)" cx="557.008" cy="705.295" r="14.4" fill="#009af9" fill-rule="evenodd" fill-opacity="1" stroke="#000000" stroke-opacity="1" stroke-width="3.2"/>
<circle clip-path="url(#clip832)" cx="574.901" cy="705.295" r="14.4" fill="#009af9" fill-rule="evenodd" fill-opacity="1" stroke="#000000" stroke-opacity="1" stroke-width="3.2"/>
<circle clip-path="url(#clip832)" cx="592.795" cy="705.295" r="14.4" fill="#009af9" fill-rule="evenodd" fill-opacity="1" stroke="#000000" stroke-opacity="1" stroke-width="3.2"/>
<circle clip-path="url(#clip832)" cx="610.688" cy="705.295" r="14.4" fill="#009af9" fill-rule="evenodd" fill-opacity="1" stroke="#000000" stroke-opacity="1" stroke-width="3.2"/>
<circle clip-path="url(#clip832)" cx="610.688" cy="668.899" r="14.4" fill="#009af9" fill-rule="evenodd" fill-opacity="1" stroke="#000000" stroke-opacity="1" stroke-width="3.2"/>
<circle clip-path="url(#clip832)" cx="628.581" cy="668.899" r="14.4" fill="#009af9" fill-rule="evenodd" fill-opacity="1" stroke="#000000" stroke-opacity="1" stroke-width="3.2"/>
<circle clip-path="url(#clip832)" cx="646.474" cy="668.899" r="14.4" fill="#009af9" fill-rule="evenodd" fill-opacity="1" stroke="#000000" stroke-opacity="1" stroke-width="3.2"/>
<circle clip-path="url(#clip832)" cx="646.474" cy="632.502" r="14.4" fill="#009af9" fill-rule="evenodd" fill-opacity="1" stroke="#000000" stroke-opacity="1" stroke-width="3.2"/>
<circle clip-path="url(#clip832)" cx="664.367" cy="632.502" r="14.4" fill="#009af9" fill-rule="evenodd" fill-opacity="1" stroke="#000000" stroke-opacity="1" stroke-width="3.2"/>
<circle clip-path="url(#clip832)" cx="682.26" cy="632.502" r="14.4" fill="#009af9" fill-rule="evenodd" fill-opacity="1" stroke="#000000" stroke-opacity="1" stroke-width="3.2"/>
<circle clip-path="url(#clip832)" cx="700.153" cy="632.502" r="14.4" fill="#009af9" fill-rule="evenodd" fill-opacity="1" stroke="#000000" stroke-opacity="1" stroke-width="3.2"/>
<circle clip-path="url(#clip832)" cx="700.153" cy="596.105" r="14.4" fill="#009af9" fill-rule="evenodd" fill-opacity="1" stroke="#000000" stroke-opacity="1" stroke-width="3.2"/>
<circle clip-path="url(#clip832)" cx="718.046" cy="596.105" r="14.4" fill="#009af9" fill-rule="evenodd" fill-opacity="1" stroke="#000000" stroke-opacity="1" stroke-width="3.2"/>
<circle clip-path="url(#clip832)" cx="718.046" cy="559.709" r="14.4" fill="#009af9" fill-rule="evenodd" fill-opacity="1" stroke="#000000" stroke-opacity="1" stroke-width="3.2"/>
<circle clip-path="url(#clip832)" cx="735.939" cy="559.709" r="14.4" fill="#009af9" fill-rule="evenodd" fill-opacity="1" stroke="#000000" stroke-opacity="1" stroke-width="3.2"/>
<circle clip-path="url(#clip832)" cx="735.939" cy="523.312" r="14.4" fill="#009af9" fill-rule="evenodd" fill-opacity="1" stroke="#000000" stroke-opacity="1" stroke-width="3.2"/>
<circle clip-path="url(#clip832)" cx="753.832" cy="523.312" r="14.4" fill="#009af9" fill-rule="evenodd" fill-opacity="1" stroke="#000000" stroke-opacity="1" stroke-width="3.2"/>
<circle clip-path="url(#clip832)" cx="771.725" cy="523.312" r="14.4" fill="#009af9" fill-rule="evenodd" fill-opacity="1" stroke="#000000" stroke-opacity="1" stroke-width="3.2"/>
<circle clip-path="url(#clip832)" cx="789.618" cy="523.312" r="14.4" fill="#009af9" fill-rule="evenodd" fill-opacity="1" stroke="#000000" stroke-opacity="1" stroke-width="3.2"/>
<circle clip-path="url(#clip832)" cx="789.618" cy="486.915" r="14.4" fill="#009af9" fill-rule="evenodd" fill-opacity="1" stroke="#000000" stroke-opacity="1" stroke-width="3.2"/>
<circle clip-path="url(#clip832)" cx="807.511" cy="486.915" r="14.4" fill="#009af9" fill-rule="evenodd" fill-opacity="1" stroke="#000000" stroke-opacity="1" stroke-width="3.2"/>
<circle clip-path="url(#clip832)" cx="825.404" cy="486.915" r="14.4" fill="#009af9" fill-rule="evenodd" fill-opacity="1" stroke="#000000" stroke-opacity="1" stroke-width="3.2"/>
<circle clip-path="url(#clip832)" cx="843.297" cy="486.915" r="14.4" fill="#009af9" fill-rule="evenodd" fill-opacity="1" stroke="#000000" stroke-opacity="1" stroke-width="3.2"/>
<circle clip-path="url(#clip832)" cx="843.297" cy="450.519" r="14.4" fill="#009af9" fill-rule="evenodd" fill-opacity="1" stroke="#000000" stroke-opacity="1" stroke-width="3.2"/>
<circle clip-path="url(#clip832)" cx="861.19" cy="450.519" r="14.4" fill="#009af9" fill-rule="evenodd" fill-opacity="1" stroke="#000000" stroke-opacity="1" stroke-width="3.2"/>
<circle clip-path="url(#clip832)" cx="879.083" cy="450.519" r="14.4" fill="#009af9" fill-rule="evenodd" fill-opacity="1" stroke="#000000" stroke-opacity="1" stroke-width="3.2"/>
<circle clip-path="url(#clip832)" cx="896.977" cy="450.519" r="14.4" fill="#009af9" fill-rule="evenodd" fill-opacity="1" stroke="#000000" stroke-opacity="1" stroke-width="3.2"/>
<circle clip-path="url(#clip832)" cx="914.87" cy="450.519" r="14.4" fill="#009af9" fill-rule="evenodd" fill-opacity="1" stroke="#000000" stroke-opacity="1" stroke-width="3.2"/>
<circle clip-path="url(#clip832)" cx="932.763" cy="450.519" r="14.4" fill="#009af9" fill-rule="evenodd" fill-opacity="1" stroke="#000000" stroke-opacity="1" stroke-width="3.2"/>
<circle clip-path="url(#clip832)" cx="950.656" cy="450.519" r="14.4" fill="#009af9" fill-rule="evenodd" fill-opacity="1" stroke="#000000" stroke-opacity="1" stroke-width="3.2"/>
<circle clip-path="url(#clip832)" cx="968.549" cy="450.519" r="14.4" fill="#009af9" fill-rule="evenodd" fill-opacity="1" stroke="#000000" stroke-opacity="1" stroke-width="3.2"/>
<circle clip-path="url(#clip832)" cx="986.442" cy="450.519" r="14.4" fill="#009af9" fill-rule="evenodd" fill-opacity="1" stroke="#000000" stroke-opacity="1" stroke-width="3.2"/>
<circle clip-path="url(#clip832)" cx="986.442" cy="414.122" r="14.4" fill="#009af9" fill-rule="evenodd" fill-opacity="1" stroke="#000000" stroke-opacity="1" stroke-width="3.2"/>
<circle clip-path="url(#clip832)" cx="1004.33" cy="414.122" r="14.4" fill="#009af9" fill-rule="evenodd" fill-opacity="1" stroke="#000000" stroke-opacity="1" stroke-width="3.2"/>
<circle clip-path="url(#clip832)" cx="1022.23" cy="414.122" r="14.4" fill="#009af9" fill-rule="evenodd" fill-opacity="1" stroke="#000000" stroke-opacity="1" stroke-width="3.2"/>
<circle clip-path="url(#clip832)" cx="1040.12" cy="414.122" r="14.4" fill="#009af9" fill-rule="evenodd" fill-opacity="1" stroke="#000000" stroke-opacity="1" stroke-width="3.2"/>
<circle clip-path="url(#clip832)" cx="1058.01" cy="414.122" r="14.4" fill="#009af9" fill-rule="evenodd" fill-opacity="1" stroke="#000000" stroke-opacity="1" stroke-width="3.2"/>
<circle clip-path="url(#clip832)" cx="1058.01" cy="377.726" r="14.4" fill="#009af9" fill-rule="evenodd" fill-opacity="1" stroke="#000000" stroke-opacity="1" stroke-width="3.2"/>
<circle clip-path="url(#clip832)" cx="1075.91" cy="377.726" r="14.4" fill="#009af9" fill-rule="evenodd" fill-opacity="1" stroke="#000000" stroke-opacity="1" stroke-width="3.2"/>
<circle clip-path="url(#clip832)" cx="1093.8" cy="377.726" r="14.4" fill="#009af9" fill-rule="evenodd" fill-opacity="1" stroke="#000000" stroke-opacity="1" stroke-width="3.2"/>
<circle clip-path="url(#clip832)" cx="1093.8" cy="341.329" r="14.4" fill="#009af9" fill-rule="evenodd" fill-opacity="1" stroke="#000000" stroke-opacity="1" stroke-width="3.2"/>
<circle clip-path="url(#clip832)" cx="1111.69" cy="341.329" r="14.4" fill="#009af9" fill-rule="evenodd" fill-opacity="1" stroke="#000000" stroke-opacity="1" stroke-width="3.2"/>
<circle clip-path="url(#clip832)" cx="1129.59" cy="341.329" r="14.4" fill="#009af9" fill-rule="evenodd" fill-opacity="1" stroke="#000000" stroke-opacity="1" stroke-width="3.2"/>
<circle clip-path="url(#clip832)" cx="1147.48" cy="341.329" r="14.4" fill="#009af9" fill-rule="evenodd" fill-opacity="1" stroke="#000000" stroke-opacity="1" stroke-width="3.2"/>
<circle clip-path="url(#clip832)" cx="1165.37" cy="341.329" r="14.4" fill="#009af9" fill-rule="evenodd" fill-opacity="1" stroke="#000000" stroke-opacity="1" stroke-width="3.2"/>
<circle clip-path="url(#clip832)" cx="1183.27" cy="341.329" r="14.4" fill="#009af9" fill-rule="evenodd" fill-opacity="1" stroke="#000000" stroke-opacity="1" stroke-width="3.2"/>
<circle clip-path="url(#clip832)" cx="1183.27" cy="304.932" r="14.4" fill="#009af9" fill-rule="evenodd" fill-opacity="1" stroke="#000000" stroke-opacity="1" stroke-width="3.2"/>
<circle clip-path="url(#clip832)" cx="1201.16" cy="304.932" r="14.4" fill="#009af9" fill-rule="evenodd" fill-opacity="1" stroke="#000000" stroke-opacity="1" stroke-width="3.2"/>
<circle clip-path="url(#clip832)" cx="1201.16" cy="268.536" r="14.4" fill="#009af9" fill-rule="evenodd" fill-opacity="1" stroke="#000000" stroke-opacity="1" stroke-width="3.2"/>
<circle clip-path="url(#clip832)" cx="1219.05" cy="268.536" r="14.4" fill="#009af9" fill-rule="evenodd" fill-opacity="1" stroke="#000000" stroke-opacity="1" stroke-width="3.2"/>
<circle clip-path="url(#clip832)" cx="1236.94" cy="268.536" r="14.4" fill="#009af9" fill-rule="evenodd" fill-opacity="1" stroke="#000000" stroke-opacity="1" stroke-width="3.2"/>
<circle clip-path="url(#clip832)" cx="1254.84" cy="268.536" r="14.4" fill="#009af9" fill-rule="evenodd" fill-opacity="1" stroke="#000000" stroke-opacity="1" stroke-width="3.2"/>
<circle clip-path="url(#clip832)" cx="1272.73" cy="268.536" r="14.4" fill="#009af9" fill-rule="evenodd" fill-opacity="1" stroke="#000000" stroke-opacity="1" stroke-width="3.2"/>
<circle clip-path="url(#clip832)" cx="1290.62" cy="268.536" r="14.4" fill="#009af9" fill-rule="evenodd" fill-opacity="1" stroke="#000000" stroke-opacity="1" stroke-width="3.2"/>
<circle clip-path="url(#clip832)" cx="1308.52" cy="268.536" r="14.4" fill="#009af9" fill-rule="evenodd" fill-opacity="1" stroke="#000000" stroke-opacity="1" stroke-width="3.2"/>
<circle clip-path="url(#clip832)" cx="1326.41" cy="268.536" r="14.4" fill="#009af9" fill-rule="evenodd" fill-opacity="1" stroke="#000000" stroke-opacity="1" stroke-width="3.2"/>
<circle clip-path="url(#clip832)" cx="1344.3" cy="268.536" r="14.4" fill="#009af9" fill-rule="evenodd" fill-opacity="1" stroke="#000000" stroke-opacity="1" stroke-width="3.2"/>
<circle clip-path="url(#clip832)" cx="1344.3" cy="232.139" r="14.4" fill="#009af9" fill-rule="evenodd" fill-opacity="1" stroke="#000000" stroke-opacity="1" stroke-width="3.2"/>
<circle clip-path="url(#clip832)" cx="1362.2" cy="232.139" r="14.4" fill="#009af9" fill-rule="evenodd" fill-opacity="1" stroke="#000000" stroke-opacity="1" stroke-width="3.2"/>
<circle clip-path="url(#clip832)" cx="1380.09" cy="232.139" r="14.4" fill="#009af9" fill-rule="evenodd" fill-opacity="1" stroke="#000000" stroke-opacity="1" stroke-width="3.2"/>
<circle clip-path="url(#clip832)" cx="1397.98" cy="232.139" r="14.4" fill="#009af9" fill-rule="evenodd" fill-opacity="1" stroke="#000000" stroke-opacity="1" stroke-width="3.2"/>
<circle clip-path="url(#clip832)" cx="1415.88" cy="232.139" r="14.4" fill="#009af9" fill-rule="evenodd" fill-opacity="1" stroke="#000000" stroke-opacity="1" stroke-width="3.2"/>
<circle clip-path="url(#clip832)" cx="1415.88" cy="195.742" r="14.4" fill="#009af9" fill-rule="evenodd" fill-opacity="1" stroke="#000000" stroke-opacity="1" stroke-width="3.2"/>
<circle clip-path="url(#clip832)" cx="1433.77" cy="195.742" r="14.4" fill="#009af9" fill-rule="evenodd" fill-opacity="1" stroke="#000000" stroke-opacity="1" stroke-width="3.2"/>
<circle clip-path="url(#clip832)" cx="1451.66" cy="195.742" r="14.4" fill="#009af9" fill-rule="evenodd" fill-opacity="1" stroke="#000000" stroke-opacity="1" stroke-width="3.2"/>
<circle clip-path="url(#clip832)" cx="1469.55" cy="195.742" r="14.4" fill="#009af9" fill-rule="evenodd" fill-opacity="1" stroke="#000000" stroke-opacity="1" stroke-width="3.2"/>
<circle clip-path="url(#clip832)" cx="1487.45" cy="195.742" r="14.4" fill="#009af9" fill-rule="evenodd" fill-opacity="1" stroke="#000000" stroke-opacity="1" stroke-width="3.2"/>
<circle clip-path="url(#clip832)" cx="1505.34" cy="195.742" r="14.4" fill="#009af9" fill-rule="evenodd" fill-opacity="1" stroke="#000000" stroke-opacity="1" stroke-width="3.2"/>
<circle clip-path="url(#clip832)" cx="1523.23" cy="195.742" r="14.4" fill="#009af9" fill-rule="evenodd" fill-opacity="1" stroke="#000000" stroke-opacity="1" stroke-width="3.2"/>
<circle clip-path="url(#clip832)" cx="1541.13" cy="195.742" r="14.4" fill="#009af9" fill-rule="evenodd" fill-opacity="1" stroke="#000000" stroke-opacity="1" stroke-width="3.2"/>
<circle clip-path="url(#clip832)" cx="1559.02" cy="195.742" r="14.4" fill="#009af9" fill-rule="evenodd" fill-opacity="1" stroke="#000000" stroke-opacity="1" stroke-width="3.2"/>
<circle clip-path="url(#clip832)" cx="1576.91" cy="195.742" r="14.4" fill="#009af9" fill-rule="evenodd" fill-opacity="1" stroke="#000000" stroke-opacity="1" stroke-width="3.2"/>
<circle clip-path="url(#clip832)" cx="1594.81" cy="195.742" r="14.4" fill="#009af9" fill-rule="evenodd" fill-opacity="1" stroke="#000000" stroke-opacity="1" stroke-width="3.2"/>
<circle clip-path="url(#clip832)" cx="1612.7" cy="195.742" r="14.4" fill="#009af9" fill-rule="evenodd" fill-opacity="1" stroke="#000000" stroke-opacity="1" stroke-width="3.2"/>
<circle clip-path="url(#clip832)" cx="1612.7" cy="159.346" r="14.4" fill="#009af9" fill-rule="evenodd" fill-opacity="1" stroke="#000000" stroke-opacity="1" stroke-width="3.2"/>
<circle clip-path="url(#clip832)" cx="1612.7" cy="122.949" r="14.4" fill="#009af9" fill-rule="evenodd" fill-opacity="1" stroke="#000000" stroke-opacity="1" stroke-width="3.2"/>
<circle clip-path="url(#clip832)" cx="1630.59" cy="122.949" r="14.4" fill="#009af9" fill-rule="evenodd" fill-opacity="1" stroke="#000000" stroke-opacity="1" stroke-width="3.2"/>
<circle clip-path="url(#clip832)" cx="1648.49" cy="122.949" r="14.4" fill="#009af9" fill-rule="evenodd" fill-opacity="1" stroke="#000000" stroke-opacity="1" stroke-width="3.2"/>
<circle clip-path="url(#clip832)" cx="1666.38" cy="122.949" r="14.4" fill="#009af9" fill-rule="evenodd" fill-opacity="1" stroke="#000000" stroke-opacity="1" stroke-width="3.2"/>
<circle clip-path="url(#clip832)" cx="1684.27" cy="122.949" r="14.4" fill="#009af9" fill-rule="evenodd" fill-opacity="1" stroke="#000000" stroke-opacity="1" stroke-width="3.2"/>
<circle clip-path="url(#clip832)" cx="1702.16" cy="122.949" r="14.4" fill="#009af9" fill-rule="evenodd" fill-opacity="1" stroke="#000000" stroke-opacity="1" stroke-width="3.2"/>
<circle clip-path="url(#clip832)" cx="1720.06" cy="122.949" r="14.4" fill="#009af9" fill-rule="evenodd" fill-opacity="1" stroke="#000000" stroke-opacity="1" stroke-width="3.2"/>
<circle clip-path="url(#clip832)" cx="1737.95" cy="122.949" r="14.4" fill="#009af9" fill-rule="evenodd" fill-opacity="1" stroke="#000000" stroke-opacity="1" stroke-width="3.2"/>
<circle clip-path="url(#clip832)" cx="1737.95" cy="86.5525" r="14.4" fill="#009af9" fill-rule="evenodd" fill-opacity="1" stroke="#000000" stroke-opacity="1" stroke-width="3.2"/>
<circle clip-path="url(#clip832)" cx="1755.84" cy="86.5525" r="14.4" fill="#009af9" fill-rule="evenodd" fill-opacity="1" stroke="#000000" stroke-opacity="1" stroke-width="3.2"/>
<circle clip-path="url(#clip832)" cx="1773.74" cy="86.5525" r="14.4" fill="#009af9" fill-rule="evenodd" fill-opacity="1" stroke="#000000" stroke-opacity="1" stroke-width="3.2"/>
<circle clip-path="url(#clip832)" cx="1791.63" cy="86.5525" r="14.4" fill="#009af9" fill-rule="evenodd" fill-opacity="1" stroke="#000000" stroke-opacity="1" stroke-width="3.2"/>
<circle clip-path="url(#clip832)" cx="1809.52" cy="86.5525" r="14.4" fill="#009af9" fill-rule="evenodd" fill-opacity="1" stroke="#000000" stroke-opacity="1" stroke-width="3.2"/>
<circle clip-path="url(#clip832)" cx="1827.42" cy="86.5525" r="14.4" fill="#009af9" fill-rule="evenodd" fill-opacity="1" stroke="#000000" stroke-opacity="1" stroke-width="3.2"/>
<circle clip-path="url(#clip832)" cx="1845.31" cy="86.5525" r="14.4" fill="#009af9" fill-rule="evenodd" fill-opacity="1" stroke="#000000" stroke-opacity="1" stroke-width="3.2"/>
<circle clip-path="url(#clip832)" cx="1863.2" cy="86.5525" r="14.4" fill="#009af9" fill-rule="evenodd" fill-opacity="1" stroke="#000000" stroke-opacity="1" stroke-width="3.2"/>
<circle clip-path="url(#clip832)" cx="1881.09" cy="86.5525" r="14.4" fill="#009af9" fill-rule="evenodd" fill-opacity="1" stroke="#000000" stroke-opacity="1" stroke-width="3.2"/>
<circle clip-path="url(#clip832)" cx="1898.99" cy="86.5525" r="14.4" fill="#009af9" fill-rule="evenodd" fill-opacity="1" stroke="#000000" stroke-opacity="1" stroke-width="3.2"/>
<circle clip-path="url(#clip832)" cx="1916.88" cy="86.5525" r="14.4" fill="#009af9" fill-rule="evenodd" fill-opacity="1" stroke="#000000" stroke-opacity="1" stroke-width="3.2"/>
<circle clip-path="url(#clip832)" cx="1934.77" cy="86.5525" r="14.4" fill="#009af9" fill-rule="evenodd" fill-opacity="1" stroke="#000000" stroke-opacity="1" stroke-width="3.2"/>
<circle clip-path="url(#clip832)" cx="1952.67" cy="86.5525" r="14.4" fill="#009af9" fill-rule="evenodd" fill-opacity="1" stroke="#000000" stroke-opacity="1" stroke-width="3.2"/>
<circle clip-path="url(#clip832)" cx="1970.56" cy="86.5525" r="14.4" fill="#009af9" fill-rule="evenodd" fill-opacity="1" stroke="#000000" stroke-opacity="1" stroke-width="3.2"/>
<circle clip-path="url(#clip832)" cx="1988.45" cy="86.5525" r="14.4" fill="#009af9" fill-rule="evenodd" fill-opacity="1" stroke="#000000" stroke-opacity="1" stroke-width="3.2"/>
<circle clip-path="url(#clip832)" cx="2006.35" cy="86.5525" r="14.4" fill="#009af9" fill-rule="evenodd" fill-opacity="1" stroke="#000000" stroke-opacity="1" stroke-width="3.2"/>
<circle clip-path="url(#clip832)" cx="2024.24" cy="86.5525" r="14.4" fill="#009af9" fill-rule="evenodd" fill-opacity="1" stroke="#000000" stroke-opacity="1" stroke-width="3.2"/>
<circle clip-path="url(#clip832)" cx="2042.13" cy="86.5525" r="14.4" fill="#009af9" fill-rule="evenodd" fill-opacity="1" stroke="#000000" stroke-opacity="1" stroke-width="3.2"/>
<circle clip-path="url(#clip832)" cx="2060.03" cy="86.5525" r="14.4" fill="#009af9" fill-rule="evenodd" fill-opacity="1" stroke="#000000" stroke-opacity="1" stroke-width="3.2"/>
<circle clip-path="url(#clip832)" cx="2077.92" cy="86.5525" r="14.4" fill="#009af9" fill-rule="evenodd" fill-opacity="1" stroke="#000000" stroke-opacity="1" stroke-width="3.2"/>
<circle clip-path="url(#clip832)" cx="2095.81" cy="86.5525" r="14.4" fill="#009af9" fill-rule="evenodd" fill-opacity="1" stroke="#000000" stroke-opacity="1" stroke-width="3.2"/>
<circle clip-path="url(#clip832)" cx="2113.7" cy="86.5525" r="14.4" fill="#009af9" fill-rule="evenodd" fill-opacity="1" stroke="#000000" stroke-opacity="1" stroke-width="3.2"/>
<circle clip-path="url(#clip832)" cx="2131.6" cy="86.5525" r="14.4" fill="#009af9" fill-rule="evenodd" fill-opacity="1" stroke="#000000" stroke-opacity="1" stroke-width="3.2"/>
<circle clip-path="url(#clip832)" cx="2149.49" cy="86.5525" r="14.4" fill="#009af9" fill-rule="evenodd" fill-opacity="1" stroke="#000000" stroke-opacity="1" stroke-width="3.2"/>
<circle clip-path="url(#clip832)" cx="2167.38" cy="86.5525" r="14.4" fill="#009af9" fill-rule="evenodd" fill-opacity="1" stroke="#000000" stroke-opacity="1" stroke-width="3.2"/>
<circle clip-path="url(#clip832)" cx="2185.28" cy="86.5525" r="14.4" fill="#009af9" fill-rule="evenodd" fill-opacity="1" stroke="#000000" stroke-opacity="1" stroke-width="3.2"/>
<circle clip-path="url(#clip832)" cx="2203.17" cy="86.5525" r="14.4" fill="#009af9" fill-rule="evenodd" fill-opacity="1" stroke="#000000" stroke-opacity="1" stroke-width="3.2"/>
<circle clip-path="url(#clip832)" cx="2221.06" cy="86.5525" r="14.4" fill="#009af9" fill-rule="evenodd" fill-opacity="1" stroke="#000000" stroke-opacity="1" stroke-width="3.2"/>
<circle clip-path="url(#clip832)" cx="2238.96" cy="86.5525" r="14.4" fill="#009af9" fill-rule="evenodd" fill-opacity="1" stroke="#000000" stroke-opacity="1" stroke-width="3.2"/>
<circle clip-path="url(#clip832)" cx="2256.85" cy="86.5525" r="14.4" fill="#009af9" fill-rule="evenodd" fill-opacity="1" stroke="#000000" stroke-opacity="1" stroke-width="3.2"/>
<circle clip-path="url(#clip832)" cx="2274.74" cy="86.5525" r="14.4" fill="#009af9" fill-rule="evenodd" fill-opacity="1" stroke="#000000" stroke-opacity="1" stroke-width="3.2"/>
<circle clip-path="url(#clip832)" cx="2292.64" cy="86.5525" r="14.4" fill="#009af9" fill-rule="evenodd" fill-opacity="1" stroke="#000000" stroke-opacity="1" stroke-width="3.2"/>
<polyline clip-path="url(#clip832)" style="stroke:#000000; stroke-linecap:round; stroke-linejoin:round; stroke-width:8; stroke-opacity:1; fill:none" stroke-dasharray="32, 20" points="288.612,1396.83 2292.64,86.5525 "/>
</svg>
