<?xml version="1.0" encoding="utf-8" standalone="no"?>
<!DOCTYPE svg PUBLIC "-//W3C//DTD SVG 1.1//EN"
  "http://www.w3.org/Graphics/SVG/1.1/DTD/svg11.dtd">
<!-- Created with matplotlib (https://matplotlib.org/) -->
<svg height="432pt" version="1.1" viewBox="0 0 576 432" width="576pt" xmlns="http://www.w3.org/2000/svg" xmlns:xlink="http://www.w3.org/1999/xlink">
 <metadata>
  <rdf:RDF xmlns:cc="http://creativecommons.org/ns#" xmlns:dc="http://purl.org/dc/elements/1.1/" xmlns:rdf="http://www.w3.org/1999/02/22-rdf-syntax-ns#">
   <cc:Work>
    <dc:type rdf:resource="http://purl.org/dc/dcmitype/StillImage"/>
    <dc:date>2021-08-02T18:52:59.087349</dc:date>
    <dc:format>image/svg+xml</dc:format>
    <dc:creator>
     <cc:Agent>
      <dc:title>Matplotlib v3.3.4, https://matplotlib.org/</dc:title>
     </cc:Agent>
    </dc:creator>
   </cc:Work>
  </rdf:RDF>
 </metadata>
 <defs>
  <style type="text/css">*{stroke-linecap:butt;stroke-linejoin:round;}</style>
 </defs>
 <g id="figure_1">
  <g id="patch_1">
   <path d="M 0 432 
L 576 432 
L 576 0 
L 0 0 
z
" style="fill:#ffffff;"/>
  </g>
  <g id="axes_1">
   <g id="patch_2">
    <path d="M 72 384.48 
L 518.4 384.48 
L 518.4 51.84 
L 72 51.84 
z
" style="fill:#ffffff;"/>
   </g>
   <g id="PathCollection_1">
    <path clip-path="url(#p46fc4d0b06)" d="M 218.83421 384.48 
L 218.83421 370.104831 
L 218.83421 336.96 
L 218.83421 303.815169 
L 218.83421 289.44 
L 218.83421 275.064831 
L 218.83421 241.92 
L 199.542857 229.00633 
L 193.801445 237.641722 
L 193.798492 241.92 
L 193.798492 246.200478 
L 193.798492 289.44 
L 193.798492 293.720478 
L 193.798492 336.96 
L 193.798492 380.199522 
L 193.798492 384.48 
L 199.542857 384.48 
" style="fill:#481668;"/>
   </g>
   <g id="PathCollection_2">
    <path clip-path="url(#p46fc4d0b06)" d="M 313.544536 51.84 
L 311.155329 63.710706 
L 327.085714 61.963155 
L 351.255165 69.850139 
L 377.47919 51.84 
L 327.085714 51.84 
M 193.798492 384.48 
L 193.798492 380.199522 
L 193.798492 336.96 
L 193.798492 293.720478 
L 193.798492 289.44 
L 193.798492 246.200478 
L 193.798492 241.92 
L 193.801445 237.641722 
L 199.542857 229.00633 
L 218.83421 241.92 
L 218.83421 275.064831 
L 218.83421 289.44 
L 218.83421 303.815169 
L 218.83421 336.96 
L 218.83421 370.104831 
L 218.83421 384.48 
L 260.08316 384.48 
L 260.08316 339.36771 
L 260.08316 336.96 
L 260.08316 334.55229 
L 260.08316 289.44 
L 260.08316 244.32771 
L 260.08316 241.92 
L 199.542857 201.3942 
L 181.525105 228.493868 
L 181.515838 241.92 
L 181.515838 255.353037 
L 181.515838 289.44 
L 181.515838 302.873037 
L 181.515838 336.96 
L 181.515838 371.046963 
L 181.515838 384.48 
" style="fill:#443983;"/>
   </g>
   <g id="PathCollection_3">
    <path clip-path="url(#p46fc4d0b06)" d="M 277.355146 384.48 
L 277.355146 347.422706 
L 277.355146 336.96 
L 277.355146 326.497294 
L 277.355146 289.44 
L 277.355146 252.382706 
L 277.355146 241.92 
L 263.314286 216.565586 
L 230.21572 194.4 
L 230.21572 169.73623 
L 230.21572 146.88 
L 230.21572 124.02377 
L 230.21572 99.36 
L 199.542857 64.056149 
L 141.40865 56.040639 
L 185.834617 99.36 
L 185.834617 136.66515 
L 185.834617 146.88 
L 185.834617 157.09485 
L 185.834617 194.4 
L 169.248764 219.346014 
L 169.233183 241.92 
L 169.233183 264.505596 
L 169.233183 289.44 
L 169.233183 312.025596 
L 169.233183 336.96 
L 169.233183 361.894404 
L 169.233183 384.48 
L 181.515838 384.48 
L 181.515838 371.046963 
L 181.515838 336.96 
L 181.515838 302.873037 
L 181.515838 289.44 
L 181.515838 255.353037 
L 181.515838 241.92 
L 181.525105 228.493868 
L 199.542857 201.3942 
L 260.08316 241.92 
L 260.08316 244.32771 
L 260.08316 289.44 
L 260.08316 334.55229 
L 260.08316 336.96 
L 260.08316 339.36771 
L 260.08316 384.48 
L 263.314286 384.48 
M 518.4 91.434442 
L 507.919653 99.36 
L 507.919653 139.070451 
L 507.919653 146.88 
L 507.919653 154.689549 
L 507.919653 194.4 
L 510.876212 200.006435 
L 518.4 208.391826 
L 518.4 194.4 
L 518.4 146.88 
L 518.4 99.36 
M 377.47919 51.84 
L 351.255165 69.850139 
L 327.085714 61.963155 
L 311.155329 63.710706 
L 313.544536 51.84 
L 291.024278 51.84 
L 284.661596 83.452811 
L 327.085714 78.798917 
L 390.0946 99.36 
L 390.0946 99.928218 
L 390.0946 146.88 
L 390.0946 193.831782 
L 390.0946 194.4 
L 390.56971 194.614184 
L 390.857143 194.866789 
L 391.080504 194.56644 
L 391.184997 194.4 
L 391.184997 194.155696 
L 391.184997 146.88 
L 391.184997 146.635696 
L 391.184997 99.36 
L 405.33957 62.631744 
L 414.499918 51.84 
L 390.857143 51.84 
" style="fill:#375a8c;"/>
   </g>
   <g id="PathCollection_4">
    <path clip-path="url(#p46fc4d0b06)" d="M 292.589336 384.48 
L 292.589336 358.774634 
L 292.589336 336.96 
L 292.589336 315.145366 
L 292.589336 289.44 
L 292.589336 263.734634 
L 292.589336 241.92 
L 268.352664 198.154404 
L 293.126311 194.4 
L 293.126311 172.185232 
L 293.126311 146.88 
L 293.126311 121.574768 
L 293.126311 99.36 
L 327.085714 95.634679 
L 338.50186 99.36 
L 338.50186 138.37313 
L 338.50186 146.88 
L 338.50186 155.38687 
L 338.50186 194.4 
L 371.122371 209.105588 
L 390.857143 226.449183 
L 406.192825 205.827557 
L 413.367236 194.4 
L 413.367236 177.62635 
L 413.367236 146.88 
L 413.367236 130.10635 
L 413.367236 99.36 
L 422.572842 75.473311 
L 442.633488 51.84 
L 414.499918 51.84 
L 405.33957 62.631744 
L 391.184997 99.36 
L 391.184997 146.635696 
L 391.184997 146.88 
L 391.184997 194.155696 
L 391.184997 194.4 
L 391.080504 194.56644 
L 390.857143 194.866789 
L 390.56971 194.614184 
L 390.0946 194.4 
L 390.0946 193.831782 
L 390.0946 146.88 
L 390.0946 99.928218 
L 390.0946 99.36 
L 327.085714 78.798917 
L 284.661596 83.452811 
L 291.024278 51.84 
L 268.504021 51.84 
L 263.314286 77.625055 
L 248.196047 51.84 
L 199.542857 51.84 
L 135.771429 51.84 
L 112.141571 51.84 
L 135.771429 68.445017 
L 167.476144 99.36 
L 167.476144 122.985127 
L 167.476144 146.88 
L 167.476144 170.774873 
L 167.476144 194.4 
L 156.972423 210.19816 
L 156.950529 241.92 
L 156.950529 273.658154 
L 156.950529 289.44 
L 156.950529 321.178154 
L 156.950529 336.96 
L 156.950529 352.741846 
L 156.950529 384.48 
L 169.233183 384.48 
L 169.233183 361.894404 
L 169.233183 336.96 
L 169.233183 312.025596 
L 169.233183 289.44 
L 169.233183 264.505596 
L 169.233183 241.92 
L 169.248764 219.346014 
L 185.834617 194.4 
L 185.834617 157.09485 
L 185.834617 146.88 
L 185.834617 136.66515 
L 185.834617 99.36 
L 141.40865 56.040639 
L 199.542857 64.056149 
L 230.21572 99.36 
L 230.21572 124.02377 
L 230.21572 146.88 
L 230.21572 169.73623 
L 230.21572 194.4 
L 263.314286 216.565586 
L 277.355146 241.92 
L 277.355146 252.382706 
L 277.355146 289.44 
L 277.355146 326.497294 
L 277.355146 336.96 
L 277.355146 347.422706 
L 277.355146 384.48 
M 518.4 208.391826 
L 510.876212 200.006435 
L 507.919653 194.4 
L 507.919653 154.689549 
L 507.919653 146.88 
L 507.919653 139.070451 
L 507.919653 99.36 
L 518.4 91.434442 
L 518.4 77.343939 
L 489.287105 99.36 
L 489.287105 125.186197 
L 489.287105 146.88 
L 489.287105 168.573803 
L 489.287105 194.4 
L 497.5 209.973871 
L 518.4 233.267279 
" style="fill:#2b758e;"/>
   </g>
   <g id="PathCollection_5">
    <path clip-path="url(#p46fc4d0b06)" d="M 307.823525 384.48 
L 307.823525 370.126562 
L 307.823525 336.96 
L 307.823525 303.793438 
L 307.823525 289.44 
L 307.823525 275.086562 
L 307.823525 241.92 
L 294.290181 217.482038 
L 327.085714 212.511931 
L 351.675032 223.596992 
L 372.524249 241.92 
L 372.524249 275.779037 
L 372.524249 289.44 
L 372.524249 303.100963 
L 372.524249 336.96 
L 372.524249 350.620963 
L 372.524249 384.48 
L 390.857143 384.48 
L 402.838837 384.48 
L 402.838837 375.551705 
L 402.838837 336.96 
L 402.838837 298.368295 
L 402.838837 289.44 
L 402.838837 280.511705 
L 402.838837 241.92 
L 421.305147 217.088674 
L 435.549474 194.4 
L 435.549474 161.097005 
L 435.549474 146.88 
L 435.549474 113.577005 
L 435.549474 99.36 
L 439.806114 88.314879 
L 454.628571 70.852643 
L 481.067187 51.84 
L 454.628571 51.84 
L 442.633488 51.84 
L 422.572842 75.473311 
L 413.367236 99.36 
L 413.367236 130.10635 
L 413.367236 146.88 
L 413.367236 177.62635 
L 413.367236 194.4 
L 406.192825 205.827557 
L 390.857143 226.449183 
L 371.122371 209.105588 
L 338.50186 194.4 
L 338.50186 155.38687 
L 338.50186 146.88 
L 338.50186 138.37313 
L 338.50186 99.36 
L 327.085714 95.634679 
L 293.126311 99.36 
L 293.126311 121.574768 
L 293.126311 146.88 
L 293.126311 172.185232 
L 293.126311 194.4 
L 268.352664 198.154404 
L 292.589336 241.92 
L 292.589336 263.734634 
L 292.589336 289.44 
L 292.589336 315.145366 
L 292.589336 336.96 
L 292.589336 358.774634 
L 292.589336 384.48 
M 518.4 233.267279 
L 497.5 209.973871 
L 489.287105 194.4 
L 489.287105 168.573803 
L 489.287105 146.88 
L 489.287105 125.186197 
L 489.287105 99.36 
L 518.4 77.343939 
L 518.4 63.253437 
L 470.654556 99.36 
L 470.654556 111.301943 
L 470.654556 146.88 
L 470.654556 182.458057 
L 470.654556 194.4 
L 484.123788 219.941306 
L 503.844161 241.92 
L 503.844161 278.593552 
L 503.844161 289.44 
L 503.844161 300.286448 
L 503.844161 336.96 
L 503.844161 373.633552 
L 503.844161 384.48 
L 518.4 384.48 
L 518.4 336.96 
L 518.4 289.44 
L 518.4 241.92 
M 248.196047 51.84 
L 263.314286 77.625055 
L 268.504021 51.84 
L 263.314286 51.84 
M 86.6672 51.84 
L 135.771429 86.346199 
L 149.117671 99.36 
L 149.117671 109.305103 
L 149.117671 146.88 
L 149.117671 184.454897 
L 149.117671 194.4 
L 144.696082 201.050307 
L 144.667874 241.92 
L 144.667874 282.810713 
L 144.667874 289.44 
L 144.667874 330.330713 
L 144.667874 336.96 
L 144.667874 343.589287 
L 144.667874 384.48 
L 156.950529 384.48 
L 156.950529 352.741846 
L 156.950529 336.96 
L 156.950529 321.178154 
L 156.950529 289.44 
L 156.950529 273.658154 
L 156.950529 241.92 
L 156.972423 210.19816 
L 167.476144 194.4 
L 167.476144 170.774873 
L 167.476144 146.88 
L 167.476144 122.985127 
L 167.476144 99.36 
L 135.771429 68.445017 
L 112.141571 51.84 
" style="fill:#21908d;"/>
   </g>
   <g id="PathCollection_6">
    <path clip-path="url(#p46fc4d0b06)" d="M 323.057715 384.48 
L 323.057715 381.478491 
L 323.057715 336.96 
L 323.057715 292.441509 
L 323.057715 289.44 
L 323.057715 286.438491 
L 323.057715 241.92 
L 320.227698 236.809672 
L 327.085714 235.770351 
L 332.227693 238.088397 
L 336.587563 241.92 
L 336.587563 249.00041 
L 336.587563 289.44 
L 336.587563 329.87959 
L 336.587563 336.96 
L 336.587563 377.39959 
L 336.587563 384.48 
L 372.524249 384.48 
L 372.524249 350.620963 
L 372.524249 336.96 
L 372.524249 303.100963 
L 372.524249 289.44 
L 372.524249 275.779037 
L 372.524249 241.92 
L 351.675032 223.596992 
L 327.085714 212.511931 
L 294.290181 217.482038 
L 307.823525 241.92 
L 307.823525 275.086562 
L 307.823525 289.44 
L 307.823525 303.793438 
L 307.823525 336.96 
L 307.823525 370.126562 
L 307.823525 384.48 
M 426.325712 384.48 
L 426.325712 358.050195 
L 426.325712 336.96 
L 426.325712 315.869805 
L 426.325712 289.44 
L 426.325712 263.010195 
L 426.325712 241.92 
L 436.417468 228.349791 
L 454.628571 199.342751 
L 470.747576 229.908742 
L 481.524672 241.92 
L 481.524672 261.961933 
L 481.524672 289.44 
L 481.524672 316.918067 
L 481.524672 336.96 
L 481.524672 357.001933 
L 481.524672 384.48 
L 503.844161 384.48 
L 503.844161 373.633552 
L 503.844161 336.96 
L 503.844161 300.286448 
L 503.844161 289.44 
L 503.844161 278.593552 
L 503.844161 241.92 
L 484.123788 219.941306 
L 470.654556 194.4 
L 470.654556 182.458057 
L 470.654556 146.88 
L 470.654556 111.301943 
L 470.654556 99.36 
L 518.4 63.253437 
L 518.4 51.84 
L 481.067187 51.84 
L 454.628571 70.852643 
L 439.806114 88.314879 
L 435.549474 99.36 
L 435.549474 113.577005 
L 435.549474 146.88 
L 435.549474 161.097005 
L 435.549474 194.4 
L 421.305147 217.088674 
L 402.838837 241.92 
L 402.838837 280.511705 
L 402.838837 289.44 
L 402.838837 298.368295 
L 402.838837 336.96 
L 402.838837 375.551705 
L 402.838837 384.48 
M 72 62.519038 
L 125.74541 99.36 
L 125.74541 139.408999 
L 125.74541 146.88 
L 125.74541 186.928999 
L 125.74541 194.4 
L 129.510341 199.06552 
L 129.455169 241.92 
L 129.455169 246.626632 
L 129.455169 289.44 
L 129.455169 294.146632 
L 129.455169 336.96 
L 129.455169 379.773368 
L 129.455169 384.48 
L 135.771429 384.48 
L 144.667874 384.48 
L 144.667874 343.589287 
L 144.667874 336.96 
L 144.667874 330.330713 
L 144.667874 289.44 
L 144.667874 282.810713 
L 144.667874 241.92 
L 144.696082 201.050307 
L 149.117671 194.4 
L 149.117671 184.454897 
L 149.117671 146.88 
L 149.117671 109.305103 
L 149.117671 99.36 
L 135.771429 86.346199 
L 86.6672 51.84 
L 72 51.84 
" style="fill:#25ab82;"/>
   </g>
   <g id="PathCollection_7">
    <path clip-path="url(#p46fc4d0b06)" d="M 336.587563 384.48 
L 336.587563 377.39959 
L 336.587563 336.96 
L 336.587563 329.87959 
L 336.587563 289.44 
L 336.587563 249.00041 
L 336.587563 241.92 
L 332.227693 238.088397 
L 327.085714 235.770351 
L 320.227698 236.809672 
L 323.057715 241.92 
L 323.057715 286.438491 
L 323.057715 289.44 
L 323.057715 292.441509 
L 323.057715 336.96 
L 323.057715 381.478491 
L 323.057715 384.48 
L 327.085714 384.48 
M 449.812588 384.48 
L 449.812588 340.548685 
L 449.812588 336.96 
L 449.812588 333.371315 
L 449.812588 289.44 
L 449.812588 245.508685 
L 449.812588 241.92 
L 451.52979 239.610908 
L 454.628571 234.675102 
L 457.371364 239.876177 
L 459.205182 241.92 
L 459.205182 245.330313 
L 459.205182 289.44 
L 459.205182 333.549687 
L 459.205182 336.96 
L 459.205182 340.370313 
L 459.205182 384.48 
L 481.524672 384.48 
L 481.524672 357.001933 
L 481.524672 336.96 
L 481.524672 316.918067 
L 481.524672 289.44 
L 481.524672 261.961933 
L 481.524672 241.92 
L 470.747576 229.908742 
L 454.628571 199.342751 
L 436.417468 228.349791 
L 426.325712 241.92 
L 426.325712 263.010195 
L 426.325712 289.44 
L 426.325712 315.869805 
L 426.325712 336.96 
L 426.325712 358.050195 
L 426.325712 384.48 
M 72 87.691378 
L 89.022761 99.36 
L 89.022761 112.044703 
L 89.022761 146.88 
L 89.022761 159.564703 
L 89.022761 194.4 
L 106.577635 216.154085 
L 106.544464 241.92 
L 106.544464 263.698803 
L 106.544464 289.44 
L 106.544464 311.218803 
L 106.544464 336.96 
L 106.544464 362.701197 
L 106.544464 384.48 
L 129.455169 384.48 
L 129.455169 379.773368 
L 129.455169 336.96 
L 129.455169 294.146632 
L 129.455169 289.44 
L 129.455169 246.626632 
L 129.455169 241.92 
L 129.510341 199.06552 
L 125.74541 194.4 
L 125.74541 186.928999 
L 125.74541 146.88 
L 125.74541 139.408999 
L 125.74541 99.36 
L 72 62.519038 
" style="fill:#4ec36b;"/>
   </g>
   <g id="PathCollection_8">
    <path clip-path="url(#p46fc4d0b06)" d="M 459.205182 384.48 
L 459.205182 340.370313 
L 459.205182 336.96 
L 459.205182 333.549687 
L 459.205182 289.44 
L 459.205182 245.330313 
L 459.205182 241.92 
L 457.371364 239.876177 
L 454.628571 234.675102 
L 451.52979 239.610908 
L 449.812588 241.92 
L 449.812588 245.508685 
L 449.812588 289.44 
L 449.812588 333.371315 
L 449.812588 336.96 
L 449.812588 340.548685 
L 449.812588 384.48 
L 454.628571 384.48 
M 72 218.812196 
L 83.64493 233.242649 
L 83.633758 241.92 
L 83.633758 280.770974 
L 83.633758 289.44 
L 83.633758 328.290974 
L 83.633758 336.96 
L 83.633758 345.629026 
L 83.633758 384.48 
L 106.544464 384.48 
L 106.544464 362.701197 
L 106.544464 336.96 
L 106.544464 311.218803 
L 106.544464 289.44 
L 106.544464 263.698803 
L 106.544464 241.92 
L 106.577635 216.154085 
L 89.022761 194.4 
L 89.022761 159.564703 
L 89.022761 146.88 
L 89.022761 112.044703 
L 89.022761 99.36 
L 72 87.691378 
L 72 99.36 
L 72 146.88 
L 72 194.4 
" style="fill:#90d743;"/>
   </g>
   <g id="PathCollection_9">
    <path clip-path="url(#p46fc4d0b06)" d="M 83.633758 384.48 
L 83.633758 345.629026 
L 83.633758 336.96 
L 83.633758 328.290974 
L 83.633758 289.44 
L 83.633758 280.770974 
L 83.633758 241.92 
L 83.64493 233.242649 
L 72 218.812196 
L 72 241.92 
L 72 289.44 
L 72 336.96 
L 72 384.48 
" style="fill:#dae319;"/>
   </g>
   <g id="matplotlib.axis_1">
    <g id="xtick_1">
     <g id="line2d_1">
      <defs>
       <path d="M 0 0 
L 0 3.5 
" id="mee613f49da" style="stroke:#000000;stroke-width:0.8;"/>
      </defs>
      <g>
       <use style="stroke:#000000;stroke-width:0.8;" x="72" xlink:href="#mee613f49da" y="384.48"/>
      </g>
     </g>
     <g id="text_1">
      <!-- 0.60 -->
      <g transform="translate(58.640625 400.598125)scale(0.12 -0.12)">
       <defs>
        <path d="M 31.78125 66.40625 
Q 24.171875 66.40625 20.328125 58.90625 
Q 16.5 51.421875 16.5 36.375 
Q 16.5 21.390625 20.328125 13.890625 
Q 24.171875 6.390625 31.78125 6.390625 
Q 39.453125 6.390625 43.28125 13.890625 
Q 47.125 21.390625 47.125 36.375 
Q 47.125 51.421875 43.28125 58.90625 
Q 39.453125 66.40625 31.78125 66.40625 
z
M 31.78125 74.21875 
Q 44.046875 74.21875 50.515625 64.515625 
Q 56.984375 54.828125 56.984375 36.375 
Q 56.984375 17.96875 50.515625 8.265625 
Q 44.046875 -1.421875 31.78125 -1.421875 
Q 19.53125 -1.421875 13.0625 8.265625 
Q 6.59375 17.96875 6.59375 36.375 
Q 6.59375 54.828125 13.0625 64.515625 
Q 19.53125 74.21875 31.78125 74.21875 
z
" id="DejaVuSans-48"/>
        <path d="M 10.6875 12.40625 
L 21 12.40625 
L 21 0 
L 10.6875 0 
z
" id="DejaVuSans-46"/>
        <path d="M 33.015625 40.375 
Q 26.375 40.375 22.484375 35.828125 
Q 18.609375 31.296875 18.609375 23.390625 
Q 18.609375 15.53125 22.484375 10.953125 
Q 26.375 6.390625 33.015625 6.390625 
Q 39.65625 6.390625 43.53125 10.953125 
Q 47.40625 15.53125 47.40625 23.390625 
Q 47.40625 31.296875 43.53125 35.828125 
Q 39.65625 40.375 33.015625 40.375 
z
M 52.59375 71.296875 
L 52.59375 62.3125 
Q 48.875 64.0625 45.09375 64.984375 
Q 41.3125 65.921875 37.59375 65.921875 
Q 27.828125 65.921875 22.671875 59.328125 
Q 17.53125 52.734375 16.796875 39.40625 
Q 19.671875 43.65625 24.015625 45.921875 
Q 28.375 48.1875 33.59375 48.1875 
Q 44.578125 48.1875 50.953125 41.515625 
Q 57.328125 34.859375 57.328125 23.390625 
Q 57.328125 12.15625 50.6875 5.359375 
Q 44.046875 -1.421875 33.015625 -1.421875 
Q 20.359375 -1.421875 13.671875 8.265625 
Q 6.984375 17.96875 6.984375 36.375 
Q 6.984375 53.65625 15.1875 63.9375 
Q 23.390625 74.21875 37.203125 74.21875 
Q 40.921875 74.21875 44.703125 73.484375 
Q 48.484375 72.75 52.59375 71.296875 
z
" id="DejaVuSans-54"/>
       </defs>
       <use xlink:href="#DejaVuSans-48"/>
       <use x="63.623047" xlink:href="#DejaVuSans-46"/>
       <use x="95.410156" xlink:href="#DejaVuSans-54"/>
       <use x="159.033203" xlink:href="#DejaVuSans-48"/>
      </g>
     </g>
    </g>
    <g id="xtick_2">
     <g id="line2d_2">
      <g>
       <use style="stroke:#000000;stroke-width:0.8;" x="127.8" xlink:href="#mee613f49da" y="384.48"/>
      </g>
     </g>
     <g id="text_2">
      <!-- 0.65 -->
      <g transform="translate(114.440625 400.598125)scale(0.12 -0.12)">
       <defs>
        <path d="M 10.796875 72.90625 
L 49.515625 72.90625 
L 49.515625 64.59375 
L 19.828125 64.59375 
L 19.828125 46.734375 
Q 21.96875 47.46875 24.109375 47.828125 
Q 26.265625 48.1875 28.421875 48.1875 
Q 40.625 48.1875 47.75 41.5 
Q 54.890625 34.8125 54.890625 23.390625 
Q 54.890625 11.625 47.5625 5.09375 
Q 40.234375 -1.421875 26.90625 -1.421875 
Q 22.3125 -1.421875 17.546875 -0.640625 
Q 12.796875 0.140625 7.71875 1.703125 
L 7.71875 11.625 
Q 12.109375 9.234375 16.796875 8.0625 
Q 21.484375 6.890625 26.703125 6.890625 
Q 35.15625 6.890625 40.078125 11.328125 
Q 45.015625 15.765625 45.015625 23.390625 
Q 45.015625 31 40.078125 35.4375 
Q 35.15625 39.890625 26.703125 39.890625 
Q 22.75 39.890625 18.8125 39.015625 
Q 14.890625 38.140625 10.796875 36.28125 
z
" id="DejaVuSans-53"/>
       </defs>
       <use xlink:href="#DejaVuSans-48"/>
       <use x="63.623047" xlink:href="#DejaVuSans-46"/>
       <use x="95.410156" xlink:href="#DejaVuSans-54"/>
       <use x="159.033203" xlink:href="#DejaVuSans-53"/>
      </g>
     </g>
    </g>
    <g id="xtick_3">
     <g id="line2d_3">
      <g>
       <use style="stroke:#000000;stroke-width:0.8;" x="183.6" xlink:href="#mee613f49da" y="384.48"/>
      </g>
     </g>
     <g id="text_3">
      <!-- 0.70 -->
      <g transform="translate(170.240625 400.598125)scale(0.12 -0.12)">
       <defs>
        <path d="M 8.203125 72.90625 
L 55.078125 72.90625 
L 55.078125 68.703125 
L 28.609375 0 
L 18.3125 0 
L 43.21875 64.59375 
L 8.203125 64.59375 
z
" id="DejaVuSans-55"/>
       </defs>
       <use xlink:href="#DejaVuSans-48"/>
       <use x="63.623047" xlink:href="#DejaVuSans-46"/>
       <use x="95.410156" xlink:href="#DejaVuSans-55"/>
       <use x="159.033203" xlink:href="#DejaVuSans-48"/>
      </g>
     </g>
    </g>
    <g id="xtick_4">
     <g id="line2d_4">
      <g>
       <use style="stroke:#000000;stroke-width:0.8;" x="239.4" xlink:href="#mee613f49da" y="384.48"/>
      </g>
     </g>
     <g id="text_4">
      <!-- 0.75 -->
      <g transform="translate(226.040625 400.598125)scale(0.12 -0.12)">
       <use xlink:href="#DejaVuSans-48"/>
       <use x="63.623047" xlink:href="#DejaVuSans-46"/>
       <use x="95.410156" xlink:href="#DejaVuSans-55"/>
       <use x="159.033203" xlink:href="#DejaVuSans-53"/>
      </g>
     </g>
    </g>
    <g id="xtick_5">
     <g id="line2d_5">
      <g>
       <use style="stroke:#000000;stroke-width:0.8;" x="295.2" xlink:href="#mee613f49da" y="384.48"/>
      </g>
     </g>
     <g id="text_5">
      <!-- 0.80 -->
      <g transform="translate(281.840625 400.598125)scale(0.12 -0.12)">
       <defs>
        <path d="M 31.78125 34.625 
Q 24.75 34.625 20.71875 30.859375 
Q 16.703125 27.09375 16.703125 20.515625 
Q 16.703125 13.921875 20.71875 10.15625 
Q 24.75 6.390625 31.78125 6.390625 
Q 38.8125 6.390625 42.859375 10.171875 
Q 46.921875 13.96875 46.921875 20.515625 
Q 46.921875 27.09375 42.890625 30.859375 
Q 38.875 34.625 31.78125 34.625 
z
M 21.921875 38.8125 
Q 15.578125 40.375 12.03125 44.71875 
Q 8.5 49.078125 8.5 55.328125 
Q 8.5 64.0625 14.71875 69.140625 
Q 20.953125 74.21875 31.78125 74.21875 
Q 42.671875 74.21875 48.875 69.140625 
Q 55.078125 64.0625 55.078125 55.328125 
Q 55.078125 49.078125 51.53125 44.71875 
Q 48 40.375 41.703125 38.8125 
Q 48.828125 37.15625 52.796875 32.3125 
Q 56.78125 27.484375 56.78125 20.515625 
Q 56.78125 9.90625 50.3125 4.234375 
Q 43.84375 -1.421875 31.78125 -1.421875 
Q 19.734375 -1.421875 13.25 4.234375 
Q 6.78125 9.90625 6.78125 20.515625 
Q 6.78125 27.484375 10.78125 32.3125 
Q 14.796875 37.15625 21.921875 38.8125 
z
M 18.3125 54.390625 
Q 18.3125 48.734375 21.84375 45.5625 
Q 25.390625 42.390625 31.78125 42.390625 
Q 38.140625 42.390625 41.71875 45.5625 
Q 45.3125 48.734375 45.3125 54.390625 
Q 45.3125 60.0625 41.71875 63.234375 
Q 38.140625 66.40625 31.78125 66.40625 
Q 25.390625 66.40625 21.84375 63.234375 
Q 18.3125 60.0625 18.3125 54.390625 
z
" id="DejaVuSans-56"/>
       </defs>
       <use xlink:href="#DejaVuSans-48"/>
       <use x="63.623047" xlink:href="#DejaVuSans-46"/>
       <use x="95.410156" xlink:href="#DejaVuSans-56"/>
       <use x="159.033203" xlink:href="#DejaVuSans-48"/>
      </g>
     </g>
    </g>
    <g id="xtick_6">
     <g id="line2d_6">
      <g>
       <use style="stroke:#000000;stroke-width:0.8;" x="351" xlink:href="#mee613f49da" y="384.48"/>
      </g>
     </g>
     <g id="text_6">
      <!-- 0.85 -->
      <g transform="translate(337.640625 400.598125)scale(0.12 -0.12)">
       <use xlink:href="#DejaVuSans-48"/>
       <use x="63.623047" xlink:href="#DejaVuSans-46"/>
       <use x="95.410156" xlink:href="#DejaVuSans-56"/>
       <use x="159.033203" xlink:href="#DejaVuSans-53"/>
      </g>
     </g>
    </g>
    <g id="xtick_7">
     <g id="line2d_7">
      <g>
       <use style="stroke:#000000;stroke-width:0.8;" x="406.8" xlink:href="#mee613f49da" y="384.48"/>
      </g>
     </g>
     <g id="text_7">
      <!-- 0.90 -->
      <g transform="translate(393.440625 400.598125)scale(0.12 -0.12)">
       <defs>
        <path d="M 10.984375 1.515625 
L 10.984375 10.5 
Q 14.703125 8.734375 18.5 7.8125 
Q 22.3125 6.890625 25.984375 6.890625 
Q 35.75 6.890625 40.890625 13.453125 
Q 46.046875 20.015625 46.78125 33.40625 
Q 43.953125 29.203125 39.59375 26.953125 
Q 35.25 24.703125 29.984375 24.703125 
Q 19.046875 24.703125 12.671875 31.3125 
Q 6.296875 37.9375 6.296875 49.421875 
Q 6.296875 60.640625 12.9375 67.421875 
Q 19.578125 74.21875 30.609375 74.21875 
Q 43.265625 74.21875 49.921875 64.515625 
Q 56.59375 54.828125 56.59375 36.375 
Q 56.59375 19.140625 48.40625 8.859375 
Q 40.234375 -1.421875 26.421875 -1.421875 
Q 22.703125 -1.421875 18.890625 -0.6875 
Q 15.09375 0.046875 10.984375 1.515625 
z
M 30.609375 32.421875 
Q 37.25 32.421875 41.125 36.953125 
Q 45.015625 41.5 45.015625 49.421875 
Q 45.015625 57.28125 41.125 61.84375 
Q 37.25 66.40625 30.609375 66.40625 
Q 23.96875 66.40625 20.09375 61.84375 
Q 16.21875 57.28125 16.21875 49.421875 
Q 16.21875 41.5 20.09375 36.953125 
Q 23.96875 32.421875 30.609375 32.421875 
z
" id="DejaVuSans-57"/>
       </defs>
       <use xlink:href="#DejaVuSans-48"/>
       <use x="63.623047" xlink:href="#DejaVuSans-46"/>
       <use x="95.410156" xlink:href="#DejaVuSans-57"/>
       <use x="159.033203" xlink:href="#DejaVuSans-48"/>
      </g>
     </g>
    </g>
    <g id="xtick_8">
     <g id="line2d_8">
      <g>
       <use style="stroke:#000000;stroke-width:0.8;" x="462.6" xlink:href="#mee613f49da" y="384.48"/>
      </g>
     </g>
     <g id="text_8">
      <!-- 0.95 -->
      <g transform="translate(449.240625 400.598125)scale(0.12 -0.12)">
       <use xlink:href="#DejaVuSans-48"/>
       <use x="63.623047" xlink:href="#DejaVuSans-46"/>
       <use x="95.410156" xlink:href="#DejaVuSans-57"/>
       <use x="159.033203" xlink:href="#DejaVuSans-53"/>
      </g>
     </g>
    </g>
    <g id="xtick_9">
     <g id="line2d_9">
      <g>
       <use style="stroke:#000000;stroke-width:0.8;" x="518.4" xlink:href="#mee613f49da" y="384.48"/>
      </g>
     </g>
     <g id="text_9">
      <!-- 1.00 -->
      <g transform="translate(505.040625 400.598125)scale(0.12 -0.12)">
       <defs>
        <path d="M 12.40625 8.296875 
L 28.515625 8.296875 
L 28.515625 63.921875 
L 10.984375 60.40625 
L 10.984375 69.390625 
L 28.421875 72.90625 
L 38.28125 72.90625 
L 38.28125 8.296875 
L 54.390625 8.296875 
L 54.390625 0 
L 12.40625 0 
z
" id="DejaVuSans-49"/>
       </defs>
       <use xlink:href="#DejaVuSans-49"/>
       <use x="63.623047" xlink:href="#DejaVuSans-46"/>
       <use x="95.410156" xlink:href="#DejaVuSans-48"/>
       <use x="159.033203" xlink:href="#DejaVuSans-48"/>
      </g>
     </g>
    </g>
    <g id="text_10">
     <!-- Sub sample -->
     <g transform="translate(254.200781 417.731562)scale(0.14 -0.14)">
      <defs>
       <path d="M 53.515625 70.515625 
L 53.515625 60.890625 
Q 47.90625 63.578125 42.921875 64.890625 
Q 37.9375 66.21875 33.296875 66.21875 
Q 25.25 66.21875 20.875 63.09375 
Q 16.5 59.96875 16.5 54.203125 
Q 16.5 49.359375 19.40625 46.890625 
Q 22.3125 44.4375 30.421875 42.921875 
L 36.375 41.703125 
Q 47.40625 39.59375 52.65625 34.296875 
Q 57.90625 29 57.90625 20.125 
Q 57.90625 9.515625 50.796875 4.046875 
Q 43.703125 -1.421875 29.984375 -1.421875 
Q 24.8125 -1.421875 18.96875 -0.25 
Q 13.140625 0.921875 6.890625 3.21875 
L 6.890625 13.375 
Q 12.890625 10.015625 18.65625 8.296875 
Q 24.421875 6.59375 29.984375 6.59375 
Q 38.421875 6.59375 43.015625 9.90625 
Q 47.609375 13.234375 47.609375 19.390625 
Q 47.609375 24.75 44.3125 27.78125 
Q 41.015625 30.8125 33.5 32.328125 
L 27.484375 33.5 
Q 16.453125 35.6875 11.515625 40.375 
Q 6.59375 45.0625 6.59375 53.421875 
Q 6.59375 63.09375 13.40625 68.65625 
Q 20.21875 74.21875 32.171875 74.21875 
Q 37.3125 74.21875 42.625 73.28125 
Q 47.953125 72.359375 53.515625 70.515625 
z
" id="DejaVuSans-83"/>
       <path d="M 8.5 21.578125 
L 8.5 54.6875 
L 17.484375 54.6875 
L 17.484375 21.921875 
Q 17.484375 14.15625 20.5 10.265625 
Q 23.53125 6.390625 29.59375 6.390625 
Q 36.859375 6.390625 41.078125 11.03125 
Q 45.3125 15.671875 45.3125 23.6875 
L 45.3125 54.6875 
L 54.296875 54.6875 
L 54.296875 0 
L 45.3125 0 
L 45.3125 8.40625 
Q 42.046875 3.421875 37.71875 1 
Q 33.40625 -1.421875 27.6875 -1.421875 
Q 18.265625 -1.421875 13.375 4.4375 
Q 8.5 10.296875 8.5 21.578125 
z
M 31.109375 56 
z
" id="DejaVuSans-117"/>
       <path d="M 48.6875 27.296875 
Q 48.6875 37.203125 44.609375 42.84375 
Q 40.53125 48.484375 33.40625 48.484375 
Q 26.265625 48.484375 22.1875 42.84375 
Q 18.109375 37.203125 18.109375 27.296875 
Q 18.109375 17.390625 22.1875 11.75 
Q 26.265625 6.109375 33.40625 6.109375 
Q 40.53125 6.109375 44.609375 11.75 
Q 48.6875 17.390625 48.6875 27.296875 
z
M 18.109375 46.390625 
Q 20.953125 51.265625 25.265625 53.625 
Q 29.59375 56 35.59375 56 
Q 45.5625 56 51.78125 48.09375 
Q 58.015625 40.1875 58.015625 27.296875 
Q 58.015625 14.40625 51.78125 6.484375 
Q 45.5625 -1.421875 35.59375 -1.421875 
Q 29.59375 -1.421875 25.265625 0.953125 
Q 20.953125 3.328125 18.109375 8.203125 
L 18.109375 0 
L 9.078125 0 
L 9.078125 75.984375 
L 18.109375 75.984375 
z
" id="DejaVuSans-98"/>
       <path id="DejaVuSans-32"/>
       <path d="M 44.28125 53.078125 
L 44.28125 44.578125 
Q 40.484375 46.53125 36.375 47.5 
Q 32.28125 48.484375 27.875 48.484375 
Q 21.1875 48.484375 17.84375 46.4375 
Q 14.5 44.390625 14.5 40.28125 
Q 14.5 37.15625 16.890625 35.375 
Q 19.28125 33.59375 26.515625 31.984375 
L 29.59375 31.296875 
Q 39.15625 29.25 43.1875 25.515625 
Q 47.21875 21.78125 47.21875 15.09375 
Q 47.21875 7.46875 41.1875 3.015625 
Q 35.15625 -1.421875 24.609375 -1.421875 
Q 20.21875 -1.421875 15.453125 -0.5625 
Q 10.6875 0.296875 5.421875 2 
L 5.421875 11.28125 
Q 10.40625 8.6875 15.234375 7.390625 
Q 20.0625 6.109375 24.8125 6.109375 
Q 31.15625 6.109375 34.5625 8.28125 
Q 37.984375 10.453125 37.984375 14.40625 
Q 37.984375 18.0625 35.515625 20.015625 
Q 33.0625 21.96875 24.703125 23.78125 
L 21.578125 24.515625 
Q 13.234375 26.265625 9.515625 29.90625 
Q 5.8125 33.546875 5.8125 39.890625 
Q 5.8125 47.609375 11.28125 51.796875 
Q 16.75 56 26.8125 56 
Q 31.78125 56 36.171875 55.265625 
Q 40.578125 54.546875 44.28125 53.078125 
z
" id="DejaVuSans-115"/>
       <path d="M 34.28125 27.484375 
Q 23.390625 27.484375 19.1875 25 
Q 14.984375 22.515625 14.984375 16.5 
Q 14.984375 11.71875 18.140625 8.90625 
Q 21.296875 6.109375 26.703125 6.109375 
Q 34.1875 6.109375 38.703125 11.40625 
Q 43.21875 16.703125 43.21875 25.484375 
L 43.21875 27.484375 
z
M 52.203125 31.203125 
L 52.203125 0 
L 43.21875 0 
L 43.21875 8.296875 
Q 40.140625 3.328125 35.546875 0.953125 
Q 30.953125 -1.421875 24.3125 -1.421875 
Q 15.921875 -1.421875 10.953125 3.296875 
Q 6 8.015625 6 15.921875 
Q 6 25.140625 12.171875 29.828125 
Q 18.359375 34.515625 30.609375 34.515625 
L 43.21875 34.515625 
L 43.21875 35.40625 
Q 43.21875 41.609375 39.140625 45 
Q 35.0625 48.390625 27.6875 48.390625 
Q 23 48.390625 18.546875 47.265625 
Q 14.109375 46.140625 10.015625 43.890625 
L 10.015625 52.203125 
Q 14.9375 54.109375 19.578125 55.046875 
Q 24.21875 56 28.609375 56 
Q 40.484375 56 46.34375 49.84375 
Q 52.203125 43.703125 52.203125 31.203125 
z
" id="DejaVuSans-97"/>
       <path d="M 52 44.1875 
Q 55.375 50.25 60.0625 53.125 
Q 64.75 56 71.09375 56 
Q 79.640625 56 84.28125 50.015625 
Q 88.921875 44.046875 88.921875 33.015625 
L 88.921875 0 
L 79.890625 0 
L 79.890625 32.71875 
Q 79.890625 40.578125 77.09375 44.375 
Q 74.3125 48.1875 68.609375 48.1875 
Q 61.625 48.1875 57.5625 43.546875 
Q 53.515625 38.921875 53.515625 30.90625 
L 53.515625 0 
L 44.484375 0 
L 44.484375 32.71875 
Q 44.484375 40.625 41.703125 44.40625 
Q 38.921875 48.1875 33.109375 48.1875 
Q 26.21875 48.1875 22.15625 43.53125 
Q 18.109375 38.875 18.109375 30.90625 
L 18.109375 0 
L 9.078125 0 
L 9.078125 54.6875 
L 18.109375 54.6875 
L 18.109375 46.1875 
Q 21.1875 51.21875 25.484375 53.609375 
Q 29.78125 56 35.6875 56 
Q 41.65625 56 45.828125 52.96875 
Q 50 49.953125 52 44.1875 
z
" id="DejaVuSans-109"/>
       <path d="M 18.109375 8.203125 
L 18.109375 -20.796875 
L 9.078125 -20.796875 
L 9.078125 54.6875 
L 18.109375 54.6875 
L 18.109375 46.390625 
Q 20.953125 51.265625 25.265625 53.625 
Q 29.59375 56 35.59375 56 
Q 45.5625 56 51.78125 48.09375 
Q 58.015625 40.1875 58.015625 27.296875 
Q 58.015625 14.40625 51.78125 6.484375 
Q 45.5625 -1.421875 35.59375 -1.421875 
Q 29.59375 -1.421875 25.265625 0.953125 
Q 20.953125 3.328125 18.109375 8.203125 
z
M 48.6875 27.296875 
Q 48.6875 37.203125 44.609375 42.84375 
Q 40.53125 48.484375 33.40625 48.484375 
Q 26.265625 48.484375 22.1875 42.84375 
Q 18.109375 37.203125 18.109375 27.296875 
Q 18.109375 17.390625 22.1875 11.75 
Q 26.265625 6.109375 33.40625 6.109375 
Q 40.53125 6.109375 44.609375 11.75 
Q 48.6875 17.390625 48.6875 27.296875 
z
" id="DejaVuSans-112"/>
       <path d="M 9.421875 75.984375 
L 18.40625 75.984375 
L 18.40625 0 
L 9.421875 0 
z
" id="DejaVuSans-108"/>
       <path d="M 56.203125 29.59375 
L 56.203125 25.203125 
L 14.890625 25.203125 
Q 15.484375 15.921875 20.484375 11.0625 
Q 25.484375 6.203125 34.421875 6.203125 
Q 39.59375 6.203125 44.453125 7.46875 
Q 49.3125 8.734375 54.109375 11.28125 
L 54.109375 2.78125 
Q 49.265625 0.734375 44.1875 -0.34375 
Q 39.109375 -1.421875 33.890625 -1.421875 
Q 20.796875 -1.421875 13.15625 6.1875 
Q 5.515625 13.8125 5.515625 26.8125 
Q 5.515625 40.234375 12.765625 48.109375 
Q 20.015625 56 32.328125 56 
Q 43.359375 56 49.78125 48.890625 
Q 56.203125 41.796875 56.203125 29.59375 
z
M 47.21875 32.234375 
Q 47.125 39.59375 43.09375 43.984375 
Q 39.0625 48.390625 32.421875 48.390625 
Q 24.90625 48.390625 20.390625 44.140625 
Q 15.875 39.890625 15.1875 32.171875 
z
" id="DejaVuSans-101"/>
      </defs>
      <use xlink:href="#DejaVuSans-83"/>
      <use x="63.476562" xlink:href="#DejaVuSans-117"/>
      <use x="126.855469" xlink:href="#DejaVuSans-98"/>
      <use x="190.332031" xlink:href="#DejaVuSans-32"/>
      <use x="222.119141" xlink:href="#DejaVuSans-115"/>
      <use x="274.21875" xlink:href="#DejaVuSans-97"/>
      <use x="335.498047" xlink:href="#DejaVuSans-109"/>
      <use x="432.910156" xlink:href="#DejaVuSans-112"/>
      <use x="496.386719" xlink:href="#DejaVuSans-108"/>
      <use x="524.169922" xlink:href="#DejaVuSans-101"/>
     </g>
    </g>
   </g>
   <g id="matplotlib.axis_2">
    <g id="ytick_1">
     <g id="line2d_10">
      <defs>
       <path d="M 0 0 
L -3.5 0 
" id="m5d0d6ebbdb" style="stroke:#000000;stroke-width:0.8;"/>
      </defs>
      <g>
       <use style="stroke:#000000;stroke-width:0.8;" x="72" xlink:href="#m5d0d6ebbdb" y="384.48"/>
      </g>
     </g>
     <g id="text_11">
      <!-- 0.60 -->
      <g transform="translate(38.28125 389.039062)scale(0.12 -0.12)">
       <use xlink:href="#DejaVuSans-48"/>
       <use x="63.623047" xlink:href="#DejaVuSans-46"/>
       <use x="95.410156" xlink:href="#DejaVuSans-54"/>
       <use x="159.033203" xlink:href="#DejaVuSans-48"/>
      </g>
     </g>
    </g>
    <g id="ytick_2">
     <g id="line2d_11">
      <g>
       <use style="stroke:#000000;stroke-width:0.8;" x="72" xlink:href="#m5d0d6ebbdb" y="342.9"/>
      </g>
     </g>
     <g id="text_12">
      <!-- 0.65 -->
      <g transform="translate(38.28125 347.459062)scale(0.12 -0.12)">
       <use xlink:href="#DejaVuSans-48"/>
       <use x="63.623047" xlink:href="#DejaVuSans-46"/>
       <use x="95.410156" xlink:href="#DejaVuSans-54"/>
       <use x="159.033203" xlink:href="#DejaVuSans-53"/>
      </g>
     </g>
    </g>
    <g id="ytick_3">
     <g id="line2d_12">
      <g>
       <use style="stroke:#000000;stroke-width:0.8;" x="72" xlink:href="#m5d0d6ebbdb" y="301.32"/>
      </g>
     </g>
     <g id="text_13">
      <!-- 0.70 -->
      <g transform="translate(38.28125 305.879062)scale(0.12 -0.12)">
       <use xlink:href="#DejaVuSans-48"/>
       <use x="63.623047" xlink:href="#DejaVuSans-46"/>
       <use x="95.410156" xlink:href="#DejaVuSans-55"/>
       <use x="159.033203" xlink:href="#DejaVuSans-48"/>
      </g>
     </g>
    </g>
    <g id="ytick_4">
     <g id="line2d_13">
      <g>
       <use style="stroke:#000000;stroke-width:0.8;" x="72" xlink:href="#m5d0d6ebbdb" y="259.74"/>
      </g>
     </g>
     <g id="text_14">
      <!-- 0.75 -->
      <g transform="translate(38.28125 264.299062)scale(0.12 -0.12)">
       <use xlink:href="#DejaVuSans-48"/>
       <use x="63.623047" xlink:href="#DejaVuSans-46"/>
       <use x="95.410156" xlink:href="#DejaVuSans-55"/>
       <use x="159.033203" xlink:href="#DejaVuSans-53"/>
      </g>
     </g>
    </g>
    <g id="ytick_5">
     <g id="line2d_14">
      <g>
       <use style="stroke:#000000;stroke-width:0.8;" x="72" xlink:href="#m5d0d6ebbdb" y="218.16"/>
      </g>
     </g>
     <g id="text_15">
      <!-- 0.80 -->
      <g transform="translate(38.28125 222.719062)scale(0.12 -0.12)">
       <use xlink:href="#DejaVuSans-48"/>
       <use x="63.623047" xlink:href="#DejaVuSans-46"/>
       <use x="95.410156" xlink:href="#DejaVuSans-56"/>
       <use x="159.033203" xlink:href="#DejaVuSans-48"/>
      </g>
     </g>
    </g>
    <g id="ytick_6">
     <g id="line2d_15">
      <g>
       <use style="stroke:#000000;stroke-width:0.8;" x="72" xlink:href="#m5d0d6ebbdb" y="176.58"/>
      </g>
     </g>
     <g id="text_16">
      <!-- 0.85 -->
      <g transform="translate(38.28125 181.139062)scale(0.12 -0.12)">
       <use xlink:href="#DejaVuSans-48"/>
       <use x="63.623047" xlink:href="#DejaVuSans-46"/>
       <use x="95.410156" xlink:href="#DejaVuSans-56"/>
       <use x="159.033203" xlink:href="#DejaVuSans-53"/>
      </g>
     </g>
    </g>
    <g id="ytick_7">
     <g id="line2d_16">
      <g>
       <use style="stroke:#000000;stroke-width:0.8;" x="72" xlink:href="#m5d0d6ebbdb" y="135"/>
      </g>
     </g>
     <g id="text_17">
      <!-- 0.90 -->
      <g transform="translate(38.28125 139.559062)scale(0.12 -0.12)">
       <use xlink:href="#DejaVuSans-48"/>
       <use x="63.623047" xlink:href="#DejaVuSans-46"/>
       <use x="95.410156" xlink:href="#DejaVuSans-57"/>
       <use x="159.033203" xlink:href="#DejaVuSans-48"/>
      </g>
     </g>
    </g>
    <g id="ytick_8">
     <g id="line2d_17">
      <g>
       <use style="stroke:#000000;stroke-width:0.8;" x="72" xlink:href="#m5d0d6ebbdb" y="93.42"/>
      </g>
     </g>
     <g id="text_18">
      <!-- 0.95 -->
      <g transform="translate(38.28125 97.979062)scale(0.12 -0.12)">
       <use xlink:href="#DejaVuSans-48"/>
       <use x="63.623047" xlink:href="#DejaVuSans-46"/>
       <use x="95.410156" xlink:href="#DejaVuSans-57"/>
       <use x="159.033203" xlink:href="#DejaVuSans-53"/>
      </g>
     </g>
    </g>
    <g id="ytick_9">
     <g id="line2d_18">
      <g>
       <use style="stroke:#000000;stroke-width:0.8;" x="72" xlink:href="#m5d0d6ebbdb" y="51.84"/>
      </g>
     </g>
     <g id="text_19">
      <!-- 1.00 -->
      <g transform="translate(38.28125 56.399062)scale(0.12 -0.12)">
       <use xlink:href="#DejaVuSans-49"/>
       <use x="63.623047" xlink:href="#DejaVuSans-46"/>
       <use x="95.410156" xlink:href="#DejaVuSans-48"/>
       <use x="159.033203" xlink:href="#DejaVuSans-48"/>
      </g>
     </g>
    </g>
    <g id="text_20">
     <!-- Col sample by tree -->
     <g transform="translate(31.369687 284.066094)rotate(-90)scale(0.14 -0.14)">
      <defs>
       <path d="M 64.40625 67.28125 
L 64.40625 56.890625 
Q 59.421875 61.53125 53.78125 63.8125 
Q 48.140625 66.109375 41.796875 66.109375 
Q 29.296875 66.109375 22.65625 58.46875 
Q 16.015625 50.828125 16.015625 36.375 
Q 16.015625 21.96875 22.65625 14.328125 
Q 29.296875 6.6875 41.796875 6.6875 
Q 48.140625 6.6875 53.78125 8.984375 
Q 59.421875 11.28125 64.40625 15.921875 
L 64.40625 5.609375 
Q 59.234375 2.09375 53.4375 0.328125 
Q 47.65625 -1.421875 41.21875 -1.421875 
Q 24.65625 -1.421875 15.125 8.703125 
Q 5.609375 18.84375 5.609375 36.375 
Q 5.609375 53.953125 15.125 64.078125 
Q 24.65625 74.21875 41.21875 74.21875 
Q 47.75 74.21875 53.53125 72.484375 
Q 59.328125 70.75 64.40625 67.28125 
z
" id="DejaVuSans-67"/>
       <path d="M 30.609375 48.390625 
Q 23.390625 48.390625 19.1875 42.75 
Q 14.984375 37.109375 14.984375 27.296875 
Q 14.984375 17.484375 19.15625 11.84375 
Q 23.34375 6.203125 30.609375 6.203125 
Q 37.796875 6.203125 41.984375 11.859375 
Q 46.1875 17.53125 46.1875 27.296875 
Q 46.1875 37.015625 41.984375 42.703125 
Q 37.796875 48.390625 30.609375 48.390625 
z
M 30.609375 56 
Q 42.328125 56 49.015625 48.375 
Q 55.71875 40.765625 55.71875 27.296875 
Q 55.71875 13.875 49.015625 6.21875 
Q 42.328125 -1.421875 30.609375 -1.421875 
Q 18.84375 -1.421875 12.171875 6.21875 
Q 5.515625 13.875 5.515625 27.296875 
Q 5.515625 40.765625 12.171875 48.375 
Q 18.84375 56 30.609375 56 
z
" id="DejaVuSans-111"/>
       <path d="M 32.171875 -5.078125 
Q 28.375 -14.84375 24.75 -17.8125 
Q 21.140625 -20.796875 15.09375 -20.796875 
L 7.90625 -20.796875 
L 7.90625 -13.28125 
L 13.1875 -13.28125 
Q 16.890625 -13.28125 18.9375 -11.515625 
Q 21 -9.765625 23.484375 -3.21875 
L 25.09375 0.875 
L 2.984375 54.6875 
L 12.5 54.6875 
L 29.59375 11.921875 
L 46.6875 54.6875 
L 56.203125 54.6875 
z
" id="DejaVuSans-121"/>
       <path d="M 18.3125 70.21875 
L 18.3125 54.6875 
L 36.8125 54.6875 
L 36.8125 47.703125 
L 18.3125 47.703125 
L 18.3125 18.015625 
Q 18.3125 11.328125 20.140625 9.421875 
Q 21.96875 7.515625 27.59375 7.515625 
L 36.8125 7.515625 
L 36.8125 0 
L 27.59375 0 
Q 17.1875 0 13.234375 3.875 
Q 9.28125 7.765625 9.28125 18.015625 
L 9.28125 47.703125 
L 2.6875 47.703125 
L 2.6875 54.6875 
L 9.28125 54.6875 
L 9.28125 70.21875 
z
" id="DejaVuSans-116"/>
       <path d="M 41.109375 46.296875 
Q 39.59375 47.171875 37.8125 47.578125 
Q 36.03125 48 33.890625 48 
Q 26.265625 48 22.1875 43.046875 
Q 18.109375 38.09375 18.109375 28.8125 
L 18.109375 0 
L 9.078125 0 
L 9.078125 54.6875 
L 18.109375 54.6875 
L 18.109375 46.1875 
Q 20.953125 51.171875 25.484375 53.578125 
Q 30.03125 56 36.53125 56 
Q 37.453125 56 38.578125 55.875 
Q 39.703125 55.765625 41.0625 55.515625 
z
" id="DejaVuSans-114"/>
      </defs>
      <use xlink:href="#DejaVuSans-67"/>
      <use x="69.824219" xlink:href="#DejaVuSans-111"/>
      <use x="131.005859" xlink:href="#DejaVuSans-108"/>
      <use x="158.789062" xlink:href="#DejaVuSans-32"/>
      <use x="190.576172" xlink:href="#DejaVuSans-115"/>
      <use x="242.675781" xlink:href="#DejaVuSans-97"/>
      <use x="303.955078" xlink:href="#DejaVuSans-109"/>
      <use x="401.367188" xlink:href="#DejaVuSans-112"/>
      <use x="464.84375" xlink:href="#DejaVuSans-108"/>
      <use x="492.626953" xlink:href="#DejaVuSans-101"/>
      <use x="554.150391" xlink:href="#DejaVuSans-32"/>
      <use x="585.9375" xlink:href="#DejaVuSans-98"/>
      <use x="649.414062" xlink:href="#DejaVuSans-121"/>
      <use x="708.59375" xlink:href="#DejaVuSans-32"/>
      <use x="740.380859" xlink:href="#DejaVuSans-116"/>
      <use x="779.589844" xlink:href="#DejaVuSans-114"/>
      <use x="818.453125" xlink:href="#DejaVuSans-101"/>
      <use x="879.976562" xlink:href="#DejaVuSans-101"/>
     </g>
    </g>
   </g>
   <g id="patch_3">
    <path d="M 72 384.48 
L 72 51.84 
" style="fill:none;stroke:#000000;stroke-linecap:square;stroke-linejoin:miter;stroke-width:0.8;"/>
   </g>
   <g id="patch_4">
    <path d="M 518.4 384.48 
L 518.4 51.84 
" style="fill:none;stroke:#000000;stroke-linecap:square;stroke-linejoin:miter;stroke-width:0.8;"/>
   </g>
   <g id="patch_5">
    <path d="M 72 384.48 
L 518.4 384.48 
" style="fill:none;stroke:#000000;stroke-linecap:square;stroke-linejoin:miter;stroke-width:0.8;"/>
   </g>
   <g id="patch_6">
    <path d="M 72 51.84 
L 518.4 51.84 
" style="fill:none;stroke:#000000;stroke-linecap:square;stroke-linejoin:miter;stroke-width:0.8;"/>
   </g>
  </g>
 </g>
 <defs>
  <clipPath id="p46fc4d0b06">
   <rect height="332.64" width="446.4" x="72" y="51.84"/>
  </clipPath>
 </defs>
</svg>
