<?xml version="1.0" encoding="utf-8"?>
<svg xmlns="http://www.w3.org/2000/svg" xmlns:xlink="http://www.w3.org/1999/xlink" width="800" height="600" viewBox="0 0 3200 2400">
<defs>
  <clipPath id="clip920">
    <rect x="0" y="0" width="3200" height="2400"/>
  </clipPath>
</defs>
<path clip-path="url(#clip920)" d="M0 2400 L3200 2400 L3200 0 L0 0  Z" fill="#ffffff" fill-rule="evenodd" fill-opacity="1"/>
<defs>
  <clipPath id="clip921">
    <rect x="640" y="0" width="2241" height="2241"/>
  </clipPath>
</defs>
<path clip-path="url(#clip920)" d="M302.883 2180.62 L3152.76 2180.62 L3152.76 47.2441 L302.883 47.2441  Z" fill="#ffffff" fill-rule="evenodd" fill-opacity="1"/>
<defs>
  <clipPath id="clip922">
    <rect x="302" y="47" width="2851" height="2134"/>
  </clipPath>
</defs>
<polyline clip-path="url(#clip922)" style="stroke:#000000; stroke-linecap:round; stroke-linejoin:round; stroke-width:2; stroke-opacity:0.1; fill:none" points="634.553,2180.62 634.553,47.2441 "/>
<polyline clip-path="url(#clip922)" style="stroke:#000000; stroke-linecap:round; stroke-linejoin:round; stroke-width:2; stroke-opacity:0.1; fill:none" points="1071.86,2180.62 1071.86,47.2441 "/>
<polyline clip-path="url(#clip922)" style="stroke:#000000; stroke-linecap:round; stroke-linejoin:round; stroke-width:2; stroke-opacity:0.1; fill:none" points="1509.17,2180.62 1509.17,47.2441 "/>
<polyline clip-path="url(#clip922)" style="stroke:#000000; stroke-linecap:round; stroke-linejoin:round; stroke-width:2; stroke-opacity:0.1; fill:none" points="1946.47,2180.62 1946.47,47.2441 "/>
<polyline clip-path="url(#clip922)" style="stroke:#000000; stroke-linecap:round; stroke-linejoin:round; stroke-width:2; stroke-opacity:0.1; fill:none" points="2383.78,2180.62 2383.78,47.2441 "/>
<polyline clip-path="url(#clip922)" style="stroke:#000000; stroke-linecap:round; stroke-linejoin:round; stroke-width:2; stroke-opacity:0.1; fill:none" points="2821.09,2180.62 2821.09,47.2441 "/>
<polyline clip-path="url(#clip920)" style="stroke:#000000; stroke-linecap:round; stroke-linejoin:round; stroke-width:4; stroke-opacity:1; fill:none" points="302.883,2180.62 3152.76,2180.62 "/>
<polyline clip-path="url(#clip920)" style="stroke:#000000; stroke-linecap:round; stroke-linejoin:round; stroke-width:4; stroke-opacity:1; fill:none" points="634.553,2180.62 634.553,2161.72 "/>
<polyline clip-path="url(#clip920)" style="stroke:#000000; stroke-linecap:round; stroke-linejoin:round; stroke-width:4; stroke-opacity:1; fill:none" points="1071.86,2180.62 1071.86,2161.72 "/>
<polyline clip-path="url(#clip920)" style="stroke:#000000; stroke-linecap:round; stroke-linejoin:round; stroke-width:4; stroke-opacity:1; fill:none" points="1509.17,2180.62 1509.17,2161.72 "/>
<polyline clip-path="url(#clip920)" style="stroke:#000000; stroke-linecap:round; stroke-linejoin:round; stroke-width:4; stroke-opacity:1; fill:none" points="1946.47,2180.62 1946.47,2161.72 "/>
<polyline clip-path="url(#clip920)" style="stroke:#000000; stroke-linecap:round; stroke-linejoin:round; stroke-width:4; stroke-opacity:1; fill:none" points="2383.78,2180.62 2383.78,2161.72 "/>
<polyline clip-path="url(#clip920)" style="stroke:#000000; stroke-linecap:round; stroke-linejoin:round; stroke-width:4; stroke-opacity:1; fill:none" points="2821.09,2180.62 2821.09,2161.72 "/>
<path clip-path="url(#clip920)" d="M622.531 2255.3 L632.079 2255.3 L632.079 2222.34 L621.692 2224.43 L621.692 2219.1 L632.021 2217.02 L637.866 2217.02 L637.866 2255.3 L647.415 2255.3 L647.415 2260.22 L622.531 2260.22 L622.531 2255.3 Z" fill="#000000" fill-rule="nonzero" fill-opacity="1" /><path clip-path="url(#clip920)" d="M1065.18 2255.3 L1085.57 2255.3 L1085.57 2260.22 L1058.14 2260.22 L1058.14 2255.3 Q1061.47 2251.86 1067.2 2246.07 Q1072.96 2240.25 1074.43 2238.58 Q1077.24 2235.42 1078.34 2233.25 Q1079.47 2231.05 1079.47 2228.94 Q1079.47 2225.5 1077.04 2223.33 Q1074.64 2221.16 1070.76 2221.16 Q1068.01 2221.16 1064.94 2222.11 Q1061.91 2223.07 1058.43 2225.01 L1058.43 2219.1 Q1061.96 2217.69 1065.03 2216.96 Q1068.1 2216.24 1070.64 2216.24 Q1077.36 2216.24 1081.35 2219.6 Q1085.34 2222.95 1085.34 2228.56 Q1085.34 2231.23 1084.33 2233.63 Q1083.35 2236 1080.71 2239.24 Q1079.99 2240.08 1076.11 2244.1 Q1072.24 2248.1 1065.18 2255.3 Z" fill="#000000" fill-rule="nonzero" fill-opacity="1" /><path clip-path="url(#clip920)" d="M1514.48 2236.93 Q1518.67 2237.82 1521.01 2240.66 Q1523.39 2243.5 1523.39 2247.66 Q1523.39 2254.06 1518.99 2257.56 Q1514.59 2261.06 1506.49 2261.06 Q1503.77 2261.06 1500.88 2260.51 Q1498.01 2259.99 1494.94 2258.92 L1494.94 2253.28 Q1497.37 2254.69 1500.27 2255.42 Q1503.16 2256.14 1506.32 2256.14 Q1511.81 2256.14 1514.68 2253.97 Q1517.57 2251.8 1517.57 2247.66 Q1517.57 2243.84 1514.88 2241.7 Q1512.22 2239.53 1507.44 2239.53 L1502.41 2239.53 L1502.41 2234.73 L1507.68 2234.73 Q1511.99 2234.73 1514.27 2233.02 Q1516.56 2231.28 1516.56 2228.04 Q1516.56 2224.72 1514.19 2222.95 Q1511.84 2221.16 1507.44 2221.16 Q1505.04 2221.16 1502.29 2221.68 Q1499.55 2222.2 1496.25 2223.3 L1496.25 2218.09 Q1499.57 2217.16 1502.47 2216.7 Q1505.39 2216.24 1507.97 2216.24 Q1514.62 2216.24 1518.5 2219.28 Q1522.37 2222.29 1522.37 2227.44 Q1522.37 2231.02 1520.32 2233.51 Q1518.27 2235.97 1514.48 2236.93 Z" fill="#000000" fill-rule="nonzero" fill-opacity="1" /><path clip-path="url(#clip920)" d="M1950.23 2222.11 L1935.48 2245.17 L1950.23 2245.17 L1950.23 2222.11 M1948.7 2217.02 L1956.05 2217.02 L1956.05 2245.17 L1962.21 2245.17 L1962.21 2250.03 L1956.05 2250.03 L1956.05 2260.22 L1950.23 2260.22 L1950.23 2250.03 L1930.73 2250.03 L1930.73 2244.39 L1948.7 2217.02 Z" fill="#000000" fill-rule="nonzero" fill-opacity="1" /><path clip-path="url(#clip920)" d="M2371.63 2217.02 L2394.57 2217.02 L2394.57 2221.94 L2376.98 2221.94 L2376.98 2232.53 Q2378.25 2232.09 2379.53 2231.89 Q2380.8 2231.66 2382.07 2231.66 Q2389.31 2231.66 2393.53 2235.63 Q2397.75 2239.59 2397.75 2246.36 Q2397.75 2253.33 2393.41 2257.21 Q2389.07 2261.06 2381.17 2261.06 Q2378.45 2261.06 2375.62 2260.6 Q2372.81 2260.13 2369.8 2259.21 L2369.8 2253.33 Q2372.41 2254.75 2375.19 2255.45 Q2377.96 2256.14 2381.06 2256.14 Q2386.06 2256.14 2388.99 2253.51 Q2391.91 2250.87 2391.91 2246.36 Q2391.91 2241.85 2388.99 2239.21 Q2386.06 2236.58 2381.06 2236.58 Q2378.72 2236.58 2376.37 2237.1 Q2374.06 2237.62 2371.63 2238.72 L2371.63 2217.02 Z" fill="#000000" fill-rule="nonzero" fill-opacity="1" /><path clip-path="url(#clip920)" d="M2821.59 2236.29 Q2817.66 2236.29 2815.34 2238.98 Q2813.06 2241.67 2813.06 2246.36 Q2813.06 2251.02 2815.34 2253.74 Q2817.66 2256.43 2821.59 2256.43 Q2825.53 2256.43 2827.81 2253.74 Q2830.13 2251.02 2830.13 2246.36 Q2830.13 2241.67 2827.81 2238.98 Q2825.53 2236.29 2821.59 2236.29 M2833.19 2217.97 L2833.19 2223.3 Q2831 2222.26 2828.74 2221.71 Q2826.51 2221.16 2824.31 2221.16 Q2818.52 2221.16 2815.46 2225.06 Q2812.42 2228.97 2811.99 2236.87 Q2813.69 2234.35 2816.27 2233.02 Q2818.84 2231.66 2821.94 2231.66 Q2828.45 2231.66 2832.21 2235.63 Q2836 2239.56 2836 2246.36 Q2836 2253.02 2832.07 2257.04 Q2828.13 2261.06 2821.59 2261.06 Q2814.1 2261.06 2810.13 2255.33 Q2806.17 2249.57 2806.17 2238.66 Q2806.17 2228.42 2811.03 2222.34 Q2815.89 2216.24 2824.08 2216.24 Q2826.28 2216.24 2828.51 2216.67 Q2830.76 2217.11 2833.19 2217.97 Z" fill="#000000" fill-rule="nonzero" fill-opacity="1" /><path clip-path="url(#clip920)" d="M1234.01 2305.52 L1245.03 2305.52 L1271.85 2356.11 L1271.85 2305.52 L1279.79 2305.52 L1279.79 2366 L1268.77 2366 L1241.95 2315.4 L1241.95 2366 L1234.01 2366 L1234.01 2305.52 Z" fill="#000000" fill-rule="nonzero" fill-opacity="1" /><path clip-path="url(#clip920)" d="M1294.98 2348.09 L1294.98 2320.63 L1302.43 2320.63 L1302.43 2347.81 Q1302.43 2354.25 1304.95 2357.49 Q1307.46 2360.69 1312.48 2360.69 Q1318.52 2360.69 1322 2356.84 Q1325.52 2352.99 1325.52 2346.35 L1325.52 2320.63 L1332.98 2320.63 L1332.98 2366 L1325.52 2366 L1325.52 2359.03 Q1322.81 2363.16 1319.2 2365.19 Q1315.64 2367.17 1310.9 2367.17 Q1303.08 2367.17 1299.03 2362.31 Q1294.98 2357.45 1294.98 2348.09 M1313.74 2319.53 L1313.74 2319.53 Z" fill="#000000" fill-rule="nonzero" fill-opacity="1" /><path clip-path="url(#clip920)" d="M1383.65 2329.34 Q1386.45 2324.31 1390.34 2321.92 Q1394.23 2319.53 1399.49 2319.53 Q1406.58 2319.53 1410.43 2324.51 Q1414.28 2329.46 1414.28 2338.61 L1414.28 2366 L1406.79 2366 L1406.79 2338.85 Q1406.79 2332.33 1404.48 2329.17 Q1402.17 2326.01 1397.43 2326.01 Q1391.63 2326.01 1388.27 2329.86 Q1384.91 2333.71 1384.91 2340.35 L1384.91 2366 L1377.42 2366 L1377.42 2338.85 Q1377.42 2332.29 1375.11 2329.17 Q1372.8 2326.01 1367.98 2326.01 Q1362.27 2326.01 1358.9 2329.9 Q1355.54 2333.75 1355.54 2340.35 L1355.54 2366 L1348.05 2366 L1348.05 2320.63 L1355.54 2320.63 L1355.54 2327.67 Q1358.09 2323.5 1361.66 2321.52 Q1365.22 2319.53 1370.12 2319.53 Q1375.07 2319.53 1378.51 2322.04 Q1381.99 2324.56 1383.65 2329.34 Z" fill="#000000" fill-rule="nonzero" fill-opacity="1" /><path clip-path="url(#clip920)" d="M1461.72 2343.35 Q1461.72 2335.13 1458.31 2330.47 Q1454.95 2325.77 1449.04 2325.77 Q1443.12 2325.77 1439.72 2330.47 Q1436.36 2335.13 1436.36 2343.35 Q1436.36 2351.57 1439.72 2356.27 Q1443.12 2360.93 1449.04 2360.93 Q1454.95 2360.93 1458.31 2356.27 Q1461.72 2351.57 1461.72 2343.35 M1436.36 2327.51 Q1438.71 2323.46 1442.27 2321.52 Q1445.88 2319.53 1450.86 2319.53 Q1459.12 2319.53 1464.27 2326.09 Q1469.45 2332.66 1469.45 2343.35 Q1469.45 2354.05 1464.27 2360.61 Q1459.12 2367.17 1450.86 2367.17 Q1445.88 2367.17 1442.27 2365.23 Q1438.71 2363.24 1436.36 2359.19 L1436.36 2366 L1428.86 2366 L1428.86 2302.96 L1436.36 2302.96 L1436.36 2327.51 Z" fill="#000000" fill-rule="nonzero" fill-opacity="1" /><path clip-path="url(#clip920)" d="M1520.62 2341.45 L1520.62 2345.09 L1486.34 2345.09 Q1486.83 2352.79 1490.96 2356.84 Q1495.14 2360.85 1502.55 2360.85 Q1506.84 2360.85 1510.85 2359.8 Q1514.9 2358.74 1518.87 2356.64 L1518.87 2363.69 Q1514.86 2365.39 1510.65 2366.28 Q1506.44 2367.17 1502.1 2367.17 Q1491.25 2367.17 1484.89 2360.85 Q1478.57 2354.53 1478.57 2343.76 Q1478.57 2332.62 1484.56 2326.09 Q1490.6 2319.53 1500.81 2319.53 Q1509.96 2319.53 1515.27 2325.45 Q1520.62 2331.32 1520.62 2341.45 M1513.16 2339.26 Q1513.08 2333.14 1509.72 2329.5 Q1506.4 2325.85 1500.89 2325.85 Q1494.65 2325.85 1490.88 2329.38 Q1487.15 2332.9 1486.59 2339.3 L1513.16 2339.26 Z" fill="#000000" fill-rule="nonzero" fill-opacity="1" /><path clip-path="url(#clip920)" d="M1559.14 2327.59 Q1557.88 2326.86 1556.38 2326.54 Q1554.93 2326.18 1553.14 2326.18 Q1546.82 2326.18 1543.42 2330.31 Q1540.06 2334.4 1540.06 2342.1 L1540.06 2366 L1532.57 2366 L1532.57 2320.63 L1540.06 2320.63 L1540.06 2327.67 Q1542.41 2323.54 1546.18 2321.56 Q1549.94 2319.53 1555.33 2319.53 Q1556.1 2319.53 1557.03 2319.65 Q1557.96 2319.73 1559.1 2319.94 L1559.14 2327.59 Z" fill="#000000" fill-rule="nonzero" fill-opacity="1" /><path clip-path="url(#clip920)" d="M1610.91 2325.85 Q1604.91 2325.85 1601.43 2330.55 Q1597.95 2335.21 1597.95 2343.35 Q1597.95 2351.49 1601.39 2356.19 Q1604.87 2360.85 1610.91 2360.85 Q1616.86 2360.85 1620.35 2356.15 Q1623.83 2351.45 1623.83 2343.35 Q1623.83 2335.29 1620.35 2330.59 Q1616.86 2325.85 1610.91 2325.85 M1610.91 2319.53 Q1620.63 2319.53 1626.18 2325.85 Q1631.73 2332.17 1631.73 2343.35 Q1631.73 2354.49 1626.18 2360.85 Q1620.63 2367.17 1610.91 2367.17 Q1601.15 2367.17 1595.6 2360.85 Q1590.09 2354.49 1590.09 2343.35 Q1590.09 2332.17 1595.6 2325.85 Q1601.15 2319.53 1610.91 2319.53 Z" fill="#000000" fill-rule="nonzero" fill-opacity="1" /><path clip-path="url(#clip920)" d="M1667.06 2302.96 L1667.06 2309.16 L1659.93 2309.16 Q1655.92 2309.16 1654.34 2310.78 Q1652.8 2312.4 1652.8 2316.62 L1652.8 2320.63 L1665.07 2320.63 L1665.07 2326.42 L1652.8 2326.42 L1652.8 2366 L1645.3 2366 L1645.3 2326.42 L1638.17 2326.42 L1638.17 2320.63 L1645.3 2320.63 L1645.3 2317.47 Q1645.3 2309.89 1648.83 2306.45 Q1652.35 2302.96 1660.01 2302.96 L1667.06 2302.96 Z" fill="#000000" fill-rule="nonzero" fill-opacity="1" /><path clip-path="url(#clip920)" d="M1708.17 2312.24 L1708.17 2334.97 L1718.46 2334.97 Q1724.17 2334.97 1727.29 2332.01 Q1730.41 2329.05 1730.41 2323.58 Q1730.41 2318.15 1727.29 2315.2 Q1724.17 2312.24 1718.46 2312.24 L1708.17 2312.24 M1699.99 2305.52 L1718.46 2305.52 Q1728.63 2305.52 1733.81 2310.13 Q1739.04 2314.71 1739.04 2323.58 Q1739.04 2332.54 1733.81 2337.11 Q1728.63 2341.69 1718.46 2341.69 L1708.17 2341.69 L1708.17 2366 L1699.99 2366 L1699.99 2305.52 Z" fill="#000000" fill-rule="nonzero" fill-opacity="1" /><path clip-path="url(#clip920)" d="M1795.31 2310.17 L1795.31 2318.8 Q1791.18 2314.95 1786.48 2313.05 Q1781.82 2311.15 1776.55 2311.15 Q1766.18 2311.15 1760.67 2317.51 Q1755.16 2323.83 1755.16 2335.82 Q1755.16 2347.77 1760.67 2354.13 Q1766.18 2360.45 1776.55 2360.45 Q1781.82 2360.45 1786.48 2358.54 Q1791.18 2356.64 1795.31 2352.79 L1795.31 2361.34 Q1791.01 2364.25 1786.19 2365.71 Q1781.41 2367.17 1776.07 2367.17 Q1762.33 2367.17 1754.43 2358.79 Q1746.53 2350.36 1746.53 2335.82 Q1746.53 2321.23 1754.43 2312.85 Q1762.33 2304.42 1776.07 2304.42 Q1781.49 2304.42 1786.27 2305.88 Q1791.09 2307.3 1795.31 2310.17 Z" fill="#000000" fill-rule="nonzero" fill-opacity="1" /><path clip-path="url(#clip920)" d="M1828.16 2313.58 L1817.06 2343.68 L1839.3 2343.68 L1828.16 2313.58 M1823.54 2305.52 L1832.82 2305.52 L1855.87 2366 L1847.36 2366 L1841.85 2350.48 L1814.59 2350.48 L1809.08 2366 L1800.45 2366 L1823.54 2305.52 Z" fill="#000000" fill-rule="nonzero" fill-opacity="1" /><path clip-path="url(#clip920)" d="M1913.72 2302.96 L1913.72 2309.16 L1906.59 2309.16 Q1902.58 2309.16 1901 2310.78 Q1899.46 2312.4 1899.46 2316.62 L1899.46 2320.63 L1911.73 2320.63 L1911.73 2326.42 L1899.46 2326.42 L1899.46 2366 L1891.96 2366 L1891.96 2326.42 L1884.83 2326.42 L1884.83 2320.63 L1891.96 2320.63 L1891.96 2317.47 Q1891.96 2309.89 1895.49 2306.45 Q1899.01 2302.96 1906.67 2302.96 L1913.72 2302.96 Z" fill="#000000" fill-rule="nonzero" fill-opacity="1" /><path clip-path="url(#clip920)" d="M1958.76 2341.45 L1958.76 2345.09 L1924.49 2345.09 Q1924.98 2352.79 1929.11 2356.84 Q1933.28 2360.85 1940.69 2360.85 Q1944.99 2360.85 1949 2359.8 Q1953.05 2358.74 1957.02 2356.64 L1957.02 2363.69 Q1953.01 2365.39 1948.8 2366.28 Q1944.58 2367.17 1940.25 2367.17 Q1929.39 2367.17 1923.03 2360.85 Q1916.71 2354.53 1916.71 2343.76 Q1916.71 2332.62 1922.71 2326.09 Q1928.74 2319.53 1938.95 2319.53 Q1948.11 2319.53 1953.41 2325.45 Q1958.76 2331.32 1958.76 2341.45 M1951.31 2339.26 Q1951.23 2333.14 1947.86 2329.5 Q1944.54 2325.85 1939.03 2325.85 Q1932.79 2325.85 1929.03 2329.38 Q1925.3 2332.9 1924.73 2339.3 L1951.31 2339.26 Z" fill="#000000" fill-rule="nonzero" fill-opacity="1" /><path clip-path="url(#clip920)" d="M1991.61 2343.19 Q1982.58 2343.19 1979.1 2345.26 Q1975.61 2347.32 1975.61 2352.3 Q1975.61 2356.27 1978.21 2358.62 Q1980.84 2360.93 1985.34 2360.93 Q1991.53 2360.93 1995.26 2356.56 Q1999.03 2352.14 1999.03 2344.85 L1999.03 2343.19 L1991.61 2343.19 M2006.48 2340.11 L2006.48 2366 L1999.03 2366 L1999.03 2359.11 Q1996.48 2363.24 1992.67 2365.23 Q1988.86 2367.17 1983.35 2367.17 Q1976.38 2367.17 1972.25 2363.28 Q1968.16 2359.35 1968.16 2352.79 Q1968.16 2345.13 1973.26 2341.24 Q1978.41 2337.36 1988.58 2337.36 L1999.03 2337.36 L1999.03 2336.63 Q1999.03 2331.48 1995.62 2328.69 Q1992.26 2325.85 1986.15 2325.85 Q1982.26 2325.85 1978.57 2326.78 Q1974.88 2327.71 1971.48 2329.58 L1971.48 2322.69 Q1975.57 2321.11 1979.42 2320.34 Q1983.27 2319.53 1986.92 2319.53 Q1996.76 2319.53 2001.62 2324.64 Q2006.48 2329.74 2006.48 2340.11 Z" fill="#000000" fill-rule="nonzero" fill-opacity="1" /><path clip-path="url(#clip920)" d="M2029.21 2307.74 L2029.21 2320.63 L2044.56 2320.63 L2044.56 2326.42 L2029.21 2326.42 L2029.21 2351.05 Q2029.21 2356.6 2030.71 2358.18 Q2032.24 2359.76 2036.9 2359.76 L2044.56 2359.76 L2044.56 2366 L2036.9 2366 Q2028.27 2366 2024.99 2362.8 Q2021.71 2359.55 2021.71 2351.05 L2021.71 2326.42 L2016.24 2326.42 L2016.24 2320.63 L2021.71 2320.63 L2021.71 2307.74 L2029.21 2307.74 Z" fill="#000000" fill-rule="nonzero" fill-opacity="1" /><path clip-path="url(#clip920)" d="M2053.59 2348.09 L2053.59 2320.63 L2061.05 2320.63 L2061.05 2347.81 Q2061.05 2354.25 2063.56 2357.49 Q2066.07 2360.69 2071.09 2360.69 Q2077.13 2360.69 2080.61 2356.84 Q2084.14 2352.99 2084.14 2346.35 L2084.14 2320.63 L2091.59 2320.63 L2091.59 2366 L2084.14 2366 L2084.14 2359.03 Q2081.42 2363.16 2077.82 2365.19 Q2074.25 2367.17 2069.51 2367.17 Q2061.69 2367.17 2057.64 2362.31 Q2053.59 2357.45 2053.59 2348.09 M2072.35 2319.53 L2072.35 2319.53 Z" fill="#000000" fill-rule="nonzero" fill-opacity="1" /><path clip-path="url(#clip920)" d="M2133.23 2327.59 Q2131.98 2326.86 2130.48 2326.54 Q2129.02 2326.18 2127.24 2326.18 Q2120.92 2326.18 2117.52 2330.31 Q2114.15 2334.4 2114.15 2342.1 L2114.15 2366 L2106.66 2366 L2106.66 2320.63 L2114.15 2320.63 L2114.15 2327.67 Q2116.5 2323.54 2120.27 2321.56 Q2124.04 2319.53 2129.43 2319.53 Q2130.2 2319.53 2131.13 2319.65 Q2132.06 2319.73 2133.19 2319.94 L2133.23 2327.59 Z" fill="#000000" fill-rule="nonzero" fill-opacity="1" /><path clip-path="url(#clip920)" d="M2178.04 2341.45 L2178.04 2345.09 L2143.77 2345.09 Q2144.25 2352.79 2148.38 2356.84 Q2152.56 2360.85 2159.97 2360.85 Q2164.26 2360.85 2168.27 2359.8 Q2172.32 2358.74 2176.29 2356.64 L2176.29 2363.69 Q2172.28 2365.39 2168.07 2366.28 Q2163.86 2367.17 2159.52 2367.17 Q2148.67 2367.17 2142.31 2360.85 Q2135.99 2354.53 2135.99 2343.76 Q2135.99 2332.62 2141.98 2326.09 Q2148.02 2319.53 2158.23 2319.53 Q2167.38 2319.53 2172.69 2325.45 Q2178.04 2331.32 2178.04 2341.45 M2170.58 2339.26 Q2170.5 2333.14 2167.14 2329.5 Q2163.82 2325.85 2158.31 2325.85 Q2152.07 2325.85 2148.3 2329.38 Q2144.58 2332.9 2144.01 2339.3 L2170.58 2339.26 Z" fill="#000000" fill-rule="nonzero" fill-opacity="1" /><path clip-path="url(#clip920)" d="M2219.19 2321.96 L2219.19 2329.01 Q2216.03 2327.39 2212.63 2326.58 Q2209.23 2325.77 2205.58 2325.77 Q2200.03 2325.77 2197.24 2327.47 Q2194.48 2329.17 2194.48 2332.58 Q2194.48 2335.17 2196.47 2336.67 Q2198.45 2338.13 2204.45 2339.46 L2207 2340.03 Q2214.94 2341.73 2218.26 2344.85 Q2221.62 2347.93 2221.62 2353.48 Q2221.62 2359.8 2216.6 2363.48 Q2211.62 2367.17 2202.87 2367.17 Q2199.22 2367.17 2195.25 2366.44 Q2191.32 2365.75 2186.95 2364.33 L2186.95 2356.64 Q2191.08 2358.79 2195.09 2359.88 Q2199.1 2360.93 2203.03 2360.93 Q2208.3 2360.93 2211.13 2359.15 Q2213.97 2357.33 2213.97 2354.05 Q2213.97 2351.01 2211.9 2349.39 Q2209.88 2347.77 2202.95 2346.27 L2200.36 2345.66 Q2193.43 2344.2 2190.35 2341.2 Q2187.27 2338.17 2187.27 2332.9 Q2187.27 2326.5 2191.81 2323.02 Q2196.35 2319.53 2204.69 2319.53 Q2208.82 2319.53 2212.47 2320.14 Q2216.12 2320.75 2219.19 2321.96 Z" fill="#000000" fill-rule="nonzero" fill-opacity="1" /><polyline clip-path="url(#clip922)" style="stroke:#000000; stroke-linecap:round; stroke-linejoin:round; stroke-width:2; stroke-opacity:0.1; fill:none" points="302.883,2180.62 3152.76,2180.62 "/>
<polyline clip-path="url(#clip922)" style="stroke:#000000; stroke-linecap:round; stroke-linejoin:round; stroke-width:2; stroke-opacity:0.1; fill:none" points="302.883,1695.76 3152.76,1695.76 "/>
<polyline clip-path="url(#clip922)" style="stroke:#000000; stroke-linecap:round; stroke-linejoin:round; stroke-width:2; stroke-opacity:0.1; fill:none" points="302.883,1210.9 3152.76,1210.9 "/>
<polyline clip-path="url(#clip922)" style="stroke:#000000; stroke-linecap:round; stroke-linejoin:round; stroke-width:2; stroke-opacity:0.1; fill:none" points="302.883,726.045 3152.76,726.045 "/>
<polyline clip-path="url(#clip922)" style="stroke:#000000; stroke-linecap:round; stroke-linejoin:round; stroke-width:2; stroke-opacity:0.1; fill:none" points="302.883,241.187 3152.76,241.187 "/>
<polyline clip-path="url(#clip920)" style="stroke:#000000; stroke-linecap:round; stroke-linejoin:round; stroke-width:4; stroke-opacity:1; fill:none" points="302.883,2180.62 302.883,47.2441 "/>
<polyline clip-path="url(#clip920)" style="stroke:#000000; stroke-linecap:round; stroke-linejoin:round; stroke-width:4; stroke-opacity:1; fill:none" points="302.883,2180.62 321.78,2180.62 "/>
<polyline clip-path="url(#clip920)" style="stroke:#000000; stroke-linecap:round; stroke-linejoin:round; stroke-width:4; stroke-opacity:1; fill:none" points="302.883,1695.76 321.78,1695.76 "/>
<polyline clip-path="url(#clip920)" style="stroke:#000000; stroke-linecap:round; stroke-linejoin:round; stroke-width:4; stroke-opacity:1; fill:none" points="302.883,1210.9 321.78,1210.9 "/>
<polyline clip-path="url(#clip920)" style="stroke:#000000; stroke-linecap:round; stroke-linejoin:round; stroke-width:4; stroke-opacity:1; fill:none" points="302.883,726.045 321.78,726.045 "/>
<polyline clip-path="url(#clip920)" style="stroke:#000000; stroke-linecap:round; stroke-linejoin:round; stroke-width:4; stroke-opacity:1; fill:none" points="302.883,241.187 321.78,241.187 "/>
<path clip-path="url(#clip920)" d="M145.711 2162.87 Q141.197 2162.87 138.911 2167.32 Q136.654 2171.75 136.654 2180.66 Q136.654 2189.55 138.911 2194 Q141.197 2198.43 145.711 2198.43 Q150.253 2198.43 152.51 2194 Q154.796 2189.55 154.796 2180.66 Q154.796 2171.75 152.51 2167.32 Q150.253 2162.87 145.711 2162.87 M145.711 2158.24 Q152.973 2158.24 156.793 2164 Q160.641 2169.73 160.641 2180.66 Q160.641 2191.57 156.793 2197.33 Q152.973 2203.06 145.711 2203.06 Q138.448 2203.06 134.6 2197.33 Q130.78 2191.57 130.78 2180.66 Q130.78 2169.73 134.6 2164 Q138.448 2158.24 145.711 2158.24 Z" fill="#000000" fill-rule="nonzero" fill-opacity="1" /><path clip-path="url(#clip920)" d="M170.913 2194.87 L177.018 2194.87 L177.018 2202.22 L170.913 2202.22 L170.913 2194.87 Z" fill="#000000" fill-rule="nonzero" fill-opacity="1" /><path clip-path="url(#clip920)" d="M202.25 2162.87 Q197.736 2162.87 195.45 2167.32 Q193.193 2171.75 193.193 2180.66 Q193.193 2189.55 195.45 2194 Q197.736 2198.43 202.25 2198.43 Q206.792 2198.43 209.049 2194 Q211.335 2189.55 211.335 2180.66 Q211.335 2171.75 209.049 2167.32 Q206.792 2162.87 202.25 2162.87 M202.25 2158.24 Q209.512 2158.24 213.332 2164 Q217.18 2169.73 217.18 2180.66 Q217.18 2191.57 213.332 2197.33 Q209.512 2203.06 202.25 2203.06 Q194.987 2203.06 191.139 2197.33 Q187.319 2191.57 187.319 2180.66 Q187.319 2169.73 191.139 2164 Q194.987 2158.24 202.25 2158.24 Z" fill="#000000" fill-rule="nonzero" fill-opacity="1" /><path clip-path="url(#clip920)" d="M239.952 2162.87 Q235.438 2162.87 233.152 2167.32 Q230.895 2171.75 230.895 2180.66 Q230.895 2189.55 233.152 2194 Q235.438 2198.43 239.952 2198.43 Q244.495 2198.43 246.752 2194 Q249.038 2189.55 249.038 2180.66 Q249.038 2171.75 246.752 2167.32 Q244.495 2162.87 239.952 2162.87 M239.952 2158.24 Q247.215 2158.24 251.034 2164 Q254.883 2169.73 254.883 2180.66 Q254.883 2191.57 251.034 2197.33 Q247.215 2203.06 239.952 2203.06 Q232.689 2203.06 228.841 2197.33 Q225.022 2191.57 225.022 2180.66 Q225.022 2169.73 228.841 2164 Q232.689 2158.24 239.952 2158.24 Z" fill="#000000" fill-rule="nonzero" fill-opacity="1" /><path clip-path="url(#clip920)" d="M146.955 1678.01 Q142.441 1678.01 140.155 1682.47 Q137.898 1686.89 137.898 1695.81 Q137.898 1704.69 140.155 1709.14 Q142.441 1713.57 146.955 1713.57 Q151.498 1713.57 153.755 1709.14 Q156.04 1704.69 156.04 1695.81 Q156.04 1686.89 153.755 1682.47 Q151.498 1678.01 146.955 1678.01 M146.955 1673.38 Q154.218 1673.38 158.037 1679.14 Q161.885 1684.87 161.885 1695.81 Q161.885 1706.71 158.037 1712.47 Q154.218 1718.2 146.955 1718.2 Q139.692 1718.2 135.844 1712.47 Q132.024 1706.71 132.024 1695.81 Q132.024 1684.87 135.844 1679.14 Q139.692 1673.38 146.955 1673.38 Z" fill="#000000" fill-rule="nonzero" fill-opacity="1" /><path clip-path="url(#clip920)" d="M172.157 1710.01 L178.263 1710.01 L178.263 1717.36 L172.157 1717.36 L172.157 1710.01 Z" fill="#000000" fill-rule="nonzero" fill-opacity="1" /><path clip-path="url(#clip920)" d="M196.029 1712.44 L216.428 1712.44 L216.428 1717.36 L188.997 1717.36 L188.997 1712.44 Q192.325 1709 198.054 1703.21 Q203.812 1697.4 205.288 1695.72 Q208.095 1692.56 209.194 1690.39 Q210.323 1688.2 210.323 1686.08 Q210.323 1682.64 207.892 1680.47 Q205.49 1678.3 201.613 1678.3 Q198.864 1678.3 195.797 1679.25 Q192.759 1680.21 189.287 1682.15 L189.287 1676.25 Q192.817 1674.83 195.884 1674.1 Q198.951 1673.38 201.497 1673.38 Q208.21 1673.38 212.203 1676.74 Q216.196 1680.09 216.196 1685.71 Q216.196 1688.37 215.184 1690.77 Q214.2 1693.14 211.567 1696.38 Q210.843 1697.22 206.966 1701.24 Q203.089 1705.24 196.029 1712.44 Z" fill="#000000" fill-rule="nonzero" fill-opacity="1" /><path clip-path="url(#clip920)" d="M228.754 1674.16 L251.7 1674.16 L251.7 1679.08 L234.107 1679.08 L234.107 1689.67 Q235.38 1689.24 236.653 1689.03 Q237.927 1688.8 239.2 1688.8 Q246.433 1688.8 250.658 1692.77 Q254.883 1696.73 254.883 1703.5 Q254.883 1710.48 250.542 1714.35 Q246.202 1718.2 238.303 1718.2 Q235.583 1718.2 232.747 1717.74 Q229.941 1717.27 226.931 1716.35 L226.931 1710.48 Q229.535 1711.89 232.313 1712.59 Q235.091 1713.28 238.187 1713.28 Q243.193 1713.28 246.115 1710.65 Q249.038 1708.02 249.038 1703.5 Q249.038 1698.99 246.115 1696.35 Q243.193 1693.72 238.187 1693.72 Q235.843 1693.72 233.5 1694.24 Q231.185 1694.76 228.754 1695.86 L228.754 1674.16 Z" fill="#000000" fill-rule="nonzero" fill-opacity="1" /><path clip-path="url(#clip920)" d="M145.711 1193.15 Q141.197 1193.15 138.911 1197.61 Q136.654 1202.04 136.654 1210.95 Q136.654 1219.83 138.911 1224.29 Q141.197 1228.71 145.711 1228.71 Q150.253 1228.71 152.51 1224.29 Q154.796 1219.83 154.796 1210.95 Q154.796 1202.04 152.51 1197.61 Q150.253 1193.15 145.711 1193.15 M145.711 1188.52 Q152.973 1188.52 156.793 1194.28 Q160.641 1200.01 160.641 1210.95 Q160.641 1221.86 156.793 1227.61 Q152.973 1233.34 145.711 1233.34 Q138.448 1233.34 134.6 1227.61 Q130.78 1221.86 130.78 1210.95 Q130.78 1200.01 134.6 1194.28 Q138.448 1188.52 145.711 1188.52 Z" fill="#000000" fill-rule="nonzero" fill-opacity="1" /><path clip-path="url(#clip920)" d="M170.913 1225.15 L177.018 1225.15 L177.018 1232.5 L170.913 1232.5 L170.913 1225.15 Z" fill="#000000" fill-rule="nonzero" fill-opacity="1" /><path clip-path="url(#clip920)" d="M189.808 1189.3 L212.753 1189.3 L212.753 1194.22 L195.161 1194.22 L195.161 1204.81 Q196.434 1204.38 197.707 1204.18 Q198.98 1203.94 200.253 1203.94 Q207.487 1203.94 211.711 1207.91 Q215.936 1211.87 215.936 1218.64 Q215.936 1225.62 211.596 1229.49 Q207.255 1233.34 199.356 1233.34 Q196.636 1233.34 193.801 1232.88 Q190.994 1232.42 187.985 1231.49 L187.985 1225.62 Q190.589 1227.03 193.367 1227.73 Q196.144 1228.42 199.24 1228.42 Q204.246 1228.42 207.169 1225.79 Q210.091 1223.16 210.091 1218.64 Q210.091 1214.13 207.169 1211.5 Q204.246 1208.86 199.24 1208.86 Q196.897 1208.86 194.553 1209.38 Q192.238 1209.91 189.808 1211 L189.808 1189.3 Z" fill="#000000" fill-rule="nonzero" fill-opacity="1" /><path clip-path="url(#clip920)" d="M239.952 1193.15 Q235.438 1193.15 233.152 1197.61 Q230.895 1202.04 230.895 1210.95 Q230.895 1219.83 233.152 1224.29 Q235.438 1228.71 239.952 1228.71 Q244.495 1228.71 246.752 1224.29 Q249.038 1219.83 249.038 1210.95 Q249.038 1202.04 246.752 1197.61 Q244.495 1193.15 239.952 1193.15 M239.952 1188.52 Q247.215 1188.52 251.034 1194.28 Q254.883 1200.01 254.883 1210.95 Q254.883 1221.86 251.034 1227.61 Q247.215 1233.34 239.952 1233.34 Q232.689 1233.34 228.841 1227.61 Q225.022 1221.86 225.022 1210.95 Q225.022 1200.01 228.841 1194.28 Q232.689 1188.52 239.952 1188.52 Z" fill="#000000" fill-rule="nonzero" fill-opacity="1" /><path clip-path="url(#clip920)" d="M146.955 708.294 Q142.441 708.294 140.155 712.75 Q137.898 717.177 137.898 726.089 Q137.898 734.972 140.155 739.428 Q142.441 743.855 146.955 743.855 Q151.498 743.855 153.755 739.428 Q156.04 734.972 156.04 726.089 Q156.04 717.177 153.755 712.75 Q151.498 708.294 146.955 708.294 M146.955 703.664 Q154.218 703.664 158.037 709.422 Q161.885 715.151 161.885 726.089 Q161.885 736.997 158.037 742.755 Q154.218 748.485 146.955 748.485 Q139.692 748.485 135.844 742.755 Q132.024 736.997 132.024 726.089 Q132.024 715.151 135.844 709.422 Q139.692 703.664 146.955 703.664 Z" fill="#000000" fill-rule="nonzero" fill-opacity="1" /><path clip-path="url(#clip920)" d="M172.157 740.296 L178.263 740.296 L178.263 747.645 L172.157 747.645 L172.157 740.296 Z" fill="#000000" fill-rule="nonzero" fill-opacity="1" /><path clip-path="url(#clip920)" d="M189.518 704.445 L217.296 704.445 L217.296 706.934 L201.613 747.645 L195.508 747.645 L210.265 709.364 L189.518 709.364 L189.518 704.445 Z" fill="#000000" fill-rule="nonzero" fill-opacity="1" /><path clip-path="url(#clip920)" d="M228.754 704.445 L251.7 704.445 L251.7 709.364 L234.107 709.364 L234.107 719.955 Q235.38 719.521 236.653 719.318 Q237.927 719.087 239.2 719.087 Q246.433 719.087 250.658 723.051 Q254.883 727.015 254.883 733.786 Q254.883 740.759 250.542 744.636 Q246.202 748.485 238.303 748.485 Q235.583 748.485 232.747 748.022 Q229.941 747.559 226.931 746.633 L226.931 740.759 Q229.535 742.177 232.313 742.871 Q235.091 743.566 238.187 743.566 Q243.193 743.566 246.115 740.933 Q249.038 738.299 249.038 733.786 Q249.038 729.272 246.115 726.639 Q243.193 724.006 238.187 724.006 Q235.843 724.006 233.5 724.526 Q231.185 725.047 228.754 726.147 L228.754 704.445 Z" fill="#000000" fill-rule="nonzero" fill-opacity="1" /><path clip-path="url(#clip920)" d="M134.223 257.868 L143.772 257.868 L143.772 224.911 L133.384 226.995 L133.384 221.671 L143.714 219.587 L149.559 219.587 L149.559 257.868 L159.108 257.868 L159.108 262.787 L134.223 262.787 L134.223 257.868 Z" fill="#000000" fill-rule="nonzero" fill-opacity="1" /><path clip-path="url(#clip920)" d="M170.913 255.438 L177.018 255.438 L177.018 262.787 L170.913 262.787 L170.913 255.438 Z" fill="#000000" fill-rule="nonzero" fill-opacity="1" /><path clip-path="url(#clip920)" d="M202.25 223.436 Q197.736 223.436 195.45 227.892 Q193.193 232.319 193.193 241.231 Q193.193 250.114 195.45 254.57 Q197.736 258.997 202.25 258.997 Q206.792 258.997 209.049 254.57 Q211.335 250.114 211.335 241.231 Q211.335 232.319 209.049 227.892 Q206.792 223.436 202.25 223.436 M202.25 218.806 Q209.512 218.806 213.332 224.564 Q217.18 230.293 217.18 241.231 Q217.18 252.139 213.332 257.897 Q209.512 263.626 202.25 263.626 Q194.987 263.626 191.139 257.897 Q187.319 252.139 187.319 241.231 Q187.319 230.293 191.139 224.564 Q194.987 218.806 202.25 218.806 Z" fill="#000000" fill-rule="nonzero" fill-opacity="1" /><path clip-path="url(#clip920)" d="M239.952 223.436 Q235.438 223.436 233.152 227.892 Q230.895 232.319 230.895 241.231 Q230.895 250.114 233.152 254.57 Q235.438 258.997 239.952 258.997 Q244.495 258.997 246.752 254.57 Q249.038 250.114 249.038 241.231 Q249.038 232.319 246.752 227.892 Q244.495 223.436 239.952 223.436 M239.952 218.806 Q247.215 218.806 251.034 224.564 Q254.883 230.293 254.883 241.231 Q254.883 252.139 251.034 257.897 Q247.215 263.626 239.952 263.626 Q232.689 263.626 228.841 257.897 Q225.022 252.139 225.022 241.231 Q225.022 230.293 228.841 224.564 Q232.689 218.806 239.952 218.806 Z" fill="#000000" fill-rule="nonzero" fill-opacity="1" /><path clip-path="url(#clip920)" d="M36.2798 1645.88 Q37.171 1643.24 40.0877 1640.77 Q43.0043 1638.26 48.1085 1635.75 L64.6362 1627.44 L64.6362 1636.24 L49.1212 1643.97 Q43.0448 1646.97 41.0599 1649.81 Q39.075 1652.6 39.075 1657.46 L39.075 1666.37 L64.6362 1666.37 L64.6362 1674.56 L4.15616 1674.56 L4.15616 1656.08 Q4.15616 1645.71 8.49062 1640.61 Q12.8251 1635.51 21.575 1635.51 Q27.2868 1635.51 31.0542 1638.18 Q34.8215 1640.81 36.2798 1645.88 M10.8807 1666.37 L32.3505 1666.37 L32.3505 1656.08 Q32.3505 1650.17 29.6363 1647.17 Q26.8817 1644.13 21.575 1644.13 Q16.2684 1644.13 13.5948 1647.17 Q10.8807 1650.17 10.8807 1656.08 L10.8807 1666.37 Z" fill="#000000" fill-rule="nonzero" fill-opacity="1" /><path clip-path="url(#clip920)" d="M41.8296 1598.44 Q41.8296 1607.47 43.8955 1610.96 Q45.9615 1614.44 50.9441 1614.44 Q54.914 1614.44 57.2635 1611.85 Q59.5725 1609.22 59.5725 1604.72 Q59.5725 1598.52 55.1976 1594.79 Q50.7821 1591.03 43.4904 1591.03 L41.8296 1591.03 L41.8296 1598.44 M38.7509 1583.57 L64.6362 1583.57 L64.6362 1591.03 L57.7496 1591.03 Q61.8815 1593.58 63.8665 1597.39 Q65.8109 1601.19 65.8109 1606.7 Q65.8109 1613.67 61.9221 1617.8 Q57.9927 1621.9 51.4302 1621.9 Q43.774 1621.9 39.8851 1616.79 Q35.9963 1611.65 35.9963 1601.48 L35.9963 1591.03 L35.2671 1591.03 Q30.1225 1591.03 27.3273 1594.43 Q24.4917 1597.79 24.4917 1603.91 Q24.4917 1607.8 25.4234 1611.48 Q26.3551 1615.17 28.2185 1618.57 L21.332 1618.57 Q19.7521 1614.48 18.9825 1610.63 Q18.1723 1606.79 18.1723 1603.14 Q18.1723 1593.3 23.2764 1588.43 Q28.3806 1583.57 38.7509 1583.57 Z" fill="#000000" fill-rule="nonzero" fill-opacity="1" /><path clip-path="url(#clip920)" d="M6.38415 1560.85 L19.266 1560.85 L19.266 1545.5 L25.0588 1545.5 L25.0588 1560.85 L49.6883 1560.85 Q55.2381 1560.85 56.8179 1559.35 Q58.3978 1557.81 58.3978 1553.15 L58.3978 1545.5 L64.6362 1545.5 L64.6362 1553.15 Q64.6362 1561.78 61.4359 1565.06 Q58.1952 1568.34 49.6883 1568.34 L25.0588 1568.34 L25.0588 1573.81 L19.266 1573.81 L19.266 1568.34 L6.38415 1568.34 L6.38415 1560.85 Z" fill="#000000" fill-rule="nonzero" fill-opacity="1" /><path clip-path="url(#clip920)" d="M19.266 1535.69 L19.266 1528.24 L64.6362 1528.24 L64.6362 1535.69 L19.266 1535.69 M1.60409 1535.69 L1.60409 1528.24 L11.0427 1528.24 L11.0427 1535.69 L1.60409 1535.69 Z" fill="#000000" fill-rule="nonzero" fill-opacity="1" /><path clip-path="url(#clip920)" d="M24.4917 1495.06 Q24.4917 1501.06 29.1907 1504.54 Q33.8493 1508.02 41.9916 1508.02 Q50.1339 1508.02 54.833 1504.58 Q59.4915 1501.1 59.4915 1495.06 Q59.4915 1489.11 54.7925 1485.62 Q50.0934 1482.14 41.9916 1482.14 Q33.9303 1482.14 29.2313 1485.62 Q24.4917 1489.11 24.4917 1495.06 M18.1723 1495.06 Q18.1723 1485.34 24.4917 1479.79 Q30.8111 1474.24 41.9916 1474.24 Q53.1316 1474.24 59.4915 1479.79 Q65.8109 1485.34 65.8109 1495.06 Q65.8109 1504.82 59.4915 1510.37 Q53.1316 1515.88 41.9916 1515.88 Q30.8111 1515.88 24.4917 1510.37 Q18.1723 1504.82 18.1723 1495.06 Z" fill="#000000" fill-rule="nonzero" fill-opacity="1" /><path clip-path="url(#clip920)" d="M24.4917 1417.93 Q24.4917 1423.93 29.1907 1427.41 Q33.8493 1430.89 41.9916 1430.89 Q50.1339 1430.89 54.833 1427.45 Q59.4915 1423.97 59.4915 1417.93 Q59.4915 1411.98 54.7925 1408.49 Q50.0934 1405.01 41.9916 1405.01 Q33.9303 1405.01 29.2313 1408.49 Q24.4917 1411.98 24.4917 1417.93 M18.1723 1417.93 Q18.1723 1408.21 24.4917 1402.66 Q30.8111 1397.11 41.9916 1397.11 Q53.1316 1397.11 59.4915 1402.66 Q65.8109 1408.21 65.8109 1417.93 Q65.8109 1427.69 59.4915 1433.24 Q53.1316 1438.75 41.9916 1438.75 Q30.8111 1438.75 24.4917 1433.24 Q18.1723 1427.69 18.1723 1417.93 Z" fill="#000000" fill-rule="nonzero" fill-opacity="1" /><path clip-path="url(#clip920)" d="M1.60409 1361.79 L7.80197 1361.79 L7.80197 1368.92 Q7.80197 1372.93 9.42233 1374.51 Q11.0427 1376.05 15.2556 1376.05 L19.266 1376.05 L19.266 1363.77 L25.0588 1363.77 L25.0588 1376.05 L64.6362 1376.05 L64.6362 1383.54 L25.0588 1383.54 L25.0588 1390.67 L19.266 1390.67 L19.266 1383.54 L16.1063 1383.54 Q8.53113 1383.54 5.08787 1380.02 Q1.60409 1376.49 1.60409 1368.84 L1.60409 1361.79 Z" fill="#000000" fill-rule="nonzero" fill-opacity="1" /><path clip-path="url(#clip920)" d="M40.0877 1290.37 L43.7335 1290.37 L43.7335 1324.64 Q51.4302 1324.15 55.4811 1320.02 Q59.4915 1315.85 59.4915 1308.44 Q59.4915 1304.14 58.4383 1300.13 Q57.385 1296.08 55.2786 1292.11 L62.3271 1292.11 Q64.0285 1296.12 64.9197 1300.33 Q65.8109 1304.55 65.8109 1308.88 Q65.8109 1319.74 59.4915 1326.1 Q53.1721 1332.42 42.3967 1332.42 Q31.2567 1332.42 24.7348 1326.42 Q18.1723 1320.39 18.1723 1310.18 Q18.1723 1301.02 24.0866 1295.72 Q29.9604 1290.37 40.0877 1290.37 M37.9002 1297.82 Q31.7833 1297.9 28.1375 1301.27 Q24.4917 1304.59 24.4917 1310.1 Q24.4917 1316.34 28.016 1320.1 Q31.5403 1323.83 37.9407 1324.4 L37.9002 1297.82 Z" fill="#000000" fill-rule="nonzero" fill-opacity="1" /><path clip-path="url(#clip920)" d="M19.266 1241.88 L41.3435 1258.29 L64.6362 1241.03 L64.6362 1249.82 L46.8122 1263.03 L64.6362 1276.23 L64.6362 1285.02 L40.8979 1267.4 L19.266 1283.52 L19.266 1274.73 L35.4291 1262.7 L19.266 1250.67 L19.266 1241.88 Z" fill="#000000" fill-rule="nonzero" fill-opacity="1" /><path clip-path="url(#clip920)" d="M57.8306 1223.29 L81.893 1223.29 L81.893 1230.78 L19.266 1230.78 L19.266 1223.29 L26.1526 1223.29 Q22.1017 1220.94 20.1572 1217.37 Q18.1723 1213.77 18.1723 1208.78 Q18.1723 1200.52 24.7348 1195.38 Q31.2972 1190.19 41.9916 1190.19 Q52.686 1190.19 59.2485 1195.38 Q65.8109 1200.52 65.8109 1208.78 Q65.8109 1213.77 63.8665 1217.37 Q61.8815 1220.94 57.8306 1223.29 M41.9916 1197.93 Q33.7683 1197.93 29.1097 1201.33 Q24.4107 1204.69 24.4107 1210.61 Q24.4107 1216.52 29.1097 1219.92 Q33.7683 1223.29 41.9916 1223.29 Q50.2149 1223.29 54.914 1219.92 Q59.5725 1216.52 59.5725 1210.61 Q59.5725 1204.69 54.914 1201.33 Q50.2149 1197.93 41.9916 1197.93 Z" fill="#000000" fill-rule="nonzero" fill-opacity="1" /><path clip-path="url(#clip920)" d="M1.60409 1177.83 L1.60409 1170.38 L64.6362 1170.38 L64.6362 1177.83 L1.60409 1177.83 Z" fill="#000000" fill-rule="nonzero" fill-opacity="1" /><path clip-path="url(#clip920)" d="M41.8296 1134.17 Q41.8296 1143.2 43.8955 1146.68 Q45.9615 1150.17 50.9441 1150.17 Q54.914 1150.17 57.2635 1147.57 Q59.5725 1144.94 59.5725 1140.45 Q59.5725 1134.25 55.1976 1130.52 Q50.7821 1126.75 43.4904 1126.75 L41.8296 1126.75 L41.8296 1134.17 M38.7509 1119.3 L64.6362 1119.3 L64.6362 1126.75 L57.7496 1126.75 Q61.8815 1129.31 63.8665 1133.11 Q65.8109 1136.92 65.8109 1142.43 Q65.8109 1149.4 61.9221 1153.53 Q57.9927 1157.62 51.4302 1157.62 Q43.774 1157.62 39.8851 1152.52 Q35.9963 1147.37 35.9963 1137.2 L35.9963 1126.75 L35.2671 1126.75 Q30.1225 1126.75 27.3273 1130.16 Q24.4917 1133.52 24.4917 1139.63 Q24.4917 1143.52 25.4234 1147.21 Q26.3551 1150.9 28.2185 1154.3 L21.332 1154.3 Q19.7521 1150.21 18.9825 1146.36 Q18.1723 1142.51 18.1723 1138.87 Q18.1723 1129.02 23.2764 1124.16 Q28.3806 1119.3 38.7509 1119.3 Z" fill="#000000" fill-rule="nonzero" fill-opacity="1" /><path clip-path="url(#clip920)" d="M19.266 1103.95 L19.266 1096.49 L64.6362 1096.49 L64.6362 1103.95 L19.266 1103.95 M1.60409 1103.95 L1.60409 1096.49 L11.0427 1096.49 L11.0427 1103.95 L1.60409 1103.95 Z" fill="#000000" fill-rule="nonzero" fill-opacity="1" /><path clip-path="url(#clip920)" d="M37.252 1043.18 L64.6362 1043.18 L64.6362 1050.64 L37.4951 1050.64 Q31.0542 1050.64 27.8539 1053.15 Q24.6537 1055.66 24.6537 1060.68 Q24.6537 1066.72 28.5021 1070.2 Q32.3505 1073.69 38.9939 1073.69 L64.6362 1073.69 L64.6362 1081.18 L19.266 1081.18 L19.266 1073.69 L26.3146 1073.69 Q22.2232 1071.01 20.1977 1067.41 Q18.1723 1063.76 18.1723 1059.02 Q18.1723 1051.2 23.0334 1047.19 Q27.8539 1043.18 37.252 1043.18 Z" fill="#000000" fill-rule="nonzero" fill-opacity="1" /><path clip-path="url(#clip920)" d="M40.0877 989.508 L43.7335 989.508 L43.7335 1023.78 Q51.4302 1023.29 55.4811 1019.16 Q59.4915 1014.99 59.4915 1007.58 Q59.4915 1003.28 58.4383 999.271 Q57.385 995.22 55.2786 991.25 L62.3271 991.25 Q64.0285 995.261 64.9197 999.474 Q65.8109 1003.69 65.8109 1008.02 Q65.8109 1018.88 59.4915 1025.24 Q53.1721 1031.56 42.3967 1031.56 Q31.2567 1031.56 24.7348 1025.56 Q18.1723 1019.53 18.1723 1009.32 Q18.1723 1000.16 24.0866 994.856 Q29.9604 989.508 40.0877 989.508 M37.9002 996.962 Q31.7833 997.043 28.1375 1000.41 Q24.4917 1003.73 24.4917 1009.24 Q24.4917 1015.47 28.016 1019.24 Q31.5403 1022.97 37.9407 1023.54 L37.9002 996.962 Z" fill="#000000" fill-rule="nonzero" fill-opacity="1" /><path clip-path="url(#clip920)" d="M26.1526 947.42 L1.60409 947.42 L1.60409 939.966 L64.6362 939.966 L64.6362 947.42 L57.8306 947.42 Q61.8815 949.769 63.8665 953.374 Q65.8109 956.939 65.8109 961.962 Q65.8109 970.186 59.2485 975.371 Q52.686 980.515 41.9916 980.515 Q31.2972 980.515 24.7348 975.371 Q18.1723 970.186 18.1723 961.962 Q18.1723 956.939 20.1572 953.374 Q22.1017 949.769 26.1526 947.42 M41.9916 972.819 Q50.2149 972.819 54.914 969.456 Q59.5725 966.054 59.5725 960.139 Q59.5725 954.225 54.914 950.822 Q50.2149 947.42 41.9916 947.42 Q33.7683 947.42 29.1097 950.822 Q24.4107 954.225 24.4107 960.139 Q24.4107 966.054 29.1097 969.456 Q33.7683 972.819 41.9916 972.819 Z" fill="#000000" fill-rule="nonzero" fill-opacity="1" /><path clip-path="url(#clip920)" d="M19.266 903.589 L19.266 895.69 L57.3445 881.511 L19.266 867.333 L19.266 859.434 L64.6362 876.448 L64.6362 886.575 L19.266 903.589 Z" fill="#000000" fill-rule="nonzero" fill-opacity="1" /><path clip-path="url(#clip920)" d="M41.8296 828.526 Q41.8296 837.559 43.8955 841.043 Q45.9615 844.527 50.9441 844.527 Q54.914 844.527 57.2635 841.934 Q59.5725 839.301 59.5725 834.804 Q59.5725 828.607 55.1976 824.88 Q50.7821 821.112 43.4904 821.112 L41.8296 821.112 L41.8296 828.526 M38.7509 813.659 L64.6362 813.659 L64.6362 821.112 L57.7496 821.112 Q61.8815 823.664 63.8665 827.472 Q65.8109 831.28 65.8109 836.789 Q65.8109 843.757 61.9221 847.889 Q57.9927 851.98 51.4302 851.98 Q43.774 851.98 39.8851 846.876 Q35.9963 841.731 35.9963 831.564 L35.9963 821.112 L35.2671 821.112 Q30.1225 821.112 27.3273 824.515 Q24.4917 827.877 24.4917 833.994 Q24.4917 837.883 25.4234 841.569 Q26.3551 845.256 28.2185 848.659 L21.332 848.659 Q19.7521 844.567 18.9825 840.719 Q18.1723 836.87 18.1723 833.225 Q18.1723 823.381 23.2764 818.52 Q28.3806 813.659 38.7509 813.659 Z" fill="#000000" fill-rule="nonzero" fill-opacity="1" /><path clip-path="url(#clip920)" d="M26.2336 772.015 Q25.5044 773.271 25.1804 774.77 Q24.8158 776.228 24.8158 778.011 Q24.8158 784.33 28.9477 787.733 Q33.0391 791.095 40.7358 791.095 L64.6362 791.095 L64.6362 798.589 L19.266 798.589 L19.266 791.095 L26.3146 791.095 Q22.1827 788.746 20.1977 784.978 Q18.1723 781.211 18.1723 775.823 Q18.1723 775.054 18.2938 774.122 Q18.3748 773.19 18.5774 772.056 L26.2336 772.015 Z" fill="#000000" fill-rule="nonzero" fill-opacity="1" /><path clip-path="url(#clip920)" d="M19.266 764.197 L19.266 756.743 L64.6362 756.743 L64.6362 764.197 L19.266 764.197 M1.60409 764.197 L1.60409 756.743 L11.0427 756.743 L11.0427 764.197 L1.60409 764.197 Z" fill="#000000" fill-rule="nonzero" fill-opacity="1" /><path clip-path="url(#clip920)" d="M41.8296 720.528 Q41.8296 729.562 43.8955 733.046 Q45.9615 736.529 50.9441 736.529 Q54.914 736.529 57.2635 733.937 Q59.5725 731.304 59.5725 726.807 Q59.5725 720.609 55.1976 716.883 Q50.7821 713.115 43.4904 713.115 L41.8296 713.115 L41.8296 720.528 M38.7509 705.662 L64.6362 705.662 L64.6362 713.115 L57.7496 713.115 Q61.8815 715.667 63.8665 719.475 Q65.8109 723.283 65.8109 728.792 Q65.8109 735.76 61.9221 739.892 Q57.9927 743.983 51.4302 743.983 Q43.774 743.983 39.8851 738.879 Q35.9963 733.734 35.9963 723.567 L35.9963 713.115 L35.2671 713.115 Q30.1225 713.115 27.3273 716.518 Q24.4917 719.88 24.4917 725.997 Q24.4917 729.886 25.4234 733.572 Q26.3551 737.259 28.2185 740.661 L21.332 740.661 Q19.7521 736.57 18.9825 732.722 Q18.1723 728.873 18.1723 725.227 Q18.1723 715.384 23.2764 710.523 Q28.3806 705.662 38.7509 705.662 Z" fill="#000000" fill-rule="nonzero" fill-opacity="1" /><path clip-path="url(#clip920)" d="M37.252 652.595 L64.6362 652.595 L64.6362 660.048 L37.4951 660.048 Q31.0542 660.048 27.8539 662.56 Q24.6537 665.072 24.6537 670.095 Q24.6537 676.13 28.5021 679.614 Q32.3505 683.098 38.9939 683.098 L64.6362 683.098 L64.6362 690.592 L19.266 690.592 L19.266 683.098 L26.3146 683.098 Q22.2232 680.424 20.1977 676.819 Q18.1723 673.173 18.1723 668.434 Q18.1723 660.616 23.0334 656.605 Q27.8539 652.595 37.252 652.595 Z" fill="#000000" fill-rule="nonzero" fill-opacity="1" /><path clip-path="url(#clip920)" d="M21.0079 605.078 L27.9755 605.078 Q26.2336 608.237 25.3829 611.438 Q24.4917 614.597 24.4917 617.838 Q24.4917 625.089 29.1097 629.099 Q33.6872 633.11 41.9916 633.11 Q50.296 633.11 54.914 629.099 Q59.4915 625.089 59.4915 617.838 Q59.4915 614.597 58.6408 611.438 Q57.7496 608.237 56.0077 605.078 L62.8943 605.078 Q64.3526 608.197 65.0818 611.559 Q65.8109 614.881 65.8109 618.648 Q65.8109 628.897 59.37 634.933 Q52.929 640.969 41.9916 640.969 Q30.8921 640.969 24.5322 634.892 Q18.1723 628.775 18.1723 618.162 Q18.1723 614.719 18.9014 611.438 Q19.5901 608.156 21.0079 605.078 Z" fill="#000000" fill-rule="nonzero" fill-opacity="1" /><path clip-path="url(#clip920)" d="M40.0877 553.307 L43.7335 553.307 L43.7335 587.578 Q51.4302 587.092 55.4811 582.96 Q59.4915 578.787 59.4915 571.374 Q59.4915 567.08 58.4383 563.07 Q57.385 559.019 55.2786 555.049 L62.3271 555.049 Q64.0285 559.059 64.9197 563.272 Q65.8109 567.485 65.8109 571.82 Q65.8109 582.676 59.4915 589.036 Q53.1721 595.355 42.3967 595.355 Q31.2567 595.355 24.7348 589.36 Q18.1723 583.324 18.1723 573.116 Q18.1723 563.961 24.0866 558.654 Q29.9604 553.307 40.0877 553.307 M37.9002 560.761 Q31.7833 560.842 28.1375 564.204 Q24.4917 567.526 24.4917 573.035 Q24.4917 579.273 28.016 583.041 Q31.5403 586.768 37.9407 587.335 L37.9002 560.761 Z" fill="#000000" fill-rule="nonzero" fill-opacity="1" /><path clip-path="url(#clip922)" d="M459.631 1370.97 L459.631 2180.62 L809.476 2180.62 L809.476 1370.97 L459.631 1370.97 L459.631 1370.97  Z" fill="#009af9" fill-rule="evenodd" fill-opacity="1"/>
<polyline clip-path="url(#clip922)" style="stroke:#000000; stroke-linecap:round; stroke-linejoin:round; stroke-width:4; stroke-opacity:1; fill:none" points="459.631,1370.97 459.631,2180.62 809.476,2180.62 809.476,1370.97 459.631,1370.97 "/>
<path clip-path="url(#clip922)" d="M896.937 777.814 L896.937 2180.62 L1246.78 2180.62 L1246.78 777.814 L896.937 777.814 L896.937 777.814  Z" fill="#009af9" fill-rule="evenodd" fill-opacity="1"/>
<polyline clip-path="url(#clip922)" style="stroke:#000000; stroke-linecap:round; stroke-linejoin:round; stroke-width:4; stroke-opacity:1; fill:none" points="896.937,777.814 896.937,2180.62 1246.78,2180.62 1246.78,777.814 896.937,777.814 "/>
<path clip-path="url(#clip922)" d="M1334.24 350.483 L1334.24 2180.62 L1684.09 2180.62 L1684.09 350.483 L1334.24 350.483 L1334.24 350.483  Z" fill="#009af9" fill-rule="evenodd" fill-opacity="1"/>
<polyline clip-path="url(#clip922)" style="stroke:#000000; stroke-linecap:round; stroke-linejoin:round; stroke-width:4; stroke-opacity:1; fill:none" points="1334.24,350.483 1334.24,2180.62 1684.09,2180.62 1684.09,350.483 1334.24,350.483 "/>
<path clip-path="url(#clip922)" d="M1771.55 241.671 L1771.55 2180.62 L2121.39 2180.62 L2121.39 241.671 L1771.55 241.671 L1771.55 241.671  Z" fill="#009af9" fill-rule="evenodd" fill-opacity="1"/>
<polyline clip-path="url(#clip922)" style="stroke:#000000; stroke-linecap:round; stroke-linejoin:round; stroke-width:4; stroke-opacity:1; fill:none" points="1771.55,241.671 1771.55,2180.62 2121.39,2180.62 2121.39,241.671 1771.55,241.671 "/>
<path clip-path="url(#clip922)" d="M2208.86 241.39 L2208.86 2180.62 L2558.7 2180.62 L2558.7 241.39 L2208.86 241.39 L2208.86 241.39  Z" fill="#009af9" fill-rule="evenodd" fill-opacity="1"/>
<polyline clip-path="url(#clip922)" style="stroke:#000000; stroke-linecap:round; stroke-linejoin:round; stroke-width:4; stroke-opacity:1; fill:none" points="2208.86,241.39 2208.86,2180.62 2558.7,2180.62 2558.7,241.39 2208.86,241.39 "/>
<path clip-path="url(#clip922)" d="M2646.16 241.187 L2646.16 2180.62 L2996.01 2180.62 L2996.01 241.187 L2646.16 241.187 L2646.16 241.187  Z" fill="#009af9" fill-rule="evenodd" fill-opacity="1"/>
<polyline clip-path="url(#clip922)" style="stroke:#000000; stroke-linecap:round; stroke-linejoin:round; stroke-width:4; stroke-opacity:1; fill:none" points="2646.16,241.187 2646.16,2180.62 2996.01,2180.62 2996.01,241.187 2646.16,241.187 "/>
<circle clip-path="url(#clip922)" style="fill:#009af9; stroke:none; fill-opacity:0" cx="634.553" cy="1370.97" r="2"/>
<circle clip-path="url(#clip922)" style="fill:#009af9; stroke:none; fill-opacity:0" cx="1071.86" cy="777.814" r="2"/>
<circle clip-path="url(#clip922)" style="fill:#009af9; stroke:none; fill-opacity:0" cx="1509.17" cy="350.483" r="2"/>
<circle clip-path="url(#clip922)" style="fill:#009af9; stroke:none; fill-opacity:0" cx="1946.47" cy="241.671" r="2"/>
<circle clip-path="url(#clip922)" style="fill:#009af9; stroke:none; fill-opacity:0" cx="2383.78" cy="241.39" r="2"/>
<circle clip-path="url(#clip922)" style="fill:#009af9; stroke:none; fill-opacity:0" cx="2821.09" cy="241.187" r="2"/>
<polyline clip-path="url(#clip922)" style="stroke:#ff0000; stroke-linecap:round; stroke-linejoin:round; stroke-width:12; stroke-opacity:1; fill:none" points="634.553,1370.97 1071.86,777.814 1509.17,350.483 1946.47,241.671 2383.78,241.39 2821.09,241.187 "/>
<circle clip-path="url(#clip922)" cx="634.553" cy="1370.97" r="14.4" fill="#ff0000" fill-rule="evenodd" fill-opacity="1" stroke="#000000" stroke-opacity="1" stroke-width="4.8"/>
<circle clip-path="url(#clip922)" cx="1071.86" cy="777.814" r="14.4" fill="#ff0000" fill-rule="evenodd" fill-opacity="1" stroke="#000000" stroke-opacity="1" stroke-width="4.8"/>
<circle clip-path="url(#clip922)" cx="1509.17" cy="350.483" r="14.4" fill="#ff0000" fill-rule="evenodd" fill-opacity="1" stroke="#000000" stroke-opacity="1" stroke-width="4.8"/>
<circle clip-path="url(#clip922)" cx="1946.47" cy="241.671" r="14.4" fill="#ff0000" fill-rule="evenodd" fill-opacity="1" stroke="#000000" stroke-opacity="1" stroke-width="4.8"/>
<circle clip-path="url(#clip922)" cx="2383.78" cy="241.39" r="14.4" fill="#ff0000" fill-rule="evenodd" fill-opacity="1" stroke="#000000" stroke-opacity="1" stroke-width="4.8"/>
<circle clip-path="url(#clip922)" cx="2821.09" cy="241.187" r="14.4" fill="#ff0000" fill-rule="evenodd" fill-opacity="1" stroke="#000000" stroke-opacity="1" stroke-width="4.8"/>
</svg>
